<?xml version="1.0" encoding="utf-8"?>
<!-- Generator: Adobe Illustrator 15.1.0, SVG Export Plug-In . SVG Version: 6.00 Build 0)  -->
<!DOCTYPE svg PUBLIC "-//W3C//DTD SVG 1.1//EN" "http://www.w3.org/Graphics/SVG/1.1/DTD/svg11.dtd">
<svg version="1.1" id="Layer_1" xmlns="http://www.w3.org/2000/svg" xmlns:xlink="http://www.w3.org/1999/xlink" x="0px" y="0px"
	 width="212px" height="209px" viewBox="0 0 212 209" enable-background="new 0 0 212 209" xml:space="preserve">
<circle fill="none" stroke="#214D6A" stroke-width="5.1527" stroke-miterlimit="10" cx="107.5" cy="104.5" r="97.5"/>
<g>
	<g>
		<g>
			<path fill="#FFFFFF" d="M87.856,160.352c8.536-0.103,17.083,0.232,25.644,0.148c7.354-0.071,14.797-1.029,22.188-1.119
				c0.001-2.996-0.35-6.289-1.39-10.023c-2.404-8.481-5.063-12.405-15.568-27.595c-9.373-13.438-9.78-14.685-9.759-14.798
				c-0.232,0.248-9.152,9.82-12.899,16.317c-3.671,6.455-9.367,9.113-13.544,26.581c-0.766,3.182-1.252,6.258-1.354,9.654
				C83.394,159.673,85.648,159.992,87.856,160.352z"/>
			<path fill="#E0DFE6" d="M113.54,135.813c3.291,5.063,5.696,9.367,6.329,15.317c0.362,2.974,0.341,6.07,0.027,9.126
				c4.453-0.264,8.924-0.66,13.383-0.816c-0.147-8.074-2.488-15.781-5.941-23.12c-1.646-3.417-3.924-6.582-5.57-9.999
				c-0.76-1.773-2.025-4.431-4.177-5.063c-0.38-0.38-0.886-0.506-1.267-0.634c0.507-0.253,1.014-0.506,1.52-0.759
				c0.633-0.38,1.139-0.633,1.772-1.014c-3.418,0.887-6.836,1.646-9.874,3.799c0.381,0,0.76-0.126,1.141-0.254
				c-0.76,0.887-1.267,2.026-1.267,3.418C109.616,129.484,111.641,132.775,113.54,135.813z"/>
			<path fill="none" stroke="#214D6A" stroke-width="5" stroke-miterlimit="10" d="M87.856,160.352
				c8.536-0.103,17.083,0.232,25.644,0.148c7.102-0.068,14.287-0.96,21.43-1.104c0.002-3-0.349-6.298-1.391-10.039
				c-2.404-8.481-5.063-12.405-15.568-27.595c-9.37-13.435-9.778-14.685-9.757-14.798c-0.234,0.251-9.154,9.821-12.901,16.317
				c-3.67,6.455-9.367,9.113-13.543,26.581c-0.764,3.168-1.249,6.232-1.354,9.611C82.879,159.604,85.396,159.951,87.856,160.352z"/>
		</g>
		<circle fill="#FFFFFF" cx="107.211" cy="99.232" r="21.519"/>
		<path fill="#E0DFE6" d="M109.742,120.497c2.025-0.633,4.051-1.392,6.076-2.152c-0.127,0-0.253-0.126-0.38-0.126
			c0.507-0.253,1.013-0.506,1.52-0.76c6.075-3.417,13.164-11.265,9.746-18.228c-3.671-7.721-11.013,3.038-13.417,5.823
			c-2.531,3.038-6.455,4.811-10.38,5.063c-0.886-0.38-1.646-0.38-2.278,0c-4.43-0.38-8.607-2.531-10.633-6.836
			c-0.885-1.898-3.291-0.886-3.67,0.76c-1.646-0.76-3.798,1.013-2.658,2.658c0.506,0.632,0.886,1.393,1.392,2.024
			c0.38,1.772,1.646,3.292,3.038,4.558c0.506,0.38,0.886,0.506,1.393,0.506c0,0.38,0.253,0.76,0.633,1.013
			c5.949,4.558,12.91,6.583,19.873,5.19C110.123,120.117,109.996,120.244,109.742,120.497z"/>
		<circle fill="none" stroke="#214D6A" stroke-width="5" stroke-miterlimit="10" cx="106.325" cy="99.232" r="21.519"/>
	</g>
	<path fill="none" stroke="#214D6A" stroke-width="5" stroke-miterlimit="10" d="M155.5,158.5c0,1.104-0.896,2-2,2h-92
		c-1.104,0-2-0.896-2-2v-105c0-1.104,0.896-2,2-2h92c1.104,0,2,0.896,2,2V158.5z"/>
	<path fill="none" stroke="#214D6A" stroke-width="5" stroke-miterlimit="10" d="M157.5,66c0,0,10,1,9,12s-10,9.5-10,9.5"/>
	<path fill="none" stroke="#214D6A" stroke-width="5" stroke-miterlimit="10" d="M157.5,95c0,0,10,1,9,12s-10,9.5-10,9.5"/>
	<path fill="none" stroke="#214D6A" stroke-width="5" stroke-miterlimit="10" d="M157.5,124c0,0,10,1,9,12s-10,9.5-10,9.5"/>
</g>
</svg>
