<?xml version="1.0" encoding="utf-8"?>
<!-- Generator: Adobe Illustrator 15.1.0, SVG Export Plug-In . SVG Version: 6.00 Build 0)  -->
<!DOCTYPE svg PUBLIC "-//W3C//DTD SVG 1.1//EN" "http://www.w3.org/Graphics/SVG/1.1/DTD/svg11.dtd">
<svg version="1.1" id="Layer_1" xmlns="http://www.w3.org/2000/svg" xmlns:xlink="http://www.w3.org/1999/xlink" x="0px" y="0px"
	 width="212px" height="209px" viewBox="0 0 212 209" enable-background="new 0 0 212 209" xml:space="preserve">
<circle fill="none" stroke="#214D6A" stroke-width="5.1527" stroke-miterlimit="10" cx="104.5" cy="106.5" r="97.5"/>
<path fill="none" stroke="#214D6A" stroke-width="5.1527" stroke-miterlimit="10" d="M150.208,58.895
	c-11.726-4.591-27.97-7.434-45.923-7.434c-17.951,0-34.195,2.843-45.922,7.434c-11.975,1.684-21.202,12.2-21.202,24.93
	c0,13.903,11.001,25.172,24.573,25.172c13.57,0,24.572-11.269,24.572-25.172c0-2.111-0.258-4.16-0.735-6.121
	c5.925-0.693,12.206-1.07,18.714-1.07c6.509,0,12.79,0.377,18.715,1.07c-0.477,1.961-0.734,4.01-0.734,6.121
	c0,13.903,11.002,25.172,24.572,25.172s24.572-11.269,24.572-25.172C171.41,71.095,162.184,60.578,150.208,58.895z"/>
<path fill="none" stroke="#214D6A" stroke-width="5" stroke-miterlimit="10" d="M174.407,133.048
	c-1.199-16.181-12.586-17.194-12.586-17.194c-18.659-1.867-46.747,4.053-44.911-26.357l0.561-2.996h-1.199H91.129h-0.028
	l0.015-0.488c-0.23,1.773,7.178,32.269-42.389,29.272c0,0-12.452,1.729-13.697,17.911s19.987,23.305,56.1,23.305
	c1.74,0,3.345,0,4.828,0c0.078,0,1.603,0,5.932,0c1.18,0,2.571,0,4.195,0c1.762,0,3.803,0,6.155,0c1.256,0,2.593,0,4.032,0
	C151.033,156.5,175.605,149.23,174.407,133.048z"/>
<circle fill="none" stroke="#214D6A" stroke-width="5.1527" stroke-miterlimit="10" cx="101.626" cy="130.496" r="17.048"/>
</svg>
