<?xml version="1.0" encoding="utf-8"?>
<!-- Generator: Adobe Illustrator 15.1.0, SVG Export Plug-In . SVG Version: 6.00 Build 0)  -->
<!DOCTYPE svg PUBLIC "-//W3C//DTD SVG 1.1//EN" "http://www.w3.org/Graphics/SVG/1.1/DTD/svg11.dtd">
<svg version="1.1" id="Layer_1" xmlns="http://www.w3.org/2000/svg" xmlns:xlink="http://www.w3.org/1999/xlink" x="0px" y="0px"
	 width="212px" height="209px" viewBox="0 0 212 209" enable-background="new 0 0 212 209" xml:space="preserve">
<circle fill="none" stroke="#214D6A" stroke-width="5.1527" stroke-miterlimit="10" cx="108.5" cy="104.5" r="97.5"/>
<g>
	<polyline fill="none" stroke="#214D6A" stroke-width="4" stroke-miterlimit="10" points="163.554,132.342 182.486,130.624 
		161.283,50.217 39.001,55.001 54.334,135.001 130.041,132.342 	"/>
	<path id="XMLID_8_" fill="#E0DFE6" d="M150.182,165.608c-1.178-1.3-2.39-2.558-3.642-3.786c-0.661-0.647-1.336-1.284-2.029-1.899
		c0.019-0.073,0.031-0.153,0.036-0.238c0.062-1.088-0.154-2.167-0.518-3.193c-0.012-0.141-0.027-0.281-0.037-0.423
		c-0.059-0.902,0.036-1.829-0.154-2.715c0.151-0.13,0.257-0.311,0.275-0.531c0.193,0.002,0.4-0.04,0.613-0.141
		c0.453-0.214,0.891-0.348,1.371-0.48c0.762-0.212,1.37-1.292,0.817-2.009c-2.883-3.735-5.28-7.523-7.329-11.77
		c-1.758-3.642-3.671-7.105-6.988-9.551c-1.883-1.389-3.835-2.406-5.226-4.363c-1.126-1.584-1.895-3.343-2.694-5.101
		c-1.848-4.06-3.519-8.242-5.55-12.21c-0.063-0.123-0.289-0.072-0.271,0.073c0.537,4.277,1.198,8.931,2.821,12.948
		c0.374,0.925,0.82,1.809,1.322,2.655c0.373,0.909,0.832,1.789,1.468,2.625c0.744,0.98,1.52,1.62,2.458,2.278
		c0.118,0.116,0.242,0.227,0.364,0.34c-0.542,0.01-1.089,0.05-1.635,0.111c0.071,0.042,0.143,0.09,0.211,0.149
		c-0.383-0.324-0.002-0.022,0.104,0.036c0.197,0.107,0.39,0.227,0.585,0.339c0.499,0.289,0.998,0.578,1.489,0.88
		c1.013,0.626,2.109,1.297,2.889,2.212c0.2,0.234,0.302,0.489,0.329,0.741c0.482,0.515,0.999,1.009,1.496,1.542
		c1.457,1.561,2.213,3.611,3.379,5.37c2.749,4.145,4.251,8.846,6.035,13.437c0.188,0.488,0.63,0.685,1.043,0.66
		c-0.164,0.281-0.299,0.588-0.41,0.909c-0.282-0.092-0.6-0.068-0.87,0.057c-0.165-0.081-0.367-0.129-0.613-0.129
		c-1.213-0.003-2.432,1.729-3.231,2.492c-0.638,0.608-0.343,1.794,0.528,1.999c0.088,0.021,0.176,0.042,0.263,0.062
		c0.227,0.054,0.485,0.019,0.713-0.085c0.178,0.244,0.367,0.482,0.559,0.719c0.439,2.515,1.758,5.071,2.712,7.355
		c0.284,0.684,0.585,1.358,0.894,2.029h9.324C152.32,167.758,151.144,166.672,150.182,165.608z M141.874,157.766
		c0.06-0.018,0.118-0.039,0.176-0.064c0.021,0.083,0.042,0.166,0.062,0.25C142.033,157.889,141.953,157.827,141.874,157.766z
		 M143.476,150.54c-0.026,0.019-0.051,0.037-0.075,0.056c-0.111-0.286-0.227-0.57-0.344-0.854c0.188,0.235,0.377,0.47,0.566,0.704
		C143.574,150.479,143.524,150.507,143.476,150.54z"/>
	<path id="XMLID_7_" fill="#214D6A" stroke="#214D6A" stroke-width="2" stroke-miterlimit="10" d="M141.805,166.139
		c0.496,0.994,0.995,1.994,1.498,2.997h0.832c-0.552-1.102-1.104-2.21-1.663-3.329c-1.451-2.913-2.951-5.922-4.494-8.903
		c9.445-5.652,18.162-9.581,26.642-12.007c0.197-0.058,0.312-0.264,0.255-0.462c-0.057-0.197-0.263-0.312-0.461-0.256
		c-8.632,2.471-17.502,6.482-27.119,12.266c-0.169,0.102-0.229,0.316-0.139,0.491C138.753,160.014,140.305,163.127,141.805,166.139z
		"/>
	<path id="XMLID_6_" fill="#E0DFE6" d="M129.918,110.701c-0.805-0.847-1.606-1.694-2.437-2.516c-0.231-0.229-0.483-0.457-0.738-0.69
		c0.045-0.09,0.072-0.19,0.073-0.303c0-0.724-0.311-1.222-0.499-1.893c-0.216-0.764,0.234-1.655,0.341-2.426
		c0.239-1.728,0.129-3.475-0.187-5.185c-0.029-0.16-0.252-0.104-0.266,0.036c-0.218,2.202-0.997,4.017-1.722,6.071
		c-0.594,1.683,0.235,2.357,0.973,3.764c0.15,0.288,0.433,0.387,0.7,0.348c0.057,0.064,0.112,0.13,0.169,0.194
		c0.971,1.093,1.966,2.157,2.972,3.217C129.688,111.729,130.306,111.109,129.918,110.701z"/>
	<path id="XMLID_5_" fill="#214D6A" stroke="#214D6A" stroke-width="2" stroke-miterlimit="10" d="M118.396,109.396
		c0.42,2.002,0.855,4.072,1.396,6.097c0.618,2.317,1.124,3.571,1.612,4.784l0.225,0.558c1.078,2.688,2.192,5.467,4.568,7.39
		c6.881,5.568,10.324,13.31,13.655,20.797c0.747,1.681,1.521,3.418,2.319,5.103c0.088,0.187,0.311,0.265,0.496,0.178
		c0.186-0.089,0.265-0.311,0.176-0.496c-0.795-1.677-1.565-3.41-2.312-5.087c-3.366-7.567-6.847-15.392-13.866-21.073
		c-2.227-1.801-3.304-4.488-4.347-7.088l-0.225-0.56c-0.48-1.19-0.978-2.423-1.583-4.696c-0.535-2.005-0.969-4.065-1.388-6.059
		c-0.168-0.804-0.337-1.607-0.513-2.409c-0.188-0.86-0.284-1.693-0.284-2.476c0-1.291,0.261-2.498,0.773-3.591
		c0.944-2.007,2.065-4.347,3.334-6.957c0.284-0.584,0.986-1.077,1.534-1.077c0.192,0,0.344,0.06,0.463,0.181
		c1.624,1.667,2.448,4.182,2.448,7.474c0,1.406-0.152,2.942-0.452,4.569c-0.04,0.213-0.06,0.431-0.06,0.647
		c0,0.867,0.314,1.738,0.908,2.521c0.788,1.036,1.476,1.998,2.099,2.942c0.238,0.359,0.798,0.438,0.993,0.438
		c0.674,0,1.222-0.571,1.222-1.272l-0.001-0.051c-0.109-2.861-0.241-5.766-0.369-8.574c-0.322-7.112-0.656-14.466-0.656-21.712
		c0-0.627,0.003-1.252,0.008-1.879c0.028-3.467,0.793-4.881,2.638-4.881c3.563,0,3.934,5.378,4.498,13.518
		c0.269,3.905,0.576,8.33,1.296,13.139c0.022,0.146,0.13,0.267,0.273,0.305c0.145,0.038,0.298-0.015,0.389-0.132
		c1.238-1.592,3.192-2.62,4.982-2.62c0.674,0,2.344,0.162,3.276,1.674c0.063,0.103,0.173,0.168,0.292,0.177
		c0.118,0.008,0.237-0.043,0.313-0.136c1.053-1.285,2.651-2.084,4.172-2.084c1.235,0,2.884,0.581,3.464,2.218
		c0.041,0.117,0.139,0.206,0.26,0.236s0.25-0.002,0.342-0.086c0.9-0.824,2.112-1.278,3.411-1.278c3.845,0,4.687,2.302,4.769,5.756
		c0.054,2.277,0.262,4.57,0.463,6.789c0.231,2.567,0.473,5.223,0.473,7.848c0,7.081-1.903,11.233-4.538,16.979
		c-0.214,0.465-0.432,0.94-0.653,1.429c-0.047,0.104-0.045,0.223,0.008,0.323c2.143,4.186,4.515,8.697,7.338,13.328
		c3.375,5.537,6.214,11.19,8.959,16.656c0.305,0.605,0.612,1.218,0.921,1.829h0.834c-0.366-0.725-0.729-1.447-1.089-2.163
		c-2.753-5.48-5.599-11.146-8.99-16.71c-2.773-4.552-5.112-8.991-7.229-13.119c0.196-0.43,0.389-0.851,0.578-1.262
		c2.674-5.832,4.605-10.047,4.605-17.291c0-2.658-0.242-5.33-0.476-7.915c-0.2-2.206-0.406-4.486-0.459-6.738
		c-0.076-3.206-0.79-6.484-5.514-6.484c-1.304,0-2.533,0.403-3.518,1.144c-0.833-1.638-2.605-2.232-3.959-2.232
		c-1.588,0-3.244,0.753-4.426,1.993c-0.828-1.039-2.122-1.625-3.627-1.625c-1.762,0-3.658,0.876-5.024,2.281
		c-0.634-4.471-0.919-8.606-1.174-12.279c-0.592-8.557-0.983-14.21-5.24-14.21c-3.336,0-3.368,3.938-3.382,5.619
		c-0.005,0.629-0.008,1.257-0.008,1.885c0,7.263,0.334,14.625,0.657,21.746c0.127,2.807,0.259,5.711,0.369,8.591
		c0,0.291-0.215,0.528-0.478,0.528c-0.133,0-0.332-0.065-0.372-0.105c-0.633-0.957-1.328-1.933-2.127-2.982
		c-0.494-0.65-0.756-1.366-0.756-2.069c0-0.172,0.015-0.344,0.047-0.513c0.308-1.671,0.464-3.253,0.464-4.704
		c0-3.492-0.895-6.183-2.66-7.993c-0.259-0.266-0.603-0.405-0.995-0.405c-0.842,0-1.789,0.644-2.204,1.497
		c-1.269,2.612-2.392,4.956-3.338,6.964c-0.56,1.192-0.845,2.507-0.845,3.908c0,0.837,0.102,1.723,0.301,2.635
		C118.059,107.793,118.228,108.595,118.396,109.396z"/>
	<g enable-background="new    ">
		<path fill="#214D6A" d="M51.936,81.57l-0.242-3.989c-0.152-2.515,0.887-4.681,3.874-4.862c2.952-0.178,4.263,1.845,4.416,4.359
			l0.242,3.99c0.156,2.568-1.104,4.693-3.856,4.859C53.619,86.096,52.092,84.14,51.936,81.57z M52.914,77.508l0.242,3.989
			c0.123,2.022,1.139,3.387,3.143,3.265c2.004-0.121,2.828-1.598,2.706-3.62l-0.242-3.989c-0.125-2.06-0.992-3.396-3.124-3.268
			C53.471,74.018,52.789,75.447,52.914,77.508z"/>
		<path fill="#214D6A" d="M64.021,84.842c0.021,0.327-0.237,0.6-0.547,0.618c-0.347,0.021-0.616-0.218-0.637-0.546l-0.385-6.34
			c-0.04-0.639-0.136-1.018-0.413-1.365c-0.078-0.087-0.121-0.194-0.128-0.303c-0.019-0.311,0.224-0.545,0.515-0.563
			c0.236-0.015,0.524,0.207,0.744,0.521c0.824-0.599,1.881-0.973,2.555-1.014c0.638-0.039,0.854,0.203,0.873,0.531
			c0.022,0.365-0.235,0.655-0.545,0.655c-0.821,0.031-1.513,0.073-2.471,0.882l0.001,0.018c0,0,0.02,0.018,0.053,0.564
			L64.021,84.842z"/>
		<path fill="#214D6A" d="M68.231,73.469c-0.019-0.311,0.165-0.596,0.547-0.619c0.383-0.023,0.6,0.238,0.619,0.549l0.166,2.732
			l2.113-0.129c0.291-0.018,0.543,0.205,0.563,0.533c0.019,0.291-0.204,0.542-0.496,0.561l-2.113,0.129l0.236,3.898
			c0.123,2.021,0.387,2.755,1.862,2.665c0.128-0.007,0.236-0.032,0.363-0.04c0.347-0.021,0.823,0.005,0.854,0.497
			c0.03,0.511-0.439,0.594-0.877,0.62c-2.514,0.152-3.209-1.049-3.36-3.545L68.231,73.469z"/>
		<path fill="#214D6A" d="M74.012,81.621l-0.19-3.135c-0.109-1.803,0.989-3.277,3.176-3.41c2.204-0.134,3.456,1.197,3.565,3.002
			l0.189,3.133c0.11,1.804-0.973,3.259-3.176,3.394C75.39,84.737,74.121,83.424,74.012,81.621z M79.568,81.283l-0.191-3.152
			c-0.079-1.312-0.858-2.087-2.315-1.998c-1.439,0.087-2.137,0.952-2.058,2.264l0.191,3.152c0.08,1.312,0.876,2.067,2.314,1.98
			C78.968,83.44,79.647,82.595,79.568,81.283z"/>
		<path fill="#214D6A" d="M87.936,75.125c0.389-0.828,1.006-1.213,1.352-1.234c0.31-0.02,0.56,0.186,0.578,0.495
			c0.009,0.146-0.022,0.239-0.056,0.278l-0.153,0.191c-0.584,0.621-0.857,0.93-0.806,1.785l0.07,1.167
			c0.111,1.822-0.878,3.308-3.046,3.44c-0.546,0.033-1.081-0.045-1.566-0.198c-0.212,0.435-0.262,0.802-0.245,1.076
			c0.046,0.765,0.75,0.905,1.224,0.876l0.783-0.047c2.059-0.125,3.656,0.582,3.762,2.313c0.109,1.803-1.392,2.991-3.523,3.121
			c-2.04,0.123-3.522-0.792-3.627-2.523c-0.052-0.837,0.27-1.569,0.907-2.213c-0.501-0.427-0.682-0.982-0.706-1.401
			c-0.024-0.4,0.104-0.975,0.708-1.578c-0.77-0.631-1.189-1.52-1.255-2.595c-0.113-1.876,0.857-3.361,3.025-3.493
			C86.199,74.535,87.143,74.715,87.936,75.125z M87.703,76.107c-0.681-0.361-1.388-0.555-2.098-0.512
			c-1.477,0.09-2.173,0.973-2.083,2.447c0.082,1.35,0.775,2.221,2.288,2.129c1.438-0.087,2.027-0.928,1.946-2.258l-0.071-1.184
			C87.68,76.64,87.683,76.383,87.703,76.107z M84.49,84.038c-0.486,0.432-0.691,0.956-0.655,1.558
			c0.074,1.221,0.916,1.827,2.446,1.734c1.438-0.087,2.442-0.732,2.368-1.954c-0.064-1.057-0.875-1.446-2.478-1.349l-0.783,0.048
			C85.042,84.096,84.729,84.079,84.49,84.038z"/>
		<path fill="#214D6A" d="M93.337,83.063c0.02,0.328-0.238,0.6-0.548,0.618c-0.347,0.021-0.616-0.219-0.637-0.547l-0.385-6.34
			c-0.039-0.638-0.135-1.017-0.411-1.364c-0.079-0.087-0.122-0.195-0.129-0.304c-0.019-0.31,0.223-0.544,0.515-0.562
			c0.236-0.014,0.523,0.205,0.744,0.521c0.823-0.598,1.88-0.973,2.554-1.014c0.638-0.039,0.854,0.203,0.874,0.531
			c0.021,0.364-0.234,0.654-0.546,0.655c-0.82,0.03-1.514,0.073-2.47,0.881l0.001,0.019c0,0,0.019,0.018,0.052,0.564L93.337,83.063z
			"/>
		<path fill="#214D6A" d="M102.388,76.734c-0.089-1.477-0.823-2.127-2.263-2.039c-0.674,0.041-1.047,0.21-1.451,0.49
			c-0.104,0.08-0.246,0.161-0.428,0.172c-0.274,0.018-0.398-0.231-0.431-0.449c-0.118-0.76,1.211-1.151,2.432-1.226
			c2.24-0.137,3.211,1.085,3.356,3.472l0.249,4.117c0.029,0.475,0.207,0.701,0.534,0.681c0.074-0.005,0.109-0.024,0.146-0.026
			c0.273-0.018,0.416,0.23,0.431,0.467c0.022,0.365-0.335,0.515-0.662,0.534c-0.565,0.034-1.081-0.337-1.448-0.954
			c-0.721,0.774-1.555,1.191-2.538,1.251c-1.841,0.111-2.8-0.927-2.896-2.513l-0.004-0.072c-0.106-1.749,0.877-2.723,3.009-2.854
			c0.619-0.037,1.319,0.049,2.042,0.206L102.388,76.734z M98.581,80.586l0.005,0.072c0.057,0.947,0.518,1.615,1.902,1.53
			c0.839-0.05,1.494-0.383,2.168-1.027l-0.132-2.187c-0.743-0.192-1.515-0.255-2.062-0.222
			C98.787,78.855,98.524,79.656,98.581,80.586z"/>
		<path fill="#214D6A" d="M106.298,72.748c-0.14-2.295,1.146-3.416,2.945-3.599c0.29-0.035,1.565-0.112,1.61,0.616
			c0.021,0.346-0.222,0.563-0.532,0.58c-0.164,0.01-0.329,0.002-0.422-0.011c-0.239-0.022-0.497-0.062-0.733-0.047
			c-1.203,0.073-1.763,1.095-1.693,2.242l0.079,1.294l2.113-0.129c0.292-0.018,0.525,0.207,0.544,0.535
			c0.018,0.291-0.186,0.541-0.478,0.559l-2.113,0.129l0.438,7.214c0.02,0.327-0.167,0.577-0.55,0.6
			c-0.382,0.023-0.615-0.199-0.635-0.527L106.298,72.748z"/>
		<path fill="#214D6A" d="M113.89,69.178c0.103-0.115,0.222-0.268,0.403-0.279c0.255-0.016,0.471,0.227,0.485,0.465
			c0.005,0.072-0.008,0.164-0.041,0.221l-1.398,1.676c-0.17,0.193-0.272,0.327-0.473,0.34c-0.272,0.017-0.507-0.207-0.522-0.48
			c-0.005-0.072,0.012-0.11,0.062-0.187L113.89,69.178z M113.669,82.413c-0.346,0.021-0.617-0.219-0.637-0.546l-0.502-8.271
			c-0.021-0.329,0.219-0.617,0.565-0.639c0.309-0.019,0.599,0.238,0.618,0.566l0.503,8.271
			C114.236,82.122,113.979,82.395,113.669,82.413z"/>
		<path fill="#214D6A" d="M121.592,75.568c-0.09-1.477-0.823-2.127-2.263-2.039c-0.674,0.041-1.048,0.211-1.451,0.49
			c-0.105,0.08-0.247,0.162-0.429,0.172c-0.273,0.018-0.398-0.23-0.43-0.449c-0.119-0.76,1.21-1.152,2.431-1.226
			c2.241-0.136,3.211,1.085,3.356,3.472l0.25,4.117c0.028,0.474,0.207,0.701,0.535,0.682c0.072-0.005,0.107-0.025,0.145-0.028
			c0.272-0.017,0.416,0.231,0.431,0.468c0.021,0.364-0.335,0.514-0.663,0.534c-0.564,0.034-1.081-0.337-1.447-0.954
			c-0.721,0.775-1.556,1.191-2.539,1.251c-1.841,0.112-2.799-0.927-2.896-2.512l-0.004-0.073c-0.106-1.75,0.877-2.724,3.008-2.853
			c0.62-0.038,1.319,0.048,2.042,0.206L121.592,75.568z M117.785,79.42l0.005,0.073c0.057,0.947,0.518,1.614,1.902,1.53
			c0.838-0.051,1.494-0.383,2.169-1.027l-0.134-2.188c-0.742-0.191-1.515-0.255-2.061-0.222
			C117.99,77.688,117.729,78.491,117.785,79.42z"/>
	</g>
	<g>
		<g>
			<g>
				
					<line fill="none" stroke="#214D6A" stroke-linecap="round" stroke-miterlimit="10" stroke-dasharray="1.3904" x1="52.06" y1="89.58" x2="53.448" y2="89.512"/>
			</g>
			<g>
				<g>
					
						<line fill="none" stroke="#214D6A" stroke-linecap="round" stroke-miterlimit="10" x1="56.21" y1="89.377" x2="66.198" y2="88.888"/>
					
						<line fill="none" stroke="#214D6A" stroke-linecap="round" stroke-miterlimit="10" stroke-dasharray="18.3685,4.5921" x1="70.784" y1="88.662" x2="114.357" y2="86.526"/>
					
						<line fill="none" stroke="#214D6A" stroke-linecap="round" stroke-miterlimit="10" x1="116.65" y1="86.413" x2="126.639" y2="85.924"/>
				</g>
			</g>
			<g>
				
					<line fill="none" stroke="#214D6A" stroke-linecap="round" stroke-miterlimit="10" stroke-dasharray="1.3904" x1="128.02" y1="85.856" x2="129.408" y2="85.788"/>
			</g>
		</g>
	</g>
</g>
</svg>
