<?xml version="1.0" encoding="utf-8"?>
<!-- Generator: Adobe Illustrator 15.1.0, SVG Export Plug-In . SVG Version: 6.00 Build 0)  -->
<!DOCTYPE svg PUBLIC "-//W3C//DTD SVG 1.1//EN" "http://www.w3.org/Graphics/SVG/1.1/DTD/svg11.dtd">
<svg version="1.1" id="Layer_1" xmlns="http://www.w3.org/2000/svg" xmlns:xlink="http://www.w3.org/1999/xlink" x="0px" y="0px"
	 width="212px" height="209px" viewBox="0 0 212 209" enable-background="new 0 0 212 209" xml:space="preserve">
<circle fill="none" stroke="#214D6A" stroke-width="5.1527" stroke-miterlimit="10" cx="105.5" cy="106.5" r="97.5"/>
<path fill="#E0DFE6" d="M136.575,103.909c-2.446,2.24-6.153,3.874-10.413,5.091c-5.848,1.671-8.813,6.031-15.162,6
	c-5.939-0.029-10.656-4.58-16.174-5.999c-1.04-0.269-2.063-0.597-3.084-0.927c-0.57-0.191-1.135-0.399-1.697-0.613
	c-0.121-0.057-0.259-0.119-0.431-0.197c-1.099-0.512-2.141-1.131-3.165-1.776c-0.146-0.092-0.247-0.151-0.327-0.194
	c-0.117-0.136-0.331-0.359-0.697-0.718c-9.683-9.472-24.543,5.368-14.85,14.85c9.995,9.777,25.658,12.22,39.05,12.491
	c14.648,0.299,30.723-3.02,41.8-13.158C161.434,109.597,146.542,94.786,136.575,103.909z"/>
<polygon fill="none" stroke="#214D6A" stroke-width="5.1527" stroke-miterlimit="10" points="46.343,91.975 112,115.666 
	176.343,91.308 113.008,67.309 "/>
<path fill="none" stroke="#214D6A" stroke-width="5" stroke-miterlimit="10" d="M69.5,99v35c0,0,19.207,11.666,42.834,11.666
	c24.666,0,39.166-14.358,39.166-14.358V102"/>
<polyline fill="none" stroke="#214D6A" stroke-width="5.1527" stroke-miterlimit="10" points="113.676,84.974 90.342,100.974 
	87.676,156.308 "/>
<ellipse fill="none" stroke="#214D6A" stroke-width="5" stroke-miterlimit="10" cx="87.009" cy="165.154" rx="10" ry="10.18"/>
</svg>
