<?xml version="1.0" encoding="utf-8"?>
<!-- Generator: Adobe Illustrator 15.1.0, SVG Export Plug-In . SVG Version: 6.00 Build 0)  -->
<!DOCTYPE svg PUBLIC "-//W3C//DTD SVG 1.1//EN" "http://www.w3.org/Graphics/SVG/1.1/DTD/svg11.dtd">
<svg version="1.1" id="Layer_1" xmlns="http://www.w3.org/2000/svg" xmlns:xlink="http://www.w3.org/1999/xlink" x="0px" y="0px"
	 width="212px" height="209px" viewBox="0 0 212 209" enable-background="new 0 0 212 209" xml:space="preserve">
<circle fill="none" stroke="#214D6A" stroke-width="5.1527" stroke-miterlimit="10" cx="105.5" cy="106.5" r="97.5"/>
<g>
	<g>
		<path fill="#FFFFFF" d="M93.572,99.782c-3.671,6.455-9.367,9.113-13.544,26.581c-1.646,6.836-2.024,13.165,0,23.291
			c0.759,3.67,9.114,9.999,18.228,11.519c4.81,0.76,10.506,0.253,18.354-0.76c2.912-0.379,14.43-2.785,15.189-11.266
			c0.633-6.456,2.785-13.29,0-23.29c-2.404-8.481-5.063-12.405-15.568-27.595c-10.506-15.063-9.748-14.81-9.748-14.81
			S97.369,93.199,93.572,99.782z"/>
		<path fill="#E0DFE6" d="M124.838,112.819c-1.646-3.417-3.924-6.582-5.57-9.999c-0.76-1.773-2.025-4.431-4.177-5.063
			c-0.38-0.38-0.886-0.506-1.267-0.634c0.507-0.253,1.014-0.506,1.52-0.759c0.633-0.38,1.139-0.633,1.772-1.014
			c-3.418,0.887-6.836,1.646-9.874,3.799c0.381,0,0.76-0.126,1.141-0.254c-0.76,0.887-1.267,2.026-1.267,3.418
			c0,3.671,2.024,6.962,3.924,9.999c3.291,5.063,5.696,9.367,6.329,15.317c0.633,5.188,0.127,10.759-1.139,15.822
			c-1.014,3.924-4.811,6.328-5.57,10.252c-0.76,4.051,2.658,4.177,6.076,3.418c0.76,0.253,1.646,0,2.152-0.633
			c1.012-0.379,1.771-0.634,2.404-0.887c6.582-3.163,8.86-8.733,9.367-15.442C131.42,130.54,128.888,121.427,124.838,112.819z"/>
		<path fill="none" stroke="#214D6A" stroke-width="5" stroke-miterlimit="10" d="M92.813,99.782
			c-3.67,6.455-9.367,9.113-13.543,26.581c-1.646,6.836-2.025,13.165,0,23.291c0.759,3.67,9.113,9.999,18.227,11.519
			c4.811,0.76,10.506,0.253,18.354-0.76c2.912-0.379,14.431-2.785,15.189-11.266c0.633-6.456,2.785-13.29,0-23.29
			c-2.404-8.481-5.063-12.405-15.568-27.595c-10.506-15.063-9.746-14.81-9.746-14.81S96.609,93.199,92.813,99.782z"/>
	</g>
	<circle fill="#FFFFFF" cx="104.711" cy="75.732" r="21.519"/>
	<path fill="#E0DFE6" d="M107.242,96.997c2.025-0.633,4.051-1.392,6.076-2.152c-0.127,0-0.253-0.126-0.38-0.126
		c0.507-0.253,1.013-0.506,1.52-0.76c6.075-3.417,13.164-11.265,9.746-18.228c-3.671-7.721-11.013,3.038-13.417,5.823
		c-2.531,3.038-6.455,4.811-10.38,5.063c-0.886-0.38-1.646-0.38-2.278,0c-4.43-0.38-8.607-2.531-10.633-6.836
		c-0.885-1.898-3.291-0.886-3.67,0.76c-1.646-0.76-3.798,1.013-2.658,2.658c0.506,0.632,0.886,1.393,1.392,2.024
		c0.38,1.772,1.646,3.292,3.038,4.558c0.506,0.38,0.886,0.506,1.393,0.506c0,0.38,0.253,0.76,0.633,1.013
		c5.949,4.558,12.91,6.583,19.873,5.19C107.623,96.617,107.496,96.744,107.242,96.997z"/>
	<circle fill="none" stroke="#214D6A" stroke-width="5" stroke-miterlimit="10" cx="103.825" cy="75.732" r="21.519"/>
</g>
<path fill="none" stroke="#214D6A" stroke-width="5.1527" stroke-miterlimit="10" d="M165.849,161.933
	c0,6.961-5.696,12.657-12.657,12.657H56.99c-6.961,0-12.657-5.696-12.657-12.657V53.074c0-6.961,5.696-12.657,12.657-12.657h96.201
	c6.961,0,12.657,5.696,12.657,12.657V161.933z"/>
<path fill="#1F4D69" d="M60.795,73.39c-4.335-4.762-4.017-11.4-3.737-17.257l0.03-0.623c0.78-16.656,5.223-29.147,11.373-29.379
	c2.914-0.108,6.248,0.248,8.164,2.994c2.281,3.27,1.584,8.484,1.624,10.437c0.018,0.829-0.64,1.515-1.468,1.532
	c-0.826,0.018-1.514-0.641-1.531-1.469c-0.043-2.021,0.5-4.75-0.875-7.75c-1.026-2.239-3.771-2.821-5.801-2.745
	c-2.984,0.111-7.678,9.205-8.49,26.521l-0.029,0.625c-0.252,5.274-0.538,11.253,2.959,15.094c0.522,0.574,3.824,1.206,5.41-0.238
	c1.416-1.29,1.65-4.066,1.856-6.518c0.062-0.732,0.122-1.443,0.208-2.102c0.203-1.551,0.347-3.279,0.44-5.283
	c0.019-0.41,0.069-0.954,0.128-1.585c0.207-2.229,0.638-6.865-0.633-8.262c-0.263-0.288-1.326-0.582-2.403,0.398
	c-1.433,1.304-1.472,3.684-1.461,17.796c0.001,0.829-0.671,1.501-1.499,1.502c-0.831,0-1.5-0.673-1.501-1.499
	c-0.011-15.758-0.013-17.783,2.441-20.017c2.304-2.099,5.241-1.737,6.641-0.2c2.163,2.375,1.704,7.301,1.401,10.56
	c-0.053,0.575-0.1,1.072-0.117,1.447c-0.098,2.088-0.25,3.896-0.463,5.53c-0.08,0.616-0.136,1.28-0.192,1.966
	c-0.253,3.001-0.54,6.401-2.827,8.483C67.623,75.917,62.435,75.19,60.795,73.39z"/>
</svg>
