<?xml version="1.0" encoding="utf-8"?>
<!-- Generator: Adobe Illustrator 15.1.0, SVG Export Plug-In . SVG Version: 6.00 Build 0)  -->
<!DOCTYPE svg PUBLIC "-//W3C//DTD SVG 1.1//EN" "http://www.w3.org/Graphics/SVG/1.1/DTD/svg11.dtd">
<svg version="1.1" id="Layer_1" xmlns="http://www.w3.org/2000/svg" xmlns:xlink="http://www.w3.org/1999/xlink" x="0px" y="0px"
	 width="212px" height="209px" viewBox="0 0 212 209" enable-background="new 0 0 212 209" xml:space="preserve">
<rect x="51.432" y="68.492" transform="matrix(0.9934 -0.115 0.115 0.9934 -13.1365 10.7255)" fill="#EAEAEA" stroke="#214D6A" stroke-width="3.779" stroke-miterlimit="10" width="69.928" height="101.462"/>
<path fill="#E0DFE6" d="M124.054,143.641c-0.378-0.07-0.415,0.008-0.812,0.037c-0.545,0.043-0.617,0.045-0.219,0.006
	c-0.409-0.039-0.815-0.154-1.212-0.26c-0.038-0.012-0.077-0.023-0.125-0.037c-0.596-0.182-1.183-0.361-1.786-0.508
	c-0.862-0.209-1.938-0.098-2.824-0.129c-1.312-0.047-2.625-0.064-3.937-0.033c-3.141,0.074-6.309,0.551-9.445,0.971
	c-0.885-4.949-2.104-9.834-2.899-14.805c-0.536-3.346-0.969-6.707-1.487-10.057c-0.514-3.322-1.283-6.662-1.997-9.83
	c-1.439-6.383-1.765-12.967-2.374-19.463c-0.326-3.477-0.913-6.772-1.95-10.113c-0.92-2.965-1.962-5.487-2.331-8.322
	c-0.131-0.998-0.59-1.885-1.254-2.551c-2.083,0.597-4.329,0.83-6.519,0.849c-0.465,0.782-0.691,1.71-0.567,2.668
	c0.404,3.097,1.419,6.074,2.398,9.023c1.008,3.038,1.507,5.599,1.83,8.859c0.663,6.692,1.007,13.423,2.427,20.015
	c0.671,3.109,1.395,6.082,1.911,9.279c0.539,3.342,0.971,6.697,1.484,10.043c1.037,6.729,2.891,13.295,3.703,20.063
	c0.278,2.316,2.381,4.033,4.661,3.77c0.646-0.074,1.243-0.309,1.763-0.65c3.68-0.428,7.374-1.002,11.07-1.225
	c1.71-0.104,3.769-0.221,5.438,0.184c-0.425-0.135-0.396-0.127,0.086,0.021c0.61,0.188,1.22,0.371,1.836,0.533
	c1.067,0.281,2.21,0.275,3.302,0.199c0.692-0.049,0.114-0.307,0.655-0.693C124.1,148.955,124.6,146.229,124.054,143.641z"/>
<g>
	<path fill="none" stroke="#214D6A" stroke-width="2" stroke-miterlimit="10" d="M62.288,109.021
		c1.766-0.963,3.209-3.652,4.806-5.162c0.336,1.119-0.181,4.406,0.969,4.883c1.367,0.57,3.937-3.84,4.831-4.568
		c-0.966,4.639,5.03,0.01,6.106-1.174c-0.052,1.02,0.171,2.078,0.628,2.949c1.317-0.668,2.449-2.367,3.624-2.98
		c-0.744,4.811,4.729-1.189,6.105-1.865c0.064,1.295,0.011,2.633,0.087,3.918c2.719,0.352,4.493-2.26,6.904-3.035
		c2.089-0.672,3.533-0.387,5.754-2.58c-0.579,1.188-1.311,2.221-1.388,3.475c1.863-0.113,2.97-2.049,5.129-1.779"/>
	<path fill="none" stroke="#214D6A" stroke-width="2" stroke-miterlimit="10" d="M62.897,113.895
		c2.659,5.066,2.463,3.742,6.327,0.328c0.606,3.205,4.368-0.961,5.816-1.201c-0.065,0.434,0.112,1.004,0.078,1.443
		c2.131-0.016,3.595-2.072,5.725-2.365c-0.098,0.523,0.161,1.229,0.063,1.746c2.438,0.16,4.563-2.154,6.927-2.324
		c0.029,1.652-0.514,4.258,1.207,4.805c1.62,0.512,4.715-4.027,5.556-5.088c0.998,3.061,8.726-1.168,10.34,0.121
		c0.482-0.264,0.084-0.516,0.299-0.816"/>
	<path fill="none" stroke="#214D6A" stroke-width="2" stroke-miterlimit="10" d="M62.897,124.25c-0.037,0.488-0.021,1,0.046,1.477
		c1.804,0.078,2.419-2.188,3.867-2.982c-0.126,0.605,0.186,1.453,0.093,2.066c2.065,0.25,3.805-2.229,5.462-3.215
		c-0.165,1.072-0.263,2.158-0.29,3.225c2.049-0.24,4.934-1.939,6.621-3.219c-0.129,4.541,6.247-3.354,6.78,0.471
		c2.568,0.432,4.476-1.049,6.574-2.016c-0.55,0.725-0.833,1.873-1.099,2.629c2.158-0.518,4.336-1.834,6.675-2.316
		c1.8-0.373,3.891-0.205,5.415-1.258c0.839,1.678,2.667,2.627,3.717,0.57"/>
	<path fill="none" stroke="#214D6A" stroke-width="2" stroke-miterlimit="10" d="M67.161,131.256
		c-0.697,0.584-0.862,1.627-0.57,2.701c2.275-0.26,3.413-2.971,5.086-4.199c0.009,4.004,6.803-0.393,8.237-1.227
		c-0.308,0.758-0.04,1.951-0.172,2.682c3.104,0.191,4.686-3.467,7.497-4.195c-1.131,5.207,6.179,1.289,7.837-0.07
		c-0.567,0.752-0.266,0.945-0.478,1.826c2.426,0.518,4.009-1.35,6.027-2.002c-0.129,0.594,0.188,1.416,0.087,2.006
		c1.756,0.006,5.383-0.633,6.654-1.785"/>
	<path fill="none" stroke="#214D6A" stroke-width="2" stroke-miterlimit="10" d="M66.553,141.916
		c1.759,1.045,4.056-1.646,5.116-3.027c-0.938,4.277,4.391,0.896,5.482-0.525c-0.978,4.928,4.338-0.164,5.818-0.375
		c-0.518,5.203,5.049-0.672,6.691-0.904c-0.116,0.379-0.111,1.078-0.239,1.459c2.196-0.912,4.833-2.723,7.26-2.686
		c-0.472,0.707-0.31,1.672-0.536,2.363c2.292,0.018,4.813-1.236,6.918-2.059c-0.229,0.521-0.054,1.533-0.225,2.059
		c1.861,0.031,3.276-1.531,5.085-1.742c0.802,1.1,2.129,0.201,2.794-0.957"/>
</g>
<rect x="93.484" y="41.985" transform="matrix(0.9934 -0.115 0.115 0.9934 -9.8115 15.3889)" fill="#FFFFFF" stroke="#214D6A" stroke-width="3.779" stroke-miterlimit="10" width="69.929" height="101.463"/>
<path fill="none" stroke="#214D6A" stroke-width="2" stroke-miterlimit="10" d="M106.168,84.557
	c1.766-0.962,3.208-3.651,4.805-5.162c0.337,1.119-0.18,4.406,0.969,4.885c1.368,0.569,3.938-3.842,4.832-4.57
	c-0.966,4.639,5.029,0.011,6.106-1.174c-0.052,1.02,0.171,2.078,0.628,2.949c1.317-0.666,2.448-2.367,3.623-2.979
	c-0.744,4.811,4.729-1.19,6.106-1.865c0.064,1.295,0.011,2.632,0.087,3.917c2.72,0.352,4.493-2.26,6.903-3.035
	c2.089-0.672,3.533-0.386,5.755-2.58c-0.579,1.188-1.312,2.221-1.389,3.477c1.863-0.115,2.97-2.051,5.13-1.781"/>
<path fill="none" stroke="#214D6A" stroke-width="2" stroke-miterlimit="10" d="M106.777,89.43c2.659,5.066,2.463,3.742,6.326,0.329
	c0.607,3.204,4.369-0.962,5.816-1.202c-0.065,0.433,0.113,1.004,0.08,1.443c2.129-0.016,3.595-2.07,5.724-2.365
	c-0.099,0.524,0.16,1.23,0.063,1.748c2.438,0.159,4.563-2.156,6.927-2.325c0.029,1.651-0.514,4.259,1.207,4.804
	c1.62,0.514,4.715-4.027,5.556-5.088c0.997,3.063,8.725-1.168,10.34,0.121c0.482-0.262,0.083-0.515,0.298-0.814"/>
<path fill="none" stroke="#214D6A" stroke-width="2" stroke-miterlimit="10" d="M106.777,99.785c-0.037,0.49-0.021,1,0.046,1.477
	c1.804,0.08,2.419-2.188,3.867-2.98c-0.126,0.605,0.185,1.451,0.094,2.066c2.063,0.248,3.804-2.23,5.461-3.215
	c-0.164,1.07-0.262,2.156-0.29,3.223c2.049-0.24,4.934-1.938,6.621-3.219c-0.129,4.543,6.247-3.354,6.779,0.471
	c2.569,0.432,4.477-1.047,6.574-2.016c-0.549,0.725-0.832,1.875-1.097,2.629c2.157-0.516,4.334-1.832,6.674-2.316
	c1.8-0.373,3.891-0.203,5.414-1.258c0.839,1.678,2.666,2.627,3.718,0.57"/>
<path fill="none" stroke="#214D6A" stroke-width="2" stroke-miterlimit="10" d="M111.04,106.791
	c-0.696,0.584-0.861,1.625-0.569,2.701c2.275-0.258,3.413-2.971,5.085-4.199c0.009,4.004,6.804-0.393,8.238-1.225
	c-0.308,0.758-0.041,1.949-0.171,2.68c3.104,0.193,4.685-3.467,7.497-4.195c-1.132,5.209,6.178,1.289,7.837-0.07
	c-0.568,0.752-0.266,0.945-0.478,1.826c2.425,0.518,4.008-1.35,6.026-2.002c-0.128,0.594,0.188,1.418,0.088,2.008
	c1.755,0.004,5.382-0.633,6.654-1.787"/>
<path fill="none" stroke="#214D6A" stroke-width="2" stroke-miterlimit="10" d="M110.432,117.453
	c1.76,1.043,4.057-1.648,5.117-3.029c-0.938,4.277,4.391,0.896,5.482-0.525c-0.979,4.928,4.338-0.164,5.817-0.375
	c-0.517,5.203,5.05-0.672,6.692-0.904c-0.116,0.379-0.11,1.078-0.238,1.459c2.195-0.912,4.833-2.723,7.258-2.686
	c-0.471,0.707-0.309,1.672-0.535,2.365c2.292,0.018,4.813-1.238,6.918-2.061c-0.229,0.521-0.053,1.533-0.225,2.061
	c1.861,0.031,3.276-1.533,5.085-1.742c0.802,1.098,2.131,0.201,2.795-0.959"/>
<circle fill="none" stroke="#214D6A" stroke-width="5.1527" stroke-miterlimit="10" cx="107.5" cy="104.5" r="97.5"/>
<path fill="#214D6A" stroke="#214D6A" stroke-width="2" stroke-miterlimit="10" d="M59.982,95.463
	c-0.137,0.364-0.396,0.824-0.894,0.889c-0.522,0.068-1.063-0.393-1.135-0.942c-0.027-0.209,0.02-0.456,0.082-0.596l3.685-8.838
	l-5.353-6.935c-0.098-0.147-0.181-0.376-0.205-0.56c-0.068-0.523,0.311-1.077,0.834-1.146c0.472-0.063,0.921,0.33,1.244,0.768
	l4.49,6.037l2.782-6.99c0.184-0.423,0.509-0.997,1.031-1.065c0.497-0.065,1.003,0.347,1.078,0.922
	c0.024,0.184-0.001,0.399-0.059,0.567l-3.385,8.079l5.836,7.591c0.097,0.119,0.205,0.346,0.232,0.555
	c0.072,0.55-0.33,1.135-0.826,1.199c-0.497,0.065-0.862-0.287-1.119-0.625l-5.133-6.884L59.982,95.463z"/>
<path fill="#214D6A" stroke="#214D6A" stroke-width="2" stroke-miterlimit="10" d="M104.233,71.479l-0.681-6.429l-5.72-9.422
	c-0.067-0.126-0.142-0.331-0.157-0.488c-0.063-0.577,0.41-1.13,0.962-1.188c0.313-0.033,0.67,0.061,0.858,0.333l4.875,8.212
	l3.047-9.05c0.127-0.307,0.453-0.473,0.77-0.506c0.551-0.059,1.128,0.384,1.188,0.961c0.018,0.157-0.014,0.373-0.052,0.509
	l-3.615,10.464l0.675,6.376c0.062,0.577-0.355,1.152-0.958,1.216C104.821,72.53,104.297,72.081,104.233,71.479z"/>
</svg>
