<?xml version="1.0" encoding="utf-8"?>
<!-- Generator: Adobe Illustrator 15.1.0, SVG Export Plug-In . SVG Version: 6.00 Build 0)  -->
<!DOCTYPE svg PUBLIC "-//W3C//DTD SVG 1.1//EN" "http://www.w3.org/Graphics/SVG/1.1/DTD/svg11.dtd">
<svg version="1.1" id="Capa_1" xmlns="http://www.w3.org/2000/svg" xmlns:xlink="http://www.w3.org/1999/xlink" x="0px" y="0px"
	 width="761.847px" height="768px" viewBox="0 0 761.847 768" enable-background="new 0 0 761.847 768" xml:space="preserve">
<g id="XMLID_134_">
	<g>
		<g>
			<g>
				<g>
					<defs>
						<circle id="SVGID_1_" cx="381.64" cy="386.15" r="371.76"/>
					</defs>
					<clipPath id="SVGID_2_">
						<use xlink:href="#SVGID_1_"  overflow="visible"/>
					</clipPath>
					<g id="XMLID_194_" clip-path="url(#SVGID_2_)">
						
							<path id="XMLID_704_" fill="none" stroke="#1F4D69" stroke-width="12.8484" stroke-linecap="round" stroke-miterlimit="10" d="
							M530.919,1418.631c0,0-53.039-237.84-42.721-526.561"/>
						
							<path id="XMLID_703_" fill="none" stroke="#1F4D69" stroke-width="12.8484" stroke-linecap="round" stroke-miterlimit="10" d="
							M358.359,1432.791c0,0-37.439-262.32-42.721-526.561"/>
						<path id="XMLID_702_" fill="none" stroke="#1F4D69" stroke-width="6" stroke-linecap="round" stroke-miterlimit="10" d="
							M265.721,460.07C298.6,449.509,73.96,536.15,91,910.549"/>
						<path id="XMLID_695_" fill="none" stroke="#1F4D69" stroke-width="6" stroke-linecap="round" stroke-miterlimit="10" d="
							M465.16,450.711c-33.84-7.439,197.279,42,215.041,432.479"/>
						<g id="XMLID_215_">
							<path id="XMLID_586_" fill="#FFFFFF" d="M467.5,424.69c30.48,48.72,74.881,67.199,114,200.159
								c15.359,52.563,20.4,100.563,8.4,180.239c-4.32,28.562-66.961,80.642-136.563,95.761c-36.719,7.682-80.638,6-142.078,0.239
								c-22.32-1.92-111.841-16.319-121.201-81.84c-6.96-49.92-26.64-101.76-8.398-180.24c15.6-66.239,34.319-97.92,110.64-218.879
								c75.84-120.24,69.602-117.84,69.602-117.84S436.06,374.771,467.5,424.69z"/>
							<path id="XMLID_217_" fill="#E0DFE6" d="M223.921,535.211c11.521-27.121,44.261-58.521,55.062-85.641
								c5.76-14.16,13.92-35.279,30.238-41.039c2.881-2.642,6.24-4.563,9.84-5.762c-4.078-1.681-8.398-3.359-12.479-5.521
								c-4.563-2.4-9.121-4.799-13.92-7.68c26.879,5.76,53.52,10.561,77.039,25.68c-3.121-0.24-6-0.479-9.121-1.199
								c6.24,6.72,10.563,15.359,11.041,25.681c1.199,28.319-12.961,54-27.121,78.239c-23.76,40.08-40.318,73.92-43.92,120.721
								c-3.119,40.08,3.121,82.8,14.4,121.439c8.881,30,39.119,47.279,46.318,77.521c7.439,31.199-20.699,69.12-46.379,64.561
								c-6,1.92-33.398,1.039-37-4c-7.439-2.4-31.18-13.82-35.5-15.5c-52.08-21.601-58.24-96.66-64-148.5
								C170.502,661.49,195.121,602.17,223.921,535.211z"/>
							<path id="XMLID_216_" fill="none" stroke="#1F4D69" stroke-width="6" stroke-miterlimit="10" d="M469,426.711
								c30.48,48.719,74.881,67.199,114,200.16c15.359,52.559,20.4,100.559,8.4,180.239c-4.32,28.56-66.961,80.64-136.563,95.761
								c-36.719,7.68-80.638,6-142.078,0.239c-22.32-1.92-111.841-16.319-121.201-81.841c-6.96-49.92-26.64-101.761-8.398-180.238
								c15.6-66.24,34.319-97.92,110.64-218.881c75.84-120.24,69.602-117.841,69.602-117.841S438.041,377.031,469,426.711z"/>
						</g>
						<circle id="XMLID_214_" fill="#FFFFFF" cx="369.16" cy="245.51" r="166.56"/>
						<path id="XMLID_196_" fill="#E0DFE6" d="M356.439,410.15c-15.84-4.562-31.92-8.881-47.52-14.642
							c0.959-0.239,1.68-0.959,2.641-1.199c-4.08-1.68-8.398-3.358-12.48-5.52c-48.479-23.761-105.359-81.84-81.359-137.281
							c25.92-60.479,85.92,18.96,105.359,39.84c21.121,22.8,51.602,34.562,81.839,35.521c6.721-3.84,12.961-3.36,18.24-0.96
							c34.318-4.08,65.76-22.8,79.682-56.4c6-14.64,25.438-7.68,28.318,4.8c12-6.72,10.922,2.793,2.762,16.233
							c-3.119,5.28-1.066,10.054-4.668,15.333c-1.92,14.16-8.666,19.333-16,33.333c-3.119,3.12-6.639,13.333-10,13.333
							c-0.238,3.12-4.025,6.267-6.666,8.667c-43.92,36.959-89.027,52.299-142.787,44.379
							C354.041,407.271,355.24,408.711,356.439,410.15z"/>
						
							<circle id="XMLID_195_" fill="none" stroke="#1F4D69" stroke-width="6" stroke-miterlimit="10" cx="375.4" cy="245.03" r="166.56"/>
					</g>
				</g>
			</g>
		</g>
	</g>
</g>
<circle id="XMLID_132_" fill="none" stroke="#04A7DB" stroke-width="8" stroke-miterlimit="10" cx="378.76" cy="383.271" r="371.76"/>
</svg>
