<?xml version="1.0" encoding="utf-8"?>
<!-- Generator: Adobe Illustrator 17.0.0, SVG Export Plug-In . SVG Version: 6.00 Build 0)  -->
<!DOCTYPE svg PUBLIC "-//W3C//DTD SVG 1.1//EN" "http://www.w3.org/Graphics/SVG/1.1/DTD/svg11.dtd">
<svg version="1.1" id="Capa_1" xmlns="http://www.w3.org/2000/svg" xmlns:xlink="http://www.w3.org/1999/xlink" x="0px" y="0px"
	 width="618px" height="612px" viewBox="84.5 0 618 612" enable-background="new 84.5 0 618 612" xml:space="preserve">
<g id="XMLID_20_">
	<g>
		<g>
			<defs>
				<circle id="SVGID_1_" cx="397.147" cy="308.148" r="296.246"/>
			</defs>
			<clipPath id="SVGID_2_">
				<use xlink:href="#SVGID_1_"  overflow="visible"/>
			</clipPath>
			<g id="XMLID_21_" clip-path="url(#SVGID_2_)">
				<path id="XMLID_33_" fill="none" stroke="#1F4D69" stroke-width="12.8484" stroke-linecap="round" stroke-miterlimit="10" d="
					M516.105,1130.906c0,0-42.266-189.529-34.043-419.602"/>
				<path id="XMLID_32_" fill="none" stroke="#1F4D69" stroke-width="12.8484" stroke-linecap="round" stroke-miterlimit="10" d="
					M378.596,1142.189c0,0-29.835-209.036-34.043-419.602"/>
				<path id="XMLID_31_" fill="none" stroke="#1F4D69" stroke-width="6" stroke-linecap="round" stroke-miterlimit="10" d="
					M304.774,367.053c26.201-8.415-152.809,60.626-139.23,358.976"/>
				<path id="XMLID_30_" fill="none" stroke="#1F4D69" stroke-width="6" stroke-linecap="round" stroke-miterlimit="10" d="
					M463.703,359.594c-26.966-5.929,157.207,33.469,171.36,344.633"/>
				<g id="XMLID_26_">
					<path id="XMLID_29_" fill="#FFFFFF" d="M461.981,340.852c24.289,38.824,59.67,53.55,90.844,159.503
						c12.24,41.884,16.256,80.134,6.694,143.629c-3.443,22.759-53.359,64.26-108.821,76.309c-29.261,6.12-64.26,4.781-113.22,0.191
						c-17.786-1.53-89.122-13.005-96.581-65.216c-5.546-39.78-21.229-81.09-6.694-143.629c12.431-52.785,27.349-78.03,88.166-174.42
						c60.435-95.816,55.462-93.904,55.462-93.904S436.928,301.072,461.981,340.852z"/>
					<path id="XMLID_28_" fill="#E0DFE6" d="M273.6,429.974c9.18-21.611,22.376-41.31,30.982-62.921
						c4.59-11.284,11.093-28.114,24.097-32.704c2.295-2.104,4.972-3.634,7.841-4.59c-3.251-1.339-6.694-2.678-9.945-4.399
						c-3.634-1.912-7.268-3.825-11.093-6.12c21.42,4.59,42.649,8.415,61.391,20.464c-2.486-0.191-4.781-0.382-7.268-0.956
						c4.972,5.355,8.415,12.24,8.797,20.464c0.956,22.568-10.328,43.031-21.611,62.347c-18.934,31.939-32.13,58.905-34.999,96.199
						c-2.486,31.939,2.486,65.981,11.475,96.772c7.076,23.906,31.174,37.676,36.911,61.774
						c5.929,24.863-15.682,26.393-36.146,22.759c-4.781,1.53-10.519,0.765-13.388-3.251c-5.929-1.913-11.284-3.634-14.726-4.972
						c-41.501-17.213-56.993-51.064-61.582-92.374C238.028,540.517,250.65,483.333,273.6,429.974z"/>
					<path id="XMLID_27_" fill="none" stroke="#1F4D69" stroke-width="6" stroke-miterlimit="10" d="M466.763,340.469
						c24.289,38.824,59.67,53.55,90.844,159.503c12.24,41.884,16.256,80.134,6.694,143.629
						c-3.443,22.759-53.359,64.26-108.821,76.309c-29.261,6.12-64.26,4.781-113.22,0.191c-17.786-1.53-89.122-13.005-96.581-65.216
						c-5.546-39.78-21.229-81.09-6.694-143.629c12.431-52.785,27.349-78.03,88.166-174.42
						c60.435-95.816,55.462-93.904,55.462-93.904S442.091,300.881,466.763,340.469z"/>
				</g>
				<circle id="XMLID_25_" fill="#FFFFFF" cx="387.203" cy="196.076" r="132.728"/>
				<path id="XMLID_24_" fill="#E0DFE6" d="M377.066,327.273c-12.622-3.634-25.436-7.076-37.868-11.666
					c0.765-0.191,1.339-0.765,2.104-0.956c-3.251-1.339-6.694-2.678-9.945-4.399c-38.632-18.934-83.959-65.216-64.834-109.395
					c20.655-48.195,68.468,15.109,83.959,31.747c16.83,18.169,41.119,27.54,65.216,28.305c5.355-3.06,10.328-2.678,14.535-0.765
					c27.349-3.251,52.403-18.169,63.495-44.944c4.781-11.666,20.272-6.12,22.568,3.825c9.563-5.355,23.524,4.972,17.021,15.682
					c-2.486,4.207-5.355,8.415-8.224,12.622c-1.53,11.284-9.18,20.846-17.786,28.687c-2.486,2.486-5.737,3.443-8.415,3.443
					c-0.191,2.486-1.147,4.781-3.251,6.694c-34.999,29.453-77.839,43.796-120.679,37.485
					C375.154,324.978,376.11,326.126,377.066,327.273z"/>
				
					<circle id="XMLID_23_" fill="none" stroke="#1F4D69" stroke-width="6" stroke-miterlimit="10" cx="392.175" cy="195.693" r="132.728"/>
			</g>
		</g>
	</g>
</g>
<circle id="XMLID_4_" fill="none" stroke="#197228" stroke-width="4.3745" stroke-miterlimit="10" cx="392.558" cy="305.853" r="296.246"/>
<polyline fill="none" stroke="#1F4D69" stroke-width="6" stroke-miterlimit="10" points="357.245,323.776 398.876,408.878 
	434.5,323.776 "/>
<polyline fill="none" stroke="#1F4D69" stroke-width="6" stroke-miterlimit="10" points="358.248,334.327 344.248,380.327 
	398.876,408.878 "/>
<polyline fill="none" stroke="#1F4D69" stroke-width="5.759" stroke-miterlimit="10" points="436.306,334.327 449.204,380.327 
	398.876,408.878 "/>
<path fill="none" stroke="#1F4D69" stroke-width="6" stroke-miterlimit="10" d="M245.764,200.768
	c21.991-38.692,56.726,26.49,9.133,28.536c-9.45-16.728-23.606-41.771-16.825-61.66c10.473-30.715,44.094-31.734,44.533,3.214
	c-37.918,20.593-36.81-57.589-21.236-74.295c30.32-32.524,67.557,12.349,25.624,33.458c-10.059-20.383,0.721-64.169,29.364-66.471
	c17.72-1.425,39.834,23.257,16.81,32.667c-48.914,19.993,34.511-115.617,36.545-24.723c-23.817-9.882-1.821-44.952,21.39-41.046
	c25.121,4.228,23.189,41.624-3.525,40.95c-7.257-59.589,82.019-35.686,49.321-3.014c-35-34.589,76.377-18.106,25.624,36.449
	c-18.894-62.617,79.523-25.588,29.71,0.828c33.074-26.634,45.537,31.196,15.472,36.641c3.977-15.668,12.64-22.498,27.894-24.037
	c8.157,19.251,12.802,53.618-15.251,52.794c2.689-15.742,5.688-15.08,19.418-19.589c15.995,20.992,10.688,45.893-15.021,52.927
	c5.651-8.903,4.304-6.202,15.221-11.402c6.666,25.824,6.613,43.97-17.142,40.405"/>
</svg>
