<?xml version="1.0" encoding="utf-8"?>
<!-- Generator: Adobe Illustrator 15.1.0, SVG Export Plug-In . SVG Version: 6.00 Build 0)  -->
<!DOCTYPE svg PUBLIC "-//W3C//DTD SVG 1.1//EN" "http://www.w3.org/Graphics/SVG/1.1/DTD/svg11.dtd">
<svg version="1.1" id="Capa_1" xmlns="http://www.w3.org/2000/svg" xmlns:xlink="http://www.w3.org/1999/xlink" x="0px" y="0px"
	 width="1024px" height="159px" viewBox="0 0 1024 159" enable-background="new 0 0 1024 159" xml:space="preserve">
<g>
	<path fill="#FFFFFF" d="M939.071,5.161c-44.741,0-81.006,36.468-81.006,81.209c0,31.667,18.185,59.35,44.741,72.629h72.632
		c26.455-13.381,44.639-41.063,44.639-72.73C1020.077,41.526,983.813,5.161,939.071,5.161z M903.319,58.279
		c-3.883,7.15-5.516,14.506-5.721,22.678c-0.104,4.801,0.204,9.601,0.612,14.506c0.203,3.063,1.125,6.23,1.021,9.295
		c-0.203,5.924-4.902,9.193-10.011,11.032c-1.43,1.021-3.166,0.919-4.596,0.104c-0.103,0-0.307,0.102-0.409,0.102
		c-0.512,0.102-0.818-0.409-0.512-0.816c-1.429-1.228-2.145-3.27-1.122-5.414c-0.41-0.309-0.717-0.716-0.921-1.226
		c-0.917-2.044-1.532-3.883-1.634-5.823c-0.612-1.839-0.92-3.779-0.92-5.72c-0.203-0.205-0.306-0.409-0.406-0.716
		c-3.983-7.56-3.476-17.876,1.226-25.027c0.512-2.247,1.123-4.392,1.938-6.64c0.307-0.715,0.615-1.327,1.127-1.838
		c0.101-0.409,0.306-0.716,0.51-1.125c-1.33-1.429-1.94-3.472-0.614-5.313c6.846-9.295,13.179-20.122,24.108-25.128
		c2.655-1.227,5.925-0.306,6.742,2.758c0.715,2.555,2.247,4.801,3.575,7.046c2.554,4.189-2.759,8.581-6.437,6.233
		c-0.203,0.102-0.409,0.407-0.614,0.715c-0.918,1.022-1.733,2.043-2.555,3.064C906.077,53.376,904.647,55.827,903.319,58.279z
		 M988.615,126.313c-2.449,2.758-5.313,4.698-8.479,6.332c0,0,0,0,0,0.104c-0.205,0.614-0.612,1.329-1.329,1.94
		c-2.146,2.043-4.392,3.68-6.945,4.801c-4.189,2.554-8.58,4.597-13.278,5.925c-0.104,1.737-1.021,3.269-3.27,3.679
		c-11.952,2.044-23.087-0.409-34.426-3.169c-0.815,0.309-1.736,0.309-2.759,0.104c-3.063-0.716-4.902-2.043-7.15-4.29
		c-1.838-1.839-1.633-4.394-0.203-6.129c0-0.409,0-0.92,0.104-1.432c0.101-0.308,0.101-0.611,0.203-0.919
		c0-0.408,0.103-0.919,0.308-1.43c0.203-1.123,0.307-2.349,0.407-3.575c0.104-2.963,2.451-4.393,4.7-4.393
		c0.715-0.204,1.429-0.204,2.145,0c2.146-0.104,4.19,1.328,4.701,3.472c11.95,3.779,25.844,4.802,36.773-1.633
		c5.004-2.964,9.806-7.97,15.424-9.706c0.611-0.203,1.227-0.305,1.839-0.305c0.92-0.818,2.351-1.229,3.985-0.616
		c2.349,0.819,4.697,1.637,7.048,2.555h0.103l0,0c0.408,0.104,0.716,0.309,1.123,0.409
		C993.722,119.979,991.985,124.983,988.615,126.313z M996.379,84.123c-1.94,1.226-4.394,2.043-7.049,2.247
		c-2.759,0.205-4.291-2.247-4.597-4.597c-1.123-8.989-5.926-18.081-10.828-25.538c-2.042-3.064-4.905-7.048-8.376-10.316
		c-1.021,0.203-2.147,0.103-3.064-0.511c-3.575-2.452-7.661-3.27-11.645-4.598c0,0,0,0-0.104,0
		c-1.636,0.715-3.779,0.715-5.311-0.613c-1.942-0.512-3.678-2.043-3.678-4.393c0-1.94,0.307-3.778,0.918-5.517
		c0.203-1.429,0.511-2.96,0.816-4.392c0.614-3.371,4.189-3.982,6.639-2.656c1.432-0.307,3.169-0.409,5.006,0
		c6.232,1.226,11.851,5.209,16.756,9.295c2.553,1.636,4.901,3.371,6.64,4.701c6.741,5.106,12.153,12.769,16.955,19.715
		c4.903,7.046,8.684,15.016,8.684,23.801C1004.141,85.145,998.933,86.269,996.379,84.123z"/>
	<path id="XMLID_820_" fill="#0D004C" d="M1023.755,87.801c0-0.409,0-0.818,0-1.226c0-47.093-38.104-85.194-85.195-85.194
		c-24.615,0-46.886,10.42-62.413,27.174l-0.306-0.408l-9.398,11.541c0,0-63.64,93.469-200.418,94.693
		c-26.459,0.205-44.539,1.021-56.489,2.043H-29.11v22.475h922.317h9.5c-26.56-13.279-44.741-40.963-44.741-72.63
		c0-44.743,36.264-81.106,81.005-81.106c44.742,0,81.005,36.468,81.005,81.209c0,31.668-18.183,59.35-44.742,72.629h8.377h0.307
		h40.044V87.597C1024.061,87.597,1023.96,87.597,1023.755,87.801z M985.142,157.876c-0.309,0.204-0.613,0.409-0.818,0.612
		C984.528,158.08,984.835,157.978,985.142,157.876z"/>
	<g id="XMLID_757_">
		<path id="XMLID_797_" fill="#FFFFFF" d="M938.766,42.752c23.188,0,41.983,18.797,41.983,41.984
			c0,23.187-18.796,41.982-41.983,41.982c-23.187,0-41.982-18.797-41.982-41.982C896.783,61.549,915.579,42.752,938.766,42.752z"/>
		<path id="XMLID_790_" fill="none" stroke="#1F4D69" stroke-width="2.8517" stroke-miterlimit="10" d="M909.449,54.603
			c3.678-3.68,7.864-6.537,12.36-8.581L910.574,26c-6.233,3.064-12.056,7.252-17.265,12.461
			c-22.064,22.066-25.129,55.979-9.092,81.313l19.103-12.565C893.104,90.661,895.147,68.903,909.449,54.603z"/>
		<path id="XMLID_789_" fill="none" stroke="#1F4D69" stroke-width="2.8517" stroke-miterlimit="10" d="M969.717,54.603
			c9.703,9.704,13.688,22.779,12.156,35.345l23.188-3.984c0.308-17.161-6.026-34.527-19.206-47.602
			c-12.154-12.157-27.986-18.593-44.025-19.104l-2.351,22.882C950.513,42.14,961.442,46.226,969.717,54.603z"/>
		<path id="XMLID_787_" fill="none" stroke="#1F4D69" stroke-width="2.8517" stroke-miterlimit="10" d="M969.717,114.973
			c-14.914,14.913-38.103,16.446-54.753,4.699l-8.479,21.759c25.129,14.709,57.918,11.339,79.473-10.214
			c3.882-3.884,7.15-8.173,9.908-12.667l-20.839-9.909C973.498,110.785,971.759,112.93,969.717,114.973z"/>
		<g id="XMLID_758_">
			
				<line id="XMLID_786_" fill="none" stroke="#1F4D69" stroke-width="2.6735" stroke-linecap="round" stroke-miterlimit="10" x1="983.201" y1="43.059" x2="974.518" y2="51.741"/>
			
				<line id="XMLID_784_" fill="none" stroke="#1F4D69" stroke-width="2.8517" stroke-linecap="round" stroke-miterlimit="10" x1="990.964" y1="52.967" x2="980.647" y2="59.709"/>
			
				<line id="XMLID_783_" fill="none" stroke="#1F4D69" stroke-width="2.8517" stroke-linecap="round" stroke-miterlimit="10" x1="996.582" y1="64.307" x2="985.142" y2="68.699"/>
			
				<line id="XMLID_782_" fill="none" stroke="#1F4D69" stroke-width="2.8517" stroke-linecap="round" stroke-miterlimit="10" x1="999.647" y1="76.564" x2="987.492" y2="78.403"/>
			
				<line id="XMLID_780_" fill="none" stroke="#1F4D69" stroke-width="2.8517" stroke-linecap="round" stroke-miterlimit="10" x1="986.165" y1="123.757" x2="976.663" y2="115.893"/>
			
				<line id="XMLID_779_" fill="none" stroke="#1F4D69" stroke-width="2.8517" stroke-linecap="round" stroke-miterlimit="10" x1="977.173" y1="132.44" x2="969.512" y2="122.838"/>
			
				<line id="XMLID_778_" fill="none" stroke="#1F4D69" stroke-width="2.8517" stroke-linecap="round" stroke-miterlimit="10" x1="966.448" y1="139.183" x2="960.933" y2="128.15"/>
			
				<line id="XMLID_776_" fill="none" stroke="#1F4D69" stroke-width="2.8517" stroke-linecap="round" stroke-miterlimit="10" x1="954.497" y1="143.473" x2="951.433" y2="131.521"/>
			
				<line id="XMLID_775_" fill="none" stroke="#1F4D69" stroke-width="2.8517" stroke-linecap="round" stroke-miterlimit="10" x1="942.035" y1="145.107" x2="941.524" y2="132.85"/>
			
				<line id="XMLID_773_" fill="none" stroke="#1F4D69" stroke-width="2.8517" stroke-linecap="round" stroke-miterlimit="10" x1="929.47" y1="144.188" x2="931.513" y2="132.031"/>
			
				<line id="XMLID_772_" fill="none" stroke="#1F4D69" stroke-width="2.8517" stroke-linecap="round" stroke-miterlimit="10" x1="917.313" y1="140.612" x2="921.911" y2="129.273"/>
			
				<line id="XMLID_770_" fill="none" stroke="#1F4D69" stroke-width="2.8517" stroke-linecap="round" stroke-miterlimit="10" x1="883.502" y1="105.063" x2="895.045" y2="100.877"/>
			
				<line id="XMLID_769_" fill="none" stroke="#1F4D69" stroke-width="2.8517" stroke-linecap="round" stroke-miterlimit="10" x1="880.641" y1="92.806" x2="892.797" y2="91.069"/>
			
				<line id="XMLID_768_" fill="none" stroke="#1F4D69" stroke-width="2.8517" stroke-linecap="round" stroke-miterlimit="10" x1="880.336" y1="80.14" x2="892.593" y2="81.059"/>
			
				<line id="XMLID_767_" fill="none" stroke="#1F4D69" stroke-width="2.8517" stroke-linecap="round" stroke-miterlimit="10" x1="882.684" y1="67.779" x2="894.432" y2="71.149"/>
			
				<line id="XMLID_765_" fill="none" stroke="#1F4D69" stroke-width="2.8517" stroke-linecap="round" stroke-miterlimit="10" x1="887.588" y1="56.134" x2="898.416" y2="61.956"/>
			
				<line id="XMLID_764_" fill="none" stroke="#1F4D69" stroke-width="2.8517" stroke-linecap="round" stroke-miterlimit="10" x1="894.74" y1="45.817" x2="904.136" y2="53.683"/>
			
				<line id="XMLID_763_" fill="none" stroke="#1F4D69" stroke-width="2.8517" stroke-linecap="round" stroke-miterlimit="10" x1="903.933" y1="37.134" x2="911.491" y2="46.838"/>
			
				<line id="XMLID_762_" fill="none" stroke="#1F4D69" stroke-width="2.8517" stroke-linecap="round" stroke-miterlimit="10" x1="951.84" y1="26.102" x2="949.592" y2="38.155"/>
			
				<line id="XMLID_761_" fill="none" stroke="#1F4D69" stroke-width="2.8517" stroke-linecap="round" stroke-miterlimit="10" x1="963.894" y1="29.881" x2="959.093" y2="41.22"/>
			
				<line id="XMLID_759_" fill="none" stroke="#1F4D69" stroke-width="2.8517" stroke-linecap="round" stroke-miterlimit="10" x1="974.824" y1="36.011" x2="967.878" y2="46.123"/>
		</g>
	</g>
	<g id="XMLID_751_">
		<path id="XMLID_756_" opacity="0.2" fill="#FFFFFF" enable-background="new    " d="M763.374,148.069
			c0,1.329-0.512,2.246-2.146,2.246h-16.957c-1.734,0-3.37-0.918-3.37-2.246v-14.914c0-1.328,1.636-3.271,3.37-3.271h16.957
			c1.737,0,2.146,1.941,2.146,3.271V148.069z"/>
		<path id="XMLID_755_" opacity="0.1" fill="#FFFFFF" enable-background="new    " d="M731.707,148.988
			c0,0.716-1.228,1.328-2.759,1.328h-15.016c-1.533,0-2.658-0.512-2.658-1.328v-8.684c0-0.715,1.125-2.247,2.658-2.247h15.016
			c1.531,0,2.759,1.532,2.759,2.247V148.988z"/>
		<path id="XMLID_754_" opacity="0.4" fill="#FFFFFF" enable-background="new    " d="M792.996,146.64
			c0,2.042-1.123,3.575-2.859,3.575H773.18c-1.735,0-3.678-1.533-3.678-3.575V122.94c0-2.043,2.042-3.27,3.678-3.27h16.957
			c1.736,0,2.86,1.227,2.86,3.27L792.996,146.64L792.996,146.64z"/>
	</g>
</g>
</svg>
