<?xml version="1.0" encoding="utf-8"?>
<!-- Generator: Adobe Illustrator 17.0.0, SVG Export Plug-In . SVG Version: 6.00 Build 0)  -->
<!DOCTYPE svg PUBLIC "-//W3C//DTD SVG 1.1//EN" "http://www.w3.org/Graphics/SVG/1.1/DTD/svg11.dtd">
<svg version="1.1" id="Capa_1" xmlns="http://www.w3.org/2000/svg" xmlns:xlink="http://www.w3.org/1999/xlink" x="0px" y="0px"
	 width="1024px" height="97px" viewBox="32.95 563.2 1024 97" enable-background="new 32.95 563.2 1024 97" xml:space="preserve">
<rect id="XMLID_7_" x="32.95" y="563.2" fill="#FFFFFF" width="1024" height="88.85"/>
<rect id="XMLID_1043_" x="32.95" y="632.5" fill="#0D004C" width="1024" height="27.7"/>
<polygon id="XMLID_1042_" fill="#04A7DB" points="1056.95,562.65 1056.95,627.05 381,627.05 351.61,563.2 "/>
<g id="XMLID_964_">
	<line id="XMLID_1041_" fill="none" stroke="#374D99" stroke-miterlimit="10" x1="96.3" y1="572.746" x2="96.3" y2="620.546"/>
	<path id="XMLID_1038_" fill="#00478C" d="M141.6,573.046h2.3v2h-2.3V573.046z M141.6,575.846h2.3v8.3h-2.3V575.846z"/>
	<path id="XMLID_1037_" fill="#00478C" d="M147.3,575.846v1l0,0c0.2-0.6,0.9-1.3,1.6-1.3c1.1,0,2.1,0.6,2.1,1.7v6.8h-2.3v-5.9
		c0-0.4-0.2-0.7-0.6-0.7c-0.4,0-0.6,0.3-0.6,0.7v5.9h-2.3v-8.3L147.3,575.846L147.3,575.846z"/>
	<path id="XMLID_1034_" fill="#00478C" d="M152.2,573.046h2.3v2h-2.3V573.046z M152.2,575.846h2.3v8.3h-2.3V575.846z"/>
	<path id="XMLID_1033_" fill="#00478C" d="M159.5,578.846L159.5,578.846c0-0.4,0-0.7-0.1-1c-0.1-0.3-0.3-0.5-0.6-0.5
		c-0.6,0-0.7,0.5-0.7,1v3.4c0,0.5,0.1,1,0.8,1c0.9,0,0.7-1.3,0.7-1.9h2.3c0,0.5-0.1,1.5-0.2,2c-0.3,1-1.2,1.5-2.2,1.6
		c-0.2,0-0.4,0-0.8,0c-1.7,0-2.9-0.7-2.9-2.6v-3.4c0-2.1,1.1-2.8,2.9-2.8c2.3,0,3.2,1,3.1,3.3L159.5,578.846L159.5,578.846z"/>
	<path id="XMLID_1030_" fill="#00478C" d="M162.8,573.046h2.3v2h-2.3V573.046z M162.8,575.846h2.3v8.3h-2.3V575.846z"/>
	<path id="XMLID_1027_" fill="#00478C" d="M170.1,583.346c-0.6,0.6-1.1,1-2,1c-1.3,0-2.2-0.9-2.2-2.2c0-1.9,1-2.5,2.1-2.8
		c1-0.3,2-0.4,2-1.3c0-0.5-0.3-0.9-0.7-0.9c-0.9,0-0.9,0.6-0.9,1.3h-2.3c-0.1-2.1,1.3-2.8,3.2-2.8c2.3,0,3.2,0.7,3.2,2.5v5.1
		c0,0.3,0.1,0.6,0.2,0.9h-2.3L170.1,583.346z M170.1,580.046c-0.5,0.3-0.9,0.4-1.2,0.6s-0.5,0.5-0.5,1.1c0,0.5,0.3,0.9,0.9,0.9
		c0.7,0,0.8-0.7,0.9-1.3L170.1,580.046L170.1,580.046z"/>
	<path id="XMLID_1026_" fill="#00478C" d="M172.7,577.546v-1.7h0.9v-2.4h2.3v2.4h1.1v1.7h-1v4.4c0,0.5,0.2,0.6,0.5,0.6s0.4,0,0.6,0
		v1.7c-0.5,0.1-1,0.1-1.5,0.1c-1.3,0-2-0.6-2-1.9v-4.8L172.7,577.546L172.7,577.546z"/>
	<path id="XMLID_1023_" fill="#00478C" d="M177.9,573.046h2.3v2h-2.3V573.046z M177.9,575.846h2.3v8.3h-2.3V575.846z"/>
	<polygon id="XMLID_1022_" fill="#00478C" points="184,581.146 184,581.146 184.8,575.846 187.1,575.846 185.3,584.046 
		182.6,584.046 180.8,575.846 183.2,575.846 	"/>
	<path id="XMLID_1019_" fill="#00478C" d="M191.3,583.346c-0.6,0.6-1.1,1-2,1c-1.3,0-2.2-0.9-2.2-2.2c0-1.9,1-2.5,2.1-2.8
		c1-0.3,2-0.4,2-1.3c0-0.5-0.3-0.9-0.7-0.9c-0.9,0-0.9,0.6-0.9,1.3h-2.3c-0.1-2.1,1.3-2.8,3.2-2.8c2.3,0,3.2,0.7,3.2,2.5v5.1
		c0,0.3,0.1,0.6,0.2,0.9h-2.3L191.3,583.346z M191.2,580.046c-0.5,0.3-0.9,0.4-1.2,0.6s-0.5,0.5-0.5,1.1c0,0.5,0.3,0.9,0.9,0.9
		c0.7,0,0.8-0.7,0.9-1.3L191.2,580.046L191.2,580.046z"/>
	<path id="XMLID_1016_" fill="#00478C" d="M199.8,575.846v1l0,0c0.5-0.8,1.1-1.2,1.9-1.2c1.6,0,2,1.5,2,2.8v2.9c0,1.4-0.3,3-2.1,3.1
		c-0.4,0-1.2-0.2-1.7-1l0,0v3.6h-2.3v-11.2H199.8z M201.4,578.846c0-0.5,0-1.4-0.7-1.4c-0.6,0-0.8,0.7-0.8,1.5v1.9
		c0,0.7,0.1,1.5,0.7,1.5c0.8,0,0.7-0.9,0.7-1.4v-2.1H201.4z"/>
	<path id="XMLID_1013_" fill="#00478C" d="M204.5,578.446c0-2.1,1.3-2.8,3.1-2.8c2.1,0,3.1,1,3.1,2.8v3.4c-0.1,1.9-1.3,2.6-3.1,2.6
		c-1.7,0-3.1-0.7-3.1-2.6V578.446z M206.9,581.946c0,0.5,0.2,0.7,0.7,0.7s0.7-0.3,0.7-0.7v-3.7c0-0.5-0.2-1-0.7-1s-0.7,0.4-0.7,1
		V581.946z"/>
	<path id="XMLID_1012_" fill="#00478C" d="M213.7,575.846v1.3l0,0c0.3-0.9,0.8-1.5,1.8-1.5v2.7c-0.2,0-0.5-0.1-0.7-0.1
		c-0.7,0-0.9,0.1-1,0.8v5.1h-2.3v-8.3H213.7z"/>
	<rect id="XMLID_1011_" x="219.5" y="573.046" fill="#00478C" width="2.3" height="11.1"/>
	<path id="XMLID_1008_" fill="#00478C" d="M222.9,578.446c0-2.1,1.3-2.8,3.1-2.8c2.1,0,3.1,1,3.1,2.8v3.4c-0.1,1.9-1.3,2.6-3.1,2.6
		c-1.7,0-3.1-0.7-3.1-2.6V578.446z M225.2,581.946c0,0.5,0.2,0.7,0.7,0.7s0.7-0.3,0.7-0.7v-3.7c0-0.5-0.2-1-0.7-1s-0.7,0.4-0.7,1
		V581.946z"/>
	<path id="XMLID_1007_" fill="#00478C" d="M233.2,578.246c-0.1-0.6,0-1.1-0.8-1.1c-0.5,0-0.8,0.2-0.8,0.7c0,0.4,0.4,0.7,0.7,0.8
		c1.5,0.7,3.2,1.1,3.2,3.1c0,1.8-1.4,2.6-3.1,2.6c-1.9,0-3.2-0.8-3.1-2.8h2.2c0,0.6,0.1,1.2,0.8,1.2c0.5,0,0.8-0.3,0.8-0.8
		c0-0.3-0.1-0.5-0.3-0.6c-0.9-0.5-2.3-0.9-3-1.7c-0.4-0.5-0.6-0.9-0.6-1.6c0-1.8,1.4-2.6,3.1-2.6c1.7,0,3.1,0.9,3,2.7h-2.1
		L233.2,578.246L233.2,578.246z"/>
	<path id="XMLID_1006_" fill="#04A7DB" d="M109.6,609.746v3.8c0,1.1,0.5,1.6,1.4,1.5c1,0,1.4-0.2,1.4-1.1v-24.3h7.1v21
		c0,2.1,0.1,4.5-0.9,6.5c-1.5,2.8-4.1,3.4-7.2,3.4c-3.4,0-6.3-1.6-7.1-5c-0.4-1.4-0.3-2.7-0.3-4.1v-1.7
		C104,609.746,109.6,609.746,109.6,609.746z"/>
	<path id="XMLID_1002_" fill="#04A7DB" d="M141,610.146c0,6.8-2.4,10.3-9.5,10.3c-7.1,0-9.6-3.5-9.6-10.3v-12.2c0-5.8,3.5-9,9.6-9
		c6.2,0,9.5,3.2,9.5,9V610.146z M139.7,580.746l-6.9,5.9h-5.5l4-5.9H139.7z M134,598.446c0-1.8-0.2-4.1-2.5-4.1
		c-2.2,0-2.5,2.2-2.5,4.1v12.4c0,1.7,0.3,4.3,2.6,4.3s2.4-2.6,2.4-4.3V598.446z"/>
	<polygon id="XMLID_1001_" fill="#04A7DB" points="148.4,619.746 141.8,589.646 148.9,589.646 152.5,610.746 152.6,610.746 
		156.2,589.646 163.3,589.646 156.7,619.746 	"/>
	<polygon id="XMLID_1000_" fill="#04A7DB" points="164.4,619.746 164.4,589.646 180.6,589.646 180.6,595.646 171.4,595.646 
		171.4,601.246 180.3,601.246 180.3,607.246 171.4,607.246 171.4,613.746 181,613.746 181,619.746 	"/>
	<polygon id="XMLID_999_" fill="#04A7DB" points="189.3,602.946 189.2,603.046 189.8,619.746 183.1,619.746 183.1,589.646 
		190.4,589.646 195.9,606.446 196,606.446 195.3,589.646 202,589.646 202,619.746 194.8,619.746 	"/>
	<polygon id="XMLID_998_" fill="#04A7DB" points="204.4,619.746 204.4,589.646 220.6,589.646 220.6,595.646 211.4,595.646 
		211.4,601.246 220.3,601.246 220.3,607.246 211.4,607.246 211.4,613.746 221,613.746 221,619.746 	"/>
	<path id="XMLID_997_" fill="#04A7DB" d="M228.6,609.746v2.1c0,1.7,0.6,3.3,2.8,3.3c1.6,0,2.4-1.5,2.4-3c0-2.5-2.1-3.5-3.9-4.6
		c-2.2-1.2-4-2.4-5.3-3.9s-2-3.4-2-6c0-5.7,3.4-8.6,8.9-8.6c6.1,0,9.3,4.1,9,9.8H234c-0.1-1.8,0-4.2-2.3-4.3c-1.4-0.1-2.3,0.7-2.5,2
		c-0.2,1.8,0.7,2.7,2.1,3.7c2.7,1.7,4.9,2.7,6.6,4.3c1.6,1.5,2.6,3.5,2.6,7.2c0,5.8-3.2,9-9.1,9c-6.5,0-9.2-3.6-9.2-7.6v-3.2h6.4
		V609.746z"/>
	<path id="XMLID_965_" fill="#00478C" d="M50.6,608.946c-0.1,0.1-0.2,0.3-0.2,0.5v7.2l0,0c0,0-4-7.1-4.1-7.4
		c-0.1-0.2-0.3-0.4-0.5-0.5c-0.2-0.1-0.4-0.2-0.8-0.2h-1.3c-0.3,0-0.5,0.1-0.6,0.3c-0.1,0.1-0.2,0.3-0.2,0.5v10.2
		c0,0.3,0.1,0.4,0.2,0.5c0.1,0.2,0.3,0.3,0.6,0.3h0.7c0.3,0,0.5-0.1,0.6-0.3c0.1-0.1,0.2-0.3,0.2-0.5v-7.4l0,0c0,0,4.1,7.3,4.3,7.5
		c0.2,0.4,0.6,0.7,1.2,0.7H52c0.3,0,0.5-0.1,0.6-0.3c0.1-0.1,0.2-0.3,0.2-0.5v-9.1h16.6c0.2,0,0.3,0,0.4-0.1
		c0.1-0.1,0.2-0.2,0.2-0.4v-0.7c0-0.2,0-0.3-0.2-0.4c-0.1-0.1-0.2-0.1-0.4-0.1H51.2C50.9,608.646,50.7,608.746,50.6,608.946
		 M79.9,584.846c-3-4.4-5.6-5.9-6.3-6.6c-0.8-0.8-1.4-1.6-1.8-2.1c-0.9-0.9-2-2.1-3.8-2.1s-3,1.2-3.3,2.2c-0.1,0.3-0.2,0.6-0.3,0.8
		c-0.2,0.3-1,1.6-1.3,2.2h1.5l-0.8,1.2c0.8-0.2,1.4-0.3,2.2-0.3c0.7,0,1.2,0.2,1.4,0.6c0.4,0.8,0.4,3.3,1.1,5.2
		c0.7,1.8,2.2,3.5,4,4.8c0,0,0,0,0.1,0s0.1-0.1,0.1-0.1s0-0.1-0.1-0.1c-1.5-1.5-2.7-3.2-3.4-5c-0.6-1.8-0.5-4.3-1.1-5.4
		c-0.4-0.7-1.2-0.9-1.9-0.9c-0.6,0-1.1,0.1-1.4,0.2l0.6-1.1h-1.1c0.2-0.4,0.5-0.8,0.6-1s0.1-0.4,0.3-0.8c0.4-1,1.3-1.7,2.5-1.7
		c1.5,0,2.4,1,3.2,1.9c0.4,0.4,1.1,1.4,1.8,2.1c0.5,0.5,1.5,1,3,2.6c0.9,0.9,1.9,2.1,3,3.7c3.8,5.6,6.4,10.6,7.8,14.5l0,0
		c-4-2.7-7.5-5.3-10.3-8.5c-2-2.3-3.7-4.9-5.2-8.2c-0.1-0.2-0.2-0.4-0.3-0.6c0-0.1-0.1-0.1-0.1-0.1c-0.1,0-0.1,0.1-0.1,0.1
		c0,0.1,0,0.3,0.1,0.7c0.8,3.5,3,6.6,5.4,9.2c2.4,2.6,5.1,4.8,7.3,6.4l1.7,4.9c0,0.1,0.1,0.2,0.1,0.4c0,0.1,0,0.2-0.1,0.2
		c0,0-0.1,0.1-0.3,0.1h-0.5c-0.2,0-0.3,0-0.4-0.1c-0.1-0.1-0.1-0.2-0.2-0.3c-0.2-0.5-1.1-3-1.2-3.6c0-0.1-0.1-0.1-0.2-0.1
		s-0.1,0.1-0.1,0.1c0,0.1,0,0.1,0.1,0.4c0.2,1.2,0.5,2.5,0.6,3c0,0.2,0.1,0.4,0.1,0.6c0,0.1,0,0.2-0.2,0.3l-0.5,0.5
		c-0.1,0.1-0.2,0.2-0.3,0.2s-0.2-0.1-0.3-0.3c-0.6-2.8-1.5-6.3-1.8-7.3c-0.1-0.2-0.1-0.3-0.2-0.3s-0.2,0.1-0.2,0.2
		c0,0.1,0,0.2,0,0.2c0.1,1,0.7,4.7,1.4,8c0.1,0.6,0.3,0.9,0.8,0.9c0.2,0,0.4-0.1,0.6-0.3c0.3-0.3,0.4-0.4,0.8-0.8
		c0.3-0.3,0.5-0.4,0.9-0.4h1.2c0.3,0,0.4-0.1,0.6-0.2c0.1-0.1,0.2-0.3,0.2-0.5s-0.1-0.4-0.2-0.7c-0.3-0.8-1.3-3.6-1.6-4.3l0,0
		c1,0.8,2.4,1.7,3.1,1.7c0.2,0,0.3-0.1,0.3-0.4C87.9,599.146,85.5,593.146,79.9,584.846 M57.8,611.646c-2.8,0-4.3,2.2-4.3,4.4
		c0,2.4,1.7,4.6,4.3,4.6c1.3,0,2.6-0.5,3.4-1.4c0.3-0.4,0.6-0.9,0.6-1.2c0-0.1,0-0.2-0.1-0.3s-0.2-0.1-0.3-0.1h-1.3
		c-0.3,0-0.4,0.1-0.6,0.3c-0.4,0.5-0.9,0.8-1.7,0.8c-1.2,0-2-0.9-2-1.9h5.5c0.2,0,0.4-0.1,0.5-0.2c0.1-0.1,0.2-0.3,0.2-0.7
		c0-1-0.3-2.1-1-3C60.4,612.246,59.3,611.646,57.8,611.646 M66.4,611.646c-2.2,0-3.6,1-3.6,2.7c0,0.6,0.2,1.1,0.6,1.4
		c0.4,0.4,1,0.7,1.8,1l1.8,0.5c0.5,0.1,0.9,0.3,0.9,0.7c0,0.7-0.7,0.9-1.5,0.9c-0.4,0-0.8-0.1-1.1-0.2c-0.2-0.1-0.4-0.3-0.5-0.5
		s-0.2-0.3-0.3-0.4c-0.1-0.1-0.2-0.1-0.4-0.1h-1c-0.2,0-0.3,0.1-0.4,0.2c-0.1,0.1-0.1,0.2-0.1,0.3c0,0.3,0.1,0.7,0.4,1.1
		c0.6,0.8,1.9,1.5,3.5,1.5s3.8-0.7,3.8-2.8c0-0.5-0.2-1-0.5-1.4c-0.4-0.5-0.9-0.8-1.8-1.1l-1.8-0.5c-0.7-0.2-1.1-0.3-1.1-0.8
		c0-0.4,0.4-0.8,1.3-0.8c0.5,0,1,0.1,1.4,0.5c0.3,0.3,0.2,0.4,0.4,0.5c0.1,0.1,0.3,0.1,0.5,0.1h0.9c0.1,0,0.2,0,0.3-0.1
		c0.1-0.1,0.1-0.2,0.1-0.4c0-0.4-0.3-0.9-0.7-1.4C68.6,612.046,67.6,611.646,66.4,611.646 M52.6,575.546c0.2-0.4,0.5-0.6,1-0.6
		c0.6,0,1.1,0.5,1.1,1.1c0,0.4-0.2,0.7-0.4,0.9c0.1,0.2,0.1,0.4,0.1,0.6c0,0.7-0.4,1.1-1.1,1.4c-0.1,0.4-0.3,0.8-0.6,1
		c-0.5,0.5-1,0.5-1,0.7c0,0.1,0.1,0.2,0.3,0.2c0.9,0,1.8-0.5,1.9-1.3c0.8-0.3,1.4-1.1,1.4-1.8c0-0.2,0-0.3-0.1-0.5
		c0.2-0.2,0.5-0.6,0.5-1.2c0-0.5-0.2-1-0.6-1.4c-0.3-0.3-0.8-0.5-1.4-0.5c-0.8,0-1.3,0.4-1.6,0.9c-0.9,0-2,1-2,2.3H50
		c-0.1-0.5-0.6-0.8-1-0.8c-0.3-1-1.1-1.9-2.3-1.9c-0.1,0-0.3,0-0.5,0c-0.4-0.3-0.8-0.5-1.3-0.5c-1.1,0-2,0.9-2,2
		c0,0.7,0.3,1.2,0.9,1.6v0.1c0,0.9,1,2.2,2.4,2.2c0,0.2,0.3,0.5,0.6,0.6v0.1h-0.1c-2,0-2.8,0.9-2.8,1.6c-0.6,0.2-1,0.9-1,1.5
		c0,1.2,0.9,2,2,2c0.4,0,0.8-0.2,1-0.4c0.2,0.1,0.5,0.1,0.7,0.1c0.5,0,1.2-0.2,1.6-0.8c0.1,0,0.1,0,0.2,0c0.7,0,1.3-0.5,1.6-1.1
		c0.1-0.2,0.1-0.3,0.1-0.4c0-0.1,0-0.2-0.1-0.2s-0.1,0.1-0.3,0.3c-0.4,0.4-1.1,0.6-1.8,0.6c-0.3,0.5-0.8,0.8-1.3,0.8
		c-0.4,0-0.6-0.1-0.9-0.3c-0.2,0.3-0.5,0.4-0.8,0.4c-0.6,0-1.1-0.4-1.1-1.1c0-0.4,0.3-0.8,0.7-1c0.1-0.8,0.9-1.3,2-1.3
		c0.1,0,0.3,0,0.4,0c0.2-0.3,0.5-0.5,1.1-0.6c0.1,0,0.2,0,0.3-0.1c0.1,0,0.1-0.1,0.1-0.2c0-0.1,0-0.1-0.1-0.2c-0.1,0-0.2,0-0.3-0.1
		c-0.5-0.1-1.1-0.4-1.4-1.2c-1.2,0-2.1-1-2.1-2v-0.1c-0.4-0.2-0.7-0.5-0.7-1c0-0.6,0.5-1.1,1.1-1.1c0.4,0,0.7,0.2,0.9,0.4
		c0.2,0,0.4-0.1,0.5-0.1c0.9,0,1.8,0.6,2,1.7c1.1,0.1,1.4,1.1,1.5,1.5c0,0.2,0.1,0.4,0.2,0.4s0.2-0.2,0.2-0.4c0.1-0.4,0.2-0.7,0.5-1
		C50.7,576.446,51.5,575.546,52.6,575.546 M71.3,611.946h-0.4c-0.2,0-0.3,0-0.4,0.1c-0.1,0.1-0.2,0.2-0.2,0.4v0.5
		c0,0.2,0,0.3,0.2,0.4c0.1,0.1,0.2,0.1,0.4,0.1h0.4v4c0,1,0.3,1.7,0.8,2.2s1.1,0.8,2.2,0.8H75c0.2,0,0.3,0,0.4-0.1
		c0.1-0.1,0.2-0.2,0.2-0.4v-0.7c0-0.2-0.1-0.3-0.2-0.4c-0.1-0.1-0.2-0.1-0.4-0.1h-0.1c-0.4,0-0.7-0.1-0.9-0.3
		c-0.2-0.2-0.4-0.6-0.4-1v-3.8H75c0.2,0,0.3,0,0.4-0.1c0.1-0.1,0.2-0.2,0.2-0.4v-0.5c0-0.2,0-0.3-0.2-0.4c-0.1-0.1-0.2-0.1-0.4-0.1
		h-1.4v-2.7c0-0.2-0.1-0.4-0.2-0.5c-0.1-0.1-0.3-0.2-0.5-0.2H72c-0.2,0-0.4,0.1-0.5,0.2c-0.1,0.1-0.2,0.3-0.2,0.5V611.946z
		 M76.2,619.846c0,0.2,0.1,0.4,0.2,0.5c0.1,0.1,0.3,0.2,0.5,0.2h0.9c0.2,0,0.4-0.1,0.5-0.2c0.1-0.1,0.2-0.3,0.2-0.5v-10.4
		c0-0.2-0.1-0.4-0.2-0.5c-0.1-0.1-0.3-0.2-0.5-0.2h-0.9c-0.2,0-0.4,0.1-0.5,0.2c-0.1,0.1-0.2,0.3-0.2,0.5V619.846z M54.9,581.846
		c-0.4,0.5-0.6,0.8-1.5,1.8c-1.1,1.3-1.7,2.4-2.7,4.8c0.2,0,0.4,0,0.6,0c0.1,0,0.2,0,0.4,0l0.1-0.3c0.5-1.2,1.3-2.8,2.3-4l0.4-0.4
		c1.1-1.2,1.7-2,2.1-3.7c0.1-0.6,0.3-1.1,0.7-1.5c0.4-0.4,0.8-0.5,1.3-0.5c0.4,0,0.7,0.1,1.1,0.3c0.4,0.2,0.5,0.2,0.9,0.2
		c0.1,0,0.2,0,0.3,0l-0.6,0.7l0.8,0.5c-0.9,0.3-1.4,1.2-1.6,1.6c0,0.1,0,0.1,0,0.2c0,0.1,0,0.1,0.1,0.1s0.2-0.1,0.3-0.2
		c0.5-0.6,0.8-0.9,2.5-1.5l-1.2-0.9l0.9-1.3h-0.9c-0.5,0-0.9,0-1.4-0.2c-0.6-0.3-1-0.4-1.5-0.4c-0.7,0-1.3,0.2-1.8,0.7
		c-0.6,0.5-0.8,1.3-1,2.1C55.6,580.546,55.4,581.146,54.9,581.846 M56.8,587.246c-0.5,0.6-1.1,1.4-1.6,2.3c0.2,0.1,0.7,0.3,0.8,0.4
		c0.5-0.8,1.3-1.8,1.8-2.6c0.5-0.7,0.6-1,0.7-1.9c0-0.2,0-0.3,0-0.5c0-0.5,0.2-1,0.6-1.4c0.3-0.3,0.8-0.5,1.3-0.5s0.8,0.1,1.2,0.1
		c0.3,0,0.5-0.1,0.7-0.1l0.2-0.1l-0.4,0.9l0.9,0.3c-0.5,0.3-1.8,1.8-1.8,3.6c0,0.6,0.1,1.2,0.2,1.7c0,0.1,0,0.1,0.1,0.1
		s0.1,0,0.1-0.1v-0.2c0-0.5,0.1-1.4,0.3-2.1c0.4-1.3,1.3-2.5,2.3-3l-1.2-0.7l0.6-1.4l-0.6,0.1c-0.4,0.1-0.7,0.2-1,0.2
		c-0.2,0-0.5,0-0.8-0.1c-0.2-0.1-0.5-0.1-0.8-0.1c-0.6,0-1.3,0.2-1.8,0.7c-0.8,0.8-0.9,1.7-0.9,2.4
		C57.5,586.246,57.3,586.446,56.8,587.246 M77.2,587.746c-0.1-0.1-0.1-0.1-0.2-0.1s-0.1,0.1-0.1,0.1c0,0.1,0.1,0.2,0.3,0.6
		c0.6,1,1.4,2.1,2.3,3c1,1.1,2.2,2,3.4,2.9l0.4,0.3c0.1,0,0.1,0.1,0.1,0.1c0.1,0,0.1-0.1,0.1-0.1s0-0.1-0.1-0.1
		c-1.2-1.1-2.4-2.3-3.6-3.6C79,589.846,78,588.746,77.2,587.746 M55.8,615.146c0.1-1,0.9-1.7,2-1.7s1.9,0.7,2,1.7H55.8z
		 M51.6,584.146c0.1-0.2,0.5-0.7,0.6-0.8c-0.6-1.2-1.6-2.4-2.1-2.9l-0.4,0.4C50.2,581.346,50.9,582.546,51.6,584.146 M45.7,576.946
		c-0.1-0.1-0.1-0.1-0.1-0.2c0-0.1,0-0.1,0.1-0.1h0.1c0.6,0.2,1.1,0.5,1.5,0.9c0.4,0.3,0.7,0.6,1.1,1.1l-0.3,0.4
		C47.8,578.646,46.4,577.546,45.7,576.946 M51.4,579.646l-0.4-0.3c0.3-0.7,0.6-1.3,1-1.7c0.3-0.3,0.6-0.6,0.9-0.9
		c0.1-0.1,0.1-0.1,0.2-0.1c0.1,0,0.1,0.1,0.1,0.1v0.1C52.6,577.646,51.7,579.146,51.4,579.646 M46,583.246c-0.1,0-0.2,0.1-0.2,0.1
		c-0.1,0-0.1-0.1-0.1-0.1c0-0.1,0-0.1,0.1-0.1c1-0.8,1.8-1.1,3-1.3l0.1,0.5L46,583.246z M66.4,577.146c0-0.3,0.1-0.8,0.7-0.8
		c0.2,0,0.3,0,0.5,0.1c0.2,0.1,0.3,0.2,0.3,0.4c0,0.1-0.1,0.3-0.4,0.5c-0.2,0.2-0.5,0.4-0.7,0.4
		C66.5,577.646,66.4,577.346,66.4,577.146 M58.3,579.446c0-0.3,0.2-0.7,0.6-0.7c0.2,0,0.4,0.1,0.5,0.2c0.1,0.1,0.1,0.2,0.1,0.3
		c0,0.2-0.2,0.4-0.4,0.5c-0.2,0.1-0.3,0.2-0.5,0.2C58.4,579.846,58.3,579.746,58.3,579.446 M60.2,584.346c0-0.1,0-0.2,0-0.3
		c0.1-0.2,0.2-0.4,0.5-0.4c0.2,0,0.3,0,0.5,0.1c0.1,0.1,0.2,0.2,0.2,0.3c0,0.3-0.6,0.7-0.9,0.7
		C60.3,584.846,60.2,584.646,60.2,584.346 M87.2,610.446c0.2,0,0.3,0,0.4-0.1c0.1-0.1,0.2-0.2,0.2-0.4v-0.7c0-0.3-0.1-0.4-0.2-0.5
		c-0.1-0.1-0.2-0.2-0.4-0.2c-0.1,0-0.3,0-0.5,0l-6.4,0.6c-0.2,0-0.3,0.1-0.3,0.1c-0.1,0.1-0.1,0.2-0.1,0.3v0.4c0,0.2,0,0.2,0.1,0.3
		s0.2,0.1,0.3,0.1L87.2,610.446L87.2,610.446z M83.6,611.646c-2.8,0-4.3,2.2-4.3,4.4c0,2.4,1.7,4.6,4.3,4.6c1.3,0,2.6-0.5,3.4-1.4
		c0.3-0.4,0.6-0.9,0.6-1.2c0-0.1,0-0.2-0.1-0.3s-0.2-0.1-0.3-0.1h-1.3c-0.3,0-0.4,0.1-0.6,0.3c-0.4,0.5-0.9,0.8-1.7,0.8
		c-1.2,0-2-0.9-2-1.9h5.6c0.2,0,0.4-0.1,0.5-0.2c0.1-0.1,0.2-0.3,0.2-0.7c0-1-0.3-2.1-1-3C86.2,612.246,85.1,611.646,83.6,611.646
		 M81.7,615.146c0.1-1,0.9-1.7,2-1.7s1.9,0.7,2,1.7H81.7z M57.1,594.446c-1.1,0-1.6-0.5-1.6-1.2c0-1.1,2-2.2,3.8-2.9l0.5,0.6
		c-1.1,0.4-3.3,1.4-3.3,2.2c0,0.3,0.2,0.5,0.8,0.5c1.2,0,2.4-0.6,3.6-1.1c0.1,0,0.2-0.1,0.3-0.1c0.2,0,0.2,0,0.4,0.2l0.2,0.3
		C60.3,593.646,58.6,594.446,57.1,594.446 M60,594.746c-1.1,0.6-2.1,1-3.1,1c-1.1,0-2-0.5-2.8-1.7c-0.3-0.5-0.6-1.1-0.9-1.7
		c-0.4-0.7-0.8-1-1.5-1s-1.3,0.3-2,0.6v0.2c0.1,0.2,0.2,0.4,0.4,0.4c0.1,0,0.2,0,0.3-0.1c0.4-0.1,0.7-0.2,1.1-0.2
		c0.6,0,0.9,0.4,1.3,1.2l0.2,0.3c-0.4,0.1-1.4,0.2-2.1,0.2h-0.3l0.1,0.3c0,0.1,0.1,0.3,0.2,0.3c0.1,0.1,0.4,0.1,0.7,0.1
		c0.9,0,1.6-0.1,2-0.2c1,1.5,2.3,2,3.6,2c1.1,0,2.2-0.4,3.3-1L60,594.746z M61.1,595.046l-0.2-0.7c1.6-0.9,3.1-1.6,5.5-1.8
		c0,0.9,0,2.1,0.7,2.1c0.6,0,2-1.6,3.5-3.6c0.1,0.1,0.4,0.3,0.6,0.4l-0.4,0.5c-1.5,2-2.8,3.6-3.9,3.6c-1,0-1.4-1.2-1.4-2
		C64,593.646,62.6,594.146,61.1,595.046 M82.2,579.046c-0.6,0-0.8-0.3-0.8-0.8c0-1,0.6-2.4,1-3.3h-1c-0.5,1-2.5,4.1-3.5,5.4l0.6,0.7
		c0.6-0.6,1.2-1.7,1.9-2.8h0.1c0,0.1,0,0.1,0,0.2c0,0.9,0.5,1.6,1.6,1.6c0.7,0,1.8-0.3,2.8-0.7c0.9-0.3,1.6-0.6,2-0.7v-1
		c-0.4,0.1-1.4,0.5-2.3,0.8S82.7,579.046,82.2,579.046 M84.3,581.946c1-0.4,2.7-1.1,3.7-1.4v-1c-2,0.7-5.5,2.2-7.8,3.5
		c0.1,0.1,0.5,0.7,0.5,0.7c1-0.4,1.9-0.7,2.7-0.7c1.1,0,2.1,0,3.6-0.4v-0.7c-0.9,0.2-1.8,0.4-2.4,0.4c-0.4,0-0.5,0-0.5-0.2
		C84.1,582.046,84.2,582.046,84.3,581.946 M63.5,587.146h4.1l-0.3-0.7h-3.4L63.5,587.146z M49.2,590.846c0.4,0,0.8-0.1,1.1-0.3
		c0.3-0.1,0.6-0.3,1.1-0.3c1,0,2.3,0.5,3.4,1c0.1,0,0.1,0,0.2,0c0.2,0,0.3-0.1,0.4-0.2l0.1-0.3c-1.2-0.7-3.2-1.5-4.2-1.5
		c-0.5,0-0.8,0.1-1.1,0.2c-0.4,0.1-0.7,0.3-1,0.3c-0.8,0-2.9-0.8-2.9-1.6c0-0.9,3.3-1.3,3.6-1.3l0.3-0.7c-2.4,0-5.2,0.8-5.2,1.9
		c0,0.3,0.2,0.5,0.2,0.8c0,0.4-0.2,0.7-0.2,1.1c0,0.3,0.2,0.7,0.4,1s0.5,0.6,0.5,0.9c0,0.2-0.1,0.5-0.1,1c0,1.1,0.6,1.7,1.8,3
		l0.2,0.3c-1,0.4-2.8,1.2-3.3,1.4c-1.5,0.6-1.9,1.4-1.9,2.6c0,0.5,0,1,0,1.5h0.3c0.6,0,0.7-0.4,0.7-0.7c0-0.2,0-0.5,0-0.8
		c0-0.7,0-1.2,1.1-1.7c0.4-0.2,2.5-1.1,4.1-1.7c0.5-0.2,0.9-0.4,1.4-0.4s1.1,0.2,1.9,0.7c0.6,0.4,1.3,0.9,1.9,1.5l0.7-0.5
		c-0.6-0.7-1.4-1.3-2.2-1.8s-1.5-0.8-2.1-0.8c-0.3,0-0.5,0-0.7,0.1c-0.2,0.1-0.4,0.1-0.7,0.1s-0.5-0.1-0.9-0.5
		c-0.1-0.2-1-1.1-1.2-1.4c-0.1-0.1-0.2-0.4-0.2-0.7c0-0.1,0-0.3,0.1-0.4c0.7,0.6,1.7,0.9,2.8,1.1l-0.2-0.8c-1.6-0.4-3.3-1.8-3.3-2.7
		c0-0.2,0-0.3,0.1-0.5C47,590.246,48.5,590.846,49.2,590.846 M60.7,590.946c1-0.7,2-0.8,2.9-0.8c0.5,0,1.1,0.1,1.7,0.2
		c0.5,0.1,1,0.1,1.5,0.1c1.1,0,2.2-0.4,2.7-0.6c0.1,0.2,0.4,0.4,0.5,0.5c-0.2,0.1-1.7,0.9-3.2,0.9c-0.7,0-1.3-0.1-1.8-0.2
		c-0.5-0.1-1-0.1-1.5-0.1s-1.7,0.2-2.3,0.5L60.7,590.946z M75.5,593.846c-1.2,2.5-3,4.3-4.9,5.4c-0.9,0.5-1.7,0.8-3.4,0.8h-3.7
		c-1.3,0-2.2,0.2-2.8,0.3c-0.7,0.2-1.1,0.4-1.9,0.4c-1.1,0-2-0.5-2.5-1l0.9-0.7l-0.4-0.6c-0.3,0.2-3.4,2.5-4,3l0,0
		c0-0.2,0-0.3,0-0.4c0-1.8-0.8-2.2-2-2.7l-0.8,0.5c1.7,0.6,2.1,1,2.1,2.3c0,1-0.4,1.4-0.9,1.7c-0.5,0.3-1.2,0.5-1.8,0.5
		c-0.2,0-0.4,0-0.4,0.1c-0.1,0.1-0.1,0.2-0.1,0.4v0.3h0.2c1.1,0,2.1-0.2,3.1-1l3.5-2.8c0.5,0.6,1.8,1.4,3.3,1.4
		c0.8,0,1.4-0.2,2.2-0.4c0.6-0.2,1.2-0.3,2.5-0.3h3.7c1.9,0,2.8-0.4,3.9-1c2.2-1.2,4.1-3.3,5.2-5.8
		C76,594.146,75.7,593.946,75.5,593.846 M69.5,596.746c1-1.5,1.8-2.9,3.9-4c-0.2-0.1-0.5-0.3-0.7-0.5c-0.8,0.4-1.6,1.1-2.3,1.8
		c-1.6,1.7-1.4,2.6-3.1,3.3c-0.4,0.2-0.9,0.3-1.6,0.5c-0.4-1.2-1.4-2.4-2.4-2.4c-0.7,0-1.5,0.4-2.5,0.8c-1.1,0.5-2.1,1.1-2.5,1.3
		l0.4,0.6c0.3-0.2,1.3-0.7,2.3-1.1c0.8-0.4,1.6-0.7,2.1-0.7c0.8,0,1.4,0.9,1.6,1.7c-1.1,0.3-2.8,0.3-3.4,0.3c-0.2,0-0.3,0-0.4,0.1
		c-0.1,0.1-0.1,0.2-0.2,0.4l-0.1,0.3h0.6c3,0,5.8-0.5,7.6-1.6c0.3,0.1,0.5,0.1,0.8,0.1c1,0,2.1-0.6,2.8-1.1c0.2-0.2,0.3-0.4,0.3-0.5
		c0-0.1,0-0.2,0-0.2v-0.3c-1,0.8-1.8,1.3-2.7,1.3C69.7,596.846,69.6,596.846,69.5,596.746"/>
</g>
</svg>
