<?xml version="1.0" encoding="utf-8"?>
<!-- Generator: Adobe Illustrator 17.0.0, SVG Export Plug-In . SVG Version: 6.00 Build 0)  -->
<!DOCTYPE svg PUBLIC "-//W3C//DTD SVG 1.1//EN" "http://www.w3.org/Graphics/SVG/1.1/DTD/svg11.dtd">
<svg version="1.1" id="Capa_1" xmlns="http://www.w3.org/2000/svg" xmlns:xlink="http://www.w3.org/1999/xlink" x="0px" y="0px"
	 width="593.97px" height="483.385px" viewBox="0 0 593.97 483.385" enable-background="new 0 0 593.97 483.385"
	 xml:space="preserve">
<rect x="125.677" y="118.662" transform="matrix(0.9934 -0.115 0.115 0.9934 -31.1989 29.5405)" fill="#FFFFFF" stroke="#214D6A" stroke-width="3.779" stroke-miterlimit="10" width="229.565" height="333.085"/>
<path fill="#E0DFE6" d="M364.098,365.361c-1.242-0.232-1.363,0.029-2.669,0.12c-1.786,0.142-2.024,0.15-0.715,0.024
	c-1.345-0.128-2.675-0.507-3.979-0.852c-0.125-0.038-0.254-0.077-0.408-0.123c-1.957-0.592-3.882-1.185-5.863-1.664
	c-2.835-0.685-6.363-0.323-9.274-0.427c-4.307-0.155-8.618-0.213-12.925-0.11c-10.311,0.246-20.71,1.814-31.009,3.186
	c-2.907-16.247-6.905-32.285-9.52-48.602c-1.76-10.984-3.18-22.02-4.882-33.014c-1.689-10.909-4.214-21.875-6.559-32.278
	c-4.723-20.953-5.791-42.57-7.793-63.895c-1.071-11.414-2.998-22.235-6.401-33.204c-3.021-9.736-6.441-18.014-7.655-27.32
	c-0.428-3.279-1.936-6.192-4.116-8.378c-6.837,1.961-14.213,2.728-21.401,2.788c-1.524,2.565-2.271,5.614-1.861,8.758
	c1.326,10.167,4.657,19.942,7.87,29.624c3.311,9.977,4.952,18.38,6.012,29.087c2.175,21.971,3.306,44.07,7.967,65.708
	c2.2,10.21,4.579,19.968,6.273,30.465c1.77,10.968,3.186,21.991,4.877,32.972c3.403,22.094,9.489,43.652,12.155,65.871
	c0.913,7.604,7.818,13.238,15.304,12.372c2.121-0.246,4.079-1.01,5.787-2.134c12.077-1.406,24.209-3.288,36.345-4.019
	c5.611-0.338,12.371-0.725,17.851,0.599c-1.393-0.44-1.298-0.415,0.285,0.075c2.004,0.613,4.004,1.216,6.028,1.75
	c3.504,0.924,7.256,0.904,10.836,0.652c2.278-0.16,0.377-1.007,2.155-2.275C364.248,382.812,365.891,373.861,364.098,365.361z"/>
<g>
	
		<text transform="matrix(0.9921 -0.1253 0.1253 0.9921 143.9112 198.5684)" fill="#214D6A" font-family="'BloggerSans-Light'" font-size="36.9927">Referencia</text>
</g>
<polyline fill="none" stroke="#214D6A" stroke-width="4" stroke-miterlimit="10" points="-139.984,346.914 -68.997,340.473 
	-148.493,38.998 -634.468,56.997 -566.786,358.14 -280.506,347.468 -265.633,346.914 "/>
<path id="XMLID_853_" fill="#E0DFE6" d="M-190.119,471.645c-4.413-4.875-8.961-9.59-13.655-14.195
	c-2.478-2.432-5.007-4.815-7.604-7.122c0.068-0.279,0.114-0.576,0.132-0.894c0.232-4.08-0.575-8.127-1.94-11.975
	c-0.046-0.527-0.105-1.053-0.139-1.582c-0.221-3.385,0.135-6.86-0.578-10.179c0.569-0.491,0.96-1.166,1.033-1.994
	c0.724,0.007,1.499-0.152,2.299-0.528c1.699-0.8,3.34-1.305,5.139-1.803c2.858-0.791,5.139-4.842,3.064-7.53
	c-10.809-14.002-19.792-28.207-27.477-44.126c-6.593-13.656-13.764-26.641-26.202-35.812c-7.059-5.205-14.377-9.02-19.593-16.358
	c-4.221-5.939-7.104-12.532-10.104-19.125c-6.927-15.219-13.192-30.902-20.805-45.781c-0.235-0.46-1.087-0.269-1.019,0.276
	c2.012,16.039,4.494,33.486,10.58,48.548c1.401,3.467,3.074,6.78,4.958,9.955c1.396,3.409,3.118,6.708,5.5,9.845
	c2.789,3.673,5.699,6.073,9.214,8.543c0.447,0.432,0.911,0.847,1.365,1.272c-2.029,0.037-4.08,0.185-6.128,0.417
	c0.269,0.158,0.535,0.339,0.794,0.557c-1.437-1.212-0.01-0.083,0.39,0.137c0.74,0.406,1.462,0.851,2.193,1.274
	c1.872,1.082,3.742,2.164,5.582,3.299c3.801,2.343,7.91,4.861,10.834,8.291c0.751,0.881,1.131,1.834,1.234,2.777
	c1.805,1.931,3.747,3.786,5.61,5.783c5.461,5.852,8.296,13.54,12.67,20.135c10.305,15.539,15.935,33.165,22.623,50.379
	c0.71,1.829,2.362,2.568,3.914,2.474c-0.618,1.056-1.119,2.206-1.541,3.411c-1.054-0.347-2.247-0.258-3.259,0.212
	c-0.62-0.307-1.377-0.483-2.304-0.485c-4.545-0.011-9.112,6.485-12.111,9.345c-2.391,2.279-1.285,6.725,1.978,7.494
	c0.329,0.077,0.658,0.155,0.986,0.232c0.849,0.2,1.822,0.068,2.672-0.32c0.669,0.916,1.378,1.811,2.097,2.695
	c1.645,9.428,6.592,19.014,10.166,27.581c1.067,2.559,2.195,5.089,3.351,7.606h34.958
	C-182.1,479.701-186.511,475.631-190.119,471.645z M-221.268,442.239c0.225-0.066,0.445-0.147,0.661-0.242
	c0.08,0.311,0.159,0.622,0.232,0.936C-220.673,442.7-220.969,442.469-221.268,442.239z M-215.264,415.147
	c-0.098,0.068-0.187,0.138-0.278,0.207c-0.42-1.071-0.85-2.139-1.292-3.202c0.706,0.885,1.415,1.765,2.127,2.644
	C-214.892,414.916-215.079,415.022-215.264,415.147z"/>
<path id="XMLID_851_" fill="#214D6A" d="M-221.524,473.63c1.858,3.728,3.73,7.479,5.613,11.237h3.12
	c-2.068-4.128-4.141-8.284-6.233-12.482c-5.443-10.921-11.065-22.2-16.851-33.38c35.413-21.194,68.098-35.925,99.887-45.021
	c0.741-0.213,1.17-0.985,0.958-1.728c-0.211-0.74-0.984-1.169-1.727-0.958c-32.363,9.262-65.623,24.303-101.681,45.987
	c-0.632,0.38-0.859,1.186-0.52,1.839C-232.97,450.666-227.151,462.341-221.524,473.63z"/>
<path id="XMLID_835_" fill="#E0DFE6" d="M-266.095,265.777c-3.016-3.175-6.021-6.352-9.133-9.432
	c-0.868-0.859-1.815-1.714-2.768-2.588c0.168-0.338,0.272-0.715,0.273-1.134c0.001-2.716-1.163-4.584-1.871-7.097
	c-0.807-2.866,0.88-6.207,1.279-9.096c0.895-6.478,0.483-13.029-0.7-19.438c-0.111-0.604-0.945-0.393-0.997,0.136
	c-0.816,8.255-3.737,15.056-6.455,22.761c-2.225,6.309,0.885,8.841,3.648,14.113c0.565,1.079,1.622,1.449,2.626,1.302
	c0.21,0.243,0.419,0.486,0.634,0.728c3.637,4.099,7.369,8.091,11.142,12.063C-266.958,269.632-264.64,267.309-266.095,265.777z"/>
<path id="XMLID_824_" fill="#214D6A" d="M-309.294,260.885c1.577,7.506,3.208,15.268,5.233,22.859
	c2.317,8.689,4.212,13.389,6.045,17.936l0.841,2.092c4.043,10.076,8.223,20.495,17.132,27.706
	c25.797,20.878,38.709,49.904,51.195,77.976c2.802,6.301,5.7,12.815,8.697,19.133c0.33,0.696,1.164,0.99,1.859,0.663
	c0.697-0.331,0.994-1.163,0.663-1.86c-2.982-6.286-5.873-12.785-8.669-19.07c-12.62-28.372-25.671-57.712-51.989-79.012
	c-8.346-6.754-12.388-16.83-16.298-26.575l-0.843-2.097c-1.801-4.467-3.664-9.087-5.936-17.609
	c-2.006-7.521-3.629-15.244-5.199-22.715c-0.633-3.015-1.267-6.028-1.925-9.035c-0.706-3.225-1.065-6.347-1.065-9.281
	c0-4.84,0.977-9.37,2.902-13.464c3.54-7.523,7.745-16.298,12.499-26.082c1.064-2.192,3.699-4.042,5.752-4.042
	c0.721,0,1.288,0.223,1.733,0.68c6.091,6.25,9.18,15.678,9.18,28.021c0,5.27-0.57,11.031-1.695,17.128
	c-0.147,0.799-0.222,1.617-0.222,2.431c0,3.252,1.177,6.519,3.405,9.448c2.956,3.886,5.53,7.495,7.869,11.033
	c0.891,1.348,2.99,1.643,3.724,1.643c2.525,0,4.579-2.14,4.579-4.768l-0.003-0.191c-0.411-10.728-0.905-21.617-1.382-32.149
	c-1.21-26.665-2.46-54.239-2.46-81.405c0-2.348,0.009-4.695,0.028-7.044c0.106-12.998,2.971-18.3,9.889-18.3
	c13.355,0,14.749,20.162,16.861,50.68c1.013,14.641,2.162,31.234,4.863,49.261c0.083,0.552,0.487,1.002,1.027,1.144
	c0.539,0.143,1.114-0.053,1.456-0.494c4.64-5.969,11.971-9.826,18.678-9.826c2.529,0,8.79,0.612,12.287,6.279
	c0.236,0.385,0.645,0.631,1.095,0.66c0.443,0.029,0.887-0.159,1.173-0.508c3.945-4.818,9.938-7.813,15.638-7.813
	c4.632,0,10.813,2.178,12.986,8.313c0.156,0.441,0.523,0.774,0.978,0.888c0.454,0.113,0.935-0.008,1.28-0.324
	c3.377-3.09,7.919-4.791,12.79-4.791c14.414,0,17.572,8.628,17.878,21.584c0.202,8.534,0.98,17.135,1.733,25.452
	c0.872,9.628,1.773,19.583,1.773,29.424c0,26.551-7.137,42.117-17.015,63.663c-0.8,1.743-1.617,3.524-2.449,5.355
	c-0.177,0.388-0.167,0.835,0.028,1.214c8.037,15.693,16.932,32.607,27.513,49.968c12.654,20.763,23.299,41.957,33.594,62.454
	c1.14,2.268,2.296,4.564,3.45,6.857h3.126c-1.369-2.716-2.732-5.427-4.081-8.11c-10.32-20.547-20.991-41.794-33.705-62.654
	c-10.399-17.063-19.172-33.712-27.104-49.187c0.735-1.611,1.457-3.189,2.166-4.733c10.025-21.867,17.269-37.667,17.269-64.826
	c0-9.967-0.907-19.986-1.784-29.676c-0.748-8.273-1.523-16.825-1.723-25.267c-0.284-12.021-2.962-24.311-20.669-24.311
	c-4.889,0-9.501,1.512-13.188,4.289c-3.127-6.141-9.772-8.373-14.846-8.373c-5.955,0-12.163,2.826-16.594,7.473
	c-3.102-3.895-7.957-6.092-13.599-6.092c-6.603,0-13.714,3.285-18.837,8.555c-2.376-16.765-3.449-32.27-4.401-46.04
	c-2.22-32.084-3.687-53.279-19.647-53.279c-12.509,0-12.63,14.764-12.681,21.069c-0.019,2.356-0.028,4.711-0.028,7.066
	c0,27.229,1.252,54.835,2.463,81.531c0.478,10.527,0.971,21.413,1.383,32.215c0,1.09-0.802,1.977-1.787,1.977
	c-0.499,0-1.246-0.245-1.395-0.391c-2.374-3.589-4.982-7.248-7.976-11.184c-1.855-2.439-2.836-5.122-2.836-7.758
	c0-0.645,0.059-1.292,0.176-1.924c1.155-6.264,1.741-12.196,1.741-17.635c0-13.098-3.355-23.182-9.973-29.971
	c-0.97-0.996-2.261-1.521-3.732-1.521c-3.156,0-6.709,2.412-8.264,5.612c-4.759,9.796-8.969,18.582-12.514,26.114
	c-2.102,4.469-3.168,9.398-3.168,14.652c0,3.135,0.38,6.459,1.129,9.879C-310.557,254.873-309.926,257.878-309.294,260.885z"/>
<text transform="matrix(0.9982 -0.0606 0.0606 0.9982 -560.8804 173.4319)" fill="#214D6A" font-family="'BloggerSans-Light'" font-size="68.4365">Ortografía</text>
<path fill="#214D6A" d="M-409.541,7.622l-0.908-14.96c-0.572-9.427,3.323-17.548,14.525-18.228
	c11.067-0.671,15.983,6.915,16.556,16.342l0.908,14.96c0.585,9.632-4.143,17.597-14.458,18.223
	C-403.233,24.585-408.956,17.254-409.541,7.622z M-405.872-7.616l0.908,14.96c0.46,7.582,4.267,12.699,11.78,12.243
	c7.515-0.456,10.606-5.991,10.146-13.573l-0.908-14.96c-0.468-7.719-3.721-12.732-11.713-12.248
	C-403.787-20.701-406.341-15.335-405.872-7.616z"/>
<path fill="#214D6A" d="M-364.232,19.886c0.074,1.23-0.892,2.249-2.054,2.319c-1.298,0.079-2.312-0.819-2.387-2.049l-1.442-23.771
	c-0.146-2.391-0.506-3.809-1.545-5.117c-0.294-0.325-0.455-0.727-0.48-1.137c-0.07-1.161,0.836-2.039,1.929-2.105
	c0.889-0.054,1.967,0.772,2.793,1.956c3.087-2.244,7.047-3.65,9.573-3.803c2.392-0.145,3.2,0.765,3.275,1.995
	c0.083,1.366-0.88,2.454-2.045,2.456c-3.078,0.118-5.674,0.276-9.261,3.305l0.004,0.068c0,0,0.072,0.064,0.196,2.113
	L-364.232,19.886z"/>
<path fill="#214D6A" d="M-348.444-22.757c-0.071-1.162,0.618-2.231,2.053-2.319c1.435-0.087,2.248,0.892,2.318,2.053l0.622,10.247
	l7.924-0.481c1.093-0.066,2.034,0.768,2.109,1.997c0.066,1.093-0.769,2.036-1.861,2.102l-7.923,0.481l0.887,14.618
	c0.46,7.582,1.45,10.333,6.982,9.998c0.479-0.029,0.884-0.122,1.362-0.151c1.298-0.079,3.087,0.018,3.198,1.863
	c0.116,1.913-1.647,2.225-3.286,2.325c-9.427,0.572-12.031-3.932-12.6-13.291L-348.444-22.757z"/>
<path fill="#214D6A" d="M-326.775,7.809l-0.713-11.749c-0.41-6.763,3.711-12.292,11.908-12.79
	c8.266-0.501,12.956,4.493,13.367,11.256l0.713,11.749c0.41,6.763-3.646,12.219-11.912,12.721
	C-321.609,19.494-326.364,14.572-326.775,7.809z M-305.941,6.545l-0.717-11.817c-0.299-4.919-3.218-7.827-8.683-7.496
	c-5.396,0.328-8.011,3.571-7.712,8.49l0.717,11.817c0.299,4.918,3.281,7.754,8.679,7.426
	C-308.192,14.634-305.642,11.463-305.941,6.545z"/>
<path fill="#214D6A" d="M-274.569-16.545c1.457-3.105,3.77-4.548,5.066-4.626c1.161-0.071,2.1,0.695,2.17,1.856
	c0.033,0.546-0.082,0.896-0.211,1.041l-0.574,0.72c-2.189,2.327-3.216,3.487-3.021,6.697l0.266,4.372
	c0.414,6.831-3.292,12.404-11.421,12.897c-2.049,0.125-4.056-0.165-5.873-0.74c-0.793,1.625-0.982,3.007-0.921,4.032
	c0.175,2.869,2.813,3.395,4.588,3.287l2.938-0.178c7.719-0.469,13.707,2.185,14.102,8.674c0.41,6.763-5.216,11.218-13.208,11.703
	c-7.65,0.464-13.207-2.969-13.601-9.458c-0.19-3.143,1.014-5.889,3.404-8.297c-1.88-1.6-2.555-3.684-2.65-5.255
	c-0.091-1.503,0.396-3.658,2.658-5.92c-2.887-2.362-4.46-5.694-4.704-9.725c-0.428-7.036,3.211-12.604,11.341-13.098
	C-281.08-18.754-277.542-18.078-274.569-16.545z M-275.442-12.858c-2.551-1.354-5.2-2.084-7.864-1.923
	c-5.533,0.336-8.144,3.648-7.808,9.181c0.307,5.055,2.905,8.326,8.575,7.982c5.396-0.328,7.604-3.479,7.302-8.465l-0.27-4.44
	C-275.527-10.865-275.518-11.825-275.442-12.858z M-287.488,16.875c-1.821,1.619-2.593,3.585-2.456,5.84
	c0.278,4.577,3.433,6.853,9.171,6.505c5.396-0.327,9.157-2.749,8.88-7.326c-0.24-3.962-3.277-5.423-9.289-5.058l-2.938,0.178
	C-285.418,17.092-286.587,17.026-287.488,16.875z"/>
<path fill="#214D6A" d="M-254.319,13.216c0.074,1.23-0.893,2.248-2.054,2.319c-1.298,0.079-2.313-0.819-2.388-2.049l-1.442-23.771
	c-0.145-2.391-0.506-3.809-1.544-5.117c-0.294-0.325-0.456-0.727-0.48-1.137c-0.07-1.161,0.836-2.039,1.929-2.105
	c0.888-0.054,1.967,0.772,2.793,1.956c3.087-2.244,7.046-3.65,9.573-3.803c2.391-0.145,3.2,0.765,3.275,1.995
	c0.083,1.366-0.88,2.454-2.046,2.456c-3.077,0.118-5.673,0.276-9.261,3.305l0.005,0.068c0,0,0.072,0.064,0.196,2.113
	L-254.319,13.216z"/>
<path fill="#214D6A" d="M-220.382-10.509c-0.336-5.533-3.089-7.972-8.485-7.645c-2.528,0.153-3.929,0.787-5.442,1.839
	c-0.394,0.298-0.923,0.604-1.605,0.646c-1.025,0.062-1.493-0.87-1.611-1.685c-0.447-2.853,4.537-4.32,9.114-4.598
	c8.402-0.51,12.039,4.068,12.582,13.017l0.938,15.438c0.107,1.776,0.776,2.627,2.006,2.552c0.273-0.017,0.406-0.093,0.542-0.102
	c1.024-0.062,1.561,0.865,1.614,1.753c0.083,1.367-1.253,1.928-2.483,2.002c-2.117,0.128-4.053-1.263-5.427-3.579
	c-2.704,2.906-5.831,4.467-9.521,4.691c-6.899,0.419-10.495-3.476-10.855-9.419l-0.017-0.273
	c-0.398-6.558,3.288-10.209,11.28-10.695c2.323-0.141,4.947,0.18,7.657,0.77L-220.382-10.509z M-234.657,3.933l0.017,0.273
	c0.216,3.552,1.944,6.053,7.136,5.738c3.142-0.191,5.604-1.437,8.131-3.853l-0.498-8.197c-2.786-0.722-5.68-0.958-7.729-0.833
	C-233.886-2.559-234.868,0.449-234.657,3.933z"/>
<path fill="#214D6A" d="M-205.726-25.453c-0.522-8.607,4.296-12.808,11.043-13.492c1.089-0.135,5.87-0.425,6.036,2.308
	c0.079,1.298-0.832,2.106-1.993,2.177c-0.615,0.037-1.234,0.006-1.579-0.042c-0.896-0.083-1.865-0.229-2.754-0.175
	c-4.508,0.273-6.606,4.104-6.346,8.407l0.295,4.85l7.924-0.481c1.093-0.066,1.966,0.772,2.041,2.001
	c0.066,1.093-0.7,2.031-1.793,2.098l-7.924,0.481l1.643,27.051c0.074,1.229-0.624,2.163-2.058,2.25
	c-1.436,0.087-2.309-0.751-2.383-1.98L-205.726-25.453z"/>
<path fill="#214D6A" d="M-177.262-38.837c0.385-0.435,0.83-1.01,1.513-1.051c0.957-0.058,1.767,0.853,1.82,1.741
	c0.017,0.273-0.032,0.619-0.155,0.832l-5.241,6.283c-0.642,0.724-1.022,1.227-1.773,1.273c-1.024,0.062-1.898-0.776-1.961-1.801
	c-0.017-0.273,0.044-0.414,0.232-0.7L-177.262-38.837z"/>
<path fill="#214D6A" d="M-178.09,10.784c-1.298,0.079-2.313-0.819-2.388-2.049l-1.882-31.013c-0.074-1.229,0.82-2.312,2.118-2.391
	c1.161-0.071,2.248,0.892,2.322,2.121l1.883,31.013C-175.962,9.695-176.929,10.713-178.09,10.784z"/>
<path fill="#214D6A" d="M-148.384-14.878c-0.336-5.533-3.089-7.972-8.485-7.645c-2.527,0.154-3.929,0.787-5.442,1.839
	c-0.393,0.298-0.923,0.604-1.605,0.646c-1.025,0.062-1.493-0.87-1.611-1.685c-0.447-2.853,4.537-4.32,9.114-4.598
	c8.402-0.51,12.039,4.068,12.583,13.017l0.937,15.438c0.107,1.776,0.776,2.627,2.007,2.552c0.272-0.017,0.405-0.093,0.542-0.102
	c1.024-0.062,1.561,0.865,1.614,1.753c0.083,1.367-1.254,1.928-2.483,2.002c-2.117,0.128-4.054-1.263-5.428-3.579
	c-2.704,2.906-5.831,4.467-9.521,4.691c-6.899,0.419-10.494-3.476-10.855-9.419l-0.017-0.273
	c-0.397-6.558,3.289-10.209,11.281-10.695c2.322-0.141,4.946,0.18,7.656,0.77L-148.384-14.878z M-162.659-0.437l0.017,0.273
	c0.216,3.552,1.944,6.053,7.136,5.738c3.143-0.191,5.604-1.437,8.131-3.853l-0.498-8.197c-2.786-0.722-5.68-0.958-7.729-0.833
	C-161.888-6.929-162.87-3.921-162.659-0.437z"/>
<g>
	<g>
		
			<line fill="none" stroke="#214D6A" stroke-width="0.8686" stroke-miterlimit="10" x1="-558.014" y1="186.585" x2="-552.809" y2="186.33"/>
		
			<line fill="none" stroke="#214D6A" stroke-width="0.8686" stroke-miterlimit="10" stroke-dasharray="10.3679,10.3679" x1="-542.453" y1="185.822" x2="-278.389" y2="172.878"/>
		
			<line fill="none" stroke="#214D6A" stroke-width="0.8686" stroke-miterlimit="10" x1="-273.211" y1="172.624" x2="-268.006" y2="172.369"/>
	</g>
</g>
<path fill="none" stroke="#214D6A" stroke-width="2" stroke-miterlimit="10" d="M245.376,401.057
	c-6.236,6.803-17.669,7.786-11.797-3.842c1.316-2.606,4.208,3.047,1.84,6.619c-2.396,3.616-8.169,6.174-11.134,2.271
	c-4.831-6.361,18.028-3.679,1.833,5.824c-11.909,6.987-20.978-12.762-9.116-12.737c1.451,5.533-3.222,15.703-10.404,12.733
	c-8.079-3.341-2.134-16.058,1.849-11.162c11.293,13.883-26.262,7.9-9.246,0.425c0.406,3.124-2.247,10.577-6.353,9.037
	c-4.077-1.529,1.096-12.928,1.466-15.635c0.607-4.431,1.58-11.152-1.369-15.068c-0.623-0.828-8.84-7.056-9.37-4.23
	c-2.378,12.668-5.928,24.802-7.922,37.563c-1.206,7.722-1.081,21.286-9.278,25.203"/>
<g>
	<path fill="none" stroke="#214D6A" stroke-width="2" stroke-miterlimit="10" d="M160.959,244.65
		c5.798-3.157,10.535-11.988,15.778-16.945c1.106,3.673-0.592,14.463,3.178,16.033c4.493,1.871,12.927-12.611,15.865-15.004
		c-3.173,15.232,16.511,0.037,20.048-3.852c-0.173,3.348,0.558,6.824,2.06,9.682c4.324-2.188,8.039-7.772,11.897-9.782
		c-2.443,15.793,15.525-3.909,20.046-6.123c0.212,4.251,0.034,8.638,0.283,12.86c8.929,1.151,14.752-7.419,22.666-9.963
		c6.861-2.206,11.601-1.269,18.893-8.472c-1.9,3.898-4.303,7.291-4.559,11.411c6.118-0.374,9.752-6.73,16.845-5.845"/>
	<path fill="none" stroke="#214D6A" stroke-width="2" stroke-miterlimit="10" d="M162.959,260.65
		c8.73,16.631,8.087,12.285,20.774,1.08c1.992,10.521,14.342-3.16,19.094-3.945c-0.216,1.419,0.372,3.295,0.26,4.737
		c6.992-0.052,11.802-6.799,18.792-7.765c-0.321,1.722,0.526,4.038,0.208,5.739c8.007,0.522,14.984-7.078,22.74-7.634
		c0.099,5.422-1.682,13.98,3.966,15.77c5.318,1.685,15.478-13.221,18.237-16.702c3.277,10.051,28.648-3.836,33.948,0.399
		c1.585-0.862,0.274-1.694,0.98-2.678"/>
	<path fill="none" stroke="#214D6A" stroke-width="2" stroke-miterlimit="10" d="M162.959,294.65
		c-0.119,1.605-0.069,3.282,0.151,4.842c5.922,0.264,7.943-7.181,12.698-9.785c-0.414,1.988,0.607,4.769,0.306,6.785
		c6.779,0.817,12.489-7.32,17.933-10.556c-0.542,3.518-0.866,7.087-0.956,10.582c6.728-0.787,16.197-6.362,21.737-10.566
		c-0.422,14.914,20.509-11.009,22.26,1.546c8.434,1.417,14.696-3.438,21.586-6.618c-1.807,2.38-2.737,6.153-3.605,8.634
		c7.08-1.696,14.23-6.02,21.911-7.61c5.91-1.224,12.773-0.666,17.778-4.126c2.754,5.507,8.754,8.622,12.203,1.872"/>
	<path fill="none" stroke="#214D6A" stroke-width="2" stroke-miterlimit="10" d="M176.959,317.65
		c-2.291,1.916-2.83,5.337-1.872,8.868c7.47-0.85,11.206-9.754,16.694-13.789c0.03,13.147,22.336-1.287,27.046-4.02
		c-1.008,2.488-0.133,6.4-0.563,8.801c10.191,0.631,15.384-11.382,24.614-13.775c-3.714,17.098,20.283,4.232,25.726-0.229
		c-1.861,2.469-0.869,3.101-1.566,5.991c7.962,1.7,13.159-4.429,19.789-6.57c-0.424,1.949,0.617,4.651,0.286,6.589
		c5.762,0.016,17.67-2.08,21.845-5.868"/>
	<path fill="none" stroke="#214D6A" stroke-width="2" stroke-miterlimit="10" d="M174.959,352.65
		c5.778,3.429,13.316-5.405,16.797-9.94c-3.075,14.04,14.417,2.941,18-1.728c-3.209,16.178,14.241-0.536,19.1-1.229
		c-1.698,17.08,16.579-2.21,21.971-2.971c-0.38,1.243-0.363,3.54-0.785,4.789c7.21-2.993,15.869-8.936,23.833-8.814
		c-1.547,2.317-1.016,5.49-1.758,7.762c7.526,0.056,15.801-4.062,22.71-6.762c-0.754,1.71-0.172,5.032-0.737,6.762
		c6.112,0.101,10.756-5.033,16.694-5.721c2.633,3.607,6.994,0.661,9.174-3.148"/>
</g>
<rect x="263.74" y="31.639" transform="matrix(0.9934 -0.115 0.115 0.9934 -20.2769 44.8382)" fill="#FFFFFF" stroke="#214D6A" stroke-width="3.779" stroke-miterlimit="10" width="229.565" height="333.085"/>
<g>
	
		<text transform="matrix(0.9921 -0.1253 0.1253 0.9921 285.9112 101.0875)" fill="#214D6A" font-family="'BloggerSans-Light'" font-size="36.9927">Certificacion</text>
	<path fill="#214D6A" d="M434.135,55.786c0.192-0.248,0.412-0.574,0.779-0.62c0.514-0.065,0.983,0.398,1.043,0.875
		c0.019,0.147,0.004,0.335-0.055,0.454l-2.607,3.573c-0.321,0.413-0.508,0.698-0.912,0.749c-0.55,0.069-1.051-0.352-1.121-0.902
		c-0.019-0.147,0.009-0.225,0.101-0.386L434.135,55.786z"/>
</g>
<path fill="none" stroke="#214D6A" stroke-width="2" stroke-miterlimit="10" d="M314.63,348.18
	c5.371-3.036,10.184-13.165,12.052-18.769c-0.156,3.528-0.123,7.161,0.1,10.634c6.122,0.216,9.622-9.404,8.649-14.856
	c-1.828,2.571-2.105,5.656-1.653,8.837c7.022,0.146,6.459-9.564,5.653-14.801c-2.877,4.464-1.928,12.121-1.649,17.84
	c5.094-1.221,7.612-7.481,8.845-12.645c2.093,6.311,1.113,13.987,0.904,20.602c-3.67,0.474-7.179-1.028-9.546-3.868
	c6.912-2.498,11.972-10.142,17.392-14.865c-7.728,3.022-14.866,8.649-22.697,11.828c12.831-5.91,26.873-11.749,40.951-13.936"/>
<path fill="none" stroke="#214D6A" stroke-width="2" stroke-miterlimit="10" d="M443.63,325.18
	c-7.412-1.055-13.842-7.659-8.091-15.016c6.834-8.742,21.217-2.312,13.196,7.687c1.425-2.31,4.484-4.355,6.918-5.885
	c3.365,4.05,3.47,10.75,4.125,16.082c5.815,0.644,15.488-9.971,12.943-16.182c-2.233-5.45-9.318-4.872-9.959,1.162
	c7.952,2.141,19.007-10.063,9.971-10.646c10.999,9.316,10.113,2.031,6.62,17.594c-13.71,0.945-26.367-0.72-38.266,6.078
	c7.561-5.011,21.782-6.072,30.591-5.972c6.864,0.078,15.664,4.152,21.952,1.096"/>
<path fill="none" stroke="#214D6A" stroke-width="2" stroke-miterlimit="10" d="M305.376,171.385
	c5.798-3.157,10.535-11.988,15.778-16.945c1.106,3.673-0.592,14.463,3.178,16.033c4.493,1.871,12.927-12.611,15.865-15.004
	c-3.173,15.232,16.511,0.037,20.048-3.852c-0.173,3.348,0.558,6.824,2.06,9.682c4.324-2.188,8.039-7.772,11.897-9.782
	c-2.443,15.793,15.525-3.909,20.046-6.123c0.212,4.251,0.034,8.638,0.283,12.86c8.929,1.151,14.752-7.419,22.666-9.963
	c6.861-2.206,11.601-1.269,18.893-8.472c-1.9,3.898-4.303,7.291-4.559,11.411c6.118-0.374,9.752-6.73,16.845-5.845"/>
<path fill="none" stroke="#214D6A" stroke-width="2" stroke-miterlimit="10" d="M307.376,187.385
	c8.73,16.631,8.087,12.285,20.774,1.08c1.992,10.521,14.342-3.16,19.094-3.945c-0.216,1.42,0.372,3.295,0.26,4.737
	c6.992-0.052,11.802-6.799,18.792-7.765c-0.321,1.722,0.526,4.038,0.208,5.739c8.007,0.522,14.984-7.078,22.74-7.634
	c0.099,5.422-1.682,13.98,3.966,15.77c5.318,1.685,15.478-13.221,18.237-16.702c3.277,10.051,28.648-3.836,33.948,0.399
	c1.585-0.862,0.274-1.694,0.98-2.678"/>
<path fill="none" stroke="#214D6A" stroke-width="2" stroke-miterlimit="10" d="M307.376,221.385
	c-0.119,1.605-0.069,3.282,0.151,4.842c5.922,0.264,7.943-7.181,12.698-9.785c-0.414,1.988,0.607,4.769,0.306,6.785
	c6.779,0.817,12.489-7.32,17.933-10.556c-0.542,3.518-0.866,7.087-0.956,10.582c6.728-0.787,16.197-6.362,21.737-10.566
	c-0.422,14.914,20.509-11.009,22.26,1.546c8.434,1.417,14.696-3.438,21.586-6.618c-1.807,2.38-2.737,6.153-3.605,8.634
	c7.08-1.696,14.23-6.02,21.911-7.61c5.91-1.224,12.773-0.666,17.778-4.126c2.754,5.507,8.754,8.622,12.203,1.872"/>
<path fill="none" stroke="#214D6A" stroke-width="2" stroke-miterlimit="10" d="M321.376,244.385
	c-2.291,1.916-2.83,5.337-1.872,8.868c7.47-0.85,11.206-9.754,16.694-13.789c0.03,13.147,22.336-1.287,27.046-4.02
	c-1.008,2.488-0.133,6.4-0.563,8.801c10.191,0.631,15.384-11.382,24.614-13.775c-3.714,17.098,20.283,4.232,25.726-0.229
	c-1.861,2.469-0.869,3.101-1.566,5.991c7.962,1.7,13.159-4.429,19.789-6.57c-0.424,1.949,0.617,4.651,0.286,6.589
	c5.762,0.016,17.67-2.08,21.845-5.868"/>
<path fill="none" stroke="#214D6A" stroke-width="2" stroke-miterlimit="10" d="M319.376,279.385
	c5.778,3.429,13.316-5.405,16.797-9.94c-3.075,14.04,14.417,2.941,18-1.728c-3.209,16.178,14.241-0.536,19.1-1.229
	c-1.698,17.08,16.579-2.21,21.971-2.971c-0.38,1.243-0.363,3.54-0.785,4.789c7.21-2.993,15.869-8.936,23.833-8.814
	c-1.547,2.317-1.016,5.49-1.758,7.762c7.526,0.056,15.801-4.062,22.71-6.762c-0.754,1.71-0.172,5.032-0.737,6.762
	c6.112,0.101,10.756-5.033,16.694-5.721c2.633,3.607,6.994,0.661,9.174-3.148"/>
</svg>
