<?xml version="1.0" encoding="utf-8"?>
<!-- Generator: Adobe Illustrator 17.0.0, SVG Export Plug-In . SVG Version: 6.00 Build 0)  -->
<!DOCTYPE svg PUBLIC "-//W3C//DTD SVG 1.1//EN" "http://www.w3.org/Graphics/SVG/1.1/DTD/svg11.dtd">
<svg version="1.1" id="Capa_1" xmlns="http://www.w3.org/2000/svg" xmlns:xlink="http://www.w3.org/1999/xlink" x="0px" y="0px"
	 width="527.77px" height="743.456px" viewBox="416.454 -256.521 527.77 743.456"
	 enable-background="new 416.454 -256.521 527.77 743.456" xml:space="preserve">
<g id="Capa_2">
	<g id="XMLID_1089_">
		
			<rect id="XMLID_391_" x="417.454" y="-255.521" fill="#EFEFEF" stroke="#1F4D69" stroke-width="2" stroke-linecap="round" stroke-miterlimit="10" width="525.77" height="741.456"/>
		
			<text id="XMLID_2_" transform="matrix(1 0 0 1 616.3898 -177.3729)" fill="#1F4D69" font-family="'BloggerSans-Light'" font-size="47.2525"> </text>
		<g id="XMLID_761_">
			<g>
				<g>
					<defs>
						<circle id="SVGID_1_" cx="505.073" cy="-163.306" r="74.059"/>
					</defs>
					<clipPath id="SVGID_2_">
						<use xlink:href="#SVGID_1_"  overflow="visible"/>
					</clipPath>
					<g id="XMLID_697_" clip-path="url(#SVGID_2_)">
						
							<path id="XMLID_774_" fill="none" stroke="#1F4D69" stroke-width="12.8484" stroke-linecap="round" stroke-miterlimit="10" d="
							M534.777,42.383c0,0-10.572-47.4-8.503-104.913"/>
						
							<path id="XMLID_773_" fill="none" stroke="#1F4D69" stroke-width="12.8484" stroke-linecap="round" stroke-miterlimit="10" d="
							M500.419,45.198c0,0-7.469-52.284-8.503-104.913"/>
						<path id="XMLID_772_" fill="none" stroke="#1F4D69" stroke-width="6" stroke-linecap="round" stroke-miterlimit="10" d="
							M481.976-148.655c6.55-2.126-38.208,15.168-34.818,89.745"/>
						<path id="XMLID_771_" fill="none" stroke="#1F4D69" stroke-width="6" stroke-linecap="round" stroke-miterlimit="10" d="
							M521.677-150.436c-6.722-1.494,39.299,8.388,42.861,86.182"/>
						<g id="XMLID_766_">
							<path id="XMLID_769_" fill="#FFFFFF" d="M521.275-155.147c6.09,9.71,14.938,13.387,22.695,39.874
								c3.045,10.457,4.079,20.052,1.666,35.909c-0.862,5.688-13.33,16.087-27.234,19.075c-7.297,1.551-16.087,1.207-28.325,0.057
								c-4.424-0.402-22.293-3.275-24.131-16.317c-1.379-9.94-5.286-20.282-1.666-35.909c3.103-13.215,6.837-19.535,22.063-43.608
								c15.111-23.959,13.847-23.499,13.847-23.499S515.013-165.144,521.275-155.147z"/>
							<path id="XMLID_768_" fill="#E0DFE6" d="M474.22-132.912c2.298-5.401,5.573-10.342,7.756-15.743
								c1.149-2.815,2.758-7.01,6.033-8.159c0.575-0.517,1.264-0.919,1.953-1.149c-0.804-0.345-1.666-0.689-2.471-1.092
								c-0.919-0.46-1.839-0.977-2.758-1.494c5.343,1.149,10.687,2.126,15.34,5.113c-0.632-0.057-1.207-0.115-1.839-0.23
								c1.264,1.321,2.126,3.045,2.183,5.113c0.23,5.631-2.585,10.744-5.401,15.57c-4.711,7.986-8.044,14.708-8.733,24.074
								c-0.632,7.986,0.632,16.49,2.873,24.189c1.781,5.975,7.814,9.423,9.25,15.455c1.494,6.205-3.907,6.607-9.02,5.688
								c-1.207,0.402-2.643,0.172-3.332-0.804c-1.494-0.46-2.815-0.919-3.677-1.264c-10.399-4.309-14.249-12.755-15.398-23.097
								C465.257-105.219,468.417-119.525,474.22-132.912z"/>
							<path id="XMLID_767_" fill="none" stroke="#1F4D69" stroke-width="6" stroke-miterlimit="10" d="M522.482-155.205
								c6.09,9.71,14.938,13.387,22.695,39.874c3.045,10.457,4.079,20.052,1.666,35.909c-0.862,5.688-13.33,16.087-27.234,19.075
								c-7.297,1.551-16.087,1.207-28.325,0.057c-4.424-0.402-22.293-3.275-24.131-16.317c-1.379-9.94-5.286-20.282-1.666-35.909
								c3.103-13.215,6.837-19.535,22.063-43.608c15.111-23.959,13.847-23.499,13.847-23.499S516.277-165.202,522.482-155.205z"/>
						</g>
						<circle id="XMLID_765_" fill="#FFFFFF" cx="502.545" cy="-191.344" r="33.209"/>
						<path id="XMLID_763_" fill="#E0DFE6" d="M500.017-158.537c-3.16-0.919-6.378-1.781-9.48-2.93
							c0.172-0.057,0.345-0.172,0.517-0.23c-0.804-0.345-1.666-0.689-2.471-1.092c-9.652-4.769-20.971-16.317-16.202-27.349
							c5.171-12.066,17.122,3.792,20.971,7.929c4.194,4.539,10.284,6.895,16.317,7.067c1.321-0.747,2.585-0.689,3.62-0.172
							c6.837-0.804,13.1-4.539,15.858-11.261c1.207-2.93,5.056-1.551,5.631,0.977c2.413-1.321,5.86,1.264,4.252,3.907
							c-0.632,1.034-1.321,2.126-2.068,3.16c-0.402,2.815-2.298,5.228-4.424,7.182c-0.632,0.632-1.436,0.862-2.126,0.862
							c-0.057,0.632-0.287,1.207-0.804,1.666c-8.733,7.354-19.477,10.974-30.164,9.365
							C499.557-159.112,499.787-158.824,500.017-158.537z"/>
						
							<circle id="XMLID_762_" fill="none" stroke="#1F4D69" stroke-width="6" stroke-miterlimit="10" cx="503.809" cy="-191.401" r="33.209"/>
					</g>
				</g>
			</g>
		</g>
		
			<circle id="XMLID_440_" fill="none" stroke="#04A7DB" stroke-width="4.3745" stroke-miterlimit="10" cx="504.498" cy="-163.88" r="74.059"/>
	</g>
</g>
</svg>
