<?xml version="1.0" encoding="utf-8"?>
<!-- Generator: Adobe Illustrator 19.0.0, SVG Export Plug-In . SVG Version: 6.00 Build 0)  -->
<svg version="1.1" id="Capa_1" xmlns="http://www.w3.org/2000/svg" xmlns:xlink="http://www.w3.org/1999/xlink" x="0px" y="0px"
	 viewBox="169 -272.7 949.4 1336.7" style="enable-background:new 169 -272.7 949.4 1336.7;" xml:space="preserve">
<style type="text/css">
	.st0{fill:#EFEFEF;stroke:#1F4D69;stroke-width:2;stroke-linecap:round;stroke-miterlimit:10;}
	.st1{fill:none;stroke:#04A7DB;stroke-width:5;stroke-miterlimit:10;}
	.st2{fill:#1F4D69;}
	.st3{font-family:'BloggerSans-Light';}
	.st4{font-size:82.2427px;}
	.st5{clip-path:url(#SVGID_2_);}
	.st6{fill:none;stroke:#1F4D69;stroke-width:12.8484;stroke-linecap:round;stroke-miterlimit:10;}
	.st7{fill:none;stroke:#1F4D69;stroke-width:6;stroke-linecap:round;stroke-miterlimit:10;}
	.st8{fill:#FFFFFF;}
	.st9{fill:#E0DFE6;}
	.st10{fill:none;stroke:#1F4D69;stroke-width:6;stroke-miterlimit:10;}
	.st11{fill:none;stroke:#04A7DB;stroke-width:4.3745;stroke-miterlimit:10;}
</style>
<g id="Capa_2">
	<g id="XMLID_1089_">
		<rect id="XMLID_391_" x="185" y="-242.8" class="st0" width="915.1" height="1290.5"/>
		<line id="XMLID_520_" class="st1" x1="515.1" y1="-64.9" x2="515.1" y2="87.1"/>
		<line id="XMLID_519_" class="st1" x1="515.1" y1="11.1" x2="614" y2="11.1"/>
		<text id="XMLID_2_" transform="matrix(1 0 0 1 531.2462 -106.7833)" class="st2 st3 st4"> </text>
		<line id="XMLID_517_" class="st1" x1="515.1" y1="307.1" x2="515.1" y2="459.1"/>
		<line id="XMLID_516_" class="st1" x1="515.1" y1="383.1" x2="614" y2="383.1"/>
		<line id="XMLID_514_" class="st1" x1="515.1" y1="704.2" x2="515.1" y2="856.2"/>
		<line id="XMLID_513_" class="st1" x1="515.1" y1="780.2" x2="614" y2="780.2"/>
		<line id="XMLID_488_" class="st1" x1="215.5" y1="146.5" x2="314.4" y2="146.5"/>
		<line id="XMLID_486_" class="st1" x1="215.5" y1="430.8" x2="314.4" y2="430.8"/>
		<line id="XMLID_388_" class="st1" x1="215.5" y1="825.2" x2="314.4" y2="825.2"/>
		<g id="XMLID_761_">
			<g>
				<defs>
					<circle id="SVGID_1_" cx="337.5" cy="-82.3" r="128.9"/>
				</defs>
				<clipPath id="SVGID_2_">
					<use xlink:href="#SVGID_1_"  style="overflow:visible;"/>
				</clipPath>
				<g id="XMLID_697_" class="st5">
					<path id="XMLID_774_" class="st6" d="M389.2,275.7c0,0-18.4-82.5-14.8-182.6"/>
					<path id="XMLID_773_" class="st6" d="M329.4,280.6c0,0-13-91-14.8-182.6"/>
					<path id="XMLID_772_" class="st7" d="M297.3-56.8c11.4-3.7-66.5,26.4-60.6,156.2"/>
					<path id="XMLID_771_" class="st7" d="M366.4-59.9c-11.7-2.6,68.4,14.6,74.6,150"/>
					<g id="XMLID_766_">
						<path id="XMLID_769_" class="st8" d="M365.7-68.1c10.6,16.9,26,23.3,39.5,69.4c5.3,18.2,7.1,34.9,2.9,62.5
							c-1.5,9.9-23.2,28-47.4,33.2c-12.7,2.7-28,2.1-49.3,0.1c-7.7-0.7-38.8-5.7-42-28.4c-2.4-17.3-9.2-35.3-2.9-62.5
							c5.4-23,11.9-34,38.4-75.9c26.3-41.7,24.1-40.9,24.1-40.9S354.8-85.5,365.7-68.1z"/>
						<path id="XMLID_768_" class="st9" d="M283.8-29.4c4-9.4,9.7-18,13.5-27.4c2-4.9,4.8-12.2,10.5-14.2c1-0.9,2.2-1.6,3.4-2
							c-1.4-0.6-2.9-1.2-4.3-1.9c-1.6-0.8-3.2-1.7-4.8-2.6c9.3,2,18.6,3.7,26.7,8.9c-1.1-0.1-2.1-0.2-3.2-0.4
							c2.2,2.3,3.7,5.3,3.8,8.9c0.4,9.8-4.5,18.7-9.4,27.1c-8.2,13.9-14,25.6-15.2,41.9c-1.1,13.9,1.1,28.7,5,42.1
							c3.1,10.4,13.6,16.4,16.1,26.9c2.6,10.8-6.8,11.5-15.7,9.9c-2.1,0.7-4.6,0.3-5.8-1.4c-2.6-0.8-4.9-1.6-6.4-2.2
							c-18.1-7.5-24.8-22.2-26.8-40.2C268.2,18.8,273.7-6.1,283.8-29.4z"/>
						<path id="XMLID_767_" class="st10" d="M367.8-68.2c10.6,16.9,26,23.3,39.5,69.4c5.3,18.2,7.1,34.9,2.9,62.5
							c-1.5,9.9-23.2,28-47.4,33.2c-12.7,2.7-28,2.1-49.3,0.1c-7.7-0.7-38.8-5.7-42-28.4c-2.4-17.3-9.2-35.3-2.9-62.5
							c5.4-23,11.9-34,38.4-75.9c26.3-41.7,24.1-40.9,24.1-40.9S357-85.6,367.8-68.2z"/>
					</g>
					<circle id="XMLID_765_" class="st8" cx="333.1" cy="-131.1" r="57.8"/>
					<path id="XMLID_763_" class="st9" d="M328.7-74c-5.5-1.6-11.1-3.1-16.5-5.1c0.3-0.1,0.6-0.3,0.9-0.4c-1.4-0.6-2.9-1.2-4.3-1.9
						c-16.8-8.3-36.5-28.4-28.2-47.6c9-21,29.8,6.6,36.5,13.8c7.3,7.9,17.9,12,28.4,12.3c2.3-1.3,4.5-1.2,6.3-0.3
						c11.9-1.4,22.8-7.9,27.6-19.6c2.1-5.1,8.8-2.7,9.8,1.7c4.2-2.3,10.2,2.2,7.4,6.8c-1.1,1.8-2.3,3.7-3.6,5.5
						c-0.7,4.9-4,9.1-7.7,12.5c-1.1,1.1-2.5,1.5-3.7,1.5c-0.1,1.1-0.5,2.1-1.4,2.9c-15.2,12.8-33.9,19.1-52.5,16.3
						C327.9-75,328.3-74.5,328.7-74z"/>
					<circle id="XMLID_762_" class="st10" cx="335.3" cy="-131.2" r="57.8"/>
				</g>
			</g>
		</g>
		<circle id="XMLID_440_" class="st11" cx="336.5" cy="-83.3" r="128.9"/>
	</g>
</g>
</svg>
