<?xml version="1.0" encoding="utf-8"?>
<!-- Generator: Adobe Illustrator 19.0.0, SVG Export Plug-In . SVG Version: 6.00 Build 0)  -->
<svg version="1.1" id="Capa_1" xmlns="http://www.w3.org/2000/svg" xmlns:xlink="http://www.w3.org/1999/xlink" x="0px" y="0px"
	 viewBox="32 232.3 1024 96.7" style="enable-background:new 32 232.3 1024 96.7;" xml:space="preserve">
<style type="text/css">
	.st0{fill:#0D004C;}
	.st1{fill:#04A7DB;}
	.st2{fill:none;stroke:#384E9A;stroke-miterlimit:10;}
	.st3{fill:#00478C;}
	.st4{fill:#896BFC;}
	.st5{fill:#FA8510;}
	.st6{fill:#87D329;}
	.st7{fill:#E41E5D;}
</style>
<g id="Capa_1_1_">
</g>
<g id="Capa_2">
</g>
<rect id="XMLID_434_" x="30.1" y="305.4" class="st0" width="1027.8" height="24"/>
<polygon id="XMLID_513_" class="st1" points="842.2,232.3 842.2,300.4 381.2,300.4 349.9,232.3 "/>
<g id="XMLID_800_">
	<line id="XMLID_721_" class="st2" x1="96.8" y1="246.5" x2="96.8" y2="294.2"/>
	<path id="XMLID_796_" class="st3" d="M142.1,246.5h2.3v2h-2.3V246.5z M142.1,249.5h2.3v8.3h-2.3V249.5z"/>
	<path id="XMLID_718_" class="st3" d="M147.8,249.5v1l0,0c0.2-0.6,0.9-1.3,1.6-1.3c1.1,0,2.1,0.6,2.1,1.7v6.8h-2.3v-5.9
		c0-0.4-0.2-0.7-0.6-0.7c-0.4,0-0.6,0.3-0.6,0.7v5.9h-2.3v-8.3L147.8,249.5L147.8,249.5z"/>
	<path id="XMLID_792_" class="st3" d="M152.7,246.5h2.3v2h-2.3V246.5z M152.7,249.5h2.3v8.3h-2.3V249.5z"/>
	<path id="XMLID_715_" class="st3" d="M160,252.5v-0.1c0-0.3,0-0.6-0.1-0.9c-0.1-0.3-0.3-0.5-0.6-0.5c-0.6,0-0.7,0.5-0.7,1v3.4
		c0,0.5,0.1,1,0.8,1c0.9,0,0.7-1.3,0.7-1.9h2.3c0,0.5-0.1,1.5-0.2,2c-0.3,1-1.2,1.5-2.2,1.6c-0.2,0-0.4,0-0.8,0
		c-1.7,0-2.9-0.7-2.9-2.6v-3.4c0-2.1,1.1-2.8,2.9-2.8c2.3,0,3.2,1,3.1,3.3H160V252.5z"/>
	<path id="XMLID_788_" class="st3" d="M163.3,246.5h2.3v2h-2.3V246.5z M163.3,249.5h2.3v8.3h-2.3V249.5z"/>
	<path id="XMLID_785_" class="st3" d="M170.6,257c-0.6,0.6-1.1,1-2,1c-1.3,0-2.2-0.9-2.2-2.2c0-1.9,1-2.5,2.1-2.8c1-0.3,2-0.4,2-1.3
		c0-0.5-0.3-0.9-0.7-0.9c-0.9,0-0.9,0.6-0.9,1.3h-2.3c-0.1-2.1,1.3-2.8,3.2-2.8c2.3,0,3.2,0.7,3.2,2.5v5.1c0,0.3,0.1,0.6,0.2,0.9
		h-2.3L170.6,257z M170.5,253.5c-0.5,0.3-0.9,0.4-1.2,0.6s-0.5,0.5-0.5,1.1c0,0.5,0.3,0.9,0.9,0.9c0.7,0,0.8-0.7,0.9-1.3
		L170.5,253.5L170.5,253.5z"/>
	<path id="XMLID_710_" class="st3" d="M173.2,251v-1.7h0.9v-2.4h2.3v2.4h1.1v1.7h-1.1v4.4c0,0.5,0.2,0.6,0.5,0.6s0.4,0,0.6,0v1.7
		c-0.5,0.1-1,0.1-1.5,0.1c-1.3,0-2-0.6-2-1.9v-4.7h-0.8V251z"/>
	<path id="XMLID_781_" class="st3" d="M178.4,246.5h2.3v2h-2.3V246.5z M178.4,249.5h2.3v8.3h-2.3V249.5z"/>
	<polygon id="XMLID_707_" class="st3" points="184.4,254.8 184.5,254.8 185.3,249.5 187.6,249.5 185.8,257.7 183.1,257.7 
		181.3,249.5 183.7,249.5 	"/>
	<path id="XMLID_777_" class="st3" d="M191.8,257c-0.6,0.6-1.1,1-2,1c-1.3,0-2.2-0.9-2.2-2.2c0-1.9,1-2.5,2.1-2.8c1-0.3,2-0.4,2-1.3
		c0-0.5-0.3-0.9-0.7-0.9c-0.9,0-0.9,0.6-0.9,1.3h-2.3c-0.1-2.1,1.3-2.8,3.2-2.8c2.3,0,3.2,0.7,3.2,2.5v5.1c0,0.3,0.1,0.6,0.2,0.9
		h-2.3L191.8,257z M191.7,253.5c-0.5,0.3-0.9,0.4-1.2,0.6s-0.5,0.5-0.5,1.1c0,0.5,0.3,0.9,0.9,0.9c0.7,0,0.8-0.7,0.9-1.3
		L191.7,253.5L191.7,253.5z"/>
	<path id="XMLID_774_" class="st3" d="M200.3,249.5v1l0,0c0.5-0.8,1.1-1.2,1.9-1.2c1.6,0,2,1.5,2,2.8v2.9c0,1.4-0.3,3-2.1,3.1
		c-0.4,0-1.2-0.2-1.7-1l0,0v3.6h-2.3v-11.1L200.3,249.5L200.3,249.5z M201.9,252.5c0-0.5,0-1.4-0.7-1.4c-0.6,0-0.8,0.7-0.8,1.5v1.9
		c0,0.7,0.1,1.5,0.7,1.5c0.8,0,0.7-0.9,0.7-1.4v-2.1H201.9z"/>
	<path id="XMLID_771_" class="st3" d="M205,252c0-2.1,1.3-2.8,3.1-2.8c2.1,0,3.1,1,3.1,2.8v3.4c-0.1,1.9-1.3,2.6-3.1,2.6
		c-1.7,0-3.1-0.7-3.1-2.6V252z M207.4,255.5c0,0.5,0.2,0.7,0.7,0.7s0.7-0.3,0.7-0.7v-3.7c0-0.5-0.2-1-0.7-1s-0.7,0.4-0.7,1V255.5z"
		/>
	<path id="XMLID_700_" class="st3" d="M214.1,249.5v1.3l0,0c0.3-0.9,0.8-1.5,1.8-1.5v2.7c-0.2,0-0.5-0.1-0.7-0.1
		c-0.7,0-0.9,0.1-1,0.8v5.1h-2.3v-8.3H214.1z"/>
	<rect id="XMLID_699_" x="219.9" y="246.5" class="st3" width="2.3" height="11.1"/>
	<path id="XMLID_766_" class="st3" d="M223.3,252c0-2.1,1.3-2.8,3.1-2.8c2.1,0,3.1,1,3.1,2.8v3.4c-0.1,1.9-1.3,2.6-3.1,2.6
		c-1.7,0-3.1-0.7-3.1-2.6V252z M225.7,255.5c0,0.5,0.2,0.7,0.7,0.7s0.7-0.3,0.7-0.7v-3.7c0-0.5-0.2-1-0.7-1s-0.7,0.4-0.7,1V255.5z"
		/>
	<path id="XMLID_696_" class="st3" d="M233.7,251.8c-0.1-0.6,0-1.1-0.8-1.1c-0.5,0-0.8,0.2-0.8,0.7c0,0.4,0.4,0.7,0.7,0.8
		c1.5,0.7,3.2,1.1,3.2,3.1c0,1.8-1.4,2.6-3.1,2.6c-1.9,0-3.2-0.8-3.1-2.8h2.2c0,0.6,0.1,1.2,0.8,1.2c0.5,0,0.8-0.3,0.8-0.8
		c0-0.3-0.1-0.5-0.3-0.6c-0.9-0.5-2.3-0.9-3-1.7c-0.4-0.5-0.6-0.9-0.6-1.6c0-1.8,1.4-2.6,3.1-2.6c1.7,0,3.1,0.9,3,2.7L233.7,251.8
		L233.7,251.8z"/>
	<path id="XMLID_695_" class="st1" d="M110.1,283.4v3.8c0,1.1,0.5,1.6,1.4,1.5c1,0,1.4-0.2,1.4-1.1v-24.4h7.1v21
		c0,2.1,0.1,4.5-0.9,6.5c-1.5,2.8-4.1,3.4-7.2,3.4c-3.4,0-6.3-1.6-7.1-5c-0.4-1.4-0.3-2.7-0.3-4.1v-1.8h5.6V283.4z"/>
	<path id="XMLID_760_" class="st1" d="M141.5,283.7c0,6.8-2.4,10.3-9.5,10.3s-9.6-3.5-9.6-10.3v-12.3c0-5.8,3.5-9,9.6-9
		c6.2,0,9.5,3.2,9.5,9V283.7z M140.2,254.3l-6.9,5.9h-5.5l4-5.9H140.2L140.2,254.3z M134.5,272c0-1.8-0.2-4.1-2.5-4.1
		c-2.2,0-2.5,2.2-2.5,4.1v12.3c0,1.7,0.3,4.3,2.6,4.3s2.4-2.6,2.4-4.3V272z"/>
	<polygon id="XMLID_691_" class="st1" points="148.9,293.4 142.3,263.2 149.4,263.2 153,284.4 153.1,284.4 156.7,263.2 163.8,263.2 
		157.2,293.4 	"/>
	<polygon id="XMLID_690_" class="st1" points="164.9,293.4 164.9,263.2 181,263.2 181,269.2 171.9,269.2 171.9,274.9 180.8,274.9 
		180.8,280.9 171.9,280.9 171.9,287.4 181.5,287.4 181.5,293.4 	"/>
	<polygon id="XMLID_689_" class="st1" points="189.8,276.5 189.7,276.7 190.3,293.4 183.6,293.4 183.6,263.2 190.9,263.2 
		196.3,280.2 196.5,280.2 195.8,263.2 202.5,263.2 202.5,293.4 195.3,293.4 	"/>
	<polygon id="XMLID_688_" class="st1" points="204.9,293.4 204.9,263.2 221,263.2 221,269.2 211.9,269.2 211.9,274.9 220.8,274.9 
		220.8,280.9 211.9,280.9 211.9,287.4 221.5,287.4 221.5,293.4 	"/>
	<path id="XMLID_687_" class="st1" d="M229.1,283.4v2.1c0,1.7,0.6,3.3,2.8,3.3c1.6,0,2.4-1.5,2.4-3c0-2.5-2.1-3.5-3.9-4.6
		c-2.2-1.2-4-2.4-5.3-3.9s-2-3.4-2-6c0-5.7,3.4-8.6,8.9-8.6c6.1,0,9.3,4.1,9,9.8h-6.5c-0.1-1.8,0-4.2-2.3-4.3
		c-1.4-0.1-2.3,0.7-2.5,2c-0.2,1.8,0.7,2.7,2.1,3.7c2.7,1.7,4.9,2.7,6.6,4.3c1.6,1.5,2.6,3.5,2.6,7.2c0,5.8-3.2,9-9.1,9
		c-6.5,0-9.2-3.6-9.2-7.6v-3.4H229.1z"/>
	<path id="XMLID_723_" class="st3" d="M51,282.5c-0.1,0.1-0.2,0.3-0.2,0.5v7.2l0,0c0,0-4-7.1-4.1-7.4c-0.1-0.2-0.3-0.4-0.5-0.5
		c-0.2-0.1-0.4-0.2-0.8-0.2h-1.3c-0.3,0-0.5,0.1-0.6,0.3c-0.1,0.1-0.2,0.3-0.2,0.5v10.4c0,0.3,0.1,0.4,0.2,0.5
		c0.1,0.2,0.3,0.3,0.6,0.3h0.7c0.3,0,0.5-0.1,0.6-0.3c0.1-0.1,0.2-0.3,0.2-0.5v-7.4l0,0c0,0,4.1,7.3,4.3,7.5
		c0.2,0.4,0.6,0.7,1.2,0.7h1.3c0.3,0,0.5-0.1,0.6-0.3c0.1-0.1,0.2-0.3,0.2-0.5v-9.1h16.6c0.2,0,0.3,0,0.4-0.1
		c0.1-0.1,0.2-0.2,0.2-0.4V283c0-0.2,0-0.3-0.2-0.4c-0.1-0.1-0.2-0.1-0.4-0.1H51.7C51.4,282.2,51.2,282.5,51,282.5 M80.4,258.5
		c-3-4.4-5.6-5.9-6.3-6.6c-0.8-0.8-1.4-1.6-1.8-2.1c-0.9-0.9-2-2.1-3.8-2.1s-3,1.2-3.3,2.2c-0.1,0.3-0.2,0.6-0.3,0.8
		c-0.2,0.3-1,1.6-1.3,2.2h1.5l-0.7,1.4c0.8-0.2,1.4-0.3,2.2-0.3c0.7,0,1.2,0.2,1.4,0.6c0.4,0.8,0.4,3.3,1.1,5.2
		c0.7,1.8,2.2,3.5,4,4.8c0,0,0,0,0.1,0s0.1-0.1,0.1-0.1s0-0.1-0.1-0.1c-1.5-1.5-2.7-3.2-3.4-5c-0.6-1.8-0.5-4.3-1.1-5.4
		c-0.4-0.7-1.2-0.9-1.9-0.9c-0.6,0-1.1,0.1-1.4,0.2l0.6-1.1h-1.1c0.2-0.4,0.5-0.8,0.6-1s0.1-0.4,0.3-0.8c0.4-1,1.3-1.7,2.5-1.7
		c1.5,0,2.4,1,3.2,1.9c0.4,0.4,1.1,1.4,1.8,2.1c0.5,0.5,1.5,1,3,2.6c0.9,0.9,1.9,2.1,3,3.7c3.8,5.6,6.4,10.6,7.8,14.5l0,0
		c-4-2.7-7.5-5.3-10.3-8.5c-2-2.3-3.7-4.9-5.2-8.2c-0.1-0.2-0.2-0.4-0.3-0.6c0-0.1-0.1-0.1-0.1-0.1c-0.1,0-0.1,0.1-0.1,0.1
		c0,0.1,0,0.3,0.1,0.7c0.8,3.5,3,6.6,5.4,9.2c2.4,2.6,5.1,4.8,7.3,6.4l1.7,4.9c0,0.1,0.1,0.2,0.1,0.4c0,0.1,0,0.2-0.1,0.2
		c0,0-0.1,0.1-0.3,0.1h-0.5c-0.2,0-0.3,0-0.4-0.1c-0.1-0.1-0.1-0.2-0.2-0.3c-0.2-0.5-1.1-3-1.2-3.6c0-0.1-0.1-0.1-0.2-0.1
		s-0.1,0.1-0.1,0.1c0,0.1,0,0.1,0.1,0.4c0.2,1.2,0.5,2.5,0.6,3c0,0.2,0.1,0.4,0.1,0.6c0,0.1,0,0.2-0.2,0.3l-0.5,0.5
		c-0.1,0.1-0.2,0.2-0.3,0.2s-0.2-0.1-0.3-0.3c-0.6-2.8-1.5-6.3-1.8-7.3c-0.1-0.2-0.1-0.3-0.2-0.3s-0.2,0.1-0.2,0.2
		c0,0.1,0,0.2,0,0.2c0.1,1,0.7,4.7,1.4,8c0.1,0.6,0.3,0.9,0.8,0.9c0.2,0,0.4-0.1,0.6-0.3c0.3-0.3,0.4-0.4,0.8-0.8
		c0.3-0.3,0.5-0.4,0.9-0.4h1.2c0.3,0,0.4-0.1,0.6-0.2c0.1-0.1,0.2-0.3,0.2-0.5s-0.1-0.4-0.2-0.7c-0.3-0.8-1.3-3.6-1.6-4.3l0,0
		c1,0.8,2.4,1.7,3.1,1.7c0.2,0,0.3-0.1,0.3-0.4C88.4,272.7,86,266.7,80.4,258.5 M58.3,285.2c-2.8,0-4.3,2.2-4.3,4.4
		c0,2.4,1.7,4.6,4.3,4.6c1.3,0,2.6-0.5,3.4-1.4c0.3-0.4,0.6-0.9,0.6-1.2c0-0.1,0-0.2-0.1-0.3s-0.2-0.1-0.3-0.1h-1.3
		c-0.3,0-0.4,0.1-0.6,0.3c-0.4,0.5-0.9,0.8-1.7,0.8c-1.2,0-2-0.9-2-1.9h5.5c0.2,0,0.4-0.1,0.5-0.2c0.1-0.1,0.2-0.3,0.2-0.7
		c0-1-0.3-2.1-1-3C60.9,285.9,59.8,285.2,58.3,285.2 M66.8,285.2c-2.2,0-3.6,1-3.6,2.7c0,0.6,0.2,1.1,0.6,1.4c0.4,0.4,1,0.7,1.8,1
		l1.8,0.5c0.5,0.1,0.9,0.3,0.9,0.7c0,0.7-0.7,0.9-1.5,0.9c-0.4,0-0.8-0.1-1.1-0.2c-0.2-0.1-0.4-0.3-0.5-0.5s-0.2-0.3-0.3-0.4
		c-0.1-0.1-0.2-0.1-0.4-0.1h-1c-0.2,0-0.3,0.1-0.4,0.2c-0.1,0.1-0.1,0.2-0.1,0.3c0,0.3,0.1,0.7,0.4,1.1c0.6,0.8,1.9,1.5,3.5,1.5
		s3.8-0.7,3.8-2.8c0-0.5-0.2-1-0.5-1.4c-0.4-0.5-0.9-0.8-1.8-1.1l-1.8-0.5c-0.7-0.2-1.1-0.3-1.1-0.8c0-0.4,0.4-0.8,1.3-0.8
		c0.5,0,1,0.1,1.4,0.5c0.3,0.3,0.2,0.4,0.4,0.5c0.1,0.1,0.3,0.1,0.5,0.1H70c0.1,0,0.2,0,0.3-0.1c0.1-0.1,0.1-0.2,0.1-0.4
		c0-0.4-0.3-0.9-0.7-1.4C69.1,285.7,68.1,285.2,66.8,285.2 M53.1,249c0.2-0.4,0.5-0.6,1-0.6c0.6,0,1.1,0.5,1.1,1.1
		c0,0.4-0.2,0.7-0.4,0.9c0.1,0.2,0.1,0.4,0.1,0.6c0,0.7-0.4,1.1-1.1,1.4c-0.1,0.4-0.3,0.8-0.6,1c-0.5,0.5-1,0.5-1,0.7
		c0,0.1,0.1,0.2,0.3,0.2c0.9,0,1.8-0.5,1.9-1.3c0.8-0.3,1.4-1.1,1.4-1.8c0-0.2,0-0.3-0.1-0.5c0.2-0.2,0.5-0.6,0.5-1.2
		c0-0.5-0.2-1-0.6-1.4c-0.3-0.3-0.8-0.5-1.4-0.5c-0.8,0-1.3,0.4-1.6,0.9c-0.9,0-2,1-2,2.3h-0.1c-0.1-0.5-0.6-0.8-1-0.8
		c-0.3-1-1.1-1.9-2.3-1.9c-0.1,0-0.3,0-0.5,0c-0.4-0.3-0.8-0.5-1.3-0.5c-1.1,0-2,0.9-2,2c0,0.7,0.3,1.2,0.9,1.6v0.1
		c0,0.9,1,2.2,2.4,2.2c0,0.2,0.3,0.5,0.6,0.6v0.1h-0.1c-2,0-2.8,0.9-2.8,1.6c-0.6,0.2-1,0.9-1,1.5c0,1.2,0.9,2,2,2
		c0.4,0,0.8-0.2,1-0.4c0.2,0.1,0.5,0.1,0.7,0.1c0.5,0,1.2-0.2,1.6-0.8c0.1,0,0.1,0,0.2,0c0.7,0,1.3-0.5,1.6-1.1
		c0.1-0.2,0.1-0.3,0.1-0.4c0-0.1,0-0.2-0.1-0.2s-0.1,0.1-0.3,0.3c-0.4,0.4-1.1,0.6-1.8,0.6c-0.3,0.5-0.8,0.8-1.3,0.8
		c-0.4,0-0.6-0.1-0.9-0.3c-0.2,0.3-0.5,0.4-0.8,0.4c-0.6,0-1.1-0.4-1.1-1.1c0-0.4,0.3-0.8,0.7-1c0.1-0.8,0.9-1.3,2-1.3
		c0.1,0,0.3,0,0.4,0c0.2-0.3,0.5-0.5,1.1-0.6c0.1,0,0.2,0,0.3-0.1c0.1,0,0.1-0.1,0.1-0.2s0-0.1-0.1-0.2c-0.1,0-0.2,0-0.3-0.1
		c-0.5-0.1-1.1-0.4-1.4-1.2c-1.2,0-2.1-1-2.1-2v-0.1c-0.4-0.2-0.7-0.5-0.7-1c0-0.6,0.5-1.1,1.1-1.1c0.4,0,0.7,0.2,0.9,0.4
		c0.2,0,0.4-0.1,0.5-0.1c0.9,0,1.8,0.6,2,1.7c1.1,0.1,1.4,1.1,1.5,1.5c0,0.2,0.1,0.4,0.2,0.4c0.1,0,0.2-0.2,0.2-0.4
		c0.1-0.4,0.2-0.7,0.5-1C51.2,250,52,249,53.1,249 M71.8,285.7h-0.4c-0.2,0-0.3,0-0.4,0.1c-0.1,0.1-0.2,0.2-0.2,0.4v0.5
		c0,0.2,0,0.3,0.2,0.4c0.1,0.1,0.2,0.1,0.4,0.1h0.4v4c0,1,0.3,1.7,0.8,2.2s1.1,0.8,2.2,0.8h0.7c0.2,0,0.3,0,0.4-0.1
		c0.1-0.1,0.2-0.2,0.2-0.4V293c0-0.2-0.1-0.3-0.2-0.4c-0.1-0.1-0.2-0.1-0.4-0.1h-0.1c-0.4,0-0.7-0.1-0.9-0.3c-0.2-0.2-0.4-0.6-0.4-1
		v-3.8h1.4c0.2,0,0.3,0,0.4-0.1c0.1-0.1,0.2-0.2,0.2-0.4v-0.5c0-0.2,0-0.3-0.2-0.4c-0.1-0.1-0.2-0.1-0.4-0.1h-1.4v-2.7
		c0-0.2-0.1-0.4-0.2-0.5c-0.1-0.1-0.3-0.2-0.5-0.2h-0.9c-0.2,0-0.4,0.1-0.5,0.2c-0.1,0.1-0.2,0.3-0.2,0.5
		C71.8,283.2,71.8,285.7,71.8,285.7z M76.7,293.5c0,0.2,0.1,0.4,0.2,0.5c0.1,0.1,0.3,0.2,0.5,0.2h0.9c0.2,0,0.4-0.1,0.5-0.2
		c0.1-0.1,0.2-0.3,0.2-0.5v-10.4c0-0.2-0.1-0.4-0.2-0.5c-0.1-0.1-0.3-0.2-0.5-0.2h-0.9c-0.2,0-0.4,0.1-0.5,0.2
		c-0.1,0.1-0.2,0.3-0.2,0.5V293.5z M55.4,255.5c-0.4,0.5-0.6,0.8-1.5,1.8c-1.1,1.3-1.7,2.4-2.7,4.8c0.2,0,0.4,0,0.6,0
		c0.1,0,0.2,0,0.4,0l0.1-0.3c0.5-1.2,1.3-2.8,2.3-4l0.4-0.4c1.1-1.2,1.7-2,2.1-3.7c0.1-0.6,0.3-1.1,0.7-1.5s0.8-0.5,1.3-0.5
		c0.4,0,0.7,0.1,1.1,0.3s0.5,0.2,0.9,0.2c0.1,0,0.2,0,0.3,0l-0.6,0.7l0.8,0.5c-0.9,0.3-1.4,1.2-1.6,1.6c0,0.1,0,0.1,0,0.2
		s0,0.1,0.1,0.1s0.2-0.1,0.3-0.2c0.5-0.6,0.8-0.9,2.5-1.5l-1.2-0.9l0.9-1.3h-0.9c-0.5,0-0.9,0-1.4-0.2c-0.6-0.3-1-0.4-1.5-0.4
		c-0.7,0-1.3,0.2-1.8,0.7c-0.6,0.5-0.8,1.3-1,2.1C56.1,254,55.9,254.8,55.4,255.5 M57.2,260.9c-0.5,0.6-1.1,1.4-1.6,2.3
		c0.2,0.1,0.7,0.3,0.8,0.4c0.5-0.8,1.3-1.8,1.8-2.6c0.5-0.7,0.6-1,0.7-1.9c0-0.2,0-0.3,0-0.5c0-0.5,0.2-1,0.6-1.4
		c0.3-0.3,0.8-0.5,1.3-0.5s0.8,0.1,1.2,0.1c0.3,0,0.5-0.1,0.7-0.1l0.2-0.1l-0.4,0.9l0.9,0.3c-0.5,0.3-1.8,1.8-1.8,3.6
		c0,0.6,0.1,1.2,0.2,1.7c0,0.1,0,0.1,0.1,0.1s0.1,0,0.1-0.1v-0.2c0-0.5,0.1-1.4,0.3-2.1c0.4-1.3,1.3-2.5,2.3-3l-1.4-0.6l0.6-1.4
		l-0.6,0.1c-0.4,0.1-0.7,0.2-1,0.2c-0.2,0-0.5,0-0.8-0.1c-0.2-0.1-0.5-0.1-0.8-0.1c-0.6,0-1.3,0.2-1.8,0.7c-0.8,0.8-0.9,1.7-0.9,2.4
		C58,259.9,57.8,260.2,57.2,260.9 M77.7,261.4c-0.1-0.1-0.1-0.1-0.2-0.1s-0.1,0.1-0.1,0.1c0,0.1,0.1,0.2,0.3,0.6
		c0.6,1,1.4,2.1,2.3,3c1,1.1,2.2,2,3.4,2.9l0.4,0.3c0.1,0,0.1,0.1,0.1,0.1c0.1,0,0.1-0.1,0.1-0.1s0-0.1-0.1-0.1
		c-1.2-1.1-2.4-2.3-3.6-3.6C79.4,263.5,78.5,262.4,77.7,261.4 M56.3,288.7c0.1-1,0.9-1.7,2-1.7s1.9,0.7,2,1.7H56.3z M52.1,257.7
		c0.1-0.2,0.5-0.7,0.6-0.8c-0.6-1.2-1.6-2.4-2.1-2.9l-0.4,0.4C50.7,255,51.4,256,52.1,257.7 M46.2,250.5c-0.1-0.1-0.1-0.1-0.1-0.2
		s0-0.1,0.1-0.1h0.1c0.6,0.2,1.1,0.5,1.5,0.9c0.4,0.3,0.7,0.6,1.1,1.1l-0.3,0.4C48.2,252.3,46.9,251,46.2,250.5 M51.9,253.3
		l-0.4-0.3c0.3-0.7,0.6-1.3,1-1.7c0.3-0.3,0.6-0.6,0.9-0.9c0.1-0.1,0.1-0.1,0.2-0.1c0.1,0,0.1,0.1,0.1,0.1v0.1
		C53.1,251.3,52.2,252.8,51.9,253.3 M46.5,257c-0.1,0-0.2,0.1-0.2,0.1c-0.1,0-0.1-0.1-0.1-0.1c0-0.1,0-0.1,0.1-0.1
		c1-0.8,1.8-1.1,3-1.3l0.1,0.5L46.5,257z M66.9,250.8c0-0.3,0.1-0.8,0.7-0.8c0.2,0,0.3,0,0.5,0.1s0.3,0.2,0.3,0.4
		c0,0.1-0.1,0.3-0.4,0.5c-0.2,0.2-0.5,0.4-0.7,0.4C67,251.3,66.9,251,66.9,250.8 M58.8,253c0-0.3,0.2-0.7,0.6-0.7
		c0.2,0,0.4,0.1,0.5,0.2s0.1,0.2,0.1,0.3c0,0.2-0.2,0.4-0.4,0.5s-0.3,0.2-0.5,0.2C58.9,253.5,58.8,253.3,58.8,253 M60.7,258
		c0-0.1,0-0.2,0-0.3c0.1-0.2,0.2-0.4,0.5-0.4c0.2,0,0.3,0,0.5,0.1c0.1,0.1,0.2,0.2,0.2,0.3c0,0.3-0.6,0.7-0.9,0.7
		C60.8,258.5,60.7,258.2,60.7,258 M87.6,284c0.2,0,0.3,0,0.4-0.1c0.1-0.1,0.2-0.2,0.2-0.4v-0.7c0-0.3-0.1-0.4-0.2-0.5
		c-0.1-0.1-0.2-0.2-0.4-0.2c-0.1,0-0.3,0-0.5,0l-6.4,0.6c-0.2,0-0.3,0.1-0.3,0.1c-0.1,0.1-0.1,0.2-0.1,0.3v0.4c0,0.2,0,0.2,0.1,0.3
		s0.2,0.1,0.3,0.1h6.9V284z M84.1,285.2c-2.8,0-4.3,2.2-4.3,4.4c0,2.4,1.7,4.6,4.3,4.6c1.3,0,2.6-0.5,3.4-1.4
		c0.3-0.4,0.6-0.9,0.6-1.2c0-0.1,0-0.2-0.1-0.3s-0.2-0.1-0.3-0.1h-1.3c-0.3,0-0.4,0.1-0.6,0.3c-0.4,0.5-0.9,0.8-1.7,0.8
		c-1.2,0-2-0.9-2-1.9h5.6c0.2,0,0.4-0.1,0.5-0.2c0.1-0.1,0.2-0.3,0.2-0.7c0-1-0.3-2.1-1-3C86.7,285.9,85.6,285.2,84.1,285.2
		 M82.1,288.7c0.1-1,0.9-1.7,2-1.7s1.9,0.7,2,1.7H82.1z M57.5,268c-1.1,0-1.6-0.5-1.6-1.2c0-1.1,2-2.2,3.8-2.9l0.5,0.6
		c-1.1,0.4-3.3,1.4-3.3,2.2c0,0.3,0.2,0.5,0.8,0.5c1.2,0,2.4-0.6,3.6-1.1c0.1,0,0.2-0.1,0.3-0.1c0.2,0,0.2,0,0.4,0.2l0.2,0.3
		C60.8,267.2,59.1,268,57.5,268 M60.5,268.4c-1.1,0.6-2.1,1-3.1,1c-1.1,0-2-0.5-2.8-1.7c-0.3-0.5-0.6-1.1-0.9-1.7
		c-0.4-0.7-0.8-1-1.5-1s-1.3,0.3-2,0.6v0.2c0.1,0.2,0.2,0.4,0.4,0.4c0.1,0,0.2,0,0.3-0.1c0.4-0.1,0.7-0.2,1.1-0.2
		c0.6,0,0.9,0.4,1.3,1.2l0.2,0.3c-0.4,0.1-1.4,0.2-2.1,0.2h-0.3l0.1,0.3c0,0.1,0.1,0.3,0.2,0.3c0.1,0.1,0.4,0.1,0.7,0.1
		c0.9,0,1.6-0.1,2-0.2c1,1.5,2.3,2,3.6,2c1.1,0,2.2-0.4,3.3-1L60.5,268.4z M61.6,268.7l-0.2-0.7c1.6-0.9,3.1-1.6,5.5-1.8
		c0,0.9,0,2.1,0.7,2.1c0.6,0,2-1.6,3.5-3.6c0.1,0.1,0.4,0.3,0.6,0.4l-0.4,0.5c-1.5,2-2.8,3.6-3.9,3.6c-1,0-1.4-1.2-1.4-2
		C64.5,267.2,63.1,267.7,61.6,268.7 M82.6,252.5c-0.6,0-0.8-0.3-0.8-0.8c0-1,0.6-2.4,1-3.3h-1c-0.5,1-2.5,4.1-3.5,5.4l0.6,0.7
		c0.6-0.6,1.2-1.7,1.9-2.8h0.1c0,0.1,0,0.1,0,0.2c0,0.9,0.5,1.6,1.6,1.6c0.7,0,1.8-0.3,2.8-0.7c0.9-0.3,1.6-0.6,2-0.7v-1
		c-0.4,0.1-1.4,0.5-2.3,0.8C84.2,252.3,83.2,252.5,82.6,252.5 M84.8,255.5c1-0.4,2.7-1.1,3.7-1.4v-1c-2,0.7-5.5,2.2-7.8,3.5
		c0.1,0.1,0.5,0.7,0.5,0.7c1-0.4,1.9-0.7,2.7-0.7c1.1,0,2.1,0,3.6-0.4v-0.7c-0.9,0.2-1.8,0.4-2.4,0.4c-0.4,0-0.5,0-0.5-0.2
		C84.6,255.5,84.6,255.5,84.8,255.5 M64,260.7h4.1l-0.3-0.7h-3.4L64,260.7z M49.7,264.5c0.4,0,0.8-0.1,1.1-0.3
		c0.3-0.1,0.6-0.3,1.1-0.3c1,0,2.3,0.5,3.4,1c0.1,0,0.1,0,0.2,0c0.2,0,0.3-0.1,0.4-0.2l0.1-0.3c-1.2-0.7-3.2-1.5-4.2-1.5
		c-0.5,0-0.8,0.1-1.1,0.2c-0.4,0.1-0.7,0.3-1,0.3c-0.8,0-2.9-0.8-2.9-1.6c0-0.9,3.3-1.3,3.6-1.3l0.3-0.7c-2.4,0-5.2,0.8-5.2,1.9
		c0,0.3,0.2,0.5,0.2,0.8c0,0.4-0.2,0.7-0.2,1.1c0,0.3,0.2,0.7,0.4,1s0.5,0.6,0.5,0.9c0,0.2-0.1,0.5-0.1,1c0,1.1,0.6,1.7,1.8,3
		l0.2,0.3c-1,0.4-2.8,1.2-3.3,1.4c-1.5,0.6-1.9,1.4-1.9,2.6c0,0.5,0,1,0,1.5h0.3c0.6,0,0.7-0.4,0.7-0.7c0-0.2,0-0.5,0-0.8
		c0-0.7,0-1.2,1.1-1.7c0.4-0.2,2.5-1.1,4.1-1.7c0.5-0.2,0.9-0.4,1.4-0.4s1.1,0.2,1.9,0.7c0.6,0.4,1.3,0.9,1.9,1.5l0.7-0.5
		c-0.6-0.7-1.4-1.3-2.2-1.8s-1.5-0.8-2.1-0.8c-0.3,0-0.5,0-0.7,0.1c-0.2,0.1-0.4,0.1-0.7,0.1s-0.5-0.1-0.9-0.5
		c-0.1-0.2-1-1.1-1.2-1.4c-0.1-0.1-0.2-0.4-0.2-0.7c0-0.1,0-0.3,0.1-0.4c0.7,0.6,1.7,0.9,2.8,1.1l-0.2-0.8c-1.6-0.4-3.3-1.8-3.3-2.7
		c0-0.2,0-0.3,0.1-0.5C47.5,263.9,48.9,264.5,49.7,264.5 M61.2,264.5c1-0.7,2-0.8,2.9-0.8c0.5,0,1.1,0.1,1.7,0.2
		c0.5,0.1,1,0.1,1.5,0.1c1.1,0,2.2-0.4,2.7-0.6c0.1,0.2,0.4,0.4,0.5,0.5c-0.2,0.1-1.7,0.9-3.2,0.9c-0.7,0-1.3-0.1-1.8-0.2
		c-0.5-0.1-1-0.1-1.5-0.1s-1.7,0.2-2.3,0.5L61.2,264.5z M76,267.5c-1.2,2.5-3,4.3-4.9,5.4c-0.9,0.5-1.7,0.8-3.4,0.8H64
		c-1.3,0-2.2,0.2-2.8,0.3c-0.7,0.2-1.1,0.4-1.9,0.4c-1.1,0-2-0.5-2.5-1l0.9-0.7l-0.4-0.6c-0.3,0.2-3.4,2.5-4,3l0,0
		c0-0.2,0-0.3,0-0.4c0-1.8-0.8-2.2-2-2.7l-0.8,0.5c1.7,0.6,2.1,1,2.1,2.3c0,1-0.4,1.4-0.9,1.7c-0.5,0.3-1.2,0.5-1.8,0.5
		c-0.2,0-0.4,0-0.4,0.1c-0.1,0.1-0.1,0.2-0.1,0.4v0.3h0.2c1.1,0,2.1-0.2,3.1-1l3.5-2.8c0.5,0.6,1.8,1.4,3.3,1.4
		c0.8,0,1.4-0.2,2.2-0.4c0.6-0.2,1.2-0.3,2.5-0.3h3.7c1.9,0,2.8-0.4,3.9-1c2.2-1.2,4.1-3.3,5.2-5.8C76.4,267.7,76.2,267.5,76,267.5
		 M70,270.5c1-1.5,1.8-2.9,3.9-4c-0.2-0.1-0.5-0.3-0.7-0.5c-0.8,0.4-1.6,1.1-2.3,1.8c-1.6,1.7-1.4,2.6-3.1,3.3
		c-0.4,0.2-0.9,0.3-1.6,0.5c-0.4-1.2-1.4-2.4-2.4-2.4c-0.7,0-1.5,0.4-2.5,0.8c-1.1,0.5-2.1,1.1-2.5,1.3l0.4,0.6
		c0.3-0.2,1.3-0.7,2.3-1.1c0.8-0.4,1.6-0.7,2.1-0.7c0.8,0,1.4,0.9,1.6,1.7c-1.1,0.3-2.8,0.3-3.4,0.3c-0.2,0-0.3,0-0.4,0.1
		c-0.1,0.1-0.1,0.2-0.2,0.4l-0.1,0.3h0.6c3,0,5.8-0.5,7.6-1.6c0.3,0.1,0.5,0.1,0.8,0.1c1,0,2.1-0.6,2.8-1.1c0.2-0.2,0.3-0.4,0.3-0.5
		c0-0.1,0-0.2,0-0.2v-0.4c-1,0.8-1.8,1.3-2.7,1.3C70.2,270.5,70.1,270.5,70,270.5"/>
</g>
<rect x="129.7" y="341.6" class="st4" width="29" height="29"/>
<rect x="175.7" y="341.6" class="st1" width="29" height="29"/>
<rect x="221.7" y="341.6" class="st5" width="29" height="29"/>
<rect x="267.7" y="341.6" class="st6" width="29" height="29"/>
<rect x="313.7" y="341.6" class="st7" width="29" height="29"/>
</svg>
