<?xml version="1.0" encoding="utf-8"?>
<!-- Generator: Adobe Illustrator 19.0.0, SVG Export Plug-In . SVG Version: 6.00 Build 0)  -->
<svg version="1.1" id="Capa_1" xmlns="http://www.w3.org/2000/svg" xmlns:xlink="http://www.w3.org/1999/xlink" x="0px" y="0px"
	 viewBox="0 0 200 200" style="enable-background:new 0 0 200 200;" xml:space="preserve">
<style type="text/css">
	.st0{fill:#1F4E69;stroke:#1F4E69;stroke-width:3;stroke-miterlimit:10;}
</style>
<g>
	<path id="XMLID_17_" class="st0" d="M178.7,42.1c-16-17.1-41.2-27.4-64.6-25c-0.4,0-0.6,1.3-0.6,1.6c-0.5,3.8,1,8.6,0.7,12.4h-3.9
		c-1.1-3.9-3.1-8.7-5-12.5c-0.7-1.5-2.1-4.4-2.1-6c0-0.7-0.9-1-1.4-1c-1.5,0.1-5.1,0.2-5.9,1.7c-1.1,1.9,2.3,4.2,3.4,5.1
		c0.4,0.3,1.7,1.2,1,1.7c-0.9,0.6-2.2,0.7-3.3,0.9c-1.5,0.2-3.2,0.3-4.3,1.3c-1.4,1.1-1.2,2.2-0.6,3.8c0.5,1.4,1.9,2.6,2.4,4
		c-0.4,0-0.8,0-1.2,0c-1.4-0.1-2.9-0.3-4.3-0.5c-1.2-0.2-2.5-0.4-3.7-0.6c-0.3,0-0.9-0.1-1.4-0.2c1.4-3.9,4.5-6.7,4.7-11.1
		c0-0.2-0.2-0.5-0.4-0.6c-23-3.5-45.5,8.6-63,22.6c-0.6,0.5,0.3,1.3,0.9,0.9C43,26.9,65,15,87.4,18.2c-0.2,2.2-1.1,4-2.3,5.8
		c-0.3,0.5-2.5,4.6-2.1,4.6c-0.6,0.1-0.5,0.9-0.1,1.1c1.1,0.8,3.5,0.7,4.8,0.9c2.3,0.3,4.6,0.8,6.9,0.8c1.5,0,1.5-0.9,1-1.8
		c-0.8-1.3-3.7-4.5-2.3-6.1c1.2-1.3,3.8-1.2,5.4-1.5c0.9-0.2,3-0.7,3.3-1.7c0.3-0.9-0.8-1.9-1.4-2.4c-1.1-1-3.3-2.1-3.4-3.8
		c0-0.4-0.2-0.2,0.4-0.5c0.6-0.3,1.3-0.4,1.9-0.5c0.6-0.1,1.2-0.2,1.8-0.3c0.2,0,0.5,0,0.7-0.1c0.1,0.5,0.4,1.2,0.6,1.6
		c0.3,1,0.8,2,1.2,3c1.9,4.3,4.3,8.6,5.5,13.1c0.1,0.3,0.3,0.8,0.6,0.8h4.8c0.4,0,0.6-0.7,0.6-1c0.5-3.9-1-7.9-0.7-11.7
		c23-2.1,47.5,7.8,63.2,24.6C178.3,43.6,179.2,42.6,178.7,42.1z"/>
	<path id="XMLID_16_" class="st0" d="M88.3,50.5c-2.1-0.9-4.2-1.7-6.3-2.6c-1-0.4-2-0.9-2.9-1.4c-0.8-0.4-1.6-1.2-2.4-1.4
		c-1.9-0.5-4.1,2.3-5.8,3.7c0.1-0.8,0.5-1.8,0.5-2.3c0.1-0.9,0.1-1.9-0.6-2.5c-0.4-0.4-1.7-0.5-2.8-0.3c-0.3-0.8-1.1-1.6-1.4-2.1
		c-0.2-0.2-0.5-0.2-0.7-0.1c-1.1,0.6-1.7,1.5-2.3,2.6c-0.3,0.6-0.6,1.1-0.9,1.7c-0.2,0.4-0.4,0.7-0.7,1c-0.2,0.2-0.2,0.5-0.2,0.6
		c0,0,0-0.1,0-0.2c0-0.5,0.6-4.7-1.2-3.9c-1.2,0.5-2.1,1.3-3.1,2.2c-0.7,0.6-1.4,1.3-2,1.9c0.5-1.6,1.5-4.2,0.4-5.6
		c-0.3-0.3-0.6-0.4-1-0.1c-2.8,2.4-4.5,5.8-7.3,8.2c0.3-2.1,0.9-4.1,0.9-6.2c0-0.7-0.2-3.5-1.6-2.7c-2.3,1.5-3.3,4.4-5.2,6.3
		c0.5-3.3,0.9-6.7,1-10.1c0-0.6-0.7-0.8-1-0.4c-4.6,4.1-8.7,8.7-12.7,13.3c-0.5,0.6,0.3,1.4,0.9,0.9c3.7-4.3,7.5-8.5,11.7-12.3
		c-0.1,3.3-0.6,6.6-1.2,9.9c-0.1,0.5,0.4,1,0.9,0.7c2.1-1.3,3.5-4.1,5.1-5.9c0.3-0.4,0.6-0.7,1-1.1c0,0.1,0,0.2,0.1,0.4
		c0.2,0.7,0.1,1.4,0.1,2.1c-0.1,2.2-0.9,4.2-1,6.4c0,0.4,0.5,0.8,0.9,0.5c3.2-2.3,5.1-5.8,7.9-8.5c0.1,1.9-2,5.5-0.6,6.1
		c0.2,0.1,0.4,0.1,0.6,0c1.8-1.3,3.2-2.9,4.9-4.2c1.1-0.8,0.8,0.3,0.8,1.2c0,0.7-0.1,1.3,0,1.9c0.2,1.4,1.9,0,2.2-0.4
		c1.4-1.4,1.7-3.6,3.2-4.8c0.2,0.4,1,0.9,1.3,1.3c-0.6,0.6,1.4,1.5,1.4,0.8c0,0,0,0,0,0c0-0.2,1.8-0.3,1.9,0.7
		c0.1,1.4-1.3,3.2-0.6,4.5c0.2,0.3,0.4,0.4,0.7,0.2c0.8-0.5,1.4-1.2,2.1-1.8c0.6-0.5,1.1-1,1.7-1.5c1-0.7,1.5-0.9,2.6-0.2
		c3.2,2,6.9,3.2,10.4,4.7C88.4,51.8,89,50.8,88.3,50.5z"/>
	<path id="XMLID_15_" class="st0" d="M113.8,50.5c2.1-0.9,4.2-1.7,6.3-2.6c1-0.4,2-0.9,2.9-1.4c0.8-0.4,1.6-1.2,2.5-1.4
		c1.9-0.5,4.1,2.3,5.8,3.7c-0.1-0.8-0.5-1.8-0.5-2.3c-0.1-0.9-0.1-1.9,0.6-2.5c0.4-0.4,1.7-0.5,2.8-0.3c0.3-0.8,1.1-1.6,1.4-2.1
		c0.2-0.2,0.5-0.2,0.7-0.1c1.1,0.6,1.7,1.5,2.3,2.6c0.3,0.6,0.6,1.1,0.9,1.7c0.2,0.4,0.4,0.7,0.7,1c0.2,0.2,0.2,0.5,0.2,0.6
		c0,0,0-0.1,0-0.2c0-0.5-0.6-4.7,1.2-3.9c1.2,0.5,2.1,1.3,3.1,2.2c0.7,0.6,1.4,1.3,2,1.9c-0.4-1.6-1.5-4.2-0.4-5.6
		c0.2-0.3,0.6-0.4,0.9-0.1c2.8,2.4,4.5,5.8,7.3,8.2c-0.3-2.1-0.9-4.1-0.9-6.2c0-0.7,0.2-3.5,1.6-2.7c2.3,1.5,3.3,4.4,5.2,6.3
		c-0.5-3.3-0.9-6.7-1-10.1c0-0.6,0.7-0.8,1-0.4c4.6,4.1,8.7,8.7,12.7,13.3c0.5,0.6-0.3,1.4-0.9,0.9c-3.7-4.3-7.5-8.5-11.6-12.3
		c0.1,3.3,0.6,6.6,1.2,9.9c0.1,0.5-0.4,1-0.9,0.7c-2.1-1.3-3.5-4.1-5.1-5.9c-0.3-0.4-0.6-0.7-1-1.1c0,0.1,0,0.2-0.1,0.4
		c-0.2,0.7-0.1,1.4-0.1,2.1c0.1,2.2,0.9,4.2,1,6.4c0,0.4-0.5,0.8-0.9,0.5c-3.2-2.3-5.1-5.8-7.9-8.5c-0.1,1.9,2,5.5,0.6,6.1
		c-0.2,0.1-0.4,0.1-0.6,0c-1.8-1.3-3.2-2.9-4.9-4.2c-1.1-0.8-0.8,0.3-0.8,1.2c0,0.7,0.1,1.3,0,1.9c-0.2,1.4-1.9,0-2.2-0.4
		c-1.4-1.4-1.6-3.6-3.2-4.8c-0.2,0.4-2.3,0.9-2.6,1.3c0.6,0.6-2.7,1.5-2.7,0.8c0,0,0,0,0,0c0-0.2-0.5-0.3-0.6,0.7
		c-0.1,1.4,1.9,3.2,1.2,4.5c-0.2,0.3-0.1,0.4-0.4,0.2c-0.8-0.5-1.3-1.2-2-1.8c-0.6-0.5-1-1-1.7-1.5c-1-0.7-1.5-0.9-2.6-0.2
		c-3.2,2-6.9,3.2-10.3,4.7C113.7,51.8,113.1,50.8,113.8,50.5z"/>
	<path id="XMLID_14_" class="st0" d="M89.2,24.7c0,1.7,0.1,2.7-0.9,3.2c-0.7,0.4-0.1,1.4,0.6,1c1.5-0.8,1.5-2.5,1.5-4.2H89.2z"/>
	<path id="XMLID_13_" class="st0" d="M96.9,25.1c-0.6-0.5-1.5,0.4-0.9,0.9c10.4,8.5,10.2,23.6,6.1,35.3c-1.5,0-3.5,0-4.8,0.6
		C92,54,89.3,46.6,89.2,35c0,0-1.2,0-1.2,0c0.1,11.6,2.9,19.9,8.6,28c0.2,0.3,0.5,0.3,0.8,0.1c1.2-0.8,3.7-0.6,5.1-0.6
		c0.3,0,0.5-0.2,0.6-0.5C107.6,49.9,107.7,34,96.9,25.1z"/>
	<path id="XMLID_12_" class="st0" d="M176.6,51.8c-10.8,11.9-23.7,22.1-37.6,30.3c0.5-3.9,0.9-7.8,1.1-11.7c0-0.8-1.2-0.8-1.2,0
		c-0.2,4.2-0.6,8.4-1.2,12.5c-0.5,0.3-3,43.4-38,80.3c-0.5,0.6,0.3,1.4,0.9,0.9c21.4-22,34.1-50.3,38.3-80.4
		c9.9-5.8,19.4-12.6,27.9-20.4c1.9,4.6,2.3,9.5,1.8,14.4c-0.1,0.8,1.1,0.8,1.2,0c0.6-5,0.1-10.1-1.8-14.7c-0.1-0.2-0.2-0.3-0.4-0.4
		c3.5-3.2,6.8-6.5,9.9-9.9C178,52,177.1,51.2,176.6,51.8z"/>
	<path id="XMLID_11_" class="st0" d="M137.1,69.1c-13.4-1.5-27.2-1.4-40.6-0.6c-0.8,0-0.8,1.3,0,1.2c13.4-0.8,27.2-0.8,40.6,0.6
		C137.8,70.4,137.8,69.2,137.1,69.1z"/>
	<path id="XMLID_10_" class="st0" d="M187.5,62.7c-7.5,8.1-16.3,15-25.2,21.5c-7.9,5.8-16.1,11.3-24.4,16.6c-0.7,0.4,0,1.5,0.6,1
		c8.3-5.3,16.4-10.8,24.4-16.6c9-6.6,17.9-13.5,25.4-21.7C188.9,62.9,188,62.1,187.5,62.7z"/>
	<path id="XMLID_9_" class="st0" d="M171.6,80c0-0.8-1.3-0.8-1.2,0c0.5,9.4-1.3,19.2-3,28.4c-2.2,12-5,24-9.4,35.4
		c-1.7,4.5-3.7,8.9-6.4,12.9c-1.7,2.5-4.1,5.3-7.3,5.9c-1.3,0.2-2.6-0.1-3.7-0.7c0-0.4-0.3-0.8-0.7-0.7c-0.1,0-0.1,0-0.2,0.1
		c-1.3-1-2.4-2.3-3.3-3.4c-0.9-1.2-1.7-2.5-2.5-3.9c0.1,0,0.3,0,0.4-0.1c18.8-13.3,23.2-37.7,20.9-59.3c-0.1-0.8-1.3-0.8-1.2,0
		c2.2,21.1-1.9,45.1-20.3,58.2c-0.1,0.1-0.2,0.2-0.2,0.3c-1.4-2.6-2.5-5.3-3.5-8.1c9.6-9.2,15.6-21.5,16.8-34.7
		c0.1-0.8-1.1-0.8-1.2,0c-1.2,12.8-7,24.5-16,33.5c-0.5-1.5-1.1-3.1-1.5-4.6c-0.2-0.7-1.4-0.4-1.2,0.3c0.6,1.7,1.1,3.4,1.8,5.2
		c-0.3,0.3-0.7,0.6-1,0.9c-0.6,0.5,0.3,1.4,0.9,0.9c0.2-0.2,0.4-0.4,0.6-0.5c1.6,4.2,3.5,8.4,6,12c0.9,1.3,2,2.6,3.2,3.6
		c-9.9,2.1-19.6-0.2-28.1-5.8c-0.6-0.4-1.3,0.6-0.6,1c9,5.9,19.5,8.3,30,5.7c1,0.7,2.2,1.1,3.5,1.3c3,0.3,5.6-1.6,7.5-3.7
		c2.9-3.2,5-7.2,6.7-11.1c4.8-10.8,7.8-22.5,10.2-34.1c2.1-10.2,3.9-20.7,4.2-31.2C171.6,82.5,171.6,81.3,171.6,80z"/>
	<path id="XMLID_8_" class="st0" d="M120.6,179.7c-4-6.7-5.8-14.7-10.3-21.2c-0.4-0.6-1.5,0-1,0.6c4.2,6.1,6.1,13.7,9.7,20.2
		c-1.7-0.1-3.9,0-4.4,1.8c-0.2,0.8,0.1,1.8,0.2,2.6c0.3,1.6,0.3,3-0.2,4.5c-0.2,0.7,0.9,1.1,1.2,0.3c0.6-1.8,0.4-3.6,0.1-5.5
		c-0.1-0.6-0.4-1.6,0-2.1c0.8-0.9,3.1-0.5,4.1-0.4C120.6,180.6,120.8,180,120.6,179.7z"/>
	<path id="XMLID_7_" class="st0" d="M24,51.8c10.8,11.9,23.7,22.1,37.6,30.3c-0.5-3.9-0.9-7.8-1.1-11.7c0-0.8,1.2-0.8,1.2,0
		c0.2,4.2,0.6,8.4,1.2,12.5l0.2,1.5c4.2,29.5,16.8,57.2,37.8,78.8c0.5,0.6-0.3,1.4-0.9,0.9c-21.4-22-34.1-50.3-38.3-80.4
		C51.8,77.8,42.4,71,33.8,63.3c-1.9,4.6-2.3,9.5-1.8,14.4c0.1,0.8-1.1,0.8-1.2,0c-0.6-5-0.1-10.1,1.8-14.7c0.1-0.2,0.2-0.3,0.4-0.4
		c-3.5-3.2-6.8-6.5-9.9-9.9C22.6,52,23.5,51.2,24,51.8z"/>
	<path id="XMLID_6_" class="st0" d="M63.5,69.1c13.4-1.5,27.2-1.4,40.6-0.6c0.8,0,0.8,1.3,0,1.2c-13.4-0.8-27.2-0.8-40.6,0.6
		C62.8,70.4,62.8,69.2,63.5,69.1z"/>
	<path id="XMLID_5_" class="st0" d="M13.1,62.7c7.5,8.1,16.3,15,25.2,21.5c7.9,5.8,16.1,11.3,24.4,16.6c0.7,0.4,0,1.5-0.6,1
		C53.7,96.5,45.6,91,37.6,85.2c-9-6.6-17.9-13.5-25.4-21.7C11.7,62.9,12.6,62.1,13.1,62.7z"/>
	<path id="XMLID_4_" class="st0" d="M29,80c0-0.8,1.3-0.8,1.2,0c-0.5,9.4,1.3,19.2,3,28.4c2.2,12,5,24,9.4,35.4
		c1.7,4.5,3.7,8.9,6.4,12.9c1.7,2.5,4.1,5.3,7.3,5.9c1.3,0.2,2.6-0.1,3.7-0.7c0-0.4,0.3-0.8,0.7-0.7c0.1,0,0.1,0,0.2,0.1
		c1.3-1,2.4-2.3,3.3-3.4c0.9-1.2,1.7-2.5,2.5-3.9c-0.1,0-0.3,0-0.4-0.1c-18.8-13.3-23.2-37.7-20.9-59.3c0.1-0.8,1.3-0.8,1.2,0
		c-2.2,21.1,1.9,45.1,20.3,58.2c0.1,0.1,0.2,0.2,0.2,0.3c1.4-2.6,2.5-5.3,3.5-8.1c-9.6-9.2-15.6-21.5-16.8-34.7
		c-0.1-0.8,1.1-0.8,1.2,0c1.2,12.8,7,24.5,16,33.5c0.5-1.5,1-3.1,1.5-4.6c0.2-0.7,1.4-0.4,1.2,0.3c-0.6,1.7-1.1,3.4-1.8,5.2
		c0.3,0.3,0.7,0.6,1,0.9c0.6,0.5-0.3,1.4-0.9,0.9c-0.2-0.2-0.4-0.4-0.6-0.5c-1.6,4.2-3.5,8.4-6,12c-0.9,1.3-2,2.6-3.2,3.6
		c9.9,2.1,19.6-0.2,28.1-5.8c0.7-0.4,1.3,0.6,0.6,1c-9,5.9-19.5,8.3-30,5.7c-1,0.7-2.2,1.1-3.5,1.3c-3,0.3-5.6-1.6-7.5-3.7
		c-2.9-3.2-5-7.2-6.7-11.1c-4.8-10.8-7.8-22.5-10.2-34.1c-2.1-10.2-3.9-20.7-4.2-31.2C29,82.5,29,81.3,29,80z"/>
	<path id="XMLID_3_" class="st0" d="M80,179.7c4-6.7,5.8-14.7,10.3-21.2c0.4-0.6,1.5,0,1,0.6c-4.2,6.1-6.1,13.7-9.7,20.2
		c1.7-0.1,3.9,0,4.4,1.8c0.2,0.8-0.1,1.8-0.2,2.6c-0.3,1.6-0.3,3,0.2,4.5c0.2,0.7-0.9,1.1-1.2,0.3c-0.6-1.8-0.4-3.6-0.1-5.5
		c0.1-0.6,0.4-1.6,0-2.1c-0.8-0.9-3.1-0.5-4.1-0.4C80,180.6,79.7,180,80,179.7z"/>
	<path id="XMLID_2_" class="st0" d="M108,185.2c-1.9-6.9-3.6-13.8-6.1-20.6c-0.3-0.7-1.4-0.4-1.2,0.3c2.4,6.7,4.2,13.7,6.1,20.6
		C107,186.3,108.2,186,108,185.2z"/>
	<path id="XMLID_1_" class="st0" d="M109,189.1c-5.1,1.7-9.7,3.1-14.9,0.9c1.7-6.4,1.7-13.1,3.5-19.5c0.2-0.8-1-1.1-1.2-0.3
		c-1.9,6.5-1.8,13.4-3.6,20c-0.1,0.2,0,0.6,0.3,0.7c2.5,1.2,5,1.8,7.8,1.7c2.9-0.2,5.7-1.3,8.4-2.2C110.1,190,109.8,188.8,109,189.1
		z"/>
</g>
<line id="XMLID_97_" class="st0" x1="66.7" y1="99.8" x2="134.7" y2="99.8"/>
<line id="XMLID_98_" class="st0" x1="71.7" y1="121.8" x2="128.7" y2="121.8"/>
</svg>
