<?xml version="1.0" encoding="utf-8"?>
<!-- Generator: Adobe Illustrator 19.0.0, SVG Export Plug-In . SVG Version: 6.00 Build 0)  -->
<svg version="1.1" id="Capa_1" xmlns="http://www.w3.org/2000/svg" xmlns:xlink="http://www.w3.org/1999/xlink" x="0px" y="0px"
	 viewBox="32 -28.4 1024 616.4" style="enable-background:new 32 -28.4 1024 616.4;" xml:space="preserve">
<style type="text/css">
	.st0{fill:none;}
	.st1{fill:none;stroke:#B7B7B7;stroke-width:0.991;stroke-miterlimit:10;stroke-dasharray:11.8922;}
	.st2{fill:url(#SVGID_1_);}
	.st3{fill:none;stroke:#B7B7B7;stroke-miterlimit:10;}
	.st4{fill:none;stroke:#B7B7B7;stroke-miterlimit:10;stroke-dasharray:13.6341,13.6341;}
	.st5{fill:none;stroke:#B7B7B7;stroke-width:0.991;stroke-miterlimit:10;}
	.st6{fill:none;stroke:#B7B7B7;stroke-width:0.991;stroke-miterlimit:10;stroke-dasharray:10.4272,10.4272;}
	.st7{fill:none;stroke:#B7B7B7;stroke-width:0.9867;stroke-miterlimit:10;}
	.st8{fill:none;stroke:#B7B7B7;stroke-width:0.9867;stroke-miterlimit:10;stroke-dasharray:13.4491,13.4491;}
</style>
<pattern  x="32" y="588" width="46.2" height="20" patternUnits="userSpaceOnUse" id="Nueva_muestra_de_motivo_5" viewBox="0 -23.9 46.2 20" style="overflow:visible;">
	<g>
		<polygon class="st0" points="0,-3.9 46.2,-3.9 46.2,-23.9 0,-23.9 		"/>
		<path class="st1" d="M0.3-18.9c0,0,16-11.3,23,2.3C28.2-7,34.9,0,45.9-7.6"/>
	</g>
</pattern>
<pattern  id="SVGID_1_" xlink:href="#Nueva_muestra_de_motivo_5" patternTransform="matrix(1.0351 0 0 1 184.4343 3.9923)">
</pattern>
<rect x="12.5" y="-81.7" class="st2" width="1063" height="723"/>
<g>
	<g>
		<path class="st3" d="M-415.8,217.5c0,0-1.5-2.6-3.6-4.8"/>
		<path class="st4" d="M-429.2,214.2c1.1,4.2,12.4,7.1,7.3,12.3c-1.3,1.3-2.5,1.8-3.6,1.7"/>
		<path class="st3" d="M-430.7,224.3c-1.7-2.5-2.8-5.3-2.8-5.3"/>
	</g>
</g>
<g>
	<g>
		<path class="st5" d="M-359.8,217.6c0,0-1.9-1.6-4.7-3.7"/>
		<path class="st6" d="M-373.2,208.4c-9.2-4.7-19.3-5.6-16.7,15.1c0.9,7.2,8.5-12.7,14.7-6.7c1.9,1.8,2,3.5,1.3,5.1"/>
		<path class="st5" d="M-377.4,225.6c-2.5,1.7-5.2,2.8-5.2,2.8"/>
	</g>
</g>
<g>
	<g>
		<path class="st3" d="M-406.6,209.9c0,0-2.6-1.5-4.8-3.6"/>
		<path class="st4" d="M-409.9,196.6c4.2,1.1,7.1,12.4,12.3,7.3c1.3-1.3,1.8-2.5,1.7-3.6"/>
		<path class="st3" d="M-399.8,195c-2.5-1.7-5.3-2.8-5.3-2.8"/>
	</g>
</g>
<g>
	<g>
		<path class="st7" d="M-402.3,250.1c0,0,2.5-1.5,4.7-3.6"/>
		<path class="st8" d="M-399.1,236.8c-4.1,1.1-6.9,12.4-12,7.3c-1.3-1.2-1.7-2.5-1.7-3.6"/>
		<path class="st7" d="M-409,235.3c2.5-1.7,5.2-2.8,5.2-2.8"/>
	</g>
</g>
<path class="st1" d="M-556.8,256.8c0,0,3.3,10-11.5,10s-12-16.3-6.8-19.5s13.5-10,28.3-1.5s13.5,44.5-17.8,43s-37.3,37-35,34.8
	c0,0,3,48.5,57.5,27.5c0,0,17-11.5,15-25s-19.5-32.5-40.5-16.5s-4,27,1,28s10,0,14.5-6"/>
<path class="st1" d="M-461.3,284.3c0,0,16-11.3,23,2.3c4.9,9.6,11.6,16.6,22.6,9"/>
</svg>
