<?xml version="1.0" encoding="utf-8"?>
<!-- Generator: Adobe Illustrator 19.0.0, SVG Export Plug-In . SVG Version: 6.00 Build 0)  -->
<svg version="1.1" id="Layer_1" xmlns="http://www.w3.org/2000/svg" xmlns:xlink="http://www.w3.org/1999/xlink" x="0px" y="0px"
	 viewBox="3138.6 -82.4 1247.2 725.4" style="enable-background:new 3138.6 -82.4 1247.2 725.4;" xml:space="preserve">
<style type="text/css">
	.st0{fill:none;}
	.st1{fill:none;stroke:#B7B7B7;stroke-width:0.991;stroke-miterlimit:10;stroke-dasharray:11.8922;}
	.st2{fill:url(#SVGID_1_);}
	.st3{fill:#FFFFFF;}
	.st4{fill:#E0DFE6;}
	.st5{fill:#FFCC80;}
	.st6{fill:#1F4D69;}
	.st7{fill:none;stroke:#1F4D69;stroke-width:4;stroke-miterlimit:10;}
	.st8{fill:none;stroke:#1F4D69;stroke-width:4;stroke-miterlimit:10;stroke-dasharray:20.022,10.011;}
	.st9{fill:none;stroke:#1F4D69;stroke-width:4;stroke-miterlimit:10;stroke-dasharray:19.6064,9.8032;}
</style>
<pattern  x="1142" y="643" width="46.2" height="20" patternUnits="userSpaceOnUse" id="SVGID_2_" viewBox="0 -20 46.2 20" style="overflow:visible;">
	<g>
		<polygon class="st0" points="0,0 46.2,0 46.2,-20 0,-20 		"/>
		<g>
			<polygon class="st0" points="0,-20 46.2,-20 46.2,0 0,0 			"/>
			<g>
				<polygon class="st0" points="0,0 46.2,0 46.2,-20 0,-20 				"/>
				<g>
					<polygon class="st0" points="0,-20 46.2,-20 46.2,0 0,0 					"/>
					<g>
						<polygon class="st0" points="0,0 46.2,0 46.2,-20 0,-20 						"/>
						<path class="st1" d="M0.3-15c0,0,16-11.3,23,2.3c4.9,9.6,11.6,16.6,22.6,9"/>
					</g>
				</g>
			</g>
		</g>
	</g>
</pattern>
<pattern  id="SVGID_1_" xlink:href="#SVGID_2_" patternTransform="matrix(0.4262 0 0 1 -1530.676 35294)">
</pattern>
<rect x="3143.5" y="-72" class="st2" width="1248.5" height="712"/>
<ellipse class="st3" cx="3267.4" cy="281" rx="38" ry="37"/>
<path class="st3" d="M3193.4,0c10,20,28,10,28,10l-10-46C3211.4-36,3183.4-20,3193.4,0z"/>
<ellipse class="st3" cx="3403.9" cy="442.7" rx="13.5" ry="11.8"/>
<ellipse class="st3" cx="3582.7" cy="544.2" rx="18.8" ry="19.3"/>
<ellipse class="st3" cx="3883.4" cy="2" rx="21" ry="17.3"/>
<path class="st4" d="M4124.7,9.4c3.7,0,7.2-0.4,10.9-0.2c3.3,0.2,6.6,0.4,9.8,0.3c3.7-0.1,7.4-0.4,11-0.9c2.1-0.2,4.2-0.4,6.3-0.6
	c0.5-0.1,3-0.4,4.2-0.5c0.9,0.9,2.2,1.2,3.5,0.4c0.2-0.2,0.4-0.3,0.6-0.4c1.3-0.8,2-2.3,1.6-3.8c-0.1-0.2-0.1-0.4-0.2-0.5
	c-0.4-1.6-1.9-2.6-3.5-2.6c-8.4-0.2-16.8,2.3-25.1,3c-6.2,0.5-14.3-0.2-19.8,3.3C4122.8,7.5,4123.3,9.4,4124.7,9.4z"/>
<path class="st4" d="M4163.3,9.4c-11,1.9-22.3,3.4-33.3,1c-1.5-0.3-2.7,1.9-1.1,2.6c10.7,4.7,24.5,2.8,35.7,1.1
	C4167.8,13.7,4166.5,8.9,4163.3,9.4z"/>
<path class="st5" d="M3597.5,535.9c-5.3-2.9-10.2,4.8-4.8,7.5c8.8,4.4,6.8,14.2-3.6,14.4c-1.3,0-2.5,0.7-3.2,1.5
	c-5.7-6.4-10.3-13.9-5.7-19c0.7-0.8-0.2-1.8-1.2-1.4c-16.5,6.5,6.8,28.3,12.6,34.6c1.4,1.5,4.5,1.1,5.5-0.7c2.8-4.6,5-9.4,8.4-13.6
	c0.9-1.1,1-2.2,0.4-3.1C3609,549.4,3606.6,540.8,3597.5,535.9z"/>
<path class="st6" d="M3590.7,529.6c-14,0-20.4,9.1-20.4,17.6c0,12.6,10.1,22.6,20.5,31.6c0.4,0.3,0.9,0.5,1.4,0.5s1-0.2,1.4-0.5
	c6.6-5.8,17.8-17.3,17.8-29.3C3611.5,540.2,3603,529.6,3590.7,529.6z M3592.3,575c-9.2-8.2-17.8-17-17.8-27.6
	c0-10.9,10.2-13.9,16.2-13.9c9.5,0,16.7,8.6,16.7,16.1C3607.4,557,3601.9,566.2,3592.3,575z"/>
<path class="st6" d="M3599.6,547.9c0-5.1-6.5-6.9-9.4-6.9c-1.1,0-2.2,0.2-3.1,0.6c-2.8,1.1-4.5,3.6-4.5,6.5c0,4.5,3.7,8,8.3,8
	c4.5,0,8.8-3.3,8.8-6.7c0-0.4,0-0.7-0.1-1.1C3599.6,548.2,3599.6,548.1,3599.6,547.9z M3591,552.4c-2.3,0-4.2-1.9-4.2-4.2
	c0-0.7,0.2-2.4,2-3.1c0.4-0.2,0.9-0.2,1.4-0.2c1.1,0,5.3,0.8,5.3,3.1c0,0.2,0,0.6,0.1,0.9c0,0.2,0.1,0.4,0.1,0.7
	C3595.6,550.6,3593.3,552.4,3591,552.4z"/>
<path class="st6" d="M3515.5,589.1c0.6-0.4,0.8-1.1,0.4-1.6s-1.3-0.7-1.9-0.3c-1.5,0.9-2.9,1.7-4.3,2.7c0.7,0.5,1.4,1,2,1.6
	C3512.8,590.6,3514.1,589.8,3515.5,589.1z"/>
<path class="st6" d="M3506,592.4c-1.1,0.8-2.3,1.6-3.4,2.4c-0.6,0.4-0.7,1.1-0.2,1.6c0.3,0.3,0.7,0.4,1.1,0.4c0.3,0,0.6-0.1,0.9-0.3
	c1.2-0.8,2.3-1.6,3.5-2.4c0.5-0.4,1.1-0.8,1.6-1.2c-0.7-0.5-1.3-1.1-2-1.6C3507,591.7,3506.5,592,3506,592.4z"/>
<path class="st6" d="M3516.1,594.7c-1.5-0.9-2.8-1.9-4-3c-0.1-0.1-0.3-0.2-0.4-0.4c-0.7-0.5-1.3-1.1-2-1.6c-1.2-0.9-2.4-1.7-3.9-2.3
	c-0.7-0.3-1.5-0.1-1.9,0.5s-0.1,1.2,0.6,1.5c1.1,0.5,2.1,1.1,3.1,1.8c0.7,0.5,1.4,1,2,1.6c0.2,0.2,0.4,0.3,0.6,0.5
	c1.3,1.1,2.7,2.2,4.3,3.1c0.3,0.1,0.5,0.2,0.8,0.2c0.4,0,0.8-0.1,1.1-0.4C3516.8,595.8,3516.7,595.1,3516.1,594.7z"/>
<path class="st4" d="M3287.6,305c-1.6,1.4-3.2,2.6-4.9,3.5c4.3-0.9,8.6-2,12.4-4C3293.1,302.9,3290.2,302.6,3287.6,305z"/>
<path class="st4" d="M3265.8,320.7c8,3.5,16.9,2.9,24-1.6c-3.4,0.8-6.8,1.1-10.2,0.8c-4.7-0.3-6.7-6.7-3.6-9.4
	c-2.7,0.2-5.4-0.2-8.5-1.4c-7.3-2.7-13.7-7.9-19-13.6c-1.1-1.2-3,0.1-2.6,1.6C3249.1,307.4,3256.1,316.4,3265.8,320.7z"/>
<path class="st4" d="M3279.7,319.9c3.4,0.3,6.8-0.1,10.2-0.8c8.4-2,15.9-7.1,20.3-14.9c2.9-5.2,4.1-11.4,4.7-17.3
	c0.4-4.6,0.7-11.4-3-14.7c-0.7-0.7-1.6,0-1.5,0.9c1.5,9.4-2.8,19.4-9,26.5c-1.8,2.1-3.9,3.6-6.1,4.8c-3.8,2.1-8,3.1-12.4,4
	c-1.5,0.3-3,0.7-4.5,1c-0.9,0.2-1.6,0.6-2.2,1.1C3273,313.2,3275,319.6,3279.7,319.9z"/>
<path class="st4" d="M3288.7,353.7c0.3-0.1,0.6-0.2,0.9-0.3c4.6-1.6,2.7-8.5-2-7.5c-3,0.7-5.9,2.2-8.9,3.2s-6.1,1.5-9.1,2.5
	c-1.5,0.5-1.1,2.6,0.4,2.7c3.4,0.4,6.7,0.1,10.1,0c2,0,4.2,0,6.3-0.3C3287.3,353.6,3288,353.5,3288.7,353.7z"/>
<path class="st4" d="M3272.2,356.8c-0.8-0.1-1.5,0.8-0.8,1.4c4,3.8,12.6,4,17.4,1.9c3.4-1.4,2.3-5.8-0.2-6.4
	c-0.7-0.1-1.5-0.1-2.3,0.4C3282.4,356.4,3276.7,357.5,3272.2,356.8z"/>
<path class="st6" d="M3254.8,315.6L3254.8,315.6c-0.5-0.7-0.4-1.7,0.3-2.2c0.6-0.5,1.6-0.3,2,0.3c1.3,1.8,2.5,3.7,3.7,5.6
	c5.4,2.8,11.6,4.4,18.2,4.4c0.1,0,0.2,0,0.3,0c0-0.5,0-1,0-1.6c0-0.5,0-1,0-1.4c-0.1,0-0.2,0-0.3,0c-0.8,0-1.5,0-2.2-0.1
	c0.1,0.4,0,0.8-0.3,1.2c-0.3,0.4-0.7,0.5-1.1,0.5c-0.3,0-0.6-0.1-0.9-0.3c-0.6-0.5-1.3-1.2-2.2-2c-15.2-2.8-27.1-14.9-29.1-29.9
	c-0.1-0.3-0.1-0.6-0.1-0.9c-0.1-1.2-0.2-2.4-0.2-3.7c0-15.7,11.3-30.5,25.5-34.8c1.3-1.4,2.8-2.7,4.4-3.9c0.6-0.5,1.6-0.3,2,0.4
	c0.4,0.7,0.3,1.6-0.4,2.1c-0.1,0.1-0.2,0.1-0.3,0.2c0.8-0.1,1.7-0.1,2.5-0.2c0.2-0.8,0.4-1.6,0.7-2.2c0.4-0.7,1.3-1,2-0.7
	c0.7,0.4,1,1.2,0.6,2c-0.1,0.3-0.2,0.5-0.3,0.8c1.6,0,3.2,0.1,4.7,0.3c-0.5-0.5-0.6-1.4-0.2-2c0.4-0.7,1.4-0.8,2-0.3
	c1.3,0.9,2.5,2,3.6,3.3c16,3.8,25.9,16.2,25.9,33.7c0,14.7-9.7,26.9-21.6,32.6c-0.8,1.4-1.6,2.8-2.5,4.1c-0.3,0.5-0.8,0.7-1.2,0.7
	c-0.3,0-0.6-0.1-0.8-0.3c-0.7-0.5-0.9-1.4-0.4-2.1c0.1-0.2,0.3-0.4,0.4-0.6c-2.4,0.8-4.8,1.4-7.3,1.6c0,0.5,0,1.1,0,1.6s0,0.9,0,1.4
	c6.6-0.6,12.9-2.9,18.5-6.8c0.3-0.5,0.5-0.9,0.8-1.4c1.1-1.9,2.1-3.9,3.2-5.7c0.4-0.7,1.3-1,2-0.6c0.7,0.4,0.9,1.3,0.6,2
	c0,0.1-0.1,0.1-0.1,0.2c7.2-7.6,11.4-17.4,11.4-26.8c0-23.1-15.6-38-39.9-38c-1.8,0-3.5,0.1-5.2,0.3c-18.5,2-33.5,19.4-33.5,38.8
	c0,0.5,0,1,0.1,1.4c0.1,1.2,0.1,2.4,0.3,3.7c0.6,4.2,1.8,8.1,3.7,11.7c0.5,1,1.1,2,1.6,3C3247.9,309.3,3251.1,312.8,3254.8,315.6z"
	/>
<path class="st6" d="M3289.4,342.5c-0.3,0-0.4-0.1-0.6-0.1c-0.7-0.4-1-1.3-0.6-2c0.1-0.3,0.3-0.5,0.4-0.8c-2,0-4,0-6.2,0.1
	c0,0.5,0.1,1,0.1,1.4c0.1,0.8-0.6,1.6-1.3,1.6c-0.1,0-0.1,0-0.1,0c-0.8,0-1.4-0.6-1.5-1.4c-0.1-0.5-0.1-1-0.1-1.6
	c-2.3,0.1-4.6,0.2-7,0.4c0.1,0.3,0.3,0.5,0.4,0.8c0.4,0.7,0.2,1.6-0.5,2.1c-0.3,0.1-0.5,0.2-0.8,0.2c-0.5,0-0.9-0.3-1.3-0.7
	c-0.4-0.7-0.8-1.4-1.2-2c-0.5,0.1-0.9,0.1-1.5,0.1c-0.8,0.1-1.3,0.7-1.3,1.5v0.1c0,4.9,1.1,9.6,2.3,14.4c0.2,0.7,0.8,1.1,1.4,1.1
	c0.1,0,0.1,0,0.1,0c6.8-0.7,14.1-1.4,21.7-2.3c0.8-0.1,1.3-0.8,1.3-1.6c-0.3-3.3-0.5-6.4-0.5-9.6c0-1,0-2,0.1-2.9
	c0-0.4-0.1-0.8-0.4-1.1c-0.2-0.2-0.4-0.3-0.7-0.5c-0.4,0.7-0.7,1.4-1.1,2.2C3290.5,342.2,3290,342.5,3289.4,342.5z M3271.3,354.5
	c-0.9-3.7-1.7-7.4-1.8-11.2c7-0.8,13.9-0.8,20.5-0.8c0,0.5,0,1,0,1.5c0,2.8,0.2,5.7,0.4,8.4C3283.7,353.2,3277.3,353.9,3271.3,354.5
	z"/>
<path class="st6" d="M3271.7,344.2c0.3,0,0.5-0.1,0.8-0.2c0.7-0.5,0.9-1.4,0.5-2.1c-0.1-0.3-0.3-0.5-0.4-0.8c-1.7-2.9-3.4-5.9-5-8.8
	c-2.2-3.9-4.4-8-6.8-11.8c-1.2-1.9-2.4-3.8-3.7-5.6c-0.4-0.7-1.4-0.8-2-0.3s-0.8,1.4-0.3,2.1l0.1,0.1c3.8,5.4,7.1,11.4,10.2,17.1
	c1.4,2.5,2.8,5.1,4.3,7.6c0.4,0.7,0.8,1.4,1.2,2C3270.7,344,3271.2,344.2,3271.7,344.2z"/>
<path class="st6" d="M3279.5,340.7c0,0.5,0.1,1,0.1,1.6c0.1,0.8,0.7,1.4,1.5,1.4c0.1,0,0.1,0,0.1,0c0.8-0.1,1.4-0.8,1.3-1.6
	c-0.1-0.5-0.1-1-0.1-1.4c-0.3-4.6-0.3-9-0.3-12.5c0-1.2,0-2.3,0-3.4c0-0.5,0-0.9,0-1.4s0-1.1,0-1.6c0-1.8,0-3.7,0-5.5
	c0-18.6-1.2-28.3-2.1-36c-0.6-4.8-1.1-8.6-1.1-13.3c0-0.7,0-1.8-0.1-2.9c-0.1-3.7-0.3-10.3,0.6-13.4c0.1-0.3,0.2-0.6,0.3-0.9
	c0.4-0.7,0.1-1.6-0.6-2c-0.7-0.4-1.6-0.1-2,0.7c-0.3,0.6-0.5,1.4-0.7,2.2c-0.7,3.3-0.6,8.2-0.5,13.4c0.1,1.1,0.1,2.1,0.1,2.8
	c0,4.8,0.5,8.9,1.1,13.6c0.9,7.7,2.1,17.2,2.1,35.6c0,1.9,0,3.7,0,5.6c0,0.5,0,1,0,1.4c0,0.5,0,1,0,1.6c0,1.1,0,2.2,0,3.3
	C3279.2,331.6,3279.2,336.1,3279.5,340.7z"/>
<path class="st6" d="M3306.6,310.2c-0.7-0.4-1.6-0.1-2,0.6c-1.1,1.9-2.1,3.9-3.2,5.7c-0.3,0.5-0.5,0.9-0.8,1.4
	c-4.1,7.4-8.3,15-12.1,22.7c-0.1,0.3-0.3,0.5-0.4,0.8c-0.4,0.7-0.1,1.6,0.6,2c0.2,0.1,0.4,0.1,0.6,0.1c0.5,0,1-0.3,1.3-0.8
	c0.3-0.7,0.7-1.4,1.1-2.2c3.8-7.6,8-15.2,12.1-22.6c1-1.9,2.1-3.7,3.1-5.6c0-0.1,0.1-0.1,0.1-0.2
	C3307.4,311.6,3307.3,310.6,3306.6,310.2z"/>
<path class="st6" d="M3258.2,285.1c0-11.6,5.5-27.9,15.7-35.4c0.1-0.1,0.2-0.1,0.3-0.2c0.6-0.5,0.8-1.4,0.4-2.1
	c-0.4-0.7-1.4-0.8-2-0.4c-1.6,1.1-3,2.4-4.4,3.9c-8.5,8.9-13,23.2-13,34.3c0,16.8,11,29.6,16.8,35c0.9,0.8,1.6,1.5,2.2,2
	c0.3,0.3,0.6,0.3,0.9,0.3c0.4,0,0.8-0.2,1.1-0.5c0.3-0.4,0.4-0.8,0.3-1.2c-0.1-0.3-0.3-0.7-0.5-0.8
	C3272,316.2,3258.2,303.1,3258.2,285.1z"/>
<path class="st6" d="M3299.6,288c0,6.8-2.7,18.9-10.2,31c-0.1,0.2-0.3,0.4-0.4,0.6c-0.4,0.7-0.3,1.6,0.4,2.1
	c0.3,0.2,0.5,0.3,0.8,0.3c0.4,0,0.9-0.3,1.2-0.7c0.9-1.3,1.6-2.7,2.5-4.1c5.4-9.7,8.7-20.7,8.7-29.2c0-12-4.9-28.3-12.9-37.2
	c-1.1-1.2-2.3-2.4-3.6-3.3c-0.6-0.5-1.6-0.3-2,0.3c-0.4,0.7-0.3,1.4,0.2,2c0.1,0.1,0.1,0.1,0.1,0.1
	C3291.7,255.3,3299.6,271.4,3299.6,288z"/>
<g>
	<path class="st5" d="M3899.1,3c0.3-0.2,0.5-0.4,0.7-0.6c0.1-0.1,0.2-0.1,0.2-0.2c-0.2,0.2-0.3,0.3-0.3,0.3c0.1,0,0.1-0.1,0.2-0.2
		c1-0.8,0.8-2.1-0.3-2.8c-1-0.6-2.6-0.5-3.3,0.4c-0.3,0-0.6,0.2-0.8,0.5c-0.1,0-0.1,0-0.1,0s0,0,0.1,0c-0.3,0.2-0.5,0.3-0.7,0.6
		c-0.6,0.8-0.1,1.7,0.6,2.3C3896.5,4,3898.2,3.7,3899.1,3z M3895.9,0.7C3895.9,0.8,3895.9,0.8,3895.9,0.7c-0.1,0.1-0.1,0.1-0.1,0.1
		l0,0C3895.8,1.1,3895.7,1,3895.9,0.7z"/>
	<path class="st5" d="M3899.8,2.4C3899.8,2.5,3899.8,2.5,3899.8,2.4L3899.8,2.4z"/>
	<path class="st5" d="M3895.6,0.3L3895.6,0.3L3895.6,0.3z"/>
	<path class="st4" d="M3907.1,12.9c0-1.6-1.5-2.9-3.4-3.1c-2-0.2-3.6,0.8-4.3,2.3c-0.2,0.3-0.3,0.7-0.4,1c-1.2-0.5-2.4-0.5-3.5,0.2
		c-0.4,0.2-0.5,0.6-0.2,0.9c0.1,0,0.1,0.1,0.1,0.2c0.1,0.2,0.4,0.3,0.5,0.5c0.4,0.4,0.8,0.9,1.1,1.4c0.3,0.5,0.5,1.1,0.6,1.7
		c0.1,0.3,0.2,0.6,0.3,0.9c0.1,0.1,0.1,0.3,0.1,0.4c0-0.3,0-0.3,0,0c0.1,1.3,1.1,2.5,2.7,2.8c0.5,0.1,1,0.1,1.5,0
		c1-0.7,1.9-1.4,2.9-2.1C3906.3,17.8,3907.1,15.3,3907.1,12.9z"/>
	<path class="st4" d="M3913.4,21.3c0.2-0.3,0.2-0.7,0.2-1c-1.8,3.6-5,6.8-9.4,9c-2.7,1.3-5.5-1.8-3.3-3.6c3.4-2.7,6.5-5.1,8.8-8.1
		c-0.5,0-0.9,0.2-1.3,0.4c-1,0.6-2,1.3-2.9,2c-1,0.7-1.9,1.4-2.9,2.1c-3.4,2.4-6.9,4.4-12,4.6c-8.7,0.3-17.5-3.6-20.3-10.6
		c-0.2-0.5-1.4-0.5-1.3,0.1c1,8.4,9.7,14.6,19.6,15.9C3898.3,33.5,3909.8,29.3,3913.4,21.3z"/>
	<path class="st4" d="M3900.7,25.7c-2.2,1.8,0.6,4.9,3.3,3.6c4.4-2.2,7.5-5.3,9.4-9c1.5-2.9,2.2-6.2,2-9.5c-0.1-1.1-2.4-1.5-2.6-0.3
		c-0.6,2.8-1.7,5.1-3.3,7.1C3907.2,20.6,3904.1,23,3900.7,25.7z"/>
	<path class="st6" d="M3875.4,22.2c0.5,0.4,1,0.7,1.5,1c0.2-0.3,0.4-0.5,0.6-0.8c0.3-0.4,0.9-0.5,1.3-0.3c-3.1-1.8-5.7-4.2-7.3-7.4
		c-0.2,0.1-0.5,0.3-0.7,0.4c-0.5,0.3-1.2,0.3-1.6-0.1c-0.4-0.4-0.4-1,0.2-1.3c0.5-0.3,0.9-0.6,1.3-0.8c-0.6-1.7-0.9-3.5-0.9-5.5
		c0-12.2,12.5-16.6,20.9-16.6c0.2,0,0.4,0,0.6,0c5.2,0.1,9.7,1.4,13.3,3.8c4.8,3.2,7.5,8.2,7.5,13.6c0,2.5-0.6,5-1.7,7.3
		c0.4,0.3,0.8,0.7,1.2,1c0.3,0.3,0.4,0.6,0.3,1c1.7-2.8,2.6-6,2.6-9.2c0-6-3-11.5-8.3-15.1c-3.9-2.7-8.9-4.1-14.7-4.3
		c-5.8-0.1-11.7,1.5-16.1,4.3c-3.6,2.4-7.9,6.8-7.9,14.2C3867.5,14.9,3871.8,19.6,3875.4,22.2z"/>
	<path class="st6" d="M3910.8,18.1c-0.3,0-0.6-0.1-0.8-0.3c-0.2-0.2-0.5-0.4-0.7-0.5c-3.2,4.7-9,8.1-17.4,8.1c-4.3,0-8.7-1-12.5-3
		c0.4,0.3,0.4,0.8,0.1,1.2c-0.2,0.3-0.4,0.5-0.6,0.8c3.9,1.9,8.5,3,13,3c9.7,0,16.4-4.1,19.8-9.7c-0.1,0-0.1,0.1-0.2,0.2
		C3911.4,18,3911.1,18.1,3910.8,18.1z"/>
	<path class="st6" d="M3901,20.7c0.2,0.1,0.5,0.2,0.7,0.2c0.4,0,0.7-0.1,0.9-0.4c0.4-0.4,0.3-1-0.2-1.3c-2.4-1.5-4.4-3.3-6.3-5.3
		c-0.4,0.2-0.8,0.4-1.2,0.5c-0.5,0.3-1.1,0.2-1.5-0.2C3895.7,16.6,3898.1,18.8,3901,20.7z"/>
	<path class="st6" d="M3887.1,6.7c2,2.5,4.1,5.1,6.4,7.6c-0.1,0-0.1-0.1-0.1-0.1c-0.4-0.5-0.2-1,0.4-1.3c0.3-0.2,0.6-0.3,0.9-0.5
		c-2-2.2-3.9-4.5-5.6-6.7c-0.4-0.5-0.9-1-1.3-1.6c-0.4-0.5-1.1-0.6-1.6-0.3c-5.3,2.8-10.5,5.8-15.3,9c-0.5,0.3-0.9,0.6-1.3,0.8
		c-0.5,0.3-0.6,0.9-0.2,1.3c0.4,0.4,1.1,0.5,1.6,0.1c0.2-0.1,0.5-0.3,0.7-0.4c4.7-3.1,9.7-6.1,14.8-8.8
		C3886.7,6.2,3886.9,6.5,3887.1,6.7z"/>
	<path class="st6" d="M3911.6,16.5c-0.4-0.3-0.8-0.7-1.2-1c-2.6-2.1-5-4.2-7.2-6.3c-0.4-0.4-1.1-0.5-1.5-0.2
		c-1.7,0.9-3.5,1.8-5.2,2.6c-0.6,0.3-1.1,0.5-1.7,0.8c-0.3,0.2-0.6,0.3-0.9,0.5c-0.6,0.3-0.7,0.9-0.4,1.3c0.1,0,0.1,0.1,0.1,0.1h0.1
		c0.4,0.3,1,0.4,1.5,0.2c0.4-0.2,0.8-0.4,1.2-0.5c0.5-0.2,0.9-0.5,1.4-0.7c1.5-0.7,3-1.4,4.5-2.2c2.2,2.1,4.6,4.2,7.2,6.3
		c0.2,0.2,0.5,0.4,0.7,0.5c0.2,0.1,0.5,0.3,0.8,0.3c0.3,0,0.6-0.1,0.9-0.3c0.1,0,0.1-0.1,0.2-0.2c0.1-0.1,0.1-0.2,0.2-0.3
		C3912,17.1,3911.9,16.7,3911.6,16.5z"/>
	<path class="st6" d="M3897.9,5.2c3.1,0,4.7-2.2,4.7-3.5c0-2.8-2.9-4.3-5.8-4.3c-0.7,0-1.3,0.1-1.9,0.4c-1.4,0.6-2.2,1.8-2.2,3.1
		C3892.6,3,3894.4,5.2,3897.9,5.2z M3896-0.4c0.3-0.1,0.5-0.2,0.8-0.2c1.2,0,3.5,0.5,3.5,2.4c0,0.3-0.6,1.5-2.4,1.5
		c-2.2,0-2.9-1.4-2.9-2.3C3894.9,0.6,3895.1-0.1,3896-0.4z"/>
</g>
<path class="st6" d="M4122,6.9c0.7-0.1,1.2-0.7,1.1-1.3c-0.1-0.3-0.1-0.6-0.1-0.9c0-4.8,4.4-9,9.4-9c4.1,0,6,3.3,7.1,6.3
	c0.3,0.6,0.6,1.6,1.7,1.5c1.1-0.2,1.1-0.9,1.1-3.3c0-5.5,4.7-9.2,9.1-9.2c4.8,0,6.8,7.9,6.8,11.9c0,0.7,0.5,1.2,1.2,1.2
	c0.7,0,1.2-0.5,1.2-1.2c0-0.8,0-2.3,3.8-2.3c3.8,0,4.6,3.5,4.6,6.4c-8.5,0.9-17.5,1.3-26.9,1.3c-5.2,0-10.5-0.1-16.1-0.4
	c-0.7-0.1-1.2,0.5-1.3,1.2s0.5,1.2,1.2,1.3c5.5,0.3,11,0.4,16.2,0.4c9.8,0,19.3-0.5,28.1-1.4c0.6-0.1,1.1-0.5,1.1-1.1
	c0.1-0.4,0.1-0.9,0.1-1.2c0-5.6-2.6-8.9-7-8.9c-1.9,0-3.2,0.4-4.1,0.9c-1-5.1-3.9-10.5-8.9-10.5c-5.9,0-10.2,4.4-11.2,9.2
	c-1.4-2.1-3.8-4.4-7.7-4.4c-6.4,0-11.9,5.3-11.9,11.5c0,0.4,0,0.8,0.1,1.1C4120.7,6.5,4121.3,7,4122,6.9z"/>
<path class="st4" d="M3210.6,10.5c2.8,1.2,5.6,2.8,8.5,4.1c2.2,0.9,4.4,1.8,6.7,2.2c1.3-0.1,2.7-0.3,4.1-0.7c4.5-1.4,2.6-7.8-1.9-7
	c-9.8,1.7-15.5-3.5-22.4-9.8c-0.8-0.7-2.4,0-1.9,1.2C3205,4,3207.5,7.6,3210.6,10.5z"/>
<path class="st4" d="M3210.6,10.5c-1.7-0.7-3.4-1.2-5.2-1.4c-0.9-0.1-1.3,1.2-0.8,1.8c9.5,10.1,25.6,21.6,38.6,10.6
	c4.5-3.8-1.2-10.3-6-7.8c-3.1,1.6-5.5,3.5-9.1,3.3c-0.8,0-1.5-0.2-2.3-0.2c-2.3-0.4-4.5-1.3-6.7-2.2
	C3216.2,13.3,3213.4,11.6,3210.6,10.5z"/>
<path class="st6" d="M3230.1,18.2c3.1,0,6.1-0.4,9.2-1.1c0.7-0.2,1.2-0.8,1.3-1.5c0.1-0.8-0.3-1.5-1-1.8
	c-14.6-7.1-18.4-21.9-18.4-28.7c0-5.6,1.6-11.5,4.8-16.8c0.4-0.6,0.3-1.5-0.2-2s-1.2-0.8-1.9-0.5c-13.6,4.8-23.1,17.4-23.1,30.4
	C3200.7,12.3,3218.7,18.2,3230.1,18.2z M3220.7-28.9c-2,4.6-3,9.5-3,14.1c0,6.8,3.5,20.8,16.1,29.3c-1.2,0.2-2.5,0.2-3.7,0.2
	c-10,0-25.8-5-25.8-18.5C3204.3-14,3210.9-23.8,3220.7-28.9z"/>
<g>
	<path class="st4" d="M3403.1,455.4c3.8,2.7,8,5.5,12.4,6.9c1.8,0.6,4.3,1.3,6.2,0.6c2.6-1,2.5-4.2,3.5-6.4c0.5-1.3,2.5-1.9,3.2-0.4
		c3.7,7.3-2.6,14.4-10,14.3s-16-3.9-20.3-10C3396.1,457.4,3400.2,453.3,3403.1,455.4z"/>
	<path class="st4" d="M3419.9,446.3c-0.6-1.6-3.5-2.1-3.8,0c-0.1,1-0.4,2-0.8,3c-0.1-0.1-0.1-0.1-0.3-0.3c-0.1-0.1-0.1-0.2-0.2-0.3
		c-0.4-0.6-0.7-1.2-1-1.8c-1-2.2-4-2.7-6-1.6c-1.9,1.1-2.9,4-1.6,6c2.5,3.6,6.7,7.6,11.2,5.1
		C3421.3,454.5,3421.2,449.8,3419.9,446.3z M3414.9,450.1C3414.9,450.1,3415,450.1,3414.9,450.1C3415,450.1,3415,450.1,3414.9,450.1
		z"/>
	<path class="st6" d="M3416.9,462.9c1.1-0.2,2.2-0.5,3.3-1c5.1-2,8.9-6.5,8.9-13.6c0-3.6-1.2-6.9-3.3-9.7c-2.2-2.7-4.9-4.3-8.5-4.8
		c-0.8-0.1-1.6-0.2-2.4-0.2c-1.7,0-3.4,0.3-5.1,0.8c-1,0.4-2.1,0.8-3.1,1.4c-1.1,0.7-2.2,1.5-3.1,2.5c-2.8,2.7-4.4,6.1-4.4,9.2
		c0,10.5,8.9,15.8,13.8,15.8C3414.4,463.3,3415.6,463.2,3416.9,462.9z M3413,459.9c-3.1,0-10.4-3.6-10.4-12.4
		c0-4.2,5.1-10.4,12.3-10.4c0.6,0,1.3,0.1,1.9,0.1c2.7,0.4,4.7,1.6,6.3,3.6c1.7,2.2,2.6,4.7,2.6,7.5
		C3425.7,453.9,3422.3,459.9,3413,459.9z"/>
	<path class="st6" d="M3413.7,455.4c5.1,0,7.4-3.5,7.4-6.9c0-1.6-0.5-3.2-1.6-4.5c-1-1.3-2.3-2-4-2.3c-0.4-0.1-0.7-0.1-1.1-0.1
		c-4.1,0-7.2,3.5-7.2,6.5C3407.2,453.3,3411.5,455.4,3413.7,455.4z M3410.6,448.1c0-1,1.4-3.1,3.8-3.1c0.2,0,0.4,0,0.6,0.1
		c0.8,0.1,1.3,0.4,1.9,1c0.7,0.8,0.8,1.7,0.8,2.3c0,2.2-1.5,3.5-3.9,3.5C3413.3,452,3410.6,451.3,3410.6,448.1z"/>
</g>
<g>
	<path class="st4" d="M3499.3-866.6C3497.8-868.2,3498.2-868.7,3499.3-866.6L3499.3-866.6z"/>
</g>
<g>
	<g>
		<path class="st7" d="M3414.4,473.3c-0.6,3.3-1.2,6.6-1.9,9.8"/>
		<path class="st8" d="M3410.1,492.9c-4.4,16.4-10.6,32-19.9,47.1c-9,15-22,24-37,32c-33,16-73,13-106-3c-1-1-3,0-4-1
			c-7-4-14-8-21-12c-5-3-9-6-13-9c-20-17-38-34-51-57c-4-6-8-11-10-18c-1-3-3-5-4-7c-8-19-13-39-14-60c-2-51,22-98,55-138
			c1-1,1-3,2-4c22-25,46-47,72-68c1-1,2-3,3-4c5-5,12-8,18-12c35-28,72-48,112-67c9-3,17-6,26-9c4-2,7-3,11-5c73-27,148-39,225-44
			c5-1,9-3,14-4c35-3,69-5,104-4c57,2,113,5,171,14c9,2,17,5,25,6c5,0,11,0,16,1c27,5,52,11,80,15c15,3,28,7,43,11c4,0,9,1,13,2
			c126,35,247,66,368,113c10,4,20,9,28,17c1,2,3,4,2,7c-0.8,1.8-1.9,3.1-3.3,4"/>
		<path class="st7" d="M4510.1,237.6c-3.3,0.6-7,0.3-10,0.3"/>
	</g>
</g>
<g>
	<g>
		<path class="st7" d="M3133.8,133.3c3.2,0.8,6.5,1.6,9.7,2.5"/>
		<path class="st9" d="M3152.9,138.3c40.6,11.2,80.2,25.9,118.2,46.7c3,2,6,5,9,7c15,9,29,18,42,30c1,1,3,1,4,2c17,15,30,30,44,49
			c29,42.6,41.6,88.6,45.3,136.8"/>
		<path class="st7" d="M3415.8,414.7c0.2,3.3,0.4,6.6,0.5,10"/>
	</g>
</g>
</svg>
