<?xml version="1.0" encoding="utf-8"?>
<!-- Generator: Adobe Illustrator 19.0.0, SVG Export Plug-In . SVG Version: 6.00 Build 0)  -->
<svg version="1.1" id="Capa_1" xmlns="http://www.w3.org/2000/svg" xmlns:xlink="http://www.w3.org/1999/xlink" x="0px" y="0px"
	 viewBox="-446 250.3 66.5 60.7" style="enable-background:new -446 250.3 66.5 60.7;" xml:space="preserve">
<style type="text/css">
	.st0{fill-rule:evenodd;clip-rule:evenodd;fill:#D2D9DB;}
	.st1{fill-rule:evenodd;clip-rule:evenodd;fill:#87D329;}
	.st2{fill:#1F4D69;stroke:#1F4D69;stroke-width:0.2136;stroke-miterlimit:10;}
	.st3{fill-rule:evenodd;clip-rule:evenodd;fill:none;stroke:#1F4D69;stroke-width:1.2413;stroke-miterlimit:10;}
	.st4{fill-rule:evenodd;clip-rule:evenodd;fill:#1F4D69;}
</style>
<g id="Capa_1_1_">
</g>
<g id="Capa_2">
</g>
<g>
	<g>
		<defs>
			<rect id="SVGID_1_" x="-438.9" y="255.6" width="43.7" height="56.2"/>
		</defs>
		<clipPath id="SVGID_2_">
			<use xlink:href="#SVGID_1_"  style="overflow:visible;"/>
		</clipPath>
	</g>
	<path class="st0" d="M-394.4,293.5c-5,2.7-10.5,4.6-15.9,6.4c-2.8,0.9-5.6,1.8-8.4,2.7c-0.6,0.2-1.1,0.3-1.7,0.5
		c0,0-0.3,0.1-0.4,0.1c0,0,0,0,0,0c0,0,0,0,0,0c0.1,0.1-0.1-0.3-0.1-0.3c-0.1-0.2-0.1-0.4-0.2-0.7c-0.2-0.5-0.3-1.1-0.5-1.6
		c-0.5-1.5-1-3-1.6-4.5c-1.1-3-2-6-2.8-9.1c-1.5-6.2-2.3-12.5-4.2-18.6c-0.3-0.9-0.9-1.4-1.7-1.5c1.8,0.1,3.6-0.5,5.2-1
		c2.5-0.9,5-2,7.4-3.1c1.9-0.9,4.1-1.6,6.2-2.5c0.2-0.1,0.4-0.1,0.5-0.2c0.3-0.1,0.6-0.2,0.8-0.3c0.2,0.4,0.6,0.8,1.1,0.6
		c1-0.4,2.1-0.7,3.2-1.2c0.4-0.2,0.6-0.5,0.7-0.8c0.3-0.2,0.5-0.4,0.8-0.7c0.1,0,0.2,0.1,0.3,0.1c0.6,0,0.9-0.4,1-1
		c0.1-0.7-0.2-1.5-0.5-2.2c-0.3-0.6-0.5-1.4-1.2-1.7c-0.3-0.1-0.6,0-0.8,0.1c0,0-0.1,0-0.1,0c0,0,0,0,0,0c-0.3-0.7-1-0.9-1.6-0.4
		c-0.5,0.4-1,0.8-1.6,1.2c-3.7,0.7-7.2,2.7-10.5,4.3c-4.4,2.1-9.2,3.6-12.9,7c-0.6,0.5-0.2,1.4,0.4,1.6c0.3,0.1,0.7,0.2,1,0.2
		c-1.3,0.1-2.6,1.2-2.1,2.8c1.9,6.4,2.8,13,4.3,19.4c0.8,3.2,1.9,6.4,3,9.5c0.9,2.3,1.4,5,2.6,7.2c1.1,2,3.2,2.3,5.3,2
		c2.8-0.5,5.5-1.6,8.2-2.5c5.9-1.9,11.8-3.9,17.4-6.6c0.6-0.3,1.2-0.6,1.8-0.9C-389.6,296-391.9,292.1-394.4,293.5z M-428.7,263.5
		c0.2,0.2,0.4,0.3,0.7,0.3c0.5,0,1-0.1,1.4-0.2c0,0,0,0,0,0c-1.3,0.5-2.7,1-4.2,1.2C-430.1,264.3-429.4,263.9-428.7,263.5z"/>
	<path class="st1" d="M-411.1,282.6c-0.1-0.3-0.3-0.4-0.6-0.5c0,0,0,0,0,0c-0.1-0.3-0.3-0.6-0.6-0.8c-0.1-0.6-0.3-1.1-0.5-1.6
		c0.3-0.4,0.5-0.8,0.5-1.3c0-0.6-0.5-1.2-1-1.3c-0.4-0.1-0.7,0-1.1,0c-0.2,0-0.6-0.3-0.9-0.5c0.2-0.4,0.3-0.9,0.4-1.3
		c0-0.2,0-0.3,0-0.5c0.1,0,0.3-0.1,0.4-0.2c0.4-0.3,0.7-0.8,0.8-1.3c0-0.1,0.1-0.3,0-0.4c0.1-0.1,0.2-0.2,0.4-0.3
		c0.6-0.6,0.2-1.7-0.7-1.6c0,0,0,0,0,0c-0.2-0.1-0.4-0.2-0.6-0.2c-0.6,0-1.3,0.3-1.8,0.7c-0.8,0.1-1.2,1.2-0.6,1.7
		c0,0.1,0.1,0.2,0.1,0.3c-0.2,0.4-0.3,0.8-0.3,1.2c0,0.1,0,0.3,0.1,0.4c0,0.1-0.1,0.2-0.1,0.3c-0.1,0.3-0.1,0.5,0.1,0.7
		c-0.6-0.1-1.1,0.2-1.5,0.6c0,0,0,0-0.1,0c-0.7,0.3-1.4,0.8-2,1.2c-1,0.7-0.2,2.2,1,1.7c0.3-0.1,0.5-0.3,0.8-0.4c0.1,0,0.1,0,0.2,0
		c0.5-0.1,0.9-0.3,1.3-0.5c0.4-0.2,0.7,0,1.1,0c0.2,0,0.4,0,0.5-0.1c0.3,0.2,0.6,0.3,0.9,0.5c0.1,0,0.2,0,0.2,0
		c-0.3,0.4-0.7,0.8-0.8,1.3c-0.8,0.2-1.4,1.1-1.2,1.8c0.1,0.3,0.3,0.5,0.5,0.7c0.1,0.1,0.1,0.1,0.2,0.2c0,0,0,0,0,0
		c0.3,0.3,0.9,0.5,1.5,0.5c0.1,0.1,0.3,0.2,0.5,0.3c0.4,0.5,0.9,0.6,1.3,0.5c0.1,0,0.1,0,0.2,0
		C-411.4,284.4-410.6,283.6-411.1,282.6z"/>
	<g>
		<path class="st2" d="M-417.5,294.1C-417.6,294.1-417.6,294.1-417.5,294.1c-0.1-0.2-0.1-0.2,0-0.2c0.1-0.1,0.2-0.1,0.4-0.1
			c0.1,0,0.3,0,0.4,0c0.1,0,0.2,0.1,0.4,0.1c0.3,0.1,0.5,0.3,0.6,0.6c0.1,0.3,0.2,0.5,0.1,0.8c0,0.2-0.1,0.3-0.3,0.6l-0.2,0.2
			c-0.1,0.1-0.1,0.1-0.1,0.1c0,0,0,0,0,0c0,0,0,0,0,0c0,0,0,0,0,0c0,0,0,0,0,0c0,0,0,0,0,0l0.3,0.8c0.2,0.5,0.4,0.9,0.5,1.3
			c0,0.1,0,0.1-0.1,0.1c-0.1,0-0.1,0-0.1-0.1c-0.1-0.4-0.3-0.8-0.5-1.3c-0.2-0.6-0.4-0.9-0.4-1.1c0-0.1-0.1-0.3-0.2-0.6
			c-0.1-0.3-0.1-0.4-0.1-0.5C-417.3,294.6-417.4,294.3-417.5,294.1C-417.5,294.1-417.5,294.1-417.5,294.1z M-417.2,294.2
			c0.1,0.2,0.2,0.5,0.3,0.8c0,0,0.1,0.2,0.2,0.6c0,0,0,0.1,0,0.1c0,0,0,0.1,0,0.1c0,0,0,0.1,0,0.1c0,0.1,0.1,0.2,0.1,0.2
			c0,0,0,0,0.1-0.1c0,0,0,0,0.1-0.1c0.2-0.2,0.4-0.5,0.4-0.6c0-0.2,0-0.4,0-0.5c-0.1-0.2-0.2-0.3-0.3-0.4c-0.1-0.1-0.2-0.2-0.4-0.2
			c-0.1,0-0.3-0.1-0.4,0c-0.1,0-0.1,0-0.1,0.1C-417.2,294.1-417.2,294.1-417.2,294.2z"/>
		<path class="st2" d="M-414.3,298.1c0-0.2-0.1-0.5-0.2-1c0-0.1-0.1-0.3-0.1-0.5c-0.2-0.8-0.3-1.4-0.4-1.7c-0.1-0.3-0.1-0.6-0.1-0.9
			c-0.1-0.5,0-0.8,0.1-0.9c0.2-0.3,0.5-0.2,0.7,0.2c0.2,0.2,0.3,0.4,0.4,0.7c0.6,1.2,1.1,2.4,1.5,3.6c0,0.1,0,0.1-0.1,0.1
			c-0.1,0-0.1,0-0.1-0.1c-0.3-0.8-0.6-1.5-0.9-2.3c0-0.1-0.1-0.1-0.2-0.1c-0.2,0-0.4,0.1-0.7,0.2c-0.1,0-0.1,0.1-0.1,0.2
			c0.3,1.4,0.5,2.2,0.6,2.4c0,0,0,0.1,0,0.1C-414.1,298.2-414.2,298.2-414.3,298.1C-414.3,298.2-414.3,298.1-414.3,298.1z
			 M-414.8,295.1c0,0,0,0.1,0.1,0.1s0,0,0.1,0s0.1,0,0.1,0c0.3-0.1,0.5-0.1,0.6-0.2c0,0,0.1,0,0.1,0c0,0,0,0,0-0.1c0,0,0-0.1,0-0.1
			c0-0.1-0.2-0.4-0.5-1c0,0,0,0,0,0c0-0.1-0.1-0.2-0.1-0.2c0-0.1-0.1-0.1-0.1-0.2c-0.1-0.1-0.1-0.1-0.2-0.2c0,0-0.1,0-0.1,0
			c-0.1,0-0.1,0.1-0.1,0.2c0,0,0,0.1,0,0.1c0,0.1,0,0.3,0,0.5C-414.9,294.5-414.8,294.8-414.8,295.1z"/>
		<path class="st2" d="M-413.5,293.6c-0.1-0.3,0-0.6,0.1-0.8c0.1-0.3,0.3-0.4,0.6-0.5c0.3-0.1,0.5,0,0.7,0.1
			c0.2,0.2,0.3,0.5,0.4,0.9c0,0.1,0,0.1-0.1,0.1c-0.1,0-0.1,0-0.1-0.1c0-0.3-0.1-0.5-0.3-0.7c-0.2-0.1-0.3-0.2-0.5-0.1
			c-0.2,0.1-0.4,0.2-0.5,0.4c-0.1,0.2-0.1,0.4-0.1,0.7c0.1,0.3,0.2,0.5,0.4,0.6c0.1,0.1,0.3,0.2,0.6,0.3c0.2,0.1,0.5,0.2,0.6,0.3
			c0.2,0.1,0.4,0.2,0.6,0.4c0.2,0.2,0.3,0.4,0.4,0.6c0.2,0.4,0.2,0.7,0.1,0.9c-0.1,0.3-0.3,0.4-0.6,0.5c-0.3,0.1-0.6,0-0.8-0.2
			c-0.3-0.2-0.5-0.5-0.6-0.9c0,0,0-0.1,0-0.1c0,0,0,0,0.1-0.1c0,0,0.1,0,0.1,0c0,0,0,0,0.1,0.1c0.1,0.3,0.3,0.6,0.5,0.8
			c0.2,0.2,0.4,0.2,0.7,0.2c0.2,0,0.3-0.2,0.4-0.4c0.1-0.2,0-0.5-0.1-0.7c-0.1-0.1-0.1-0.2-0.2-0.3c-0.1-0.1-0.2-0.2-0.2-0.3
			c-0.1-0.1-0.2-0.1-0.3-0.2c-0.1-0.1-0.2-0.1-0.3-0.2c-0.1,0-0.2-0.1-0.3-0.1c-0.3-0.1-0.6-0.3-0.8-0.4
			C-413.2,294.2-413.4,293.9-413.5,293.6z"/>
		<path class="st2" d="M-410,296.7c0-0.2-0.1-0.5-0.2-1c0-0.1-0.1-0.3-0.1-0.5c-0.2-0.8-0.3-1.4-0.4-1.7c-0.1-0.3-0.1-0.6-0.1-0.9
			c-0.1-0.5,0-0.8,0.1-0.9c0.2-0.3,0.5-0.2,0.7,0.2c0.2,0.2,0.3,0.4,0.4,0.7c0.6,1.2,1.1,2.4,1.5,3.6c0,0.1,0,0.1-0.1,0.1
			c-0.1,0-0.1,0-0.1-0.1c-0.3-0.8-0.6-1.5-0.9-2.3c0-0.1-0.1-0.1-0.2-0.1c-0.2,0-0.4,0.1-0.7,0.2c-0.1,0-0.1,0.1-0.1,0.2
			c0.3,1.4,0.5,2.2,0.6,2.4c0,0,0,0.1,0,0.1C-409.8,296.8-409.8,296.8-410,296.7C-409.9,296.7-410,296.7-410,296.7z M-410.4,293.6
			c0,0,0,0.1,0.1,0.1c0,0,0,0,0.1,0c0,0,0.1,0,0.1,0c0.3-0.1,0.5-0.1,0.6-0.2c0,0,0.1,0,0.1,0c0,0,0,0,0-0.1c0,0,0-0.1,0-0.1
			c0-0.1-0.2-0.4-0.5-1c0,0,0,0,0,0c0-0.1-0.1-0.2-0.1-0.2c0-0.1-0.1-0.1-0.1-0.2c-0.1-0.1-0.1-0.1-0.2-0.2c0,0-0.1,0-0.1,0
			c-0.1,0-0.1,0.1-0.1,0.1c0,0,0,0.1,0,0.1c0,0.1,0,0.3,0,0.5C-410.6,293-410.5,293.4-410.4,293.6z"/>
		<path class="st2" d="M-409.4,291.4C-409.4,291.4-409.4,291.3-409.4,291.4c-0.1-0.2-0.1-0.2,0-0.2c0.1-0.1,0.2-0.1,0.4-0.1
			c0.1,0,0.3,0,0.4,0c0.1,0,0.2,0.1,0.4,0.1c0.3,0.1,0.5,0.3,0.6,0.6c0.1,0.3,0.2,0.5,0.1,0.8c0,0.2-0.1,0.3-0.3,0.6l-0.2,0.2
			c-0.1,0.1-0.1,0.1-0.1,0.1c0,0,0,0,0,0c0,0,0,0,0,0c0,0,0,0,0,0c0,0,0,0,0,0c0,0,0,0,0,0l0.3,0.8c0.2,0.5,0.4,0.9,0.5,1.3
			c0,0.1,0,0.1-0.1,0.1c-0.1,0-0.1,0-0.1-0.1c-0.1-0.4-0.3-0.8-0.5-1.3c-0.2-0.6-0.4-0.9-0.4-1.1c0-0.1-0.1-0.3-0.2-0.6
			c-0.1-0.3-0.1-0.4-0.1-0.5C-409.1,291.9-409.2,291.6-409.4,291.4C-409.4,291.4-409.4,291.4-409.4,291.4z M-409,291.5
			c0.1,0.2,0.2,0.5,0.3,0.8c0,0,0.1,0.2,0.2,0.6c0,0,0,0.1,0,0.1c0,0,0,0.1,0,0.1c0,0,0,0.1,0,0.1c0,0.1,0.1,0.2,0.1,0.2
			c0,0,0,0,0.1-0.1c0,0,0,0,0.1-0.1c0.2-0.2,0.4-0.5,0.4-0.6c0-0.2,0-0.4,0-0.5c-0.1-0.2-0.2-0.3-0.3-0.4c-0.1-0.1-0.2-0.2-0.4-0.2
			c-0.1,0-0.3-0.1-0.4,0c-0.1,0-0.1,0-0.1,0.1C-409.1,291.4-409.1,291.4-409,291.5z"/>
		<path class="st2" d="M-407.4,290.9c0-0.1,0.1-0.3,0.2-0.4c0.1-0.1,0.2-0.2,0.3-0.3c0.3-0.2,0.6-0.1,0.9,0.3c0.1,0.2,0.3,0.5,0.5,1
			c0.5,1.2,0.7,2.1,0.7,2.7c0,0.4,0,0.6-0.2,0.8c-0.2,0.2-0.4,0.3-0.7,0.1c-0.2-0.1-0.4-0.3-0.6-0.6c-0.2-0.3-0.4-0.6-0.6-1
			c-0.2-0.4-0.4-0.8-0.5-1.3C-407.4,291.7-407.4,291.2-407.4,290.9z M-407.1,290.9c-0.1,0.3,0,0.7,0.1,1.2c0.1,0.5,0.3,0.9,0.5,1.3
			c0.2,0.4,0.4,0.7,0.5,0.9c0.2,0.3,0.4,0.5,0.5,0.5c0.1,0.1,0.2,0.1,0.3,0c0.2-0.2,0.2-0.8-0.1-1.7c-0.1-0.3-0.3-1-0.7-2
			c-0.1-0.1-0.1-0.3-0.2-0.4c-0.1-0.1-0.1-0.2-0.2-0.3c-0.1-0.1-0.2-0.2-0.3-0.2c-0.1,0-0.2,0-0.3,0.1c-0.1,0-0.1,0.1-0.2,0.2
			C-407.1,290.7-407.1,290.8-407.1,290.9z"/>
		<path class="st2" d="M-404,294.1c-0.2-0.5-0.3-1-0.4-1.2c-0.3-1.1-0.6-2-1-2.8c0,0,0,0,0-0.1c0,0,0-0.1,0-0.1c0,0,0,0,0-0.1
			c0,0,0-0.1,0-0.1c0.6-0.4,1.1-0.4,1.5-0.1c0.2,0.1,0.3,0.3,0.4,0.6c0.1,0.3,0,0.5-0.1,0.8c-0.1,0.3-0.3,0.6-0.6,0.9c0,0,0,0,0,0
			c0,0,0,0,0,0c0.3,0.2,0.7,0.7,1.2,1.3c0.2,0.2,0.3,0.4,0.5,0.6c0,0,0,0.1,0,0.1c0,0,0,0.1-0.1,0.1c0,0-0.1,0-0.1,0
			c-0.2-0.1-0.3-0.3-0.5-0.6c-0.7-0.8-1.1-1.2-1.2-1.3l0,0c0,0,0,0,0,0c0,0.2,0,0.2,0,0.3c0,0,0,0.1,0.1,0.2c0,0.1,0,0.2,0.1,0.2
			c0,0,0,0,0,0.1c0,0,0,0.1,0,0.1c0,0.1,0,0.1,0.1,0.2c0.1,0.3,0.2,0.5,0.2,0.8c0,0.1,0.1,0.3,0.2,0.4c0,0,0,0.1,0,0.1
			c0,0,0,0.1-0.1,0.1c0,0-0.1,0-0.1,0c0,0-0.1,0-0.1-0.1C-403.9,294.4-404,294.3-404,294.1z M-405.1,290c0.2,0.5,0.4,1,0.6,1.6
			c0,0.1,0.1,0.2,0.1,0.1l0.1-0.1c0.2-0.2,0.4-0.4,0.5-0.7c0.1-0.3,0.1-0.5,0.1-0.7c-0.1-0.2-0.2-0.4-0.3-0.5
			c-0.3-0.2-0.6-0.2-1-0.1C-405.1,289.9-405.1,289.9-405.1,290z"/>
		<path class="st2" d="M-403.5,289.4C-403.5,289.3-403.5,289.3-403.5,289.4c0-0.1,0-0.1,0.1-0.2c0.2-0.1,0.5-0.2,0.9-0.3
			c0.5-0.1,0.8-0.2,0.9-0.3c0,0,0.1,0,0.1,0c0,0,0.1,0,0.1,0.1c0,0,0,0.1,0,0.1c0,0,0,0.1-0.1,0.1c-0.2,0.1-0.5,0.2-0.9,0.3
			c0.1,0.2,0.2,0.5,0.3,0.8c0,0,0,0.1,0,0.1c0,0.1,0,0.1,0,0.1c0,0,0,0,0,0.1c0.1,0.2,0.2,0.5,0.3,1c0.3,1.1,0.6,1.8,0.8,2.2
			c0,0,0,0.1,0,0.1c0,0-0.1,0.1-0.1,0.1c0,0-0.1,0-0.1-0.1c-0.2-0.4-0.5-1.2-0.8-2.3c-0.1-0.5-0.2-0.8-0.3-1c0-0.1-0.1-0.2-0.1-0.3
			c-0.1-0.3-0.2-0.6-0.3-0.7c0,0-0.1,0-0.2,0c-0.1,0-0.3,0.1-0.5,0.2C-403.3,289.4-403.4,289.4-403.5,289.4
			C-403.4,289.4-403.5,289.4-403.5,289.4z"/>
		<path class="st2" d="M-401,288.6c0-0.2,0-0.3,0-0.4c0,0,0.1-0.1,0.2-0.1l1-0.3c0.1,0,0.1,0,0.2,0.1c0,0.1,0,0.1-0.2,0.2
			c0,0-0.2,0.1-0.4,0.1c-0.3,0.1-0.4,0.1-0.5,0.1c-0.1,0-0.1,0-0.1,0l0,0c0,0,0,0,0,0l0,0c0,0,0,0,0,0s0,0,0,0c0,0,0,0,0,0
			c0,0,0,0,0,0c0,0,0,0,0,0c0,0.1,0.1,0.4,0.3,0.8c0.2,0.4,0.3,0.7,0.3,0.8c0,0.1,0,0.1,0.1,0.1c0,0,0.1,0,0.1,0c0,0,0.1,0,0.1,0
			c0,0,0.1,0,0.1,0c0,0,0.1,0,0.1,0c0,0,0.1,0,0.1,0c0,0,0,0,0,0.1c0,0.1,0,0.1-0.1,0.2c-0.1,0-0.1,0.1-0.3,0.1c0,0-0.1,0-0.1,0
			c0,0,0,0,0,0.1c0,0,0,0.1,0,0.1c0.2,0.8,0.4,1.4,0.6,1.8c0,0.1,0.1,0.2,0.1,0.3c0,0,0,0,0,0l0,0l0-0.1c0,0.1,0.1,0.1,0.2,0.1
			c0,0,0.2,0,0.4-0.1c0.3-0.1,0.4-0.2,0.5-0.2c0.1,0,0.1,0,0.1,0.1c0,0.1,0,0.1-0.1,0.1c0,0-0.2,0.1-0.5,0.2
			c-0.3,0.1-0.5,0.1-0.6,0.1c-0.1,0-0.1-0.1-0.2-0.2c-0.1-0.1-0.1-0.2-0.2-0.3c-0.2-0.4-0.4-1.2-0.7-2.4c-0.1-0.2-0.1-0.4-0.3-0.7
			C-400.8,289.2-400.9,288.8-401,288.6z"/>
	</g>
	<path class="st3" d="M-405.6,255.7c0,0,0.3-4.2-2.3-3.5c-2.6,0.7-26.2,12.2-26.2,12.2s-2.9,3.8,4.3,1.7c7.2-2,26.5-9.7,27.5-9.3
		c1,0.4,11.1,39.2,11.1,39.2s-0.6,1.3-3,2.5c-2.5,1.2-27.1,9.6-27.1,9.6s-2.3,1.2-3.3-1.9c-1-3-9.4-38.1-9.4-38.1"/>
	<path class="st4" d="M-412.7,270.4c2.1,0,3.7,1.4,5.4,2.8c0.2,0.2,0.4,0.4,0.5,0.6c0.3,1.3,0.7,2.5,0.9,3.8
		c0.4,2.4-0.6,4.3-2.5,5.5c-2.5,1.6-5.2,2.7-8.4,2.2c-1.5-0.3-2.4-1.1-3.1-2.2c-2.1-3.3-2.1-6.9,0.1-10.2c1.4-2.1,3.5-2.9,6-2.7
		C-413.6,270.3-413.3,270.3-412.7,270.4 M-413.7,271.3c-0.6,0-1,0-1.5,0c-1.6,0-2,0.5-1.7,2c0.6,3.1,0.5,3.3-2.7,4.1
		c-0.5,0.1-0.9,0.3-0.7,0.9c0.1,0.3,0.5,0.8,0.8,0.8c0.6,0,1.1-0.3,1.7-0.4c0.6-0.2,1.3-0.4,1.9-0.4c0.8,0,1.4,0.8,1.5,1.5
		c0.1,0.8-0.4,1-1,1.3c-0.3,0.1-0.5,0.3-0.9,0.5c0.1,0.4,0.1,0.8,0.3,1c0.8,0.6,1.7,1.2,2.7,1.8c0.7-0.3,1.5-0.6,2.4-1
		c-0.4-0.3-0.5-0.3-0.7-0.4c-1.7-0.9-1.8-1.2-1.2-3.1c0.2-0.6,0.2-1.3,0.3-1.9c-0.3,0-0.5,0-0.6,0c-1.1,0.1-1.9-0.3-2.3-1.3
		c-0.4-0.8-0.1-1.6,0.5-2.3c0.3-0.3,0.5-0.6,0.7-0.9C-413.7,272.8-413.2,272.2-413.7,271.3 M-412.5,271.6c-0.1,1.3-0.7,2.3-1.5,3.1
		c-0.3,0.3-0.4,1-0.3,1.5c0.1,0.6,0.7,0.6,1.3,0.6c1.2,0,1.5,0.3,1.4,1.4c0,0.4-0.1,0.9-0.2,1.3c-0.5,2-0.5,2,1.4,2.8
		c0.2,0.1,0.3,0.2,0.4,0.2c0.3,0,0.6,0.1,0.8,0c1.2-0.5,2.1-2.2,2-3.9c-0.5,0.2-1,0.4-1.5,0.5c-1,0.4-1.4,0.2-1.8-0.7
		c-0.2-0.4-0.4-0.7-0.6-1.1c-0.7-1-0.6-1.9,0.4-2.3c1-0.4,1.3-1.2,1.5-2.1C-410.1,272.2-411.1,271.5-412.5,271.6 M-415.3,279.9
		c-0.5-0.8-1.1-0.8-1.8-0.5c-1,0.4-2,0.7-3,1.1c0.5,2.7,1.9,3.9,4.7,3.8C-417.6,283-417.7,280.9-415.3,279.9 M-409.1,278.3
		c0.7-0.3,1.4-0.5,2.1-0.8c-0.4-1.1-0.2-2.4-1.2-3.1c-0.8,0.7-1.6,1.3-2.2,1.9C-410,276.8-409.5,277.5-409.1,278.3 M-418.2,272.4
		c-1.1,1.4-2.2,2.4-2.2,4.1c0.4,0,0.7,0,1.1,0c0.2,0,0.4,0,0.7-0.1c1.1-0.3,1.4-0.7,1.1-1.8C-417.7,274-417.9,273.3-418.2,272.4"/>
</g>
</svg>
