<?xml version="1.0" encoding="utf-8"?>
<!-- Generator: Adobe Illustrator 19.0.0, SVG Export Plug-In . SVG Version: 6.00 Build 0)  -->
<svg version="1.1" id="Capa_1" xmlns="http://www.w3.org/2000/svg" xmlns:xlink="http://www.w3.org/1999/xlink" x="0px" y="0px"
	 viewBox="954.5 286.3 66.5 60.7" style="enable-background:new 954.5 286.3 66.5 60.7;" xml:space="preserve">
<style type="text/css">
	.st0{fill:#FA8510;}
	.st1{fill-rule:evenodd;clip-rule:evenodd;fill:#FFFFFF;}
	.st2{fill:#D2D9DB;}
	.st3{fill:none;stroke:#1F4D69;stroke-width:1.1411;stroke-miterlimit:10;}
	.st4{fill:#FFFFFF;stroke:#1F4D69;stroke-width:0.7981;stroke-miterlimit:10;}
	.st5{fill:#FFFFFF;stroke:#1F4D69;stroke-width:1.1411;stroke-miterlimit:10;}
	.st6{fill:none;stroke:#000000;stroke-width:1.3967;stroke-miterlimit:10;}
	.st7{fill:#FFB872;}
	.st8{fill:#87D329;}
	.st9{fill:none;stroke:#1F4D69;stroke-width:1.3325;stroke-miterlimit:10;}
	.st10{fill:none;stroke:#1F4D69;stroke-width:1.3325;stroke-linecap:round;stroke-miterlimit:10;}
	.st11{fill:none;stroke:#1F4D69;stroke-width:1.3325;stroke-linecap:round;stroke-miterlimit:10;stroke-dasharray:2.8905,2.8905;}
</style>
<g id="Capa_1_1_">
</g>
<g id="Capa_2">
</g>
<g id="XMLID_793_">
	<path id="XMLID_817_" class="st0" d="M908.3,322.7c0-0.8-0.4-1.5-0.7-2.2c-0.4-0.9-1.4-1.3-2.3-1.3c-0.6-0.3-1.3-0.4-2-0.3
		c-0.2,0-0.5,0.1-0.7,0.3c-0.9,0-1.7,0.5-2.2,1.3c-0.5,0.8-0.5,1.8-0.1,2.6c0,0,0,0.1,0,0.1c-0.3,0.7-0.1,1.7,0.2,2.3
		c0.1,0.2,0.2,0.3,0.4,0.5c0.2,0.3,0.5,0.6,0.9,0.7c0.7,0.3,1.4,0.5,2.3,0.5c0.7,0,1.4-0.1,2-0.4c0,0,0,0,0.1,0c0.1,0,0.1,0,0.2-0.1
		c0.2-0.1,0.4-0.2,0.5-0.4c0,0,0,0,0,0c0,0,0.1-0.1,0.1-0.1c0.3-0.3,0.6-0.7,0.7-1.2c0-0.1,0.1-0.3,0.1-0.4
		C908.1,324,908.3,323.4,908.3,322.7z"/>
	<path id="XMLID_814_" class="st1" d="M921.7,344.9c-4.5-2.2-8-5.9-12.6-7.9c-0.2-0.1-0.4-0.1-0.6-0.2c-0.4-0.4-0.9-0.7-1.5-0.6
		c-0.3,0-0.6,0.1-0.9,0.1c-0.3,0-0.7-0.1-1-0.2c-0.6-2.4-2.9-4.4-4.6-6c-0.6-0.6-1.6-0.8-2.4-0.4c-0.1-0.1-0.2-0.1-0.3-0.2
		c-0.6-0.9-1.9-1.5-2.9-0.8c-0.1,0.1-0.2,0.1-0.3,0.2c-0.4,0.2-0.9,0.5-1.3,0.7c-0.1,0-0.2,0-0.3,0.1c-2.3,0.7-4.6,1.4-6.8,2.2
		c-1,0.4-2.1,0.9-3.2,1.3c-0.2,0-0.3,0-0.5,0.1c-0.7,0.2-1.4,0.4-2.1,0.5c-2.3,0.4-1.8,4.3,0.5,4.1c0.3,0.2,0.6,0.2,1,0.2
		c0.3,0.3,0.7,0.6,1.1,0.8c0.1,0.3,0.2,0.7,0.5,0.9c0.9,0.9,2,1.7,3,2.4c1.1,0.7,2.2,1.4,3.4,2c0.1,0.1,0.1,0.1,0.2,0.2
		c1.6,1.5,3.3,2.8,5.1,3.9c0.4,0.2,0.8,0.5,1.2,0.7c0.1,0,0.1,0.1,0.2,0.1c0.1,0.1,0.2,0.1,0.2,0.2c1.7,1.4,3.5,2.9,5.1,4.4
		c0.4,0.3,0.8,0.5,1.2,0.6c0.2,0.3,0.5,0.6,0.7,0.9c0.8,0.9,2.1,1.3,3.4,1.2c1.7-0.2,3.4-1.2,4.3-2.7c3.3-1.6,6.2-3.9,9.7-4.9
		C922.8,348.3,923.4,345.8,921.7,344.9z M915.8,346.3c0.1,0,0.1,0.1,0.2,0.1c-0.1,0-0.1,0.1-0.2,0.1
		C915.8,346.5,915.8,346.4,915.8,346.3z"/>
	<path id="XMLID_813_" class="st2" d="M909.4,341.8c-0.5-0.8-1.3-1.4-2.1-1.9c-0.7-0.5-1.4-1-2.2-1.1c-1.1-0.2-2.2,0.1-2.9,0.7
		c-0.2,0-0.4,0-0.6,0.1c-0.1,0-0.3,0-0.4,0c-1.1,0.1-2.2,0.3-3,1.1c-0.8,0.8-1.1,1.9-0.8,2.9c0.4,1.6,2.2,2.7,3.6,3.3
		c2,0.8,3.8,1.1,5.8,0.3c1.1-0.4,2-1,2.7-2C910.2,344.2,910,342.8,909.4,341.8z"/>
	<g id="XMLID_809_">
		<path id="XMLID_811_" class="st2" d="M932.3,348.9c-0.2-1.3-1.8-2-2.9-1.7c-1.3,0.4-1.9,1.5-1.7,2.8c0,0,0,0,0,0c0,0,0,0,0-0.1
			c0,0,0,0.1,0,0.1c0,0.1,0,0.2-0.1,0.3c0,0,0,0,0,0c-0.1,0.3-0.3,0.6-0.5,0.8c0,0,0,0,0,0c0,0,0,0-0.1,0.1
			c-0.2,0.2-0.3,0.4-0.5,0.6c-0.6,0.6-1.2,1.2-1.9,1.7c-0.6,0.5-1.2,1-2.1,1.6c-2.8,1.9-5.8,3.5-8.6,5.4c-1.9,1.3-3.6,2.8-5.8,2.3
			c-2.4-0.6-4.5-2.4-6.4-4c-2.2-1.8-4.5-3.6-6.7-5.5c-2.3-2-4.5-4.1-6.8-6.1c-2.4-2.1-5-3.9-7.6-5.8c-2.2-1.5-4.2-3.2-5.5-5.7
			c-1.5-2.7-5.6-0.3-4.1,2.4c2.6,4.7,7.3,7.1,11.4,10.3c2.3,1.7,4.4,3.8,6.6,5.8c2.3,2.1,4.7,4.2,7.1,6.1c4.3,3.3,8.8,8.2,14.7,7.1
			c2.4-0.4,4.4-2.2,6.4-3.4c1.3-0.8,2.6-1.5,3.8-2.3c2.7-1.7,5.5-3.4,7.8-5.6C930.9,354.3,932.9,351.8,932.3,348.9z"/>
		<path id="XMLID_810_" class="st2" d="M927.7,349.9C927.6,349.8,927.6,349.6,927.7,349.9L927.7,349.9z"/>
	</g>
	<path id="XMLID_808_" class="st3" d="M871.6,337.8c-0.8-0.8-0.3-5.2,0.5-6l20.8-7.2c0.8-0.8,2-0.8,2.8,0l36.2,23
		c0.8,0.8,0.8,5.6,0,6.4l-21.4,14.2c-0.8,0.8-2,0.8-2.8,0L871.6,337.8z"/>
	<path id="XMLID_807_" class="st3" d="M910.4,365.1c-0.8,0.8-2,0.8-2.8,0l-36-30.8c0,0-0.4,3.2,0.4,4l35.6,29.8c0.8,0.8,2,0.8,2.8,0
		l21.4-14c0.8-0.8,0.7-3.8,0.7-3.8"/>
	<path id="XMLID_806_" class="st3" d="M879.3,336.4c-0.6-0.6-0.6-1.5,0-2.1l15.1-5.3c0.6-0.6,1.5-0.6,2.1,0l26.3,16.8
		c0.6,0.6,0.6,1.5,0,2.1l-15.8,8.4c-0.6,0.6-1.5,0.6-2.1,0L879.3,336.4z"/>
	<path id="XMLID_805_" class="st4" d="M922.5,352.2c0.3,0.4,0.1,1-0.3,1.3l-4,2.4c-0.4,0.3-1,0.1-1.3-0.3l0-0.1
		c-0.3-0.4-0.1-1,0.3-1.3l4-2.4C921.6,351.5,922.2,351.7,922.5,352.2L922.5,352.2z"/>
	<g id="XMLID_795_">
		<g id="XMLID_801_">
			<path id="XMLID_802_" class="st5" d="M904.1,313.1c-5.7,0-10.3,4.6-10.3,10.3c0,5.7,10.3,19.6,10.3,19.6s10.3-13.9,10.3-19.6
				C914.4,317.7,909.8,313.1,904.1,313.1z M904.1,326.9c-2.2,0-3.9-1.8-3.9-3.9c0-2.2,1.8-3.9,3.9-3.9c2.2,0,3.9,1.8,3.9,3.9
				C908,325.2,906.2,326.9,904.1,326.9z"/>
		</g>
	</g>
	<path id="XMLID_794_" class="st6" d="M925,351.7"/>
</g>
<g>
	<path class="st2" d="M990.8,295c-0.4-0.4-0.9-0.3-1.3,0c-0.1,0.1-0.1,0.1-0.2,0.2c0,0,0,0-0.1,0c-0.2-0.1-0.5-0.1-0.8,0.1
		c-0.4,0.2-0.6,0.8-0.3,1.2c0.3,0.5,0.9,0.7,1.5,0.5c0.4-0.1,0.8-0.5,1.2-0.8C991.1,295.9,991.1,295.3,990.8,295z"/>
	<path class="st2" d="M993.5,292.6c-0.3-0.4-0.8-0.5-1.2-0.3c0,0,0,0,0,0c0,0-0.1,0-0.1,0c0,0-0.1,0-0.1,0c-0.1,0-0.2,0-0.3,0
		c-0.5,0-0.9,0.4-0.9,0.9s0.4,0.9,0.9,0.9c0.2,0,0.5,0,0.7-0.1c0.3,0,0.5-0.2,0.7-0.3C993.7,293.6,993.8,293,993.5,292.6z"/>
	<path class="st2" d="M1003.6,322.8c-0.2-0.4-0.8-0.6-1.2-0.3c-0.7,0.5-1.4,1-1.9,1.7c-0.3,0.4-0.1,1,0.3,1.2c0.4,0.3,1,0.1,1.2-0.3
		c0.3-0.4,0.8-0.8,1.3-1.1C1003.6,323.8,1003.8,323.2,1003.6,322.8z"/>
	<path class="st2" d="M1006.9,318.1c-0.9,0.5-1.7,1.1-2.3,1.9c-0.3,0.4-0.1,1,0.3,1.2c0.5,0.3,1,0.1,1.2-0.3c0.4-0.6,1.1-1,1.7-1.3
		C1008.9,319.1,1008,317.5,1006.9,318.1z"/>
	<path class="st2" d="M1011.5,315.4c-0.1-0.4-0.6-0.8-1.1-0.6c-0.7,0.3-1.4,0.7-1.7,1.4c-0.2,0.4-0.1,1,0.3,1.2
		c0.4,0.2,1,0.1,1.2-0.3c0-0.1,0.1-0.1,0.1-0.2c0,0,0.1-0.2,0.2-0.2c0,0,0,0,0,0c0,0,0.1-0.1,0.1-0.1c0,0,0.1-0.1,0.1-0.1
		c0,0,0,0,0,0c0,0,0,0,0.1,0C1011.3,316.4,1011.6,315.9,1011.5,315.4z"/>
	<path d="M1005.6,315.9"/>
	<g>
		<path class="st2" d="M982.8,343.9c-0.4-0.3-0.8-0.6-1.2-0.9c0-0.1-0.1-0.2-0.2-0.3c-0.1-0.1-0.2-0.2-0.3-0.2
			c0-0.1-0.1-0.1-0.1-0.2c-1-1-2.1-2.1-3.2-3.1c3.5-2.6,3.5-6.4,1.8-9.5c-0.3-1.2-0.9-2.3-2.1-3.2c-0.2-0.2-0.4-0.2-0.6-0.1
			c-2.7-2.2-6.3-3.2-9.2-1.2c-0.6,0.2-1.2,0.4-1.6,0.6c-0.9-0.9-1.8-1.8-2.8-2.6c0,0-0.1,0-0.1-0.1c-0.2-0.1-0.3-0.3-0.5-0.4
			c-0.4-0.4-0.7-0.9-1.1-1.3c-0.5-0.7-1.3-0.4-1.6,0.1c-0.4,0.2-0.6,0.8-0.3,1.2c0.2,0.3,0.3,0.5,0.5,0.8c0.6,1.1,1.5,1.9,2.5,2.6
			c0,0.5,0.4,0.9,0.7,1.2c0.2,0.2,0.4,0.2,0.6,0.3c0.1,0,0.1,0.1,0.2,0.1c0,0.3,0.1,0.6,0.4,0.7c0,0,0,0,0,0c0.2,0.3,0.6,0.5,1,0.5
			c0.3,0,0.5,0.1,0.8,0.1c0.3,0,0.6-0.2,0.8-0.5c0.2,0,0.4-0.1,0.5-0.3c0.7-0.8,1.6-1.3,2.5-1.6c0.6,0,1.2,0,1.8,0
			c1,0.1,2,0.3,2.9,0.7c1.2,0.8,2.1,2,2.2,3.6c0.1,0.6,0.5,0.9,0.9,0.9c-0.2,1.8-0.9,3.8-1.5,5.4c-0.1-0.1-0.3-0.2-0.5-0.2
			c-0.4,0-0.7,0.2-0.9,0.4c-0.3,0.2-0.5,0.5-0.4,0.9c0,0.4,0.2,0.7,0.6,0.8c0.8,1,1.8,1.9,2.8,2.7c0,0.2,0.1,0.3,0.3,0.5
			c0.3,0.3,0.7,0.6,1,0.9c0.8,0.7,1.7,1.5,2.6,2.1C982.8,346.1,983.7,344.6,982.8,343.9z"/>
		<path class="st2" d="M1005.4,315c-0.1-0.8-0.5-1.6-1-2.4c0-0.2-0.1-0.4-0.3-0.6c-0.2-0.2-0.4-0.4-0.6-0.6
			c-0.1-0.2-0.2-0.3-0.3-0.5c-1.4-1.9-2.9-3.7-4.5-5.4c-1.6-1.7-3.3-3.4-5.1-4.9c-1.2-1-2.6-2.2-4.1-2.6c-0.5-0.1-1.2,0.3-1.1,0.9
			c0.1,0.5,0.1,0.9,0.3,1.4c-0.4,0.4-0.3,1.3,0.4,1.5c0.1,0,0.2,0.1,0.3,0.1c1,1.9,2.7,3.5,4.5,4.9c0.6,0.8,1.1,1.6,1.7,2.3
			c1.8,2.4,4,5.4,7.1,6.1c0.5,0.3,1.1,0.6,1.7,0.7C1005.1,316.3,1005.5,315.6,1005.4,315z"/>
		<path class="st2" d="M992.6,315.2c-0.9-0.7-1.9-1.6-2.2-2.7c-0.4-1.3-0.4-2.4-1.7-3.3c-1-0.6-1.9,0.9-0.9,1.6
			c0.9,0.6,0.7,2.1,1.2,2.9c0.5,0.9,1.2,1.7,1.9,2.3c0.6,0.5,1.2,1,1.8,1.6c0.4,0.5,0.6,1.2,0.7,1.8c-1.2-0.3-2.3-0.8-3.4-1.1
			c-0.6-0.2-1.1,0.3-1.1,0.9c-0.2,1.5-0.2,3.1-0.6,4.6c-0.1,0.4,0.1,1,0.6,1.1c0.9,0.1,2.2,0.4,1.8,1.5c-0.4,1.1,1.3,1.6,1.7,0.5
			c0.7-1.8-0.7-3.1-2.2-3.5c0.2-1,0.2-2,0.3-2.9c1.2,0.4,2.3,0.9,3.6,1.1c0.6,0.1,1.1-0.2,1.1-0.9
			C995.1,318.3,994.3,316.7,992.6,315.2z"/>
		<path class="st2" d="M975.6,309.5c-0.4-0.2-1-0.1-1.2,0.3c0,0.1-0.1,0.1-0.1,0.2c0,0-0.1,0.2-0.2,0.2c0,0,0,0,0,0
			c0,0-0.1,0.1-0.1,0.1c0,0-0.1,0.1-0.1,0.1c0,0,0,0,0,0c0,0,0,0-0.1,0c-0.5,0.2-0.8,0.6-0.6,1.1c0.1,0.4,0.6,0.8,1.1,0.6
			c0.7-0.3,1.4-0.7,1.7-1.4C976.1,310.3,976,309.7,975.6,309.5z"/>
		<path class="st2" d="M979.4,305.9c-0.4-0.3-1-0.1-1.2,0.3c-0.3,0.4-0.7,0.8-1.3,1c-1.1,0.3-0.6,2,0.5,1.7c1-0.3,1.8-1,2.3-1.8
			C980,306.7,979.8,306.1,979.4,305.9z"/>
		<path class="st2" d="M982.5,302c-0.3,0.3-0.5,0.5-0.9,0.7c-0.1,0.1-0.2,0.1-0.3,0.1c0,0,0,0-0.1,0c0,0,0,0-0.1,0
			c-1.1-0.3-1.6,1.4-0.5,1.7c1.2,0.3,2.3-0.5,3.1-1.2C984.6,302.4,983.3,301.2,982.5,302z"/>
		<path class="st2" d="M985.9,298.6c-0.2,0.2-0.4,0.3-0.6,0.4c-0.2,0.1-0.4,0.1-0.5,0.1c-1.2,0-1.2,1.8,0,1.8c1,0,1.8-0.4,2.4-1.1
			C988,299,986.7,297.8,985.9,298.6z"/>
		<path class="st2" d="M985,340.1c0-0.5-0.4-0.9-0.9-0.9c-0.7,0-1.3,0.6-1.3,1.3c0,0.5,0.4,0.9,0.9,0.9c0.4,0,0.7-0.2,0.8-0.5
			C984.8,340.7,985,340.4,985,340.1z"/>
		<path class="st2" d="M989,336.4c-0.1-0.4-0.6-0.8-1.1-0.6c-0.8,0.3-1.5,1-1.9,1.8c-0.2,0.4-0.1,1,0.3,1.2c0.4,0.2,1,0.1,1.2-0.3
			c0.1-0.1,0.1-0.2,0.2-0.3c0,0,0.1-0.1,0.1-0.1c0,0,0.1-0.1,0.1-0.1c0.1-0.1,0.2-0.2,0.3-0.3c0,0,0.1-0.1,0.1-0.1c0,0,0.3-0.1,0,0
			C988.8,337.4,989.2,336.9,989,336.4z"/>
		<path class="st2" d="M992.1,332.5c-0.9,0.5-1.7,1.2-2.4,1.9c-0.8,0.8,0.5,2.1,1.3,1.3c0.6-0.6,1.2-1.3,2-1.7
			C994,333.5,993.1,332,992.1,332.5z"/>
		<path class="st2" d="M996.3,329.8c-0.3-0.4-0.8-0.6-1.2-0.3c-0.3,0.1-0.5,0.4-0.8,0.6c-0.1,0-0.1,0.1-0.2,0.1c0,0,0,0,0,0
			c-0.4,0.1-0.7,0.5-0.7,0.9c0.1,0.7,0.5,1,1.2,0.9c0.2,0,0.3-0.1,0.5-0.2c0.2-0.1,0.4-0.3,0.6-0.5c0,0,0.1,0,0.1-0.1
			c0.1-0.1,0.1-0.1,0.2-0.1C996.4,330.8,996.6,330.2,996.3,329.8z"/>
		<path class="st2" d="M999.9,326.2c-0.2-0.4-0.8-0.6-1.2-0.3c-0.8,0.5-1.5,1-1.8,1.9c-0.2,0.5,0.2,1,0.6,1.1
			c0.5,0.1,0.9-0.2,1.1-0.6c-0.1,0.2,0.1-0.2,0.1-0.1c0.1-0.1,0.2-0.2,0.3-0.3c0,0,0.1-0.1,0.1-0.1c0,0,0.1-0.1,0.1-0.1
			c0.1-0.1,0.3-0.2,0.4-0.3C1000,327.2,1000.2,326.7,999.9,326.2z"/>
		<path class="st7" d="M991.6,317.6c-0.9-0.5-1.8-0.9-2.8-1.2c-1.1-0.3-1.6,1.4-0.5,1.7c0.4,0.1,0.8,0.3,1.2,0.4
			c0.1,0.3,0.3,0.5,0.6,0.6c0.3,0.1,0.6,0.1,0.9,0.2c0.6,0.3,1.1,0.6,1.7,0.9c0.6,0.3,1.4-0.1,1.4-0.8
			C994.1,318.3,992.7,317.9,991.6,317.6z"/>
		<path class="st8" d="M994.8,318.6l-1.4-0.7v-0.6c0-0.4-0.6-0.7-1-0.7c-0.3,0-0.9,0.2-1,0.5l-1.4-0.6v-0.5c0-0.4-0.1-0.7-0.5-0.7
			c-0.3,0-0.4,0.2-0.5,0.5l-0.9-0.5c-0.1-1.3-0.2-2.5-0.3-3.5c-0.1-0.8-0.3-1.4-0.5-1.9c-0.1-0.2-0.4-0.9-0.9-0.9
			c-0.6,0-0.8,0.7-0.9,0.9c-0.2,0.4-0.3,1.1-0.5,1.9c-0.2,1-0.3,2.2-0.4,3.5l-0.9,0.5c-0.1-0.3-0.4-0.5-0.7-0.5
			c-0.4,0-0.7,0.3-0.7,0.7v0.5l-1,0.6c-0.1-0.3,0-0.5-0.4-0.5c-0.4,0-0.4,0.3-0.4,0.7v0.6l-1.4,0.7c-0.1,0.1-0.4,0.2-0.4,0.4v1.8
			c0,0.1-0.1,0.3,0,0.3c0.1,0.1,0.2,0.1,0.3,0.1l5.4-1.9c0,0.8,0.1,1.6,0.1,2.3l0.4,2.8l-3.2,1.6c-0.1,0-0.5,0.1-0.5,0.2v1
			c0,0.1,0.4,0.1,0.5,0.2c0.1,0,0.3,0.1,0.4,0l3.4-1.2c0.2,0.2,0.4,0.4,0.7,0.4c0.3,0,0.5-0.2,0.7-0.4l3.3,1.2c0,0,0.1,0,0.1,0
			c0.1,0-0.2,0-0.2,0c0.1,0-0.2-0.1-0.2-0.2v-1c0-0.1,0.3-0.2,0.2-0.2l-2.7-1.6c0-0.2,0.2-0.4,0.2-0.6c0.2-1.2,0.4-2.8,0.4-4.5
			l5.4,1.9c0,0,0.1,0,0.1,0c0.1,0,0.7,0,0.7-0.1c0.1-0.1,0.7-0.2,0.7-0.3V319C995.1,318.8,994.9,318.7,994.8,318.6z"/>
		<path class="st9" d="M1016.6,309.5l-5.3-5.3c-0.6-0.6-1.6-0.7-2.3-0.1c-2.4,1.9-5.9,1.8-8.1-0.4c-2.2-2.2-2.4-5.7-0.4-8.1
			c0.6-0.7,0.5-1.7-0.1-2.3l-5.3-5.3c-0.7-0.7-1.8-0.7-2.5,0l-33.3,33.3c-0.7,0.7-0.7,1.8,0,2.5l5.3,5.3h0c0.7,0.7,1.8,0.7,2.5,0
			c0.1-0.1,0.1-0.1,0.2-0.2c0.1-0.1,0.2-0.3,0.4-0.4c2.4-2.4,6.2-2.4,8.5,0c2.4,2.4,2.4,6.2,0,8.5c-0.1,0.1-0.3,0.3-0.5,0.4
			c-0.4,0.3-0.6,0.8-0.6,1.3c0,0.5,0.2,1,0.5,1.3l5.3,5.3c0.7,0.7,1.8,0.7,2.5,0l33.3-33.3C1017.3,311.2,1017.3,310.1,1016.6,309.5
			L1016.6,309.5z"/>
		<path class="st10" d="M984.7,321.4c-0.1-0.7-0.1-1.5-0.1-2.3l-5.4,1.9c-0.1,0-0.3,0-0.4-0.1c-0.1-0.1-0.2-0.2-0.2-0.3v-1.8
			c0-0.2,0.1-0.3,0.2-0.4l1.2-0.7v-0.6c0-0.4,0.3-0.7,0.7-0.7c0.3,0,0.6,0.2,0.7,0.5l1-0.6v-0.5c0-0.4,0.3-0.7,0.7-0.7
			c0.3,0,0.5,0.2,0.6,0.5l0.9-0.5c0.1-1.3,0.2-2.5,0.4-3.5c0.1-0.8,0.3-1.4,0.5-1.9c0.1-0.2,0.4-0.9,0.9-0.9c0.6,0,0.9,0.7,0.9,0.9
			c0.2,0.4,0.3,1.1,0.5,1.9c0.2,1,0.3,2.2,0.4,3.5l0.9,0.5c0.1-0.3,0.3-0.5,0.6-0.5c0.4,0,0.7,0.3,0.7,0.7v0.5l1,0.6
			c0.1-0.3,0.3-0.5,0.6-0.5c0.4,0,0.7,0.3,0.7,0.7v0.6l1.2,0.7c0.1,0.1,0.2,0.2,0.2,0.4v1.8c0,0.1-0.1,0.3-0.2,0.3
			c-0.1,0.1-0.2,0.1-0.2,0.1c0,0-0.1,0-0.1,0l-5.4-1.9c-0.1,1.7-0.2,3.3-0.4,4.5c0,0.2-0.1,0.4-0.1,0.6l2.8,1.6
			c0.1,0,0.1,0.1,0.1,0.2v1c0,0.1,0,0.1-0.1,0.2c0,0-0.1,0-0.1,0c0,0-0.1,0-0.1,0l-3.3-1.2c-0.2,0.2-0.4,0.3-0.6,0.3
			c-0.3,0-0.5-0.2-0.6-0.3l-3.3,1.2c-0.1,0-0.1,0-0.2,0c-0.1,0-0.1-0.1-0.1-0.2v-1c0-0.1,0-0.2,0.1-0.2l2.8-1.6"/>
		<path class="st9" d="M1005.6,315.9c-0.7,0.7-1.9,0.7-2.6,0l-14.4-14.4c-0.7-0.7-0.7-1.9,0-2.6c0.7-0.7,1.9-0.7,2.6,0l14.4,14.4
			C1006.3,314,1006.3,315.1,1005.6,315.9L1005.6,315.9z"/>
		<g>
			<g>
				<line class="st10" x1="963.7" y1="320.9" x2="964.7" y2="319.9"/>
				<line class="st11" x1="966.7" y1="317.8" x2="990.2" y2="294.3"/>
				<line class="st10" x1="991.3" y1="293.3" x2="992.3" y2="292.3"/>
			</g>
		</g>
		<g>
			<g>
				<line class="st10" x1="983.7" y1="340.9" x2="984.7" y2="339.9"/>
				<line class="st11" x1="986.8" y1="337.9" x2="1010.3" y2="314.4"/>
				<line class="st10" x1="1011.3" y1="313.3" x2="1012.3" y2="312.3"/>
			</g>
		</g>
	</g>
</g>
</svg>
