<?xml version="1.0" encoding="utf-8"?>
<!-- Generator: Adobe Illustrator 17.0.0, SVG Export Plug-In . SVG Version: 6.00 Build 0)  -->
<!DOCTYPE svg PUBLIC "-//W3C//DTD SVG 1.1//EN" "http://www.w3.org/Graphics/SVG/1.1/DTD/svg11.dtd">
<svg version="1.1" xmlns="http://www.w3.org/2000/svg" xmlns:xlink="http://www.w3.org/1999/xlink" x="0px" y="0px"
	 width="593.97px" height="483.385px" viewBox="0 0 593.97 483.385" enable-background="new 0 0 593.97 483.385"
	 xml:space="preserve">
<g id="Capa_1">
	<path fill="#E0DFE6" d="M87.709,159.574v107.47l184.742,176.481l243.467-74.715l8.766-85.123c0,0-95.314,45.93-128.016,59.084
		c-38.553,15.508-107.974,15.508-107.974,15.508L87.709,159.574z"/>
	
		<text transform="matrix(0.8817 -0.4718 0.4718 0.8817 213.8022 247.2971)" fill="#214D6A" font-family="'BloggerSans-Light'" font-size="27.5406">Hoja de vida</text>
	<polyline fill="none" stroke="#214D6A" stroke-width="5.1527" stroke-miterlimit="10" points="524.683,283.688 515.918,368.811 
		272.451,443.526 84.376,261 84.376,154.324 	"/>
	<polyline fill="none" stroke="#214D6A" stroke-width="5.1527" stroke-miterlimit="10" points="84.376,220.67 282.941,411.006 
		519.344,335.538 	"/>
	<polyline fill="none" stroke="#214D6A" stroke-width="5.1527" stroke-miterlimit="10" points="84.376,189.127 282.941,379.463 
		519.344,303.996 	"/>
	<path fill="none" stroke="#214D6A" stroke-width="5.1527" stroke-miterlimit="10" d="M84.376,154.324
		c0,0,140.412-27.178,191.939-92.876c0,0,138.74,178.513,250.434,216.811c1.541,0.528,3.083,1.035,4.626,1.52
		c0,0-176.481,106.288-248.62,71.507C282.756,351.287,99.834,184.592,84.376,154.324z"/>
</g>
<g id="Capa_2">
</g>
</svg>
