<?xml version="1.0" encoding="utf-8"?>
<!-- Generator: Adobe Illustrator 17.0.0, SVG Export Plug-In . SVG Version: 6.00 Build 0)  -->
<!DOCTYPE svg PUBLIC "-//W3C//DTD SVG 1.1//EN" "http://www.w3.org/Graphics/SVG/1.1/DTD/svg11.dtd">
<svg version="1.1" xmlns="http://www.w3.org/2000/svg" xmlns:xlink="http://www.w3.org/1999/xlink" x="0px" y="0px"
	 width="593.97px" height="483.385px" viewBox="0 0 593.97 483.385" enable-background="new 0 0 593.97 483.385"
	 xml:space="preserve">
<g id="Capa_1">
	<path fill="none" stroke="#214D6A" stroke-width="5.1175" stroke-miterlimit="10" d="M102.347,177.122
		c5.384,6.078-56.325,32.742-56.325,32.742L280.486,409.48c0,0,115.196-49.759,209.99-88.496l-18.93-9.318"/>
	<path fill="#E0DFE6" stroke="#214D6A" stroke-width="5" stroke-miterlimit="10" d="M102.347,177.122
		c5.384,6.078-56.325,32.742-56.325,32.742L280.486,409.48c0,0,115.196-49.759,209.99-88.496l-18.93-9.318"/>
	<path id="XMLID_857_" fill="#E0DFE6" d="M-779.085,480.789c0-2.137,0-4.258,0.074-6.338c0.311-8.823,0.944-17.635,1.851-26.416
		c1.832-17.742,4.523-35.365,8.227-52.814c7.069-33.295,18.191-65.229,27.371-97.911c0.393-1.396-1.113-2.333-2.295-1.765
		c-0.543,0.261-1.058,0.558-1.558,0.872c-1.056-1.887-2.422-3.513-4.091-4.969c-1.391-1.213-4.211-1.402-5.096,0.657
		c-13.085,30.473-21.623,63.261-28.744,95.753c-3.315,11.104-6.554,22.228-9.57,33.406c-3.794,14.059-6.723,28.251-8.1,42.762
		c-0.53,5.581-0.809,11.167-0.794,16.763H-779.085z"/>
	<path id="XMLID_853_" fill="#E0DFE6" d="M-385.514,468.046c-4.413-4.875-8.961-9.59-13.655-14.195
		c-2.478-2.432-5.007-4.815-7.604-7.122c0.068-0.279,0.114-0.576,0.133-0.894c0.231-4.08-0.575-8.127-1.94-11.975
		c-0.046-0.527-0.104-1.053-0.139-1.582c-0.221-3.385,0.135-6.86-0.578-10.179c0.569-0.491,0.96-1.166,1.033-1.994
		c0.724,0.007,1.499-0.152,2.299-0.528c1.699-0.8,3.34-1.305,5.139-1.803c2.858-0.791,5.139-4.842,3.064-7.53
		c-10.809-14.002-19.792-28.207-27.477-44.126c-6.593-13.656-13.764-26.641-26.202-35.812c-7.059-5.205-14.377-9.02-19.593-16.358
		c-4.221-5.939-7.104-12.532-10.104-19.125c-6.927-15.219-13.192-30.902-20.805-45.781c-0.235-0.46-1.087-0.269-1.019,0.276
		c2.012,16.039,4.494,33.486,10.58,48.548c1.401,3.467,3.074,6.78,4.958,9.955c1.396,3.409,3.118,6.708,5.5,9.845
		c2.789,3.673,5.699,6.073,9.214,8.543c0.447,0.432,0.911,0.847,1.365,1.272c-2.029,0.037-4.08,0.185-6.128,0.417
		c0.269,0.158,0.535,0.339,0.794,0.557c-1.437-1.212-0.01-0.083,0.39,0.137c0.74,0.406,1.462,0.851,2.193,1.274
		c1.872,1.082,3.742,2.164,5.582,3.299c3.801,2.343,7.91,4.861,10.834,8.291c0.751,0.881,1.131,1.834,1.234,2.777
		c1.805,1.931,3.747,3.786,5.61,5.783c5.461,5.852,8.296,13.54,12.67,20.135c10.305,15.539,15.935,33.165,22.623,50.379
		c0.71,1.829,2.362,2.568,3.914,2.474c-0.618,1.056-1.119,2.206-1.541,3.411c-1.054-0.347-2.247-0.258-3.259,0.212
		c-0.62-0.307-1.377-0.483-2.304-0.485c-4.545-0.011-9.112,6.485-12.111,9.345c-2.391,2.279-1.285,6.725,1.978,7.494
		c0.329,0.077,0.658,0.155,0.986,0.232c0.849,0.2,1.822,0.068,2.672-0.32c0.669,0.916,1.378,1.811,2.097,2.695
		c1.645,9.428,6.592,19.014,10.166,27.581c1.067,2.559,2.195,5.089,3.351,7.606h34.958
		C-377.495,476.103-381.906,472.033-385.514,468.046z M-416.664,438.641c0.225-0.066,0.445-0.147,0.661-0.242
		c0.08,0.311,0.159,0.622,0.232,0.936C-416.068,439.102-416.364,438.871-416.664,438.641z M-410.659,411.548
		c-0.098,0.068-0.187,0.138-0.278,0.207c-0.42-1.071-0.851-2.139-1.292-3.202c0.706,0.885,1.415,1.765,2.127,2.644
		C-410.288,411.318-410.474,411.424-410.659,411.548z"/>
	<path id="XMLID_852_" fill="#214D6A" d="M-908.004,481.285c3.022-77.771,23.589-154.343,59.972-222.681
		c36.073,9.243,71.216,24.587,105.211,39.431c-25.864,66.134-39.198,126.209-40.613,183.25h2.793
		c1.426-57.05,14.856-117.189,40.949-183.464c0.275-0.698-0.052-1.489-0.74-1.79l-1.271-0.556
		c-34.432-15.033-70.035-30.579-106.703-39.848c-0.622-0.156-1.271,0.13-1.573,0.694c-36.92,68.987-57.78,146.366-60.818,224.963
		H-908.004z"/>
	<path id="XMLID_851_" fill="#214D6A" d="M-416.919,470.032c1.858,3.728,3.73,7.479,5.613,11.237h3.12
		c-2.068-4.128-4.141-8.284-6.233-12.482c-5.443-10.921-11.065-22.2-16.851-33.38c35.413-21.194,68.098-35.925,99.887-45.021
		c0.741-0.213,1.17-0.985,0.958-1.728c-0.211-0.74-0.984-1.169-1.727-0.958c-32.363,9.262-65.623,24.303-101.681,45.987
		c-0.632,0.38-0.859,1.186-0.52,1.839C-428.365,447.068-422.547,458.743-416.919,470.032z"/>
	<path id="XMLID_850_" fill="#E0DFE6" d="M-620.403,20.154c0.123-0.027,0.248-0.043,0.371-0.076c0.599-0.165,1.191-0.365,1.78-0.588
		c0.697-2.748,3.111-4.181,5.508-4.181c0.643,0,1.26,0.144,1.829,0.392c0.662-0.392,1.322-0.783,1.982-1.166
		c-1.102-0.769-2.416-1.226-3.812-1.226C-616.233,13.309-619.924,15.701-620.403,20.154z"/>
	<path id="XMLID_849_" fill="#E0DFE6" d="M-628.407,231.235c-0.072,0.336-0.116,0.684-0.116,1.042c0,2.959,2.454,4.555,4.763,4.555
		c1.546,0,2.846-0.795,3.679-1.781c-0.503-0.459-1.025-0.879-1.571-1.252c-0.452,0.526-1.162,1.033-2.107,1.033
		c-1.11,0-2.763-0.681-2.763-2.555c0-0.217,0.027-0.428,0.071-0.631C-627.09,231.476-627.744,231.341-628.407,231.235z"/>
	<path id="XMLID_848_" fill="#E0DFE6" d="M-660.993,116.297c-0.347,1.481-0.652,2.972-0.925,4.469
		c0.644-1.019,1.018-2.256,1.018-3.605C-660.9,116.887-660.931,116.596-660.993,116.297z"/>
	<path id="XMLID_847_" fill="#E0DFE6" d="M-657.861,193.93c0.739-1.086,1.177-2.371,1.177-3.735c0-3.516-2.426-7.237-6.943-7.671
		c0.061,0.692,0.132,1.377,0.222,2.05c3.102,0.5,4.722,3.071,4.722,5.621c0,0.961-0.316,1.864-0.84,2.633
		C-659.036,193.228-658.48,193.594-657.861,193.93z"/>
	<path id="XMLID_846_" fill="#FCCC81" d="M-433.916,109.664c-5.872-7.261-16.303-10.105-24.546-5.125
		c-5.839,3.529-9.519,10.274-9.82,17.079c-1.463,7.159,2.766,14.241,8.741,18.321c-0.813-4.469-0.339-9.648,1.74-13.674
		c1.004-3.022,2.949-5.351,6.646-6.049c0.106-0.038,0.208-0.08,0.315-0.115c1.051-0.335,1.995-0.326,2.813-0.081
		c8.688,0.466,12.914,9.285,13.28,17.558c0.911-0.893,1.752-1.863,2.489-2.927C-426.979,127.044-428.239,116.683-433.916,109.664z"
		/>
	<path id="XMLID_845_" fill="#E0DFE6" d="M-448.775,85.211c-20.291,0-36.798,16.507-36.798,36.798
		c0,16.664,11.138,30.769,26.358,35.28c-0.532-3.648-0.663-7.362-0.978-11.043c-9.081-4.296-15.379-13.543-15.379-24.237
		c0-14.776,12.021-26.798,26.798-26.798c14.777,0,26.798,12.021,26.798,26.798c0,9.154-4.617,17.248-11.642,22.084
		c0.129,0.394,0.235,0.807,0.284,1.264c0.281,2.667,0.33,5.321,0.333,8c0,0.576-0.117,1.097-0.294,1.581
		c0.003,0.147,0.002,0.294,0.005,0.441c12.573-5.858,21.314-18.609,21.314-33.37C-411.977,101.717-428.484,85.211-448.775,85.211z"
		/>
	<path id="XMLID_844_" fill="#E0DFE6" d="M-656.656,49.045c-16.722,17.272-31.337,37.457-43.69,58.059
		c-2.385,3.977,3.827,7.595,6.206,3.628c12.373-20.636,25.486-40.71,38.282-61.071C-655.551,49.171-656.255,48.631-656.656,49.045z"
		/>
	<path id="XMLID_841_" fill="#E0DFE6" d="M-682.353,233.009c-6.26,4.46-15.758,7.038-23.327,7.398
		c-8.597,0.408-17.196-1.616-25.736-0.76c-6.26,0.629-11.662,3.153-16.088,6.888c-0.647-0.06-1.353,0.072-2.086,0.493
		c-3.307,1.897-6.277,4.428-9.199,7.05c-0.395,0.142-0.768,0.354-1.09,0.665c-1.693,1.642-3.413,3.256-5.146,4.856
		c-1.174,0.975-2.372,1.905-3.609,2.759c-5.431,3.745-11.381,6.094-17.343,8.646c-4.356-1.123-8.704-1.7-13.321-1.156
		c-0.475,0.057-0.724,0.666-0.256,0.946c4.854,2.912,9.928,5.118,15.255,7.011c4.736,1.682,9.765,3.983,14.772,5.328
		c2.36,1.327,4.736,2.607,7.243,3.348c2.189,0.646,3.682-1.9,2.599-3.616c1.3-0.395,2.48-1.362,3.053-2.82
		c0.571-1.452,0.073-2.371-0.236-3.763c-0.042-0.189-0.357-0.877-0.418-0.661c0.021-1.259,1.099-2.969,1.592-3.96
		c2.135-4.295,5.396-7.825,8.607-11.33c0.651-0.711,0.981-1.52,1.066-2.332c1.542-1.194,3.149-2.323,4.859-3.364
		c6.289-3.826,13.34-5.219,20.56-6.272c7.54-1.102,15.188-0.439,22.623-2.491c7.359-2.031,11.823-5.775,17.14-10.898
		C-679.842,234.012-681.174,232.17-682.353,233.009z M-770.307,270.898c-1.42,1.436-2.886,2.487-4.13,2.385
		C-772.995,272.656-771.611,271.77-770.307,270.898z"/>
	<path id="XMLID_840_" fill="#E0DFE6" d="M-594.563,211.852c-13.628,5.569-28.571,3.411-43.004,5.218
		c-14.277,1.787-27.839,6.823-39.739,15.028c-0.339,0.233-0.142,0.879,0.301,0.714c14.459-5.407,30.187-6.231,45.501-7.042
		c7.357-0.39,14.808-0.404,22.134-1.17c6.411-0.669,13.697-1.883,18.152-7.003C-589.217,215.296-591.09,210.433-594.563,211.852z"/>
	<path id="XMLID_839_" fill="#E0DFE6" d="M-644.292,195.599c-1.816-0.399-3.672-0.738-5.475-1.173
		c-2.986-0.72-4.415-2.903-6.657-4.867c-2.402-2.105-4.959-3.993-6.979-6.36c-0.054-0.618-0.034-1.296,0.029-2.12
		c0.161-2.11-0.159-4.162-0.284-6.285c-0.287-4.862-0.265-9.715-0.612-14.582c-0.41-5.755-0.754-11.514-1.096-17.272
		c0.371-0.3,0.63-0.764,0.647-1.403c0.289-10.505,1.26-20.92,3.478-31.207c0.132-0.611-0.777-1.087-1.071-0.452
		c-3.393,7.348-5.514,15.024-6.113,22.955c-1.827,11.247-3.715,22.517-5.169,33.802c-0.557,4.325-1.431,10.2,0.04,14.445
		c0.018,0.052,0.042,0.105,0.061,0.156c-0.29,6.682,5.483,11.109,10.86,14.801c2.512,1.725,5.58,4.193,8.801,4.328
		c3.453,0.146,6.737-2.107,9.699-3.552C-643.625,196.565-643.75,195.717-644.292,195.599z"/>
	<path id="XMLID_838_" fill="#E0DFE6" d="M-377.01,59.354c0.157-2.701,0.054-5.429-0.195-8.112c-0.089-0.953-1.02-1.597-1.862-1.619
		c-0.324-0.883-1.079-1.611-2.162-1.611c-5.981-0.004-11.961,0.008-17.942,0.023c-3.167-0.252-6.336-0.482-9.507-0.674
		c-10.008-0.6-20.035-0.816-30.06-0.746c-10.357,0.07-20.753,0.348-31.085,1.228c-4.926-0.055-9.851-0.111-14.777-0.162
		c-9.973-0.105-21.81-1.82-31.674,0.826c-7.589-0.522-15.635,0.507-23.175,0.657c-8.551,0.171-17.103,0.259-25.656,0.265
		c-8.543,0.004-17.121-0.361-25.655-0.008c-6.864,0.283-13.82-0.025-20.628,0.919c-3.638,0.049-6.663,0.084-10.338,2.207
		c-4.573,2.642-7.892,6.844-11.037,10.969c-2.888,3.786-5.577,7.473-7.325,11.938c-1.7,4.341-3.655,7.459-1.515,12
		c0.157,0.333,0.387,0.579,0.648,0.776c-0.147,0.544-0.293,1.088-0.434,1.634c-0.169,0.656,0.092,1.176,0.514,1.496
		c-0.046,0.286-0.074,0.58-0.079,0.885c-0.003,0.212,0.064,0.394,0.157,0.561c-0.949,3.188-1.41,6.465-0.354,9.047
		c0.073,0.179,0.265,0.243,0.418,0.11c3.563-3.09,4.686-9.585,6.701-13.745c1.953-4.031,4.133-7.913,6.746-11.52
		c-0.587,3.7-0.925,7.431-0.799,11.218c0.022,0.675,0.293,1.165,0.682,1.484c-0.509,7.182-0.509,14.386,0.392,21.402
		c0.212,1.659,2.551,1.752,2.656,0c0.778-12.921,0.345-25.912,0.95-38.863c3.385-3.701,7.284-6.943,11.599-9.504
		c4.966-2.947,10.847-3.692,15.688-6.514c0.158-0.092,0.294-0.193,0.42-0.3c0.644-0.024,1.285-0.073,1.918-0.212
		c0.169-0.037,0.309-0.115,0.435-0.209c16.455,0.653,32.892,2.37,49.318,3.329c9.548,0.558,18.989,0.04,28.494-0.926
		c8.704-0.885,18.633-0.542,26.971-3.177c0.551-0.174,0.972-0.455,1.289-0.795c3.743-0.095,7.486-0.218,11.228-0.355
		c8.903,0.1,17.806,0.198,26.708,0.334c11.393,0.174,22.785,0.357,34.179,0.474c4.964,0.051,9.936,0.122,14.902,0.052
		c1.065,0.086,2.129,0.164,3.192,0.257c4.671,0.409,9.752,1.548,14.457,1.173l0.088,0.549c0.305,1.906,0.35,3.981,1.487,5.597
		c0.008,0.129,0.012,0.258,0.021,0.386c0.187,2.459,3.444,2.357,3.75,0c0.009-0.072,0.011-0.146,0.02-0.218
		c0.23-0.331,0.375-0.75,0.376-1.262C-376.867,60.181-376.924,59.763-377.01,59.354z"/>
	<path id="XMLID_837_" fill="#E0DFE6" d="M-493.029,196.996c-9.227-0.564-17.739-0.095-26.894,0.816
		c-9.117,0.907-18.352,0.693-27.5,0.752c-9.644,0.062-19.288,0.088-28.932,0.086c-5.748-0.001-11.684,0.304-17.543,0.106
		c-0.149-0.449-0.396-0.875-0.755-1.242c-3.106-3.165-7.969-4.428-11.992-6.167c-3.389-1.464-6.766-3.17-10.283-4.304
		c-3.531-1.139-7.11-1.285-10.788-1.126c-0.311,0.014-0.627,0.023-0.946,0.032c-1.296-0.275-2.594-0.534-3.864-0.833
		c-1.895-0.447-3.452-0.838-4.278-2.768c-0.657-1.534-0.633-3.206-1.073-4.794c-0.216-0.778-1.178-0.639-1.447,0
		c-1.079,2.57-1.184,5.982,0.102,8.593c-0.399,0.97-0.594,2.173-0.784,3.103c-0.212,1.038,0.136,2.171,1.104,2.715
		c2.933,1.648,6.202,1.267,9.489,1.298c3.864,0.036,7.437,0.345,11.098,1.722c6.046,2.273,12.655,7.023,19.191,8.075
		c0.202,0.164,0.422,0.292,0.652,0.329l0.104,0.017c0.457,0.072,0.829,0.015,1.161-0.143c0.055,0.003,0.111,0.011,0.166,0.013
		c0.409,0.012,0.775-0.07,1.12-0.19c0.368,0.084,0.732,0.043,1.054-0.085c4.79,0.306,9.744-0.085,14.522-0.115
		c9.977-0.064,19.953-0.102,29.93-0.089c19.125,0.024,38.288-1.622,57.386-0.644C-489.707,202.322-489.732,197.197-493.029,196.996z
		"/>
	<path id="XMLID_836_" fill="#E0DFE6" d="M-460.983,196.541c-2.78-0.109-5.565,0.135-8.339,0.313
		c-2.112,0.136-4.33,0.019-6.375,0.617c-1.384,0.406-1.657,1.989-0.796,3.018c1.559,1.861,3.8,1.829,6.06,1.803
		c3.145-0.037,6.324,0.009,9.451-0.359C-457.613,201.534-457.428,196.679-460.983,196.541z"/>
	<path id="XMLID_835_" fill="#E0DFE6" d="M-461.49,262.179c-3.016-3.175-6.021-6.352-9.133-9.432
		c-0.868-0.859-1.815-1.714-2.768-2.588c0.168-0.338,0.272-0.715,0.273-1.134c0.001-2.716-1.163-4.584-1.871-7.097
		c-0.807-2.866,0.88-6.207,1.279-9.096c0.895-6.478,0.483-13.029-0.7-19.438c-0.111-0.604-0.945-0.393-0.997,0.136
		c-0.816,8.255-3.737,15.056-6.455,22.761c-2.225,6.309,0.885,8.841,3.648,14.113c0.565,1.079,1.622,1.449,2.626,1.302
		c0.21,0.243,0.419,0.486,0.634,0.729c3.637,4.098,7.369,8.091,11.142,12.063C-462.354,266.034-460.036,263.711-461.49,262.179z"/>
	<path id="XMLID_834_" fill="#214D6A" d="M-760.906,288.884c-0.172,0-0.347-0.031-0.516-0.1c-0.717-0.285-1.066-1.097-0.781-1.813
		c8.011-20.124,18.509-38.747,40.888-38.747c15.143,0,26.654-3.278,34.213-9.742c3.023-2.586,7.672-6.152,13.12-7.273
		c20.992-4.318,43.591-6.864,71.122-8.012c3.962-0.164,6.589-1.087,8.268-2.901c1.791-1.938,2.7-3.78,2.7-5.478
		c0-7.555-16.276-18.977-40.809-18.977c-4.497,0-9.399,0.271-15.428,0.854c-3.998,0.387-7.986-1.148-10.732-4.092
		c-2.368-2.539-4.374-4.977-6.132-7.455c-0.145-0.205-0.232-0.445-0.253-0.695c-0.407-5.032-0.604-10.336-0.604-16.211
		c0-13.565,1.101-31.193,2.133-46.651c0.389-5.818,1.342-13.343,5.297-19.95c4.794-8.009,10.071-15.92,15.175-23.57
		c4.911-7.36,9.988-14.971,14.595-22.615c0.115-0.19,0.273-0.351,0.463-0.467l0.85-0.525c13.403-8.263,28.594-17.629,31.966-31.088
		c0.109-0.436,0.167-0.965,0.167-1.529c0-2.771-1.297-5.595-2.57-5.595c-0.141,0-0.297,0.032-0.463,0.095
		c-14.3,5.43-27.69,12.539-38.903,18.778c-5.097,2.837-9.611,6.62-13.053,10.943c-14.841,18.636-27.56,39.342-39.86,59.365
		c-1.365,2.222-2.729,4.44-4.094,6.656c-0.405,0.657-1.263,0.861-1.921,0.457c-0.656-0.405-0.861-1.266-0.456-1.921
		c1.365-2.216,2.727-4.434,4.091-6.653c12.344-20.096,25.108-40.875,40.055-59.644c3.668-4.605,8.467-8.633,13.88-11.644
		c11.3-6.288,24.803-13.456,39.27-18.949c0.484-0.184,0.973-0.276,1.454-0.276c3.312,0,5.362,4.354,5.362,8.387
		c0,0.801-0.085,1.545-0.251,2.209c-3.647,14.561-19.352,24.242-33.209,32.785l-0.562,0.347c-4.593,7.601-9.622,15.14-14.489,22.433
		c-5.085,7.623-10.344,15.506-15.103,23.456c-3.649,6.096-4.539,13.196-4.906,18.701c-1.029,15.413-2.128,32.986-2.128,46.466
		c0,5.65,0.185,10.759,0.565,15.602c1.632,2.27,3.492,4.516,5.674,6.855c2.188,2.346,5.245,3.521,8.422,3.217
		c6.12-0.592,11.108-0.867,15.696-0.867c11.709,0,22.83,2.566,31.313,7.227c7.694,4.227,12.288,9.663,12.288,14.543
		c0,2.422-1.158,4.902-3.442,7.373c-2.906,3.143-7.214,3.672-10.201,3.796c-27.377,1.141-49.835,3.669-70.676,7.956
		c-3.666,0.755-7.437,2.871-11.868,6.66c-8.079,6.91-20.201,10.414-36.028,10.414c-20.714,0-30.646,17.776-38.294,36.987
		C-759.827,288.551-760.351,288.884-760.906,288.884z"/>
	<path id="XMLID_833_" fill="#214D6A" d="M-721.003,105.086c-0.271,0-0.546-0.079-0.788-0.244c-0.636-0.436-0.798-1.305-0.363-1.941
		c4.287-6.258,8.205-11.999,11.803-17.267c40.544-59.391,40.544-59.391,64.911-65.352c2.543-0.623,5.427-1.328,8.634-2.175
		c0.627-0.166,1.282-0.25,1.945-0.25c3.595,0,6.305,2.328,6.305,5.415c0,0.41-0.047,0.834-0.141,1.26
		c-0.51,2.343-1.167,4.578-1.951,6.646c-0.273,0.721-1.078,1.085-1.801,0.81c-0.721-0.273-1.083-1.08-0.81-1.801
		c0.736-1.938,1.352-4.041,1.834-6.249c0.051-0.232,0.076-0.454,0.076-0.665c0-2.139-2.72-2.999-4.745-2.466
		c-3.232,0.853-6.129,1.561-8.685,2.186c-23.327,5.707-23.327,5.707-63.268,64.214c-3.598,5.271-7.518,11.013-11.805,17.273
		C-720.12,104.873-720.557,105.086-721.003,105.086z"/>
	<path id="XMLID_832_" fill="#214D6A" d="M-743.336,101.087c-0.221,0-0.445-0.053-0.654-0.164c-0.681-0.361-0.94-1.206-0.578-1.888
		c11.127-20.961,26.937-40.953,46.991-59.422c2.594-2.389,6.144-5.174,10.602-5.509c5.115-0.384,9.841-0.032,14.06,1.05
		c0.747,0.191,1.197,0.952,1.006,1.699c-0.192,0.746-0.955,1.197-1.699,1.006c-3.924-1.008-8.348-1.332-13.157-0.971
		c-3.579,0.269-6.518,2.566-8.919,4.779c-19.821,18.253-35.438,37.995-46.417,58.677
		C-742.352,100.817-742.836,101.087-743.336,101.087z"/>
	<path id="XMLID_831_" fill="#214D6A" d="M-842.086,259.214c-0.178,0-0.359-0.034-0.534-0.107c-0.712-0.295-1.051-1.112-0.756-1.824
		c9.247-22.334,25.016-67.368,31.366-85.694c0.219-0.629,0.343-0.988,0.362-1.041c7.104-19.68,44.914-97.194,100.12-116.875
		c0.726-0.258,1.525,0.119,1.784,0.846c0.259,0.727-0.12,1.525-0.846,1.784c-54.175,19.313-91.422,95.774-98.431,115.193
		c-0.021,0.058-0.141,0.404-0.35,1.008c-6.359,18.349-22.15,63.444-31.425,85.848C-841.019,258.89-841.539,259.214-842.086,259.214z
		"/>
	<path id="XMLID_830_" fill="#214D6A" d="M-640.108,196.063c-0.743,0-1.361-0.587-1.394-1.337
		c-1.079-24.945-1.411-63.615-1.704-97.734c-0.055-6.378-0.107-12.526-0.163-18.3c-0.007-0.771,0.611-1.402,1.382-1.409
		c0.774-0.042,1.402,0.61,1.41,1.382c0.056,5.774,0.108,11.924,0.164,18.303c0.278,32.408,0.625,72.741,1.701,97.64
		c0.033,0.77-0.564,1.421-1.335,1.455C-640.068,196.062-640.088,196.063-640.108,196.063z"/>
	<path id="XMLID_829_" fill="#214D6A" d="M-598.153,205.342c-0.76,0-1.383-0.609-1.396-1.372c-0.013-0.771,0.601-1.406,1.372-1.42
		l105.437-1.757c0.784,0,1.407,0.61,1.419,1.372c0.013,0.771-0.602,1.406-1.373,1.42
		C-492.693,203.586-598.13,205.342-598.153,205.342z"/>
	<path id="XMLID_828_" fill="#214D6A" d="M-475.851,203.304c-0.76,0-1.383-0.609-1.396-1.372c-0.013-0.771,0.602-1.406,1.373-1.42
		l16.691-0.278c0.784,0,1.407,0.61,1.419,1.373c0.013,0.771-0.602,1.406-1.372,1.419
		C-459.135,203.026-475.827,203.304-475.851,203.304z"/>
	<path id="XMLID_827_" fill="#214D6A" d="M-361.951,65.887c-0.772,0-1.397-0.625-1.396-1.396l0-2.986
		c0-6.782-0.006-13.563-0.028-20.346c-0.004-1.312-0.545-2.592-1.483-3.51c-0.938-0.918-2.214-1.423-3.542-1.407
		c-21.466,0.391-44.997,0.58-71.936,0.58c-23.555,0-47.51-0.141-70.676-0.277c-23.135-0.137-47.058-0.277-70.549-0.277
		c-6.071,0-12.139,0.009-18.205,0.029c-0.774,0-1.398-0.621-1.401-1.391c-0.003-0.771,0.62-1.398,1.391-1.4
		c6.069-0.021,12.141-0.031,18.215-0.031c23.5,0,47.426,0.142,70.566,0.278c23.162,0.136,47.113,0.278,70.66,0.278
		c26.923,0,50.437-0.19,71.886-0.58c2.074-0.027,4.077,0.766,5.545,2.203c1.47,1.437,2.316,3.441,2.323,5.496
		c0.022,6.785,0.028,13.57,0.028,20.354l0,2.987C-360.555,65.262-361.18,65.887-361.951,65.887z"/>
	<path id="XMLID_826_" fill="#214D6A" d="M-625.372,189.368c-0.37,0-0.726-0.146-0.988-0.409c-0.269-0.27-0.417-0.638-0.408-1.018
		c0.317-14.453,0.003-27.083-0.303-39.299c-0.206-8.307-0.421-16.898-0.421-25.783c0-11.686-0.282-23.594-0.555-35.109
		c-0.246-10.395-0.5-21.143-0.548-31.725c-0.003-0.771,0.619-1.4,1.39-1.402c0.774,0,1.399,0.62,1.402,1.39
		c0.048,10.556,0.302,21.29,0.548,31.672c0.273,11.531,0.555,23.457,0.555,35.176c0,8.851,0.205,17.042,0.421,25.715
		c0.295,11.835,0.601,24.061,0.332,37.973c32.834-0.654,66.394-0.62,98.865-0.589c21.434,0.02,43.596,0.043,65.372-0.133
		c0.777,0,1.401,0.618,1.407,1.386c0.006,0.77-0.614,1.4-1.385,1.406c-21.79,0.177-43.958,0.154-65.397,0.133
		C-558.02,188.718-592.079,188.683-625.372,189.368z"/>
	<path id="XMLID_825_" fill="#214D6A" d="M-376.205,71.961c-0.768,0-1.393-0.621-1.396-1.39c-0.035-7.254-0.069-14.458-0.121-21.588
		c-15.288-0.434-31.397-0.646-49.193-0.646c-27.89,0-56.254,0.529-83.684,1.041c-27.443,0.512-55.819,1.041-83.736,1.041
		c-7.023,0-14.182-0.136-21.279-0.403c-0.771-0.028-1.372-0.677-1.342-1.448c0.029-0.77,0.664-1.381,1.447-1.342
		c7.062,0.265,14.186,0.4,21.174,0.4c27.89,0,56.254-0.528,83.684-1.04c27.443-0.512,55.819-1.04,83.736-1.04
		c18.347,0,34.905,0.224,50.62,0.685c0.75,0.022,1.349,0.634,1.355,1.385c0.058,7.571,0.095,15.229,0.131,22.942
		C-374.805,71.329-375.427,71.957-376.205,71.961z"/>
	<path id="XMLID_824_" fill="#214D6A" d="M-504.689,257.287c1.577,7.506,3.208,15.268,5.233,22.859
		c2.317,8.689,4.212,13.389,6.045,17.936l0.841,2.092c4.043,10.076,8.223,20.495,17.132,27.706
		c25.797,20.878,38.709,49.904,51.195,77.976c2.802,6.301,5.7,12.815,8.697,19.133c0.33,0.696,1.164,0.99,1.859,0.663
		c0.697-0.331,0.994-1.163,0.663-1.86c-2.982-6.286-5.873-12.785-8.669-19.07c-12.62-28.372-25.671-57.712-51.989-79.012
		c-8.346-6.754-12.388-16.83-16.298-26.575l-0.843-2.097c-1.801-4.467-3.664-9.087-5.936-17.609
		c-2.006-7.521-3.629-15.244-5.199-22.715c-0.633-3.015-1.267-6.028-1.925-9.035c-0.706-3.225-1.065-6.347-1.065-9.281
		c0-4.84,0.977-9.37,2.902-13.464c3.54-7.523,7.745-16.298,12.499-26.082c1.064-2.192,3.699-4.042,5.752-4.042
		c0.721,0,1.288,0.223,1.733,0.68c6.091,6.25,9.18,15.678,9.18,28.021c0,5.27-0.57,11.031-1.695,17.128
		c-0.147,0.799-0.222,1.617-0.222,2.431c0,3.252,1.177,6.519,3.405,9.448c2.956,3.886,5.53,7.495,7.869,11.033
		c0.891,1.348,2.99,1.643,3.724,1.643c2.525,0,4.579-2.14,4.579-4.768l-0.003-0.191c-0.411-10.728-0.905-21.617-1.382-32.149
		c-1.21-26.665-2.46-54.239-2.46-81.405c0-2.348,0.009-4.695,0.028-7.044c0.106-12.998,2.971-18.3,9.889-18.3
		c13.354,0,14.749,20.162,16.861,50.68c1.013,14.641,2.162,31.234,4.863,49.261c0.083,0.552,0.487,1.002,1.027,1.144
		c0.539,0.143,1.114-0.053,1.456-0.494c4.64-5.969,11.971-9.826,18.678-9.826c2.529,0,8.789,0.612,12.287,6.279
		c0.236,0.385,0.645,0.631,1.095,0.66c0.443,0.029,0.887-0.159,1.173-0.508c3.945-4.818,9.938-7.813,15.638-7.813
		c4.632,0,10.813,2.178,12.986,8.313c0.156,0.441,0.523,0.774,0.978,0.888c0.454,0.113,0.935-0.008,1.28-0.324
		c3.376-3.09,7.918-4.791,12.79-4.791c14.414,0,17.572,8.628,17.879,21.584c0.202,8.534,0.979,17.135,1.733,25.452
		c0.872,9.628,1.773,19.583,1.773,29.424c0,26.551-7.137,42.117-17.015,63.663c-0.8,1.743-1.617,3.524-2.449,5.355
		c-0.177,0.388-0.167,0.835,0.028,1.214c8.037,15.693,16.932,32.607,27.513,49.968c12.654,20.763,23.299,41.957,33.594,62.454
		c1.14,2.268,2.296,4.564,3.45,6.857h3.126c-1.369-2.716-2.732-5.427-4.081-8.11c-10.32-20.547-20.991-41.794-33.705-62.654
		c-10.4-17.063-19.172-33.712-27.104-49.187c0.735-1.611,1.457-3.189,2.166-4.733c10.025-21.867,17.269-37.667,17.269-64.826
		c0-9.967-0.907-19.986-1.784-29.676c-0.749-8.273-1.523-16.825-1.723-25.267c-0.284-12.021-2.962-24.311-20.67-24.311
		c-4.889,0-9.501,1.512-13.188,4.289c-3.127-6.141-9.772-8.373-14.846-8.373c-5.955,0-12.163,2.826-16.594,7.473
		c-3.102-3.895-7.957-6.092-13.599-6.092c-6.603,0-13.714,3.285-18.837,8.555c-2.375-16.765-3.449-32.27-4.401-46.04
		c-2.22-32.084-3.687-53.279-19.647-53.279c-12.509,0-12.63,14.764-12.681,21.069c-0.019,2.356-0.028,4.711-0.028,7.066
		c0,27.229,1.252,54.835,2.463,81.531c0.478,10.527,0.971,21.413,1.383,32.215c0,1.09-0.802,1.977-1.787,1.977
		c-0.499,0-1.246-0.245-1.395-0.391c-2.374-3.589-4.982-7.248-7.976-11.184c-1.855-2.439-2.836-5.122-2.836-7.758
		c0-0.645,0.059-1.292,0.176-1.924c1.155-6.264,1.741-12.196,1.741-17.635c0-13.098-3.355-23.182-9.973-29.971
		c-0.97-0.996-2.261-1.521-3.732-1.521c-3.156,0-6.709,2.412-8.264,5.612c-4.759,9.796-8.969,18.582-12.514,26.114
		c-2.102,4.469-3.168,9.398-3.168,14.652c0,3.135,0.38,6.459,1.129,9.879C-505.952,251.275-505.321,254.28-504.689,257.287z"/>
	<path id="XMLID_823_" fill="#214D6A" d="M-615.272,69.667c-0.771,0-1.396-0.625-1.396-1.396s0.625-1.396,1.396-1.396
		c6.112,0,12.105-0.159,18.321-0.487c0.787-0.045,1.427,0.551,1.467,1.321c0.041,0.77-0.551,1.427-1.321,1.467
		C-603.069,69.507-609.11,69.667-615.272,69.667z"/>
	<path id="XMLID_822_" fill="#214D6A" d="M-607.677,76.334c-2.685,0-5.191-0.059-7.663-0.18c-0.771-0.037-1.364-0.692-1.327-1.462
		c0.038-0.771,0.699-1.364,1.462-1.327c2.426,0.118,4.888,0.177,7.527,0.177c3.967,0,6.876-0.129,11.197-0.339
		c0.753-0.032,1.424,0.556,1.462,1.326c0.038,0.77-0.557,1.425-1.327,1.463C-600.707,76.205-603.647,76.334-607.677,76.334z"/>
	<path id="XMLID_821_" fill="#214D6A" d="M-610.772,83.403c-1.559,0-3.123-0.021-4.698-0.062c-0.771-0.021-1.38-0.661-1.36-1.432
		c0.02-0.77,0.636-1.412,1.431-1.359c1.552,0.039,3.092,0.061,4.627,0.061c4.959,0,9.557-0.224,14.055-0.686
		c0.769-0.072,1.453,0.479,1.532,1.246c0.079,0.767-0.479,1.453-1.246,1.531C-601.026,83.173-605.717,83.403-610.772,83.403z"/>
	<path id="XMLID_820_" fill="#214D6A" d="M-426.627,201.38c-0.76,0-1.383-0.609-1.395-1.372c-0.013-0.771,0.602-1.406,1.373-1.419
		l61.17-1.02c1.598-0.027,3.142-0.711,4.236-1.877c1.096-1.168,1.682-2.752,1.607-4.346c-1.676-35.506-1.816-71.341-1.816-105.002
		l0.001-6.451c0-0.771,0.625-1.396,1.396-1.396c0.771,0.001,1.396,0.626,1.396,1.396l-0.001,6.45
		c0,33.628,0.14,69.425,1.814,104.869c0.111,2.346-0.749,4.674-2.359,6.39c-1.608,1.713-3.877,2.718-6.225,2.757
		C-365.433,200.36-426.603,201.38-426.627,201.38z"/>
	<path id="XMLID_819_" fill="#214D6A" d="M-427.907,187.098c-0.759,0-1.381-0.607-1.396-1.37c-0.014-0.771,0.6-1.407,1.371-1.422
		c19.989-0.364,38.04-0.936,55.125-1.746c-2.25-32.574-2.63-66.898-2.807-96.579c-0.005-0.771,0.617-1.399,1.388-1.404
		c0.775,0,1.4,0.619,1.404,1.388c0.18,30.071,0.566,64.909,2.9,97.823c0.026,0.374-0.099,0.744-0.349,1.025
		c-0.249,0.28-0.601,0.45-0.977,0.468C-388.782,186.128-407.308,186.722-427.907,187.098z"/>
	<path fill="#FFFFFF" stroke="#214D6A" stroke-width="5.1527" stroke-miterlimit="10" d="M84.376,154.324
		c0,0,140.412-27.178,191.939-92.876c0,0,138.74,178.513,250.434,216.811c1.541,0.528,3.083,1.035,4.626,1.52
		c0,0-176.481,106.288-248.62,71.507C282.756,351.287,99.834,184.592,84.376,154.324z"/>
	
		<text transform="matrix(0.8817 -0.4718 0.4718 0.8817 213.8022 247.2971)" fill="#214D6A" font-family="'BloggerSans-Light'" font-size="27.5406">Hoja de vida</text>
</g>
<g id="Capa_2">
</g>
</svg>
