<?xml version="1.0" encoding="utf-8"?>
<!-- Generator: Adobe Illustrator 17.0.0, SVG Export Plug-In . SVG Version: 6.00 Build 0)  -->
<!DOCTYPE svg PUBLIC "-//W3C//DTD SVG 1.1//EN" "http://www.w3.org/Graphics/SVG/1.1/DTD/svg11.dtd">
<svg version="1.1" id="Capa_1" xmlns="http://www.w3.org/2000/svg" xmlns:xlink="http://www.w3.org/1999/xlink" x="0px" y="0px"
	 width="546px" height="768px" viewBox="0 0 546 768" enable-background="new 0 0 546 768" xml:space="preserve">
<rect x="37.661" y="38.767" fill="#676767" width="497.945" height="707.012"/>
<rect x="14.194" y="19.316" fill="#FFFFFF" width="497.945" height="707.011"/>
<rect x="14.194" y="19.316" fill="#08A6DB" width="497.945" height="66.259"/>
<rect x="14.194" y="540.979" fill="#D7D7D8" width="497.945" height="185.225"/>
<rect x="14.194" y="540.979" fill="#1F1E43" width="497.945" height="50.949"/>
<g>
	<g>
		<path fill="#1F1E43" d="M68.666,164.131c-0.878,0-1.632-0.753-1.632-1.631s0.754-1.631,1.632-1.631s1.631,0.753,1.631,1.631
			S69.67,164.131,68.666,164.131z M67.786,167.394c0-0.502,0.377-1.004,0.879-1.004s0.878,0.502,0.878,1.004l0.251,14.432
			c0,0.627-0.502,1.255-1.255,1.255s-1.255-0.627-1.255-1.255L67.786,167.394z"/>
		<path fill="#1F1E43" d="M78.202,175.551v-7.529l-5.396-11.545c0-0.125-0.125-0.376-0.125-0.627c0-0.627,0.627-1.255,1.255-1.255
			c0.377,0,0.754,0.125,1.004,0.502l4.644,10.039l4.644-10.039c0.125-0.376,0.627-0.502,1.004-0.502
			c0.627,0,1.254,0.627,1.254,1.255c0,0.125,0,0.376-0.125,0.627l-5.396,11.67v7.404c0,0.628-0.502,1.255-1.255,1.255
			S78.202,176.179,78.202,175.551z"/>
		<path fill="#1F1E43" d="M94.893,166.139c0-2.259-1.129-3.263-3.263-3.263c-1.129,0-1.631,0.251-2.385,0.627
			c-0.125,0-0.502,0.251-0.752,0.251c-0.627,0-0.879-0.502-0.879-1.004c-0.125-1.38,2.134-2.008,4.268-2.008
			c3.766,0,5.396,2.133,5.396,6.149v6.776c0,0.627,0.125,0.878,0.502,0.878c0.125,0,0.125,0,0.25,0c0.627,0,0.879,0.502,0.879,1.004
			c0,0.753-0.754,1.004-1.381,1.004c-1.004,0-1.881-0.627-2.258-1.506c-1.13,1.129-2.511,1.631-4.142,1.631
			c-3.138,0-4.644-1.882-4.644-4.643v-0.125c0-3.012,1.758-4.518,5.396-4.518c1.129,0,2.133,0.125,3.137,0.376v-1.631h-0.126v0.002
			L94.893,166.139L94.893,166.139z M88.743,172.037L88.743,172.037c0,1.506,0.628,2.51,2.636,2.51c1.255,0,2.384-0.376,3.388-1.38
			v-3.263c-1.004-0.251-2.259-0.502-3.137-0.502C89.245,169.527,88.743,170.657,88.743,172.037z"/>
		<path fill="#1F1E43" d="M111.207,157.48c0-0.627,0.376-1.129,1.255-1.129c0.753,0,1.255,0.502,1.255,1.129v4.267h3.138
			c0.627,0,1.129,0.502,1.129,1.129s-0.502,1.129-1.129,1.129h-3.138v6.149c0,3.137,0.251,4.267,2.511,4.267
			c0.125,0,0.375,0,0.627,0c0.752,0,1.631,0.125,1.631,1.129s-0.879,1.129-1.758,1.129c-4.267,0-5.271-2.133-5.271-6.274
			L111.207,157.48L111.207,157.48z"/>
		<path fill="#1F1E43" d="M122.376,157.48c-0.878,0-1.506-0.627-1.506-1.506s0.627-1.506,1.506-1.506s1.506,0.627,1.506,1.506
			S123.254,157.48,122.376,157.48z M122.376,176.681c-0.627,0-1.256-0.502-1.256-1.255v-13.553c0-0.627,0.503-1.255,1.256-1.255
			c0.627,0,1.255,0.502,1.255,1.255v13.553C123.631,176.179,123.003,176.681,122.376,176.681z"/>
		<path fill="#1F1E43" d="M136.431,173.794c0,0,0.251-0.125,0.376-0.125c0.628,0,1.13,0.502,1.13,1.129
			c0,1.506-3.263,2.008-5.02,2.008c-3.514,0-5.396-2.259-5.396-5.02v-5.772c0-2.886,2.008-5.145,5.647-5.145
			c3.388,0,5.021,2.008,5.021,5.02c0,2.761-1.507,4.518-5.146,4.518c-0.878,0-2.008-0.125-3.137-0.251v1.757
			c0,1.757,1.129,2.761,3.388,2.761C134.548,174.547,135.301,174.296,136.431,173.794z M133.042,162.876
			c-2.008,0-3.137,1.129-3.137,2.761v2.384c1.129,0.125,2.635,0.251,3.263,0.251c2.384,0,2.761-1.255,2.761-2.51
			C135.803,163.755,134.799,162.876,133.042,162.876z"/>
		<path fill="#1F1E43" d="M144.211,175.551c0,0.628-0.376,1.13-1.255,1.13s-1.256-0.502-1.256-1.13v-10.416
			c0-1.631-0.25-1.631-0.502-2.133c0-0.125-0.25-0.251-0.25-0.627c0-0.627,0.502-1.129,1.129-1.129c0.502,0,1.004,0.376,1.255,0.878
			c1.38-1.004,2.886-1.38,4.392-1.38c3.264,0,4.895,2.384,4.895,5.772v8.91c0,0.627-0.376,1.129-1.256,1.129
			c-0.753,0-1.255-0.502-1.255-1.129v-8.91c0-2.384-1.004-3.639-2.761-3.639c-1.255,0-2.384,0.502-3.388,1.255
			c0,0.376,0.125,0.627,0.125,0.878L144.211,175.551L144.211,175.551z"/>
		<path fill="#1F1E43" d="M165.293,173.794c0,0,0.251-0.125,0.376-0.125c0.627,0,1.129,0.502,1.129,1.129
			c0,1.506-3.263,2.008-5.02,2.008c-3.515,0-5.396-2.259-5.396-5.02v-5.772c0-2.886,2.008-5.145,5.646-5.145
			c3.389,0,5.021,2.008,5.021,5.02c0,2.761-1.506,4.518-5.146,4.518c-0.877,0-2.008-0.125-3.137-0.251v1.757
			c0,1.757,1.129,2.761,3.389,2.761C163.411,174.547,164.289,174.296,165.293,173.794z M161.905,162.876
			c-2.009,0-3.138,1.129-3.138,2.761v2.384c1.129,0.125,2.636,0.251,3.264,0.251c2.384,0,2.761-1.255,2.761-2.51
			C164.666,163.755,163.662,162.876,161.905,162.876z"/>
		<path fill="#1F1E43" d="M175.844,160.743c1.631,0,4.016,0.376,4.016,1.757c0,0.627-0.502,1.129-1.129,1.129
			c-0.251,0-0.376,0-0.502-0.125c-0.627-0.251-1.255-0.502-2.384-0.502c-1.883,0-2.762,0.753-2.762,2.133
			c0,1.004,0.376,1.38,1.381,2.008c2.133,1.004,5.646,1.255,5.646,5.271c0,2.761-1.757,4.518-5.145,4.518
			c-1.507,0-4.519-0.377-4.519-1.757c0-0.502,0.376-1.129,1.129-1.129c0.125,0,0.251,0,0.251,0c0.878,0.376,1.882,0.753,3.012,0.753
			c1.632,0,2.762-0.627,2.762-2.259c0-1.129-0.502-1.506-1.129-1.882c-1.883-1.004-6.023-1.255-6.023-5.271
			C170.824,162.5,172.581,160.743,175.844,160.743z"/>
		<path fill="#1F1E43" d="M217.72,161.998c0-0.627,0.376-1.129,1.255-1.129c0.878,0,1.255,0.502,1.255,1.129v10.667
			c0,1.631,0.251,1.631,0.503,2.133c0,0.125,0.25,0.376,0.25,0.627c0,0.627-0.502,1.129-1.129,1.129s-1.004-0.376-1.255-0.878
			c-1.38,0.753-2.886,1.129-4.392,1.129c-3.263,0-4.895-2.384-4.895-5.772v-8.91c0-0.627,0.377-1.129,1.256-1.129
			s1.255,0.502,1.255,1.129v8.91c0,2.384,1.004,3.639,2.761,3.639c1.255,0,2.384-0.376,3.389-1.004c0-0.251,0-0.627,0-0.878
			L217.72,161.998L217.72,161.998z"/>
		<path fill="#1F1E43" d="M236.418,176.053v5.773c0,0.627-0.376,1.129-1.255,1.129s-1.255-0.502-1.255-1.129v-16.69
			c0-1.004-0.125-1.631-0.502-2.133c-0.125-0.125-0.251-0.376-0.251-0.627c0-0.627,0.502-1.129,1.129-1.129
			c0.502,0,0.878,0.251,1.255,0.753c1.38-0.753,2.886-1.38,4.518-1.38c3.264,0,4.895,2.384,4.895,5.772v4.016
			c0,3.639-1.255,6.149-5.146,6.149C238.802,176.681,237.547,176.43,236.418,176.053z M236.418,173.919
			c1.004,0.502,2.384,0.627,3.137,0.627c2.259,0,3.012-1.255,3.012-4.141v-4.016c0-2.384-1.004-3.639-3.012-3.639
			c-1.004,0-2.259,0.376-3.263,1.004c0.125,0.502,0.125,0.878,0.125,1.255L236.418,173.919L236.418,173.919z"/>
		<path fill="#1F1E43" d="M256.245,166.139c0-2.259-1.13-3.263-3.263-3.263c-1.131,0-1.633,0.251-2.386,0.627
			c-0.125,0-0.502,0.251-0.753,0.251c-0.627,0-0.878-0.502-0.878-1.004c-0.126-1.38,2.133-2.008,4.267-2.008
			c3.766,0,5.396,2.133,5.396,6.149v6.776c0,0.627,0.126,0.878,0.502,0.878c0.126,0,0.126,0,0.251,0
			c0.628,0,0.879,0.502,0.879,1.004c0,0.753-0.753,1.004-1.381,1.004c-1.004,0-1.882-0.627-2.259-1.506
			c-1.129,1.129-2.51,1.631-4.142,1.631c-3.138,0-4.644-1.882-4.644-4.643v-0.125c0-3.012,1.757-4.518,5.396-4.518
			c1.129,0,2.133,0.125,3.137,0.376v-1.631h-0.124v0.002L256.245,166.139L256.245,166.139z M250.096,172.037L250.096,172.037
			c0,1.506,0.628,2.51,2.637,2.51c1.255,0,2.384-0.376,3.388-1.38v-3.263c-1.004-0.251-2.259-0.502-3.138-0.502
			C250.598,169.527,250.096,170.657,250.096,172.037z"/>
		<path fill="#1F1E43" d="M267.916,160.743c1.631,0,4.016,0.376,4.016,1.757c0,0.627-0.502,1.129-1.13,1.129
			c-0.251,0-0.376,0-0.502-0.125c-0.627-0.251-1.255-0.502-2.384-0.502c-1.883,0-2.762,0.753-2.762,2.133
			c0,1.004,0.377,1.38,1.381,2.008c2.134,1.004,5.646,1.255,5.646,5.271c0,2.761-1.757,4.518-5.146,4.518
			c-1.506,0-4.519-0.377-4.519-1.757c0-0.502,0.377-1.129,1.129-1.129c0.126,0,0.252,0,0.252,0c0.879,0.376,1.883,0.753,3.013,0.753
			c1.631,0,2.761-0.627,2.761-2.259c0-1.129-0.502-1.506-1.13-1.882c-1.883-1.004-6.023-1.255-6.023-5.271
			C262.896,162.5,264.652,160.743,267.916,160.743z"/>
		<path fill="#1F1E43" d="M283.602,166.139c0-2.259-1.129-3.263-3.263-3.263c-1.129,0-1.631,0.251-2.384,0.627
			c-0.126,0-0.502,0.251-0.753,0.251c-0.628,0-0.879-0.502-0.879-1.004c-0.125-1.38,2.134-2.008,4.267-2.008
			c3.766,0,5.396,2.133,5.396,6.149v6.776c0,0.627,0.125,0.878,0.502,0.878c0.125,0,0.125,0,0.251,0
			c0.627,0,0.878,0.502,0.878,1.004c0,0.753-0.753,1.004-1.38,1.004c-1.005,0-1.884-0.627-2.26-1.506
			c-1.13,1.129-2.51,1.631-4.142,1.631c-3.137,0-4.643-1.882-4.643-4.643v-0.125c0-3.012,1.757-4.518,5.396-4.518
			c1.13,0,2.134,0.125,3.138,0.376L283.602,166.139L283.602,166.139z M277.453,172.037L277.453,172.037
			c0,1.506,0.627,2.51,2.635,2.51c1.255,0,2.385-0.376,3.389-1.38v-3.263c-1.004-0.251-2.259-0.502-3.138-0.502
			C277.955,169.527,277.453,170.657,277.453,172.037z"/>
		<path fill="#1F1E43" d="M293.265,176.053v5.773c0,0.627-0.377,1.129-1.255,1.129c-0.753,0-1.255-0.502-1.255-1.129v-16.69
			c0-1.004-0.126-1.631-0.502-2.133c-0.126-0.125-0.251-0.376-0.251-0.627c0-0.627,0.502-1.129,1.129-1.129
			c0.502,0,0.879,0.251,1.255,0.753c1.381-0.753,2.888-1.38,4.52-1.38c3.263,0,4.894,2.384,4.894,5.772v4.016
			c0,3.639-1.255,6.149-5.146,6.149C295.649,176.681,294.394,176.43,293.265,176.053z M293.265,173.919
			c1.004,0.502,2.384,0.627,3.139,0.627c2.258,0,3.012-1.255,3.012-4.141v-4.016c0-2.384-1.004-3.639-3.012-3.639
			c-1.006,0-2.261,0.376-3.265,1.004c0.126,0.502,0.126,0.878,0.126,1.255V173.919L293.265,173.919z"/>
		<path fill="#1F1E43" d="M304.559,171.284v-5.145c0-3.012,2.008-5.396,5.772-5.396s5.771,2.384,5.771,5.396v5.145
			c0,3.012-2.008,5.396-5.771,5.396C306.567,176.68,304.559,174.296,304.559,171.284z M313.594,171.284v-5.145
			c0-2.008-1.129-3.263-3.388-3.263s-3.389,1.255-3.389,3.263v5.145c0,2.008,1.13,3.263,3.389,3.263
			S313.594,173.292,313.594,171.284z"/>
		<path fill="#1F1E43" d="M322.002,175.551c0,0.628-0.502,1.255-1.255,1.255c-0.628,0-1.255-0.502-1.255-1.255v-10.29
			c0-1.004-0.126-1.631-0.502-2.133c-0.126-0.125-0.251-0.376-0.251-0.627c0-0.627,0.502-1.129,1.129-1.129
			c0.502,0,0.879,0.376,1.255,0.878c1.255-0.878,3.012-1.255,4.142-1.255c1.255,0,1.632,0.502,1.632,1.129
			c0,0.753-0.502,1.255-1.256,1.255c-1.255,0-2.384,0-3.89,1.129c0,0.251,0,0.627,0,0.878L322.002,175.551L322.002,175.551z"/>
		<path fill="#1F1E43" d="M198.117,157.48c0-0.627,0.376-1.129,1.254-1.129c0.754,0,1.256,0.502,1.256,1.129v4.267h3.137
			c0.628,0,1.13,0.502,1.13,1.129s-0.502,1.129-1.13,1.129h-3.137v6.149c0,3.137,0.251,4.267,2.51,4.267c0.125,0,0.376,0,0.627,0
			c0.753,0,1.632,0.125,1.632,1.129s-0.879,1.129-1.757,1.129c-4.267,0-5.271-2.133-5.271-6.274V157.48H198.117z"/>
		<path fill="#1F1E43" d="M329.467,157.48c0-0.627,0.376-1.129,1.254-1.129c0.754,0,1.256,0.502,1.256,1.129v4.267h3.137
			c0.628,0,1.13,0.502,1.13,1.129s-0.502,1.129-1.13,1.129h-3.137v6.149c0,3.137,0.251,4.267,2.51,4.267c0.125,0,0.376,0,0.627,0
			c0.753,0,1.632,0.125,1.632,1.129s-0.879,1.129-1.757,1.129c-4.267,0-5.271-2.133-5.271-6.274V157.48H329.467z"/>
		<path fill="#1F1E43" d="M347.728,173.794c0,0,0.251-0.125,0.376-0.125c0.628,0,1.131,0.502,1.131,1.129
			c0,1.506-3.264,2.008-5.021,2.008c-3.514,0-5.396-2.259-5.396-5.02v-5.772c0-2.886,2.008-5.145,5.646-5.145
			c3.388,0,5.02,2.008,5.02,5.02c0,2.761-1.506,4.518-5.146,4.518c-0.878,0-2.008-0.125-3.137-0.251v1.757
			c0,1.757,1.129,2.761,3.388,2.761C345.72,174.547,346.598,174.296,347.728,173.794z M344.339,162.876
			c-2.008,0-3.137,1.129-3.137,2.761v2.384c1.129,0.125,2.635,0.251,3.263,0.251c2.384,0,2.761-1.255,2.761-2.51
			C347.1,163.755,346.096,162.876,344.339,162.876z"/>
		<path fill="#1F1E43" d="M366.426,160.743c1.631,0,4.016,0.376,4.016,1.757c0,0.627-0.502,1.129-1.13,1.129
			c-0.251,0-0.376,0-0.502-0.125c-0.627-0.251-1.255-0.502-2.384-0.502c-1.883,0-2.761,0.753-2.761,2.133
			c0,1.004,0.376,1.38,1.38,2.008c2.134,1.004,5.646,1.255,5.646,5.271c0,2.761-1.757,4.518-5.146,4.518
			c-1.506,0-4.518-0.377-4.518-1.757c0-0.502,0.377-1.129,1.129-1.129c0.126,0,0.252,0,0.252,0c0.878,0.376,1.882,0.753,3.012,0.753
			c1.631,0,2.761-0.627,2.761-2.259c0-1.129-0.502-1.506-1.13-1.882c-1.882-1.004-6.022-1.255-6.022-5.271
			C361.531,162.5,363.162,160.743,366.426,160.743z"/>
		<path fill="#1F1E43" d="M382.613,173.794c0,0,0.251-0.125,0.377-0.125c0.627,0,1.129,0.502,1.129,1.129
			c0,1.506-3.264,2.008-5.021,2.008c-3.514,0-5.396-2.259-5.396-5.02v-5.772c0-2.886,2.008-5.145,5.646-5.145
			c3.39,0,5.021,2.008,5.021,5.02c0,2.761-1.506,4.518-5.146,4.518c-0.879,0-2.008-0.125-3.138-0.251v1.757
			c0,1.757,1.13,2.761,3.389,2.761C380.733,174.547,381.484,174.296,382.613,173.794z M379.226,162.876
			c-2.008,0-3.138,1.129-3.138,2.761v2.384c1.13,0.125,2.636,0.251,3.263,0.251c2.386,0,2.762-1.255,2.762-2.51
			C381.986,163.755,380.983,162.876,379.226,162.876z"/>
		<path fill="#1F1E43" d="M387.382,155.473c0-0.627,0.502-1.255,1.255-1.255c0.628,0,1.255,0.502,1.255,1.255v18.07
			c0,0.627,0,1.129,0.377,1.38c0.125,0.125,0.251,0.376,0.251,0.627c0,0.628-0.502,1.13-1.13,1.13c-0.753,0-1.882-0.377-1.882-3.138
			v-18.07L387.382,155.473L387.382,155.473z"/>
		<path fill="#1F1E43" d="M394.41,155.473c0-0.627,0.502-1.255,1.255-1.255c0.627,0,1.255,0.502,1.255,1.255v18.07
			c0,0.627,0,1.129,0.376,1.38c0.126,0.125,0.251,0.376,0.251,0.627c0,0.628-0.502,1.13-1.129,1.13
			c-0.753,0-1.883-0.377-1.883-3.138v-18.07L394.41,155.473L394.41,155.473z"/>
		<path fill="#1F1E43" d="M408.967,166.139c0-2.259-1.13-3.263-3.263-3.263c-1.13,0-1.632,0.251-2.385,0.627
			c-0.125,0-0.503,0.251-0.753,0.251c-0.628,0-0.879-0.502-0.879-1.004c-0.126-1.38,2.134-2.008,4.268-2.008
			c3.765,0,5.396,2.133,5.396,6.149v6.776c0,0.627,0.126,0.878,0.502,0.878c0.126,0,0.126,0,0.251,0c0.629,0,0.88,0.502,0.88,1.004
			c0,0.753-0.753,1.004-1.382,1.004c-1.004,0-1.882-0.627-2.259-1.506c-1.129,1.129-2.51,1.631-4.141,1.631
			c-3.138,0-4.645-1.882-4.645-4.643v-0.125c0-3.012,1.758-4.518,5.396-4.518c1.129,0,2.133,0.125,3.137,0.376L408.967,166.139
			L408.967,166.139z M402.817,172.037L402.817,172.037c0,1.506,0.629,2.51,2.637,2.51c1.255,0,2.384-0.376,3.388-1.38v-3.263
			c-1.004-0.251-2.259-0.502-3.137-0.502C403.319,169.527,402.817,170.657,402.817,172.037z"/>
		<path fill="#1F1E43" d="M423.775,161.496v-6.023c0-0.627,0.375-1.129,1.255-1.129c0.753,0,1.255,0.502,1.255,1.129v17.568
			c0,0.878,0.126,1.38,0.753,1.882c0.126,0.125,0.251,0.376,0.251,0.627c0,0.628-0.502,1.13-1.129,1.13
			c-0.753,0-1.255-0.377-1.633-1.004c-1.381,0.627-2.761,1.255-4.393,1.255c-3.263,0-4.894-2.385-4.894-5.773v-3.89
			c0-3.639,1.255-6.149,5.146-6.149C421.39,160.869,422.645,161.12,423.775,161.496z M423.775,163.629
			c-1.005-0.376-2.386-0.627-3.139-0.627c-2.259,0-3.012,1.255-3.012,4.141v3.89c0,2.384,1.004,3.639,3.012,3.639
			c1.004,0,2.134-0.376,3.264-0.878c0-0.251,0-0.502,0-0.753L423.775,163.629L423.775,163.629z"/>
		<path fill="#1F1E43" d="M430.175,171.284v-5.145c0-3.012,2.008-5.396,5.772-5.396s5.771,2.384,5.771,5.396v5.145
			c0,3.012-2.008,5.396-5.771,5.396C432.183,176.68,430.175,174.296,430.175,171.284z M439.21,171.284v-5.145
			c0-2.008-1.13-3.263-3.389-3.263c-2.26,0-3.389,1.255-3.389,3.263v5.145c0,2.008,1.129,3.263,3.389,3.263
			C438.08,174.547,439.21,173.292,439.21,171.284z"/>
		<path fill="#1F1E43" d="M446.488,176.806c-0.879,0-1.633-0.753-1.633-1.631s0.754-1.631,1.633-1.631
			c0.878,0,1.631,0.753,1.631,1.631S447.366,176.806,446.488,176.806z M445.233,155.849c0-0.627,0.503-1.255,1.256-1.255
			s1.255,0.627,1.255,1.255l-0.251,14.431c0,0.502-0.377,1.004-0.879,1.004s-0.878-0.502-0.878-1.004L445.233,155.849z"/>
	</g>
</g>
<g>
	<path fill="#1F1E43" d="M64.987,493.291c-0.878,0-1.631-0.753-1.631-1.631c0-0.879,0.753-1.632,1.631-1.632
		s1.631,0.753,1.631,1.632C66.618,492.538,65.866,493.291,64.987,493.291z M64.109,496.429c0-0.502,0.376-1.004,0.878-1.004
		s0.878,0.502,0.878,1.004l0.251,14.432c0,0.628-0.502,1.256-1.255,1.256s-1.255-0.628-1.255-1.256L64.109,496.429z"/>
	<path fill="#1F1E43" d="M80.675,505.589h-8.158c-1.004,0-1.881-0.376-1.881-1.38v-18.698c0-0.753,0.627-1.38,1.379-1.38h8.283
		c0.627,0,1.254,0.502,1.254,1.255c0,0.627-0.502,1.129-1.254,1.129h-7.279v7.153h6.652c0.627,0,1.254,0.502,1.254,1.255
		s-0.502,1.255-1.254,1.255h-6.652v7.278h7.529c0.627,0,1.256,0.502,1.256,1.129C81.929,505.087,81.427,505.589,80.675,505.589z"/>
	<path fill="#1F1E43" d="M89.709,489.903c1.632,0,4.017,0.376,4.017,1.757c0,0.627-0.502,1.129-1.129,1.129
		c-0.252,0-0.377,0-0.502-0.125c-0.627-0.251-1.256-0.502-2.385-0.502c-1.882,0-2.761,0.753-2.761,2.133
		c0,1.004,0.376,1.381,1.38,2.008c2.133,1.004,5.646,1.255,5.646,5.271c0,2.761-1.756,4.518-5.145,4.518
		c-1.506,0-4.518-0.376-4.518-1.757c0-0.502,0.375-1.129,1.129-1.129c0.125,0,0.251,0,0.251,0c0.878,0.376,1.882,0.753,3.012,0.753
		c1.631,0,2.761-0.628,2.761-2.259c0-1.13-0.502-1.506-1.129-1.883c-1.882-1.005-6.023-1.256-6.023-5.271
		C84.688,491.66,86.446,489.903,89.709,489.903z"/>
	<path fill="#1F1E43" d="M126.152,489.903c1.632,0,4.017,0.376,4.017,1.757c0,0.627-0.502,1.129-1.129,1.129
		c-0.252,0-0.377,0-0.502-0.125c-0.627-0.251-1.256-0.502-2.385-0.502c-1.882,0-2.761,0.753-2.761,2.133
		c0,1.004,0.376,1.381,1.38,2.008c2.133,1.004,5.646,1.255,5.646,5.271c0,2.761-1.756,4.518-5.145,4.518
		c-1.506,0-4.518-0.376-4.518-1.757c0-0.502,0.375-1.129,1.129-1.129c0.125,0,0.251,0,0.251,0c0.878,0.376,1.882,0.753,3.012,0.753
		c1.631,0,2.761-0.628,2.761-2.259c0-1.13-0.502-1.506-1.129-1.883c-1.882-1.005-6.023-1.256-6.023-5.271
		C121.131,491.66,122.889,489.903,126.152,489.903z"/>
	<path fill="#1F1E43" d="M97.364,486.641c0-0.628,0.376-1.13,1.255-1.13s1.255,0.502,1.255,1.13v4.268h3.137
		c0.627,0,1.129,0.502,1.129,1.129c0,0.628-0.502,1.13-1.129,1.13h-3.137v6.148c0,3.138,0.251,4.267,2.51,4.267
		c0.125,0,0.377,0,0.627,0c0.754,0,1.631,0.126,1.631,1.13s-0.877,1.129-1.756,1.129c-4.268,0-5.271-2.133-5.271-6.273
		L97.364,486.641L97.364,486.641z"/>
	<path fill="#1F1E43" d="M114.68,495.299c0-2.259-1.129-3.263-3.263-3.263c-1.129,0-1.631,0.251-2.384,0.628
		c-0.125,0-0.502,0.251-0.753,0.251c-0.627,0-0.878-0.502-0.878-1.004c-0.125-1.381,2.133-2.008,4.268-2.008
		c3.764,0,5.396,2.133,5.396,6.147v6.776c0,0.628,0.125,0.879,0.502,0.879c0.125,0,0.125,0,0.251,0c0.627,0,0.878,0.502,0.878,1.004
		c0,0.753-0.753,1.004-1.38,1.004c-1.004,0-1.883-0.628-2.26-1.506c-1.129,1.129-2.51,1.631-4.141,1.631
		c-3.137,0-4.643-1.882-4.643-4.643v-0.126c0-3.013,1.757-4.519,5.396-4.519c1.129,0,2.133,0.126,3.137,0.377v-1.632h-0.127
		L114.68,495.299L114.68,495.299z M111.544,498.563c-2.51,0-3.012,1.13-3.012,2.51v0.126c0,1.38,0.627,2.51,2.635,2.51
		c1.256,0,2.385-0.377,3.389-1.381v-3.263C113.679,498.688,112.548,498.563,111.544,498.563z M111.042,486.515
		c-0.125,0.126-0.125,0.251-0.125,0.502c0,0.628,0.502,1.131,1.004,1.131c0.377,0,0.627-0.251,1.004-0.503l2.51-2.636
		c0.125-0.125,0.125-0.376,0.125-0.502c0-0.627-0.502-1.004-1.004-1.004s-0.752,0.251-1.129,0.753L111.042,486.515z"/>
	<path fill="#1F1E43" d="M153.036,502.828c0,0,0.251-0.125,0.376-0.125c0.627,0,1.129,0.502,1.129,1.129
		c0,1.506-3.264,2.008-5.02,2.008c-3.515,0-5.396-2.259-5.396-5.02v-5.772c0-2.886,2.008-5.145,5.646-5.145
		c3.389,0,5.021,2.008,5.021,5.02c0,2.761-1.506,4.519-5.146,4.519c-0.877,0-2.008-0.126-3.138-0.251v1.757
		c0,1.757,1.13,2.761,3.39,2.761C151.152,503.707,152.032,503.33,153.036,502.828z M149.773,492.036
		c-2.008,0-3.138,1.13-3.138,2.761v2.385c1.13,0.125,2.636,0.251,3.263,0.251c2.385,0,2.762-1.255,2.762-2.51
		C152.534,492.915,151.529,492.036,149.773,492.036z"/>
	<path fill="#1F1E43" d="M160.816,504.585c0,0.628-0.377,1.13-1.256,1.13s-1.255-0.502-1.255-1.13V494.17
		c0-1.632-0.251-1.632-0.502-2.134c0-0.125-0.251-0.251-0.251-0.627c0-0.628,0.502-1.13,1.129-1.13c0.502,0,1.004,0.377,1.255,0.879
		c1.381-1.004,2.887-1.381,4.393-1.381c3.263,0,4.894,2.385,4.894,5.771v8.91c0,0.627-0.376,1.129-1.255,1.129
		c-0.753,0-1.255-0.502-1.255-1.129v-8.91c0-2.384-1.004-3.639-2.761-3.639c-1.255,0-2.384,0.502-3.388,1.255
		c0,0.376,0.125,0.627,0.125,0.878L160.816,504.585L160.816,504.585z"/>
	<path fill="#1F1E43" d="M183.153,484.633c0-0.628,0.502-1.255,1.255-1.255s1.255,0.502,1.255,1.255v18.07
		c0,0.627,0,1.129,0.376,1.38c0.125,0.126,0.251,0.377,0.251,0.628c0,0.627-0.502,1.129-1.129,1.129
		c-0.753,0-1.882-0.376-1.882-3.137v-18.07H183.153z"/>
	<path fill="#1F1E43" d="M197.71,495.299c0-2.259-1.129-3.263-3.263-3.263c-1.129,0-1.631,0.251-2.385,0.628
		c-0.125,0-0.502,0.251-0.753,0.251c-0.627,0-0.878-0.502-0.878-1.004c-0.125-1.381,2.133-2.008,4.268-2.008
		c3.765,0,5.396,2.133,5.396,6.147v6.776c0,0.628,0.125,0.879,0.502,0.879c0.125,0,0.125,0,0.251,0c0.627,0,0.878,0.502,0.878,1.004
		c0,0.753-0.753,1.004-1.38,1.004c-1.004,0-1.882-0.628-2.259-1.506c-1.129,1.129-2.51,1.631-4.141,1.631
		c-3.138,0-4.644-1.882-4.644-4.643v-0.126c0-3.013,1.757-4.519,5.396-4.519c1.129,0,2.133,0.126,3.137,0.377v-1.632h-0.126v0.004
		H197.71z M191.561,501.071L191.561,501.071c0,1.506,0.627,2.51,2.636,2.51c1.255,0,2.384-0.376,3.388-1.38v-3.263
		c-1.004-0.251-2.259-0.503-3.137-0.503C192.063,498.563,191.561,499.691,191.561,501.071z"/>
	<path fill="#1F1E43" d="M216.534,504.585c0,0.628-0.502,1.255-1.255,1.255c-0.627,0-1.256-0.502-1.256-1.255v-10.29
		c0-1.004-0.125-1.631-0.502-2.133c-0.125-0.126-0.251-0.377-0.251-0.628c0-0.627,0.503-1.129,1.13-1.129
		c0.502,0,0.878,0.376,1.255,0.878c1.255-0.878,3.012-1.255,4.141-1.255c1.255,0,1.631,0.502,1.631,1.13
		c0,0.753-0.502,1.255-1.255,1.255c-1.255,0-2.384,0-3.89,1.129c0,0.251,0,0.628,0,0.879L216.534,504.585L216.534,504.585z"/>
	<path fill="#1F1E43" d="M232.847,491.158c0-0.628,0.376-1.13,1.255-1.13s1.256,0.502,1.256,1.13v10.666
		c0,1.632,0.251,1.632,0.502,2.134c0,0.125,0.251,0.376,0.251,0.627c0,0.628-0.502,1.13-1.13,1.13c-0.627,0-1.004-0.377-1.255-0.879
		c-1.38,0.753-2.886,1.13-4.392,1.13c-3.263,0-4.895-2.385-4.895-5.771v-8.91c0-0.627,0.377-1.129,1.256-1.129
		s1.255,0.502,1.255,1.129v8.91c0,2.384,1.004,3.639,2.761,3.639c1.255,0,2.384-0.376,3.388-1.004c0-0.251,0-0.627,0-0.878
		L232.847,491.158L232.847,491.158z"/>
	<path fill="#1F1E43" d="M239.875,486.641c0-0.628,0.376-1.13,1.255-1.13c0.878,0,1.255,0.502,1.255,1.13v4.268h3.137
		c0.629,0,1.131,0.502,1.131,1.129c0,0.628-0.502,1.13-1.131,1.13h-3.137v6.148c0,3.138,0.251,4.267,2.51,4.267
		c0.125,0,0.377,0,0.627,0c0.754,0,1.633,0.126,1.633,1.13s-0.879,1.129-1.758,1.129c-4.267,0-5.271-2.133-5.271-6.273
		L239.875,486.641L239.875,486.641z"/>
	<path fill="#1F1E43" d="M257.318,495.299c0-2.259-1.131-3.263-3.265-3.263c-1.129,0-1.631,0.251-2.384,0.628
		c-0.126,0-0.502,0.251-0.753,0.251c-0.628,0-0.879-0.502-0.879-1.004c-0.125-1.381,2.134-2.008,4.267-2.008
		c3.766,0,5.396,2.133,5.396,6.147v6.776c0,0.628,0.126,0.879,0.502,0.879c0.126,0,0.126,0,0.251,0c0.628,0,0.879,0.502,0.879,1.004
		c0,0.753-0.754,1.004-1.381,1.004c-1.004,0-1.883-0.628-2.259-1.506c-1.131,1.129-2.511,1.631-4.143,1.631
		c-3.137,0-4.643-1.882-4.643-4.643v-0.126c0-3.013,1.757-4.519,5.396-4.519c1.13,0,2.134,0.126,3.139,0.377v-1.632h-0.123V495.299z
		 M251.169,501.071L251.169,501.071c0,1.506,0.627,2.51,2.635,2.51c1.255,0,2.386-0.376,3.39-1.38v-3.263
		c-1.004-0.251-2.26-0.503-3.139-0.503C251.671,498.563,251.169,499.691,251.169,501.071z"/>
	<path fill="#1F1E43" d="M281.161,495.299c0-2.259-1.13-3.263-3.263-3.263c-1.131,0-1.633,0.251-2.386,0.628
		c-0.125,0-0.502,0.251-0.753,0.251c-0.627,0-0.878-0.502-0.878-1.004c-0.126-1.381,2.133-2.008,4.268-2.008
		c3.765,0,5.396,2.133,5.396,6.147v6.776c0,0.628,0.126,0.879,0.502,0.879c0.126,0,0.126,0,0.251,0c0.628,0,0.879,0.502,0.879,1.004
		c0,0.753-0.753,1.004-1.381,1.004c-1.004,0-1.882-0.628-2.259-1.506c-1.129,1.129-2.51,1.631-4.141,1.631
		c-3.139,0-4.645-1.882-4.645-4.643v-0.126c0-3.013,1.757-4.519,5.396-4.519c1.129,0,2.133,0.126,3.137,0.377L281.161,495.299
		L281.161,495.299z M275.138,501.071L275.138,501.071c0,1.506,0.627,2.51,2.636,2.51c1.255,0,2.385-0.376,3.389-1.38v-3.263
		c-1.004-0.251-2.259-0.503-3.139-0.503C275.514,498.563,275.138,499.691,275.138,501.071z"/>
	<path fill="#1F1E43" d="M288.314,484.633c0-0.628,0.502-1.255,1.254-1.255c0.628,0,1.256,0.502,1.256,1.255v18.07
		c0,0.627,0,1.129,0.376,1.38c0.126,0.126,0.251,0.377,0.251,0.628c0,0.627-0.502,1.129-1.129,1.129
		c-0.754,0-1.884-0.376-1.884-3.137v-18.07H288.314z"/>
	<path fill="#1F1E43" d="M309.397,503.707c1.256,0,2.134-0.377,3.138-0.879c0,0,0.251-0.125,0.377-0.125
		c0.627,0,1.129,0.502,1.129,1.129c0,1.506-3.263,2.008-5.021,2.008c-3.514,0-5.396-2.259-5.396-5.02v-5.772
		c0-2.886,2.008-5.145,5.646-5.145c3.39,0,5.021,2.008,5.021,5.02c0,2.761-1.506,4.519-5.146,4.519
		c-0.879,0-2.008-0.126-3.138-0.251v1.757C306.008,502.577,307.138,503.707,309.397,503.707z M311.906,494.797
		c0-2.008-1.004-2.761-2.762-2.761c-2.008,0-3.138,1.13-3.138,2.761v2.385c1.13,0.125,2.636,0.251,3.263,0.251
		C311.529,497.307,311.906,496.052,311.906,494.797z M307.891,486.515c-0.126,0.126-0.126,0.251-0.126,0.502
		c0,0.628,0.502,1.131,1.005,1.131c0.377,0,0.628-0.251,1.004-0.503l2.51-2.636c0.126-0.125,0.126-0.376,0.126-0.502
		c0-0.627-0.502-1.004-1.004-1.004s-0.753,0.251-1.13,0.753L307.891,486.515z"/>
	<path fill="#1F1E43" d="M327.969,504.083c0.126,0.126,0.126,0.377,0.126,0.502c0,0.628-0.502,1.255-1.255,1.255
		c-0.502,0-0.753-0.251-1.13-0.878l-3.514-5.271l-3.515,5.521c-0.251,0.376-0.628,0.627-1.004,0.627
		c-0.628,0-1.255-0.502-1.255-1.255c0-0.125,0-0.376,0.125-0.502l4.269-6.399l-4.018-6.022c-0.125-0.126-0.125-0.377-0.125-0.502
		c0-0.628,0.502-1.255,1.255-1.255c0.627,0,1.004,0.627,1.38,1.004l3.139,4.769l3.263-5.02c0.251-0.502,0.628-0.753,1.13-0.753
		s1.129,0.502,1.129,1.129c0,0.126,0,0.377-0.125,0.628l-4.142,6.022L327.969,504.083z"/>
	<path fill="#1F1E43" d="M332.612,486.641c-0.88,0-1.507-0.628-1.507-1.506c0-0.879,0.628-1.506,1.507-1.506
		c0.878,0,1.506,0.627,1.506,1.506C334.118,485.888,333.49,486.641,332.612,486.641z M332.612,505.84
		c-0.628,0-1.255-0.502-1.255-1.255v-13.553c0-0.627,0.502-1.255,1.255-1.255c0.627,0,1.255,0.502,1.255,1.255v13.553
		C333.867,505.338,333.365,505.84,332.612,505.84z"/>
	<path fill="#1F1E43" d="M338.636,486.641c0-0.628,0.376-1.13,1.255-1.13c0.753,0,1.256,0.502,1.256,1.13v4.268h3.137
		c0.628,0,1.13,0.502,1.13,1.129c0,0.628-0.502,1.13-1.13,1.13h-3.137v6.148c0,3.138,0.25,4.267,2.51,4.267c0.125,0,0.376,0,0.627,0
		c0.753,0,1.632,0.126,1.632,1.13s-0.879,1.129-1.757,1.129c-4.268,0-5.271-2.133-5.271-6.273v-12.926L338.636,486.641
		L338.636,486.641z"/>
	<path fill="#1F1E43" d="M347.545,500.444v-5.146c0-3.012,2.008-5.396,5.773-5.396s5.771,2.384,5.771,5.396v5.146
		c0,3.012-2.008,5.396-5.771,5.396C349.553,505.84,347.545,503.456,347.545,500.444z M356.581,500.444v-5.146
		c0-2.008-1.13-3.263-3.389-3.263c-2.26,0-3.39,1.255-3.39,3.263v5.146c0,2.008,1.13,3.263,3.39,3.263
		C355.451,503.581,356.581,502.452,356.581,500.444z"/>
	<path fill="#1F1E43" d="M371.891,484.633c0-0.628,0.502-1.255,1.256-1.255c0.627,0,1.255,0.502,1.255,1.255v18.07
		c0,0.627,0,1.129,0.376,1.38c0.126,0.126,0.251,0.377,0.251,0.628c0,0.627-0.502,1.129-1.13,1.129
		c-0.753,0-1.883-0.376-1.883-3.137v-18.07H371.891z"/>
	<path fill="#1F1E43" d="M386.447,495.299c0-2.259-1.129-3.263-3.264-3.263c-1.13,0-1.632,0.251-2.385,0.628
		c-0.125,0-0.502,0.251-0.753,0.251c-0.627,0-0.878-0.502-0.878-1.004c-0.126-1.381,2.133-2.008,4.267-2.008
		c3.766,0,5.396,2.133,5.396,6.147v6.776c0,0.628,0.125,0.879,0.502,0.879c0.125,0,0.125,0,0.251,0c0.627,0,0.878,0.502,0.878,1.004
		c0,0.753-0.753,1.004-1.381,1.004c-1.004,0-1.882-0.628-2.258-1.506c-1.13,1.129-2.511,1.631-4.143,1.631
		c-3.138,0-4.644-1.882-4.644-4.643v-0.126c0-3.013,1.757-4.519,5.396-4.519c1.13,0,2.134,0.126,3.138,0.377L386.447,495.299
		L386.447,495.299z M380.298,501.071L380.298,501.071c0,1.506,0.628,2.51,2.636,2.51c1.256,0,2.386-0.376,3.39-1.38v-3.263
		c-1.004-0.251-2.261-0.503-3.139-0.503C380.8,498.563,380.298,499.691,380.298,501.071z"/>
	<path fill="#1F1E43" d="M393.601,484.633c0-0.628,0.376-1.13,1.255-1.13c0.754,0,1.256,0.502,1.256,1.13v6.525
		c1.129-0.753,2.384-1.255,4.016-1.255c3.514,0,4.769,2.133,4.769,4.769v5.772c0,3.012-1.883,5.396-5.646,5.396
		c-3.514,0-5.646-2.133-5.646-4.894v-16.313H393.601z M395.984,500.946c0,1.631,1.255,2.635,3.263,2.635
		c2.259,0,3.263-1.255,3.263-3.263v-5.772c0-1.631-0.878-2.635-2.886-2.635c-1.506,0-2.636,0.627-3.514,1.506L395.984,500.946
		L395.984,500.946z"/>
	<path fill="#1F1E43" d="M407.529,500.444v-5.146c0-3.012,2.008-5.396,5.771-5.396s5.772,2.384,5.772,5.396v5.146
		c0,3.012-2.009,5.396-5.772,5.396S407.529,503.456,407.529,500.444z M416.564,500.444v-5.146c0-2.008-1.13-3.263-3.389-3.263
		s-3.389,1.255-3.389,3.263v5.146c0,2.008,1.13,3.263,3.389,3.263C415.436,503.581,416.564,502.452,416.564,500.444z"/>
	<path fill="#1F1E43" d="M425.099,504.585c0,0.628-0.502,1.255-1.255,1.255c-0.628,0-1.255-0.502-1.255-1.255v-10.29
		c0-1.004-0.126-1.631-0.502-2.133c-0.126-0.126-0.251-0.377-0.251-0.628c0-0.627,0.502-1.129,1.129-1.129
		c0.502,0,0.879,0.376,1.255,0.878c1.255-0.878,3.013-1.255,4.143-1.255c1.255,0,1.631,0.502,1.631,1.13
		c0,0.753-0.502,1.255-1.255,1.255c-1.255,0-2.384,0-3.891,1.129c0,0.251,0,0.628,0,0.879L425.099,504.585L425.099,504.585z"/>
	<path fill="#1F1E43" d="M440.282,495.299c0-2.259-1.129-3.263-3.264-3.263c-1.129,0-1.631,0.251-2.384,0.628
		c-0.126,0-0.502,0.251-0.753,0.251c-0.628,0-0.879-0.502-0.879-1.004c-0.125-1.381,2.134-2.008,4.267-2.008
		c3.766,0,5.396,2.133,5.396,6.147v6.776c0,0.628,0.125,0.879,0.502,0.879c0.125,0,0.125,0,0.251,0c0.627,0,0.878,0.502,0.878,1.004
		c0,0.753-0.753,1.004-1.38,1.004c-1.004,0-1.883-0.628-2.259-1.506c-1.13,1.129-2.51,1.631-4.143,1.631
		c-3.137,0-4.643-1.882-4.643-4.643v-0.126c0-3.013,1.757-4.519,5.396-4.519c1.131,0,2.135,0.126,3.139,0.377L440.282,495.299
		L440.282,495.299z M434.134,501.071L434.134,501.071c0,1.506,0.627,2.51,2.635,2.51c1.256,0,2.386-0.376,3.39-1.38v-3.263
		c-1.004-0.251-2.259-0.503-3.139-0.503C434.636,498.563,434.134,499.691,434.134,501.071z"/>
	<path fill="#1F1E43" d="M447.436,484.633c0-0.628,0.502-1.255,1.256-1.255c0.628,0,1.255,0.502,1.255,1.255v18.07
		c0,0.627,0,1.129,0.377,1.38c0.125,0.126,0.25,0.377,0.25,0.628c0,0.627-0.502,1.129-1.129,1.129c-0.753,0-1.884-0.376-1.884-3.137
		v-18.07H447.436z"/>
	<path fill="#1F1E43" d="M455.718,505.84c-0.878,0-1.631-0.753-1.631-1.631c0-0.879,0.753-1.632,1.631-1.632
		c0.879,0,1.632,0.753,1.632,1.632C457.224,505.087,456.597,505.84,455.718,505.84z M454.338,484.884
		c0-0.628,0.502-1.255,1.255-1.255s1.255,0.627,1.255,1.255l-0.251,14.432c0,0.502-0.377,1.004-0.879,1.004
		s-0.878-0.502-0.878-1.004L454.338,484.884z"/>
</g>
<g>
	<g>
		<path fill="#FFFFFF" d="M209.331,560.053c0-4.769,2.134-7.779,6.902-7.779c2.761,0,5.396,1.255,5.396,2.636
			c0,0.627-0.502,1.129-1.129,1.129c-0.376,0-0.627-0.251-1.129-0.502c-0.878-0.627-1.882-1.004-3.012-1.004
			c-3.515,0-4.644,2.134-4.644,5.521v6.525c0,3.389,1.129,5.521,4.644,5.521c1.255,0,2.133-0.251,3.012-1.004
			c0.502-0.251,0.627-0.503,1.129-0.503c0.627,0,1.129,0.503,1.129,1.13c0,1.381-2.635,2.637-5.396,2.637
			c-4.77,0-6.902-3.139-6.902-7.781V560.053z"/>
		<path fill="#FFFFFF" d="M224.014,568.963v-5.146c0-3.013,2.008-5.396,5.772-5.396s5.771,2.384,5.771,5.396v5.146
			c0,3.012-2.008,5.396-5.771,5.396C226.021,574.359,224.014,571.975,224.014,568.963z M233.049,568.963v-5.146
			c0-2.009-1.129-3.264-3.388-3.264s-3.388,1.255-3.388,3.264v5.146c0,2.008,1.129,3.263,3.388,3.263
			S233.049,570.971,233.049,568.963z"/>
		<path fill="#FFFFFF" d="M255.888,563.692c0-1.758-0.878-3.013-2.761-3.013c-1.255,0-2.635,0.753-3.388,1.631
			c0.125,0.377,0.125,0.88,0.125,1.382v9.536c0,0.627-0.376,1.13-1.255,1.13c-0.878,0-1.256-0.503-1.256-1.13v-8.909
			c0-2.134-0.375-3.766-2.51-3.766c-1.38,0-2.635,0.628-3.514,1.255c0,0.377,0.126,0.628,0.126,1.004v10.416
			c0,0.628-0.377,1.13-1.255,1.13c-0.879,0-1.255-0.502-1.255-1.13v-10.416c0-1.631-0.251-1.631-0.502-2.133
			c0-0.126-0.251-0.251-0.251-0.628c0-0.627,0.502-1.129,1.129-1.129c0.502,0,0.879,0.376,1.255,0.878
			c1.381-0.878,2.887-1.38,4.518-1.38c1.632,0,2.761,0.502,3.515,1.506c1.255-1.004,2.761-1.506,4.393-1.506
			c3.263,0,5.145,2.133,5.145,5.146v9.536c0,0.628-0.375,1.131-1.255,1.131c-0.878,0-1.255-0.503-1.255-1.131L255.888,563.692
			L255.888,563.692z"/>
		<path fill="#FFFFFF" d="M265.426,573.857v5.771c0,0.627-0.377,1.129-1.255,1.129c-0.879,0-1.255-0.502-1.255-1.129v-16.689
			c0-1.005-0.126-1.633-0.502-2.135c-0.126-0.125-0.251-0.376-0.251-0.627c0-0.628,0.502-1.13,1.129-1.13
			c0.502,0,0.879,0.251,1.255,0.753c1.381-0.753,2.887-1.38,4.518-1.38c3.264,0,4.896,2.384,4.896,5.772v4.016
			c0,3.639-1.255,6.148-5.146,6.148C267.685,574.358,266.43,574.233,265.426,573.857z M265.426,571.724
			c1.004,0.502,2.384,0.627,3.137,0.627c2.26,0,3.013-1.255,3.013-4.141v-4.016c0-2.386-1.004-3.641-3.013-3.641
			c-1.004,0-2.259,0.377-3.263,1.004c0.126,0.503,0.126,0.88,0.126,1.256V571.724L265.426,571.724z"/>
		<path fill="#FFFFFF" d="M285.127,563.817c0-2.26-1.129-3.264-3.263-3.264c-1.129,0-1.631,0.251-2.384,0.628
			c-0.126,0-0.502,0.251-0.754,0.251c-0.628,0-0.879-0.502-0.879-1.004c-0.125-1.381,2.135-2.008,4.268-2.008
			c3.765,0,5.396,2.133,5.396,6.148v6.776c0,0.627,0.125,0.878,0.502,0.878c0.125,0,0.125,0,0.251,0
			c0.627,0,0.878,0.502,0.878,1.004c0,0.753-0.753,1.005-1.38,1.005c-1.004,0-1.883-0.627-2.259-1.507
			c-1.13,1.131-2.51,1.633-4.142,1.633c-3.138,0-4.644-1.884-4.644-4.645v-0.125c0-3.013,1.757-4.518,5.396-4.518
			c1.13,0,2.134,0.125,3.138,0.376L285.127,563.817L285.127,563.817z M278.979,569.716L278.979,569.716
			c0,1.506,0.628,2.51,2.636,2.51c1.255,0,2.385-0.377,3.389-1.381v-3.263c-1.004-0.251-2.259-0.502-3.138-0.502
			C279.48,567.206,278.979,568.335,278.979,569.716z"/>
		<path fill="#FFFFFF" d="M294.79,573.229c0,0.629-0.502,1.256-1.255,1.256c-0.627,0-1.255-0.502-1.255-1.256V562.94
			c0-1.005-0.126-1.633-0.502-2.135c-0.126-0.125-0.251-0.376-0.251-0.627c0-0.628,0.502-1.13,1.129-1.13
			c0.502,0,0.879,0.377,1.256,0.879c1.255-0.879,3.012-1.255,4.141-1.255c1.255,0,1.632,0.502,1.632,1.129
			c0,0.753-0.502,1.255-1.255,1.255c-1.255,0-2.385,0-3.891,1.131c0,0.251,0,0.627,0,0.878L294.79,573.229L294.79,573.229z"/>
		<path fill="#FFFFFF" d="M302.57,555.159c0-0.628,0.377-1.13,1.255-1.13c0.753,0,1.255,0.502,1.255,1.13v4.267h3.138
			c0.627,0,1.129,0.502,1.129,1.129c0,0.628-0.502,1.131-1.129,1.131h-3.138v6.148c0,3.137,0.251,4.268,2.51,4.268
			c0.126,0,0.377,0,0.628,0c0.753,0,1.631,0.125,1.631,1.129s-0.878,1.13-1.757,1.13c-4.267,0-5.271-2.134-5.271-6.274V555.16
			L302.57,555.159L302.57,555.159z"/>
		<path fill="#FFFFFF" d="M313.613,555.159c-0.878,0-1.506-0.628-1.506-1.506c0-0.879,0.628-1.506,1.506-1.506
			c0.879,0,1.506,0.627,1.506,1.506C315.119,554.531,314.492,555.159,313.613,555.159z M313.613,574.358
			c-0.627,0-1.255-0.503-1.255-1.256V559.55c0-0.627,0.502-1.255,1.255-1.255s1.255,0.502,1.255,1.255v13.553
			C314.868,573.857,314.366,574.358,313.613,574.358z"/>
		<path fill="#FFFFFF" d="M322.146,573.229c0,0.629-0.503,1.256-1.256,1.256c-0.627,0-1.255-0.502-1.255-1.256V562.94
			c0-1.005-0.125-1.633-0.502-2.135c-0.125-0.125-0.251-0.376-0.251-0.627c0-0.628,0.502-1.13,1.13-1.13
			c0.502,0,0.878,0.377,1.255,0.879c1.256-0.879,3.013-1.255,4.143-1.255c1.255,0,1.631,0.502,1.631,1.129
			c0,0.753-0.502,1.255-1.255,1.255c-1.255,0-2.384,0-3.89,1.131c0,0.251,0,0.627,0,0.878L322.146,573.229L322.146,573.229z"/>
	</g>
</g>
<circle fill="#1F1E43" cx="114.751" cy="660.696" r="45.177"/>
<circle fill="#1F1E43" cx="256.033" cy="660.696" r="45.177"/>
<circle fill="#1F1E43" cx="402.033" cy="660.696" r="45.177"/>
<path fill="#FFFFFF" stroke="#1F1E43" stroke-width="1.3702" stroke-miterlimit="10" d="M129.684,660.696h-8.91v32.376h-13.301
	v-32.376h-6.777v-11.169h6.65v-6.65c0-9.036,3.766-14.558,14.557-14.558h8.91v11.169h-5.521c-4.142,0-4.392,1.506-4.392,4.518v5.521
	h10.164L129.684,660.696z"/>
<circle fill="#FFFFFF" stroke="#204D69" stroke-width="3.0066" stroke-miterlimit="10" cx="263.167" cy="332.163" r="125.741"/>
<g>
	<path fill="#D1D8DA" d="M332.438,380.979c-18.195,9.914-37.771,16.69-57.35,23.091c-10.039,3.263-20.204,6.399-30.368,9.663
		c-2.008,0.627-4.016,1.255-6.148,1.757c-0.125,0-1.255,0.251-1.506,0.251c0,0,0,0-0.125,0v-0.125
		c0.251,0.502-0.503-1.004-0.503-1.256c-0.25-0.753-0.502-1.507-0.753-2.385c-0.627-1.883-1.255-3.765-1.882-5.771
		c-1.757-5.521-3.765-10.792-5.771-16.188c-3.891-10.792-7.404-21.71-10.039-32.878c-5.271-22.338-8.283-45.303-15.06-67.263
		c-1.004-3.264-3.388-5.021-6.022-5.522c6.399,0.126,12.925-1.631,18.824-3.639c9.16-3.138,17.944-7.404,26.729-11.294
		c7.027-3.138,14.809-5.647,22.212-8.91c0.627-0.251,1.255-0.502,1.882-0.753c1.004-0.376,2.009-0.753,3.013-1.255
		c0.628,1.632,2.259,2.887,4.142,2.008c3.765-1.506,7.654-2.635,11.545-4.141c1.38-0.628,2.133-1.632,2.384-2.887
		c1.004-0.753,1.884-1.632,2.762-2.51c0.377,0.125,0.879,0.251,1.255,0.251c2.134,0,3.264-1.632,3.515-3.514
		c0.251-2.636-0.753-5.396-1.757-7.78c-1.004-2.385-2.008-5.146-4.52-6.023c-1.004-0.377-2.133-0.126-2.886,0.502
		c-0.126,0-0.251-0.126-0.377-0.126l0,0c-1.004-2.635-3.765-3.263-5.896-1.506c-1.758,1.506-3.641,2.887-5.647,4.142
		c-13.302,2.635-26.102,9.913-38.022,15.686c-15.938,7.655-33.256,13.177-46.683,25.099c-2.008,1.757-0.878,5.271,1.506,5.897
		c1.256,0.377,2.511,0.502,3.766,0.628c-4.77,0.251-9.412,4.142-7.655,10.165c7.027,22.964,10.039,46.808,15.687,70.023
		c2.886,11.67,6.775,22.965,10.916,34.259c3.013,8.407,5.021,17.945,9.412,25.978c4.017,7.402,11.67,8.532,19.2,7.151
		c9.913-1.882,19.952-5.896,29.49-9.035c21.333-6.775,42.541-14.055,62.619-23.969c2.134-1.129,4.267-2.259,6.399-3.388
		C350.131,390.14,341.849,375.833,332.438,380.979z M208.704,272.555c0.627,0.628,1.38,1.004,2.51,1.004
		c1.757-0.125,3.515-0.376,5.146-0.753c0,0,0,0,0,0.126c-4.644,1.757-9.914,3.639-15.06,4.141
		C203.81,275.441,206.194,273.936,208.704,272.555z"/>
	<path fill="#8ABD33" d="M272.453,341.7c-0.502-1.004-1.255-1.506-2.008-1.632l0,0c-0.377-1.129-1.255-2.26-2.26-3.013
		c-0.251-2.008-1.004-4.141-1.757-5.771c1.004-1.38,1.632-2.886,1.757-4.77c0.125-2.133-1.632-4.141-3.64-4.769
		c-1.255-0.376-2.635-0.125-3.891,0c-0.878,0.126-2.259-0.878-3.264-1.631c0.628-1.632,1.005-3.265,1.255-4.771
		c0.127-0.627,0.127-1.129-0.125-1.631c0.503-0.126,1.005-0.502,1.507-0.879c1.506-1.255,2.385-3.012,3.012-4.769
		c0.125-0.502,0.251-1.005,0.125-1.381c0.502-0.377,0.879-0.628,1.256-1.129c2.133-2.008,0.502-6.023-2.51-5.897c0,0,0,0-0.126,0
		c-0.502-0.502-1.255-0.753-2.259-0.753c-2.26,0.125-4.645,0.878-6.4,2.51c-2.886,0.502-4.267,4.392-2.259,6.023
		c0.126,0.376,0.251,0.753,0.502,1.129c-0.753,1.381-1.255,2.761-1.129,4.518c0,0.502,0.125,0.879,0.376,1.255
		c-0.125,0.377-0.251,0.753-0.376,1.004c-0.377,0.879-0.126,1.757,0.251,2.511c-2.008-0.503-3.766,0.754-5.396,2.134
		c-0.125,0-0.125,0-0.251,0.126c-2.635,1.255-5.02,2.761-7.277,4.392c-3.64,2.636-0.627,7.906,3.514,6.023
		c1.004-0.502,2.008-1.004,2.887-1.506c0.251,0,0.502,0,0.627,0c1.758-0.251,3.139-1.005,4.77-1.758
		c1.381-0.627,2.385,0,3.891,0.126c0.753,0,1.38,0,2.008-0.251c1.129,0.628,2.133,1.256,3.389,1.632
		c0.251,0.126,0.628,0.126,0.879,0.126c-1.13,1.506-2.385,2.886-2.887,4.643c-2.762,0.753-5.271,3.891-4.268,6.651
		c0.377,1.004,1.004,1.882,2.008,2.51c0.251,0.251,0.502,0.502,0.879,0.627l0,0c1.256,1.255,3.389,1.757,5.396,1.632
		c0.377,0.502,1.004,0.753,1.632,1.004c1.38,1.631,3.138,2.133,4.769,1.757c0.252,0,0.502,0.125,0.754,0.125
		C271.449,347.975,274.084,344.963,272.453,341.7z"/>
	<g>
		<path fill="#204D69" stroke="#204D69" stroke-width="0.6142" stroke-miterlimit="10" d="M249.111,383.111
			c-0.125,0-0.251-0.125-0.251-0.376s0-0.377,0.251-0.377c0.377-0.251,0.879-0.503,1.255-0.503c0.502-0.125,0.879-0.125,1.381,0
			c0.502,0,0.878,0.253,1.255,0.378c1.004,0.502,1.631,1.255,2.133,2.134c0.502,0.878,0.628,1.882,0.377,3.012
			c-0.126,0.627-0.502,1.255-1.13,2.008l-0.502,0.627c-0.251,0.251-0.376,0.377-0.502,0.502l-0.125,0.126l-0.126,0.125
			c0,0,0,0-0.125,0.126v0.125v0.126l1.255,2.887c0.753,1.883,1.38,3.389,1.757,4.644c0.125,0.251,0,0.502-0.251,0.502
			c-0.251,0.125-0.502,0-0.502-0.251c-0.377-1.255-1.004-2.887-1.757-4.644c-0.879-2.008-1.381-3.264-1.632-3.891
			c-0.125-0.377-0.376-1.004-0.627-2.008s-0.502-1.632-0.502-1.757C250.115,384.868,249.613,383.739,249.111,383.111
			L249.111,383.111z M250.366,383.362c0.377,0.754,0.753,1.632,1.13,2.762c0,0.125,0.251,0.878,0.627,2.008
			c0,0.125,0.126,0.251,0.126,0.376c0,0.126,0.125,0.251,0.125,0.377c0,0.125,0,0.251,0.126,0.251
			c0.125,0.502,0.251,0.627,0.251,0.627s0.125-0.125,0.376-0.251c0,0,0.126-0.125,0.251-0.251c0.753-0.878,1.255-1.631,1.506-2.259
			c0.126-0.753,0.126-1.38,0-2.008c-0.251-0.628-0.627-1.13-1.004-1.506c-0.376-0.377-0.753-0.628-1.38-0.753
			c-0.502-0.126-1.004-0.251-1.506-0.126c-0.251,0-0.377,0.126-0.377,0.251C250.241,382.986,250.241,383.237,250.366,383.362z"/>
		<path fill="#204D69" stroke="#204D69" stroke-width="0.6142" stroke-miterlimit="10" d="M260.908,397.543
			c-0.126-0.627-0.377-1.882-0.879-3.765c-0.125-0.376-0.251-1.004-0.377-1.757c-0.752-3.013-1.254-5.021-1.381-6.023
			c-0.25-1.004-0.377-2.134-0.502-3.263c-0.251-1.758-0.126-2.888,0.252-3.39c0.879-0.878,1.757-0.753,2.635,0.628
			c0.502,0.753,1.005,1.507,1.256,2.511c2.133,4.267,3.89,8.658,5.396,13.051c0.126,0.251,0,0.502-0.251,0.502
			c-0.251,0.126-0.502,0-0.502-0.251c-1.004-2.886-2.008-5.521-3.137-8.156c-0.126-0.377-0.377-0.502-0.753-0.377
			c-0.502,0.126-1.381,0.377-2.511,0.628c-0.376,0.125-0.502,0.376-0.376,0.753c1.255,4.895,2.008,7.78,2.134,8.784
			c0,0.125,0,0.376-0.126,0.376c-0.126,0.126-0.251,0.126-0.376,0.126C261.033,397.794,260.908,397.669,260.908,397.543z
			 M259.15,386.626c0,0.125,0.126,0.251,0.252,0.376c0.125,0.126,0.125,0.126,0.25,0.126c0.126,0,0.252,0,0.377-0.126
			c0.879-0.251,1.632-0.502,2.134-0.627c0.125,0,0.251,0,0.376-0.126c0.126,0,0.126-0.125,0.126-0.251s0-0.251-0.126-0.502
			c-0.125-0.376-0.753-1.506-1.631-3.514c0,0,0,0-0.126-0.127c-0.126-0.376-0.251-0.627-0.376-0.753
			c-0.126-0.251-0.252-0.502-0.502-0.753c-0.126-0.251-0.377-0.502-0.502-0.627c-0.126-0.126-0.377-0.126-0.502-0.126
			c-0.252,0.126-0.377,0.251-0.377,0.502c0,0.126,0,0.251-0.125,0.502c0,0.377,0,1.005,0.125,1.884
			C258.648,384.366,258.9,385.622,259.15,386.626z"/>
		<path fill="#204D69" stroke="#204D69" stroke-width="0.6142" stroke-miterlimit="10" d="M263.92,381.229
			c-0.251-1.13,0-2.134,0.502-3.012c0.502-0.879,1.255-1.506,2.259-1.883c1.005-0.376,1.882-0.125,2.636,0.502
			c0.753,0.628,1.255,1.632,1.381,3.012c0,0.251-0.126,0.377-0.377,0.502c-0.251,0-0.376-0.125-0.502-0.376
			c-0.125-1.13-0.502-2.008-1.004-2.385c-0.502-0.502-1.129-0.627-1.883-0.376c-0.753,0.251-1.381,0.753-1.757,1.506
			c-0.377,0.753-0.502,1.506-0.377,2.385c0.251,1.004,0.628,1.757,1.381,2.259c0.502,0.377,1.129,0.754,2.009,1.13
			c0.878,0.376,1.631,0.753,2.259,1.13c0.627,0.376,1.38,0.753,2.008,1.38c0.753,0.628,1.255,1.381,1.631,2.134
			c0.628,1.255,0.753,2.385,0.377,3.389c-0.377,1.004-1.004,1.632-2.134,1.883c-1.004,0.251-2.008,0-3.012-0.753
			s-1.631-1.757-2.133-3.264c0-0.126,0-0.251,0-0.377c0-0.125,0.125-0.125,0.25-0.251c0.125,0,0.252,0,0.377,0
			c0.126,0,0.126,0.126,0.251,0.251c0.377,1.256,1.004,2.135,1.883,2.762c0.753,0.628,1.631,0.753,2.384,0.628
			c0.753-0.126,1.255-0.628,1.506-1.381c0.251-0.754,0.126-1.632-0.376-2.636c-0.251-0.502-0.502-0.879-0.753-1.255
			c-0.251-0.377-0.628-0.628-0.879-0.879s-0.627-0.502-1.129-0.753s-0.879-0.502-1.13-0.627c-0.251-0.126-0.627-0.251-1.255-0.502
			c-1.129-0.502-2.009-1.004-2.762-1.507C264.673,383.362,264.171,382.358,263.92,381.229z"/>
		<path fill="#204D69" stroke="#204D69" stroke-width="0.6142" stroke-miterlimit="10" d="M276.469,392.272
			c-0.126-0.628-0.377-1.883-0.879-3.766c-0.125-0.376-0.251-1.004-0.376-1.757c-0.753-3.012-1.255-5.02-1.381-6.023
			c-0.251-1.004-0.376-2.134-0.502-3.263c-0.251-1.757-0.125-2.887,0.251-3.389c0.879-0.878,1.757-0.753,2.636,0.628
			c0.502,0.753,1.004,1.506,1.255,2.51c2.133,4.268,3.891,8.659,5.396,13.051c0.126,0.251,0,0.502-0.251,0.502
			c-0.251,0.126-0.502,0-0.502-0.251c-1.004-2.886-2.008-5.521-3.138-8.156c-0.126-0.376-0.377-0.503-0.753-0.376
			c-0.502,0.125-1.381,0.376-2.51,0.627c-0.377,0.126-0.502,0.377-0.377,0.753c1.255,4.895,2.008,7.78,2.134,8.784
			c0,0.125,0,0.377-0.126,0.377c-0.125,0.126-0.251,0.126-0.376,0.126C276.845,392.649,276.469,392.523,276.469,392.272z
			 M274.712,381.354c0,0.127,0.125,0.252,0.251,0.378c0.125,0.125,0.125,0.125,0.251,0.125c0.125,0,0.251,0,0.376-0.125
			c0.879-0.251,1.632-0.503,2.134-0.628c0.125,0,0.251,0,0.376-0.125c0.126,0,0.126-0.127,0.126-0.252c0-0.126,0-0.251-0.126-0.502
			c-0.125-0.377-0.753-1.506-1.631-3.514c0,0,0,0-0.126-0.126c-0.125-0.376-0.251-0.627-0.376-0.753
			c-0.126-0.251-0.251-0.502-0.502-0.753c-0.126-0.251-0.377-0.502-0.502-0.627c-0.126-0.126-0.377-0.126-0.502-0.126
			c-0.251,0.126-0.377,0.251-0.377,0.502c0,0.126,0,0.251-0.125,0.502c0,0.377,0,1.004,0.125,1.883
			C274.21,379.096,274.461,380.477,274.712,381.354z"/>
		<path fill="#204D69" stroke="#204D69" stroke-width="0.6142" stroke-miterlimit="10" d="M278.602,373.323
			c-0.125,0-0.251-0.125-0.251-0.376s0-0.377,0.251-0.377c0.377-0.251,0.88-0.502,1.256-0.502c0.502-0.125,0.879-0.125,1.381,0
			c0.502,0,0.878,0.251,1.255,0.377c1.004,0.502,1.631,1.255,2.133,2.133c0.502,0.879,0.628,1.883,0.377,3.012
			c-0.126,0.628-0.502,1.255-1.13,2.008l-0.502,0.628c-0.251,0.251-0.376,0.376-0.502,0.502l-0.125,0.125l-0.126,0.126
			c0,0,0,0-0.125,0.127c-0.126,0.125,0,0.125,0,0.125v0.126l1.255,2.886c0.753,1.883,1.38,3.389,1.757,4.644
			c0.125,0.251,0,0.502-0.251,0.502c-0.251,0.125-0.502,0-0.502-0.251c-0.377-1.255-1.004-2.887-1.757-4.644
			c-0.879-2.008-1.381-3.263-1.632-3.892c-0.125-0.376-0.376-1.004-0.627-2.008s-0.502-1.631-0.502-1.757
			C279.605,375.08,279.104,373.951,278.602,373.323L278.602,373.323z M279.856,373.574c0.377,0.753,0.753,1.632,1.13,2.761
			c0,0.126,0.251,0.879,0.627,2.008c0,0.126,0.126,0.251,0.126,0.377c0,0.125,0.125,0.251,0.125,0.376c0,0.126,0,0.251,0.126,0.251
			c0.125,0.502,0.251,0.628,0.251,0.628s0.125-0.126,0.376-0.251c0,0,0.126-0.126,0.251-0.251c0.753-0.879,1.255-1.632,1.506-2.259
			c0.126-0.753,0.126-1.381,0-2.008c-0.251-0.628-0.502-1.13-1.004-1.506c-0.376-0.377-0.753-0.628-1.38-0.753
			c-0.502-0.126-1.004-0.251-1.506-0.126c-0.252,0-0.378,0.126-0.378,0.251C279.731,373.198,279.731,373.323,279.856,373.574z"/>
		<path fill="#204D69" stroke="#204D69" stroke-width="0.6142" stroke-miterlimit="10" d="M285.88,371.441
			c0.126-0.502,0.251-0.879,0.628-1.382c0.376-0.502,0.627-0.753,1.004-1.004c1.255-0.753,2.386-0.376,3.39,1.004
			c0.502,0.628,1.004,1.884,1.756,3.766c1.632,4.393,2.511,7.655,2.762,9.663c0.125,1.381-0.126,2.259-0.628,2.887
			c-0.627,0.753-1.38,0.878-2.384,0.376c-0.628-0.376-1.256-1.129-2.008-2.134c-0.628-1.004-1.382-2.133-2.01-3.515
			c-0.627-1.38-1.255-3.012-1.882-4.894C285.88,374.327,285.755,372.696,285.88,371.441z M286.759,371.566
			c-0.251,1.255,0,2.761,0.502,4.518s1.129,3.263,1.757,4.645c0.627,1.255,1.256,2.385,1.884,3.389
			c0.752,1.004,1.254,1.631,1.756,1.882s0.879,0.251,1.256-0.125c0.753-0.879,0.627-2.887-0.252-6.024
			c-0.25-1.129-1.129-3.514-2.384-7.151c-0.251-0.502-0.376-0.879-0.628-1.255c-0.25-0.377-0.503-0.753-0.753-1.13
			c-0.252-0.376-0.628-0.628-1.005-0.628c-0.376-0.126-0.753,0-1.004,0.252c-0.251,0.125-0.502,0.376-0.753,0.753
			C287.01,370.813,286.884,371.19,286.759,371.566z"/>
		<path fill="#204D69" stroke="#204D69" stroke-width="0.6142" stroke-miterlimit="10" d="M297.928,383.111
			c-0.628-2.009-1.13-3.515-1.255-4.393c-1.13-3.891-2.259-7.277-3.515-10.165c0,0-0.125-0.125-0.125-0.251
			c-0.125-0.125-0.125-0.251-0.125-0.251c0-0.125,0-0.125,0-0.251c0-0.125,0.125-0.251,0.125-0.251
			c2.134-1.255,3.891-1.38,5.521-0.251c0.753,0.502,1.255,1.13,1.506,2.134s0.126,1.882-0.251,2.887
			c-0.376,1.255-1.129,2.259-2.008,3.138c0,0-0.125,0,0,0.125c0,0.126,0,0.126,0.126,0.126c0.878,0.753,2.384,2.384,4.393,4.769
			c0.628,0.753,1.255,1.507,1.883,2.009c0.125,0.125,0.125,0.251,0.125,0.502c0,0.125-0.125,0.251-0.251,0.376
			c-0.125,0-0.251,0-0.376-0.125c-0.502-0.502-1.255-1.255-1.883-2.135c-2.385-2.886-3.891-4.518-4.393-4.769l0,0c0,0,0,0-0.126,0
			c0.126,0.502,0.126,0.879,0.126,0.879c0,0.125,0.125,0.376,0.251,0.753c0.125,0.376,0.125,0.627,0.251,0.753
			c0,0.125,0,0.125,0.125,0.251c0,0.125,0.126,0.251,0.126,0.502c0.125,0.251,0.125,0.376,0.125,0.627
			c0.251,1.004,0.502,1.884,0.879,2.888c0.125,0.376,0.376,0.878,0.502,1.506c0,0.125,0,0.251,0,0.376
			c0,0.126-0.126,0.126-0.251,0.251c-0.126,0-0.251,0-0.377,0c-0.125,0-0.125-0.125-0.251-0.251
			C298.304,384.241,298.179,383.739,297.928,383.111z M294.037,368.43c0.753,1.631,1.381,3.64,2.134,5.897
			c0.125,0.377,0.251,0.628,0.376,0.502l0.377-0.251c0.753-0.753,1.38-1.506,1.757-2.51c0.376-1.004,0.502-1.883,0.251-2.636
			s-0.628-1.255-1.13-1.632c-1.004-0.753-2.133-0.878-3.639-0.251C294.037,367.802,293.912,368.053,294.037,368.43z"/>
		<path fill="#204D69" stroke="#204D69" stroke-width="0.6142" stroke-miterlimit="10" d="M299.936,365.92c0-0.126,0-0.251,0-0.377
			c0-0.125,0.125-0.125,0.251-0.251c0.628-0.251,1.758-0.627,3.138-1.129c1.757-0.502,2.761-0.879,3.138-1.004
			c0.125,0,0.251,0,0.376,0c0.126,0,0.251,0.125,0.251,0.251c0,0.125,0,0.251,0,0.376c0,0.126-0.125,0.126-0.251,0.251
			c-0.753,0.251-1.882,0.628-3.137,1.004c0.502,0.753,0.878,1.757,1.129,2.887c0,0.125,0.126,0.376,0.126,0.502
			c0,0.251,0.125,0.376,0.125,0.502c0,0.125,0,0.125,0,0.251c0.251,0.753,0.628,2.009,1.13,3.64
			c1.129,3.765,2.008,6.399,2.886,7.906c0.126,0.125,0.126,0.251,0,0.376c-0.125,0.126-0.251,0.251-0.376,0.251
			c-0.126,0-0.251-0.125-0.377-0.251c-0.878-1.632-1.757-4.268-2.886-8.156c-0.502-1.757-0.879-2.887-1.13-3.641
			c-0.125-0.376-0.251-0.878-0.376-1.255c-0.377-1.255-0.753-2.133-1.004-2.635c0-0.126-0.251,0-0.628,0.125
			c-0.502,0.126-1.004,0.377-1.758,0.628c-0.125,0-0.251,0-0.376,0C300.061,366.171,299.936,366.045,299.936,365.92z"/>
		<path fill="#204D69" stroke="#204D69" stroke-width="0.6142" stroke-miterlimit="10" d="M308.971,363.284
			c-0.126-0.753-0.126-1.255,0.125-1.506c0.126-0.125,0.377-0.251,0.879-0.502l3.64-1.13c0.251-0.126,0.502,0,0.628,0.252
			c0.125,0.251-0.126,0.502-0.628,0.627c-0.125,0-0.627,0.251-1.631,0.502s-1.507,0.502-1.758,0.502
			c-0.251,0.126-0.377,0.126-0.377,0.126h-0.125c0,0,0,0,0,0.125l0,0c0,0,0,0,0,0.126v0.125v0.126c0,0,0,0,0,0.125v0.126
			c0.125,0.502,0.502,1.506,1.005,3.012c0.627,1.506,1.004,2.51,1.129,2.886c0.126,0.251,0.126,0.377,0.251,0.502
			c0.126,0,0.251,0,0.502,0c0.126,0,0.251-0.125,0.377-0.125c0.125,0,0.251-0.126,0.376-0.126c0.126,0,0.126,0,0.251-0.125
			c0.126,0,0.251,0,0.251,0c0.126,0,0.126,0.125,0.126,0.251c0.125,0.251,0,0.503-0.251,0.503c-0.126,0.125-0.502,0.251-1.004,0.376
			c-0.126,0-0.251,0.126-0.377,0.126c-0.125,0-0.125,0.125-0.125,0.251c0,0.125,0,0.251,0,0.502
			c0.753,3.012,1.506,5.145,2.133,6.649c0.126,0.377,0.377,0.753,0.502,1.13c0,0,0,0,0,0.125l0,0v-0.251
			c0.126,0.251,0.251,0.502,0.628,0.377c0.125,0,0.627-0.126,1.506-0.502c0.878-0.377,1.506-0.628,1.631-0.628
			c0.251-0.125,0.502,0,0.502,0.251c0.126,0.251,0,0.502-0.251,0.502c0,0-0.753,0.251-1.882,0.753
			c-0.879,0.378-1.632,0.503-2.134,0.378c-0.251,0-0.502-0.252-0.753-0.629c-0.251-0.251-0.376-0.753-0.627-1.255
			c-0.502-1.38-1.506-4.267-2.637-8.532c-0.251-0.628-0.502-1.507-0.878-2.511C309.598,365.167,309.096,363.912,308.971,363.284z"/>
	</g>
	<path fill="none" stroke="#204D69" stroke-width="2.8637" stroke-miterlimit="10" d="M292.28,244.445
		c0,0,1.004-15.185-8.408-12.549c-9.411,2.635-94.494,43.921-94.494,43.921s-10.416,13.553,15.687,6.274
		c26.102-7.279,95.623-35.012,99.263-33.38c3.64,1.506,40.157,141.553,40.157,141.553s-2.135,4.645-10.918,8.91
		c-8.91,4.142-97.632,34.51-97.632,34.51s-8.407,4.142-12.047-6.775c-3.639-10.918-34.008-137.412-34.008-137.412"/>
	<path fill="#FFFFFF" d="M193.395,280.963c1.757-1.381,3.388-3.138,5.396-4.016c3.89-1.883,8.031-3.263,12.047-5.02
		c8.283-3.389,16.439-6.902,24.722-10.29c14.182-5.773,28.235-11.546,42.541-17.192c1.507-0.628,3.766-0.502,5.021,0.251
		c2.636,1.506,5.02,3.765,7.906,6.148c-4.143,1.381-7.655,2.636-11.169,3.891c-23.593,8.533-46.558,18.447-70.651,25.224
		c-3.263,0.878-6.4,2.133-9.537,3.263C197.284,283.975,195.402,283.473,193.395,280.963"/>
	<path fill="#204D69" d="M266.43,297.653c7.529,0,13.554,4.894,19.325,10.04c0.753,0.627,1.506,1.38,1.757,2.259
		c1.129,4.643,2.511,9.16,3.264,13.93c1.38,8.533-2.135,15.311-9.035,19.952c-9.035,5.898-18.698,9.914-30.243,7.906
		c-5.396-0.879-8.784-3.892-11.294-7.78c-7.655-12.047-7.53-24.848,0.251-36.895c5.02-7.78,12.549-10.542,21.459-9.914
		C263.167,297.025,264.296,297.276,266.43,297.653 M263.041,300.79c-2.008,0-3.765-0.125-5.521,0c-5.646,0-7.152,2.008-6.022,7.404
		c2.384,11.043,1.631,12.047-9.788,14.808c-1.757,0.376-3.263,1.255-2.636,3.138c0.377,1.255,1.883,2.887,3.012,3.013
		c2.008,0,4.142-1.004,6.149-1.506c2.259-0.629,4.518-1.507,6.775-1.507c2.887,0,5.146,2.762,5.521,5.396
		c0.377,2.887-1.506,3.765-3.641,4.644c-1.004,0.376-2.008,1.129-3.137,1.882c0.376,1.382,0.376,2.888,1.129,3.515
		c2.887,2.259,6.149,4.142,9.663,6.524c2.51-1.004,5.271-2.259,8.784-3.639c-1.38-0.879-1.882-1.255-2.384-1.506
		c-6.274-3.138-6.651-4.394-4.394-11.169c0.753-2.133,0.753-4.644,1.004-7.027c-1.004,0-1.631-0.126-2.259-0.126
		c-3.89,0.377-6.776-1.255-8.157-4.643c-1.255-2.888-0.376-5.772,1.883-8.157c1.005-1.004,1.884-2.008,2.637-3.263
		C263.041,306.313,264.673,304.179,263.041,300.79 M267.434,301.794c-0.251,4.896-2.51,8.157-5.396,11.42
		c-1.129,1.255-1.506,3.64-1.255,5.396c0.376,2.385,2.636,2.259,4.769,2.259c4.268-0.125,5.396,0.879,5.271,5.021
		c0,1.632-0.251,3.138-0.627,4.77c-1.884,7.278-1.884,7.278,5.145,10.039c0.502,0.251,1.004,0.627,1.632,0.753
		c0.878,0.125,2.009,0.251,2.762-0.126c4.267-1.882,7.528-7.905,7.151-13.929c-2.008,0.753-3.639,1.38-5.396,2.008
		c-3.515,1.255-5.146,0.627-6.651-2.637c-0.627-1.38-1.38-2.635-2.259-3.891c-2.51-3.514-2.259-6.776,1.506-8.282
		s4.645-4.267,5.271-7.528C275.967,303.928,272.578,301.669,267.434,301.794 M257.27,331.786c-1.884-3.012-3.892-2.886-6.4-1.882
		c-3.514,1.38-7.152,2.635-10.792,3.89c1.883,9.914,7.026,14.181,16.94,13.679C248.986,342.955,248.358,335.3,257.27,331.786
		 M279.731,325.889c2.384-1.004,4.894-1.883,7.653-3.012c-1.506-4.017-0.753-8.785-4.392-11.295
		c-3.013,2.51-5.647,4.769-8.031,6.776C276.469,320.743,277.975,323.128,279.731,325.889 M246.729,304.681
		c-4.017,5.02-7.906,8.658-8.032,14.808c1.506,0,2.635,0,3.765-0.126c0.753,0,1.631-0.125,2.384-0.251
		c4.017-1.004,4.896-2.385,4.143-6.399C248.484,310.453,247.73,308.194,246.729,304.681"/>
</g>
<path fill="#FFFFFF" stroke="#1F1E43" stroke-width="1.5942" stroke-miterlimit="10" d="M283.265,651.033c0,0.502,0,1.13,0,1.632
	c0,16.94-12.926,36.643-36.644,36.643c-7.278,0-14.055-2.133-19.701-5.771c1.004,0.126,2.008,0.126,3.012,0.126
	c6.023,0,11.545-2.008,15.938-5.521c-5.646-0.126-10.415-3.765-12.047-8.909c0.753,0.125,1.632,0.251,2.385,0.251
	c1.129,0,2.259-0.125,3.388-0.502c-5.896-1.131-10.29-6.4-10.29-12.55v-0.126c1.758,1.004,3.766,1.506,5.772,1.633
	c-3.515-2.26-5.772-6.274-5.772-10.667c0-2.385,0.628-4.519,1.758-6.525c6.399,7.78,15.812,12.926,26.479,13.428
	c-0.251-1.004-0.377-1.883-0.377-2.887c0-7.152,5.773-12.8,12.926-12.8c3.766,0,7.027,1.506,9.412,4.016
	c2.886-0.627,5.646-1.631,8.156-3.137c-1.004,3.012-3.012,5.521-5.646,7.151c2.636-0.251,5.146-1.004,7.404-2.008
	C288.033,646.893,285.774,649.151,283.265,651.033L283.265,651.033z"/>
<g>
	
		<rect x="377.794" y="646.884" fill="#FFFFFF" stroke="#1F1E43" stroke-width="1.3702" stroke-miterlimit="10" width="10.586" height="33.861"/>
	<path fill="#FFFFFF" stroke="#1F1E43" stroke-width="1.3702" stroke-miterlimit="10" d="M382.819,642.649h-0.073
		c-3.831,0-6.315-2.591-6.315-5.87c0-3.345,2.559-5.878,6.466-5.878c3.901,0,6.304,2.528,6.379,5.87
		C389.274,640.052,386.798,642.649,382.819,642.649z"/>
	<path fill="#FFFFFF" stroke="#1F1E43" stroke-width="1.3702" stroke-miterlimit="10" d="M430.708,680.745h-11.991v-17.521
		c0-4.587-1.878-7.717-6.008-7.717c-3.154,0-4.909,2.11-5.729,4.151c-0.31,0.728-0.261,1.745-0.261,2.763v18.323h-11.884
		c0,0,0.151-31.04,0-33.861h11.884v5.315c0.705-2.325,4.501-5.642,10.563-5.642c7.513,0,13.424,4.874,13.424,15.358L430.708,680.745
		L430.708,680.745z"/>
</g>
</svg>
