<?xml version="1.0" encoding="utf-8"?>
<!-- Generator: Adobe Illustrator 19.0.0, SVG Export Plug-In . SVG Version: 6.00 Build 0)  -->
<svg version="1.1" id="Capa_1" xmlns="http://www.w3.org/2000/svg" xmlns:xlink="http://www.w3.org/1999/xlink" x="0px" y="0px"
	 viewBox="-79 91 451.5 612" style="enable-background:new -79 91 451.5 612;" xml:space="preserve">
<style type="text/css">
	.st0{fill:#676767;}
	.st1{fill:#FFFFFF;}
	.st2{fill:#08A6DB;}
	.st3{fill:#D7D7D8;}
	.st4{fill:#1F1E43;}
	.st5{fill:#FFFFFF;stroke:#1F1E43;stroke-width:1.3702;stroke-miterlimit:10;}
	.st6{fill:#FFFFFF;stroke:#204D69;stroke-width:3.0066;stroke-miterlimit:10;}
	.st7{fill:#D1D8DA;}
	.st8{fill:#8ABD33;}
	.st9{fill:#204D69;stroke:#204D69;stroke-width:0.6142;stroke-miterlimit:10;}
	.st10{fill:none;stroke:#204D69;stroke-width:2.8637;stroke-miterlimit:10;}
	.st11{fill:#204D69;}
	.st12{fill:#FFFFFF;stroke:#1F1E43;stroke-width:1.5942;stroke-miterlimit:10;}
</style>
<rect x="-43.2" y="122.5" class="st0" width="396.8" height="563.4"/>
<rect x="-61.9" y="107" class="st1" width="396.8" height="563.4"/>
<rect x="-61.9" y="107" class="st2" width="396.8" height="52.8"/>
<rect x="-61.9" y="522.7" class="st3" width="396.8" height="147.6"/>
<rect x="-61.9" y="522.7" class="st4" width="396.8" height="40.6"/>
<g>
	<g>
		<path class="st4" d="M-9.7,222.4c-0.7,0-1.3-0.6-1.3-1.3c0-0.7,0.6-1.3,1.3-1.3c0.7,0,1.3,0.6,1.3,1.3
			C-8.4,221.8-8.9,222.4-9.7,222.4z M-10.4,225c0-0.4,0.3-0.8,0.7-0.8c0.4,0,0.7,0.4,0.7,0.8l0.2,11.5c0,0.5-0.4,1-1,1s-1-0.5-1-1
			L-10.4,225z"/>
		<path class="st4" d="M-2.1,231.5v-6l-4.3-9.2c0-0.1-0.1-0.3-0.1-0.5c0-0.5,0.5-1,1-1c0.3,0,0.6,0.1,0.8,0.4l3.7,8l3.7-8
			c0.1-0.3,0.5-0.4,0.8-0.4c0.5,0,1,0.5,1,1c0,0.1,0,0.3-0.1,0.5l-4.3,9.3v5.9c0,0.5-0.4,1-1,1S-2.1,232-2.1,231.5z"/>
		<path class="st4" d="M11.2,224c0-1.8-0.9-2.6-2.6-2.6c-0.9,0-1.3,0.2-1.9,0.5c-0.1,0-0.4,0.2-0.6,0.2c-0.5,0-0.7-0.4-0.7-0.8
			c-0.1-1.1,1.7-1.6,3.4-1.6c3,0,4.3,1.7,4.3,4.9v5.4c0,0.5,0.1,0.7,0.4,0.7c0.1,0,0.1,0,0.2,0c0.5,0,0.7,0.4,0.7,0.8
			c0,0.6-0.6,0.8-1.1,0.8c-0.8,0-1.5-0.5-1.8-1.2c-0.9,0.9-2,1.3-3.3,1.3c-2.5,0-3.7-1.5-3.7-3.7v-0.1c0-2.4,1.4-3.6,4.3-3.6
			c0.9,0,1.7,0.1,2.5,0.3V224z M6.3,228.7L6.3,228.7c0,1.2,0.5,2,2.1,2c1,0,1.9-0.3,2.7-1.1V227c-0.8-0.2-1.8-0.4-2.5-0.4
			C6.7,226.7,6.3,227.6,6.3,228.7z"/>
		<path class="st4" d="M24.2,217.1c0-0.5,0.3-0.9,1-0.9c0.6,0,1,0.4,1,0.9v3.4h2.5c0.5,0,0.9,0.4,0.9,0.9s-0.4,0.9-0.9,0.9h-2.5v4.9
			c0,2.5,0.2,3.4,2,3.4c0.1,0,0.3,0,0.5,0c0.6,0,1.3,0.1,1.3,0.9c0,0.8-0.7,0.9-1.4,0.9c-3.4,0-4.2-1.7-4.2-5L24.2,217.1L24.2,217.1
			z"/>
		<path class="st4" d="M33.1,217.1c-0.7,0-1.2-0.5-1.2-1.2c0-0.7,0.5-1.2,1.2-1.2c0.7,0,1.2,0.5,1.2,1.2
			C34.3,216.6,33.8,217.1,33.1,217.1z M33.1,232.4c-0.5,0-1-0.4-1-1v-10.8c0-0.5,0.4-1,1-1c0.5,0,1,0.4,1,1v10.8
			C34.1,232,33.6,232.4,33.1,232.4z"/>
		<path class="st4" d="M44.3,230.1c0,0,0.2-0.1,0.3-0.1c0.5,0,0.9,0.4,0.9,0.9c0,1.2-2.6,1.6-4,1.6c-2.8,0-4.3-1.8-4.3-4v-4.6
			c0-2.3,1.6-4.1,4.5-4.1c2.7,0,4,1.6,4,4c0,2.2-1.2,3.6-4.1,3.6c-0.7,0-1.6-0.1-2.5-0.2v1.4c0,1.4,0.9,2.2,2.7,2.2
			C42.8,230.7,43.4,230.5,44.3,230.1z M41.6,221.4c-1.6,0-2.5,0.9-2.5,2.2v1.9c0.9,0.1,2.1,0.2,2.6,0.2c1.9,0,2.2-1,2.2-2
			C43.8,222.1,43,221.4,41.6,221.4z"/>
		<path class="st4" d="M50.5,231.5c0,0.5-0.3,0.9-1,0.9s-1-0.4-1-0.9v-8.3c0-1.3-0.2-1.3-0.4-1.7c0-0.1-0.2-0.2-0.2-0.5
			c0-0.5,0.4-0.9,0.9-0.9c0.4,0,0.8,0.3,1,0.7c1.1-0.8,2.3-1.1,3.5-1.1c2.6,0,3.9,1.9,3.9,4.6v7.1c0,0.5-0.3,0.9-1,0.9
			c-0.6,0-1-0.4-1-0.9v-7.1c0-1.9-0.8-2.9-2.2-2.9c-1,0-1.9,0.4-2.7,1c0,0.3,0.1,0.5,0.1,0.7L50.5,231.5L50.5,231.5z"/>
		<path class="st4" d="M67.3,230.1c0,0,0.2-0.1,0.3-0.1c0.5,0,0.9,0.4,0.9,0.9c0,1.2-2.6,1.6-4,1.6c-2.8,0-4.3-1.8-4.3-4v-4.6
			c0-2.3,1.6-4.1,4.5-4.1c2.7,0,4,1.6,4,4c0,2.2-1.2,3.6-4.1,3.6c-0.7,0-1.6-0.1-2.5-0.2v1.4c0,1.4,0.9,2.2,2.7,2.2
			C65.8,230.7,66.5,230.5,67.3,230.1z M64.6,221.4c-1.6,0-2.5,0.9-2.5,2.2v1.9c0.9,0.1,2.1,0.2,2.6,0.2c1.9,0,2.2-1,2.2-2
			C66.8,222.1,66,221.4,64.6,221.4z"/>
		<path class="st4" d="M82.3,219.7c1.3,0,3.2,0.3,3.2,1.4c0,0.5-0.4,0.9-0.9,0.9c-0.2,0-0.3,0-0.4-0.1c-0.5-0.2-1-0.4-1.9-0.4
			c-1.5,0-2.2,0.6-2.2,1.7c0,0.8,0.3,1.1,1.1,1.6c1.7,0.8,4.5,1,4.5,4.2c0,2.2-1.4,3.6-4.1,3.6c-1.2,0-3.6-0.3-3.6-1.4
			c0-0.4,0.3-0.9,0.9-0.9c0.1,0,0.2,0,0.2,0c0.7,0.3,1.5,0.6,2.4,0.6c1.3,0,2.2-0.5,2.2-1.8c0-0.9-0.4-1.2-0.9-1.5
			c-1.5-0.8-4.8-1-4.8-4.2C78.3,221.1,79.7,219.7,82.3,219.7z"/>
		<path class="st4" d="M95.5,220.7c0-0.5,0.3-0.9,1-0.9s1,0.4,1,0.9v8.5c0,1.3,0.2,1.3,0.4,1.7c0,0.1,0.2,0.3,0.2,0.5
			c0,0.5-0.4,0.9-0.9,0.9c-0.5,0-0.8-0.3-1-0.7c-1.1,0.6-2.3,0.9-3.5,0.9c-2.6,0-3.9-1.9-3.9-4.6v-7.1c0-0.5,0.3-0.9,1-0.9
			s1,0.4,1,0.9v7.1c0,1.9,0.8,2.9,2.2,2.9c1,0,1.9-0.3,2.7-0.8c0-0.2,0-0.5,0-0.7L95.5,220.7L95.5,220.7z"/>
		<path class="st4" d="M110.4,231.9v4.6c0,0.5-0.3,0.9-1,0.9s-1-0.4-1-0.9v-13.3c0-0.8-0.1-1.3-0.4-1.7c-0.1-0.1-0.2-0.3-0.2-0.5
			c0-0.5,0.4-0.9,0.9-0.9c0.4,0,0.7,0.2,1,0.6c1.1-0.6,2.3-1.1,3.6-1.1c2.6,0,3.9,1.9,3.9,4.6v3.2c0,2.9-1,4.9-4.1,4.9
			C112.3,232.4,111.3,232.2,110.4,231.9z M110.4,230.2c0.8,0.4,1.9,0.5,2.5,0.5c1.8,0,2.4-1,2.4-3.3v-3.2c0-1.9-0.8-2.9-2.4-2.9
			c-0.8,0-1.8,0.3-2.6,0.8c0.1,0.4,0.1,0.7,0.1,1L110.4,230.2L110.4,230.2z"/>
		<path class="st4" d="M126.2,224c0-1.8-0.9-2.6-2.6-2.6c-0.9,0-1.3,0.2-1.9,0.5c-0.1,0-0.4,0.2-0.6,0.2c-0.5,0-0.7-0.4-0.7-0.8
			c-0.1-1.1,1.7-1.6,3.4-1.6c3,0,4.3,1.7,4.3,4.9v5.4c0,0.5,0.1,0.7,0.4,0.7c0.1,0,0.1,0,0.2,0c0.5,0,0.7,0.4,0.7,0.8
			c0,0.6-0.6,0.8-1.1,0.8c-0.8,0-1.5-0.5-1.8-1.2c-0.9,0.9-2,1.3-3.3,1.3c-2.5,0-3.7-1.5-3.7-3.7v-0.1c0-2.4,1.4-3.6,4.3-3.6
			c0.9,0,1.7,0.1,2.5,0.3V224z M121.3,228.7L121.3,228.7c0,1.2,0.5,2,2.1,2c1,0,1.9-0.3,2.7-1.1V227c-0.8-0.2-1.8-0.4-2.5-0.4
			C121.7,226.7,121.3,227.6,121.3,228.7z"/>
		<path class="st4" d="M135.5,219.7c1.3,0,3.2,0.3,3.2,1.4c0,0.5-0.4,0.9-0.9,0.9c-0.2,0-0.3,0-0.4-0.1c-0.5-0.2-1-0.4-1.9-0.4
			c-1.5,0-2.2,0.6-2.2,1.7c0,0.8,0.3,1.1,1.1,1.6c1.7,0.8,4.5,1,4.5,4.2c0,2.2-1.4,3.6-4.1,3.6c-1.2,0-3.6-0.3-3.6-1.4
			c0-0.4,0.3-0.9,0.9-0.9c0.1,0,0.2,0,0.2,0c0.7,0.3,1.5,0.6,2.4,0.6c1.3,0,2.2-0.5,2.2-1.8c0-0.9-0.4-1.2-0.9-1.5
			c-1.5-0.8-4.8-1-4.8-4.2C131.5,221.1,132.9,219.7,135.5,219.7z"/>
		<path class="st4" d="M148,224c0-1.8-0.9-2.6-2.6-2.6c-0.9,0-1.3,0.2-1.9,0.5c-0.1,0-0.4,0.2-0.6,0.2c-0.5,0-0.7-0.4-0.7-0.8
			c-0.1-1.1,1.7-1.6,3.4-1.6c3,0,4.3,1.7,4.3,4.9v5.4c0,0.5,0.1,0.7,0.4,0.7c0.1,0,0.1,0,0.2,0c0.5,0,0.7,0.4,0.7,0.8
			c0,0.6-0.6,0.8-1.1,0.8c-0.8,0-1.5-0.5-1.8-1.2c-0.9,0.9-2,1.3-3.3,1.3c-2.5,0-3.7-1.5-3.7-3.7v-0.1c0-2.4,1.4-3.6,4.3-3.6
			c0.9,0,1.7,0.1,2.5,0.3L148,224L148,224z M143.1,228.7L143.1,228.7c0,1.2,0.5,2,2.1,2c1,0,1.9-0.3,2.7-1.1V227
			c-0.8-0.2-1.8-0.4-2.5-0.4C143.5,226.7,143.1,227.6,143.1,228.7z"/>
		<path class="st4" d="M155.7,231.9v4.6c0,0.5-0.3,0.9-1,0.9c-0.6,0-1-0.4-1-0.9v-13.3c0-0.8-0.1-1.3-0.4-1.7
			c-0.1-0.1-0.2-0.3-0.2-0.5c0-0.5,0.4-0.9,0.9-0.9c0.4,0,0.7,0.2,1,0.6c1.1-0.6,2.3-1.1,3.6-1.1c2.6,0,3.9,1.9,3.9,4.6v3.2
			c0,2.9-1,4.9-4.1,4.9C157.6,232.4,156.6,232.2,155.7,231.9z M155.7,230.2c0.8,0.4,1.9,0.5,2.5,0.5c1.8,0,2.4-1,2.4-3.3v-3.2
			c0-1.9-0.8-2.9-2.4-2.9c-0.8,0-1.8,0.3-2.6,0.8c0.1,0.4,0.1,0.7,0.1,1L155.7,230.2L155.7,230.2z"/>
		<path class="st4" d="M164.7,228.1V224c0-2.4,1.6-4.3,4.6-4.3s4.6,1.9,4.6,4.3v4.1c0,2.4-1.6,4.3-4.6,4.3S164.7,230.5,164.7,228.1z
			 M171.9,228.1V224c0-1.6-0.9-2.6-2.7-2.6s-2.7,1-2.7,2.6v4.1c0,1.6,0.9,2.6,2.7,2.6S171.9,229.7,171.9,228.1z"/>
		<path class="st4" d="M178.6,231.5c0,0.5-0.4,1-1,1c-0.5,0-1-0.4-1-1v-8.2c0-0.8-0.1-1.3-0.4-1.7c-0.1-0.1-0.2-0.3-0.2-0.5
			c0-0.5,0.4-0.9,0.9-0.9c0.4,0,0.7,0.3,1,0.7c1-0.7,2.4-1,3.3-1c1,0,1.3,0.4,1.3,0.9c0,0.6-0.4,1-1,1c-1,0-1.9,0-3.1,0.9
			c0,0.2,0,0.5,0,0.7L178.6,231.5L178.6,231.5z"/>
		<path class="st4" d="M184.9,217.1c0-0.5,0.3-0.9,1-0.9c0.6,0,1,0.4,1,0.9v3.4h2.5c0.5,0,0.9,0.4,0.9,0.9s-0.4,0.9-0.9,0.9h-2.5
			v4.9c0,2.5,0.2,3.4,2,3.4c0.1,0,0.3,0,0.5,0c0.6,0,1.3,0.1,1.3,0.9c0,0.8-0.7,0.9-1.4,0.9c-3.4,0-4.2-1.7-4.2-5V217.1z"/>
		<path class="st4" d="M199.1,230.1c0,0,0.2-0.1,0.3-0.1c0.5,0,0.9,0.4,0.9,0.9c0,1.2-2.6,1.6-4,1.6c-2.8,0-4.3-1.8-4.3-4v-4.6
			c0-2.3,1.6-4.1,4.5-4.1c2.7,0,4,1.6,4,4c0,2.2-1.2,3.6-4.1,3.6c-0.7,0-1.6-0.1-2.5-0.2v1.4c0,1.4,0.9,2.2,2.7,2.2
			C197.5,230.7,198.2,230.5,199.1,230.1z M196.4,221.4c-1.6,0-2.5,0.9-2.5,2.2v1.9c0.9,0.1,2.1,0.2,2.6,0.2c1.9,0,2.2-1,2.2-2
			C198.6,222.1,197.8,221.4,196.4,221.4z"/>
		<path class="st4" d="M214,219.7c1.3,0,3.2,0.3,3.2,1.4c0,0.5-0.4,0.9-0.9,0.9c-0.2,0-0.3,0-0.4-0.1c-0.5-0.2-1-0.4-1.9-0.4
			c-1.5,0-2.2,0.6-2.2,1.7c0,0.8,0.3,1.1,1.1,1.6c1.7,0.8,4.5,1,4.5,4.2c0,2.2-1.4,3.6-4.1,3.6c-1.2,0-3.6-0.3-3.6-1.4
			c0-0.4,0.3-0.9,0.9-0.9c0.1,0,0.2,0,0.2,0c0.7,0.3,1.5,0.6,2.4,0.6c1.3,0,2.2-0.5,2.2-1.8c0-0.9-0.4-1.2-0.9-1.5
			c-1.5-0.8-4.8-1-4.8-4.2C210.1,221.1,211.4,219.7,214,219.7z"/>
		<path class="st4" d="M226.9,230.1c0,0,0.2-0.1,0.3-0.1c0.5,0,0.9,0.4,0.9,0.9c0,1.2-2.6,1.6-4,1.6c-2.8,0-4.3-1.8-4.3-4v-4.6
			c0-2.3,1.6-4.1,4.5-4.1c2.7,0,4,1.6,4,4c0,2.2-1.2,3.6-4.1,3.6c-0.7,0-1.6-0.1-2.5-0.2v1.4c0,1.4,0.9,2.2,2.7,2.2
			C225.4,230.7,226,230.5,226.9,230.1z M224.2,221.4c-1.6,0-2.5,0.9-2.5,2.2v1.9c0.9,0.1,2.1,0.2,2.6,0.2c1.9,0,2.2-1,2.2-2
			C226.4,222.1,225.6,221.4,224.2,221.4z"/>
		<path class="st4" d="M230.7,215.5c0-0.5,0.4-1,1-1c0.5,0,1,0.4,1,1v14.4c0,0.5,0,0.9,0.3,1.1c0.1,0.1,0.2,0.3,0.2,0.5
			c0,0.5-0.4,0.9-0.9,0.9c-0.6,0-1.5-0.3-1.5-2.5V215.5z"/>
		<path class="st4" d="M236.3,215.5c0-0.5,0.4-1,1-1c0.5,0,1,0.4,1,1v14.4c0,0.5,0,0.9,0.3,1.1c0.1,0.1,0.2,0.3,0.2,0.5
			c0,0.5-0.4,0.9-0.9,0.9c-0.6,0-1.5-0.3-1.5-2.5V215.5z"/>
		<path class="st4" d="M247.9,224c0-1.8-0.9-2.6-2.6-2.6c-0.9,0-1.3,0.2-1.9,0.5c-0.1,0-0.4,0.2-0.6,0.2c-0.5,0-0.7-0.4-0.7-0.8
			c-0.1-1.1,1.7-1.6,3.4-1.6c3,0,4.3,1.7,4.3,4.9v5.4c0,0.5,0.1,0.7,0.4,0.7c0.1,0,0.1,0,0.2,0c0.5,0,0.7,0.4,0.7,0.8
			c0,0.6-0.6,0.8-1.1,0.8c-0.8,0-1.5-0.5-1.8-1.2c-0.9,0.9-2,1.3-3.3,1.3c-2.5,0-3.7-1.5-3.7-3.7v-0.1c0-2.4,1.4-3.6,4.3-3.6
			c0.9,0,1.7,0.1,2.5,0.3L247.9,224L247.9,224z M243,228.7L243,228.7c0,1.2,0.5,2,2.1,2c1,0,1.9-0.3,2.7-1.1V227
			c-0.8-0.2-1.8-0.4-2.5-0.4C243.4,226.7,243,227.6,243,228.7z"/>
		<path class="st4" d="M259.7,220.3v-4.8c0-0.5,0.3-0.9,1-0.9c0.6,0,1,0.4,1,0.9v14c0,0.7,0.1,1.1,0.6,1.5c0.1,0.1,0.2,0.3,0.2,0.5
			c0,0.5-0.4,0.9-0.9,0.9c-0.6,0-1-0.3-1.3-0.8c-1.1,0.5-2.2,1-3.5,1c-2.6,0-3.9-1.9-3.9-4.6v-3.1c0-2.9,1-4.9,4.1-4.9
			C257.8,219.8,258.8,220,259.7,220.3z M259.7,222c-0.8-0.3-1.9-0.5-2.5-0.5c-1.8,0-2.4,1-2.4,3.3v3.1c0,1.9,0.8,2.9,2.4,2.9
			c0.8,0,1.7-0.3,2.6-0.7c0-0.2,0-0.4,0-0.6L259.7,222L259.7,222z"/>
		<path class="st4" d="M264.8,228.1V224c0-2.4,1.6-4.3,4.6-4.3s4.6,1.9,4.6,4.3v4.1c0,2.4-1.6,4.3-4.6,4.3S264.8,230.5,264.8,228.1z
			 M272,228.1V224c0-1.6-0.9-2.6-2.7-2.6c-1.8,0-2.7,1-2.7,2.6v4.1c0,1.6,0.9,2.6,2.7,2.6C271.1,230.7,272,229.7,272,228.1z"/>
		<path class="st4" d="M277.8,232.5c-0.7,0-1.3-0.6-1.3-1.3c0-0.7,0.6-1.3,1.3-1.3c0.7,0,1.3,0.6,1.3,1.3
			C279.1,231.9,278.5,232.5,277.8,232.5z M276.8,215.8c0-0.5,0.4-1,1-1s1,0.5,1,1l-0.2,11.5c0,0.4-0.3,0.8-0.7,0.8
			c-0.4,0-0.7-0.4-0.7-0.8L276.8,215.8z"/>
	</g>
</g>
<g>
	<g>
		<path class="st4" d="M-9,484.5c-0.7,0-1.3-0.6-1.3-1.3c0-0.7,0.6-1.3,1.3-1.3c0.7,0,1.3,0.6,1.3,1.3C-7.7,483.9-8.3,484.5-9,484.5
			z M-9.7,487c0-0.4,0.3-0.8,0.7-0.8c0.4,0,0.7,0.4,0.7,0.8l0.2,11.5c0,0.5-0.4,1-1,1s-1-0.5-1-1L-9.7,487z"/>
		<path class="st4" d="M3.5,494.3h-6.5c-0.8,0-1.5-0.3-1.5-1.1v-14.9c0-0.6,0.5-1.1,1.1-1.1h6.6c0.5,0,1,0.4,1,1
			c0,0.5-0.4,0.9-1,0.9h-5.8v5.7h5.3c0.5,0,1,0.4,1,1s-0.4,1-1,1h-5.3v5.8h6c0.5,0,1,0.4,1,0.9C4.5,493.9,4.1,494.3,3.5,494.3z"/>
		<path class="st4" d="M10.7,481.8c1.3,0,3.2,0.3,3.2,1.4c0,0.5-0.4,0.9-0.9,0.9c-0.2,0-0.3,0-0.4-0.1c-0.5-0.2-1-0.4-1.9-0.4
			c-1.5,0-2.2,0.6-2.2,1.7c0,0.8,0.3,1.1,1.1,1.6c1.7,0.8,4.5,1,4.5,4.2c0,2.2-1.4,3.6-4.1,3.6c-1.2,0-3.6-0.3-3.6-1.4
			c0-0.4,0.3-0.9,0.9-0.9c0.1,0,0.2,0,0.2,0c0.7,0.3,1.5,0.6,2.4,0.6c1.3,0,2.2-0.5,2.2-1.8c0-0.9-0.4-1.2-0.9-1.5
			c-1.5-0.8-4.8-1-4.8-4.2C6.7,483.2,8.1,481.8,10.7,481.8z"/>
		<path class="st4" d="M16.8,479.2c0-0.5,0.3-0.9,1-0.9s1,0.4,1,0.9v3.4h2.5c0.5,0,0.9,0.4,0.9,0.9s-0.4,0.9-0.9,0.9h-2.5v4.9
			c0,2.5,0.2,3.4,2,3.4c0.1,0,0.3,0,0.5,0c0.6,0,1.3,0.1,1.3,0.9c0,0.8-0.7,0.9-1.4,0.9c-3.4,0-4.2-1.7-4.2-5L16.8,479.2L16.8,479.2
			z"/>
		<path class="st4" d="M30.6,486.1c0-1.8-0.9-2.6-2.6-2.6c-0.9,0-1.3,0.2-1.9,0.5c-0.1,0-0.4,0.2-0.6,0.2c-0.5,0-0.7-0.4-0.7-0.8
			c-0.1-1.1,1.7-1.6,3.4-1.6c3,0,4.3,1.7,4.3,4.9v5.4c0,0.5,0.1,0.7,0.4,0.7c0.1,0,0.1,0,0.2,0c0.5,0,0.7,0.4,0.7,0.8
			c0,0.6-0.6,0.8-1.1,0.8c-0.8,0-1.5-0.5-1.8-1.2c-0.9,0.9-2,1.3-3.3,1.3c-2.5,0-3.7-1.5-3.7-3.7v-0.1c0-2.4,1.4-3.6,4.3-3.6
			c0.9,0,1.7,0.1,2.5,0.3V486.1z M28.1,488.7c-2,0-2.4,0.9-2.4,2v0.1c0,1.1,0.5,2,2.1,2c1,0,1.9-0.3,2.7-1.1v-2.6
			C29.8,488.8,28.9,488.7,28.1,488.7z M27.7,479.1c-0.1,0.1-0.1,0.2-0.1,0.4c0,0.5,0.4,0.9,0.8,0.9c0.3,0,0.5-0.2,0.8-0.4l2-2.1
			c0.1-0.1,0.1-0.3,0.1-0.4c0-0.5-0.4-0.8-0.8-0.8c-0.4,0-0.6,0.2-0.9,0.6L27.7,479.1z"/>
		<path class="st4" d="M50,492.1c0,0,0.2-0.1,0.3-0.1c0.5,0,0.9,0.4,0.9,0.9c0,1.2-2.6,1.6-4,1.6c-2.8,0-4.3-1.8-4.3-4v-4.6
			c0-2.3,1.6-4.1,4.5-4.1c2.7,0,4,1.6,4,4c0,2.2-1.2,3.6-4.1,3.6c-0.7,0-1.6-0.1-2.5-0.2v1.4c0,1.4,0.9,2.2,2.7,2.2
			C48.5,492.8,49.2,492.5,50,492.1z M47.4,483.5c-1.6,0-2.5,0.9-2.5,2.2v1.9c0.9,0.1,2.1,0.2,2.6,0.2c1.9,0,2.2-1,2.2-2
			C49.6,484.2,48.8,483.5,47.4,483.5z"/>
		<path class="st4" d="M56.2,493.5c0,0.5-0.3,0.9-1,0.9s-1-0.4-1-0.9v-8.3c0-1.3-0.2-1.3-0.4-1.7c0-0.1-0.2-0.2-0.2-0.5
			c0-0.5,0.4-0.9,0.9-0.9c0.4,0,0.8,0.3,1,0.7c1.1-0.8,2.3-1.1,3.5-1.1c2.6,0,3.9,1.9,3.9,4.6v7.1c0,0.5-0.3,0.9-1,0.9
			c-0.6,0-1-0.4-1-0.9v-7.1c0-1.9-0.8-2.9-2.2-2.9c-1,0-1.9,0.4-2.7,1c0,0.3,0.1,0.5,0.1,0.7L56.2,493.5L56.2,493.5z"/>
		<path class="st4" d="M74,477.6c0-0.5,0.4-1,1-1s1,0.4,1,1V492c0,0.5,0,0.9,0.3,1.1c0.1,0.1,0.2,0.3,0.2,0.5c0,0.5-0.4,0.9-0.9,0.9
			c-0.6,0-1.5-0.3-1.5-2.5V477.6z"/>
		<path class="st4" d="M85.6,486.1c0-1.8-0.9-2.6-2.6-2.6c-0.9,0-1.3,0.2-1.9,0.5c-0.1,0-0.4,0.2-0.6,0.2c-0.5,0-0.7-0.4-0.7-0.8
			c-0.1-1.1,1.7-1.6,3.4-1.6c3,0,4.3,1.7,4.3,4.9v5.4c0,0.5,0.1,0.7,0.4,0.7c0.1,0,0.1,0,0.2,0c0.5,0,0.7,0.4,0.7,0.8
			c0,0.6-0.6,0.8-1.1,0.8c-0.8,0-1.5-0.5-1.8-1.2c-0.9,0.9-2,1.3-3.3,1.3c-2.5,0-3.7-1.5-3.7-3.7v-0.1c0-2.4,1.4-3.6,4.3-3.6
			c0.9,0,1.7,0.1,2.5,0.3V486.1z M80.7,490.7L80.7,490.7c0,1.2,0.5,2,2.1,2c1,0,1.9-0.3,2.7-1.1v-2.6c-0.8-0.2-1.8-0.4-2.5-0.4
			C81.1,488.7,80.7,489.6,80.7,490.7z"/>
		<path class="st4" d="M100.6,493.5c0,0.5-0.4,1-1,1c-0.5,0-1-0.4-1-1v-8.2c0-0.8-0.1-1.3-0.4-1.7c-0.1-0.1-0.2-0.3-0.2-0.5
			c0-0.5,0.4-0.9,0.9-0.9c0.4,0,0.7,0.3,1,0.7c1-0.7,2.4-1,3.3-1c1,0,1.3,0.4,1.3,0.9c0,0.6-0.4,1-1,1c-1,0-1.9,0-3.1,0.9
			c0,0.2,0,0.5,0,0.7L100.6,493.5L100.6,493.5z"/>
		<path class="st4" d="M113.6,482.8c0-0.5,0.3-0.9,1-0.9s1,0.4,1,0.9v8.5c0,1.3,0.2,1.3,0.4,1.7c0,0.1,0.2,0.3,0.2,0.5
			c0,0.5-0.4,0.9-0.9,0.9c-0.5,0-0.8-0.3-1-0.7c-1.1,0.6-2.3,0.9-3.5,0.9c-2.6,0-3.9-1.9-3.9-4.6v-7.1c0-0.5,0.3-0.9,1-0.9
			s1,0.4,1,0.9v7.1c0,1.9,0.8,2.9,2.2,2.9c1,0,1.9-0.3,2.7-0.8c0-0.2,0-0.5,0-0.7L113.6,482.8L113.6,482.8z"/>
		<path class="st4" d="M119.2,479.2c0-0.5,0.3-0.9,1-0.9s1,0.4,1,0.9v3.4h2.5c0.5,0,0.9,0.4,0.9,0.9s-0.4,0.9-0.9,0.9h-2.5v4.9
			c0,2.5,0.2,3.4,2,3.4c0.1,0,0.3,0,0.5,0c0.6,0,1.3,0.1,1.3,0.9c0,0.8-0.7,0.9-1.4,0.9c-3.4,0-4.2-1.7-4.2-5L119.2,479.2
			L119.2,479.2z"/>
		<path class="st4" d="M133.1,486.1c0-1.8-0.9-2.6-2.6-2.6c-0.9,0-1.3,0.2-1.9,0.5c-0.1,0-0.4,0.2-0.6,0.2c-0.5,0-0.7-0.4-0.7-0.8
			c-0.1-1.1,1.7-1.6,3.4-1.6c3,0,4.3,1.7,4.3,4.9v5.4c0,0.5,0.1,0.7,0.4,0.7c0.1,0,0.1,0,0.2,0c0.5,0,0.7,0.4,0.7,0.8
			c0,0.6-0.6,0.8-1.1,0.8c-0.8,0-1.5-0.5-1.8-1.2c-0.9,0.9-2,1.3-3.3,1.3c-2.5,0-3.7-1.5-3.7-3.7v-0.1c0-2.4,1.4-3.6,4.3-3.6
			c0.9,0,1.7,0.1,2.5,0.3V486.1z M128.2,490.7L128.2,490.7c0,1.2,0.5,2,2.1,2c1,0,1.9-0.3,2.7-1.1v-2.6c-0.8-0.2-1.8-0.4-2.5-0.4
			C128.6,488.7,128.2,489.6,128.2,490.7z"/>
		<path class="st4" d="M152.1,486.1c0-1.8-0.9-2.6-2.6-2.6c-0.9,0-1.3,0.2-1.9,0.5c-0.1,0-0.4,0.2-0.6,0.2c-0.5,0-0.7-0.4-0.7-0.8
			c-0.1-1.1,1.7-1.6,3.4-1.6c3,0,4.3,1.7,4.3,4.9v5.4c0,0.5,0.1,0.7,0.4,0.7c0.1,0,0.1,0,0.2,0c0.5,0,0.7,0.4,0.7,0.8
			c0,0.6-0.6,0.8-1.1,0.8c-0.8,0-1.5-0.5-1.8-1.2c-0.9,0.9-2,1.3-3.3,1.3c-2.5,0-3.7-1.5-3.7-3.7v-0.1c0-2.4,1.4-3.6,4.3-3.6
			c0.9,0,1.7,0.1,2.5,0.3L152.1,486.1L152.1,486.1z M147.3,490.7L147.3,490.7c0,1.2,0.5,2,2.1,2c1,0,1.9-0.3,2.7-1.1v-2.6
			c-0.8-0.2-1.8-0.4-2.5-0.4C147.6,488.7,147.3,489.6,147.3,490.7z"/>
		<path class="st4" d="M157.8,477.6c0-0.5,0.4-1,1-1c0.5,0,1,0.4,1,1V492c0,0.5,0,0.9,0.3,1.1c0.1,0.1,0.2,0.3,0.2,0.5
			c0,0.5-0.4,0.9-0.9,0.9c-0.6,0-1.5-0.3-1.5-2.5V477.6z"/>
		<path class="st4" d="M174.6,492.8c1,0,1.7-0.3,2.5-0.7c0,0,0.2-0.1,0.3-0.1c0.5,0,0.9,0.4,0.9,0.9c0,1.2-2.6,1.6-4,1.6
			c-2.8,0-4.3-1.8-4.3-4v-4.6c0-2.3,1.6-4.1,4.5-4.1c2.7,0,4,1.6,4,4c0,2.2-1.2,3.6-4.1,3.6c-0.7,0-1.6-0.1-2.5-0.2v1.4
			C171.9,491.9,172.8,492.8,174.6,492.8z M176.6,485.7c0-1.6-0.8-2.2-2.2-2.2c-1.6,0-2.5,0.9-2.5,2.2v1.9c0.9,0.1,2.1,0.2,2.6,0.2
			C176.3,487.7,176.6,486.7,176.6,485.7z M173.4,479.1c-0.1,0.1-0.1,0.2-0.1,0.4c0,0.5,0.4,0.9,0.8,0.9c0.3,0,0.5-0.2,0.8-0.4l2-2.1
			c0.1-0.1,0.1-0.3,0.1-0.4c0-0.5-0.4-0.8-0.8-0.8c-0.4,0-0.6,0.2-0.9,0.6L173.4,479.1z"/>
		<path class="st4" d="M189.4,493.1c0.1,0.1,0.1,0.3,0.1,0.4c0,0.5-0.4,1-1,1c-0.4,0-0.6-0.2-0.9-0.7l-2.8-4.2L182,494
			c-0.2,0.3-0.5,0.5-0.8,0.5c-0.5,0-1-0.4-1-1c0-0.1,0-0.3,0.1-0.4l3.4-5.1l-3.2-4.8c-0.1-0.1-0.1-0.3-0.1-0.4c0-0.5,0.4-1,1-1
			c0.5,0,0.8,0.5,1.1,0.8l2.5,3.8l2.6-4c0.2-0.4,0.5-0.6,0.9-0.6c0.4,0,0.9,0.4,0.9,0.9c0,0.1,0,0.3-0.1,0.5L186,488L189.4,493.1z"
			/>
		<path class="st4" d="M193.1,479.2c-0.7,0-1.2-0.5-1.2-1.2c0-0.7,0.5-1.2,1.2-1.2s1.2,0.5,1.2,1.2
			C194.3,478.6,193.8,479.2,193.1,479.2z M193.1,494.5c-0.5,0-1-0.4-1-1v-10.8c0-0.5,0.4-1,1-1c0.5,0,1,0.4,1,1v10.8
			C194.1,494.1,193.7,494.5,193.1,494.5z"/>
		<path class="st4" d="M197.9,479.2c0-0.5,0.3-0.9,1-0.9c0.6,0,1,0.4,1,0.9v3.4h2.5c0.5,0,0.9,0.4,0.9,0.9s-0.4,0.9-0.9,0.9h-2.5
			v4.9c0,2.5,0.2,3.4,2,3.4c0.1,0,0.3,0,0.5,0c0.6,0,1.3,0.1,1.3,0.9c0,0.8-0.7,0.9-1.4,0.9c-3.4,0-4.2-1.7-4.2-5V479.2z"/>
		<path class="st4" d="M205,490.2v-4.1c0-2.4,1.6-4.3,4.6-4.3s4.6,1.9,4.6,4.3v4.1c0,2.4-1.6,4.3-4.6,4.3S205,492.6,205,490.2z
			 M212.2,490.2v-4.1c0-1.6-0.9-2.6-2.7-2.6c-1.8,0-2.7,1-2.7,2.6v4.1c0,1.6,0.9,2.6,2.7,2.6C211.3,492.7,212.2,491.8,212.2,490.2z"
			/>
		<path class="st4" d="M224.4,477.6c0-0.5,0.4-1,1-1c0.5,0,1,0.4,1,1V492c0,0.5,0,0.9,0.3,1.1c0.1,0.1,0.2,0.3,0.2,0.5
			c0,0.5-0.4,0.9-0.9,0.9c-0.6,0-1.5-0.3-1.5-2.5V477.6z"/>
		<path class="st4" d="M236,486.1c0-1.8-0.9-2.6-2.6-2.6c-0.9,0-1.3,0.2-1.9,0.5c-0.1,0-0.4,0.2-0.6,0.2c-0.5,0-0.7-0.4-0.7-0.8
			c-0.1-1.1,1.7-1.6,3.4-1.6c3,0,4.3,1.7,4.3,4.9v5.4c0,0.5,0.1,0.7,0.4,0.7c0.1,0,0.1,0,0.2,0c0.5,0,0.7,0.4,0.7,0.8
			c0,0.6-0.6,0.8-1.1,0.8c-0.8,0-1.5-0.5-1.8-1.2c-0.9,0.9-2,1.3-3.3,1.3c-2.5,0-3.7-1.5-3.7-3.7v-0.1c0-2.4,1.4-3.6,4.3-3.6
			c0.9,0,1.7,0.1,2.5,0.3L236,486.1L236,486.1z M231.1,490.7L231.1,490.7c0,1.2,0.5,2,2.1,2c1,0,1.9-0.3,2.7-1.1v-2.6
			c-0.8-0.2-1.8-0.4-2.5-0.4C231.5,488.7,231.1,489.6,231.1,490.7z"/>
		<path class="st4" d="M241.7,477.6c0-0.5,0.3-0.9,1-0.9c0.6,0,1,0.4,1,0.9v5.2c0.9-0.6,1.9-1,3.2-1c2.8,0,3.8,1.7,3.8,3.8v4.6
			c0,2.4-1.5,4.3-4.5,4.3c-2.8,0-4.5-1.7-4.5-3.9L241.7,477.6L241.7,477.6z M243.6,490.6c0,1.3,1,2.1,2.6,2.1c1.8,0,2.6-1,2.6-2.6
			v-4.6c0-1.3-0.7-2.1-2.3-2.1c-1.2,0-2.1,0.5-2.8,1.2L243.6,490.6L243.6,490.6z"/>
		<path class="st4" d="M252.8,490.2v-4.1c0-2.4,1.6-4.3,4.6-4.3s4.6,1.9,4.6,4.3v4.1c0,2.4-1.6,4.3-4.6,4.3S252.8,492.6,252.8,490.2
			z M260,490.2v-4.1c0-1.6-0.9-2.6-2.7-2.6c-1.8,0-2.7,1-2.7,2.6v4.1c0,1.6,0.9,2.6,2.7,2.6C259.1,492.7,260,491.8,260,490.2z"/>
		<path class="st4" d="M266.8,493.5c0,0.5-0.4,1-1,1c-0.5,0-1-0.4-1-1v-8.2c0-0.8-0.1-1.3-0.4-1.7c-0.1-0.1-0.2-0.3-0.2-0.5
			c0-0.5,0.4-0.9,0.9-0.9c0.4,0,0.7,0.3,1,0.7c1-0.7,2.4-1,3.3-1c1,0,1.3,0.4,1.3,0.9c0,0.6-0.4,1-1,1c-1,0-1.9,0-3.1,0.9
			c0,0.2,0,0.5,0,0.7L266.8,493.5L266.8,493.5z"/>
		<path class="st4" d="M278.9,486.1c0-1.8-0.9-2.6-2.6-2.6c-0.9,0-1.3,0.2-1.9,0.5c-0.1,0-0.4,0.2-0.6,0.2c-0.5,0-0.7-0.4-0.7-0.8
			c-0.1-1.1,1.7-1.6,3.4-1.6c3,0,4.3,1.7,4.3,4.9v5.4c0,0.5,0.1,0.7,0.4,0.7c0.1,0,0.1,0,0.2,0c0.5,0,0.7,0.4,0.7,0.8
			c0,0.6-0.6,0.8-1.1,0.8c-0.8,0-1.5-0.5-1.8-1.2c-0.9,0.9-2,1.3-3.3,1.3c-2.5,0-3.7-1.5-3.7-3.7v-0.1c0-2.4,1.4-3.6,4.3-3.6
			c0.9,0,1.7,0.1,2.5,0.3L278.9,486.1L278.9,486.1z M274,490.7L274,490.7c0,1.2,0.5,2,2.1,2c1,0,1.9-0.3,2.7-1.1v-2.6
			c-0.8-0.2-1.8-0.4-2.5-0.4C274.4,488.7,274,489.6,274,490.7z"/>
		<path class="st4" d="M284.6,477.6c0-0.5,0.4-1,1-1c0.5,0,1,0.4,1,1V492c0,0.5,0,0.9,0.3,1.1c0.1,0.1,0.2,0.3,0.2,0.5
			c0,0.5-0.4,0.9-0.9,0.9c-0.6,0-1.5-0.3-1.5-2.5V477.6z"/>
		<path class="st4" d="M291.2,494.5c-0.7,0-1.3-0.6-1.3-1.3c0-0.7,0.6-1.3,1.3-1.3c0.7,0,1.3,0.6,1.3,1.3
			C292.4,493.9,291.9,494.5,291.2,494.5z M290.1,477.8c0-0.5,0.4-1,1-1s1,0.5,1,1l-0.2,11.5c0,0.4-0.3,0.8-0.7,0.8
			c-0.4,0-0.7-0.4-0.7-0.8L290.1,477.8z"/>
	</g>
</g>
<g>
	<g>
		<path class="st4" d="M307.2,140.4c-0.2,0.3-0.6,0.7-1.2,0.7c-0.7,0-1.2-0.5-1.2-1c0-0.2,0.1-0.4,0.2-0.5l6-7.7l-5.5-7
			c-0.1-0.1-0.2-0.4-0.2-0.5c0-0.5,0.6-1,1.2-1c0.6,0,1.1,0.4,1.4,0.9l4.6,6.1l4.6-6.1c0.3-0.4,0.8-0.9,1.4-0.9c0.6,0,1.2,0.4,1.2,1
			c0,0.2-0.1,0.4-0.2,0.5l-5.5,7l6,7.7c0.1,0.1,0.2,0.3,0.2,0.5c0,0.5-0.6,1-1.2,1s-1-0.4-1.3-0.7l-5.2-6.9L307.2,140.4z"/>
	</g>
</g>
<g>
	<g>
		<path class="st1" d="M93.6,537.9c0-3.8,1.7-6.2,5.5-6.2c2.2,0,4.3,1,4.3,2.1c0,0.5-0.4,0.9-0.9,0.9c-0.3,0-0.5-0.2-0.9-0.4
			c-0.7-0.5-1.5-0.8-2.4-0.8c-2.8,0-3.7,1.7-3.7,4.4v5.2c0,2.7,0.9,4.4,3.7,4.4c1,0,1.7-0.2,2.4-0.8c0.4-0.2,0.5-0.4,0.9-0.4
			c0.5,0,0.9,0.4,0.9,0.9c0,1.1-2.1,2.1-4.3,2.1c-3.8,0-5.5-2.5-5.5-6.2V537.9z"/>
		<path class="st1" d="M105.3,545v-4.1c0-2.4,1.6-4.3,4.6-4.3s4.6,1.9,4.6,4.3v4.1c0,2.4-1.6,4.3-4.6,4.3
			C106.9,549.3,105.3,547.4,105.3,545z M112.5,545v-4.1c0-1.6-0.9-2.6-2.7-2.6c-1.8,0-2.7,1-2.7,2.6v4.1c0,1.6,0.9,2.6,2.7,2.6
			S112.5,546.6,112.5,545z"/>
		<path class="st1" d="M130.7,540.8c0-1.4-0.7-2.4-2.2-2.4c-1,0-2.1,0.6-2.7,1.3c0.1,0.3,0.1,0.7,0.1,1.1v7.6c0,0.5-0.3,0.9-1,0.9
			s-1-0.4-1-0.9v-7.1c0-1.7-0.3-3-2-3c-1.1,0-2.1,0.5-2.8,1c0,0.3,0.1,0.5,0.1,0.8v8.3c0,0.5-0.3,0.9-1,0.9s-1-0.4-1-0.9v-8.3
			c0-1.3-0.2-1.3-0.4-1.7c0-0.1-0.2-0.2-0.2-0.5c0-0.5,0.4-0.9,0.9-0.9c0.4,0,0.7,0.3,1,0.7c1.1-0.7,2.3-1.1,3.6-1.1
			c1.3,0,2.2,0.4,2.8,1.2c1-0.8,2.2-1.2,3.5-1.2c2.6,0,4.1,1.7,4.1,4.1v7.6c0,0.5-0.3,0.9-1,0.9s-1-0.4-1-0.9L130.7,540.8
			L130.7,540.8z"/>
		<path class="st1" d="M138.3,548.9v4.6c0,0.5-0.3,0.9-1,0.9s-1-0.4-1-0.9v-13.3c0-0.8-0.1-1.3-0.4-1.7c-0.1-0.1-0.2-0.3-0.2-0.5
			c0-0.5,0.4-0.9,0.9-0.9c0.4,0,0.7,0.2,1,0.6c1.1-0.6,2.3-1.1,3.6-1.1c2.6,0,3.9,1.9,3.9,4.6v3.2c0,2.9-1,4.9-4.1,4.9
			C140.1,549.3,139.1,549.2,138.3,548.9z M138.3,547.2c0.8,0.4,1.9,0.5,2.5,0.5c1.8,0,2.4-1,2.4-3.3v-3.2c0-1.9-0.8-2.9-2.4-2.9
			c-0.8,0-1.8,0.3-2.6,0.8c0.1,0.4,0.1,0.7,0.1,1L138.3,547.2L138.3,547.2z"/>
		<path class="st1" d="M154,540.9c0-1.8-0.9-2.6-2.6-2.6c-0.9,0-1.3,0.2-1.9,0.5c-0.1,0-0.4,0.2-0.6,0.2c-0.5,0-0.7-0.4-0.7-0.8
			c-0.1-1.1,1.7-1.6,3.4-1.6c3,0,4.3,1.7,4.3,4.9v5.4c0,0.5,0.1,0.7,0.4,0.7c0.1,0,0.1,0,0.2,0c0.5,0,0.7,0.4,0.7,0.8
			c0,0.6-0.6,0.8-1.1,0.8c-0.8,0-1.5-0.5-1.8-1.2c-0.9,0.9-2,1.3-3.3,1.3c-2.5,0-3.7-1.5-3.7-3.7v-0.1c0-2.4,1.4-3.6,4.3-3.6
			c0.9,0,1.7,0.1,2.5,0.3L154,540.9L154,540.9z M149.1,545.6L149.1,545.6c0,1.2,0.5,2,2.1,2c1,0,1.9-0.3,2.7-1.1v-2.6
			c-0.8-0.2-1.8-0.4-2.5-0.4C149.5,543.6,149.1,544.5,149.1,545.6z"/>
		<path class="st1" d="M161.7,548.4c0,0.5-0.4,1-1,1c-0.5,0-1-0.4-1-1v-8.2c0-0.8-0.1-1.3-0.4-1.7c-0.1-0.1-0.2-0.3-0.2-0.5
			c0-0.5,0.4-0.9,0.9-0.9c0.4,0,0.7,0.3,1,0.7c1-0.7,2.4-1,3.3-1c1,0,1.3,0.4,1.3,0.9c0,0.6-0.4,1-1,1c-1,0-1.9,0-3.1,0.9
			c0,0.2,0,0.5,0,0.7L161.7,548.4L161.7,548.4z"/>
		<path class="st1" d="M167.9,534c0-0.5,0.3-0.9,1-0.9c0.6,0,1,0.4,1,0.9v3.4h2.5c0.5,0,0.9,0.4,0.9,0.9c0,0.5-0.4,0.9-0.9,0.9h-2.5
			v4.9c0,2.5,0.2,3.4,2,3.4c0.1,0,0.3,0,0.5,0c0.6,0,1.3,0.1,1.3,0.9c0,0.8-0.7,0.9-1.4,0.9c-3.4,0-4.2-1.7-4.2-5V534z"/>
		<path class="st1" d="M176.7,534c-0.7,0-1.2-0.5-1.2-1.2c0-0.7,0.5-1.2,1.2-1.2s1.2,0.5,1.2,1.2C177.9,533.5,177.4,534,176.7,534z
			 M176.7,549.3c-0.5,0-1-0.4-1-1v-10.8c0-0.5,0.4-1,1-1s1,0.4,1,1v10.8C177.7,548.9,177.3,549.3,176.7,549.3z"/>
		<path class="st1" d="M183.5,548.4c0,0.5-0.4,1-1,1c-0.5,0-1-0.4-1-1v-8.2c0-0.8-0.1-1.3-0.4-1.7c-0.1-0.1-0.2-0.3-0.2-0.5
			c0-0.5,0.4-0.9,0.9-0.9c0.4,0,0.7,0.3,1,0.7c1-0.7,2.4-1,3.3-1c1,0,1.3,0.4,1.3,0.9c0,0.6-0.4,1-1,1c-1,0-1.9,0-3.1,0.9
			c0,0.2,0,0.5,0,0.7L183.5,548.4L183.5,548.4z"/>
	</g>
</g>
<circle class="st5" cx="77.2" cy="618.1" r="36"/>
<circle class="st5" cx="211.3" cy="618.1" r="36"/>
<path class="st5" d="M89.1,618.1H82v25.8H71.4v-25.8H66v-8.9h5.3v-5.3c0-7.2,3-11.6,11.6-11.6H90v8.9h-4.4c-3.3,0-3.5,1.2-3.5,3.6
	l0,4.4h8.1L89.1,618.1z"/>
<circle class="st6" cx="136.5" cy="356.3" r="100.2"/>
<g>
	<path class="st7" d="M191.7,395.2c-14.5,7.9-30.1,13.3-45.7,18.4c-8,2.6-16.1,5.1-24.2,7.7c-1.6,0.5-3.2,1-4.9,1.4
		c-0.1,0-1,0.2-1.2,0.2c0,0,0,0-0.1,0c0,0,0-0.1,0-0.1c0.2,0.4-0.4-0.8-0.4-1c-0.2-0.6-0.4-1.2-0.6-1.9c-0.5-1.5-1-3-1.5-4.6
		c-1.4-4.4-3-8.6-4.6-12.9c-3.1-8.6-5.9-17.3-8-26.2c-4.2-17.8-6.6-36.1-12-53.6c-0.8-2.6-2.7-4-4.8-4.4c5.1,0.1,10.3-1.3,15-2.9
		c7.3-2.5,14.3-5.9,21.3-9c5.6-2.5,11.8-4.5,17.7-7.1c0.5-0.2,1-0.4,1.5-0.6c0.8-0.3,1.6-0.6,2.4-1c0.5,1.3,1.8,2.3,3.3,1.6
		c3-1.2,6.1-2.1,9.2-3.3c1.1-0.5,1.7-1.3,1.9-2.3c0.8-0.6,1.5-1.3,2.2-2c0.3,0.1,0.7,0.2,1,0.2c1.7,0,2.6-1.3,2.8-2.8
		c0.2-2.1-0.6-4.3-1.4-6.2c-0.8-1.9-1.6-4.1-3.6-4.8c-0.8-0.3-1.7-0.1-2.3,0.4c-0.1,0-0.2-0.1-0.3-0.1c0,0,0,0,0,0
		c-0.8-2.1-3-2.6-4.7-1.2c-1.4,1.2-2.9,2.3-4.5,3.3c-10.6,2.1-20.8,7.9-30.3,12.5c-12.7,6.1-26.5,10.5-37.2,20
		c-1.6,1.4-0.7,4.2,1.2,4.7c1,0.3,2,0.4,3,0.5c-3.8,0.2-7.5,3.3-6.1,8.1c5.6,18.3,8,37.3,12.5,55.8c2.3,9.3,5.4,18.3,8.7,27.3
		c2.4,6.7,4,14.3,7.5,20.7c3.2,5.9,9.3,6.8,15.3,5.7c7.9-1.5,15.9-4.7,23.5-7.2c17-5.4,33.9-11.2,49.9-19.1c1.7-0.9,3.4-1.8,5.1-2.7
		C205.8,402.5,199.2,391.1,191.7,395.2z M93.1,308.8c0.5,0.5,1.1,0.8,2,0.8c1.4-0.1,2.8-0.3,4.1-0.6c0,0,0,0,0,0.1
		c-3.7,1.4-7.9,2.9-12,3.3C89.2,311.1,91.1,309.9,93.1,308.8z"/>
	<path class="st8" d="M143.9,363.9c-0.4-0.8-1-1.2-1.6-1.3c0,0,0,0,0,0c-0.3-0.9-1-1.8-1.8-2.4c-0.2-1.6-0.8-3.3-1.4-4.6
		c0.8-1.1,1.3-2.3,1.4-3.8c0.1-1.7-1.3-3.3-2.9-3.8c-1-0.3-2.1-0.1-3.1,0c-0.7,0.1-1.8-0.7-2.6-1.3c0.5-1.3,0.8-2.6,1-3.8
		c0.1-0.5,0.1-0.9-0.1-1.3c0.4-0.1,0.8-0.4,1.2-0.7c1.2-1,1.9-2.4,2.4-3.8c0.1-0.4,0.2-0.8,0.1-1.1c0.4-0.3,0.7-0.5,1-0.9
		c1.7-1.6,0.4-4.8-2-4.7c0,0,0,0-0.1,0c-0.4-0.4-1-0.6-1.8-0.6c-1.8,0.1-3.7,0.7-5.1,2c-2.3,0.4-3.4,3.5-1.8,4.8
		c0.1,0.3,0.2,0.6,0.4,0.9c-0.6,1.1-1,2.2-0.9,3.6c0,0.4,0.1,0.7,0.3,1c-0.1,0.3-0.2,0.6-0.3,0.8c-0.3,0.7-0.1,1.4,0.2,2
		c-1.6-0.4-3,0.6-4.3,1.7c-0.1,0-0.1,0-0.2,0.1c-2.1,1-4,2.2-5.8,3.5c-2.9,2.1-0.5,6.3,2.8,4.8c0.8-0.4,1.6-0.8,2.3-1.2
		c0.2,0,0.4,0,0.5,0c1.4-0.2,2.5-0.8,3.8-1.4c1.1-0.5,1.9,0,3.1,0.1c0.6,0,1.1,0,1.6-0.2c0.9,0.5,1.7,1,2.7,1.3
		c0.2,0.1,0.5,0.1,0.7,0.1c-0.9,1.2-1.9,2.3-2.3,3.7c-2.2,0.6-4.2,3.1-3.4,5.3c0.3,0.8,0.8,1.5,1.6,2c0.2,0.2,0.4,0.4,0.7,0.5
		c0,0,0,0,0,0c1,1,2.7,1.4,4.3,1.3c0.3,0.4,0.8,0.6,1.3,0.8c1.1,1.3,2.5,1.7,3.8,1.4c0.2,0,0.4,0.1,0.6,0.1
		C143.1,368.9,145.2,366.5,143.9,363.9z"/>
	<g>
		<path class="st9" d="M125.3,396.9c-0.1,0-0.2-0.1-0.2-0.3c0-0.2,0-0.3,0.2-0.3c0.3-0.2,0.7-0.4,1-0.4c0.4-0.1,0.7-0.1,1.1,0
			c0.4,0,0.7,0.2,1,0.3c0.8,0.4,1.3,1,1.7,1.7c0.4,0.7,0.5,1.5,0.3,2.4c-0.1,0.5-0.4,1-0.9,1.6l-0.4,0.5c-0.2,0.2-0.3,0.3-0.4,0.4
			c0,0-0.1,0.1-0.1,0.1c0,0-0.1,0.1-0.1,0.1c0,0,0,0-0.1,0.1c0,0,0,0.1,0,0.1c0,0,0,0.1,0,0.1l1,2.3c0.6,1.5,1.1,2.7,1.4,3.7
			c0.1,0.2,0,0.4-0.2,0.4c-0.2,0.1-0.4,0-0.4-0.2c-0.3-1-0.8-2.3-1.4-3.7c-0.7-1.6-1.1-2.6-1.3-3.1c-0.1-0.3-0.3-0.8-0.5-1.6
			c-0.2-0.8-0.4-1.3-0.4-1.4C126.1,398.3,125.7,397.4,125.3,396.9C125.3,396.9,125.3,396.9,125.3,396.9z M126.3,397.1
			c0.3,0.6,0.6,1.3,0.9,2.2c0,0.1,0.2,0.7,0.5,1.6c0,0.1,0.1,0.2,0.1,0.3c0,0.1,0.1,0.2,0.1,0.3c0,0.1,0,0.2,0.1,0.2
			c0.1,0.4,0.2,0.5,0.2,0.5c0,0,0.1-0.1,0.3-0.2c0,0,0.1-0.1,0.2-0.2c0.6-0.7,1-1.3,1.2-1.8c0.1-0.6,0.1-1.1,0-1.6
			c-0.2-0.5-0.5-0.9-0.8-1.2c-0.3-0.3-0.6-0.5-1.1-0.6c-0.4-0.1-0.8-0.2-1.2-0.1c-0.2,0-0.3,0.1-0.3,0.2
			C126.2,396.8,126.2,397,126.3,397.1z"/>
		<path class="st9" d="M134.7,408.4c-0.1-0.5-0.3-1.5-0.7-3c-0.1-0.3-0.2-0.8-0.3-1.4c-0.6-2.4-1-4-1.1-4.8
			c-0.2-0.8-0.3-1.7-0.4-2.6c-0.2-1.4-0.1-2.3,0.2-2.7c0.7-0.7,1.4-0.6,2.1,0.5c0.4,0.6,0.8,1.2,1,2c1.7,3.4,3.1,6.9,4.3,10.4
			c0.1,0.2,0,0.4-0.2,0.4c-0.2,0.1-0.4,0-0.4-0.2c-0.8-2.3-1.6-4.4-2.5-6.5c-0.1-0.3-0.3-0.4-0.6-0.3c-0.4,0.1-1.1,0.3-2,0.5
			c-0.3,0.1-0.4,0.3-0.3,0.6c1,3.9,1.6,6.2,1.7,7c0,0.1,0,0.3-0.1,0.3c-0.1,0.1-0.2,0.1-0.3,0.1
			C134.8,408.6,134.7,408.5,134.7,408.4z M133.3,399.7c0,0.1,0.1,0.2,0.2,0.3c0.1,0.1,0.1,0.1,0.2,0.1c0.1,0,0.2,0,0.3-0.1
			c0.7-0.2,1.3-0.4,1.7-0.5c0.1,0,0.2,0,0.3-0.1c0.1,0,0.1-0.1,0.1-0.2c0-0.1,0-0.2-0.1-0.4c-0.1-0.3-0.6-1.2-1.3-2.8
			c0,0,0,0-0.1-0.1c-0.1-0.3-0.2-0.5-0.3-0.6c-0.1-0.2-0.2-0.4-0.4-0.6c-0.1-0.2-0.3-0.4-0.4-0.5c-0.1-0.1-0.3-0.1-0.4-0.1
			c-0.2,0.1-0.3,0.2-0.3,0.4c0,0.1,0,0.2-0.1,0.4c0,0.3,0,0.8,0.1,1.5C132.9,397.9,133.1,398.9,133.3,399.7z"/>
		<path class="st9" d="M137.1,395.4c-0.2-0.9,0-1.7,0.4-2.4c0.4-0.7,1-1.2,1.8-1.5c0.8-0.3,1.5-0.1,2.1,0.4c0.6,0.5,1,1.3,1.1,2.4
			c0,0.2-0.1,0.3-0.3,0.4c-0.2,0-0.3-0.1-0.4-0.3c-0.1-0.9-0.4-1.6-0.8-1.9c-0.4-0.4-0.9-0.5-1.5-0.3c-0.6,0.2-1.1,0.6-1.4,1.2
			c-0.3,0.6-0.4,1.2-0.3,1.9c0.2,0.8,0.5,1.4,1.1,1.8c0.4,0.3,0.9,0.6,1.6,0.9c0.7,0.3,1.3,0.6,1.8,0.9s1.1,0.6,1.6,1.1
			c0.6,0.5,1,1.1,1.3,1.7c0.5,1,0.6,1.9,0.3,2.7c-0.3,0.8-0.8,1.3-1.7,1.5c-0.8,0.2-1.6,0-2.4-0.6c-0.8-0.6-1.3-1.4-1.7-2.6
			c0-0.1,0-0.2,0-0.3s0.1-0.1,0.2-0.2c0.1,0,0.2,0,0.3,0c0.1,0,0.1,0.1,0.2,0.2c0.3,1,0.8,1.7,1.5,2.2c0.6,0.5,1.3,0.6,1.9,0.5
			c0.6-0.1,1-0.5,1.2-1.1c0.2-0.6,0.1-1.3-0.3-2.1c-0.2-0.4-0.4-0.7-0.6-1c-0.2-0.3-0.5-0.5-0.7-0.7c-0.2-0.2-0.5-0.4-0.9-0.6
			c-0.4-0.2-0.7-0.4-0.9-0.5c-0.2-0.1-0.5-0.2-1-0.4c-0.9-0.4-1.6-0.8-2.2-1.2C137.7,397.1,137.3,396.3,137.1,395.4z"/>
		<path class="st9" d="M147.1,404.2c-0.1-0.5-0.3-1.5-0.7-3c-0.1-0.3-0.2-0.8-0.3-1.4c-0.6-2.4-1-4-1.1-4.8
			c-0.2-0.8-0.3-1.7-0.4-2.6c-0.2-1.4-0.1-2.3,0.2-2.7c0.7-0.7,1.4-0.6,2.1,0.5c0.4,0.6,0.8,1.2,1,2c1.7,3.4,3.1,6.9,4.3,10.4
			c0.1,0.2,0,0.4-0.2,0.4c-0.2,0.1-0.4,0-0.4-0.2c-0.8-2.3-1.6-4.4-2.5-6.5c-0.1-0.3-0.3-0.4-0.6-0.3c-0.4,0.1-1.1,0.3-2,0.5
			c-0.3,0.1-0.4,0.3-0.3,0.6c1,3.9,1.6,6.2,1.7,7c0,0.1,0,0.3-0.1,0.3c-0.1,0.1-0.2,0.1-0.3,0.1S147.1,404.4,147.1,404.2z
			 M145.7,395.5c0,0.1,0.1,0.2,0.2,0.3c0.1,0.1,0.1,0.1,0.2,0.1s0.2,0,0.3-0.1c0.7-0.2,1.3-0.4,1.7-0.5c0.1,0,0.2,0,0.3-0.1
			c0.1,0,0.1-0.1,0.1-0.2c0-0.1,0-0.2-0.1-0.4c-0.1-0.3-0.6-1.2-1.3-2.8c0,0,0,0-0.1-0.1c-0.1-0.3-0.2-0.5-0.3-0.6
			c-0.1-0.2-0.2-0.4-0.4-0.6c-0.1-0.2-0.3-0.4-0.4-0.5c-0.1-0.1-0.3-0.1-0.4-0.1c-0.2,0.1-0.3,0.2-0.3,0.4c0,0.1,0,0.2-0.1,0.4
			c0,0.3,0,0.8,0.1,1.5C145.3,393.7,145.5,394.8,145.7,395.5z"/>
		<path class="st9" d="M148.8,389.1c-0.1,0-0.2-0.1-0.2-0.3c0-0.2,0-0.3,0.2-0.3c0.3-0.2,0.7-0.4,1-0.4c0.4-0.1,0.7-0.1,1.1,0
			c0.4,0,0.7,0.2,1,0.3c0.8,0.4,1.3,1,1.7,1.7c0.4,0.7,0.5,1.5,0.3,2.4c-0.1,0.5-0.4,1-0.9,1.6l-0.4,0.5c-0.2,0.2-0.3,0.3-0.4,0.4
			c0,0-0.1,0.1-0.1,0.1c0,0-0.1,0.1-0.1,0.1c0,0,0,0-0.1,0.1s0,0.1,0,0.1c0,0,0,0.1,0,0.1l1,2.3c0.6,1.5,1.1,2.7,1.4,3.7
			c0.1,0.2,0,0.4-0.2,0.4c-0.2,0.1-0.4,0-0.4-0.2c-0.3-1-0.8-2.3-1.4-3.7c-0.7-1.6-1.1-2.6-1.3-3.1c-0.1-0.3-0.3-0.8-0.5-1.6
			c-0.2-0.8-0.4-1.3-0.4-1.4C149.6,390.5,149.2,389.6,148.8,389.1C148.8,389.1,148.8,389.1,148.8,389.1z M149.8,389.3
			c0.3,0.6,0.6,1.3,0.9,2.2c0,0.1,0.2,0.7,0.5,1.6c0,0.1,0.1,0.2,0.1,0.3c0,0.1,0.1,0.2,0.1,0.3c0,0.1,0,0.2,0.1,0.2
			c0.1,0.4,0.2,0.5,0.2,0.5c0,0,0.1-0.1,0.3-0.2c0,0,0.1-0.1,0.2-0.2c0.6-0.7,1-1.3,1.2-1.8c0.1-0.6,0.1-1.1,0-1.6
			c-0.2-0.5-0.4-0.9-0.8-1.2c-0.3-0.3-0.6-0.5-1.1-0.6c-0.4-0.1-0.8-0.2-1.2-0.1c-0.2,0-0.3,0.1-0.3,0.2
			C149.7,389,149.7,389.1,149.8,389.3z"/>
		<path class="st9" d="M154.6,387.6c0.1-0.4,0.2-0.7,0.5-1.1s0.5-0.6,0.8-0.8c1-0.6,1.9-0.3,2.7,0.8c0.4,0.5,0.8,1.5,1.4,3
			c1.3,3.5,2,6.1,2.2,7.7c0.1,1.1-0.1,1.8-0.5,2.3c-0.5,0.6-1.1,0.7-1.9,0.3c-0.5-0.3-1-0.9-1.6-1.7c-0.5-0.8-1.1-1.7-1.6-2.8
			c-0.5-1.1-1-2.4-1.5-3.9C154.6,389.9,154.5,388.6,154.6,387.6z M155.3,387.7c-0.2,1,0,2.2,0.4,3.6c0.4,1.4,0.9,2.6,1.4,3.7
			c0.5,1,1,1.9,1.5,2.7c0.6,0.8,1,1.3,1.4,1.5c0.4,0.2,0.7,0.2,1-0.1c0.6-0.7,0.5-2.3-0.2-4.8c-0.2-0.9-0.9-2.8-1.9-5.7
			c-0.2-0.4-0.3-0.7-0.5-1s-0.4-0.6-0.6-0.9c-0.2-0.3-0.5-0.5-0.8-0.5c-0.3-0.1-0.6,0-0.8,0.2c-0.2,0.1-0.4,0.3-0.6,0.6
			C155.5,387.1,155.4,387.4,155.3,387.7z"/>
		<path class="st9" d="M164.2,396.9c-0.5-1.6-0.9-2.8-1-3.5c-0.9-3.1-1.8-5.8-2.8-8.1c0,0-0.1-0.1-0.1-0.2c-0.1-0.1-0.1-0.2-0.1-0.2
			c0-0.1,0-0.1,0-0.2c0-0.1,0.1-0.2,0.1-0.2c1.7-1,3.1-1.1,4.4-0.2c0.6,0.4,1,0.9,1.2,1.7c0.2,0.8,0.1,1.5-0.2,2.3
			c-0.3,1-0.9,1.8-1.6,2.5c0,0-0.1,0,0,0.1c0,0.1,0,0.1,0.1,0.1c0.7,0.6,1.9,1.9,3.5,3.8c0.5,0.6,1,1.2,1.5,1.6
			c0.1,0.1,0.1,0.2,0.1,0.4c0,0.1-0.1,0.2-0.2,0.3c-0.1,0-0.2,0-0.3-0.1c-0.4-0.4-1-1-1.5-1.7c-1.9-2.3-3.1-3.6-3.5-3.8l0,0
			c0,0,0,0-0.1,0c0.1,0.4,0.1,0.7,0.1,0.7c0,0.1,0.1,0.3,0.2,0.6s0.1,0.5,0.2,0.6c0,0.1,0,0.1,0.1,0.2c0,0.1,0.1,0.2,0.1,0.4
			c0.1,0.2,0.1,0.3,0.1,0.5c0.2,0.8,0.4,1.5,0.7,2.3c0.1,0.3,0.3,0.7,0.4,1.2c0,0.1,0,0.2,0,0.3c0,0.1-0.1,0.1-0.2,0.2
			c-0.1,0-0.2,0-0.3,0c-0.1,0-0.1-0.1-0.2-0.2C164.5,397.8,164.4,397.4,164.2,396.9z M161.1,385.2c0.6,1.3,1.1,2.9,1.7,4.7
			c0.1,0.3,0.2,0.5,0.3,0.4l0.3-0.2c0.6-0.6,1.1-1.2,1.4-2c0.3-0.8,0.4-1.5,0.2-2.1c-0.2-0.6-0.5-1-0.9-1.3
			c-0.8-0.6-1.7-0.7-2.9-0.2C161.1,384.7,161,384.9,161.1,385.2z"/>
		<path class="st9" d="M165.8,383.2c0-0.1,0-0.2,0-0.3c0-0.1,0.1-0.1,0.2-0.2c0.5-0.2,1.4-0.5,2.5-0.9c1.4-0.4,2.2-0.7,2.5-0.8
			c0.1,0,0.2,0,0.3,0c0.1,0,0.2,0.1,0.2,0.2c0,0.1,0,0.2,0,0.3c0,0.1-0.1,0.1-0.2,0.2c-0.6,0.2-1.5,0.5-2.5,0.8
			c0.4,0.6,0.7,1.4,0.9,2.3c0,0.1,0.1,0.3,0.1,0.4c0,0.2,0.1,0.3,0.1,0.4s0,0.1,0,0.2c0.2,0.6,0.5,1.6,0.9,2.9
			c0.9,3,1.6,5.1,2.3,6.3c0.1,0.1,0.1,0.2,0,0.3s-0.2,0.2-0.3,0.2c-0.1,0-0.2-0.1-0.3-0.2c-0.7-1.3-1.4-3.4-2.3-6.5
			c-0.4-1.4-0.7-2.3-0.9-2.9c-0.1-0.3-0.2-0.7-0.3-1c-0.3-1-0.6-1.7-0.8-2.1c0-0.1-0.2,0-0.5,0.1c-0.4,0.1-0.8,0.3-1.4,0.5
			c-0.1,0-0.2,0-0.3,0C165.9,383.4,165.8,383.3,165.8,383.2z"/>
		<path class="st9" d="M173,381.1c-0.1-0.6-0.1-1,0.1-1.2c0.1-0.1,0.3-0.2,0.7-0.4l2.9-0.9c0.2-0.1,0.4,0,0.5,0.2
			c0.1,0.2-0.1,0.4-0.5,0.5c-0.1,0-0.5,0.2-1.3,0.4c-0.8,0.2-1.2,0.4-1.4,0.4c-0.2,0.1-0.3,0.1-0.3,0.1l-0.1,0c0,0,0,0,0,0.1l0,0
			c0,0,0,0,0,0.1c0,0,0,0.1,0,0.1c0,0,0,0.1,0,0.1c0,0,0,0,0,0.1c0,0,0,0.1,0,0.1c0.1,0.4,0.4,1.2,0.8,2.4c0.5,1.2,0.8,2,0.9,2.3
			c0.1,0.2,0.1,0.3,0.2,0.4c0.1,0,0.2,0,0.4,0c0.1,0,0.2-0.1,0.3-0.1s0.2-0.1,0.3-0.1c0.1,0,0.1,0,0.2-0.1c0.1,0,0.2,0,0.2,0
			c0.1,0,0.1,0.1,0.1,0.2c0.1,0.2,0,0.4-0.2,0.4c-0.1,0.1-0.4,0.2-0.8,0.3c-0.1,0-0.2,0.1-0.3,0.1c-0.1,0-0.1,0.1-0.1,0.2
			c0,0.1,0,0.2,0,0.4c0.6,2.4,1.2,4.1,1.7,5.3c0.1,0.3,0.3,0.6,0.4,0.9c0,0,0,0,0,0.1l0,0l0-0.2c0.1,0.2,0.2,0.4,0.5,0.3
			c0.1,0,0.5-0.1,1.2-0.4c0.7-0.3,1.2-0.5,1.3-0.5c0.2-0.1,0.4,0,0.4,0.2c0.1,0.2,0,0.4-0.2,0.4c0,0-0.6,0.2-1.5,0.6
			c-0.7,0.3-1.3,0.4-1.7,0.3c-0.2,0-0.4-0.2-0.6-0.5c-0.2-0.2-0.3-0.6-0.5-1c-0.4-1.1-1.2-3.4-2.1-6.8c-0.2-0.5-0.4-1.2-0.7-2
			C173.5,382.6,173.1,381.6,173,381.1z"/>
	</g>
	<path class="st10" d="M159.7,286.4c0,0,0.8-12.1-6.7-10c-7.5,2.1-75.3,35-75.3,35s-8.3,10.8,12.5,5c20.8-5.8,76.2-27.9,79.1-26.6
		c2.9,1.2,32,112.8,32,112.8s-1.7,3.7-8.7,7.1c-7.1,3.3-77.8,27.5-77.8,27.5s-6.7,3.3-9.6-5.4c-2.9-8.7-27.1-109.5-27.1-109.5"/>
	<path class="st1" d="M80.9,315.5c1.4-1.1,2.7-2.5,4.3-3.2c3.1-1.5,6.4-2.6,9.6-4c6.6-2.7,13.1-5.5,19.7-8.2
		c11.3-4.6,22.5-9.2,33.9-13.7c1.2-0.5,3-0.4,4,0.2c2.1,1.2,4,3,6.3,4.9c-3.3,1.1-6.1,2.1-8.9,3.1c-18.8,6.8-37.1,14.7-56.3,20.1
		c-2.6,0.7-5.1,1.7-7.6,2.6C84,317.9,82.5,317.5,80.9,315.5"/>
	<path class="st11" d="M139.1,328.8c6,0,10.8,3.9,15.4,8c0.6,0.5,1.2,1.1,1.4,1.8c0.9,3.7,2,7.3,2.6,11.1c1.1,6.8-1.7,12.2-7.2,15.9
		c-7.2,4.7-14.9,7.9-24.1,6.3c-4.3-0.7-7-3.1-9-6.2c-6.1-9.6-6-19.8,0.2-29.4c4-6.2,10-8.4,17.1-7.9
		C136.5,328.3,137.4,328.5,139.1,328.8 M136.4,331.3c-1.6,0-3-0.1-4.4,0c-4.5,0-5.7,1.6-4.8,5.9c1.9,8.8,1.3,9.6-7.8,11.8
		c-1.4,0.3-2.6,1-2.1,2.5c0.3,1,1.5,2.3,2.4,2.4c1.6,0,3.3-0.8,4.9-1.2c1.8-0.5,3.6-1.2,5.4-1.2c2.3,0,4.1,2.2,4.4,4.3
		c0.3,2.3-1.2,3-2.9,3.7c-0.8,0.3-1.6,0.9-2.5,1.5c0.3,1.1,0.3,2.3,0.9,2.8c2.3,1.8,4.9,3.3,7.7,5.2c2-0.8,4.2-1.8,7-2.9
		c-1.1-0.7-1.5-1-1.9-1.2c-5-2.5-5.3-3.5-3.5-8.9c0.6-1.7,0.6-3.7,0.8-5.6c-0.8,0-1.3-0.1-1.8-0.1c-3.1,0.3-5.4-1-6.5-3.7
		c-1-2.3-0.3-4.6,1.5-6.5c0.8-0.8,1.5-1.6,2.1-2.6C136.4,335.7,137.7,334,136.4,331.3 M139.9,332.1c-0.2,3.9-2,6.5-4.3,9.1
		c-0.9,1-1.2,2.9-1,4.3c0.3,1.9,2.1,1.8,3.8,1.8c3.4-0.1,4.3,0.7,4.2,4c0,1.3-0.2,2.5-0.5,3.8c-1.5,5.8-1.5,5.8,4.1,8
		c0.4,0.2,0.8,0.5,1.3,0.6c0.7,0.1,1.6,0.2,2.2-0.1c3.4-1.5,6-6.3,5.7-11.1c-1.6,0.6-2.9,1.1-4.3,1.6c-2.8,1-4.1,0.5-5.3-2.1
		c-0.5-1.1-1.1-2.1-1.8-3.1c-2-2.8-1.8-5.4,1.2-6.6c3-1.2,3.7-3.4,4.2-6C146.7,333.8,144,332,139.9,332.1 M131.8,356
		c-1.5-2.4-3.1-2.3-5.1-1.5c-2.8,1.1-5.7,2.1-8.6,3.1c1.5,7.9,5.6,11.3,13.5,10.9C125.2,364.9,124.7,358.8,131.8,356 M149.7,351.3
		c1.9-0.8,3.9-1.5,6.1-2.4c-1.2-3.2-0.6-7-3.5-9c-2.4,2-4.5,3.8-6.4,5.4C147.1,347.2,148.3,349.1,149.7,351.3 M123.4,334.4
		c-3.2,4-6.3,6.9-6.4,11.8c1.2,0,2.1,0,3-0.1c0.6,0,1.3-0.1,1.9-0.2c3.2-0.8,3.9-1.9,3.3-5.1C124.8,339,124.2,337.2,123.4,334.4"/>
</g>
<path class="st12" d="M233,610.4c0,0.4,0,0.9,0,1.3c0,13.5-10.3,29.2-29.2,29.2c-5.8,0-11.2-1.7-15.7-4.6c0.8,0.1,1.6,0.1,2.4,0.1
	c4.8,0,9.2-1.6,12.7-4.4c-4.5-0.1-8.3-3-9.6-7.1c0.6,0.1,1.3,0.2,1.9,0.2c0.9,0,1.8-0.1,2.7-0.4c-4.7-0.9-8.2-5.1-8.2-10
	c0,0,0-0.1,0-0.1c1.4,0.8,3,1.2,4.6,1.3c-2.8-1.8-4.6-5-4.6-8.5c0-1.9,0.5-3.6,1.4-5.2c5.1,6.2,12.6,10.3,21.1,10.7
	c-0.2-0.8-0.3-1.5-0.3-2.3c0-5.7,4.6-10.2,10.3-10.2c3,0,5.6,1.2,7.5,3.2c2.3-0.5,4.5-1.3,6.5-2.5c-0.8,2.4-2.4,4.4-4.5,5.7
	c2.1-0.2,4.1-0.8,5.9-1.6C236.8,607.1,235,608.9,233,610.4L233,610.4z"/>
</svg>
