<?xml version="1.0" encoding="utf-8"?>
<!-- Generator: Adobe Illustrator 15.1.0, SVG Export Plug-In . SVG Version: 6.00 Build 0)  -->
<!DOCTYPE svg PUBLIC "-//W3C//DTD SVG 1.1//EN" "http://www.w3.org/Graphics/SVG/1.1/DTD/svg11.dtd">
<svg version="1.1" id="Capa_1" xmlns="http://www.w3.org/2000/svg" xmlns:xlink="http://www.w3.org/1999/xlink" x="0px" y="0px"
	 width="241px" height="612px" viewBox="0 0 241 612" enable-background="new 0 0 241 612" xml:space="preserve">
<path id="XMLID_33_" fill="none" stroke="#1F4D69" stroke-width="6" stroke-linecap="round" stroke-miterlimit="10" d="
	M182.239,573.748c0,0-18.339-84.159-14.771-186.322"/>
<path id="XMLID_32_" fill="none" stroke="#1F4D69" stroke-width="6" stroke-linecap="round" stroke-miterlimit="10" d="
	M122.578,578.758c0,0-12.945-92.82-14.77-186.322"/>
<path id="XMLID_31_" fill="none" stroke="#1F4D69" stroke-width="6" stroke-linecap="round" stroke-miterlimit="10" d="
	M90.549,234.563C101.917,230.826,57.321,245.5,27,382.646"/>
<path id="XMLID_30_" fill="none" stroke="#1F4D69" stroke-width="6" stroke-linecap="round" stroke-miterlimit="10" d="
	M159.503,231.251C192.646,253.135,218,286.432,225.79,374.5"/>
<g id="XMLID_26_">
	<path id="XMLID_29_" fill="#FFFFFF" d="M158.756,222.928c10.538,17.24,25.889,23.779,39.415,70.826
		c5.312,18.598,7.054,35.583,2.904,63.778c-1.494,10.105-23.151,28.534-47.214,33.885c-12.696,2.718-27.881,2.123-49.124,0.085
		c-7.717-0.679-38.668-5.775-41.904-28.959c-2.406-17.664-9.211-36.008-2.904-63.778c5.393-23.439,11.866-34.649,38.253-77.45
		c26.221-42.547,24.063-41.698,24.063-41.698S147.887,205.264,158.756,222.928z"/>
	<path id="XMLID_28_" fill="#E0DFE6" d="M77.023,262.503c3.983-9.596,9.708-18.343,13.442-27.94
		c1.991-5.011,4.813-12.484,10.455-14.522c0.996-0.934,2.157-1.614,3.402-2.038c-1.411-0.595-2.904-1.189-4.315-1.953
		c-1.577-0.849-3.153-1.698-4.813-2.718c9.294,2.038,18.504,3.737,26.636,9.087c-1.079-0.085-2.074-0.17-3.153-0.424
		c2.157,2.378,3.651,5.435,3.817,9.087c0.415,10.021-4.481,19.108-9.376,27.685c-8.215,14.182-13.94,26.156-15.185,42.717
		c-1.079,14.182,1.079,29.298,4.979,42.971c3.07,10.615,13.526,16.729,16.015,27.43c2.572,11.04-6.804,11.721-15.683,10.106
		c-2.074,0.679-4.564,0.34-5.809-1.444c-2.572-0.849-4.896-1.614-6.389-2.208c-18.006-7.643-24.728-22.675-26.719-41.018
		C61.589,311.589,67.066,286.196,77.023,262.503z"/>
	<path id="XMLID_27_" fill="none" stroke="#1F4D69" stroke-width="6" stroke-miterlimit="10" d="M160.831,222.758
		c10.538,17.24,25.89,23.779,39.415,70.826c5.311,18.598,7.053,35.583,2.904,63.778c-1.494,10.105-23.151,28.534-47.215,33.885
		c-12.695,2.718-27.881,2.123-49.123,0.085c-7.717-0.679-38.668-5.775-41.904-28.959c-2.406-17.664-9.211-36.008-2.904-63.778
		c5.393-23.439,11.866-34.649,38.253-77.45c26.221-42.547,24.063-41.698,24.063-41.698S150.127,205.18,160.831,222.758z"/>
</g>
<ellipse id="XMLID_25_" fill="#FFFFFF" cx="126.313" cy="158.642" rx="57.586" ry="58.937"/>
<path id="XMLID_24_" fill="#E0DFE6" d="M121.914,216.899c-5.476-1.614-11.036-3.142-16.43-5.18c0.332-0.085,0.581-0.34,0.913-0.424
	c-1.411-0.595-2.904-1.189-4.315-1.953c-16.761-8.408-36.427-28.959-28.13-48.576c8.962-21.401,29.706,6.709,36.427,14.097
	c7.302,8.068,17.84,12.229,28.295,12.569c2.323-1.359,4.48-1.189,6.307-0.34c11.865-1.444,22.735-8.068,27.549-19.957
	c2.074-5.18,8.795-2.718,9.791,1.698c4.149-2.378,10.207,2.208,7.386,6.964c-1.079,1.868-2.323,3.737-3.567,5.605
	c-0.664,5.011-3.984,9.257-7.718,12.738c-1.079,1.104-2.489,1.529-3.651,1.529c-0.082,1.104-0.498,2.123-1.41,2.972
	c-15.186,13.078-33.772,19.447-52.359,16.645C121.085,215.88,121.499,216.39,121.914,216.899z"/>
<ellipse id="XMLID_23_" fill="none" stroke="#1F4D69" stroke-width="6" stroke-miterlimit="10" cx="128.469" cy="158.471" rx="57.588" ry="58.937"/>
<polyline fill="none" stroke="#1F4D69" stroke-width="6" stroke-miterlimit="10" points="113.314,215.346 131.377,253.135 
	146.833,215.346 "/>
<polyline fill="none" stroke="#1F4D69" stroke-width="6" stroke-miterlimit="10" points="113.75,220.031 107.675,240.457 
	131.377,253.135 "/>
<polyline fill="none" stroke="#1F4D69" stroke-width="6" stroke-miterlimit="10" points="147.617,220.031 153.213,240.457 
	131.377,253.135 "/>
<path fill="none" stroke="#1F4D69" stroke-width="6" stroke-miterlimit="10" d="M64.946,160.725
	c9.541-17.181,24.612,11.763,3.963,12.671c-4.1-7.428-10.242-18.548-7.3-27.38c4.544-13.639,19.131-14.091,19.322,1.427
	c-16.452,9.144-15.971-25.572-9.214-32.99c13.155-14.442,29.311,5.484,11.118,14.857c-4.364-9.051,0.313-28.494,12.74-29.516
	c7.688-0.633,17.283,10.327,7.293,14.506c-21.222,8.878,14.973-51.339,15.856-10.978c-10.334-4.388-0.79-19.961,9.281-18.226
	c10.899,1.877,10.062,18.483-1.528,18.184c-3.149-26.46,35.586-15.846,21.398-1.338c-15.186-15.359,33.139-8.04,11.118,16.185
	c-8.198-27.805,34.503-11.362,12.89,0.368c14.35-11.827,19.758,13.852,6.713,16.27c1.725-6.957,5.484-9.99,12.103-10.674
	c3.538,8.548,5.554,23.809-6.617,23.443c1.167-6.99,2.468-6.696,8.425-8.698c6.939,9.321,4.637,20.379-6.517,23.502
	c2.452-3.953,1.866-2.754,6.604-5.063c2.892,11.467,2.869,19.525-7.437,17.942"/>
<path fill="none" stroke="#1F4D69" stroke-width="6.0801" stroke-linecap="round" stroke-miterlimit="10" d="M119,150.5
	c0,0-3,16-19,10"/>
<path fill="none" stroke="#1F4D69" stroke-width="6.0801" stroke-linecap="round" stroke-miterlimit="10" d="M118.754,193.811
	c0,0,7.561-14.417,21.098-3.989"/>
<path fill="none" stroke="#1F4D69" stroke-width="6.0801" stroke-linecap="round" stroke-miterlimit="10" d="M162.172,165.045
	c0,0-16.024,2.866-16.085-14.222"/>
</svg>
