<?xml version="1.0" encoding="utf-8"?>
<!-- Generator: Adobe Illustrator 15.1.0, SVG Export Plug-In . SVG Version: 6.00 Build 0)  -->
<!DOCTYPE svg PUBLIC "-//W3C//DTD SVG 1.1//EN" "http://www.w3.org/Graphics/SVG/1.1/DTD/svg11.dtd">
<svg version="1.1" id="Capa_1" xmlns="http://www.w3.org/2000/svg" xmlns:xlink="http://www.w3.org/1999/xlink" x="0px" y="0px"
	 width="241px" height="612px" viewBox="0 0 241 612" enable-background="new 0 0 241 612" xml:space="preserve">
<path id="XMLID_2_" fill="none" stroke="#1F4D69" stroke-width="6" stroke-linecap="round" stroke-miterlimit="10" d="
	M182.239,573.748"/>
<path id="XMLID_1_" fill="none" stroke="#1F4D69" stroke-width="6" stroke-linecap="round" stroke-miterlimit="10" d="
	M122.578,578.758"/>
<g id="XMLID_21_">
	<path id="XMLID_33_" fill="none" stroke="#1F4D69" stroke-width="5.7641" stroke-linecap="round" stroke-miterlimit="10" d="
		M170.686,598.933c0,0-18.961-85.026-15.271-188.242"/>
	<path id="XMLID_32_" fill="none" stroke="#1F4D69" stroke-width="5.7641" stroke-linecap="round" stroke-miterlimit="10" d="
		M108.996,603.995c0,0-13.385-93.778-15.272-188.243"/>
	<path id="XMLID_31_" fill="none" stroke="#1F4D69" stroke-width="5.7641" stroke-linecap="round" stroke-miterlimit="10" d="
		M76.776,256.251C88.53,252.476-18.877,158.5,43.666,34.5"/>
	<path id="XMLID_30_" fill="none" stroke="#1F4D69" stroke-width="5.7641" stroke-linecap="round" stroke-miterlimit="10" d="
		M147.177,252.905C135.08,250.245,273,161.167,174.633,34.5"/>
	<g id="XMLID_26_">
		<path id="XMLID_29_" fill="#FFFFFF" d="M146.404,244.497c10.897,17.417,26.77,24.024,40.756,71.557
			c5.49,18.79,7.293,35.95,3.003,64.436c-1.545,10.21-23.938,28.829-48.82,34.233c-13.127,2.746-28.829,2.146-50.793,0.086
			c-7.979-0.686-39.982-5.834-43.328-29.257c-2.488-17.846-9.524-36.379-3.003-64.435c5.577-23.681,13.616-35.006,40.9-78.249
			c27.113-42.985,23.878-26.367,23.878-26.367S135.166,226.65,146.404,244.497z"/>
		<path id="XMLID_28_" fill="#E0DFE6" d="M64.137,279.503c4.118-9.695,10.038-18.533,13.899-28.228
			c2.059-5.062,4.977-12.613,10.81-14.672c1.03-0.944,2.231-1.63,3.518-2.059c-1.458-0.601-3.003-1.201-4.462-1.973
			c-1.63-0.858-3.261-1.716-4.977-2.746c9.61,2.059,19.133,3.775,27.541,9.181c-1.115-0.086-2.145-0.171-3.261-0.429
			c2.231,2.402,3.775,5.491,3.947,9.181c0.429,10.125-4.633,19.305-9.695,27.97c-8.494,14.329-14.414,26.426-15.701,43.157
			c-1.115,14.329,1.115,29.602,5.148,43.414c3.174,10.726,13.985,16.902,16.559,27.713c2.66,11.154-7.035,11.841-16.216,10.21
			c-2.145,0.687-4.719,0.344-6.006-1.458c-2.66-0.857-5.062-1.63-6.606-2.23c-18.618-7.723-25.568-22.909-27.627-41.441
			C48.178,329.094,53.841,303.44,64.137,279.503z"/>
		<path id="XMLID_27_" fill="none" stroke="#1F4D69" stroke-width="5.7641" stroke-linecap="round" stroke-miterlimit="10" d="
			M148.55,244.325c10.897,17.417,26.769,24.024,40.755,71.557c5.491,18.79,7.293,35.95,3.004,64.436
			c-1.545,10.21-23.938,28.829-48.82,34.233c-13.127,2.746-28.829,2.146-50.793,0.086c-7.979-0.686-39.982-5.834-43.328-29.257
			c-2.488-17.846-9.524-36.379-3.003-64.435c5.577-23.681,12.269-35.006,39.553-78.25c27.113-42.985,25.262-12.87,25.262-12.87
			S137.482,226.565,148.55,244.325z"/>
	</g>
	<circle id="XMLID_25_" fill="#FFFFFF" cx="112.858" cy="179.547" r="59.545"/>
	<path id="XMLID_24_" fill="#E0DFE6" d="M108.31,238.405c-5.663-1.63-11.411-3.174-16.988-5.234
		c0.343-0.086,0.601-0.343,0.944-0.429c-1.458-0.601-3.003-1.201-4.462-1.973c-17.331-8.494-37.666-29.257-29.086-49.077
		c9.266-21.621,30.716,6.778,37.666,14.242c7.55,8.151,18.447,12.355,29.257,12.698c2.402-1.373,4.633-1.201,6.521-0.343
		c12.27-1.458,23.509-8.151,28.484-20.163c2.146-5.234,9.095-2.746,10.125,1.716c4.291-2.402-7.412,53.15-63.405,46.932
		C106.763,236.708,107.881,237.89,108.31,238.405z"/>
	
		<circle id="XMLID_23_" fill="none" stroke="#1F4D69" stroke-width="5.7641" stroke-linecap="round" stroke-miterlimit="10" cx="115.088" cy="179.375" r="59.545"/>
</g>
<path fill="none" stroke="#1F4D69" stroke-width="5.7641" stroke-linecap="round" stroke-miterlimit="10" d="M92.365,234.582
	c0,0-0.269,13.792,24.954,13.794c22.457,0.002,24.254-14.233,24.254-14.233"/>
<path fill="none" stroke="#1F4D69" stroke-width="5" stroke-linecap="round" stroke-miterlimit="10" d="M94.451,124.364
	c0,0,6.678-25.678,39.636-18.751c26.492,5.568,26.371,2.575,26.371,2.575"/>
<path fill="none" stroke="#1F4D69" stroke-width="5" stroke-linecap="round" stroke-miterlimit="10" d="M83.844,128.939
	c0,0,6.675-25.309,39.633-18.382c26.492,5.568,32.229,3.259,32.229,3.259"/>
<path fill="none" stroke="#1F4D69" stroke-width="5" stroke-linecap="round" stroke-miterlimit="10" d="M106.142,120.546
	c0,0,6.557-28.113,39.516-21.185c26.492,5.568,28.975-0.918,28.975-0.918"/>
<path fill="none" stroke="#1F4D69" stroke-width="6.0801" stroke-linecap="round" stroke-miterlimit="10" d="M84.811,175.813
	c0,0,9.665-13.1,21.458-0.733"/>
<path fill="none" stroke="#1F4D69" stroke-width="6.0801" stroke-linecap="round" stroke-miterlimit="10" d="M107.95,208.045
	c0,0,12.145,12.122,21.622-2.243"/>
<path fill="none" stroke="#1F4D69" stroke-width="6.0801" stroke-linecap="round" stroke-miterlimit="10" d="M128.777,177.279
	c0,0,10.287-12.618,21.47,0.304"/>
</svg>
