<?xml version="1.0" encoding="utf-8"?>
<!-- Generator: Adobe Illustrator 19.0.0, SVG Export Plug-In . SVG Version: 6.00 Build 0)  -->
<svg version="1.1" id="Capa_1" xmlns="http://www.w3.org/2000/svg" xmlns:xlink="http://www.w3.org/1999/xlink" x="0px" y="0px"
	 viewBox="0 0 67.8 33" style="enable-background:new 0 0 67.8 33;" xml:space="preserve">
<style type="text/css">
	.st0{fill:#1F4D69;}
	.st1{fill:#F5F5F5;}
	.st2{fill:#E0DFE6;}
</style>
<path id="XMLID_70_" class="st0" d="M65.2,10.6C65.2,10.6,65.2,10.6,65.2,10.6C66,7.2,65.7,3.5,61.9,2C57.6,0.3,52.6,2.3,49,4.9
	c-1.7-2.2-4-3.7-7-3.4c-3.1,0.4-5.7,2.5-7.8,4.7c-6.6-5-15.9-0.1-21.8,4.2C10,9.6,7.5,9.7,5.6,11.6c-2.3,2.3-2.1,6.1-1.3,9
	c0,0,0,0,0,0c-0.3,0.1-0.6,0.3-0.7,0.7c-0.9,2.9-0.9,5.8,1.1,8.2c1.8,2.1,4.8,2.7,7.4,2.7c5.6,0,10.6-3.4,12.3-8.6
	c1,1.3,2.2,2.4,3.9,2.8c1,0.2,2.1,0.1,3.1,0c0.8-0.1,1.6-0.2,2.5-0.3c1.1-0.1,1.4,0.7,2.1,1.4c2.2,2.2,5.2,3.8,8.4,3.8
	c2.9-0.1,5.1-2.1,6.5-4.5c6.2,0.9,12.2-2.8,14.7-8.6C66.1,16.4,67.5,12,65.2,10.6z M63.2,17.6c-0.7,1.6-1.7,2.9-2.9,4.1
	c-2.6,2.5-6.4,3.6-9.9,2.8c-0.5-0.1-1,0.1-1.2,0.5c-1.3,2.7-3.4,4.6-6.6,4c-1.3-0.2-2.5-0.9-3.6-1.7c-1.3-0.9-2.2-2.6-3.5-3.4
	c-0.8-0.5-2.3,0-3.1,0.2c-1,0.1-2,0.3-3,0.3c-2.3,0-3.6-2.4-4.7-4c-0.6-0.9-2-0.6-2,0.6c-0.4,5.4-5.1,8.8-10.3,9.1
	c-2,0.1-4.2-0.3-5.8-1.7C4.7,26.7,5,24,5.7,21.9c0.1-0.2,0.1-0.5,0-0.6C6.2,21,6.5,20.6,6.4,20c-1.1-4,0.4-9.7,5.6-7.3
	c0.3,0.2,0.8,0.2,1.1,0C18.2,8.8,27.6,3,33.5,8.5c0.4,0.4,1.1,0.5,1.6,0c1.8-2,3.7-3.8,6.3-4.6c2.8-1,5,0.8,6.5,3.1
	c0.4,0.6,1.2,0.7,1.7,0.2c2.8-2.3,6.7-4.1,10.4-3.5c3.9,0.6,3.8,4.3,2.9,7.3c-0.7,0.6-1,1.7-0.5,2.5c0.4,0.7,1.6,0.8,1.9,0
	c0.1-0.1,0.1-0.3,0.2-0.4C64.4,14.5,63.6,16.7,63.2,17.6z"/>
<path id="XMLID_69_" class="st1" d="M61.7,13.3c-0.5-0.9-0.1-1.9,0.5-2.5c1-3,1-6.7-2.9-7.3c-3.7-0.6-7.6,1.2-10.4,3.5
	c-0.6,0.5-1.3,0.4-1.7-0.2c-1.5-2.3-3.7-4.1-6.5-3.1c-2.5,0.9-4.5,2.7-6.3,4.6c-0.4,0.5-1.1,0.4-1.6,0C27,2.7,17.6,8.5,12.5,12.3
	c-0.3,0.2-0.8,0.2-1.1,0c-5.3-2.4-6.7,3.3-5.6,7.3c0.2,0.6-0.2,1.1-0.6,1.3c0.1,0.2,0.1,0.4,0,0.6c-0.7,2.2-1,4.8,0.9,6.5
	c1.6,1.4,3.8,1.8,5.8,1.7c5.1-0.3,9.9-3.7,10.3-9.1c0.1-1.1,1.4-1.5,2-0.6c1.1,1.6,2.5,4,4.7,4c1,0,2-0.2,3-0.3
	c0.9-0.1,2.3-0.6,3.1-0.2c1.3,0.8,2.2,2.5,3.5,3.4c1.1,0.7,2.3,1.4,3.6,1.7c3.2,0.6,5.2-1.3,6.6-4c0.2-0.5,0.8-0.6,1.2-0.5
	c3.5,0.8,7.3-0.3,9.9-2.8c1.2-1.2,2.3-2.5,2.9-4.1c0.4-0.9,1.2-3.1,1.1-4.4c-0.1,0.1-0.1,0.3-0.2,0.4C63.3,14,62,13.9,61.7,13.3z"/>
<path id="XMLID_68_" class="st2" d="M17.8,23.4c-1.8,0.2-4.4,0.4-5.7-0.8c-1.4-1.3-1.2-4-1-5.9c0.3-3.5-5.1-3.5-5.4,0
	c-0.3,3.4,0.1,6.9,2.4,9.5c2.4,2.7,6.5,2.9,9.8,2.6C21.2,28.5,21.3,23,17.8,23.4z"/>
<path id="XMLID_67_" class="st2" d="M58.5,15.5c-5.4,2.2-14.8,7.2-19.9,2.2c-2.5-2.5-6.3,1.4-3.9,3.9c7,7,17.5,2.3,25.2-0.8
	C63.1,19.4,61.7,14.1,58.5,15.5z"/>
</svg>
