<?xml version="1.0" encoding="utf-8"?>
<!-- Generator: Adobe Illustrator 15.1.0, SVG Export Plug-In . SVG Version: 6.00 Build 0)  -->
<!DOCTYPE svg PUBLIC "-//W3C//DTD SVG 1.1//EN" "http://www.w3.org/Graphics/SVG/1.1/DTD/svg11.dtd">
<svg version="1.1" id="Layer_1" xmlns="http://www.w3.org/2000/svg" xmlns:xlink="http://www.w3.org/1999/xlink" x="0px" y="0px"
	 width="656.967px" height="439.478px" viewBox="0 0 656.967 439.478" enable-background="new 0 0 656.967 439.478"
	 xml:space="preserve">
<path fill="#FFFFFF" d="M319.041,416.902c-29.333-16-304,6.667-304,6.667L24.375,41.57c185.333-28,259.333-18,279.333-15.333
	s36,6,36,6c0-10.667,5.333-9.333,5.333-9.333s281.333-9.333,292-8s6.666,24.667,6.666,24.667s-4.666,276-4.666,296.667
	s-3.334,82.666-3.334,82.666s12-2.666-118-7.333s-190.667,8.667-190.667,8.667L319.041,416.902z"/>
<path fill="#CCCCCC" d="M351.039,46.228c0,0,21.333,19.333,46,14s106-32.667,184-0.667c0,0,56.668,27.333,61.334,104.667
	l0.666-143.333c0,0-1.333-8-29.333-5.333s-265.333,5.333-265.333,5.333s-9.993,8.016-8.663,11.341S341.705,40.228,351.039,46.228z"
	/>
<path fill="#CCCCCC" d="M181.036,410.892c0,0,108.434,15.094,153.432-226.394l-7.425,235.739
	C327.042,420.237,294.59,398.798,181.036,410.892z"/>
<path fill="none" stroke="#1F4D69" stroke-width="8" stroke-miterlimit="10" d="M340.375,58.903l-13.333,361.334
	c0,0,60.667-13.334,190.667-8.667s118,7.333,118,7.333s3.334-61.999,3.334-82.666s4.666-296.667,4.666-296.667
	s4.001-23.334-6.666-24.667s-292,8-292,8s-5.333-1.333-5.333,9.333c0,0-16-3.333-36-6s-94-12.667-279.333,15.333l-9.334,381.999
	c0,0,274.667-22.667,304-6.667"/>
</svg>
