<?xml version="1.0" encoding="utf-8"?>
<!-- Generator: Adobe Illustrator 19.0.0, SVG Export Plug-In . SVG Version: 6.00 Build 0)  -->
<svg version="1.1" id="Layer_1" xmlns="http://www.w3.org/2000/svg" xmlns:xlink="http://www.w3.org/1999/xlink" x="0px" y="0px"
	 viewBox="-257 -952.3 1211 1540.3" style="enable-background:new -257 -952.3 1211 1540.3;" xml:space="preserve">
<style type="text/css">
	.st0{fill:#FFFFFF;}
	.st1{fill:#D2D9DB;}
	.st2{fill:#87D329;}
	.st3{fill:#1F4D69;stroke:#1F4D69;stroke-width:5.2075;stroke-miterlimit:10;}
	.st4{fill:none;stroke:#1F4D69;stroke-width:25.4022;stroke-miterlimit:10;}
	.st5{fill:#1F4D69;}
</style>
<path class="st0" d="M800-849.6c0,0,96,1.8,89.2,16.3c38.1-114.6-110.1-102.4-110.1-102.4l-947.8,54.7l-13.8,93.7
	c0,0-62.4,1236-55.6,1287.9c7.1,52.2-59,62.4,531.2,52.2c590.2-10.4,586.8-97.1,586.8-97.1l27.7-1291.6L800-849.6z"/>
<g>
	<path class="st1" d="M-144.4-826.1c8.1,5,16.5,9.3,25.1,13.1c1-0.2,2-0.2,3.2,0.1c8.3,2.5,17,4.7,24.1,9.8
		c52.8,16.8,111.3,17.5,165.5,15.6c85.8-2.8,715.2-57.9,718.6-56.7c17.8,5.4,84.7,12,91.5-3.5c9.3-21.5-2.9-44-5.1-66.5
		c-2.3-22.3-954.5-7.9-1013.7,0.2C-157-903.9-231.2-833.2-144.4-826.1z"/>
	<path class="st2" d="M397.8-123.9c-1.7-9.6-6.8-16.1-13.3-19.5l0,0c-0.6-11.3-4.8-22.6-11-30.8c2.8-17.8,2-37.3,0.3-53.3
		c12.4-9.6,21.5-20,27.4-35.6c7.1-18.1-3.4-39.8-18.9-49.4c-9.9-6.2-22-7.6-33.3-9.6c-7.9-1.4-16.9-13.8-23.7-22.6
		c9.3-11.9,16.9-25.4,23.1-36.7c2.5-4.5,3.7-9.6,3.7-14.4c5.1,0,9.9-1.1,15-3.4c15.8-6.8,28.2-19.2,37.8-33c2.5-4,4.2-7.9,4.8-11.9
		c4.5-1.7,9-3.7,13.8-5.9c23.7-11.9,20-50-5.6-56.4c-0.3,0-0.6,0-0.8-0.3c-3.4-5.6-9-10.2-16.9-12.1c-19.8-5.4-42.1-4-60.4,4.5
		c-26.2-3.4-47.1,26.5-34.4,45.4c0,3.7,0.3,7.3,1.4,10.7c-9.6,9.3-17.5,20-20.9,35c-0.8,4.2-1.1,8.2-0.6,11.9c-2,2.5-4,5.4-5.9,7.9
		c-5.1,6.8-5.9,14.4-4.5,21.7c-16.4-9-34.2-3.7-50.8,4.2c-0.6,0-1.4,0-2,0.3c-25.1,4.2-49.4,10.4-73.4,18.9
		c-37.5,13.3-24.8,65.2,14.4,59.8c9.6-1.4,19.2-3.4,28.8-5.6c2,0.6,4,1.1,5.9,1.4c15.2,2,29.6-0.3,44.6-2.5
		c13.5-2.3,20,6.2,32.2,10.7c5.9,2.3,11.9,3.1,17.5,3.1c7.6,8.2,15.2,16.1,24.8,22.9c2,1.4,4.5,2.5,7.1,3.4
		c-13.5,9.9-27.7,18.6-36.7,32.2c-25.7-0.3-54.2,19.2-53.3,45.2c0.3,9.9,4.2,18.9,10.2,26.5c1.4,2.8,3.1,5.6,5.6,7.9l0.3,0.3
		c7.6,13.8,24.3,23.1,41.8,27.9c2.5,4.8,6.2,9.3,11.9,12.4c7.3,17.5,20.9,26.2,35.6,26.8c2,1.1,4.2,2,6.5,2.8
		C373.3-73.4,403.7-91.7,397.8-123.9z"/>
	<g>
		<path class="st3" d="M94.7,167.7c-1.4-0.8-2-2.3-1.7-4s1.1-2.8,2.8-3.1c4.2-1.1,8.5-1.7,12.4-1.1c4.2,0.3,7.9,1.4,11.9,3.1
			c3.7,1.7,7.1,4,9.9,6.8c6.8,6.8,11,14.7,12.7,23.4c1.7,8.7,0,17.8-4.8,26.2c-2.5,4.5-7.6,9.3-15,14.1l-6.2,4
			c-2.5,1.7-4.2,2.8-5.1,3.1c-0.3,0.3-0.8,0.3-1.4,0.8c-0.6,0.3-1.1,0.6-1.4,0.6c-0.3,0-0.6,0.3-0.8,0.6c-0.3,0.3-0.6,0.6-0.6,0.8
			c0,0.3,0,0.8,0,1.7l2.5,27.9c1.7,17.5,2.8,32.2,3.1,43.7c0,2.5-1.1,3.7-3.7,4c-2.5,0-3.7-1.1-4-3.7c-0.3-11.9-1.4-26.8-3.1-44.3
			c-2-18.9-3.1-31.3-3.4-37c-0.3-3.4-0.3-9.6-0.3-18.9c0-9.3,0.3-14.7,0.3-16.4C98.6,185.2,97.2,174.4,94.7,167.7
			C94.7,167.9,94.7,167.9,94.7,167.7z M104.3,173.3c1.7,7.1,2.3,15.8,2,26.5c0,1.7,0,7.9-0.3,18.6c0,0.8,0,2,0,2.8
			c0,1.1,0,2.3,0,3.1c0,1.1,0,2,0,2.8c0,4,0.3,6.2,0.3,6.5c0,0.3,1.1-0.3,3.7-1.7c0.6-0.3,1.4-0.8,2.8-1.7
			c9-5.6,15.2-10.7,18.3-15.2c3.4-5.9,4.8-11.3,4.5-16.9c-0.3-5.4-2-10.7-5.1-15.8c-2.3-4-5.4-7.1-9.3-9.9c-4-2.8-8.2-4.5-12.7-5.1
			c-1.7,0-3.1,0.3-4,1.4C104,169.9,104,171.3,104.3,173.3z"/>
		<path class="st3" d="M157.6,320.1c0.6-6.2,1.1-17.5,2-34.2c0.3-4,0.6-9.3,0.8-16.1c1.4-27.4,2.3-45.4,3.1-54.8
			c0.6-9,2-18.6,4-29.1c2.8-15.8,6.5-24.8,11-27.7c9.9-5.4,16.9-1.7,21.2,11.6c2.8,7.6,4.5,15.5,4.8,24.3
			c7.1,42.1,11.3,83.5,12.4,124.8c0,2.5-1.1,3.7-3.7,4c-2.5,0-3.7-1.1-4-3.7c-0.8-26.5-2.8-52.5-5.6-77.6c-0.6-3.4-2.3-5.1-5.4-4.8
			c-5.1-0.3-12.7-0.6-23.1-0.6c-3.4-0.3-5.4,1.4-5.4,5.1c-1.7,44.6-3.1,71.1-4.2,79.6c0,1.7-0.8,2.5-2.3,3.1
			c-1.4,0.6-2.5,0.3-3.7-0.3C157.9,322.6,157.3,321.5,157.6,320.1z M170.6,223c0,1.7,0.3,2.8,0.6,3.7c0.3,0.8,0.8,1.4,1.7,1.7
			c0.8,0,1.7,0.3,2.8,0.3c8.5,0,15.2,0.3,19.8,0.6c1.1,0,2.3,0.3,3.1,0c0.8,0,1.4-0.6,2-1.4c0.3-0.8,0.6-2.3,0.3-4.2
			c-0.3-3.4-2-14.7-5.4-33.9c0-0.3,0-0.6-0.3-1.4c-0.6-3.1-0.8-5.9-1.4-7.9c-0.3-2-1.1-4.5-1.7-7.6c-0.8-3.1-1.7-5.4-3.1-6.8
			c-1.1-1.4-2.5-2-4.2-2c-2.3,0.3-3.7,1.4-4.8,3.7c-0.6,0.8-1.1,2-1.7,3.7c-1.4,3.1-2.5,8.5-3.7,15.8
			C172.3,202.7,170.9,214.5,170.6,223z"/>
		<path class="st3" d="M224.8,189.1c0.8-9.9,4.8-18.1,11.9-24.6c6.8-6.5,14.7-9.9,23.4-10.2c9.3,0,16.7,3.4,21.5,11
			c5.1,7.3,6.2,17.2,4,29.6c-0.3,2.3-1.7,3.4-4.5,3.1c-2.3-0.3-3.4-1.7-3.1-4.5c2-10.2,1.1-18.1-2.5-23.4c-3.4-5.4-8.5-7.9-15.2-7.9
			c-7.1,0.3-13,2.8-18.6,7.9c-5.4,5.1-8.5,11.9-9.3,19.8c-0.8,8.5,1.4,16.1,6.2,22.9c3.1,4.2,7.9,9.3,14.1,15
			c6.2,5.9,11.9,11,16.7,15.2c4.8,4.5,9.6,10.2,13.8,17.2c4.5,7.1,7.1,14.4,7.9,22c1.7,12.4,0,22.3-5.6,29.9
			c-5.4,7.6-13,11-22.3,10.7c-9.3-0.6-17.5-5.1-23.7-13.5c-6.5-8.5-9.9-19.5-10.2-33c0-1.1,0.3-2,0.8-2.8c0.6-0.8,1.7-1.1,2.5-1.1
			c1.1,0,2,0.3,2.8,0.8c0.8,0.6,1.1,1.7,1.1,2.5c0.3,11.9,3.1,21.2,8.5,28.2c5.4,7.1,11.6,10.7,18.6,11c6.5,0.3,11.9-2.3,16.1-7.9
			c4-5.6,5.4-13.5,4-23.7c-0.6-4.2-1.7-8.5-3.1-12.4c-1.7-4-3.4-7.3-5.1-9.9c-1.7-2.5-4.2-5.6-7.6-9s-5.9-5.9-7.9-7.6
			c-2-1.7-4.8-4.2-9-7.6c-8.2-7.1-14.7-13.5-19.2-19.8C226.2,209.4,223.7,200.1,224.8,189.1z"/>
		<path class="st3" d="M303.5,315.6c0.6-6.2,1.1-17.5,2-33.9c0.3-4,0.6-9.3,0.8-16.1c1.4-27.4,2.3-45.4,3.1-54.8
			c0.8-9,2-18.9,4-29.1c2.8-15.8,6.5-24.8,11-27.7c9.9-5.4,16.9-1.7,21.2,11.6c2.8,7.6,4.5,15.5,4.8,24.3
			c7.1,42.1,11.3,83.5,12.4,124.8c0,2.5-1.1,3.7-3.7,4c-2.5,0-3.7-1.1-4-3.7c-0.8-26.5-2.8-52.5-5.6-77.6c-0.6-3.4-2.3-5.1-5.4-4.8
			c-5.1-0.3-12.7-0.6-23.1-0.6c-3.4-0.3-5.1,1.4-5.4,5.1c-1.7,44.6-3.1,71.1-4.2,79.6c0,1.7-0.8,2.5-2.3,3.1
			c-1.4,0.6-2.5,0.3-3.7-0.6C303.8,318.4,303.3,317.3,303.5,315.6z M316.5,218.7c0,1.7,0.3,2.8,0.6,3.7c0.3,0.8,0.8,1.4,1.7,1.4
			c0.8,0.3,1.7,0.3,2.8,0.3c8.5,0,15.2,0.3,19.8,0.6c1.1,0.3,2.3,0.3,3.1,0c0.8,0,1.4-0.6,1.7-1.4s0.6-2.3,0.3-4.2
			c-0.3-3.4-2-14.7-5.4-33.9c0-0.3,0-0.6-0.3-1.4c-0.6-3.1-0.8-5.9-1.4-7.9c-0.3-2-1.1-4.5-1.7-7.6c-0.8-3.1-1.7-5.4-3.1-6.8
			c-1.1-1.4-2.5-2-4.2-2c-2.3,0.3-3.7,1.4-4.8,3.7c-0.6,0.8-1.1,2-1.7,3.7c-1.4,3.1-2.5,8.5-3.7,15.8
			C318.2,198.4,316.8,210.3,316.5,218.7z"/>
		<path class="st3" d="M369.9,159.8c-1.4-0.8-2-2.3-1.7-4c0.3-1.7,1.1-2.8,2.8-3.1c4.2-1.1,8.5-1.7,12.4-1.1
			c4.2,0.3,7.9,1.4,11.9,3.1c3.7,1.7,7.1,4,9.9,6.8c6.8,6.8,11,14.7,12.7,23.4c1.7,8.7,0,17.8-4.8,26.2c-2.5,4.5-7.6,9.3-15,14.1
			l-6.2,4c-2.5,1.7-4.2,2.8-5.1,3.1c-0.3,0.3-0.8,0.6-1.4,0.8c-0.6,0.3-1.1,0.6-1.4,0.6c-0.3,0-0.6,0.3-0.8,0.6
			c-0.3,0.3-0.6,0.6-0.6,0.8c0,0.3,0,0.8,0,1.7l2.8,27.9c1.7,17.5,2.8,32.2,3.1,43.7c0,2.5-1.1,3.7-3.7,4c-2.5,0-3.7-1.1-4-3.7
			c-0.3-11.9-1.4-26.8-3.1-44.3c-2-18.9-3.1-31.3-3.4-37c-0.3-3.4-0.3-9.6-0.3-18.9c0-9.3,0.3-14.7,0.3-16.4
			c-0.3-15-1.7-25.7-4.2-31.9C370.2,160,370.2,159.8,369.9,159.8z M379.8,165.4c1.7,7.1,2.3,15.8,2.3,26.5c0,1.7,0,7.9-0.3,18.6
			c0,0.8,0,2,0,2.8c0,1.1,0,2.3,0,3.1c0,1.1,0,2,0,2.8c0,4.2,0.3,6.2,0.3,6.5c0,0.3,1.4-0.3,3.7-1.7c0.6-0.3,1.4-0.8,2.8-1.7
			c9-5.6,15.2-10.7,18.3-15.2c3.4-5.9,4.8-11.3,4.5-16.9c-0.3-5.4-2-10.7-5.1-15.8c-2.3-4-5.4-7.1-9.3-10.2c-4-2.8-8.2-4.5-12.7-5.1
			c-1.7,0-3.1,0.3-4,1.4C379.5,161.7,379.5,163.4,379.8,165.4z"/>
		<path class="st3" d="M436.8,162.3c2-3.7,4.5-7.3,8.5-10.4c3.7-3.1,7.3-5.1,11.3-6.2c12.1-3.1,20.9,2.5,26.2,16.9
			c2.5,6.2,4.2,18.6,5.1,36.4c3.1,41.2,2.5,70.8-1.7,89.2c-2.5,11.6-6.8,19.2-12.7,23.1c-7.3,5.1-14.4,4.2-20.9-2.8
			c-4.2-5.4-8.2-13.3-11.6-23.7c-3.1-9.6-5.9-21.2-8.2-34.4c-2.3-13.3-3.4-28.5-3.4-46C429.1,187.1,431.7,173,436.8,162.3z
			 M443.8,166c-4.8,9.9-7.1,22.9-7.1,39.2s1.1,31,3.4,43.7c2.3,12.7,5.1,24,7.9,33.6c3.4,10.4,6.8,17.5,9.9,20.9
			c3.4,3.7,6.8,4.2,10.7,1.7c8.2-5.4,12.7-22.6,13.3-51.1c0.3-10.7-0.3-33-2.3-67.2c-0.6-4.5-1.1-8.7-2-12.7s-2-7.6-3.7-11.6
			c-1.4-3.7-3.7-6.5-6.5-8.2s-5.9-2-9.6-1.1c-2.5,0.6-5.4,2.3-8.2,4.5C447.2,160.3,445,162.9,443.8,166z"/>
		<path class="st3" d="M509.3,292.4c-0.6-18.6-0.3-32.2,0.3-40.6c0.6-35.3-0.6-66.9-4-95.1c0-0.6-0.3-1.4-0.6-2.8
			c-0.3-1.4-0.6-2.3-0.6-3.1c0-0.8,0-1.4,0.3-2.5c0.3-0.8,1.1-1.4,2-1.7c20.9-5.6,36.7-1.7,47.1,12.1c5.1,5.6,7.3,13,7.1,21.5
			c-0.3,8.7-3.4,16.7-9,24.3c-6.8,9.3-15.2,16.4-25.4,21.2c-0.6,0-0.8,0.3-0.8,0.8c0,0.6,0,1.1,0.3,1.1c5.9,9,14.1,26.2,25.4,51.7
			c3.4,8.5,7.1,15.8,10.4,22c0.8,1.4,0.8,2.8,0,4c-0.8,1.4-2,2-3.4,2c-1.4,0-2.5-0.6-3.4-2c-3.4-5.9-7.1-13.5-10.7-22.6
			c-13-30.8-21.5-48-25.7-51.9l-0.3-0.3c-0.3-0.3-0.3-0.3-0.6-0.6c-0.6,5.1-0.8,7.9-0.8,8.5c0,1.7,0,4,0,7.1s0,5.4-0.3,7.1
			c0,0.8,0,1.7,0,2.5c0,1.1,0,2.5,0,4.8c0,2,0,4,0,5.4c-0.3,8.7-0.3,17.8,0,27.1c0,4,0.3,8.5,0.8,13.8c0.3,1.1,0,2-0.8,2.8
			c-0.6,0.8-1.7,1.1-2.5,1.4c-1.1,0.3-2,0-2.8-0.8c-0.8-0.6-1.1-1.7-1.4-2.5C509.9,302.6,509.3,297.8,509.3,292.4z M513.5,157.8
			c1.7,15.8,2.8,34.4,3.1,56.2c0,3.7,0.8,5.6,2.3,5.6l4-0.8c8.5-4,15.5-9.6,21.2-16.9c5.6-7.3,8.7-14.4,8.7-21.7
			c0-6.8-1.7-12.4-5.4-16.7c-6.2-9-16.4-13-29.6-11.3C514.9,152.1,513.5,154.1,513.5,157.8z"/>
		<path class="st3" d="M569.4,151.9c-0.3-1.1,0-2,0.8-2.8c0.6-0.8,1.7-1.1,2.5-1.4c6.5-0.8,16.4-1.4,29.6-1.1
			c16.1,0,26-0.3,28.8-0.6c1.1-0.3,2,0,2.8,0.8c0.8,0.6,1.4,1.7,1.7,2.5c0,1.1-0.3,2-1.1,2.8c-0.6,0.8-1.7,1.1-2.5,1.4
			c-7.3,0.6-17.2,0.8-29.6,0.6c2,7.9,2.5,16.9,2.3,26.8c0,1.4,0,3.1,0,4.8s0,3.1-0.3,4c0,0.8,0,1.7,0,2.3c0.3,6.8,0.3,18.1,0.3,33.9
			c-0.3,35,1.1,60.1,3.7,74.8c0.3,1.7-0.3,2.8-1.4,3.7c-1.1,0.8-2.3,1.1-3.7,0.6c-1.4-0.3-2.3-1.4-2.3-3.1
			c-2.8-15.5-4.2-40.9-4-76.5c0-15.8,0-26.8-0.3-33.3c0-4,0-7.6,0-11.6c0-11-0.6-19.5-2-25.4c0-0.8-1.7-1.1-5.4-0.8
			c-4.5,0-9.9,0.3-16.1,0.8c-1.1,0.3-2,0-2.8-0.8C570,153.5,569.4,152.7,569.4,151.9z"/>
		<path class="st3" d="M653,151.9c0.6-6.5,2.3-10.4,4.8-12.1c1.7-0.8,4.5-1.4,8.5-1.7l33.9-0.3c2.5-0.6,4,0.6,4.2,3.4
			c0,2.5-2.3,4-6.8,4.2c-0.8,0-5.9,0-15,0.3c-9,0-14.4,0.3-16.1,0.3c-2.3,0-3.4,0.3-4,0.3h-0.8c-0.3,0.3-0.3,0.3-0.3,0.6v0.3
			c-0.3,0.3-0.3,0.3-0.3,0.6s-0.3,0.6-0.3,1.1c0,0.6,0,1.1,0,1.7c0,0.3,0,0.6,0,0.8c0,0.3,0,0.8,0,1.1c-0.3,4.5,0,14.1,1.4,28.2
			c1.4,14.1,2,23.4,2,27.4c0,2.5,0.3,4,1.1,4.8c0.8,0.6,2.3,1.1,4.5,0.8c0.8,0,2,0,3.4-0.3c1.4,0,2.5-0.3,3.4-0.3s1.7,0,2.5,0
			c1.1,0,1.7,0.3,2.3,1.1c0.6,0.6,0.8,1.4,1.1,2.3c0,2.5-1.1,4-3.7,4.2c-1.7,0.3-4.8,0.3-9.3,0.6c-1.4,0-2.5,0-3.1,0.3
			c-0.6,0-1.1,0.6-1.7,1.4c-0.6,0.8-0.8,2.3-0.6,4c-0.6,27.1-0.3,47.7,1.4,61.8c0.3,4,0.8,7.3,1.7,10.4c0,0.3,0,0.6,0,0.8l0.3,0.6
			l0.6-2.5c0,2.8,1.4,4.5,4.2,5.1c0.8,0.6,5.6,0.6,14.7-0.3c9-0.8,14.1-1.4,15.5-1.4c2.5,0,3.7,1.1,4,3.7c0,2.5-1.1,3.7-3.7,4
			c-0.6,0-6.5,0.6-18.1,2c-8.7,0.6-15.2-0.3-19.5-1.7c-2.3-0.6-4-3.1-5.1-7.6c-0.8-3.1-1.7-6.8-2-11.6c-1.4-13-1.7-39.5-1.1-79.3
			c0-5.9-0.6-13.8-1.4-23.4C653,169.9,652.4,158.3,653,151.9z"/>
	</g>
	<path class="st4" d="M896-847.7c0,0,13.3-86.4-73.1-88.1s-973.8,22.1-973.8,22.1s-169.3,94.6,128.4,112.1
		c239.8,14.1,900.1-53.9,927.2-31.3c27.1,22.6-18.9,1303.4-18.9,1303.4s-29.6,34.4-115.7,47.4c-85.8,13-916.5,44-916.5,44
		s-81.6,14.1-84.7-88.1c-3.1-102.5,48.5-1261.1,48.5-1261.1"/>
	<path class="st5" d="M459.1-513.4c63.8,18.6,102.2,75.9,138.6,134.9c4.5,7.1,9,16.1,8.7,24c-1.7,42.1-2.5,84.4-7.9,125.9
		c-9.9,76.2-57,125-127.6,145.9c-92,27.4-184,36.1-276.6-9.9c-43.5-21.7-64.4-55.9-75.6-95.1c-34.4-121.4-1.1-230,96.2-312.4
		c62.7-52.8,133.2-57,207.7-29.4C432.8-526.4,442.1-521.3,459.1-513.4 M421.8-495.1c-16.9-5.4-31.6-10.2-46.6-14.4
		c-48-13.8-66-1.7-70,46.9c-8.2,99.6-16.4,106.7-120,100.5c-15.8-0.8-30.8,2.3-30.2,19.8c0.6,11.6,8.7,29.9,17.8,32.7
		c17.2,5.6,37.3,2.3,56.2,2.8c20.6,0.8,42.3-1.4,61.5,4.5c24.3,7.6,36.4,36.1,32.5,59.8c-4,25.1-22.3,28.2-42.6,30.5
		c-9.9,1.1-19.5,4.8-31.3,7.6c0,12.4-4.2,25.7,0.6,32.5c19.2,26.5,41.5,51.1,65.5,79.9c24-2.5,50.8-5.4,83.5-8.7
		c-9.6-11.3-12.4-15.2-16.1-18.6c-44.9-42.1-45.2-54.2-8.7-105.3c11.6-16.7,17.8-37,26.8-56.7c-8.7-3.1-13.5-5.4-18.6-6.2
		c-33.9-6.2-54.2-27.7-57.9-60.1c-3.4-27.9,11.9-50.2,37.3-64.6c10.7-5.9,21.5-12.4,30.5-20.6C408.3-447.9,427.5-462.3,421.8-495.1
		 M457.1-475.9c-14.7,40.4-42.1,62.9-74.8,82.7c-12.4,7.3-22.3,27.1-24,42.1c-2.3,20.9,16.7,26.2,35.3,31
		c37,9.6,42.9,21.5,31.3,56.4c-4.5,13.3-10.7,26.2-17.8,38.1c-34.2,57.6-34.4,57.3,18.6,98.8c4.2,3.1,7.3,8.5,11.9,10.4
		c7.6,3.1,16.4,6.8,24.3,5.6c41.2-5.4,83.8-48,96.2-100.5c-18.3,1.1-34.4,2-50.5,3.1c-33.6,2-44.9-7.6-49.7-39.2
		c-2-13.3-5.4-26.2-9.6-39c-12.4-36.4-2.3-62.9,34.4-66.6c36.1-3.7,50-24.3,64.4-50C523.7-435.8,500.8-463.7,457.1-475.9
		 M294.5-246.4c-7.9-30.2-25.4-34.4-49.1-31.9c-33.6,3.1-67.2,4-101.9,5.6c-9.3,88.6,23.4,138,109.2,159.2
		C196-173.6,210.1-239.9,294.5-246.4 M500.3-239.6c22.6-2,46.6-4,72.5-6.2c-3.1-37.5,15.5-76.2-8.7-106.7
		c-32.2,13.8-60.1,26-85.2,36.7C485.6-291.8,492.4-267.8,500.3-239.6 M273.9-503.8c-47.1,31.9-89.5,53.1-105.8,105
		c12.7,3.7,22.6,6.5,32.5,9c6.8,1.7,13.8,3.1,20.9,3.4c36.1,2,48-7.6,51.1-43.5C274.2-450.5,273.3-471.6,273.9-503.8"/>
</g>
</svg>
