<?xml version="1.0" encoding="utf-8"?>
<!-- Generator: Adobe Illustrator 19.0.0, SVG Export Plug-In . SVG Version: 6.00 Build 0)  -->
<svg version="1.1" id="Capa_1" xmlns="http://www.w3.org/2000/svg" xmlns:xlink="http://www.w3.org/1999/xlink" x="0px" y="0px"
	 viewBox="1252.9 -1334 321.1 320" style="enable-background:new 1252.9 -1334 321.1 320;" xml:space="preserve">
<style type="text/css">
	.st0{clip-path:url(#SVGID_2_);}
	.st1{fill:none;stroke:#1F4D69;stroke-width:12.8484;stroke-linecap:round;stroke-miterlimit:10;}
	.st2{fill:none;stroke:#1F4D69;stroke-width:6;stroke-linecap:round;stroke-miterlimit:10;}
	.st3{fill:#FFFFFF;}
	.st4{fill:#E0DFE6;}
	.st5{fill:none;stroke:#1F4D69;stroke-width:6;stroke-miterlimit:10;}
	.st6{fill:none;stroke:#09BA51;stroke-width:4.3745;stroke-miterlimit:10;}
	.st7{fill:#1F4D69;}
</style>
<g id="XMLID_20_">
	<g>
		<defs>
			<circle id="SVGID_1_" cx="1414" cy="-1173.4" r="154.9"/>
		</defs>
		<clipPath id="SVGID_2_">
			<use xlink:href="#SVGID_1_"  style="overflow:visible;"/>
		</clipPath>
		<g id="XMLID_21_" class="st0">
			<path id="XMLID_33_" class="st1" d="M1476.2-743.2c0,0-22.1-99.1-17.8-219.4"/>
			<path id="XMLID_32_" class="st1" d="M1404.3-737.3c0,0-15.6-109.3-17.8-219.4"/>
			<path id="XMLID_31_" class="st2" d="M1365.7-1142.6c13.7-4.4-79.9,31.7-72.8,187.7"/>
			<path id="XMLID_30_" class="st2" d="M1448.8-1146.5c-14.1-3.1,82.2,17.5,89.6,180.2"/>
			<g id="XMLID_26_">
				<path id="XMLID_29_" class="st3" d="M1447.9-1156.3c12.7,20.3,31.2,28,47.5,83.4c6.4,21.9,8.5,41.9,3.5,75.1
					c-1.8,11.9-27.9,33.6-56.9,39.9c-15.3,3.2-33.6,2.5-59.2,0.1c-9.3-0.8-46.6-6.8-50.5-34.1c-2.9-20.8-11.1-42.4-3.5-75.1
					c6.5-27.6,14.3-40.8,46.1-91.2c31.6-50.1,29-49.1,29-49.1S1434.8-1177.1,1447.9-1156.3z"/>
				<path id="XMLID_28_" class="st4" d="M1349.4-1109.7c4.8-11.3,11.7-21.6,16.2-32.9c2.4-5.9,5.8-14.7,12.6-17.1
					c1.2-1.1,2.6-1.9,4.1-2.4c-1.7-0.7-3.5-1.4-5.2-2.3c-1.9-1-3.8-2-5.8-3.2c11.2,2.4,22.3,4.4,32.1,10.7c-1.3-0.1-2.5-0.2-3.8-0.5
					c2.6,2.8,4.4,6.4,4.6,10.7c0.5,11.8-5.4,22.5-11.3,32.6c-9.9,16.7-16.8,30.8-18.3,50.3c-1.3,16.7,1.3,34.5,6,50.6
					c3.7,12.5,16.3,19.7,19.3,32.3c3.1,13-8.2,13.8-18.9,11.9c-2.5,0.8-5.5,0.4-7-1.7c-3.1-1-5.9-1.9-7.7-2.6
					c-21.7-9-29.8-26.7-32.2-48.3C1330.8-1051.9,1337.4-1081.8,1349.4-1109.7z"/>
				<path id="XMLID_27_" class="st5" d="M1450.4-1156.5c12.7,20.3,31.2,28,47.5,83.4c6.4,21.9,8.5,41.9,3.5,75.1
					c-1.8,11.9-27.9,33.6-56.9,39.9c-15.3,3.2-33.6,2.5-59.2,0.1c-9.3-0.8-46.6-6.8-50.5-34.1c-2.9-20.8-11.1-42.4-3.5-75.1
					c6.5-27.6,14.3-40.8,46.1-91.2c31.6-50.1,29-49.1,29-49.1S1437.5-1177.2,1450.4-1156.5z"/>
			</g>
			<circle id="XMLID_25_" class="st3" cx="1408.8" cy="-1232" r="69.4"/>
			<path id="XMLID_24_" class="st4" d="M1403.5-1163.4c-6.6-1.9-13.3-3.7-19.8-6.1c0.4-0.1,0.7-0.4,1.1-0.5
				c-1.7-0.7-3.5-1.4-5.2-2.3c-20.2-9.9-43.9-34.1-33.9-57.2c10.8-25.2,35.8,7.9,43.9,16.6c8.8,9.5,21.5,14.4,34.1,14.8
				c2.8-1.6,5.4-1.4,7.6-0.4c14.3-1.7,27.4-9.5,33.2-23.5c2.5-6.1,10.6-3.2,11.8,2c5-2.8,12.3,2.6,8.9,8.2c-1.3,2.2-2.8,4.4-4.3,6.6
				c-0.8,5.9-4.8,10.9-9.3,15c-1.3,1.3-3,1.8-4.4,1.8c-0.1,1.3-0.6,2.5-1.7,3.5c-18.3,15.4-40.7,22.9-63.1,19.6
				C1402.5-1164.6,1403-1164,1403.5-1163.4z"/>
			<circle id="XMLID_23_" class="st5" cx="1411.4" cy="-1232.2" r="69.4"/>
		</g>
	</g>
</g>
<circle id="XMLID_4_" class="st6" cx="1412.8" cy="-1174.6" r="154.9"/>
<circle id="XMLID_1_" class="st7" cx="1386.3" cy="-1232.4" r="17.5"/>
<circle id="XMLID_18_" class="st7" cx="1436.7" cy="-1232.4" r="17.5"/>
<line id="XMLID_19_" class="st5" x1="1404.4" y1="-1231.9" x2="1418.8" y2="-1231.9"/>
</svg>
