<?xml version="1.0" encoding="utf-8"?>
<!-- Generator: Adobe Illustrator 15.1.0, SVG Export Plug-In . SVG Version: 6.00 Build 0)  -->
<!DOCTYPE svg PUBLIC "-//W3C//DTD SVG 1.1//EN" "http://www.w3.org/Graphics/SVG/1.1/DTD/svg11.dtd">
<svg version="1.1" id="Layer_1" xmlns="http://www.w3.org/2000/svg" xmlns:xlink="http://www.w3.org/1999/xlink" x="0px" y="0px"
	 width="245.988px" height="556.472px" viewBox="0 0 245.988 556.472" enable-background="new 0 0 245.988 556.472"
	 xml:space="preserve">
<path fill="#FFFFFF" d="M118.818,136.804c0,0-56,65-73,122c0,0-11,70,17,79s71,13,99-1s37-27,29-67S118.818,136.804,118.818,136.804
	z"/>
<path fill="none" stroke="#1F4D69" stroke-width="6" stroke-miterlimit="10" d="M73.818,196.804c0,0-73.258-77.581-39.258-170.247"
	/>
<path fill="none" stroke="#1F4D69" stroke-width="6" stroke-miterlimit="10" d="M154.818,192.804
	c67.077-36.914,61.077-137.581,63.077-168.247"/>
<path fill="none" stroke="#1F4D69" stroke-width="6" stroke-miterlimit="10" d="M95.818,344.804c0,0-19,90.001-9,188.001"/>
<path fill="none" stroke="#1F4D69" stroke-width="6" stroke-miterlimit="10" d="M138.818,344.804c0,0-15,90.001-5,188.001"/>
<path fill="#E0DFE6" d="M75.108,277.724c1.288-6.99,3.351-13.83,5.661-20.542c1.059-3.073,2.21-6.113,3.392-9.14
	c0.651-1.667,1.326-3.325,2.006-4.981c0.105-0.257,0.213-0.513,0.319-0.77c0.042-0.093,0.705-1.673,0.833-1.973
	c2.584-6.035,20.93-17.639,26.832-20.514c13-6.333,33.625-28.876,33.334-39.333c-0.086-3.084-43.709,5.735-45.204,3.786
	c0.722,0.175,1.447,0.314,2.174,0.456c-4.402-3.44-10.482-5.454-15.878-6.06c0.405,0.232,0.805,0.472,1.218,0.695
	c-5.807,0.652-11.06,4.709-10.972,12.206c-0.431,0.519-0.847,1.069-1.229,1.689c-15.967,25.883-26.708,54.112-30.518,84.322
	c-1.955,15.5-1.109,31.003,1.265,46.402c0.806,5.218,1.946,10.15,6.916,13.063c4.163,2.438,9.365,2.969,14.043,3.404
	c5.708,0.532,11.785,0.37,17.52,0.37c16.604,0,16.755-25.483,0.471-25.978c-0.279-0.166-0.562-0.328-0.839-0.498
	c-0.61-0.387-1.212-0.787-1.805-1.201c-0.12-0.081-0.207-0.139-0.303-0.202c-0.103-0.089-0.218-0.185-0.363-0.308
	c-1.271-1.055-2.434-2.229-3.562-3.432c-0.126-0.138-0.243-0.281-0.366-0.422c-0.241-0.309-0.892-1.111-1.095-1.408
	c-0.866-1.266-1.601-2.615-2.3-3.979c-0.026-0.053-0.049-0.105-0.074-0.158c0.013-0.027-0.543-1.354-0.691-1.789
	c-0.497-1.443-0.863-2.932-1.2-4.42c-0.13-0.603-0.247-1.208-0.354-1.816c-0.009-0.045-0.014-0.07-0.021-0.111
	c-0.005-0.05-0.008-0.083-0.015-0.139c-0.341-3.198-0.312-6.428-0.144-9.635c0.068-1.297,0.197-2.59,0.34-3.881
	C74.431,282.278,74.983,278.399,75.108,277.724z"/>
<path fill="none" stroke="#1F4D69" stroke-width="6" stroke-miterlimit="10" d="M117.818,136.804c0,0-56,65-73,122c0,0-11,70,17,79
	s71,13,99-1s37-27,29-67S117.818,136.804,117.818,136.804z"/>
<path fill="none" stroke="#1F4D69" stroke-width="6" stroke-linecap="round" stroke-miterlimit="10" d="M108.585,116.21
	c0,0-1.929,12.564-15.316,6.717"/>
<path fill="none" stroke="#1F4D69" stroke-width="6" stroke-linecap="round" stroke-miterlimit="10" d="M132.087,115.648
	c0,0,0.976,12.673,14.678,7.84"/>
<circle fill="#FFFFFF" cx="118.318" cy="123.304" r="59.5"/>
<path fill="#E0DFE6" d="M159.089,147.703c-4.719-4.719-13.771-5.386-18.385,0c-3.235,3.777-6.776,7.125-9.312,8.887
	c-1.677,1.165-3.462,2.163-5.27,3.109c-0.178,0.093-1.586,0.696-2.03,0.902c-0.79,0.283-1.587,0.543-2.388,0.792
	c-1.389,0.432-2.81,0.746-4.239,1.013c0.808-0.166-1.562,0.163-2.013,0.192c-1.064,0.068-2.131,0.051-3.196,0.034
	c-0.635-0.01-1.268-0.053-1.9-0.105c0.83,0.058-1.445-0.218-1.931-0.316c-1.824-0.37-3.602-0.934-5.35-1.566
	c1.541,0.526-2.453-1.221-3.119-1.594c-0.908-0.509-1.776-1.086-2.642-1.663c-0.177-0.118-0.324-0.214-0.446-0.293
	c-0.081-0.067-0.151-0.127-0.252-0.21c-1.361-1.122-2.604-2.378-3.811-3.662c-0.188-0.199-1.119-1.333-1.361-1.593
	c-0.408-0.583-0.804-1.173-1.192-1.769c-1.011-1.55-1.86-3.198-2.667-4.861c-0.04-0.082-0.065-0.133-0.101-0.204
	c-0.06-0.188-0.159-0.476-0.317-0.905c-0.402-1.096-0.722-2.22-1.042-3.341c-0.327-1.149-0.568-2.321-0.81-3.49
	c-0.072-0.347-0.128-0.607-0.173-0.803c-0.017-0.17-0.037-0.372-0.063-0.613c-0.276-2.573-0.271-5.167-0.183-7.75
	c0.241-7.086-6.096-13-13-13c-7.269,0-12.759,5.919-13,13c-0.843,24.823,12.998,41.962,36.333,51.333
	c23.228,9.328,48.233,5.104,63.859-13.141C163.694,160.71,164.386,153,159.089,147.703z"/>
<circle fill="none" stroke="#1F4D69" stroke-width="6" stroke-miterlimit="10" cx="117.318" cy="123.304" r="59.5"/>
<circle fill="#1F4D69" cx="96.73" cy="121.895" r="14.167"/>
<circle fill="#1F4D69" cx="137.73" cy="121.895" r="14.167"/>
<rect x="103.563" y="118.395" fill="#1F4D69" width="28" height="5.667"/>
</svg>
