<?xml version="1.0" encoding="utf-8"?>
<!-- Generator: Adobe Illustrator 15.1.0, SVG Export Plug-In . SVG Version: 6.00 Build 0)  -->
<!DOCTYPE svg PUBLIC "-//W3C//DTD SVG 1.1//EN" "http://www.w3.org/Graphics/SVG/1.1/DTD/svg11.dtd">
<svg version="1.1" id="Layer_1" xmlns="http://www.w3.org/2000/svg" xmlns:xlink="http://www.w3.org/1999/xlink" x="0px" y="0px"
	 width="260.987px" height="500.976px" viewBox="0 0 260.987 500.976" enable-background="new 0 0 260.987 500.976"
	 xml:space="preserve">
<path fill="#FFFFFF" d="M133.915,87.897c0,0-56,65-73,122c0,0-11,70,17,79s71,13,99-1s37-27,29-67S133.915,87.897,133.915,87.897z"
	/>
<path fill="none" stroke="#1F4D69" stroke-width="6" stroke-miterlimit="10" d="M88.915,147.897c0,0-72,40-60,150"/>
<path fill="none" stroke="#1F4D69" stroke-width="6" stroke-miterlimit="10" d="M169.915,143.897c0,0,82.917,40,69.098,150"/>
<path fill="none" stroke="#1F4D69" stroke-width="6" stroke-miterlimit="10" d="M110.915,295.897c0,0-19,90-9,188"/>
<path fill="none" stroke="#1F4D69" stroke-width="6" stroke-miterlimit="10" d="M153.915,295.897c0,0-15,90-5,188"/>
<path fill="#E0DFE6" d="M90.205,228.817c1.288-6.99,3.351-13.83,5.661-20.542c1.059-3.073,2.21-6.113,3.392-9.14
	c0.651-1.667,1.326-3.325,2.006-4.981c0.105-0.257,0.213-0.513,0.319-0.77c0.042-0.093,0.705-1.673,0.833-1.973
	c2.584-6.035,20.93-17.639,26.832-20.514c13-6.333,33.625-28.876,33.334-39.333c-0.086-3.084-43.709,5.735-45.204,3.786
	c0.722,0.175,1.447,0.314,2.174,0.456c-4.402-3.44-10.482-5.454-15.878-6.06c0.405,0.232,0.805,0.472,1.218,0.695
	c-5.807,0.652-11.06,4.709-10.972,12.206c-0.431,0.519-0.847,1.069-1.229,1.689c-15.967,25.883-26.708,54.112-30.518,84.322
	c-1.955,15.5-1.109,31.004,1.265,46.402c0.805,5.218,1.946,10.151,6.916,13.063c4.163,2.438,9.365,2.968,14.043,3.404
	c5.708,0.532,11.785,0.37,17.519,0.37c16.604,0,16.755-25.484,0.471-25.977c-0.279-0.167-0.562-0.328-0.839-0.499
	c-0.61-0.387-1.212-0.786-1.805-1.2c-0.12-0.082-0.207-0.14-0.302-0.203c-0.103-0.088-0.218-0.185-0.364-0.307
	c-1.27-1.055-2.433-2.229-3.561-3.432c-0.126-0.138-0.243-0.282-0.366-0.422c-0.242-0.308-0.892-1.111-1.095-1.408
	c-0.866-1.266-1.601-2.615-2.3-3.978c-0.026-0.053-0.049-0.106-0.074-0.159c0.013-0.027-0.543-1.354-0.692-1.789
	c-0.497-1.444-0.863-2.932-1.2-4.42c-0.13-0.603-0.247-1.208-0.353-1.816c-0.009-0.045-0.014-0.07-0.021-0.111
	c-0.005-0.05-0.008-0.083-0.014-0.139c-0.341-3.198-0.312-6.428-0.144-9.635c0.068-1.297,0.197-2.59,0.34-3.881
	C89.528,233.371,90.08,229.492,90.205,228.817z"/>
<path fill="none" stroke="#1F4D69" stroke-width="6" stroke-miterlimit="10" d="M132.915,87.897c0,0-56,65-73,122c0,0-11,70,17,79
	s71,13,99-1s37-27,29-67S132.915,87.897,132.915,87.897z"/>
<path fill="none" stroke="#1F4D69" stroke-width="6" stroke-miterlimit="10" d="M192.915,69.897c0,0,19,7,11,34s-4,40,14,46"/>
<path fill="#E0DFE6" d="M120.915,76.397c-33.666,1.833-30.551-44.51-33-42.167C72.582,48.897,72.186,82.132,74.047,87.687
	c0.144,0.428,0.306,0.847,0.455,1.272c0.029,3.452,1.514,6.933,3.916,9.418c5.492,11.237,13.428,20.93,23.984,27.541
	c6.609,0.332,14.58,2.838,19.723,7.55c14.674,2.253,29.975-2.208,42.019-11.013c2.852-2.085,13.836-6.459,14.771-9.558
	c6.264-7.707,6.035-13.562,11.5-22c2.892-4.465-1.406-49.973-4.498-45.335c-14.667,22-24.393,33.266-33.002,30.335"/>
<circle fill="none" stroke="#1F4D69" stroke-width="6" stroke-miterlimit="10" cx="132.415" cy="74.397" r="59.5"/>
<path fill="none" stroke="#1F4D69" stroke-width="6" stroke-linecap="round" stroke-miterlimit="10" d="M123.682,67.303
	c0,0-1.929,12.564-15.317,6.717"/>
<path fill="none" stroke="#1F4D69" stroke-width="6" stroke-linecap="round" stroke-miterlimit="10" d="M147.184,66.741
	c0,0,0.975,12.673,14.678,7.84"/>
</svg>
