<?xml version="1.0" encoding="utf-8"?>
<!-- Generator: Adobe Illustrator 15.1.0, SVG Export Plug-In . SVG Version: 6.00 Build 0)  -->
<!DOCTYPE svg PUBLIC "-//W3C//DTD SVG 1.1//EN" "http://www.w3.org/Graphics/SVG/1.1/DTD/svg11.dtd">
<svg version="1.1" id="Capa_1" xmlns="http://www.w3.org/2000/svg" xmlns:xlink="http://www.w3.org/1999/xlink" x="0px" y="0px"
	 width="241px" height="612px" viewBox="0 0 241 612" enable-background="new 0 0 241 612" xml:space="preserve">
<path id="XMLID_33_" fill="none" stroke="#1F4D69" stroke-width="6.0801" stroke-linecap="round" stroke-miterlimit="10" d="
	M176.505,570.827c0,0-20.001-89.689-16.11-198.563"/>
<path id="XMLID_32_" fill="none" stroke="#1F4D69" stroke-width="6.0801" stroke-linecap="round" stroke-miterlimit="10" d="
	M111.433,576.166c0,0-14.118-98.92-16.11-198.563"/>
<path id="XMLID_31_" fill="none" stroke="#1F4D69" stroke-width="6.0801" stroke-linecap="round" stroke-miterlimit="10" d="
	M76.499,209.358c12.399-3.982-60.71,36.5-54.284,177.684"/>
<path id="XMLID_30_" fill="none" stroke="#1F4D69" stroke-width="6.0801" stroke-linecap="round" stroke-miterlimit="10" d="
	M151.707,205.828c-12.762-2.806,62.334,19.187,69.031,166.435"/>
<g id="XMLID_26_">
	<path id="XMLID_29_" fill="#FFFFFF" d="M150.893,196.959c11.493,18.372,28.236,25.341,42.988,75.48
		c5.792,19.82,7.693,37.921,3.168,67.968c-1.629,10.77-25.25,30.409-51.496,36.11c-13.847,2.896-30.409,2.263-53.578,0.091
		c-8.417-0.725-42.174-6.154-45.704-30.861c-2.624-18.825-10.046-38.373-3.168-67.968c5.883-24.979,12.942-36.925,41.722-82.539
		c28.599-45.342,26.246-44.438,26.246-44.438S139.037,178.135,150.893,196.959z"/>
	<path id="XMLID_28_" fill="#E0DFE6" d="M61.747,239.133c4.344-10.227,10.589-19.549,14.661-29.775
		c2.172-5.34,5.249-13.304,11.403-15.476c1.086-0.996,0.312-2.172,1.67-2.624c-1.538-0.634,2.523-0.753,0.984-1.568
		c-1.72-0.905,2.111-3.656,0.301-4.742c10.136,2.172,15.044,0.607,23.913,6.309c-1.176-0.09-6.325,4.977-7.502,4.706
		c2.353,2.534,3.982,5.792,4.163,9.684c0.452,10.68-4.887,20.363-10.227,29.504c-8.96,15.114-15.204,27.875-16.562,45.523
		c-1.176,15.114,1.176,31.224,5.43,45.794c3.348,11.313,14.752,17.829,17.467,29.233c2.806,11.766-7.421,12.49-17.105,10.77
		c-2.262,0.725-4.978,0.362-6.335-1.538c-2.806-0.904-5.34-1.72-6.969-2.353c-19.639-8.146-26.97-24.164-29.142-43.713
		C44.914,291.444,50.887,264.384,61.747,239.133z"/>
	<path id="XMLID_27_" fill="none" stroke="#1F4D69" stroke-width="6.0801" stroke-linecap="round" stroke-miterlimit="10" d="
		M153.154,196.778c11.494,18.372,28.238,25.341,42.99,75.48c5.791,19.82,7.692,37.921,3.168,67.968
		c-1.629,10.771-25.25,30.409-51.496,36.111c-13.848,2.896-30.409,2.262-53.579,0.09c-8.417-0.724-42.174-6.153-45.704-30.86
		c-2.624-18.825-10.046-38.373-3.168-67.968c5.883-24.979,12.942-36.925,41.722-82.539c28.599-45.342,26.246-44.437,26.246-44.437
		S141.48,178.044,153.154,196.778z"/>
</g>
<circle id="XMLID_25_" fill="none" stroke="#1F4D69" stroke-width="6.0801" stroke-linecap="round" stroke-miterlimit="10" cx="115.506" cy="128.449" r="62.809"/>
<path id="XMLID_24_" fill="#E0DFE6" d="M110.709,190.533c-5.973-1.72-12.037-3.348-17.92-5.521c0.362-0.09,0.634-0.362,0.996-0.452
	c-1.538-0.634-3.168-1.267-4.706-2.082c-18.281-8.96-39.731-30.861-30.681-51.768c9.774-22.807,25.524-14.013,32.855-6.14
	c7.964,8.598,24.866,25.687,36.269,26.049c5.086,0.193,25.232-0.279,14.953,0c12.942-1.538,18.192-0.452,23.441-13.122
	c2.262-5.521,11.917-3.557,13.004,1.149c4.525-2.534-9.293,29.26-10.561,29.26c-21.026,18.772-38.373,23.893-58.646,20.906
	C109.804,189.447,110.257,189.991,110.709,190.533z"/>
<circle id="XMLID_23_" fill="none" stroke="#1F4D69" stroke-width="6.0801" stroke-linecap="round" stroke-miterlimit="10" cx="117.859" cy="128.267" r="62.809"/>
<path fill="none" stroke="#1F4D69" stroke-width="6.0801" stroke-linecap="round" stroke-miterlimit="10" d="M120.212,65.487
	c-19.875-19.875-66.557,4.483-72.235,42.341c-5.517,36.778,0.049,108.972-28.393,98.855c-33.125-11.783,0-44.908,12.304-16.089"/>
<path fill="none" stroke="#1F4D69" stroke-width="6.0801" stroke-linecap="round" stroke-miterlimit="10" d="M120.212,65.487
	c19.976-19.875,66.892,4.483,72.599,42.341c5.543,36.778-0.05,108.972,28.535,98.855c33.291-11.783,0-44.908-12.365-16.089"/>
<path fill="none" stroke="#1F4D69" stroke-width="6.0801" stroke-linecap="round" stroke-miterlimit="10" d="M108,117.5
	c0,0-3,16-19,10"/>
<path fill="none" stroke="#1F4D69" stroke-width="6.0801" stroke-linecap="round" stroke-miterlimit="10" d="M107.754,160.811
	c0,0,7.56-14.417,21.098-3.989"/>
<path fill="none" stroke="#1F4D69" stroke-width="6.0801" stroke-linecap="round" stroke-miterlimit="10" d="M151.172,132.045
	c0,0-16.024,2.866-16.085-14.222"/>
</svg>
