<?xml version="1.0" encoding="utf-8"?>
<!-- Generator: Adobe Illustrator 19.0.0, SVG Export Plug-In . SVG Version: 6.00 Build 0)  -->
<svg version="1.1" id="Capa_1" xmlns="http://www.w3.org/2000/svg" xmlns:xlink="http://www.w3.org/1999/xlink" x="0px" y="0px"
	 viewBox="-161 -44.5 637 649.5" style="enable-background:new -161 -44.5 637 649.5;" xml:space="preserve">
<style type="text/css">
	.st0{fill:#87D329;}
	.st1{fill:#FFFFFF;stroke:#87D329;stroke-width:4.2411;stroke-miterlimit:10;}
	.st2{fill:#FFFFFF;}
	.st3{fill:none;stroke:#87D329;stroke-width:5.6334;stroke-miterlimit:10;}
	.st4{fill:none;stroke:#87D329;stroke-width:5.7483;stroke-miterlimit:10;}
	.st5{fill:none;stroke:#87D329;stroke-width:5.0414;stroke-miterlimit:10;}
</style>
<path class="st0" d="M158.7-20.1c-165.8,0-300.7,134.4-300.7,300.7c0,165.8,134.4,300.7,300.7,300.7s300.7-134.4,300.7-300.7
	C459.4,114.3,324.6-20.1,158.7-20.1z M364,347.2l-45.8,14.4l14.8,45.4h-47.9v47.9l-45.4-14.8l-14.4,45.8l-38.6-28.4l-28,39l-28-39
	l-38.6,28.4l-14.4-45.8l-45.4,14.8V407h-47.9l14.8-45.4l-45.8-14.4l28.4-38.6l-39-28l39-28L-46.5,214l45.8-14.4l-14.8-45.4h47.9
	v-47.9l45.4,14.8l14.4-45.8l38.6,28.4l28-39l28,39l38.6-28.4l14.4,45.8l45.4-14.8v47.9h47.9l-14.8,45.4L364,214l-28.4,38.6l39,28
	l-39,28L364,347.2z"/>
<path class="st1" d="M158.7-28.2C-11.7-28.2-150,110.1-150,280.6s138.3,308.7,308.7,308.7s308.8-138.3,308.8-308.7
	C467.5,109.7,329.2-28.2,158.7-28.2z M158.7,494.8c-118.3,0-214.2-95.8-214.2-214.2S40.4,66.4,158.7,66.4s214.2,95.8,214.2,214.2
	S277.1,494.8,158.7,494.8z"/>
<circle id="XMLID_18_" class="st0" cx="-90.6" cy="304.3" r="8.5"/>
<circle id="XMLID_17_" class="st0" cx="411.3" cy="329.8" r="8.3"/>
<g>
	<g>
		<path class="st2" d="M401.3,390.4H-79.6c-29.7,0-53.9-24.2-53.9-53.9V229.3c0-29.7,24.2-53.9,53.9-53.9h480.9
			c29.7,0,53.9,24.2,53.9,53.9v107.3C454.8,366.3,431,390.4,401.3,390.4z"/>
		<circle id="XMLID_16_" class="st0" cx="417.9" cy="199.2" r="8.5"/>
		<circle id="XMLID_3_" class="st0" cx="409.4" cy="365" r="8.5"/>
		<circle id="XMLID_1_" class="st0" cx="-90.6" cy="200.9" r="8.5"/>
		<circle id="XMLID_4_" class="st0" cx="-86" cy="365" r="8.5"/>
		<g>
			<path class="st0" d="M-62.2,220.8c0-17,8.1-28.4,26.3-28.4c10.6,0,21.2,4.7,21.2,10.6c0,3-2.5,5.1-5.5,5.1
				c-2.1,0-2.5-0.8-4.2-1.7l-0.4-0.4c-3-2.1-5.9-3-10.2-3c-11,0-14.8,6.8-14.8,17.8v22.5c0,11,3.8,17.8,14.8,17.8
				c3.8,0,7.2-0.8,10.2-3l0.4-0.4c1.7-0.8,2.1-1.7,4.2-1.7c3.4,0,5.5,2.5,5.5,5.1c0,5.9-10.2,10.6-21.2,10.6
				c-18.2,0-26.3-11-26.3-28.4V220.8z"/>
			<path class="st0" d="M-6.2,251.8v-17.4c0-11.5,7.6-19.9,22.1-19.9s22.1,8.5,22.1,19.9v17.4c0,11-7.6,19.9-22.1,19.9
				S-6.2,263.2-6.2,251.8z M26,251.8v-17.4c0-5.9-3.4-9.3-10.2-9.3s-10.2,3.8-10.2,9.3v17.4c0,5.9,3.4,9.8,10.2,9.8
				S26,257.7,26,251.8z"/>
			<path class="st0" d="M62.5,266.2c0,3-2.1,5.5-5.9,5.5s-5.9-2.5-5.9-5.5V231c0-4.7-0.8-5.1-1.3-5.9c-0.8-1.3-1.3-2.1-1.3-3.4
				c0-3,2.5-5.1,5.5-5.1c2.1,0,3.8,1.3,5.1,3.4c5.1-3.4,10.2-4.7,15.3-4.7c12.7,0,19.1,8.5,19.1,21.2v30.1c0,3-2.1,5.5-5.9,5.5
				s-5.9-2.5-5.9-5.5v-30.1c0-6.8-3.4-11-8.5-11c-3.4,0-6.8,1.3-10.2,3.4c0.4,0.8,0.4,1.7,0.4,2.5v34.8H62.5z"/>
			<path class="st0" d="M108.3,204.3c0-3,2.1-5.5,5.9-5.5c3.8,0,5.9,2.5,5.9,5.5v13.6h9.8c3,0,5.5,2.1,5.5,5.5c0,3-2.5,5.1-5.5,5.1
				h-9.8v19.1c0,9.8,0.8,13.1,7.6,13.1c0.8,0,1.7,0,2.1,0c4.7,0,7.2,1.3,7.2,5.1c0,5.1-4.2,5.5-8.5,5.5c-16.1,0-20.4-8.1-20.4-22.9
				V204.3z"/>
			<path class="st0" d="M155.4,248.8v5.1c0,5.1,3.4,8.1,10.2,8.1c4.2,0,7.2-1.3,10.6-2.5c0.4-0.4,1.3-0.4,2.5-0.4
				c3.8,0,5.5,2.5,5.5,5.1c0,6.8-13.1,8.5-19.5,8.5c-13.6,0-21.2-8.1-21.2-18.7v-19.5c0-10.6,7.6-19.1,21.6-19.1
				c13.1,0,19.9,7.2,19.9,18.2c0,10.2-5.9,16.5-19.9,16.5C162.1,249.2,158.7,249.2,155.4,248.8z M165.1,224.6
				c-5.9,0-9.8,3.4-9.8,8.5v6.4c3.8,0.4,8.1,0.8,9.8,0.8c6.4,0,8.5-3,8.5-7.6C173.2,226.7,170.2,224.6,165.1,224.6z"/>
			<path class="st0" d="M208.8,266.2c0,3-2.1,5.5-5.9,5.5c-3.8,0-5.9-2.5-5.9-5.5V231c0-4.7-0.8-5.1-1.3-5.9
				c-0.8-1.3-1.3-2.1-1.3-3.4c0-3,2.5-5.1,5.5-5.1c2.1,0,3.8,1.3,5.1,3.4c5.1-3.4,10.2-4.7,15.3-4.7c12.7,0,19.1,8.5,19.1,21.2v30.1
				c0,3-2.1,5.5-5.9,5.5s-5.9-2.5-5.9-5.5v-30.1c0-6.8-3.4-11-8.5-11c-3.4,0-6.8,1.3-10.2,3.4c0.4,0.8,0.4,1.7,0.4,2.5v34.8H208.8z"
				/>
			<path class="st0" d="M261.4,205.5c-3.8,0-6.8-3-6.8-6.4c0-3.8,3-6.4,6.8-6.4c3.8,0,6.8,3,6.8,6.4
				C268.2,202.6,265.2,205.5,261.4,205.5z M261.4,271.7c-3.4,0-5.9-2.1-5.9-5.5v-45.8c0-3,2.5-5.5,5.9-5.5c3.4,0,5.9,2.5,5.9,5.5
				v45.8C267.3,269.6,264.8,271.7,261.4,271.7z"/>
			<path class="st0" d="M311.4,217.4v-20.4c0-3,2.1-5.5,5.9-5.5c3.8,0,5.9,2.5,5.9,5.5v60.6c0,2.1,0.8,3.8,2.5,5.1
				c0.8,0.8,1.3,1.7,1.3,3c0,3.4-3,5.1-5.5,5.1c-2.5,0-4.7-1.7-6.4-3.8c-5.1,2.5-10.2,4.7-15.3,4.7c-12.3,0-18.7-8.5-18.7-21.2
				v-13.1c0-13.1,4.7-22.5,19.5-22.5C304.2,215.3,307.6,215.7,311.4,217.4z M311.4,227.2c-3.4-1.3-7.2-1.7-9.8-1.7
				c-6.8,0-8.9,3.8-8.9,12.3v13.1c0,7.2,3,11,8.9,11c3,0,6.4-0.8,10.2-2.5c-0.4-0.8-0.4-1.7-0.4-2.1V227.2z"/>
			<path class="st0" d="M337.3,251.8v-17.4c0-11.5,7.6-19.9,22.1-19.9c14.4,0,22.1,8.5,22.1,19.9v17.4c0,11-7.6,19.9-22.1,19.9
				C344.9,271.7,337.3,263.2,337.3,251.8z M369.5,251.8v-17.4c0-5.9-3.4-9.3-10.2-9.3c-6.8,0-10.2,3.8-10.2,9.3v17.4
				c0,5.9,3.4,9.8,10.2,9.8C366.1,261.5,369.5,257.7,369.5,251.8z"/>
			<path class="st0" d="M81.6,318.3c-4.7,13.6-9.3,27.1-14,40.7c-1.3,4.2-3.4,5.9-7.2,5.9c-3.8,0-5.9-1.7-7.2-5.5
				c-4.7-13.6-9.3-27.1-14-41.1l-1.3-4.2c0-0.4,0-0.4,0-0.8c0-3,3-5.1,5.9-5.1c2.1,0,4.7,1.3,5.5,3.8c2.1,6.4,4.2,13.1,5.9,19.5
				c2.1,6.4,3.4,13.1,5.1,19.5c1.7-6.4,3-13.1,5.1-19.5c2.1-6.4,3.8-13.1,5.9-19.5c0.8-2.1,3.4-3.8,5.5-3.8c3,0,5.5,2.1,5.5,5.1
				c0,0.4,0,0.4,0,0.8L81.6,318.3z"/>
			<path class="st0" d="M99.4,298.8c-3.8,0-6.8-3-6.8-6.4c0-3.8,3-6.4,6.8-6.4s6.8,3,6.8,6.4C106.2,295.9,103.2,298.8,99.4,298.8z
				 M99.4,365c-3.4,0-5.9-2.1-5.9-5.5v-45.8c0-3,2.5-5.5,5.9-5.5s5.9,2.5,5.9,5.5v45.8C105.3,362.9,102.8,365,99.4,365z"/>
			<path class="st0" d="M138.8,308.2c6.4,0,15.7,1.7,15.7,8.1c0,3-2.1,4.7-4.7,4.7c-3.4,0-5.1-2.5-11-2.5c-2.5,0-7.6,0.4-7.6,5.1
				c0,10.6,25.4,5.5,25.4,25c0,10.2-6.8,16.5-19.9,16.5c-6.4,0-17.8-1.3-17.8-7.2c0-2.1,1.3-6.4,5.9-5.1c2.1,0.4,6.8,2.5,11.5,2.5
				c5.1,0,8.9-2.5,8.9-6.4c0-10.2-25.4-4.7-25.4-24.2C119.3,314.5,126.1,308.2,138.8,308.2z"/>
			<path class="st0" d="M167.2,297.6c0-3,2.1-5.5,5.9-5.5s5.9,2.5,5.9,5.5v13.6h9.8c3,0,5.5,2.1,5.5,5.5c0,3-2.5,5.1-5.5,5.1h-9.8
				v19.1c0,9.8,0.8,13.1,7.6,13.1c0.8,0,1.7,0,2.1,0c4.7,0,7.2,1.3,7.2,5.1c0,5.1-4.2,5.5-8.5,5.5c-16.1,0-20.4-8.1-20.4-22.9V297.6
				z"/>
			<path class="st0" d="M202.4,345.1v-17.4c0-11.5,7.6-19.9,22.1-19.9c14.4,0,22.1,8.5,22.1,19.9v17.4c0,11-7.6,19.9-22.1,19.9
				C210.1,365,202.4,356.5,202.4,345.1z M234.7,345.1v-17.4c0-5.9-3.4-9.3-10.2-9.3s-10.2,3.8-10.2,9.3v17.4c0,5.9,3.4,9.8,10.2,9.8
				S234.7,351,234.7,345.1z"/>
		</g>
	</g>
	<line class="st3" x1="-118.2" y1="175.4" x2="436.1" y2="175.4"/>
	<line class="st4" x1="-115.2" y1="390.4" x2="432.7" y2="390.4"/>
</g>
<circle id="XMLID_2_" class="st0" cx="5.6" cy="78.8" r="8.5"/>
<circle id="XMLID_5_" class="st0" cx="324.3" cy="87.1" r="8.5"/>
<circle id="XMLID_6_" class="st0" cx="-6.4" cy="474.4" r="8.3"/>
<circle id="XMLID_7_" class="st0" cx="311.9" cy="494.8" r="8.3"/>
<circle class="st5" cx="158.7" cy="280.6" r="296"/>
<g>
	<path class="st0" d="M27.8,519.9c-1,1-2.5,1.2-3.4,0.7c-1.5-0.7-2.2-2.3-1.4-3.9c0.1-0.3,0.4-0.7,0.6-0.9l32.1-33.3
		c1.5-1.6,3.2-2.7,5-1.8c1.9,0.9,2,2.7,1.7,5l-7.3,45.4c0,0.2-0.2,0.8-0.4,1c-0.8,1.5-2.4,2-3.9,1.2c-1-0.5-1.8-1.8-1.5-3.1
		l1.7-10.2l-16.1-7.9L27.8,519.9z M38.9,508.1l13.1,6.4l4.3-24.8L38.9,508.1z"/>
	<path class="st0" d="M69.5,515.1c2.5-6.9,8-11.1,16.4-8.2c3.1,1.1,9,4.2,7.8,7.3c-0.4,1.2-1.8,1.9-3.1,1.5c-0.3-0.1-0.6-0.3-1-0.6
		c-1.3-1.4-2.5-2.6-4.9-3.4c-5.2-1.8-8.3,0.3-10.1,5.2l-3.6,10.1c-1.8,4.9-0.7,8.4,4.5,10.2c2.3,0.8,4.1,0.6,6,0.3
		c0.5,0,0.8,0.1,1.1,0.2c1.3,0.4,1.9,1.9,1.5,3.1c-1.1,3.2-7.6,2-10.8,0.9c-8.4-2.9-10-9.6-7.6-16.5L69.5,515.1z"/>
	<path class="st0" d="M103.3,504.1c0.4-1.4,1.6-2.4,3.4-2c1.7,0.4,2.4,1.8,2,3.3l-2.4,9.5l7.2,1.7c1.4,0.3,2.2,1.7,1.8,3.2
		c-0.4,1.4-1.8,2.3-3.1,1.9L105,520l-3.5,13.7c-1.8,7.1-1.8,9.9,3.2,11.1c0.4,0.1,0.9,0.1,1.3,0.2c1.6,0.4,3.5,1.1,3,3.4
		c-0.6,2.3-2.7,2.1-4.6,1.7c-9.6-2.3-10.8-7.7-8.4-17.2L103.3,504.1z"/>
	<path class="st0" d="M119.9,553.3c-1.5-0.3-2.5-1.6-2.3-3.2l5.4-30.9c0.3-1.5,1.7-2.5,3.2-2.3c1.5,0.3,2.5,1.7,2.3,3.2l-5.4,30.9
		C122.8,552.6,121.4,553.6,119.9,553.3z M127.5,509.4c-1.9-0.3-3.1-2.1-2.8-3.9c0.3-1.9,2.1-3.1,4-2.8c1.9,0.3,3.1,2,2.8,3.9
		C131.2,508.4,129.4,509.7,127.5,509.4z"/>
	<path class="st0" d="M149.8,553.3c-1,2.3-2,3.2-3.9,3.1c-1.9-0.1-2.8-1.2-3.3-3.5l-7.3-30.9c-0.4-1.7,1.3-3.2,3-3.1
		c1.1,0.1,2,0.8,2.3,2l6.1,27.3l10.4-26.1c0.4-1,1.6-1.7,2.6-1.7c1.7,0.1,3,1.9,2.3,3.7L149.8,553.3z"/>
	<path class="st0" d="M171.7,557.1c-1.6,0-2.8-1.2-2.8-2.7l-0.2-31.3c0-1.5,1.2-2.8,2.8-2.8c1.6,0,2.8,1.2,2.8,2.7l0.2,31.3
		C174.5,555.8,173.3,557,171.7,557.1z M171.5,512.5c-1.9,0-3.4-1.5-3.4-3.3c0-1.9,1.5-3.4,3.4-3.5c1.9,0,3.4,1.4,3.4,3.3
		C174.9,510.9,173.4,512.5,171.5,512.5z"/>
	<path class="st0" d="M202.8,519.4l-1.4-13.8c-0.2-1.5,0.7-2.8,2.5-3c1.8-0.2,2.9,0.9,3,2.4l4.2,40.4c0.2,2,0.8,3.1,2.3,4
		c0.3,0.4,0.6,0.7,0.6,1.4c0.2,1.5-1,2.6-2.2,2.7c-1.6,0.2-3-0.6-4-1.8c-3,1.9-6.2,3.5-9.8,3.9c-7.4,0.8-11.8-4.1-12.6-12l-0.9-8.9
		c-0.9-8.4,1.4-14.6,10.3-15.6C197.1,518.7,200.2,518.8,202.8,519.4z M203.3,524.3c-2.4-0.7-5.6-0.9-7.3-0.7
		c-5.2,0.6-6.7,3.7-6,10.2l0.9,8.9c0.6,5.5,3.1,8.1,7.7,7.6c2.3-0.3,4.9-1.3,7.2-2.9c-0.2-0.5-0.3-1.1-0.3-1.6L203.3,524.3z"/>
	<path class="st0" d="M237.5,523.7c-1.1-5-4.1-6.8-9.1-5.7c-2.4,0.6-3.6,1.5-5,2.7c-0.2,0.1-0.9,0.8-1.7,1c-1.3,0.3-2.2-0.8-2.5-1.8
		c-1-3.1,3.9-5.6,8.7-6.7c8.7-2,13.2,2,15.3,11.1l3.4,15.2c0.3,1.4,0.9,2,1.7,1.8c0.2,0,0.3-0.1,0.5-0.2c1.3-0.3,2.3,0.7,2.5,1.9
		c0.4,1.7-1.1,2.7-2.6,3.1c-2.3,0.5-4.5-0.3-6-2.2c-2.1,3-5,5-8.7,5.9c-7.2,1.7-11.6-1.8-12.9-8l-0.1-0.3c-1.5-6.8,1.8-11.2,10-13.1
		c2.5-0.6,4.9-0.8,7.2-0.7L237.5,523.7z M226.5,540.2l0.1,0.3c0.7,3.2,2.7,5.2,7.3,4.1c3-0.7,5.1-2.2,7.1-4.8l-1.7-7.5
		c-2.4-0.2-5.2,0.1-7.3,0.6C226.4,534.2,225.9,537.1,226.5,540.2z"/>
	<path class="st0" d="M267.6,503.1l-4.5-13.1c-0.5-1.4,0.1-2.9,1.8-3.5c1.7-0.6,3,0.2,3.5,1.6l13,38.4c0.6,1.9,1.4,2.9,3.1,3.4
		c0.4,0.3,0.7,0.6,0.9,1.2c0.5,1.4-0.4,2.8-1.6,3.2c-1.6,0.5-3.1,0.1-4.3-0.9c-2.5,2.5-5.3,4.8-8.7,5.9c-7.1,2.5-12.5-1.4-15-8.9
		l-2.9-8.5c-2.7-8-1.9-14.5,6.7-17.4C261.9,503.6,264.9,503.1,267.6,503.1z M269.2,507.8c-2.5-0.2-5.7,0.4-7.3,1
		c-4.9,1.7-5.7,5.1-3.6,11.3l2.9,8.5c1.8,5.2,4.8,7.2,9.2,5.7c2.2-0.7,4.5-2.4,6.4-4.4c-0.3-0.5-0.5-1-0.7-1.5L269.2,507.8z"/>
</g>
<g>
	<path class="st0" d="M60,73.6c0.1,1.3-0.7,2.6-1.6,3c-1.5,0.6-3.2,0.1-3.8-1.4c-0.1-0.3-0.3-0.8-0.3-1l-4.4-45.3
		c-0.2-2.2,0-4.1,1.9-4.9c1.9-0.8,3.4,0.2,4.9,2l29.6,34.5c0.1,0.2,0.4,0.7,0.5,0.9c0.7,1.6-0.1,3.1-1.6,3.7c-1,0.4-2.5,0.2-3.4-0.9
		l-6.6-7.8l-16.4,7L60,73.6z M58.3,57.7l13.3-5.7L55.6,33L58.3,57.7z"/>
	<path class="st0" d="M84.8,40.6c-1.9-7,0.4-13.5,8.8-15.7c3.2-0.8,9.7-1.5,10.5,1.6c0.3,1.2-0.4,2.6-1.7,2.9
		c-0.3,0.1-0.7,0.1-1.1,0.1c-1.8-0.4-3.5-0.7-5.9-0.1c-5.3,1.4-6.6,4.8-5.3,9.8l2.7,10.3c1.3,5,4.2,7.3,9.5,5.8
		c2.4-0.6,3.7-1.8,5.1-3c0.4-0.2,0.7-0.4,1-0.5c1.3-0.3,2.6,0.5,2.9,1.7c0.8,3.2-5.2,5.8-8.3,6.6c-8.5,2.2-13.6-2.3-15.5-9.3
		L84.8,40.6z"/>
	<path class="st0" d="M111,13.2c-0.2-1.5,0.6-2.8,2.3-3.1c1.7-0.3,2.9,0.8,3.1,2.2l1.5,9.6l7.2-1.1c1.4-0.2,2.7,0.7,2.9,2.2
		c0.2,1.5-0.7,2.7-2.1,3l-7.2,1.1l2.2,13.8c1.1,7.1,2.2,9.7,7.2,8.9c0.4-0.1,0.9-0.2,1.3-0.3c1.6-0.3,3.6-0.3,4,1.9
		c0.4,2.4-1.6,3-3.5,3.3c-9.7,1.5-12.8-2.9-14.3-12.5L111,13.2z"/>
	<path class="st0" d="M138.7,9.7c-1.9,0.1-3.5-1.3-3.6-3.1c-0.1-1.9,1.2-3.5,3.1-3.6c1.9-0.1,3.5,1.2,3.6,3.1
		C141.9,7.9,140.6,9.6,138.7,9.7z M142.2,53.7c-1.5,0.1-2.8-1-3-2.5l-2.4-30.9c-0.1-1.5,1-2.8,2.5-2.9c1.5-0.1,2.8,1,2.9,2.5
		l2.4,30.9C144.8,52.3,143.7,53.6,142.2,53.7z"/>
	<path class="st0" d="M167.9,49.7c-0.8,2.3-1.8,3.3-3.6,3.3c-1.9,0-2.8-1-3.6-3.3l-9.5-30.1c-0.5-1.7,1.1-3.2,2.7-3.2
		c1.1,0,2,0.7,2.4,1.9l8,26.6l8.3-26.4c0.4-1.1,1.4-1.8,2.5-1.8c1.7,0,3.1,1.6,2.6,3.5L167.9,49.7z"/>
	<path class="st0" d="M185.8,54.2c-1.5-0.2-2.6-1.5-2.4-3l3.3-30.8c0.2-1.5,1.5-2.6,3-2.4c1.5,0.2,2.6,1.5,2.4,3l-3.3,30.8
		C188.7,53.3,187.4,54.4,185.8,54.2z M190.5,10.3c-1.9-0.2-3.2-1.9-3-3.7c0.2-1.9,1.8-3.2,3.7-3c1.9,0.2,3.2,1.8,3,3.7
		C194,9.2,192.4,10.5,190.5,10.3z"/>
	<path class="st0" d="M223.1,25.2l3-13.4c0.3-1.4,1.5-2.4,3.3-2c1.7,0.4,2.4,1.8,2.1,3.2l-8.9,39.3c-0.4,1.9-0.3,3.2,0.9,4.5
		c0.2,0.5,0.3,0.9,0.2,1.5c-0.3,1.4-1.8,2.1-2.9,1.9c-1.6-0.4-2.6-1.5-3.1-3c-3.4,0.8-6.9,1.2-10.3,0.5c-7.2-1.6-9.7-7.7-8-15.4
		l2-8.7c1.8-8.2,5.9-13.2,14.6-11.3C218,22.7,220.8,23.8,223.1,25.2z M222,30c-2-1.5-5-2.6-6.6-3c-5-1.1-7.4,1.3-8.9,7.7l-2,8.7
		c-1.2,5.3,0.3,8.6,4.8,9.7c2.2,0.5,5,0.3,7.7-0.4c0-0.6,0.1-1.1,0.2-1.6L222,30z"/>
	<path class="st0" d="M253.7,46.8c1.9-4.8,0.5-7.9-4.2-9.8c-2.3-0.9-3.8-0.8-5.5-0.6c-0.2,0-1.2,0.1-1.9-0.2c-1.2-0.5-1.3-1.9-1-2.9
		c0.9-3.1,6.3-2.4,10.8-0.6c8.2,3.2,9.6,9.1,6.2,17.7l-5.7,14.4c-0.5,1.3-0.4,2.1,0.4,2.4c0.2,0.1,0.3,0,0.6,0.1
		c1.2,0.5,1.4,1.9,1,3c-0.6,1.6-2.4,1.6-3.8,1.1c-2.2-0.9-3.4-2.8-3.6-5.2c-3.4,1.3-6.8,1.3-10.3-0.1c-6.7-2.7-8.4-8-6.1-13.8
		l0.1-0.3c2.5-6.4,7.6-8.2,15.3-5.1c2.4,0.9,4.4,2.1,6.2,3.5L253.7,46.8z M235.7,54.2l-0.1,0.3c-1.2,3.1-0.7,5.8,3.7,7.5
		c2.8,1.1,5.4,1.1,8.5,0l2.8-7.1c-1.9-1.5-4.3-2.8-6.3-3.6C238.9,49.2,236.9,51.2,235.7,54.2z"/>
	<path class="st0" d="M291.1,54.4l7.1-11.8c0.8-1.3,2.2-1.8,3.7-0.9c1.5,0.9,1.7,2.4,1,3.7l-20.8,34.5c-1,1.7-1.3,2.9-0.6,4.6
		c0,0.5,0,0.9-0.3,1.5c-0.8,1.3-2.4,1.5-3.4,0.8c-1.4-0.8-2-2.3-2-3.9c-3.4-0.3-7-1-10-2.8c-6.3-3.8-6.8-10.4-2.7-17.1l4.6-7.6
		c4.3-7.2,9.7-10.7,17.4-6.1C287.1,50.4,289.3,52.4,291.1,54.4z M288.5,58.6c-1.5-2-3.9-4.1-5.3-4.9c-4.4-2.7-7.5-1.1-10.8,4.5
		l-4.6,7.6c-2.8,4.7-2.5,8.3,1.5,10.7c1.9,1.2,4.7,1.9,7.4,2.1c0.2-0.6,0.5-1,0.7-1.5L288.5,58.6z"/>
</g>
</svg>
