<?xml version="1.0" encoding="utf-8"?>
<!-- Generator: Adobe Illustrator 17.0.0, SVG Export Plug-In . SVG Version: 6.00 Build 0)  -->
<!DOCTYPE svg PUBLIC "-//W3C//DTD SVG 1.1//EN" "http://www.w3.org/Graphics/SVG/1.1/DTD/svg11.dtd">
<svg version="1.1" id="Capa_1" xmlns="http://www.w3.org/2000/svg" xmlns:xlink="http://www.w3.org/1999/xlink" x="0px" y="0px"
	 width="762.068px" height="762.732px" viewBox="129.109 896.759 762.068 762.732"
	 enable-background="new 129.109 896.759 762.068 762.732" xml:space="preserve">
<g id="XMLID_1093_">
	<path id="XMLID_1091_" fill="#04A7DB" d="M151.208,1314.219C129.15,1085.623,319.646,895.127,546.236,919.19
		c168.439,16.042,304.794,152.397,322.841,322.841c22.057,228.595-168.439,419.091-395.029,395.028
		C303.604,1619.012,167.249,1482.657,151.208,1314.219z"/>
	<g id="XMLID_1094_">
		<path id="XMLID_1092_" fill="#F7F6F6" d="M622.385,1278.125l-220.574-164.429c-10.026-8.021-18.047-20.052-18.047-34.089
			c0-24.063,16.042-46.12,32.084-34.089l244.637,188.491c14.037,12.031,26.068,20.052,26.068,46.12s-12.031,32.084-26.068,44.115
			l-244.638,188.492c-16.042,12.031-32.084-10.026-32.084-34.089c0-12.031,8.021-26.068,18.047-32.084L622.385,1278.125z"/>
	</g>
</g>
</svg>
