<?xml version="1.0" encoding="utf-8"?>
<!-- Generator: Adobe Illustrator 17.0.0, SVG Export Plug-In . SVG Version: 6.00 Build 0)  -->
<!DOCTYPE svg PUBLIC "-//W3C//DTD SVG 1.1//EN" "http://www.w3.org/Graphics/SVG/1.1/DTD/svg11.dtd">
<svg version="1.1" id="Capa_1" xmlns="http://www.w3.org/2000/svg" xmlns:xlink="http://www.w3.org/1999/xlink" x="0px" y="0px"
	 width="1140.114px" height="343.483px" viewBox="0 0 1140.114 343.483" enable-background="new 0 0 1140.114 343.483"
	 xml:space="preserve">
<rect id="XMLID_448_" x="0" y="0" opacity="0.8" fill="#214D6A" width="1140.114" height="343.483"/>
<g id="XMLID_447_">
	<g id="XMLID_1076_">
		<path id="XMLID_177_" fill="#FFFFFF" stroke="#214D6A" stroke-width="4.5093" stroke-miterlimit="10" d="M585.329,288.289h-293.24
			c-3.3,0-6-2.7-6-6v-28.082c0-3.3,2.7-6,6-6h293.24c3.3,0,6,2.7,6,6v28.082C591.329,285.589,588.629,288.289,585.329,288.289z"/>
	</g>
	<g id="XMLID_444_">
		<path id="XMLID_818_" fill="#FFFFFF" stroke="#214D6A" stroke-width="4.5093" stroke-miterlimit="10" d="M147.053,90.884H71.874
			c-3.3,0-6-2.7-6-6V56.801c0-3.3,2.7-6,6-6h75.179c3.3,0,6,2.7,6,6v28.082C153.053,88.184,150.353,90.884,147.053,90.884z"/>
		<g id="XMLID_135_">
			<path id="XMLID_137_" fill="#214D6A" d="M91.195,82.615h-7.968c-1.233,0-2.346-0.421-2.346-1.775v-17.65
				c0-0.872,0.782-1.773,1.864-1.773h8.148c0.903,0,1.654,0.721,1.654,1.593c0,0.872-0.752,1.503-1.654,1.503h-6.705v5.924h6.134
				c0.812,0,1.623,0.661,1.623,1.534c0,0.872-0.721,1.563-1.623,1.563h-6.134v6.014h7.006c0.872,0,1.654,0.661,1.654,1.472
				C92.849,81.924,92.097,82.615,91.195,82.615z"/>
			<path id="XMLID_139_" fill="#214D6A" d="M100.753,67.191c1.775,0,4.33,0.451,4.33,2.194c0,0.812-0.542,1.233-1.324,1.233
				c-0.961,0-1.412-0.662-3.006-0.662c-0.752,0-2.134,0.15-2.134,1.443c0,2.947,7.005,1.505,7.005,6.886
				c0,2.796-1.894,4.54-5.472,4.54c-1.713,0-4.901-0.39-4.901-1.985c0-0.54,0.361-1.773,1.684-1.443
				c0.542,0.12,1.835,0.691,3.097,0.691c1.353,0,2.406-0.661,2.406-1.744c0-2.826-7.006-1.323-7.006-6.645
				C95.431,68.995,97.235,67.191,100.753,67.191z"/>
			<path id="XMLID_141_" fill="#214D6A" d="M108.147,72.904c0-3.157,1.773-5.623,5.802-5.623c1.594,0,4.66,0.421,4.66,2.225
				c0,0.631-0.42,1.262-1.443,1.262c-0.241,0-0.451-0.029-0.752-0.12c-0.662-0.301-1.233-0.6-2.225-0.6
				c-2.014,0-2.796,1.051-2.796,2.856v4.299c0,1.804,0.782,2.886,2.796,2.886c0.992,0,1.563-0.301,2.225-0.6
				c0.241-0.091,0.421-0.151,0.722-0.151c1.052,0,1.472,0.662,1.472,1.293c0,1.775-3.066,2.225-4.69,2.225
				c-4,0-5.773-2.495-5.773-5.653V72.904z"/>
		</g>
	</g>
	<g id="XMLID_871_">
		<path id="XMLID_872_" fill="#FFFFFF" stroke="#214D6A" stroke-width="4.5093" stroke-miterlimit="10" d="M207.177,90.884h-39.105
			c-3.3,0-6-2.7-6-6V56.801c0-3.3,2.7-6,6-6h39.105c3.3,0,6,2.7,6,6v28.082C213.177,88.184,210.477,90.884,207.177,90.884z"/>
		<path id="XMLID_143_" fill="#214D6A" d="M185.977,65.267l-3.037,1.924c-0.511,0.299-0.992,0.6-1.563,0.6
			c-0.691,0-1.474-0.451-1.474-1.383c0-0.602,0.27-1.083,0.722-1.353l5.954-3.637c0.33-0.211,0.6-0.272,0.932-0.272
			c0.992,0,1.773,0.722,1.773,1.654v18.521c0,0.812-0.752,1.563-1.654,1.563c-0.932,0-1.653-0.752-1.653-1.563V65.267z"/>
	</g>
	<g id="XMLID_911_">
		<path id="XMLID_873_" fill="#FFFFFF" stroke="#214D6A" stroke-width="4.5093" stroke-miterlimit="10" d="M269.185,90.884H230.08
			c-3.3,0-6-2.7-6-6V56.801c0-3.3,2.7-6,6-6h39.105c3.3,0,6,2.7,6,6v28.082C275.185,88.184,272.485,90.884,269.185,90.884z"/>
		<path id="XMLID_183_" fill="#214D6A" d="M252.985,82.615h-9.892c-0.992,0-1.685-0.691-1.685-1.623c0-0.39,0.031-0.903,0.211-1.293
			c1.113-2.526,3.127-4.451,5.142-6.344c1.864-1.775,4.48-3.668,4.48-6.255c0-1.833-1.143-3.307-3.278-3.307
			c-1.082,0-1.924,0.181-2.707,0.511c-0.691,0.301-1.262,0.843-1.954,0.843c-0.812,0-1.594-0.602-1.594-1.474
			c0-1.864,4.029-2.827,6.284-2.827c4.089,0,6.495,2.647,6.495,5.924c0,2.525-0.961,4.21-2.285,5.622
			c-2.225,2.437-5.142,4.511-6.705,7.217h7.488c0.901,0,1.623,0.661,1.623,1.503C254.608,81.953,253.886,82.615,252.985,82.615z"/>
	</g>
	<g id="XMLID_922_">
		<path id="XMLID_874_" fill="#FFFFFF" stroke="#214D6A" stroke-width="4.5093" stroke-miterlimit="10" d="M331.194,90.884h-39.105
			c-3.3,0-6-2.7-6-6V56.801c0-3.3,2.7-6,6-6h39.105c3.3,0,6,2.7,6,6v28.082C337.194,88.184,334.494,90.884,331.194,90.884z"/>
		<path id="XMLID_185_" fill="#214D6A" d="M312.536,69.896c3.276,0.33,5.622,2.466,5.622,5.954c0,3.187-2.014,7.006-6.795,7.006
			c-1.324,0-6.014-0.33-6.014-2.526c0-0.812,0.661-1.503,1.532-1.503c1.083,0,2.045,1.142,4.06,1.142
			c3.006,0,3.938-2.105,3.938-3.969c0-2.375-1.593-3.307-3.758-3.307c-0.843,0-0.992,0.33-1.684,0.33
			c-0.782,0-1.414-0.691-1.414-1.443c0-0.241,0.06-0.661,0.15-0.812l4.932-6.224h-5.744c-0.932,0-1.623-0.691-1.623-1.534
			c0-0.721,0.691-1.623,1.623-1.623h8.389c0.903,0,1.744,0.691,1.744,1.714c0,0.42-0.15,0.781-0.39,1.113
			C315.571,66.108,314.039,68.003,312.536,69.896z"/>
	</g>
	<g id="XMLID_931_">
		<path id="XMLID_875_" fill="#FFFFFF" stroke="#214D6A" stroke-width="4.5093" stroke-miterlimit="10" d="M393.203,90.884h-39.105
			c-3.3,0-6-2.7-6-6V56.801c0-3.3,2.7-6,6-6h39.105c3.3,0,6,2.7,6,6v28.082C399.203,88.184,396.503,90.884,393.203,90.884z"/>
		<path id="XMLID_187_" fill="#214D6A" d="M379.062,81.353c0,0.872-0.722,1.532-1.623,1.532c-0.932,0-1.625-0.661-1.625-1.532
			v-3.037h-7.065c-0.992,0-1.684-0.782-1.684-1.654c0-0.12,0.09-0.602,0.27-0.932l5.773-13.892c0.241-0.571,0.841-0.932,1.443-0.932
			c0.782,0,1.623,0.722,1.623,1.563c0,0.151,0,0.332-0.09,0.542c-0.872,2.015-4.27,10.284-5.142,12.298h4.87v-5.231
			c0-0.872,0.693-1.534,1.625-1.534c0.872,0,1.623,0.662,1.623,1.534v5.231h0.841c0.872,0,1.565,0.691,1.565,1.505
			c0,0.841-0.693,1.503-1.565,1.503h-0.841V81.353z"/>
	</g>
	<g id="XMLID_932_">
		<path id="XMLID_876_" fill="#FFFFFF" stroke="#214D6A" stroke-width="4.5093" stroke-miterlimit="10" d="M455.211,90.884h-39.105
			c-3.3,0-6-2.7-6-6V56.801c0-3.3,2.7-6,6-6h39.105c3.3,0,6,2.7,6,6v28.082C461.211,88.184,458.511,90.884,455.211,90.884z"/>
		<path id="XMLID_211_" fill="#214D6A" d="M434.584,82.856c-1.323,0-6.284-0.33-6.284-2.526c0-0.812,0.661-1.503,1.563-1.503
			c0.992,0,1.985,1.142,4.029,1.142c3.006,0,3.938-2.074,3.938-4.148c0-2.617-1.472-3.819-3.336-3.819
			c-0.782,0-1.353,0.181-1.924,0.481c-0.332,0.181-1.113,0.901-1.895,0.901c-0.961,0-1.654-0.691-1.654-1.684l0.301-8.63
			c0.031-1.052,0.932-1.684,1.835-1.684h7.247c0.781,0,1.833,0.39,1.833,1.534c0,1.082-0.961,1.472-1.833,1.472h-6.074
			c-0.06,1.714-0.12,3.458-0.211,5.202c0.752-0.361,1.563-0.48,2.437-0.48c3.849,0,6.554,2.465,6.554,6.585
			C441.109,79.128,439.184,82.856,434.584,82.856z"/>
	</g>
	<g id="XMLID_933_">
		<path id="XMLID_877_" fill="#FFFFFF" stroke="#214D6A" stroke-width="4.5093" stroke-miterlimit="10" d="M517.22,90.884h-39.105
			c-3.3,0-6-2.7-6-6V56.801c0-3.3,2.7-6,6-6h39.105c3.3,0,6,2.7,6,6v28.082C523.22,88.184,520.52,90.884,517.22,90.884z"/>
		<path id="XMLID_213_" fill="#214D6A" d="M497.232,69.174c3.488,0,6.434,2.225,6.434,6.676c0,3.849-2.194,7.035-6.735,7.035
			c-5.231,0-6.736-4.299-6.736-10.282c0-7.367,2.285-11.457,7.066-11.457c1.173,0,5.082,0.211,5.082,2.105
			c0,0.691-0.602,1.383-1.474,1.383c-0.841,0-1.804-0.54-3.216-0.6c-3.278,0-3.969,2.765-4.089,6.284
			C494.737,69.446,495.999,69.174,497.232,69.174z M493.504,74.075c0,3.008,0.6,5.744,3.577,5.744c2.466,0,3.309-1.895,3.309-3.909
			c0-2.556-1.324-3.728-3.369-3.728c-1.412,0-2.765,0.571-3.517,1.353V74.075z"/>
	</g>
	<g id="XMLID_934_">
		<path id="XMLID_878_" fill="#FFFFFF" stroke="#214D6A" stroke-width="4.5093" stroke-miterlimit="10" d="M579.229,90.884h-39.105
			c-3.3,0-6-2.7-6-6V56.801c0-3.3,2.7-6,6-6h39.105c3.3,0,6,2.7,6,6v28.082C585.229,88.184,582.529,90.884,579.229,90.884z"/>
		<path id="XMLID_233_" fill="#214D6A" d="M565.474,63.793l-7.488,18.1c-0.21,0.512-0.662,0.992-1.474,0.992
			c-0.872,0-1.653-0.54-1.684-1.412c0-0.181,0.031-0.481,0.12-0.693l6.826-16.267h-7.488c-0.841,0-1.593-0.691-1.593-1.563
			c0-0.872,0.691-1.563,1.593-1.563h9.622c0.932,0,1.714,0.722,1.714,1.623C565.624,63.222,565.595,63.552,565.474,63.793z"/>
	</g>
	<g id="XMLID_935_">
		<path id="XMLID_879_" fill="#FFFFFF" stroke="#214D6A" stroke-width="4.5093" stroke-miterlimit="10" d="M641.237,90.884h-39.105
			c-3.3,0-6-2.7-6-6V56.801c0-3.3,2.7-6,6-6h39.105c3.3,0,6,2.7,6,6v28.082C647.237,88.184,644.537,90.884,641.237,90.884z"/>
		<path id="XMLID_235_" fill="#214D6A" d="M621.387,82.916c-4.119,0-7.126-2.616-7.126-6.224c0-2.497,1.443-4.15,3.338-5.262
			c-1.534-1.052-2.586-2.556-2.586-4.631c0-3.488,2.887-5.622,6.344-5.622c3.549,0,6.346,2.255,6.346,5.532
			c0,1.894-0.932,3.397-2.586,4.509c1.924,1.143,3.367,2.796,3.367,5.353C628.482,80.209,625.566,82.916,621.387,82.916z
			 M621.296,72.873c-2.103,0.421-3.758,1.744-3.758,3.699c0,1.954,1.654,3.397,3.849,3.397c2.225,0,3.818-1.503,3.818-3.397
			C625.205,74.497,623.311,73.264,621.296,72.873z M621.387,64.034c-1.775,0-3.127,1.142-3.127,2.765
			c0,1.714,1.472,2.827,3.187,3.157c1.684-0.39,3.037-1.534,3.037-3.157S623.101,64.034,621.387,64.034z"/>
	</g>
	<g id="XMLID_954_">
		<path id="XMLID_880_" fill="#FFFFFF" stroke="#214D6A" stroke-width="4.5093" stroke-miterlimit="10" d="M703.246,90.884h-39.105
			c-3.3,0-6-2.7-6-6V56.801c0-3.3,2.7-6,6-6h39.105c3.3,0,6,2.7,6,6v28.082C709.246,88.184,706.546,90.884,703.246,90.884z"/>
		<path id="XMLID_239_" fill="#214D6A" d="M684.816,74.888c-3.488,0-6.435-2.196-6.435-6.736c0-3.789,2.105-7.006,6.645-7.006
			c5.262,0,6.826,4.27,6.826,10.434c0,7.367-2.284,11.305-7.096,11.305c-1.173,0-5.051-0.21-5.051-2.074
			c0-0.691,0.571-1.383,1.472-1.383c0.782,0,1.805,0.571,3.218,0.571c3.248,0,3.969-2.736,4.06-6.284
			C687.311,74.588,686.049,74.888,684.816,74.888z M688.544,69.956c0-3.127-0.812-5.742-3.637-5.742
			c-2.406,0-3.248,1.924-3.248,3.938c0,2.526,1.293,3.699,3.367,3.699c1.414,0,2.767-0.542,3.518-1.353V69.956z"/>
	</g>
	<g id="XMLID_955_">
		<path id="XMLID_881_" fill="#FFFFFF" stroke="#214D6A" stroke-width="4.5093" stroke-miterlimit="10" d="M765.254,90.884h-39.105
			c-3.3,0-6-2.7-6-6V56.801c0-3.3,2.7-6,6-6h39.105c3.3,0,6,2.7,6,6v28.082C771.254,88.184,768.554,90.884,765.254,90.884z"/>
		<path id="XMLID_277_" fill="#214D6A" d="M752.336,67.882v8.599c0,3.579-2.316,6.435-6.495,6.435c-4.21,0-6.495-2.856-6.495-6.435
			v-8.599c0-3.88,1.955-7.037,6.495-7.037C750.351,60.845,752.336,64.003,752.336,67.882z M742.623,67.642v8.839
			c0,2.076,1.113,3.458,3.218,3.458c2.074,0,3.218-1.383,3.218-3.458v-8.839c0-2.256-0.932-3.849-3.218-3.849
			C743.526,63.793,742.623,65.386,742.623,67.642z"/>
	</g>
	<g id="XMLID_973_">
		<path id="XMLID_882_" fill="#FFFFFF" stroke="#214D6A" stroke-width="4.5093" stroke-miterlimit="10" d="M827.263,90.884h-39.105
			c-3.3,0-6-2.7-6-6V56.801c0-3.3,2.7-6,6-6h39.105c3.3,0,6,2.7,6,6v28.082C833.263,88.184,830.563,90.884,827.263,90.884z"/>
		<path id="XMLID_305_" fill="#214D6A" d="M808.848,64.484c0.992,0.15,1.713,0.961,1.713,1.954c0,1.052-0.932,1.955-2.074,1.955
			c-1.113,0-2.045-0.843-2.045-2.015c0-1.924,1.383-5.562,2.556-5.562c0.392,0,0.963,0.15,0.903,0.932
			C809.841,62.74,809.149,63.191,808.848,64.484z"/>
	</g>
	<g id="XMLID_974_">
		<path id="XMLID_883_" fill="#FFFFFF" stroke="#214D6A" stroke-width="4.5093" stroke-miterlimit="10" d="M889.272,90.884h-39.105
			c-3.3,0-6-2.7-6-6V56.801c0-3.3,2.7-6,6-6h39.105c3.3,0,6,2.7,6,6v28.082C895.272,88.184,892.572,90.884,889.272,90.884z"/>
		<path id="XMLID_323_" fill="#214D6A" d="M870.625,75.97c-0.15,0.812-0.752,1.563-1.653,1.563c-1.023,0-1.654-0.812-1.654-1.954
			c0.151-1.654,1.474-3.008,2.495-4.18l0.633-0.721c0.841-0.963,1.773-2.136,1.744-3.668c0-1.775-1.113-3.248-3.369-3.248
			c-0.901,0-1.833,0.151-2.616,0.512c-0.691,0.33-1.142,0.841-1.833,0.841c-0.752,0-1.563-0.602-1.563-1.474
			c0-1.954,3.938-2.826,6.193-2.826c3.969,0,6.435,2.556,6.435,6.043c0,4.299-3.338,6.014-4.6,8.059
			C870.655,75.159,870.625,75.64,870.625,75.97z M868.972,82.916c-1.143,0-2.076-0.903-2.076-1.985c0-1.083,0.932-1.955,2.076-1.955
			c1.113,0,2.045,0.872,2.045,1.955C871.017,82.013,870.084,82.916,868.972,82.916z"/>
	</g>
	<g id="XMLID_975_">
		<path id="XMLID_884_" fill="#FFFFFF" stroke="#214D6A" stroke-width="4.5093" stroke-miterlimit="10" d="M951.28,90.884h-39.105
			c-3.3,0-6-2.7-6-6V56.801c0-3.3,2.7-6,6-6h39.105c3.3,0,6,2.7,6,6v28.082C957.28,88.184,954.58,90.884,951.28,90.884z"/>
		<path id="XMLID_361_" fill="#214D6A" d="M933.213,68.243c0-0.781,0.782-1.563,1.654-1.563c0.872,0,1.623,0.782,1.623,1.775
			c0,1.593-1.443,3.187-2.495,4.36l-0.633,0.691c-0.872,0.963-1.713,2.225-1.713,3.668c0,1.804,1.022,3.248,3.338,3.248
			c0.901,0,1.833-0.151,2.616-0.512c0.691-0.33,1.173-0.841,1.833-0.841c0.782,0,1.594,0.6,1.594,1.472
			c0,1.955-3.94,2.827-6.194,2.827c-3.969,0-6.435-2.556-6.435-6.043c0-4.27,3.398-6.134,4.602-8.029
			C933.152,69.026,933.213,68.575,933.213,68.243z M934.867,61.268c1.142,0,2.045,0.932,2.045,2.014
			c0,1.052-0.903,1.955-2.045,1.955c-1.143,0-2.076-0.903-2.076-1.955C932.791,62.2,933.723,61.268,934.867,61.268z"/>
	</g>
	<g id="XMLID_977_">
		<g id="XMLID_976_">
			<path id="XMLID_885_" fill="#FFFFFF" stroke="#214D6A" stroke-width="4.5093" stroke-miterlimit="10" d="M1073.957,90.884
				h-99.228c-3.3,0-6-2.7-6-6V56.801c0-3.3,2.7-6,6-6h99.228c3.3,0,6,2.7,6,6v28.082
				C1079.957,88.184,1077.257,90.884,1073.957,90.884z"/>
			<path id="XMLID_364_" fill="#214D6A" d="M1025.773,71.851c1.474,2.375,2.977,4.69,4.451,7.066
				c0.151,0.15,0.241,0.631,0.241,0.812c0,0.932-0.903,1.623-1.714,1.623c-0.6,0-1.082-0.241-1.383-0.722l-5.202-8.478h-2.736v7.637
				c0,0.841-0.781,1.593-1.684,1.593c-0.872,0-1.623-0.721-1.623-1.593V61.719c0-0.963,0.841-1.804,1.833-1.804h5.233
				c5.292,0,7.006,3.127,7.006,6.193C1030.194,69.205,1028.48,71.16,1025.773,71.851z M1023.068,63.011h-3.639v6.105h3.819
				c2.346,0,3.637-1.052,3.637-3.008C1026.885,64.605,1026.165,63.011,1023.068,63.011z"/>
			<path id="XMLID_367_" fill="#214D6A" d="M1036.023,74.978v1.383c0,1.353,0.932,2.225,2.827,2.225
				c1.113,0,1.924-0.301,2.917-0.752c0.09-0.06,0.299-0.15,0.661-0.15c1.023,0,1.474,0.752,1.474,1.353
				c0,1.804-3.548,2.315-5.322,2.315c-3.698,0-5.802-2.225-5.802-5.142v-5.322c0-2.946,2.074-5.201,5.954-5.201
				c3.637,0,5.441,1.983,5.441,4.991c0,2.826-1.653,4.511-5.472,4.511C1037.858,75.189,1036.986,75.129,1036.023,74.978z
				 M1038.669,68.364c-1.684,0-2.646,0.901-2.646,2.344v1.775c1.023,0.12,2.194,0.181,2.646,0.181c1.713,0,2.286-0.812,2.286-2.076
				C1040.955,68.995,1040.142,68.364,1038.669,68.364z"/>
			<path id="XMLID_370_" fill="#214D6A" d="M1047.054,62.831c0-0.843,0.573-1.505,1.625-1.505c1.022,0,1.623,0.691,1.623,1.505
				v3.728h2.676c0.841,0,1.534,0.631,1.534,1.472c0,0.812-0.693,1.444-1.534,1.444h-2.676v5.261c0,2.647,0.241,3.608,2.045,3.608
				c0.21,0,0.42-0.029,0.54-0.029c1.293,0,2.015,0.33,2.015,1.353c0,1.383-1.143,1.563-2.315,1.563
				c-4.421,0-5.534-2.165-5.534-6.284V62.831z"/>
		</g>
		<path id="XMLID_372_" fill="#214D6A" d="M1060.824,69.506c0.031,0.27,0.06,0.481,0.06,0.691v9.622
			c0,0.872-0.721,1.534-1.623,1.534c-0.932,0-1.624-0.662-1.624-1.534v-9.622c0-0.841-0.12-1.293-0.421-1.744
			c-0.181-0.241-0.301-0.451-0.301-0.812c0-0.843,0.722-1.414,1.563-1.414c0.542,0,1.023,0.361,1.384,0.872
			c1.353-0.812,2.886-1.293,3.938-1.293c1.534,0,2.015,0.633,2.015,1.474c0,0.963-0.752,1.594-1.654,1.534
			C1062.899,68.784,1062.088,68.754,1060.824,69.506z"/>
	</g>
	<g id="XMLID_978_">
		<path id="XMLID_927_" fill="#FFFFFF" stroke="#214D6A" stroke-width="4.5093" stroke-miterlimit="10" d="M172.606,140.987H70.371
			c-3.3,0-6-2.7-6-6v-28.082c0-3.3,2.7-6,6-6h102.235c3.3,0,6,2.7,6,6v28.082C178.606,138.287,175.906,140.987,172.606,140.987z"/>
		<path id="XMLID_374_" fill="#214D6A" d="M84.014,114.224h-3.639c-0.961,0-1.653-0.721-1.653-1.532
			c0-0.691,0.721-1.563,1.653-1.563H90.96c0.841,0,1.684,0.691,1.684,1.563c0,0.812-0.782,1.532-1.684,1.532h-3.639v16.839
			c0,0.812-0.752,1.563-1.653,1.563c-0.932,0-1.654-0.752-1.654-1.563V114.224z"/>
		<path id="XMLID_376_" fill="#214D6A" d="M100.338,122.313c0-1.775-0.903-2.647-2.767-2.647c-0.782,0-1.262,0.181-1.775,0.39
			l-0.571,0.241c-0.181,0.091-0.511,0.151-0.781,0.151c-0.872,0-1.233-0.691-1.233-1.324c0-1.593,2.315-2.224,4.66-2.224
			c4.059,0,5.713,2.134,5.713,6.133v6.105c0,0.752,0.301,0.872,0.752,0.961c0.631,0.12,0.901,0.511,0.901,1.083
			c0,0.841-0.631,1.262-1.773,1.262c-1.052,0-1.835-0.421-2.406-1.353c-1.113,0.963-2.435,1.443-4.089,1.443
			c-3.278,0-4.961-1.833-4.961-4.63v-0.091c0-3.006,1.864-4.54,5.623-4.54c0.932,0,1.835,0.12,2.707,0.361V122.313z M95.225,127.846
			v0.09c0,1.204,0.602,1.895,2.256,1.895c1.022,0,1.924-0.301,2.856-1.052v-2.707c-0.872-0.21-1.864-0.33-2.617-0.33
			C95.617,125.741,95.225,126.702,95.225,127.846z"/>
		<path id="XMLID_395_" fill="#214D6A" d="M107.971,112.06c0-0.782,0.572-1.474,1.625-1.474c1.022,0,1.623,0.691,1.623,1.474v5.863
			c1.022-0.662,2.105-1.022,3.637-1.022c3.608,0,5.022,2.103,5.022,4.841v5.352c0,3.066-1.985,5.472-5.954,5.472
			c-3.789,0-5.954-2.165-5.954-4.901V112.06z M111.219,127.665c0,1.353,1.022,2.194,2.705,2.194c1.835,0,2.707-0.992,2.707-2.616
			v-5.593c0-1.353-0.752-2.165-2.495-2.165c-1.233,0-2.196,0.421-2.917,1.173V127.665z"/>
	</g>
	<g id="XMLID_986_">
		<path id="XMLID_898_" fill="#FFFFFF" stroke="#214D6A" stroke-width="4.5093" stroke-miterlimit="10" d="M240.245,140.987H201.14
			c-3.3,0-6-2.7-6-6v-28.082c0-3.3,2.7-6,6-6h39.105c3.3,0,6,2.7,6,6v28.082C246.245,138.287,243.545,140.987,240.245,140.987z"/>
		<path id="XMLID_411_" fill="#214D6A" d="M218.659,131.003c-3.94-0.631-5.893-3.819-5.893-7.697v-6.194
			c0-4.21,2.074-7.758,7.366-7.758c5.293,0,7.367,3.548,7.367,7.758v6.194c0,3.789-1.864,6.915-5.593,7.606
			c0.15,1.654,0.782,2.256,1.864,2.256c0.15,0,0.782,0,0.872,0c0.963,0,1.623,0.54,1.623,1.474c0,1.412-1.262,1.443-2.886,1.443
			C220.673,136.085,219.02,134.07,218.659,131.003z M216.073,117.111v6.194c0,2.796,1.262,4.721,4.059,4.721
			c2.767,0,4.06-1.924,4.06-4.721v-6.194c0-2.796-1.083-4.69-4.06-4.69C217.156,112.422,216.073,114.315,216.073,117.111z"/>
	</g>
	<g id="XMLID_987_">
		<path id="XMLID_897_" fill="#FFFFFF" stroke="#214D6A" stroke-width="4.5093" stroke-miterlimit="10" d="M302.253,140.987h-39.105
			c-3.3,0-6-2.7-6-6v-28.082c0-3.3,2.7-6,6-6h39.105c3.3,0,6,2.7,6,6v28.082C308.253,138.287,305.553,140.987,302.253,140.987z"/>
		<path id="XMLID_414_" fill="#214D6A" d="M285.758,121.832c-0.481-2.045-0.843-4.119-1.264-6.194
			c-0.932,4.602-1.985,9.142-3.037,13.711c-0.241,0.812-0.752,1.744-2.045,1.744c-1.052,0-1.833-0.872-2.045-1.773
			c-1.563-6.134-3.066-12.298-4.54-18.432c0-0.903,0.963-1.443,1.804-1.443c0.662,0,1.324,0.36,1.534,1.171
			c0.662,2.827,1.353,5.654,2.045,8.45c0.481,1.954,0.812,3.969,1.233,5.923c0.451-2.045,0.781-4.239,1.293-6.315l1.773-7.336
			c0.301-1.262,0.662-1.985,1.985-1.985c1.264,0,1.684,0.782,1.985,1.985l1.744,7.336c0.481,2.105,0.812,4.241,1.293,6.346
			c0.421-1.985,0.782-3.969,1.262-5.954l2.015-8.42c0.21-0.752,0.782-1.202,1.474-1.202c0.841,0,1.894,0.451,1.894,1.472
			c0,0.06,0,0.181-0.06,0.361l-4.48,18.041c-0.27,0.932-0.872,1.773-2.045,1.773s-1.833-0.872-2.045-1.804L285.758,121.832z"/>
	</g>
	<g id="XMLID_988_">
		<path id="XMLID_896_" fill="#FFFFFF" stroke="#214D6A" stroke-width="4.5093" stroke-miterlimit="10" d="M364.262,140.987h-39.105
			c-3.3,0-6-2.7-6-6v-28.082c0-3.3,2.7-6,6-6h39.105c3.3,0,6,2.7,6,6v28.082C370.262,138.287,367.562,140.987,364.262,140.987z"/>
		<path id="XMLID_416_" fill="#214D6A" d="M348.014,130.823h-7.968c-1.233,0-2.346-0.421-2.346-1.775v-17.65
			c0-0.872,0.782-1.773,1.864-1.773h8.148c0.903,0,1.654,0.721,1.654,1.593c0,0.872-0.752,1.503-1.654,1.503h-6.705v5.924h6.134
			c0.812,0,1.623,0.661,1.623,1.534c0,0.872-0.721,1.563-1.623,1.563h-6.134v6.014h7.006c0.872,0,1.654,0.661,1.654,1.472
			C349.669,130.131,348.917,130.823,348.014,130.823z"/>
	</g>
	<g id="XMLID_989_">
		<path id="XMLID_895_" fill="#FFFFFF" stroke="#214D6A" stroke-width="4.5093" stroke-miterlimit="10" d="M426.271,140.987h-39.105
			c-3.3,0-6-2.7-6-6v-28.082c0-3.3,2.7-6,6-6h39.105c3.3,0,6,2.7,6,6v28.082C432.271,138.287,429.571,140.987,426.271,140.987z"/>
		<path id="XMLID_418_" fill="#214D6A" d="M408.798,121.562c1.474,2.375,2.977,4.69,4.451,7.066c0.151,0.15,0.241,0.631,0.241,0.812
			c0,0.932-0.903,1.623-1.714,1.623c-0.6,0-1.082-0.241-1.383-0.722l-5.202-8.478h-2.736v7.637c0,0.841-0.781,1.593-1.684,1.593
			c-0.872,0-1.623-0.721-1.623-1.593v-18.071c0-0.963,0.843-1.804,1.833-1.804h5.233c5.292,0,7.006,3.127,7.006,6.193
			C413.219,118.915,411.505,120.871,408.798,121.562z M406.093,112.721h-3.639v6.105h3.819c2.346,0,3.637-1.052,3.637-3.008
			C409.911,114.315,409.19,112.721,406.093,112.721z"/>
	</g>
	<g id="XMLID_990_">
		<path id="XMLID_894_" fill="#FFFFFF" stroke="#214D6A" stroke-width="4.5093" stroke-miterlimit="10" d="M488.279,140.987h-39.105
			c-3.3,0-6-2.7-6-6v-28.082c0-3.3,2.7-6,6-6h39.105c3.3,0,6,2.7,6,6v28.082C494.279,138.287,491.579,140.987,488.279,140.987z"/>
		<path id="XMLID_421_" fill="#214D6A" d="M467.477,112.721h-3.639c-0.961,0-1.653-0.721-1.653-1.532
			c0-0.691,0.721-1.563,1.653-1.563h10.585c0.841,0,1.684,0.691,1.684,1.563c0,0.812-0.782,1.532-1.684,1.532h-3.639v16.839
			c0,0.812-0.752,1.563-1.653,1.563c-0.932,0-1.654-0.752-1.654-1.563V112.721z"/>
	</g>
	<g id="XMLID_991_">
		<path id="XMLID_893_" fill="#FFFFFF" stroke="#214D6A" stroke-width="4.5093" stroke-miterlimit="10" d="M550.288,140.987h-39.105
			c-3.3,0-6-2.7-6-6v-28.082c0-3.3,2.7-6,6-6h39.105c3.3,0,6,2.7,6,6v28.082C556.288,138.287,553.588,140.987,550.288,140.987z"/>
		<path id="XMLID_423_" fill="#214D6A" d="M529.163,129.5v-6.977l-5.321-10.855c-0.06-0.179-0.151-0.48-0.151-0.721
			c0-0.872,0.843-1.594,1.684-1.594c0.512,0,1.052,0.211,1.324,0.691l4.15,8.66l4.148-8.66c0.272-0.48,0.812-0.691,1.324-0.691
			c0.872,0,1.684,0.722,1.684,1.594c0,0.21-0.091,0.511-0.151,0.721l-5.321,10.886v6.946c0,0.841-0.722,1.623-1.684,1.623
			C529.916,131.124,529.163,130.372,529.163,129.5z"/>
	</g>
	<g id="XMLID_992_">
		<path id="XMLID_892_" fill="#FFFFFF" stroke="#214D6A" stroke-width="4.5093" stroke-miterlimit="10" d="M612.297,140.987h-39.105
			c-3.3,0-6-2.7-6-6v-28.082c0-3.3,2.7-6,6-6h39.105c3.3,0,6,2.7,6,6v28.082C618.297,138.287,615.596,140.987,612.297,140.987z"/>
		<path id="XMLID_425_" fill="#214D6A" d="M593.916,131.124c-4.569,0-7.096-3.128-7.096-7.367v-12.779
			c0-0.932,0.722-1.623,1.684-1.623c0.872,0,1.623,0.722,1.623,1.623v12.779c0,2.526,1.204,4.27,3.789,4.27
			c2.557,0,3.759-1.775,3.759-4.27v-12.779c0-0.872,0.691-1.623,1.623-1.623c0.963,0,1.714,0.752,1.714,1.623v12.779
			C601.013,128.026,598.366,131.124,593.916,131.124z"/>
	</g>
	<g id="XMLID_993_">
		<path id="XMLID_891_" fill="#FFFFFF" stroke="#214D6A" stroke-width="4.5093" stroke-miterlimit="10" d="M674.305,140.987H635.2
			c-3.3,0-6-2.7-6-6v-28.082c0-3.3,2.7-6,6-6h39.105c3.3,0,6,2.7,6,6v28.082C680.305,138.287,677.605,140.987,674.305,140.987z"/>
		<path id="XMLID_427_" fill="#214D6A" d="M654.459,110.917c0-0.841,0.722-1.563,1.654-1.563c0.901,0,1.653,0.722,1.653,1.563
			v18.643c0,0.812-0.752,1.563-1.653,1.563c-0.932,0-1.654-0.752-1.654-1.563V110.917z"/>
	</g>
	<g id="XMLID_994_">
		<path id="XMLID_890_" fill="#FFFFFF" stroke="#214D6A" stroke-width="4.5093" stroke-miterlimit="10" d="M736.314,140.987h-39.105
			c-3.3,0-6-2.7-6-6v-28.082c0-3.3,2.7-6,6-6h39.105c3.3,0,6,2.7,6,6v28.082C742.314,138.287,739.614,140.987,736.314,140.987z"/>
		<path id="XMLID_429_" fill="#214D6A" d="M709.291,123.306v-6.194c0-4.21,2.074-7.758,7.366-7.758c5.293,0,7.367,3.548,7.367,7.758
			v6.194c0,4.33-2.466,7.818-7.367,7.818C711.757,131.124,709.291,127.636,709.291,123.306z M712.598,117.111v6.194
			c0,2.796,1.262,4.721,4.059,4.721c2.767,0,4.06-1.924,4.06-4.721v-6.194c0-2.796-1.083-4.69-4.06-4.69
			C713.681,112.422,712.598,114.315,712.598,117.111z"/>
	</g>
	<g id="XMLID_995_">
		<path id="XMLID_889_" fill="#FFFFFF" stroke="#214D6A" stroke-width="4.5093" stroke-miterlimit="10" d="M798.322,140.987h-39.105
			c-3.3,0-6-2.7-6-6v-28.082c0-3.3,2.7-6,6-6h39.105c3.3,0,6,2.7,6,6v28.082C804.322,138.287,801.622,140.987,798.322,140.987z"/>
		<path id="XMLID_432_" fill="#214D6A" d="M777.32,123.306v6.194c0,0.841-0.752,1.623-1.653,1.623c-0.872,0-1.654-0.752-1.654-1.623
			v-18.071c0-0.963,0.872-1.804,1.894-1.804h4.421c5.321,0,7.216,3.307,7.216,6.884c0,4.361-2.827,6.796-7.216,6.796H777.32z
			 M777.32,120.239h3.008c2.556,0,3.909-1.204,3.909-3.759c0-1.864-0.722-3.759-3.909-3.759h-3.008V120.239z"/>
	</g>
	<g id="XMLID_996_">
		<path id="XMLID_888_" fill="#FFFFFF" stroke="#214D6A" stroke-width="4.5093" stroke-miterlimit="10" d="M860.331,140.987h-39.105
			c-3.3,0-6-2.7-6-6v-28.082c0-3.3,2.7-6,6-6h39.105c3.3,0,6,2.7,6,6v28.082C866.331,138.287,863.631,140.987,860.331,140.987z"/>
		<path id="XMLID_435_" fill="#214D6A" d="M834.526,120.959c-0.932,0-1.653-0.782-1.653-1.684c0-0.872,0.721-1.623,1.653-1.623
			c0.963,0,1.714,0.721,1.714,1.623C836.24,120.207,835.489,120.959,834.526,120.959z M839.788,120.959
			c-0.932,0-1.713-0.782-1.713-1.684c0-0.872,0.781-1.623,1.713-1.623c0.932,0,1.684,0.721,1.684,1.623
			C841.472,120.207,840.72,120.959,839.788,120.959z"/>
		<path id="XMLID_438_" fill="#214D6A" d="M848.655,116.78c0.301-0.301,0.481-0.452,0.992-0.452c0.571,0,1.204,0.512,1.204,1.233
			c0,0.301-0.12,0.571-0.392,0.843l-2.255,2.346c-0.361,0.39-0.662,0.6-1.173,0.6c-0.662,0-1.262-0.511-1.262-1.262
			c0-0.722,1.713-2.134,2.585-3.006L848.655,116.78z"/>
	</g>
	<g id="XMLID_997_">
		<path id="XMLID_887_" fill="#FFFFFF" stroke="#214D6A" stroke-width="4.5093" stroke-miterlimit="10" d="M922.34,140.987h-39.105
			c-3.3,0-6-2.7-6-6v-28.082c0-3.3,2.7-6,6-6h39.105c3.3,0,6,2.7,6,6v28.082C928.34,138.287,925.64,140.987,922.34,140.987z"/>
		<path id="XMLID_441_" fill="#214D6A" d="M907.027,125.017c0.15,0.21,0.09,0.421,0.09,0.602c0,0.691-0.631,1.443-1.503,1.443
			c-1.262,0-2.014-2.074-2.796-3.218c-0.812,1.143-1.563,3.218-2.827,3.218c-0.872,0-1.503-0.752-1.503-1.443
			c0-0.181-0.06-0.392,0.091-0.602l2.165-2.676l-2.647-0.542c-0.752-0.15-1.534-0.631-1.534-1.443c0-0.963,0.752-1.443,1.353-1.443
			c0.12,0,0.241,0,0.33,0.029c1.113,0.392,2.225,0.872,3.338,1.264l-0.27-2.707c-0.031-0.091-0.031-0.181-0.031-0.241
			c0-0.571,0.361-1.623,1.503-1.623c1.143,0,1.505,1.052,1.505,1.623c0,0.06,0,0.15-0.031,0.241l-0.27,2.707
			c1.113-0.392,2.225-0.872,3.338-1.264c0.09-0.029,0.21-0.029,0.33-0.029c0.602,0,1.353,0.48,1.353,1.443
			c0,0.812-0.782,1.293-1.534,1.443l-2.647,0.542L907.027,125.017z"/>
	</g>
	<g id="XMLID_1027_">
		<path id="XMLID_928_" fill="#FFFFFF" stroke="#214D6A" stroke-width="4.5093" stroke-miterlimit="10" d="M193.649,190.588H70.371
			c-3.3,0-6-2.7-6-6v-28.082c0-3.3,2.7-6,6-6h123.278c3.3,0,6,2.7,6,6v28.082C199.649,187.888,196.949,190.588,193.649,190.588z"/>
		<path id="XMLID_445_" fill="#214D6A" d="M78.063,179.357c-1.082,0-1.894-0.812-1.894-1.804v-17.589
			c0-1.023,0.872-1.804,1.894-1.804h5.082c4.21,0,6.315,2.796,6.315,5.682c0,2.346-1.503,3.639-3.518,4.54
			c1.924,0.691,4.089,1.835,4.089,4.812c0,3.457-2.676,6.164-7.006,6.164H78.063z M82.935,166.819c1.503,0,3.218-0.932,3.218-2.946
			c0-1.384-0.722-2.647-2.856-2.647h-3.819v5.593H82.935z M79.477,169.916v6.375h3.518c2.495,0,3.728-1.233,3.728-3.097
			c0-2.105-1.594-3.278-3.699-3.278H79.477z"/>
		<path id="XMLID_473_" fill="#214D6A" d="M93.094,176.291v-17.17c0-0.812,0.693-1.503,1.625-1.503c0.901,0,1.623,0.661,1.623,1.503
			v16.989c0,0.631,0.029,0.901,0.421,1.323c0.21,0.21,0.39,0.39,0.39,0.812c0,0.843-0.662,1.353-1.684,1.353
			C94.508,179.598,93.094,179.208,93.094,176.291z"/>
		<path id="XMLID_523_" fill="#214D6A" d="M99.829,174.126v-4.751c0-3.097,2.105-5.472,6.074-5.472c3.969,0,6.073,2.375,6.073,5.472
			v4.751c0,3.066-2.103,5.472-6.073,5.472C101.934,179.598,99.829,177.192,99.829,174.126z M108.728,174.126v-4.781
			c0-1.594-0.961-2.586-2.826-2.586c-1.864,0-2.827,0.992-2.827,2.586v4.781c0,1.623,0.963,2.616,2.827,2.616
			C107.767,176.742,108.728,175.749,108.728,174.126z"/>
		<path id="XMLID_526_" fill="#214D6A" d="M126.586,183.988c0,0.841-0.542,1.503-1.625,1.503c-1.082,0-1.623-0.662-1.623-1.503
			v-5.383c-0.992,0.631-2.045,0.961-3.457,0.961c-3.909,0-5.202-2.404-5.202-5.593v-4.48c0-3.157,1.985-5.562,5.954-5.562
			c3.758,0,5.954,2.194,5.954,4.991V183.988z M123.338,168.924c0-1.353-1.052-2.134-2.705-2.134c-1.864,0-2.707,1.022-2.707,2.705
			v4.48c0,1.775,0.691,2.856,2.526,2.856c1.022,0,2.074-0.33,2.886-1.082V168.924z"/>
		<path id="XMLID_529_" fill="#214D6A" d="M157.609,178.124c0,0.812-0.752,1.534-1.623,1.534c-0.903,0-1.684-0.722-1.684-1.534
			v-12.508l-4.15,8.539c-0.301,0.631-0.903,0.932-1.563,0.932c-0.662,0-1.233-0.301-1.563-0.932l-4.12-8.539v12.508
			c0,0.812-0.781,1.534-1.713,1.534c-0.903,0-1.594-0.722-1.594-1.534v-18.612c0-0.932,0.722-1.623,1.714-1.623
			c0.781,0,1.352,0.33,1.684,0.963l5.622,11.606l5.593-11.637c0.361-0.691,0.992-0.932,1.685-0.932c0.961,0,1.713,0.722,1.713,1.623
			V178.124z"/>
		<path id="XMLID_535_" fill="#214D6A" d="M168.792,169.345c0-1.775-0.903-2.647-2.767-2.647c-0.782,0-1.262,0.181-1.775,0.39
			l-0.571,0.241c-0.181,0.091-0.511,0.151-0.781,0.151c-0.872,0-1.233-0.691-1.233-1.324c0-1.593,2.315-2.224,4.66-2.224
			c4.059,0,5.713,2.134,5.713,6.133v6.105c0,0.752,0.301,0.872,0.752,0.961c0.631,0.12,0.903,0.511,0.903,1.083
			c0,0.841-0.633,1.262-1.775,1.262c-1.052,0-1.835-0.421-2.406-1.353c-1.113,0.963-2.435,1.443-4.089,1.443
			c-3.276,0-4.961-1.833-4.961-4.63v-0.091c0-3.006,1.864-4.54,5.623-4.54c0.932,0,1.833,0.12,2.707,0.361V169.345z
			 M163.679,174.877v0.09c0,1.204,0.602,1.895,2.256,1.895c1.022,0,1.924-0.301,2.856-1.052v-2.707
			c-0.873-0.21-1.864-0.33-2.617-0.33C164.07,172.773,163.679,173.734,163.679,174.877z"/>
		<path id="XMLID_683_" fill="#214D6A" d="M183.069,177.283c-1.532,4.75-2.676,8.177-6.915,8.177c-0.963,0-1.654-0.631-1.654-1.472
			c0-0.722,0.571-1.414,1.534-1.474c1.594,0,2.346-1.083,3.187-3.608l-4.721-12.87c-0.09-0.21-0.09-0.451-0.09-0.6
			c0-0.812,0.691-1.414,1.623-1.414c0.602,0,1.233,0.33,1.474,1.022l0.27,0.813c1.022,3.036,2.045,6.043,3.037,9.14
			c0.901-3.367,1.833-6.645,2.856-9.954c0.21-0.691,0.932-1.022,1.534-1.022c0.812,0,1.623,0.602,1.623,1.503
			c0,0.151-0.031,0.301-0.091,0.451L183.069,177.283z"/>
	</g>
	<g id="XMLID_1026_">
		<path id="XMLID_909_" fill="#FFFFFF" stroke="#214D6A" stroke-width="4.5093" stroke-miterlimit="10" d="M258.282,190.588h-39.105
			c-3.3,0-6-2.7-6-6v-28.082c0-3.3,2.7-6,6-6h39.105c3.3,0,6,2.7,6,6v28.082C264.282,187.888,261.582,190.588,258.282,190.588z"/>
		<path id="XMLID_686_" fill="#214D6A" d="M234.713,178.485c-0.21,0.722-1.022,1.142-1.563,1.142c-0.932,0-1.713-0.6-1.713-1.532
			c0-0.151,0.029-0.452,0.06-0.572l5.863-17.83c0.33-1.022,0.843-1.804,2.015-1.804c1.171,0,1.653,0.752,2.014,1.804l5.863,17.83
			c0.06,0.12,0.091,0.421,0.091,0.572c0,0.932-0.752,1.532-1.714,1.532c-1.082,0-1.443-0.752-1.833-1.833l-0.963-2.917h-7.006
			L234.713,178.485z M236.758,171.99h5.202c-0.932-3.037-1.954-6.014-2.585-9.14C238.622,166.037,237.661,168.953,236.758,171.99z"
			/>
	</g>
	<g id="XMLID_1025_">
		<path id="XMLID_908_" fill="#FFFFFF" stroke="#214D6A" stroke-width="4.5093" stroke-miterlimit="10" d="M320.29,190.588h-39.105
			c-3.3,0-6-2.7-6-6v-28.082c0-3.3,2.7-6,6-6h39.105c3.3,0,6,2.7,6,6v28.082C326.29,187.888,323.59,190.588,320.29,190.588z"/>
		<path id="XMLID_689_" fill="#214D6A" d="M302.233,170.878c-2.977-1.443-8.088-1.532-8.088-6.944c0-3.759,2.526-6.045,6.525-6.045
			c1.623,0,5.593,0.39,5.593,2.375c0,0.782-0.631,1.505-1.654,1.505c-1.051,0-1.773-0.812-3.758-0.812
			c-1.714,0-3.307,0.631-3.307,2.826c0,1.654,0.901,2.225,1.503,2.526c3.037,1.563,8.088,1.563,8.088,6.915
			c0,4.089-3.006,6.404-7.035,6.404c-2.076,0-5.984-0.661-5.984-2.525c0-0.782,0.662-1.534,1.534-1.534
			c0.903,0,2.076,0.992,4.48,0.992c2.376,0,3.579-1.142,3.579-3.127C303.707,171.81,302.864,171.209,302.233,170.878z"/>
	</g>
	<g id="XMLID_1024_">
		<path id="XMLID_907_" fill="#FFFFFF" stroke="#214D6A" stroke-width="4.5093" stroke-miterlimit="10" d="M382.299,190.588h-39.105
			c-3.3,0-6-2.7-6-6v-28.082c0-3.3,2.7-6,6-6h39.105c3.3,0,6,2.7,6,6v28.082C388.299,187.888,385.599,190.588,382.299,190.588z"/>
		<path id="XMLID_691_" fill="#214D6A" d="M362.175,179.357h-3.398c-1.022,0-1.894-0.812-1.894-1.804v-17.62
			c0-0.961,0.872-1.804,1.894-1.804h3.398c6.464,0,8.69,3.699,8.69,7.787v5.413C370.864,175.509,368.67,179.357,362.175,179.357z
			 M367.557,165.916c0-2.616-1.293-4.69-4.872-4.69h-2.495v15.065h2.495c3.639,0,4.872-2.225,4.872-4.961V165.916z"/>
	</g>
	<g id="XMLID_1023_">
		<path id="XMLID_906_" fill="#FFFFFF" stroke="#214D6A" stroke-width="4.5093" stroke-miterlimit="10" d="M444.308,190.588h-39.105
			c-3.3,0-6-2.7-6-6v-28.082c0-3.3,2.7-6,6-6h39.105c3.3,0,6,2.7,6,6v28.082C450.308,187.888,447.608,190.588,444.308,190.588z"/>
		<path id="XMLID_696_" fill="#214D6A" d="M424.04,178.095c0,0.812-0.752,1.563-1.653,1.563c-0.932,0-1.654-0.752-1.654-1.563
			v-18.162c0-0.872,0.782-1.773,1.864-1.773h8.148c0.903,0,1.654,0.721,1.654,1.563c0,0.872-0.752,1.503-1.654,1.503h-6.705v5.954
			h6.134c0.812,0,1.623,0.661,1.623,1.534c0,0.872-0.721,1.563-1.623,1.563h-6.134V178.095z"/>
	</g>
	<g id="XMLID_1011_">
		<path id="XMLID_905_" fill="#FFFFFF" stroke="#214D6A" stroke-width="4.5093" stroke-miterlimit="10" d="M506.316,190.588h-39.105
			c-3.3,0-6-2.7-6-6v-28.082c0-3.3,2.7-6,6-6h39.105c3.3,0,6,2.7,6,6v28.082C512.316,187.888,509.616,190.588,506.316,190.588z"/>
		<path id="XMLID_699_" fill="#214D6A" d="M483.142,171.84c0,2.977,0.992,4.841,4.059,4.841c1.233,0,2.134-0.33,2.947-0.872v-5.563
			h-2.256c-0.781,0-1.503-0.691-1.503-1.532c0-0.843,0.722-1.505,1.503-1.505h3.427c1.113,0,2.105,0.572,2.105,1.744v6.917
			c0,2.616-3.488,3.728-6.373,3.728c-4.961,0-7.217-3.068-7.217-7.758v-6.194c0-4.69,2.256-7.758,7.217-7.758
			c2.946,0,5.773,1.323,5.773,2.887c0,0.781-0.662,1.443-1.534,1.443c-0.571,0-0.752-0.21-1.202-0.481l-0.151-0.09
			c-0.812-0.542-1.684-0.843-2.736-0.843c-3.066,0-4.059,1.864-4.059,4.841V171.84z"/>
	</g>
	<g id="XMLID_1010_">
		<path id="XMLID_904_" fill="#FFFFFF" stroke="#214D6A" stroke-width="4.5093" stroke-miterlimit="10" d="M568.325,190.588H529.22
			c-3.3,0-6-2.7-6-6v-28.082c0-3.3,2.7-6,6-6h39.105c3.3,0,6,2.7,6,6v28.082C574.325,187.888,571.625,190.588,568.325,190.588z"/>
		<path id="XMLID_706_" fill="#214D6A" d="M554.269,179.658c-0.872,0-1.654-0.752-1.654-1.594v-7.758h-7.307v7.758
			c0,0.843-0.752,1.594-1.653,1.594c-0.932,0-1.654-0.752-1.654-1.594v-18.612c0-0.841,0.722-1.563,1.654-1.563
			c0.901,0,1.653,0.722,1.653,1.563v7.758h7.307v-7.758c0-0.841,0.782-1.563,1.654-1.563s1.653,0.722,1.653,1.563v18.612
			C555.922,178.907,555.17,179.658,554.269,179.658z"/>
	</g>
	<g id="XMLID_1009_">
		<path id="XMLID_903_" fill="#FFFFFF" stroke="#214D6A" stroke-width="4.5093" stroke-miterlimit="10" d="M630.334,190.588h-39.105
			c-3.3,0-6-2.7-6-6v-28.082c0-3.3,2.7-6,6-6h39.105c3.3,0,6,2.7,6,6v28.082C636.334,187.888,633.634,190.588,630.334,190.588z"/>
		<path id="XMLID_722_" fill="#214D6A" d="M613.218,172.442c0,4.48-1.532,7.216-6.525,7.216c-0.992,0-3.006-0.12-3.006-1.714
			c0-0.992,0.841-1.532,1.503-1.532c0.511,0,0.992,0.179,1.833,0.179c2.376,0,2.887-1.593,2.887-4.148v-12.991
			c0-0.872,0.691-1.563,1.654-1.563c0.872,0,1.653,0.722,1.653,1.563V172.442z"/>
	</g>
	<g id="XMLID_1008_">
		<path id="XMLID_902_" fill="#FFFFFF" stroke="#214D6A" stroke-width="4.5093" stroke-miterlimit="10" d="M692.342,190.588h-39.105
			c-3.3,0-6-2.7-6-6v-28.082c0-3.3,2.7-6,6-6h39.105c3.3,0,6,2.7,6,6v28.082C698.342,187.888,695.642,190.588,692.342,190.588z"/>
		<path id="XMLID_724_" fill="#214D6A" d="M671.237,170.277l-1.023,1.233v6.554c0,0.843-0.752,1.563-1.653,1.563
			c-0.932,0-1.654-0.721-1.654-1.563v-18.612c0-0.841,0.722-1.563,1.654-1.563c0.901,0,1.653,0.722,1.653,1.563v7.217l6.765-8.059
			c0.301-0.361,0.843-0.722,1.414-0.722c0.662,0,1.563,0.602,1.563,1.534c0,0.361-0.09,0.691-0.391,1.052l-6.224,7.336
			c2.255,3.127,4.509,6.255,6.795,9.381c0.21,0.301,0.241,0.542,0.241,0.812c0,0.722-0.511,1.623-1.594,1.623
			c-0.571,0-1.052-0.21-1.383-0.691L671.237,170.277z"/>
	</g>
	<g id="XMLID_1007_">
		<path id="XMLID_901_" fill="#FFFFFF" stroke="#214D6A" stroke-width="4.5093" stroke-miterlimit="10" d="M754.351,190.588h-39.105
			c-3.3,0-6-2.7-6-6v-28.082c0-3.3,2.7-6,6-6h39.105c3.3,0,6,2.7,6,6v28.082C760.351,187.888,757.651,190.588,754.351,190.588z"/>
		<path id="XMLID_726_" fill="#214D6A" d="M741.132,179.357h-8.48c-0.961,0-1.804-0.752-1.804-1.714v-18.191
			c0-0.841,0.722-1.563,1.654-1.563c0.901,0,1.653,0.722,1.653,1.563v16.869h6.977c0.841,0,1.593,0.662,1.593,1.503
			C742.724,178.695,742.004,179.357,741.132,179.357z"/>
	</g>
	<g id="XMLID_1006_">
		<path id="XMLID_900_" fill="#FFFFFF" stroke="#214D6A" stroke-width="4.5093" stroke-miterlimit="10" d="M816.359,190.588h-39.105
			c-3.3,0-6-2.7-6-6v-28.082c0-3.3,2.7-6,6-6h39.105c3.3,0,6,2.7,6,6v28.082C822.359,187.888,819.659,190.588,816.359,190.588z"/>
		<path id="XMLID_729_" fill="#214D6A" d="M801.343,180.289l-7.818-14.102v13.38c0,0.843-0.781,1.594-1.684,1.594
			c-0.932,0-1.623-0.752-1.623-1.594v-18.492c0-0.961,0.722-1.684,1.744-1.684c0.662,0,1.323,0.361,1.654,0.903
			c1.323,2.315,6.434,11.696,7.818,14.102v-13.41c0-0.872,0.781-1.594,1.684-1.594c0.901,0,1.623,0.722,1.623,1.594v18.492
			c0,0.901-0.722,1.684-1.775,1.684C802.336,181.161,801.644,180.8,801.343,180.289z M799.329,157.438
			c-1.444,0-2.285-0.992-3.188-1.083c-0.992-0.06-1.113,0.932-1.924,0.932c-0.54,0-1.142-0.39-1.142-1.022
			c0-1.233,1.233-2.165,2.556-2.165c1.474,0,2.225,1.022,3.187,1.082c1.023,0,1.052-0.932,1.895-0.961
			c0.631,0,1.202,0.511,1.202,1.202C801.914,156.566,800.442,157.407,799.329,157.438z"/>
	</g>
	<g id="XMLID_1005_">
		<path id="XMLID_899_" fill="#FFFFFF" stroke="#214D6A" stroke-width="4.5093" stroke-miterlimit="10" d="M878.368,190.588h-39.105
			c-3.3,0-6-2.7-6-6v-28.082c0-3.3,2.7-6,6-6h39.105c3.3,0,6,2.7,6,6v28.082C884.368,187.888,881.668,190.588,878.368,190.588z"/>
		<path id="XMLID_733_" fill="#214D6A" d="M858.731,184.379h-3.066c-0.843,0-1.594-0.722-1.594-1.534v-24.446
			c0-1.113,0.932-1.503,2.014-1.503h3.068c0.752,0,1.563,0.691,1.563,1.474c0,1.173-1.023,1.532-1.955,1.532h-1.412v21.469h1.412
			c1.023,0,1.955,0.361,1.955,1.474C860.715,184.018,859.663,184.379,858.731,184.379z"/>
	</g>
	<g id="XMLID_1004_">
		<path id="XMLID_886_" fill="#FFFFFF" stroke="#214D6A" stroke-width="4.5093" stroke-miterlimit="10" d="M940.377,190.588h-39.105
			c-3.3,0-6-2.7-6-6v-28.082c0-3.3,2.7-6,6-6h39.105c3.3,0,6,2.7,6,6v28.082C946.377,187.888,943.677,190.588,940.377,190.588z"/>
		<path id="XMLID_735_" fill="#214D6A" d="M922.61,184.379h-3.066c-0.963,0-2.015-0.361-2.015-1.534s0.992-1.474,1.985-1.474h1.414
			v-21.469h-1.414c-0.932,0-1.985-0.33-1.985-1.532c0-1.113,1.052-1.474,2.015-1.474h3.066c0.782,0,1.594,0.752,1.594,1.503v24.446
			C924.205,183.688,923.482,184.379,922.61,184.379z"/>
	</g>
	<g id="XMLID_1028_">
		<path id="XMLID_929_" fill="#FFFFFF" stroke="#214D6A" stroke-width="4.5093" stroke-miterlimit="10" d="M211.686,238.186H70.371
			c-3.3,0-6-2.7-6-6v-28.082c0-3.3,2.7-6,6-6h141.315c3.3,0,6,2.7,6,6v28.082C217.686,235.486,214.986,238.186,211.686,238.186z"/>
		<g id="XMLID_136_">
			<path id="XMLID_737_" fill="#214D6A" d="M92.099,226.973c0,0.812-0.752,1.534-1.623,1.534c-0.903,0-1.684-0.722-1.684-1.534
				v-12.508l-4.15,8.539c-0.301,0.631-0.903,0.932-1.563,0.932c-0.662,0-1.233-0.301-1.563-0.932l-4.12-8.539v12.508
				c0,0.812-0.781,1.534-1.713,1.534c-0.903,0-1.594-0.722-1.594-1.534v-18.612c0-0.932,0.722-1.623,1.714-1.623
				c0.781,0,1.352,0.33,1.684,0.963l5.622,11.606l5.593-11.637c0.361-0.691,0.992-0.932,1.685-0.932
				c0.961,0,1.713,0.722,1.713,1.623V226.973z"/>
			<path id="XMLID_739_" fill="#214D6A" d="M103.282,218.194c0-1.775-0.903-2.647-2.767-2.647c-0.782,0-1.262,0.181-1.775,0.39
				l-0.571,0.241c-0.181,0.091-0.511,0.151-0.781,0.151c-0.872,0-1.233-0.691-1.233-1.324c0-1.593,2.315-2.224,4.66-2.224
				c4.059,0,5.713,2.134,5.713,6.133v6.105c0,0.752,0.301,0.872,0.752,0.961c0.631,0.12,0.903,0.511,0.903,1.083
				c0,0.841-0.633,1.262-1.775,1.262c-1.052,0-1.835-0.421-2.406-1.353c-1.113,0.963-2.435,1.443-4.089,1.443
				c-3.276,0-4.961-1.833-4.961-4.63v-0.091c0-3.006,1.864-4.54,5.623-4.54c0.932,0,1.833,0.12,2.707,0.361V218.194z
				 M98.169,223.726v0.09c0,1.204,0.602,1.895,2.256,1.895c1.022,0,1.924-0.301,2.856-1.052v-2.707
				c-0.873-0.21-1.864-0.33-2.617-0.33C98.559,221.621,98.169,222.583,98.169,223.726z"/>
			<path id="XMLID_743_" fill="#214D6A" d="M117.559,226.132c-1.532,4.75-2.676,8.177-6.915,8.177c-0.963,0-1.654-0.631-1.654-1.472
				c0-0.722,0.571-1.414,1.534-1.474c1.594,0,2.346-1.083,3.187-3.608l-4.721-12.87c-0.09-0.21-0.09-0.451-0.09-0.6
				c0-0.812,0.691-1.414,1.623-1.414c0.602,0,1.233,0.33,1.474,1.022l0.27,0.813c1.022,3.036,2.045,6.043,3.037,9.14
				c0.901-3.367,1.833-6.645,2.856-9.954c0.21-0.691,0.932-1.022,1.534-1.022c0.812,0,1.623,0.602,1.623,1.503
				c0,0.151-0.031,0.301-0.091,0.451L117.559,226.132z"/>
			<path id="XMLID_745_" fill="#214D6A" d="M128.984,228.447c-3.398,0-5.173-2.346-5.173-5.804v-8.298
				c0-0.843,0.572-1.474,1.625-1.474c1.022,0,1.623,0.631,1.623,1.474v8.298c0,1.924,0.781,3.008,2.346,3.008
				c0.901,0,1.864-0.301,2.826-0.812c-0.029-0.272-0.06-0.511-0.06-0.722v-9.772c0-0.843,0.542-1.474,1.623-1.474
				c1.083,0,1.623,0.631,1.623,1.474v10.072c0,1.052,0.241,1.173,0.542,1.594c0.181,0.21,0.33,0.451,0.33,0.812
				c0,0.872-0.752,1.443-1.532,1.443c-0.662,0-1.173-0.421-1.563-1.023C131.84,228.117,130.366,228.447,128.984,228.447z
				 M131.149,206.648c0.299-0.301,0.48-0.452,0.992-0.452c0.571,0,1.202,0.512,1.202,1.233c0,0.301-0.12,0.571-0.39,0.843
				l-2.256,2.346c-0.36,0.39-0.661,0.6-1.173,0.6c-0.661,0-1.262-0.511-1.262-1.262c0-0.722,1.714-2.134,2.586-3.006
				L131.149,206.648z"/>
			<path id="XMLID_806_" fill="#214D6A" d="M144.405,212.782c1.775,0,4.33,0.451,4.33,2.194c0,0.812-0.542,1.233-1.324,1.233
				c-0.961,0-1.412-0.662-3.006-0.662c-0.752,0-2.134,0.15-2.134,1.443c0,2.947,7.005,1.505,7.005,6.886
				c0,2.796-1.894,4.54-5.472,4.54c-1.713,0-4.901-0.39-4.901-1.985c0-0.54,0.361-1.773,1.684-1.443
				c0.542,0.12,1.835,0.691,3.097,0.691c1.353,0,2.406-0.661,2.406-1.744c0-2.826-7.006-1.323-7.006-6.645
				C139.083,214.586,140.887,212.782,144.405,212.782z"/>
		</g>
	</g>
	<g id="XMLID_1069_">
		<path id="XMLID_914_" fill="#FFFFFF" stroke="#214D6A" stroke-width="4.5093" stroke-miterlimit="10" d="M708.698,238.186h-39.105
			c-3.3,0-6-2.7-6-6v-28.082c0-3.3,2.7-6,6-6h39.105c3.3,0,6,2.7,6,6v28.082C714.698,235.486,711.998,238.186,708.698,238.186z"/>
		<path id="XMLID_936_" fill="#214D6A" d="M702.482,224.294c-0.992-0.151-1.714-0.963-1.714-1.955c0-1.052,0.903-1.954,2.076-1.954
			c1.082,0,2.043,0.841,2.043,2.014c0,1.924-1.412,5.563-2.556,5.563c-0.39,0-0.992-0.15-0.901-0.932
			C701.459,226.038,702.181,225.587,702.482,224.294z"/>
	</g>
	<g id="XMLID_1070_">
		<path id="XMLID_913_" fill="#FFFFFF" stroke="#214D6A" stroke-width="4.5093" stroke-miterlimit="10" d="M770.706,238.186h-39.105
			c-3.3,0-6-2.7-6-6v-28.082c0-3.3,2.7-6,6-6h39.105c3.3,0,6,2.7,6,6v28.082C776.706,235.486,774.006,238.186,770.706,238.186z"/>
		<path id="XMLID_938_" fill="#214D6A" d="M762.426,229.781c-1.173,0-2.076-0.932-2.076-2.015c0-1.052,0.903-1.954,2.076-1.954
			c1.111,0,2.043,0.901,2.043,1.954C764.47,228.849,763.538,229.781,762.426,229.781z"/>
	</g>
	<g id="XMLID_1071_">
		<path id="XMLID_912_" fill="#FFFFFF" stroke="#214D6A" stroke-width="4.5093" stroke-miterlimit="10" d="M832.715,238.186H793.61
			c-3.3,0-6-2.7-6-6v-28.082c0-3.3,2.7-6,6-6h39.105c3.3,0,6,2.7,6,6v28.082C838.715,235.486,836.015,238.186,832.715,238.186z"/>
		<path id="XMLID_940_" fill="#214D6A" d="M818.985,221.437h-7.488c-0.901,0-1.563-0.631-1.563-1.443
			c0-0.812,0.662-1.474,1.563-1.474h7.488c0.841,0,1.532,0.662,1.532,1.474C820.518,220.806,819.826,221.437,818.985,221.437z"/>
	</g>
	<g id="XMLID_1072_">
		<path id="XMLID_181_" fill="#FFFFFF" stroke="#214D6A" stroke-width="4.5093" stroke-miterlimit="10" d="M940.377,238.186h-75.561
			c-3.3,0-6-2.7-6-6v-28.082c0-3.3,2.7-6,6-6h75.561c3.3,0,6,2.7,6,6v28.082C946.377,235.486,943.677,238.186,940.377,238.186z"/>
		<path id="XMLID_942_" fill="#214D6A" d="M883.417,226.353c0,0.812-0.752,1.534-1.623,1.534c-0.903,0-1.684-0.722-1.684-1.534
			v-12.508l-4.15,8.539c-0.301,0.631-0.903,0.932-1.563,0.932c-0.662,0-1.233-0.301-1.563-0.932l-4.12-8.539v12.508
			c0,0.812-0.781,1.534-1.713,1.534c-0.903,0-1.594-0.722-1.594-1.534v-18.612c0-0.932,0.722-1.623,1.714-1.623
			c0.781,0,1.352,0.33,1.684,0.963l5.622,11.606l5.593-11.637c0.361-0.691,0.992-0.932,1.685-0.932c0.961,0,1.713,0.722,1.713,1.623
			V226.353z"/>
		<path id="XMLID_944_" fill="#214D6A" d="M894.599,217.574c0-1.775-0.903-2.647-2.767-2.647c-0.782,0-1.262,0.181-1.775,0.39
			l-0.571,0.241c-0.181,0.091-0.511,0.151-0.781,0.151c-0.872,0-1.233-0.691-1.233-1.324c0-1.593,2.315-2.224,4.66-2.224
			c4.059,0,5.713,2.134,5.713,6.133v6.105c0,0.752,0.301,0.872,0.752,0.961c0.631,0.12,0.901,0.511,0.901,1.083
			c0,0.841-0.631,1.262-1.773,1.262c-1.052,0-1.835-0.421-2.406-1.353c-1.113,0.963-2.435,1.443-4.089,1.443
			c-3.278,0-4.961-1.833-4.961-4.63v-0.091c0-3.006,1.864-4.54,5.623-4.54c0.932,0,1.835,0.12,2.707,0.361V217.574z
			 M889.487,223.106v0.09c0,1.204,0.602,1.895,2.256,1.895c1.022,0,1.924-0.301,2.856-1.052v-2.707
			c-0.872-0.21-1.864-0.33-2.617-0.33C889.879,221.002,889.487,221.963,889.487,223.106z"/>
		<path id="XMLID_947_" fill="#214D6A" d="M908.877,225.512c-1.532,4.75-2.676,8.177-6.915,8.177c-0.963,0-1.654-0.631-1.654-1.472
			c0-0.722,0.571-1.414,1.534-1.474c1.594,0,2.346-1.083,3.187-3.608l-4.721-12.87c-0.09-0.21-0.09-0.451-0.09-0.6
			c0-0.812,0.691-1.414,1.623-1.414c0.602,0,1.233,0.33,1.474,1.022l0.27,0.813c1.022,3.036,2.045,6.043,3.037,9.14
			c0.901-3.367,1.833-6.645,2.856-9.954c0.21-0.691,0.932-1.022,1.534-1.022c0.812,0,1.623,0.602,1.623,1.503
			c0,0.151-0.031,0.301-0.091,0.451L908.877,225.512z"/>
		<path id="XMLID_949_" fill="#214D6A" d="M920.3,227.827c-3.398,0-5.173-2.346-5.173-5.804v-8.298c0-0.843,0.572-1.474,1.625-1.474
			c1.022,0,1.623,0.631,1.623,1.474v8.298c0,1.924,0.781,3.008,2.346,3.008c0.901,0,1.864-0.301,2.826-0.812
			c-0.029-0.272-0.06-0.511-0.06-0.722v-9.772c0-0.843,0.542-1.474,1.623-1.474c1.083,0,1.623,0.631,1.623,1.474v10.072
			c0,1.052,0.241,1.173,0.542,1.594c0.181,0.21,0.33,0.451,0.33,0.812c0,0.872-0.752,1.443-1.532,1.443
			c-0.662,0-1.173-0.421-1.563-1.023C923.157,227.497,921.683,227.827,920.3,227.827z M922.465,206.028
			c0.299-0.301,0.48-0.452,0.992-0.452c0.571,0,1.202,0.512,1.202,1.233c0,0.301-0.12,0.571-0.39,0.843l-2.256,2.346
			c-0.36,0.39-0.661,0.6-1.173,0.6c-0.661,0-1.262-0.511-1.262-1.262c0-0.722,1.714-2.134,2.586-3.006L922.465,206.028z"/>
		<path id="XMLID_952_" fill="#214D6A" d="M935.721,212.162c1.775,0,4.33,0.451,4.33,2.194c0,0.812-0.542,1.233-1.324,1.233
			c-0.961,0-1.412-0.662-3.006-0.662c-0.752,0-2.134,0.15-2.134,1.443c0,2.947,7.005,1.505,7.005,6.886
			c0,2.796-1.894,4.54-5.472,4.54c-1.713,0-4.901-0.39-4.901-1.985c0-0.54,0.361-1.773,1.684-1.443
			c0.542,0.12,1.835,0.691,3.097,0.691c1.353,0,2.406-0.661,2.406-1.744c0-2.826-7.006-1.323-7.006-6.645
			C930.399,213.966,932.203,212.162,935.721,212.162z"/>
	</g>
	<g id="XMLID_999_">
		<path id="XMLID_182_" fill="#FFFFFF" stroke="#214D6A" stroke-width="4.5093" stroke-miterlimit="10" d="M1072.134,238.186
			h-48.506c-3.3,0-6-2.7-6-6v-28.082c0-3.3,2.7-6,6-6h48.506c3.3,0,6,2.7,6,6v28.082
			C1078.134,235.486,1075.434,238.186,1072.134,238.186z"/>
		<path id="XMLID_956_" fill="#214D6A" d="M1030.425,219.881c-2.738-1.327-7.439-1.41-7.439-6.388c0-3.458,2.324-5.56,6.001-5.56
			c1.493,0,5.144,0.359,5.144,2.185c0,0.72-0.581,1.384-1.522,1.384c-0.967,0-1.631-0.747-3.456-0.747
			c-1.577,0-3.042,0.581-3.042,2.599c0,1.522,0.829,2.047,1.383,2.324c2.793,1.438,7.439,1.438,7.439,6.361
			c0,3.762-2.765,5.891-6.471,5.891c-1.909,0-5.505-0.608-5.505-2.322c0-0.72,0.609-1.411,1.411-1.411
			c0.83,0,1.909,0.913,4.121,0.913c2.186,0,3.292-1.05,3.292-2.876C1031.781,220.739,1031.005,220.186,1030.425,219.881z"/>
		<path id="XMLID_958_" fill="#214D6A" d="M1042.619,227.903c-3.126,0-4.758-2.158-4.758-5.338v-7.632
			c0-0.775,0.527-1.356,1.495-1.356c0.94,0,1.493,0.581,1.493,1.356v7.632c0,1.77,0.718,2.766,2.158,2.766
			c0.829,0,1.715-0.277,2.599-0.747c-0.027-0.25-0.055-0.47-0.055-0.664v-8.988c0-0.775,0.498-1.356,1.493-1.356
			c0.996,0,1.493,0.581,1.493,1.356v9.265c0,0.968,0.221,1.079,0.498,1.466c0.166,0.193,0.304,0.415,0.304,0.747
			c0,0.802-0.691,1.327-1.41,1.327c-0.609,0-1.079-0.387-1.438-0.941C1045.247,227.599,1043.891,227.903,1042.619,227.903z"/>
		<path id="XMLID_960_" fill="#214D6A" d="M1055.558,227.322v4.894c0,0.775-0.552,1.384-1.493,1.384
			c-0.968,0-1.493-0.636-1.493-1.384v-14.575c0-0.774-0.111-1.189-0.387-1.604c-0.166-0.221-0.277-0.415-0.277-0.72
			c0-0.802,0.72-1.327,1.382-1.327c0.527,0,0.941,0.277,1.273,0.72c1.272-0.72,2.517-1.216,3.955-1.216
			c3.042,0,4.73,2.156,4.73,5.31v3.401c0,3.292-1.217,5.669-4.951,5.669C1057.439,227.874,1056.554,227.736,1055.558,227.322z
			 M1055.558,224.888c0.857,0.332,1.798,0.47,2.406,0.47c1.688,0,2.297-0.995,2.297-3.153v-3.401c0-1.798-0.748-2.738-2.241-2.738
			c-0.774,0-1.659,0.275-2.572,0.747c0.055,0.304,0.111,0.581,0.111,0.829V224.888z"/>
		<path id="XMLID_963_" fill="#214D6A" d="M1069.412,217.006c0.028,0.248,0.055,0.443,0.055,0.636v8.85
			c0,0.802-0.663,1.411-1.493,1.411c-0.857,0-1.493-0.609-1.493-1.411v-8.85c0-0.774-0.111-1.189-0.387-1.604
			c-0.166-0.221-0.277-0.415-0.277-0.747c0-0.775,0.664-1.3,1.438-1.3c0.498,0,0.941,0.332,1.273,0.802
			c1.245-0.747,2.654-1.189,3.622-1.189c1.411,0,1.854,0.582,1.854,1.356c0,0.886-0.691,1.466-1.522,1.411
			C1071.321,216.341,1070.574,216.314,1069.412,217.006z"/>
	</g>
	<g id="XMLID_1078_">
		<path id="XMLID_930_" fill="#FFFFFF" stroke="#214D6A" stroke-width="4.5093" stroke-miterlimit="10" d="M169.914,288.289H70.622
			c-3.3,0-6-2.7-6-6v-28.082c0-3.3,2.7-6,6-6h99.292c3.3,0,6,2.7,6,6v28.082C175.914,285.589,173.214,288.289,169.914,288.289z"/>
		<g id="XMLID_1041_">
			<path id="XMLID_965_" fill="#214D6A" d="M73.497,264.534c0-4.69,2.256-7.758,7.217-7.758c2.946,0,5.773,1.323,5.773,2.887
				c0,0.781-0.662,1.443-1.534,1.443c-0.571,0-0.752-0.21-1.202-0.481l-0.151-0.09c-0.812-0.571-1.684-0.843-2.736-0.843
				c-3.066,0-4.059,1.864-4.059,4.841v6.194c0,2.977,0.992,4.841,4.059,4.841c1.052,0,1.924-0.27,2.736-0.812l0.151-0.091
				c0.451-0.27,0.631-0.48,1.202-0.48c0.872,0,1.534,0.661,1.534,1.412c0,1.594-2.827,2.887-5.773,2.887
				c-4.961,0-7.217-3.068-7.217-7.758V264.534z"/>
			<path id="XMLID_967_" fill="#214D6A" d="M89.46,259.965c0-0.843,0.572-1.505,1.625-1.505c1.022,0,1.623,0.691,1.623,1.505v3.728
				h2.676c0.841,0,1.534,0.631,1.534,1.472c0,0.812-0.693,1.444-1.534,1.444h-2.676v5.261c0,2.647,0.241,3.608,2.045,3.608
				c0.21,0,0.42-0.029,0.54-0.029c1.293,0,2.015,0.33,2.015,1.353c0,1.383-1.143,1.563-2.315,1.563
				c-4.421,0-5.534-2.165-5.534-6.284V259.965z"/>
			<path id="XMLID_969_" fill="#214D6A" d="M103.228,266.639c0.031,0.27,0.06,0.481,0.06,0.691v9.622
				c0,0.872-0.721,1.534-1.623,1.534c-0.932,0-1.623-0.662-1.623-1.534v-9.622c0-0.841-0.12-1.293-0.421-1.744
				c-0.181-0.241-0.301-0.451-0.301-0.812c0-0.843,0.722-1.414,1.563-1.414c0.542,0,1.023,0.361,1.384,0.872
				c1.353-0.812,2.886-1.293,3.938-1.293c1.534,0,2.015,0.633,2.015,1.474c0,0.963-0.752,1.594-1.654,1.534
				C105.304,265.917,104.492,265.888,103.228,266.639z"/>
			<path id="XMLID_971_" fill="#214D6A" d="M110.803,275.179v-17.17c0-0.812,0.693-1.503,1.625-1.503
				c0.901,0,1.623,0.661,1.623,1.503v16.989c0,0.631,0.029,0.901,0.421,1.323c0.21,0.21,0.39,0.39,0.39,0.812
				c0,0.843-0.662,1.353-1.684,1.353C112.216,278.486,110.803,278.096,110.803,275.179z"/>
		</g>
	</g>
	<g id="XMLID_1077_">
		<path id="XMLID_910_" fill="#FFFFFF" stroke="#214D6A" stroke-width="4.5093" stroke-miterlimit="10" d="M270.128,288.289h-75.001
			c-3.3,0-6-2.7-6-6v-28.082c0-3.3,2.7-6,6-6h75.001c3.3,0,6,2.7,6,6v28.082C276.128,285.589,273.428,288.289,270.128,288.289z"/>
		<g id="XMLID_1042_">
			<path id="XMLID_979_" fill="#214D6A" d="M217.773,277.374c-0.21,0.722-1.022,1.142-1.563,1.142c-0.932,0-1.713-0.6-1.713-1.532
				c0-0.151,0.029-0.452,0.06-0.572l5.863-17.83c0.33-1.022,0.843-1.804,2.015-1.804c1.171,0,1.653,0.752,2.014,1.804l5.863,17.83
				c0.06,0.12,0.091,0.421,0.091,0.572c0,0.932-0.752,1.532-1.714,1.532c-1.082,0-1.443-0.752-1.833-1.833l-0.963-2.917h-7.006
				L217.773,277.374z M219.818,270.878h5.202c-0.932-3.037-1.954-6.014-2.585-9.14C221.682,264.925,220.721,267.841,219.818,270.878
				z"/>
			<path id="XMLID_982_" fill="#214D6A" d="M233.073,275.179v-17.17c0-0.812,0.693-1.503,1.625-1.503
				c0.901,0,1.623,0.661,1.623,1.503v16.989c0,0.631,0.029,0.901,0.421,1.323c0.21,0.21,0.39,0.39,0.39,0.812
				c0,0.843-0.662,1.353-1.684,1.353C234.486,278.486,233.073,278.096,233.073,275.179z"/>
			<path id="XMLID_984_" fill="#214D6A" d="M240.528,259.965c0-0.843,0.572-1.505,1.625-1.505c1.022,0,1.623,0.691,1.623,1.505
				v3.728h2.676c0.841,0,1.534,0.631,1.534,1.472c0,0.812-0.693,1.444-1.534,1.444h-2.676v5.261c0,2.647,0.241,3.608,2.045,3.608
				c0.21,0,0.42-0.029,0.54-0.029c1.293,0,2.015,0.33,2.015,1.353c0,1.383-1.143,1.563-2.315,1.563
				c-4.421,0-5.534-2.165-5.534-6.284V259.965z"/>
		</g>
	</g>
	<g id="XMLID_1075_">
		<path id="XMLID_178_" fill="#FFFFFF" stroke="#214D6A" stroke-width="4.5093" stroke-miterlimit="10" d="M696.976,288.289h-85.034
			c-3.3,0-6-2.7-6-6v-28.082c0-3.3,2.7-6,6-6h85.034c3.3,0,6,2.7,6,6v28.082C702.976,285.589,700.276,288.289,696.976,288.289z"/>
		<g id="XMLID_1059_">
			<path id="XMLID_1012_" fill="#214D6A" d="M625.024,276.108c-0.183,0.63-0.891,0.995-1.363,0.995
				c-0.813,0-1.493-0.523-1.493-1.336c0-0.132,0.026-0.394,0.052-0.499l5.11-15.542c0.288-0.891,0.734-1.573,1.757-1.573
				c1.021,0,1.441,0.655,1.755,1.573l5.11,15.542c0.052,0.105,0.079,0.367,0.079,0.499c0,0.813-0.655,1.336-1.494,1.336
				c-0.943,0-1.258-0.655-1.598-1.598l-0.839-2.542h-6.107L625.024,276.108z M626.807,270.446h4.535
				c-0.812-2.647-1.703-5.242-2.253-7.967C628.432,265.257,627.594,267.799,626.807,270.446z"/>
			<path id="XMLID_1015_" fill="#214D6A" d="M638.362,274.195v-14.966c0-0.708,0.604-1.31,1.416-1.31
				c0.786,0,1.415,0.576,1.415,1.31v14.809c0,0.55,0.026,0.786,0.367,1.153c0.183,0.183,0.34,0.34,0.34,0.708
				c0,0.734-0.577,1.18-1.468,1.18C639.594,277.078,638.362,276.738,638.362,274.195z"/>
			<path id="XMLID_1017_" fill="#214D6A" d="M644.859,260.933c0-0.734,0.499-1.311,1.416-1.311c0.891,0,1.415,0.603,1.415,1.311
				v3.25h2.333c0.733,0,1.337,0.55,1.337,1.283c0,0.708-0.604,1.259-1.337,1.259h-2.333v4.586c0,2.307,0.21,3.145,1.782,3.145
				c0.183,0,0.366-0.026,0.471-0.026c1.127,0,1.757,0.288,1.757,1.18c0,1.205-0.997,1.363-2.018,1.363
				c-3.854,0-4.824-1.887-4.824-5.478V260.933z"/>
			<path id="XMLID_1019_" fill="#214D6A" d="M655.919,270.316c0,2.595,0.865,4.22,3.538,4.22c1.075,0,1.86-0.288,2.569-0.76v-4.849
				h-1.967c-0.681,0-1.31-0.603-1.31-1.336c0-0.734,0.63-1.311,1.31-1.311h2.988c0.97,0,1.835,0.499,1.835,1.52v6.029
				c0,2.28-3.04,3.25-5.556,3.25c-4.325,0-6.291-2.674-6.291-6.762v-5.4c0-4.088,1.967-6.762,6.291-6.762
				c2.568,0,5.032,1.153,5.032,2.517c0,0.681-0.577,1.258-1.337,1.258c-0.498,0-0.655-0.183-1.048-0.42l-0.132-0.078
				c-0.708-0.472-1.468-0.734-2.385-0.734c-2.673,0-3.538,1.625-3.538,4.22V270.316z"/>
			<path id="XMLID_1021_" fill="#214D6A" d="M670.802,266.751c0.027,0.235,0.052,0.42,0.052,0.603v8.387
				c0,0.76-0.628,1.337-1.415,1.337c-0.812,0-1.415-0.577-1.415-1.337v-8.387c0-0.733-0.105-1.127-0.367-1.52
				c-0.157-0.21-0.262-0.393-0.262-0.708c0-0.734,0.63-1.232,1.363-1.232c0.472,0,0.892,0.315,1.207,0.76
				c1.18-0.708,2.516-1.127,3.433-1.127c1.337,0,1.757,0.551,1.757,1.285c0,0.839-0.655,1.39-1.442,1.337
				C672.612,266.122,671.904,266.096,670.802,266.751z"/>
		</g>
	</g>
	<g id="XMLID_1074_">
		<path id="XMLID_179_" fill="#FFFFFF" stroke="#214D6A" stroke-width="4.5093" stroke-miterlimit="10" d="M778.676,288.289h-55.044
			c-3.3,0-6-2.7-6-6v-28.082c0-3.3,2.7-6,6-6h55.044c3.3,0,6,2.7,6,6v28.082C784.676,285.589,781.976,288.289,778.676,288.289z"/>
		<g id="XMLID_1060_">
			<path id="XMLID_1029_" fill="#214D6A" d="M740.589,276.983c0,0.812-0.752,1.563-1.653,1.563c-0.932,0-1.654-0.752-1.654-1.563
				v-18.162c0-0.872,0.782-1.773,1.864-1.773h8.148c0.903,0,1.654,0.721,1.654,1.563c0,0.872-0.752,1.503-1.654,1.503h-6.705v5.954
				h6.134c0.812,0,1.623,0.661,1.623,1.534c0,0.872-0.721,1.563-1.623,1.563h-6.134V276.983z"/>
			<path id="XMLID_1031_" fill="#214D6A" d="M755.499,276.952c0,0.843-0.542,1.503-1.623,1.503c-1.082,0-1.623-0.661-1.623-1.503
				v-9.651c0-1.324-0.211-1.384-0.391-1.684c-0.241-0.361-0.361-0.542-0.361-0.903c0-0.782,0.661-1.383,1.563-1.383
				c0.571,0,1.052,0.33,1.414,0.872c1.353-0.932,2.826-1.324,4.15-1.324c3.488,0,5.231,2.316,5.231,5.773v8.299
				c0,0.843-0.602,1.503-1.623,1.503c-1.052,0-1.623-0.661-1.623-1.503v-8.299c0-1.894-0.873-3.006-2.376-3.006
				c-0.901,0-1.833,0.33-2.826,0.932c0.06,0.27,0.09,0.511,0.09,0.722V276.952z"/>
		</g>
	</g>
	<g id="XMLID_1073_">
		<path id="XMLID_180_" fill="#FFFFFF" stroke="#214D6A" stroke-width="4.5093" stroke-miterlimit="10" d="M874.241,288.289h-71.434
			c-3.3,0-6-2.7-6-6v-28.082c0-3.3,2.7-6,6-6h71.434c3.3,0,6,2.7,6,6v28.082C880.241,285.589,877.541,288.289,874.241,288.289z"/>
		<g id="XMLID_1061_">
			<path id="XMLID_1033_" fill="#214D6A" d="M816.793,264.534c0-4.69,2.256-7.758,7.217-7.758c2.946,0,5.773,1.323,5.773,2.887
				c0,0.781-0.662,1.443-1.534,1.443c-0.571,0-0.752-0.21-1.202-0.481l-0.151-0.09c-0.812-0.571-1.684-0.843-2.736-0.843
				c-3.066,0-4.059,1.864-4.059,4.841v6.194c0,2.977,0.992,4.841,4.059,4.841c1.052,0,1.924-0.27,2.736-0.812l0.151-0.091
				c0.451-0.27,0.631-0.48,1.202-0.48c0.872,0,1.534,0.661,1.534,1.412c0,1.594-2.827,2.887-5.773,2.887
				c-4.961,0-7.217-3.068-7.217-7.758V264.534z"/>
			<path id="XMLID_1035_" fill="#214D6A" d="M836.033,266.639c0.031,0.27,0.06,0.481,0.06,0.691v9.622
				c0,0.872-0.721,1.534-1.623,1.534c-0.932,0-1.623-0.662-1.623-1.534v-9.622c0-0.841-0.12-1.293-0.421-1.744
				c-0.181-0.241-0.301-0.451-0.301-0.812c0-0.843,0.722-1.414,1.563-1.414c0.542,0,1.023,0.361,1.384,0.872
				c1.353-0.812,2.886-1.293,3.938-1.293c1.534,0,2.015,0.633,2.015,1.474c0,0.963-0.752,1.594-1.654,1.534
				C838.109,265.917,837.297,265.888,836.033,266.639z"/>
			<path id="XMLID_1037_" fill="#214D6A" d="M843.608,259.965c0-0.843,0.572-1.505,1.625-1.505c1.022,0,1.623,0.691,1.623,1.505
				v3.728h2.676c0.841,0,1.534,0.631,1.534,1.472c0,0.812-0.693,1.444-1.534,1.444h-2.676v5.261c0,2.647,0.241,3.608,2.045,3.608
				c0.21,0,0.42-0.029,0.54-0.029c1.293,0,2.015,0.33,2.015,1.353c0,1.383-1.143,1.563-2.315,1.563
				c-4.421,0-5.534-2.165-5.534-6.284V259.965z"/>
			<path id="XMLID_1039_" fill="#214D6A" d="M853.859,275.179v-17.17c0-0.812,0.693-1.503,1.625-1.503
				c0.901,0,1.623,0.661,1.623,1.503v16.989c0,0.631,0.029,0.901,0.421,1.323c0.21,0.21,0.39,0.39,0.39,0.812
				c0,0.843-0.662,1.353-1.684,1.353C855.273,278.486,853.859,278.096,853.859,275.179z"/>
		</g>
	</g>
	<g id="XMLID_1062_">
		<path id="XMLID_921_" fill="#FFFFFF" stroke="#214D6A" stroke-width="4.5093" stroke-miterlimit="10" d="M274.637,238.186h-39.105
			c-3.3,0-6-2.7-6-6v-28.082c0-3.3,2.7-6,6-6h39.105c3.3,0,6,2.7,6,6v28.082C280.637,235.486,277.937,238.186,274.637,238.186z"/>
		<path id="XMLID_1043_" fill="#214D6A" d="M258.408,227.963h-10.313c-0.992,0-1.713-0.752-1.713-1.684
			c0-0.33,0.21-0.872,0.36-1.143c1.474-2.435,7.398-12.748,8.87-15.214h-7.546c-0.932,0-1.623-0.691-1.623-1.563
			c0-0.841,0.691-1.593,1.623-1.593h10.193c0.992,0,1.744,0.752,1.744,1.653c0,0.451-0.181,0.812-0.361,1.113l-8.96,15.305h7.727
			c0.872,0,1.654,0.661,1.654,1.532C260.062,227.271,259.311,227.963,258.408,227.963z"/>
	</g>
	<g id="XMLID_1063_">
		<path id="XMLID_920_" fill="#FFFFFF" stroke="#214D6A" stroke-width="4.5093" stroke-miterlimit="10" d="M336.646,238.186h-39.105
			c-3.3,0-6-2.7-6-6v-28.082c0-3.3,2.7-6,6-6h39.105c3.3,0,6,2.7,6,6v28.082C342.646,235.486,339.946,238.186,336.646,238.186z"/>
		<path id="XMLID_1045_" fill="#214D6A" d="M312.428,227.211c-0.272,0.451-0.722,1.022-1.534,1.022
			c-0.843,0-1.594-0.752-1.594-1.563c0-0.301,0.12-0.661,0.241-0.841c1.804-2.977,3.548-5.924,5.352-8.87l-4.901-8.089
			c-0.119-0.239-0.21-0.571-0.21-0.841c0-0.782,0.722-1.534,1.563-1.534c0.752,0,1.324,0.571,1.684,1.204l3.789,6.554l3.789-6.554
			c0.301-0.512,0.932-1.173,1.714-1.204c0.812,0,1.534,0.691,1.534,1.563c0,0.241-0.091,0.542-0.211,0.812l-4.87,8.089l5.322,8.87
			c0.12,0.181,0.239,0.54,0.239,0.841c0,0.812-0.752,1.563-1.563,1.563c-0.812,0-1.262-0.511-1.563-1.022l-4.39-7.577
			C315.374,222.16,313.9,224.685,312.428,227.211z"/>
	</g>
	<g id="XMLID_1064_">
		<path id="XMLID_919_" fill="#FFFFFF" stroke="#214D6A" stroke-width="4.5093" stroke-miterlimit="10" d="M398.655,238.186H359.55
			c-3.3,0-6-2.7-6-6v-28.082c0-3.3,2.7-6,6-6h39.105c3.3,0,6,2.7,6,6v28.082C404.655,235.486,401.955,238.186,398.655,238.186z"/>
		<path id="XMLID_1047_" fill="#214D6A" d="M372.309,214.252c0-4.69,2.256-7.758,7.217-7.758c2.946,0,5.773,1.323,5.773,2.887
			c0,0.781-0.662,1.443-1.534,1.443c-0.571,0-0.752-0.21-1.202-0.481l-0.151-0.09c-0.812-0.571-1.684-0.843-2.736-0.843
			c-3.066,0-4.059,1.864-4.059,4.841v6.194c0,2.977,0.992,4.841,4.059,4.841c1.052,0,1.924-0.27,2.736-0.812l0.151-0.091
			c0.451-0.27,0.631-0.48,1.202-0.48c0.872,0,1.534,0.661,1.534,1.412c0,1.594-2.827,2.887-5.773,2.887
			c-4.961,0-7.217-3.068-7.217-7.758V214.252z"/>
	</g>
	<g id="XMLID_1065_">
		<path id="XMLID_918_" fill="#FFFFFF" stroke="#214D6A" stroke-width="4.5093" stroke-miterlimit="10" d="M460.663,238.186h-39.105
			c-3.3,0-6-2.7-6-6v-28.082c0-3.3,2.7-6,6-6h39.105c3.3,0,6,2.7,6,6v28.082C466.663,235.486,463.963,238.186,460.663,238.186z"/>
		<path id="XMLID_1049_" fill="#214D6A" d="M440.251,223.272c0.272-1.142,0.542-2.435,0.903-3.548l3.758-12.086
			c0.211-0.693,0.992-1.143,1.594-1.143c0.992,0,1.714,0.631,1.714,1.563c0,0.12-0.031,0.421-0.06,0.542l-5.864,17.83
			c-0.361,1.083-0.872,1.804-2.045,1.804c-1.142,0-1.653-0.752-1.985-1.804l-5.863-17.83c-0.06-0.12-0.091-0.421-0.091-0.542
			c0-0.932,0.782-1.563,1.714-1.563c0.571,0,1.323,0.451,1.563,1.143C437.214,212.838,438.988,218.011,440.251,223.272z"/>
	</g>
	<g id="XMLID_1066_">
		<path id="XMLID_917_" fill="#FFFFFF" stroke="#214D6A" stroke-width="4.5093" stroke-miterlimit="10" d="M522.672,238.186h-39.105
			c-3.3,0-6-2.7-6-6v-28.082c0-3.3,2.7-6,6-6h39.105c3.3,0,6,2.7,6,6v28.082C528.672,235.486,525.972,238.186,522.672,238.186z"/>
		<path id="XMLID_1051_" fill="#214D6A" d="M496.164,227.963c-1.082,0-1.894-0.812-1.894-1.804V208.57
			c0-1.023,0.872-1.804,1.894-1.804h5.082c4.21,0,6.315,2.796,6.315,5.682c0,2.346-1.503,3.639-3.518,4.54
			c1.924,0.691,4.089,1.835,4.089,4.812c0,3.457-2.676,6.164-7.006,6.164H496.164z M501.036,215.424
			c1.503,0,3.218-0.932,3.218-2.946c0-1.384-0.722-2.647-2.856-2.647h-3.819v5.593H501.036z M497.578,218.522v6.375h3.518
			c2.495,0,3.728-1.233,3.728-3.097c0-2.105-1.594-3.278-3.699-3.278H497.578z"/>
	</g>
	<g id="XMLID_1067_">
		<path id="XMLID_916_" fill="#FFFFFF" stroke="#214D6A" stroke-width="4.5093" stroke-miterlimit="10" d="M584.68,238.186h-39.105
			c-3.3,0-6-2.7-6-6v-28.082c0-3.3,2.7-6,6-6h39.105c3.3,0,6,2.7,6,6v28.082C590.68,235.486,587.98,238.186,584.68,238.186z"/>
		<path id="XMLID_1055_" fill="#214D6A" d="M567.382,227.392l-7.818-14.102v13.38c0,0.843-0.781,1.594-1.684,1.594
			c-0.932,0-1.623-0.752-1.623-1.594v-18.492c0-0.961,0.722-1.684,1.744-1.684c0.662,0,1.323,0.361,1.654,0.903
			c1.323,2.315,6.434,11.696,7.818,14.102v-13.41c0-0.872,0.781-1.594,1.684-1.594c0.901,0,1.623,0.722,1.623,1.594v18.492
			c0,0.901-0.722,1.684-1.775,1.684C568.374,228.264,567.683,227.903,567.382,227.392z"/>
	</g>
	<g id="XMLID_1068_">
		<path id="XMLID_915_" fill="#FFFFFF" stroke="#214D6A" stroke-width="4.5093" stroke-miterlimit="10" d="M646.689,238.186h-39.105
			c-3.3,0-6-2.7-6-6v-28.082c0-3.3,2.7-6,6-6h39.105c3.3,0,6,2.7,6,6v28.082C652.689,235.486,649.989,238.186,646.689,238.186z"/>
		<path id="XMLID_1057_" fill="#214D6A" d="M637.879,226.73c0,0.812-0.752,1.534-1.623,1.534c-0.903,0-1.684-0.722-1.684-1.534
			v-12.508l-4.15,8.539c-0.301,0.631-0.903,0.932-1.563,0.932c-0.662,0-1.233-0.301-1.563-0.932l-4.12-8.539v12.508
			c0,0.812-0.781,1.534-1.713,1.534c-0.903,0-1.594-0.722-1.594-1.534v-18.612c0-0.932,0.722-1.623,1.714-1.623
			c0.781,0,1.352,0.33,1.684,0.963l5.622,11.606l5.593-11.637c0.361-0.691,0.992-0.932,1.685-0.932c0.961,0,1.713,0.722,1.713,1.623
			V226.73z"/>
	</g>
	<g id="XMLID_998_">
		<path id="XMLID_133_" fill="#FFFFFF" stroke="#214D6A" stroke-width="4" stroke-miterlimit="10" d="M1073.347,99.696h-88.892
			h-6.708h-26.36c-4.96,0-10.387,5.267-10.387,10.227v22.045c0,4.96,5.427,8.728,10.387,8.728H974v45.155
			c0,2.606,1.141,4.845,3.747,4.845h95.6c2.605,0,5.653-2.239,5.653-4.845v-80.208C1079,103.036,1075.952,99.696,1073.347,99.696z"
			/>
		<polyline id="XMLID_443_" fill="none" stroke="#214D6A" stroke-miterlimit="10" points="1053.5,126.696 1053.5,150.196 
			1000,150.196 		"/>
		<polygon id="XMLID_808_" fill="#214D6A" points="1001,143.492 1001,155.767 991.982,149.504 		"/>
	</g>
	<g id="XMLID_1002_">
		<path id="XMLID_923_" fill="#FFFFFF" stroke="#214D6A" stroke-width="4.5093" stroke-miterlimit="10" d="M940.377,288.289h-39.105
			c-3.3,0-6-2.7-6-6v-28.082c0-3.3,2.7-6,6-6h39.105c3.3,0,6,2.7,6,6v28.082C946.377,285.589,943.677,288.289,940.377,288.289z"/>
		<line id="XMLID_810_" fill="none" stroke="#214D6A" stroke-miterlimit="10" x1="933" y1="267.196" x2="917" y2="267.196"/>
		<polygon id="XMLID_809_" fill="#214D6A" points="919,260.733 919,274.511 909.982,266.745 		"/>
	</g>
	<g id="XMLID_1000_">
		<path id="XMLID_925_" fill="#FFFFFF" stroke="#214D6A" stroke-width="4.5093" stroke-miterlimit="10" d="M1064.394,288.289
			h-39.105c-3.3,0-6-2.7-6-6v-28.082c0-3.3,2.7-6,6-6h39.105c3.3,0,6,2.7,6,6v28.082
			C1070.394,285.589,1067.694,288.289,1064.394,288.289z"/>
		<line id="XMLID_812_" fill="none" stroke="#214D6A" stroke-miterlimit="10" x1="1036" y1="267.196" x2="1050" y2="267.196"/>
		<polygon id="XMLID_811_" fill="#214D6A" points="1049,274.511 1049,260.733 1058.019,266.995 		"/>
	</g>
	<g id="XMLID_1001_">
		<path id="XMLID_924_" fill="#FFFFFF" stroke="#214D6A" stroke-width="4.5093" stroke-miterlimit="10" d="M1002.385,288.289H963.28
			c-3.3,0-6-2.7-6-6v-28.082c0-3.3,2.7-6,6-6h39.105c3.3,0,6,2.7,6,6v28.082C1008.385,285.589,1005.685,288.289,1002.385,288.289z"
			/>
		<line id="XMLID_814_" fill="none" stroke="#214D6A" stroke-miterlimit="10" x1="983.5" y1="257.696" x2="983.5" y2="272.696"/>
		<polygon id="XMLID_813_" fill="#214D6A" points="977.872,270.696 990.148,270.696 983.885,279.714 		"/>
	</g>
	<g id="XMLID_1003_">
		<path id="XMLID_926_" fill="#FFFFFF" stroke="#214D6A" stroke-width="4.5093" stroke-miterlimit="10" d="M1002.385,238.186H963.28
			c-3.3,0-6-2.7-6-6v-28.082c0-3.3,2.7-6,6-6h39.105c3.3,0,6,2.7,6,6v28.082C1008.385,235.486,1005.685,238.186,1002.385,238.186z"
			/>
		<line id="XMLID_816_" fill="none" stroke="#214D6A" stroke-miterlimit="10" x1="983.5" y1="230.696" x2="983.5" y2="215.696"/>
		<polygon id="XMLID_815_" fill="#214D6A" points="990.148,216.696 977.872,216.696 984.135,207.677 		"/>
	</g>
</g>
</svg>
