<?xml version="1.0" encoding="utf-8"?>
<!-- Generator: Adobe Illustrator 16.0.4, SVG Export Plug-In . SVG Version: 6.00 Build 0)  -->
<!DOCTYPE svg PUBLIC "-//W3C//DTD SVG 1.0//EN" "http://www.w3.org/TR/2001/REC-SVG-20010904/DTD/svg10.dtd">
<svg version="1.0" id="Layer_1" xmlns="http://www.w3.org/2000/svg" xmlns:xlink="http://www.w3.org/1999/xlink" x="0px" y="0px"
	 width="100%" height="100%" viewBox="0 0 124.788 120.768" enable-background="new 0 0 124.788 120.768"
	 xml:space="preserve">
<g>
	<g>
		<path fill="#FF9024" d="M75.387,56.789c0,3.024-0.345,5.587-1.031,7.689c-0.688,2.104-1.656,3.814-2.907,5.134
			s-2.77,2.281-4.556,2.886c-1.787,0.604-3.793,0.907-6.02,0.907s-4.233-0.303-6.02-0.907c-1.787-0.604-3.306-1.566-4.557-2.886
			s-2.22-3.03-2.907-5.134c-0.688-2.103-1.031-4.665-1.031-7.689c0-2.995,0.343-5.552,1.031-7.669
			c0.687-2.116,1.656-3.834,2.907-5.154c1.251-1.319,2.77-2.281,4.557-2.886c1.786-0.604,3.793-0.907,6.02-0.907
			s4.232,0.303,6.02,0.907c1.786,0.604,3.305,1.566,4.556,2.886c1.251,1.32,2.22,3.038,2.907,5.154
			C75.042,51.237,75.387,53.794,75.387,56.789z M60.873,66.066c0.934,0,1.635-0.24,2.103-0.722c0.467-0.48,0.701-1.258,0.701-2.33
			V50.563c0-1.072-0.234-1.849-0.701-2.33c-0.468-0.48-1.169-0.722-2.103-0.722c-0.935,0-1.636,0.241-2.103,0.722
			c-0.468,0.481-0.701,1.258-0.701,2.33v12.451c0,1.072,0.233,1.85,0.701,2.33C59.237,65.826,59.938,66.066,60.873,66.066z"/>
	</g>
	<g>
		<g>
			<g>
				<path fill="#003452" d="M32.855,78.209h-0.004c-0.201-0.002-0.362-0.167-0.359-0.368l0.007-0.714
					c0.042-5.706-0.126-11.495-0.29-17.094c-0.164-5.601-0.333-11.393-0.291-17.099c0.013-1.814,0.046-3.496,0.1-5.143
					c0.006-0.195,0.166-0.351,0.361-0.352c6.066-0.032,12.124-0.072,18.179-0.111c13.577-0.09,27.588-0.185,41.463-0.178
					c0.201,0,0.364,0.163,0.364,0.364c0.001,10.504,0.565,27.845,0.989,39.976c0.007,0.2-0.15,0.369-0.351,0.376
					c-0.22,0.008-0.37-0.149-0.377-0.351c-0.419-11.997-0.975-29.09-0.989-39.637c-13.706,0.008-27.638,0.088-41.095,0.177
					c-5.938,0.038-11.88,0.077-17.829,0.109c-0.047,1.528-0.076,3.094-0.089,4.774c-0.042,5.692,0.126,11.478,0.29,17.071
					c0.163,5.605,0.333,11.401,0.291,17.118l-0.007,0.72C33.217,78.049,33.054,78.209,32.855,78.209z"/>
			</g>
		</g>
		<g>
			<g>
				<path fill="#003452" d="M68.626,82.854c-0.2,0-0.363-0.162-0.364-0.362c0-0.201,0.162-0.364,0.362-0.365
					c10.575-0.054,19.676-0.123,27.055-0.207c-0.056-1.415-0.129-2.761-0.223-4.092c-9.846,0.173-19.863,0.163-29.557,0.156
					l-1.159-0.001c-0.201,0-0.363-0.163-0.363-0.364c0-0.2,0.162-0.363,0.363-0.363l0,0l1.159,0.002
					c9.804,0.006,19.939,0.016,29.889-0.163c0.177,0.001,0.354,0.145,0.369,0.337c0.114,1.569,0.2,3.15,0.264,4.834
					c0.003,0.098-0.033,0.193-0.101,0.265c-0.067,0.07-0.161,0.111-0.259,0.112c-7.447,0.086-16.678,0.157-27.434,0.212H68.626z"/>
			</g>
		</g>
		<g>
			<g>
				<path fill="#003452" d="M36.29,82.947c-2.621,0-4.453-0.004-5.292-0.01l-1.099-0.01c-0.196-0.002-0.355-0.158-0.36-0.354
					l-0.022-0.858c-0.032-1.264-0.065-2.526-0.109-3.781c-0.003-0.098,0.032-0.191,0.099-0.262c0.066-0.071,0.159-0.112,0.255-0.115
					c9.412-0.25,18.736-0.303,29.797-0.303c0.125,0,0.251,0,0.377,0c0.201,0,0.364,0.163,0.364,0.363
					c0,0.201-0.163,0.364-0.364,0.364l0,0c-0.126,0-0.252,0-0.378,0c-10.912,0-20.13,0.051-29.41,0.293
					c0.038,1.137,0.067,2.278,0.096,3.422l0.013,0.507l0.747,0.007c2.482,0.019,13.667,0.015,28.214-0.041h0.002
					c0.2,0,0.362,0.162,0.363,0.362s-0.161,0.364-0.362,0.365C49.587,82.933,41.426,82.947,36.29,82.947z"/>
			</g>
		</g>
		<g>
			<g>
				<path fill="#003452" d="M59.444,81.144h-0.01c-4.705-0.122-6.67-0.587-6.65-3.147c0.002-0.129,0.006-0.258,0.011-0.386
					c0.008-0.201,0.175-0.364,0.378-0.349c0.201,0.008,0.357,0.177,0.35,0.378c-0.005,0.121-0.01,0.242-0.011,0.363
					c-0.012,1.667,0.884,2.282,5.941,2.413c0.201,0.006,0.359,0.173,0.354,0.374C59.803,80.987,59.641,81.144,59.444,81.144z"/>
			</g>
		</g>
		<g>
			<g>
				<path fill="#003452" d="M68.262,80.984c-0.186,0-0.344-0.142-0.362-0.33c-0.018-0.199,0.128-0.377,0.328-0.396
					c3.061-0.288,3.068-1.273,3.078-2.638c0.002-0.201,0.162-0.369,0.366-0.36c0.201,0.001,0.362,0.165,0.361,0.366
					c-0.013,1.703-0.296,3.031-3.737,3.355C68.285,80.984,68.272,80.984,68.262,80.984z"/>
			</g>
		</g>
		<g>
			<g>
				<path fill="#003452" d="M38.229,80.622c-1.794,0-3.602-0.013-5.447-0.027c-0.201-0.001-0.362-0.165-0.361-0.366
					c0.001-0.199,0.164-0.36,0.364-0.36h0.003c5.16,0.038,10.035,0.074,15.098-0.181c0.217-0.011,0.371,0.145,0.382,0.346
					c0.01,0.2-0.145,0.371-0.345,0.381C44.65,80.578,41.463,80.622,38.229,80.622z"/>
			</g>
		</g>
		<g>
			<g>
				<path fill="#003452" d="M35.853,75.279c-0.092,0-0.181-0.035-0.248-0.098c-0.071-0.066-0.112-0.158-0.116-0.255l-1.058-33.611
					c-0.003-0.098,0.034-0.191,0.101-0.263c0.067-0.07,0.16-0.11,0.258-0.112c12.05-0.158,24.267-0.238,36.082-0.315
					c5.83-0.038,11.665-0.077,17.508-0.124c0.069,0.004,0.19,0.037,0.26,0.105c0.068,0.069,0.107,0.162,0.107,0.26
					c-0.035,9.262,0.273,17.621,0.663,28.205c0.06,1.629,0.14,3.176,0.22,4.732l0.048,0.921c0.011,0.2-0.144,0.371-0.344,0.382
					c-2.168,0.112-4.101,0.158-5.917,0.148c-5.694-0.042-11.389-0.062-17.083-0.083l-1.403-0.005
					c-0.201-0.001-0.362-0.164-0.362-0.365c0.001-0.2,0.164-0.362,0.364-0.362h0.001l1.403,0.005
					c5.695,0.021,11.391,0.041,17.086,0.083c1.698,0.012,3.503-0.029,5.51-0.129l-0.028-0.558c-0.081-1.56-0.162-3.11-0.22-4.688
					c-0.387-10.506-0.691-18.791-0.667-27.922c-5.72,0.046-11.433,0.084-17.141,0.121c-11.693,0.076-23.78,0.156-35.707,0.311
					l1.035,32.876c6.067-0.22,12.229-0.182,18.193-0.146l6.076,0.03c0.201,0.001,0.363,0.165,0.362,0.365s-0.163,0.362-0.363,0.362
					h-0.002l-6.077-0.03c-6.075-0.038-12.358-0.075-18.527,0.159C35.866,75.279,35.857,75.279,35.853,75.279z"/>
			</g>
		</g>
		<g>
			<g>
				<circle fill="#003452" cx="61.861" cy="39.383" r="0.683"/>
			</g>
		</g>
		<g>
			<g>
				<path fill="#003452" d="M80.051,77.977c-0.174,0-0.327-0.125-0.358-0.303c-0.042-0.244-0.065-0.483-0.064-0.653
					c0.007-0.857,1.039-1.019,1.378-1.072c0.722-0.112,1.752-0.126,3.3-0.116l0.2,0.001c0.92,0.006,1.341,0.009,1.619,0.301
					c0.261,0.273,0.246,0.641,0.219,1.308l-0.006,0.153c-0.008,0.196-0.169,0.35-0.363,0.35c-0.004,0-0.009,0-0.015,0
					c-0.2-0.008-0.357-0.177-0.35-0.378l0.007-0.155c0.014-0.329,0.028-0.703-0.02-0.777c-0.086-0.067-0.577-0.07-1.097-0.073
					L84.3,76.56c-1.468-0.01-2.513,0.004-3.183,0.108c-0.504,0.078-0.761,0.198-0.762,0.356c-0.001,0.099,0.014,0.289,0.055,0.526
					c0.034,0.198-0.1,0.386-0.297,0.42C80.092,77.975,80.071,77.977,80.051,77.977z"/>
			</g>
		</g>
		<g>
			<g>
				<path fill="#003452" d="M38.853,78.1c-0.185,0-0.343-0.14-0.361-0.327c-0.009-0.092-0.014-0.183-0.013-0.274v-0.146
					c-0.009-1.222,0.178-1.229,4.939-1.424l1.571-0.065c0.263,0.002,0.481,0.135,0.619,0.364c0.118,0.196,0.177,0.457,0.174,0.774
					c-0.001,0.149-0.008,0.301-0.014,0.454l-0.01,0.222c-0.007,0.201-0.161,0.379-0.376,0.351c-0.201-0.007-0.358-0.176-0.352-0.376
					l0.011-0.229c0.006-0.144,0.013-0.286,0.013-0.428c0.002-0.279-0.063-0.397-0.086-0.416l-1.521,0.075
					c-4.245,0.174-4.245,0.183-4.241,0.692v0.157c-0.001,0.066,0.003,0.131,0.009,0.196c0.021,0.2-0.125,0.378-0.325,0.398
					C38.877,78.1,38.865,78.1,38.853,78.1z"/>
			</g>
		</g>
	</g>
	<g>
		<g>
			<path fill="#003452" d="M60.597,32.9c-0.007,0-0.014,0-0.021-0.001c-0.146-0.009-0.272-0.104-0.321-0.24
				c-1.065-2.989-1.718-8.898-1.779-9.688c-0.644-8.195,2.153-9.733,11.466-10.465c2.865-0.226,20.469-0.355,22.197-0.355
				c6.066,0,8.766,4.039,9.227,9.916c0.127,1.604-0.259,2.942-1.146,3.979c-2.271,2.656-23.696,0.908-29.218,1.336l-0.82,0.063
				c-0.877,0.069-1.756,0.126-2.637,0.183c-0.875,0.058-1.752,0.114-2.627,0.184c-0.834,0.064-1.571,0.135-2.243,0.21
				c-0.444,1.648-1.033,3.221-1.751,4.677C60.861,32.822,60.735,32.9,60.597,32.9z M92.139,12.878
				c-1.705,0-19.293,0.13-22.141,0.354c-8.899,0.699-11.397,2.055-10.798,9.684c0.055,0.704,0.589,5.557,1.463,8.626
				c0.554-1.244,1.015-2.567,1.371-3.944c0.038-0.145,0.16-0.252,0.31-0.27c0.749-0.088,1.572-0.167,2.518-0.241
				c0.877-0.069,1.758-0.126,2.637-0.183c0.877-0.058,1.752-0.114,2.627-0.184l0.82-0.063c5.367-0.415,26.646,1.345,28.723-1.083
				c0.767-0.896,1.085-2.025,0.973-3.449C100.209,16.622,97.834,12.878,92.139,12.878z"/>
		</g>
	</g>
	<g>
		<g>
			<g>
				<path fill="#003452" d="M49.108,61.755c-1.675,0-2.988-1.951-2.988-4.442s1.312-4.443,2.988-4.443
					c1.675,0,2.987,1.952,2.987,4.443S50.783,61.755,49.108,61.755z M49.108,53.839c-1.094,0-2.02,1.591-2.02,3.474
					s0.925,3.473,2.02,3.473s2.02-1.59,2.02-3.473S50.203,53.839,49.108,53.839z"/>
			</g>
			<g>
				<path fill="#003452" d="M47.965,54.297c-0.158,0-0.314-0.079-0.408-0.222l-3.539-5.461c-0.145-0.223-0.082-0.523,0.143-0.67
					c0.224-0.145,0.525-0.082,0.67,0.144l3.541,5.459c0.145,0.224,0.081,0.526-0.144,0.671
					C48.147,54.271,48.056,54.297,47.965,54.297z"/>
			</g>
			<g>
				<path fill="#003452" d="M47.019,55.621c-0.127,0-0.254-0.048-0.349-0.146l-4.451-4.605c-0.186-0.193-0.181-0.5,0.012-0.686
					c0.195-0.185,0.501-0.179,0.685,0.011l4.45,4.607c0.188,0.191,0.182,0.498-0.011,0.686C47.26,55.576,47.14,55.621,47.019,55.621
					z"/>
			</g>
			<g>
				<path fill="#003452" d="M53.08,66.311c-0.146,0-0.29-0.064-0.385-0.188c-0.161-0.215-0.121-0.517,0.092-0.679
					c1.063-0.815,1.744-1.994,1.921-3.318c0.176-1.324-0.177-2.64-0.989-3.702c-0.164-0.214-0.123-0.516,0.089-0.678
					c0.211-0.165,0.517-0.122,0.679,0.088c0.972,1.269,1.392,2.838,1.182,4.42c-0.21,1.582-1.026,2.988-2.293,3.957
					C53.286,66.278,53.184,66.311,53.08,66.311z"/>
			</g>
			<g>
				<path fill="#003452" d="M57.873,65.919c-0.081,0-0.164-0.021-0.238-0.062c-0.232-0.129-0.316-0.424-0.184-0.657
					c1.205-2.146,0.441-4.872-1.701-6.078c-0.233-0.129-0.316-0.426-0.186-0.66c0.133-0.231,0.429-0.312,0.66-0.184
					c2.611,1.47,3.538,4.784,2.071,7.395C58.205,65.831,58.042,65.919,57.873,65.919z"/>
			</g>
			<g>
				<path fill="#003452" d="M51.544,54.825l-0.779-0.574c0.791-1.074,2.058-1.715,3.393-1.715l0.076,0.969
					C53.114,53.505,52.163,53.985,51.544,54.825z"/>
			</g>
			<g>
				<path fill="#003452" d="M54.158,60.963c-1.266,0-2.453-0.563-3.258-1.54l0.749-0.618c0.621,0.755,1.533,1.19,2.51,1.19
					l0.143,0.966L54.158,60.963z"/>
			</g>
			<g>
				<path fill="#003452" d="M68.406,60.963H53.691v-0.968h14.715c8.34,0,10.519-3.709,10.539-3.747l0.846,0.474
					C79.693,56.896,77.309,60.963,68.406,60.963z"/>
			</g>
			<g>
				<path fill="#003452" d="M64.73,53.624c-0.004,0-0.008,0-0.014,0c-5.218-0.138-10.507-0.119-10.559-0.119c0,0,0,0,0,0
					c-0.267,0-0.484-0.216-0.485-0.482c-0.001-0.266,0.215-0.485,0.482-0.486c0.049-0.002,5.353-0.021,10.587,0.119
					c0.268,0.007,0.48,0.229,0.473,0.496C65.207,53.416,64.991,53.624,64.73,53.624z"/>
			</g>
			<g>
				<path fill="#003452" d="M70.102,58.612h-5.045c-0.27,0-0.484-0.218-0.484-0.484c0-0.268,0.215-0.483,0.484-0.483h5.045
					c3.202,0,7.248-1.13,9.11-1.707c-0.923-0.466-2.55-1.154-4.91-1.653c-1.04-0.217-3.006-0.395-5.841-0.525
					c-0.266-0.015-0.475-0.241-0.46-0.508c0.011-0.268,0.245-0.453,0.505-0.462c2.887,0.134,4.904,0.318,5.996,0.548
					c4.109,0.867,6.096,2.273,6.179,2.33c0.146,0.107,0.222,0.284,0.196,0.462c-0.024,0.181-0.148,0.329-0.319,0.389
					C80.314,56.604,74.555,58.612,70.102,58.612z"/>
			</g>
			<g>
				<path fill="#003452" d="M61.987,58.612h-2.604c-3.65,0-6.939-1.832-8.186-2.619c-0.226-0.142-0.293-0.439-0.15-0.668
					c0.144-0.228,0.445-0.291,0.668-0.148c1.173,0.742,4.272,2.468,7.667,2.468h2.604c0.268,0,0.484,0.216,0.484,0.483
					C62.471,58.395,62.255,58.612,61.987,58.612z"/>
			</g>
			<g>
				<path fill="#003452" d="M73.191,63.274c-0.041,0-0.082-0.004-0.123-0.014c-0.198-0.053-0.34-0.222-0.36-0.424L67.605,52.15
					c-0.115-0.239-0.013-0.529,0.229-0.644c0.242-0.117,0.529-0.015,0.646,0.229l4.82,10.095c1.135-1.196,2.982-1.521,4.48-0.676
					c0.234,0.131,0.315,0.428,0.184,0.66c-0.132,0.233-0.43,0.311-0.659,0.184c-1.305-0.735-2.96-0.272-3.692,1.031
					C73.525,63.186,73.363,63.274,73.191,63.274z"/>
			</g>
			<g>
				<path fill="#003452" d="M63.441,59.184L63.441,59.184c-0.69,0-1.339-0.269-1.826-0.757c-1.006-1.006-1.006-2.646,0-3.653
					l4.361-3.211c0.56-0.574,1.785-0.618,2.453,0.051c0.336,0.333,0.521,0.779,0.521,1.255c0,0.475-0.185,0.921-0.52,1.254
					l-3.116,4.251C64.779,58.915,64.131,59.184,63.441,59.184z M67.174,52.061c-0.215,0-0.418,0.083-0.568,0.234l-4.361,3.212
					c-0.572,0.582-0.575,1.606,0.055,2.235c0.611,0.609,1.674,0.609,2.282,0l3.115-4.249c0.201-0.207,0.283-0.409,0.283-0.624
					c0-0.216-0.083-0.421-0.236-0.572C67.593,52.144,67.39,52.061,67.174,52.061z"/>
			</g>
		</g>
		<g>
			<g>
				<path fill="#231F20" d="M49.108,61.755c-1.675,0-2.988-1.951-2.988-4.442s1.312-4.443,2.988-4.443
					c1.675,0,2.987,1.952,2.987,4.443S50.783,61.755,49.108,61.755z M49.108,53.839c-1.094,0-2.02,1.591-2.02,3.474
					s0.925,3.473,2.02,3.473s2.02-1.59,2.02-3.473S50.203,53.839,49.108,53.839z"/>
			</g>
			<g>
				<path fill="#231F20" d="M47.965,54.297c-0.158,0-0.314-0.079-0.408-0.222l-3.539-5.461c-0.145-0.223-0.082-0.523,0.143-0.67
					c0.224-0.145,0.525-0.082,0.67,0.144l3.541,5.459c0.145,0.224,0.081,0.526-0.144,0.671
					C48.147,54.271,48.056,54.297,47.965,54.297z"/>
			</g>
			<g>
				<path fill="#231F20" d="M47.019,55.621c-0.127,0-0.254-0.048-0.349-0.146l-4.451-4.605c-0.186-0.193-0.181-0.5,0.012-0.686
					c0.195-0.185,0.501-0.179,0.685,0.011l4.45,4.607c0.188,0.191,0.182,0.498-0.011,0.686C47.26,55.576,47.14,55.621,47.019,55.621
					z"/>
			</g>
			<g>
				<path fill="#231F20" d="M53.08,66.311c-0.146,0-0.29-0.064-0.385-0.188c-0.161-0.215-0.121-0.517,0.092-0.679
					c1.063-0.815,1.744-1.994,1.921-3.318c0.176-1.324-0.177-2.64-0.989-3.702c-0.164-0.214-0.123-0.516,0.089-0.678
					c0.211-0.165,0.517-0.122,0.679,0.088c0.972,1.269,1.392,2.838,1.182,4.42c-0.21,1.582-1.026,2.988-2.293,3.957
					C53.286,66.278,53.184,66.311,53.08,66.311z"/>
			</g>
			<g>
				<path fill="#231F20" d="M57.873,65.919c-0.081,0-0.164-0.021-0.238-0.062c-0.232-0.129-0.316-0.424-0.184-0.657
					c1.205-2.146,0.441-4.872-1.701-6.078c-0.233-0.129-0.316-0.426-0.186-0.66c0.133-0.231,0.429-0.312,0.66-0.184
					c2.611,1.47,3.538,4.784,2.071,7.395C58.205,65.831,58.042,65.919,57.873,65.919z"/>
			</g>
			<g>
				<path fill="#231F20" d="M51.544,54.825l-0.779-0.574c0.791-1.074,2.058-1.715,3.393-1.715l0.076,0.969
					C53.114,53.505,52.163,53.985,51.544,54.825z"/>
			</g>
			<g>
				<path fill="#231F20" d="M54.158,60.963c-1.266,0-2.453-0.563-3.258-1.54l0.749-0.618c0.621,0.755,1.533,1.19,2.51,1.19
					l0.143,0.966L54.158,60.963z"/>
			</g>
			<g>
				<path fill="#231F20" d="M68.406,60.963H53.691v-0.968h14.715c8.34,0,10.519-3.709,10.539-3.747l0.846,0.474
					C79.693,56.896,77.309,60.963,68.406,60.963z"/>
			</g>
			<g>
				<path fill="#231F20" d="M64.73,53.624c-0.004,0-0.008,0-0.014,0c-5.218-0.138-10.507-0.119-10.559-0.119c0,0,0,0,0,0
					c-0.267,0-0.484-0.216-0.485-0.482c-0.001-0.266,0.215-0.485,0.482-0.486c0.049-0.002,5.353-0.021,10.587,0.119
					c0.268,0.007,0.48,0.229,0.473,0.496C65.207,53.416,64.991,53.624,64.73,53.624z"/>
			</g>
			<g>
				<path fill="#231F20" d="M70.102,58.612h-5.045c-0.27,0-0.484-0.218-0.484-0.484c0-0.268,0.215-0.483,0.484-0.483h5.045
					c3.202,0,7.248-1.13,9.11-1.707c-0.923-0.466-2.55-1.154-4.91-1.653c-1.04-0.217-3.006-0.395-5.841-0.525
					c-0.266-0.015-0.475-0.241-0.46-0.508c0.011-0.268,0.245-0.453,0.505-0.462c2.887,0.134,4.904,0.318,5.996,0.548
					c4.109,0.867,6.096,2.273,6.179,2.33c0.146,0.107,0.222,0.284,0.196,0.462c-0.024,0.181-0.148,0.329-0.319,0.389
					C80.314,56.604,74.555,58.612,70.102,58.612z"/>
			</g>
			<g>
				<path fill="#231F20" d="M61.987,58.612h-2.604c-3.65,0-6.939-1.832-8.186-2.619c-0.226-0.142-0.293-0.439-0.15-0.668
					c0.144-0.228,0.445-0.291,0.668-0.148c1.173,0.742,4.272,2.468,7.667,2.468h2.604c0.268,0,0.484,0.216,0.484,0.483
					C62.471,58.395,62.255,58.612,61.987,58.612z"/>
			</g>
			<g>
				<path fill="#231F20" d="M73.191,63.274c-0.041,0-0.082-0.004-0.123-0.014c-0.198-0.053-0.34-0.222-0.36-0.424L67.605,52.15
					c-0.115-0.239-0.013-0.529,0.229-0.644c0.242-0.117,0.529-0.015,0.646,0.229l4.82,10.095c1.135-1.196,2.982-1.521,4.48-0.676
					c0.234,0.131,0.315,0.428,0.184,0.66c-0.132,0.233-0.43,0.311-0.659,0.184c-1.305-0.735-2.96-0.272-3.692,1.031
					C73.525,63.186,73.363,63.274,73.191,63.274z"/>
			</g>
			<g>
				<path fill="#231F20" d="M63.441,59.184L63.441,59.184c-0.69,0-1.339-0.269-1.826-0.757c-1.006-1.006-1.006-2.646,0-3.653
					l4.361-3.211c0.56-0.574,1.785-0.618,2.453,0.051c0.336,0.333,0.521,0.779,0.521,1.255c0,0.475-0.185,0.921-0.52,1.254
					l-3.116,4.251C64.779,58.915,64.131,59.184,63.441,59.184z M67.174,52.061c-0.215,0-0.418,0.083-0.568,0.234l-4.361,3.212
					c-0.572,0.582-0.575,1.606,0.055,2.235c0.611,0.609,1.674,0.609,2.282,0l3.115-4.249c0.201-0.207,0.283-0.409,0.283-0.624
					c0-0.216-0.083-0.421-0.236-0.572C67.593,52.144,67.39,52.061,67.174,52.061z"/>
			</g>
		</g>
		<g>
			<g>
				<path fill="none" stroke="#FFFFFF" stroke-width="3" d="M49.108,61.755c-1.675,0-2.988-1.951-2.988-4.442
					s1.312-4.443,2.988-4.443c1.675,0,2.987,1.952,2.987,4.443S50.783,61.755,49.108,61.755z M49.108,53.839
					c-1.094,0-2.02,1.591-2.02,3.474s0.925,3.473,2.02,3.473s2.02-1.59,2.02-3.473S50.203,53.839,49.108,53.839z"/>
			</g>
			<g>
				<path fill="none" stroke="#FFFFFF" stroke-width="3" d="M47.965,54.297c-0.158,0-0.314-0.079-0.408-0.222l-3.539-5.461
					c-0.145-0.223-0.082-0.523,0.143-0.67c0.224-0.145,0.525-0.082,0.67,0.144l3.541,5.459c0.145,0.224,0.081,0.526-0.144,0.671
					C48.147,54.271,48.056,54.297,47.965,54.297z"/>
			</g>
			<g>
				<path fill="none" stroke="#FFFFFF" stroke-width="3" d="M47.019,55.621c-0.127,0-0.254-0.048-0.349-0.146l-4.451-4.605
					c-0.186-0.193-0.181-0.5,0.012-0.686c0.195-0.185,0.501-0.179,0.685,0.011l4.45,4.607c0.188,0.191,0.182,0.498-0.011,0.686
					C47.26,55.576,47.14,55.621,47.019,55.621z"/>
			</g>
			<g>
				<path fill="none" stroke="#FFFFFF" stroke-width="3" d="M53.08,66.311c-0.146,0-0.29-0.064-0.385-0.188
					c-0.161-0.215-0.121-0.517,0.092-0.679c1.063-0.815,1.744-1.994,1.921-3.318c0.176-1.324-0.177-2.64-0.989-3.702
					c-0.164-0.214-0.123-0.516,0.089-0.678c0.211-0.165,0.517-0.122,0.679,0.088c0.972,1.269,1.392,2.838,1.182,4.42
					c-0.21,1.582-1.026,2.988-2.293,3.957C53.286,66.278,53.184,66.311,53.08,66.311z"/>
			</g>
			<g>
				<path fill="none" stroke="#FFFFFF" stroke-width="3" d="M57.873,65.919c-0.081,0-0.164-0.021-0.238-0.062
					c-0.232-0.129-0.316-0.424-0.184-0.657c1.205-2.146,0.441-4.872-1.701-6.078c-0.233-0.129-0.316-0.426-0.186-0.66
					c0.133-0.231,0.429-0.312,0.66-0.184c2.611,1.47,3.538,4.784,2.071,7.395C58.205,65.831,58.042,65.919,57.873,65.919z"/>
			</g>
			<g>
				<path fill="none" stroke="#FFFFFF" stroke-width="3" d="M51.544,54.825l-0.779-0.574c0.791-1.074,2.058-1.715,3.393-1.715
					l0.076,0.969C53.114,53.505,52.163,53.985,51.544,54.825z"/>
			</g>
			<g>
				<path fill="none" stroke="#FFFFFF" stroke-width="3" d="M54.158,60.963c-1.266,0-2.453-0.563-3.258-1.54l0.749-0.618
					c0.621,0.755,1.533,1.19,2.51,1.19l0.143,0.966L54.158,60.963z"/>
			</g>
			<g>
				<path fill="none" stroke="#FFFFFF" stroke-width="3" d="M68.406,60.963H53.691v-0.968h14.715c8.34,0,10.519-3.709,10.539-3.747
					l0.846,0.474C79.693,56.896,77.309,60.963,68.406,60.963z"/>
			</g>
			<g>
				<path fill="none" stroke="#FFFFFF" stroke-width="3" d="M64.73,53.624c-0.004,0-0.008,0-0.014,0
					c-5.218-0.138-10.507-0.119-10.559-0.119c0,0,0,0,0,0c-0.267,0-0.484-0.216-0.485-0.482c-0.001-0.266,0.215-0.485,0.482-0.486
					c0.049-0.002,5.353-0.021,10.587,0.119c0.268,0.007,0.48,0.229,0.473,0.496C65.207,53.416,64.991,53.624,64.73,53.624z"/>
			</g>
			<g>
				<path fill="none" stroke="#FFFFFF" stroke-width="3" d="M70.102,58.612h-5.045c-0.27,0-0.484-0.218-0.484-0.484
					c0-0.268,0.215-0.483,0.484-0.483h5.045c3.202,0,7.248-1.13,9.11-1.707c-0.923-0.466-2.55-1.154-4.91-1.653
					c-1.04-0.217-3.006-0.395-5.841-0.525c-0.266-0.015-0.475-0.241-0.46-0.508c0.011-0.268,0.245-0.453,0.505-0.462
					c2.887,0.134,4.904,0.318,5.996,0.548c4.109,0.867,6.096,2.273,6.179,2.33c0.146,0.107,0.222,0.284,0.196,0.462
					c-0.024,0.181-0.148,0.329-0.319,0.389C80.314,56.604,74.555,58.612,70.102,58.612z"/>
			</g>
			<g>
				<path fill="none" stroke="#FFFFFF" stroke-width="3" d="M61.987,58.612h-2.604c-3.65,0-6.939-1.832-8.186-2.619
					c-0.226-0.142-0.293-0.439-0.15-0.668c0.144-0.228,0.445-0.291,0.668-0.148c1.173,0.742,4.272,2.468,7.667,2.468h2.604
					c0.268,0,0.484,0.216,0.484,0.483C62.471,58.395,62.255,58.612,61.987,58.612z"/>
			</g>
			<g>
				<path fill="none" stroke="#FFFFFF" stroke-width="3" d="M73.191,63.274c-0.041,0-0.082-0.004-0.123-0.014
					c-0.198-0.053-0.34-0.222-0.36-0.424L67.605,52.15c-0.115-0.239-0.013-0.529,0.229-0.644c0.242-0.117,0.529-0.015,0.646,0.229
					l4.82,10.095c1.135-1.196,2.982-1.521,4.48-0.676c0.234,0.131,0.315,0.428,0.184,0.66c-0.132,0.233-0.43,0.311-0.659,0.184
					c-1.305-0.735-2.96-0.272-3.692,1.031C73.525,63.186,73.363,63.274,73.191,63.274z"/>
			</g>
			<g>
				<path fill="none" stroke="#FFFFFF" stroke-width="3" d="M63.441,59.184L63.441,59.184c-0.69,0-1.339-0.269-1.826-0.757
					c-1.006-1.006-1.006-2.646,0-3.653l4.361-3.211c0.56-0.574,1.785-0.618,2.453,0.051c0.336,0.333,0.521,0.779,0.521,1.255
					c0,0.475-0.185,0.921-0.52,1.254l-3.116,4.251C64.779,58.915,64.131,59.184,63.441,59.184z M67.174,52.061
					c-0.215,0-0.418,0.083-0.568,0.234l-4.361,3.212c-0.572,0.582-0.575,1.606,0.055,2.235c0.611,0.609,1.674,0.609,2.282,0
					l3.115-4.249c0.201-0.207,0.283-0.409,0.283-0.624c0-0.216-0.083-0.421-0.236-0.572C67.593,52.144,67.39,52.061,67.174,52.061z"
					/>
			</g>
		</g>
	</g>
	<g>
		<g>
			<path fill="#FF9024" d="M67.498,106.67c-0.906,0.186-2.377,1.303-1.943,2.35c0.193,0.468,0.858,0.823,1.264,0.334
				c0.641-0.772,0.943-1.784,0.261-2.608c-0.266-0.32-0.903-0.328-1.165,0c-0.307,0.382-0.533,0.73-0.658,1.209
				c-0.145,0.558,0.266,1.035,0.814,1.07c1.1,0.069,1.807-1.413,1.489-2.358c-0.489-1.448-2.657-0.909-2.961,0.391
				c-0.298,1.272-0.885,2.718,0.403,3.604c1.311,0.9,2.229-1.09,1.986-2.096c-0.176-0.722-1.083-0.888-1.59-0.42
				c-0.883,0.817-1.073,2.292-0.373,3.289c0.52,0.74,1.821,0.538,1.795-0.486c-0.012-0.516-0.067-0.984-0.492-1.323
				c-0.42-0.335-0.953-0.394-1.367,0c-0.997,0.947-0.443,2.784,0.85,3.119c0.642,0.165,1.199-0.307,1.238-0.943
				c0.05-0.862,0.137-1.653-0.338-2.416c-0.332-0.534-1.099-0.667-1.553-0.2c-2.208,2.269,2.187,6.356,3.49,3.767
				c0.188-0.372,0.209-0.938-0.158-1.228c-0.751-0.59-1.58-0.765-2.287-0.004c-0.284,0.305-0.441,0.867-0.16,1.233
				c1.047,1.369,2.895,1.028,3.953-0.208c0.719-0.84-0.229-2.333-1.252-1.624c-0.113,0.107-0.251,0.151-0.412,0.134
				c-0.568,0.043-1.17,0.996-0.402,1.1c0.657,0.09,1.268-0.003,1.845-0.322c-0.493-0.201-0.987-0.401-1.48-0.604
				c0.212,0.913-0.167,1.751,1.133,1.974c1.287,0.22,2.329-1.029,2.503-2.189c0.125-0.834-0.633-1.585-1.462-1.123
				c-0.476,0.264-0.775,0.562-1.001,1.062c-0.291,0.646-0.546,0.648-1.127,1.07c-0.918,0.665-0.368,2.022,0.764,1.812
				c2-0.369,2.621-2.401,2.98-4.128c0.24-1.155,0.461-3.182-1.066-3.527c-0.511-0.115-1.074,0.15-1.207,0.687
				c-0.076,0.305,0.008,1.769,0.025,1.76c0.48,0.194,0.959,0.391,1.439,0.585c-0.211-0.683,0.373-1.384,0.109-2.057
				c-0.234-0.599-0.5-0.974-1.098-1.248c-1.01-0.463-2.338-0.26-2.6,0.963c-0.129,0.604,0.277,1.245,0.939,1.232
				c0.896-0.018,1.896-0.323,1.824-1.399c-0.038-0.562-0.416-0.927-0.972-0.973c-0.934-0.074-1.294,0.503-1.978,0.995
				c0.438,0.438,0.877,0.876,1.314,1.314c0.378-0.812,0.566-1.557-0.154-2.224c-0.755-0.697-1.846-0.264-2.406,0.432
				c-0.751,0.928,0.511,2.258,1.334,1.336c0.08-0.089,0.568-0.8,0.696-0.801c0.397-0.003,0.795-0.006,1.193-0.009
				c-0.219-0.526-0.437-1.051-0.653-1.577c-0.268,0.262-1.783-0.21-2.117-0.251c0.08,0.592,0.16,1.185,0.24,1.777
				c0.779-0.186,1.237-0.478,2.083-0.109c0.651,0.284,0.646,0.614,0.974,1.167c0.42,0.708,1.186,2.998-0.093,3.289
				c-0.859,0.196-0.657,1.526,0.204,1.518c2.488-0.026,2.314-3.152,1.837-4.846c-0.272-0.965-0.86-1.955-1.714-2.49
				c-0.548-0.345-1.258-0.612-1.9-0.683c-0.742-0.083-1.186,0.256-1.871,0.409c-0.828,0.186-0.902,1.621,0,1.745
				c1.184,0.161,2.672,0.724,3.662-0.22c0.594-0.564,0.137-1.572-0.651-1.577c-0.544-0.003-1.214-0.121-1.74,0.023
				c-0.634,0.175-1.069,0.844-1.483,1.298c0.445,0.445,0.89,0.891,1.334,1.336c-0.144-0.172-0.287-0.343-0.432-0.514
				c-0.38,0.788,0.455,1.916,1.314,1.314c0.227-0.158,0.733-0.733,1.007-0.71c-0.325-0.323-0.649-0.648-0.973-0.972
				c0.45-0.426,0.489-0.609,0.12-0.547c0.312,0.41,0.626,0.821,0.938,1.231c-0.392,0.168-0.4,0.272-0.027,0.313
				c-0.146,0.093-0.213,0.237-0.193,0.433c-0.146,0.555-0.123,1.055,0.043,1.599c0.193,0.635,0.865,0.869,1.438,0.586
				c1.34-0.663,0.607-1.838,0.881-2.928c-0.403,0.229-0.807,0.457-1.21,0.686c-0.395-0.09-0.207,0.006-0.226,0.459
				c-0.012,0.31-0.078,0.611-0.143,0.912c-0.2,0.951-0.406,2.269-1.551,2.477c0.254,0.604,0.51,1.209,0.764,1.812
				c0.374-0.27,0.94-0.412,1.25-0.753c0.29-0.317,0.545-1.188,0.883-1.374c-0.488-0.374-0.975-0.749-1.463-1.123
				c-0.047,0.307,0.218,1.795,0.289,0.916c0.021-0.25-0.008-0.461-0.061-0.707c-0.144-0.66-0.936-0.894-1.48-0.603
				c-0.585,0.312-1.391-0.16-2.068,0.146c-0.604,0.27-0.752,1.4-0.395,1.899c0.762,1.063,2.402,1.345,3.492,0.57
				c-0.418-0.541-0.835-1.082-1.252-1.624c-0.113,0.137-0.654,0.742-0.893,0.438c0,0.479,0,0.96,0,1.44
				c-0.127,0.052-0.252,0.103-0.379,0.154c-0.121-0.462-0.242-0.924-0.363-1.387c0.146-0.063,0.291-0.129,0.436-0.194
				c-0.185-0.086-0.355-0.195-0.51-0.329c-0.127-0.106-0.3-0.79-0.27-0.821c-0.518-0.066-1.035-0.135-1.553-0.201
				c0.255,0.402,0.109,0.978,0.09,1.419c0.411-0.314,0.824-0.629,1.237-0.942c0.097,0.005,0.097,0.05-0.003,0.135
				c-0.456,0-0.912,0-1.367,0c-0.022-0.015-0.045-0.029-0.066-0.045c0.598-0.162,1.196-0.323,1.795-0.486
				c-0.227-0.315-0.254-0.681,0.053-0.971c-0.529-0.141-1.059-0.28-1.588-0.42c0.305,0.021,0.609,0.043,0.914,0.065
				c-0.003-0.274,0.027-0.546,0.09-0.814c0.035-0.185,0.09-0.364,0.161-0.537c-0.588-0.359-0.671-0.509-0.249-0.45
				c0.271,0.355,0.543,0.712,0.814,1.069c0.037-0.258,0.145-0.478,0.322-0.661c-0.432,0.055-0.861,0.11-1.293,0.166
				c-0.109,0.168-0.205,0.343-0.285,0.527c0.437,0,0.873,0,1.309,0c0.149,0.243,0.625-1.188,0.794-1.366
				C67.902,106.89,67.73,106.623,67.498,106.67L67.498,106.67z"/>
		</g>
	</g>
	<g>
		<g>
			<path fill="#97C74C" d="M60.398,110.876c-0.039,0.032-0.078,0.064-0.118,0.097c-0.195,0.157-0.187,0.527,0,0.687
				c0.315,0.27,0.837,0.417,1.162,0.046c0.38-0.437,0.339-0.909,0.359-1.454c0.038-0.974-1.44-0.959-1.503,0
				c-0.049,0.764,0.206,1.74,1.156,1.729c0.854-0.012,1.134-0.591,1.431-1.278c-0.513,0-1.026,0-1.54,0
				c0.297,0.495,0.949,1.112,1.576,0.675c0.601-0.418,0.701-1.071,0.725-1.764c-0.594,0-1.188,0-1.784,0
				c0.003,0.822,0.105,2.082,1.081,2.351c1.191,0.327,1.552-1.063,1.555-1.925c0.005-0.825-1.302-1.304-1.663-0.451
				c-0.104,0.248-0.198,0.491-0.273,0.749c-0.096,0.333-0.347,0.284-0.66,0.283c-0.965-0.004-1.162,1.193-0.46,1.695
				c1.551,1.107,2.824-1.235,3.608-2.268c0.269-0.353-0.25-0.841-0.6-0.602c-0.385,0.263-0.8,0.462-1.198,0.702
				c-0.248,0.148-0.477,0.259-0.711,0.438c-0.045,0.033-0.089,0.067-0.134,0.102c-0.205,0.119-0.221,0.138-0.044,0.055
				c-0.153,0.566-0.307,1.132-0.46,1.697c0.573-0.015,1.181-0.11,1.657-0.452c0.535-0.386,0.581-0.938,0.817-1.5
				c-0.553-0.149-1.108-0.3-1.662-0.449c0.001,0.115-0.001,0.23-0.007,0.346c-0.052,0.216,0.027,0.169,0.235-0.142
				c0.229,0.03,0.458,0.06,0.688,0.091c0.205,0.151,0.049-0.027,0.031-0.192c-0.019-0.175-0.015-0.354-0.016-0.528
				c-0.003-1.154-1.742-1.146-1.784,0c-0.011,0.327-0.19,0.466,0.158,0.223c0.229-0.029,0.458-0.06,0.688-0.089
				c0.06,0.019,0.119,0.036,0.177,0.055c-0.311-0.521-1.262-0.642-1.54,0c-0.074,0.171-0.147,0.341-0.209,0.517
				c-0.159,0.445,0.698,0.298,0.666-0.066c-0.501,0-1.002,0-1.503,0c0.02,0.163,0.042,0.325,0.066,0.488
				c0.055,0.363-0.09,0.18,0.13,0.108c0.158,0.041,0.315,0.082,0.473,0.125c-0.039-0.032-0.078-0.064-0.118-0.097
				C60.704,110.759,60.545,110.759,60.398,110.876L60.398,110.876z"/>
		</g>
	</g>
	<g>
		<g>
			<path fill="#97C74C" d="M73.01,107.78c-0.174,0.419-0.127,0.741-0.06,1.182c0.118,0.775,1.284,0.68,1.468,0
				c0.239-0.881-0.418-1.808-1.134-2.253c-0.507-0.316-1.146-0.003-1.314,0.535c-0.325,1.032,0.241,2.145,1.226,2.564
				c0.672,0.287,1.428-0.04,1.459-0.836c0.014-0.354,0.027-0.711,0.041-1.065c-0.674,0-1.348,0-2.021,0
				c-0.009,0.597,0.132,1.101,0.511,1.564c0.334,0.408,1.086,0.381,1.426,0c0.45-0.506,0.682-1.101,0.715-1.777
				c-0.668,0-1.335,0-2.003,0c0.002,0.377,0.021,0.73,0.095,1.103c0.171,0.869,1.294,0.829,1.718,0.224
				c0.012-0.017,0.024-0.034,0.036-0.05c0.157-0.226,0.157-0.623,0-0.847c-0.012-0.018-0.024-0.034-0.036-0.052
				c0.031,0.241,0.063,0.482,0.096,0.725c0.072-0.372,0.092-0.726,0.095-1.103c0.007-1.301-1.928-1.278-2.003,0
				c-0.003,0.051-0.008,0.123-0.027,0.166c0-0.002-0.199,0.285-0.11,0.187c0.475,0,0.95,0,1.426,0
				c0.036,0.059,0.073,0.118,0.11,0.177c-0.027-0.125-0.034-0.141-0.018-0.049c-0.01-0.088-0.006-0.178-0.008-0.268
				c-0.029-1.303-2.071-1.301-2.021,0c0.014,0.354,0.027,0.711,0.041,1.065c0.409-0.312,0.818-0.624,1.227-0.935
				c-0.174-0.059-0.279-0.174-0.246-0.318c-0.438,0.178-0.877,0.355-1.314,0.534c0.283,0.147,0.453,0.427,0.569,0.708
				c0.425-0.247,0.849-0.494,1.272-0.741c-0.141-0.143-0.211-0.254-0.289-0.44C73.744,107.329,73.197,107.325,73.01,107.78
				L73.01,107.78z"/>
		</g>
	</g>
	<path fill="#003452" d="M53.881,28.519c-2.37,0.391-4.705,0.94-7.117,0.982c-0.644,0.011-0.645,1.011,0,1
		c2.502-0.043,4.924-0.612,7.383-1.018C54.782,29.379,54.511,28.415,53.881,28.519z"/>
	<path fill="#003452" d="M50.391,15.319c-1.741-0.78-3.574-1.325-5.25-2.25c-0.565-0.312-1.069,0.552-0.505,0.863
		c1.678,0.926,3.508,1.469,5.25,2.25C50.47,16.444,50.979,15.583,50.391,15.319z"/>
	<path fill="#003452" d="M64.996,3.743c-0.127-0.632-1.09-0.364-0.965,0.266c0.107,0.535,0.22,1.069,0.232,1.617
		c0.016,0.644,1.016,0.646,1,0C65.248,4.99,65.119,4.364,64.996,3.743z"/>
	<path fill="#003452" d="M85.035,0.147c-1.389,1.389-2.76,2.787-3.953,4.352c-0.391,0.513,0.479,1.01,0.863,0.504
		c1.139-1.493,2.471-2.822,3.797-4.148C86.199,0.398,85.491-0.309,85.035,0.147z"/>
	<path fill="#003452" d="M105.506,7.019c-1.08,0.268-2.164,0.509-3.25,0.75c-0.629,0.141-0.362,1.104,0.266,0.965
		c1.086-0.241,2.171-0.482,3.25-0.75C106.397,7.828,106.132,6.863,105.506,7.019z"/>
	<path fill="#003452" d="M113.266,26.319c-2.596-1.353-5.229-2.634-7.75-4.125c-0.556-0.329-1.059,0.535-0.504,0.863
		c2.521,1.491,5.153,2.772,7.75,4.125C113.332,27.48,113.838,26.617,113.266,26.319z"/>
	<path fill="#003452" d="M99.57,33.124c-0.771-1.027-1.534-2.059-2.25-3.125c-0.357-0.533-1.224-0.033-0.863,0.504
		c0.715,1.067,1.479,2.098,2.25,3.125C99.089,34.138,99.957,33.64,99.57,33.124z"/>
	<g>
		<path fill="#97C74C" d="M65.27,21.152c0,0.296,0.08,0.526,0.244,0.69s0.439,0.246,0.822,0.246c0.393,0,0.785-0.021,1.176-0.061
			c0.393-0.04,0.773-0.092,1.141-0.155v1.884c-0.152,0.056-0.316,0.112-0.492,0.168s-0.371,0.106-0.588,0.149
			c-0.215,0.044-0.453,0.08-0.713,0.108c-0.262,0.028-0.555,0.042-0.883,0.042c-0.561,0-1.064-0.072-1.512-0.216
			c-0.449-0.145-0.831-0.362-1.146-0.654c-0.316-0.292-0.559-0.655-0.727-1.092c-0.168-0.436-0.252-0.95-0.252-1.542
			c0-0.584,0.084-1.096,0.252-1.536c0.168-0.439,0.41-0.806,0.727-1.098c0.315-0.292,0.697-0.511,1.146-0.654
			c0.447-0.144,0.947-0.216,1.5-0.216c0.336,0,0.643,0.023,0.918,0.072c0.275,0.048,0.525,0.107,0.75,0.18s0.426,0.152,0.605,0.24
			s0.342,0.172,0.486,0.252v2.376H66.66v-0.216c0-0.272-0.059-0.469-0.174-0.589c-0.115-0.119-0.289-0.18-0.521-0.18
			c-0.225,0-0.396,0.061-0.516,0.18c-0.121,0.12-0.18,0.316-0.18,0.589V21.152z"/>
		<path fill="#97C74C" d="M69.107,17.385h3.289v0.792l0.119,0.036c0.057-0.112,0.129-0.229,0.217-0.349
			c0.088-0.119,0.195-0.228,0.324-0.323c0.127-0.097,0.273-0.175,0.438-0.234s0.35-0.09,0.559-0.09c0.168,0,0.332,0.012,0.492,0.036
			c0.158,0.023,0.318,0.067,0.479,0.132v2.076c-0.264-0.048-0.484-0.078-0.666-0.09c-0.18-0.013-0.33-0.019-0.449-0.019
			c-0.527,0-0.912,0.118-1.152,0.354c-0.24,0.235-0.359,0.642-0.359,1.218v1.164h1.092v1.968h-4.381v-1.968h0.529v-2.736h-0.529
			V17.385z"/>
		<path fill="#97C74C" d="M78.648,22.089h0.527v1.968h-3.816v-1.968h0.529v-2.736h-0.529v-1.968h3.289V22.089z M76.176,14.721h2.209
			v2.004h-2.209V14.721z"/>
	</g>
	<g>
		<path fill="#FF9024" d="M83.424,21.152c0,0.296,0.08,0.526,0.244,0.69s0.439,0.246,0.822,0.246c0.393,0,0.785-0.021,1.176-0.061
			c0.393-0.04,0.773-0.092,1.141-0.155v1.884c-0.152,0.056-0.316,0.112-0.492,0.168s-0.371,0.106-0.588,0.149
			c-0.215,0.044-0.453,0.08-0.713,0.108c-0.262,0.028-0.555,0.042-0.883,0.042c-0.561,0-1.064-0.072-1.512-0.216
			c-0.449-0.145-0.83-0.362-1.146-0.654s-0.559-0.655-0.727-1.092c-0.168-0.436-0.252-0.95-0.252-1.542
			c0-0.584,0.084-1.096,0.252-1.536c0.168-0.439,0.41-0.806,0.727-1.098s0.697-0.511,1.146-0.654c0.447-0.144,0.947-0.216,1.5-0.216
			c0.336,0,0.643,0.023,0.918,0.072c0.275,0.048,0.525,0.107,0.75,0.18s0.426,0.152,0.605,0.24s0.342,0.172,0.486,0.252v2.376
			h-2.064v-0.216c0-0.272-0.059-0.469-0.174-0.589c-0.115-0.119-0.289-0.18-0.521-0.18c-0.225,0-0.396,0.061-0.516,0.18
			c-0.121,0.12-0.18,0.316-0.18,0.589V21.152z"/>
		<path fill="#FF9024" d="M87.262,17.385h3.289v0.792l0.119,0.036c0.057-0.112,0.129-0.229,0.217-0.349
			c0.088-0.119,0.195-0.228,0.324-0.323c0.127-0.097,0.273-0.175,0.438-0.234s0.35-0.09,0.559-0.09c0.168,0,0.332,0.012,0.492,0.036
			c0.158,0.023,0.318,0.067,0.479,0.132v2.076c-0.264-0.048-0.484-0.078-0.666-0.09c-0.18-0.013-0.33-0.019-0.449-0.019
			c-0.527,0-0.912,0.118-1.152,0.354c-0.24,0.235-0.359,0.642-0.359,1.218v1.164h1.092v1.968h-4.381v-1.968h0.529v-2.736h-0.529
			V17.385z"/>
		<path fill="#FF9024" d="M96.803,22.089h0.527v1.968h-3.816v-1.968h0.529v-2.736h-0.529v-1.968h3.289V22.089z M94.33,14.721h2.209
			v2.004H94.33V14.721z"/>
	</g>
	<g>
		<path fill="#FF9024" d="M4.989,40.75h9.771L9.689,57.036H13.4v-5.648h10.679v5.648h3.299v6.268h-3.299v2.268h2.515v7.257H8.164
			v-7.257H13.4v-2.268H0v-7.051L4.989,40.75z"/>
	</g>
	<g>
		<path fill="#FF9024" d="M102.399,40.75h9.771L107.1,57.036h3.711v-5.648h10.679v5.648h3.299v6.268h-3.299v2.268h2.515v7.257
			h-18.43v-7.257h5.236v-2.268h-13.4v-7.051L102.399,40.75z"/>
	</g>
	<path fill="#97C74C" d="M61.329,55.314c0.812-0.818,1.593-1.664,2.387-2.499c-3.388,0.156-6.77,0.312-10.045,0.043
		c-3.049-0.25-3.025,4.493,0,4.741c2.376,0.196,4.756,0.234,7.138,0.253C60.482,57.003,60.655,55.993,61.329,55.314z"/>
	<path fill="#97C74C" d="M78.008,53.403c-2.994-0.678-6.112-0.813-9.27-0.766c0.249,0.818,0.093,1.749-0.551,2.374
		c-0.949,0.923-1.843,1.901-2.754,2.862c3.783-0.067,7.595-0.74,11.312,0.101C79.725,58.649,80.988,54.078,78.008,53.403z"/>
	<g>
		<g>
			<path fill="#003452" d="M49.108,61.755c-1.675,0-2.988-1.951-2.988-4.442s1.312-4.443,2.988-4.443
				c1.675,0,2.987,1.952,2.987,4.443S50.783,61.755,49.108,61.755z M49.108,53.839c-1.094,0-2.02,1.591-2.02,3.474
				s0.925,3.473,2.02,3.473s2.02-1.59,2.02-3.473S50.203,53.839,49.108,53.839z"/>
		</g>
		<g>
			<path fill="#003452" d="M47.965,54.297c-0.158,0-0.314-0.079-0.408-0.222l-3.539-5.461c-0.145-0.223-0.082-0.523,0.143-0.67
				c0.224-0.145,0.525-0.082,0.67,0.144l3.541,5.459c0.145,0.224,0.081,0.526-0.144,0.671
				C48.147,54.271,48.056,54.297,47.965,54.297z"/>
		</g>
		<g>
			<path fill="#003452" d="M47.019,55.621c-0.127,0-0.254-0.048-0.349-0.146l-4.451-4.605c-0.186-0.193-0.181-0.5,0.012-0.686
				c0.195-0.185,0.501-0.179,0.685,0.011l4.45,4.607c0.188,0.191,0.182,0.498-0.011,0.686C47.26,55.576,47.14,55.621,47.019,55.621z
				"/>
		</g>
		<g>
			<path fill="#003452" d="M53.08,66.311c-0.146,0-0.29-0.064-0.385-0.188c-0.161-0.215-0.121-0.517,0.092-0.679
				c1.063-0.815,1.744-1.994,1.921-3.318c0.176-1.324-0.177-2.64-0.989-3.702c-0.164-0.214-0.123-0.516,0.089-0.678
				c0.211-0.165,0.517-0.122,0.679,0.088c0.972,1.269,1.392,2.838,1.182,4.42c-0.21,1.582-1.026,2.988-2.293,3.957
				C53.286,66.278,53.184,66.311,53.08,66.311z"/>
		</g>
		<g>
			<path fill="#003452" d="M57.873,65.919c-0.081,0-0.164-0.021-0.238-0.062c-0.232-0.129-0.316-0.424-0.184-0.657
				c1.205-2.146,0.441-4.872-1.701-6.078c-0.233-0.129-0.316-0.426-0.186-0.66c0.133-0.231,0.429-0.312,0.66-0.184
				c2.611,1.47,3.538,4.784,2.071,7.395C58.205,65.831,58.042,65.919,57.873,65.919z"/>
		</g>
		<g>
			<path fill="#003452" d="M51.544,54.825l-0.779-0.574c0.791-1.074,2.058-1.715,3.393-1.715l0.076,0.969
				C53.114,53.505,52.163,53.985,51.544,54.825z"/>
		</g>
		<g>
			<path fill="#003452" d="M54.158,60.963c-1.266,0-2.453-0.563-3.258-1.54l0.749-0.618c0.621,0.755,1.533,1.19,2.51,1.19
				l0.143,0.966L54.158,60.963z"/>
		</g>
		<g>
			<path fill="#003452" d="M68.406,60.963H53.691v-0.968h14.715c8.34,0,10.519-3.709,10.539-3.747l0.846,0.474
				C79.693,56.896,77.309,60.963,68.406,60.963z"/>
		</g>
		<g>
			<path fill="#003452" d="M64.73,53.624c-0.004,0-0.008,0-0.014,0c-5.218-0.138-10.507-0.119-10.559-0.119c0,0,0,0,0,0
				c-0.267,0-0.484-0.216-0.485-0.482c-0.001-0.266,0.215-0.485,0.482-0.486c0.049-0.002,5.353-0.021,10.587,0.119
				c0.268,0.007,0.48,0.229,0.473,0.496C65.207,53.416,64.991,53.624,64.73,53.624z"/>
		</g>
		<g>
			<path fill="#003452" d="M70.102,58.612h-5.045c-0.27,0-0.484-0.218-0.484-0.484c0-0.268,0.215-0.483,0.484-0.483h5.045
				c3.202,0,7.248-1.13,9.11-1.707c-0.923-0.466-2.55-1.154-4.91-1.653c-1.04-0.217-3.006-0.395-5.841-0.525
				c-0.266-0.015-0.475-0.241-0.46-0.508c0.011-0.268,0.245-0.453,0.505-0.462c2.887,0.134,4.904,0.318,5.996,0.548
				c4.109,0.867,6.096,2.273,6.179,2.33c0.146,0.107,0.222,0.284,0.196,0.462c-0.024,0.181-0.148,0.329-0.319,0.389
				C80.314,56.604,74.555,58.612,70.102,58.612z"/>
		</g>
		<g>
			<path fill="#003452" d="M61.987,58.612h-2.604c-3.65,0-6.939-1.832-8.186-2.619c-0.226-0.142-0.293-0.439-0.15-0.668
				c0.144-0.228,0.445-0.291,0.668-0.148c1.173,0.742,4.272,2.468,7.667,2.468h2.604c0.268,0,0.484,0.216,0.484,0.483
				C62.471,58.395,62.255,58.612,61.987,58.612z"/>
		</g>
		<g>
			<path fill="#003452" d="M73.191,63.274c-0.041,0-0.082-0.004-0.123-0.014c-0.198-0.053-0.34-0.222-0.36-0.424L67.605,52.15
				c-0.115-0.239-0.013-0.529,0.229-0.644c0.242-0.117,0.529-0.015,0.646,0.229l4.82,10.095c1.135-1.196,2.982-1.521,4.48-0.676
				c0.234,0.131,0.315,0.428,0.184,0.66c-0.132,0.233-0.43,0.311-0.659,0.184c-1.305-0.735-2.96-0.272-3.692,1.031
				C73.525,63.186,73.363,63.274,73.191,63.274z"/>
		</g>
		<g>
			<path fill="#003452" d="M63.441,59.184L63.441,59.184c-0.69,0-1.339-0.269-1.826-0.757c-1.006-1.006-1.006-2.646,0-3.653
				l4.361-3.211c0.56-0.574,1.785-0.618,2.453,0.051c0.336,0.333,0.521,0.779,0.521,1.255c0,0.475-0.185,0.921-0.52,1.254
				l-3.116,4.251C64.779,58.915,64.131,59.184,63.441,59.184z M67.174,52.061c-0.215,0-0.418,0.083-0.568,0.234l-4.361,3.212
				c-0.572,0.582-0.575,1.606,0.055,2.235c0.611,0.609,1.674,0.609,2.282,0l3.115-4.249c0.201-0.207,0.283-0.409,0.283-0.624
				c0-0.216-0.083-0.421-0.236-0.572C67.593,52.144,67.39,52.061,67.174,52.061z"/>
		</g>
	</g>
	<path fill="#FFFFFF" d="M61.255,69.336c-0.635,3.101-0.521,6.271-0.836,9.415c-0.136,1.356,1.089,2.5,2.169,2.5
		c1.285,0,2.034-1.146,2.168-2.5c0.27-2.694,0.139-5.434,0.682-8.085C66.08,67.53,61.898,66.199,61.255,69.336z"/>
	<g>
		<g>
			<g>
				<g>
					<g>
						<path fill="#003452" d="M60.192,74.358c0.698-3.263,1.601-6.19,2.639-6.939c0.351-0.252,0.664-0.242,0.865-0.189
							c1.814,0.472,1.962,2.193,1.554,8.301c-0.109,1.624-0.269,3.818-0.431,6.048c-0.168,2.306-0.338,4.648-0.457,6.432
							l-0.727-0.05c0.12-1.783,0.29-4.128,0.458-6.435c0.162-2.228,0.321-4.421,0.43-6.044c0.414-6.173,0.126-7.253-1.01-7.548
							c-0.031-0.008-0.112-0.029-0.257,0.075c-1.776,1.281-3.589,12.333-3.878,16.655c-0.089,1.312-0.29,2.34-0.504,3.427
							c-0.273,1.39-0.583,2.965-0.695,5.458l-0.726-0.033c0.113-2.547,0.429-4.15,0.707-5.564c0.21-1.064,0.407-2.069,0.491-3.336
							C58.751,83.146,59.31,78.484,60.192,74.358"/>
					</g>
				</g>
				<g>
					<g>
						<path fill="#003452" d="M68.845,88.261l-0.726-0.049c0.266-3.957,0.475-7.083-0.776-8.497
							c-0.453-0.512-1.097-0.783-1.968-0.831c-0.342-0.019-0.558-0.039-0.694-0.052l0.033-0.728l0.034,0.003
							c0.132,0.013,0.339,0.032,0.667,0.051c1.075,0.059,1.884,0.41,2.472,1.075C69.34,80.875,69.121,84.134,68.845,88.261z"/>
					</g>
				</g>
				<g>
					<g>
						<path fill="#003452" d="M72.679,88.653l-0.728-0.027c0.125-3.265-0.391-3.929-3.249-4.179l-0.006-0.729l0.075,0.006
							C72.013,84.007,72.818,85.021,72.679,88.653z"/>
					</g>
				</g>
			</g>
			<g>
				<g>
					<path fill="#003452" d="M64.39,120.698c-1.992-6.845-3.688-12.642-4.3-14.648c-0.031-0.172-0.174-0.365-0.573-0.874
						c-0.158-0.203-0.4-0.512-0.428-0.555c-0.017-0.092-0.068-0.175-0.145-0.229c-0.659-0.479-1.188-1.374-1.653-2.163
						c-0.138-0.233-0.271-0.461-0.402-0.667c-0.458-0.723-0.817-1.597-1.167-2.443c-0.097-0.236-0.193-0.47-0.289-0.694
						c-0.383-0.893-0.362-1.499-0.289-2.58l0.045-0.713c0.074-1.167,0.15-2.375,0.335-3.528c0.215-1.344,0.516-2.934,1.12-4.533
						l0.061-0.164c0.123-0.346,0.172-0.458,0.368-0.527c0.146-0.053,0.575-0.111,1.81-0.094l0.01-0.727
						c-1.135-0.016-1.751,0.024-2.062,0.134c-0.53,0.188-0.674,0.584-0.812,0.968l-0.056,0.153c-0.627,1.66-0.937,3.295-1.158,4.675
						c-0.19,1.188-0.268,2.413-0.342,3.598l-0.046,0.71c-0.075,1.128-0.1,1.873,0.347,2.915c0.095,0.222,0.189,0.452,0.286,0.686
						c0.36,0.875,0.732,1.779,1.225,2.555c0.127,0.201,0.257,0.421,0.391,0.647c0.484,0.82,1.03,1.746,1.769,2.319
						c0.078,0.148,0.231,0.35,0.512,0.706c0.159,0.204,0.4,0.513,0.438,0.597c0.613,2.015,2.292,7.756,4.267,14.541
						C63.889,120.688,64.143,120.665,64.39,120.698z"/>
					<path fill="#003452" d="M76.143,96.751c-0.13,1.997-0.292,4.483-2.558,8.225c-0.029,0.05-0.074,0.165-0.079,0.224
						c-0.034,0.071-0.086,0.181-0.097,0.323c-0.049,0.73,1.479,5.773,4.618,15.245c0.194-0.147,0.424-0.248,0.668-0.299
						c-3.646-11.002-4.583-14.422-4.533-14.955c0.026-0.054,0.062-0.129,0.082-0.223c2.322-3.859,2.489-6.427,2.624-8.492
						l0.019-0.276c0.318-4.755-0.382-8.246-1.921-9.579c-0.609-0.528-1.327-0.718-2.135-0.557l-0.534-0.038l-0.053,0.725
						l0.585,0.042c0.033,0.003,0.068,0,0.102-0.007c0.601-0.128,1.112-0.003,1.56,0.385c1.345,1.165,1.97,4.522,1.67,8.981
						L76.143,96.751z"/>
				</g>
			</g>
		</g>
		<g>
			<g>
				<path fill="#003452" d="M60.599,109.106l-0.162-0.708l0.529-0.121c0.95-0.218,2.125-0.486,3.226-0.715l0.149,0.711
					c-1.098,0.229-2.268,0.497-3.213,0.713L60.599,109.106z"/>
			</g>
		</g>
		<g>
			<g>
				<path fill="#003452" d="M71.034,107.131l-0.111-0.719c0.887-0.137,1.855-0.283,2.924-0.44l0.105,0.721
					C72.887,106.848,71.919,106.994,71.034,107.131z"/>
			</g>
		</g>
		<g>
			<g>
				<path fill="#003452" d="M61.638,112.653l-0.155-0.71c1.205-0.264,1.603-0.377,1.952-0.477c0.283-0.08,0.529-0.15,1.119-0.277
					l0.153,0.712c-0.566,0.121-0.802,0.188-1.074,0.266C63.273,112.27,62.865,112.386,61.638,112.653z"/>
			</g>
		</g>
		<g>
			<g>
				
					<rect x="72.978" y="108.407" transform="matrix(0.1772 0.9842 -0.9842 0.1772 168.5266 18.2617)" fill="#003452" width="0.727" height="3.033"/>
			</g>
		</g>
		<g>
			<g>
				<path fill="#003452" d="M68.263,113.975c-0.048-0.002-0.131-0.002-0.196-0.006c-0.733-0.043-4.39-0.488-4.39-5.037
					c0-0.957,0.704-2.182,1.178-2.771c0.657-0.822,1.586-1.317,2.613-1.396c0.676-0.05,1.362,0.078,2.009,0.378
					c1.395,0.646,2.837,2.309,2.837,3.971c0,1.356-0.438,2.603-1.232,3.509C70.327,113.481,69.3,113.975,68.263,113.975z
					 M67.755,105.481c-0.078,0-0.154,0.003-0.232,0.01c-0.823,0.062-1.57,0.462-2.101,1.124c-0.49,0.61-1.018,1.668-1.018,2.316
					c0,3.798,2.835,4.26,3.704,4.312c0.889,0.05,1.773-0.355,2.427-1.101c0.678-0.773,1.051-1.85,1.051-3.029
					c0-1.354-1.253-2.772-2.415-3.31C68.712,105.59,68.235,105.481,67.755,105.481z"/>
			</g>
		</g>
		<g>
			<g>
				
					<ellipse transform="matrix(0.9611 -0.2761 0.2761 0.9611 -28.0072 21.5588)" fill="#003452" cx="62.57" cy="110.257" rx="0.239" ry="0.295"/>
			</g>
		</g>
		<g>
			<g>
				<path fill="#003452" d="M68.025,110.621c-0.67,0-1.216-0.545-1.216-1.216s0.546-1.216,1.216-1.216
					c0.671,0,1.216,0.545,1.216,1.216S68.696,110.621,68.025,110.621z M68.025,108.917c-0.269,0-0.488,0.219-0.488,0.488
					s0.22,0.488,0.488,0.488c0.27,0,0.489-0.219,0.489-0.488S68.295,108.917,68.025,108.917z"/>
			</g>
		</g>
		<g>
			<g>
				
					<rect x="67.866" y="106.819" transform="matrix(0.993 0.1182 -0.1182 0.993 13.2126 -7.3122)" fill="#003452" width="0.727" height="1.746"/>
			</g>
		</g>
		<g>
			<g>
				
					<rect x="68.557" y="110.104" transform="matrix(0.8237 0.567 -0.567 0.8237 74.9147 -20.0067)" fill="#003452" width="2.146" height="0.727"/>
			</g>
		</g>
		<g>
			<g>
				<path fill="#003452" d="M63.474,108.236l-0.713-0.143c0.415-2.072,2.138-4.317,4.938-4.353c2.194-0.046,3.692,0.789,4.851,2.645
					l-0.617,0.385c-1.005-1.61-2.243-2.303-4.129-2.303c-0.032,0-0.064,0-0.097,0.001C65.312,104.498,63.833,106.442,63.474,108.236
					z"/>
			</g>
		</g>
		<g>
			<g>
				<path fill="#003452" d="M68.279,115.015c-2.026,0-4.383-0.954-5.081-3.088l0.692-0.226c0.584,1.787,2.626,2.587,4.389,2.587
					c2.304,0,4.344-1.986,4.453-4.337l0.727,0.033C73.33,112.759,71.006,115.015,68.279,115.015z"/>
			</g>
		</g>
	</g>
</g>
</svg>
