<?xml version="1.0" encoding="utf-8"?>
<!-- Generator: Adobe Illustrator 16.0.4, SVG Export Plug-In . SVG Version: 6.00 Build 0)  -->
<!DOCTYPE svg PUBLIC "-//W3C//DTD SVG 1.0//EN" "http://www.w3.org/TR/2001/REC-SVG-20010904/DTD/svg10.dtd">
<svg version="1.0" id="Contenidos" xmlns="http://www.w3.org/2000/svg" xmlns:xlink="http://www.w3.org/1999/xlink" x="0px" y="0px"
	 width="627.604px" height="151.978px" viewBox="0 0 627.604 151.978" enable-background="new 0 0 627.604 151.978"
	 xml:space="preserve">
<g>
	<g>
		<g>
			<rect x="325.495" fill="#00478C" width="7.188" height="6.101"/>
			<rect x="325.495" y="8.585" fill="#00478C" width="7.188" height="25.309"/>
			<path fill="#00478C" d="M348.003,7.864c-2.258,0-4.337,1.942-5.015,3.887h-0.091V8.585h-6.691v25.309h7.188V15.818
				c0-1.31,0.678-2.034,1.943-2.079c1.356-0.09,1.809,0.904,1.899,2.079v18.076h7.185V13.152
				C354.421,9.717,351.394,7.864,348.003,7.864z"/>
			<rect x="357.946" y="8.585" fill="#00478C" width="7.186" height="25.309"/>
			<rect x="357.946" fill="#00478C" width="7.186" height="6.101"/>
			<path fill="#00478C" d="M378.147,29.512c-1.854,0-2.303-1.356-2.303-2.939V16.136c0-1.628,0.314-3.075,2.168-3.075
				c1.082,0,1.626,0.542,1.943,1.582c0.178,0.949,0.135,1.943,0.271,2.892l0.041,0.452h6.779c0.408-6.959-2.393-10.033-9.488-10.124
				c-5.558,0-8.902,2.168-8.902,8.679v10.302c0,5.785,3.748,7.864,8.902,7.864c1.086,0,1.718-0.09,2.396-0.135
				c3.117-0.317,5.826-1.762,6.778-4.926c0.404-1.356,0.587-4.52,0.587-6.011h-6.958C380.363,25.535,380.815,29.512,378.147,29.512z
				"/>
			<rect x="390.396" fill="#00478C" width="7.184" height="6.101"/>
			<rect x="390.396" y="8.585" fill="#00478C" width="7.184" height="25.309"/>
			<path fill="#00478C" d="M419.682,15.593c0-5.561-2.579-7.729-9.673-7.729c-5.788,0-10.031,2.396-9.716,8.723h7.187
				c0.135-2.124,0.135-3.931,2.754-3.931c1.448,0,2.262,1.218,2.262,2.621c0,2.711-3.119,3.028-6.236,4.066
				c-3.166,1.041-6.281,2.848-6.281,8.588c0,4.022,2.527,6.779,6.598,6.779c2.846,0,4.384-1.085,6.188-3.075l0.5,2.26h7.005
				c-0.316-0.902-0.587-1.851-0.587-2.801V15.593z M412.495,25.58c-0.049,1.626-0.5,3.842-2.622,3.842
				c-1.72,0-2.666-1.13-2.666-2.711c0-1.718,0.769-2.622,1.673-3.254c0.9-0.677,2.168-1.085,3.615-1.853V25.58z"/>
			<path fill="#00478C" d="M430.707,1.356h-7.185v7.229h-2.85v5.197h2.85v14.645c0,3.84,2.123,5.83,6.01,5.83
				c1.582,0,3.074-0.181,4.609-0.406v-5.062c-0.77,0-1.039-0.045-1.854,0.091c-0.951,0-1.581-0.317-1.581-1.763V13.783h3.435V8.585
				h-3.435V1.356z"/>
			<rect x="436.538" fill="#00478C" width="7.183" height="6.101"/>
			<rect x="436.538" y="8.585" fill="#00478C" width="7.183" height="25.309"/>
			<polygon fill="#00478C" points="455.157,24.947 455.065,24.947 452.669,8.585 445.438,8.585 450.952,33.896 459.18,33.896 
				464.735,8.585 457.731,8.585 			"/>
			<path fill="#00478C" d="M484.53,15.593c0-5.561-2.573-7.729-9.671-7.729c-5.786,0-10.03,2.396-9.718,8.723h7.188
				c0.135-2.124,0.135-3.931,2.756-3.931c1.447,0,2.263,1.218,2.263,2.621c0,2.711-3.122,3.028-6.24,4.066
				c-3.161,1.041-6.278,2.848-6.278,8.588c0,4.022,2.527,6.779,6.596,6.779c2.848,0,4.387-1.085,6.191-3.075l0.496,2.26h7.006
				c-0.316-0.902-0.588-1.851-0.588-2.801V15.593z M477.348,25.58c-0.048,1.626-0.501,3.842-2.624,3.842
				c-1.715,0-2.666-1.13-2.666-2.711c0-1.718,0.768-2.622,1.672-3.254c0.904-0.677,2.17-1.085,3.618-1.853V25.58z"/>
			<path fill="#00478C" d="M509.478,7.864c-2.482,0.091-4.475,1.264-5.875,3.796h-0.088V8.585h-6.691v33.85h7.188V31.5h0.091
				c1.67,2.486,3.975,3.254,5.24,3.209c5.244-0.181,6.283-5.107,6.283-9.4v-8.768C515.626,12.564,514.226,7.864,509.478,7.864z
				 M506.226,28.834c-1.766,0.045-2.214-2.485-2.214-4.657v-5.964c0-2.44,0.404-4.475,2.348-4.475c2.082,0,2.082,2.667,2.082,4.157
				v6.553C508.441,26.077,508.528,28.834,506.226,28.834z"/>
			<path fill="#00478C" d="M527.464,7.864c-5.559,0-9.398,2.168-9.398,8.679v10.302c0,5.785,4.25,7.864,9.398,7.864
				c5.469,0,9.039-2.124,9.404-7.864V16.543C536.868,10.847,533.79,7.864,527.464,7.864z M529.68,27.297
				c-0.136,1.446-0.723,2.215-2.216,2.215c-1.492,0-2.079-0.769-2.211-2.215v-11.3c0-1.626,0.539-2.937,2.211-2.937
				c1.673,0,2.216,1.311,2.216,2.937V27.297z"/>
			<path fill="#00478C" d="M546.085,12.428h-0.089V8.585h-6.692v25.309h7.188v-15.59c0.135-2.08,0.948-2.486,2.982-2.486
				c0.723,0,1.449,0.045,2.17,0.18V7.864C548.661,7.864,546.897,9.717,546.085,12.428z"/>
			<rect x="563.755" fill="#00478C" width="7.187" height="33.894"/>
			<path fill="#00478C" d="M583.55,7.864c-5.561,0-9.401,2.168-9.401,8.679v10.302c0,5.785,4.25,7.864,9.401,7.864
				c5.469,0,9.037-2.124,9.4-7.864V16.543C592.95,10.847,589.876,7.864,583.55,7.864z M585.763,27.297
				c-0.135,1.446-0.723,2.215-2.213,2.215c-1.492,0-2.08-0.769-2.215-2.215v-11.3c0-1.626,0.541-2.937,2.215-2.937
				c1.672,0,2.213,1.311,2.213,2.937V27.297z"/>
			<path fill="#00478C" d="M603.3,17.309c-1.084-0.542-2.217-1.22-2.217-2.575c0-1.493,0.995-2.124,2.398-2.124
				c2.303,0,2.213,1.762,2.393,3.479h6.734c0.271-5.605-3.933-8.225-9.174-8.225c-5.016,0-9.356,2.351-9.356,7.819
				c0,1.853,0.589,3.344,1.809,4.744c2.261,2.578,6.282,3.662,9.175,5.197c0.587,0.454,0.948,1.177,0.948,1.944
				c0,1.628-1.04,2.396-2.575,2.396c-2.17,0-2.666-2.033-2.575-3.795h-6.87c-0.273,6.102,3.705,8.54,9.4,8.54
				c5.286,0,9.577-2.393,9.577-8.042C612.967,20.652,607.953,19.433,603.3,17.309z"/>
		</g>
		<g>
			<path fill="#04A7DB" d="M257.804,50.965h-21.641l-0.123,74.51c0.123,2.581-0.983,3.196-4.18,3.318
				c-2.951,0.124-4.428-1.229-4.428-4.672v-11.681h-17.338v5.288c0,4.056-0.122,8.238,0.982,12.418
				c2.581,10.327,11.561,15.247,21.889,15.247c9.344,0,17.457-1.968,22.008-10.451c3.198-6.148,2.83-13.28,2.83-19.794V50.965z"/>
			<path fill="#04A7DB" d="M294.558,48.753c-18.936,0-29.507,9.837-29.507,27.541v37.5c0,20.778,7.621,31.599,29.507,31.599
				c21.884,0,29.138-10.821,29.138-31.599v-37.5C323.695,58.59,313.49,48.753,294.558,48.753z M302.056,115.638
				c0,5.287-0.491,13.155-7.498,13.155c-7.009,0-7.869-7.869-7.869-13.155V77.77c0-5.656,0.86-12.418,7.746-12.418
				c7.13,0,7.621,6.762,7.621,12.418V115.638z"/>
			<polygon fill="#04A7DB" points="319.519,23.671 293.94,23.671 281.647,41.868 298.491,41.868 			"/>
			<polygon fill="#04A7DB" points="359.101,115.638 358.854,115.638 347.792,50.967 326.149,50.967 346.192,143.179 
				371.644,143.179 391.808,50.967 370.167,50.967 			"/>
			<polygon fill="#04A7DB" points="416.757,104.819 443.806,104.819 443.806,86.377 416.757,86.377 416.757,69.411 444.667,69.411 
				444.667,50.967 395.116,50.967 395.116,143.179 446.144,143.179 446.144,124.735 416.757,124.735 			"/>
			<polygon fill="#04A7DB" points="491.878,102.482 491.511,102.482 474.786,50.965 452.532,50.965 452.532,143.179 
				473.065,143.179 471.097,91.785 471.343,91.54 488.19,143.179 510.321,143.179 510.321,50.965 489.786,50.965 			"/>
			<polygon fill="#04A7DB" points="539.208,104.819 566.257,104.819 566.257,86.377 539.208,86.377 539.208,69.411 567.116,69.411 
				567.116,50.967 517.566,50.967 517.566,143.179 568.594,143.179 568.594,124.735 539.208,124.735 			"/>
			<path fill="#04A7DB" d="M619.61,95.843c-5.04-4.671-12.049-7.868-20.162-13.033c-4.306-2.949-7.132-5.778-6.516-11.311
				c0.49-4.058,3.071-6.517,7.498-6.148c7.131,0.492,6.885,7.87,7.131,13.28h19.92c0.982-17.337-8.607-29.878-27.42-29.878
				c-16.721,0-27.173,8.852-27.173,26.188c0,8.114,2.337,13.77,6.271,18.443c4.058,4.672,9.712,8.236,16.353,12.048
				c5.656,3.442,12.049,6.393,12.049,14.139c0,4.674-2.214,9.221-7.254,9.221c-6.885,0-8.605-4.671-8.605-9.958v-6.518h-20.043
				v9.837c0,12.171,8.361,23.238,28.155,23.238c17.95,0,27.789-9.837,27.789-27.541C627.604,106.663,624.653,100.516,619.61,95.843z
				"/>
		</g>
	</g>
	<path fill="#00478C" d="M51.368,20.449c0.672-0.4,1.25-0.971,1.25-1.573c0-0.271-0.128-0.548-0.402-0.796
		c-0.473-0.451-1.123-0.675-1.673-0.675c-1.247,0-1.896,1.173-1.896,2.245c0,0.825,0.4,1.299,1.172,1.299
		C50.293,20.948,50.843,20.75,51.368,20.449z"/>
	<path fill="#00478C" d="M32.45,11.339c0-0.2-0.176-0.397-0.429-0.397c-0.224,0-0.35,0.15-0.573,0.324
		c-0.945,0.822-1.795,1.646-2.693,2.668c-1.275,1.424-2.35,3.321-3.223,5.392l1.348,0.825c0.924-1.373,3.896-6.066,5.416-8.438
		C32.397,11.565,32.45,11.439,32.45,11.339z"/>
	<path fill="#00478C" d="M117.835,15.883h0.4c0,0.174-0.023,0.373-0.023,0.548c0,2.821,1.445,4.918,5.016,4.918
		c2.197,0,5.643-1.1,8.887-2.197c2.695-0.922,5.166-1.872,6.39-2.221v-2.997c-1.397,0.426-4.245,1.523-7.189,2.547
		c-3.093,1.075-6.14,2.046-7.911,2.046c-1.947,0-2.496-1.072-2.496-2.596c0-3.145,1.971-7.664,3.218-10.232h-3.021
		c-1.569,3.045-7.759,12.803-11.104,16.848l1.919,2.071C113.72,22.622,115.69,19.226,117.835,15.883z"/>
	<path fill="#00478C" d="M76.051,9.917c-1.621,0-2.068,1.572-2.068,2.446c0,0.699,0.247,1.522,1.124,1.522
		c0.721,0,1.621-0.525,2.318-1.1c0.676-0.549,1.123-0.998,1.123-1.447c0-0.424-0.399-0.824-0.997-1.098
		C77.127,10.042,76.601,9.917,76.051,9.917z"/>
	<path fill="#00478C" d="M14.452,13.71c-1.396-1.074-2.973-1.945-4.818-2.696c-0.125-0.05-0.229-0.072-0.326-0.072
		c-0.273,0-0.399,0.197-0.399,0.371c0,0.152,0.052,0.276,0.276,0.476c2.168,1.848,6.363,5.366,7.663,6.441l1.048-1.199
		C16.771,15.706,15.622,14.61,14.452,13.71z"/>
	<g>
		<path fill="#00478C" d="M33.319,32.755c-3.517,4.168-5.363,7.538-8.436,15.026c0.498-0.052,1.225-0.1,2.024-0.1
			c0.397,0,0.722,0,1.247,0.024l0.374-0.797c1.722-3.695,4.042-8.687,7.287-12.529l1.124-1.326
			c3.347-3.916,5.413-6.237,6.715-11.579c0.445-1.897,0.822-3.594,2.096-4.817c1.149-1.099,2.597-1.572,4.068-1.572
			c1.247,0,2.176,0.299,3.521,0.874c1.224,0.524,1.671,0.624,2.972,0.624c0.449,0,0.771-0.025,1.07-0.05l-1.747,2.345l2.374,1.673
			c-2.972,0.873-4.543,3.742-5.068,5.066c-0.101,0.274-0.15,0.45-0.15,0.624c0,0.2,0.1,0.4,0.4,0.4c0.326,0,0.573-0.25,0.997-0.75
			c1.447-1.745,2.597-2.942,7.935-4.616l-3.766-2.845l2.847-4.168H58.53c-1.695,0-2.822-0.025-4.293-0.699
			c-1.994-0.925-3.016-1.324-4.789-1.324c-2.176,0-4.143,0.774-5.771,2.271c-1.866,1.723-2.442,4.018-3.118,6.54
			c-0.524,1.946-1.147,4.093-2.548,6.064C36.843,28.784,35.993,29.61,33.319,32.755z"/>
		<polygon fill="#00478C" points="66.119,41.615 64.922,43.912 77.677,43.912 76.728,41.615 		"/>
		<path fill="#00478C" d="M8.908,31.531c0,0.174,0.126,0.4,0.399,0.4c0.177,0,0.326-0.076,0.65-0.2l9.135-3.095l-0.447-1.497
			c-3.724,0.624-6.416,1.571-9.484,3.968C8.981,31.257,8.908,31.357,8.908,31.531z"/>
		<path fill="#00478C" d="M11.706,23.394c-6.116,0-8.709,2.945-8.709,4.918C1.171,29.06,0,31.083,0,32.955
			c0,3.717,2.722,6.363,6.315,6.363c1.195,0,2.419-0.474,3.27-1.122c0.621,0.225,1.42,0.349,2.244,0.349
			c1.724,0,3.643-0.598,4.992-2.571C17.024,36,17.198,36,17.396,36c2.197,0,4.092-1.449,5.094-3.345
			c0.248-0.474,0.348-0.848,0.348-1.124c0-0.274-0.123-0.499-0.4-0.499c-0.347,0-0.399,0.325-1.018,0.899
			c-1.402,1.273-3.545,1.747-5.745,1.747c-1.073,1.573-2.397,2.395-3.919,2.395c-1.121,0-1.996-0.299-2.896-0.898
			c-0.724,0.798-1.623,1.123-2.492,1.123c-1.975,0-3.369-1.372-3.369-3.369c0-1.397,0.895-2.644,2.143-3.119
			c0.227-2.471,2.873-4.145,6.166-4.145c0.426,0,0.85,0.026,1.3,0.076c0.497-0.8,1.692-1.649,3.392-1.874
			c0.351-0.049,0.627-0.074,0.824-0.174c0.203-0.1,0.303-0.3,0.303-0.525c0-0.198-0.081-0.373-0.276-0.499
			c-0.174-0.1-0.476-0.148-0.826-0.224c-1.569-0.3-3.444-1.273-4.392-3.645c-3.767,0-6.537-3.02-6.537-6.416v-0.224
			c-1.248-0.498-2.096-1.697-2.096-3.119c0-1.873,1.471-3.371,3.342-3.371c1.125,0,2.098,0.55,2.719,1.373
			c0.527-0.149,1.127-0.199,1.7-0.199c2.795,0,5.792,1.771,6.366,5.216c3.594,0.324,4.441,3.371,4.666,4.642
			c0.123,0.647,0.227,1.199,0.646,1.199c0.453,0,0.551-0.499,0.701-1.172c0.275-1.274,0.75-2.296,1.694-3.095
			c0-3.27,2.45-6.09,5.919-6.09c0.523-1.148,1.67-1.947,3.047-1.947c1.871,0,3.365,1.446,3.365,3.369
			c0,1.123-0.521,2.097-1.347,2.697c0.177,0.647,0.3,1.221,0.3,1.771c0,2.095-1.248,3.57-3.545,4.342
			c-0.297,1.273-0.85,2.423-1.747,3.27c-1.495,1.447-3.021,1.447-3.021,2.047c0,0.324,0.226,0.524,0.85,0.524
			c2.771,0,5.492-1.546,5.812-4.119c2.646-0.896,4.248-3.569,4.248-5.69c0-0.55-0.053-1.024-0.276-1.471
			c0.726-0.7,1.573-1.899,1.573-3.67c0-1.546-0.676-3.12-1.873-4.267c-1.048-1.026-2.52-1.699-4.245-1.699
			c-2.495,0-4.118,1.346-5.04,2.672c-2.721,0-6.239,3.019-6.239,7.337h-0.376c-0.248-1.498-1.795-2.496-3.095-2.571
			C18.095,6.997,15.724,4.3,11.829,4.3c-0.447,0-0.998,0.025-1.471,0.102c-1.152-1.05-2.424-1.699-4.195-1.699
			C2.769,2.703,0,5.423,0,8.869c0,2.145,0.972,3.619,2.819,4.915c0,0-0.024,0.276-0.024,0.401c0,2.746,2.997,7.037,7.437,7.037
			c0,0.699,0.874,1.649,1.85,1.823v0.35H11.706z"/>
		<path fill="#00478C" d="M22.987,22.622l-1.147,1.123c1.323,1.921,3.542,5.642,5.64,10.582c0.376-0.624,1.497-2.145,1.947-2.621
			C27.505,27.814,24.36,24.093,22.987,22.622z"/>
		<path fill="#00478C" d="M23.737,64.902l0.174,1.073c0.074,0.45,0.25,0.822,0.623,0.999c0.447,0.224,1.098,0.25,2.222,0.25
			c2.845,0,4.916-0.35,6.113-0.65c3.075,4.568,7.292,6.314,11.36,6.314c3.466,0,6.992-1.271,10.357-3.12l-0.623-2.272
			c-3.293,1.85-6.713,3.072-9.734,3.072c-3.371,0-6.365-1.447-8.861-5.217c-1.049-1.596-1.871-3.593-2.871-5.367
			c-1.199-2.096-2.496-3.22-4.768-3.22c-2.074,0-4.095,0.849-6.242,1.773l0.103,0.473c0.174,0.776,0.476,1.323,1.197,1.323
			c0.326,0,0.649-0.15,0.823-0.197c1.197-0.376,2.069-0.7,3.298-0.7c1.871,0,2.769,1.098,4.04,3.792l0.476,0.999
			c-1.298,0.451-4.345,0.675-6.616,0.675H23.737z"/>
		<path fill="#00478C" d="M53.063,55.643l-1.447-1.872c-5.59,2.146-11.805,5.616-11.805,9.161c0,2.021,1.494,3.617,4.867,3.617
			c4.943,0,10.206-2.496,14.428-4.815l-0.601-0.826c-0.348-0.498-0.649-0.648-1.124-0.648c-0.299,0-0.621,0.125-0.896,0.25
			c-3.621,1.772-7.54,3.543-11.18,3.543c-2.1,0-2.623-0.647-2.623-1.545C42.683,59.96,49.622,57.016,53.063,55.643z"/>
		<path fill="#00478C" d="M25.933,92.906c-1.674,0.975-3.748,1.423-5.566,1.423c-0.773,0-1.123,0.15-1.397,0.426
			c-0.3,0.298-0.45,0.745-0.45,1.371V97h0.624c3.347,0,6.442-0.524,9.834-3.195l11.058-8.637c1.574,1.797,5.543,4.294,10.234,4.294
			c2.646,0,4.346-0.651,6.787-1.273c1.898-0.474,3.748-0.899,7.79-0.899h11.705c5.992,0,8.888-1.248,12.079-3.045
			c6.939-3.894,12.854-10.483,16.205-18.046c-0.879-0.549-1.702-1.049-2.399-1.521c-3.743,7.886-9.435,13.625-15.274,16.948
			c-2.771,1.572-5.266,2.595-10.66,2.595H64.846c-4.169,0-6.788,0.547-8.835,1.074c-2.197,0.574-3.594,1.147-5.815,1.147
			c-3.295,0-6.34-1.624-7.813-3.168l2.745-2.174l-1.371-1.821c-0.8,0.575-10.561,7.787-12.605,9.409l-0.128-0.074
			c0.052-0.501,0.052-0.951,0.052-1.4c0-5.488-2.545-6.812-6.413-8.359l-2.624,1.547c5.321,1.771,6.642,3.195,6.642,7.163
			C28.679,90.711,27.556,91.958,25.933,92.906z"/>
		<path fill="#00478C" d="M83.515,52.222c-1.496,0.649-4.942,1.898-8.361,1.898c-1.697,0-3.118-0.151-4.694-0.35
			c-1.944-0.25-3.79-0.475-5.364-0.475c-2.62,0-5.865,0.251-9.01,2.471l1.373,1.797c2.148-1.022,5.613-1.524,7.338-1.524
			c1.573,0,3.197,0.175,4.691,0.375c1.7,0.224,3.672,0.475,5.742,0.475c4.692,0,9.285-2.496,10.008-2.946
			C84.667,53.445,83.94,52.747,83.515,52.222z"/>
		<path fill="#00478C" d="M58.256,34.252c0-0.324-0.149-0.65-0.523-0.898c-0.424-0.301-0.948-0.425-1.421-0.425
			c-1.051,0-1.477,0.625-1.679,1.272c-0.095,0.3-0.119,0.601-0.119,0.849c0,0.9,0.396,1.523,1.048,1.523
			C56.461,36.573,58.256,35.326,58.256,34.252z"/>
		<path fill="#00478C" d="M76.153,67.099c-2.121,0-1.924-3.617-2.071-6.49c-7.489,0.725-12.181,2.946-17.321,5.716l0.598,2.296
			c4.671-2.795,9.16-4.394,13.927-4.866c0.05,2.745,1.226,6.414,4.345,6.414c3.345,0,7.41-5.242,12.182-11.382l1.244-1.621
			c-0.646-0.5-1.371-0.95-1.818-1.374C82.341,62.082,78.101,67.099,76.153,67.099z"/>
		<path fill="#00478C" d="M95.972,61.433c-0.697-0.422-1.699-1.073-2.221-1.422c-2.571,1.123-5.121,3.369-7.287,5.641
			c-4.994,5.193-4.543,8.186-9.811,10.208c-1.324,0.5-2.947,1.049-5.019,1.522c-1.219-3.769-4.292-7.511-7.536-7.511
			c-2.248,0-4.843,1.171-7.838,2.495c-3.523,1.547-6.742,3.319-7.766,3.994l1.374,1.846c1.05-0.574,4.065-2.071,7.087-3.369
			c2.623-1.124,4.992-2.047,6.59-2.047c2.573,0,4.244,2.92,5.168,5.266c-3.369,0.8-8.908,1-10.582,1c-0.773,0-1.049,0.123-1.32,0.35
			c-0.253,0.223-0.453,0.623-0.579,1.171l-0.198,0.849h1.798c9.335,0,18.146-1.474,23.812-4.917c0.799,0.224,1.5,0.375,2.396,0.375
			c3.242,0,6.59-1.772,8.688-3.395c0.747-0.575,0.921-1.099,0.921-1.672c0-0.274-0.024-0.524-0.046-0.774l-0.104-0.974
			c-2.995,2.371-5.49,4.145-8.585,4.145c-0.548,0-0.948-0.05-1.273-0.15C86.661,69.221,89.356,64.926,95.972,61.433z"/>
		<path fill="#00478C" d="M63.071,28.113c-1.221,0.249-2.118,0.472-3.191,0.472c-0.7,0-1.5-0.099-2.447-0.325
			c-0.725-0.174-1.498-0.324-2.598-0.324c-1.971,0-4.092,0.751-5.539,2.148c-2.646,2.52-2.795,5.241-2.969,7.662
			c-0.227,3.22-0.829,4.018-2.571,6.363c-1.427,1.923-3.368,4.444-4.868,7.113c0.471,0.226,2.047,1.074,2.594,1.374
			c1.725-2.595,4.119-5.79,5.69-8.213c1.423-2.195,1.999-3.143,2.097-6.087c0.027-0.502,0.027-0.975,0.076-1.449
			c0.127-1.522,0.524-3.072,1.975-4.495c1.07-1.071,2.615-1.621,4.168-1.621c1.498,0,2.369,0.424,3.666,0.424
			c0.924,0,1.598-0.223,2.199-0.449l0.473-0.174l-1.148,2.745l2.697,1.1c-1.723,1.071-5.492,5.689-5.492,11.155
			c0,1.973,0.298,3.795,0.725,5.418c0.049,0.171,0.149,0.348,0.421,0.348c0.253,0,0.429-0.15,0.452-0.425l0.023-0.575
			c0.076-1.671,0.2-4.318,0.877-6.687c1.123-3.995,4.142-7.739,7.16-9.536l-4.292-1.872l1.847-4.518L63.071,28.113z"/>
		<path fill="#00478C" d="M125.549,66.25l1.224,0.849c0.176,0.125,0.297,0.2,0.449,0.2c0.248,0,0.424-0.251,0.424-0.45
			c0-0.125-0.049-0.249-0.199-0.375c-3.647-3.318-7.566-7.363-11.232-11.255c-2.868-3.069-5.818-6.316-8.412-9.584
			c-0.172-0.224-0.324-0.325-0.521-0.325c-0.298,0-0.45,0.201-0.45,0.425c0,0.35,0.247,0.772,0.874,1.821
			c1.895,3.221,4.242,6.464,7.139,9.51C117.962,60.384,121.628,63.481,125.549,66.25z"/>
		<path fill="#00478C" d="M139.052,116.943c0.523,0,0.924-0.15,1.221-0.4c0.328-0.299,0.477-0.699,0.477-1.297v-2.32
			c0-0.898-0.174-1.349-0.477-1.673c-0.269-0.299-0.719-0.475-1.221-0.475c-0.396,0-0.795,0.053-1.472,0.126l-19.919,1.971
			c-0.576,0.051-0.85,0.226-1.049,0.45c-0.225,0.249-0.322,0.574-0.322,1.023v1.298c0,0.498,0.098,0.722,0.277,0.923
			c0.221,0.249,0.547,0.374,0.994,0.374H139.052z"/>
		<path fill="#00478C" d="M96.693,15.832c-2.519-2.421-4.442-5.167-5.663-6.491c-2.722-2.97-6.24-6.638-12.032-6.638
			c-5.592,0-9.282,3.644-10.483,6.791c-0.348,0.897-0.625,1.996-0.872,2.395c-0.55,0.897-3.021,5.117-4.044,6.79h4.617L65.97,22.92
			c2.618-0.574,4.489-1,6.988-1c2.222,0,3.819,0.526,4.52,1.924c1.295,2.595,1.295,10.457,3.492,16.373
			c2.047,5.565,7.039,11.007,12.654,15.175c0.074,0.05,0.15,0.076,0.25,0.076c0.277,0,0.448-0.2,0.448-0.4
			c0-0.15-0.05-0.249-0.171-0.374c-4.695-4.692-8.514-9.884-10.561-15.574c-2.021-5.543-1.695-13.329-3.469-16.8
			c-1.174-2.295-3.669-2.895-5.966-2.895c-1.848,0-3.571,0.376-4.368,0.55l2.023-3.419h-3.419c0.722-1.274,1.472-2.446,1.843-3.145
			c0.328-0.6,0.452-1.349,0.852-2.371c1.295-3.27,4.166-5.341,7.911-5.341c4.694,0,7.439,3.019,10.161,6.04
			c1.244,1.397,3.292,4.318,5.663,6.491c1.624,1.496,4.718,3.17,9.487,8.086c2.744,2.845,5.939,6.54,9.311,11.479
			c12.053,17.647,19.965,33.198,24.384,45.329l-0.073,0.05c-12.653-8.587-23.611-16.7-32.448-26.708
			c-6.266-7.113-11.708-15.349-16.45-25.858c-0.324-0.697-0.598-1.347-0.899-2.022c-0.124-0.272-0.247-0.346-0.448-0.346
			c-0.252,0-0.424,0.174-0.424,0.424c0,0.273,0.125,0.873,0.4,2.07c2.52,10.883,9.508,20.642,16.972,28.754
			c7.437,8.061,15.851,15,22.766,20.042l5.388,15.425c0.126,0.375,0.275,0.772,0.275,1.146c0,0.275-0.073,0.5-0.25,0.65
			c-0.149,0.15-0.352,0.226-0.799,0.226h-1.621c-0.698,0-0.973-0.103-1.223-0.3c-0.25-0.2-0.423-0.5-0.547-0.849
			c-0.48-1.449-3.323-9.56-3.871-11.208c-0.1-0.299-0.273-0.399-0.477-0.399c-0.247,0-0.423,0.2-0.423,0.424
			c0,0.2,0.076,0.424,0.2,1.125c0.723,3.693,1.57,7.835,1.923,9.409c0.147,0.721,0.324,1.397,0.324,1.895
			c0,0.45-0.101,0.699-0.474,1.074l-1.674,1.698c-0.4,0.399-0.626,0.499-0.947,0.499c-0.4,0-0.727-0.275-0.877-0.974
			c-1.895-8.861-4.766-19.843-5.516-22.889c-0.174-0.672-0.297-1.048-0.699-1.048c-0.346,0-0.469,0.25-0.469,0.55
			c0,0.226,0.047,0.499,0.07,0.7c0.448,3.145,2.271,14.601,4.245,25.059c0.345,1.797,1.021,2.795,2.569,2.795
			c0.699,0,1.375-0.273,1.999-0.873c1.021-1.024,1.323-1.299,2.542-2.496c0.877-0.85,1.475-1.199,2.972-1.199h3.694
			c0.871,0,1.348-0.224,1.771-0.624c0.4-0.376,0.652-0.899,0.652-1.647c0-0.775-0.2-1.397-0.477-2.171
			c-0.947-2.546-3.992-11.157-4.892-13.578l0.078-0.05c3.116,2.371,7.661,5.391,9.655,5.391c0.625,0,0.998-0.275,0.998-1.248
			c0-4.592-7.635-23.487-25.084-49.494C107.153,22.697,98.993,18.028,96.693,15.832z"/>
		<path fill="#00478C" d="M118.609,33.152c3.145-1.297,5.968-2.145,8.513-2.145c3.566,0,6.49,0,11.382-1.147v-2.297
			c-2.745,0.5-5.668,1.1-7.563,1.1c-1.123,0-1.447-0.152-1.447-0.525c0-0.225,0.148-0.375,0.574-0.55
			c2.994-1.272,8.36-3.418,11.455-4.543v-3.042c-6.216,2.293-17.121,6.813-24.561,10.855
			C117.161,31.107,118.462,32.929,118.609,33.152z"/>
		<path fill="#00478C" d="M128.046,120.761c-8.66,0-13.526,6.763-13.526,13.903c0,7.613,5.214,14.3,13.577,14.3
			c4.168,0,8.26-1.571,10.605-4.341c1.023-1.199,1.852-2.87,1.852-3.894c0-0.35-0.076-0.649-0.281-0.874
			c-0.195-0.25-0.494-0.4-1.019-0.4h-4.019c-0.8,0-1.348,0.301-1.747,0.9c-1.177,1.721-2.871,2.62-5.368,2.62
			c-3.742,0-6.164-2.846-6.342-5.965h17.424c0.773,0,1.322-0.176,1.697-0.55c0.426-0.4,0.623-0.974,0.623-2.047
			c0-3.269-1.021-6.665-3.168-9.258C136.159,122.535,132.765,120.761,128.046,120.761z M121.83,131.694
			c0.326-3.071,2.673-5.366,6.242-5.366c3.495,0,5.913,2.295,6.239,5.366H121.83z"/>
		<path fill="#00478C" d="M84.438,116.543c0.323-0.299,0.476-0.699,0.476-1.297v-2.198c0-0.597-0.152-0.997-0.476-1.295
			c-0.301-0.25-0.701-0.401-1.219-0.401H26.308c-0.949,0-1.547,0.325-1.976,0.822c-0.347,0.426-0.548,0.9-0.548,1.724v22.664h-0.123
			c0,0-12.403-22.116-13.006-23.137c-0.424-0.724-0.896-1.224-1.521-1.598c-0.623-0.35-1.271-0.575-2.518-0.575H2.521
			c-0.949,0-1.549,0.325-1.971,0.825C0.198,112.5,0,112.974,0,113.798v32.122c0,0.825,0.198,1.3,0.55,1.724
			c0.422,0.499,1.021,0.824,1.971,0.824h2.322c0.949,0,1.547-0.325,1.971-0.824c0.35-0.424,0.547-0.898,0.547-1.724v-23.211h0.127
			c0,0,12.879,22.813,13.402,23.661c0.722,1.197,1.947,2.097,3.695,2.097h3.969c0.947,0,1.547-0.325,1.973-0.824
			c0.348-0.424,0.548-0.898,0.548-1.724v-28.977H83.22C83.737,116.943,84.138,116.793,84.438,116.543z"/>
		<path fill="#00478C" d="M0.997,89.087c1.874,0,2.096-1.123,2.096-2.196c0-0.723-0.024-1.546-0.024-2.446
			c0.024-2.071,0.101-3.917,3.447-5.416c1.348-0.599,7.961-3.295,12.874-5.392c1.453-0.623,2.795-1.146,4.3-1.146
			c1.669,0,3.593,0.725,5.987,2.146c2.021,1.199,4.143,2.82,5.816,4.692l2.123-1.623c-1.828-2.147-4.348-4.069-6.865-5.566
			c-2.523-1.497-4.77-2.372-6.666-2.372c-0.824,0-1.498,0.151-2.068,0.3c-0.677,0.174-1.299,0.375-2.098,0.375
			c-0.924,0-1.697-0.224-2.821-1.523c-0.424-0.473-3.121-3.543-3.692-4.442c-0.276-0.425-0.776-1.272-0.776-2.271
			c0-0.425,0.076-0.922,0.324-1.373c2.323,1.796,5.189,2.895,8.688,3.32l-0.476-2.372c-5.019-1.321-10.362-5.741-10.362-8.584
			c0-0.6,0.154-1.024,0.378-1.547c1.947,1.795,6.513,3.668,8.987,3.668c1.345,0,2.444-0.449,3.492-0.876
			c1-0.398,1.994-0.796,3.347-0.796c3.19,0,7.138,1.546,10.608,3.02c0.199,0.074,0.424,0.124,0.647,0.124
			c0.55,0,0.974-0.248,1.247-0.774l0.447-0.824c-3.815-2.22-9.908-4.59-13.078-4.59c-1.447,0-2.492,0.373-3.492,0.772
			c-1.122,0.45-2.098,0.923-3.121,0.923c-2.521,0-8.984-2.496-8.984-4.917c0-2.846,10.283-3.942,11.407-3.942l1.019-2.321
			c-7.458,0-16.348,2.62-16.348,6.088c0,1,0.574,1.498,0.574,2.423c0,1.247-0.574,2.095-0.574,3.493
			c0,0.923,0.551,2.097,1.197,3.121c0.701,1.074,1.524,1.774,1.524,2.671c0,0.672-0.448,1.471-0.448,3.043
			c0,3.37,1.92,5.416,5.666,9.435l0.748,0.798c-3.095,1.198-8.858,3.695-10.208,4.269C1.171,78.405,0,80.776,0,84.52
			c0,1.446,0,3.095,0.098,4.567H0.997z"/>
		<path fill="#00478C" d="M47.101,120.761c-8.663,0-13.527,6.763-13.527,13.903c0,7.613,5.211,14.3,13.574,14.3
			c4.172,0,8.266-1.571,10.608-4.341c1.024-1.199,1.851-2.87,1.851-3.894c0-0.35-0.076-0.649-0.274-0.874
			c-0.202-0.25-0.503-0.4-1.026-0.4h-4.021c-0.796,0-1.345,0.301-1.747,0.9c-1.17,1.721-2.869,2.62-5.366,2.62
			c-3.742,0-6.166-2.846-6.337-5.965h17.373c0.77,0,1.322-0.176,1.695-0.55c0.424-0.4,0.623-0.974,0.623-2.047
			c0-3.269-1.023-6.665-3.168-9.258C55.161,122.535,51.816,120.761,47.101,120.761z M40.882,131.694
			c0.326-3.071,2.672-5.366,6.242-5.366c3.495,0,5.914,2.295,6.24,5.366H40.882z"/>
		<path fill="#00478C" d="M109.849,111.352h-2.969c-0.773,0-1.297,0.273-1.674,0.725c-0.297,0.374-0.5,0.849-0.5,1.498v32.67
			c0,0.651,0.203,1.123,0.5,1.499c0.377,0.448,0.9,0.724,1.674,0.724h2.969c0.773,0,1.297-0.276,1.671-0.724
			c0.303-0.376,0.503-0.848,0.503-1.499v-32.67c0-0.649-0.2-1.124-0.503-1.498C111.146,111.625,110.622,111.352,109.849,111.352z"/>
		<path fill="#00478C" d="M78.846,132.518l-5.663-1.449c-2.346-0.598-3.442-1.024-3.442-2.47c0-1.397,1.245-2.52,4.142-2.52
			c1.697,0,3.245,0.373,4.242,1.421c0.824,0.874,0.677,1.322,1.324,1.672c0.395,0.2,0.848,0.2,1.547,0.2h2.821
			c0.45,0,0.774-0.076,1.024-0.35c0.197-0.225,0.323-0.572,0.323-1.147c0-1.298-0.853-2.97-2.347-4.243
			c-1.998-1.723-5.141-2.871-8.936-2.871c-6.842,0-11.331,3.245-11.331,8.437c0,1.849,0.671,3.345,1.771,4.517
			c1.271,1.375,3.096,2.322,5.74,2.996l5.716,1.447c1.573,0.399,2.971,0.874,2.971,2.248c0,2.121-2.247,2.842-4.645,2.842
			c-1.173,0-2.393-0.223-3.392-0.721c-0.701-0.35-1.298-0.851-1.722-1.524c-0.376-0.574-0.5-0.997-1.073-1.321
			c-0.348-0.2-0.776-0.226-1.35-0.226h-3.094c-0.671,0-0.999,0.2-1.223,0.476c-0.222,0.273-0.303,0.674-0.303,1.071
			c0,1,0.355,2.245,1.174,3.37c1.896,2.546,5.868,4.591,10.934,4.591c4.992,0,11.906-2.069,11.906-8.759
			c0-1.723-0.5-3.194-1.424-4.394C83.366,134.291,81.692,133.242,78.846,132.518z"/>
		<path fill="#00478C" d="M101.116,121.71h-4.521v-8.137c0-0.647-0.198-1.122-0.497-1.496c-0.377-0.451-0.9-0.725-1.676-0.725
			h-2.819c-0.776,0-1.298,0.273-1.671,0.725c-0.301,0.374-0.502,0.849-0.502,1.496v8.137h-1.398c-0.523,0-0.921,0.151-1.223,0.4
			c-0.322,0.299-0.473,0.699-0.473,1.299v1.721c0,0.6,0.15,0.999,0.473,1.297c0.302,0.25,0.699,0.4,1.223,0.4h1.398v12.454
			c0,3.196,0.875,5.193,2.499,6.788c1.495,1.475,3.442,2.397,6.837,2.397h2.121c0.526,0,0.926-0.15,1.225-0.397
			c0.323-0.301,0.523-0.7,0.523-1.3v-2.171c0-0.6-0.2-1-0.523-1.298c-0.299-0.249-0.698-0.399-1.225-0.399h-0.297
			c-1.348,0-2.273-0.35-2.897-0.95c-0.747-0.698-1.124-1.77-1.124-3.17v-11.954h4.547c0.52,0,0.919-0.15,1.219-0.4
			c0.326-0.299,0.477-0.698,0.477-1.297v-1.721c0-0.6-0.15-1-0.477-1.299C102.035,121.861,101.636,121.71,101.116,121.71z"/>
		<path fill="#00478C" d="M153.108,138.228c-2.951,0-5.367,2.414-5.367,5.367c0,2.956,2.416,5.37,5.367,5.37
			c2.957,0,5.343-2.414,5.343-5.37C158.451,140.642,156.065,138.228,153.108,138.228z M153.108,147.972
			c-2.39,0-4.346-1.99-4.346-4.377c0-2.384,1.956-4.346,4.346-4.346c2.389,0,4.348,1.962,4.348,4.346
			C157.456,145.981,155.497,147.972,153.108,147.972z"/>
		<path fill="#00478C" d="M154.104,143.539c0.79-0.141,1.305-0.538,1.305-1.393c0-1.276-0.91-1.476-1.957-1.476h-2.59v5.794h1.307
			v-2.385h0.914c1.162,0,0.769,1.562,1.047,2.385h1.422C155.097,145.329,155.666,143.765,154.104,143.539z M152.997,143.199h-0.828
			v-1.62h0.771c0.592,0,1.135,0.087,1.135,0.797C154.075,143.115,153.593,143.199,152.997,143.199z"/>
	</g>
	<rect x="180.26" fill="#00478C" width="3.504" height="151.978"/>
</g>
</svg>
