<?xml version="1.0" encoding="utf-8"?>
<!-- Generator: Adobe Illustrator 19.0.0, SVG Export Plug-In . SVG Version: 6.00 Build 0)  -->
<svg version="1.1" id="Capa_1" xmlns="http://www.w3.org/2000/svg" xmlns:xlink="http://www.w3.org/1999/xlink" x="0px" y="0px"
	 viewBox="1 378.7 29.7 50" style="enable-background:new 1 378.7 29.7 50;" xml:space="preserve">
<style type="text/css">
	.st0{fill:#DFDEE4;}
	.st1{fill:none;stroke:#004966;stroke-width:1.5;stroke-linecap:round;stroke-linejoin:round;stroke-miterlimit:10;}
</style>
<path class="st0" d="M24.3,383.9c0,0-4.7,3.1-3.2,7.3s1.7,9-0.3,11s1.7,6.7,1.7,6.7s2.4,2.7-1.1,7c-3.5,4.3,0.7,9.8,2.3,9.5
	C23.8,425.3,27,394.5,24.3,383.9z"/>
<path class="st1" d="M18,390.5l-6.2,3.9c-0.5,0.3-1,0.6-1.6,0.9c-0.5,0.2-1,0.4-1.6,0.4c-0.7,0-1.4-0.2-2-0.7c-0.7-0.5-1-1.2-1-2.1
	c0-1.3,0.5-2.2,1.5-2.7l12.1-7.4c0.3-0.2,0.6-0.3,0.9-0.4c0.3-0.1,0.6-0.1,0.9-0.1c1,0,1.9,0.3,2.6,1c0.7,0.7,1,1.4,1,2.4v37.6
	c0,0.8-0.3,1.5-1,2.2c-0.7,0.7-1.4,1-2.4,1c-0.9,0-1.7-0.3-2.4-1c-0.7-0.7-1-1.4-1-2.2V390.5z"/>
</svg>
