<?xml version="1.0" encoding="utf-8"?>
<!-- Generator: Adobe Illustrator 19.0.0, SVG Export Plug-In . SVG Version: 6.00 Build 0)  -->
<svg version="1.1" id="Capa_1" xmlns="http://www.w3.org/2000/svg" xmlns:xlink="http://www.w3.org/1999/xlink" x="0px" y="0px"
	 viewBox="-290 372 29.7 50" style="enable-background:new -290 372 29.7 50;" xml:space="preserve">
<style type="text/css">
	.st0{fill:#DFDEE4;}
	.st1{fill:none;stroke:#27A3B4;stroke-width:1.5;stroke-linecap:round;stroke-linejoin:round;stroke-miterlimit:10;}
</style>
<path class="st0" d="M-266.3,376.5c0,0-4.7,3.1-3.2,7.3s1.7,9-0.3,11s1.7,6.7,1.7,6.7s2.4,2.7-1.1,7s0.7,9.8,2.3,9.5
	C-266.8,417.9-263.6,387.1-266.3,376.5z"/>
<path class="st1" d="M-272.6,383.1l-6.2,3.9c-0.5,0.3-1,0.6-1.6,0.9c-0.5,0.2-1,0.4-1.6,0.4c-0.7,0-1.4-0.2-2-0.7
	c-0.7-0.5-1-1.2-1-2.1c0-1.3,0.5-2.2,1.5-2.7l12.1-7.4c0.3-0.2,0.6-0.3,0.9-0.4s0.6-0.1,0.9-0.1c1,0,1.9,0.3,2.6,1s1,1.4,1,2.4v37.6
	c0,0.8-0.3,1.5-1,2.2s-1.4,1-2.4,1c-0.9,0-1.7-0.3-2.4-1c-0.7-0.7-1-1.4-1-2.2v-32.8H-272.6z"/>
</svg>
