<?xml version="1.0" encoding="utf-8"?>
<!-- Generator: Adobe Illustrator 19.0.0, SVG Export Plug-In . SVG Version: 6.00 Build 0)  -->
<svg version="1.1" id="Capa_1" xmlns="http://www.w3.org/2000/svg" xmlns:xlink="http://www.w3.org/1999/xlink" x="0px" y="0px"
	 viewBox="1 378.7 29.7 50" style="enable-background:new 1 378.7 29.7 50;" xml:space="preserve">
<style type="text/css">
	.st0{fill:#DFDEE4;}
	.st1{fill:none;stroke:#004966;stroke-width:1.5;stroke-linecap:round;stroke-linejoin:round;stroke-miterlimit:10;}
</style>
<path class="st0" d="M2.9,420.7c0,0,2.8-2.5,5.1,1.1s7,0,7,0s2-3,7.8-0.2s5.8,0,5.8,0s3,3.1-4.2,4.2s-19.2-0.5-19.2-0.5
	S1.9,423.4,2.9,420.7z"/>
<path class="st0" d="M4.4,387.1c0,0,0.8-2.3,4.2-1.5c3.3,0.8,6.2-0.7,6.2-0.7s7.3-1.8,7.2,3c0,0-4.9-2-8.7-0.6S3.7,391.6,4.4,387.1z
	"/>
<path class="st1" d="M29.7,422.3c0,0.9-0.3,1.6-0.9,2.2c-0.6,0.6-1.4,0.9-2.4,0.9H6.3c-1,0-1.8-0.3-2.5-0.9S2.9,423,2.9,422
	c0-0.4,0-0.8,0.1-1.3c0-0.5,0.2-0.9,0.4-1.3c1.1-2.6,2.6-4.9,4.5-6.9c1.9-2,3.8-4,5.9-6c0.9-0.9,1.9-1.8,3-2.7s2.1-1.9,3-3
	c0.9-1,1.6-2.1,2.2-3.3c0.6-1.2,0.9-2.4,0.9-3.7c0-1.9-0.6-3.5-1.7-4.8c-1.1-1.3-2.8-2-5-2c-1.1,0-2.1,0.1-3,0.3
	c-0.9,0.2-1.7,0.4-2.5,0.8c-0.7,0.3-1.4,0.7-2,1.1c-0.6,0.4-1.3,0.6-2,0.6c-0.8,0-1.6-0.3-2.2-0.8c-0.7-0.6-1-1.3-1-2.2
	c0-0.9,0.4-1.8,1.3-2.5c0.9-0.7,2-1.3,3.3-1.8c1.3-0.5,2.7-0.9,4.2-1.1c1.5-0.2,2.8-0.4,3.9-0.4c2.1,0,3.9,0.3,5.6,0.9
	c1.6,0.6,3,1.5,4.2,2.6c1.1,1.1,2,2.4,2.6,3.8c0.6,1.5,0.9,3,0.9,4.7c0,2.6-0.4,4.8-1.3,6.6c-0.9,1.8-2,3.4-3.3,4.9
	c-1.1,1.2-2.3,2.4-3.6,3.6c-1.3,1.2-2.5,2.4-3.7,3.5c-1.2,1.2-2.4,2.4-3.5,3.6c-1.1,1.2-2,2.5-2.8,3.9h15.2c0.9,0,1.7,0.3,2.4,0.9
	C29.4,420.7,29.7,421.4,29.7,422.3z"/>
</svg>
