<?xml version="1.0" encoding="utf-8"?>
<!-- Generator: Adobe Illustrator 19.0.0, SVG Export Plug-In . SVG Version: 6.00 Build 0)  -->
<svg version="1.1" id="Capa_1" xmlns="http://www.w3.org/2000/svg" xmlns:xlink="http://www.w3.org/1999/xlink" x="0px" y="0px"
	 viewBox="-290 372 29.7 50" style="enable-background:new -290 372 29.7 50;" xml:space="preserve">
<style type="text/css">
	.st0{fill:#DFDEE4;}
	.st1{fill:none;stroke:#0D004C;stroke-width:1.5;stroke-linecap:round;stroke-linejoin:round;stroke-miterlimit:10;}
</style>
<path class="st0" d="M-288.5,414.1c0,0,2.8-2.5,5.1,1.1c2.3,3.6,7,0,7,0s2-3,7.8-0.2c5.8,2.8,5.8,0,5.8,0s3,3.1-4.2,4.2
	c-7.2,1.1-19.2-0.5-19.2-0.5S-289.5,416.8-288.5,414.1z"/>
<path class="st0" d="M-287,380.5c0,0,0.8-2.3,4.2-1.5c3.3,0.8,6.2-0.7,6.2-0.7s7.3-1.8,7.2,3c0,0-4.9-2-8.7-0.6
	C-281.9,382.1-287.7,385-287,380.5z"/>
<path class="st1" d="M-261.7,415.7c0,0.9-0.3,1.6-0.9,2.2s-1.4,0.9-2.4,0.9h-20.1c-1,0-1.8-0.3-2.5-0.9c-0.7-0.6-0.9-1.5-0.9-2.5
	c0-0.4,0-0.8,0.1-1.3c0-0.5,0.2-0.9,0.4-1.3c1.1-2.6,2.6-4.9,4.5-6.9c1.9-2,3.8-4,5.9-6c0.9-0.9,1.9-1.8,3-2.7c1.1-0.9,2.1-1.9,3-3
	c0.9-1,1.6-2.1,2.2-3.3c0.6-1.2,0.9-2.4,0.9-3.7c0-1.9-0.6-3.5-1.7-4.8s-2.8-2-5-2c-1.1,0-2.1,0.1-3,0.3c-0.9,0.2-1.7,0.4-2.5,0.8
	c-0.7,0.3-1.4,0.7-2,1.1s-1.3,0.6-2,0.6c-0.8,0-1.6-0.3-2.2-0.8c-0.7-0.6-1-1.3-1-2.2c0-0.9,0.4-1.8,1.3-2.5c0.9-0.7,2-1.3,3.3-1.8
	s2.7-0.9,4.2-1.1s2.8-0.4,3.9-0.4c2.1,0,3.9,0.3,5.6,0.9c1.6,0.6,3,1.5,4.2,2.6c1.1,1.1,2,2.4,2.6,3.8c0.6,1.5,0.9,3,0.9,4.7
	c0,2.6-0.4,4.8-1.3,6.6c-0.9,1.8-2,3.4-3.3,4.9c-1.1,1.2-2.3,2.4-3.6,3.6c-1.3,1.2-2.5,2.4-3.7,3.5c-1.2,1.2-2.4,2.4-3.5,3.6
	s-2,2.5-2.8,3.9h15.2c0.9,0,1.7,0.3,2.4,0.9C-262,414.1-261.7,414.8-261.7,415.7z"/>
</svg>
