<?xml version="1.0" encoding="utf-8"?>
<!-- Generator: Adobe Illustrator 19.0.0, SVG Export Plug-In . SVG Version: 6.00 Build 0)  -->
<svg version="1.1" id="Capa_1" xmlns="http://www.w3.org/2000/svg" xmlns:xlink="http://www.w3.org/1999/xlink" x="0px" y="0px"
	 viewBox="1 378.7 29.7 50" style="enable-background:new 1 378.7 29.7 50;" xml:space="preserve">
<style type="text/css">
	.st0{fill:#DFDEE4;}
	.st1{fill:none;stroke:#004966;stroke-width:1.5;stroke-linecap:round;stroke-linejoin:round;stroke-miterlimit:10;}
</style>
<path class="st0" d="M2.6,420.7c0,0,1.5-2.6,4.7,0s6.1,2.9,8.3,1.6s3.7-3.2,5.9-2.4c2.2,0.7,6.5-2.6,5.2-7.1
	c-1.3-4.5,1.4-5.2,1.4-5.2s4.8,11.6-8.4,17.7C19.6,425.4,6.9,428.7,2.6,420.7z"/>
<path class="st0" d="M17.2,399.5c0,0-4.4-1.6,1.3-7.1s5.8-5.8,4-7.5c-1.8-1.8,1.3-2.7,1.3-2.7s5.8-0.6,3.5,3.5
	S17.2,399.5,17.2,399.5z"/>
<path class="st1" d="M26.5,388c-1.5,2-3.1,3.9-4.6,5.8c-1.5,1.9-3.1,3.8-4.6,5.8c1.7,0.2,3.2,0.6,4.6,1.2c1.4,0.6,2.6,1.4,3.6,2.5
	c1,1,1.8,2.3,2.4,3.7c0.6,1.4,0.9,3,0.9,4.8c0,1.6-0.3,3.3-0.8,5c-0.5,1.7-1.4,3.2-2.5,4.6c-1.1,1.4-2.5,2.5-4.3,3.4
	c-1.7,0.9-3.8,1.3-6.3,1.3c-0.7,0-1.7-0.1-3.1-0.2c-1.3-0.1-2.7-0.4-4.1-0.7s-2.6-0.9-3.6-1.6c-1-0.7-1.5-1.6-1.5-2.7
	c0-0.8,0.3-1.5,0.9-2.1c0.6-0.6,1.3-0.9,2.2-0.9c0.5,0,1.1,0.1,1.6,0.4s1.1,0.5,1.8,0.8c0.7,0.3,1.4,0.6,2.1,0.8
	c0.8,0.2,1.7,0.4,2.7,0.4c1.5,0,2.8-0.2,3.8-0.7c1-0.5,1.9-1.1,2.5-1.9c0.6-0.8,1-1.6,1.3-2.6c0.3-1,0.4-1.9,0.4-2.8
	c0-2.4-0.7-4.1-2.2-5.2c-1.4-1-3.3-1.6-5.5-1.6c-0.4,0-0.8,0-1.1,0.1c-0.3,0.1-0.5,0.1-0.8,0.2c-0.2,0.1-0.5,0.2-0.7,0.2
	c-0.2,0.1-0.5,0.1-0.9,0.1c-0.8,0-1.5-0.3-2-0.9c-0.5-0.6-0.8-1.3-0.8-2c0-0.2,0-0.5,0.1-0.9c0.1-0.3,0.1-0.6,0.2-0.8l10-12.6H6.7
	c-0.9,0-1.7-0.3-2.4-0.9c-0.6-0.6-0.9-1.3-0.9-2.2c0-0.7,0.3-1.5,0.9-2.2c0.6-0.7,1.4-1.1,2.4-1.1h17c0.9,0,1.8,0.3,2.5,0.9
	c0.7,0.6,1.1,1.5,1.1,2.5C27.3,386.5,27,387.3,26.5,388z"/>
</svg>
