<?xml version="1.0" encoding="utf-8"?>
<!-- Generator: Adobe Illustrator 19.0.0, SVG Export Plug-In . SVG Version: 6.00 Build 0)  -->
<svg version="1.1" id="Capa_1" xmlns="http://www.w3.org/2000/svg" xmlns:xlink="http://www.w3.org/1999/xlink" x="0px" y="0px"
	 viewBox="1 378.7 31.7 50" style="enable-background:new 1 378.7 31.7 50;" xml:space="preserve">
<style type="text/css">
	.st0{fill:#DFDEE4;}
	.st1{fill:none;stroke:#004966;stroke-width:1.5;stroke-linecap:round;stroke-linejoin:round;stroke-miterlimit:10;}
</style>
<path class="st0" d="M2.4,412.6c0,0,4-1.8,5.7,1.2c1.7,3,6-0.9,6-0.9s4.7-1.9,6.2,0.6s0.6,3.3-0.2,3.3s-14.2,0.7-15.5-0.2
	C3.2,415.7,1.3,415.1,2.4,412.6z"/>
<path class="st0" d="M21,423.1c0,0-0.3-1.4,2.2-2.1c2.5-0.7,1.8-3.4,1.7-4.1s-0.6-4.2,3-3.7c3.6,0.4,4.3-0.1,3.5,1.3
	c-0.8,1.3-4.8,2.2-4.8,2.2c0,1.2,0,6.2,0,6.2S23.3,429.5,21,423.1z"/>
<path class="st1" d="M26.6,422.9c0,0.9-0.3,1.6-0.9,2.2c-0.6,0.6-1.4,0.9-2.4,0.9c-0.9,0-1.7-0.3-2.4-0.9s-0.9-1.3-0.9-2.2v-6.2H5.7
	c-1,0-1.8-0.3-2.5-1s-0.9-1.5-0.9-2.4c0-0.1,0-0.4,0.1-0.8c0.1-0.4,0.2-0.8,0.4-1.1l11.7-28.2c0.2-0.6,0.6-1,1.2-1.4
	s1.1-0.5,1.7-0.5c0.8,0,1.6,0.3,2.3,0.9c0.7,0.6,1,1.4,1,2.2c0,0.2,0,0.3,0,0.5c0,0.2-0.1,0.4-0.2,0.6c-0.3,0.7-0.7,1.7-1.3,3
	c-0.5,1.3-1.2,2.8-1.8,4.4c-0.7,1.6-1.4,3.3-2.1,5.1c-0.8,1.8-1.5,3.5-2.1,5.1c-0.7,1.6-1.3,3.1-1.8,4.4c-0.5,1.3-1,2.3-1.2,3H20
	V400c0-0.9,0.3-1.6,0.9-2.2c0.6-0.6,1.4-0.9,2.4-0.9c0.9,0,1.7,0.3,2.3,0.9c0.7,0.6,1,1.3,1,2.2v10.6h1.7c0.9,0,1.7,0.3,2.3,0.9
	c0.6,0.6,0.9,1.3,0.9,2.1c0,0.9-0.3,1.6-0.9,2.2c-0.6,0.6-1.4,0.9-2.3,0.9h-1.7V422.9z"/>
</svg>
