<?xml version="1.0" encoding="utf-8"?>
<!-- Generator: Adobe Illustrator 19.0.0, SVG Export Plug-In . SVG Version: 6.00 Build 0)  -->
<svg version="1.1" id="Capa_1" xmlns="http://www.w3.org/2000/svg" xmlns:xlink="http://www.w3.org/1999/xlink" x="0px" y="0px"
	 viewBox="-289 372 31.7 50" style="enable-background:new -289 372 31.7 50;" xml:space="preserve">
<style type="text/css">
	.st0{fill:#DFDEE4;}
	.st1{fill:none;stroke:#7100A4;stroke-width:1.5;stroke-linecap:round;stroke-linejoin:round;stroke-miterlimit:10;}
</style>
<path class="st0" d="M-287.6,406c0,0,4-1.8,5.7,1.2c1.7,3,6-0.9,6-0.9s4.7-1.9,6.2,0.6s0.6,3.3-0.2,3.3c-0.8,0-14.2,0.7-15.5-0.2
	C-286.8,409.1-288.7,408.5-287.6,406z"/>
<path class="st0" d="M-269,416.5c0,0-0.3-1.4,2.2-2.1s1.8-3.4,1.7-4.1s-0.6-4.2,3-3.7c3.6,0.4,4.3-0.1,3.5,1.3
	c-0.8,1.3-4.8,2.2-4.8,2.2c0,1.2,0,6.2,0,6.2S-266.7,422.9-269,416.5z"/>
<path class="st1" d="M-263.4,416.3c0,0.9-0.3,1.6-0.9,2.2c-0.6,0.6-1.4,0.9-2.4,0.9c-0.9,0-1.7-0.3-2.4-0.9s-0.9-1.3-0.9-2.2V410
	h-14.3c-1,0-1.8-0.3-2.5-1c-0.7-0.7-0.9-1.5-0.9-2.4c0-0.1,0-0.4,0.1-0.8s0.2-0.8,0.4-1.1l11.7-28.2c0.2-0.6,0.6-1,1.2-1.4
	c0.6-0.4,1.1-0.5,1.7-0.5c0.8,0,1.6,0.3,2.3,0.9c0.7,0.6,1,1.4,1,2.2c0,0.2,0,0.3,0,0.5s-0.1,0.4-0.2,0.6c-0.3,0.7-0.7,1.7-1.3,3
	c-0.5,1.3-1.2,2.8-1.8,4.4c-0.7,1.6-1.4,3.3-2.1,5.1c-0.8,1.8-1.5,3.5-2.1,5.1c-0.7,1.6-1.3,3.1-1.8,4.4s-1,2.3-1.2,3h9.8v-10.5
	c0-0.9,0.3-1.6,0.9-2.2s1.4-0.9,2.4-0.9c0.9,0,1.7,0.3,2.3,0.9c0.7,0.6,1,1.3,1,2.2V404h1.7c0.9,0,1.7,0.3,2.3,0.9
	c0.6,0.6,0.9,1.3,0.9,2.1c0,0.9-0.3,1.6-0.9,2.2c-0.6,0.6-1.4,0.9-2.3,0.9h-1.7C-263.4,410.1-263.4,416.3-263.4,416.3z"/>
</svg>
