<?xml version="1.0" encoding="utf-8"?>
<!-- Generator: Adobe Illustrator 19.0.0, SVG Export Plug-In . SVG Version: 6.00 Build 0)  -->
<svg version="1.1" id="Capa_1" xmlns="http://www.w3.org/2000/svg" xmlns:xlink="http://www.w3.org/1999/xlink" x="0px" y="0px"
	 viewBox="-234 347.3 143 98.7" style="enable-background:new -234 347.3 143 98.7;" xml:space="preserve">
<style type="text/css">
	.st0{fill:#C7C5D0;}
	.st1{fill:#0098D5;}
	.st2{fill:none;stroke:#004966;stroke-width:1.8205;stroke-miterlimit:10;}
	.st3{fill:#FFFFFF;}
	.st4{fill:#DFDEE4;}
	.st5{fill:none;stroke:#004966;stroke-width:1.8205;stroke-linecap:round;stroke-miterlimit:10;}
	.st6{fill:#0098C8;stroke:#004966;stroke-width:1.6854;stroke-linecap:round;stroke-miterlimit:10;}
	.st7{fill:none;stroke:#004966;stroke-width:1.2287;stroke-miterlimit:10;}
	.st8{fill:#004966;}
	.st9{fill:none;stroke:#004966;stroke-width:0.8272;stroke-linecap:round;stroke-miterlimit:10;}
	.st10{fill:none;stroke:#004966;stroke-width:0.6075;stroke-linecap:round;stroke-miterlimit:10;}
	.st11{fill:none;stroke:#004966;stroke-width:0.6138;stroke-linecap:round;stroke-miterlimit:10;}
	.st12{fill:#B2AE9D;}
	.st13{fill:#303231;stroke:#00243A;stroke-width:0.5;stroke-miterlimit:10;}
	.st14{fill:#3E4240;stroke:#00243A;stroke-width:0.5;stroke-miterlimit:10;}
	.st15{fill:#ABABAB;stroke:#00243A;stroke-width:0.5;stroke-miterlimit:10;}
	.st16{fill:#3672AD;stroke:#00243A;stroke-width:0.5;stroke-miterlimit:10;}
	.st17{fill:#FFFFFF;stroke:#004966;stroke-width:0.6157;stroke-linecap:round;stroke-miterlimit:10;}
	.st18{opacity:0.2;fill:#DFDEE4;enable-background:new    ;}
	.st19{fill:none;stroke:#004966;stroke-width:0.8043;stroke-miterlimit:10;}
	.st20{fill:none;stroke:#004966;stroke-width:0.8043;stroke-linecap:round;stroke-miterlimit:10;}
	.st21{fill:#004966;stroke:#004966;stroke-width:0.7447;stroke-linecap:round;stroke-miterlimit:10;}
	.st22{fill:none;stroke:#004966;stroke-width:0.5429;stroke-miterlimit:10;}
	.st23{fill:none;stroke:#004966;stroke-width:0.386;stroke-linecap:round;stroke-miterlimit:10;}
	.st24{fill:#C7C5D0;stroke:#004966;stroke-width:0.55;stroke-linecap:round;stroke-miterlimit:10;}
	.st25{fill:#C7C5D0;stroke:#004966;stroke-width:0.3019;stroke-linecap:round;stroke-miterlimit:10;}
	.st26{fill:none;stroke:#004966;stroke-width:0.55;stroke-linecap:round;stroke-miterlimit:10;}
	.st27{fill:#C7C5D0;stroke:#004966;stroke-width:0.5519;stroke-linecap:round;stroke-miterlimit:10;}
	.st28{fill:#FFFFFF;stroke:#004966;stroke-width:0.6171;stroke-linecap:round;stroke-miterlimit:10;}
	.st29{fill:#309DCF;stroke:#004966;stroke-width:0.3849;stroke-miterlimit:10;}
	.st30{fill:#DD2D5C;stroke:#004966;stroke-width:0.3849;stroke-miterlimit:10;}
	.st31{fill:#F0F0EF;stroke:#004966;stroke-width:0.3849;stroke-miterlimit:10;}
	.st32{fill:#FFFFFF;stroke:#004966;stroke-width:0.632;stroke-linecap:round;stroke-miterlimit:10;}
	.st33{fill:none;stroke:#004966;stroke-width:0.582;stroke-miterlimit:10;}
	.st34{fill:none;stroke:#004966;stroke-width:0.582;stroke-linecap:round;stroke-miterlimit:10;}
	.st35{fill:#0098C8;stroke:#004966;stroke-width:0.5388;stroke-linecap:round;stroke-miterlimit:10;}
	.st36{fill:none;stroke:#004966;stroke-width:0.3928;stroke-miterlimit:10;}
	.st37{fill:none;stroke:#004966;stroke-width:0.2645;stroke-linecap:round;stroke-miterlimit:10;}
	.st38{fill:none;stroke:#004966;stroke-width:0.6406;stroke-linecap:round;stroke-miterlimit:10;}
	.st39{fill:#DD0209;}
	.st40{opacity:0.1;fill:#1E120D;enable-background:new    ;}
	.st41{fill:none;stroke:#004966;stroke-width:0.6406;stroke-miterlimit:10;}
	.st42{fill:none;stroke:#004966;stroke-width:0.2877;stroke-linecap:round;stroke-miterlimit:10;}
	.st43{fill:#64AC28;}
	.st44{fill:#0098C8;}
	.st45{fill:#FFFFFF;stroke:#004966;stroke-width:0.55;stroke-linecap:round;stroke-miterlimit:10;}
	.st46{fill:#DD2D5C;}
</style>
<g>
	<path class="st0" d="M-139.2,364.8c0.3-0.1,0.5-0.2,0.7-0.3c-4.1-1.2-9.6,1.8-13.5,3c-15.5,4.6-30.6,10.4-45.9,15.6
		c-7,2.4-14,4.7-20.8,7.6c-3.1,1.3-9.5,3.7-11,7.1c-2.4,5.3,10.4,2.6,12.8,2.2c4.2-0.7,8.5-1.4,12.8-1.8c2.7-0.3,9.1-2,11.7-0.8
		c2,1,0.4,2-1,3.1c-4.3,3.3-9.3,5.3-13.9,7.9c-3.3,1.9-7.4,3.9-10.2,6.6c-2.2,2.1-2.3,2.5,0.2,3.5c3.7,1.4,9.9-0.7,13.7-1
		c2.3-0.2,6.4-1.3,8.5-0.2c-0.6,4.6-21.6,14.3-12.2,19.6c5.3,3,13.9,2.6,19.7,2.9c10.7,0.6,21.2,0.4,31.8-1.2
		c10.8-1.7,21.5-3.8,32.1-5.9c7.7-1.5,16.8-2.8,23.5-7.4c4.4-2.9,0.8-4.3-2.9-5.1c-9.4-2-19.2-1.6-28.8-2c-3.4-0.1-18.4,1.2-20.4-3
		c-1.9-4.1,9.7-8.4,12.2-9.8c4.1-2.3,8.3-4.4,12.4-6.7c2.6-1.5,6.7-3,8.7-5.2c3.2-3.6-3.3-3.1-6.2-3.2c-3-0.2-6-0.1-9,0
		c-1.2,0-6.6,0.8-7.6-0.5c-2-2.7,8.7-6.2,10.4-7.1c1.8-0.9,11.5-5.5,8.4-8c-2.7-2.2-10.7-0.6-14.1-0.8c0.4-3.7,11.1-4.9,13.1-8.9
		c3.2-6.8-7.1-8.6-11.3-9.3"/>
	<g>
		<g>
			<g>
				<path class="st1" d="M-156.6,419.5c1.4,2.5,3.5,3.5,5.1,10.1c0.6,2.6,0.8,5,0,8.9c-0.3,1.4-3.5,3.8-6.9,4.4
					c-1.8,0.3-4,0.1-7-0.3c-1.1-0.1-5.5-1.1-5.8-4.3c-0.2-2.5-1.1-5.1,0-8.9c0.9-3.2,1.9-4.7,5.9-10.5c4-5.7,3.7-5.6,3.7-5.6
					S-158,417-156.6,419.5"/>
				<path class="st1" d="M-168.5,424.8c0.6-1.4,1.5-2.6,2.1-4c0.3-0.7,0.8-1.8,1.6-2c0.1-0.1,0.3-0.2,0.5-0.3
					c-0.2-0.1-0.4-0.2-0.6-0.3c-0.2-0.1-0.4-0.3-0.7-0.4c1.3,0.4,2.6,0.7,3.7,1.5c-0.2,0-0.3,0-0.5-0.1c0.3,0.4,0.5,0.8,0.5,1.3
					c0,1.5-0.8,2.8-1.5,4c-1.3,2-2.1,3.7-2.4,6.1c-0.2,2.1,0,4.3,0.4,6.3c0.4,1.6,1.8,2.5,2.1,4.1s-1,1.7-2.3,1.4
					c-0.3,0.1-0.6,0-0.8-0.2c-0.4-0.1-0.7-0.3-0.9-0.4c-2.5-1.2-3.4-3.5-3.5-6.2C-171,431.9-170,428.2-168.5,424.8"/>
				<path class="st2" d="M-156.3,419.5c1.4,2.5,3.5,3.5,5.1,10.1c0.6,2.6,0.8,5,0,8.9c-0.3,1.4-3.5,3.8-6.9,4.4
					c-1.8,0.3-4,0.1-7-0.3c-1.1-0.1-5.5-1.1-5.8-4.3c-0.2-2.5-1.1-5.1,0-8.9c0.9-3.2,1.9-4.7,5.9-10.5c4-5.7,3.7-5.6,3.7-5.6
					S-157.7,417-156.3,419.5z"/>
				<path class="st3" d="M-171.4,407.9c-1.5,4.3,0.7,9,4.9,10.5c4.3,1.5,9-0.7,10.5-4.9c1.5-4.3-0.7-9-4.9-10.5
					C-165.2,401.5-169.9,403.7-171.4,407.9"/>
				<path class="st4" d="M-167.4,418c-0.6-0.5-1.3-1-1.9-1.6h0.1c-0.2-0.2-0.3-0.3-0.5-0.5c-1.7-2-3.2-5.7-1.1-7.8
					c2.3-2.3,3.5,2.5,4,3.8c0.5,1.4,1.7,2.5,3.1,3.2c0.4,0,0.6,0.1,0.8,0.3c1.6,0.5,3.4,0.2,4.7-1.1c0.5-0.6,1.3,0.1,1.2,0.8
					c0.7-0.1,1.2,0.8,0.6,1.3c-0.2,0.2-0.5,0.4-0.8,0.5c-0.4,0.6-1,1-1.7,1.2c-0.2,0.1-0.4,0.1-0.6,0c-0.1,0.1-0.2,0.2-0.3,0.3
					c-2.7,0.8-5.5,0.7-7.8-0.7C-167.5,417.8-167.4,417.9-167.4,418"/>
				<circle class="st2" cx="-163.5" cy="410.8" r="8.2"/>
				<path class="st5" d="M-164.8,419c0,0-0.8,2.8,1.8,2.8s4.1-3.7,4.1-3.7"/>
			</g>
		</g>
		<path class="st6" d="M-166.3,418.7l-0.4,1.4l0.6,2.6l3-1.8l3.7,2.4l2.3-3l-0.8-1.8c0,0-3.4,0.9-5.2,0.6
			C-164.7,418.9-166.3,418.7-166.3,418.7z"/>
		<line class="st7" x1="-163" y1="420.9" x2="-163.2" y2="442.9"/>
		<path class="st8" d="M-171.3,410.7c-1,0.1-3.3-1.3-1.3-1.7c-0.2-0.7-0.6-1.3-0.7-2.2c0.3,0,0.7-0.3,1-0.2
			c-1.3-0.8-1.2-2.1,0.4-2.3c-1-1-0.8-2.8,0.9-2.4c-1-1.8,0.8-2.2,2.1-1.7c0.2-1.2,1.8-1.9,2.6-0.8c0.1-1.2,2.3-1.9,2.7-0.6
			c0.9-0.9,4.3-1.1,2.9,0.7c1.1-0.6,2.1-0.4,1.9,1c0.9-0.4,1.4,0.3,1.6,1c0.8-0.1,2.3,1.1,1.2,1.6c0.8,0,1.4,0.6,0.8,1.3
			c0.8,0.2,0.9,2,1.1,2.8c0.3,1.1-0.1,2.1-1.3,2.4c0.2-2.4-1.2-3.5-2.5-5.4c-1.3-1.8-3.2-3.4-5.6-3.1c-2.4,0.2-4.3,1.5-5.7,3.5
			c-0.5,0.8-1.5,1.5-1.8,2.5c-0.3,1.1,0.3,2.2-0.4,3.2"/>
		<path class="st8" d="M-167.6,403.2c-0.2,1,0.4,1.6,1.5,1.5c-0.2,1.1,0.8,1.8,1.8,1.1c0.2,0.6,0.7,0.7,1.3,0.6c0-0.1,0-0.2,0.1-0.2
			c1,0.5,1-0.2,1.7-0.3c0.6-0.1,1.4,0.8,1.5-0.4c1,0.2,1.2-0.7,1.2-1.5c0-1.1-0.3-1.4-1.2-1.9c-1.5-0.9-4-1.6-5.8-1"/>
		<path class="st5" d="M-167.5,421.6c0,0-12.8,4.5-12.3,19.5"/>
		<path class="st5" d="M-155.8,420.8c0,0,12.8,4.5,12.3,19.5"/>
		<circle class="st8" cx="-159.8" cy="408.7" r="1"/>
		<circle class="st8" cx="-165.5" cy="410.3" r="1"/>
		<path class="st9" d="M-164.9,415c0,0,4.1,2.6,6.8-1"/>
	</g>
	<circle class="st10" cx="-177.8" cy="400.1" r="3"/>
	<circle class="st10" cx="-165.9" cy="389.8" r="3"/>
	<circle class="st10" cx="-188.5" cy="395.3" r="3"/>
	<g>
		<path class="st11" d="M-232.4,374.5c-0.7-3.2,1-6.5,4.1-8.3c-0.6-4,2.5-8,7.1-9.1c3.3-0.7,6.4,0.2,8.4,2.1
			c0.8-0.4,1.6-0.7,2.4-0.9c4.8-1.1,9.5,1.5,10.4,5.6c0.3,1.4,0.1,2.8-0.4,4.1c1,1,1.8,2.2,2.1,3.6c0.9,4.2-2.2,8.4-7.1,9.5
			c-1,0.2-1.9,0.3-2.9,0.2c-1.3,1.7-3.3,3-5.6,3.5c-4.4,1-8.6-1-10.1-4.5C-227.9,380.6-231.6,378.2-232.4,374.5z"/>
	</g>
	<g>
		<ellipse class="st12" cx="-213.2" cy="375.6" rx="11.3" ry="0.7"/>
		<g>
			<path class="st13" d="M-222.9,368.3c0,0,1.4-0.1,3.7,1.1c2.2,1.2,2.7,1.4,3.8,0.8s4.2-2.6,3.8-4s-3.1,0.4-4.2,0.8
				c-1.1,0.4-4.6-1.2-7.1,0"/>
			<g>
				<circle class="st14" cx="-220.4" cy="372.4" r="3.2"/>
				<circle class="st15" cx="-220.4" cy="372.4" r="2"/>
			</g>
			<path class="st16" d="M-218.7,372.2c0,0,2.7,1,4.6,0.4c1.6-0.5,2.4-2.4,2.4-2.4h0.8c1-4.2,5.7-2.9,5.7-2.9c-1.3-1.6-4-0.9-4-0.9
				l-1.3-2h-2.2v0.8h1.7c-0.2,2-1.9,3.3-4,4.3c-3.3,1.5-3.9,1.7-3.9,1.7L-218.7,372.2z"/>
			<g>
				<circle class="st14" cx="-206.4" cy="372.4" r="3.2"/>
				<circle class="st15" cx="-206.4" cy="372.4" r="2"/>
			</g>
			<polygon class="st16" points="-209,366.7 -205.8,371.8 -206.8,372.6 -209.9,367.4 			"/>
			<polygon class="st16" points="-220.7,371.8 -218.3,371 -217.8,372.2 -220.2,373 			"/>
		</g>
	</g>
	<g>
		<g>
			<path class="st17" d="M-192.3,372.3c-0.8-3.5,0.8-6.9,3.7-8.8c-0.7-4.3,2.1-8.5,6.5-9.4c3.1-0.7,6.1,0.4,8.1,2.5
				c0.7-0.4,1.5-0.7,2.3-0.9c4.5-1,9,1.8,10,6.3c0.3,1.5,0.2,3-0.2,4.4c1,1,1.7,2.4,2.1,3.9c1,4.5-1.9,8.9-6.5,9.9
				c-0.9,0.2-1.8,0.2-2.7,0.2c-1.2,1.7-3,3.1-5.2,3.6c-4.1,0.9-8.2-1.3-9.7-5.1C-187.9,378.9-191.4,376.3-192.3,372.3z"/>
		</g>
		<g>
			<g>
				<g>
					<path class="st8" d="M-173.7,368.9c0.6,1.1,1.6,1.5,2.3,4.5c0.3,1.2,0.3,2.2,0,3.9c-0.1,0.6-1.5,1.7-3.1,1.9
						c-0.8,0.1-1.8,0.1-3.1-0.1c-0.5-0.1-2.4-0.5-2.5-1.9c-0.1-1.1-0.5-2.2,0-3.9c0.4-1.4,0.8-2.1,2.6-4.6s1.6-2.5,1.6-2.5
						S-174.3,367.8-173.7,368.9"/>
					<path class="st18" d="M-178.9,371.3c0.3-0.6,0.7-1.2,0.9-1.8c0.1-0.3,0.3-0.8,0.7-0.9c0.1-0.1,0.1-0.1,0.2-0.1
						c-0.1,0-0.2-0.1-0.3-0.1c-0.1-0.1-0.2-0.1-0.3-0.2c0.6,0.2,1.2,0.3,1.6,0.7c-0.1,0-0.1,0-0.2,0c0.1,0.2,0.2,0.4,0.2,0.6
						c0,0.6-0.3,1.2-0.7,1.7c-0.6,0.9-0.9,1.6-1.1,2.7c-0.1,0.9,0,1.9,0.2,2.8c0.2,0.7,0.8,1.1,0.9,1.8c0.1,0.7-0.5,0.7-1,0.6
						c-0.1,0-0.3,0-0.4-0.1c-0.2-0.1-0.3-0.1-0.4-0.2c-1.1-0.5-1.5-1.5-1.6-2.7C-180,374.4-179.6,372.8-178.9,371.3"/>
					<path class="st19" d="M-173.6,368.9c0.6,1.1,1.6,1.5,2.3,4.5c0.3,1.2,0.3,2.2,0,3.9c-0.1,0.6-1.5,1.7-3.1,1.9
						c-0.8,0.1-1.8,0.1-3.1-0.1c-0.5-0.1-2.4-0.5-2.5-1.9c-0.1-1.1-0.5-2.2,0-3.9c0.4-1.4,0.8-2.1,2.6-4.6s1.6-2.5,1.6-2.5
						S-174.2,367.8-173.6,368.9z"/>
					<path class="st3" d="M-180.2,363.8c-0.7,1.9,0.3,4,2.2,4.6c1.9,0.7,4-0.3,4.6-2.2c0.7-1.9-0.3-4-2.2-4.6
						C-177.5,360.9-179.6,361.9-180.2,363.8"/>
					<path class="st4" d="M-178.5,368.2c-0.3-0.2-0.6-0.4-0.8-0.7c0,0,0,0,0.1,0c-0.1-0.1-0.1-0.1-0.2-0.2c-0.8-0.9-1.4-2.5-0.5-3.4
						c1-1,1.6,1.1,1.8,1.7s0.7,1.1,1.3,1.4c0.2,0,0.3,0,0.4,0.1c0.7,0.2,1.5,0.1,2.1-0.5c0.2-0.2,0.6,0.1,0.5,0.3
						c0.3,0,0.5,0.4,0.3,0.6c-0.1,0.1-0.2,0.2-0.3,0.2c-0.2,0.3-0.4,0.4-0.7,0.5c-0.1,0-0.2,0-0.3,0c0,0.1-0.1,0.1-0.2,0.1
						c-1.2,0.4-2.4,0.3-3.4-0.3C-178.5,368.1-178.5,368.2-178.5,368.2"/>
					<circle class="st19" cx="-176.7" cy="365.1" r="3.6"/>
					<path class="st20" d="M-177.3,368.7c0,0-0.3,1.3,0.8,1.3s1.8-1.7,1.8-1.7"/>
				</g>
			</g>
			<path class="st21" d="M-178,368.6l-0.2,0.6l0.3,1.2l1.3-0.8l1.6,1l1-1.3l-0.4-0.8c0,0-1.5,0.4-2.3,0.3
				C-177.3,368.6-178,368.6-178,368.6z"/>
			<line class="st22" x1="-176.5" y1="369.5" x2="-176.6" y2="379.3"/>
			<path class="st8" d="M-178.5,361.7c-0.1,0.5,0.2,0.7,0.6,0.7c-0.1,0.5,0.4,0.8,0.8,0.5c0.1,0.3,0.3,0.3,0.6,0.3v-0.1
				c0.4,0.2,0.4-0.1,0.8-0.1c0.2,0,0.6,0.3,0.7-0.2c0.4,0.1,0.5-0.3,0.5-0.7c0-0.5-0.1-0.6-0.5-0.8c-0.7-0.4-1.8-0.7-2.5-0.5"/>
			<path class="st20" d="M-178.5,369.8c0,0-1.8,7.7-6.9,2.6"/>
			<path class="st20" d="M-173.3,369.5c0,0,5.7,2,5.5,8.6"/>
			<circle class="st8" cx="-175.5" cy="365" r="0.4"/>
			<circle class="st8" cx="-177.4" cy="365.2" r="0.4"/>
			<path class="st23" d="M-178,367.1c0,0,1.8,1.3,3-0.5"/>
			<path class="st24" d="M-181.2,362.9l-1.7,1.1l12.6-1c0,0-2.2-1.7-2.1-1.7C-172.4,361.4-181.2,362.9-181.2,362.9z"/>
			<path class="st24" d="M-179.5,363.1c-0.1,0-1-3.7-1-3.7l6.1-0.6l0.4,3.5L-179.5,363.1z"/>
			<path class="st25" d="M-180,358.9l-0.9,0.6l6.9-0.5l-1.2-0.9C-175.1,358-180,358.9-180,358.9z"/>
			<line class="st26" x1="-170.8" y1="363" x2="-170.8" y2="367.1"/>
			<path class="st27" d="M-185.2,369.9c0,0-0.5,7.6-0.3,7.3c0.3-0.3,1-0.7,1-0.7s0.6,1,0.5,0.5s-0.5-4.9-0.5-4.9l0.8-2.9l-0.8,0.4
				l-0.6-0.5L-185.2,369.9z"/>
		</g>
	</g>
	<g>
		<g>
			<path class="st28" d="M-154.8,369.9c-0.7-3.3,1-6.6,4.1-8.4c-0.6-4.1,2.5-8.1,7.2-9.1c3.3-0.7,6.5,0.2,8.5,2.2
				c0.8-0.4,1.6-0.7,2.5-0.9c4.9-1.1,9.5,1.5,10.5,5.7c0.3,1.4,0.2,2.8-0.4,4.1c1,1,1.8,2.2,2.1,3.6c0.9,4.2-2.3,8.5-7.1,9.6
				c-1,0.2-2,0.3-2.9,0.2c-1.3,1.7-3.3,3-5.7,3.5c-4.4,1-8.7-1-10.1-4.6C-150.3,375.9-154,373.5-154.8,369.9z"/>
		</g>
		<g>
			<path class="st29" d="M-140.8,363.1l-0.4,3.2l-3.6-0.4C-144.5,364.4-142.9,363.3-140.8,363.1z"/>
			<g>
				<path class="st30" d="M-133.2,360.9c1.6,0.6,1.1,2.1,0.2,3.4c-1-0.7-2.4-1.4-3.9-1.9C-135.8,361.3-134.5,360.5-133.2,360.9z"/>
				<path class="st31" d="M-142.7,362.3c2-0.6,4-0.4,5.7,0.1c1.6,0.5,2.9,1.2,3.9,1.9c1.1,0.7,1.8,1.3,2,1.3l1.6-2.3l2.6,0.2
					l-0.9,2.3c-0.7,0-1.4,0.2-1.4,0.2l-0.5,2.2c0,0,0.4,0.1,0.9,0.2l-0.6,1.5c0,0-0.9,0.8-3.3,1.2c-1-1.4-2.5-2.7-2.5-2.7l-4.9-0.5
					c0,0,0.9,1.8,2.3,3.5c-0.7,0-1.5-0.1-2.3-0.2C-148.5,370.4-148.5,364.1-142.7,362.3z M-138.9,363.1c-0.2,0-0.4,0-0.5-0.1
					l-0.4,3.4l2.8,0.4l0.4-3.1C-137.3,363.4-138,363.2-138.9,363.1z M-133.8,367.3c0.1-1.1-0.6-2.2-1.8-3l-0.3,2.7L-133.8,367.3z
					 M-141.2,366.3l0.4-3.2c-2.1,0.2-3.8,1.3-4,2.8L-141.2,366.3z"/>
				<path class="st30" d="M-135.2,368.5c0,0,1.6,1.3,2.5,2.7c0.8,1.2,1.2,2.5-0.4,3c-1.7,0.6-3.5-1-4.8-2.7s-2.3-3.5-2.3-3.5
					L-135.2,368.5z"/>
				<path class="st29" d="M-135.9,367l0.3-2.7c1.2,0.8,1.9,1.9,1.8,3L-135.9,367z"/>
				<path class="st29" d="M-139.8,366.5l0.4-3.4c0.2,0,0.4,0,0.5,0.1c0.8,0.1,1.6,0.3,2.3,0.6l-0.4,3.1L-139.8,366.5z"/>
				<path class="st30" d="M-129.2,366.1c0,0,0.7-0.2,1.4-0.2c0.6,0,1.2,0.3,1.1,1.3c-0.2,1.2-1.3,1.4-2.1,1.3
					c-0.5-0.1-0.9-0.2-0.9-0.2L-129.2,366.1z"/>
			</g>
		</g>
	</g>
	<g>
		<g>
			<path class="st32" d="M-148.1,405.2c-0.7-3.3,1.1-6.7,4.2-8.6c-0.6-4.2,2.6-8.3,7.4-9.3c3.4-0.7,6.6,0.2,8.7,2.2
				c0.8-0.4,1.6-0.7,2.5-0.9c5-1.1,9.8,1.5,10.7,5.8c0.3,1.4,0.2,2.9-0.4,4.2c1.1,1,1.8,2.2,2.1,3.7c1,4.3-2.3,8.7-7.3,9.8
				c-1,0.2-2,0.3-3,0.2c-1.3,1.7-3.3,3.1-5.8,3.6c-4.5,1-8.9-1.1-10.4-4.7C-143.5,411.5-147.3,409-148.1,405.2z"/>
		</g>
		<g>
			<g>
				<g>
					<path class="st1" d="M-128.3,402.6c0.4,0.8,1.1,1.1,1.6,3.2c0.2,0.8,0.2,1.6,0,2.8c-0.1,0.4-1.1,1.2-2.2,1.4
						c-0.6,0.1-1.3,0-2.2-0.1c-0.3,0-1.7-0.3-1.8-1.4c-0.1-0.8-0.3-1.6,0-2.8c0.3-1,0.6-1.5,1.9-3.4c1.3-1.8,1.2-1.8,1.2-1.8
						S-128.8,401.8-128.3,402.6"/>
					<path class="st1" d="M-132.1,404.3c0.2-0.4,0.5-0.8,0.7-1.3c0.1-0.2,0.2-0.6,0.5-0.7c0,0,0.1-0.1,0.2-0.1
						c-0.1,0-0.1-0.1-0.2-0.1c-0.1,0-0.1-0.1-0.2-0.1c0.4,0.1,0.8,0.2,1.2,0.5h-0.1c0.1,0.1,0.2,0.3,0.2,0.4c0,0.5-0.2,0.9-0.5,1.3
						c-0.4,0.6-0.7,1.2-0.8,2c-0.1,0.7,0,1.4,0.1,2c0.1,0.5,0.6,0.8,0.7,1.3c0.1,0.5-0.3,0.5-0.7,0.4c-0.1,0-0.2,0-0.3-0.1
						c-0.1,0-0.2-0.1-0.3-0.1c-0.8-0.4-1.1-1.1-1.1-2C-132.9,406.5-132.6,405.4-132.1,404.3"/>
					<path class="st33" d="M-128.2,402.6c0.4,0.8,1.1,1.1,1.6,3.2c0.2,0.8,0.3,1.6,0,2.8c-0.1,0.4-1.1,1.2-2.2,1.4
						c-0.6,0.1-1.3,0-2.2-0.1c-0.3,0-1.7-0.3-1.8-1.4c-0.1-0.8-0.3-1.6,0-2.8c0.3-1,0.6-1.5,1.9-3.4c1.3-1.8,1.2-1.8,1.2-1.8
						S-128.7,401.8-128.2,402.6z"/>
					<path class="st3" d="M-133.1,398.9c-0.5,1.4,0.2,2.9,1.6,3.4c1.4,0.5,2.9-0.2,3.4-1.6s-0.2-2.9-1.6-3.4
						C-131.1,396.8-132.6,397.5-133.1,398.9"/>
					<path class="st4" d="M-131.8,402.1c-0.2-0.2-0.4-0.3-0.6-0.5l0,0c-0.1,0-0.1-0.1-0.1-0.2c-0.6-0.6-1-1.8-0.4-2.5
						c0.7-0.7,1.1,0.8,1.3,1.2c0.2,0.5,0.5,0.8,1,1c0.1,0,0.2,0,0.3,0.1c0.5,0.1,1.1,0.1,1.5-0.3c0.2-0.2,0.4,0,0.4,0.2
						c0.2,0,0.4,0.3,0.2,0.4c-0.1,0.1-0.2,0.1-0.2,0.2c-0.1,0.2-0.3,0.3-0.5,0.4c-0.1,0-0.1,0-0.2,0l-0.1,0.1
						C-130.2,402.5-131.1,402.4-131.8,402.1C-131.8,402-131.8,402.1-131.8,402.1"/>
					<circle class="st33" cx="-130.5" cy="399.8" r="2.6"/>
					<path class="st34" d="M-130.9,402.4c0,0-0.2,0.9,0.6,0.9s1.3-1.2,1.3-1.2"/>
				</g>
			</g>
			<path class="st35" d="M-131.4,402.3l-0.1,0.5l0.2,0.8l1-0.6l1.2,0.8l0.7-1l-0.3-0.6c0,0-1.1,0.3-1.6,0.2
				C-130.9,402.4-131.4,402.3-131.4,402.3z"/>
			<line class="st36" x1="-130.3" y1="403" x2="-130.4" y2="410.1"/>
			<path class="st8" d="M-133,399.8c-0.3,0-1.1-0.4-0.4-0.5c-0.1-0.2-0.2-0.4-0.2-0.7c0.1,0,0.2-0.1,0.3-0.1
				c-0.4-0.3-0.4-0.7,0.1-0.7c-0.3-0.3-0.3-0.9,0.3-0.8c-0.3-0.6,0.3-0.7,0.7-0.5c0.1-0.4,0.6-0.6,0.8-0.3c0-0.4,0.8-0.6,0.9-0.2
				c0.3-0.3,1.4-0.4,0.9,0.2c0.4-0.2,0.7-0.1,0.6,0.3c0.3-0.1,0.4,0.1,0.5,0.3c0.3,0,0.7,0.4,0.4,0.5c0.3,0,0.4,0.2,0.2,0.4
				c0.3,0.1,0.3,0.6,0.4,0.9c0.1,0.4,0,0.7-0.4,0.8c0.1-0.8-0.4-1.1-0.8-1.7c-0.4-0.6-1-1.1-1.8-1s-1.4,0.5-1.8,1.1
				c-0.2,0.2-0.5,0.5-0.6,0.8C-133,399-132.8,399.4-133,399.8"/>
			<path class="st8" d="M-131.8,397.4c-0.1,0.3,0.1,0.5,0.5,0.5c-0.1,0.4,0.3,0.6,0.6,0.4c0,0.2,0.2,0.2,0.4,0.2c0,0,0,0,0-0.1
				c0.3,0.2,0.3-0.1,0.6-0.1c0.2,0,0.5,0.2,0.5-0.1c0.3,0.1,0.4-0.2,0.4-0.5c0-0.4-0.1-0.4-0.4-0.6c-0.5-0.3-1.3-0.5-1.8-0.3"/>
			<path class="st34" d="M-131.8,403.2c0,0-4.1,1.4-3.9,6.2"/>
			<path class="st34" d="M-128.1,403c0,0,4.1,1.4,3.9,6.2"/>
			<circle class="st8" cx="-129.3" cy="399.1" r="0.3"/>
			<circle class="st8" cx="-131.1" cy="399.6" r="0.3"/>
			<path class="st37" d="M-131,401.1c0,0,1.3,0.8,2.2-0.3"/>
		</g>
		<g>
			<g>
				<path class="st38" d="M-122.5,402.3c0.6-0.2-3.1,2-6,0.5"/>
				<path class="st38" d="M-119.1,402.3c-0.6-0.2,3.4,1.2,3.4,7.6"/>
				<path class="st39" d="M-119.1,401.9c0.5,0.9,1.2,1.2,1.8,3.5c0.2,0.9,0.3,1.8,0,3.1c-0.1,0.5-1.2,1.3-2.4,1.5
					c-0.6,0.1-1.4,0-2.5-0.1c-0.4-0.1-1.9-0.4-2-1.5c-0.1-0.9-0.4-1.8,0-3.1c0.3-1.1,0.7-1.7,2.1-3.7s1.3-2,1.3-2
					S-119.6,401-119.1,401.9"/>
				<path class="st40" d="M-123.3,403.7c0.2-0.5,0.5-0.9,0.7-1.3c0.1-0.2,0.3-0.6,0.6-0.7c0.1,0,0.1-0.1,0.2-0.1
					c-0.1,0-0.1-0.1-0.2-0.1s-0.2-0.1-0.2-0.1c0.5,0.1,0.9,0.2,1.3,0.5c-0.1,0-0.1,0-0.2,0c0.1,0.1,0.2,0.3,0.2,0.5
					c0,0.5-0.3,0.9-0.5,1.3c-0.4,0.7-0.8,1.2-0.9,2.1c-0.1,0.7,0,1.4,0.2,2.1c0.1,0.5,0.6,0.9,0.7,1.4s-0.4,0.6-0.8,0.5
					c-0.1,0-0.2,0-0.3-0.1c-0.1,0-0.2-0.1-0.3-0.1c-0.9-0.4-1.2-1.2-1.2-2.1C-124.1,406-123.8,404.8-123.3,403.7"/>
				<path class="st41" d="M-119,401.9c0.5,0.9,1.2,1.2,1.8,3.5c0.2,0.9,0.3,1.8,0,3.1c-0.1,0.5-1.2,1.3-2.4,1.5
					c-0.6,0.1-1.4,0-2.5-0.1c-0.4-0.1-1.9-0.4-2-1.5c-0.1-0.9-0.4-1.8,0-3.1c0.3-1.1,0.7-1.7,2.1-3.7s1.3-2,1.3-2
					S-119.5,401-119,401.9z"/>
				<path class="st3" d="M-123.4,398.7c0,1.6,1.3,2.9,2.9,2.9s2.9-1.3,2.9-2.9s-1.3-2.9-2.9-2.9
					C-122.2,395.8-123.4,397.1-123.4,398.7"/>
				<path class="st4" d="M-120.9,401.5c-0.3-0.1-0.5-0.2-0.8-0.3l0,0c-0.1,0-0.1-0.1-0.2-0.1c-0.8-0.4-1.8-1.5-1.3-2.4
					c0.5-1,1.5,0.4,1.8,0.8s0.9,0.6,1.4,0.7c0.1-0.1,0.2,0,0.3,0c0.6,0,1.2-0.3,1.4-0.9c0.1-0.2,0.4-0.1,0.5,0.1
					c0.2-0.1,0.5,0.1,0.4,0.4c-0.1,0.1-0.1,0.2-0.2,0.3c0,0.2-0.2,0.4-0.4,0.6c-0.1,0-0.1,0.1-0.2,0.1c0,0.1,0,0.1-0.1,0.1
					C-119.1,401.4-120,401.6-120.9,401.5C-121,401.5-120.9,401.5-120.9,401.5"/>
				<circle class="st41" cx="-120.5" cy="398.7" r="2.9"/>
				<path class="st38" d="M-119.2,396.1c0,0-2.5,0.3-3.4-1.6"/>
				<path class="st38" d="M-119.2,401.9c0,0-0.4,0.8-1.3,0.8s-1.2-0.8-1.2-0.8"/>
			</g>
			<path class="st42" d="M-121.6,400.1c0,0,0.9,0.6,1.3-0.1"/>
			<circle class="st8" cx="-122" cy="398.4" r="0.4"/>
			<circle class="st8" cx="-120.4" cy="398.5" r="0.4"/>
		</g>
		<g>
			<g>
				<path class="st38" d="M-138.5,402.5c-0.6-0.2,3.1,2,6,0.4"/>
				<path class="st38" d="M-141.9,402.5c0.6-0.2-3.3,0.5-3.3,7"/>
				<path class="st43" d="M-141.9,402.1c-0.5,0.9-1.2,1.2-1.8,3.5c-0.2,0.9-0.3,1.8,0,3.1c0.1,0.5,1.2,1.3,2.4,1.5
					c0.6,0.1,1.4,0,2.5-0.1c0.4-0.1,1.9-0.4,2-1.5c0.1-0.9,0.4-1.8,0-3.1c-0.3-1.1-0.7-1.7-2.1-3.7c-1.4-2-1.3-2-1.3-2
					S-141.4,401.2-141.9,402.1"/>
				<path class="st44" d="M-137.7,403.8c-0.2-0.5-0.5-0.9-0.7-1.3c-0.1-0.2-0.3-0.6-0.6-0.7c-0.1,0-0.1-0.1-0.2-0.1
					c0.1,0,0.1-0.1,0.2-0.1c0.1,0,0.2-0.1,0.2-0.1c-0.5,0.1-0.9,0.2-1.3,0.5c0.1,0,0.1,0,0.2,0c-0.1,0.1-0.2,0.3-0.2,0.5
					c0,0.5,0.3,0.9,0.5,1.3c0.4,0.7,0.8,1.2,0.9,2.1c0.1,0.7,0,1.4-0.2,2.1c-0.1,0.5-0.6,0.8-0.7,1.4c-0.1,0.5,0.4,0.6,0.8,0.5
					c0.1,0,0.2,0,0.3-0.1c0.1,0,0.2-0.1,0.3-0.1c0.9-0.4,1.2-1.2,1.2-2.1C-136.9,406.2-137.2,405-137.7,403.8"/>
				<path class="st41" d="M-142,402.1c-0.5,0.9-1.2,1.2-1.8,3.5c-0.2,0.9-0.3,1.8,0,3.1c0.1,0.5,1.2,1.3,2.4,1.5
					c0.6,0.1,1.4,0,2.5-0.1c0.4-0.1,1.9-0.4,2-1.5c0.1-0.9,0.4-1.8,0-3.1c-0.3-1.1-0.7-1.7-2.1-3.7c-1.4-2-1.3-2-1.3-2
					S-141.5,401.2-142,402.1z"/>
				<path class="st3" d="M-137.5,398.9c0,1.6-1.3,2.9-2.9,2.9c-1.6,0-2.9-1.3-2.9-2.9s1.3-2.9,2.9-2.9
					C-138.8,396-137.5,397.3-137.5,398.9"/>
				<path class="st4" d="M-140.1,401.7c0.3-0.1,0.5-0.2,0.8-0.3l0,0c0.1,0,0.1-0.1,0.2-0.1c0.8-0.4,1.8-1.5,1.3-2.4
					c-0.5-1-1.5,0.4-1.8,0.8s-0.9,0.6-1.4,0.7c-0.1-0.1-0.2,0-0.3,0c-0.6,0-1.2-0.3-1.4-0.9c-0.1-0.3-0.4-0.1-0.5,0.1
					c-0.2-0.1-0.5,0.1-0.4,0.4c0.1,0.1,0.1,0.2,0.2,0.3c0,0.2,0.2,0.4,0.4,0.6c0.1,0,0.1,0.1,0.2,0.1c0,0.1,0,0.1,0.1,0.1
					C-141.9,401.5-140.9,401.8-140.1,401.7C-140,401.6-140.1,401.7-140.1,401.7"/>
				<circle class="st41" cx="-140.5" cy="398.9" r="2.9"/>
				<path class="st38" d="M-141.8,396.3c0,0,2.5,0.3,3.4-1.6"/>
				<path class="st38" d="M-141.8,402.1c0,0,0.4,0.8,1.3,0.8c0.9,0,1.2-0.8,1.2-0.8"/>
			</g>
			<path class="st42" d="M-139.4,400.3c0,0-0.7,0.6-1.3-0.1"/>
			<circle class="st8" cx="-139" cy="398.6" r="0.4"/>
			<circle class="st8" cx="-140.6" cy="398.6" r="0.4"/>
		</g>
	</g>
	<g>
		<g>
			<path class="st45" d="M-119.9,382.3c-0.4-1.6,0.5-3.2,2-4.1c-0.3-2,1.2-4,3.5-4.5c1.6-0.4,3.2,0.1,4.2,1.1
				c0.4-0.2,0.8-0.3,1.2-0.4c2.4-0.5,4.7,0.7,5.1,2.8c0.2,0.7,0.1,1.4-0.2,2c0.5,0.5,0.9,1.1,1,1.8c0.5,2.1-1.1,4.2-3.5,4.7
				c-0.5,0.1-1,0.1-1.4,0.1c-0.6,0.8-1.6,1.5-2.8,1.7c-2.2,0.5-4.3-0.5-5-2.2C-117.7,385.3-119.5,384.1-119.9,382.3z"/>
		</g>
		<g>
			<path class="st46" d="M-109.7,377.5l-0.8,0.8c-0.4-0.4-0.8-0.6-1.1-0.6c-0.2,0-0.4,0.1-0.5,0.2s-0.2,0.3-0.2,0.4s0.1,0.3,0.2,0.4
				s0.4,0.3,0.7,0.4c0.6,0.3,1.1,0.5,1.3,0.7c0.2,0.2,0.4,0.4,0.5,0.7c0.1,0.3,0.2,0.6,0.2,0.9s-0.1,0.6-0.2,0.9s-0.3,0.5-0.5,0.7
				s-0.5,0.3-0.9,0.4v1.1h-0.8v-1.1c-0.4,0-0.7-0.1-1-0.3c-0.4-0.2-0.7-0.5-1-0.8l0.8-0.8c0.5,0.6,1,0.8,1.5,0.8
				c0.2,0,0.5-0.1,0.6-0.3c0.2-0.2,0.3-0.4,0.3-0.6s-0.1-0.4-0.2-0.5s-0.3-0.3-0.7-0.5c-0.7-0.3-1.1-0.6-1.4-0.8
				c-0.2-0.2-0.4-0.4-0.5-0.6s-0.2-0.5-0.2-0.7c0-0.4,0.2-0.8,0.5-1.1c0.3-0.3,0.7-0.5,1.2-0.5v-0.4h0.8v0.5
				c0.3,0.1,0.5,0.2,0.7,0.3C-110.2,377-109.9,377.2-109.7,377.5z"/>
		</g>
	</g>
</g>
</svg>
