<?xml version="1.0" encoding="utf-8"?>
<!-- Generator: Adobe Illustrator 19.0.0, SVG Export Plug-In . SVG Version: 6.00 Build 0)  -->
<svg version="1.1" id="Capa_1" xmlns="http://www.w3.org/2000/svg" xmlns:xlink="http://www.w3.org/1999/xlink" x="0px" y="0px"
	 viewBox="-114 272 382 250" style="enable-background:new -114 272 382 250;" xml:space="preserve">
<style type="text/css">
	.st0{fill:#DAD4EA;}
	.st1{fill:none;stroke:#004966;stroke-width:6.3644;stroke-linecap:round;stroke-miterlimit:10;}
	.st2{fill:#FFFFFF;}
	.st3{fill:#DFDEE4;}
	.st4{fill:none;stroke:#004966;stroke-width:6.3644;stroke-miterlimit:10;}
	.st5{fill:#FFE000;}
	.st6{fill:#288898;}
	.st7{fill:none;stroke:#004966;stroke-width:3.2954;stroke-linecap:round;stroke-miterlimit:10;}
	.st8{fill:#004966;}
	.st9{fill:none;stroke:#004966;stroke-width:2.0731;stroke-linecap:round;stroke-miterlimit:10;}
	.st10{fill:#FFFFFF;stroke:#004966;stroke-width:1.6711;stroke-linecap:round;stroke-miterlimit:10;}
</style>
<g>
	<path class="st0" d="M262.2,361.8c12.1,63.8-61,131.3-163.2,150.7C-3.3,532-96,496-108.2,432.2c-12.1-63.8,61-131.3,163.2-150.7
		C157.3,262.1,250,298,262.2,361.8z"/>
	<g>
		<g>
			<path class="st1" d="M-36.2,382.4c-5.7-1.6,33.5,11.6,33.5,75.9"/>
			<path class="st1" d="M-70.5,382.4c5.7-1.6-33.5,11.6-33.5,75.9"/>
			<path class="st2" d="M-70.3,378.3c-4.9,8.6-12.4,12.1-18,35.2c-2.2,9.1-2.7,17.4,0,31c1,4.8,12.1,13.3,24.2,15.3
				c6.4,1.1,13.9,0.4,24.4-1.1c3.8-0.5,19.1-3.7,20.2-15c0.8-8.6,3.8-17.7,0-31c-3.2-11.3-6.7-16.5-20.7-36.7
				c-14-20-12.9-19.7-12.9-19.7S-65.4,369.5-70.3,378.3"/>
			<path class="st3" d="M-28.9,395.6c-2.2-4.5-5.2-8.7-7.3-13.3c-1.1-2.4-2.7-5.9-5.5-6.8c-0.5-0.4-1.1-0.7-1.7-0.9
				c0.7-0.3,1.4-0.7,2.1-1c0.8-0.4,1.5-0.9,2.3-1.4c-4.6,1.2-9.1,2.3-13,5c0.5-0.1,1.1-0.2,1.6-0.3c-1,1.2-1.7,2.7-1.7,4.5
				c0,4.9,2.7,9.2,5.3,13.2c4.4,6.7,7.5,12.4,8.5,20.4c0.9,6.8,0.1,14.2-1.5,20.9c-1.3,5.2-6.4,8.4-7.4,13.7c-1,5.4,3.6,5.6,8,4.5
				c1.1,0.3,2.3,0,2.9-0.8c1.3-0.4,2.4-0.9,3.1-1.2c8.8-4.1,11.8-11.6,12.4-20.5C-20.1,419.1-23.4,406.9-28.9,395.6"/>
			<path class="st4" d="M-71.4,378.3c-4.9,8.6-12.4,12.1-18,35.2c-2.2,9.1-2.7,17.4,0,31c1,4.8,12.1,13.3,24.2,15.3
				c6.4,1.1,13.9,0.4,24.4-1.1c3.8-0.5,19.1-3.7,20.2-15c0.8-8.6,3.8-17.7,0-31c-3.2-11.3-6.7-16.5-20.7-36.7
				c-14-20-12.9-19.7-12.9-19.7S-66.4,369.5-71.4,378.3z"/>
			<path class="st2" d="M-27,346.4c0,15.8-12.8,28.6-28.6,28.6s-28.6-12.8-28.6-28.6c0-15.8,12.8-28.6,28.6-28.6
				C-39.8,317.7-27,330.6-27,346.4"/>
			<path class="st3" d="M-52.2,374.6c2.7-0.9,5.4-1.8,8-2.9c-0.1-0.1-0.3-0.1-0.4-0.2c0.7-0.3,1.4-0.7,2.1-1
				c8.1-4.5,17.4-14.9,12.9-24.2c-4.9-10.2-14.6,4-17.7,7.7c-3.4,4.1-8.6,6.4-13.8,6.7c-1.2-0.6-2.2-0.5-3.1,0
				c-5.9-0.4-11.5-3.4-14.1-9.1c-1.1-2.5-4.4-1.1-4.8,1.1c-2.1-1-5,1.3-3.5,3.5c0.6,0.9,1.2,1.8,1.9,2.6c0.5,2.4,2.2,4.4,4.1,6
				c0.6,0.5,1.2,0.7,1.9,0.7c0.1,0.5,0.3,1,0.8,1.4c7.8,6,17.2,8.7,26.4,6.9C-51.8,374-52,374.3-52.2,374.6"/>
			<path class="st4" d="M-28.1,346.4c0,15.8-12.8,28.6-28.6,28.6s-28.6-12.8-28.6-28.6c0-15.8,12.8-28.6,28.6-28.6
				C-40.9,317.7-28.1,330.6-28.1,346.4z"/>
			<path class="st1" d="M-68.6,378.9c0,0,4.3,7.5,13.3,7.5s12-7.5,12-7.5"/>
			<path class="st1" d="M176,395.8c5.7-1.6-33.5,11.6-33.5,75.9"/>
			<path class="st1" d="M210.3,395.8c-5.7-1.6,33.5,8.8,33.5,75.9"/>
			<path class="st5" d="M210.1,391.8c4.9,8.6,12.4,12.1,18,35.2c2.2,9.1,2.7,17.4,0,31c-1,4.8-12.1,13.3-24.2,15.4
				c-6.4,1.1-13.9,0.4-24.4-1.1c-3.8-0.5-19.1-3.7-20.2-15c-0.8-8.6-3.8-17.7,0-31c3.2-11.3,6.7-16.5,20.7-36.7
				c13.9-20,12.9-19.7,12.9-19.7S205.1,382.9,210.1,391.8"/>
			<path class="st5" d="M168.7,409.1c2.2-4.5,5.2-8.7,7.3-13.3c1.1-2.4,2.7-5.9,5.5-6.8c0.5-0.4,1.1-0.7,1.7-0.9
				c-0.7-0.3-1.4-0.7-2.1-1.1c-0.8-0.4-1.5-0.9-2.3-1.4c4.6,1.2,9.1,2.3,13,5c-0.5-0.1-1.1-0.2-1.6-0.3c1,1.2,1.7,2.7,1.7,4.5
				c0,4.9-2.7,9.2-5.3,13.2c-4.4,6.7-7.5,12.4-8.5,20.4c-0.8,6.9-0.1,14.2,1.5,20.9c1.3,5.2,6.4,8.4,7.4,13.7c1,5.4-3.6,5.6-8,4.5
				c-1.1,0.3-2.3,0-2.9-0.8c-1.3-0.4-2.4-0.9-3.1-1.2c-8.8-4.1-11.8-11.6-12.4-20.5C159.9,432.5,163.2,420.3,168.7,409.1"/>
			<path class="st4" d="M211.2,391.8c4.9,8.6,12.4,12.1,18,35.2c2.2,9.1,2.7,17.4,0,31c-1,4.8-12.1,13.3-24.2,15.4
				c-6.4,1.1-13.9,0.4-24.4-1.1c-3.8-0.5-19.1-3.7-20.2-15c-0.8-8.6-3.8-17.7,0-31c3.2-11.3,6.7-16.5,20.7-36.7
				c14-20,12.9-19.7,12.9-19.7S206.2,382.9,211.2,391.8z"/>
			<path class="st2" d="M166.8,359.8c0,15.8,12.8,28.6,28.6,28.6s28.6-12.8,28.6-28.6c0-15.8-12.8-28.6-28.6-28.6
				S166.8,344,166.8,359.8"/>
			<path class="st3" d="M191.9,388c-2.7-0.9-5.4-1.8-8-2.9c0.1-0.1,0.3-0.1,0.4-0.2c-0.7-0.3-1.4-0.7-2.1-1
				c-8.1-4.5-17.4-14.9-12.9-24.2c4.9-10.2,14.6,3.9,17.7,7.7c3.4,4.1,8.6,6.4,13.8,6.7c1.2-0.6,2.2-0.5,3.1,0
				c5.9-0.4,11.5-3.4,14.1-9.1c1.1-2.5,4.4-1.1,4.8,1.1c2.1-1,5,1.3,3.5,3.5c-0.6,0.9-1.2,1.8-1.9,2.6c-0.5,2.4-2.2,4.4-4.1,6
				c-0.6,0.5-1.2,0.7-1.9,0.7c-0.1,0.5-0.3,1-0.8,1.4c-7.8,6-17.2,8.7-26.4,6.9C191.5,387.5,191.7,387.7,191.9,388"/>
			<circle class="st4" cx="196.5" cy="359.8" r="28.6"/>
			<path class="st1" d="M227,360.1c0,0,10.3,4.7,7.5,13.3c-9.4,28.3,6.6,28.2,6.6,28.2"/>
			<path class="st1" d="M56.6,385.9c5.7-1.6-33.5,11.6-33.5,75.9"/>
			<path class="st1" d="M90.9,385.9c-5.7-1.6,33.5,11.6,33.5,75.9"/>
			<path class="st6" d="M90.7,381.9c4.9,8.6,12.4,12.1,18,35.2c2.2,9.1,2.7,17.4,0,31c-1,4.8-12.1,13.3-24.2,15.4
				c-6.4,1.1-13.9,0.4-24.4-1.1c-3.8-0.5-19.1-3.7-20.2-15c-0.8-8.6-3.8-17.7,0-31c3.2-11.3,6.7-16.5,20.7-36.7
				c13.9-20,12.9-19.7,12.9-19.7S85.7,373.1,90.7,381.9"/>
			<path class="st6" d="M49.3,399.2c2.2-4.5,5.2-8.7,7.3-13.3c1.1-2.4,2.7-5.9,5.5-6.8c0.5-0.4,1.1-0.7,1.7-0.9
				c-0.7-0.3-1.4-0.7-2.1-1c-0.8-0.4-1.5-0.9-2.3-1.4c4.6,1.2,9.1,2.3,13,5c-0.5-0.1-1.1-0.2-1.6-0.3c1,1.2,1.7,2.7,1.7,4.5
				c0,4.9-2.7,9.2-5.3,13.2c-4.4,6.7-7.5,12.4-8.5,20.4c-0.8,6.9-0.1,14.2,1.5,20.9c1.3,5.2,6.4,8.4,7.4,13.7c1,5.4-3.6,5.6-8,4.5
				c-1.1,0.3-2.3,0.1-2.9-0.8c-1.3-0.4-2.4-0.9-3.1-1.2c-8.8-4.1-11.8-11.6-12.4-20.5C40.5,422.7,43.8,410.5,49.3,399.2"/>
			<path class="st4" d="M91.8,381.9c4.9,8.6,12.4,12.1,18,35.2c2.2,9.1,2.7,17.4,0,31c-1,4.8-12.1,13.3-24.2,15.4
				c-6.4,1.1-13.9,0.4-24.4-1.1c-3.8-0.5-19.1-3.7-20.2-15c-0.8-8.6-3.8-17.7,0-31c3.2-11.3,6.7-16.5,20.7-36.7
				c14-20,12.9-19.7,12.9-19.7S86.8,373.1,91.8,381.9z"/>
			<path class="st2" d="M47.4,350c0,15.8,12.8,28.6,28.6,28.6s28.6-12.8,28.6-28.6c0-15.8-12.8-28.6-28.6-28.6
				C60.2,321.3,47.4,334.1,47.4,350"/>
			<path class="st3" d="M72.5,378.1c-2.7-0.9-5.4-1.8-8-2.9c0.1-0.1,0.3-0.1,0.4-0.2c-0.7-0.3-1.4-0.7-2.1-1
				c-8.1-4.5-17.4-14.9-12.9-24.2c4.9-10.2,14.6,3.9,17.7,7.7c3.4,4.1,8.6,6.4,13.8,6.7c1.2-0.6,2.2-0.5,3.1,0
				c5.9-0.4,11.5-3.4,14.1-9.1c1.1-2.5,4.4-1.1,4.8,1.1c2.1-1,5,1.3,3.5,3.5c-0.6,0.9-1.2,1.8-1.9,2.6c-0.5,2.4-2.2,4.4-4.1,6
				c-0.6,0.5-1.2,0.7-1.9,0.7c-0.1,0.5-0.3,1-0.8,1.4c-7.8,6-17.2,8.7-26.4,6.9C72.2,377.6,72.3,377.9,72.5,378.1"/>
			<path class="st4" d="M48.4,350c0,15.8,12.8,28.6,28.6,28.6s28.6-12.8,28.6-28.6c0-15.8-12.8-28.6-28.6-28.6
				C61.3,321.3,48.4,334.1,48.4,350z"/>
			<path class="st1" d="M90.8,325.9c0,0-24.8,2.7-33.7-15.7"/>
			<path class="st1" d="M63.1,382.5c0,0,4.3,7.5,13.3,7.5s12-7.5,12-7.5"/>
		</g>
		<g>
			<path class="st7" d="M-57.5,358.8c0,0,3.6,4.5,9.9,3.3s9.3-7.9,9.3-7.9"/>
			<path class="st8" d="M-52.7,344c0-1.9-1.5-3.4-3.4-3.4s-3.4,1.5-3.4,3.4s1.5,3.4,3.4,3.4S-52.7,345.9-52.7,344z"/>
			<circle class="st8" cx="-39.6" cy="344" r="3.4"/>
		</g>
		<circle class="st8" cx="56.3" cy="346.9" r="3.2"/>
		<circle class="st8" cx="71.9" cy="346.9" r="3.2"/>
		<circle class="st8" cx="173.2" cy="357.8" r="3.2"/>
		<circle class="st8" cx="188.6" cy="358.8" r="3.2"/>
		<path class="st9" d="M56.8,363.1c0,0,0.6,2.7,8.3,3.8c7.6,1,11.5-3.4,11.5-3.4"/>
		<path class="st9" d="M174.4,373.1c0,0,0.6,2.7,8.3,3.8c7.6,1,11.5-3.4,11.5-3.4"/>
	</g>
</g>
<path class="st10" d="M8.2,499.4c0,0-4.8,25.1-1.7,30.6c3,5.5,133.7,2.5,138.1,1.8c4.4-0.8,6.9-21.3,2.7-36.6
	c-4.2-15.3-134.1-1.2-134.1-1.2"/>
<g>
	<path class="st8" d="M32.7,522.6c-0.1,0.4-0.3,0.7-0.7,0.9c-0.3,0.2-0.6,0.3-0.9,0.3c-0.5,0-0.9-0.1-1.2-0.4
		c-0.3-0.3-0.5-0.7-0.5-1.1c0-0.1,0-0.2,0-0.3c0-0.1,0-0.2,0-0.3l6-18.2c0.2-0.5,0.4-1,0.7-1.3c0.3-0.3,0.8-0.5,1.4-0.5
		c0.6,0,1,0.2,1.3,0.5c0.3,0.3,0.5,0.8,0.7,1.3l6,18.2c0,0.1,0.1,0.2,0.1,0.3c0,0.1,0,0.2,0,0.3c0,0.5-0.2,0.8-0.5,1.1
		c-0.3,0.3-0.8,0.4-1.2,0.4c-0.6,0-1-0.2-1.2-0.5c-0.2-0.3-0.5-0.8-0.7-1.4l-1-3h-7.2L32.7,522.6z M37.5,506.6
		c-0.4,1.6-0.8,3.2-1.3,4.7c-0.5,1.5-0.9,3-1.4,4.6h5.3c-0.5-1.6-0.9-3.1-1.4-4.6C38.2,509.8,37.8,508.2,37.5,506.6z"/>
	<path class="st8" d="M66.6,522.2c0,0.4-0.2,0.8-0.5,1.1c-0.3,0.3-0.7,0.5-1.2,0.5c-0.5,0-0.9-0.2-1.2-0.5c-0.3-0.3-0.5-0.7-0.5-1.1
		v-12.8l-4.2,8.7c-0.2,0.3-0.4,0.6-0.7,0.7c-0.3,0.2-0.6,0.2-0.9,0.2c-0.3,0-0.7-0.1-0.9-0.2c-0.3-0.2-0.5-0.4-0.7-0.7l-4.2-8.7
		v12.8c0,0.4-0.2,0.8-0.5,1.1c-0.3,0.3-0.8,0.5-1.2,0.5s-0.9-0.2-1.2-0.5c-0.3-0.3-0.5-0.7-0.5-1.1v-19c0-0.5,0.2-0.9,0.5-1.2
		s0.7-0.5,1.3-0.5c0.8,0,1.4,0.3,1.7,1l5.7,11.8l5.7-11.9c0.2-0.3,0.4-0.6,0.7-0.7c0.3-0.1,0.6-0.2,1-0.2c0.5,0,0.9,0.2,1.2,0.5
		c0.3,0.3,0.5,0.7,0.5,1.2V522.2z"/>
	<path class="st8" d="M70.4,503.2c0-0.4,0.2-0.8,0.5-1.1s0.7-0.5,1.2-0.5s0.9,0.2,1.2,0.5s0.5,0.7,0.5,1.1v19c0,0.4-0.2,0.8-0.5,1.1
		s-0.7,0.5-1.2,0.5s-0.9-0.2-1.2-0.5s-0.5-0.7-0.5-1.1V503.2z"/>
	<path class="st8" d="M80.5,515.8c0,0.8,0.1,1.4,0.2,2.1c0.1,0.6,0.4,1.1,0.7,1.6s0.8,0.8,1.3,1c0.5,0.2,1.2,0.3,2,0.3
		c0.6,0,1.2-0.1,1.7-0.2c0.5-0.2,0.9-0.4,1.3-0.7v-5.7h-2.3c-0.4,0-0.8-0.2-1.1-0.5c-0.3-0.3-0.5-0.7-0.5-1.1c0-0.4,0.2-0.8,0.5-1.1
		s0.7-0.4,1.1-0.4h3.5c0.6,0,1.1,0.1,1.5,0.4s0.6,0.7,0.6,1.3v7.1c0,0.7-0.2,1.3-0.6,1.7c-0.4,0.5-0.9,0.9-1.5,1.2
		c-0.6,0.3-1.3,0.5-2.1,0.7c-0.8,0.1-1.5,0.2-2.3,0.2c-1.3,0-2.4-0.2-3.3-0.6c-0.9-0.4-1.7-0.9-2.3-1.6c-0.6-0.7-1.1-1.5-1.4-2.5
		c-0.3-1-0.4-2.1-0.4-3.3v-6.3c0-1.2,0.1-2.3,0.4-3.3c0.3-1,0.7-1.8,1.4-2.5c0.6-0.7,1.4-1.2,2.3-1.6c0.9-0.4,2-0.6,3.3-0.6
		c0.8,0,1.5,0.1,2.2,0.2c0.7,0.2,1.3,0.4,1.9,0.6c0.6,0.3,1,0.6,1.3,1c0.3,0.4,0.5,0.7,0.5,1.1c0,0.4-0.1,0.8-0.4,1
		c-0.3,0.3-0.7,0.4-1.1,0.4c-0.3,0-0.5,0-0.7-0.1c-0.2-0.1-0.3-0.2-0.6-0.4l-0.2-0.1c-0.4-0.3-0.8-0.5-1.3-0.6
		c-0.5-0.1-1-0.2-1.5-0.2c-0.8,0-1.4,0.1-2,0.3c-0.5,0.2-1,0.6-1.3,1c-0.3,0.4-0.6,1-0.7,1.6c-0.1,0.6-0.2,1.3-0.2,2.1V515.8z"/>
	<path class="st8" d="M101.3,523.8c-1.2,0-2.3-0.2-3.3-0.6c-0.9-0.4-1.7-1-2.3-1.7c-0.6-0.7-1.1-1.6-1.4-2.5c-0.3-1-0.5-2-0.5-3.1
		v-6.3c0-1.1,0.1-2.1,0.4-3c0.3-1,0.7-1.8,1.3-2.5c0.6-0.7,1.4-1.3,2.3-1.7c1-0.4,2.1-0.6,3.5-0.6s2.5,0.2,3.5,0.6
		c1,0.4,1.7,1,2.3,1.7c0.6,0.7,1,1.6,1.3,2.5c0.3,1,0.4,2,0.4,3v6.3c0,1.1-0.2,2.1-0.5,3.1c-0.3,1-0.8,1.8-1.4,2.5
		c-0.6,0.7-1.4,1.3-2.3,1.7C103.7,523.6,102.6,523.8,101.3,523.8z M101.3,504.7c-1.5,0-2.6,0.4-3.2,1.3c-0.6,0.9-0.9,2-0.9,3.5v6.3
		c0,1.4,0.3,2.6,1,3.5c0.7,0.9,1.7,1.3,3.1,1.3c1.4,0,2.5-0.4,3.1-1.3c0.7-0.9,1-2.1,1-3.5v-6.3c0-1.4-0.3-2.6-0.9-3.5
		C103.9,505.1,102.9,504.7,101.3,504.7z"/>
	<path class="st8" d="M121.1,517.4c0-0.8-0.2-1.4-0.5-1.8c-0.3-0.4-0.7-0.6-1-0.8c-0.5-0.2-1.1-0.5-1.7-0.7
		c-0.6-0.2-1.2-0.4-1.8-0.6c-0.6-0.2-1.2-0.5-1.8-0.8c-0.6-0.3-1.1-0.6-1.5-1.1c-0.4-0.4-0.8-1-1.1-1.6c-0.3-0.6-0.4-1.4-0.4-2.3
		c0-1.9,0.6-3.4,1.8-4.5s2.8-1.6,4.9-1.6c0.4,0,0.9,0,1.6,0.1c0.6,0.1,1.3,0.2,1.9,0.4c0.6,0.2,1.1,0.4,1.6,0.7
		c0.4,0.3,0.7,0.7,0.7,1.2c0,0.4-0.1,0.8-0.4,1.1c-0.3,0.3-0.7,0.5-1.2,0.5c-0.3,0-0.5,0-0.8-0.1c-0.2-0.1-0.5-0.2-0.8-0.3
		c-0.3-0.1-0.6-0.2-1-0.3c-0.4-0.1-0.8-0.1-1.3-0.1c-0.4,0-0.8,0-1.3,0.1c-0.4,0.1-0.8,0.2-1.1,0.5c-0.3,0.2-0.6,0.5-0.8,0.9
		c-0.2,0.4-0.3,0.8-0.3,1.4c0,0.4,0.1,0.8,0.2,1.1c0.1,0.3,0.2,0.5,0.4,0.7c0.2,0.2,0.3,0.4,0.5,0.5c0.2,0.1,0.3,0.2,0.5,0.3
		c0.5,0.3,1.1,0.5,1.7,0.7c0.6,0.2,1.2,0.4,1.8,0.6c0.6,0.2,1.2,0.5,1.8,0.8c0.6,0.3,1.1,0.6,1.5,1.1c0.4,0.4,0.8,1,1.1,1.6
		c0.3,0.6,0.4,1.4,0.4,2.3c0,1-0.2,2-0.5,2.8c-0.4,0.8-0.9,1.5-1.5,2.1c-0.6,0.6-1.4,1-2.3,1.3c-0.9,0.3-1.8,0.4-2.9,0.4
		c-0.5,0-1.2,0-1.9-0.1c-0.7-0.1-1.4-0.2-2-0.4c-0.6-0.2-1.2-0.5-1.6-0.8c-0.4-0.3-0.7-0.7-0.7-1.2c0-0.4,0.1-0.8,0.4-1.1
		c0.3-0.3,0.7-0.5,1.1-0.5c0.2,0,0.5,0,0.8,0.2c0.3,0.1,0.6,0.2,1,0.4c0.4,0.1,0.8,0.3,1.2,0.4s1,0.2,1.6,0.2c1.2,0,2.1-0.3,2.7-0.8
		C120.8,519.2,121.1,518.5,121.1,517.4z"/>
</g>
</svg>
