<?xml version="1.0" encoding="utf-8"?>
<!-- Generator: Adobe Illustrator 19.0.0, SVG Export Plug-In . SVG Version: 6.00 Build 0)  -->
<svg version="1.1" id="Capa_1" xmlns="http://www.w3.org/2000/svg" xmlns:xlink="http://www.w3.org/1999/xlink" x="0px" y="0px"
	 viewBox="-31 -500.5 118.2 50.2" style="enable-background:new -31 -500.5 118.2 50.2;" xml:space="preserve">
<style type="text/css">
	.st0{fill:#DAD4EA;}
	.st1{fill:none;stroke:#004966;stroke-linecap:round;stroke-linejoin:round;stroke-miterlimit:10;}
</style>
<path class="st0" d="M69.9-494.3c0,0,0,10-7.3,8s-4.6,5-4.6,5s1.7,3.7,1.3,8c0,0-3.3,8.1,7.2,1.2c0,0-1.3-1.3,3.8-7.9
	s10.7-12.2,7.3-17.9C77.6-498,68.6-499,69.9-494.3z"/>
<path class="st0" d="M76.7-465.6c0,0,5.9,7.3-10.7,5.6c-16.7-1.7-22.7-9.5-28-5.6s-8,5.9-12.3,7.3s-12.7-4.2-12.7-4.2
	s-4.4-3.8-11.6,2.2s-13.3,2.2-13.3,2.2s-12.2-6.8-15.1,5.8c0,0,18.8-3.2,65.1-2.4c46.3,0.7,45-2,45-2S90.5-457.9,76.7-465.6z"/>
<path class="st1" d="M-27.2-491.2c21.7-7.5,104.8-6.8,104.8-6.8s5,5-8.6,19.3c0,0-6.6,6.1,0.6,9.6s17.3,8.4,15.2,11.4
	c-3.6,5.4-112.6,1.1-112.1,5.4V-491.2z"/>
</svg>
