<?xml version="1.0" encoding="utf-8"?>
<!-- Generator: Adobe Illustrator 19.0.0, SVG Export Plug-In . SVG Version: 6.00 Build 0)  -->
<svg version="1.1" id="Capa_1" xmlns="http://www.w3.org/2000/svg" xmlns:xlink="http://www.w3.org/1999/xlink" x="0px" y="0px"
	 viewBox="-236 347.3 138 98.7" style="enable-background:new -236 347.3 138 98.7;" xml:space="preserve">
<style type="text/css">
	.st0{opacity:0.5;fill:#004966;enable-background:new    ;}
	.st1{fill:#C7C5D0;}
	.st2{fill:none;stroke:#004966;stroke-width:1.3717;stroke-linecap:round;stroke-miterlimit:10;}
	.st3{fill:#89A869;}
	.st4{opacity:0.5;fill:#89A869;enable-background:new    ;}
	.st5{fill:none;stroke:#004966;stroke-width:1.3717;stroke-miterlimit:10;}
	.st6{fill:#FFFFFF;}
	.st7{fill:#DFDEE4;}
	.st8{fill:#89A869;stroke:#004966;stroke-width:0.5;stroke-linecap:round;stroke-miterlimit:10;}
	.st9{fill:none;stroke:#004966;stroke-width:0.5;stroke-linecap:round;stroke-miterlimit:10;}
	.st10{fill:none;stroke:#004966;stroke-width:0.5;stroke-miterlimit:10;}
	.st11{fill:none;stroke:#004966;stroke-width:0.616;stroke-linecap:round;stroke-miterlimit:10;}
	.st12{fill:#0098C8;}
	.st13{fill:#004966;}
	.st14{fill:#FFFFFF;stroke:#004966;stroke-width:0.75;stroke-linecap:round;stroke-miterlimit:10;}
</style>
<g>
	<path class="st0" d="M-119.7,415v-0.1c0,0.1,0.1,0.1,0.1,0.1h0.1l0,0l0,0c0.2,0,0.3-0.1,0.3-0.3c0-0.1,0-0.2,0.1-0.3
		c0.4-2.1,0.8-4.4,1.4-6.6c0-0.1,0-0.2,0-0.3c0-0.1-0.1-0.1-0.2-0.1c-1.2-0.2-2.4-0.6-3.6-0.9c-0.2-0.1-0.4-0.1-0.6-0.2
		c0.1-1.5,0.2-3.7,0.3-5.1c0.2-3,0.5-5.8,0.8-8.6c0-0.1,0-0.2-0.1-0.2c-0.1-0.1-0.1-0.1-0.2-0.1c-2-0.2-4-0.5-6.2-0.9h-0.1h-0.1l0,0
		h-0.1c-0.1,0.1-0.1,0.1-0.1,0.2c0,0.2,0,0.4,0,0.6c0,0.4,0,0.7,0,1.1c-0.9-0.1-1.8-0.2-2.7-0.3c-1.3-0.2-2.7-0.3-4-0.3
		c-0.1,0-0.2,0-0.2,0.1c-0.1,0.1-0.1,0.1-0.1,0.2c0,0.4,0,0.7,0,1.1c0,3.2-0.1,6.6-0.2,10.5c-0.6,0-1.2,0-1.9,0c-0.5,0-0.9,0-1.4,0
		l0,0h-0.1v0.1c-0.1,0.1-0.2,0.1-0.2,0.3c0,0.2,0,0.4,0,0.6s0,0.4,0,0.6c-1.6,0.1-3.2,0.1-4.8,0.3c-0.1,0-0.2,0.1-0.2,0.1
		c-0.1,0.1-0.1,0.2-0.1,0.2c0.1,0.9,0.2,1.7,0.4,2.6c0.2,1.3,0.4,2.7,0.6,4.1c0,0.1,0,0.2,0,0.3c0,0.2,0.2,0.3,0.4,0.3
		s0.3-0.2,0.3-0.4c0-0.1,0-0.2,0-0.3c-0.1-0.8-0.2-1.6-0.3-2.4l0.6,3.1h-8.7c0.6-2.3,2.4-6.8,2.4-6.8l-4.3-1.6l0.1-22.1l-10.5-0.7
		l0.4,13.5l-5.8-0.4l0.3,7.2l-4.3,1.6l0.6-16l-10.3-1.2l5.7,20.8l-5.2,0.4c0,0-0.1,2.8-0.2,5.3h-3.3l0.3-9.2
		c1.1-0.4,0.8-2.2,0.8-2.2l-1.1-1.2H-198l-1,1.5v1.3l1.5,0.7v9.1l-11-0.1l-19.2,2.9l129.7-0.2L-119.7,415z M-119,410.9l0.5-2.8
		l-0.2-0.1c0.1,0,0.2,0.1,0.3,0.1C-118.6,409-118.8,409.9-119,410.9z M-121.6,392.9c-0.1,0.7-0.2,1.4-0.2,2.1L-121.6,392.9h-0.2
		C-121.8,392.8-121.7,392.9-121.6,392.9z M-131.7,393.5l-2.4-0.2C-133.3,393.3-132.5,393.4-131.7,393.5z M-134.5,404.7L-134.5,404.7
		c-0.1,0-0.1-0.1-0.2-0.1C-134.6,404.6-134.6,404.7-134.5,404.7z"/>
	<g>
		<ellipse class="st1" cx="-202.1" cy="439" rx="19.5" ry="4"/>
		<ellipse class="st1" cx="-167.1" cy="438.8" rx="19.5" ry="4"/>
		<path class="st2" d="M-207.8,357.3c0,0,8.6,0.9,11.8-5.5"/>
		<g>
			<path class="st2" d="M-207.8,436.9c0,0,5.2-15.2-0.7-31.6"/>
			<path class="st2" d="M-197.4,437.3c0,0,5.2-15.2-0.7-31.6"/>
			<path class="st2" d="M-196.4,378.8c-2-0.5,11.7,4,11.7,26.5"/>
			<path class="st2" d="M-208.3,378.8c2-0.5-11.7,4-11.7,26.5"/>
			<path class="st3" d="M-208.2,377.4c-1.7,3-4.3,4.2-6.3,12.3c-0.8,3.2-1,6.1,0,10.8c0.3,1.7,4.2,4.7,8.4,5.4
				c2.2,0.4,4.8,0.1,8.5-0.4c1.3-0.2,6.7-1.3,7-5.2c0.3-3,1.3-6.2,0-10.8c-1.1-3.9-2.3-5.8-7.2-12.8c-4.9-7-4.5-6.9-4.5-6.9
				S-206.5,374.4-208.2,377.4"/>
			<path class="st4" d="M-193.8,383.5c-0.8-1.6-1.8-3-2.5-4.6c-0.4-0.8-0.9-2.1-1.9-2.4c-0.2-0.1-0.4-0.3-0.6-0.3
				c0.2-0.1,0.5-0.2,0.7-0.4c0.3-0.1,0.5-0.3,0.8-0.5c-1.6,0.4-3.2,0.8-4.5,1.7c0.2,0,0.4-0.1,0.6-0.1c-0.4,0.4-0.6,0.9-0.6,1.6
				c0,1.7,0.9,3.2,1.8,4.6c1.5,2.3,2.6,4.3,3,7.1c0.3,2.4,0,5-0.5,7.3c-0.4,1.8-2.2,2.9-2.6,4.8s1.3,1.9,2.8,1.6
				c0.4,0.1,0.8,0,1-0.3c0.4-0.1,0.8-0.3,1.1-0.4c3.1-1.4,4.1-4,4.3-7.1C-190.8,391.6-191.9,387.4-193.8,383.5"/>
			<path class="st5" d="M-208.6,377.4c-1.7,3-4.3,4.2-6.3,12.3c-0.8,3.2-1,6.1,0,10.8c0.3,1.7,4.2,4.7,8.4,5.4
				c2.2,0.4,4.8,0.1,8.5-0.4c1.3-0.2,6.7-1.3,7-5.2c0.3-3,1.3-6.2,0-10.8c-1.1-3.9-2.3-5.8-7.2-12.8c-4.9-7-4.5-6.9-4.5-6.9
				S-206.9,374.4-208.6,377.4z"/>
			<path class="st6" d="M-193.1,366.3c0,5.5-4.5,10-10,10s-10-4.5-10-10s4.5-10,10-10S-193.1,360.8-193.1,366.3"/>
			<path class="st7" d="M-201.9,376.1c0.9-0.3,1.9-0.6,2.8-1c-0.1,0-0.1,0-0.1-0.1c0.2-0.1,0.5-0.2,0.7-0.4c2.8-1.6,6.1-5.2,4.5-8.4
				c-1.7-3.6-5.1,1.4-6.2,2.7c-1.2,1.4-3,2.2-4.8,2.4c-0.4-0.2-0.8-0.2-1.1,0c-2.1-0.1-4-1.2-4.9-3.2c-0.4-0.9-1.5-0.4-1.7,0.4
				c-0.7-0.4-1.7,0.5-1.2,1.2c0.2,0.3,0.4,0.6,0.7,0.9c0.2,0.8,0.8,1.5,1.4,2.1c0.2,0.2,0.4,0.2,0.7,0.2c0,0.2,0.1,0.4,0.3,0.5
				c2.7,2.1,6,3,9.2,2.4C-201.8,375.9-201.8,376-201.9,376.1"/>
			<circle class="st5" cx="-203.5" cy="366.3" r="10"/>
			<path class="st2" d="M-207.9,377.4c0,0,1.5,2.6,4.6,2.6s4.2-2.6,4.2-2.6"/>
			<path class="st8" d="M-202.4,384.6l-0.4-4.1l-6.3-4.5l-3.7,3.2c0,0,4.9,4.9,5,4.7c0.1-0.2,3.4-2.9,3.4-2.9L-202.4,384.6z"/>
			<path class="st8" d="M-202,386l0.3-5.5l3.8-4.9l1.4-0.9c0,0,2.4,3.4,2.4,3.5c0,0.2-2.3,4.2-2.3,3.9c0.1-0.3-2.8-2.4-2.8-2.4
				L-202,386z"/>
			<path class="st9" d="M-206,372.8c0.1-0.8,1.1-0.8,1.6-0.4c0.6,0.5,1.5,0.9,2.1,0.3c0.6-0.5,0.5-1.5,1.3-1.8c0.4-0.1,0.7-0.1,1,0
				c0.6,0.2,0.6,0.2,1.2,0"/>
			<circle class="st10" cx="-205.5" cy="365.5" r="1.6"/>
			<circle class="st10" cx="-199" cy="364.7" r="1.6"/>
			<path class="st9" d="M-216.5,380.4c-2.3-0.1-4.9,0.9-5,3.6c0,1,0.9,2.2,0.5,3.1c-0.5,1.2-2.2,1.1-3.1,1.6
				c-2.6,1.2-0.1,3.9-1.8,5.5c-2.1,2-3.5,3.8-1.7,6.6"/>
			<path class="st9" d="M-223.8,385.2c-1,0.6-3,0.8-4.2,1.6c-0.8,0.5-1.7,1.1-1.5,2.1c0.1,0.8,1,1.1,1.3,1.7c0.5,1.4-1.6,2-2.5,2.7
				c-1.1,0.9-2.2,2.7-1.1,4.1"/>
		</g>
		<g>
			<path class="st9" d="M-194.5,355.3c0,0,4.8,1.1,3.8,5.5"/>
			<path class="st9" d="M-192.5,353.7c0,0,4.8,1.1,3.8,5.5"/>
		</g>
		<g>
			<path class="st11" d="M-190.6,419.8c0,0,3.8,3.3,0.5,9.1"/>
			<path class="st11" d="M-187.8,418.3c0,0,3.8,3.3,0.5,9.1"/>
		</g>
		<g>
			<g>
				<path class="st2" d="M-161.8,435.4c0,0,1.5-14,0.7-31.6"/>
				<path class="st2" d="M-172.2,435.8c0,0,0.9-13.7,0.7-31.6"/>
				<path class="st2" d="M-173.2,377.4c2-0.5-10.8,6.9-20.8,1.6"/>
				<path class="st2" d="M-161.3,377.4c-2-0.5,11.7,4,11.7,26.5"/>
				<path class="st12" d="M-161.3,376c1.7,3,4.3,4.2,6.3,12.3c0.8,3.2,1,6.1,0,10.8c-0.3,1.7-4.2,4.7-8.4,5.4
					c-2.2,0.4-4.8,0.1-8.5-0.4c-1.3-0.2-6.7-1.3-7-5.2c-0.3-3-1.3-6.2,0-10.8c1.1-3.9,2.3-5.8,7.2-12.8c4.9-7,4.5-6.9,4.5-6.9
					S-163.1,372.9-161.3,376"/>
				<path class="st12" d="M-175.8,382c0.8-1.6,1.8-3,2.5-4.6c0.4-0.8,0.9-2.1,1.9-2.4c0.2-0.1,0.4-0.3,0.6-0.3
					c-0.2-0.1-0.5-0.2-0.7-0.4c-0.3-0.1-0.5-0.3-0.8-0.5c1.6,0.4,3.2,0.8,4.5,1.7c-0.2,0-0.4-0.1-0.6-0.1c0.4,0.4,0.6,0.9,0.6,1.6
					c0,1.7-0.9,3.2-1.8,4.6c-1.5,2.3-2.6,4.3-3,7.1c-0.3,2.4,0,5,0.5,7.3c0.4,1.8,2.2,2.9,2.6,4.8s-1.3,1.9-2.8,1.6
					c-0.4,0.1-0.8,0-1-0.3c-0.4-0.2-0.8-0.3-1.1-0.4c-3.1-1.4-4.1-4-4.3-7.1C-178.8,390.2-177.7,385.9-175.8,382"/>
				<path class="st5" d="M-160.9,376c1.7,3,4.3,4.2,6.3,12.3c0.8,3.2,1,6.1,0,10.8c-0.3,1.7-4.2,4.7-8.4,5.4
					c-2.2,0.4-4.8,0.1-8.5-0.4c-1.3-0.2-6.7-1.3-7-5.2c-0.3-3-1.3-6.2,0-10.8c1.1-3.9,2.3-5.8,7.2-12.8c4.9-7,4.5-6.9,4.5-6.9
					S-162.7,372.9-160.9,376z"/>
				<path class="st6" d="M-176.4,364.8c0,5.5,4.5,10,10,10s10-4.5,10-10s-4.5-10-10-10C-172,354.8-176.4,359.3-176.4,364.8"/>
				<path class="st7" d="M-167.7,374.6c-0.9-0.3-1.9-0.6-2.8-1c0.1,0,0.1,0,0.1-0.1c-0.2-0.1-0.5-0.2-0.7-0.4
					c-2.8-1.6-6.1-5.2-4.5-8.4c1.7-3.6,5.1,1.4,6.2,2.7c1.2,1.4,3,2.2,4.8,2.4c0.4-0.2,0.8-0.2,1.1,0c2.1-0.1,4-1.2,4.9-3.2
					c0.4-0.9,1.5-0.4,1.7,0.4c0.7-0.4,1.7,0.5,1.2,1.2c-0.2,0.3-0.4,0.6-0.7,0.9c-0.2,0.8-0.8,1.5-1.4,2.1c-0.2,0.2-0.4,0.2-0.7,0.2
					c0,0.2-0.1,0.4-0.3,0.5c-2.7,2.1-6,3-9.2,2.4C-167.8,374.5-167.7,374.6-167.7,374.6"/>
				<circle class="st5" cx="-166.1" cy="364.8" r="10"/>
				<path class="st2" d="M-161.8,355.8c0,0-8.6,0.9-11.8-5.5"/>
				<path class="st2" d="M-161.7,375.9c0,0-1.5,2.6-4.6,2.6c-3.2,0-4.2-2.6-4.2-2.6"/>
			</g>
			<line class="st11" x1="-169.9" y1="369.8" x2="-165.4" y2="369.5"/>
			<circle class="st13" cx="-171.4" cy="364" r="1.3"/>
			<circle class="st13" cx="-165.9" cy="364" r="1.3"/>
		</g>
	</g>
</g>
<path class="st14" d="M-152.9,362.9c0,0-1.8,9.3-0.6,11.3c1.1,2,49.5,0.9,51.2,0.7c1.6-0.3,2.6-7.9,1-13.6
	c-1.6-5.7-49.7-0.4-49.7-0.4"/>
<g>
	<path class="st13" d="M-142.2,369.9c0,0.1-0.1,0.2-0.1,0.2c-0.1,0-0.1,0.1-0.2,0.1c-0.1,0-0.2,0-0.3-0.1c-0.1-0.1-0.1-0.2-0.1-0.3
		c0,0,0,0,0-0.1c0,0,0-0.1,0-0.1l1.8-5.6c0-0.1,0.1-0.3,0.2-0.3c0.1-0.1,0.2-0.1,0.3-0.1c0.1,0,0.2,0,0.3,0.1
		c0.1,0.1,0.1,0.2,0.2,0.3l1.8,5.6c0,0,0,0,0,0.1c0,0,0,0.1,0,0.1c0,0.1,0,0.2-0.1,0.3c-0.1,0.1-0.2,0.1-0.3,0.1
		c-0.1,0-0.1,0-0.2-0.1s-0.1-0.1-0.1-0.2l-0.4-1.3h-2.3L-142.2,369.9z M-141.6,367.9h1.9l-0.9-3.1L-141.6,367.9z"/>
	<path class="st13" d="M-136.8,369.8c0,0.1,0,0.2-0.1,0.2c-0.1,0.1-0.1,0.1-0.3,0.1s-0.2,0-0.3-0.1c-0.1-0.1-0.1-0.1-0.1-0.2v-3.1
		c0-0.1,0-0.2,0-0.3s0-0.1,0-0.2s0-0.1-0.1-0.1c0,0,0,0-0.1-0.1c0,0,0,0,0-0.1c0,0,0-0.1,0-0.1c0-0.1,0-0.2,0.1-0.2s0.1-0.1,0.2-0.1
		c0.1,0,0.2,0,0.2,0.1c0.1,0,0.1,0.1,0.2,0.2c0.2-0.1,0.4-0.2,0.6-0.3c0.2-0.1,0.4-0.1,0.7-0.1c0.5,0,0.8,0.2,1.1,0.5
		c0.2,0.3,0.4,0.7,0.4,1.2v2.6c0,0.1,0,0.2-0.1,0.2c-0.1,0.1-0.1,0.1-0.3,0.1s-0.2,0-0.3-0.1c-0.1-0.1-0.1-0.1-0.1-0.2v-2.6
		c0-0.3-0.1-0.6-0.2-0.8c-0.1-0.2-0.3-0.3-0.6-0.3c-0.2,0-0.3,0-0.5,0.1s-0.3,0.2-0.5,0.3c0,0.1,0,0.2,0,0.3V369.8z"/>
	<path class="st13" d="M-133.2,366.7c0-0.4,0.1-0.7,0.4-0.9c0.2-0.2,0.6-0.4,1.1-0.4c0.1,0,0.2,0,0.4,0s0.3,0,0.4,0.1
		c0.1,0,0.2,0.1,0.3,0.2s0.1,0.1,0.1,0.2c0,0.1,0,0.2-0.1,0.2s-0.1,0.1-0.2,0.1c0,0-0.1,0-0.2,0c-0.1,0-0.2-0.1-0.3-0.1
		c-0.1,0-0.2,0-0.4,0c-0.5,0-0.8,0.2-0.8,0.6c0,0.1,0,0.2,0.1,0.3c0.1,0.1,0.2,0.2,0.3,0.2c0.2,0.1,0.3,0.1,0.5,0.2
		c0.2,0.1,0.4,0.1,0.5,0.2c0.2,0.1,0.3,0.2,0.4,0.4c0.1,0.2,0.2,0.4,0.2,0.7c0,0.4-0.1,0.7-0.4,1c-0.3,0.2-0.6,0.4-1.1,0.4
		c-0.1,0-0.2,0-0.4,0c-0.2,0-0.3,0-0.4-0.1c-0.1,0-0.3-0.1-0.3-0.2c-0.1-0.1-0.1-0.2-0.1-0.3c0-0.1,0-0.2,0.1-0.2
		c0.1-0.1,0.1-0.1,0.2-0.1c0,0,0,0,0.1,0s0,0,0,0c0.1,0,0.3,0.1,0.4,0.1c0.1,0,0.3,0.1,0.5,0.1c0.3,0,0.5-0.1,0.6-0.2
		c0.2-0.1,0.2-0.3,0.2-0.5c0-0.2,0-0.3-0.1-0.4c-0.1-0.1-0.1-0.1-0.2-0.2c-0.1-0.1-0.3-0.1-0.5-0.2s-0.4-0.1-0.6-0.2
		s-0.3-0.2-0.5-0.4S-133.2,367-133.2,366.7z"/>
	<path class="st13" d="M-128.6,364c0,0.1,0,0.2-0.1,0.3s-0.2,0.1-0.3,0.1s-0.2,0-0.3-0.1s-0.1-0.2-0.1-0.3c0-0.1,0-0.2,0.1-0.3
		s0.2-0.1,0.3-0.1s0.2,0,0.3,0.1S-128.6,363.9-128.6,364z M-128.7,369.8c0,0.1,0,0.2-0.1,0.3c-0.1,0.1-0.1,0.1-0.3,0.1
		c-0.1,0-0.2,0-0.3-0.1c-0.1-0.1-0.1-0.1-0.1-0.3v-4c0-0.1,0-0.2,0.1-0.2c0.1-0.1,0.2-0.1,0.3-0.1c0.1,0,0.2,0,0.3,0.1
		c0.1,0.1,0.1,0.2,0.1,0.2V369.8z"/>
	<path class="st13" d="M-125.9,369.5c0.2,0,0.4,0,0.5-0.1c0.1,0,0.3-0.1,0.4-0.2c0,0,0,0,0,0c0,0,0,0,0.1,0c0.1,0,0.2,0,0.2,0.1
		s0.1,0.1,0.1,0.2c0,0.1-0.1,0.2-0.2,0.3c-0.1,0.1-0.2,0.1-0.4,0.2c-0.2,0-0.3,0.1-0.5,0.1c-0.2,0-0.3,0-0.4,0c-0.3,0-0.5,0-0.7-0.1
		c-0.2-0.1-0.4-0.2-0.5-0.3c-0.1-0.1-0.2-0.3-0.3-0.5c-0.1-0.2-0.1-0.4-0.1-0.6v-1.7c0-0.2,0-0.4,0.1-0.6c0.1-0.2,0.2-0.3,0.3-0.5
		c0.1-0.1,0.3-0.2,0.5-0.3c0.2-0.1,0.4-0.1,0.7-0.1c0.5,0,0.9,0.1,1.1,0.4s0.4,0.6,0.4,1.1c0,0.4-0.1,0.7-0.4,1
		c-0.2,0.2-0.6,0.4-1.2,0.4c-0.1,0-0.3,0-0.4,0c-0.2,0-0.3,0-0.5-0.1v0.5c0,0.3,0.1,0.5,0.2,0.6S-126.2,369.5-125.9,369.5z
		 M-125.1,366.9c0-0.3-0.1-0.5-0.2-0.6c-0.1-0.1-0.3-0.2-0.6-0.2c-0.3,0-0.5,0.1-0.7,0.2c-0.2,0.1-0.2,0.3-0.2,0.6v0.7
		c0.2,0,0.3,0,0.5,0c0.2,0,0.3,0,0.4,0c0.2,0,0.3,0,0.4-0.1c0.1,0,0.2-0.1,0.2-0.2s0.1-0.1,0.1-0.2
		C-125.1,367.1-125.1,367-125.1,366.9z"/>
	<path class="st13" d="M-122.1,365.4c0.1,0,0.3,0,0.5,0c0.2,0,0.3,0.1,0.5,0.1v-1.8c0-0.1,0-0.2,0.1-0.2c0.1-0.1,0.1-0.1,0.3-0.1
		s0.2,0,0.3,0.1c0.1,0.1,0.1,0.1,0.1,0.2v5.2c0,0.1,0,0.2,0,0.3s0.1,0.2,0.2,0.2c0,0,0,0.1,0,0.1c0,0,0,0.1,0,0.1
		c0,0.1,0,0.2-0.1,0.2c-0.1,0.1-0.1,0.1-0.2,0.1c-0.1,0-0.2,0-0.3-0.1c-0.1-0.1-0.1-0.1-0.2-0.2c-0.2,0.1-0.4,0.2-0.6,0.3
		s-0.4,0.1-0.7,0.1c-0.5,0-0.8-0.2-1.1-0.5c-0.2-0.3-0.4-0.7-0.4-1.2v-1.1c0-0.3,0-0.5,0.1-0.7c0-0.2,0.1-0.4,0.2-0.6
		c0.1-0.2,0.3-0.3,0.5-0.4C-122.7,365.5-122.4,365.4-122.1,365.4z M-121.1,366.2c-0.2-0.1-0.3-0.1-0.5-0.1c-0.2,0-0.3,0-0.4,0
		c-0.3,0-0.6,0.1-0.7,0.3s-0.2,0.5-0.2,0.9v1.1c0,0.7,0.3,1.1,0.9,1.1c0.1,0,0.3,0,0.5-0.1s0.3-0.1,0.5-0.2c0,0,0-0.1,0-0.1
		c0,0,0-0.1,0-0.1V366.2z"/>
	<path class="st13" d="M-116.9,367c0-0.6-0.3-1-1-1c-0.2,0-0.3,0-0.4,0.1c-0.1,0-0.2,0.1-0.3,0.1c0,0,0,0-0.1,0s-0.1,0-0.1,0
		c-0.1,0-0.1,0-0.2-0.1c0-0.1-0.1-0.1-0.1-0.2c0-0.1,0-0.2,0.1-0.3c0.1-0.1,0.2-0.1,0.3-0.2c0.1,0,0.3-0.1,0.4-0.1
		c0.2,0,0.3,0,0.5,0c0.6,0,1,0.2,1.2,0.5s0.4,0.8,0.4,1.4v2c0,0.2,0.1,0.3,0.2,0.3c0,0,0,0,0,0c0,0,0,0,0,0c0.1,0,0.1,0,0.2,0.1
		s0.1,0.1,0.1,0.2c0,0.1,0,0.2-0.1,0.2s-0.2,0.1-0.3,0.1c-0.2,0-0.3,0-0.4-0.1c-0.1-0.1-0.2-0.2-0.3-0.3c-0.3,0.3-0.8,0.5-1.2,0.5
		c-0.5,0-0.8-0.1-1-0.4c-0.2-0.2-0.3-0.6-0.3-1v0c0-0.9,0.5-1.3,1.6-1.3c0.3,0,0.6,0,0.9,0.1V367z M-117.8,368c-0.2,0-0.3,0-0.5,0.1
		c-0.1,0-0.2,0.1-0.3,0.2c-0.1,0.1-0.1,0.1-0.1,0.2c0,0.1,0,0.2,0,0.3v0c0,0.2,0.1,0.4,0.2,0.5c0.1,0.1,0.3,0.2,0.6,0.2
		c0.2,0,0.4,0,0.5-0.1s0.3-0.2,0.5-0.3v-1c-0.2,0-0.3-0.1-0.5-0.1S-117.7,368-117.8,368z"/>
	<path class="st13" d="M-113.6,365.4c0.1,0,0.3,0,0.5,0c0.2,0,0.3,0.1,0.5,0.1v-1.8c0-0.1,0-0.2,0.1-0.2c0.1-0.1,0.1-0.1,0.3-0.1
		s0.2,0,0.3,0.1c0.1,0.1,0.1,0.1,0.1,0.2v5.2c0,0.1,0,0.2,0,0.3s0.1,0.2,0.2,0.2c0,0,0,0.1,0,0.1c0,0,0,0.1,0,0.1
		c0,0.1,0,0.2-0.1,0.2c-0.1,0.1-0.1,0.1-0.2,0.1c-0.1,0-0.2,0-0.3-0.1c-0.1-0.1-0.1-0.1-0.2-0.2c-0.2,0.1-0.4,0.2-0.6,0.3
		s-0.4,0.1-0.7,0.1c-0.5,0-0.8-0.2-1.1-0.5c-0.2-0.3-0.4-0.7-0.4-1.2v-1.1c0-0.3,0-0.5,0.1-0.7c0-0.2,0.1-0.4,0.2-0.6
		c0.1-0.2,0.3-0.3,0.5-0.4C-114.1,365.5-113.8,365.4-113.6,365.4z M-112.6,366.2c-0.2-0.1-0.3-0.1-0.5-0.1c-0.2,0-0.3,0-0.4,0
		c-0.3,0-0.6,0.1-0.7,0.3s-0.2,0.5-0.2,0.9v1.1c0,0.7,0.3,1.1,0.9,1.1c0.1,0,0.3,0,0.5-0.1s0.3-0.1,0.5-0.2c0,0,0-0.1,0-0.1
		c0,0,0-0.1,0-0.1V366.2z"/>
</g>
</svg>
