<?xml version="1.0" encoding="utf-8"?>
<!-- Generator: Adobe Illustrator 19.0.0, SVG Export Plug-In . SVG Version: 6.00 Build 0)  -->
<svg version="1.1" id="Capa_1" xmlns="http://www.w3.org/2000/svg" xmlns:xlink="http://www.w3.org/1999/xlink" x="0px" y="0px"
	 viewBox="0 0 335 334.8" style="enable-background:new 0 0 335 334.8;" xml:space="preserve">
<style type="text/css">
	.st0{fill:#87D329;}
	.st1{fill:#3A5E67;}
</style>
<g>
	<path class="st0" d="M299.1,79.1l13.6,4.7c-2.7-4.7-5.6-9.2-8.7-13.6l-12.8-2C293.9,71.7,296.6,75.3,299.1,79.1z"/>
	<path class="st0" d="M281.1,56.9l14.2,2.2c-3.5-4.1-7.2-8.1-11-11.8l-12.9,0.3C274.7,50.6,278,53.7,281.1,56.9z"/>
	<path class="st0" d="M28.8,244.1l-13.2-6c2.3,4.9,4.8,9.6,7.5,14.2l12.6,3.2C33.2,251.8,30.9,248,28.8,244.1z"/>
	<path class="st0" d="M10.7,190.4L0.5,180.1c0.4,5.4,1.1,10.7,2,15.9l10.7,7.4C12.1,199.2,11.3,194.8,10.7,190.4z"/>
	<path class="st0" d="M259.5,38.4l14.4-0.3c-4.2-3.4-8.5-6.6-13-9.7L248.2,31C252.1,33.3,255.9,35.8,259.5,38.4z"/>
	<path class="st0" d="M17.3,218l-11.9-8.3c1.4,5.2,2.9,10.3,4.8,15.3l11.9,5.4C20.3,226.4,18.7,222.3,17.3,218z"/>
	<path class="st0" d="M313.5,104.4l12.5,7.1c-1.8-5.1-3.9-10.1-6.2-14.9l-12.2-4.2C309.8,96.3,311.7,100.3,313.5,104.4z"/>
	<path class="st0" d="M87.7,304.4L73.3,306c4.4,3,8.9,5.8,13.6,8.3l12.5-3.7C95.4,308.7,91.5,306.6,87.7,304.4z"/>
	<path class="st0" d="M321.8,131.1l11,9.2c-0.9-5.3-2-10.6-3.4-15.8l-11.3-6.4C319.5,122.4,320.8,126.7,321.8,131.1z"/>
	<path class="st0" d="M325.8,159.2l9.2,11c0-0.9,0-1.8,0-2.8c0-4.5-0.2-8.9-0.5-13.3l-10-8.3C325.1,150.2,325.5,154.7,325.8,159.2z"
		/>
	<path class="st0" d="M64.6,287.9l-14.4-1c3.8,3.7,7.8,7.3,11.9,10.6l12.9-1.4C71.4,293.5,67.9,290.8,64.6,287.9z"/>
	<path class="st0" d="M123.4,15.1l8.7-11.5c-5.3,1.1-10.5,2.5-15.6,4.2l-5.9,11.6C114.8,17.8,119.1,16.4,123.4,15.1z"/>
	<path class="st0" d="M96.8,25.5l6.5-12.9c-4.6,1.9-9.1,4-13.5,6.3L86,31.4C89.5,29.3,93.1,27.4,96.8,25.5z"/>
	<path class="st0" d="M52.1,58.8l1.7-14.4C49.8,48.1,46,51.9,42.5,56l0.8,13C46.1,65.4,49,62.1,52.1,58.8z"/>
	<path class="st0" d="M73.4,39.8L77.7,26c-4.6,2.9-9,6-13.2,9.3L63,48.3C66.3,45.3,69.8,42.5,73.4,39.8z"/>
	<path class="st0" d="M167.5,8.9c4.2,0,8.4,0.2,12.5,0.5l12.2-7.7c-5.3-0.8-10.7-1.3-16.1-1.6l-9.6,8.8
		C166.8,8.9,167.2,8.9,167.5,8.9z"/>
	<path class="st0" d="M151.4,9.7L162,0c-5.4,0.2-10.8,0.6-16.1,1.3l-7.8,10.4C142.5,10.8,146.9,10.2,151.4,9.7z"/>
	<path class="st0" d="M9,167.4c0-1.8,0-3.6,0.1-5.4l-8.2-12C0.3,155.3,0,160.7,0,166.1l9.2,9.2C9.1,172.7,9,170.1,9,167.4z"/>
	<path class="st0" d="M235,24l14.1-2.9c-4.7-2.6-9.5-5-14.5-7.2l-12,4.9C226.8,20.3,230.9,22.1,235,24z"/>
	<path class="st0" d="M12.6,133.7l-5.9-13.2c-1.5,5.1-2.7,10.3-3.7,15.7l7.4,10.7C10.9,142.4,11.7,138,12.6,133.7z"/>
	<path class="st0" d="M34.5,81.2l-0.9-14.4c-3.2,4.3-6.2,8.7-9,13.3l3.2,12.6C29.8,88.8,32,85,34.5,81.2z"/>
	<path class="st0" d="M208.2,14.2l13.4-5.4c-5.1-1.7-10.3-3.2-15.6-4.5l-11,7C199.4,12.1,203.8,13,208.2,14.2z"/>
	<path class="st0" d="M21.2,106.4l-3.5-14c-2.4,4.8-4.6,9.7-6.5,14.7l5.4,11.9C17.9,114.7,19.4,110.5,21.2,106.4z"/>
	<path class="st0" d="M44.7,267.6l-14.1-3.6c3.1,4.4,6.4,8.6,9.9,12.6l13,0.9C50.5,274.4,47.5,271.1,44.7,267.6z"/>
	<path class="st0" d="M272.8,285.9l-2.9,14.1c4.2-3.3,8.3-6.7,12.2-10.4l0.3-13C279.3,279.9,276.1,282.9,272.8,285.9z"/>
	<path class="st0" d="M250,302.8l-5.4,13.4c4.8-2.5,9.4-5.2,13.8-8.1l2.6-12.7C257.4,298,253.7,300.5,250,302.8z"/>
	<path class="st0" d="M113.4,316.4l-13.8,4.1c4.8,2.2,9.8,4.1,14.9,5.8l11.6-5.9C121.7,319.2,117.5,317.9,113.4,316.4z"/>
	<path class="st0" d="M307.6,241.5l2.2,14.2c2.8-4.5,5.4-9.2,7.8-14l-4.3-12.2C311.6,233.6,309.7,237.6,307.6,241.5z"/>
	<path class="st0" d="M224.5,315.3l-7.7,12.2c5.1-1.6,10.1-3.4,15-5.4l4.8-12.1C232.7,312,228.7,313.7,224.5,315.3z"/>
	<path class="st0" d="M324.7,187.6l7.1,12.5c1-5.2,1.8-10.5,2.4-15.9l-8.3-9.9C325.6,178.7,325.3,183.2,324.7,187.6z"/>
	<path class="st0" d="M318.6,215.3l4.7,13.6c2-5,3.7-10,5.2-15.2l-6.4-11.3C321.1,206.8,319.9,211.1,318.6,215.3z"/>
	<path class="st0" d="M292.2,265.3l-0.3,14.4c3.6-4,7-8.1,10.2-12.4l-2-12.8C297.5,258.2,294.9,261.8,292.2,265.3z"/>
	<path class="st0" d="M140.8,323.7l-12.9,6.5c5.1,1.2,10.4,2.3,15.7,3l10.4-7.9C149.5,325,145.1,324.4,140.8,323.7z"/>
	<path class="st0" d="M197.3,323.1l-9.7,10.6c5.3-0.6,10.6-1.5,15.7-2.6l6.9-11C205.9,321.3,201.6,322.3,197.3,323.1z"/>
	<path class="st0" d="M169.1,325.9l-11.5,8.7c3.3,0.2,6.6,0.3,9.9,0.3c2,0,4.1,0,6.1-0.1l8.8-9.6C178,325.6,173.6,325.8,169.1,325.9
		z"/>
</g>
<g id="XMLID_119_">
	<polygon id="XMLID_154_" class="st1" points="614.1,94.3 603.8,74.1 596.1,71.3 606.2,91.3 	"/>
	<polygon id="XMLID_153_" class="st1" points="600,87.3 586.3,69.2 578.2,67.9 591.8,85.8 	"/>
	<polygon id="XMLID_152_" class="st1" points="584.9,82.9 568.2,67.6 560,67.7 576.5,82.9 	"/>
	<polygon id="XMLID_151_" class="st1" points="569.3,81.3 550.1,69.2 542.1,70.7 561,82.7 	"/>
	<polygon id="XMLID_150_" class="st1" points="553.6,82.5 532.6,74 525,77 545.8,85.4 	"/>
	<polygon id="XMLID_149_" class="st1" points="538.4,86.4 516.2,81.8 509.2,86.1 531.2,90.7 	"/>
	<polygon id="XMLID_148_" class="st1" points="524.2,93 501.5,92.5 495.4,98 517.8,98.6 	"/>
	<polygon id="XMLID_147_" class="st1" points="511.4,102.1 488.9,105.6 483.9,112.1 506.1,108.7 	"/>
	<polygon id="XMLID_146_" class="st1" points="500.3,113.3 478.9,120.8 475.1,128.1 496.3,120.7 	"/>
	<polygon id="XMLID_145_" class="st1" points="491.5,126.3 471.8,137.5 469.4,145.3 488.9,134.3 	"/>
	<polygon id="XMLID_144_" class="st1" points="485.2,140.7 467.7,155.2 466.8,163.4 484,149 	"/>
	<polygon id="XMLID_143_" class="st1" points="481.5,156 466.9,173.4 467.4,181.5 481.8,164.4 	"/>
	<polygon id="XMLID_142_" class="st1" points="480.6,171.6 469.4,191.4 471.3,199.3 482.4,179.8 	"/>
	<polygon id="XMLID_141_" class="st1" points="482.5,187.2 475,208.7 478.3,216.1 485.8,195 	"/>
	<polygon id="XMLID_140_" class="st1" points="487.1,202.2 483.6,224.6 488.2,231.4 491.8,209.3 	"/>
	<polygon id="XMLID_139_" class="st1" points="494.4,216.2 495,238.8 500.7,244.7 500.2,222.2 	"/>
	<polygon id="XMLID_138_" class="st1" points="504.1,228.6 508.7,250.8 515.4,255.5 510.9,233.5 	"/>
	<polygon id="XMLID_137_" class="st1" points="515.8,239 524.3,260.1 531.7,263.5 523.4,242.7 	"/>
	<polygon id="XMLID_136_" class="st1" points="529.2,247.2 541.3,266.4 549.2,268.5 537.3,249.5 	"/>
	<polygon id="XMLID_135_" class="st1" points="543.8,252.9 559.2,269.6 567.3,270.2 552.2,253.7 	"/>
	<polygon id="XMLID_134_" class="st1" points="559.3,255.9 577.3,269.6 585.5,268.7 567.6,255.2 	"/>
	<polygon id="XMLID_133_" class="st1" points="575,256.1 595.2,266.3 603.1,264 583.1,253.8 	"/>
	<polygon id="XMLID_132_" class="st1" points="590.5,253.4 612.2,259.9 619.5,256.2 598,249.8 	"/>
	<polygon id="XMLID_131_" class="st1" points="605.2,248.1 627.8,250.5 634.3,245.6 612,243.1 	"/>
	<polygon id="XMLID_130_" class="st1" points="618.8,240.1 641.4,238.5 647,232.5 624.6,234.1 	"/>
	<polygon id="XMLID_129_" class="st1" points="630.7,229.9 652.7,224.3 657.1,217.4 635.4,222.9 	"/>
	<polygon id="XMLID_128_" class="st1" points="640.6,217.7 661.3,208.3 664.4,200.7 643.9,210 	"/>
	<polygon id="XMLID_127_" class="st1" points="648.2,204 666.8,191 668.5,183 650.1,195.8 	"/>
	<polygon id="XMLID_126_" class="st1" points="653.2,189.1 669.2,173 669.4,164.8 653.6,180.7 	"/>
	<polygon id="XMLID_125_" class="st1" points="655.5,173.5 668.3,154.8 667.1,146.7 654.3,165.2 	"/>
	<polygon id="XMLID_124_" class="st1" points="654.9,157.8 664.2,137.1 661.5,129.4 652.3,149.8 	"/>
	<polygon id="XMLID_123_" class="st1" points="651.5,142.5 657,120.4 653,113.3 647.5,135.1 	"/>
	<polygon id="XMLID_122_" class="st1" points="645.5,128 646.9,105.3 641.7,99 640.2,121.4 	"/>
	<polygon id="XMLID_121_" class="st1" points="636.9,114.8 634.3,92.2 628,87 630.6,109.3 	"/>
	<polygon id="XMLID_120_" class="st1" points="626.2,103.3 619.5,81.6 612.4,77.6 618.9,99 	"/>
</g>
</svg>
