<?xml version="1.0" encoding="utf-8"?>
<!-- Generator: Adobe Illustrator 19.0.0, SVG Export Plug-In . SVG Version: 6.00 Build 0)  -->
<svg version="1.1" id="Capa_1" xmlns="http://www.w3.org/2000/svg" xmlns:xlink="http://www.w3.org/1999/xlink" x="0px" y="0px"
	 viewBox="0 0 202.7 202.4" style="enable-background:new 0 0 202.7 202.4;" xml:space="preserve">
<style type="text/css">
	.st0{fill:#87D329;}
	.st1{fill:#3A5E67;}
</style>
<g>
	<path class="st0" d="M-167.6,11.2l13.6,4.7c-2.7-4.7-5.6-9.2-8.7-13.6l-12.8-2C-172.8,3.9-170.2,7.5-167.6,11.2z"/>
	<path class="st0" d="M-185.6-10.9l14.2,2.2c-3.5-4.1-7.2-8.1-11-11.8l-12.9,0.3C-192-17.2-188.7-14.1-185.6-10.9z"/>
	<path class="st0" d="M-438,176.2l-13.2-6c2.3,4.9,4.8,9.6,7.5,14.2l12.6,3.2C-433.5,183.9-435.8,180.1-438,176.2z"/>
	<path class="st0" d="M-456.1,122.5l-10.2-10.3c0.4,5.4,1.1,10.7,2,15.9l10.7,7.4C-454.6,131.3-455.5,126.9-456.1,122.5z"/>
	<path class="st0" d="M-207.2-29.5l14.4-0.3c-4.2-3.4-8.5-6.6-13-9.7l-12.7,2.6C-214.6-34.6-210.9-32.1-207.2-29.5z"/>
	<path class="st0" d="M-449.5,150.2l-11.9-8.3c1.4,5.2,2.9,10.3,4.8,15.3l11.9,5.4C-446.5,158.5-448.1,154.4-449.5,150.2z"/>
	<path class="st0" d="M-153.2,36.5l12.5,7.1c-1.8-5.1-3.9-10.1-6.2-14.9l-12.2-4.2C-157,28.4-155,32.4-153.2,36.5z"/>
	<path class="st0" d="M-379.1,236.5l-14.4,1.6c4.4,3,8.9,5.8,13.6,8.3l12.5-3.7C-371.4,240.8-375.3,238.7-379.1,236.5z"/>
	<path class="st0" d="M-145,63.2l11,9.2c-0.9-5.3-2-10.6-3.4-15.8l-11.3-6.4C-147.2,54.5-146,58.8-145,63.2z"/>
	<path class="st0" d="M-141,91.3l9.2,11c0-0.9,0-1.8,0-2.8c0-4.5-0.2-8.9-0.5-13.3l-10-8.3C-141.6,82.3-141.2,86.8-141,91.3z"/>
	<path class="st0" d="M-402.2,220.1l-14.4-1c3.8,3.7,7.8,7.3,11.9,10.6l12.9-1.4C-395.3,225.7-398.8,222.9-402.2,220.1z"/>
	<path class="st0" d="M-343.3-52.7l8.7-11.5c-5.3,1.1-10.5,2.5-15.6,4.2l-5.9,11.6C-351.9-50.1-347.7-51.5-343.3-52.7z"/>
	<path class="st0" d="M-369.9-42.4l6.5-12.9c-4.6,1.9-9.1,4-13.5,6.3l-3.8,12.5C-377.2-38.5-373.6-40.5-369.9-42.4z"/>
	<path class="st0" d="M-414.7-9.1l1.7-14.4c-3.9,3.7-7.7,7.5-11.3,11.5l0.8,13C-420.7-2.4-417.8-5.8-414.7-9.1z"/>
	<path class="st0" d="M-393.3-28l4.2-13.8c-4.6,2.9-9,6-13.2,9.3l-1.5,12.9C-400.4-22.6-396.9-25.4-393.3-28z"/>
	<path class="st0" d="M-299.3-59c4.2,0,8.4,0.2,12.5,0.5l12.2-7.7c-5.3-0.8-10.7-1.3-16.1-1.6l-9.6,8.8
		C-299.9-58.9-299.6-59-299.3-59z"/>
	<path class="st0" d="M-315.3-58.2l10.6-9.7c-5.4,0.2-10.8,0.6-16.1,1.3l-7.8,10.4C-324.3-57.1-319.8-57.7-315.3-58.2z"/>
	<path class="st0" d="M-457.8,99.5c0-1.8,0-3.6,0.1-5.4l-8.2-12c-0.5,5.3-0.8,10.6-0.9,16.1l9.2,9.2
		C-457.7,104.8-457.8,102.2-457.8,99.5z"/>
	<path class="st0" d="M-231.8-43.9l14.1-2.9c-4.7-2.6-9.5-5-14.5-7.2l-12,4.9C-240-47.6-235.8-45.8-231.8-43.9z"/>
	<path class="st0" d="M-454.1,65.8l-5.9-13.2c-1.5,5.1-2.7,10.3-3.7,15.7l7.4,10.7C-455.9,74.5-455.1,70.1-454.1,65.8z"/>
	<path class="st0" d="M-432.3,13.4l-0.9-14.4c-3.2,4.3-6.2,8.7-9,13.3l3.2,12.6C-437,20.9-434.7,17.1-432.3,13.4z"/>
	<path class="st0" d="M-258.6-53.7l13.4-5.4c-5.1-1.7-10.3-3.2-15.6-4.5l-11,7C-267.3-55.8-262.9-54.8-258.6-53.7z"/>
	<path class="st0" d="M-445.6,38.6l-3.5-14c-2.4,4.8-4.6,9.7-6.5,14.7l5.4,11.9C-448.9,46.9-447.3,42.7-445.6,38.6z"/>
	<path class="st0" d="M-422,199.8l-14.1-3.6c3.1,4.4,6.4,8.6,9.9,12.6l13,0.9C-416.3,206.5-419.2,203.2-422,199.8z"/>
	<path class="st0" d="M-194,218l-2.9,14.1c4.2-3.3,8.3-6.7,12.2-10.4l0.3-13C-187.5,212-190.7,215.1-194,218z"/>
	<path class="st0" d="M-216.8,234.9l-5.4,13.4c4.8-2.5,9.4-5.2,13.8-8.1l2.6-12.7C-209.3,230.1-213,232.6-216.8,234.9z"/>
	<path class="st0" d="M-353.4,248.5l-13.8,4.1c4.8,2.2,9.8,4.1,14.9,5.8l11.6-5.9C-345,251.4-349.3,250-353.4,248.5z"/>
	<path class="st0" d="M-159.1,173.6l2.2,14.2c2.8-4.5,5.4-9.2,7.8-14l-4.3-12.2C-155.1,165.7-157,169.7-159.1,173.6z"/>
	<path class="st0" d="M-242.2,247.5l-7.7,12.2c5.1-1.6,10.1-3.4,15-5.4l4.8-12.1C-234,244.1-238.1,245.9-242.2,247.5z"/>
	<path class="st0" d="M-142,119.7l7.1,12.5c1-5.2,1.8-10.5,2.4-15.9l-8.3-9.9C-141.1,110.8-141.5,115.3-142,119.7z"/>
	<path class="st0" d="M-148.2,147.5l4.7,13.6c2-5,3.7-10,5.2-15.2l-6.4-11.3C-145.6,138.9-146.8,143.2-148.2,147.5z"/>
	<path class="st0" d="M-174.6,197.4l-0.3,14.4c3.6-4,7-8.1,10.2-12.4l-2-12.8C-169.2,190.3-171.8,193.9-174.6,197.4z"/>
	<path class="st0" d="M-325.9,255.8l-12.9,6.5c5.1,1.2,10.4,2.3,15.7,3l10.4-7.9C-317.2,257.1-321.6,256.5-325.9,255.8z"/>
	<path class="st0" d="M-269.5,255.2l-9.7,10.6c5.3-0.6,10.6-1.5,15.7-2.6l6.9-11C-260.8,253.4-265.1,254.4-269.5,255.2z"/>
	<path class="st0" d="M-297.6,258l-11.5,8.7c3.3,0.2,6.6,0.3,9.9,0.3c2,0,4.1,0,6.1-0.1l8.8-9.6C-288.8,257.7-293.2,258-297.6,258z"
		/>
</g>
<g id="XMLID_119_">
	<polygon id="XMLID_154_" class="st1" points="147.3,26.5 137.1,6.2 129.4,3.4 139.5,23.5 	"/>
	<polygon id="XMLID_153_" class="st1" points="133.3,19.4 119.6,1.4 111.5,0 125,17.9 	"/>
	<polygon id="XMLID_152_" class="st1" points="118.2,15 101.5,-0.3 93.3,-0.2 109.8,15 	"/>
	<polygon id="XMLID_151_" class="st1" points="102.6,13.4 83.4,1.3 75.3,2.9 94.3,14.9 	"/>
	<polygon id="XMLID_150_" class="st1" points="86.9,14.6 65.8,6.1 58.2,9.1 79,17.5 	"/>
	<polygon id="XMLID_149_" class="st1" points="71.7,18.6 49.5,14 42.5,18.3 64.5,22.8 	"/>
	<polygon id="XMLID_148_" class="st1" points="57.4,25.2 34.8,24.6 28.7,30.1 51.1,30.7 	"/>
	<polygon id="XMLID_147_" class="st1" points="44.6,34.2 22.2,37.8 17.2,44.2 39.3,40.8 	"/>
	<polygon id="XMLID_146_" class="st1" points="33.6,45.4 12.2,52.9 8.4,60.2 29.6,52.8 	"/>
	<polygon id="XMLID_145_" class="st1" points="24.8,58.4 5,69.6 2.6,77.5 22.1,66.4 	"/>
	<polygon id="XMLID_144_" class="st1" points="18.4,72.8 1,87.3 0,95.5 17.2,81.1 	"/>
	<polygon id="XMLID_143_" class="st1" points="14.7,88.1 0.2,105.5 0.7,113.7 15.1,96.5 	"/>
	<polygon id="XMLID_142_" class="st1" points="13.8,103.8 2.6,123.5 4.6,131.5 15.7,112 	"/>
	<polygon id="XMLID_141_" class="st1" points="15.7,119.4 8.2,140.8 11.6,148.3 19,127.1 	"/>
	<polygon id="XMLID_140_" class="st1" points="20.4,134.4 16.9,156.8 21.5,163.5 25,141.4 	"/>
	<polygon id="XMLID_139_" class="st1" points="27.7,148.3 28.2,171 34,176.8 33.5,154.4 	"/>
	<polygon id="XMLID_138_" class="st1" points="37.3,160.7 41.9,182.9 48.6,187.6 44.1,165.6 	"/>
	<polygon id="XMLID_137_" class="st1" points="49,171.2 57.5,192.2 64.9,195.6 56.6,174.8 	"/>
	<polygon id="XMLID_136_" class="st1" points="62.4,179.4 74.5,198.6 82.5,200.6 70.5,181.6 	"/>
	<polygon id="XMLID_135_" class="st1" points="77.1,185.1 92.4,201.8 100.6,202.4 85.5,185.8 	"/>
	<polygon id="XMLID_134_" class="st1" points="92.5,188 110.6,201.7 118.7,200.9 100.9,187.3 	"/>
	<polygon id="XMLID_133_" class="st1" points="108.2,188.2 128.5,198.5 136.3,196.1 116.3,186 	"/>
	<polygon id="XMLID_132_" class="st1" points="123.7,185.6 145.5,192 152.8,188.3 131.3,181.9 	"/>
	<polygon id="XMLID_131_" class="st1" points="138.5,180.2 161,182.7 167.6,177.7 145.3,175.2 	"/>
	<polygon id="XMLID_130_" class="st1" points="152,172.3 174.7,170.7 180.2,164.7 157.8,166.2 	"/>
	<polygon id="XMLID_129_" class="st1" points="164,162 186,156.4 190.3,149.5 168.6,155 	"/>
	<polygon id="XMLID_128_" class="st1" points="173.9,149.9 194.5,140.4 197.6,132.8 177.2,142.1 	"/>
	<polygon id="XMLID_127_" class="st1" points="181.5,136.1 200.1,123.1 201.7,115.1 183.3,127.9 	"/>
	<polygon id="XMLID_126_" class="st1" points="186.5,121.2 202.4,105.1 202.7,96.9 186.8,112.8 	"/>
	<polygon id="XMLID_125_" class="st1" points="188.7,105.6 201.6,86.9 200.3,78.8 187.6,97.3 	"/>
	<polygon id="XMLID_124_" class="st1" points="188.1,89.9 197.4,69.2 194.8,61.5 185.5,81.9 	"/>
	<polygon id="XMLID_123_" class="st1" points="184.8,74.6 190.2,52.6 186.2,45.4 180.8,67.2 	"/>
	<polygon id="XMLID_122_" class="st1" points="178.7,60.1 180.1,37.4 174.9,31.1 173.5,53.5 	"/>
	<polygon id="XMLID_121_" class="st1" points="170.2,46.9 167.5,24.4 161.3,19.1 163.8,41.4 	"/>
	<polygon id="XMLID_120_" class="st1" points="159.4,35.5 152.8,13.8 145.7,9.7 152.2,31.2 	"/>
</g>
</svg>
