<?xml version="1.0" encoding="utf-8"?>
<!-- Generator: Adobe Illustrator 19.0.0, SVG Export Plug-In . SVG Version: 6.00 Build 0)  -->
<svg version="1.1" id="Capa_1" xmlns="http://www.w3.org/2000/svg" xmlns:xlink="http://www.w3.org/1999/xlink" x="0px" y="0px"
	 viewBox="-209.5 358.2 72.1 125.7" style="enable-background:new -209.5 358.2 72.1 125.7;" xml:space="preserve">
<style type="text/css">
	.st0{fill:none;stroke:#004966;stroke-width:1.9764;stroke-linecap:round;stroke-miterlimit:10;}
	.st1{fill:#FFFFFF;}
	.st2{fill:#DFDEE4;}
	.st3{fill:none;stroke:#004966;stroke-width:1.9764;stroke-miterlimit:10;}
	.st4{fill:none;stroke:#004966;stroke-width:0.3955;stroke-linecap:round;stroke-miterlimit:10;}
	.st5{fill:#004966;}
	.st6{fill:#DD2D5C;stroke:#004966;stroke-width:1.9764;stroke-linecap:round;stroke-miterlimit:10;}
	.st7{opacity:0.6;fill:#9E204D;enable-background:new    ;}
</style>
<g>
	<path class="st0" d="M-205,446.8c0,0,32.1,28.5,25.5-8.7"/>
	<path class="st0" d="M-165,479.9c0,0-0.9-20.9-1-41.3"/>
	<path class="st0" d="M-163.6,403.5c-2.6-0.7,17.9,12.1,17.9-24.5"/>
	<path class="st0" d="M-179.3,403.5c2.6-0.7-7.1,17.4-15.3,34.6"/>
	<path class="st1" d="M-159.4,387.1c0,7.2-5.8,13.1-13,13.1s-13.1-5.8-13.1-13.1s5.8-13.1,13.1-13.1
		C-165.3,374-159.4,379.9-159.4,387.1"/>
	<path class="st2" d="M-170.9,399.9c1.2-0.4,2.5-0.8,3.7-1.3c-0.1,0-0.1-0.1-0.2-0.1c0.3-0.1,0.6-0.3,1-0.5c3.7-2,7.9-6.8,5.9-11
		c-2.3-4.7-6.7,1.8-8.1,3.5c-1.6,1.9-3.9,2.9-6.3,3.1c-0.5-0.3-1-0.2-1.4,0c-2.7-0.2-5.2-1.5-6.4-4.1c-0.5-1.1-2-0.5-2.2,0.5
		c-1-0.5-2.3,0.6-1.6,1.6c0.3,0.4,0.6,0.8,0.9,1.2c0.2,1.1,1,2,1.9,2.7c0.3,0.2,0.6,0.3,0.9,0.3c0,0.2,0.1,0.5,0.4,0.6
		c3.6,2.7,7.8,4,12,3.1C-170.7,399.7-170.8,399.8-170.9,399.9"/>
	<circle class="st3" cx="-173" cy="387.1" r="13.1"/>
	<path class="st0" d="M-178.7,401.5c0,0,2,3.4,6.1,3.4s5.4-3.4,5.4-3.4"/>
	<path class="st4" d="M-176.3,394.5c0,0,1.9,1.7,5,1.4c3.1-0.3,4.4-1.5,4.4-1.5"/>
	<circle class="st5" cx="-175.2" cy="386.8" r="1.7"/>
	<circle class="st5" cx="-167.1" cy="386.5" r="1.7"/>
	<path class="st6" d="M-178.2,402.4l-3.3,2.6c0,0,3.3,8.3,2.2,13.1c-1.1,4.8-5.8,18.4,0.4,21.7c6.2,3.2,13.9,1,15.7-1
		c1.9-2-3.8-16.6-3.1-20.8c0.7-4.2,2.7-13.9,0.7-15.1s-5.4,2.6-7.7,2.2C-175.5,404.8-178.2,402.4-178.2,402.4z"/>
	<path class="st6" d="M-182,430.3l-11,14.9l6.6,0.4c0,0,3.7,3,7.4,3.4s5.6-1,5.6-1s4.4,1.7,8.2,0.6c3.7-1.1,4.7-3.1,4.7-3.1l8.1-2.1
		l-11.3-13.3c0,0-5,1.4-10.7,1.4s-8.1-1.3-8.1-1.3"/>
	<path class="st7" d="M-179.7,405.2c0.4,3.7,1.6,7.1,1.6,10.8c0,3.7-0.2,6.9-1.8,10.2c-1.5,3.2-2.8,6.3-4.1,9.6
		c-0.6,1.6-1.2,3.2-2.1,4.7c-0.7,1.1-1.6,2.1-2.1,3.3c1-0.1,2.2-1,3.1-1.5c-0.1,1.4,2.3,3.1,3.5,3.6c2,0.8,5.7,1.4,7.7,0.5
		c-0.3-0.5-0.6-1.2-0.3-1.9c0.5,1.6,3.8,1.9,5.2,1.8c1.5-0.1,3.9-0.8,5-2c-4.8-0.8-9.3-2.1-11.9-6.6c-0.9-1.5-0.6-3.2-0.7-4.9
		c-0.1-0.9-0.5-1.6-0.1-2.5c3.2-0.2,6.6,0.5,9.7-0.7c-2.6-0.2-6-0.8-7.5-3.4c-1-1.7-0.6-5,0-6.7c0.8-2.5,1.3-1.9,3.5-1.9
		c1.5,0,5.3-1.4,4.9-3.5c-2.1-0.1-4.8,1.2-6.4-1.2c-1.2-1.8,0.2-3.6,0.8-5.3c-2.3,0.6-3.6-1.5-5.3-2.6c-1.2-0.7-3.5-1.9-4.3,0"/>
	<ellipse class="st5" cx="-187.5" cy="369.1" rx="6.2" ry="6.9"/>
	<path class="st5" d="M-185.8,385.5c0-6.5,5.5-11.8,12.3-11.8c1.6,0,3.1,0.3,4.5,0.8c-1.9-3.1-5-5.1-8.6-5.1
		c-5.7,0-10.4,5.2-10.4,11.6c0,2.9,1,5.6,2.6,7.7C-185.6,387.6-185.8,386.6-185.8,385.5z"/>
</g>
</svg>
