<?xml version="1.0" encoding="utf-8"?>
<!-- Generator: Adobe Illustrator 19.0.0, SVG Export Plug-In . SVG Version: 6.00 Build 0)  -->
<svg version="1.1" id="Capa_1" xmlns="http://www.w3.org/2000/svg" xmlns:xlink="http://www.w3.org/1999/xlink" x="0px" y="0px"
	 viewBox="-221.4 385.9 10.4 6.1" style="enable-background:new -221.4 385.9 10.4 6.1;" xml:space="preserve">
<style type="text/css">
	.st0{fill:#1F4D69;}
	.st1{fill:none;stroke:#1F4D69;stroke-miterlimit:10;}
</style>
<g id="Capa_1_1_">
</g>
<g id="Capa_2">
</g>
<g>
	<path class="st0" d="M-212.1,386.6h-7.4c-0.2-0.2-0.4-0.3-0.7-0.3c-0.5,0-0.8,0.4-0.8,0.9c0,0.4,0,0.8,0,1.2c0,0.7,0,1.4,0,2.1v0.3
		c0,0.3,0.1,0.5,0.3,0.7c0.2,0.1,0.4,0.2,0.6,0.2h0.1c1.3-0.2,2.7-0.3,4.1-0.3c0.3,0,0.7,0,1,0s0.7,0,1,0c0.8,0,1.3,0,1.9,0
		c0.5,0,0.8-0.4,0.8-0.9v-3.1C-211.3,387-211.7,386.6-212.1,386.6z M-212.2,390.4c-0.7,0-1.6,0-2.4,0c-1.7,0-3.4,0-5.2,0.2
		c0-0.9,0-1.8,0-2.7v-0.2h7.6L-212.2,390.4L-212.2,390.4z"/>
</g>
<path class="st1" d="M-265.1,378"/>
</svg>
