<?xml version="1.0" encoding="utf-8"?>
<!-- Generator: Adobe Illustrator 19.0.0, SVG Export Plug-In . SVG Version: 6.00 Build 0)  -->
<svg version="1.1" id="Capa_1" xmlns="http://www.w3.org/2000/svg" xmlns:xlink="http://www.w3.org/1999/xlink" x="0px" y="0px"
	 viewBox="32 232.3 1024 97.7" style="enable-background:new 32 232.3 1024 97.7;" xml:space="preserve">
<style type="text/css">
	.st0{fill:#FFFFFF;}
	.st1{fill:#0D004C;}
	.st2{fill:#87D329;}
	.st3{fill:none;stroke:#374D99;stroke-miterlimit:10;}
	.st4{fill:#00478C;}
	.st5{fill:#04A7DB;}
</style>
<rect id="XMLID_7_" x="-1.4" y="223.1" class="st0" width="1060.4" height="94.8"/>
<rect id="XMLID_1043_" x="28.9" y="306" class="st1" width="1027.8" height="24"/>
<polygon id="XMLID_1042_" class="st2" points="1059,233.3 1059,301.3 380,301.3 348.7,233.3 "/>
<g id="XMLID_964_">
	<line id="XMLID_1041_" class="st3" x1="95.3" y1="244.6" x2="95.3" y2="292.4"/>
	<path id="XMLID_1038_" class="st4" d="M140.6,244.9h2.3v2h-2.3V244.9z M140.6,247.7h2.3v8.3h-2.3V247.7z"/>
	<path id="XMLID_1037_" class="st4" d="M146.3,247.7v1l0,0c0.2-0.6,0.9-1.3,1.6-1.3c1.1,0,2.1,0.6,2.1,1.7v6.8h-2.3V250
		c0-0.4-0.2-0.7-0.6-0.7c-0.4,0-0.6,0.3-0.6,0.7v5.9h-2.3v-8.3L146.3,247.7L146.3,247.7z"/>
	<path id="XMLID_1034_" class="st4" d="M151.2,244.9h2.3v2h-2.3V244.9z M151.2,247.7h2.3v8.3h-2.3V247.7z"/>
	<path id="XMLID_1033_" class="st4" d="M158.5,250.7L158.5,250.7c0-0.4,0-0.7-0.1-1c-0.1-0.3-0.3-0.5-0.6-0.5c-0.6,0-0.7,0.5-0.7,1
		v3.4c0,0.5,0.1,1,0.8,1c0.9,0,0.7-1.3,0.7-1.9h2.3c0,0.5-0.1,1.5-0.2,2c-0.3,1-1.2,1.5-2.2,1.6c-0.2,0-0.4,0-0.8,0
		c-1.7,0-2.9-0.7-2.9-2.6v-3.4c0-2.1,1.1-2.8,2.9-2.8c2.3,0,3.2,1,3.1,3.3h-2.3V250.7z"/>
	<path id="XMLID_1030_" class="st4" d="M161.8,244.9h2.3v2h-2.3V244.9z M161.8,247.7h2.3v8.3h-2.3V247.7z"/>
	<path id="XMLID_1027_" class="st4" d="M169.1,255.2c-0.6,0.6-1.1,1-2,1c-1.3,0-2.2-0.9-2.2-2.2c0-1.9,1-2.5,2.1-2.8
		c1-0.3,2-0.4,2-1.3c0-0.5-0.3-0.9-0.7-0.9c-0.9,0-0.9,0.6-0.9,1.3h-2.3c-0.1-2.1,1.3-2.8,3.2-2.8c2.3,0,3.2,0.7,3.2,2.5v5.1
		c0,0.3,0.1,0.6,0.2,0.9h-2.3L169.1,255.2z M169.1,251.9c-0.5,0.3-0.9,0.4-1.2,0.6c-0.3,0.2-0.5,0.5-0.5,1.1c0,0.5,0.3,0.9,0.9,0.9
		c0.7,0,0.8-0.7,0.9-1.3L169.1,251.9L169.1,251.9z"/>
	<path id="XMLID_1026_" class="st4" d="M171.7,249.4v-1.7h0.9v-2.4h2.3v2.4h1.1v1.7h-1v4.4c0,0.5,0.2,0.6,0.5,0.6s0.4,0,0.6,0v1.7
		c-0.5,0.1-1,0.1-1.5,0.1c-1.3,0-2-0.6-2-1.9v-4.8L171.7,249.4L171.7,249.4z"/>
	<path id="XMLID_1023_" class="st4" d="M176.9,244.9h2.3v2h-2.3V244.9z M176.9,247.7h2.3v8.3h-2.3V247.7z"/>
	<polygon id="XMLID_1022_" class="st4" points="183,253 183,253 183.8,247.7 186.1,247.7 184.3,255.9 181.6,255.9 179.8,247.7 
		182.2,247.7 	"/>
	<path id="XMLID_1019_" class="st4" d="M190.3,255.2c-0.6,0.6-1.1,1-2,1c-1.3,0-2.2-0.9-2.2-2.2c0-1.9,1-2.5,2.1-2.8
		c1-0.3,2-0.4,2-1.3c0-0.5-0.3-0.9-0.7-0.9c-0.9,0-0.9,0.6-0.9,1.3h-2.3c-0.1-2.1,1.3-2.8,3.2-2.8c2.3,0,3.2,0.7,3.2,2.5v5.1
		c0,0.3,0.1,0.6,0.2,0.9h-2.3L190.3,255.2z M190.2,251.9c-0.5,0.3-0.9,0.4-1.2,0.6c-0.3,0.2-0.5,0.5-0.5,1.1c0,0.5,0.3,0.9,0.9,0.9
		c0.7,0,0.8-0.7,0.9-1.3L190.2,251.9L190.2,251.9z"/>
	<path id="XMLID_1016_" class="st4" d="M198.8,247.7v1l0,0c0.5-0.8,1.1-1.2,1.9-1.2c1.6,0,2,1.5,2,2.8v2.9c0,1.4-0.3,3-2.1,3.1
		c-0.4,0-1.2-0.2-1.7-1l0,0v3.6h-2.3v-11.2H198.8z M200.4,250.7c0-0.5,0-1.4-0.7-1.4c-0.6,0-0.8,0.7-0.8,1.5v1.9
		c0,0.7,0.1,1.5,0.7,1.5c0.8,0,0.7-0.9,0.7-1.4v-2.1H200.4z"/>
	<path id="XMLID_1013_" class="st4" d="M203.5,250.3c0-2.1,1.3-2.8,3.1-2.8c2.1,0,3.1,1,3.1,2.8v3.4c-0.1,1.9-1.3,2.6-3.1,2.6
		c-1.7,0-3.1-0.7-3.1-2.6V250.3z M205.9,253.8c0,0.5,0.2,0.7,0.7,0.7s0.7-0.3,0.7-0.7v-3.7c0-0.5-0.2-1-0.7-1s-0.7,0.4-0.7,1V253.8z
		"/>
	<path id="XMLID_1012_" class="st4" d="M212.7,247.7v1.3l0,0c0.3-0.9,0.8-1.5,1.8-1.5v2.7c-0.2,0-0.5-0.1-0.7-0.1
		c-0.7,0-0.9,0.1-1,0.8v5.1h-2.3v-8.3C210.5,247.7,212.7,247.7,212.7,247.7z"/>
	<rect id="XMLID_1011_" x="218.5" y="244.9" class="st4" width="2.3" height="11.1"/>
	<path id="XMLID_1008_" class="st4" d="M221.9,250.3c0-2.1,1.3-2.8,3.1-2.8c2.1,0,3.1,1,3.1,2.8v3.4c-0.1,1.9-1.3,2.6-3.1,2.6
		c-1.7,0-3.1-0.7-3.1-2.6V250.3z M224.2,253.8c0,0.5,0.2,0.7,0.7,0.7s0.7-0.3,0.7-0.7v-3.7c0-0.5-0.2-1-0.7-1s-0.7,0.4-0.7,1V253.8z
		"/>
	<path id="XMLID_1007_" class="st4" d="M232.2,250.1c-0.1-0.6,0-1.1-0.8-1.1c-0.5,0-0.8,0.2-0.8,0.7c0,0.4,0.4,0.7,0.7,0.8
		c1.5,0.7,3.2,1.1,3.2,3.1c0,1.8-1.4,2.6-3.1,2.6c-1.9,0-3.2-0.8-3.1-2.8h2.2c0,0.6,0.1,1.2,0.8,1.2c0.5,0,0.8-0.3,0.8-0.8
		c0-0.3-0.1-0.5-0.3-0.6c-0.9-0.5-2.3-0.9-3-1.7c-0.4-0.5-0.6-0.9-0.6-1.6c0-1.8,1.4-2.6,3.1-2.6c1.7,0,3.1,0.9,3,2.7h-2.1V250.1z"
		/>
	<path id="XMLID_1006_" class="st5" d="M108.6,281.6v3.8c0,1.1,0.5,1.6,1.4,1.5c1,0,1.4-0.2,1.4-1.1v-24.3h7.1v21
		c0,2.1,0.1,4.5-0.9,6.5c-1.5,2.8-4.1,3.4-7.2,3.4c-3.4,0-6.3-1.6-7.1-5c-0.4-1.4-0.3-2.7-0.3-4.1v-1.7
		C103,281.6,108.6,281.6,108.6,281.6z"/>
	<path id="XMLID_1002_" class="st5" d="M140,282c0,6.8-2.4,10.3-9.5,10.3c-7.1,0-9.6-3.5-9.6-10.3v-12.2c0-5.8,3.5-9,9.6-9
		c6.2,0,9.5,3.2,9.5,9V282z M138.7,252.6l-6.9,5.9h-5.5l4-5.9H138.7z M133,270.3c0-1.8-0.2-4.1-2.5-4.1c-2.2,0-2.5,2.2-2.5,4.1v12.4
		c0,1.7,0.3,4.3,2.6,4.3c2.3,0,2.4-2.6,2.4-4.3V270.3z"/>
	<polygon id="XMLID_1001_" class="st5" points="147.4,291.6 140.8,261.5 147.9,261.5 151.5,282.6 151.6,282.6 155.2,261.5 
		162.3,261.5 155.7,291.6 	"/>
	<polygon id="XMLID_1000_" class="st5" points="163.4,291.6 163.4,261.5 179.6,261.5 179.6,267.5 170.4,267.5 170.4,273.1 
		179.3,273.1 179.3,279.1 170.4,279.1 170.4,285.6 180,285.6 180,291.6 	"/>
	<polygon id="XMLID_999_" class="st5" points="188.3,274.8 188.2,274.9 188.8,291.6 182.1,291.6 182.1,261.5 189.4,261.5 
		194.9,278.3 195,278.3 194.3,261.5 201,261.5 201,291.6 193.8,291.6 	"/>
	<polygon id="XMLID_998_" class="st5" points="203.4,291.6 203.4,261.5 219.6,261.5 219.6,267.5 210.4,267.5 210.4,273.1 
		219.3,273.1 219.3,279.1 210.4,279.1 210.4,285.6 220,285.6 220,291.6 	"/>
	<path id="XMLID_997_" class="st5" d="M227.6,281.6v2.1c0,1.7,0.6,3.3,2.8,3.3c1.6,0,2.4-1.5,2.4-3c0-2.5-2.1-3.5-3.9-4.6
		c-2.2-1.2-4-2.4-5.3-3.9s-2-3.4-2-6c0-5.7,3.4-8.6,8.9-8.6c6.1,0,9.3,4.1,9,9.8H233c-0.1-1.8,0-4.2-2.3-4.3c-1.4-0.1-2.3,0.7-2.5,2
		c-0.2,1.8,0.7,2.7,2.1,3.7c2.7,1.7,4.9,2.7,6.6,4.3c1.6,1.5,2.6,3.5,2.6,7.2c0,5.8-3.2,9-9.1,9c-6.5,0-9.2-3.6-9.2-7.6v-3.2h6.4
		V281.6z"/>
	<path id="XMLID_965_" class="st4" d="M49.6,280.8c-0.1,0.1-0.2,0.3-0.2,0.5v7.2l0,0c0,0-4-7.1-4.1-7.4c-0.1-0.2-0.3-0.4-0.5-0.5
		s-0.4-0.2-0.8-0.2h-1.3c-0.3,0-0.5,0.1-0.6,0.3c-0.1,0.1-0.2,0.3-0.2,0.5v10.2c0,0.3,0.1,0.4,0.2,0.5c0.1,0.2,0.3,0.3,0.6,0.3h0.7
		c0.3,0,0.5-0.1,0.6-0.3c0.1-0.1,0.2-0.3,0.2-0.5V284l0,0c0,0,4.1,7.3,4.3,7.5c0.2,0.4,0.6,0.7,1.2,0.7H51c0.3,0,0.5-0.1,0.6-0.3
		c0.1-0.1,0.2-0.3,0.2-0.5v-9.1h16.6c0.2,0,0.3,0,0.4-0.1c0.1-0.1,0.2-0.2,0.2-0.4v-0.7c0-0.2,0-0.3-0.2-0.4
		c-0.1-0.1-0.2-0.1-0.4-0.1H50.2C49.9,280.5,49.7,280.6,49.6,280.8 M78.9,256.7c-3-4.4-5.6-5.9-6.3-6.6c-0.8-0.8-1.4-1.6-1.8-2.1
		c-0.9-0.9-2-2.1-3.8-2.1c-1.8,0-3,1.2-3.3,2.2c-0.1,0.3-0.2,0.6-0.3,0.8c-0.2,0.3-1,1.6-1.3,2.2h1.5l-0.8,1.2
		c0.8-0.2,1.4-0.3,2.2-0.3c0.7,0,1.2,0.2,1.4,0.6c0.4,0.8,0.4,3.3,1.1,5.2c0.7,1.8,2.2,3.5,4,4.8c0,0,0,0,0.1,0s0.1-0.1,0.1-0.1
		s0-0.1-0.1-0.1c-1.5-1.5-2.7-3.2-3.4-5c-0.6-1.8-0.5-4.3-1.1-5.4c-0.4-0.7-1.2-0.9-1.9-0.9c-0.6,0-1.1,0.1-1.4,0.2l0.6-1.1h-1.1
		c0.2-0.4,0.5-0.8,0.6-1c0.1-0.2,0.1-0.4,0.3-0.8c0.4-1,1.3-1.7,2.5-1.7c1.5,0,2.4,1,3.2,1.9c0.4,0.4,1.1,1.4,1.8,2.1
		c0.5,0.5,1.5,1,3,2.6c0.9,0.9,1.9,2.1,3,3.7c3.8,5.6,6.4,10.6,7.8,14.5l0,0c-4-2.7-7.5-5.3-10.3-8.5c-2-2.3-3.7-4.9-5.2-8.2
		c-0.1-0.2-0.2-0.4-0.3-0.6c0-0.1-0.1-0.1-0.1-0.1c-0.1,0-0.1,0.1-0.1,0.1c0,0.1,0,0.3,0.1,0.7c0.8,3.5,3,6.6,5.4,9.2
		s5.1,4.8,7.3,6.4l1.7,4.9c0,0.1,0.1,0.2,0.1,0.4c0,0.1,0,0.2-0.1,0.2c0,0-0.1,0.1-0.3,0.1h-0.5c-0.2,0-0.3,0-0.4-0.1
		c-0.1-0.1-0.1-0.2-0.2-0.3c-0.2-0.5-1.1-3-1.2-3.6c0-0.1-0.1-0.1-0.2-0.1c-0.1,0-0.1,0.1-0.1,0.1c0,0.1,0,0.1,0.1,0.4
		c0.2,1.2,0.5,2.5,0.6,3c0,0.2,0.1,0.4,0.1,0.6c0,0.1,0,0.2-0.2,0.3l-0.5,0.5c-0.1,0.1-0.2,0.2-0.3,0.2s-0.2-0.1-0.3-0.3
		c-0.6-2.8-1.5-6.3-1.8-7.3c-0.1-0.2-0.1-0.3-0.2-0.3c-0.1,0-0.2,0.1-0.2,0.2c0,0.1,0,0.2,0,0.2c0.1,1,0.7,4.7,1.4,8
		c0.1,0.6,0.3,0.9,0.8,0.9c0.2,0,0.4-0.1,0.6-0.3c0.3-0.3,0.4-0.4,0.8-0.8c0.3-0.3,0.5-0.4,0.9-0.4h1.2c0.3,0,0.4-0.1,0.6-0.2
		c0.1-0.1,0.2-0.3,0.2-0.5s-0.1-0.4-0.2-0.7c-0.3-0.8-1.3-3.6-1.6-4.3l0,0c1,0.8,2.4,1.7,3.1,1.7c0.2,0,0.3-0.1,0.3-0.4
		C86.9,271,84.5,265,78.9,256.7 M56.8,283.5c-2.8,0-4.3,2.2-4.3,4.4c0,2.4,1.7,4.6,4.3,4.6c1.3,0,2.6-0.5,3.4-1.4
		c0.3-0.4,0.6-0.9,0.6-1.2c0-0.1,0-0.2-0.1-0.3c-0.1-0.1-0.2-0.1-0.3-0.1h-1.3c-0.3,0-0.4,0.1-0.6,0.3c-0.4,0.5-0.9,0.8-1.7,0.8
		c-1.2,0-2-0.9-2-1.9h5.5c0.2,0,0.4-0.1,0.5-0.2s0.2-0.3,0.2-0.7c0-1-0.3-2.1-1-3C59.4,284.1,58.3,283.5,56.8,283.5 M65.4,283.5
		c-2.2,0-3.6,1-3.6,2.7c0,0.6,0.2,1.1,0.6,1.4c0.4,0.4,1,0.7,1.8,1l1.8,0.5c0.5,0.1,0.9,0.3,0.9,0.7c0,0.7-0.7,0.9-1.5,0.9
		c-0.4,0-0.8-0.1-1.1-0.2c-0.2-0.1-0.4-0.3-0.5-0.5c-0.1-0.2-0.2-0.3-0.3-0.4c-0.1-0.1-0.2-0.1-0.4-0.1h-1c-0.2,0-0.3,0.1-0.4,0.2
		s-0.1,0.2-0.1,0.3c0,0.3,0.1,0.7,0.4,1.1c0.6,0.8,1.9,1.5,3.5,1.5c1.6,0,3.8-0.7,3.8-2.8c0-0.5-0.2-1-0.5-1.4
		c-0.4-0.5-0.9-0.8-1.8-1.1l-1.8-0.5c-0.7-0.2-1.1-0.3-1.1-0.8c0-0.4,0.4-0.8,1.3-0.8c0.5,0,1,0.1,1.4,0.5c0.3,0.3,0.2,0.4,0.4,0.5
		c0.1,0.1,0.3,0.1,0.5,0.1h0.9c0.1,0,0.2,0,0.3-0.1s0.1-0.2,0.1-0.4c0-0.4-0.3-0.9-0.7-1.4C67.6,283.9,66.6,283.5,65.4,283.5
		 M51.6,247.4c0.2-0.4,0.5-0.6,1-0.6c0.6,0,1.1,0.5,1.1,1.1c0,0.4-0.2,0.7-0.4,0.9c0.1,0.2,0.1,0.4,0.1,0.6c0,0.7-0.4,1.1-1.1,1.4
		c-0.1,0.4-0.3,0.8-0.6,1c-0.5,0.5-1,0.5-1,0.7c0,0.1,0.1,0.2,0.3,0.2c0.9,0,1.8-0.5,1.9-1.3c0.8-0.3,1.4-1.1,1.4-1.8
		c0-0.2,0-0.3-0.1-0.5c0.2-0.2,0.5-0.6,0.5-1.2c0-0.5-0.2-1-0.6-1.4c-0.3-0.3-0.8-0.5-1.4-0.5c-0.8,0-1.3,0.4-1.6,0.9
		c-0.9,0-2,1-2,2.3H49c-0.1-0.5-0.6-0.8-1-0.8c-0.3-1-1.1-1.9-2.3-1.9c-0.1,0-0.3,0-0.5,0c-0.4-0.3-0.8-0.5-1.3-0.5
		c-1.1,0-2,0.9-2,2c0,0.7,0.3,1.2,0.9,1.6v0.1c0,0.9,1,2.2,2.4,2.2c0,0.2,0.3,0.5,0.6,0.6v0.1h-0.1c-2,0-2.8,0.9-2.8,1.6
		c-0.6,0.2-1,0.9-1,1.5c0,1.2,0.9,2,2,2c0.4,0,0.8-0.2,1-0.4c0.2,0.1,0.5,0.1,0.7,0.1c0.5,0,1.2-0.2,1.6-0.8c0.1,0,0.1,0,0.2,0
		c0.7,0,1.3-0.5,1.6-1.1c0.1-0.2,0.1-0.3,0.1-0.4c0-0.1,0-0.2-0.1-0.2s-0.1,0.1-0.3,0.3c-0.4,0.4-1.1,0.6-1.8,0.6
		c-0.3,0.5-0.8,0.8-1.3,0.8c-0.4,0-0.6-0.1-0.9-0.3c-0.2,0.3-0.5,0.4-0.8,0.4c-0.6,0-1.1-0.4-1.1-1.1c0-0.4,0.3-0.8,0.7-1
		c0.1-0.8,0.9-1.3,2-1.3c0.1,0,0.3,0,0.4,0c0.2-0.3,0.5-0.5,1.1-0.6c0.1,0,0.2,0,0.3-0.1c0.1,0,0.1-0.1,0.1-0.2s0-0.1-0.1-0.2
		c-0.1,0-0.2,0-0.3-0.1c-0.5-0.1-1.1-0.4-1.4-1.2c-1.2,0-2.1-1-2.1-2v-0.1c-0.4-0.2-0.7-0.5-0.7-1c0-0.6,0.5-1.1,1.1-1.1
		c0.4,0,0.7,0.2,0.9,0.4c0.2,0,0.4-0.1,0.5-0.1c0.9,0,1.8,0.6,2,1.7c1.1,0.1,1.4,1.1,1.5,1.5c0,0.2,0.1,0.4,0.2,0.4s0.2-0.2,0.2-0.4
		c0.1-0.4,0.2-0.7,0.5-1C49.7,248.3,50.5,247.4,51.6,247.4 M70.3,283.8h-0.4c-0.2,0-0.3,0-0.4,0.1c-0.1,0.1-0.2,0.2-0.2,0.4v0.5
		c0,0.2,0,0.3,0.2,0.4c0.1,0.1,0.2,0.1,0.4,0.1h0.4v4c0,1,0.3,1.7,0.8,2.2s1.1,0.8,2.2,0.8H74c0.2,0,0.3,0,0.4-0.1
		c0.1-0.1,0.2-0.2,0.2-0.4v-0.7c0-0.2-0.1-0.3-0.2-0.4c-0.1-0.1-0.2-0.1-0.4-0.1h-0.1c-0.4,0-0.7-0.1-0.9-0.3
		c-0.2-0.2-0.4-0.6-0.4-1v-3.8H74c0.2,0,0.3,0,0.4-0.1c0.1-0.1,0.2-0.2,0.2-0.4v-0.5c0-0.2,0-0.3-0.2-0.4c-0.1-0.1-0.2-0.1-0.4-0.1
		h-1.4v-2.7c0-0.2-0.1-0.4-0.2-0.5c-0.1-0.1-0.3-0.2-0.5-0.2H71c-0.2,0-0.4,0.1-0.5,0.2c-0.1,0.1-0.2,0.3-0.2,0.5V283.8z
		 M75.2,291.7c0,0.2,0.1,0.4,0.2,0.5c0.1,0.1,0.3,0.2,0.5,0.2h0.9c0.2,0,0.4-0.1,0.5-0.2s0.2-0.3,0.2-0.5v-10.4
		c0-0.2-0.1-0.4-0.2-0.5c-0.1-0.1-0.3-0.2-0.5-0.2h-0.9c-0.2,0-0.4,0.1-0.5,0.2c-0.1,0.1-0.2,0.3-0.2,0.5V291.7z M53.9,253.7
		c-0.4,0.5-0.6,0.8-1.5,1.8c-1.1,1.3-1.7,2.4-2.7,4.8c0.2,0,0.4,0,0.6,0c0.1,0,0.2,0,0.4,0l0.1-0.3c0.5-1.2,1.3-2.8,2.3-4l0.4-0.4
		c1.1-1.2,1.7-2,2.1-3.7c0.1-0.6,0.3-1.1,0.7-1.5c0.4-0.4,0.8-0.5,1.3-0.5c0.4,0,0.7,0.1,1.1,0.3c0.4,0.2,0.5,0.2,0.9,0.2
		c0.1,0,0.2,0,0.3,0l-0.6,0.7l0.8,0.5c-0.9,0.3-1.4,1.2-1.6,1.6c0,0.1,0,0.1,0,0.2c0,0.1,0,0.1,0.1,0.1c0.1,0,0.2-0.1,0.3-0.2
		c0.5-0.6,0.8-0.9,2.5-1.5l-1.2-0.9l0.9-1.3h-0.9c-0.5,0-0.9,0-1.4-0.2c-0.6-0.3-1-0.4-1.5-0.4c-0.7,0-1.3,0.2-1.8,0.7
		c-0.6,0.5-0.8,1.3-1,2.1C54.6,252.4,54.4,253,53.9,253.7 M55.8,259.1c-0.5,0.6-1.1,1.4-1.6,2.3c0.2,0.1,0.7,0.3,0.8,0.4
		c0.5-0.8,1.3-1.8,1.8-2.6c0.5-0.7,0.6-1,0.7-1.9c0-0.2,0-0.3,0-0.5c0-0.5,0.2-1,0.6-1.4c0.3-0.3,0.8-0.5,1.3-0.5s0.8,0.1,1.2,0.1
		c0.3,0,0.5-0.1,0.7-0.1l0.2-0.1l-0.4,0.9L62,256c-0.5,0.3-1.8,1.8-1.8,3.6c0,0.6,0.1,1.2,0.2,1.7c0,0.1,0,0.1,0.1,0.1
		c0.1,0,0.1,0,0.1-0.1v-0.2c0-0.5,0.1-1.4,0.3-2.1c0.4-1.3,1.3-2.5,2.3-3l-1.2-0.7l0.6-1.4L62,254c-0.4,0.1-0.7,0.2-1,0.2
		c-0.2,0-0.5,0-0.8-0.1c-0.2-0.1-0.5-0.1-0.8-0.1c-0.6,0-1.3,0.2-1.8,0.7c-0.8,0.8-0.9,1.7-0.9,2.4
		C56.5,258.1,56.3,258.3,55.8,259.1 M76.2,259.6c-0.1-0.1-0.1-0.1-0.2-0.1c-0.1,0-0.1,0.1-0.1,0.1c0,0.1,0.1,0.2,0.3,0.6
		c0.6,1,1.4,2.1,2.3,3c1,1.1,2.2,2,3.4,2.9l0.4,0.3c0.1,0,0.1,0.1,0.1,0.1c0.1,0,0.1-0.1,0.1-0.1s0-0.1-0.1-0.1
		c-1.2-1.1-2.4-2.3-3.6-3.6C78,261.7,77,260.6,76.2,259.6 M54.8,287c0.1-1,0.9-1.7,2-1.7s1.9,0.7,2,1.7H54.8z M50.6,256
		c0.1-0.2,0.5-0.7,0.6-0.8c-0.6-1.2-1.6-2.4-2.1-2.9l-0.4,0.4C49.2,253.2,49.9,254.4,50.6,256 M44.7,248.8c-0.1-0.1-0.1-0.1-0.1-0.2
		c0-0.1,0-0.1,0.1-0.1h0.1c0.6,0.2,1.1,0.5,1.5,0.9c0.4,0.3,0.7,0.6,1.1,1.1l-0.3,0.4C46.8,250.5,45.4,249.4,44.7,248.8 M50.4,251.5
		l-0.4-0.3c0.3-0.7,0.6-1.3,1-1.7c0.3-0.3,0.6-0.6,0.9-0.9c0.1-0.1,0.1-0.1,0.2-0.1c0.1,0,0.1,0.1,0.1,0.1v0.1
		C51.6,249.5,50.7,251,50.4,251.5 M45,255.1c-0.1,0-0.2,0.1-0.2,0.1c-0.1,0-0.1-0.1-0.1-0.1c0-0.1,0-0.1,0.1-0.1
		c1-0.8,1.8-1.1,3-1.3l0.1,0.5L45,255.1z M65.4,249c0-0.3,0.1-0.8,0.7-0.8c0.2,0,0.3,0,0.5,0.1c0.2,0.1,0.3,0.2,0.3,0.4
		c0,0.1-0.1,0.3-0.4,0.5c-0.2,0.2-0.5,0.4-0.7,0.4C65.5,249.5,65.4,249.2,65.4,249 M57.3,251.3c0-0.3,0.2-0.7,0.6-0.7
		c0.2,0,0.4,0.1,0.5,0.2c0.1,0.1,0.1,0.2,0.1,0.3c0,0.2-0.2,0.4-0.4,0.5c-0.2,0.1-0.3,0.2-0.5,0.2C57.4,251.7,57.3,251.6,57.3,251.3
		 M59.2,256.2c0-0.1,0-0.2,0-0.3c0.1-0.2,0.2-0.4,0.5-0.4c0.2,0,0.3,0,0.5,0.1c0.1,0.1,0.2,0.2,0.2,0.3c0,0.3-0.6,0.7-0.9,0.7
		C59.3,256.7,59.2,256.5,59.2,256.2 M86.2,282.3c0.2,0,0.3,0,0.4-0.1c0.1-0.1,0.2-0.2,0.2-0.4v-0.7c0-0.3-0.1-0.4-0.2-0.5
		c-0.1-0.1-0.2-0.2-0.4-0.2c-0.1,0-0.3,0-0.5,0l-6.4,0.6c-0.2,0-0.3,0.1-0.3,0.1c-0.1,0.1-0.1,0.2-0.1,0.3v0.4c0,0.2,0,0.2,0.1,0.3
		s0.2,0.1,0.3,0.1L86.2,282.3L86.2,282.3z M82.6,283.5c-2.8,0-4.3,2.2-4.3,4.4c0,2.4,1.7,4.6,4.3,4.6c1.3,0,2.6-0.5,3.4-1.4
		c0.3-0.4,0.6-0.9,0.6-1.2c0-0.1,0-0.2-0.1-0.3s-0.2-0.1-0.3-0.1h-1.3c-0.3,0-0.4,0.1-0.6,0.3c-0.4,0.5-0.9,0.8-1.7,0.8
		c-1.2,0-2-0.9-2-1.9h5.6c0.2,0,0.4-0.1,0.5-0.2c0.1-0.1,0.2-0.3,0.2-0.7c0-1-0.3-2.1-1-3C85.2,284.1,84.1,283.5,82.6,283.5
		 M80.7,287c0.1-1,0.9-1.7,2-1.7c1.1,0,1.9,0.7,2,1.7H80.7z M56.1,266.3c-1.1,0-1.6-0.5-1.6-1.2c0-1.1,2-2.2,3.8-2.9l0.5,0.6
		c-1.1,0.4-3.3,1.4-3.3,2.2c0,0.3,0.2,0.5,0.8,0.5c1.2,0,2.4-0.6,3.6-1.1c0.1,0,0.2-0.1,0.3-0.1c0.2,0,0.2,0,0.4,0.2l0.2,0.3
		C59.3,265.5,57.6,266.3,56.1,266.3 M59,266.6c-1.1,0.6-2.1,1-3.1,1c-1.1,0-2-0.5-2.8-1.7c-0.3-0.5-0.6-1.1-0.9-1.7
		c-0.4-0.7-0.8-1-1.5-1s-1.3,0.3-2,0.6v0.2c0.1,0.2,0.2,0.4,0.4,0.4c0.1,0,0.2,0,0.3-0.1c0.4-0.1,0.7-0.2,1.1-0.2
		c0.6,0,0.9,0.4,1.3,1.2l0.2,0.3c-0.4,0.1-1.4,0.2-2.1,0.2h-0.3l0.1,0.3c0,0.1,0.1,0.3,0.2,0.3c0.1,0.1,0.4,0.1,0.7,0.1
		c0.9,0,1.6-0.1,2-0.2c1,1.5,2.3,2,3.6,2c1.1,0,2.2-0.4,3.3-1L59,266.6z M60.1,266.9l-0.2-0.7c1.6-0.9,3.1-1.6,5.5-1.8
		c0,0.9,0,2.1,0.7,2.1c0.6,0,2-1.6,3.5-3.6c0.1,0.1,0.4,0.3,0.6,0.4l-0.4,0.5c-1.5,2-2.8,3.6-3.9,3.6c-1,0-1.4-1.2-1.4-2
		C63,265.5,61.6,266,60.1,266.9 M81.2,250.9c-0.6,0-0.8-0.3-0.8-0.8c0-1,0.6-2.4,1-3.3h-1c-0.5,1-2.5,4.1-3.5,5.4l0.6,0.7
		c0.6-0.6,1.2-1.7,1.9-2.8h0.1c0,0.1,0,0.1,0,0.2c0,0.9,0.5,1.6,1.6,1.6c0.7,0,1.8-0.3,2.8-0.7c0.9-0.3,1.6-0.6,2-0.7v-1
		c-0.4,0.1-1.4,0.5-2.3,0.8S81.7,250.9,81.2,250.9 M83.3,253.8c1-0.4,2.7-1.1,3.7-1.4v-1c-2,0.7-5.5,2.2-7.8,3.5
		c0.1,0.1,0.5,0.7,0.5,0.7c1-0.4,1.9-0.7,2.7-0.7c1.1,0,2.1,0,3.6-0.4v-0.7c-0.9,0.2-1.8,0.4-2.4,0.4c-0.4,0-0.5,0-0.5-0.2
		C83.1,253.9,83.2,253.9,83.3,253.8 M62.5,259h4.1l-0.3-0.7h-3.4L62.5,259z M48.2,262.7c0.4,0,0.8-0.1,1.1-0.3
		c0.3-0.1,0.6-0.3,1.1-0.3c1,0,2.3,0.5,3.4,1c0.1,0,0.1,0,0.2,0c0.2,0,0.3-0.1,0.4-0.2l0.1-0.3c-1.2-0.7-3.2-1.5-4.2-1.5
		c-0.5,0-0.8,0.1-1.1,0.2c-0.4,0.1-0.7,0.3-1,0.3c-0.8,0-2.9-0.8-2.9-1.6c0-0.9,3.3-1.3,3.6-1.3l0.3-0.7c-2.4,0-5.2,0.8-5.2,1.9
		c0,0.3,0.2,0.5,0.2,0.8c0,0.4-0.2,0.7-0.2,1.1c0,0.3,0.2,0.7,0.4,1c0.2,0.3,0.5,0.6,0.5,0.9c0,0.2-0.1,0.5-0.1,1
		c0,1.1,0.6,1.7,1.8,3l0.2,0.3c-1,0.4-2.8,1.2-3.3,1.4c-1.5,0.6-1.9,1.4-1.9,2.6c0,0.5,0,1,0,1.5h0.3c0.6,0,0.7-0.4,0.7-0.7
		c0-0.2,0-0.5,0-0.8c0-0.7,0-1.2,1.1-1.7c0.4-0.2,2.5-1.1,4.1-1.7c0.5-0.2,0.9-0.4,1.4-0.4s1.1,0.2,1.9,0.7c0.6,0.4,1.3,0.9,1.9,1.5
		l0.7-0.5c-0.6-0.7-1.4-1.3-2.2-1.8c-0.8-0.5-1.5-0.8-2.1-0.8c-0.3,0-0.5,0-0.7,0.1s-0.4,0.1-0.7,0.1c-0.3,0-0.5-0.1-0.9-0.5
		c-0.1-0.2-1-1.1-1.2-1.4c-0.1-0.1-0.2-0.4-0.2-0.7c0-0.1,0-0.3,0.1-0.4c0.7,0.6,1.7,0.9,2.8,1.1l-0.2-0.8c-1.6-0.4-3.3-1.8-3.3-2.7
		c0-0.2,0-0.3,0.1-0.5C46,262.1,47.5,262.7,48.2,262.7 M59.7,262.8c1-0.7,2-0.8,2.9-0.8c0.5,0,1.1,0.1,1.7,0.2
		c0.5,0.1,1,0.1,1.5,0.1c1.1,0,2.2-0.4,2.7-0.6c0.1,0.2,0.4,0.4,0.5,0.5c-0.2,0.1-1.7,0.9-3.2,0.9c-0.7,0-1.3-0.1-1.8-0.2
		s-1-0.1-1.5-0.1s-1.7,0.2-2.3,0.5L59.7,262.8z M74.5,265.7c-1.2,2.5-3,4.3-4.9,5.4c-0.9,0.5-1.7,0.8-3.4,0.8h-3.7
		c-1.3,0-2.2,0.2-2.8,0.3c-0.7,0.2-1.1,0.4-1.9,0.4c-1.1,0-2-0.5-2.5-1l0.9-0.7l-0.4-0.6c-0.3,0.2-3.4,2.5-4,3l0,0
		c0-0.2,0-0.3,0-0.4c0-1.8-0.8-2.2-2-2.7l-0.8,0.5c1.7,0.6,2.1,1,2.1,2.3c0,1-0.4,1.4-0.9,1.7c-0.5,0.3-1.2,0.5-1.8,0.5
		c-0.2,0-0.4,0-0.4,0.1c-0.1,0.1-0.1,0.2-0.1,0.4v0.3h0.2c1.1,0,2.1-0.2,3.1-1l3.5-2.8c0.5,0.6,1.8,1.4,3.3,1.4
		c0.8,0,1.4-0.2,2.2-0.4c0.6-0.2,1.2-0.3,2.5-0.3h3.7c1.9,0,2.8-0.4,3.9-1c2.2-1.2,4.1-3.3,5.2-5.8C75,266,74.7,265.8,74.5,265.7
		 M68.5,268.6c1-1.5,1.8-2.9,3.9-4c-0.2-0.1-0.5-0.3-0.7-0.5c-0.8,0.4-1.6,1.1-2.3,1.8c-1.6,1.7-1.4,2.6-3.1,3.3
		c-0.4,0.2-0.9,0.3-1.6,0.5c-0.4-1.2-1.4-2.4-2.4-2.4c-0.7,0-1.5,0.4-2.5,0.8c-1.1,0.5-2.1,1.1-2.5,1.3l0.4,0.6
		c0.3-0.2,1.3-0.7,2.3-1.1c0.8-0.4,1.6-0.7,2.1-0.7c0.8,0,1.4,0.9,1.6,1.7c-1.1,0.3-2.8,0.3-3.4,0.3c-0.2,0-0.3,0-0.4,0.1
		c-0.1,0.1-0.1,0.2-0.2,0.4l-0.1,0.3h0.6c3,0,5.8-0.5,7.6-1.6c0.3,0.1,0.5,0.1,0.8,0.1c1,0,2.1-0.6,2.8-1.1c0.2-0.2,0.3-0.4,0.3-0.5
		s0-0.2,0-0.2v-0.3c-1,0.8-1.8,1.3-2.7,1.3C68.7,268.7,68.6,268.7,68.5,268.6"/>
</g>
</svg>
