<?xml version="1.0" encoding="utf-8"?>
<!-- Generator: Adobe Illustrator 19.0.0, SVG Export Plug-In . SVG Version: 6.00 Build 0)  -->
<svg version="1.1" id="Capa_1" xmlns="http://www.w3.org/2000/svg" xmlns:xlink="http://www.w3.org/1999/xlink" x="0px" y="0px"
	 viewBox="-218.7 369 38 68.2" style="enable-background:new -218.7 369 38 68.2;" xml:space="preserve">
<style type="text/css">
	.st0{fill:none;stroke:#004966;stroke-width:1.2;stroke-linecap:round;stroke-miterlimit:10;}
	.st1{fill:#FFFFFF;}
	.st2{fill:none;stroke:#004966;stroke-width:1.2;stroke-miterlimit:10;}
	.st3{fill:#EA7E25;stroke:#004966;stroke-width:1.2;stroke-linecap:round;stroke-miterlimit:10;}
	.st4{opacity:0.3;fill:#E76A00;enable-background:new    ;}
	.st5{fill:#004966;}
	.st6{fill:#DD2D5C;}
	.st7{fill:none;stroke:#004966;stroke-width:0.5;stroke-linecap:round;stroke-miterlimit:10;}
	.st8{opacity:0.2;fill:#DD2D5C;enable-background:new    ;}
</style>
<g>
	<g>
		<g>
			<path class="st0" d="M-205.7,434.6c0,0,3.9-11.3-0.6-23.7"/>
			<path class="st0" d="M-197.9,434.9c0,0-1-16.4-0.6-23.7"/>
			<path class="st0" d="M-198.1,391.4c-1.5-0.4,12.9,5.3,16.2-2.5"/>
			<path class="st0" d="M-206.1,391.2c1.5-0.4-8.7,3-8.7,19.8"/>
			<path class="st1" d="M-194.7,381.8c0,4.1-3.3,7.5-7.5,7.5s-7.5-3.3-7.5-7.5c0-4.1,3.3-7.5,7.5-7.5S-194.7,377.6-194.7,381.8"/>
			<circle class="st2" cx="-202.5" cy="381.8" r="7.5"/>
			<path class="st0" d="M-205.8,390c0,0,1.1,1.9,3.5,1.9s3.1-1.9,3.1-1.9"/>
			<path class="st3" d="M-207.8,392.8c0,0,1.6,4.7,1.5,7.5s-3.1,10.8-0.1,12.7c3,1.9,11.6,0.8,11.2-2.4c-0.4-3.2-2.3-8-2-10.6
				c0.4-2.6,0.8-8.4-2.6-9.3C-205.3,389.2-207.8,392.8-207.8,392.8z"/>
			<path class="st4" d="M-202.6,391.5c-0.9-0.2-3,0.1-3.6,0.8c-0.9,0.9,0.5,2.9,0.7,4c0.3,1.4,0.4,2.9,0.3,4.4
				c-0.1,1.2-0.5,2.3-0.8,3.5c-0.3,1.1-0.4,2.1-0.6,3.2c-0.2,1-0.4,2.1-0.2,3.1c0.7,3.1,4.7,2.9,7.1,1.9c-1-0.6-2.1-0.6-2.8-1.7
				c-0.7-0.9-1.1-1.9-1.7-2.9c-0.9-1.4-0.5-3.8,0.4-5.1c0.9-1.3,1.9-1.1,3.3-1.5c1.1-0.2,2.5-1.9,2.3-3.1c-1.2,0.3-2.3,0.8-3.5,0.4
				c-1-0.3-2.3-1.3-2.9-2.1c-1.1-1.6,0.1-3.9,1.8-4.6"/>
			<path class="st0" d="M-207.8,376.7c0,0-4.5,1.5-4.5,6.4c0.1,4.9,1.5,9.4-0.1,11.1c-1.5,1.7-3.3,1.3-3.3,1.3"/>
			<path class="st0" d="M-195.4,379c0,0,2.6,4.2,1,8.8c-1.6,4.5-2.2,12.4-0.7,12.4"/>
			<path class="st0" d="M-206.7,375.7c-0.3,0.1-2.4,0.2-2,6.2c0.5,6,5.2,16.7,2.7,17.6s-3,0.1-3,0.1"/>
			<path class="st0" d="M-209.2,378.3c-0.2,0-2.3,2-1.7,6.7c0.7,4.7,3.4,11.8,2.1,12.7c-1.3,0.8-1.7,0.9-1.7,0.9"/>
			<path class="st5" d="M-202.4,426.5c0,0.7-0.6,1.3-1.3,1.3h-1.6c-0.7,0-1.3-0.6-1.3-1.3l0,0c0-0.7,0.6-1.3,1.3-1.3h1.6
				C-203,425.3-202.4,425.8-202.4,426.5L-202.4,426.5z"/>
			<path class="st5" d="M-196.2,426.7c0,0.7-0.6,1.3-1.3,1.3h-1.6c-0.7,0-1.3-0.6-1.3-1.3l0,0c0-0.7,0.6-1.3,1.3-1.3h1.6
				C-196.8,425.4-196.2,426-196.2,426.7L-196.2,426.7z"/>
			<circle class="st6" cx="-215.9" cy="409" r="0.3"/>
			<circle class="st6" cx="-215.3" cy="409.1" r="0.3"/>
			<circle class="st6" cx="-214.7" cy="409.1" r="0.3"/>
			<circle class="st6" cx="-214.2" cy="409.1" r="0.3"/>
			<circle class="st6" cx="-213.6" cy="409.1" r="0.3"/>
			<ellipse class="st5" cx="-204.1" cy="382.3" rx="0.8" ry="0.8"/>
			<ellipse class="st5" cx="-200" cy="382.2" rx="0.8" ry="0.8"/>
			<path class="st7" d="M-204.5,386.1c0,0,1.1,0.8,2.8,0.8c1.5,0,2.1-1.1,2.1-1.1"/>
			<circle class="st8" cx="-197.9" cy="384.2" r="0.8"/>
			<path class="st7" d="M-206,381.1c0,0-0.2-1,0.6-1.5s1.5-0.1,1.5-0.1"/>
			<path class="st7" d="M-198.3,381.3c0,0,0.2-1-0.6-1.5s-1.5-0.1-1.5-0.1"/>
			<path class="st5" d="M-209.3,377.9c-0.4-0.8-0.6-2-0.5-2.9c0.2-0.9,1.2-1.5,1.9-2c0.9-0.5,1.9-0.7,3-0.7c1.7,0.1,3.6,0.5,5.3-0.3
				c0.4-0.2,0.8-0.5,1.1-0.9c0.2-0.2,0.2-0.5,0.5-0.2c0.4,0.5-0.3,1.9-0.5,2.3c1.3,0.1,3.3-0.5,4.3,0.7c-0.5,0-1.9,0.2-1.8,0.9
				c0.5,0,1.9,0.6,1.9,1.2s-1.2,0.4-1.3,0.9c0,0.2,0.3,0.5,0.4,0.7c0.2,0.4,0.4,0.8,0.5,1.2c0.2,0.7,0.1,1.4,0.3,2
				c-0.2-0.7-0.7-1.4-1.1-2c-0.4-0.7-0.8-1.3-1.4-1.8c-1.2-1-2.1-2.4-3.7-2.9c-1.7-0.5-4-0.4-5.6,0.4c-1,0.5-2.1,1.6-2.3,2.7
				c-0.1,0.1-0.1,0-0.1,0"/>
			<circle class="st8" cx="-206.4" cy="384.2" r="0.8"/>
		</g>
	</g>
</g>
</svg>
