<?xml version="1.0" encoding="utf-8"?>
<!-- Generator: Adobe Illustrator 19.0.0, SVG Export Plug-In . SVG Version: 6.00 Build 0)  -->
<svg version="1.1" id="Capa_1" xmlns="http://www.w3.org/2000/svg" xmlns:xlink="http://www.w3.org/1999/xlink" x="0px" y="0px"
	 viewBox="-236 347.3 138 98.7" style="enable-background:new -236 347.3 138 98.7;" xml:space="preserve">
<style type="text/css">
	.st0{opacity:0.5;fill:#004966;enable-background:new    ;}
	.st1{fill:#C7C5D0;}
	.st2{fill:none;stroke:#004966;stroke-width:1.2013;stroke-linecap:round;stroke-miterlimit:10;}
	.st3{fill:#A50EDD;}
	.st4{fill:none;stroke:#004966;stroke-width:1.2013;stroke-miterlimit:10;}
	.st5{fill:#7804BC;}
	.st6{fill:#FFFFFF;}
	.st7{fill:#DFDEE4;}
	.st8{fill:none;stroke:#004966;stroke-width:1.1521;stroke-linecap:round;stroke-miterlimit:10;}
	.st9{fill:#DD2D5C;}
	.st10{fill:none;stroke:#004966;stroke-width:1.1521;stroke-miterlimit:10;}
	.st11{fill:none;stroke:#004966;stroke-width:1.3043;stroke-linecap:round;stroke-miterlimit:10;}
	.st12{fill:none;stroke:#004966;stroke-width:1.3043;stroke-miterlimit:10;}
	.st13{fill:none;stroke:#004966;stroke-width:1.2654;stroke-linecap:round;stroke-miterlimit:10;}
	.st14{fill:#004966;}
	.st15{fill:none;stroke:#004966;stroke-width:0.5;stroke-linecap:round;stroke-miterlimit:10;}
	.st16{opacity:0.3;fill:#DFDEE4;enable-background:new    ;}
	.st17{fill:#64AC28;}
	.st18{fill:#FFFFFF;stroke:#004966;stroke-width:0.75;stroke-linecap:round;stroke-miterlimit:10;}
</style>
<path class="st0" d="M-105.2,416.9h-36.4v-22c1.3-0.6,2.3-2,2.3-3.6c0-2.2-1.8-4-4-4h-30.1c0.2-0.7,0.4-1.5,0.4-2.3
	c0-4.3-3.5-7.9-7.9-7.9h-13.6c-3.7,0-6.9,2.6-7.7,6.1h-15.7v-8.4c0-2.3-1.8-4.1-4.1-4.1s-4.1,1.8-4.1,4.1v38.4c0,1.6,0.9,3,2.3,3.6
	h-5.1c-0.7,0-1.2,0.5-1.2,1.2s0.5,1.2,1.2,1.2h123.8c0.7,0,1.2-0.5,1.2-1.2C-104,417.4-104.5,416.9-105.2,416.9z M-145.5,398.3v18.5
	h-18.3v-18.5H-145.5z M-167.1,395.2v21.6h-2.3v-21.6H-167.1z M-173.4,399v17.8h-18.3V399H-173.4z M-194.9,392.8v24.1h-1.3v-24.2
	C-195.8,392.7-195.4,392.8-194.9,392.8z M-217.2,394.1h16.2v22.8h-16.2V394.1z"/>
<ellipse class="st1" cx="-196.8" cy="437.2" rx="19.8" ry="5.1"/>
<ellipse class="st1" cx="-166.7" cy="440.9" rx="19.8" ry="5.1"/>
<ellipse class="st1" cx="-137.9" cy="438" rx="19.8" ry="5.1"/>
<g>
	<g>
		<path class="st2" d="M-191.1,376.3c-2-0.5,19.3,2,26.9,5.8"/>
		<path class="st2" d="M-204.2,435.4c0,0,5.3-18.5-0.6-34.9"/>
		<path class="st2" d="M-193.8,435.7c0,0,4.2-18.8-1.7-35.3"/>
		<path class="st3" d="M-202.6,375.1c-2,2.8-4.8,3.7-7.7,11.4c-1.1,3.1-1.7,5.9-1.3,10.7c0.1,1.7,3.6,5.1,7.7,6.3
			c2.2,0.6,4.8,0.7,8.5,0.6c1.3,0,6.8-0.5,7.6-4.4c0.6-2.9,2-6,1.3-10.7c-0.6-4-1.6-6-5.6-13.5s-3.6-7.3-3.6-7.3
			S-200.5,372.3-202.6,375.1"/>
		<path class="st4" d="M-202.9,375.1c-2,2.8-4.8,3.7-7.7,11.5c-1.1,3.1-1.7,5.9-1.3,10.7c0.1,1.7,3.6,5.1,7.7,6.3
			c2.2,0.6,4.8,0.7,8.5,0.6c1.3,0,6.8-0.5,7.6-4.4c0.6-2.9,2-6,1.3-10.7c-0.6-4-1.6-6-5.6-13.5s-3.6-7.3-3.6-7.3
			S-200.8,372.2-202.9,375.1z"/>
		<path class="st5" d="M-189.2,382.8c-0.6-1.7-1.4-3.2-2-4.9c-0.3-0.9-0.7-2.2-1.6-2.6c-0.2-0.2-0.4-0.3-0.6-0.4
			c0.3-0.1,0.5-0.2,0.8-0.3s0.6-0.2,0.9-0.4c-1.6,0.2-3.3,0.4-4.7,1.2c0.2,0,0.4,0,0.6,0c-0.4,0.4,2.4-0.3,2.3,0.4
			c-0.2,1.7,0.5,3.3,1.3,4.8c1,2.1,2,5.7,0.7,7.3c-1.9,2.3-7.9,0.5-10.7-0.7c-6.8-3-1.4,4.7,1.2,5.3c3,0.7,5.1,0.3,8.2,0.1
			c7.1-0.2,4.5,3.1,4.6,2.8C-187,392.2-187.7,386.9-189.2,382.8"/>
		<path class="st5" d="M-189.9,399.6c0.1-0.8-0.4-1.7-1.3-2c-0.2-0.2-0.5-0.4-0.8-0.4c-1.2-0.2-15.3,1.5-15.3-7.8
			c-0.1-0.3,0.1-1.8-0.2-2c-0.7-0.4,0.7-6-0.3-5.4c-2.4,4.6-4,13.2-3.1,15.6C-208.5,404.2-189.8,406-189.9,399.6"/>
		<path class="st6" d="M-186.5,367.8c-1.6,5.3-7.1,8.3-12.4,6.8c-5.3-1.6-8.3-7.1-6.8-12.4c1.6-5.3,7.1-8.3,12.4-6.8
			C-188,356.9-184.9,362.5-186.5,367.8"/>
		<path class="st7" d="M-197.7,374.7c1,0,2-0.1,3-0.2l-0.1-0.1c0.3,0,0.5-0.1,0.8-0.1c3.1-0.7,7.3-3.3,6.7-6.8
			c-0.6-3.9-5.3-0.1-6.7,0.8c-1.5,1-3.5,1.3-5.3,0.9c-0.3-0.3-0.7-0.4-1-0.3c-1.9-0.7-3.5-2.3-3.8-4.4c-0.1-0.9-1.4-0.8-1.7-0.1
			c-0.6-0.6-1.8-0.1-1.5,0.8c0.1,0.4,0.2,0.7,0.4,1.1c-0.1,0.8,0.3,1.7,0.8,2.4c0.1,0.2,0.4,0.4,0.6,0.4c0,0.2,0,0.4,0.1,0.5
			c2,2.8,4.9,4.6,8.1,4.9C-197.5,374.6-197.6,374.6-197.7,374.7"/>
		<circle class="st4" cx="-196.4" cy="364.8" r="10"/>
		<path class="st2" d="M-189.6,377.8c0,0-0.3-0.8,1.8-4.5c4.2-7.1,4.1-13-2.7-16.6"/>
		<path class="st2" d="M-212.2,369.6c0,0,1.5,5.4,3.5-0.4c3.5-9.4,5.2-15,12.8-14.3"/>
		<path class="st2" d="M-206,379.1c2-0.6-9.3,21.1,21.5,11.3"/>
		<path class="st8" d="M-166.6,435.1c0,0-5-14.5,0.7-30.3"/>
		<path class="st8" d="M-176.5,435.5c0,0-5-14.5,0.7-30.3"/>
		<path class="st8" d="M-177.5,379.5c1.9-0.5-3.1,5.8-3.1,27.3"/>
		<path class="st9" d="M-166.1,378.1c1.6,2.9,4.1,4,6,11.8c0.7,3,0.9,5.8,0,10.4c-0.3,1.6-4.1,4.5-8.1,5.1c-2.1,0.4-4.6,0.1-8.1-0.4
			c-1.3-0.2-6.4-1.2-6.7-5c-0.3-2.9,1.2-4.9,2.5-9.3c1.1-3.8-0.3-6.5,4.4-13.3c4.7-6.7,4.3-6.6,4.3-6.6S-167.8,375.2-166.1,378.1"/>
		<path class="st9" d="M-179.9,383.9c0.7-1.5,1.7-2.9,2.4-4.4c0.4-0.8,0.9-2,1.8-2.3c0.2-0.1,0.4-0.2,0.6-0.3
			c-0.2-0.1-0.5-0.2-0.7-0.4c-0.3-0.1-0.5-0.3-0.8-0.5c1.5,0.4,3.1,0.8,4.4,1.7c-0.2,0-0.4-0.1-0.5-0.1c0.3,0.4,0.6,0.9,0.6,1.5
			c0,1.6-0.9,3.1-1.8,4.4c-1.5,2.2-2.5,4.1-2.8,6.8c-0.3,2.3,0,4.8,0.5,7c0.4,1.7,2.1,2.8,2.5,4.6c0.3,1.8-1.2,1.9-2.7,1.5
			c-0.4,0.1-0.8,0-1-0.3c-0.4-0.1-0.8-0.3-1-0.4c-2.9-1.4-3.9-3.9-4.1-6.8C-182.9,391.7-180.2,387.6-179.9,383.9"/>
		<path class="st10" d="M-165.7,378.1c1.6,2.9,4.1,4,6,11.8c0.7,3,0.9,5.8,0,10.4c-0.3,1.6-4.1,4.5-8.1,5.1
			c-2.1,0.4-4.6,0.1-8.1-0.4c-1.3-0.2-6.4-1.2-6.7-5c-0.3-2.9,0.6-6.3,1.9-10.8c1.1-3.8,0.3-5.1,5-11.8c4.7-6.7,4.3-6.6,4.3-6.6
			S-167.4,375.2-165.7,378.1z"/>
		<path class="st6" d="M-180.6,367.4c0,5.3,4.3,9.6,9.6,9.6s9.6-4.3,9.6-9.6c0-5.3-4.3-9.6-9.6-9.6
			C-176.3,357.9-180.6,362.2-180.6,367.4"/>
		<path class="st7" d="M-172.2,376.9c-0.9-0.3-1.8-0.6-2.7-1c0,0,0.1,0,0.1-0.1c-0.2-0.1-0.5-0.2-0.7-0.3c-2.7-1.5-5.8-5-4.3-8.1
			c1.6-3.4,4.9,1.3,5.9,2.6c1.1,1.4,2.9,2.1,4.6,2.3c0.4-0.2,0.7-0.2,1,0c2-0.1,3.8-1.1,4.7-3c0.4-0.8,1.5-0.4,1.6,0.4
			c0.7-0.3,1.7,0.4,1.2,1.2c-0.2,0.3-0.4,0.6-0.6,0.9c-0.2,0.8-0.7,1.5-1.4,2c-0.2,0.2-0.4,0.2-0.6,0.2c0,0.2-0.1,0.3-0.3,0.5
			c-2.6,2-5.7,2.9-8.8,2.3C-172.3,376.7-172.2,376.8-172.2,376.9"/>
		<circle class="st10" cx="-170.6" cy="367.4" r="9.6"/>
		<path class="st8" d="M-175.3,378.3c0,0,1.4,2.5,4.5,2.5c3,0,4-2.5,4-2.5"/>
		<g>
			<path class="st11" d="M-145.9,438.8c0,0-5.6-16.4,0.8-34.3"/>
			<path class="st11" d="M-134.7,438.4c0,0-5.6-16.4,0.8-34.3"/>
			<path class="st6" d="M-134.1,373.9c1.8,3.3,3.1,4.8,5.3,13.5c0.8,3.4,0.8,9.6-0.2,14.8c-0.4,1.8-2.8,1.8-7.4,2.6
				c-2.4,0.4-5.3,0.2-9.2-0.4c-1.4-0.2-7.2-1.4-7.6-5.7c-0.3-3.2-1.4-6.7,0-11.7c1.2-4.3,2.5-6.3,7.8-13.9c5.3-7.6,4.9-7.4,4.9-7.4
				S-136,370.5-134.1,373.9"/>
			<path class="st7" d="M-149.3,403.9c-7-2.6,1.7-8.6,3.1-14.3c1.1-4.2-1.5-4.2,1-7.8c1-1.5-0.7-4.1,0.2-5.7
				c0.7-1.3,1.8-0.6,2.8-1.7c2.8-3.1,5.9-3.5,7.5-1.4c2.5,3.5,4.5,3.6,4.5,7.9c0.1,5.2,3.5,19.3,2.4,21.6c-2,1.4-4.1,2.5-6.6,2.8
				C-139.3,406-144.8,405.6-149.3,403.9"/>
			<path class="st12" d="M-133.7,373.9c1.8,3.3,2.5,2.8,4.6,11.5c0.8,3.4,1,11.6,0,16.8c-0.4,1.8-2.4,1.8-7,2.6
				c-2.4,0.4-5.3,0.2-9.2-0.4c-1.4-0.2-7.2-1.4-7.6-5.7c-0.3-3.2-1.4-6.7,0-11.7c1.2-4.3,2.5-6.3,7.8-13.9c5.3-7.6,4.9-7.4,4.9-7.4
				S-135.6,370.5-133.7,373.9z"/>
			<path class="st6" d="M-150.5,361.8c0,6,4.8,10.8,10.8,10.8s10.8-4.8,10.8-10.8s-4.8-10.8-10.8-10.8S-150.5,355.8-150.5,361.8"/>
			<path class="st7" d="M-132.6,371.3c-1,0.5-1.9,1-2.9,1.4c0-0.1,0-0.1,0.1-0.2c-0.3,0.1-0.6,0.2-0.8,0.3c-3.4,1-8.6,0.7-9.9-3
				c-1.4-4.1,5-2.9,6.8-2.7c2,0.2,4-0.6,5.5-1.9c0.2-0.5,0.5-0.7,0.8-0.8c1.5-1.7,2.2-4,1.3-6.2c-0.4-1,0.9-1.5,1.6-1
				c0.3-0.8,1.7-1,1.9,0c0.1,0.4,0.1,0.8,0.2,1.2c0.5,0.8,0.6,1.8,0.5,2.7c0,0.3-0.2,0.5-0.3,0.7c0.1,0.2,0.2,0.4,0.2,0.6
				c-0.5,3.7-2.3,6.9-5.2,8.9C-132.8,371.3-132.7,371.3-132.6,371.3"/>
			<circle class="st12" cx="-139.3" cy="361.8" r="10.8"/>
			<path class="st11" d="M-146.2,353.5c0,0-3.2-0.1-3.2-2.5"/>
			<path class="st13" d="M-134.8,373c0,0-1.6,2.7-4.9,2.7c-3.3,0-4.4-2.7-4.4-2.7"/>
		</g>
		<path class="st8" d="M-165,359.8c0.9-0.7,4.1,0.7,4.4,2c0.2,0.8-1,1.8-0.9,2.7c0.3,1.6,2,1.6,3.2,2.1s1,1.6,0.3,3
			c-0.5,1-1.5,1.1-1,2.6c0.3,1,2.7,0.1,2.8,1.1c0.1,0.7-1.4,2.1-1.4,3"/>
		<path class="st8" d="M-161.6,370.6c-1.4-0.2-0.4,2.2,0.2,3.2c0.5,0.9,1.9,1.6,1.8,2.7c-0.2,1.3-2.6,1.1-1.8,2.6
			c0.5,1.2,1.5,0.4,2.8,1"/>
		<path class="st8" d="M-177.7,360.5c-1.7-0.1-3,1-4,2.5c-0.5,0.8-1.6,1.6-1.1,2.4c0.3,0.5,0.5,1.1,0.5,1.8c0.1,1.1-0.9,0.8-1.4,1.7
			s2.1,3.1,2,4"/>
		<path class="st8" d="M-178.5,372.5c-0.6,0-2,0.2-2.3,0.7c-0.7,1.3-0.2,2.1,0.2,3c0.5,1.1-1.3,0.5-2.4,0.1
			c-3.5,2.2,0.9,3.2,0.7,3.8"/>
		<path class="st8" d="M-174.7,358.6c-1.8-0.1-5.9,0.7-4.9-2.1"/>
		<path class="st8" d="M-174.3,353.4c-1.1,0.1,1.4,1.7,0.4,3.3c-1,1.6,2.9,1.5,4.7,1.8"/>
		<path class="st8" d="M-167.7,358.8c1.8-0.4,2.6-2.4,4.5-2.8c1.7-0.4,3.5,3.4,4.6,4.5"/>
		<path class="st14" d="M-175.7,424.9c0,0.9-0.7,1.6-1.6,1.6h-2.8c-0.9,0-1.6-0.7-1.6-1.6l0,0c0-0.9,0.7-1.6,1.6-1.6h2.8
			C-176.4,423.2-175.7,424-175.7,424.9L-175.7,424.9z"/>
		<path class="st14" d="M-165.2,424.6c0,0.9-0.7,1.6-1.6,1.6h-2.8c-0.9,0-1.6-0.7-1.6-1.6l0,0c0-0.9,0.7-1.6,1.6-1.6h2.8
			C-166,422.9-165.2,423.7-165.2,424.6L-165.2,424.6z"/>
		<ellipse class="st14" cx="-193.3" cy="366.3" rx="1.1" ry="1.2"/>
		<ellipse class="st14" cx="-188.5" cy="366.8" rx="0.8" ry="1.1"/>
		<path class="st15" d="M-191.2,371c0,0-2.6,1-3.3,0.4"/>
		<line class="st15" x1="-148.6" y1="367.7" x2="-145.5" y2="366.8"/>
		<ellipse class="st14" cx="-147.4" cy="361.8" rx="0.9" ry="1.3"/>
		<path class="st14" d="M-174,368.8c0,0.2-0.2,0.1-0.9,0.1c-0.6,0-1.4,0.1-1.4-0.1s0.5-0.3,1.1-0.3
			C-174.5,368.5-174,368.6-174,368.8z"/>
		<path class="st14" d="M-167.1,368.8c0,0.2-0.2,0.1-0.9,0.1c-0.6,0-1.4,0.1-1.4-0.1s0.5-0.3,1.1-0.3
			C-167.7,368.5-167.1,368.6-167.1,368.8z"/>
		<path class="st14" d="M-173.2,373.1c0,0,1.2-1.5,3.5-1.2s3.2,1.6,2,1.5c-1.2-0.1-2.4-0.6-3-0.3s-1.1,0.9-1.9,0.7
			C-173.4,373.6-173.2,373.1-173.2,373.1z"/>
		<path class="st14" d="M-174.2,368.2c0,0.6-0.2,0.4-0.9,0.4c-0.6,0-1.4,0.3-1.4-0.4c0-0.6,0.5-1.1,1.1-1.1
			C-174.7,367.1-174.2,367.6-174.2,368.2z"/>
		<path class="st14" d="M-167.3,368.3c0,0.6-0.2,0.4-0.9,0.4c-0.6,0-1.4,0.3-1.4-0.4c0-0.6,0.5-1.1,1.1-1.1
			C-167.9,367.1-167.3,367.7-167.3,368.3z"/>
		<path class="st8" d="M-167,379.1c-1.9-0.5,11.8,21.9,2.8,29.8"/>
	</g>
	<g>
		<g>
			<ellipse class="st16" cx="-172.9" cy="388.5" rx="0.8" ry="1.5"/>
			<ellipse class="st16" cx="-172.9" cy="395" rx="0.8" ry="1.5"/>
		</g>
		<g>
			<ellipse class="st16" cx="-169.4" cy="391.9" rx="1.5" ry="0.8"/>
			<ellipse class="st16" cx="-175.9" cy="391.9" rx="1.5" ry="0.8"/>
		</g>
		<g>
			
				<ellipse transform="matrix(-0.7235 -0.6903 0.6903 -0.7235 -566.3859 561.559)" class="st16" cx="-170.7" cy="394.2" rx="1.5" ry="0.8"/>
			
				<ellipse transform="matrix(-0.7238 -0.69 0.69 -0.7238 -571.2104 550.7947)" class="st16" cx="-175.4" cy="389.7" rx="1.5" ry="0.8"/>
		</g>
		<g>
			
				<ellipse transform="matrix(-0.7174 0.6966 -0.6966 -0.7174 -21.3611 787.9844)" class="st16" cx="-170.5" cy="389.7" rx="1.5" ry="0.8"/>
			
				<ellipse transform="matrix(-0.7174 0.6967 -0.6967 -0.7174 -26.1332 798.8945)" class="st16" cx="-175.1" cy="394.1" rx="1.5" ry="0.8"/>
		</g>
		<circle class="st17" cx="-172.7" cy="391.9" r="1.3"/>
	</g>
</g>
<path class="st2" d="M-212.2,355.3c0,0,1.5-1.1,2.4,0.8c0.9,1.9,0.9,1.9,3.6,2.2c1.8,0.2,3.6-0.9,3.8-0.6"/>
<path class="st2" d="M-195.9,355.5c0,0,0.2-4.6,2.8-3.1c3.8,2.2,3.2-0.1,3.8-1c0.6-0.9,0.7-1.9,1.8-1.5"/>
<path class="st2" d="M-189.9,357.6c0,0-0.1-1.8,2.6-1.3s2.6,0.2,3.1-0.8c0.5-1.1,1.4-1.3,1.9-1.3"/>
<path class="st2" d="M-199,355.6c0,0-1.5-3.9-3.1-2.4s-2.8-2-2.6-3.1c0.6-2.9-2.3-1.6-2-0.6"/>
<path class="st2" d="M-191.8,355.6c0.1-0.3,0.5,2.9,3.6,2.7c3.1-0.3,2.4,2.7,1.7,4.9s1,4.3,2.2,4.4c1.2,0.1,0.2,4.7-1.1,5.1"/>
<path class="st2" d="M-141,351c0,0-6.5,2.1-5.6-2.3"/>
<path class="st11" d="M-145,378c0.7,4,2.8,20.2-12.8,15.1"/>
<path class="st18" d="M-153.2,416.6c0,0-1.8,9.3-0.6,11.3c1.1,2,49.5,0.9,51.2,0.7c1.6-0.3,2.6-7.9,1-13.6
	c-1.6-5.7-49.7-0.4-49.7-0.4"/>
<g>
	<path class="st14" d="M-148.5,421.4c0,0.3,0,0.6-0.1,0.9s-0.2,0.5-0.4,0.8c-0.2,0.2-0.4,0.4-0.8,0.5c-0.3,0.1-0.7,0.2-1.2,0.2h-1
		c-0.1,0-0.2,0-0.3-0.1c-0.1-0.1-0.1-0.2-0.1-0.3v-5.5c0-0.1,0-0.2,0.1-0.3c0.1-0.1,0.2-0.1,0.3-0.1h1c0.5,0,0.8,0.1,1.2,0.2
		c0.3,0.1,0.6,0.3,0.8,0.5c0.2,0.2,0.3,0.5,0.4,0.7c0.1,0.3,0.1,0.6,0.1,0.9V421.4z M-149.2,419.7c0-0.2,0-0.4-0.1-0.6
		c-0.1-0.2-0.1-0.4-0.3-0.5c-0.1-0.1-0.3-0.3-0.5-0.3c-0.2-0.1-0.4-0.1-0.7-0.1h-0.9v5h0.9c0.3,0,0.5,0,0.7-0.1s0.4-0.2,0.5-0.4
		c0.1-0.2,0.2-0.3,0.3-0.5s0.1-0.4,0.1-0.7V419.7z"/>
	<path class="st14" d="M-146,423.2c0.2,0,0.4,0,0.5-0.1s0.3-0.1,0.4-0.2c0,0,0,0,0,0c0,0,0,0,0.1,0c0.1,0,0.2,0,0.2,0.1
		c0.1,0.1,0.1,0.1,0.1,0.2c0,0.1-0.1,0.2-0.2,0.3c-0.1,0.1-0.2,0.1-0.4,0.2c-0.2,0-0.3,0.1-0.5,0.1c-0.2,0-0.3,0-0.4,0
		c-0.3,0-0.5,0-0.7-0.1c-0.2-0.1-0.4-0.2-0.5-0.3c-0.1-0.1-0.2-0.3-0.3-0.5c-0.1-0.2-0.1-0.4-0.1-0.6v-1.7c0-0.2,0-0.4,0.1-0.6
		c0.1-0.2,0.2-0.3,0.3-0.5c0.1-0.1,0.3-0.2,0.5-0.3c0.2-0.1,0.4-0.1,0.7-0.1c0.5,0,0.9,0.1,1.1,0.4c0.2,0.3,0.4,0.6,0.4,1.1
		c0,0.4-0.1,0.7-0.4,1s-0.6,0.4-1.2,0.4c-0.1,0-0.3,0-0.4,0c-0.2,0-0.3,0-0.5-0.1v0.5c0,0.3,0.1,0.5,0.2,0.6
		C-146.6,423.1-146.3,423.2-146,423.2z M-145.3,420.6c0-0.3-0.1-0.5-0.2-0.6c-0.1-0.1-0.3-0.2-0.6-0.2c-0.3,0-0.5,0.1-0.7,0.2
		c-0.2,0.1-0.2,0.3-0.2,0.6v0.7c0.2,0,0.3,0,0.5,0c0.2,0,0.3,0,0.4,0c0.2,0,0.3,0,0.4-0.1c0.1,0,0.2-0.1,0.2-0.2
		c0.1-0.1,0.1-0.1,0.1-0.2C-145.3,420.7-145.3,420.7-145.3,420.6z"/>
	<path class="st14" d="M-143.7,420.4c0-0.4,0.1-0.7,0.4-0.9s0.6-0.4,1.1-0.4c0.1,0,0.2,0,0.4,0c0.1,0,0.3,0,0.4,0.1s0.2,0.1,0.3,0.2
		c0.1,0.1,0.1,0.1,0.1,0.2c0,0.1,0,0.2-0.1,0.2c-0.1,0.1-0.1,0.1-0.2,0.1c0,0-0.1,0-0.2,0c-0.1,0-0.2-0.1-0.3-0.1s-0.2,0-0.4,0
		c-0.5,0-0.8,0.2-0.8,0.6c0,0.1,0,0.2,0.1,0.3c0.1,0.1,0.2,0.2,0.3,0.2c0.2,0.1,0.3,0.1,0.5,0.2c0.2,0.1,0.4,0.1,0.5,0.2
		c0.2,0.1,0.3,0.2,0.4,0.4c0.1,0.2,0.2,0.4,0.2,0.7c0,0.4-0.1,0.7-0.4,1s-0.6,0.4-1.1,0.4c-0.1,0-0.2,0-0.4,0c-0.2,0-0.3,0-0.4-0.1
		c-0.1,0-0.3-0.1-0.3-0.2c-0.1-0.1-0.1-0.2-0.1-0.3c0-0.1,0-0.2,0.1-0.2c0.1-0.1,0.1-0.1,0.2-0.1c0,0,0,0,0.1,0s0,0,0,0
		c0.1,0,0.3,0.1,0.4,0.1c0.1,0,0.3,0.1,0.5,0.1c0.3,0,0.5-0.1,0.6-0.2c0.2-0.1,0.2-0.3,0.2-0.5c0-0.2,0-0.3-0.1-0.4
		c-0.1-0.1-0.1-0.1-0.2-0.2c-0.1-0.1-0.3-0.1-0.5-0.2c-0.2-0.1-0.4-0.1-0.6-0.2c-0.2-0.1-0.3-0.2-0.5-0.4S-143.7,420.7-143.7,420.4z
		"/>
	<path class="st14" d="M-134.9,420.6c0-0.3-0.1-0.5-0.2-0.6c-0.1-0.2-0.3-0.3-0.6-0.3c-0.2,0-0.4,0-0.6,0.1
		c-0.2,0.1-0.3,0.2-0.4,0.3c0,0.1,0,0.3,0,0.4v2.8c0,0.1,0,0.2-0.1,0.2c-0.1,0.1-0.1,0.1-0.3,0.1s-0.2,0-0.3-0.1
		c-0.1-0.1-0.1-0.1-0.1-0.2v-2.6c0-0.2,0-0.3,0-0.4c0-0.1-0.1-0.2-0.1-0.3c-0.1-0.1-0.1-0.2-0.2-0.2c-0.1-0.1-0.2-0.1-0.4-0.1
		c-0.2,0-0.4,0-0.6,0.1s-0.3,0.2-0.5,0.3c0,0.1,0,0.2,0,0.3v3.1c0,0.1,0,0.2-0.1,0.2c-0.1,0.1-0.1,0.1-0.3,0.1s-0.2,0-0.3-0.1
		c-0.1-0.1-0.1-0.1-0.1-0.2v-3.1c0-0.1,0-0.2,0-0.3c0-0.1,0-0.1,0-0.2s0-0.1-0.1-0.1c0,0,0,0-0.1-0.1c0,0,0,0,0-0.1c0,0,0-0.1,0-0.1
		c0-0.1,0-0.2,0.1-0.2c0.1-0.1,0.1-0.1,0.2-0.1c0.1,0,0.1,0,0.2,0.1c0.1,0,0.1,0.1,0.2,0.2c0.2-0.1,0.4-0.2,0.6-0.3
		c0.2-0.1,0.5-0.1,0.7-0.1c0.3,0,0.5,0,0.6,0.1c0.2,0.1,0.3,0.2,0.4,0.3c0.2-0.1,0.4-0.3,0.6-0.3c0.2-0.1,0.4-0.1,0.7-0.1
		c0.5,0,0.9,0.1,1.1,0.4c0.3,0.3,0.4,0.7,0.4,1.1v2.8c0,0.1,0,0.2-0.1,0.2c-0.1,0.1-0.1,0.1-0.3,0.1s-0.2,0-0.3-0.1
		c-0.1-0.1-0.1-0.1-0.1-0.2V420.6z"/>
	<path class="st14" d="M-131.5,423.8c-0.3,0-0.5,0-0.7-0.1c-0.2-0.1-0.4-0.2-0.5-0.3c-0.1-0.1-0.2-0.3-0.3-0.5
		c-0.1-0.2-0.1-0.4-0.1-0.6v-1.5c0-0.2,0-0.4,0.1-0.6c0.1-0.2,0.2-0.4,0.3-0.5c0.1-0.1,0.3-0.3,0.5-0.3c0.2-0.1,0.5-0.1,0.7-0.1
		s0.5,0,0.7,0.1c0.2,0.1,0.4,0.2,0.5,0.3c0.1,0.1,0.2,0.3,0.3,0.5c0.1,0.2,0.1,0.4,0.1,0.6v1.5c0,0.2,0,0.4-0.1,0.6
		c-0.1,0.2-0.2,0.4-0.3,0.5c-0.1,0.1-0.3,0.3-0.5,0.3C-131,423.8-131.2,423.8-131.5,423.8z M-131.5,423.2c0.3,0,0.6-0.1,0.7-0.3
		s0.2-0.4,0.2-0.7v-1.5c0-0.3-0.1-0.5-0.2-0.7s-0.4-0.3-0.7-0.3s-0.6,0.1-0.7,0.3s-0.2,0.4-0.2,0.7v1.5c0,0.3,0.1,0.5,0.2,0.7
		S-131.8,423.2-131.5,423.2z"/>
	<path class="st14" d="M-128.7,418.1c0-0.1,0-0.2,0.1-0.2c0.1-0.1,0.1-0.1,0.3-0.1c0.1,0,0.2,0,0.3,0.1c0.1,0.1,0.1,0.1,0.1,0.2v1.2
		h0.9c0.1,0,0.2,0,0.2,0.1c0.1,0.1,0.1,0.1,0.1,0.2c0,0.1,0,0.2-0.1,0.2c-0.1,0.1-0.1,0.1-0.2,0.1h-0.9v1.8c0,0.2,0,0.4,0,0.6
		c0,0.2,0,0.3,0.1,0.4s0.1,0.2,0.2,0.2s0.2,0.1,0.4,0.1c0,0,0.1,0,0.1,0s0.1,0,0.1,0c0.1,0,0.1,0,0.2,0c0.1,0,0.1,0,0.1,0
		s0.1,0.1,0.1,0.1c0,0,0,0.1,0,0.2c0,0.1,0,0.1,0,0.2c0,0-0.1,0.1-0.1,0.1c0,0-0.1,0-0.2,0c-0.1,0-0.1,0-0.2,0c-0.3,0-0.6,0-0.8-0.1
		s-0.4-0.2-0.5-0.4c-0.1-0.2-0.2-0.3-0.2-0.6c0-0.2-0.1-0.5-0.1-0.8V418.1z"/>
	<path class="st14" d="M-125,417.7c0,0.1,0,0.2-0.1,0.3s-0.2,0.1-0.3,0.1s-0.2,0-0.3-0.1s-0.1-0.2-0.1-0.3c0-0.1,0-0.2,0.1-0.3
		s0.2-0.1,0.3-0.1s0.2,0,0.3,0.1S-125,417.6-125,417.7z M-125.1,423.4c0,0.1,0,0.2-0.1,0.3c-0.1,0.1-0.1,0.1-0.3,0.1
		c-0.1,0-0.2,0-0.3-0.1c-0.1-0.1-0.1-0.1-0.1-0.3v-4c0-0.1,0-0.2,0.1-0.2c0.1-0.1,0.2-0.1,0.3-0.1c0.1,0,0.2,0,0.3,0.1
		c0.1,0.1,0.1,0.2,0.1,0.2V423.4z"/>
	<path class="st14" d="M-122,423.4c0,0.2-0.1,0.3-0.2,0.3c-0.1,0.1-0.2,0.1-0.3,0.1s-0.2,0-0.3-0.1c-0.1-0.1-0.1-0.2-0.2-0.3
		l-1.3-3.8c0-0.1,0-0.2,0.1-0.3c0.1-0.1,0.2-0.1,0.3-0.1c0.1,0,0.1,0,0.2,0.1s0.1,0.1,0.1,0.2l1.1,3.4l1-3.4c0-0.1,0.1-0.1,0.1-0.2
		c0.1,0,0.1-0.1,0.2-0.1c0.1,0,0.2,0,0.3,0.1c0.1,0.1,0.1,0.2,0.1,0.3L-122,423.4z"/>
	<path class="st14" d="M-117.8,420.7c0-0.6-0.3-1-1-1c-0.2,0-0.3,0-0.4,0.1c-0.1,0-0.2,0.1-0.3,0.1c0,0,0,0-0.1,0c0,0-0.1,0-0.1,0
		c-0.1,0-0.1,0-0.2-0.1c0-0.1-0.1-0.1-0.1-0.2c0-0.1,0-0.2,0.1-0.3c0.1-0.1,0.2-0.1,0.3-0.2s0.3-0.1,0.4-0.1c0.2,0,0.3,0,0.5,0
		c0.6,0,1,0.2,1.2,0.5c0.2,0.3,0.4,0.8,0.4,1.4v2c0,0.2,0.1,0.3,0.2,0.3c0,0,0,0,0,0c0,0,0,0,0,0c0.1,0,0.1,0,0.2,0.1
		c0,0.1,0.1,0.1,0.1,0.2c0,0.1,0,0.2-0.1,0.2s-0.2,0.1-0.3,0.1c-0.2,0-0.3,0-0.4-0.1c-0.1-0.1-0.2-0.2-0.3-0.3
		c-0.3,0.3-0.8,0.5-1.2,0.5c-0.5,0-0.8-0.1-1-0.4c-0.2-0.2-0.3-0.6-0.3-1v0c0-0.9,0.5-1.3,1.6-1.3c0.3,0,0.6,0,0.9,0.1V420.7z
		 M-118.7,421.7c-0.2,0-0.3,0-0.5,0.1c-0.1,0-0.2,0.1-0.3,0.2c-0.1,0.1-0.1,0.1-0.1,0.2c0,0.1,0,0.2,0,0.3v0c0,0.2,0.1,0.4,0.2,0.5
		c0.1,0.1,0.3,0.2,0.6,0.2c0.2,0,0.4,0,0.5-0.1c0.2-0.1,0.3-0.2,0.5-0.3v-1c-0.2,0-0.3-0.1-0.5-0.1
		C-118.4,421.7-118.5,421.7-118.7,421.7z"/>
	<path class="st14" d="M-115.9,420.8c0-0.2,0-0.5,0.1-0.7c0.1-0.2,0.2-0.4,0.3-0.5c0.1-0.1,0.3-0.3,0.5-0.4s0.4-0.1,0.7-0.1
		c0.1,0,0.2,0,0.4,0c0.1,0,0.3,0,0.4,0.1s0.2,0.1,0.3,0.2c0.1,0.1,0.1,0.2,0.1,0.3c0,0.1,0,0.2-0.1,0.2c-0.1,0.1-0.1,0.1-0.2,0.1
		c0,0-0.1,0-0.1,0c-0.1-0.1-0.2-0.1-0.3-0.1s-0.2-0.1-0.4-0.1c-0.4,0-0.6,0.1-0.8,0.3c-0.2,0.2-0.2,0.4-0.2,0.8v1.4
		c0,0.3,0.1,0.6,0.2,0.8c0.1,0.2,0.4,0.3,0.8,0.3c0.2,0,0.3,0,0.4-0.1s0.2-0.1,0.3-0.1c0.1,0,0.1,0,0.1,0c0.1,0,0.2,0,0.2,0.1
		c0.1,0.1,0.1,0.1,0.1,0.2c0,0.1,0,0.2-0.1,0.3c-0.1,0.1-0.2,0.1-0.3,0.2s-0.3,0.1-0.4,0.1c-0.1,0-0.3,0-0.4,0c-0.3,0-0.5,0-0.7-0.1
		s-0.4-0.2-0.5-0.4c-0.1-0.1-0.2-0.3-0.3-0.5c-0.1-0.2-0.1-0.4-0.1-0.7V420.8z"/>
	<path class="st14" d="M-111.3,417.7c0,0.1,0,0.2-0.1,0.3s-0.2,0.1-0.3,0.1s-0.2,0-0.3-0.1s-0.1-0.2-0.1-0.3c0-0.1,0-0.2,0.1-0.3
		s0.2-0.1,0.3-0.1s0.2,0,0.3,0.1S-111.3,417.6-111.3,417.7z M-111.3,423.4c0,0.1,0,0.2-0.1,0.3c-0.1,0.1-0.1,0.1-0.3,0.1
		c-0.1,0-0.2,0-0.3-0.1c-0.1-0.1-0.1-0.1-0.1-0.3v-4c0-0.1,0-0.2,0.1-0.2c0.1-0.1,0.2-0.1,0.3-0.1c0.1,0,0.2,0,0.3,0.1
		c0.1,0.1,0.1,0.2,0.1,0.2V423.4z"/>
	<path class="st14" d="M-108.5,423.8c-0.3,0-0.5,0-0.7-0.1c-0.2-0.1-0.4-0.2-0.5-0.3c-0.1-0.1-0.2-0.3-0.3-0.5
		c-0.1-0.2-0.1-0.4-0.1-0.6v-1.5c0-0.2,0-0.4,0.1-0.6c0.1-0.2,0.2-0.4,0.3-0.5c0.1-0.1,0.3-0.3,0.5-0.3c0.2-0.1,0.5-0.1,0.7-0.1
		s0.5,0,0.7,0.1c0.2,0.1,0.4,0.2,0.5,0.3c0.1,0.1,0.2,0.3,0.3,0.5c0.1,0.2,0.1,0.4,0.1,0.6v1.5c0,0.2,0,0.4-0.1,0.6
		c-0.1,0.2-0.2,0.4-0.3,0.5c-0.1,0.1-0.3,0.3-0.5,0.3C-108,423.8-108.2,423.8-108.5,423.8z M-108.5,423.2c0.3,0,0.6-0.1,0.7-0.3
		s0.2-0.4,0.2-0.7v-1.5c0-0.3-0.1-0.5-0.2-0.7s-0.4-0.3-0.7-0.3s-0.6,0.1-0.7,0.3s-0.2,0.4-0.2,0.7v1.5c0,0.3,0.1,0.5,0.2,0.7
		S-108.8,423.2-108.5,423.2z M-108.4,417.4c0.1-0.1,0.1-0.1,0.2-0.1c0,0,0.1-0.1,0.2-0.1c0.1,0,0.1,0,0.2,0.1
		c0.1,0.1,0.1,0.1,0.1,0.2c0,0,0,0,0,0.1s0,0.1,0,0.1l-0.7,0.8c-0.1,0-0.1,0.1-0.1,0.1s-0.1,0-0.1,0c-0.1,0-0.2,0-0.2-0.1
		c-0.1-0.1-0.1-0.1-0.1-0.2c0-0.1,0-0.1,0-0.1L-108.4,417.4z"/>
	<path class="st14" d="M-105,423.4c0,0.1,0,0.2-0.1,0.2c-0.1,0.1-0.1,0.1-0.3,0.1s-0.2,0-0.3-0.1c-0.1-0.1-0.1-0.1-0.1-0.2v-3.1
		c0-0.1,0-0.2,0-0.3c0-0.1,0-0.1,0-0.2s0-0.1-0.1-0.1c0,0,0,0-0.1-0.1c0,0,0,0,0-0.1c0,0,0-0.1,0-0.1c0-0.1,0-0.2,0.1-0.2
		c0.1-0.1,0.1-0.1,0.2-0.1c0.1,0,0.2,0,0.2,0.1c0.1,0,0.1,0.1,0.2,0.2c0.2-0.1,0.4-0.2,0.6-0.3c0.2-0.1,0.4-0.1,0.7-0.1
		c0.5,0,0.8,0.2,1.1,0.5c0.2,0.3,0.4,0.7,0.4,1.2v2.6c0,0.1,0,0.2-0.1,0.2c-0.1,0.1-0.1,0.1-0.3,0.1s-0.2,0-0.3-0.1
		c-0.1-0.1-0.1-0.1-0.1-0.2v-2.6c0-0.3-0.1-0.6-0.2-0.8s-0.3-0.3-0.6-0.3c-0.2,0-0.3,0-0.5,0.1c-0.2,0.1-0.3,0.2-0.5,0.3
		c0,0.1,0,0.2,0,0.3V423.4z"/>
</g>
</svg>
