<?xml version="1.0" encoding="utf-8"?>
<!-- Generator: Adobe Illustrator 19.0.0, SVG Export Plug-In . SVG Version: 6.00 Build 0)  -->
<svg version="1.1" id="Capa_1" xmlns="http://www.w3.org/2000/svg" xmlns:xlink="http://www.w3.org/1999/xlink" x="0px" y="0px"
	 viewBox="-236 347.3 138 98.7" style="enable-background:new -236 347.3 138 98.7;" xml:space="preserve">
<style type="text/css">
	.st0{opacity:0.5;fill:#004966;enable-background:new    ;}
	.st1{fill:#C7C5D0;}
	.st2{fill:none;stroke:#004966;stroke-width:1.2013;stroke-linecap:round;stroke-miterlimit:10;}
	.st3{fill:#A50EDD;}
	.st4{fill:none;stroke:#004966;stroke-width:1.2013;stroke-miterlimit:10;}
	.st5{fill:#7804BC;}
	.st6{fill:#FFFFFF;}
	.st7{fill:#DFDEE4;}
	.st8{fill:none;stroke:#004966;stroke-width:1.1521;stroke-linecap:round;stroke-miterlimit:10;}
	.st9{fill:#DD2D5C;}
	.st10{fill:none;stroke:#004966;stroke-width:1.1521;stroke-miterlimit:10;}
	.st11{fill:none;stroke:#004966;stroke-width:1.3043;stroke-linecap:round;stroke-miterlimit:10;}
	.st12{fill:none;stroke:#004966;stroke-width:1.3043;stroke-miterlimit:10;}
	.st13{fill:none;stroke:#004966;stroke-width:1.2654;stroke-linecap:round;stroke-miterlimit:10;}
	.st14{fill:#004966;}
	.st15{fill:none;stroke:#004966;stroke-width:0.5;stroke-linecap:round;stroke-miterlimit:10;}
	.st16{opacity:0.3;fill:#DFDEE4;enable-background:new    ;}
	.st17{fill:#64AC28;}
	.st18{fill:#FFFFFF;stroke:#004966;stroke-width:0.75;stroke-linecap:round;stroke-miterlimit:10;}
</style>
<path class="st0" d="M-105.3,416.2h-36.4v-22c1.3-0.6,2.3-2,2.3-3.6c0-2.2-1.8-4-4-4h-30.1c0.2-0.7,0.4-1.5,0.4-2.3
	c0-4.3-3.5-7.9-7.9-7.9h-13.6c-3.7,0-6.9,2.6-7.7,6.1H-218v-8.4c0-2.3-1.8-4.1-4.1-4.1s-4.1,1.8-4.1,4.1v38.4c0,1.6,0.9,3,2.3,3.6
	h-5.1c-0.7,0-1.2,0.5-1.2,1.2s0.5,1.2,1.2,1.2h123.8c0.7,0,1.2-0.5,1.2-1.2C-104.1,416.7-104.6,416.2-105.3,416.2z M-145.6,397.6
	v18.5h-18.3v-18.5H-145.6z M-167.2,394.5v21.6h-2.3v-21.6H-167.2z M-173.5,398.3v17.8h-18.3v-17.8H-173.5z M-195,392.1v24.1h-1.3
	V392C-195.9,392-195.5,392.1-195,392.1z M-217.3,393.4h16.2v22.8h-16.2V393.4z"/>
<ellipse class="st1" cx="-196.9" cy="436.5" rx="19.8" ry="5.1"/>
<ellipse class="st1" cx="-166.8" cy="440.2" rx="19.8" ry="5.1"/>
<ellipse class="st1" cx="-138" cy="437.3" rx="19.8" ry="5.1"/>
<g>
	<g>
		<path class="st2" d="M-191.2,375.6c-2-0.5,19.3,2,26.9,5.8"/>
		<path class="st2" d="M-204.3,434.7c0,0,5.3-18.5-0.6-34.9"/>
		<path class="st2" d="M-193.9,435c0,0,4.2-18.8-1.7-35.3"/>
		<path class="st3" d="M-202.7,374.4c-2,2.8-4.8,3.7-7.7,11.4c-1.1,3.1-1.7,5.9-1.3,10.7c0.1,1.7,3.6,5.1,7.7,6.3
			c2.2,0.6,4.8,0.7,8.5,0.6c1.3,0,6.8-0.5,7.6-4.4c0.6-2.9,2-6,1.3-10.7c-0.6-4-1.6-6-5.6-13.5s-3.6-7.3-3.6-7.3
			S-200.6,371.6-202.7,374.4"/>
		<path class="st4" d="M-203,374.4c-2,2.8-4.8,3.7-7.7,11.5c-1.1,3.1-1.7,5.9-1.3,10.7c0.1,1.7,3.6,5.1,7.7,6.3
			c2.2,0.6,4.8,0.7,8.5,0.6c1.3,0,6.8-0.5,7.6-4.4c0.6-2.9,2-6,1.3-10.7c-0.6-4-1.6-6-5.6-13.5s-3.6-7.3-3.6-7.3
			S-200.9,371.5-203,374.4z"/>
		<path class="st5" d="M-189.3,382.1c-0.6-1.7-1.4-3.2-2-4.9c-0.3-0.9-0.7-2.2-1.6-2.6c-0.2-0.2-0.4-0.3-0.6-0.4
			c0.3-0.1,0.5-0.2,0.8-0.3s0.6-0.2,0.9-0.4c-1.6,0.2-3.3,0.4-4.7,1.2c0.2,0,0.4,0,0.6,0c-0.4,0.4,2.4-0.3,2.3,0.4
			c-0.2,1.7,0.5,3.3,1.3,4.8c1,2.1,2,5.7,0.7,7.3c-1.9,2.3-7.9,0.5-10.7-0.7c-6.8-3-1.4,4.7,1.2,5.3c3,0.7,5.1,0.3,8.2,0.1
			c7.1-0.2,4.5,3.1,4.6,2.8C-187.1,391.5-187.8,386.2-189.3,382.1"/>
		<path class="st5" d="M-190,398.9c0.1-0.8-0.4-1.7-1.3-2c-0.2-0.2-0.5-0.4-0.8-0.4c-1.2-0.2-15.3,1.5-15.3-7.8
			c-0.1-0.3,0.1-1.8-0.2-2c-0.7-0.4,0.7-6-0.3-5.4c-2.4,4.6-4,13.2-3.1,15.6C-208.6,403.5-189.9,405.3-190,398.9"/>
		<path class="st6" d="M-186.6,367.1c-1.6,5.3-7.1,8.3-12.4,6.8c-5.3-1.6-8.3-7.1-6.8-12.4c1.6-5.3,7.1-8.3,12.4-6.8
			C-188.1,356.2-185,361.8-186.6,367.1"/>
		<path class="st7" d="M-197.8,374c1,0,2-0.1,3-0.2l-0.1-0.1c0.3,0,0.5-0.1,0.8-0.1c3.1-0.7,7.3-3.3,6.7-6.8
			c-0.6-3.9-5.3-0.1-6.7,0.8c-1.5,1-3.5,1.3-5.3,0.9c-0.3-0.3-0.7-0.4-1-0.3c-1.9-0.7-3.5-2.3-3.8-4.4c-0.1-0.9-1.4-0.8-1.7-0.1
			c-0.6-0.6-1.8-0.1-1.5,0.8c0.1,0.4,0.2,0.7,0.4,1.1c-0.1,0.8,0.3,1.7,0.8,2.4c0.1,0.2,0.4,0.4,0.6,0.4c0,0.2,0,0.4,0.1,0.5
			c2,2.8,4.9,4.6,8.1,4.9C-197.6,373.9-197.7,373.9-197.8,374"/>
		<circle class="st4" cx="-196.5" cy="364.1" r="10"/>
		<path class="st2" d="M-189.7,377.1c0,0-0.3-0.8,1.8-4.5c4.2-7.1,4.1-13-2.7-16.6"/>
		<path class="st2" d="M-212.3,368.9c0,0,2,3.6,3.5-0.4c3.5-9.4,5.2-15,12.8-14.3"/>
		<path class="st2" d="M-206.1,378.4c2-0.6-9.3,21.1,21.5,11.3"/>
		<path class="st8" d="M-166.7,434.4c0,0-5-14.5,0.7-30.3"/>
		<path class="st8" d="M-176.6,434.8c0,0-5-14.5,0.7-30.3"/>
		<path class="st8" d="M-177.6,378.8c1.9-0.5-3.1,5.8-3.1,27.3"/>
		<path class="st9" d="M-166.2,377.4c1.6,2.9,4.1,4,6,11.8c0.7,3,0.9,5.8,0,10.4c-0.3,1.6-4.1,4.5-8.1,5.1c-2.1,0.4-4.6,0.1-8.1-0.4
			c-1.3-0.2-6.4-1.2-6.7-5c-0.3-2.9,1.2-4.9,2.5-9.3c1.1-3.8-0.3-6.5,4.4-13.3c4.7-6.7,4.3-6.6,4.3-6.6S-167.9,374.5-166.2,377.4"/>
		<path class="st9" d="M-180,383.2c0.7-1.5,1.7-2.9,2.4-4.4c0.4-0.8,0.9-2,1.8-2.3c0.2-0.1,0.4-0.2,0.6-0.3
			c-0.2-0.1-0.5-0.2-0.7-0.4c-0.3-0.1-0.5-0.3-0.8-0.5c1.5,0.4,3.1,0.8,4.4,1.7c-0.2,0-0.4-0.1-0.5-0.1c0.3,0.4,0.6,0.9,0.6,1.5
			c0,1.6-0.9,3.1-1.8,4.4c-1.5,2.2-2.5,4.1-2.8,6.8c-0.3,2.3,0,4.8,0.5,7c0.4,1.7,2.1,2.8,2.5,4.6c0.3,1.8-1.2,1.9-2.7,1.5
			c-0.4,0.1-0.8,0-1-0.3c-0.4-0.1-0.8-0.3-1-0.4c-2.9-1.4-3.9-3.9-4.1-6.8C-183,391-180.3,386.9-180,383.2"/>
		<path class="st10" d="M-165.8,377.4c1.6,2.9,4.1,4,6,11.8c0.7,3,0.9,5.8,0,10.4c-0.3,1.6-4.1,4.5-8.1,5.1
			c-2.1,0.4-4.6,0.1-8.1-0.4c-1.3-0.2-6.4-1.2-6.7-5c-0.3-2.9,0.6-6.3,1.9-10.8c1.1-3.8,0.3-5.1,5-11.8s4.3-6.6,4.3-6.6
			S-167.5,374.5-165.8,377.4z"/>
		<path class="st6" d="M-180.7,366.7c0,5.3,4.3,9.6,9.6,9.6s9.6-4.3,9.6-9.6s-4.3-9.6-9.6-9.6C-176.4,357.2-180.7,361.5-180.7,366.7
			"/>
		<path class="st7" d="M-172.3,376.2c-0.9-0.3-1.8-0.6-2.7-1c0,0,0.1,0,0.1-0.1c-0.2-0.1-0.5-0.2-0.7-0.3c-2.7-1.5-5.8-5-4.3-8.1
			c1.6-3.4,4.9,1.3,5.9,2.6c1.1,1.4,2.9,2.1,4.6,2.3c0.4-0.2,0.7-0.2,1,0c2-0.1,3.8-1.1,4.7-3c0.4-0.8,1.5-0.4,1.6,0.4
			c0.7-0.3,1.7,0.4,1.2,1.2c-0.2,0.3-0.4,0.6-0.6,0.9c-0.2,0.8-0.7,1.5-1.4,2c-0.2,0.2-0.4,0.2-0.6,0.2c0,0.2-0.1,0.3-0.3,0.5
			c-2.6,2-5.7,2.9-8.8,2.3C-172.4,376-172.3,376.1-172.3,376.2"/>
		<circle class="st10" cx="-170.7" cy="366.7" r="9.6"/>
		<path class="st8" d="M-175.4,377.6c0,0,1.4,2.5,4.5,2.5c3,0,4-2.5,4-2.5"/>
		<path class="st8" d="M-167,377.6c-1.5-0.4,6.8,13.6,5.8,23.4c-0.3,2.5,0,5.4,3.2,5.1"/>
		<g>
			<path class="st11" d="M-146,438.1c0,0-5.6-16.4,0.8-34.3"/>
			<path class="st11" d="M-134.8,437.7c0,0-5.6-16.4,0.8-34.3"/>
			<path class="st6" d="M-134.2,373.2c1.8,3.3,3.1,4.8,5.3,13.5c0.8,3.4,0.8,9.6-0.2,14.8c-0.4,1.8-2.8,1.8-7.4,2.6
				c-2.4,0.4-5.3,0.2-9.2-0.4c-1.4-0.2-7.2-1.4-7.6-5.7c-0.3-3.2-1.4-6.7,0-11.7c1.2-4.3,2.5-6.3,7.8-13.9s4.9-7.4,4.9-7.4
				S-136.1,369.8-134.2,373.2"/>
			<path class="st7" d="M-149.4,403.2c-7-2.6,1.7-8.6,3.1-14.3c1.1-4.2-1.5-4.2,1-7.8c1-1.5-0.7-4.1,0.2-5.7
				c0.7-1.3,1.8-0.6,2.8-1.7c2.8-3.1,5.9-3.5,7.5-1.4c2.5,3.5,4.5,3.6,4.5,7.9c0.1,5.2,3.5,19.3,2.4,21.6c-2,1.4-4.1,2.5-6.6,2.8
				C-139.4,405.3-144.9,404.9-149.4,403.2"/>
			<path class="st12" d="M-133.8,373.2c1.8,3.3,2.5,2.8,4.6,11.5c0.8,3.4,1,11.6,0,16.8c-0.4,1.8-2.4,1.8-7,2.6
				c-2.4,0.4-5.3,0.2-9.2-0.4c-1.4-0.2-7.2-1.4-7.6-5.7c-0.3-3.2-1.4-6.7,0-11.7c1.2-4.3,2.5-6.3,7.8-13.9s4.9-7.4,4.9-7.4
				S-135.7,369.8-133.8,373.2z"/>
			<path class="st6" d="M-150.6,361.1c0,6,4.8,10.8,10.8,10.8s10.8-4.8,10.8-10.8s-4.8-10.8-10.8-10.8S-150.6,355.1-150.6,361.1"/>
			<path class="st7" d="M-132.7,370.6c-1,0.5-1.9,1-2.9,1.4c0-0.1,0-0.1,0.1-0.2c-0.3,0.1-0.6,0.2-0.8,0.3c-3.4,1-8.6,0.7-9.9-3
				c-1.4-4.1,5-2.9,6.8-2.7c2,0.2,4-0.6,5.5-1.9c0.2-0.5,0.5-0.7,0.8-0.8c1.5-1.7,2.2-4,1.3-6.2c-0.4-1,0.9-1.5,1.6-1
				c0.3-0.8,1.7-1,1.9,0c0.1,0.4,0.1,0.8,0.2,1.2c0.5,0.8,0.6,1.8,0.5,2.7c0,0.3-0.2,0.5-0.3,0.7c0.1,0.2,0.2,0.4,0.2,0.6
				c-0.5,3.7-2.3,6.9-5.2,8.9C-132.9,370.6-132.8,370.6-132.7,370.6"/>
			<circle class="st12" cx="-139.4" cy="361.1" r="10.8"/>
			<path class="st11" d="M-146.3,352.8c0,0-3.2-0.1-3.2-2.5"/>
			<path class="st11" d="M-145.2,377.4c0.7,4-4.3,9.6-19.9,4.5"/>
			<path class="st13" d="M-134.9,372.3c0,0-1.6,2.7-4.9,2.7s-4.4-2.7-4.4-2.7"/>
		</g>
		<path class="st8" d="M-165.1,359.1c0.9-0.7,4.1,0.7,4.4,2c0.2,0.8-1,1.8-0.9,2.7c0.3,1.6,2,1.6,3.2,2.1s1,1.6,0.3,3
			c-0.5,1-1.5,1.1-1,2.6c0.3,1,2.7,0.1,2.8,1.1c0.1,0.7-1.4,2.1-1.4,3"/>
		<path class="st8" d="M-161.7,369.9c-1.4-0.2-0.4,2.2,0.2,3.2c0.5,0.9,1.9,1.6,1.8,2.7c-0.2,1.3-2,0.2-1.2,1.7
			c0.5,1.2,0.9,1.3,2.2,1.9"/>
		<path class="st8" d="M-177.8,359.8c-1.7-0.1-3,1-4,2.5c-0.5,0.8-1.6,1.6-1.1,2.4c0.3,0.5,0.5,1.1,0.5,1.8c0.1,1.1-0.9,0.8-1.4,1.7
			s0.1,2.2,0,3.1"/>
		<path class="st8" d="M-178.6,371.8c-0.6,0-2,0.2-2.3,0.7c-0.7,1.3-0.2,2.1,0.2,3c0.5,1.1-1.2,1.8-2.3,1.4
			c-0.1,0.6,0.8,1.9,0.6,2.5"/>
		<path class="st8" d="M-174.8,357.9c-1.8-0.1-5.9,0.7-4.9-2.1"/>
		<path class="st8" d="M-174.4,352.7c-1.1,0.1,1.4,1.7,0.4,3.3s2.9,1.5,4.7,1.8"/>
		<path class="st8" d="M-167.8,358.1c1.8-0.4,2.6-2.4,4.5-2.8c1.7-0.4,2.6,1.7,3.7,2.8"/>
		<path class="st14" d="M-175.8,424.2c0,0.9-0.7,1.6-1.6,1.6h-2.8c-0.9,0-1.6-0.7-1.6-1.6l0,0c0-0.9,0.7-1.6,1.6-1.6h2.8
			C-176.5,422.5-175.8,423.3-175.8,424.2L-175.8,424.2z"/>
		<path class="st14" d="M-165.3,423.9c0,0.9-0.7,1.6-1.6,1.6h-2.8c-0.9,0-1.6-0.7-1.6-1.6l0,0c0-0.9,0.7-1.6,1.6-1.6h2.8
			C-166.1,422.2-165.3,423-165.3,423.9L-165.3,423.9z"/>
		<ellipse class="st14" cx="-193.4" cy="365.6" rx="1.1" ry="1.2"/>
		<ellipse class="st14" cx="-188.6" cy="366.1" rx="0.8" ry="1.1"/>
		<path class="st15" d="M-191.3,370.3c0,0-2.6,1-3.3,0.4"/>
		<line class="st15" x1="-148.7" y1="367" x2="-145.6" y2="366.1"/>
		<ellipse class="st14" cx="-147.5" cy="361.1" rx="0.9" ry="1.3"/>
		<path class="st14" d="M-174.1,368.1c0,0.2-0.2,0.1-0.9,0.1c-0.6,0-1.4,0.1-1.4-0.1s0.5-0.3,1.1-0.3
			C-174.6,367.8-174.1,367.9-174.1,368.1z"/>
		<path class="st14" d="M-167.2,368.1c0,0.2-0.2,0.1-0.9,0.1c-0.6,0-1.4,0.1-1.4-0.1s0.5-0.3,1.1-0.3S-167.2,367.9-167.2,368.1z"/>
		<path class="st14" d="M-173.3,372.4c0,0,1.2-1.5,3.5-1.2s3.2,1.6,2,1.5s-2.4-0.6-3-0.3s-1.1,0.9-1.9,0.7
			C-173.5,372.9-173.3,372.4-173.3,372.4z"/>
	</g>
	<g>
		<g>
			<ellipse class="st16" cx="-173" cy="387.8" rx="0.8" ry="1.5"/>
			<ellipse class="st16" cx="-173" cy="394.3" rx="0.8" ry="1.5"/>
		</g>
		<g>
			<ellipse class="st16" cx="-169.5" cy="391.2" rx="1.5" ry="0.8"/>
			<ellipse class="st16" cx="-176" cy="391.2" rx="1.5" ry="0.8"/>
		</g>
		<g>
			
				<ellipse transform="matrix(-0.7235 -0.6903 0.6903 -0.7235 -566.0353 560.4648)" class="st16" cx="-170.8" cy="393.6" rx="1.5" ry="0.8"/>
			
				<ellipse transform="matrix(-0.7238 -0.69 0.69 -0.7238 -570.9376 549.5244)" class="st16" cx="-175.5" cy="389" rx="1.5" ry="0.8"/>
		</g>
		<g>
			
				<ellipse transform="matrix(-0.7174 0.6966 -0.6966 -0.7174 -22.0215 786.871)" class="st16" cx="-170.6" cy="389" rx="1.5" ry="0.8"/>
			
				<ellipse transform="matrix(-0.7174 0.6967 -0.6967 -0.7174 -26.7942 797.8948)" class="st16" cx="-175.2" cy="393.5" rx="1.5" ry="0.8"/>
		</g>
		<circle class="st17" cx="-172.8" cy="391.2" r="1.3"/>
	</g>
</g>
<path class="st2" d="M-212.3,354.6c0,0,1.5-1.1,2.4,0.8c1,1.9,2.2,3.3,3.6,2.2c1.4-1.1,3.6-0.9,3.8-0.5"/>
<path class="st2" d="M-196,354.8c0,0-0.1-4,2.8-3.1c2.9,0.9,3.2-0.1,3.8-1s0.7-1.9,1.8-1.5"/>
<path class="st2" d="M-190,356.9c0,0-0.1-1.8,2.6-1.3c2.7,0.5,2.6,0.2,3.1-0.8s1.4-1.3,1.9-1.3"/>
<path class="st2" d="M-199.1,354.9c0,0-1.5-3.9-3.1-2.4s-3.1-2.2-2.6-3.1s-2.3-1.6-2-0.6"/>
<path class="st2" d="M-191.9,354.9c0.1-0.3,0.5,2.9,3.5,2.7c3.1-0.3,3.7,2.1,3,4.2c-0.7,2.2-0.3,4.9,0.9,5.1
	c1.2,0.1,1.5,4.3,0.2,4.7"/>
<path class="st2" d="M-141.1,350.3c0,0-6.5,2.1-5.6-2.3"/>
<path class="st18" d="M-154.1,415.1c0,0-1.8,9.3-0.6,11.3c1.1,2,49.5,0.9,51.2,0.7c1.6-0.3,2.6-7.9,1-13.6
	c-1.6-5.7-49.7-0.4-49.7-0.4"/>
<g>
	<path class="st14" d="M-149.4,419.8c0,0.3,0,0.6-0.1,0.9s-0.2,0.5-0.4,0.8c-0.2,0.2-0.4,0.4-0.8,0.5c-0.3,0.1-0.7,0.2-1.2,0.2h-1
		c-0.1,0-0.2,0-0.3-0.1s-0.1-0.2-0.1-0.3v-5.5c0-0.1,0-0.2,0.1-0.3s0.2-0.1,0.3-0.1h1c0.5,0,0.8,0.1,1.2,0.2
		c0.3,0.1,0.6,0.3,0.8,0.5c0.2,0.2,0.3,0.5,0.4,0.7c0.1,0.3,0.1,0.6,0.1,0.9V419.8z M-150.1,418.1c0-0.2,0-0.4-0.1-0.6
		c-0.1-0.2-0.1-0.4-0.3-0.5c-0.1-0.1-0.3-0.3-0.5-0.3c-0.2-0.1-0.4-0.1-0.7-0.1h-0.9v5h0.9c0.3,0,0.5,0,0.7-0.1
		c0.2-0.1,0.4-0.2,0.5-0.4c0.1-0.2,0.2-0.3,0.3-0.5s0.1-0.4,0.1-0.7V418.1z"/>
	<path class="st14" d="M-146.9,421.6c0.2,0,0.4,0,0.5-0.1s0.3-0.1,0.4-0.2c0,0,0,0,0,0c0,0,0,0,0.1,0c0.1,0,0.2,0,0.2,0.1
		c0.1,0.1,0.1,0.1,0.1,0.2c0,0.1-0.1,0.2-0.2,0.3c-0.1,0.1-0.2,0.1-0.4,0.2c-0.2,0-0.3,0.1-0.5,0.1c-0.2,0-0.3,0-0.4,0
		c-0.3,0-0.5,0-0.7-0.1c-0.2-0.1-0.4-0.2-0.5-0.3c-0.1-0.1-0.2-0.3-0.3-0.5c-0.1-0.2-0.1-0.4-0.1-0.6v-1.7c0-0.2,0-0.4,0.1-0.6
		c0.1-0.2,0.2-0.3,0.3-0.5c0.1-0.1,0.3-0.2,0.5-0.3c0.2-0.1,0.4-0.1,0.7-0.1c0.5,0,0.9,0.1,1.1,0.4c0.2,0.3,0.4,0.6,0.4,1.1
		c0,0.4-0.1,0.7-0.4,1s-0.6,0.4-1.2,0.4c-0.1,0-0.3,0-0.4,0c-0.2,0-0.3,0-0.5-0.1v0.5c0,0.3,0.1,0.5,0.2,0.6
		C-147.4,421.6-147.2,421.6-146.9,421.6z M-146.1,419c0-0.3-0.1-0.5-0.2-0.6c-0.1-0.1-0.3-0.2-0.6-0.2c-0.3,0-0.5,0.1-0.7,0.2
		c-0.2,0.1-0.2,0.3-0.2,0.6v0.7c0.2,0,0.3,0,0.5,0c0.2,0,0.3,0,0.4,0c0.2,0,0.3,0,0.4-0.1c0.1,0,0.2-0.1,0.2-0.2
		c0.1-0.1,0.1-0.1,0.1-0.2C-146.1,419.2-146.1,419.1-146.1,419z"/>
	<path class="st14" d="M-144.6,418.9c0-0.4,0.1-0.7,0.4-0.9s0.6-0.4,1.1-0.4c0.1,0,0.2,0,0.4,0c0.1,0,0.3,0,0.4,0.1s0.2,0.1,0.3,0.2
		c0.1,0.1,0.1,0.1,0.1,0.2c0,0.1,0,0.2-0.1,0.2c-0.1,0.1-0.1,0.1-0.2,0.1c0,0-0.1,0-0.2,0c-0.1,0-0.2-0.1-0.3-0.1s-0.2,0-0.4,0
		c-0.5,0-0.8,0.2-0.8,0.6c0,0.1,0,0.2,0.1,0.3c0.1,0.1,0.2,0.2,0.3,0.2c0.2,0.1,0.3,0.1,0.5,0.2c0.2,0.1,0.4,0.1,0.5,0.2
		c0.2,0.1,0.3,0.2,0.4,0.4c0.1,0.2,0.2,0.4,0.2,0.7c0,0.4-0.1,0.7-0.4,1s-0.6,0.4-1.1,0.4c-0.1,0-0.2,0-0.4,0c-0.2,0-0.3,0-0.4-0.1
		c-0.1,0-0.3-0.1-0.3-0.2c-0.1-0.1-0.1-0.2-0.1-0.3c0-0.1,0-0.2,0.1-0.2c0.1-0.1,0.1-0.1,0.2-0.1c0,0,0,0,0.1,0s0,0,0,0
		c0.1,0,0.3,0.1,0.4,0.1c0.1,0,0.3,0.1,0.5,0.1c0.3,0,0.5-0.1,0.6-0.2c0.2-0.1,0.2-0.3,0.2-0.5c0-0.2,0-0.3-0.1-0.4
		c-0.1-0.1-0.1-0.1-0.2-0.2c-0.1-0.1-0.3-0.1-0.5-0.2c-0.2-0.1-0.4-0.1-0.6-0.2c-0.2-0.1-0.3-0.2-0.5-0.4S-144.6,419.2-144.6,418.9z
		"/>
	<path class="st14" d="M-135.8,419.1c0-0.3-0.1-0.5-0.2-0.6c-0.1-0.2-0.3-0.3-0.6-0.3c-0.2,0-0.4,0-0.6,0.1
		c-0.2,0.1-0.3,0.2-0.4,0.3c0,0.1,0,0.3,0,0.4v2.8c0,0.1,0,0.2-0.1,0.2c-0.1,0.1-0.1,0.1-0.3,0.1s-0.2,0-0.3-0.1
		c-0.1-0.1-0.1-0.1-0.1-0.2v-2.6c0-0.2,0-0.3,0-0.4c0-0.1-0.1-0.2-0.1-0.3c-0.1-0.1-0.1-0.2-0.2-0.2c-0.1-0.1-0.2-0.1-0.4-0.1
		c-0.2,0-0.4,0-0.6,0.1s-0.3,0.2-0.5,0.3c0,0.1,0,0.2,0,0.3v3.1c0,0.1,0,0.2-0.1,0.2c-0.1,0.1-0.1,0.1-0.3,0.1s-0.2,0-0.3-0.1
		c-0.1-0.1-0.1-0.1-0.1-0.2v-3.1c0-0.1,0-0.2,0-0.3c0-0.1,0-0.1,0-0.2s0-0.1-0.1-0.1c0,0,0,0-0.1-0.1c0,0,0,0,0-0.1c0,0,0-0.1,0-0.1
		c0-0.1,0-0.2,0.1-0.2c0.1-0.1,0.1-0.1,0.2-0.1c0.1,0,0.1,0,0.2,0.1c0.1,0,0.1,0.1,0.2,0.2c0.2-0.1,0.4-0.2,0.6-0.3
		c0.2-0.1,0.5-0.1,0.7-0.1c0.3,0,0.5,0,0.6,0.1c0.2,0.1,0.3,0.2,0.4,0.3c0.2-0.1,0.4-0.3,0.6-0.3c0.2-0.1,0.4-0.1,0.7-0.1
		c0.5,0,0.9,0.1,1.1,0.4c0.3,0.3,0.4,0.7,0.4,1.1v2.8c0,0.1,0,0.2-0.1,0.2c-0.1,0.1-0.1,0.1-0.3,0.1s-0.2,0-0.3-0.1
		c-0.1-0.1-0.1-0.1-0.1-0.2V419.1z"/>
	<path class="st14" d="M-132.3,422.3c-0.3,0-0.5,0-0.7-0.1c-0.2-0.1-0.4-0.2-0.5-0.3c-0.1-0.1-0.2-0.3-0.3-0.5
		c-0.1-0.2-0.1-0.4-0.1-0.6v-1.5c0-0.2,0-0.4,0.1-0.6c0.1-0.2,0.2-0.4,0.3-0.5c0.1-0.1,0.3-0.3,0.5-0.3c0.2-0.1,0.5-0.1,0.7-0.1
		s0.5,0,0.7,0.1c0.2,0.1,0.4,0.2,0.5,0.3c0.1,0.1,0.2,0.3,0.3,0.5c0.1,0.2,0.1,0.4,0.1,0.6v1.5c0,0.2,0,0.4-0.1,0.6
		c-0.1,0.2-0.2,0.4-0.3,0.5c-0.1,0.1-0.3,0.3-0.5,0.3C-131.8,422.2-132,422.3-132.3,422.3z M-132.3,421.6c0.3,0,0.6-0.1,0.7-0.3
		s0.2-0.4,0.2-0.7v-1.5c0-0.3-0.1-0.5-0.2-0.7s-0.4-0.3-0.7-0.3s-0.6,0.1-0.7,0.3s-0.2,0.4-0.2,0.7v1.5c0,0.3,0.1,0.5,0.2,0.7
		S-132.6,421.6-132.3,421.6z"/>
	<path class="st14" d="M-129.6,416.6c0-0.1,0-0.2,0.1-0.2c0.1-0.1,0.1-0.1,0.3-0.1c0.1,0,0.2,0,0.3,0.1c0.1,0.1,0.1,0.1,0.1,0.2v1.2
		h0.9c0.1,0,0.2,0,0.2,0.1c0.1,0.1,0.1,0.1,0.1,0.2c0,0.1,0,0.2-0.1,0.2c-0.1,0.1-0.1,0.1-0.2,0.1h-0.9v1.8c0,0.2,0,0.4,0,0.6
		c0,0.2,0,0.3,0.1,0.4s0.1,0.2,0.2,0.2s0.2,0.1,0.4,0.1c0,0,0.1,0,0.1,0s0.1,0,0.1,0c0.1,0,0.1,0,0.2,0c0.1,0,0.1,0,0.1,0
		s0.1,0.1,0.1,0.1c0,0,0,0.1,0,0.2c0,0.1,0,0.1,0,0.2c0,0-0.1,0.1-0.1,0.1c0,0-0.1,0-0.2,0c-0.1,0-0.1,0-0.2,0c-0.3,0-0.6,0-0.8-0.1
		s-0.4-0.2-0.5-0.4c-0.1-0.2-0.2-0.3-0.2-0.6c0-0.2-0.1-0.5-0.1-0.8V416.6z"/>
	<path class="st14" d="M-125.8,416.2c0,0.1,0,0.2-0.1,0.3s-0.2,0.1-0.3,0.1s-0.2,0-0.3-0.1s-0.1-0.2-0.1-0.3c0-0.1,0-0.2,0.1-0.3
		s0.2-0.1,0.3-0.1s0.2,0,0.3,0.1S-125.8,416.1-125.8,416.2z M-125.9,421.9c0,0.1,0,0.2-0.1,0.3c-0.1,0.1-0.1,0.1-0.3,0.1
		c-0.1,0-0.2,0-0.3-0.1c-0.1-0.1-0.1-0.1-0.1-0.3v-4c0-0.1,0-0.2,0.1-0.2c0.1-0.1,0.2-0.1,0.3-0.1c0.1,0,0.2,0,0.3,0.1
		c0.1,0.1,0.1,0.2,0.1,0.2V421.9z"/>
	<path class="st14" d="M-122.8,421.8c0,0.2-0.1,0.3-0.2,0.3c-0.1,0.1-0.2,0.1-0.3,0.1s-0.2,0-0.3-0.1c-0.1-0.1-0.1-0.2-0.2-0.3
		l-1.3-3.8c0-0.1,0-0.2,0.1-0.3c0.1-0.1,0.2-0.1,0.3-0.1c0.1,0,0.1,0,0.2,0.1s0.1,0.1,0.1,0.2l1.1,3.4l1-3.4c0-0.1,0.1-0.1,0.1-0.2
		c0.1,0,0.1-0.1,0.2-0.1c0.1,0,0.2,0,0.3,0.1c0.1,0.1,0.1,0.2,0.1,0.3L-122.8,421.8z"/>
	<path class="st14" d="M-118.6,419.1c0-0.6-0.3-1-1-1c-0.2,0-0.3,0-0.4,0.1c-0.1,0-0.2,0.1-0.3,0.1c0,0,0,0-0.1,0c0,0-0.1,0-0.1,0
		c-0.1,0-0.1,0-0.2-0.1c0-0.1-0.1-0.1-0.1-0.2c0-0.1,0-0.2,0.1-0.3c0.1-0.1,0.2-0.1,0.3-0.2s0.3-0.1,0.4-0.1c0.2,0,0.3,0,0.5,0
		c0.6,0,1,0.2,1.2,0.5c0.2,0.3,0.4,0.8,0.4,1.4v2c0,0.2,0.1,0.3,0.2,0.3c0,0,0,0,0,0c0,0,0,0,0,0c0.1,0,0.1,0,0.2,0.1
		c0,0.1,0.1,0.1,0.1,0.2c0,0.1,0,0.2-0.1,0.2s-0.2,0.1-0.3,0.1c-0.2,0-0.3,0-0.4-0.1c-0.1-0.1-0.2-0.2-0.3-0.3
		c-0.3,0.3-0.8,0.5-1.2,0.5c-0.5,0-0.8-0.1-1-0.4c-0.2-0.2-0.3-0.6-0.3-1v0c0-0.9,0.5-1.3,1.6-1.3c0.3,0,0.6,0,0.9,0.1V419.1z
		 M-119.5,420.1c-0.2,0-0.3,0-0.5,0.1c-0.1,0-0.2,0.1-0.3,0.2c-0.1,0.1-0.1,0.1-0.1,0.2c0,0.1,0,0.2,0,0.3v0c0,0.2,0.1,0.4,0.2,0.5
		c0.1,0.1,0.3,0.2,0.6,0.2c0.2,0,0.4,0,0.5-0.1c0.2-0.1,0.3-0.2,0.5-0.3v-1c-0.2,0-0.3-0.1-0.5-0.1
		C-119.2,420.1-119.4,420.1-119.5,420.1z"/>
	<path class="st14" d="M-116.8,419.2c0-0.2,0-0.5,0.1-0.7c0.1-0.2,0.2-0.4,0.3-0.5c0.1-0.1,0.3-0.3,0.5-0.4s0.4-0.1,0.7-0.1
		c0.1,0,0.2,0,0.4,0c0.1,0,0.3,0,0.4,0.1s0.2,0.1,0.3,0.2c0.1,0.1,0.1,0.2,0.1,0.3c0,0.1,0,0.2-0.1,0.2c-0.1,0.1-0.1,0.1-0.2,0.1
		c0,0-0.1,0-0.1,0c-0.1-0.1-0.2-0.1-0.3-0.1s-0.2-0.1-0.4-0.1c-0.4,0-0.6,0.1-0.8,0.3c-0.2,0.2-0.2,0.4-0.2,0.8v1.4
		c0,0.3,0.1,0.6,0.2,0.8c0.1,0.2,0.4,0.3,0.8,0.3c0.2,0,0.3,0,0.4-0.1s0.2-0.1,0.3-0.1c0.1,0,0.1,0,0.1,0c0.1,0,0.2,0,0.2,0.1
		c0.1,0.1,0.1,0.1,0.1,0.2c0,0.1,0,0.2-0.1,0.3c-0.1,0.1-0.2,0.1-0.3,0.2s-0.3,0.1-0.4,0.1c-0.1,0-0.3,0-0.4,0c-0.3,0-0.5,0-0.7-0.1
		s-0.4-0.2-0.5-0.4c-0.1-0.1-0.2-0.3-0.3-0.5c-0.1-0.2-0.1-0.4-0.1-0.7V419.2z"/>
	<path class="st14" d="M-112.1,416.2c0,0.1,0,0.2-0.1,0.3s-0.2,0.1-0.3,0.1s-0.2,0-0.3-0.1s-0.1-0.2-0.1-0.3c0-0.1,0-0.2,0.1-0.3
		s0.2-0.1,0.3-0.1s0.2,0,0.3,0.1S-112.1,416.1-112.1,416.2z M-112.2,421.9c0,0.1,0,0.2-0.1,0.3c-0.1,0.1-0.1,0.1-0.3,0.1
		c-0.1,0-0.2,0-0.3-0.1c-0.1-0.1-0.1-0.1-0.1-0.3v-4c0-0.1,0-0.2,0.1-0.2c0.1-0.1,0.2-0.1,0.3-0.1c0.1,0,0.2,0,0.3,0.1
		c0.1,0.1,0.1,0.2,0.1,0.2V421.9z"/>
	<path class="st14" d="M-109.3,422.3c-0.3,0-0.5,0-0.7-0.1c-0.2-0.1-0.4-0.2-0.5-0.3c-0.1-0.1-0.2-0.3-0.3-0.5
		c-0.1-0.2-0.1-0.4-0.1-0.6v-1.5c0-0.2,0-0.4,0.1-0.6c0.1-0.2,0.2-0.4,0.3-0.5c0.1-0.1,0.3-0.3,0.5-0.3c0.2-0.1,0.5-0.1,0.7-0.1
		s0.5,0,0.7,0.1c0.2,0.1,0.4,0.2,0.5,0.3c0.1,0.1,0.2,0.3,0.3,0.5c0.1,0.2,0.1,0.4,0.1,0.6v1.5c0,0.2,0,0.4-0.1,0.6
		c-0.1,0.2-0.2,0.4-0.3,0.5c-0.1,0.1-0.3,0.3-0.5,0.3C-108.8,422.2-109.1,422.3-109.3,422.3z M-109.3,421.6c0.3,0,0.6-0.1,0.7-0.3
		s0.2-0.4,0.2-0.7v-1.5c0-0.3-0.1-0.5-0.2-0.7s-0.4-0.3-0.7-0.3s-0.6,0.1-0.7,0.3s-0.2,0.4-0.2,0.7v1.5c0,0.3,0.1,0.5,0.2,0.7
		S-109.7,421.6-109.3,421.6z M-109.3,415.8c0.1-0.1,0.1-0.1,0.2-0.1c0,0,0.1-0.1,0.2-0.1c0.1,0,0.1,0,0.2,0.1
		c0.1,0.1,0.1,0.1,0.1,0.2c0,0,0,0,0,0.1s0,0.1,0,0.1l-0.7,0.8c-0.1,0-0.1,0.1-0.1,0.1s-0.1,0-0.1,0c-0.1,0-0.2,0-0.2-0.1
		c-0.1-0.1-0.1-0.1-0.1-0.2c0-0.1,0-0.1,0-0.1L-109.3,415.8z"/>
	<path class="st14" d="M-105.8,421.9c0,0.1,0,0.2-0.1,0.2c-0.1,0.1-0.1,0.1-0.3,0.1s-0.2,0-0.3-0.1c-0.1-0.1-0.1-0.1-0.1-0.2v-3.1
		c0-0.1,0-0.2,0-0.3c0-0.1,0-0.1,0-0.2s0-0.1-0.1-0.1c0,0,0,0-0.1-0.1c0,0,0,0,0-0.1c0,0,0-0.1,0-0.1c0-0.1,0-0.2,0.1-0.2
		c0.1-0.1,0.1-0.1,0.2-0.1c0.1,0,0.2,0,0.2,0.1c0.1,0,0.1,0.1,0.2,0.2c0.2-0.1,0.4-0.2,0.6-0.3c0.2-0.1,0.4-0.1,0.7-0.1
		c0.5,0,0.8,0.2,1.1,0.5c0.2,0.3,0.4,0.7,0.4,1.2v2.6c0,0.1,0,0.2-0.1,0.2c-0.1,0.1-0.1,0.1-0.3,0.1s-0.2,0-0.3-0.1
		c-0.1-0.1-0.1-0.1-0.1-0.2v-2.6c0-0.3-0.1-0.6-0.2-0.8s-0.3-0.3-0.6-0.3c-0.2,0-0.3,0-0.5,0.1c-0.2,0.1-0.3,0.2-0.5,0.3
		c0,0.1,0,0.2,0,0.3V421.9z"/>
</g>
</svg>
