<?xml version="1.0" encoding="utf-8"?>
<!-- Generator: Adobe Illustrator 17.0.0, SVG Export Plug-In . SVG Version: 6.00 Build 0)  -->
<!DOCTYPE svg PUBLIC "-//W3C//DTD SVG 1.1//EN" "http://www.w3.org/Graphics/SVG/1.1/DTD/svg11.dtd">
<svg version="1.1" id="Capa_1" xmlns="http://www.w3.org/2000/svg" xmlns:xlink="http://www.w3.org/1999/xlink" x="0px" y="0px"
	 width="794.939px" height="75.101px" viewBox="31.227 500.75 794.939 75.101"
	 enable-background="new 31.227 500.75 794.939 75.101" xml:space="preserve">
<g id="Capa_1_1_">
</g>
<g id="Capa_2">
</g>
<rect id="XMLID_434_" x="31.227" y="557.288" fill="#0D004C" width="794.939" height="18.563"/>
<polygon id="XMLID_513_" fill="#87D329" points="659.335,500.75 659.335,553.421 302.78,553.421 278.572,500.75 "/>
<g id="XMLID_800_">
	<line id="XMLID_721_" fill="none" stroke="#384E9A" stroke-miterlimit="10" x1="82.815" y1="511.732" x2="82.815" y2="548.625"/>
	<path id="XMLID_796_" fill="#00478C" d="M117.852,511.732h1.779v1.547h-1.779V511.732z M117.852,514.053h1.779v6.42h-1.779V514.053
		z"/>
	<path id="XMLID_718_" fill="#00478C" d="M122.26,514.053v0.773l0,0c0.155-0.464,0.696-1.005,1.238-1.005
		c0.851,0,1.624,0.464,1.624,1.315v5.259h-1.779v-4.563c0-0.309-0.155-0.541-0.464-0.541c-0.309,0-0.464,0.232-0.464,0.541v4.563
		h-1.779v-6.419L122.26,514.053L122.26,514.053z"/>
	<path id="XMLID_792_" fill="#00478C" d="M126.05,511.732h1.779v1.547h-1.779V511.732z M126.05,514.053h1.779v6.42h-1.779V514.053z"
		/>
	<path id="XMLID_715_" fill="#00478C" d="M131.696,516.373v-0.077c0-0.232,0-0.464-0.077-0.696
		c-0.077-0.232-0.232-0.387-0.464-0.387c-0.464,0-0.541,0.387-0.541,0.773v2.63c0,0.387,0.077,0.773,0.619,0.773
		c0.696,0,0.541-1.005,0.541-1.47h1.779c0,0.387-0.077,1.16-0.155,1.547c-0.232,0.773-0.928,1.16-1.702,1.237
		c-0.155,0-0.309,0-0.619,0c-1.315,0-2.243-0.541-2.243-2.011v-2.63c0-1.624,0.851-2.166,2.243-2.166
		c1.779,0,2.475,0.773,2.398,2.552h-1.779V516.373z"/>
	<path id="XMLID_788_" fill="#00478C" d="M134.248,511.732h1.779v1.547h-1.779V511.732z M134.248,514.053h1.779v6.42h-1.779V514.053
		z"/>
	<path id="XMLID_785_" fill="#00478C" d="M139.895,519.854c-0.464,0.464-0.851,0.773-1.547,0.773c-1.005,0-1.702-0.696-1.702-1.702
		c0-1.469,0.773-1.934,1.624-2.166c0.773-0.232,1.547-0.309,1.547-1.005c0-0.387-0.232-0.696-0.541-0.696
		c-0.696,0-0.696,0.464-0.696,1.005h-1.779c-0.077-1.624,1.005-2.166,2.475-2.166c1.779,0,2.475,0.541,2.475,1.934v3.945
		c0,0.232,0.077,0.464,0.155,0.696h-1.779L139.895,519.854z M139.817,517.146c-0.387,0.232-0.696,0.309-0.928,0.464
		c-0.232,0.155-0.387,0.387-0.387,0.851c0,0.387,0.232,0.696,0.696,0.696c0.541,0,0.619-0.541,0.696-1.005L139.817,517.146
		L139.817,517.146z"/>
	<path id="XMLID_710_" fill="#00478C" d="M141.905,515.213v-1.315h0.696v-1.856h1.779v1.856h0.851v1.315h-0.851v3.403
		c0,0.387,0.155,0.464,0.387,0.464c0.232,0,0.309,0,0.464,0v1.315c-0.387,0.077-0.773,0.077-1.16,0.077
		c-1.005,0-1.547-0.464-1.547-1.47v-3.635h-0.619V515.213z"/>
	<path id="XMLID_781_" fill="#00478C" d="M145.927,511.732h1.779v1.547h-1.779V511.732z M145.927,514.053h1.779v6.42h-1.779V514.053
		z"/>
	<polygon id="XMLID_707_" fill="#00478C" points="150.568,518.152 150.645,518.152 151.264,514.053 153.043,514.053 
		151.651,520.395 149.563,520.395 148.17,514.053 150.027,514.053 	"/>
	<path id="XMLID_777_" fill="#00478C" d="M156.291,519.854c-0.464,0.464-0.851,0.773-1.547,0.773c-1.005,0-1.702-0.696-1.702-1.702
		c0-1.469,0.773-1.934,1.624-2.166c0.773-0.232,1.547-0.309,1.547-1.005c0-0.387-0.232-0.696-0.541-0.696
		c-0.696,0-0.696,0.464-0.696,1.005h-1.779c-0.077-1.624,1.005-2.166,2.475-2.166c1.779,0,2.475,0.541,2.475,1.934v3.945
		c0,0.232,0.077,0.464,0.155,0.696h-1.779L156.291,519.854z M156.214,517.146c-0.387,0.232-0.696,0.309-0.928,0.464
		c-0.232,0.155-0.387,0.387-0.387,0.851c0,0.387,0.232,0.696,0.696,0.696c0.541,0,0.619-0.541,0.696-1.005L156.214,517.146
		L156.214,517.146z"/>
	<path id="XMLID_774_" fill="#00478C" d="M162.866,514.053v0.773l0,0c0.387-0.619,0.851-0.928,1.47-0.928
		c1.238,0,1.547,1.16,1.547,2.166v2.243c0,1.083-0.232,2.32-1.624,2.398c-0.309,0-0.928-0.155-1.315-0.773l0,0v2.784h-1.779v-8.585
		L162.866,514.053L162.866,514.053z M164.103,516.373c0-0.387,0-1.083-0.541-1.083c-0.464,0-0.619,0.541-0.619,1.16v1.47
		c0,0.541,0.077,1.16,0.541,1.16c0.619,0,0.541-0.696,0.541-1.083v-1.624H164.103z"/>
	<path id="XMLID_771_" fill="#00478C" d="M166.501,515.986c0-1.624,1.005-2.166,2.398-2.166c1.624,0,2.398,0.773,2.398,2.166v2.63
		c-0.077,1.47-1.005,2.011-2.398,2.011c-1.315,0-2.398-0.541-2.398-2.011V515.986z M168.357,518.693
		c0,0.387,0.155,0.541,0.541,0.541s0.541-0.232,0.541-0.541v-2.862c0-0.387-0.155-0.773-0.541-0.773s-0.541,0.309-0.541,0.773
		V518.693z"/>
	<path id="XMLID_700_" fill="#00478C" d="M173.539,514.053v1.005l0,0c0.232-0.696,0.619-1.16,1.392-1.16v2.088
		c-0.155,0-0.387-0.077-0.541-0.077c-0.541,0-0.696,0.077-0.773,0.619v3.945h-1.779v-6.42H173.539z"/>
	<rect id="XMLID_699_" x="178.025" y="511.732" fill="#00478C" width="1.779" height="8.585"/>
	<path id="XMLID_766_" fill="#00478C" d="M180.655,515.986c0-1.624,1.005-2.166,2.398-2.166c1.624,0,2.398,0.773,2.398,2.166v2.63
		c-0.077,1.47-1.005,2.011-2.398,2.011c-1.315,0-2.398-0.541-2.398-2.011V515.986z M182.511,518.693
		c0,0.387,0.155,0.541,0.541,0.541s0.541-0.232,0.541-0.541v-2.862c0-0.387-0.155-0.773-0.541-0.773s-0.541,0.309-0.541,0.773
		V518.693z"/>
	<path id="XMLID_696_" fill="#00478C" d="M188.698,515.832c-0.077-0.464,0-0.851-0.619-0.851c-0.387,0-0.619,0.155-0.619,0.541
		c0,0.309,0.309,0.541,0.541,0.619c1.16,0.541,2.475,0.851,2.475,2.398c0,1.392-1.083,2.011-2.398,2.011
		c-1.47,0-2.475-0.619-2.398-2.166h1.702c0,0.464,0.077,0.928,0.619,0.928c0.387,0,0.619-0.232,0.619-0.619
		c0-0.232-0.077-0.387-0.232-0.464c-0.696-0.387-1.779-0.696-2.32-1.315c-0.309-0.387-0.464-0.696-0.464-1.237
		c0-1.392,1.083-2.011,2.398-2.011c1.315,0,2.398,0.696,2.32,2.088L188.698,515.832L188.698,515.832z"/>
	<path id="XMLID_695_" fill="#04A7DB" d="M93.102,540.272v2.939c0,0.851,0.387,1.238,1.083,1.16c0.773,0,1.083-0.155,1.083-0.851
		v-18.872h5.491v16.242c0,1.624,0.077,3.48-0.696,5.027c-1.16,2.166-3.171,2.63-5.569,2.63c-2.63,0-4.873-1.237-5.491-3.867
		c-0.309-1.083-0.232-2.088-0.232-3.171v-1.392h4.331V540.272z"/>
	<path id="XMLID_760_" fill="#04A7DB" d="M117.387,540.504c0,5.259-1.856,7.966-7.348,7.966s-7.425-2.707-7.425-7.966v-9.513
		c0-4.486,2.707-6.961,7.425-6.961c4.795,0,7.348,2.475,7.348,6.961V540.504z M116.382,517.765l-5.337,4.563h-4.254l3.094-4.563
		H116.382L116.382,517.765z M111.973,531.455c0-1.392-0.155-3.171-1.934-3.171c-1.702,0-1.934,1.702-1.934,3.171v9.513
		c0,1.315,0.232,3.326,2.011,3.326s1.856-2.011,1.856-3.326V531.455z"/>
	<polygon id="XMLID_691_" fill="#04A7DB" points="123.111,548.007 118.006,524.649 123.498,524.649 126.282,541.046 
		126.359,541.046 129.144,524.649 134.635,524.649 129.53,548.007 	"/>
	<polygon id="XMLID_690_" fill="#04A7DB" points="135.486,548.007 135.486,524.649 147.938,524.649 147.938,529.289 140.9,529.289 
		140.9,533.698 147.784,533.698 147.784,538.339 140.9,538.339 140.9,543.366 148.325,543.366 148.325,548.007 	"/>
	<polygon id="XMLID_689_" fill="#04A7DB" points="154.745,534.936 154.667,535.09 155.131,548.007 149.949,548.007 149.949,524.649 
		155.595,524.649 159.772,537.797 159.927,537.797 159.385,524.649 164.567,524.649 164.567,548.007 158.998,548.007 	"/>
	<polygon id="XMLID_688_" fill="#04A7DB" points="166.423,548.007 166.423,524.649 178.876,524.649 178.876,529.289 
		171.838,529.289 171.838,533.698 178.721,533.698 178.721,538.339 171.838,538.339 171.838,543.366 179.262,543.366 
		179.262,548.007 	"/>
	<path id="XMLID_687_" fill="#04A7DB" d="M185.141,540.272v1.624c0,1.315,0.464,2.552,2.166,2.552c1.238,0,1.856-1.16,1.856-2.32
		c0-1.934-1.624-2.707-3.016-3.558c-1.702-0.928-3.094-1.856-4.099-3.016s-1.547-2.63-1.547-4.641c0-4.409,2.63-6.652,6.884-6.652
		c4.718,0,7.193,3.171,6.961,7.58h-5.027c-0.077-1.392,0-3.248-1.779-3.326c-1.083-0.077-1.779,0.541-1.934,1.547
		c-0.155,1.392,0.541,2.088,1.624,2.862c2.088,1.315,3.79,2.088,5.105,3.326c1.238,1.16,2.011,2.707,2.011,5.569
		c0,4.486-2.475,6.961-7.038,6.961c-5.027,0-7.116-2.784-7.116-5.878v-2.63H185.141z"/>
	<path id="XMLID_723_" fill="#00478C" d="M47.391,539.576c-0.077,0.077-0.155,0.232-0.155,0.387v5.569l0,0
		c0,0-3.094-5.491-3.171-5.723c-0.077-0.155-0.232-0.309-0.387-0.387c-0.155-0.077-0.309-0.155-0.619-0.155h-1.005
		c-0.232,0-0.387,0.077-0.464,0.232c-0.077,0.077-0.155,0.232-0.155,0.387v8.044c0,0.232,0.077,0.309,0.155,0.387
		c0.077,0.155,0.232,0.232,0.464,0.232h0.541c0.232,0,0.387-0.077,0.464-0.232c0.077-0.077,0.155-0.232,0.155-0.387v-5.723l0,0
		c0,0,3.171,5.646,3.326,5.801c0.155,0.309,0.464,0.541,0.928,0.541h1.005c0.232,0,0.387-0.077,0.464-0.232
		c0.077-0.077,0.155-0.232,0.155-0.387v-7.038h12.839c0.155,0,0.232,0,0.309-0.077s0.155-0.155,0.155-0.309v-0.541
		c0-0.155,0-0.232-0.155-0.309c-0.077-0.077-0.155-0.077-0.309-0.077H47.933C47.701,539.344,47.546,539.576,47.391,539.576
		 M70.13,521.014c-2.32-3.403-4.331-4.563-4.873-5.105c-0.619-0.619-1.083-1.237-1.392-1.624c-0.696-0.696-1.547-1.624-2.939-1.624
		c-1.392,0-2.32,0.928-2.552,1.702c-0.077,0.232-0.155,0.464-0.232,0.619c-0.155,0.232-0.773,1.237-1.005,1.702h1.16l-0.541,1.083
		c0.619-0.155,1.083-0.232,1.702-0.232c0.541,0,0.928,0.155,1.083,0.464c0.309,0.619,0.309,2.552,0.851,4.022
		c0.541,1.392,1.702,2.707,3.094,3.713c0,0,0,0,0.077,0c0.077,0,0.077-0.077,0.077-0.077s0-0.077-0.077-0.077
		c-1.16-1.16-2.088-2.475-2.63-3.867c-0.464-1.392-0.387-3.326-0.851-4.177c-0.309-0.541-0.928-0.696-1.47-0.696
		c-0.464,0-0.851,0.077-1.083,0.155l0.464-0.851h-0.851c0.155-0.309,0.387-0.619,0.464-0.773c0.077-0.155,0.077-0.309,0.232-0.619
		c0.309-0.773,1.005-1.315,1.934-1.315c1.16,0,1.856,0.773,2.475,1.469c0.309,0.309,0.851,1.083,1.392,1.624
		c0.387,0.387,1.16,0.773,2.32,2.011c0.696,0.696,1.47,1.624,2.32,2.862c2.939,4.331,4.95,8.198,6.033,11.215l0,0
		c-3.094-2.088-5.801-4.099-7.966-6.574c-1.547-1.779-2.862-3.79-4.022-6.342c-0.077-0.155-0.155-0.309-0.232-0.464
		c0-0.077-0.077-0.077-0.077-0.077c-0.077,0-0.077,0.077-0.077,0.077c0,0.077,0,0.232,0.077,0.541
		c0.619,2.707,2.32,5.105,4.177,7.116c1.856,2.011,3.945,3.712,5.646,4.95l1.315,3.79c0,0.077,0.077,0.155,0.077,0.309
		c0,0.077,0,0.155-0.077,0.155c0,0-0.077,0.077-0.232,0.077h-0.387c-0.155,0-0.232,0-0.309-0.077
		c-0.077-0.077-0.077-0.155-0.155-0.232c-0.155-0.387-0.851-2.32-0.928-2.784c0-0.077-0.077-0.077-0.155-0.077
		c-0.077,0-0.077,0.077-0.077,0.077c0,0.077,0,0.077,0.077,0.309c0.155,0.928,0.387,1.934,0.464,2.32
		c0,0.155,0.077,0.309,0.077,0.464c0,0.077,0,0.155-0.155,0.232l-0.387,0.387c-0.077,0.077-0.155,0.155-0.232,0.155
		c-0.077,0-0.155-0.077-0.232-0.232c-0.464-2.166-1.16-4.873-1.392-5.646c-0.077-0.155-0.077-0.232-0.155-0.232
		c-0.077,0-0.155,0.077-0.155,0.155s0,0.155,0,0.155c0.077,0.773,0.541,3.635,1.083,6.188c0.077,0.464,0.232,0.696,0.619,0.696
		c0.155,0,0.309-0.077,0.464-0.232c0.232-0.232,0.309-0.309,0.619-0.619c0.232-0.232,0.387-0.309,0.696-0.309h0.928
		c0.232,0,0.309-0.077,0.464-0.155c0.077-0.077,0.155-0.232,0.155-0.387c0-0.155-0.077-0.309-0.155-0.541
		c-0.232-0.619-1.005-2.784-1.238-3.326l0,0c0.773,0.619,1.856,1.315,2.398,1.315c0.155,0,0.232-0.077,0.232-0.309
		C76.318,531.996,74.462,527.356,70.13,521.014 M53.038,541.664c-2.166,0-3.326,1.702-3.326,3.403c0,1.856,1.315,3.558,3.326,3.558
		c1.005,0,2.011-0.387,2.63-1.083c0.232-0.309,0.464-0.696,0.464-0.928c0-0.077,0-0.155-0.077-0.232
		c-0.077-0.077-0.155-0.077-0.232-0.077h-1.005c-0.232,0-0.309,0.077-0.464,0.232c-0.309,0.387-0.696,0.619-1.315,0.619
		c-0.928,0-1.547-0.696-1.547-1.47h4.254c0.155,0,0.309-0.077,0.387-0.155s0.155-0.232,0.155-0.541c0-0.773-0.232-1.624-0.773-2.32
		C55.048,542.206,54.198,541.664,53.038,541.664 M59.612,541.664c-1.702,0-2.784,0.773-2.784,2.088c0,0.464,0.155,0.851,0.464,1.083
		c0.309,0.309,0.773,0.541,1.392,0.773l1.392,0.387c0.387,0.077,0.696,0.232,0.696,0.541c0,0.541-0.541,0.696-1.16,0.696
		c-0.309,0-0.619-0.077-0.851-0.155c-0.155-0.077-0.309-0.232-0.387-0.387c-0.077-0.155-0.155-0.232-0.232-0.309
		c-0.077-0.077-0.155-0.077-0.309-0.077h-0.773c-0.155,0-0.232,0.077-0.309,0.155s-0.077,0.155-0.077,0.232
		c0,0.232,0.077,0.541,0.309,0.851c0.464,0.619,1.47,1.16,2.707,1.16s2.939-0.541,2.939-2.166c0-0.387-0.155-0.773-0.387-1.083
		c-0.309-0.387-0.696-0.619-1.392-0.851l-1.392-0.387c-0.541-0.155-0.851-0.232-0.851-0.619c0-0.309,0.309-0.619,1.005-0.619
		c0.387,0,0.773,0.077,1.083,0.387c0.232,0.232,0.155,0.309,0.309,0.387c0.077,0.077,0.232,0.077,0.387,0.077h0.696
		c0.077,0,0.155,0,0.232-0.077c0.077-0.077,0.077-0.155,0.077-0.309c0-0.309-0.232-0.696-0.541-1.083
		C61.391,542.051,60.617,541.664,59.612,541.664 M49.016,513.666c0.155-0.309,0.387-0.464,0.773-0.464
		c0.464,0,0.851,0.387,0.851,0.851c0,0.309-0.155,0.541-0.309,0.696c0.077,0.155,0.077,0.309,0.077,0.464
		c0,0.541-0.309,0.851-0.851,1.083c-0.077,0.309-0.232,0.619-0.464,0.773c-0.387,0.387-0.773,0.387-0.773,0.541
		c0,0.077,0.077,0.155,0.232,0.155c0.696,0,1.392-0.387,1.47-1.005c0.619-0.232,1.083-0.851,1.083-1.392
		c0-0.155,0-0.232-0.077-0.387c0.155-0.155,0.387-0.464,0.387-0.928c0-0.387-0.155-0.773-0.464-1.083
		c-0.232-0.232-0.619-0.387-1.083-0.387c-0.619,0-1.005,0.309-1.237,0.696c-0.696,0-1.547,0.773-1.547,1.779h-0.077
		c-0.077-0.387-0.464-0.619-0.773-0.619c-0.232-0.773-0.851-1.47-1.779-1.47c-0.077,0-0.232,0-0.387,0
		c-0.309-0.232-0.619-0.387-1.005-0.387c-0.851,0-1.547,0.696-1.547,1.547c0,0.541,0.232,0.928,0.696,1.237v0.077
		c0,0.696,0.773,1.702,1.856,1.702c0,0.155,0.232,0.387,0.464,0.464v0.077h-0.077c-1.547,0-2.166,0.696-2.166,1.238
		c-0.464,0.155-0.773,0.696-0.773,1.16c0,0.928,0.696,1.547,1.547,1.547c0.309,0,0.619-0.155,0.773-0.309
		c0.155,0.077,0.387,0.077,0.541,0.077c0.387,0,0.928-0.155,1.237-0.619c0.077,0,0.077,0,0.155,0c0.541,0,1.005-0.387,1.237-0.851
		c0.077-0.155,0.077-0.232,0.077-0.309s0-0.155-0.077-0.155s-0.077,0.077-0.232,0.232c-0.309,0.309-0.851,0.464-1.392,0.464
		c-0.232,0.387-0.619,0.619-1.005,0.619c-0.309,0-0.464-0.077-0.696-0.232c-0.155,0.232-0.387,0.309-0.619,0.309
		c-0.464,0-0.851-0.309-0.851-0.851c0-0.309,0.232-0.619,0.541-0.773c0.077-0.619,0.696-1.005,1.547-1.005c0.077,0,0.232,0,0.309,0
		c0.155-0.232,0.387-0.387,0.851-0.464c0.077,0,0.155,0,0.232-0.077c0.077,0,0.077-0.077,0.077-0.155s0-0.077-0.077-0.155
		c-0.077,0-0.155,0-0.232-0.077c-0.387-0.077-0.851-0.309-1.083-0.928c-0.928,0-1.624-0.773-1.624-1.547v-0.077
		c-0.309-0.155-0.541-0.387-0.541-0.773c0-0.464,0.387-0.851,0.851-0.851c0.309,0,0.541,0.155,0.696,0.309
		c0.155,0,0.309-0.077,0.387-0.077c0.696,0,1.392,0.464,1.547,1.315c0.851,0.077,1.083,0.851,1.16,1.16
		c0,0.155,0.077,0.309,0.155,0.309s0.155-0.155,0.155-0.309c0.077-0.309,0.155-0.541,0.387-0.773
		C47.546,514.439,48.165,513.666,49.016,513.666 M63.479,542.051H63.17c-0.155,0-0.232,0-0.309,0.077
		c-0.077,0.077-0.155,0.155-0.155,0.309v0.387c0,0.155,0,0.232,0.155,0.309c0.077,0.077,0.155,0.077,0.309,0.077h0.309v3.094
		c0,0.773,0.232,1.315,0.619,1.702s0.851,0.619,1.702,0.619h0.541c0.155,0,0.232,0,0.309-0.077c0.077-0.077,0.155-0.155,0.155-0.309
		v-0.541c0-0.155-0.077-0.232-0.155-0.309c-0.077-0.077-0.155-0.077-0.309-0.077h-0.077c-0.309,0-0.541-0.077-0.696-0.232
		s-0.309-0.464-0.309-0.773v-2.939h1.083c0.155,0,0.232,0,0.309-0.077c0.077-0.077,0.155-0.155,0.155-0.309v-0.387
		c0-0.155,0-0.232-0.155-0.309c-0.077-0.077-0.155-0.077-0.309-0.077h-1.083v-2.088c0-0.155-0.077-0.309-0.155-0.387
		c-0.077-0.077-0.232-0.155-0.387-0.155H64.02c-0.155,0-0.309,0.077-0.387,0.155c-0.077,0.077-0.155,0.232-0.155,0.387
		C63.479,540.118,63.479,542.051,63.479,542.051z M67.269,548.084c0,0.155,0.077,0.309,0.155,0.387
		c0.077,0.077,0.232,0.155,0.387,0.155h0.696c0.155,0,0.309-0.077,0.387-0.155c0.077-0.077,0.155-0.232,0.155-0.387v-8.044
		c0-0.155-0.077-0.309-0.155-0.387c-0.077-0.077-0.232-0.155-0.387-0.155H67.81c-0.155,0-0.309,0.077-0.387,0.155
		c-0.077,0.077-0.155,0.232-0.155,0.387V548.084z M50.795,518.693c-0.309,0.387-0.464,0.619-1.16,1.392
		c-0.851,1.005-1.315,1.856-2.088,3.712c0.155,0,0.309,0,0.464,0c0.077,0,0.155,0,0.309,0l0.077-0.232
		c0.387-0.928,1.005-2.166,1.779-3.094l0.309-0.309c0.851-0.928,1.315-1.547,1.624-2.862c0.077-0.464,0.232-0.851,0.541-1.16
		c0.309-0.309,0.619-0.387,1.005-0.387c0.309,0,0.541,0.077,0.851,0.232s0.387,0.155,0.696,0.155c0.077,0,0.155,0,0.232,0
		l-0.464,0.541l0.619,0.387c-0.696,0.232-1.083,0.928-1.237,1.237c0,0.077,0,0.077,0,0.155c0,0.077,0,0.077,0.077,0.077
		s0.155-0.077,0.232-0.155c0.387-0.464,0.619-0.696,1.934-1.16l-0.928-0.696l0.696-1.005h-0.696c-0.387,0-0.696,0-1.083-0.155
		c-0.464-0.232-0.773-0.309-1.16-0.309c-0.541,0-1.005,0.155-1.392,0.541c-0.464,0.387-0.619,1.005-0.773,1.624
		C51.336,517.533,51.181,518.152,50.795,518.693 M52.187,522.87c-0.387,0.464-0.851,1.083-1.237,1.779
		c0.155,0.077,0.541,0.232,0.619,0.309c0.387-0.619,1.005-1.392,1.392-2.011c0.387-0.541,0.464-0.773,0.541-1.47
		c0-0.155,0-0.232,0-0.387c0-0.387,0.155-0.773,0.464-1.083c0.232-0.232,0.619-0.387,1.005-0.387s0.619,0.077,0.928,0.077
		c0.232,0,0.387-0.077,0.541-0.077l0.155-0.077l-0.309,0.696l0.696,0.232c-0.387,0.232-1.392,1.392-1.392,2.784
		c0,0.464,0.077,0.928,0.155,1.315c0,0.077,0,0.077,0.077,0.077s0.077,0,0.077-0.077v-0.155c0-0.387,0.077-1.083,0.232-1.624
		c0.309-1.005,1.005-1.934,1.779-2.32l-1.083-0.464l0.464-1.083l-0.464,0.077c-0.309,0.077-0.541,0.155-0.773,0.155
		c-0.155,0-0.387,0-0.619-0.077c-0.155-0.077-0.387-0.077-0.619-0.077c-0.464,0-1.005,0.155-1.392,0.541
		c-0.619,0.619-0.696,1.315-0.696,1.856C52.805,522.096,52.651,522.328,52.187,522.87 M68.042,523.257
		c-0.077-0.077-0.077-0.077-0.155-0.077c-0.077,0-0.077,0.077-0.077,0.077c0,0.077,0.077,0.155,0.232,0.464
		c0.464,0.773,1.083,1.624,1.779,2.32c0.773,0.851,1.702,1.547,2.63,2.243l0.309,0.232c0.077,0,0.077,0.077,0.077,0.077
		c0.077,0,0.077-0.077,0.077-0.077s0-0.077-0.077-0.077c-0.928-0.851-1.856-1.779-2.784-2.784
		C69.357,524.881,68.661,524.03,68.042,523.257 M51.491,544.371c0.077-0.773,0.696-1.315,1.547-1.315
		c0.851,0,1.47,0.541,1.547,1.315H51.491z M48.242,520.395c0.077-0.155,0.387-0.541,0.464-0.619
		c-0.464-0.928-1.237-1.856-1.624-2.243l-0.309,0.309C47.159,518.307,47.701,519.08,48.242,520.395 M43.679,514.826
		c-0.077-0.077-0.077-0.077-0.077-0.155c0-0.077,0-0.077,0.077-0.077h0.077c0.464,0.155,0.851,0.387,1.16,0.696
		c0.309,0.232,0.541,0.464,0.851,0.851l-0.232,0.309C45.226,516.218,44.22,515.213,43.679,514.826 M48.087,516.992l-0.309-0.232
		c0.232-0.541,0.464-1.005,0.773-1.315c0.232-0.232,0.464-0.464,0.696-0.696c0.077-0.077,0.077-0.077,0.155-0.077
		c0.077,0,0.077,0.077,0.077,0.077v0.077C49.016,515.445,48.32,516.605,48.087,516.992 M43.911,519.854
		c-0.077,0-0.155,0.077-0.155,0.077c-0.077,0-0.077-0.077-0.077-0.077c0-0.077,0-0.077,0.077-0.077
		c0.773-0.619,1.392-0.851,2.32-1.005l0.077,0.387L43.911,519.854z M59.689,515.058c0-0.232,0.077-0.619,0.541-0.619
		c0.155,0,0.232,0,0.387,0.077s0.232,0.155,0.232,0.309c0,0.077-0.077,0.232-0.309,0.387c-0.155,0.155-0.387,0.309-0.541,0.309
		C59.766,515.445,59.689,515.213,59.689,515.058 M53.424,516.76c0-0.232,0.155-0.541,0.464-0.541c0.155,0,0.309,0.077,0.387,0.155
		c0.077,0.077,0.077,0.155,0.077,0.232c0,0.155-0.155,0.309-0.309,0.387c-0.155,0.077-0.232,0.155-0.387,0.155
		C53.502,517.146,53.424,516.992,53.424,516.76 M54.894,520.627c0-0.077,0-0.155,0-0.232c0.077-0.155,0.155-0.309,0.387-0.309
		c0.155,0,0.232,0,0.387,0.077c0.077,0.077,0.155,0.155,0.155,0.232c0,0.232-0.464,0.541-0.696,0.541
		C54.971,521.014,54.894,520.782,54.894,520.627 M75.699,540.736c0.155,0,0.232,0,0.309-0.077c0.077-0.077,0.155-0.155,0.155-0.309
		v-0.541c0-0.232-0.077-0.309-0.155-0.387c-0.077-0.077-0.155-0.155-0.309-0.155c-0.077,0-0.232,0-0.387,0l-4.95,0.464
		c-0.155,0-0.232,0.077-0.232,0.077c-0.077,0.077-0.077,0.155-0.077,0.232v0.309c0,0.155,0,0.155,0.077,0.232
		c0.077,0.077,0.155,0.077,0.232,0.077h5.337V540.736z M72.992,541.664c-2.166,0-3.326,1.702-3.326,3.403
		c0,1.856,1.315,3.558,3.326,3.558c1.005,0,2.011-0.387,2.63-1.083c0.232-0.309,0.464-0.696,0.464-0.928
		c0-0.077,0-0.155-0.077-0.232c-0.077-0.077-0.155-0.077-0.232-0.077h-1.005c-0.232,0-0.309,0.077-0.464,0.232
		c-0.309,0.387-0.696,0.619-1.315,0.619c-0.928,0-1.547-0.696-1.547-1.47h4.331c0.155,0,0.309-0.077,0.387-0.155
		c0.077-0.077,0.155-0.232,0.155-0.541c0-0.773-0.232-1.624-0.773-2.32C75.003,542.206,74.152,541.664,72.992,541.664
		 M71.445,544.371c0.077-0.773,0.696-1.315,1.547-1.315s1.47,0.541,1.547,1.315H71.445z M52.419,528.361
		c-0.851,0-1.237-0.387-1.237-0.928c0-0.851,1.547-1.702,2.939-2.243l0.387,0.464c-0.851,0.309-2.552,1.083-2.552,1.702
		c0,0.232,0.155,0.387,0.619,0.387c0.928,0,1.856-0.464,2.784-0.851c0.077,0,0.155-0.077,0.232-0.077c0.155,0,0.155,0,0.309,0.155
		l0.155,0.232C54.971,527.743,53.656,528.361,52.419,528.361 M54.739,528.671c-0.851,0.464-1.624,0.773-2.398,0.773
		c-0.851,0-1.547-0.387-2.166-1.315c-0.232-0.387-0.464-0.851-0.696-1.315c-0.309-0.541-0.619-0.773-1.16-0.773
		c-0.541,0-1.005,0.232-1.547,0.464v0.155c0.077,0.155,0.155,0.309,0.309,0.309c0.077,0,0.155,0,0.232-0.077
		c0.309-0.077,0.541-0.155,0.851-0.155c0.464,0,0.696,0.309,1.005,0.928l0.155,0.232c-0.309,0.077-1.083,0.155-1.624,0.155h-0.232
		l0.077,0.232c0,0.077,0.077,0.232,0.155,0.232c0.077,0.077,0.309,0.077,0.541,0.077c0.696,0,1.237-0.077,1.547-0.155
		c0.773,1.16,1.779,1.547,2.784,1.547c0.851,0,1.702-0.309,2.552-0.773L54.739,528.671z M55.59,528.903l-0.155-0.541
		c1.237-0.696,2.398-1.238,4.254-1.392c0,0.696,0,1.624,0.541,1.624c0.464,0,1.547-1.238,2.707-2.784
		c0.077,0.077,0.309,0.232,0.464,0.309l-0.309,0.387c-1.16,1.547-2.166,2.784-3.016,2.784c-0.773,0-1.083-0.928-1.083-1.547
		C57.833,527.743,56.75,528.129,55.59,528.903 M71.832,516.373c-0.464,0-0.619-0.232-0.619-0.619c0-0.773,0.464-1.856,0.773-2.552
		h-0.773c-0.387,0.773-1.934,3.171-2.707,4.177l0.464,0.541c0.464-0.464,0.928-1.315,1.47-2.166h0.077c0,0.077,0,0.077,0,0.155
		c0,0.696,0.387,1.238,1.238,1.238c0.541,0,1.392-0.232,2.166-0.541c0.696-0.232,1.237-0.464,1.547-0.541v-0.773
		c-0.309,0.077-1.083,0.387-1.779,0.619C73.07,516.218,72.296,516.373,71.832,516.373 M73.534,518.693
		c0.773-0.309,2.088-0.851,2.862-1.083v-0.773c-1.547,0.541-4.254,1.702-6.033,2.707c0.077,0.077,0.387,0.541,0.387,0.541
		c0.773-0.309,1.47-0.541,2.088-0.541c0.851,0,1.624,0,2.784-0.309v-0.541c-0.696,0.155-1.392,0.309-1.856,0.309
		c-0.309,0-0.387,0-0.387-0.155C73.379,518.693,73.379,518.693,73.534,518.693 M57.446,522.715h3.171l-0.232-0.541h-2.63
		L57.446,522.715z M46.386,525.654c0.309,0,0.619-0.077,0.851-0.232c0.232-0.077,0.464-0.232,0.851-0.232
		c0.773,0,1.779,0.387,2.63,0.773c0.077,0,0.077,0,0.155,0c0.155,0,0.232-0.077,0.309-0.155l0.077-0.232
		c-0.928-0.541-2.475-1.16-3.248-1.16c-0.387,0-0.619,0.077-0.851,0.155c-0.309,0.077-0.541,0.232-0.773,0.232
		c-0.619,0-2.243-0.619-2.243-1.237c0-0.696,2.552-1.005,2.784-1.005l0.232-0.541c-1.856,0-4.022,0.619-4.022,1.469
		c0,0.232,0.155,0.387,0.155,0.619c0,0.309-0.155,0.541-0.155,0.851c0,0.232,0.155,0.541,0.309,0.773
		c0.155,0.232,0.387,0.464,0.387,0.696c0,0.155-0.077,0.387-0.077,0.773c0,0.851,0.464,1.315,1.392,2.32l0.155,0.232
		c-0.773,0.309-2.166,0.928-2.552,1.083c-1.16,0.464-1.47,1.083-1.47,2.011c0,0.387,0,0.773,0,1.16h0.232
		c0.464,0,0.541-0.309,0.541-0.541c0-0.155,0-0.387,0-0.619c0-0.541,0-0.928,0.851-1.315c0.309-0.155,1.934-0.851,3.171-1.315
		c0.387-0.155,0.696-0.309,1.083-0.309s0.851,0.155,1.47,0.541c0.464,0.309,1.005,0.696,1.47,1.16l0.541-0.387
		c-0.464-0.541-1.083-1.005-1.702-1.392c-0.619-0.387-1.16-0.619-1.624-0.619c-0.232,0-0.387,0-0.541,0.077
		c-0.155,0.077-0.309,0.077-0.541,0.077c-0.232,0-0.387-0.077-0.696-0.387c-0.077-0.155-0.773-0.851-0.928-1.083
		c-0.077-0.077-0.155-0.309-0.155-0.541c0-0.077,0-0.232,0.077-0.309c0.541,0.464,1.315,0.696,2.166,0.851l-0.155-0.619
		c-1.237-0.309-2.552-1.392-2.552-2.088c0-0.155,0-0.232,0.077-0.387C44.684,525.19,45.767,525.654,46.386,525.654 M55.28,525.654
		c0.773-0.541,1.547-0.619,2.243-0.619c0.387,0,0.851,0.077,1.315,0.155c0.387,0.077,0.773,0.077,1.16,0.077
		c0.851,0,1.702-0.309,2.088-0.464c0.077,0.155,0.309,0.309,0.387,0.387c-0.155,0.077-1.315,0.696-2.475,0.696
		c-0.541,0-1.005-0.077-1.392-0.155s-0.773-0.077-1.16-0.077s-1.315,0.155-1.779,0.387L55.28,525.654z M66.727,527.975
		c-0.928,1.934-2.32,3.326-3.79,4.177c-0.696,0.387-1.315,0.619-2.63,0.619h-2.862c-1.005,0-1.702,0.155-2.166,0.232
		c-0.541,0.155-0.851,0.309-1.47,0.309c-0.851,0-1.547-0.387-1.934-0.773l0.696-0.541l-0.309-0.464
		c-0.232,0.155-2.63,1.934-3.094,2.32l0,0c0-0.155,0-0.232,0-0.309c0-1.392-0.619-1.702-1.547-2.088l-0.619,0.387
		c1.315,0.464,1.624,0.773,1.624,1.779c0,0.773-0.309,1.083-0.696,1.315c-0.387,0.232-0.928,0.387-1.392,0.387
		c-0.155,0-0.309,0-0.309,0.077c-0.077,0.077-0.077,0.155-0.077,0.309v0.232h0.155c0.851,0,1.624-0.155,2.398-0.773l2.707-2.166
		c0.387,0.464,1.392,1.083,2.552,1.083c0.619,0,1.083-0.155,1.702-0.309c0.464-0.155,0.928-0.232,1.934-0.232h2.862
		c1.47,0,2.166-0.309,3.016-0.773c1.702-0.928,3.171-2.552,4.022-4.486C67.037,528.129,66.882,527.975,66.727,527.975
		 M62.087,530.295c0.773-1.16,1.392-2.243,3.016-3.094c-0.155-0.077-0.387-0.232-0.541-0.387c-0.619,0.309-1.237,0.851-1.779,1.392
		c-1.237,1.315-1.083,2.011-2.398,2.552c-0.309,0.155-0.696,0.232-1.237,0.387c-0.309-0.928-1.083-1.856-1.856-1.856
		c-0.541,0-1.16,0.309-1.934,0.619c-0.851,0.387-1.624,0.851-1.934,1.005l0.309,0.464c0.232-0.155,1.005-0.541,1.779-0.851
		c0.619-0.309,1.238-0.541,1.624-0.541c0.619,0,1.083,0.696,1.237,1.315c-0.851,0.232-2.166,0.232-2.63,0.232
		c-0.155,0-0.232,0-0.309,0.077c-0.077,0.077-0.077,0.155-0.155,0.309l-0.077,0.232h0.464c2.32,0,4.486-0.387,5.878-1.238
		c0.232,0.077,0.387,0.077,0.619,0.077c0.773,0,1.624-0.464,2.166-0.851c0.155-0.155,0.232-0.309,0.232-0.387
		c0-0.077,0-0.155,0-0.155v-0.309c-0.773,0.619-1.392,1.005-2.088,1.005C62.241,530.295,62.164,530.295,62.087,530.295"/>
</g>
<rect x="354.5" y="500.75" fill="#87D329" width="471.666" height="52.671"/>
</svg>
