<?xml version="1.0" encoding="utf-8"?>
<!-- Generator: Adobe Illustrator 19.0.0, SVG Export Plug-In . SVG Version: 6.00 Build 0)  -->
<svg version="1.1" id="Capa_1" xmlns="http://www.w3.org/2000/svg" xmlns:xlink="http://www.w3.org/1999/xlink" x="0px" y="0px"
	 viewBox="-114 272 382 250" style="enable-background:new -114 272 382 250;" xml:space="preserve">
<style type="text/css">
	.st0{fill:#DAD4EA;}
	.st1{fill:#FFFFFF;stroke:#004966;stroke-width:4.8845;stroke-linecap:round;stroke-miterlimit:10;}
	.st2{fill:#DFDEE4;}
	.st3{fill:#E76A00;stroke:#004966;stroke-width:4.8845;stroke-linecap:round;stroke-miterlimit:10;}
	.st4{fill:none;stroke:#004966;stroke-width:4.8845;stroke-linecap:round;stroke-miterlimit:10;}
	.st5{fill:#FFFFFF;stroke:#004966;stroke-width:1.6711;stroke-linecap:round;stroke-miterlimit:10;}
	.st6{fill:#004966;}
</style>
<g>
	<path class="st0" d="M257.3,363.5C269.2,425.9,197.6,492,97.5,511c-100.1,19-190.9-16.1-202.8-78.6
		C-117.2,370-45.6,303.9,54.5,284.9C154.7,265.9,245.4,301.1,257.3,363.5z"/>
	<g>
		<rect x="-45.4" y="314.9" class="st1" width="115.4" height="177"/>
		<rect x="70" y="314.9" class="st1" width="115.4" height="177"/>
		<g>
			<rect x="-31.8" y="406.3" class="st2" width="46.7" height="7.2"/>
			<rect x="-31.8" y="455.7" class="st2" width="88.8" height="4.5"/>
			<rect x="-31.8" y="470.7" class="st2" width="88.8" height="3.8"/>
			<rect x="-31.8" y="463.7" class="st2" width="88.8" height="3.5"/>
			<rect x="-31.8" y="440.3" class="st2" width="88.8" height="4.2"/>
			<rect x="-31.8" y="417" class="st2" width="88.8" height="4.2"/>
			<rect x="-31.8" y="424.7" class="st2" width="88.8" height="4.5"/>
			<rect x="-31.8" y="432.7" class="st2" width="88.8" height="4.2"/>
			<rect x="-31.8" y="448" class="st2" width="88.8" height="4.2"/>
			<rect x="-31.8" y="377.3" class="st2" width="88.8" height="4.5"/>
			<rect x="-31.8" y="369.6" class="st2" width="88.8" height="4.2"/>
			<rect x="-31.8" y="327.2" class="st2" width="44.9" height="7.9"/>
			<rect x="-31.8" y="478" class="st2" width="88.8" height="1.7"/>
			<rect x="-31.8" y="346.3" class="st2" width="88.8" height="4.5"/>
			<rect x="-31.8" y="354.3" class="st2" width="88.8" height="4.2"/>
			<rect x="-31.8" y="361.9" class="st2" width="88.8" height="4.2"/>
			<rect x="-31.8" y="338.6" class="st2" width="88.8" height="4.2"/>
			<rect x="-31.8" y="385.3" class="st2" width="58.5" height="7.2"/>
		</g>
		<g>
			<rect x="85.3" y="404.9" class="st2" width="46.7" height="7.2"/>
			<rect x="85.3" y="454.3" class="st2" width="88.8" height="4.5"/>
			<rect x="85.3" y="469.3" class="st2" width="88.8" height="3.8"/>
			<rect x="85.3" y="462.3" class="st2" width="88.8" height="3.5"/>
			<rect x="85.3" y="438.9" class="st2" width="88.8" height="4.2"/>
			<rect x="85.3" y="415.6" class="st2" width="88.8" height="4.2"/>
			<rect x="85.3" y="423.3" class="st2" width="88.8" height="4.5"/>
			<rect x="85.3" y="431.3" class="st2" width="88.8" height="4.2"/>
			<rect x="85.3" y="446.6" class="st2" width="88.8" height="4.2"/>
			<rect x="85.3" y="375.9" class="st2" width="88.8" height="4.5"/>
			<rect x="85.3" y="368.2" class="st2" width="88.8" height="4.2"/>
			<rect x="85.3" y="325.9" class="st2" width="44.9" height="7.9"/>
			<rect x="85.3" y="476.6" class="st2" width="88.8" height="1.7"/>
			<rect x="85.3" y="344.9" class="st2" width="88.8" height="4.5"/>
			<rect x="85.3" y="352.9" class="st2" width="88.8" height="4.2"/>
			<rect x="85.3" y="360.6" class="st2" width="88.8" height="4.2"/>
			<rect x="85.3" y="337.2" class="st2" width="88.8" height="4.2"/>
			<rect x="85.3" y="383.9" class="st2" width="58.5" height="7.2"/>
		</g>
		<path class="st2" d="M39.9,322.2c0,0-2.3,166.2-1.1,165.8c1.1-0.4,26.5,1.2,26.5-0.4c0-1.5-3.8-168.9-3.8-168.9"/>
		<polyline class="st2" points="75.2,320.7 77.1,487.6 114,488 86,320.3 		"/>
	</g>
	<g>
		<path class="st3" d="M104.6,423.8c0,0-14.8,19.6-12.5,20.7s22.6-10.2,22.6-10.2"/>
		<path class="st1" d="M174.9,362.4c-1.2,0-70.4,61.4-70.4,61.4l10.2,10.6l73.5-65.3c0,0,2.7-6.3-2-8.2
			C181.6,358.9,174.9,362.4,174.9,362.4z"/>
	</g>
	<line class="st4" x1="169.9" y1="366.2" x2="177.5" y2="373.8"/>
</g>
<path class="st5" d="M8.2,500.4c0,0-4.8,25.1-1.7,30.6c3,5.5,133.7,2.5,138.1,1.8c4.4-0.8,6.9-21.3,2.7-36.6S13.2,495,13.2,495"/>
<g>
	<path class="st6" d="M40.1,521.6c0,0.4-0.2,0.8-0.5,1.1s-0.7,0.4-1.1,0.4h-7.6c-0.6,0-1.1-0.1-1.6-0.4c-0.4-0.2-0.7-0.7-0.7-1.3
		v-16.8c0-0.4,0.2-0.8,0.5-1.2c0.3-0.4,0.8-0.5,1.3-0.5h7.8c0.4,0,0.8,0.1,1.1,0.4c0.3,0.3,0.5,0.7,0.5,1.1c0,0.4-0.2,0.8-0.5,1
		c-0.3,0.3-0.7,0.4-1.1,0.4h-6.4v5.7h5.9c0.4,0,0.7,0.1,1.1,0.4c0.3,0.3,0.5,0.6,0.5,1s-0.1,0.8-0.4,1.1c-0.3,0.3-0.7,0.4-1.1,0.4
		h-5.9v5.7h6.7c0.4,0,0.8,0.1,1.1,0.4S40.1,521.2,40.1,521.6z"/>
	<path class="st6" d="M51.5,517.5c0-0.8-0.2-1.3-0.5-1.7c-0.3-0.4-0.6-0.6-0.9-0.8c-0.5-0.2-1-0.4-1.6-0.6c-0.6-0.2-1.1-0.4-1.7-0.6
		c-0.6-0.2-1.1-0.4-1.7-0.7c-0.5-0.3-1-0.6-1.4-1c-0.4-0.4-0.7-0.9-1-1.5c-0.2-0.6-0.4-1.3-0.4-2.2c0-1.8,0.6-3.2,1.7-4.2
		c1.1-1,2.6-1.5,4.5-1.5c0.4,0,0.9,0,1.5,0.1c0.6,0.1,1.2,0.2,1.8,0.3c0.6,0.2,1.1,0.4,1.5,0.7c0.4,0.3,0.6,0.7,0.6,1.2
		c0,0.4-0.1,0.7-0.4,1c-0.3,0.3-0.7,0.4-1.2,0.4c-0.2,0-0.5,0-0.7-0.1c-0.2-0.1-0.5-0.2-0.7-0.3c-0.3-0.1-0.6-0.2-0.9-0.3
		c-0.3-0.1-0.7-0.1-1.2-0.1c-0.4,0-0.8,0-1.2,0.1c-0.4,0.1-0.7,0.2-1,0.4c-0.3,0.2-0.5,0.5-0.7,0.8c-0.2,0.4-0.3,0.8-0.3,1.3
		c0,0.4,0,0.7,0.1,1c0.1,0.3,0.2,0.5,0.4,0.7c0.1,0.2,0.3,0.3,0.5,0.4c0.2,0.1,0.3,0.2,0.5,0.3c0.5,0.2,1,0.5,1.6,0.6
		c0.6,0.2,1.1,0.4,1.7,0.6c0.6,0.2,1.1,0.5,1.7,0.7c0.5,0.3,1,0.6,1.4,1c0.4,0.4,0.7,0.9,1,1.5c0.2,0.6,0.4,1.3,0.4,2.2
		c0,1-0.2,1.8-0.5,2.6c-0.3,0.8-0.8,1.4-1.4,1.9c-0.6,0.5-1.3,0.9-2.1,1.2c-0.8,0.3-1.7,0.4-2.7,0.4c-0.5,0-1.1,0-1.7-0.1
		c-0.7-0.1-1.3-0.2-1.9-0.4c-0.6-0.2-1.1-0.4-1.5-0.7s-0.6-0.7-0.6-1.1c0-0.4,0.1-0.7,0.4-1c0.3-0.3,0.6-0.4,1-0.4
		c0.2,0,0.4,0,0.7,0.1c0.3,0.1,0.6,0.2,0.9,0.3c0.3,0.1,0.7,0.2,1.2,0.3c0.4,0.1,0.9,0.1,1.5,0.1c1.1,0,2-0.3,2.6-0.8
		C51.2,519.2,51.5,518.4,51.5,517.5z"/>
	<path class="st6" d="M61.5,505.9H58c-0.5,0-0.8-0.1-1.1-0.4c-0.3-0.3-0.4-0.6-0.4-1c0-0.3,0.2-0.7,0.5-1c0.3-0.3,0.7-0.5,1.1-0.5
		h10.1c0.4,0,0.8,0.1,1.1,0.4s0.5,0.6,0.5,1.1c0,0.4-0.2,0.7-0.5,1c-0.3,0.3-0.7,0.4-1.1,0.4h-3.5v16.1c0,0.4-0.2,0.7-0.5,1
		c-0.3,0.3-0.7,0.5-1.1,0.5c-0.4,0-0.8-0.2-1.1-0.5c-0.3-0.3-0.5-0.6-0.5-1V505.9z"/>
	<path class="st6" d="M85.1,519.2c-0.3,0.9-0.8,1.6-1.3,2.2c-0.6,0.6-1.3,1.1-2.1,1.5c-0.8,0.4-1.8,0.5-2.8,0.5
		c-1.1,0-2.1-0.2-2.9-0.5c-0.8-0.4-1.5-0.8-2.1-1.5c-0.6-0.6-1-1.4-1.3-2.2c-0.3-0.9-0.4-1.8-0.4-2.8v-12.2c0-0.4,0.2-0.8,0.5-1.1
		c0.3-0.3,0.7-0.4,1.1-0.4c0.4,0,0.8,0.1,1.1,0.4c0.3,0.3,0.5,0.7,0.5,1.1v12.2c0,1.2,0.3,2.2,0.9,2.9c0.6,0.8,1.5,1.1,2.7,1.1
		c1.2,0,2.1-0.4,2.7-1.1s0.9-1.7,0.9-2.9v-12.2c0-0.4,0.1-0.8,0.4-1.1c0.3-0.3,0.7-0.5,1.1-0.5c0.5,0,0.8,0.2,1.2,0.5
		s0.5,0.7,0.5,1.1v12.2C85.6,517.4,85.4,518.3,85.1,519.2z"/>
	<path class="st6" d="M102.6,515.5c0,1-0.1,2-0.4,2.9c-0.3,0.9-0.7,1.7-1.4,2.5c-0.6,0.7-1.5,1.3-2.6,1.7c-1.1,0.4-2.4,0.6-3.9,0.6
		H91c-0.5,0-0.9-0.2-1.3-0.5c-0.4-0.3-0.5-0.7-0.5-1.2v-16.8c0-0.5,0.2-0.9,0.5-1.2c0.4-0.3,0.8-0.5,1.3-0.5h3.2
		c1.6,0,2.9,0.2,3.9,0.6c1.1,0.4,1.9,1,2.6,1.6c0.6,0.7,1.1,1.5,1.4,2.4c0.3,0.9,0.4,1.8,0.4,2.8V515.5z M99.4,510.3
		c0-0.6-0.1-1.2-0.2-1.8c-0.2-0.5-0.4-1-0.8-1.4c-0.4-0.4-0.9-0.7-1.4-0.9c-0.6-0.2-1.3-0.3-2.2-0.3h-2.4v14.4h2.4
		c0.9,0,1.6-0.1,2.2-0.4c0.6-0.2,1.1-0.6,1.4-1c0.4-0.4,0.6-0.9,0.8-1.5c0.2-0.6,0.2-1.2,0.2-1.8V510.3z"/>
	<path class="st6" d="M105.7,504.1c0-0.4,0.2-0.7,0.5-1c0.3-0.3,0.7-0.4,1.1-0.4c0.4,0,0.8,0.1,1.1,0.4c0.3,0.3,0.5,0.6,0.5,1v17.8
		c0,0.4-0.2,0.7-0.5,1c-0.3,0.3-0.7,0.5-1.1,0.5c-0.4,0-0.8-0.2-1.1-0.5c-0.3-0.3-0.5-0.6-0.5-1V504.1z"/>
	<path class="st6" d="M119.2,523.4c-1.2,0-2.2-0.2-3.1-0.6c-0.9-0.4-1.6-0.9-2.2-1.6c-0.6-0.7-1-1.5-1.3-2.4
		c-0.3-0.9-0.4-1.9-0.4-2.9v-5.9c0-1,0.1-1.9,0.4-2.8c0.3-0.9,0.7-1.7,1.2-2.4c0.6-0.7,1.3-1.2,2.2-1.6c0.9-0.4,2-0.6,3.2-0.6
		c1.3,0,2.3,0.2,3.2,0.6c0.9,0.4,1.6,0.9,2.2,1.6c0.6,0.7,1,1.5,1.2,2.4c0.3,0.9,0.4,1.8,0.4,2.8v5.9c0,1-0.1,2-0.4,2.9
		c-0.3,0.9-0.7,1.7-1.3,2.4s-1.3,1.2-2.2,1.6C121.4,523.2,120.3,523.4,119.2,523.4z M119.2,505.6c-1.4,0-2.4,0.4-3,1.2
		s-0.9,1.9-0.9,3.2v5.9c0,1.3,0.3,2.4,0.9,3.3c0.6,0.8,1.6,1.2,2.9,1.2c1.3,0,2.3-0.4,2.9-1.2c0.6-0.8,0.9-1.9,0.9-3.3v-5.9
		c0-1.3-0.3-2.4-0.9-3.2C121.6,506,120.6,505.6,119.2,505.6z"/>
</g>
</svg>
