<?xml version="1.0" encoding="utf-8"?>
<!-- Generator: Adobe Illustrator 19.0.0, SVG Export Plug-In . SVG Version: 6.00 Build 0)  -->
<svg version="1.1" id="Capa_1" xmlns="http://www.w3.org/2000/svg" xmlns:xlink="http://www.w3.org/1999/xlink" x="0px" y="0px"
	 viewBox="-114 272 382 250" style="enable-background:new -114 272 382 250;" xml:space="preserve">
<style type="text/css">
	.st0{fill:#DAD4EA;}
	.st1{fill:#FFFFFF;stroke:#004966;stroke-width:4.8845;stroke-linecap:round;stroke-miterlimit:10;}
	.st2{fill:#DFDEE4;}
	.st3{fill:#E76A00;stroke:#004966;stroke-width:4.8845;stroke-linecap:round;stroke-miterlimit:10;}
	.st4{fill:none;stroke:#004966;stroke-width:4.8845;stroke-linecap:round;stroke-miterlimit:10;}
	.st5{fill:#FFFFFF;stroke:#004966;stroke-width:1.6711;stroke-linecap:round;stroke-miterlimit:10;}
	.st6{fill:#004966;}
</style>
<g>
	<g>
		<path class="st0" d="M257.3,362.5C269.2,424.9,197.6,491,97.5,510s-190.9-16.1-202.8-78.6C-117.2,369-45.6,302.9,54.5,283.9
			C154.7,264.9,245.4,300.1,257.3,362.5z"/>
		<g>
			<rect x="-45.4" y="313.9" class="st1" width="115.4" height="177"/>
			<rect x="70" y="313.9" class="st1" width="115.4" height="177"/>
			<g>
				<rect x="-31.8" y="405.3" class="st2" width="46.7" height="7.2"/>
				<rect x="-31.8" y="454.7" class="st2" width="88.8" height="4.5"/>
				<rect x="-31.8" y="469.7" class="st2" width="88.8" height="3.8"/>
				<rect x="-31.8" y="462.7" class="st2" width="88.8" height="3.5"/>
				<rect x="-31.8" y="439.3" class="st2" width="88.8" height="4.2"/>
				<rect x="-31.8" y="416" class="st2" width="88.8" height="4.2"/>
				<rect x="-31.8" y="423.7" class="st2" width="88.8" height="4.5"/>
				<rect x="-31.8" y="431.7" class="st2" width="88.8" height="4.2"/>
				<rect x="-31.8" y="447" class="st2" width="88.8" height="4.2"/>
				<rect x="-31.8" y="376.3" class="st2" width="88.8" height="4.5"/>
				<rect x="-31.8" y="368.6" class="st2" width="88.8" height="4.2"/>
				<rect x="-31.8" y="326.2" class="st2" width="44.9" height="7.9"/>
				<rect x="-31.8" y="477" class="st2" width="88.8" height="1.7"/>
				<rect x="-31.8" y="345.3" class="st2" width="88.8" height="4.5"/>
				<rect x="-31.8" y="353.3" class="st2" width="88.8" height="4.2"/>
				<rect x="-31.8" y="360.9" class="st2" width="88.8" height="4.2"/>
				<rect x="-31.8" y="337.6" class="st2" width="88.8" height="4.2"/>
				<rect x="-31.8" y="384.3" class="st2" width="58.5" height="7.2"/>
			</g>
			<g>
				<rect x="85.3" y="403.9" class="st2" width="46.7" height="7.2"/>
				<rect x="85.3" y="453.3" class="st2" width="88.8" height="4.5"/>
				<rect x="85.3" y="468.3" class="st2" width="88.8" height="3.8"/>
				<rect x="85.3" y="461.3" class="st2" width="88.8" height="3.5"/>
				<rect x="85.3" y="437.9" class="st2" width="88.8" height="4.2"/>
				<rect x="85.3" y="414.6" class="st2" width="88.8" height="4.2"/>
				<rect x="85.3" y="422.3" class="st2" width="88.8" height="4.5"/>
				<rect x="85.3" y="430.3" class="st2" width="88.8" height="4.2"/>
				<rect x="85.3" y="445.6" class="st2" width="88.8" height="4.2"/>
				<rect x="85.3" y="374.9" class="st2" width="88.8" height="4.5"/>
				<rect x="85.3" y="367.2" class="st2" width="88.8" height="4.2"/>
				<rect x="85.3" y="324.9" class="st2" width="44.9" height="7.9"/>
				<rect x="85.3" y="475.6" class="st2" width="88.8" height="1.7"/>
				<rect x="85.3" y="343.9" class="st2" width="88.8" height="4.5"/>
				<rect x="85.3" y="351.9" class="st2" width="88.8" height="4.2"/>
				<rect x="85.3" y="359.6" class="st2" width="88.8" height="4.2"/>
				<rect x="85.3" y="336.2" class="st2" width="88.8" height="4.2"/>
				<rect x="85.3" y="382.9" class="st2" width="58.5" height="7.2"/>
			</g>
			<path class="st2" d="M39.9,321.2c0,0-2.3,166.2-1.1,165.8c1.1-0.4,26.5,1.2,26.5-0.4c0-1.5-3.8-168.9-3.8-168.9"/>
			<polyline class="st2" points="75.2,319.7 77.1,486.6 114,487 86,319.3 			"/>
		</g>
		<g>
			<path class="st3" d="M141.7,420.9c0,0-14.8,19.6-12.5,20.7c2.3,1.1,22.6-10.2,22.6-10.2"/>
			<path class="st1" d="M212,359.5c-1.2,0-70.4,61.4-70.4,61.4l10.2,10.6l73.5-65.3c0,0,2.7-6.3-2-8.2
				C218.7,356,212,359.5,212,359.5z"/>
		</g>
		<line class="st4" x1="207" y1="363.3" x2="214.6" y2="370.9"/>
	</g>
	<path class="st5" d="M8.2,499.9c0,0-4.8,25.1-1.7,30.6c3,5.5,133.7,2.5,138.1,1.8c4.4-0.8,6.9-21.3,2.7-36.6
		c-4.2-15.3-134.1-1.2-134.1-1.2"/>
	<g>
		<path class="st6" d="M40.1,521.2c0,0.4-0.2,0.8-0.5,1.1s-0.7,0.4-1.1,0.4h-7.6c-0.6,0-1.1-0.1-1.6-0.4c-0.4-0.2-0.7-0.7-0.7-1.3
			v-16.8c0-0.4,0.2-0.8,0.5-1.2c0.3-0.4,0.8-0.5,1.3-0.5h7.8c0.4,0,0.8,0.1,1.1,0.4c0.3,0.3,0.5,0.7,0.5,1.1c0,0.4-0.2,0.8-0.5,1
			c-0.3,0.3-0.7,0.4-1.1,0.4h-6.4v5.7h5.9c0.4,0,0.7,0.1,1.1,0.4c0.3,0.3,0.5,0.6,0.5,1s-0.1,0.8-0.4,1.1c-0.3,0.3-0.7,0.4-1.1,0.4
			h-5.9v5.7h6.7c0.4,0,0.8,0.1,1.1,0.4S40.1,520.8,40.1,521.2z"/>
		<path class="st6" d="M51.5,517.1c0-0.8-0.2-1.3-0.5-1.7c-0.3-0.4-0.6-0.6-0.9-0.8c-0.5-0.2-1-0.4-1.6-0.6
			c-0.6-0.2-1.1-0.4-1.7-0.6c-0.6-0.2-1.1-0.4-1.7-0.7c-0.5-0.3-1-0.6-1.4-1c-0.4-0.4-0.7-0.9-1-1.5c-0.2-0.6-0.4-1.3-0.4-2.2
			c0-1.8,0.6-3.2,1.7-4.2c1.1-1,2.6-1.5,4.5-1.5c0.4,0,0.9,0,1.5,0.1c0.6,0.1,1.2,0.2,1.8,0.3c0.6,0.2,1.1,0.4,1.5,0.7
			c0.4,0.3,0.6,0.7,0.6,1.2c0,0.4-0.1,0.7-0.4,1c-0.3,0.3-0.7,0.4-1.2,0.4c-0.2,0-0.5,0-0.7-0.1c-0.2-0.1-0.5-0.2-0.7-0.3
			c-0.3-0.1-0.6-0.2-0.9-0.3c-0.3-0.1-0.7-0.1-1.2-0.1c-0.4,0-0.8,0-1.2,0.1c-0.4,0.1-0.7,0.2-1,0.4c-0.3,0.2-0.5,0.5-0.7,0.8
			c-0.2,0.4-0.3,0.8-0.3,1.3c0,0.4,0,0.7,0.1,1s0.2,0.5,0.4,0.7c0.1,0.2,0.3,0.3,0.5,0.4c0.2,0.1,0.3,0.2,0.5,0.3
			c0.5,0.2,1,0.5,1.6,0.6c0.6,0.2,1.1,0.4,1.7,0.6c0.6,0.2,1.1,0.5,1.7,0.7c0.5,0.3,1,0.6,1.4,1c0.4,0.4,0.7,0.9,1,1.5
			c0.2,0.6,0.4,1.3,0.4,2.2c0,1-0.2,1.8-0.5,2.6c-0.3,0.8-0.8,1.4-1.4,1.9c-0.6,0.5-1.3,0.9-2.1,1.2c-0.8,0.3-1.7,0.4-2.7,0.4
			c-0.5,0-1.1,0-1.7-0.1c-0.7-0.1-1.3-0.2-1.9-0.4c-0.6-0.2-1.1-0.4-1.5-0.7s-0.6-0.7-0.6-1.1c0-0.4,0.1-0.7,0.4-1
			c0.3-0.3,0.6-0.4,1-0.4c0.2,0,0.4,0,0.7,0.1c0.3,0.1,0.6,0.2,0.9,0.3c0.3,0.1,0.7,0.2,1.2,0.3c0.4,0.1,0.9,0.1,1.5,0.1
			c1.1,0,2-0.3,2.6-0.8C51.2,518.8,51.5,518,51.5,517.1z"/>
		<path class="st6" d="M61.5,505.4H58c-0.5,0-0.8-0.1-1.1-0.4c-0.3-0.3-0.4-0.6-0.4-1c0-0.3,0.2-0.7,0.5-1c0.3-0.3,0.7-0.5,1.1-0.5
			h10.1c0.4,0,0.8,0.1,1.1,0.4s0.5,0.6,0.5,1.1c0,0.4-0.2,0.7-0.5,1c-0.3,0.3-0.7,0.4-1.1,0.4h-3.5v16.1c0,0.4-0.2,0.7-0.5,1
			c-0.3,0.3-0.7,0.5-1.1,0.5c-0.4,0-0.8-0.2-1.1-0.5c-0.3-0.3-0.5-0.6-0.5-1V505.4z"/>
		<path class="st6" d="M85.1,518.8c-0.3,0.9-0.8,1.6-1.3,2.2c-0.6,0.6-1.3,1.1-2.1,1.5c-0.8,0.4-1.8,0.5-2.8,0.5
			c-1.1,0-2.1-0.2-2.9-0.5c-0.8-0.4-1.5-0.8-2.1-1.5c-0.6-0.6-1-1.4-1.3-2.2c-0.3-0.9-0.4-1.8-0.4-2.8v-12.2c0-0.4,0.2-0.8,0.5-1.1
			c0.3-0.3,0.7-0.4,1.1-0.4c0.4,0,0.8,0.1,1.1,0.4c0.3,0.3,0.5,0.7,0.5,1.1V516c0,1.2,0.3,2.2,0.9,2.9c0.6,0.8,1.5,1.1,2.7,1.1
			c1.2,0,2.1-0.4,2.7-1.1s0.9-1.7,0.9-2.9v-12.2c0-0.4,0.1-0.8,0.4-1.1c0.3-0.3,0.7-0.5,1.1-0.5c0.5,0,0.8,0.2,1.2,0.5
			c0.3,0.3,0.5,0.7,0.5,1.1V516C85.6,517,85.4,517.9,85.1,518.8z"/>
		<path class="st6" d="M102.6,515c0,1-0.1,2-0.4,2.9c-0.3,0.9-0.7,1.7-1.4,2.5c-0.6,0.7-1.5,1.3-2.6,1.7c-1.1,0.4-2.4,0.6-3.9,0.6
			H91c-0.5,0-0.9-0.2-1.3-0.5c-0.4-0.3-0.5-0.7-0.5-1.2v-16.8c0-0.5,0.2-0.9,0.5-1.2c0.4-0.3,0.8-0.5,1.3-0.5h3.2
			c1.6,0,2.9,0.2,3.9,0.6c1.1,0.4,1.9,1,2.6,1.6c0.6,0.7,1.1,1.5,1.4,2.4c0.3,0.9,0.4,1.8,0.4,2.8V515z M99.4,509.9
			c0-0.6-0.1-1.2-0.2-1.8c-0.2-0.5-0.4-1-0.8-1.4c-0.4-0.4-0.9-0.7-1.4-0.9c-0.6-0.2-1.3-0.3-2.2-0.3h-2.4v14.4h2.4
			c0.9,0,1.6-0.1,2.2-0.4c0.6-0.2,1.1-0.6,1.4-1c0.4-0.4,0.6-0.9,0.8-1.5c0.2-0.6,0.2-1.2,0.2-1.8V509.9z"/>
		<path class="st6" d="M105.7,503.7c0-0.4,0.2-0.7,0.5-1c0.3-0.3,0.7-0.4,1.1-0.4c0.4,0,0.8,0.1,1.1,0.4c0.3,0.3,0.5,0.6,0.5,1v17.8
			c0,0.4-0.2,0.7-0.5,1c-0.3,0.3-0.7,0.5-1.1,0.5c-0.4,0-0.8-0.2-1.1-0.5c-0.3-0.3-0.5-0.6-0.5-1V503.7z"/>
		<path class="st6" d="M119.2,523c-1.2,0-2.2-0.2-3.1-0.6c-0.9-0.4-1.6-0.9-2.2-1.6c-0.6-0.7-1-1.5-1.3-2.4
			c-0.3-0.9-0.4-1.9-0.4-2.9v-5.9c0-1,0.1-1.9,0.4-2.8c0.3-0.9,0.7-1.7,1.2-2.4c0.6-0.7,1.3-1.2,2.2-1.6s2-0.6,3.2-0.6
			c1.3,0,2.3,0.2,3.2,0.6c0.9,0.4,1.6,0.9,2.2,1.6c0.6,0.7,1,1.5,1.2,2.4c0.3,0.9,0.4,1.8,0.4,2.8v5.9c0,1-0.1,2-0.4,2.9
			s-0.7,1.7-1.3,2.4s-1.3,1.2-2.2,1.6C121.4,522.8,120.3,523,119.2,523z M119.2,505.1c-1.4,0-2.4,0.4-3,1.2s-0.9,1.9-0.9,3.2v5.9
			c0,1.3,0.3,2.4,0.9,3.3c0.6,0.8,1.6,1.2,2.9,1.2c1.3,0,2.3-0.4,2.9-1.2c0.6-0.8,0.9-1.9,0.9-3.3v-5.9c0-1.3-0.3-2.4-0.9-3.2
			C121.6,505.6,120.6,505.1,119.2,505.1z"/>
	</g>
</g>
</svg>
