<?xml version="1.0" encoding="utf-8"?>
<!-- Generator: Adobe Illustrator 19.0.0, SVG Export Plug-In . SVG Version: 6.00 Build 0)  -->
<svg version="1.1" id="Capa_1" xmlns="http://www.w3.org/2000/svg" xmlns:xlink="http://www.w3.org/1999/xlink" x="0px" y="0px"
	 viewBox="-114 272 382 250" style="enable-background:new -114 272 382 250;" xml:space="preserve">
<style type="text/css">
	.st0{fill:#DAD4EA;}
	.st1{fill:#0098C8;}
	.st2{fill:#007892;}
	.st3{fill:none;stroke:#004966;stroke-width:7.5325;stroke-miterlimit:10;}
	.st4{fill:#FFFFFF;}
	.st5{fill:#DFDEE4;}
	.st6{fill:none;stroke:#004966;stroke-width:7.5325;stroke-linecap:round;stroke-miterlimit:10;}
	.st7{fill:#DD2D5C;}
	.st8{fill:#BB073F;}
	.st9{fill:#004966;}
	.st10{fill:#64AC28;}
	.st11{fill:none;stroke:#004966;stroke-width:4.1728;stroke-linecap:round;stroke-miterlimit:10;}
	.st12{fill:none;stroke:#004966;stroke-width:3.2706;stroke-linecap:round;stroke-miterlimit:10;}
	.st13{fill:none;stroke:#004966;stroke-width:2.0575;stroke-linecap:round;stroke-miterlimit:10;}
	.st14{fill:none;stroke:#004966;stroke-width:4.115;stroke-linecap:round;stroke-miterlimit:10;}
	.st15{fill:#FFFFFF;stroke:#004966;stroke-width:1.6711;stroke-linecap:round;stroke-miterlimit:10;}
</style>
<g>
	<path class="st0" d="M260.8,362c12,63.3-60.5,130.3-162,149.6C-2.7,530.9-94.8,495.3-106.8,432s60.5-130.3,162-149.6
		C156.8,263,248.8,298.8,260.8,362z"/>
	<g>
		<path class="st1" d="M111.2,382.7c-5.8,10.2-14.6,14.3-21.3,41.7c-2.6,10.8-3.2,20.6,0,36.7c1.1,5.7,14.3,15.8,28.6,18.2
			c7.5,1.3,16.4,0.5,28.9-1.3c4.5-0.6,22.6-4.4,23.8-17.8c1-10.2,4.4-20.9,0-36.7c-3.8-13.4-7.9-19.6-24.5-43.4
			c-16.5-23.7-15.2-23.2-15.2-23.2S117.1,372.3,111.2,382.7"/>
		<path class="st2" d="M160.2,403.2c-2.6-5.4-6.2-10.3-8.7-15.7c-1.3-2.8-3.1-7-6.6-8c-0.6-0.5-1.3-0.9-2-1.1
			c0.8-0.4,1.7-0.8,2.5-1.2c0.9-0.5,1.8-1.1,2.7-1.7c-5.4,1.4-10.8,2.7-15.4,5.9c0.6-0.1,1.3-0.2,1.9-0.3c-1.2,1.4-2,3.2-2,5.3
			c0,5.8,3.1,10.9,6.2,15.6c5.2,7.9,8.9,14.6,10,24.1c1,8.1,0.2,16.9-1.8,24.8c-1.5,6.2-7.5,10-8.7,16.2c-1.2,6.4,4.3,6.6,9.5,5.4
			c1.3,0.3,2.7,0.1,3.4-1c1.5-0.5,2.8-1.1,3.7-1.5c10.4-4.9,13.9-13.7,14.6-24.3C170.6,431,166.7,416.5,160.2,403.2"/>
		<path class="st3" d="M109.9,382.7c-5.8,10.2-14.6,14.3-21.3,41.7c-2.6,10.8-3.2,20.6,0,36.7c1.2,5.7,14.4,15.8,28.6,18.2
			c7.5,1.3,16.4,0.5,28.9-1.3c4.5-0.6,22.6-4.4,23.8-17.8c1-10.2,4.5-20.9,0-36.7c-3.8-13.4-7.9-19.6-24.5-43.4
			c-16.5-23.7-15.2-23.3-15.2-23.3S115.8,372.3,109.9,382.7z"/>
		<path class="st4" d="M162.5,344.9c0,18.7-15.2,33.9-33.9,33.9s-33.9-15.2-33.9-33.9c0-18.7,15.2-33.9,33.9-33.9
			S162.5,326.2,162.5,344.9"/>
		<path class="st5" d="M132.7,378.3c3.2-1.1,6.4-2.1,9.5-3.4c-0.2-0.1-0.3-0.2-0.5-0.2c0.8-0.4,1.7-0.8,2.5-1.2
			c9.6-5.3,20.6-17.6,15.3-28.7c-5.8-12.1-17.3,4.7-21,9.1c-4,4.8-10.1,7.5-16.3,8c-1.4-0.7-2.6-0.6-3.7,0c-7-0.5-13.6-4-16.7-10.8
			c-1.3-2.9-5.2-1.3-5.7,1.3c-2.5-1.2-5.9,1.6-4.1,4.2c0.7,1,1.5,2.1,2.2,3.1c0.6,2.8,2.6,5.2,4.8,7.1c0.7,0.6,1.5,0.8,2.2,0.8
			c0.1,0.6,0.4,1.2,0.9,1.6c9.3,7.1,20.3,10.3,31.2,8.2C133.1,377.6,132.9,378,132.7,378.3"/>
		<path class="st3" d="M161.2,344.9c0,18.7-15.2,33.9-33.9,33.9s-33.9-15.2-33.9-33.9c0-18.7,15.2-33.9,33.9-33.9
			S161.2,326.2,161.2,344.9z"/>
		<path class="st6" d="M29.9,386.3c-6.8-1.9,39.6,13.7,39.6,89.8"/>
		<path class="st6" d="M146.6,382.7c-6.8-1.9,39.7,13.7,39.7,89.9"/>
		<path class="st6" d="M-10.7,386.3c6.8-1.9-39.7,13.7-39.7,89.9"/>
		<path class="st6" d="M109.6,380.9c6.8-1.9-39.7,13.7-39.7,89.9"/>
		<path class="st7" d="M-10.5,381.5c-5.8,10.2-14.6,14.3-21.3,41.7c-2.6,10.8-3.2,20.6,0,36.7c1.1,5.7,14.3,15.8,28.6,18.2
			c7.5,1.3,16.4,0.5,28.9-1.3c4.5-0.6,22.6-4.4,23.9-17.8c1-10.2,4.4-20.9,0-36.7c-3.8-13.4-7.9-19.6-24.5-43.4
			C8.6,355.3,9.9,355.7,9.9,355.7S-4.6,371-10.5,381.5"/>
		<path class="st8" d="M38.5,402c-2.6-5.4-6.2-10.3-8.7-15.7c-1.3-2.8-3.1-7-6.6-8c-0.6-0.5-1.3-0.9-2-1.1c0.8-0.4,1.7-0.8,2.5-1.2
			c0.9-0.5,1.8-1.1,2.7-1.7c-5.4,1.4-10.8,2.7-15.4,5.9c0.6-0.1,1.2-0.2,1.9-0.3c-1.2,1.4-2,3.2-2,5.3c0,5.8,3.1,10.9,6.2,15.6
			c5.2,8,8.9,14.6,10,24.1c1,8.1,0.1,16.9-1.8,24.8c-1.5,6.2-7.5,10-8.7,16.2c-1.2,6.4,4.3,6.6,9.5,5.4c1.3,0.3,2.7,0.1,3.4-1
			c1.5-0.5,2.8-1.1,3.7-1.5c10.4-4.9,13.9-13.7,14.6-24.3C48.9,429.7,45,415.3,38.5,402"/>
		<path class="st3" d="M-11.7,381.5c-5.8,10.2-14.6,14.3-21.3,41.7c-2.6,10.8-3.2,20.6,0,36.7c1.1,5.7,14.3,15.8,28.6,18.2
			c7.5,1.3,16.4,0.5,28.9-1.3c4.5-0.6,22.6-4.4,23.9-17.8c1-10.2,4.4-20.9,0-36.7c-3.8-13.4-7.9-19.6-24.5-43.4
			C7.4,355.3,8.7,355.7,8.7,355.7S-5.8,371-11.7,381.5z"/>
		<path class="st4" d="M40.8,343.7c0,18.7-15.2,33.9-33.9,33.9S-27,362.4-27,343.7s15.2-33.9,33.9-33.9S40.8,325,40.8,343.7"/>
		<path class="st5" d="M11,377c3.2-1.1,6.4-2.1,9.5-3.4c-0.2-0.1-0.3-0.2-0.5-0.2c0.8-0.4,1.7-0.8,2.5-1.2
			c9.6-5.3,20.6-17.6,15.3-28.6c-5.8-12.1-17.3,4.7-21,9.1c-4,4.8-10.2,7.5-16.3,8c-1.4-0.7-2.6-0.6-3.7,0c-7-0.5-13.6-4-16.7-10.8
			c-1.3-2.9-5.2-1.4-5.7,1.3c-2.5-1.2-5.9,1.5-4.1,4.2c0.7,1,1.5,2.1,2.3,3.1c0.6,2.8,2.6,5.2,4.8,7.1c0.7,0.6,1.5,0.8,2.2,0.8
			c0.1,0.6,0.4,1.2,0.9,1.6c9.3,7.1,20.3,10.3,31.2,8.2C11.5,376.4,11.3,376.7,11,377"/>
		<path class="st3" d="M39.6,343.7c0,18.7-15.2,33.9-33.9,33.9s-33.9-15.2-33.9-33.9s15.2-33.9,33.9-33.9S39.6,325,39.6,343.7z"/>
		<path class="st6" d="M-8.4,382.1c0,0,5.1,8.8,15.8,8.8s14.1-8.8,14.1-8.8"/>
		<g>
			<path class="st9" d="M146.4,500.9c-1.5,0-2.8-1.2-2.8-2.8c0-43.8,20.5-62.2,30-68.3c0.3-0.5,0.8-0.9,1.5-1.1
				c1.3-0.4,3.2,0.2,3.8,1.5c1,2.3-1.1,3.5-1.7,4c-8.4,5.3-28,22-28,63.9C149.2,499.7,147.9,500.9,146.4,500.9z"/>
			<path class="st9" d="M235.3,500.9c-1.5,0-2.8-1.2-2.8-2.8c0-46.4-21.5-60.8-28.1-64.1c-1.3-0.6-2.2-2.3-1.6-3.7
				c0.5-1.3,2.4-2,3.7-1.6c0.5,0.1,0.9,0.4,1.2,0.7c8.4,4.6,30.4,21,30.4,68.7C238.1,499.7,236.9,500.9,235.3,500.9z"/>
			<path class="st10" d="M205.7,427.9c4.3,7.6,10.8,10.6,15.8,31c1.9,8,2.4,15.3,0,27.2c-0.9,4.3-10.6,11.7-21.2,13.5
				c-5.6,0.9-12.2,0.4-21.4-0.9c-3.3-0.5-16.8-3.3-17.7-13.2c-0.7-7.5-3.3-15.5,0-27.2c2.8-9.9,5.9-14.5,18.2-32.2
				c12.2-17.6,11.3-17.3,11.3-17.3S201.4,420.1,205.7,427.9"/>
			<path class="st10" d="M169.4,443.1c1.9-4,4.6-7.6,6.4-11.6c0.9-2.1,2.3-5.2,4.9-6c0.5-0.4,1-0.6,1.5-0.8
				c-0.6-0.3-1.2-0.6-1.8-0.9c-0.7-0.4-1.4-0.8-2-1.3c4,1.1,8,2,11.4,4.4c-0.5-0.1-0.9-0.1-1.4-0.2c0.9,1,1.5,2.4,1.5,3.9
				c0,4.3-2.3,8.1-4.6,11.6c-3.9,5.9-6.6,10.9-7.4,17.9c-0.7,6-0.1,12.5,1.3,18.4c1.1,4.6,5.6,7.4,6.5,12c0.9,4.7-3.2,4.9-7,4
				c-0.9,0.2-2,0-2.5-0.7c-1.1-0.4-2.1-0.8-2.7-1.1c-7.7-3.6-10.3-10.2-10.9-18C161.7,463.7,164.6,453,169.4,443.1"/>
			<path class="st9" d="M195.1,502.8c-4,0-8.5-0.4-15.7-1.4c-1.9-0.3-18.9-3-20.1-15.7c-0.2-1.6-0.4-3.3-0.6-4.9
				c-0.9-6.4-2-13.6,0.7-23.3c2.9-10.3,6-15,18.6-33.1c6.4-9.3,9.1-13.4,10.2-15.2l-2.8-3l3-0.2l-0.8-5.7l5.1,5.4l1.3-0.1l0.2,1.7
				c2.5,2.7,11,12.1,14.9,19c1.1,1.9,2.3,3.5,3.8,5.4c3.8,4.9,8.6,11,12.3,26.3c1.9,7.8,2.6,15.6,0,28.4
				c-1.2,6.1-12.9,13.9-23.5,15.7C199.7,502.6,197.5,502.8,195.1,502.8z M192.1,413.5c-1.7,2.7-4.6,7-9.6,14.1
				c-12.1,17.4-15.1,21.9-17.8,31.4c-2.4,8.5-1.5,14.9-0.6,21c0.3,1.8,0.5,3.5,0.7,5.2c0.8,8.5,14.7,10.6,15.3,10.7
				c10.9,1.5,15.9,1.7,20.6,0.9c10.4-1.7,18.5-8.8,19-11.3c2.4-11.9,1.8-18.8,0-26c-3.4-14.1-7.6-19.4-11.3-24.2
				c-1.5-2-3-3.8-4.2-6.1C201.4,424.2,195.5,417.3,192.1,413.5z"/>
			<path class="st4" d="M167.7,399.9c0,13.9,11.3,25.1,25.2,25.1s25.2-11.3,25.2-25.1c0-13.9-11.3-25.1-25.2-25.1
				C179,374.7,167.7,386,167.7,399.9"/>
			<path class="st5" d="M189.8,424.6c-2.4-0.8-4.8-1.6-7.1-2.5c0.1,0,0.2-0.1,0.4-0.2c-0.6-0.3-1.2-0.6-1.8-0.9
				c-7.1-3.9-15.3-13.1-11.3-21.3c4.3-9,12.8,3.5,15.6,6.7c3,3.6,7.5,5.6,12.1,5.9c1-0.5,2-0.4,2.7,0c5.2-0.4,10.1-3,12.4-8
				c1-2.2,3.9-1,4.2,0.9c1.9-0.9,4.4,1.1,3.1,3.1c-0.5,0.8-1.1,1.6-1.7,2.3c-0.4,2.1-1.9,3.9-3.6,5.3c-0.5,0.4-1.1,0.6-1.6,0.6
				c0,0.5-0.3,0.9-0.7,1.2c-6.9,5.3-15.1,7.6-23.2,6.1C189.5,424.1,189.6,424.4,189.8,424.6"/>
			<path class="st9" d="M193.8,427.8c-15.4,0-27.9-12.5-27.9-27.9s12.5-27.9,27.9-27.9s27.9,12.5,27.9,27.9S209.2,427.8,193.8,427.8
				z M193.8,377.5c-12.3,0-22.4,10-22.4,22.4c0,12.3,10,22.4,22.4,22.4c12.3,0,22.4-10,22.4-22.4
				C216.1,387.5,206.1,377.5,193.8,377.5z"/>
			<path class="st5" d="M196.2,443.4c-1.5,0-2.9,0.3-4.3,0.8c0.6,1.3,1.1,2.7,1.1,4.4c0,4.9-3.3,8.9-7.4,8.9c-1.4,0-2.7-0.6-3.9-1.5
				c-0.5,1.9-0.9,3.8-0.9,5.9c0,10.2,6.9,18.5,15.3,18.5c8.5,0,15.3-8.3,15.3-18.5C211.5,451.7,204.6,443.4,196.2,443.4z
				 M200.7,464.6c-1.2,0-2.2-1.2-2.2-2.7s1-2.7,2.2-2.7s2.2,1.2,2.2,2.7C202.9,463.4,202,464.6,200.7,464.6z"/>
			<g>
				<path class="st10" d="M197,472.4c0,2.4-1.6,4.4-3.6,4.4s-3.6-2-3.6-4.4s1.6-4.4,3.6-4.4S197,470,197,472.4z"/>
				<path class="st10" d="M204.3,468.8c0,1.5-1,2.7-2.2,2.7s-2.2-1.2-2.2-2.7s1-2.7,2.2-2.7C203.3,466.2,204.3,467.3,204.3,468.8z"
					/>
			</g>
		</g>
		<g>
			<path class="st9" d="M-96.6,506.5c-1.5,0-2.8-1.2-2.8-2.8c0-43.2,20.3-61.4,29.6-67.4c0.3-0.5,0.8-0.9,1.4-1
				c1.3-0.4,3.2,0.2,3.7,1.5c1,2.2-1,3.5-1.7,3.9C-74.7,446-94,462.5-94,503.9C-93.8,505.3-95.1,506.5-96.6,506.5z"/>
			<path class="st9" d="M-8.8,506.5c-1.5,0-2.8-1.2-2.8-2.8c0-41.4-19.3-57.9-27.6-63.1c-0.7-0.4-2.7-1.7-1.7-3.9
				c0.6-1.2,2.4-1.8,3.7-1.5c0.7,0.2,1.2,0.6,1.6,1.1c9.9,6.6,29.5,24.8,29.5,67.3C-6,505.3-7.3,506.5-8.8,506.5z"/>
			<path class="st4" d="M-38,434.5c4.2,7.5,10.7,10.5,15.6,30.5c1.9,7.9,2.4,15.1,0,26.9c-0.8,4.2-10.5,11.6-21,13.3
				c-5.5,0.9-12,0.4-21.1-0.9c-3.3-0.5-16.5-3.2-17.5-13c-0.7-7.4-3.3-15.3,0-26.8c2.8-9.8,5.8-14.3,17.9-31.8
				C-52,415.4-53,415.6-53,415.6S-42.3,426.8-38,434.5"/>
			<path class="st5" d="M-73.9,449.5c1.9-3.9,4.5-7.5,6.3-11.5c0.9-2,2.3-5.2,4.8-5.9c0.5-0.4,1-0.6,1.5-0.8
				c-0.6-0.3-1.2-0.6-1.8-0.9c-0.7-0.4-1.3-0.8-2-1.2c4,1,7.9,2,11.3,4.3c-0.5-0.1-0.9-0.1-1.4-0.2c0.9,1,1.5,2.3,1.5,3.9
				c0,4.2-2.3,7.9-4.6,11.4c-3.8,5.8-6.5,10.7-7.3,17.7c-0.7,5.9-0.1,12.3,1.3,18.1c1.1,4.5,5.5,7.3,6.4,11.9
				c0.9,4.7-3.1,4.8-6.9,3.9c-0.9,0.2-2,0-2.5-0.7c-1.1-0.4-2.1-0.8-2.7-1.1c-7.6-3.6-10.2-10-10.7-17.8
				C-81.5,469.8-78.6,459.2-73.9,449.5"/>
			<path class="st9" d="M-48.5,508.4c-3.9,0-8.4-0.4-15.5-1.4c-1.9-0.3-18.6-3-19.8-15.5c-0.1-1.6-0.4-3.2-0.6-4.9
				c-0.9-6.3-2-13.4,0.7-23c2.9-10.2,5.9-14.8,18.3-32.6c6.3-9.1,9-13.2,10.1-15l-2.7-2.9l2.9-0.2l-0.8-5.6l5,5.4l1.3-0.1l0.2,1.7
				c2.5,2.7,10.8,11.9,14.7,18.8c1.1,1.9,2.3,3.5,3.7,5.3c3.8,4.8,8.5,10.9,12.1,25.9c1.9,7.7,2.6,15.4,0,28
				c-1.2,6.1-12.7,13.7-23.2,15.5C-44,508.2-46.1,508.4-48.5,508.4z M-51.4,420.2c-1.7,2.7-4.5,6.9-9.4,13.9
				c-12,17.2-14.9,21.6-17.5,31c-2.4,8.4-1.5,14.7-0.6,20.7c0.3,1.8,0.5,3.5,0.7,5.2c0.8,8.4,14.5,10.5,15.1,10.5
				c10.7,1.5,15.7,1.7,20.3,0.9c10.2-1.7,18.2-8.7,18.7-11.1c2.4-11.7,1.8-18.5,0-25.7c-3.4-13.9-7.5-19.2-11.1-23.8
				c-1.5-1.9-2.9-3.8-4.2-6C-42.3,430.8-48.1,424-51.4,420.2z"/>
			<path class="st4" d="M-75.5,406.8c0,13.7,11.1,24.8,24.8,24.8s24.8-11.1,24.8-24.8c0-13.7-11.1-24.8-24.8-24.8
				S-75.5,393.1-75.5,406.8"/>
			<path class="st5" d="M-53.8,431.2c-2.3-0.8-4.7-1.5-7-2.5c0.1,0,0.2-0.1,0.4-0.1c-0.6-0.3-1.2-0.6-1.8-0.9
				c-7-3.9-15.1-12.9-11.2-21c4.3-8.8,12.7,3.4,15.4,6.6c3,3.5,7.4,5.5,12,5.8c1-0.5,1.9-0.4,2.7,0c5.1-0.4,9.9-2.9,12.2-7.9
				c1-2.1,3.8-1,4.2,0.9c1.8-0.9,4.3,1.1,3,3.1c-0.5,0.8-1.1,1.5-1.6,2.3c-0.4,2.1-1.9,3.8-3.5,5.2c-0.5,0.4-1.1,0.6-1.6,0.6
				c-0.1,0.5-0.3,0.9-0.7,1.2c-6.8,5.2-14.9,7.5-22.8,6C-54.1,430.8-53.9,431-53.8,431.2"/>
			<path class="st9" d="M-49.8,434.4c-15.2,0-27.6-12.4-27.6-27.6s12.4-27.6,27.6-27.6s27.6,12.4,27.6,27.6S-34.6,434.4-49.8,434.4z
				 M-49.8,384.8c-12.2,0-22.1,9.9-22.1,22.1S-62,429-49.8,429s22.1-9.9,22.1-22.1C-27.7,394.7-37.6,384.8-49.8,384.8z"/>
			<path class="st9" d="M-41,388.9c-6.8,0-22-1.6-28.7-15.3c-0.7-1.4-0.1-3,1.3-3.7c1.4-0.7,3-0.1,3.7,1.3
				c6.8,14,26.3,12.1,26.5,12.1c1.5-0.1,2.9,0.9,3,2.5c0.2,1.5-0.9,2.9-2.4,3C-37.8,388.8-39.1,388.9-41,388.9z"/>
			<path class="st9" d="M-50.4,444.2c-9.3,0-13.8-7.5-13.9-7.8c-0.8-1.3-0.3-3,1-3.8s3-0.3,3.8,1c0.1,0.2,3.1,5.1,9.2,5.1
				c5.8,0,7.7-4.5,7.8-4.7c0.6-1.4,2.2-2.1,3.6-1.5s2.1,2.1,1.5,3.5C-37.6,436.3-40.8,444.2-50.4,444.2z"/>
		</g>
		<g>
			<path class="st11" d="M-7.8,356.7c0,0,4.6,5.7,12.6,4.2s11.7-10,11.7-10"/>
			<circle class="st9" cx="-6" cy="338" r="4.3"/>
			<circle class="st9" cx="14.8" cy="338" r="4.3"/>
		</g>
		<g>
			<path class="st11" d="M115.6,356.7c0,0,4.6,5.7,12.6,4.2s11.7-10,11.7-10"/>
			<circle class="st9" cx="117.4" cy="338" r="4.3"/>
			<circle class="st9" cx="138.3" cy="338" r="4.3"/>
		</g>
		<g>
			<path class="st12" d="M-57.7,415.3c0,0,3.6,4.5,9.8,3.3s9.2-7.9,9.2-7.9"/>
			<path class="st9" d="M-53,400.6c0-1.8-1.5-3.3-3.3-3.3s-3.3,1.5-3.3,3.3s1.5,3.3,3.3,3.3C-54.5,403.9-53,402.4-53,400.6z"/>
			<circle class="st9" cx="-40" cy="400.6" r="3.3"/>
		</g>
		<circle class="st9" cx="186.3" cy="397.9" r="3"/>
		<circle class="st9" cx="201.1" cy="398.1" r="3"/>
		<path class="st13" d="M183,408.4c0,0,1.4,4.8,8.7,5.3s10.7-6,10.7-6"/>
		<path class="st9" d="M135,310.9c0.1,1.1-0.9-1.2-1.3-1.8c-2.4-3-5-5.6-8.5-7.4c-6.3-3.2-12.5-6.2-19.8-5.8
			c-2.7,0.1-7.2,1.7-5.8,5.5c1.4,3.7,7.9,4.4,10.5,6.9c-6.5-2-19.3-4.7-24.1,2c-5,7,14.8,7.9,18.7,6.9c-3.5-0.8-21.7,0.3-17,6.8
			c4.1,5.7,18.5,3.3,23.4,0.5"/>
		<path class="st14" d="M-13.4,315.5c-0.6,0-18.2-1-22.9,11.2c-4.8,12.2,13.6,37.6,8.5,46.5C-33,382.1-40.2,384-40.2,384"/>
		<path class="st14" d="M27.8,317.8c0.8,0,24.2-5.4,24,10.3s-16.7,51.9-5.4,60.2c11.4,8.3,18.2,1,18.2,1"/>
		<path class="st14" d="M3,309.1c-1,0.2-24.2-12.6-32.3-3.9c-8.1,8.7,14.5,35.8,9.9,51.3c-4.5,15.5-6,22.9-6,22.9"/>
	</g>
</g>
<path class="st15" d="M8.2,508.7c0,0-4.8,25.1-1.7,30.6c3,5.5,133.7,2.5,138.1,1.8c4.4-0.8,6.9-21.3,2.7-36.6
	c-4.2-15.3-134.1-1.2-134.1-1.2"/>
<g>
	<path class="st9" d="M35.9,529.5c0,0.4-0.2,0.7-0.5,1c-0.3,0.3-0.7,0.5-1.1,0.5s-0.8-0.2-1.1-0.5c-0.3-0.3-0.4-0.6-0.4-1v-17
		c0-0.4,0.2-0.8,0.5-1.1c0.3-0.3,0.7-0.5,1.3-0.5h7.6c0.4,0,0.8,0.1,1.1,0.4c0.3,0.3,0.5,0.6,0.5,1c0,0.4-0.2,0.7-0.5,1
		c-0.3,0.3-0.7,0.4-1.1,0.4h-6.3v5.6h5.7c0.4,0,0.7,0.1,1,0.4c0.3,0.3,0.5,0.6,0.5,1c0,0.4-0.1,0.8-0.4,1c-0.3,0.3-0.7,0.4-1.1,0.4
		h-5.7V529.5z"/>
	<path class="st9" d="M47.2,529.9c-0.1,0.3-0.3,0.6-0.6,0.8c-0.3,0.2-0.6,0.3-0.9,0.3c-0.4,0-0.8-0.1-1.1-0.4
		c-0.3-0.3-0.5-0.6-0.5-1c0-0.1,0-0.2,0-0.3c0-0.1,0-0.2,0-0.3l5.5-16.7c0.1-0.5,0.4-0.9,0.6-1.2c0.3-0.3,0.7-0.5,1.2-0.5
		c0.5,0,0.9,0.2,1.2,0.5c0.3,0.3,0.5,0.7,0.7,1.2l5.5,16.7c0,0.1,0.1,0.1,0.1,0.3c0,0.1,0,0.2,0,0.3c0,0.4-0.2,0.8-0.5,1
		c-0.3,0.3-0.7,0.4-1.1,0.4c-0.5,0-0.9-0.2-1.1-0.5c-0.2-0.3-0.4-0.7-0.6-1.2l-0.9-2.7h-6.5L47.2,529.9z M51.5,515.3
		c-0.4,1.5-0.7,2.9-1.2,4.3c-0.4,1.4-0.8,2.8-1.3,4.2h4.9c-0.4-1.4-0.9-2.8-1.3-4.2C52.2,518.2,51.8,516.7,51.5,515.3z"/>
	<path class="st9" d="M78.2,529.5c0,0.4-0.1,0.7-0.4,1c-0.3,0.3-0.7,0.4-1.1,0.4c-0.4,0-0.8-0.1-1.1-0.4c-0.3-0.3-0.5-0.6-0.5-1
		v-11.7l-3.9,8c-0.1,0.3-0.4,0.5-0.6,0.7c-0.3,0.1-0.5,0.2-0.9,0.2c-0.3,0-0.6-0.1-0.9-0.2c-0.3-0.1-0.5-0.4-0.6-0.7l-3.8-8v11.7
		c0,0.4-0.2,0.7-0.5,1c-0.3,0.3-0.7,0.4-1.1,0.4c-0.4,0-0.8-0.1-1.1-0.4c-0.3-0.3-0.4-0.6-0.4-1v-17.4c0-0.4,0.1-0.8,0.4-1.1
		s0.7-0.4,1.2-0.4c0.7,0,1.3,0.3,1.6,0.9l5.3,10.8l5.2-10.9c0.2-0.3,0.4-0.5,0.7-0.7c0.3-0.1,0.6-0.2,0.9-0.2c0.4,0,0.8,0.1,1.1,0.4
		c0.3,0.3,0.5,0.7,0.5,1.1V529.5z"/>
	<path class="st9" d="M81.6,512.1c0-0.4,0.1-0.7,0.4-1c0.3-0.3,0.7-0.4,1.1-0.4c0.4,0,0.8,0.1,1.1,0.4c0.3,0.3,0.5,0.6,0.5,1v17.4
		c0,0.4-0.2,0.7-0.5,1c-0.3,0.3-0.7,0.5-1.1,0.5c-0.4,0-0.8-0.2-1.1-0.5c-0.3-0.3-0.4-0.6-0.4-1V512.1z"/>
	<path class="st9" d="M99.7,529.2c0,0.4-0.1,0.8-0.4,1s-0.6,0.4-1.1,0.4h-7.9c-0.4,0-0.8-0.2-1.2-0.5c-0.3-0.3-0.5-0.7-0.5-1.1v-17
		c0-0.4,0.1-0.7,0.4-1c0.3-0.3,0.7-0.4,1.1-0.4c0.4,0,0.8,0.1,1.1,0.4c0.3,0.3,0.5,0.6,0.5,1v15.8h6.5c0.4,0,0.7,0.1,1,0.4
		C99.5,528.5,99.7,528.9,99.7,529.2z"/>
	<path class="st9" d="M101.9,512.1c0-0.4,0.1-0.7,0.4-1c0.3-0.3,0.7-0.4,1.1-0.4s0.8,0.1,1.1,0.4s0.5,0.6,0.5,1v17.4
		c0,0.4-0.2,0.7-0.5,1c-0.3,0.3-0.7,0.5-1.1,0.5s-0.8-0.2-1.1-0.5c-0.3-0.3-0.4-0.6-0.4-1V512.1z"/>
	<path class="st9" d="M110.6,529.9c-0.1,0.3-0.3,0.6-0.6,0.8c-0.3,0.2-0.6,0.3-0.9,0.3c-0.4,0-0.8-0.1-1.1-0.4
		c-0.3-0.3-0.5-0.6-0.5-1c0-0.1,0-0.2,0-0.3c0-0.1,0-0.2,0-0.3l5.5-16.7c0.1-0.5,0.4-0.9,0.6-1.2c0.3-0.3,0.7-0.5,1.2-0.5
		c0.5,0,0.9,0.2,1.2,0.5c0.3,0.3,0.5,0.7,0.7,1.2l5.5,16.7c0,0.1,0.1,0.1,0.1,0.3c0,0.1,0,0.2,0,0.3c0,0.4-0.2,0.8-0.5,1
		c-0.3,0.3-0.7,0.4-1.1,0.4c-0.5,0-0.9-0.2-1.1-0.5c-0.2-0.3-0.4-0.7-0.6-1.2l-0.9-2.7h-6.5L110.6,529.9z M114.9,515.3
		c-0.4,1.5-0.7,2.9-1.2,4.3c-0.4,1.4-0.8,2.8-1.3,4.2h4.9c-0.4-1.4-0.9-2.8-1.3-4.2C115.6,518.2,115.2,516.7,114.9,515.3z"/>
</g>
</svg>
