<?xml version="1.0" encoding="utf-8"?>
<!-- Generator: Adobe Illustrator 19.0.0, SVG Export Plug-In . SVG Version: 6.00 Build 0)  -->
<svg version="1.1" id="Capa_1" xmlns="http://www.w3.org/2000/svg" xmlns:xlink="http://www.w3.org/1999/xlink" x="0px" y="0px"
	 viewBox="32 -28.4 1024 616.4" style="enable-background:new 32 -28.4 1024 616.4;" xml:space="preserve">
<style type="text/css">
	.st0{fill:none;}
	.st1{fill:#E0DFE6;}
	.st2{opacity:0.43;fill:url(#XMLID_10_);}
</style>
<pattern  x="32" y="588" width="57.4" height="56.6" patternUnits="userSpaceOnUse" id="New_Pattern_Swatch_8" viewBox="0.1 -56.6 57.4 56.6" style="overflow:visible;">
	<g>
		<polygon class="st0" points="0.1,0 57.5,0 57.5,-56.6 0.1,-56.6 		"/>
		<g>
			<path class="st1" d="M0.3-55.2c-0.3,0.5-0.1,1.1,0.4,1.4c1.7,1,3.3,2.2,4.8,3.4c0,0-0.1,0.1-0.1,0.1C3.9-49,2.4-47.7,1-46.3
				c-0.4,0.4-0.4,1,0,1.4c0.2,0.2,0.5,0.3,0.7,0.3c0.3,0,0.5-0.1,0.7-0.3c1.3-1.3,2.8-2.6,4.2-3.9C6.8-48.9,6.9-49,7-49.1
				c2.2,1.8,4.5,3.6,7.3,5c0.1,0.1,0.3,0.1,0.4,0.1c0.4,0,0.7-0.2,0.9-0.6c0.2-0.5,0-1.1-0.4-1.3c-2.4-1.2-4.6-2.9-6.6-4.5
				c1.5-1.4,3.1-2.8,4.4-4.4c0.4-0.4,0.3-1.1-0.1-1.4c-0.4-0.4-1.1-0.3-1.4,0.1c-1.3,1.6-2.9,3-4.5,4.4c-1.7-1.3-3.4-2.7-5.3-3.8
				C1.2-55.8,0.6-55.7,0.3-55.2z"/>
		</g>
		<g>
			<path class="st1" d="M42-11.1c-0.3,0.5-0.1,1.1,0.4,1.4c1.7,1,3.3,2.2,4.8,3.4c0,0-0.1,0.1-0.1,0.1c-1.4,1.3-2.9,2.6-4.3,3.9
				c-0.4,0.4-0.4,1,0,1.4c0.2,0.2,0.5,0.3,0.7,0.3c0.3,0,0.5-0.1,0.7-0.3c1.3-1.3,2.8-2.6,4.2-3.9c0.1-0.1,0.3-0.2,0.4-0.4
				c2.2,1.8,4.5,3.6,7.3,5C56.2,0,56.3,0,56.5,0c0.4,0,0.7-0.2,0.9-0.6c0.2-0.5,0-1.1-0.4-1.3c-2.4-1.2-4.6-2.9-6.6-4.5
				c1.5-1.4,3.1-2.8,4.4-4.4c0.4-0.4,0.3-1.1-0.1-1.4c-0.4-0.4-1.1-0.3-1.4,0.1c-1.3,1.6-2.9,3-4.5,4.4c-1.7-1.3-3.4-2.7-5.3-3.8
				C42.9-11.8,42.3-11.6,42-11.1z"/>
		</g>
	</g>
</pattern>
<pattern  id="XMLID_10_" xlink:href="#New_Pattern_Swatch_8" patternTransform="matrix(1 0 0 1 -67.8841 -48.285)">
</pattern>
<rect id="XMLID_749_" x="33.9" y="-28.4" class="st2" width="1021.1" height="616.4"/>
</svg>
