<?xml version="1.0" encoding="utf-8"?>
<!-- Generator: Adobe Illustrator 19.0.0, SVG Export Plug-In . SVG Version: 6.00 Build 0)  -->
<svg version="1.1" id="Capa_1" xmlns="http://www.w3.org/2000/svg" xmlns:xlink="http://www.w3.org/1999/xlink" x="0px" y="0px"
	 viewBox="-275 378.6 59.4 36.4" style="enable-background:new -275 378.6 59.4 36.4;" xml:space="preserve">
<style type="text/css">
	.st0{fill:#FFFFFF;stroke:#004966;stroke-linecap:round;stroke-linejoin:round;stroke-miterlimit:10;}
</style>
<g>
	<path class="st0" d="M-253.2,380.6c-10.3,2.4-21.1,1-20.1,11.7c0.3,5.1,0.7,7.7,7.3,10c4.4,0.5,4.6,1.2,5.2,6.6
		c-0.1,3.8-2.3,5.1-2.3,5.1s4.2,0.1,6.2-2.9s0.5-5.2,0.5-5.2c0.9-2.1,3-0.6,8.7-1.8c3.5-0.8,22.7,0.1,26.3-1.4c4.3-1.9,4.5-6.5,4-10
		c-0.2-3.4-0.1-6.8-3.4-9.4C-225.3,379.9-242.7,378.6-253.2,380.6z"/>
</g>
</svg>
