<?xml version="1.0" encoding="utf-8"?>
<!-- Generator: Adobe Illustrator 19.0.0, SVG Export Plug-In . SVG Version: 6.00 Build 0)  -->
<svg version="1.1" id="Capa_1" xmlns="http://www.w3.org/2000/svg" xmlns:xlink="http://www.w3.org/1999/xlink" x="0px" y="0px"
	 viewBox="-446 250.3 66.5 60.7" style="enable-background:new -446 250.3 66.5 60.7;" xml:space="preserve">
<style type="text/css">
	.st0{fill:#04A7DB;}
	.st1{fill:none;stroke:#1F4D69;stroke-width:1.3939;stroke-miterlimit:10;}
	.st2{fill:#D2D9DB;}
	.st3{fill:#FFCC80;}
	.st4{fill:#1F4D69;}
	.st5{fill:none;stroke:#1F4D69;stroke-width:1.2597;stroke-miterlimit:10;}
</style>
<g id="Capa_1_1_">
</g>
<g id="Capa_2">
</g>
<g>
	<g>
		<path class="st0" d="M-386.1,283.8c0-0.7,0-1.5-0.2-2.2c-0.1-2.3-0.7-4.7-2.4-6.2c0,0,0,0,0,0c-0.2-0.2-0.3-0.4-0.5-0.6
			c0.1-0.2,0.1-0.4-0.1-0.5c0,0-0.1,0-0.1,0h0c0,0,0,0,0,0c-0.2-0.1-0.4-0.3-0.6-0.4c-0.6-0.8-1.3-1.4-2.2-1.8c-0.1,0-0.1,0-0.2,0
			c-0.2-0.2-0.3-0.3-0.5-0.4c-3.8-3-10.2-4.7-14.2-1.2c0,0-0.1,0.1-0.1,0.1c-0.1-0.1-0.3-0.1-0.5,0c-1.4,0.9-3,1.3-3.9,2.8
			c0,0,0,0.1,0,0.1c-1.1,0.7-1.8,1.9-2.4,3.1c-0.1,0.1-0.1,0.3,0,0.4c-2.3,3.1-2.7,6.9-1.5,10.7c1.3,4,3.7,8.4,7.9,9.9
			c0.5,0.2,0.9,0.3,1.4,0.4c0.7,0.3,1.4,0.4,2,0.4c1.3,0.5,2.6,0.9,3.9,0.7c0.1,0,0.2-0.1,0.2-0.2c0.3-0.1,0.5-0.1,0.8-0.3
			c0.9,0,1.8-0.1,2.7-0.5c0.2-0.1,0.3-0.2,0.3-0.3c0.7-0.2,1.4-0.4,2-0.8c0.1,0,0.2,0,0.2,0c0.4-0.1,0.7-0.2,1.1-0.4
			c0.1,0,0.1,0,0.2-0.1c1.1-0.6,1.8-1.4,2.4-2.3c0.1,0,0.2-0.1,0.3-0.2c0.7-1,1.6-2,2.2-3.1c0.1,0,0.1-0.1,0.1-0.2
			c0.2-0.4,0.4-0.9,0.5-1.4c0.4-1.1,0.6-2.3,0.7-3.4c0-0.2,0.1-0.4,0.1-0.7c0.1-0.1,0.2-0.2,0.2-0.4
			C-386.1,284.5-386.1,284.2-386.1,283.8z M-403.1,269.4c-0.2,0-0.4,0-0.6,0.1c0.3-0.1,0.7-0.2,1-0.2
			C-402.8,269.4-402.9,269.4-403.1,269.4z M-392.4,291.2c-0.4,1-7.8,3.9-7.8,4.1c-1.1-0.2-7.3-2.2-8.2-2.7c-0.5-0.4-3.1-5-3.4-5.5
			c0-0.2-0.4-5,0.3-6.4c0.6-1,2.7-4.8,3-5.1c0.8-0.9,4-3.2,7.3-3c5.6-0.5,10.8,4.3,11.3,9.1C-389.9,282.4-392.3,290.9-392.4,291.2z"
			/>
		<ellipse class="st1" cx="-400.9" cy="283.5" rx="15.5" ry="15.7"/>
		<circle class="st1" cx="-401" cy="283.3" r="11.7"/>
		<path class="st2" d="M-402.1,289.2c-3.7-0.1-5.1-4.2-5-7.4c0.1-1.7-2.6-1.7-2.7,0c-0.1,4.7,2.4,10,7.7,10.1
			C-400.3,292-400.3,289.3-402.1,289.2z"/>
		<path class="st2" d="M-407.8,276.9c-0.7,0-1.3,0.6-1.3,1.3v0.1c0,0.7,0.5,1.3,1.3,1.3c0.7,0,1.3-0.6,1.3-1.3v-0.1
			C-406.6,277.5-407.1,276.9-407.8,276.9z"/>
	</g>
	<path class="st3" d="M-436,272.9c2,0.6,4.5,0.5,6.5,0.3c2.8-0.2,2.2-4.4-0.5-3.8c-1,0.2-2,0.4-3,0.6c-1,0.1-2,0.2-3,0.4
		C-437.2,270.9-437.1,272.5-436,272.9z"/>
	<path class="st4" d="M-428.3,269.4h-7.4c-0.2-0.2-0.4-0.3-0.7-0.3c-0.5,0-0.8,0.4-0.8,0.9c0,0.4,0,0.8,0,1.2c0,0.7,0,1.4,0,2.1
		l0,0.3c0,0.3,0.1,0.5,0.3,0.7c0.2,0.1,0.4,0.2,0.6,0.2c0,0,0.1,0,0.1,0c1.3-0.2,2.7-0.3,4.1-0.3c0.3,0,0.7,0,1,0c0.3,0,0.7,0,1,0
		c0.8,0,1.3,0,1.9,0c0.5,0,0.8-0.4,0.8-0.9v-3.1C-427.5,269.8-427.9,269.4-428.3,269.4z M-429.2,272.5c-0.6,0-1.3,0-2,0
		c-1.4,0-2.8,0-4.3,0.1c0-0.5,0-1,0-1.5c0,0,0-0.1,0-0.1h6.3V272.5z"/>
	<path class="st5" d="M-381.4,301.2c0,1.1-0.3,2.9-1.5,2.9h-57.3c-1.2,0-2-1.8-2-2.9v-35.7c0-1.1,0.8-2.6,2-2.6h57.3
		c1.2,0,1.5,1.5,1.5,2.6V301.2z"/>
	<path class="st2" d="M-384.3,298.1c-11.5,1-54.7,6.9-53.2-9.9c-0.4-6.4,0.1-14.2,0.3-20.6c0.1-2.1,0.2-4.2-1.8-4.2
		c-2.1,0-3.8,1.7-3.8,3.8c-0.3,7.8,0.1,15.5,0.6,23.3c-0.2,0.5-0.3,1-0.3,1.5c0,1.4,0.3,2.7,0.6,4c0.1,0.2,0.1,0.5,0.2,0.7
		c0,0.1,0.1,0.1,0.1,0.2c0,0,0.1,0.1,0.1,0.2c0,0,0,0,0,0c-0.6,1-1,2.1-0.7,3.3c0.5,1.8,1.9,2.6,3.7,2.8c5.1,0.7,10,1.1,15.1,0.5
		c12.5,0.4,25.1-0.1,37.5-1.2c2.1-0.2,3.8-1.6,3.8-3.8C-382.2,296.7-382.2,297.9-384.3,298.1z"/>
	<path class="st5" d="M-438.4,262.8v-2.7c0,0-0.1-1,0.3-1.2c0.6-0.4,10.5-0.4,11.2,0c0.5,0.3-0.2,2.2-0.2,2.2l19.1-0.3
		c0,0-0.6-2.8,0.2-3.3c0.8-0.4,16.9-0.4,17.7,0c0.5,0.3-0.4,1.5-0.4,1.5v1.9c0,0,4.5-0.5,5.3,0c0.9,0.5-0.1,3-0.1,3"/>
	<circle class="st1" cx="-400.7" cy="283.8" r="8"/>
</g>
</svg>
