<?xml version="1.0" encoding="utf-8"?>
<!-- Generator: Adobe Illustrator 19.0.0, SVG Export Plug-In . SVG Version: 6.00 Build 0)  -->
<svg version="1.1" id="Capa_1" xmlns="http://www.w3.org/2000/svg" xmlns:xlink="http://www.w3.org/1999/xlink" x="0px" y="0px"
	 viewBox="-214 352.5 182 88.5" style="enable-background:new -214 352.5 182 88.5;" xml:space="preserve">
<style type="text/css">
	.st0{fill:none;stroke:#004966;stroke-width:0.7537;stroke-linecap:round;stroke-miterlimit:10;}
	.st1{fill:#C7C5D0;stroke:#004966;stroke-width:0.6567;stroke-linecap:round;stroke-miterlimit:10;}
	.st2{fill:#0098D5;}
	.st3{fill:none;stroke:#004966;stroke-width:1.3411;stroke-linecap:round;stroke-miterlimit:10;}
	.st4{fill:none;stroke:#004966;stroke-width:1.3411;stroke-miterlimit:10;}
	.st5{fill:#FFFFFF;}
	.st6{fill:#DFDEE4;}
	.st7{fill:#004966;}
	.st8{fill:#0098C8;stroke:#004966;stroke-width:1.2416;stroke-linecap:round;stroke-miterlimit:10;}
	.st9{fill:none;stroke:#004966;stroke-width:0.9052;stroke-miterlimit:10;}
	.st10{fill:#9C95B2;stroke:#004966;stroke-width:0.6567;stroke-linecap:round;stroke-miterlimit:10;}
	.st11{fill:none;stroke:#004966;stroke-width:0.6567;stroke-linecap:round;stroke-miterlimit:10;}
	.st12{fill:#0098C8;stroke:#004966;stroke-width:0.6567;stroke-linecap:round;stroke-miterlimit:10;}
	.st13{fill:none;stroke:#004966;stroke-width:1.169;stroke-linecap:round;stroke-miterlimit:10;}
	.st14{fill:none;stroke:#004966;stroke-width:1.169;stroke-miterlimit:10;}
	.st15{fill:none;stroke:#004966;stroke-width:0.7762;stroke-linecap:round;stroke-miterlimit:10;}
</style>
<g>
	<g>
		<rect x="-153.9" y="361" class="st0" width="108.5" height="63"/>
		<rect x="-144.9" y="370" class="st1" width="48.2" height="54.2"/>
		<g>
			<g>
				<g>
					<path class="st2" d="M-179.8,393.4c1,1.8,2.6,2.6,3.8,7.4c0.5,1.9,0.6,3.7,0,6.5c-0.2,1-2.6,2.8-5.1,3.2
						c-1.3,0.2-2.9,0.1-5.1-0.2c-0.8-0.1-4-0.8-4.2-3.2c-0.2-1.8-0.8-3.7,0-6.5c0.7-2.4,1.4-3.5,4.4-7.7c2.9-4.2,2.7-4.1,2.7-4.1
						S-180.8,391.5-179.8,393.4"/>
					<path class="st3" d="M-181.8,429.7c0.1,0.5-0.4-8.6,0.4-19.1"/>
					<path class="st3" d="M-188.1,429.9c0,0,1-12.2,2.2-19.1"/>
					<path class="st2" d="M-188.4,397.2c0.5-1,1.1-1.9,1.5-2.9c0.2-0.5,0.6-1.3,1.2-1.5c0.1-0.1,0.2-0.2,0.4-0.2
						c-0.1-0.1-0.3-0.1-0.4-0.2c-0.2-0.1-0.3-0.2-0.5-0.3c1,0.3,1.9,0.5,2.7,1.1c-0.1,0-0.2,0-0.3-0.1c0.2,0.3,0.4,0.6,0.4,1
						c0,1.1-0.6,2-1.1,2.9c-0.9,1.5-1.6,2.7-1.8,4.5c-0.2,1.5,0,3.2,0.3,4.6c0.3,1.2,1.3,1.9,1.6,3c0.2,1.2-0.8,1.2-1.7,1
						c-0.2,0.1-0.5,0-0.6-0.2c-0.3-0.1-0.5-0.2-0.7-0.3c-1.8-0.9-2.5-2.6-2.6-4.5C-190.3,402.4-189.6,399.7-188.4,397.2"/>
					<path class="st4" d="M-179.4,393.4c1,1.8,2.6,2.6,3.8,7.4c0.5,1.9,0.6,3.7,0,6.5c-0.2,1-2.6,2.8-5.1,3.2
						c-1.3,0.2-2.9,0.1-5.1-0.2c-0.8-0.1-4-0.8-4.2-3.2c-0.2-1.8-0.8-3.7,0-6.5c0.7-2.4,1.4-3.5,4.4-7.7c2.9-4.2,2.7-4.1,2.7-4.1
						S-180.6,391.5-179.4,393.4z"/>
					<path class="st5" d="M-190.6,384.8c-1.1,3.1,0.5,6.6,3.6,7.7c3.1,1.1,6.6-0.5,7.7-3.6c1.1-3.1-0.5-6.6-3.6-7.7
						C-186.1,380-189.4,381.7-190.6,384.8"/>
					<path class="st6" d="M-187.6,392.2c-0.5-0.4-0.9-0.7-1.4-1.1h0.1c-0.1-0.1-0.2-0.2-0.3-0.4c-1.3-1.5-2.4-4.2-0.8-5.7
						c1.7-1.7,2.6,1.8,3,2.8c0.4,1.1,1.2,1.9,2.2,2.3c0.3,0,0.5,0.1,0.6,0.2c1.2,0.3,2.5,0.2,3.4-0.8c0.4-0.4,1,0.1,0.9,0.6
						c0.5-0.1,0.9,0.6,0.4,1c-0.2,0.1-0.4,0.3-0.6,0.4c-0.3,0.4-0.7,0.7-1.2,0.9c-0.2,0.1-0.3,0-0.4,0c0,0.1-0.1,0.2-0.3,0.2
						c-2,0.6-4,0.5-5.7-0.5C-187.6,392.1-187.6,392.1-187.6,392.2"/>
					<circle class="st4" cx="-184.8" cy="386.9" r="6"/>
					<path class="st3" d="M-185.8,393c0,0-0.6,2.1,1.3,2.1c1.9,0,3.1-2.8,3.1-2.8"/>
					<g>
						<path class="st7" d="M-188.6,387c-0.2,0-0.3,0-0.5-0.1c0.1,0.3,0.4,0.5,0.7,0.5c0.4,0,0.7-0.3,0.7-0.6
							C-187.8,386.9-188.1,387-188.6,387z"/>
						<path class="st7" d="M-184.3,387c-0.2,0-0.3,0-0.5-0.1c0.1,0.3,0.4,0.5,0.7,0.5c0.4,0,0.7-0.3,0.7-0.6
							C-183.6,386.9-183.8,387-184.3,387z"/>
					</g>
				</g>
			</g>
			<path class="st8" d="M-186.8,392.7l-0.3,1.1l0.4,1.9l2.2-1.3l2.7,1.7l1.7-2.2l-0.6-1.3c0,0-2.5,0.7-3.8,0.4
				C-185.6,392.9-186.8,392.7-186.8,392.7z"/>
			<line class="st9" x1="-184.3" y1="394.4" x2="-184.6" y2="410.6"/>
			<path class="st3" d="M-187.9,395.8c0,0-3,6.8-6.4,9c-3.5,2.2-5.5,2.6-5.5,2.6"/>
			<path class="st3" d="M-178.1,394.9c0,0,5,3.6,6.1,6.8s2,9.2,2,9.2"/>
			<path class="st7" d="M-186.8,390.3c0.9,0,2.1-1,3-0.4c0.6,0.3,0.7,1.5-0.1,1.5c-0.6,0-1.1-0.6-1.7-0.6c-0.5,0-1.1,0.4-1.1-0.4"/>
			<path class="st7" d="M-190.3,385.8c-0.7-0.1-2.2-1.4-0.7-1.4c0-0.6-0.2-1.1-0.2-1.7c0.2,0,0.5-0.1,0.7,0
				c-0.8-0.8-0.5-1.7,0.6-1.6c-0.6-0.8-0.2-2.1,1-1.6c-0.5-1.5,0.9-1.5,1.8-0.9c0.3-0.9,1.6-1.1,2-0.2c0.3-0.9,2-1,2,0
				c0.8-0.5,3.2-0.2,2,0.9c0.9-0.3,1.5,0,1.2,1c0.7-0.2,1,0.4,1,1c0.6,0.1,1.5,1.1,0.6,1.3c0.6,0.1,0.9,0.7,0.4,1.1
				c0.5,0.3,0.4,1.5,0.4,2.2c0,0.9-0.4,1.5-1.3,1.6c0.5-1.7-0.3-2.7-1-4.3c-0.7-1.5-1.8-2.9-3.6-3.1s-3.4,0.5-4.6,1.7
				c-0.5,0.5-1.3,0.9-1.6,1.5c-0.4,0.7-0.1,1.6-0.7,2.3"/>
			<path class="st7" d="M-186.6,381.2c-0.2,0.8,0.3,1.2,1.1,1.1c-0.2,0.8,0.6,1.3,1.3,0.8c0.1,0.4,0.5,0.5,1,0.4c0-0.1,0-0.1,0-0.2
				c0.7,0.4,0.7-0.1,1.3-0.2c0.4-0.1,1,0.6,1.1-0.3c0.7,0.2,0.9-0.5,0.9-1.1c0-0.8-0.2-1-0.9-1.4c-1.1-0.6-3-1.2-4.3-0.8"/>
		</g>
		<rect x="-142.6" y="372.1" class="st10" width="43.6" height="51.7"/>
		<rect x="-91.6" y="370.3" class="st11" width="43.3" height="40"/>
		<rect x="-93.6" y="410.5" class="st1" width="46.9" height="3.1"/>
		<g>
			<rect x="-89.3" y="372.7" class="st12" width="17.4" height="36.2"/>
			<rect x="-66.6" y="372.7" class="st12" width="15.6" height="36.2"/>
		</g>
		<g>
			<g>
				<g>
					<path class="st13" d="M-117.3,423.4c0,0,0.1-7.3,0.4-16.7"/>
					<path class="st13" d="M-122.8,423.6c0,0,0-8.1,0.4-16.7"/>
					<path class="st2" d="M-116.9,392c0.9,1.6,2.3,2.2,3.3,6.5c0.4,1.7,0.5,3.2,0,5.7c-0.2,0.9-2.2,2.5-4.4,2.8
						c-1.2,0.2-2.6,0.1-4.5-0.2c-0.7-0.1-3.5-0.7-3.7-2.8c-0.1-1.6-0.7-3.2,0-5.7c0.6-2.1,1.2-3,3.8-6.7s2.4-3.6,2.4-3.6
						S-117.9,390.4-116.9,392"/>
					<path class="st2" d="M-124.6,395.5c0.4-0.9,1-1.7,1.3-2.6c0.2-0.5,0.5-1.2,1-1.3c0.1-0.1,0.2-0.1,0.3-0.2
						c-0.1-0.1-0.3-0.1-0.4-0.2c-0.1-0.1-0.3-0.2-0.4-0.3c0.8,0.2,1.7,0.4,2.4,1c-0.1,0,0.2,0,0.1,0c0.2,0.2-0.1,0.5-0.1,0.8
						c0,0.9-0.5,1.8-1,2.6c-0.8,1.3-1.4,2.4-1.6,4c-0.2,1.3,0,2.8,0.3,4.1c0.2,1,1.2,1.6,1.4,2.6s-0.7,1.1-1.5,0.9
						c-0.2,0.1-0.4,0-0.5-0.2c-0.2-0.1-0.4-0.2-0.6-0.2c-1.6-0.8-2.2-2.2-2.3-4C-126.3,400-125.6,397.6-124.6,395.5"/>
					<path class="st14" d="M-116.8,392c0.9,1.6,2.3,2.2,3.3,6.5c0.4,1.7,0.5,3.2,0,5.7c-0.2,0.9-2.2,2.5-4.4,2.8
						c-1.2,0.2-2.6,0.1-4.5-0.2c-0.7-0.1-3.5-0.7-3.7-2.8c-0.1-1.6-0.7-3.2,0-5.7c0.6-2.1,1.2-3,3.8-6.7s2.4-3.6,2.4-3.6
						S-117.8,390.4-116.8,392z"/>
					<path class="st5" d="M-124.9,386.2c0,2.9,2.4,5.3,5.3,5.3c2.9,0,5.3-2.4,5.3-5.3c0-2.9-2.4-5.3-5.3-5.3
						S-124.9,383.3-124.9,386.2"/>
					<path class="st6" d="M-120.3,391.3c-0.5-0.2-1-0.3-1.5-0.5h0.1c-0.1-0.1-0.3-0.1-0.4-0.2c-1.5-0.8-3.2-2.7-2.4-4.4
						c0.9-1.9,2.7,0.7,3.3,1.4c0.6,0.7,1.6,1.2,2.5,1.2c0.2-0.1,0.4-0.1,0.6,0c1.1-0.1,2.1-0.6,2.6-1.7c0.2-0.5,0.8-0.2,0.9,0.2
						c0.4-0.2,0.9,0.2,0.6,0.6c-0.1,0.2-0.2,0.3-0.3,0.5c-0.1,0.4-0.4,0.8-0.7,1.1c-0.1,0.1-0.2,0.1-0.3,0.1c0,0.1-0.1,0.2-0.1,0.3
						c-1.4,1.1-3.2,1.6-4.8,1.3C-120.3,391.2-120.3,391.3-120.3,391.3"/>
					<circle class="st14" cx="-119.4" cy="386.2" r="5.3"/>
					<path class="st13" d="M-117.3,381.4c0,0-4.5,0.5-6.2-2.9"/>
					<path class="st13" d="M-116.1,392.8c0,0,8,4.5,7.4,5.7s-4.7,4.8-4.7,4.8l1,1.9"/>
					<path class="st13" d="M-118.1,377c0,0-0.5,0.6-0.1,2.2c0.4,1.6,1,2.5,1,2.5"/>
					<path class="st13" d="M-115.1,378.7c0,0-0.8,0.7-0.9,1.9c-0.1,1.3,0,2,0,2"/>
					<path class="st13" d="M-116.3,392.8c0,0-0.4,1.8-0.9,1.5c-0.4-0.3-2.3-2.5-2.3-2.5s-1.9,2.8-2.5,2.4c-0.6-0.4-0.7-1.5-0.7-1.5"
						/>
					<path class="st13" d="M-119.3,392c0,0.1-0.7,3.2-0.9,8.2c-0.2,5.1,0.1,6.6,0.1,6.6"/>
					<g>
						<path class="st7" d="M-118.1,385.6c0,0.2,0.1,0.3,0.3,0.3l0,0c0.2,0,0.3-0.1,0.3-0.3V385c0-0.2-0.1-0.3-0.3-0.3l0,0
							c-0.2,0-0.3,0.1-0.3,0.3V385.6z"/>
						<path class="st7" d="M-121.3,385.6c0,0.2,0.1,0.3,0.3,0.3l0,0c0.2,0,0.3-0.1,0.3-0.3V385c0-0.2-0.1-0.3-0.3-0.3l0,0
							c-0.2,0-0.3,0.1-0.3,0.3V385.6z"/>
					</g>
				</g>
				<path class="st7" d="M-120.8,388.4c0.3,0.2,2-1,2.8-0.7c0.8,0.4,0.2,1.8,0,1.7c-0.2-0.1-0.9-0.7-0.9-0.7l-1.5,0.4L-120.8,388.4z
					"/>
			</g>
			<path class="st13" d="M-123.4,392.5c0,0-6.2,5.2-5.6,5.9c0.6,0.8,2.6,4.5,2.6,4.5l-1.2,1.2"/>
		</g>
		<line class="st11" x1="-208.1" y1="423.9" x2="-52" y2="423.9"/>
		<line class="st11" x1="-154.3" y1="423.5" x2="-177.4" y2="429.5"/>
		<line class="st11" x1="-115.3" y1="423.7" x2="-124.8" y2="434.8"/>
		<line class="st11" x1="-74.6" y1="424.4" x2="-68.8" y2="437.6"/>
		<line class="st11" x1="-200.3" y1="425.8" x2="-49" y2="425.8"/>
	</g>
	<polygon class="st15" points="-182.1,354.2 -212.8,380.4 -212.8,440 -33.3,440 -33.3,354.2 	"/>
</g>
</svg>
