<?xml version="1.0" encoding="utf-8"?>
<!-- Generator: Adobe Illustrator 19.0.0, SVG Export Plug-In . SVG Version: 6.00 Build 0)  -->
<svg version="1.1" id="Capa_1" xmlns="http://www.w3.org/2000/svg" xmlns:xlink="http://www.w3.org/1999/xlink" x="0px" y="0px"
	 viewBox="-242 354.7 126 84.3" style="enable-background:new -242 354.7 126 84.3;" xml:space="preserve">
<style type="text/css">
	.st0{fill:#C8B99D;stroke:#004966;stroke-width:0.5;stroke-linecap:round;stroke-miterlimit:10;}
	.st1{fill:#E1DFE6;}
	.st2{fill:#C7C5D0;stroke:#004966;stroke-width:0.5;stroke-linecap:round;stroke-miterlimit:10;}
	.st3{fill:#DFDEE4;stroke:#004966;stroke-width:0.5;stroke-linecap:round;stroke-miterlimit:10;}
	.st4{fill:#5B5B5F;stroke:#004966;stroke-width:0.5;stroke-linecap:round;stroke-miterlimit:10;}
	.st5{fill:#64AC28;stroke:#004966;stroke-width:0.5;stroke-linecap:round;stroke-miterlimit:10;}
	.st6{fill:#0098C8;stroke:#004966;stroke-width:0.5;stroke-linecap:round;stroke-miterlimit:10;}
	.st7{fill:#C8B99D;}
	.st8{fill:#004966;}
	.st9{fill:#FFE000;}
	.st10{fill:none;stroke:#004966;stroke-width:1.2;stroke-linecap:round;stroke-miterlimit:10;}
	.st11{fill:none;stroke:#004966;stroke-width:0.7896;stroke-linecap:round;stroke-miterlimit:10;}
	.st12{fill:#423F40;stroke:#004966;stroke-width:0.3948;stroke-linecap:round;stroke-miterlimit:10;}
	.st13{fill:#0098C8;stroke:#004966;stroke-width:0.3948;stroke-linecap:round;stroke-miterlimit:10;}
	.st14{fill:#FFFFFF;}
	.st15{fill:#DFDEE4;}
	.st16{fill:none;stroke:#004966;stroke-width:1.2;stroke-miterlimit:10;}
	.st17{fill:none;stroke:#004966;stroke-width:1.4658;stroke-linecap:round;stroke-miterlimit:10;}
	.st18{fill:#EA7E25;stroke:#004966;stroke-width:1.2;stroke-linecap:round;stroke-miterlimit:10;}
	.st19{opacity:0.3;fill:#E76A00;enable-background:new    ;}
	.st20{fill:#DD2D5C;}
	.st21{opacity:0.2;fill:#DD2D5C;enable-background:new    ;}
	.st22{fill:none;stroke:#004966;stroke-width:0.3948;stroke-linecap:round;stroke-miterlimit:10;}
	.st23{fill:#C7C5D0;}
	.st24{fill:none;stroke:#004966;stroke-linecap:round;stroke-miterlimit:10;}
	.st25{fill:#64AC28;}
	.st26{clip-path:url(#SVGID_4_);}
	.st27{fill:none;stroke:#004966;stroke-width:1.5;stroke-linecap:round;stroke-miterlimit:10;}
	.st28{fill:#C7C5D0;stroke:#004966;stroke-width:0.6341;stroke-linecap:round;stroke-miterlimit:10;}
	.st29{fill:none;stroke:#004966;stroke-width:1.5;stroke-miterlimit:10;}
	.st30{fill:#004966;stroke:#004966;stroke-width:0.6341;stroke-miterlimit:10;}
	.st31{fill:none;stroke:#004966;stroke-width:0.3171;stroke-miterlimit:10;}
	.st32{fill:none;stroke:#004966;stroke-miterlimit:10;}
</style>
<g>
	<g>
		<polygon class="st0" points="-155.8,433.9 -233.4,433.9 -222.4,425.4 -171.3,425.4 		"/>
		<g>
			<path class="st1" d="M-237.6,375.1l2.9,47.2h83l-43.4-10.3c0,0,18.3-28,16.9-28.2c-1.4-0.2-33.7,15.4-33.7,15.4
				s3.9-18.1,3.4-18.1s-14.4,3.8-14.4,3.8l-14-9.2"/>
			<g>
				<path class="st2" d="M-175.8,428.9c1.3-0.9,0.3-2.2,0.3-2.2l0.4-11.1c2.6,0.1,4.7-4.8,0.7-6.1c-4.1-1.3-6.2-0.3-6.2-0.3
					c0-0.4-0.3-3.7-0.3-3.7c-5.5,0.3-15.1,0-15.1,0s-0.2,3.3-0.3,3.7c0,0-2-0.9-6.2,0.3c-4.1,1.2-1.9,6.3,0.7,6.1l0.4,11.1
					c0,0-1,1.3,0.3,2.2H-175.8z"/>
				<path class="st3" d="M-180.4,409.2c0,0-3,0.7-2.8,8c0,0,4,1.1,3.6,6.1c0,0-0.6-10,1.7-12.5s5.1-0.6,5.1-0.6s-1.8-1.3-4.8-1.3
					C-178.6,408.9-179.6,408.8-180.4,409.2z"/>
				<path class="st3" d="M-196.3,409.2c0,0,3,0.7,2.8,8c0,0-4,1.1-3.6,6.1c0,0,0.6-10-1.7-12.5s-5.1-0.6-5.1-0.6s1.8-1.3,4.8-1.3
					C-198.1,408.9-197.3,408.8-196.3,409.2z"/>
				<path class="st3" d="M-183.3,417.2c0,0,2.1,0.9,2.8,2.2c0,0,0.9,1,0.7,4h-17.3c-0.2-3,0.7-4,0.7-4c0.7-1.3,2.8-2.2,2.8-2.2
					S-188.6,416.9-183.3,417.2z"/>
			</g>
			<g>
				<path class="st4" d="M-218.9,416.8c0,0,1,3.9,0.8,5.3l1-0.2c0,0-0.6-5.2-0.9-5.4L-218.9,416.8z"/>
				<path class="st5" d="M-228.8,402.7c0,0,2.3,0.9,2.6,1.6s1.4,1.2,1.4,1.2s0.3,0.3,0.7,0.7c0.4,0.3,1.8,0.8,2.4,1.9
					c0.5,1.1,1.2,1.6,1.2,1.6s0.4,0.6,0.4,1.3c0.1,0.7,2.1,3.1,2.1,3.1l-4.3-0.8c0,0-1.4-1.5-1.5-2.4s-0.5-2.3-1.7-3
					s-0.4-0.8-0.5-1.6C-226.1,405.6-226.4,403.9-228.8,402.7z"/>
				<path class="st5" d="M-223.6,400.9c0,0,1,1.7,1,2.5c0,0.9-0.1,1.2,0.4,1.8c0.4,0.6,0.6,1.4,0.6,1.4s-0.3,0.3,0.7,1.3
					c0.9,1,1.9,2.5,1.8,3.5c-0.1,1,1.3,2.6,1.3,2.6s0.9-0.6,0.9-1.4c0-0.7-1.7-7.7-1.7-7.7S-220.6,401.9-223.6,400.9z"/>
				<path class="st5" d="M-213.8,412.8c0,0-0.7-0.8-0.6-1.5c0.2-0.7,3.3-7.2,3.3-7.2s2.1-2.7,5.2-3c0,0,0.5,3-1.5,5.6
					C-209.4,409.2-213.8,412.8-213.8,412.8"/>
				<path class="st5" d="M-214.8,411.9c0,0,1.8-2.1,2.9-2.3c1.1-0.1,2-0.9,2.7-1.6s1-0.5,1.2-0.8s0.9-1.6,1.3-2.2
					c0.4-0.6,0.9-1.7,0.8-2.5c0,0-4.3-0.8-6.9,4.4c0,0-0.1,0.6-0.7,1.1C-214.1,408.6-214.6,410.6-214.8,411.9z"/>
				<path class="st5" d="M-216.3,413.1c0,0,3.9-7-2.5-12.4c0,0-0.1-0.2-0.4,0.7c-0.3,0.9-0.6,1.7-0.6,2.7s0,1.8,0,2.4s0.7,1.3,1,2.3
					S-216.3,413.1-216.3,413.1z"/>
				<path class="st4" d="M-215.9,413.3c0,0-0.2-0.6-0.4,2.6s-0.1,6.2-0.1,6.2h-0.9l0.9-9L-215.9,413.3z"/>
				<path class="st5" d="M-216.3,413.4c0,0,1-0.1,1.4-0.6s0.7-0.4,0.8-0.5s0.5-1.2,0-1.4c-0.5-0.2-2.6-1.2-3.3-1.6s-0.9,0.3-0.9,0.3
					s0,0.2-0.5,0.3c-0.5,0.1-0.8,0.4-0.5,0.9C-218.9,411.2-217.3,413.1-216.3,413.4z"/>
				<path class="st4" d="M-213.1,412.8c0,0-2.5,3.1-2.8,9.2h-1.3c0,0,2.6-7.9,3.5-9.3L-213.1,412.8z"/>
				<path class="st4" d="M-218.3,417.2c0,0,0.9,2.6,0.8,4.9l0.5-0.1c0,0,0-3.8-0.6-5L-218.3,417.2z"/>
				<path class="st5" d="M-217.6,417.6c0,0,1.1-1.7,0.7-2.2c-0.4-0.5-0.6-0.3-0.7-1.2c-0.1-0.8-1-0.7-1-0.7s-0.1,0.1-0.5-0.5
					c-0.3-0.5-3.4-1.4-3.6-1.2c-0.2,0.2,0,0.4,0,0.8c0,0.5,0,0.6,0.3,0.9c0.3,0.4,0.6,0.3,0.8,1.1c0.2,0.7,1.6,0.6,2.3,1.5
					C-218.6,417.2-217.6,417.6-217.6,417.6z"/>
				<path class="st5" d="M-212.6,413.1c0,0-0.2-1.9,0.9-2.6c1.1-0.7,2-1.3,2-1.9c0-0.7,1.8-2,1.8-2s0.8-0.2,1.2-0.6
					c0.4-0.5,0.6-0.4,1.3-0.5s1.9-0.6,2.7-0.5c0,0-0.1,1.1-1.7,2c-1.6,0.9-0.9,1.6-1.7,2.1C-206.6,409.4-212.6,413.1-212.6,413.1z"
					/>
				<path class="st5" d="M-213.9,412.8c0,0,0.1-0.5,1.4-1.3c1.2-0.8,2.6-1.8,3-2.1c0.4-0.4,0.9-1,1.8-1c0.9-0.1,1-0.1,1.3-0.2
					c0.2-0.1,1.4,0.2,1.6,0.7c0,0-2.4,1.5-3,1.5c0,0-1.1,1.3-2,1.5c-0.9,0.1-1.1,0.8-2.1,1C-213.1,413-213.9,412.8-213.9,412.8z"/>
				<path class="st6" d="M-214.3,428.8h-5.1c-0.4,0-0.7-0.3-0.7-0.7l-0.5-6c0-0.4,0.3-0.7,0.7-0.7h6.1c0.4,0,0.7,0.3,0.7,0.7l-0.5,6
					C-213.6,428.5-213.9,428.8-214.3,428.8z"/>
			</g>
			<g>
				<g>
					<g>
						<rect x="-186.4" y="393.3" class="st7" width="12.1" height="6.2"/>
						<path class="st8" d="M-174.6,393.5v5.7h-11.6v-5.7H-174.6 M-174.1,393h-12.6v6.7h12.6V393L-174.1,393z"/>
					</g>
					<g>
						<path class="st8" d="M-181.6,393c0.1-0.4,0.3-0.8,0.5-1.1c0.2-0.4,0.4-0.7,0.6-1.1l0.2-0.4l0.2,0.4c0.3,0.7,0.6,1.4,0.8,2.2
							c-0.5-0.6-0.9-1.3-1.3-1.9h0.4c-0.2,0.3-0.5,0.7-0.7,1C-181.1,392.4-181.3,392.7-181.6,393z"/>
					</g>
				</g>
				<g>
					<g>
						<rect x="-196.6" y="391.7" class="st9" width="7.7" height="7.7"/>
						<path class="st8" d="M-189.1,392v7.2h-7.2V392H-189.1 M-188.6,391.5h-8.2v8.2h8.2V391.5L-188.6,391.5z"/>
					</g>
					<g>
						<path class="st8" d="M-193.9,391.6c0.1-0.4,0.3-0.8,0.5-1.1c0.2-0.4,0.4-0.7,0.6-1.1l0.2-0.4l0.2,0.4c0.3,0.7,0.7,1.4,0.8,2.2
							c-0.5-0.6-0.9-1.3-1.3-1.9h0.4c-0.2,0.3-0.5,0.7-0.7,1C-193.4,391-193.6,391.3-193.9,391.6z"/>
					</g>
				</g>
			</g>
		</g>
		<g>
			<path class="st10" d="M-202.9,393.7c-1.4-0.4,10.5,11.6,4.4-4.3"/>
			<path class="st11" d="M-200.4,382.5c0,0,2.3,3.8,0.9,7.9c-1.4,4.1-2,11.2-0.7,11.2"/>
			<g>
				<path class="st12" d="M-202.6,387.9l3.5,3.5c0-0.1,2.1-2.6,2.1-2.6s-3-3.7-3.3-3.7C-200.8,385.1-202.6,387.9-202.6,387.9z"/>
				<polygon class="st13" points="-201.9,387.8 -199.3,390.6 -197.9,388.9 -200.6,386 				"/>
			</g>
			<path class="st10" d="M-209.8,432.7c0,0,3.5-10.3-0.5-21.4"/>
			<path class="st10" d="M-202.8,433c0,0-0.9-14.8-0.5-21.4"/>
			<path class="st10" d="M-210.1,393.4c1.4-0.4-7.9,2.7-7.9,17.9"/>
			<path class="st14" d="M-199.9,385c0,3.7-3,6.8-6.8,6.8c-3.7,0-6.8-3-6.8-6.8c0-3.7,3-6.8,6.8-6.8
				C-202.9,378.2-199.9,381.2-199.9,385"/>
			<path class="st15" d="M-205.9,391.6c0.6-0.2,1.3-0.4,1.9-0.7h-0.1c0.2-0.1,0.3-0.2,0.5-0.2c1.9-1.1,4.1-3.5,3-5.7
				c-1.2-2.4-3.4,0.9-4.2,1.8c-0.8,1-2,1.5-3.3,1.6c-0.3-0.1-0.5-0.1-0.7,0c-1.4-0.1-2.7-0.8-3.3-2.1c-0.3-0.6-1-0.3-1.1,0.3
				c-0.5-0.2-1.2,0.3-0.8,0.8c0.1,0.2,0.3,0.4,0.4,0.6c0.1,0.6,0.5,1,1,1.4c0.1,0.1,0.3,0.2,0.4,0.2c0,0.1,0.1,0.2,0.2,0.3
				c1.8,1.4,4.1,2,6.2,1.6C-205.8,391.5-205.8,391.5-205.9,391.6"/>
			<circle class="st16" cx="-206.9" cy="385" r="6.8"/>
			<path class="st17" d="M-209.9,392.4c0,0,1,1.8,3.1,1.8s2.8-1.8,2.8-1.8"/>
			<path class="st18" d="M-211.6,394.9c0,0,1.5,4.2,1.3,6.8c-0.1,2.6-2.8,9.7-0.1,11.4c2.7,1.7,10.5,0.7,10.1-2.2
				c-0.4-2.9-2.1-7.2-1.8-9.6s0.7-7.5-2.4-8.4C-209.4,391.7-211.6,394.9-211.6,394.9z"/>
			<path class="st19" d="M-207.1,393.9c-0.8-0.2-2.7,0.1-3.3,0.7c-0.8,0.8,0.5,2.6,0.7,3.6c0.2,1.3,0.4,2.6,0.3,3.9
				c-0.1,1.1-0.5,2.1-0.8,3.2c-0.3,1-0.4,1.9-0.5,2.9c-0.1,0.9-0.4,1.9-0.2,2.8c0.6,2.8,4.3,2.6,6.4,1.7c-0.9-0.5-1.9-0.6-2.6-1.5
				c-0.6-0.8-1-1.7-1.5-2.6c-0.8-1.3-0.5-3.4,0.3-4.6s1.7-1,3-1.3c1-0.2,2.2-1.7,2-2.8c-1.1,0.3-2,0.7-3.2,0.4
				c-0.9-0.3-2.1-1.2-2.6-1.9c-1-1.4,0.1-3.6,1.6-4.1"/>
			<path class="st11" d="M-211.6,380.4c0,0-4.1,1.3-4,5.7c0,4.4,1.3,8.5,0,10c-1.4,1.6-3,1.1-3,1.1"/>
			<path class="st11" d="M-210.8,379.5c-0.2,0-2.2,0.1-1.8,5.6s4.7,15.1,2.4,15.9c-2.2,0.8-2.7,0.1-2.7,0.1"/>
			<path class="st11" d="M-212.9,381.9c-0.2,0-2.1,1.8-1.5,6.1c0.6,4.2,3.1,10.7,1.9,11.4c-1.1,0.8-1.5,0.8-1.5,0.8"/>
			<path class="st8" d="M-206.8,425.4c0,0.6-0.5,1.1-1.1,1.1h-1.5c-0.6,0-1.1-0.5-1.1-1.1l0,0c0-0.6,0.5-1.1,1.1-1.1h1.5
				C-207.3,424.3-206.8,424.8-206.8,425.4L-206.8,425.4z"/>
			<path class="st8" d="M-201.1,425.5c0,0.6-0.5,1.1-1.1,1.1h-1.5c-0.6,0-1.1-0.5-1.1-1.1l0,0c0-0.6,0.5-1.1,1.1-1.1h1.5
				C-201.6,424.4-201.1,424.9-201.1,425.5L-201.1,425.5z"/>
			<circle class="st20" cx="-218.9" cy="409.6" r="0.2"/>
			<circle class="st20" cx="-218.4" cy="409.7" r="0.2"/>
			<circle class="st20" cx="-217.9" cy="409.7" r="0.2"/>
			<circle class="st20" cx="-217.4" cy="409.7" r="0.2"/>
			<circle class="st20" cx="-216.9" cy="409.6" r="0.2"/>
			<ellipse class="st8" cx="-206.1" cy="385.8" rx="0.7" ry="0.5"/>
			<ellipse class="st8" cx="-202.4" cy="385.7" rx="0.7" ry="0.5"/>
			<ellipse class="st21" cx="-207.1" cy="387.6" rx="1.2" ry="0.7"/>
			<circle class="st21" cx="-202.1" cy="387.4" r="0.7"/>
			<path class="st8" d="M-213.1,381.5c-0.4-0.7-0.6-1.8-0.4-2.7c0.2-0.8,1-1.4,1.7-1.8c0.8-0.5,1.7-0.6,2.7-0.6
				c1.6,0.1,3.3,0.5,4.8-0.2c0.4-0.2,0.7-0.5,1-0.8c0.2-0.2,0.2-0.5,0.4-0.2c0.4,0.4-0.3,1.7-0.5,2.1c1.2,0.1,3-0.4,3.8,0.7
				c-0.5,0-1.7,0.2-1.6,0.8c0.4,0,1.7,0.6,1.8,1.1c0,0.5-1.1,0.3-1.2,0.8c0,0.2,0.2,0.4,0.4,0.6c0.2,0.3,0.4,0.7,0.5,1.1
				c0.2,0.6,0.1,1.3,0.3,1.8c-0.2-0.7-0.6-1.3-1-1.8c-0.4-0.6-0.7-1.2-1.2-1.6c-1.1-0.9-1.9-2.2-3.4-2.6c-1.5-0.5-3.6-0.4-5,0.4
				c-0.9,0.5-1.9,1.5-2.1,2.4c-0.1,0-0.1,0-0.1,0"/>
			<path class="st22" d="M-208.4,383.9c0,0,0.1-0.4,0.7-0.4c0.6,0,2,0.9,2.2,0.7c0.2-0.2-0.1-0.7-0.1-0.7"/>
			<path class="st22" d="M-200.6,383.5c0,0-0.1-0.4-0.7-0.4c-0.6,0-2,0.9-2.2,0.7c-0.2-0.2,0.1-0.7,0.1-0.7"/>
			<path class="st8" d="M-203.9,388.6c-0.1,0-2.7-0.9-3.2-0.3s-0.4,1.8,0.2,1.6c0.6-0.2,0.8-0.7,0.8-0.7l1.9-0.3L-203.9,388.6z"/>
		</g>
		<ellipse class="st23" cx="-205.6" cy="433.9" rx="11.8" ry="3"/>
		<path class="st24" d="M-170.9,380.4c0-2.4,0.3-4.8,0.9-7.1h-70.2v64.3h91.3v-29C-161.6,405.4-170.9,394-170.9,380.4z"/>
		<g>
			<g>
				<circle id="SVGID_1_" class="st25" cx="-142.3" cy="380.7" r="24.5"/>
			</g>
			<g>
				<defs>
					<circle id="SVGID_3_" cx="-142.3" cy="380.7" r="24.5"/>
				</defs>
				<clipPath id="SVGID_4_">
					<use xlink:href="#SVGID_3_"  style="overflow:visible;"/>
				</clipPath>
				<g class="st26">
					<path class="st27" d="M-146.6,383.8c1.8-0.5-21.5,15.4-3.2-7"/>
					<path class="st28" d="M-150.8,373.6l-3.7,3.2c0,0,4.2,4.8,4.2,4.6c0-0.2,3-3.3,3-3.3L-150.8,373.6z"/>
					<path class="st27" d="M-134.9,383.9c-1.8-0.5,10.2,3.5,10.2,23.2"/>
					<path class="st14" d="M-145.4,382.7c-1.5,2.6-3.8,3.7-5.5,10.8c-0.7,2.8-0.8,5.3,0,9.5c0.3,1.5,3.7,4.1,7.4,4.7
						c1.9,0.3,4.2,0.1,7.5-0.3c1.2-0.2,5.8-1.1,6.2-4.6c0.2-2.6,1.1-5.4,0-9.5c-1-3.4-2-5.1-6.3-11.2s-3.9-6-3.9-6
						S-143.8,380-145.4,382.7"/>
					<path class="st15" d="M-132.6,388c-0.7-1.4-1.6-2.6-2.2-4.1c-0.3-0.7-0.8-1.8-1.7-2.1c-0.2-0.1-0.3-0.2-0.5-0.3
						c0.2-0.1,0.4-0.2,0.6-0.3c0.2-0.1,0.5-0.3,0.7-0.4c-1.4,0.4-2.8,0.7-4,1.5c0.2,0,0.3,0,0.5-0.1c-0.3,0.4-0.5,0.8-0.5,1.4
						c0,1.5,0.8,2.8,1.6,4c1.3,2.1,2.3,3.8,2.6,6.2c0.3,2.1,0,4.4-0.5,6.4c-0.4,1.6-1.9,2.6-2.3,4.2c-0.3,1.7,1.1,1.7,2.4,1.4
						c0.3,0.1,0.7,0,0.9-0.3c0.4-0.1,0.7-0.3,1-0.4c2.7-1.3,3.6-3.5,3.8-6.3C-129.9,395.2-130.9,391.4-132.6,388"/>
					<path class="st29" d="M-145.6,382.7c-1.5,2.6-3.8,3.7-5.5,10.8c-0.7,2.8-0.8,5.3,0,9.5c0.3,1.5,3.7,4.1,7.4,4.7
						c1.9,0.3,4.2,0.1,7.5-0.3c1.2-0.2,5.8-1.1,6.2-4.6c0.2-2.6,1.1-5.4,0-9.5c-1-3.4-2-5.1-6.3-11.2s-3.9-6-3.9-6
						S-144.1,380-145.6,382.7z"/>
					<path class="st14" d="M-132.1,372.9c0,4.8-3.9,8.8-8.8,8.8c-4.8,0-8.8-3.9-8.8-8.8c0-4.8,3.9-8.8,8.8-8.8
						C-135.9,364.2-132.1,368.1-132.1,372.9"/>
					<path class="st15" d="M-139.8,381.5c0.8-0.3,1.7-0.5,2.5-0.9c0,0-0.1,0-0.1-0.1c0.2-0.1,0.4-0.2,0.6-0.3
						c2.5-1.4,5.3-4.5,3.9-7.4c-1.5-3.1-4.5,1.2-5.4,2.3c-1,1.2-2.6,1.9-4.2,2.1c-0.4-0.2-0.7-0.1-1,0c-1.8-0.1-3.5-1-4.3-2.8
						c-0.3-0.8-1.4-0.3-1.5,0.3c-0.6-0.3-1.5,0.4-1.1,1.1c0.2,0.3,0.4,0.5,0.6,0.8c0.1,0.7,0.7,1.3,1.2,1.8c0.2,0.2,0.4,0.2,0.6,0.2
						c0,0.2,0.1,0.3,0.2,0.4c2.4,1.8,5.3,2.6,8.1,2.1C-139.6,381.4-139.8,381.5-139.8,381.5"/>
					<path class="st29" d="M-132.4,372.9c0,4.8-3.9,8.8-8.8,8.8c-4.8,0-8.8-3.9-8.8-8.8c0-4.8,3.9-8.8,8.8-8.8
						C-136.4,364.2-132.4,368.1-132.4,372.9z"/>
					<path class="st8" d="M-132.9,377.2c0.5,0,1.6-0.1,2-0.4c0.7-0.6-0.3-1.2-0.1-1.8c0.4,0,0.9-0.1,1-0.5c0.1-0.4-0.2-0.6-0.3-0.8
						c0.5,0,0.8-0.3,0.8-0.8c0-0.4-0.2-0.6-0.5-0.9c-0.1-0.1-0.5-0.2-0.5-0.4c-0.1-0.4,0.7-0.7,0.5-1.3c-0.1-0.4-0.6-0.7-1-0.8
						c1.1-1,0.8-2-0.5-2.4c0.8-0.6,0.6-1.6-0.5-1.5c0.7-0.9-0.3-1.8-1.3-1.6c1-0.9-1.1-1.6-1.8-1.4c1-1.1-1.5-1.1-2.1-0.8
						c0.9-1.6-1.5-1.2-2.3-0.8c0.4-0.6-0.2-0.8-0.7-0.8c-0.9,0.1-1.4,0.5-1.9,1.2c0-0.8-0.3-1-1-0.7c-0.8,0.3-1,0.8-1.3,1.4
						c-0.7-0.3-1.1-0.5-1.8-0.1c-0.8,0.4-0.8,0.8-0.8,1.6c-1.2-0.2-1.8-0.1-2.7,0.6c-0.5,0.4-0.9,0.7-0.7,1.4
						c0.1,0.2,0.3,0.5,0.5,0.6c-0.5,0-1.3-0.2-1.5,0.4c-0.2,0.5,0.2,1,0.4,1.4c-0.4-0.3-1-0.2-1.2,0.3s0.4,0.8,0.4,1.2
						c-0.4,0.1-0.9,0-0.9,0.5c0,0.6,0.9,1,0.8,1.4c-1.9,0.1-0.2,2.2,0.5,2.9c-0.4,0-0.7-0.1-0.8,0.3s0.2,1,0.4,1.3
						c0.5,0.6,1.7,1.1,2.5,1c0,0-2.1-8,2.6-10.2c1.9-0.9,6.5-3.3,8.8-2.2c2.3,1.1,4.5,3.5,5,5s0.8,4.3,0.8,4.3L-132.9,377.2z"/>
					<path class="st30" d="M-136.8,366.1c0.1,0.6,0.1,1.3-0.2,1.8c-0.4,0.6-1.9,1.7-2.3,0.4c-0.1,0.5-0.2,0.8-0.7,0.8
						c-0.4,0-1-0.3-1-0.8c-0.2,0.5-0.9,0.6-1.3,0.4c-0.6-0.3-0.7-0.9-0.7-1.4c-0.9,1.5-2.9-1.7-1.6-2.1c0,0,5.1-2.4,6.5-1.3
						C-136.6,365.1-136.8,366.1-136.8,366.1z"/>
					<path class="st27" d="M-144.8,382.9c0,0,1.3,2.3,4.1,2.3s3.7-2.3,3.7-2.3"/>
					<circle class="st31" cx="-144.3" cy="372.6" r="1.2"/>
					<circle class="st31" cx="-138.4" cy="372.9" r="1.2"/>
					<ellipse class="st8" cx="-141.6" cy="378.3" rx="0.9" ry="1.3"/>
					
						<ellipse transform="matrix(-0.2553 -0.9669 0.9669 -0.2553 -560.0355 360.5658)" class="st20" cx="-141.2" cy="396" rx="4.2" ry="5.2"/>
					<path class="st8" d="M-138.6,388.3l-5.7,5.2l2.2,1.1c0,0-1.9,4.6-1.8,4.7c0.2,0,3.9,1.2,3.9,1.2l1.5-5l2.6,0.4L-138.6,388.3z"
						/>
				</g>
			</g>
			<g>
				<circle id="SVGID_2_" class="st32" cx="-142.3" cy="380.7" r="24.5"/>
			</g>
		</g>
	</g>
</g>
</svg>
