<?xml version="1.0" encoding="utf-8"?>
<!-- Generator: Adobe Illustrator 19.0.0, SVG Export Plug-In . SVG Version: 6.00 Build 0)  -->
<svg version="1.1" id="Capa_1" xmlns="http://www.w3.org/2000/svg" xmlns:xlink="http://www.w3.org/1999/xlink" x="0px" y="0px"
	 viewBox="-220 354.7 169.5 84.3" style="enable-background:new -220 354.7 169.5 84.3;" xml:space="preserve">
<style type="text/css">
	.st0{fill:#64AC28;}
	.st1{fill:#FFFFFF;}
	.st2{fill:#DFDEE4;}
	.st3{fill:#004966;}
	.st4{clip-path:url(#SVGID_2_);fill:#64AC28;}
	.st5{clip-path:url(#SVGID_4_);fill:#64AC28;}
	.st6{fill:#C7C5D0;}
	.st7{fill:none;stroke:#004966;stroke-width:1.2;stroke-linecap:round;stroke-miterlimit:10;}
	.st8{fill:none;stroke:#004966;stroke-width:0.7896;stroke-linecap:round;stroke-miterlimit:10;}
	.st9{fill:none;stroke:#004966;stroke-width:1.2;stroke-miterlimit:10;}
	.st10{fill:none;}
	.st11{fill:#EA7E25;stroke:#004966;stroke-width:1.2;stroke-linecap:round;stroke-miterlimit:10;}
	.st12{opacity:0.3;fill:#E76A00;enable-background:new    ;}
	.st13{fill:none;stroke:#004966;stroke-linecap:round;stroke-miterlimit:10;}
	.st14{fill:#E0BE0D;}
	.st15{fill:none;stroke:#004966;stroke-miterlimit:10;}
	.st16{fill:none;stroke:#004966;stroke-width:0.5;stroke-linecap:round;stroke-miterlimit:10;}
	.st17{fill:none;stroke:#004966;stroke-width:0.25;stroke-linecap:round;stroke-miterlimit:10;}
	.st18{fill:#0098C8;}
	.st19{fill:#DD2D5C;}
</style>
<g>
	<g>
		<path class="st0" d="M-77.6,413.7c-3.6-7.7-32.1-13.7-66.7-13.7s-63.1,6-66.7,13.7H-77.6z"/>
		<g>
			<path class="st1" d="M-85.1,385.5c0,6.6-5.3,11.9-11.9,11.9s-11.9-5.3-11.9-11.9s5.3-11.9,11.9-11.9
				C-90.4,373.6-85.1,378.9-85.1,385.5"/>
			<path class="st2" d="M-94.7,395.3c-0.7,0.5-1.9,0.5-2.3-0.7c0-0.1,0-0.1-0.1-0.2c-0.2-0.3-0.3-0.6-0.3-1l0,0
				c-2.8,0.7-5.7,0.4-8.3-1.6c-0.2-0.1-0.5,0.1-0.3,0.3c4.6,6.2,14.6,5.5,18.6-1c0.2-0.4,0.3-0.7,0.2-1.1
				C-88.7,393-91.6,395.4-94.7,395.3"/>
			<path class="st2" d="M-96.1,394.4c0,0.1,0,0.1,0.1,0.2c0.4,1.1,1.6,1.2,2.3,0.7c0.5-0.4,0.8-1,0.3-1.7c-0.4-0.6-0.7-1.3-1-2.1
				c-1.1-3-1.3-6.5-1-9.5c0-0.3-0.4-0.3-0.5-0.1c-1.1,1.6-1,4.2-1,6.1c0,1.8,0.1,3.8,0.6,5.6l0,0C-96.3,393.8-96.2,394.1-96.1,394.4
				"/>
			<path class="st3" d="M-96.5,372.8c-0.8,0-2.4,0.1-3.5,0.4c-1.6,0.4-3,1.3-4.4,2.2l-0.2,0.1c-3.2,1.9-5,5.3-5,9.3
				c0,7.4,5.2,12.7,12.3,12.9c0-0.3,0-0.7-0.1-1c-7.4-0.2-11.3-6.1-11.3-11.9c0-3.6,1.7-6.7,4.5-8.4l0.2-0.1
				c1.4-0.8,2.7-1.6,4.1-2.1c1-0.3,2.5-0.3,3.2-0.3c6.5,0,11.3,4.6,11.3,11c0,7-5.6,11.5-11.1,11.8c0,0.3,0,0.7,0.1,1
				c3.3-0.2,6.3-1.6,8.5-4s3.5-5.6,3.5-8.8C-84.2,377.8-89.4,372.8-96.5,372.8"/>
			<g>
				<g>
					<g>
						<defs>
							<rect id="SVGID_1_" x="-105.6" y="374.3" width="18.9" height="22.8"/>
						</defs>
						<clipPath id="SVGID_2_">
							<use xlink:href="#SVGID_1_"  style="overflow:visible;"/>
						</clipPath>
						<path class="st4" d="M-89.6,380c-0.2-0.2-0.4-0.5-0.6-0.7c-1.1-1-2.1-2.1-3-3.2c-0.7-0.8-1.9-0.4-2.3,0.4
							c0.4-0.9,0-2.2-1.3-2.1c-3.1,0.3-6.4,1.2-8.1,4.1c-1.2,2-0.9,4.7,0.3,6.7c0.2,0.3,0.4,0.6,0.6,0.8c0.1,0.3,0.4,0.6,0.6,0.8
							c0.2,0.2,0.5,0.3,0.7,0.5c-0.1,0.1-0.2,0.2-0.3,0.3c-1.6,1.9-1.8,4.3-0.1,6.2c0.5,0.6,1.2,1,1.9,1.3c2.1,1.9,4.8,3.5,6.8,0.8
							c0.9-1.2,1.1-2.7,1.1-4.3c0.7-0.1,1.4-0.1,2.2,0c1.3,0.2,1.7-1.3,1.3-2.2c1.7-1,2.9-2.6,3-4.9C-86.6,382.3-88,380.8-89.6,380
							 M-101.2,390.3c0.2-0.5,0.7-1,1.2-1.5c0.1,0.2,0.3,0.4,0.5,0.5c0.3,0.2,0.7,0.3,1,0.4C-99.3,389.9-100.3,390.2-101.2,390.3
							 M-96.8,377.3c0.6-0.1,1-0.4,1.2-0.8c-0.1,0.2-0.1,0.4-0.1,0.6c0,0.4,0,0.8,0,1.1c-0.2,0-0.4,0.1-0.5,0.1
							c-2.5,1-4.4,2.6-6.1,4.5C-104,379.5-99.6,377.6-96.8,377.3 M-96.3,392.3c-0.5,0.1-0.9,0.1-1.4,0.1c0.5-0.1,1-0.3,1.5-0.4
							C-96.3,392.1-96.3,392.2-96.3,392.3 M-89.9,384.9c-0.3,0.8-0.8,1.4-1.5,1.8c-0.3-0.6-0.6-1.3-0.8-2c0.2-0.5,0.3-1,0.4-1.6
							c0.4-0.1,0.7-0.3,1.1-0.5C-89.9,383.2-89.6,383.9-89.9,384.9"/>
					</g>
				</g>
			</g>
			<path class="st3" d="M-96.5,409.9c0-8.7-0.1-21.6-0.1-30.4c0-1.3-0.2-2.3-0.5-2.3s-0.5,1.1-0.5,2.4c0,8.9,0.1,20.7,0.1,29.6
				c0.2,0.4,0.3,0.6,0.5,1.1c0.2-0.6,0.3-0.4,0.5-1"/>
			<path class="st3" d="M-97.1,384.5c0.1,0,0.2,0,0.3-0.1c0.1,0,0.1-0.1,0.2-0.1c0.7-0.5,1.4-1,2.1-1.6c1-0.8,2-1.6,3.1-2.2
				c0.2-0.1,0.3-0.4,0.2-0.7c-0.1-0.2-0.4-0.3-0.7-0.2c-1.1,0.6-2.2,1.5-3.2,2.3c-0.5,0.4-1,0.8-1.5,1.1c-0.2,0.1-0.3,0.3-0.5,0.4
				c-0.2-0.1-0.3-0.2-0.5-0.3c-0.5-0.3-0.9-0.6-1.4-0.8c-1-0.6-2.1-1.3-3.2-1.8c-0.3-0.1-0.5,0-0.6,0.3c-0.1,0.2,0,0.5,0.3,0.6
				c1,0.5,2.1,1.1,3.1,1.7c0.6,0.4,1.3,0.8,1.9,1.1c0.1,0,0.2,0.1,0.3,0.1C-97.2,384.5-97.1,384.5-97.1,384.5"/>
			<path class="st3" d="M-97.3,389.1c0.1,0,0.2,0,0.2-0.1c0.1-0.1,0.3-0.2,0.5-0.3c0.5-0.3,1-0.6,1.4-0.8c2.5-1.4,5.1-2.9,7.4-4.8
				c0.2-0.2,0.2-0.5,0.1-0.7c-0.2-0.2-0.5-0.2-0.7-0.1c-2.2,1.8-4.7,3.3-7.2,4.7c-0.3,0.2-0.6,0.4-1,0.6c-0.2,0.1-0.5,0.3-0.7,0.4
				c-0.1,0-0.2-0.1-0.3-0.1c-1-0.6-2.1-1.2-3-1.8c-1.5-0.9-3-1.8-4.6-2.5c-0.2-0.1-0.5,0-0.7,0.2c-0.1,0.2,0,0.5,0.2,0.6
				c1.5,0.7,3,1.6,4.5,2.5c1.2,0.7,2.3,1.4,3.6,2c0,0,0,0,0.1,0C-97.5,389-97.4,389.1-97.3,389.1"/>
			<path class="st3" d="M-88.5,387.2c-0.2-0.2-0.5-0.2-0.7-0.1c-2.3,1.9-4.8,3.6-7.4,5.1c-0.1,0.1-0.2,0.1-0.3,0.2
				c-0.2-0.1-0.4-0.2-0.7-0.3c-2.8-1.3-5.5-2.8-7.8-4.2c-0.2-0.1-0.5-0.1-0.7,0.2c-0.1,0.2-0.1,0.5,0.2,0.7c2.5,1.5,5.3,3.1,8.3,4.4
				c0.2,0.1,0.3,0.1,0.5,0.2c0.1,0,0.1,0,0.2,0s0.2,0,0.2-0.1c0,0,0.1,0,0.1-0.1c2.8-1.5,5.5-3.3,8-5.4
				C-88.3,387.8-88.3,387.5-88.5,387.2"/>
		</g>
		<ellipse class="st0" cx="-192.6" cy="408.2" rx="7" ry="2.2"/>
		<ellipse class="st0" cx="-96.7" cy="410.2" rx="7" ry="2.2"/>
		<g>
			<path class="st1" d="M-182.9,383.6c0,6.6-5.3,11.9-11.9,11.9c-6.6,0-11.9-5.3-11.9-11.9s5.3-11.9,11.9-11.9
				C-188.2,371.7-182.9,377-182.9,383.6"/>
			<path class="st2" d="M-192.5,393.3c-0.7,0.5-1.9,0.5-2.3-0.7c0-0.1,0-0.1-0.1-0.2c-0.2-0.3-0.3-0.6-0.3-1l0,0
				c-2.8,0.7-5.7,0.4-8.3-1.6c-0.2-0.1-0.5,0.1-0.3,0.3c4.6,6.2,14.6,5.5,18.6-1c0.2-0.4,0.3-0.7,0.2-1.1
				C-186.5,391.1-189.3,393.5-192.5,393.3"/>
			<path class="st2" d="M-193.9,392.5c0,0.1,0,0.1,0.1,0.2c0.4,1.1,1.6,1.2,2.3,0.7c0.5-0.4,0.8-1,0.3-1.7c-0.4-0.6-0.7-1.3-1-2.1
				c-1.1-3-1.3-6.5-1-9.5c0-0.3-0.4-0.3-0.5-0.1c-1.1,1.6-1,4.2-1,6.1c0,1.8,0.1,3.8,0.6,5.6l0,0
				C-194.1,391.9-194,392.2-193.9,392.5"/>
			<path class="st3" d="M-194.3,370.9c-0.8,0-2.4,0.1-3.5,0.4c-1.6,0.4-3,1.3-4.4,2.2l-0.2,0.1c-3.2,1.9-5,5.3-5,9.3
				c0,7.4,5.2,12.7,12.3,12.9c0-0.3,0-0.7-0.1-1c-7.4-0.2-11.3-6.1-11.3-11.9c0-3.6,1.7-6.7,4.5-8.4l0.2-0.1
				c1.4-0.8,2.7-1.6,4.1-2.1c1-0.3,2.5-0.3,3.2-0.3c6.5,0,11.3,4.6,11.3,11c0,7-5.6,11.5-11.1,11.8c0,0.3,0,0.7,0.1,1
				c3.3-0.2,6.3-1.6,8.5-4c2.2-2.4,3.5-5.6,3.5-8.8C-182,375.9-187.2,370.9-194.3,370.9"/>
			<g>
				<g>
					<g>
						<defs>
							<rect id="SVGID_3_" x="-203.4" y="372.4" width="18.9" height="22.8"/>
						</defs>
						<clipPath id="SVGID_4_">
							<use xlink:href="#SVGID_3_"  style="overflow:visible;"/>
						</clipPath>
						<path class="st5" d="M-187.4,378.1c-0.2-0.2-0.4-0.5-0.6-0.7c-1.1-1-2.1-2.1-3-3.2c-0.7-0.8-1.9-0.4-2.3,0.4
							c0.4-0.9,0-2.2-1.3-2.1c-3.1,0.3-6.4,1.2-8.1,4.1c-1.2,2-0.9,4.7,0.3,6.7c0.2,0.3,0.4,0.6,0.6,0.8c0.1,0.3,0.4,0.6,0.6,0.8
							c0.2,0.2,0.5,0.3,0.7,0.5c-0.1,0.1-0.2,0.2-0.3,0.3c-1.6,1.9-1.8,4.3-0.1,6.2c0.5,0.6,1.2,1,1.9,1.3c2.1,1.9,4.8,3.5,6.8,0.8
							c0.9-1.2,1.1-2.7,1.1-4.3c0.7-0.1,1.4-0.1,2.2,0c1.3,0.2,1.7-1.3,1.3-2.2c1.7-1,2.9-2.6,3-4.9
							C-184.4,380.4-185.8,378.9-187.4,378.1 M-199,388.4c0.2-0.5,0.7-1,1.2-1.5c0.1,0.2,0.3,0.4,0.5,0.5c0.3,0.2,0.7,0.3,1,0.4
							C-197.1,388-198.1,388.2-199,388.4 M-194.6,375.4c0.6-0.1,1-0.4,1.2-0.8c-0.1,0.2-0.1,0.4-0.1,0.6c0,0.4,0,0.8,0,1.1
							c-0.2,0-0.4,0.1-0.5,0.1c-2.5,1-4.4,2.6-6.1,4.5C-201.8,377.6-197.4,375.7-194.6,375.4 M-194.1,390.4
							c-0.5,0.1-0.9,0.1-1.4,0.1c0.5-0.1,1-0.3,1.5-0.4C-194,390.2-194.1,390.3-194.1,390.4 M-187.7,383c-0.3,0.8-0.8,1.4-1.5,1.8
							c-0.3-0.6-0.6-1.3-0.8-2c0.2-0.5,0.3-1,0.4-1.6c0.4-0.1,0.7-0.3,1.1-0.5C-187.7,381.3-187.4,382-187.7,383"/>
					</g>
				</g>
			</g>
			<path class="st3" d="M-194.3,408c0-8.7-0.1-21.6-0.1-30.4c0-1.3-0.2-2.3-0.5-2.3c-0.3,0-0.5,1.1-0.5,2.4c0,8.9,0.1,20.7,0.1,29.6
				c0.2,0.4,0.3,0.6,0.5,1.1c0.2-0.6,0.3-0.4,0.5-1"/>
			<path class="st3" d="M-194.8,382.6c0.1,0,0.2,0,0.3-0.1c0.1,0,0.1-0.1,0.2-0.1c0.7-0.5,1.4-1,2.1-1.6c1-0.8,2-1.6,3.1-2.2
				c0.2-0.1,0.3-0.4,0.2-0.7c-0.1-0.2-0.4-0.3-0.7-0.2c-1.1,0.6-2.2,1.5-3.2,2.3c-0.5,0.4-1,0.8-1.5,1.1c-0.2,0.1-0.3,0.3-0.5,0.4
				c-0.2-0.1-0.3-0.2-0.5-0.3c-0.5-0.3-0.9-0.6-1.4-0.8c-1-0.6-2.1-1.3-3.2-1.8c-0.3-0.1-0.5,0-0.6,0.3c-0.1,0.2,0,0.5,0.3,0.6
				c1,0.5,2.1,1.1,3.1,1.7c0.6,0.4,1.3,0.8,1.9,1.1c0.1,0,0.2,0.1,0.3,0.1C-195,382.6-194.9,382.6-194.8,382.6"/>
			<path class="st3" d="M-195.1,387.1c0.1,0,0.2,0,0.2-0.1c0.1-0.1,0.3-0.2,0.5-0.3c0.5-0.3,1-0.6,1.4-0.8c2.5-1.4,5.1-2.9,7.4-4.8
				c0.2-0.2,0.2-0.5,0.1-0.7c-0.2-0.2-0.5-0.2-0.7-0.1c-2.2,1.8-4.7,3.3-7.2,4.7c-0.3,0.2-0.6,0.4-1,0.6c-0.2,0.1-0.5,0.3-0.7,0.4
				c-0.1,0-0.2-0.1-0.3-0.1c-1-0.6-2.1-1.2-3-1.8c-1.5-0.9-3-1.8-4.6-2.5c-0.2-0.1-0.5,0-0.7,0.2c-0.1,0.2,0,0.5,0.2,0.6
				c1.5,0.7,3,1.6,4.5,2.5c1.2,0.7,2.3,1.4,3.6,2c0,0,0,0,0.1,0C-195.3,387.1-195.2,387.1-195.1,387.1"/>
			<path class="st3" d="M-186.3,385.3c-0.2-0.2-0.5-0.2-0.7-0.1c-2.3,1.9-4.8,3.6-7.4,5.1c-0.1,0.1-0.2,0.1-0.3,0.2
				c-0.2-0.1-0.4-0.2-0.7-0.3c-2.8-1.3-5.5-2.8-7.8-4.2c-0.2-0.1-0.5-0.1-0.7,0.2c-0.1,0.2-0.1,0.5,0.2,0.7c2.5,1.5,5.3,3.1,8.3,4.4
				c0.2,0.1,0.3,0.1,0.5,0.2c0.1,0,0.1,0,0.2,0s0.2,0,0.2-0.1c0,0,0.1,0,0.1-0.1c2.8-1.5,5.5-3.3,8-5.4
				C-186.1,385.9-186.1,385.5-186.3,385.3"/>
		</g>
	</g>
	<g>
		<ellipse class="st6" cx="-175.1" cy="428.9" rx="11.4" ry="3.1"/>
		<ellipse class="st6" cx="-150.2" cy="426.1" rx="11.4" ry="3.1"/>
		<ellipse class="st6" cx="-123.5" cy="428.5" rx="11.4" ry="3.1"/>
		<g>
			<path class="st7" d="M-146.6,386.6c1.3,3.9,14.9,6.1,1.5-4.9"/>
			<path class="st8" d="M-144.2,375.7c0,0,2.3,3.7,0.9,7.7c-1.4,4-1.9,10.9-0.6,10.9"/>
			<path class="st7" d="M-153.3,424.8c0,0,3.4-10-0.5-20.9"/>
			<path class="st7" d="M-146.4,425c0,0-0.9-14.5-0.5-20.9"/>
			<path class="st7" d="M-153.6,386.4c1.3-0.4-14.9,6.7-2.7-5.6"/>
			<path class="st1" d="M-143.6,378.1c0,3.6-3,6.6-6.6,6.6s-6.6-3-6.6-6.6s3-6.6,6.6-6.6C-146.6,371.5-143.6,374.5-143.6,378.1"/>
			<path class="st2" d="M-149.4,384.6c0.6-0.2,1.2-0.4,1.9-0.7h-0.1c0.2-0.1,0.3-0.2,0.5-0.2c1.9-1,4-3.4,3-5.6
				c-1.1-2.4-3.4,0.9-4.1,1.8c-0.8,0.9-2,1.5-3.2,1.6c-0.3-0.1-0.5-0.1-0.7,0c-1.4-0.1-2.6-0.8-3.2-2.1c-0.3-0.6-1-0.3-1.1,0.2
				c-0.5-0.2-1.2,0.3-0.8,0.8c0.1,0.2,0.3,0.4,0.4,0.6c0.1,0.6,0.5,1,0.9,1.4c0.1,0.1,0.3,0.2,0.4,0.2c0,0.1,0.1,0.2,0.2,0.3
				c1.8,1.4,4,2,6.1,1.6C-149.3,384.5-149.4,384.6-149.4,384.6"/>
			<circle class="st9" cx="-150.5" cy="378.1" r="6.6"/>
			<path class="st10" d="M-153.3,385.4c0,0,1,1.7,3.1,1.7s2.8-1.7,2.8-1.7"/>
			<path class="st11" d="M-155.1,387.8c0,0,1.4,4.1,1.3,6.6c-0.1,2.5-2.7,9.5-0.1,11.2s10.2,0.7,9.9-2.1c-0.4-2.8-2.1-7.1-1.7-9.4
				c0.3-2.3,0.7-7.4-2.3-8.2C-153,384.7-155.1,387.8-155.1,387.8z"/>
			<path class="st12" d="M-150.6,386.8c-0.8-0.2-2.6,0.1-3.2,0.7c-0.8,0.8,0.5,2.6,0.6,3.5c0.2,1.3,0.4,2.5,0.3,3.9
				c-0.1,1.1-0.5,2.1-0.7,3.1c-0.3,0.9-0.4,1.9-0.5,2.8s-0.4,1.9-0.2,2.8c0.6,2.7,4.2,2.6,6.3,1.7c-0.9-0.5-1.8-0.6-2.5-1.5
				c-0.6-0.8-1-1.7-1.5-2.5c-0.8-1.2-0.5-3.3,0.3-4.5c0.8-1.2,1.7-1,2.9-1.3c1-0.2,2.2-1.7,2-2.7c-1,0.3-2,0.7-3.1,0.4
				c-0.9-0.2-2.1-1.1-2.6-1.9c-1-1.4,0.1-3.5,1.6-4"/>
			<path class="st8" d="M-155.1,373.7c0,0-4,1.3-4,5.6c0,4.3,1.3,8.3,0,9.8c-1.3,1.5-2.9,1.1-2.9,1.1"/>
			<path class="st8" d="M-154.2,372.8c-0.2,0-2.2,0.1-1.7,5.5c0.4,5.3,4.6,14.8,2.4,15.5c-2.2,0.8-2.6,0.1-2.6,0.1"/>
			<path class="st8" d="M-156.4,375.1c-0.2,0-2.1,1.8-1.5,5.9s3,10.4,1.9,11.2c-1.1,0.7-1.5,0.8-1.5,0.8"/>
			<path class="st3" d="M-150.4,417.6c0,0.6-0.5,1.1-1.1,1.1h-1.5c-0.6,0-1.1-0.5-1.1-1.1l0,0c0-0.6,0.5-1.1,1.1-1.1h1.5
				C-150.9,416.5-150.4,417-150.4,417.6L-150.4,417.6z"/>
			<path class="st3" d="M-144.9,417.8c0,0.6-0.5,1.1-1.1,1.1h-1.5c-0.6,0-1.1-0.5-1.1-1.1l0,0c0-0.6,0.5-1.1,1.1-1.1h1.5
				C-145.4,416.7-144.9,417.2-144.9,417.8L-144.9,417.8z"/>
			<path class="st3" d="M-156.5,374.8c-0.4-0.7-0.6-1.8-0.4-2.6c0.2-0.8,1-1.3,1.7-1.7c0.8-0.5,1.7-0.6,2.6-0.6
				c1.5,0.1,3.2,0.5,4.7-0.2c0.4-0.2,0.7-0.5,1-0.8c0.2-0.2,0.2-0.5,0.4-0.2c0.3,0.4-0.3,1.6-0.5,2c1.1,0.1,2.9-0.4,3.8,0.6
				c-0.5,0-1.7,0.2-1.6,0.8c0.4,0,1.7,0.5,1.7,1.1c0,0.5-1.1,0.3-1.2,0.8c0,0.2,0.2,0.4,0.3,0.6c0.2,0.3,0.3,0.7,0.5,1.1
				c0.2,0.6,0.1,1.2,0.3,1.8c-0.1-0.6-0.6-1.2-1-1.8c-0.3-0.6-0.7-1.2-1.2-1.6c-1-0.9-1.9-2.1-3.3-2.5c-1.5-0.4-3.5-0.4-4.9,0.4
				c-0.8,0.5-1.8,1.4-2,2.4c-0.1,0-0.1,0-0.1,0"/>
		</g>
		<g>
			<g>
				<path class="st13" d="M-178.7,427.6c0,0,3.6-12.3-0.4-23.3"/>
				<path class="st13" d="M-171.8,427.9c0,0,2.8-12.6-1.1-23.5"/>
				<path class="st14" d="M-176.6,385c-1.4,1.9-3.2,2.5-5.1,7.6c-0.8,2-1.1,3.9-0.9,7.2c0.1,1.1,2.4,3.4,5.2,4.2
					c1.4,0.4,3.2,0.5,5.7,0.4c0.9,0,4.5-0.3,5.1-2.9c0.4-2,1.4-4,0.9-7.2c-0.4-2.7-1.1-4-3.8-9c-2.7-5-2.4-4.9-2.4-4.9
					S-175.2,383.1-176.6,385"/>
				<path class="st15" d="M-176.8,384.9c-1.4,1.9-3.2,2.5-5.1,7.6c-0.8,2-1.1,3.9-0.9,7.2c0.1,1.1,2.4,3.4,5.2,4.2
					c1.4,0.4,3.2,0.5,5.7,0.4c0.9,0,4.5-0.3,5.1-2.9c0.4-2,1.4-4,0.9-7.2c-0.4-2.7-1.1-4-3.8-9c-2.7-5-2.4-4.9-2.4-4.9
					S-175.4,383-176.8,384.9z"/>
				<path class="st14" d="M-167.7,390.1c-0.4-1.1-1-2.1-1.3-3.3c-0.2-0.6-0.5-1.4-1.1-1.7c-0.1-0.1-0.2-0.2-0.4-0.3
					c0.2-0.1,0.3-0.1,0.5-0.2c0.2-0.1,0.4-0.2,0.6-0.3c-1.1,0.2-2.2,0.3-3.1,0.8c0.1,0,0.2,0,0.4,0c-0.3,0.2,1.6-0.2,1.6,0.2
					c-0.1,1.1,0.4,2.2,0.9,3.2c0.7,1.4,1.4,3.8,0.4,4.9c-1.3,1.5-5.3,0.3-7.1-0.5c-4.5-2-1,3.1,0.8,3.5c2,0.5,3.4,0.2,5.5,0.1
					c4.7-0.1,3,2.1,3.1,1.9C-166.2,396.3-166.7,392.8-167.7,390.1"/>
				<path class="st14" d="M-168.2,401.3c0.1-0.5-0.3-1.1-0.9-1.3c-0.1-0.1-0.3-0.3-0.5-0.3c-0.8-0.2-10.2,1-10.2-5.2
					c-0.1-0.2,0.1-1.2-0.2-1.3c-0.5-0.3,0.5-4-0.2-3.6c-1.6,3.1-2.7,8.8-2.1,10.4C-180.6,404.3-168.1,405.6-168.2,401.3"/>
				<path class="st1" d="M-165.9,380c-1,3.5-4.7,5.5-8.3,4.5c-3.5-1-5.5-4.7-4.5-8.3c1-3.5,4.7-5.5,8.3-4.5
					C-166.8,372.8-164.8,376.5-165.9,380"/>
				<path class="st2" d="M-173.3,384.7c0.7,0,1.3,0,2-0.1c0,0-0.1,0-0.1-0.1c0.2,0,0.4-0.1,0.5-0.1c2.1-0.5,4.9-2.2,4.5-4.6
					c-0.4-2.6-3.5-0.1-4.5,0.5c-1,0.7-2.3,0.9-3.5,0.6c-0.2-0.2-0.5-0.3-0.7-0.2c-1.3-0.5-2.3-1.5-2.5-3c-0.1-0.6-0.9-0.5-1.1-0.1
					c-0.4-0.4-1.2,0-1,0.6c0.1,0.2,0.2,0.5,0.3,0.7c-0.1,0.6,0.2,1.1,0.5,1.6c0.1,0.2,0.2,0.2,0.4,0.3c0,0.1,0,0.2,0.1,0.4
					c1.4,1.8,3.3,3.1,5.4,3.3C-173.2,384.6-173.3,384.6-173.3,384.7"/>
				<circle class="st15" cx="-172.5" cy="378.1" r="6.7"/>
				<path class="st13" d="M-168.7,386.4c0,0-0.2-0.5,1.2-3c2.8-4.8,2.7-8.7-1.8-11.1"/>
				<path class="st13" d="M-183,381.2c0,0,1.3,2.4,2.3-0.3c2.3-6.3,3.4-10,8.6-9.6"/>
				<path class="st3" d="M-175.1,385.5c0,0.3-0.2,0.5-0.5,0.5c-0.3,0-0.5-0.2-0.5-0.5s0.2-0.5,0.5-0.5
					C-175.3,384.9-175.1,385.2-175.1,385.5"/>
				<path class="st3" d="M-174.5,387.2c0,0.3-0.2,0.5-0.5,0.5c-0.3,0-0.5-0.2-0.5-0.5s0.2-0.5,0.5-0.5S-174.5,386.9-174.5,387.2"/>
				<path class="st3" d="M-173.3,388.6c0,0.3-0.2,0.5-0.5,0.5c-0.3,0-0.5-0.2-0.5-0.5s0.2-0.5,0.5-0.5
					C-173.5,388-173.3,388.3-173.3,388.6"/>
				<path class="st3" d="M-171.5,388.6c0,0.3-0.2,0.5-0.5,0.5c-0.3,0-0.5-0.2-0.5-0.5s0.2-0.5,0.5-0.5
					C-171.8,388-171.5,388.3-171.5,388.6"/>
				<path class="st3" d="M-170.4,387.2c0,0.3-0.2,0.5-0.5,0.5c-0.3,0-0.5-0.2-0.5-0.5s0.2-0.5,0.5-0.5
					C-170.6,386.7-170.4,386.9-170.4,387.2"/>
				<path class="st3" d="M-169.6,385.3c0,0.3-0.2,0.5-0.5,0.5c-0.3,0-0.5-0.2-0.5-0.5s0.2-0.5,0.5-0.5
					C-169.8,384.7-169.6,385-169.6,385.3"/>
				<path class="st10" d="M-175.6,385.3c0,0,0.3,2.9,1.7,3.3c1.5,0.5,2.6-0.1,3.7-3.1"/>
				<path class="st13" d="M-178.9,387.6c1.3-0.4-6.2,14.1,14.4,7.5"/>
				<ellipse class="st3" cx="-170.4" cy="379.1" rx="0.7" ry="0.8"/>
				<path class="st13" d="M-169,382.2c0,0-1.8,0.6-2.2,0.3"/>
			</g>
			<ellipse class="st3" cx="-167.2" cy="379.4" rx="0.5" ry="0.7"/>
		</g>
		<path class="st16" d="M-152.3,381.8h-0.1c-0.1,0.3,0.2,0.5,0.5,0.5c0.3,0,0.6-0.3,0.8-0.5c0.2-0.2,0.5-0.5,0.8-0.4
			c0.3,0.1,0.4,0.4,0.6,0.5c0.3,0.1,0.5,0,0.7-0.2c0.3-0.2,0.5-0.4,0.8-0.4c0.2,0,0.5-0.1,0.7,0c0.1,0.1,0.3,0.3,0.4,0.4"/>
		<path class="st17" d="M-153.8,378.3c0.1,0,2.5-0.3,2.5-0.3l-1.8,0.8"/>
		<path class="st17" d="M-146.3,378.2c-0.1,0-2.5-0.3-2.5-0.3l1.8,0.8"/>
		<path class="st17" d="M-154,377.3c0,0,0.4-1.8,2.3-1.7"/>
		<path class="st17" d="M-146.6,377.2c0,0-0.4-1.8-2.3-1.7"/>
		<g>
			<path class="st18" d="M-144,378.1c0.7-0.2,1.5-0.3,2.2,0c0.4,0.2,0.8,0.7,0.2,0.9c-1,0.4-1.7-1.3-2.7-0.9"/>
			<path class="st18" d="M-142.7,379.7c0.7,0.2,1.4,0.5,1.9,1.1c0.3,0.4,0.4,1-0.2,0.9c-1.1-0.2-0.8-2-1.9-2.1"/>
			<path class="st18" d="M-140.1,379.3c0.7,0.2,1.4,0.5,1.9,1.1c0.3,0.4,0.4,1-0.2,0.9c-1.1-0.2-0.8-2-1.9-2.1"/>
		</g>
		<g>
			<path class="st18" d="M-155.6,378.8c-0.7-0.2-1.5-0.3-2.2,0c-0.4,0.2-0.8,0.7-0.2,0.9c1,0.4,1.7-1.3,2.7-0.9"/>
			<path class="st18" d="M-156.9,380.4c-0.7,0.2-1.4,0.5-1.9,1.1c-0.3,0.4-0.4,1,0.2,0.9c1.1-0.2,0.8-2,1.9-2.1"/>
			<path class="st18" d="M-159.5,380c-0.7,0.2-1.4,0.5-1.9,1.1c-0.3,0.4-0.4,1,0.2,0.9c1.1-0.2,0.8-2,1.9-2.1"/>
		</g>
		<g>
			<g>
				<path class="st13" d="M-128,427.4c0,0-3.6-10.5,0.5-21.8"/>
				<path class="st13" d="M-120.8,427.1c0,0-3.5-11.2,0.6-22.6"/>
				<path class="st19" d="M-120.5,386.1c1.2,2.1,2,3,3.4,8.6c0.5,2.2,0.5,6.1-0.1,9.4c-0.2,1.2-1.8,1.2-4.7,1.6
					c-1.5,0.3-3.3,0.1-5.9-0.3c-0.9-0.1-4.6-0.9-4.8-3.6c-0.2-2.1-0.9-4.2,0-7.4c0.8-2.7,1.6-4,5-8.8c3.4-4.8,3.1-4.7,3.1-4.7
					S-121.7,384-120.5,386.1"/>
				<path class="st19" d="M-130.1,405.2c-4.4-1.7,1.1-5.4,2-9.1c0.7-2.7-1-2.7,0.6-5c0.7-0.9-0.4-2.6,0.1-3.6
					c0.4-0.8,1.1-0.4,1.8-1.1c1.8-1.9,3.8-2.2,4.7-0.9c1.6,2.2,2.8,2.3,2.9,5c0,3.3,1.4,12.1,0.8,13.5c-1.3,0.9-1.8,1.8-3.4,2
					C-123.8,406.5-127.2,406.3-130.1,405.2"/>
				<path class="st15" d="M-120.2,386.1c1.2,2.1,1.6,1.8,2.9,7.3c0.5,2.2,0.7,7.4,0,10.7c-0.2,1.2-1.5,1.2-4.4,1.6
					c-1.5,0.3-3.3,0.1-5.9-0.3c-0.9-0.1-4.6-0.9-4.8-3.6c-0.2-2.1-0.9-4.2,0-7.4c0.8-2.7,1.6-4,5-8.8c3.4-4.8,3.1-4.7,3.1-4.7
					S-121.4,384-120.2,386.1z"/>
				<path class="st1" d="M-130.9,378.4c0,3.8,3.1,6.9,6.9,6.9c3.8,0,6.9-3.1,6.9-6.9s-3.1-6.9-6.9-6.9S-130.9,374.6-130.9,378.4"/>
				<path class="st2" d="M-119.4,384.8c-0.6,0.3-1.2,0.6-1.9,0.9v-0.1c-0.2,0.1-0.4,0.1-0.5,0.2c-2.1,0.6-5.5,0.4-6.3-1.9
					c-0.9-2.6,3.2-1.8,4.3-1.7c1.3,0.1,2.5-0.4,3.5-1.2c0.1-0.3,0.3-0.5,0.5-0.5c0.9-1.1,1.4-2.5,0.9-3.9c-0.2-0.6,0.6-0.9,1-0.6
					c0.2-0.5,1.1-0.6,1.2,0c0,0.3,0.1,0.5,0.1,0.8c0.3,0.5,0.4,1.1,0.3,1.7c0,0.2-0.1,0.3-0.2,0.4c0.1,0.1,0.1,0.2,0.1,0.4
					c-0.3,2.3-1.4,4.4-3.3,5.7C-119.5,384.8-119.4,384.8-119.4,384.8"/>
				<circle class="st15" cx="-123.7" cy="378.4" r="6.9"/>
				<path class="st13" d="M-128.2,373.1c0,0-2-0.1-2-1.6"/>
				<path class="st13" d="M-127.4,388.8c0.4,2.6,1.8,12.8-8.1,9.6"/>
				<path class="st13" d="M-120.9,385.5c0,0-1,1.7-3.1,1.7s-2.8-1.7-2.8-1.7"/>
			</g>
			<path class="st13" d="M-127.4,376.5c-0.2,0,1.6,12.7,4.2,13.6c2.6,0.9,3.2-0.1,3.2-0.1"/>
			<path class="st13" d="M-116.8,377.7c0,0-1,10.1,0.6,10.9s2.5,0.1,2.5,0.1"/>
			<path class="st13" d="M-123.4,374.6c0,0.2-0.1,12.6,2.1,13.1"/>
		</g>
	</g>
</g>
<polygon class="st13" points="-85.5,356.7 -217.9,356.7 -217.9,437 -51.5,437 "/>
</svg>
