<?xml version="1.0" encoding="utf-8"?>
<!-- Generator: Adobe Illustrator 19.0.0, SVG Export Plug-In . SVG Version: 6.00 Build 0)  -->
<svg version="1.1" id="Capa_1" xmlns="http://www.w3.org/2000/svg" xmlns:xlink="http://www.w3.org/1999/xlink" x="0px" y="0px"
	 viewBox="-234 351.7 142.3 90.3" style="enable-background:new -234 351.7 142.3 90.3;" xml:space="preserve">
<style type="text/css">
	.st0{fill:#C7C5D0;}
	.st1{fill:none;stroke:#004966;stroke-width:1.3784;stroke-linecap:round;stroke-miterlimit:10;}
	.st2{fill:#0098C8;stroke:#004966;stroke-width:1.3784;stroke-linecap:round;stroke-miterlimit:10;}
	.st3{fill:#C7C5D0;stroke:#004966;stroke-width:1.3784;stroke-linecap:round;stroke-miterlimit:10;}
	.st4{fill:none;stroke:#004966;stroke-width:1.3717;stroke-linecap:round;stroke-miterlimit:10;}
	.st5{fill:#0098C8;}
	.st6{fill:none;stroke:#004966;stroke-width:1.3717;stroke-miterlimit:10;}
	.st7{fill:#FFFFFF;}
	.st8{fill:#DFDEE4;}
	.st9{fill:#C7C5D0;stroke:#004966;stroke-width:1.3717;stroke-linecap:round;stroke-miterlimit:10;}
	.st10{fill:#0098C8;stroke:#004966;stroke-width:1.3717;stroke-linecap:round;stroke-miterlimit:10;}
	.st11{fill:#DFDEE4;stroke:#004966;stroke-width:0.75;stroke-linecap:round;stroke-miterlimit:10;}
	.st12{fill:#817F97;stroke:#004966;stroke-linecap:round;stroke-miterlimit:10;}
	.st13{fill:#DFDEE4;stroke:#004966;stroke-width:0.25;stroke-linecap:round;stroke-miterlimit:10;}
	.st14{fill:none;stroke:#004966;stroke-width:0.25;stroke-linecap:round;stroke-miterlimit:10;}
	.st15{fill:#FFFFFF;stroke:#004966;stroke-width:0.25;stroke-linecap:round;stroke-miterlimit:10;}
	.st16{fill:#004966;}
	.st17{fill:none;stroke:#004966;stroke-width:0.5;stroke-linecap:round;stroke-miterlimit:10;}
	.st18{fill:none;stroke:#004966;stroke-width:1.551;stroke-linecap:round;stroke-miterlimit:10;}
	.st19{fill:#0098D5;}
	.st20{fill:none;stroke:#004966;stroke-width:1.551;stroke-miterlimit:10;}
	.st21{fill:none;stroke:#004966;stroke-linecap:round;stroke-miterlimit:10;}
</style>
<g>
	<g>
		<ellipse class="st0" cx="-202.1" cy="424" rx="13.9" ry="4.6"/>
		<polyline class="st0" points="-177.4,414.1 -194.3,422 -124.3,436 -124.5,417.8 		"/>
		<g>
			<g>
				<g>
					<path class="st1" d="M-204,420c1.3-0.5,32.7-10.7,32.7-10.7l69.6,3.1"/>
					<g>
						<rect x="-121.3" y="365.7" class="st2" width="17.3" height="24.2"/>
						<rect x="-123.8" y="388.2" class="st3" width="22.2" height="4.3"/>
						<line class="st1" x1="-112.7" y1="388.7" x2="-112.7" y2="365.9"/>
					</g>
					<g>
						<path class="st4" d="M-153.1,389.4c0,0-0.3,4.2-2.7,5.8s-5.8,3.2-5.8,3.2"/>
						<g>
							<path class="st4" d="M-145.3,423.5c0,0,0.9-8.7,0.5-19.5"/>
							<path class="st4" d="M-151.8,423.7c0,0,0.5-8.4,0.5-19.5"/>
							<path class="st4" d="M-144.9,387.6"/>
							<path class="st5" d="M-145,386.7c1,1.9,2.7,2.6,3.9,7.6c0.5,2,0.6,3.8,0,6.7c-0.2,1-2.6,2.9-5.2,3.3c-1.4,0.2-3,0.1-5.3-0.2
								c-0.8-0.1-4.1-0.8-4.3-3.2c-0.2-1.9-0.8-3.8,0-6.7c0.7-2.4,1.4-3.6,4.5-7.9c3-4.3,2.8-4.2,2.8-4.2S-146,384.8-145,386.7"/>
							<path class="st5" d="M-153.9,390.5c0.5-1,1.1-1.9,1.6-2.9c0.2-0.5,0.6-1.3,1.2-1.5c0.1-0.1,0.2-0.2,0.4-0.2
								c-0.2-0.1-0.3-0.1-0.5-0.2s-0.3-0.2-0.5-0.3c1,0.3,2,0.5,2.8,1.1c-0.1,0-0.2,0-0.3-0.1c0.2,0.3,0.4,0.6,0.4,1
								c0,1.1-0.6,2-1.1,2.8c-0.9,1.4-1.6,2.7-1.8,4.4c-0.2,1.5,0,3.1,0.3,4.5c0.3,1.1,1.4,1.8,1.6,2.9c0.2,1.2-0.8,1.2-1.7,1
								c-0.2,0.1-0.5,0-0.6-0.2c-0.3-0.1-0.5-0.2-0.7-0.3c-1.9-0.9-2.5-2.5-2.7-4.4C-155.8,395.5-155.1,392.9-153.9,390.5"/>
							<path class="st6" d="M-144.8,386.7c1,1.9,2.7,2.6,3.9,7.6c0.5,2,0.6,3.8,0,6.7c-0.2,1-2.6,2.9-5.2,3.3
								c-1.4,0.2-3,0.1-5.3-0.2c-0.8-0.1-4.1-0.8-4.3-3.2c-0.2-1.9-0.8-3.8,0-6.7c0.7-2.4,1.4-3.6,4.5-7.9c3-4.3,2.8-4.2,2.8-4.2
								S-145.8,384.8-144.8,386.7z"/>
							<path class="st7" d="M-154.3,379.8c0,3.4,2.8,6.2,6.2,6.2s6.2-2.8,6.2-6.2c0-3.4-2.8-6.2-6.2-6.2
								C-151.5,373.7-154.3,376.4-154.3,379.8"/>
							<path class="st8" d="M-148.9,385.9c-0.6-0.2-1.2-0.4-1.7-0.6h0.1c-0.2-0.1-0.3-0.1-0.5-0.2c-1.7-1-3.8-3.2-2.8-5.2
								c1.1-2.2,3.1,0.9,3.8,1.7c0.7,0.9,1.8,1.4,3,1.5c0.3-0.1,0.5-0.1,0.7,0c1.3-0.1,2.5-0.7,3-2c0.2-0.5,1-0.2,1,0.2
								c0.5-0.2,1.1,0.3,0.8,0.8c-0.1,0.2-0.3,0.4-0.4,0.6c-0.1,0.5-0.5,0.9-0.9,1.3c-0.1,0.1-0.3,0.1-0.4,0.1
								c0,0.1-0.1,0.2-0.2,0.3c-1.7,1.3-3.7,1.9-5.7,1.5C-149,385.8-148.9,385.9-148.9,385.9"/>
							<circle class="st6" cx="-147.9" cy="379.8" r="6.2"/>
							<path class="st4" d="M-145.3,386.7c0,0-0.9,1.6-2.9,1.6s-2.6-1.6-2.6-1.6"/>
						</g>
						<polyline class="st9" points="-182,407.2 -182,420.8 -145.3,426.2 -134,419.3 -134.3,406 						"/>
						<polygon class="st9" points="-186.3,406.6 -186.3,403.1 -167.1,398.6 -132.4,399.8 -133.1,405.3 -146.1,410.5 						"/>
						<polyline class="st4" points="-185.9,403.1 -146.9,406.7 -132.4,400.2 						"/>
						<path class="st10" d="M-151.8,385.4l-0.3,1.5l0.5,2.1l2.5-1.5l3,1.9l1.9-2.4l-0.7-1.4c0,0-2.8,0.7-4.2,0.5
							C-150.5,385.9-151.8,385.4-151.8,385.4z"/>
						<path class="st10" d="M-149.1,387.6c0,0-0.8,1.6-1.3,5.6c-0.5,3.9-0.3,6-0.3,6"/>
						<path class="st11" d="M-171.1,396.6v0.2v4.5c0,0,0.7,1,1.8,0.7s1.7-0.7,1.7-0.7V397C-167.6,397.1-171,396.6-171.1,396.6z"/>
						<g>
							<path class="st12" d="M-177.3,385.5c-0.1,0.2-0.3,10.8-0.3,10.8l15.1,1.4l1.3-0.7l-0.2-12.2L-177.3,385.5z"/>
							<path class="st13" d="M-162.8,397.4l-0.3-11.1c0,0-13.8,0.1-14,0.1l-0.1,9.5L-162.8,397.4z"/>
							<g>
								<line class="st14" x1="-173" y1="389.9" x2="-167.9" y2="390"/>
								<line class="st14" x1="-173.1" y1="390.9" x2="-168" y2="391"/>
								<line class="st14" x1="-173.1" y1="391.7" x2="-168" y2="391.8"/>
								<line class="st14" x1="-173" y1="392.7" x2="-167.9" y2="392.8"/>
							</g>
						</g>
						<path class="st13" d="M-166,400.6c0.1,0,4.5-1.5,4.5-1.5l12.4,0.5l-2.9,1.9L-166,400.6z"/>
						<line class="st14" x1="-161.5" y1="399.5" x2="-151.1" y2="400"/>
						<line class="st14" x1="-162.5" y1="399.9" x2="-151.5" y2="400.5"/>
						<line class="st14" x1="-163.8" y1="400.3" x2="-152.5" y2="401.1"/>
						<path class="st4" d="M-144.3,387.6c-1.2-0.3,6.5,9.9-7.4,12.8"/>
						<path class="st15" d="M-155.5,403.6c0,0,8.2-3.6,8.3-3.5c0.2,0.1,8.5,0.4,8.5,0.4l-7.8,3.8L-155.5,403.6z"/>
						<path class="st15" d="M-155.5,403c0,0,8.2-3.6,8.3-3.5c0.2,0.1,8.5,0.4,8.5,0.4l-7.8,3.8L-155.5,403z"/>
						<path class="st15" d="M-155.5,402.4c0,0,8.2-3.6,8.3-3.5c0.2,0.1,8.5,0.4,8.5,0.4l-7.8,3.8L-155.5,402.4z"/>
						<path class="st15" d="M-155.5,401.5c0,0,8.2-3.6,8.3-3.5c0.2,0.1,8.5,0.4,8.5,0.4l-7.8,3.8L-155.5,401.5z"/>
						<ellipse class="st16" cx="-151.8" cy="380.2" rx="0.6" ry="0.6"/>
						<ellipse class="st16" cx="-148.5" cy="380.3" rx="0.6" ry="0.6"/>
						<line class="st4" x1="-145.6" y1="424.6" x2="-145.6" y2="410.6"/>
						<path class="st17" d="M-150.8,383.5c0,0,1.4-1.4,2.7,0.1"/>
					</g>
				</g>
			</g>
			<path class="st16" d="M-154.4,379.7c-0.8-0.1-2.5-1.6-0.8-1.6c0-0.6-0.3-1.2-0.2-1.8c0.2,0,0.6-0.1,0.8,0
				c-0.9-0.9-0.6-1.9,0.7-1.8c-0.6-0.9-0.2-2.3,1.1-1.8c-0.5-1.6,1-1.7,2-1c0.3-0.9,1.8-1.2,2.2-0.2c0.3-0.9,2.2-1.1,2.2,0
				c0.9-0.5,3.6-0.2,2.2,1c1-0.3,1.7,0,1.3,1.1c0.8-0.2,1,0.4,1.1,1.1c0.7,0.1,1.7,1.3,0.7,1.5c0.7,0.1,1,0.7,0.4,1.2
				c0.6,0.3,0.4,1.7,0.5,2.4c0,0.9-0.4,1.7-1.4,1.7c0.6-1.9-0.4-3-1.1-4.7c-0.7-1.6-2-3.2-3.9-3.4c-2-0.2-3.7,0.5-5.1,1.8
				c-0.5,0.5-1.4,1-1.8,1.7c-0.4,0.8-0.1,1.8-0.8,2.5"/>
			<path class="st16" d="M-150.3,374.7c-0.2,0.8,0.4,1.3,1.2,1.2c-0.2,0.9,0.7,1.4,1.4,0.9c0.1,0.5,0.6,0.6,1.1,0.5
				c0-0.1,0-0.1,0-0.2c0.8,0.4,0.8-0.1,1.4-0.2c0.5-0.1,1.1,0.6,1.2-0.3c0.8,0.2,1-0.6,1-1.2c0-0.9-0.3-1.1-1-1.6
				c-1.3-0.7-3.3-1.3-4.7-0.9"/>
		</g>
		<g>
			<g>
				<path class="st18" d="M-205.4,423.6c0,0-0.2-9.6-0.5-22.1"/>
				<path class="st18" d="M-198.3,423.9c0,0,0-10.8-0.5-22.1"/>
				<path class="st19" d="M-205.8,382c-1.2,2.1-3,3-4.4,8.6c-0.5,2.2-0.7,4.2,0,7.6c0.2,1.2,3,3.3,5.9,3.7c1.6,0.3,3.4,0.1,5.9-0.3
					c0.9-0.1,4.7-0.9,4.9-3.7c0.2-2.1,0.9-4.3,0-7.6c-0.8-2.7-1.6-4-5-8.9s-3.1-4.8-3.1-4.8S-204.5,379.9-205.8,382"/>
				<path class="st19" d="M-195.6,386.6c-0.5-1.2-1.3-2.2-1.8-3.4c-0.3-0.6-0.6-1.5-1.3-1.7c-0.1-0.1-0.3-0.2-0.4-0.2
					c0.2-0.1,0.3-0.2,0.5-0.3c0.2-0.1,0.4-0.2,0.6-0.4c-1.1,0.3-2.2,0.6-3.2,1.3c0.1,0-0.2,0.1-0.1,0c-0.2,0.3,0.1,0.6,0.1,1.1
					c0,1.3,0.6,2.4,1.3,3.4c1.1,1.7,1.8,3.2,2.1,5.2c0.2,1.8,0,3.7-0.4,5.4c-0.3,1.3-1.6,2.2-1.8,3.5c-0.3,1.4,0.9,1.4,1.9,1.2
					c0.3,0.1,0.6,0,0.7-0.2c0.3-0.1,0.6-0.2,0.8-0.3c2.1-1.1,2.9-3,3-5.3C-193.5,392.6-194.3,389.5-195.6,386.6"/>
				<path class="st20" d="M-206,382c-1.2,2.1-3,3-4.4,8.6c-0.5,2.2-0.7,4.2,0,7.6c0.2,1.2,3,3.3,5.9,3.7c1.5,0.3,3.4,0.1,5.9-0.3
					c0.9-0.1,4.7-0.9,4.9-3.7c0.2-2.1,0.9-4.3,0-7.6c-0.8-2.7-1.6-4-5-8.9s-3.1-4.8-3.1-4.8S-204.8,379.9-206,382z"/>
				<path class="st7" d="M-195.3,374.3c0,3.9-3.1,7-7,7s-7-3.1-7-7s3.1-7,7-7C-198.3,367.3-195.3,370.4-195.3,374.3"/>
				<path class="st8" d="M-201.3,381.1c0.7-0.2,1.3-0.4,2-0.7h-0.1c0.2-0.1,0.3-0.2,0.5-0.3c2-1.1,4.2-3.6,3.1-5.9
					c-1.2-2.5-3.6,1-4.3,1.9c-0.8,1-2.1,1.5-3.4,1.6c-0.3-0.1-0.5-0.1-0.8,0c-1.4-0.1-2.8-0.8-3.4-2.2c-0.3-0.6-1.1-0.3-1.2,0.3
					c-0.5-0.3-1.2,0.3-0.9,0.9c0.1,0.2,0.3,0.4,0.5,0.6c0.1,0.6,0.5,1.1,1,1.5c0.1,0.1,0.3,0.2,0.5,0.2c0,0.1,0.1,0.2,0.2,0.3
					c1.9,1.5,4.2,2.1,6.4,1.7C-201.3,381-201.3,381.1-201.3,381.1"/>
				<circle class="st20" cx="-202.4" cy="374.3" r="7"/>
				<path class="st18" d="M-205.4,368c0,0,6,0.7,8.2-3.8"/>
				<path class="st18" d="M-196.6,384c0,0,7.2,7.3,7.6,6.9c0.4-0.4,5-8.1,5-8.1"/>
				<path class="st18" d="M-206.9,383.1c0,0-10.6,6-9.8,7.5c0.7,1.6,6.2,6.3,6.2,6.3l-1.3,2.5"/>
				<path class="st18" d="M-204.3,362.1c0,0,0.6,0.8,0.1,3s-1.3,3.3-1.3,3.3"/>
				<path class="st18" d="M-208.3,364.3c0,0,1,0.9,1.2,2.6s0,2.6,0,2.6"/>
				<path class="st18" d="M-206.8,383c0,0,0.6,2.4,1.2,1.9c0.6-0.4,3.1-3.3,3.1-3.3s2.6,3.7,3.3,3.2c0.8-0.6,0.9-1.9,0.9-1.9"/>
				<path class="st18" d="M-202.6,382c0,0.1,1,4.2,1.2,10.9c0.2,6.7-0.1,8.7-0.1,8.7"/>
				<g>
					<path class="st16" d="M-204.3,373.5c0,0.2-0.2,0.4-0.4,0.4l0,0c-0.2,0-0.4-0.2-0.4-0.4v-0.9c0-0.2,0.2-0.4,0.4-0.4l0,0
						c0.2,0,0.4,0.2,0.4,0.4V373.5z"/>
					<path class="st16" d="M-200.1,373.5c0,0.2-0.2,0.4-0.4,0.4l0,0c-0.2,0-0.4-0.2-0.4-0.4v-0.9c0-0.2,0.2-0.4,0.4-0.4l0,0
						c0.2,0,0.4,0.2,0.4,0.4V373.5z"/>
				</g>
			</g>
			<path class="st16" d="M-200.8,377.3c-0.4,0.2-2.7-1.4-3.7-0.9s-0.3,2.3,0,2.2c0.3-0.1,1.2-0.9,1.2-0.9l1.9,0.6L-200.8,377.3z"/>
		</g>
		<path class="st17" d="M-205.8,370.7c0,0,2,1.5,2.4,1.4s0.5-0.7,0.5-0.7"/>
		<path class="st17" d="M-198.8,370.7c0,0-2,1.5-2.4,1.4s-0.5-0.7-0.5-0.7"/>
	</g>
	<polygon class="st21" points="-232.3,353.4 -232.3,387.6 -210.1,440.4 -93.4,440.4 -93.4,353.4 	"/>
</g>
</svg>
