<?xml version="1.0" encoding="utf-8"?>
<!-- Generator: Adobe Illustrator 19.0.0, SVG Export Plug-In . SVG Version: 6.00 Build 0)  -->
<svg version="1.1" id="Capa_1" xmlns="http://www.w3.org/2000/svg" xmlns:xlink="http://www.w3.org/1999/xlink" x="0px" y="0px"
	 viewBox="-243 338.2 136 100.8" style="enable-background:new -243 338.2 136 100.8;" xml:space="preserve">
<style type="text/css">
	.st0{fill:#E1DFE6;}
	.st1{fill:#64AC28;stroke:#004966;stroke-width:1.2707;stroke-linecap:round;stroke-miterlimit:10;}
	.st2{fill:#5B5B5F;stroke:#004966;stroke-width:0.5922;stroke-linecap:round;stroke-miterlimit:10;}
	.st3{fill:#5ABAD0;stroke:#004966;stroke-width:1.2707;stroke-linecap:round;stroke-miterlimit:10;}
	.st4{opacity:0.3;fill:#DFDEE4;enable-background:new    ;}
	.st5{fill:#C7C5D0;stroke:#004966;stroke-width:0.6456;stroke-linecap:round;stroke-miterlimit:10;}
	.st6{fill:#DFDEE4;stroke:#004966;stroke-width:0.6456;stroke-linecap:round;stroke-miterlimit:10;}
	.st7{fill:#64AC28;stroke:#004966;stroke-width:0.6456;stroke-linecap:round;stroke-miterlimit:10;}
	.st8{fill:none;stroke:#004966;stroke-width:1.2;stroke-linecap:round;stroke-miterlimit:10;}
	.st9{fill:#FFFFFF;}
	.st10{fill:#DFDEE4;}
	.st11{fill:none;stroke:#004966;stroke-width:1.2;stroke-miterlimit:10;}
	.st12{fill:#EA7E25;stroke:#004966;stroke-width:1.2;stroke-linecap:round;stroke-miterlimit:10;}
	.st13{opacity:0.3;fill:#E76A00;enable-background:new    ;}
	.st14{fill:#423F40;stroke:#004966;stroke-width:0.5;stroke-linecap:round;stroke-miterlimit:10;}
	.st15{fill:#0098C8;stroke:#004966;stroke-width:0.25;stroke-linecap:round;stroke-miterlimit:10;}
	.st16{fill:#004966;}
	.st17{fill:#DD2D5C;}
	.st18{fill:none;stroke:#004966;stroke-width:0.5;stroke-linecap:round;stroke-miterlimit:10;}
	.st19{opacity:0.2;fill:#DD2D5C;enable-background:new    ;}
	.st20{fill:#8B6033;stroke:#004966;stroke-width:0.5922;stroke-linecap:round;stroke-miterlimit:10;}
	.st21{fill:#AE804D;stroke:#004966;stroke-width:0.5922;stroke-linecap:round;stroke-miterlimit:10;}
	.st22{fill:none;stroke:#004966;stroke-width:1.1024;stroke-linecap:round;stroke-miterlimit:10;}
	.st23{fill:#29AAA7;}
	.st24{clip-path:url(#SVGID_4_);}
	.st25{fill:none;stroke:#004966;stroke-width:1.5;stroke-linecap:round;stroke-miterlimit:10;}
	.st26{fill:#C7C5D0;stroke:#004966;stroke-width:0.6341;stroke-linecap:round;stroke-miterlimit:10;}
	.st27{fill:none;stroke:#004966;stroke-width:1.5;stroke-miterlimit:10;}
	.st28{fill:#004966;stroke:#004966;stroke-width:0.6341;stroke-miterlimit:10;}
	.st29{fill:none;stroke:#004966;stroke-width:0.75;stroke-linecap:round;stroke-miterlimit:10;}
	.st30{fill:none;stroke:#004966;stroke-miterlimit:10;}
</style>
<g>
	<g>
		<path class="st0" d="M-236.8,359.8l4.6,59.5l110.5-1.9l-41-9.1c0,0,34.6-26.3,27.6-24.4s-54.2,13.7-54.7,12.9
			c-0.5-0.8,16.1-24.1,11.3-22.3c-4.8,1.9-24.4,18.8-24.1,13.7c0.3-5.1,9.9-23.9,4.3-21.5c-5.6,2.4-18.6,12-18.4,10.3
			c0.2-1.7-4.7-17.3-4.7-17.3L-236.8,359.8L-236.8,359.8z"/>
		<polygon class="st1" points="-215.2,418.5 -230.5,432.6 -134.6,432.6 -151.5,418.7 		"/>
		<g>
			<rect x="-182.5" y="362.8" class="st2" width="54.3" height="24.8"/>
			<rect x="-179.2" y="366" class="st3" width="47.7" height="18.5"/>
			<polygon class="st4" points="-177,368.2 -177,380.6 -175.6,371.5 -156.1,367.9 			"/>
			<path class="st4" d="M-145.9,368c-0.3,0.4-11.4,3.8-11.4,3.8l2.3,0.6l-12.8,6.2l2.1,3.2l22.8-13.8"/>
			<path class="st4" d="M-136.8,369.2c-0.3,0.4-11.4,3.8-11.4,3.8l2.3,0.6l-12.8,6.2l2.1,3.2l22.8-13.8"/>
		</g>
		<g>
			<g>
				<path class="st5" d="M-179.8,419.4h32.3c1.7-1.2,0.4-2.8,0.4-2.8l0.5-14c3.3,0.2,6.1-6.2,0.9-7.8c-5.2-1.5-7.8-0.4-7.8-0.4
					c-0.1-0.5-0.4-4.7-0.4-4.7s-22.6,0.7-26.2,0.6c-2.7,0-6.7,0-6.7,0c-3.6,0.1-26.2-0.6-26.2-0.6s-0.3,4.2-0.4,4.7
					c0,0-2.6-1.1-7.8,0.4s-2.5,7.9,0.9,7.8l0.5,14c0,0-1.2,1.6,0.4,2.8h32.3H-179.8z"/>
				<path class="st5" d="M-153.5,394.4c0,0-3.8,0.8-3.6,10.1c0,0,5,1.4,4.5,7.8c0,0-0.8-12.8,2.1-15.9c3-3.2,6.5-0.8,6.5-0.8
					s-2.2-1.7-6.2-1.7C-151.2,393.9-152.2,393.9-153.5,394.4z"/>
				<path class="st5" d="M-213.4,394.4c0,0,3.8,0.8,3.6,10.1c0,0-5,1.4-4.5,7.8c0,0,0.8-12.8-2.1-15.9c-3-3.2-6.5-0.8-6.5-0.8
					s2.2-1.7,6.2-1.7C-215.7,393.9-214.6,393.9-213.4,394.4z"/>
				<path class="st6" d="M-156.9,404.5c0,0,2.7,1.1,3.5,2.8c0,0,1.2,1.2,0.9,5.1h-61.8c-0.2-3.8,0.9-5.1,0.9-5.1
					c0.9-1.7,3.5-2.8,3.5-2.8S-184.7,403.7-156.9,404.5z"/>
			</g>
			<g>
				<g>
					<path class="st7" d="M-152.1,393.2c0,0-9.1,0.9-10.1,1.7c-1,0.8-4.7,6.6-5.4,10.4h10.8C-156.9,405.3-150,392.5-152.1,393.2z"/>
				</g>
				<g>
					<path class="st7" d="M-213.9,393.2c0,0,9.1,0.9,10.1,1.7c1,0.8,4.7,6.6,5.4,10.4h-10.8C-209.1,405.3-216.1,392.5-213.9,393.2z"
						/>
				</g>
			</g>
		</g>
		<g>
			<path class="st8" d="M-220.9,428.5c0,0,3.9-11.3-0.6-23.7"/>
			<path class="st8" d="M-213.1,428.8c0,0-1-16.4-0.6-23.7"/>
			<path class="st8" d="M-213.3,385.3c-1.5-0.4,4.3,11.3,7.6,3.5"/>
			<path class="st8" d="M-221.3,385.1c1.5-0.4-8.7,3-8.7,19.8"/>
			<path class="st9" d="M-209.9,375.7c0,4.1-3.3,7.5-7.5,7.5s-7.5-3.3-7.5-7.5c0-4.1,3.3-7.5,7.5-7.5S-209.9,371.5-209.9,375.7"/>
			<path class="st10" d="M-216.5,383c0.7-0.2,1.4-0.5,2.1-0.8h-0.1c0.2-0.1,0.4-0.2,0.5-0.3c2.1-1.2,4.5-3.9,3.4-6.3
				c-1.3-2.7-3.8,1-4.6,2c-0.9,1.1-2.2,1.7-3.6,1.8c-0.3-0.2-0.6-0.1-0.8,0c-1.5-0.1-3-0.9-3.7-2.4c-0.3-0.6-1.2-0.3-1.3,0.3
				c-0.6-0.3-1.3,0.3-0.9,0.9c0.2,0.2,0.3,0.5,0.5,0.7c0.1,0.6,0.6,1.1,1.1,1.6c0.2,0.1,0.3,0.2,0.5,0.2c0,0.1,0.1,0.3,0.2,0.4
				c2,1.6,4.5,2.3,6.9,1.8C-216.4,382.9-216.5,383-216.5,383"/>
			<circle class="st11" cx="-217.7" cy="375.7" r="7.5"/>
			<path class="st8" d="M-221,383.9c0,0,1.1,1.9,3.5,1.9s3.1-1.9,3.1-1.9"/>
			<path class="st12" d="M-223,386.7c0,0,1.6,4.7,1.5,7.5s-3.1,10.8-0.1,12.7c3,1.9,11.6,0.8,11.2-2.4c-0.4-3.2-2.3-8-2-10.6
				c0.4-2.6,0.8-8.4-2.6-9.3C-220.5,383.1-223,386.7-223,386.7z"/>
			<path class="st13" d="M-217.8,385.4c-0.9-0.2-3,0.1-3.6,0.8c-0.9,0.9,0.5,2.9,0.7,4c0.3,1.4,0.4,2.9,0.3,4.4
				c-0.1,1.2-0.5,2.3-0.8,3.5c-0.3,1.1-0.4,2.1-0.6,3.2c-0.2,1-0.4,2.1-0.2,3.1c0.7,3.1,4.7,2.9,7.1,1.9c-1-0.6-2.1-0.6-2.8-1.7
				c-0.7-0.9-1.1-1.9-1.7-2.9c-0.9-1.4-0.5-3.8,0.4-5.1c0.9-1.3,1.9-1.1,3.3-1.5c1.1-0.2,2.5-1.9,2.3-3.1c-1.2,0.3-2.3,0.8-3.5,0.4
				c-1-0.3-2.3-1.3-2.9-2.1c-1.1-1.6,0.1-3.9,1.8-4.6"/>
			<path class="st14" d="M-204.9,384.5c0,0-3.4,4.4-3.3,4.4c0.1,0,3.1,1.9,3.1,1.9s3.6-3.8,3.6-4.2
				C-201.6,386.2-204.9,384.5-204.9,384.5z"/>
			<polygon class="st15" points="-204.7,385.3 -207.3,388.7 -205.3,390 -202.5,386.5 			"/>
			<path class="st8" d="M-223,370.6c0,0-4.5,1.5-4.5,6.4c0.1,4.9,1.5,9.4-0.1,11.1c-1.5,1.7-3.3,1.3-3.3,1.3"/>
			<path class="st8" d="M-210.6,372.9c0,0,2.6,4.2,1,8.8c-1.6,4.5-2.2,12.4-0.7,12.4"/>
			<path class="st8" d="M-221.9,369.6c-0.3,0.1-2.4,0.2-2,6.2c0.5,6,5.2,16.7,2.7,17.6s-3,0.1-3,0.1"/>
			<path class="st8" d="M-224.4,372.2c-0.2,0-2.3,2-1.7,6.7c0.7,4.7,3.4,11.8,2.1,12.7c-1.3,0.8-1.7,0.9-1.7,0.9"/>
			<path class="st16" d="M-217.6,420.4c0,0.7-0.6,1.3-1.3,1.3h-1.6c-0.7,0-1.3-0.6-1.3-1.3l0,0c0-0.7,0.6-1.3,1.3-1.3h1.6
				C-218.2,419.2-217.6,419.7-217.6,420.4L-217.6,420.4z"/>
			<path class="st16" d="M-211.4,420.6c0,0.7-0.6,1.3-1.3,1.3h-1.6c-0.7,0-1.3-0.6-1.3-1.3l0,0c0-0.7,0.6-1.3,1.3-1.3h1.6
				C-212,419.3-211.4,419.9-211.4,420.6L-211.4,420.6z"/>
			<circle class="st17" cx="-231.1" cy="402.9" r="0.3"/>
			<circle class="st17" cx="-230.5" cy="403" r="0.3"/>
			<circle class="st17" cx="-229.9" cy="403" r="0.3"/>
			<circle class="st17" cx="-229.4" cy="403" r="0.3"/>
			<circle class="st17" cx="-228.8" cy="403" r="0.3"/>
			<ellipse class="st16" cx="-216.9" cy="376.6" rx="0.8" ry="0.5"/>
			<ellipse class="st16" cx="-212.8" cy="376.5" rx="0.8" ry="0.5"/>
			<path class="st18" d="M-218.2,380.1c0,0,0.9,1,2.6,0.7c1.7-0.3,2.3-1,2.3-1"/>
			<ellipse class="st19" cx="-218" cy="378.6" rx="1.3" ry="0.8"/>
			<circle class="st19" cx="-212.3" cy="378.3" r="0.8"/>
			<path class="st18" d="M-218.8,375c0,0-0.2-1,0.6-1.5s1.5-0.1,1.5-0.1"/>
			<path class="st18" d="M-211.1,375.2c0,0,0.2-1-0.6-1.5s-1.5-0.1-1.5-0.1"/>
			<path class="st16" d="M-224.5,371.8c-0.4-0.8-0.6-2-0.5-2.9c0.2-0.9,1.2-1.5,1.9-2c0.9-0.5,1.9-0.7,3-0.7
				c1.7,0.1,3.6,0.5,5.3-0.3c0.4-0.2,0.8-0.5,1.1-0.9c0.2-0.2,0.2-0.5,0.5-0.2c0.4,0.5-0.3,1.9-0.5,2.3c1.3,0.1,3.3-0.5,4.3,0.7
				c-0.5,0-1.9,0.2-1.8,0.9c0.5,0,1.9,0.6,1.9,1.2s-1.2,0.4-1.3,0.9c0,0.2,0.3,0.5,0.4,0.7c0.2,0.4,0.4,0.8,0.5,1.2
				c0.2,0.7,0.1,1.4,0.3,2c-0.2-0.7-0.7-1.4-1.1-2c-0.4-0.7-0.8-1.3-1.4-1.8c-1.2-1-2.1-2.4-3.7-2.9c-1.7-0.5-4-0.4-5.6,0.4
				c-1,0.5-2.1,1.6-2.3,2.7c-0.1,0.1-0.1,0-0.1,0"/>
		</g>
		<g>
			<ellipse class="st20" cx="-176.2" cy="427.2" rx="6.9" ry="1.2"/>
			<rect x="-177.1" y="413.7" class="st20" width="1.8" height="13.7"/>
			<ellipse class="st20" cx="-176.2" cy="413.5" rx="13.5" ry="2.4"/>
			<ellipse class="st21" cx="-176.2" cy="412" rx="13.5" ry="2.4"/>
		</g>
	</g>
	<rect x="-240.6" y="354.5" class="st22" width="120.1" height="81.7"/>
</g>
<g>
	<g>
		<circle id="SVGID_1_" class="st23" cx="-132.5" cy="364.6" r="24.5"/>
	</g>
	<g>
		<defs>
			<circle id="SVGID_3_" cx="-132.5" cy="364.6" r="24.5"/>
		</defs>
		<clipPath id="SVGID_4_">
			<use xlink:href="#SVGID_3_"  style="overflow:visible;"/>
		</clipPath>
		<g class="st24">
			<path class="st25" d="M-136.8,367.7c1.8-0.5-21.5,15.4-3.2-7"/>
			<path class="st26" d="M-141,357.5l-3.7,3.2c0,0,4.2,4.8,4.2,4.6c0-0.2,3-3.3,3-3.3L-141,357.5z"/>
			<path class="st25" d="M-125.1,367.8c-1.8-0.5,10.2,3.5,10.2,23.2"/>
			<path class="st9" d="M-135.6,366.6c-1.5,2.6-3.8,3.7-5.5,10.8c-0.7,2.8-0.8,5.3,0,9.5c0.3,1.5,3.7,4.1,7.4,4.7
				c1.9,0.3,4.2,0.1,7.5-0.3c1.2-0.2,5.8-1.1,6.2-4.6c0.2-2.6,1.1-5.4,0-9.5c-1-3.4-2-5.1-6.3-11.2s-3.9-6-3.9-6
				S-134,363.9-135.6,366.6"/>
			<path class="st10" d="M-122.9,371.9c-0.7-1.4-1.6-2.6-2.2-4.1c-0.3-0.7-0.8-1.8-1.7-2.1c-0.2-0.1-0.3-0.2-0.5-0.3
				c0.2-0.1,0.4-0.2,0.6-0.3c0.2-0.1,0.5-0.3,0.7-0.4c-1.4,0.4-2.8,0.7-4,1.5c0.2,0,0.3,0,0.5-0.1c-0.3,0.4-0.5,0.8-0.5,1.4
				c0,1.5,0.8,2.8,1.6,4c1.3,2.1,2.3,3.8,2.6,6.2c0.3,2.1,0,4.4-0.5,6.4c-0.4,1.6-1.9,2.6-2.3,4.2c-0.3,1.7,1.1,1.7,2.4,1.4
				c0.3,0.1,0.7,0,0.9-0.3c0.4-0.1,0.7-0.3,1-0.4c2.7-1.3,3.6-3.5,3.8-6.3C-120.2,379.1-121.2,375.3-122.9,371.9"/>
			<path class="st27" d="M-135.9,366.6c-1.5,2.6-3.8,3.7-5.5,10.8c-0.7,2.8-0.8,5.3,0,9.5c0.3,1.5,3.7,4.1,7.4,4.7
				c1.9,0.3,4.2,0.1,7.5-0.3c1.2-0.2,5.8-1.1,6.2-4.6c0.2-2.6,1.1-5.4,0-9.5c-1-3.4-2-5.1-6.3-11.2s-3.9-6-3.9-6
				S-134.4,363.9-135.9,366.6z"/>
			<path class="st9" d="M-122.3,356.8c0,4.8-3.9,8.8-8.8,8.8c-4.8,0-8.8-3.9-8.8-8.8c0-4.8,3.9-8.8,8.8-8.8
				C-126.2,348.1-122.3,352-122.3,356.8"/>
			<path class="st10" d="M-130,365.4c0.8-0.3,1.7-0.5,2.5-0.9c0,0-0.1,0-0.1-0.1c0.2-0.1,0.4-0.2,0.6-0.3c2.5-1.4,5.3-4.5,3.9-7.4
				c-1.5-3.1-4.5,1.2-5.4,2.3c-1,1.2-2.6,1.9-4.2,2.1c-0.4-0.2-0.7-0.1-1,0c-1.8-0.1-3.5-1-4.3-2.8c-0.3-0.8-1.4-0.3-1.5,0.3
				c-0.6-0.3-1.5,0.4-1.1,1.1c0.2,0.3,0.4,0.5,0.6,0.8c0.1,0.7,0.7,1.3,1.2,1.8c0.2,0.2,0.4,0.2,0.6,0.2c0,0.2,0.1,0.3,0.2,0.4
				c2.4,1.8,5.3,2.6,8.1,2.1C-129.9,365.3-130,365.4-130,365.4"/>
			<path class="st27" d="M-122.6,356.8c0,4.8-3.9,8.8-8.8,8.8c-4.8,0-8.8-3.9-8.8-8.8c0-4.8,3.9-8.8,8.8-8.8
				C-126.6,348.1-122.6,352-122.6,356.8z"/>
			<path class="st16" d="M-123.2,361.1c0.5,0,1.6-0.1,2-0.4c0.7-0.6-0.3-1.2-0.1-1.8c0.4,0,0.9-0.1,1-0.5s-0.2-0.6-0.3-0.8
				c0.5,0,0.8-0.3,0.8-0.8c0-0.4-0.2-0.6-0.5-0.9c-0.1-0.1-0.5-0.2-0.5-0.4c-0.1-0.4,0.7-0.7,0.5-1.3c-0.1-0.4-0.6-0.7-1-0.8
				c1.1-1,0.8-2-0.5-2.4c0.8-0.6,0.6-1.6-0.5-1.5c0.7-0.9-0.3-1.8-1.3-1.6c1-0.9-1.1-1.6-1.8-1.4c1-1.1-1.5-1.1-2.1-0.8
				c0.9-1.6-1.5-1.2-2.3-0.8c0.4-0.6-0.2-0.8-0.7-0.8c-0.9,0.1-1.4,0.5-1.9,1.2c0-0.8-0.3-1-1-0.7c-0.8,0.3-1,0.8-1.3,1.4
				c-0.7-0.3-1.1-0.5-1.8-0.1c-0.8,0.4-0.8,0.8-0.8,1.6c-1.2-0.2-1.8-0.1-2.7,0.6c-0.5,0.4-0.9,0.7-0.7,1.4c0.1,0.2,0.3,0.5,0.5,0.6
				c-0.5,0-1.3-0.2-1.5,0.4c-0.2,0.5,0.2,1,0.4,1.4c-0.4-0.3-1-0.2-1.2,0.3s0.4,0.8,0.4,1.2c-0.4,0.1-0.9,0-0.9,0.5
				c0,0.6,0.9,1,0.8,1.4c-1.9,0.1-0.2,2.2,0.5,2.9c-0.4,0-0.7-0.1-0.8,0.3s0.2,1,0.4,1.3c0.5,0.6,1.7,1.1,2.5,1c0,0-2.1-8,2.6-10.2
				c1.9-0.9,6.5-3.3,8.8-2.2c2.3,1.1,4.5,3.5,5,5s0.8,4.3,0.8,4.3L-123.2,361.1z"/>
			<path class="st28" d="M-127,350c0.1,0.6,0.1,1.3-0.2,1.8c-0.4,0.6-1.9,1.7-2.3,0.4c-0.1,0.5-0.2,0.8-0.7,0.8c-0.4,0-1-0.3-1-0.8
				c-0.2,0.5-0.9,0.6-1.3,0.4c-0.6-0.3-0.7-0.9-0.7-1.4c-0.9,1.5-2.9-1.7-1.6-2.1c0,0,5.1-2.4,6.5-1.3C-126.9,349-127,350-127,350z"
				/>
			<path class="st25" d="M-135,366.8c0,0,1.3,2.3,4.1,2.3s3.7-2.3,3.7-2.3"/>
			<circle class="st16" cx="-134.5" cy="356.5" r="0.8"/>
			<circle class="st16" cx="-128.7" cy="356.8" r="0.8"/>
			
				<ellipse transform="matrix(-0.2553 -0.9669 0.9669 -0.2553 -532.3118 349.8889)" class="st17" cx="-131.4" cy="379.9" rx="4.2" ry="5.2"/>
			<path class="st16" d="M-128.9,372.2l-5.7,5.2l2.2,1.1c0,0-1.9,4.6-1.8,4.7c0.2,0,3.9,1.2,3.9,1.2l1.5-5l2.6,0.4L-128.9,372.2z"/>
			<path class="st29" d="M-135,362.2c0,0,0.7-1.7,1.9-0.7c1.2,1.1,2.9,0,2.9,0s1-1,2.5,0.5"/>
			<line class="st29" x1="-137" y1="354.8" x2="-135" y2="354.2"/>
			<line class="st29" x1="-128.3" y1="354.2" x2="-126.5" y2="355.2"/>
		</g>
	</g>
	<g>
		<circle id="SVGID_2_" class="st30" cx="-132.5" cy="364.6" r="24.5"/>
	</g>
</g>
</svg>
