<?xml version="1.0" encoding="utf-8"?>
<!-- Generator: Adobe Illustrator 19.0.0, SVG Export Plug-In . SVG Version: 6.00 Build 0)  -->
<svg version="1.1" id="Capa_1" xmlns="http://www.w3.org/2000/svg" xmlns:xlink="http://www.w3.org/1999/xlink" x="0px" y="0px"
	 viewBox="-232 352.5 145.5 88.5" style="enable-background:new -232 352.5 145.5 88.5;" xml:space="preserve">
<style type="text/css">
	.st0{fill:#64AC28;}
	.st1{fill:#C7C5D0;}
	.st2{fill:none;stroke:#004966;stroke-width:1.3515;stroke-linecap:round;stroke-miterlimit:10;}
	.st3{fill:#E1DFE6;}
	.st4{fill:none;}
	.st5{fill:#004966;}
	.st6{fill:#FFFFFF;}
	.st7{fill:#DFDEE4;}
	.st8{clip-path:url(#SVGID_2_);fill:#64AC28;}
	.st9{fill:none;stroke:#004966;stroke-width:1.0805;stroke-linecap:round;stroke-miterlimit:10;}
	.st10{fill:none;stroke:#004966;stroke-width:1.0805;stroke-miterlimit:10;}
	.st11{fill:#EA7E25;stroke:#004966;stroke-width:1.0805;stroke-linecap:round;stroke-miterlimit:10;}
	.st12{opacity:0.3;fill:#E76A00;enable-background:new    ;}
	.st13{fill:#DD2D5C;}
	.st14{fill:none;stroke:#004966;stroke-width:0.4502;stroke-linecap:round;stroke-miterlimit:10;}
	.st15{opacity:0.2;fill:#DD2D5C;enable-background:new    ;}
	.st16{fill:#0098D5;}
	.st17{fill:none;stroke:#004966;stroke-width:1.3515;stroke-miterlimit:10;}
	.st18{fill:#0098C8;stroke:#004966;stroke-width:1.2513;stroke-linecap:round;stroke-miterlimit:10;}
	.st19{fill:none;stroke:#004966;stroke-width:0.9122;stroke-miterlimit:10;}
	.st20{fill:none;stroke:#004966;stroke-width:0.9004;stroke-linecap:round;stroke-miterlimit:10;}
</style>
<g>
	<g>
		<path class="st0" d="M-214.4,416.5c5.9,4.6,26.4,8.1,50.7,8.1c25,0,45.9-3.6,51.2-8.4c-2.8-5.3-24.5-9.4-50.9-9.4
			C-190.4,406.8-212.5,411.1-214.4,416.5z"/>
		<g>
			<polygon class="st1" points="-132.8,417.2 -188.6,417.2 -183.4,413.6 -140.2,413.6 			"/>
			<rect x="-188.4" y="417" class="st1" width="2.2" height="14.3"/>
			<rect x="-135.2" y="417.2" class="st1" width="2.2" height="14.3"/>
			<rect x="-183.2" y="413.6" class="st1" width="2.2" height="14.3"/>
			<rect x="-142" y="413.7" class="st1" width="2.2" height="14.3"/>
			<rect x="-183.5" y="410.9" class="st1" width="43.3" height="2.4"/>
			<rect x="-183.5" y="407.8" class="st1" width="43.3" height="2.4"/>
			<rect x="-183.5" y="404.8" class="st1" width="43.3" height="2.4"/>
			<rect x="-183.5" y="401.9" class="st1" width="43.3" height="2.4"/>
		</g>
		<path class="st2" d="M-172.6,398.7c0,0,1.6,10.9,8.7,12"/>
		<g>
			<path class="st3" d="M-142.2,374.3c2.4-0.1,4.8-0.3,7.2-0.1c2.6,0.1,5.2,0.5,7.8,0.5c2.4,0,4.8-0.2,7.2,0c2,0.2,4,0.9,5.8-0.3
				c1.1-0.8,0.4-2.6-0.8-2.4c-0.5-1.1-1.7-2-2.9-2.1c-0.7-0.1-0.9,1-0.4,1.3s1,0.6,1.4,0.9c0.2,0.1,0.3,0.3,0.5,0.4
				c-0.6,0.1-1.3-0.1-1.9-0.2c-1.1-0.2-2.2-0.3-3.3-0.3c-2.3,0.1-4.5,0.3-6.8,0.2c-4.4-0.2-8.9-0.6-13.3,0.2
				c-0.1-0.3-0.1-0.6-0.1-0.8c0-0.2-0.3-0.3-0.4-0.1c-0.3,0.5-0.5,1-0.8,1.5C-143.4,373.4-142.9,374.3-142.2,374.3z"/>
			<path class="st3" d="M-126.4,364.5c1,0.5,2,0.9,2.3,2.2c0,0.2,0.4,0.2,0.4,0c0.4-2.4-2.3-4.4-4.2-5.3c-0.8-0.4-1.7,0.6-1,1.3
				C-128.2,363.4-127.3,364-126.4,364.5z"/>
			<path class="st3" d="M-121.6,365.2c0.2,0.1,0.4,0.2,0.5,0.4c-0.2,0.3-0.2,0.7,0.2,0.9c0.5,0.2,1.1,0.6,1.4,1.1
				c0.4,0.5,0.9,1.5,0.7,2.1c-0.1,0.2,0.2,0.3,0.3,0.1c0.2-0.5,0.5-0.9,0.6-1.5c0-0.5-0.1-1-0.3-1.4c-0.4-0.8-1.1-1.4-1.9-1.6
				c-0.1-0.1-0.1-0.1-0.2-0.2c-0.3-0.3-0.7-0.5-1.1-0.6C-121.7,364.4-121.9,365-121.6,365.2z"/>
			<path class="st4" d="M-117.7,369.9c-0.2,0-0.3-0.2-0.3-0.4c0-0.2,0-0.3,0-0.5c0-2.3-1.7-4-4-4c-0.6,0-1.1,0.1-1.6,0.3
				c-0.2,0.1-0.4,0-0.4-0.1c-0.8-1.3-2.6-3.5-5.4-3.5c-2.1,0-5.7,0.8-5.9,5.8c0,0.1-0.1,0.2-0.2,0.3c-0.1,0.1-0.2,0.1-0.3,0.1
				c-0.6-0.2-1.1-0.3-1.7-0.3c-3.5,0-5.3,3.2-5.3,6.4l28.3,0.4c0.1-0.3,0.1-0.7,0.1-1C-114.4,371.7-115.8,370.1-117.7,369.9z"/>
			<path class="st4" d="M-116.1,374.4c0,0.2-0.2,0.3-0.3,0.3l-29-0.5c-0.2,0-0.3-0.2-0.4-0.3c0-0.1,0-0.2,0-0.3
				c0-3.6,2.1-7.2,6.1-7.2c0.5,0,1,0.1,1.4,0.2c0.3-3.9,2.7-6.1,6.6-6.1c2.2,0,4.3,1.3,5.9,3.6c0.5-0.2,1-0.3,1.6-0.3
				c2.8,0,4.8,1.9,4.8,4.7c0,0.1,0,0.1,0,0.2c2,0.4,3.6,2.2,3.6,4.3C-115.9,373.4-116,373.9-116.1,374.4z"/>
			<path class="st5" d="M-117.2,369.2c0-0.1,0-0.1,0-0.2c0-2.8-2-4.7-4.8-4.7c-0.5,0-1.1,0.1-1.6,0.3c-1.6-2.3-3.6-3.6-5.9-3.6
				c-3.9,0-6.3,2.2-6.6,6.1c-0.5-0.1-1-0.2-1.4-0.2c-4,0-6.1,3.6-6.1,7.2c0,0.1,0,0.2,0,0.3c0,0.2,0.2,0.3,0.4,0.3l29,0.5
				c0.2,0,0.3-0.1,0.4-0.3c0.1-0.5,0.2-1,0.2-1.4C-113.6,371.5-115.2,369.6-117.2,369.2z M-114.5,374.5l-28.3-0.4
				c0-3.2,1.8-6.4,5.3-6.4c0.5,0,1.1,0.1,1.7,0.3c0.1,0,0.2,0,0.3-0.1s0.1-0.2,0.2-0.3c0.2-5.1,3.8-5.8,5.9-5.8
				c2.8,0,4.6,2.2,5.4,3.5c0.1,0.1,0.3,0.2,0.4,0.1c0.5-0.2,1-0.3,1.6-0.3c2.4,0,4,1.6,4,4c0,0.2,0,0.3,0,0.5s0.1,0.4,0.3,0.4
				c1.8,0.2,3.3,1.8,3.3,3.6C-114.4,373.8-114.4,374.2-114.5,374.5z"/>
		</g>
		<g>
			<path class="st6" d="M-183.8,378.9c0,9.6-7.8,17.4-17.4,17.4s-17.4-7.8-17.4-17.4s7.8-17.4,17.4-17.4
				C-191.6,361.5-183.8,369.3-183.8,378.9"/>
			<path class="st7" d="M-197.9,393.1c-1,0.7-2.7,0.7-3.3-0.9c0-0.1-0.1-0.2-0.1-0.3c-0.3-0.4-0.4-0.9-0.4-1.4l0,0
				c-4,1-8.3,0.5-12.2-2.3c-0.3-0.2-0.7,0.2-0.5,0.5c6.7,9,21.3,8,27.1-1.4c0.3-0.5,0.4-1.1,0.4-1.6
				C-189.1,389.8-193.3,393.3-197.9,393.1"/>
			<path class="st7" d="M-199.9,391.9c0,0.1,0.1,0.2,0.1,0.3c0.6,1.7,2.3,1.7,3.3,0.9c0.7-0.5,1.1-1.5,0.5-2.5c-0.6-0.9-1.1-2-1.5-3
				c-1.7-4.3-1.9-9.5-1.5-13.9c0-0.4-0.5-0.5-0.7-0.2c-1.6,2.4-1.4,6.2-1.4,8.9c0,2.6,0.2,5.5,0.8,8.1l0,0
				C-200.2,391-200.1,391.4-199.9,391.9"/>
			<path class="st5" d="M-200.5,360.3c-1.2,0-3.6,0.1-5.1,0.6c-2.3,0.6-4.4,1.9-6.4,3.1l-0.3,0.2c-4.6,2.8-7.3,7.7-7.3,13.5
				c0,10.7,7.5,18.6,18,18.8c0-0.5-0.1-1-0.1-1.4c-10.8-0.3-16.5-8.9-16.5-17.4c0-5.2,2.4-9.7,6.6-12.3l0.3-0.2c2-1.2,3.9-2.4,6-3
				c1.4-0.4,3.7-0.5,4.7-0.5c9.5,0,16.4,6.8,16.4,16.1c0,10.3-8.2,16.8-16.2,17.2c0,0.5,0.1,1,0.1,1.4c4.7-0.2,9.1-2.3,12.4-5.8
				c3.3-3.5,5.1-8.2,5.1-12.9C-182.6,367.7-190.1,360.3-200.5,360.3"/>
			<g>
				<g>
					<g>
						<defs>
							<rect id="SVGID_1_" x="-213.8" y="362.6" width="27.6" height="33.2"/>
						</defs>
						<clipPath id="SVGID_2_">
							<use xlink:href="#SVGID_1_"  style="overflow:visible;"/>
						</clipPath>
						<path class="st8" d="M-190.4,370.8c-0.3-0.4-0.6-0.7-0.9-1c-1.6-1.4-3-3-4.3-4.7c-1-1.2-2.7-0.6-3.4,0.5c0.6-1.4,0-3.2-1.8-3
							c-4.5,0.4-9.3,1.8-11.8,5.9c-1.8,3-1.4,6.9,0.4,9.7c0.3,0.4,0.6,0.8,0.9,1.2c0.2,0.5,0.5,0.9,0.9,1.2c0.3,0.2,0.7,0.5,1,0.7
							c-0.1,0.1-0.3,0.3-0.4,0.4c-2.4,2.7-2.7,6.3-0.2,9c0.8,0.8,1.7,1.4,2.8,1.8c3,2.8,7,5.1,9.9,1.1c1.2-1.7,1.7-4,1.6-6.2
							c1-0.1,2.1-0.1,3.2,0c1.9,0.2,2.5-1.9,1.8-3.2c2.4-1.4,4.2-3.7,4.4-7.2C-186.1,374.2-188,372.1-190.4,370.8 M-207.4,385.8
							c0.3-0.7,1-1.5,1.8-2.2c0.2,0.3,0.4,0.6,0.8,0.7c0.5,0.2,1,0.4,1.5,0.6C-204.6,385.4-206,385.7-207.4,385.8 M-200.9,367
							c0.8-0.1,1.4-0.5,1.7-1.1c-0.1,0.3-0.2,0.5-0.2,0.8c0,0.6,0,1.1,0,1.7c-0.3,0-0.5,0.1-0.8,0.2c-3.6,1.5-6.4,3.8-8.9,6.6
							C-211.5,370.1-205,367.4-200.9,367 M-200.2,388.9c-0.7,0.1-1.4,0.2-2.1,0.2c0.7-0.2,1.4-0.4,2.1-0.6
							C-200.1,388.6-200.1,388.7-200.2,388.9 M-190.8,378c-0.4,1.2-1.2,2.1-2.2,2.7c-0.5-0.9-0.8-1.9-1.1-2.9
							c0.3-0.8,0.5-1.5,0.6-2.3c0.5-0.2,1.1-0.5,1.5-0.7C-190.9,375.6-190.4,376.6-190.8,378"/>
					</g>
				</g>
			</g>
			<path class="st5" d="M-200.5,414.5c0-12.7-0.1-31.5-0.1-44.3c0-1.9-0.3-3.4-0.7-3.4s-0.7,1.6-0.7,3.5c0.1,13,0.2,30.2,0.2,43.1
				c0.2,0.6,0.5,0.9,0.7,1.6c0.3-0.8,0.5-0.5,0.8-1.4"/>
			<path class="st5" d="M-201.3,377.5c0.1,0,0.3,0,0.4-0.1c0.1-0.1,0.2-0.1,0.3-0.2c1.1-0.7,2.1-1.5,3-2.3c1.5-1.2,3-2.3,4.5-3.2
				c0.3-0.2,0.5-0.6,0.3-1c-0.2-0.3-0.6-0.5-1-0.3c-1.7,0.9-3.2,2.2-4.7,3.3c-0.7,0.6-1.4,1.1-2.2,1.6c-0.2,0.2-0.5,0.4-0.7,0.5
				c-0.2-0.1-0.5-0.3-0.7-0.4c-0.7-0.4-1.4-0.8-2-1.2c-1.5-0.9-3-1.9-4.6-2.6c-0.4-0.2-0.8,0-0.9,0.4c-0.2,0.4,0,0.8,0.4,0.9
				c1.5,0.7,3,1.6,4.5,2.5c0.9,0.6,1.8,1.1,2.8,1.7c0.1,0.1,0.3,0.1,0.4,0.2C-201.5,377.4-201.4,377.5-201.3,377.5"/>
			<path class="st5" d="M-201.7,384.1c0.1,0,0.3,0,0.4-0.1c0.2-0.1,0.4-0.3,0.7-0.4c0.7-0.4,1.4-0.8,2.1-1.2c3.7-2.1,7.5-4.3,10.7-7
				c0.3-0.3,0.3-0.7,0.1-1c-0.3-0.3-0.7-0.3-1-0.1c-3.2,2.7-6.9,4.8-10.5,6.9c-0.5,0.3-0.9,0.5-1.4,0.8c-0.3,0.2-0.7,0.4-1,0.6
				c-0.1-0.1-0.3-0.1-0.4-0.2c-1.5-0.8-3-1.7-4.4-2.6c-2.1-1.3-4.3-2.6-6.6-3.7c-0.4-0.2-0.8,0-0.9,0.4c-0.2,0.4,0,0.8,0.4,0.9
				c2.2,1,4.4,2.3,6.5,3.6c1.7,1,3.4,2,5.2,3h0.1C-201.9,384.1-201.8,384.1-201.7,384.1"/>
			<path class="st5" d="M-188.8,381.4c-0.3-0.3-0.7-0.3-1-0.1c-3.4,2.8-7,5.3-10.8,7.4c-0.2,0.1-0.3,0.2-0.5,0.3
				c-0.3-0.1-0.6-0.3-1-0.4c-4.1-1.8-8-4.1-11.4-6.1c-0.3-0.2-0.8-0.1-1,0.3c-0.2,0.3-0.1,0.8,0.3,1c3.6,2.1,7.8,4.5,12.2,6.4
				c0.2,0.1,0.5,0.2,0.7,0.3c0.1,0,0.2,0.1,0.3,0.1s0.2,0,0.3-0.1l0.1-0.1c4.1-2.2,8-4.9,11.7-7.9
				C-188.6,382.2-188.5,381.7-188.8,381.4"/>
		</g>
		<g>
			<path class="st9" d="M-179.6,396.7c1.2-0.3-6.9,2.4-6.9,15.7"/>
			<path class="st6" d="M-170.5,389.3c0,3.3-2.7,5.9-5.9,5.9c-3.3,0-5.9-2.7-5.9-5.9c0-3.3,2.7-5.9,5.9-5.9
				C-173.2,383.3-170.5,386-170.5,389.3"/>
			<path class="st7" d="M-175.8,395.1c0.6-0.2,1.1-0.4,1.7-0.6h-0.1c0.1-0.1,0.3-0.1,0.4-0.2c1.7-0.9,3.6-3.1,2.7-5
				c-1-2.1-3,0.8-3.7,1.6c-0.7,0.8-1.8,1.3-2.9,1.4c-0.2-0.1-0.5-0.1-0.6,0c-1.2-0.1-2.4-0.7-2.9-1.9c-0.2-0.5-0.9-0.2-1,0.2
				c-0.4-0.2-1,0.3-0.7,0.7c0.1,0.2,0.3,0.4,0.4,0.5c0.1,0.5,0.5,0.9,0.8,1.2c0.1,0.1,0.3,0.1,0.4,0.1c0,0.1,0.1,0.2,0.2,0.3
				c1.6,1.2,3.6,1.8,5.5,1.4C-175.7,395-175.7,395-175.8,395.1"/>
			<circle class="st10" cx="-176.7" cy="389.3" r="5.9"/>
			<path class="st9" d="M-179.3,395.8c0,0,0.9,1.5,2.8,1.5c1.9,0,2.5-1.5,2.5-1.5"/>
			<path class="st11" d="M-180.9,398c0,0,1.3,3.7,1.2,6c-0.1,2.2-2.5,8.5-0.1,10.1c2.4,1.5,9.2,0.6,8.9-1.9
				c-0.3-2.5-1.9-6.4-1.6-8.4c0.3-2.1,0.6-6.6-2.1-7.4C-179,395.1-180.9,398-180.9,398z"/>
			<path class="st12" d="M-176.8,397c-0.7-0.2-2.4,0.1-2.9,0.6c-0.7,0.7,0.4,2.3,0.6,3.2c0.2,1.1,0.4,2.3,0.2,3.5
				c-0.1,1-0.4,1.9-0.7,2.8c-0.2,0.9-0.3,1.7-0.5,2.6c-0.1,0.8-0.3,1.7-0.1,2.5c0.6,2.4,3.7,2.3,5.7,1.5c-0.8-0.5-1.6-0.5-2.3-1.3
				c-0.5-0.7-0.9-1.5-1.3-2.3c-0.7-1.1-0.4-3,0.3-4c0.7-1.1,1.5-0.9,2.6-1.2c0.9-0.2,2-1.5,1.8-2.5c-0.9,0.3-1.8,0.6-2.8,0.4
				c-0.8-0.2-1.9-1-2.3-1.7c-0.9-1.3,0.1-3.1,1.4-3.6"/>
			<path class="st9" d="M-180.9,385.2c0,0-3.6,1.2-3.6,5.1s1.2,7.5,0,8.8c-1.2,1.4-2.7,1-2.7,1"/>
			<path class="st9" d="M-171,387.1c0,0,2,3.4,0.8,7c-1.2,3.6-1.7,9.8-0.6,9.9"/>
			<path class="st9" d="M-180.1,384.4c-0.2,0-1.9,0.1-1.6,4.9c0.4,4.8,4.1,13.3,2.2,14s-2.4,0.1-2.4,0.1"/>
			<path class="st9" d="M-182,386.5c-0.2,0-1.9,1.6-1.3,5.3c0.5,3.7,2.7,9.4,1.7,10.1s-1.3,0.7-1.3,0.7"/>
			<circle class="st13" cx="-187.3" cy="410.9" r="0.2"/>
			<circle class="st13" cx="-186.9" cy="411" r="0.2"/>
			<circle class="st13" cx="-186.4" cy="411" r="0.2"/>
			<circle class="st13" cx="-186" cy="411" r="0.2"/>
			<circle class="st13" cx="-185.6" cy="411" r="0.2"/>
			<ellipse class="st5" cx="-176.1" cy="390" rx="0.6" ry="0.4"/>
			<ellipse class="st5" cx="-172.8" cy="389.9" rx="0.6" ry="0.4"/>
			<path class="st14" d="M-177.1,392.8c0,0,0.7,0.8,2.1,0.6c1.3-0.2,1.8-0.8,1.8-0.8"/>
			<ellipse class="st15" cx="-176.9" cy="391.6" rx="1" ry="0.6"/>
			<circle class="st15" cx="-172.4" cy="391.4" r="0.6"/>
			<path class="st14" d="M-177.6,388.7c0,0-0.1-0.8,0.5-1.2c0.7-0.4,1.2-0.1,1.2-0.1"/>
			<path class="st14" d="M-171.5,388.9c0,0,0.1-0.8-0.5-1.2c-0.7-0.4-1.2-0.1-1.2-0.1"/>
			<path class="st5" d="M-182.2,386.2c-0.3-0.7-0.5-1.6-0.4-2.3c0.1-0.7,0.9-1.2,1.5-1.6c0.7-0.4,1.5-0.6,2.3-0.5
				c1.4,0.1,2.9,0.4,4.2-0.2c0.3-0.2,0.6-0.4,0.9-0.7c0.2-0.2,0.2-0.4,0.4-0.2c0.3,0.4-0.2,1.5-0.4,1.8c1,0.1,2.6-0.4,3.4,0.6
				c-0.4,0-1.5,0.2-1.4,0.7c0.4,0,1.5,0.5,1.5,0.9s-1,0.3-1,0.7c0,0.2,0.2,0.4,0.3,0.5c0.2,0.3,0.3,0.7,0.4,1
				c0.2,0.5,0.1,1.1,0.3,1.6c-0.1-0.6-0.6-1.1-0.9-1.6s-0.6-1-1.1-1.4c-0.9-0.8-1.7-1.9-3-2.3c-1.3-0.4-3.2-0.3-4.4,0.3
				c-0.8,0.4-1.7,1.3-1.8,2.1c-0.1,0,0,0-0.1,0"/>
		</g>
		<g>
			<g>
				<g>
					<path class="st16" d="M-143.5,396.3c1,1.8,2.6,2.6,3.8,7.5c0.5,1.9,0.6,3.7,0,6.6c-0.2,1-2.6,2.8-5.1,3.3
						c-1.4,0.2-2.9,0.1-5.2-0.2c-0.8-0.1-4.1-0.8-4.3-3.2c-0.2-1.8-0.8-3.7,0-6.6c0.7-2.4,1.4-3.5,4.4-7.8s2.7-4.2,2.7-4.2
						S-144.5,394.4-143.5,396.3"/>
					<path class="st16" d="M-152.3,400.2c0.5-1,1.1-1.9,1.6-3c0.2-0.5,0.6-1.3,1.2-1.5c0.1-0.1,0.2-0.2,0.4-0.2
						c-0.2-0.1-0.3-0.1-0.4-0.2c-0.2-0.1-0.3-0.2-0.5-0.3c1,0.3,1.9,0.5,2.8,1.1c-0.1,0-0.2,0-0.3-0.1c0.2,0.3,0.4,0.6,0.4,1
						c0,1.1-0.6,2-1.1,2.9c-0.9,1.5-1.6,2.8-1.8,4.5c-0.2,1.5,0,3.2,0.3,4.7c0.3,1.2,1.4,1.9,1.6,3c0.2,1.2-0.8,1.2-1.7,1
						c-0.2,0.1-0.5,0-0.6-0.2c-0.3-0.1-0.5-0.2-0.7-0.3c-1.9-0.9-2.5-2.6-2.6-4.6C-154.1,405.4-153.4,402.7-152.3,400.2"/>
					<path class="st17" d="M-143.2,396.3c1,1.8,2.6,2.6,3.8,7.5c0.5,1.9,0.6,3.7,0,6.6c-0.2,1-2.6,2.8-5.1,3.3
						c-1.4,0.2-2.9,0.1-5.2-0.2c-0.8-0.1-4.1-0.8-4.3-3.2c-0.2-1.8-0.8-3.7,0-6.6c0.7-2.4,1.4-3.5,4.4-7.8s2.7-4.2,2.7-4.2
						S-144.3,394.4-143.2,396.3z"/>
					<path class="st6" d="M-154.5,387.7c-1.1,3.2,0.5,6.6,3.6,7.8c3.2,1.1,6.6-0.5,7.8-3.6c1.1-3.2-0.5-6.6-3.6-7.8
						C-149.8,382.9-153.3,384.5-154.5,387.7"/>
					<path class="st7" d="M-151.5,395.1c-0.5-0.4-1-0.7-1.4-1.2h0.1c-0.1-0.1-0.2-0.2-0.3-0.4c-1.3-1.5-2.4-4.2-0.8-5.8
						c1.7-1.7,2.6,1.8,3,2.8c0.4,1.1,1.3,1.9,2.3,2.3c0.3,0,0.5,0.1,0.6,0.2c1.2,0.3,2.5,0.2,3.5-0.8c0.4-0.4,1,0.1,0.9,0.6
						c0.5-0.1,0.9,0.6,0.4,1c-0.2,0.1-0.4,0.3-0.6,0.4c-0.3,0.4-0.8,0.7-1.3,0.9c-0.2,0.1-0.3,0-0.4,0c0,0.1-0.1,0.2-0.3,0.2
						c-2,0.6-4.1,0.5-5.8-0.5C-151.5,395-151.5,395-151.5,395.1"/>
					<circle class="st17" cx="-148.5" cy="389.8" r="6.1"/>
					<path class="st2" d="M-149.5,395.9c0,0-0.6,2.1,1.4,2.1c1.9,0,3.1-2.8,3.1-2.8"/>
				</g>
			</g>
			<path class="st18" d="M-150.6,395.7l-0.3,1.1l0.5,1.9l2.3-1.4l2.7,1.8l1.7-2.2l-0.6-1.3c0,0-2.5,0.7-3.8,0.5
				C-149.5,395.8-150.6,395.7-150.6,395.7z"/>
			<line class="st19" x1="-148.2" y1="397.3" x2="-148.4" y2="413.6"/>
			<path class="st2" d="M-151.7,398.8c0,0-3,6.8-6.5,9.1c-3.5,2.2-5.6,2.7-5.6,2.7"/>
			<path class="st2" d="M-141.8,397.8c0,0,5,3.6,6.2,6.8c1.2,3.3,2,9.3,2,9.3"/>
			<path class="st5" d="M-154.2,388.6c-0.7-0.1-2.2-1.4-0.7-1.4c0-0.6-0.2-1.1-0.2-1.7c0.2,0,0.5-0.1,0.8,0
				c-0.8-0.8-0.5-1.7,0.6-1.6c-0.6-0.8-0.2-2.1,1-1.6c-0.5-1.5,0.9-1.5,1.8-0.9c0.3-0.9,1.6-1.1,2-0.2c0.3-0.9,2-1,2,0
				c0.8-0.5,3.3-0.2,2,0.9c0.9-0.3,1.6,0,1.2,1c0.7-0.2,1,0.4,1,1c0.6,0.1,1.5,1.1,0.6,1.3c0.6,0.1,0.9,0.7,0.4,1.1
				c0.5,0.3,0.4,1.6,0.4,2.2c0,0.9-0.4,1.5-1.3,1.6c0.5-1.7-0.3-2.7-1-4.3c-0.7-1.5-1.8-2.9-3.6-3.1c-1.8-0.2-3.4,0.5-4.6,1.7
				c-0.5,0.5-1.3,0.9-1.6,1.5c-0.4,0.8-0.1,1.6-0.7,2.3"/>
			<path class="st5" d="M-150.5,384c-0.2,0.8,0.3,1.2,1.1,1.1c-0.2,0.8,0.6,1.3,1.3,0.8c0.1,0.4,0.6,0.5,1,0.5c0-0.1,0-0.1,0-0.2
				c0.7,0.4,0.8-0.1,1.3-0.2c0.4-0.1,1,0.6,1.1-0.3c0.7,0.2,0.9-0.5,0.9-1.1c0-0.8-0.2-1-0.9-1.4c-1.1-0.7-3-1.2-4.3-0.8"/>
		</g>
		<path class="st2" d="M-144.1,413.7c0,0-10.1,1.6-11.2,5.1c-1.1,3.4,3.6,12.5,3.6,12.5"/>
		<path class="st2" d="M-152.3,412.8c0,0-8.5,1.4-8.9,4.2c-0.5,2.8,0.5,13.7,0.5,13.7"/>
		<path class="st2" d="M-177.6,414.9c0,0,8.5,0.9,9.6,2.7c1.1,1.8,0.4,13.7,0.2,13.8"/>
		<path class="st2" d="M-171.9,413.8c0,0,6.2,0.1,6.8,1.8c0.5,1.7,1.4,15.8,1.4,15.8"/>
		<ellipse class="st5" cx="-152.6" cy="390.1" rx="0.5" ry="0.6"/>
		<ellipse class="st5" cx="-149.5" cy="390.1" rx="0.5" ry="0.6"/>
		<path class="st14" d="M-151,393.7c0,0,2.8,0.5,2.9-1.4"/>
	</g>
	<rect x="-230.6" y="353.8" class="st20" width="142.7" height="85.5"/>
</g>
</svg>
