<?xml version="1.0" encoding="utf-8"?>
<!-- Generator: Adobe Illustrator 19.0.0, SVG Export Plug-In . SVG Version: 6.00 Build 0)  -->
<svg version="1.1" id="Capa_1" xmlns="http://www.w3.org/2000/svg" xmlns:xlink="http://www.w3.org/1999/xlink" x="0px" y="0px"
	 viewBox="-164 203.1 282.7 387.9" style="enable-background:new -164 203.1 282.7 387.9;" xml:space="preserve">
<style type="text/css">
	.st0{fill:#666666;}
	.st1{fill:#FFFFFF;}
	.st2{fill:#87D329;}
	.st3{fill:#FFFFFF;stroke:#1F4D69;stroke-width:1.9071;stroke-miterlimit:10;}
	.st4{fill:#D7D7D8;}
	.st5{fill:#1F1E43;}
	.st6{fill:#FFFFFF;stroke:#1F1E43;stroke-width:1.3702;stroke-miterlimit:10;}
	.st7{fill:#FFFFFF;stroke:#1F1E43;stroke-width:1.5942;stroke-miterlimit:10;}
	.st8{fill:#0D004C;}
	.st9{fill:#04A7DB;}
	.st10{fill:none;stroke:#1F4D69;stroke-width:1.8418;stroke-miterlimit:10;}
	.st11{fill:#D2D9DB;}
	.st12{fill:#FFCC80;}
	.st13{fill:#1F4D69;}
	.st14{fill:none;stroke:#1F4D69;stroke-width:2.5772;stroke-miterlimit:10;}
</style>
<g id="Capa_1_1_">
	<g>
		<g>
			<rect x="-142.5" y="225.3" class="st0" width="251.7" height="357.4"/>
			<rect x="-154.4" y="215.4" class="st1" width="251.7" height="357.4"/>
			<rect x="-154.4" y="215.4" class="st2" width="251.7" height="33.5"/>
			<circle class="st3" cx="-28.5" cy="373.6" r="63.5"/>
			<rect x="-154.4" y="479.2" class="st4" width="251.7" height="93.6"/>
			<rect x="-154.4" y="479.2" class="st5" width="251.7" height="25.8"/>
			<g>
				<g>
					<path class="st1" d="M-55.8,488.9c0-2.4,1.1-3.9,3.5-3.9c1.4,0,2.7,0.6,2.7,1.3c0,0.3-0.3,0.6-0.6,0.6c-0.2,0-0.3-0.1-0.6-0.3
						c-0.4-0.3-1-0.5-1.5-0.5c-1.8,0-2.3,1.1-2.3,2.8v3.3c0,1.7,0.6,2.8,2.3,2.8c0.6,0,1.1-0.1,1.5-0.5c0.3-0.1,0.3-0.3,0.6-0.3
						s0.6,0.3,0.6,0.6c0,0.7-1.3,1.3-2.7,1.3c-2.4,0-3.5-1.6-3.5-3.9V488.9z"/>
					<path class="st1" d="M-48.4,493.4v-2.6c0-1.5,1-2.7,2.9-2.7s2.9,1.2,2.9,2.7v2.6c0,1.5-1,2.7-2.9,2.7
						C-47.4,496-48.4,494.9-48.4,493.4z M-43.8,493.4v-2.6c0-1-0.6-1.6-1.7-1.6c-1.1,0-1.7,0.6-1.7,1.6v2.6c0,1,0.6,1.6,1.7,1.6
						C-44.4,495-43.8,494.4-43.8,493.4z"/>
					<path class="st1" d="M-32.3,490.7c0-0.9-0.4-1.5-1.4-1.5c-0.6,0-1.3,0.4-1.7,0.8c0.1,0.2,0.1,0.4,0.1,0.7v4.8
						c0,0.3-0.2,0.6-0.6,0.6s-0.6-0.3-0.6-0.6V491c0-1.1-0.2-1.9-1.3-1.9c-0.7,0-1.3,0.3-1.8,0.6c0,0.2,0.1,0.3,0.1,0.5v5.3
						c0,0.3-0.2,0.6-0.6,0.6c-0.4,0-0.6-0.3-0.6-0.6v-5.3c0-0.8-0.1-0.8-0.3-1.1c0-0.1-0.1-0.1-0.1-0.3c0-0.3,0.3-0.6,0.6-0.6
						s0.4,0.2,0.6,0.4c0.7-0.4,1.5-0.7,2.3-0.7s1.4,0.3,1.8,0.8c0.6-0.5,1.4-0.8,2.2-0.8c1.6,0,2.6,1.1,2.6,2.6v4.8
						c0,0.3-0.2,0.6-0.6,0.6s-0.6-0.3-0.6-0.6L-32.3,490.7L-32.3,490.7z"/>
					<path class="st1" d="M-27.5,495.9v2.9c0,0.3-0.2,0.6-0.6,0.6c-0.4,0-0.6-0.3-0.6-0.6v-8.4c0-0.5-0.1-0.8-0.3-1.1
						c-0.1-0.1-0.1-0.2-0.1-0.3c0-0.3,0.3-0.6,0.6-0.6s0.4,0.1,0.6,0.4c0.7-0.4,1.5-0.7,2.3-0.7c1.6,0,2.5,1.2,2.5,2.9v2
						c0,1.8-0.6,3.1-2.6,3.1C-26.3,496-27,496-27.5,495.9z M-27.5,494.7c0.5,0.3,1.2,0.3,1.6,0.3c1.1,0,1.5-0.6,1.5-2.1v-2
						c0-1.2-0.5-1.8-1.5-1.8c-0.5,0-1.1,0.2-1.6,0.5c0.1,0.3,0.1,0.4,0.1,0.6v4.5H-27.5z"/>
					<path class="st1" d="M-17.5,490.7c0-1.1-0.6-1.6-1.6-1.6c-0.6,0-0.8,0.1-1.2,0.3c-0.1,0-0.3,0.1-0.4,0.1
						c-0.3,0-0.4-0.3-0.4-0.5c-0.1-0.7,1.1-1,2.2-1c1.9,0,2.7,1.1,2.7,3.1v3.4c0,0.3,0.1,0.4,0.3,0.4c0.1,0,0.1,0,0.1,0
						c0.3,0,0.4,0.3,0.4,0.5c0,0.4-0.4,0.5-0.7,0.5c-0.5,0-1-0.3-1.1-0.8c-0.6,0.6-1.3,0.8-2.1,0.8c-1.6,0-2.3-1-2.3-2.3v-0.1
						c0-1.5,0.9-2.3,2.7-2.3c0.6,0,1.1,0.1,1.6,0.2L-17.5,490.7L-17.5,490.7z M-20.6,493.7L-20.6,493.7c0,0.8,0.3,1.3,1.3,1.3
						c0.6,0,1.2-0.2,1.7-0.7v-1.6c-0.5-0.1-1.1-0.3-1.6-0.3C-20.4,492.4-20.6,493-20.6,493.7z"/>
					<path class="st1" d="M-12.6,495.5c0,0.3-0.3,0.6-0.6,0.6s-0.6-0.3-0.6-0.6v-5.2c0-0.5-0.1-0.8-0.3-1.1
						c-0.1-0.1-0.1-0.2-0.1-0.3c0-0.3,0.3-0.6,0.6-0.6s0.4,0.2,0.6,0.4c0.6-0.4,1.5-0.6,2.1-0.6s0.8,0.3,0.8,0.6
						c0,0.4-0.3,0.6-0.6,0.6c-0.6,0-1.2,0-2,0.6c0,0.1,0,0.3,0,0.4L-12.6,495.5L-12.6,495.5z"/>
					<path class="st1" d="M-8.7,486.4c0-0.3,0.2-0.6,0.6-0.6c0.4,0,0.6,0.3,0.6,0.6v2.2h1.6c0.3,0,0.6,0.3,0.6,0.6s-0.3,0.6-0.6,0.6
						h-1.6v3.1c0,1.6,0.1,2.2,1.3,2.2c0.1,0,0.2,0,0.3,0c0.4,0,0.8,0.1,0.8,0.6s-0.4,0.6-0.9,0.6c-2.2,0-2.7-1.1-2.7-3.2v-6.5
						L-8.7,486.4L-8.7,486.4z"/>
					<path class="st1" d="M-3.1,486.4c-0.4,0-0.8-0.3-0.8-0.8c0-0.4,0.3-0.8,0.8-0.8c0.4,0,0.8,0.3,0.8,0.8S-2.7,486.4-3.1,486.4z
						 M-3.1,496c-0.3,0-0.6-0.3-0.6-0.6v-6.9c0-0.3,0.3-0.6,0.6-0.6s0.6,0.3,0.6,0.6v6.9C-2.5,495.9-2.7,496-3.1,496z"/>
					<path class="st1" d="M1.2,495.5c0,0.3-0.3,0.6-0.6,0.6S0,495.8,0,495.5v-5.2c0-0.5-0.1-0.8-0.3-1.1c-0.1-0.1-0.1-0.2-0.1-0.3
						c0-0.3,0.3-0.6,0.6-0.6s0.4,0.2,0.6,0.4c0.6-0.4,1.5-0.6,2.1-0.6s0.8,0.3,0.8,0.6c0,0.4-0.3,0.6-0.6,0.6c-0.6,0-1.2,0-2,0.6
						c0,0.1,0,0.3,0,0.4L1.2,495.5L1.2,495.5z"/>
				</g>
			</g>
			<circle class="st5" cx="-103.6" cy="539.8" r="22.8"/>
			<circle class="st5" cx="-32.2" cy="539.8" r="22.8"/>
			<circle class="st5" cx="41.6" cy="539.8" r="22.8"/>
			<path class="st6" d="M-96.1,539.8h-4.5v16.4h-6.7v-16.4h-3.4V534h3.4v-3.4c0-4.6,1.9-7.4,7.4-7.4h4.5v5.6h-2.8
				c-2.1,0-2.2,0.8-2.2,2.3v2.8h5.1L-96.1,539.8z"/>
			<path class="st7" d="M-18.4,534.8c0,0.3,0,0.6,0,0.8c0,8.6-6.5,18.5-18.5,18.5c-3.7,0-7.1-1.1-10-2.9c0.5,0.1,1,0.1,1.5,0.1
				c3,0,5.8-1,8.1-2.8c-2.9-0.1-5.3-1.9-6.1-4.5c0.4,0.1,0.8,0.1,1.2,0.1c0.6,0,1.1-0.1,1.7-0.3c-3-0.6-5.2-3.2-5.2-6.3v-0.1
				c0.9,0.5,1.9,0.8,2.9,0.8c-1.8-1.1-2.9-3.2-2.9-5.4c0-1.2,0.3-2.3,0.9-3.3c3.2,3.9,8,6.5,13.4,6.8c-0.1-0.5-0.2-1-0.2-1.5
				c0-3.6,2.9-6.5,6.5-6.5c1.9,0,3.6,0.8,4.8,2c1.5-0.3,2.9-0.8,4.1-1.6c-0.5,1.5-1.5,2.8-2.9,3.6c1.3-0.1,2.6-0.5,3.7-1
				C-16,532.8-17.2,533.9-18.4,534.8L-18.4,534.8z"/>
			<g>
				<rect x="29.3" y="532.8" class="st6" width="5.4" height="17.1"/>
				<path class="st6" d="M31.9,530.7L31.9,530.7c-2,0-3.2-1.3-3.2-3c0-1.7,1.3-3,3.3-3s3.2,1.3,3.2,3
					C35.1,529.3,33.9,530.7,31.9,530.7z"/>
				<path class="st6" d="M56.1,549.8H50v-8.8c0-2.3-0.9-3.9-3-3.9c-1.6,0-2.5,1.1-2.9,2.1c-0.2,0.4-0.1,0.9-0.1,1.4v9.3h-6
					c0,0,0.1-15.7,0-17.1h6v2.7c0.4-1.2,2.3-2.9,5.3-2.9c3.8,0,6.8,2.5,6.8,7.8L56.1,549.8L56.1,549.8z"/>
			</g>
			<g>
				<path class="st8" d="M-98.5,287.7c0,0.2-0.1,0.4-0.2,0.5s-0.3,0.2-0.5,0.2s-0.4-0.1-0.6-0.2c-0.1-0.1-0.2-0.3-0.2-0.5
					s0.1-0.4,0.2-0.6s0.3-0.2,0.6-0.2c0.2,0,0.4,0.1,0.5,0.2C-98.6,287.3-98.5,287.5-98.5,287.7z M-99.7,290c0-0.1,0-0.2,0.1-0.3
					c0.1-0.1,0.2-0.1,0.3-0.1s0.2,0,0.3,0.1s0.1,0.2,0.1,0.3l0.1,6.8c0,0.2-0.1,0.3-0.2,0.4s-0.2,0.2-0.4,0.2s-0.3-0.1-0.4-0.2
					s-0.2-0.2-0.2-0.4L-99.7,290z"/>
				<path class="st8" d="M-94.3,294.4c-0.2,0-0.3-0.1-0.4-0.2s-0.2-0.3-0.2-0.4v-3.5l-2.6-5.4c0-0.1-0.1-0.2-0.1-0.3
					c0-0.2,0.1-0.3,0.2-0.4s0.3-0.2,0.4-0.2s0.2,0,0.3,0.1c0.1,0,0.1,0.1,0.2,0.2l2.2,4.7l2.2-4.7c0-0.1,0.1-0.1,0.2-0.2
					c0.1,0,0.2-0.1,0.3-0.1c0.2,0,0.3,0.1,0.4,0.2s0.2,0.3,0.2,0.4s0,0.2-0.1,0.3l-2.6,5.4v3.5c0,0.2-0.1,0.3-0.2,0.4
					S-94.1,294.4-94.3,294.4z"/>
				<path class="st8" d="M-87,289.4c0-1-0.5-1.5-1.5-1.5c-0.2,0-0.5,0-0.6,0.1c-0.2,0.1-0.3,0.1-0.5,0.2c0,0-0.1,0-0.1,0.1
					c-0.1,0-0.2,0.1-0.2,0.1c-0.1,0-0.2-0.1-0.3-0.2s-0.1-0.2-0.1-0.3c0-0.2,0-0.3,0.1-0.4s0.3-0.2,0.5-0.3c0.2-0.1,0.4-0.1,0.7-0.2
					c0.2,0,0.5-0.1,0.7-0.1c0.9,0,1.5,0.2,1.9,0.7s0.6,1.2,0.6,2.2v3.2c0,0.3,0.1,0.4,0.3,0.4c0,0,0,0,0.1,0c0,0,0,0,0.1,0
					s0.2,0.1,0.3,0.2s0.1,0.2,0.1,0.3c0,0.2-0.1,0.3-0.2,0.4s-0.3,0.1-0.4,0.1c-0.2,0-0.5-0.1-0.6-0.2c-0.2-0.1-0.3-0.3-0.4-0.5
					c-0.6,0.5-1.2,0.8-2,0.8c-0.7,0-1.3-0.2-1.7-0.6s-0.5-0.9-0.5-1.6v-0.1c0-1.4,0.8-2.1,2.5-2.1c0.5,0,1,0.1,1.4,0.2v-0.9
					L-87,289.4L-87,289.4z M-88.5,291c-0.3,0-0.5,0-0.7,0.1s-0.3,0.1-0.4,0.3c-0.1,0.1-0.2,0.2-0.2,0.4c0,0.1-0.1,0.3-0.1,0.5v0.1
					c0,0.3,0.1,0.6,0.3,0.8c0.2,0.2,0.5,0.3,1,0.3c0.3,0,0.6-0.1,0.8-0.2c0.3-0.1,0.5-0.3,0.8-0.5v-1.5c-0.2-0.1-0.5-0.1-0.7-0.2
					C-88,291-88.3,291-88.5,291z"/>
				<path class="st8" d="M-79.7,289c0-0.6,0.2-1.1,0.6-1.5c0.4-0.4,1-0.6,1.7-0.6c0.2,0,0.4,0,0.6,0s0.4,0.1,0.6,0.1
					c0.2,0.1,0.4,0.1,0.5,0.2s0.2,0.2,0.2,0.4c0,0.1,0,0.3-0.1,0.4s-0.2,0.2-0.4,0.2c-0.1,0-0.2,0-0.3-0.1c-0.2-0.1-0.3-0.1-0.5-0.2
					c-0.2,0-0.4-0.1-0.6-0.1c-0.9,0-1.3,0.3-1.3,1c0,0.2,0.1,0.4,0.2,0.5s0.3,0.3,0.5,0.4s0.5,0.2,0.8,0.3c0.3,0.1,0.6,0.2,0.9,0.4
					c0.3,0.2,0.5,0.4,0.7,0.7c0.2,0.3,0.3,0.6,0.3,1.1c0,0.6-0.2,1.2-0.6,1.5c-0.4,0.4-1,0.6-1.8,0.6c-0.2,0-0.4,0-0.6,0
					c-0.2,0-0.5-0.1-0.7-0.1c-0.2-0.1-0.4-0.1-0.6-0.3s-0.2-0.2-0.2-0.4c0-0.1,0-0.2,0.1-0.4c0.1-0.1,0.2-0.2,0.4-0.2h0.1
					c0,0,0,0,0.1,0c0.2,0.1,0.4,0.2,0.7,0.2c0.2,0.1,0.5,0.1,0.8,0.1c0.4,0,0.7-0.1,1-0.3c0.2-0.2,0.4-0.4,0.4-0.8
					c0-0.3-0.1-0.5-0.2-0.6c-0.1-0.1-0.2-0.2-0.4-0.3c-0.2-0.1-0.5-0.2-0.8-0.3c-0.3-0.1-0.6-0.2-0.9-0.4c-0.3-0.2-0.5-0.4-0.8-0.6
					C-79.6,289.8-79.7,289.4-79.7,289z"/>
				<path class="st8" d="M-70,289.4c0-1-0.5-1.5-1.5-1.5c-0.2,0-0.5,0-0.6,0.1c-0.2,0.1-0.3,0.1-0.5,0.2c0,0-0.1,0-0.1,0.1
					c-0.1,0-0.2,0.1-0.2,0.1c-0.1,0-0.2-0.1-0.3-0.2s-0.1-0.2-0.1-0.3c0-0.2,0-0.3,0.1-0.4s0.3-0.2,0.5-0.3c0.2-0.1,0.4-0.1,0.7-0.2
					c0.2,0,0.5-0.1,0.7-0.1c0.9,0,1.5,0.2,1.9,0.7s0.6,1.2,0.6,2.2v3.2c0,0.3,0.1,0.4,0.3,0.4c0,0,0,0,0.1,0c0,0,0,0,0.1,0
					s0.2,0.1,0.3,0.2s0.1,0.2,0.1,0.3c0,0.2-0.1,0.3-0.2,0.4s-0.3,0.1-0.4,0.1c-0.2,0-0.5-0.1-0.6-0.2c-0.2-0.1-0.3-0.3-0.4-0.5
					c-0.6,0.5-1.2,0.8-2,0.8c-0.7,0-1.3-0.2-1.7-0.6s-0.5-0.9-0.5-1.6v-0.1c0-1.4,0.8-2.1,2.5-2.1c0.5,0,1,0.1,1.4,0.2v-0.9
					L-70,289.4L-70,289.4z M-71.4,291c-0.3,0-0.5,0-0.7,0.1s-0.3,0.1-0.4,0.3c-0.1,0.1-0.2,0.2-0.2,0.4c0,0.1-0.1,0.3-0.1,0.5v0.1
					c0,0.3,0.1,0.6,0.3,0.8c0.2,0.2,0.5,0.3,1,0.3c0.3,0,0.6-0.1,0.8-0.2c0.3-0.1,0.5-0.3,0.8-0.5v-1.5c-0.2-0.1-0.5-0.1-0.7-0.2
					C-71,291-71.2,291-71.4,291z"/>
				<path class="st8" d="M-66.6,284.4c0-0.1,0-0.3,0.1-0.4s0.2-0.2,0.4-0.2s0.3,0.1,0.4,0.2c0.1,0.1,0.1,0.2,0.1,0.4v3.1
					c0.3-0.2,0.6-0.3,0.9-0.4c0.3-0.1,0.7-0.2,1-0.2c0.4,0,0.8,0.1,1,0.2c0.3,0.1,0.5,0.3,0.7,0.5s0.3,0.4,0.4,0.7
					c0.1,0.3,0.1,0.6,0.1,0.9v2.7c0,0.4-0.1,0.7-0.2,1c-0.1,0.3-0.3,0.6-0.5,0.8c-0.2,0.2-0.5,0.4-0.8,0.5s-0.7,0.2-1.1,0.2
					c-0.4,0-0.8-0.1-1.1-0.2s-0.6-0.3-0.8-0.5s-0.4-0.4-0.5-0.7c-0.1-0.3-0.2-0.6-0.2-0.9L-66.6,284.4L-66.6,284.4z M-65.5,292.1
					c0,0.4,0.1,0.7,0.4,0.9c0.3,0.2,0.6,0.3,1.1,0.3s0.9-0.1,1.1-0.4s0.4-0.6,0.4-1.1v-2.7c0-0.4-0.1-0.7-0.3-0.9
					c-0.2-0.2-0.6-0.3-1.1-0.3c-0.4,0-0.7,0.1-0.9,0.2c-0.3,0.1-0.5,0.3-0.7,0.5V292.1z"/>
				<path class="st8" d="M-57.4,293.4c0.3,0,0.6,0,0.8-0.1s0.5-0.2,0.7-0.3c0,0,0,0,0.1,0h0.1c0.1,0,0.3,0.1,0.4,0.2
					c0.1,0.1,0.1,0.2,0.1,0.4c0,0.2-0.1,0.3-0.3,0.4s-0.4,0.2-0.6,0.3c-0.2,0.1-0.5,0.1-0.8,0.2c-0.3,0-0.5,0.1-0.7,0.1
					c-0.4,0-0.8-0.1-1.1-0.2s-0.6-0.3-0.8-0.5s-0.4-0.5-0.5-0.8s-0.2-0.6-0.2-0.9v-2.7c0-0.3,0.1-0.7,0.2-1c0.1-0.3,0.3-0.6,0.5-0.8
					c0.2-0.2,0.5-0.4,0.8-0.5s0.7-0.2,1.1-0.2c0.8,0,1.4,0.2,1.8,0.6c0.4,0.4,0.6,1,0.6,1.7s-0.2,1.2-0.6,1.6
					c-0.4,0.4-1,0.6-1.9,0.6c-0.2,0-0.5,0-0.7,0s-0.5-0.1-0.8-0.1v0.8c0,0.4,0.1,0.7,0.4,1C-58.3,293.3-57.9,293.4-57.4,293.4z
					 M-56.2,289.2c0-0.5-0.1-0.8-0.3-1s-0.5-0.3-1-0.3s-0.8,0.1-1.1,0.4c-0.3,0.2-0.4,0.6-0.4,1v1.1c0.3,0,0.5,0.1,0.8,0.1
					s0.5,0,0.7,0c0.3,0,0.5,0,0.7-0.1s0.3-0.2,0.4-0.3c0.1-0.1,0.2-0.2,0.2-0.4C-56.2,289.5-56.2,289.4-56.2,289.2z"/>
				<path class="st8" d="M-53.8,289c0-0.6,0.2-1.1,0.6-1.5c0.4-0.4,1-0.6,1.7-0.6c0.2,0,0.4,0,0.6,0s0.4,0.1,0.6,0.1
					c0.2,0.1,0.4,0.1,0.5,0.2s0.2,0.2,0.2,0.4c0,0.1,0,0.3-0.1,0.4s-0.2,0.2-0.4,0.2c-0.1,0-0.2,0-0.3-0.1c-0.2-0.1-0.3-0.1-0.5-0.2
					c-0.2,0-0.4-0.1-0.6-0.1c-0.9,0-1.3,0.3-1.3,1c0,0.2,0.1,0.4,0.2,0.5c0.1,0.1,0.3,0.3,0.5,0.4s0.5,0.2,0.8,0.3
					c0.3,0.1,0.6,0.2,0.9,0.4c0.3,0.2,0.5,0.4,0.7,0.7c0.2,0.3,0.3,0.6,0.3,1.1c0,0.6-0.2,1.2-0.6,1.5c-0.4,0.4-1,0.6-1.8,0.6
					c-0.2,0-0.4,0-0.6,0s-0.5-0.1-0.7-0.1c-0.2-0.1-0.4-0.1-0.6-0.3c-0.2-0.2-0.2-0.2-0.2-0.4c0-0.1,0-0.2,0.1-0.4
					c0.1-0.1,0.2-0.2,0.4-0.2h0.1c0,0,0,0,0.1,0c0.2,0.1,0.4,0.2,0.7,0.2c0.2,0.1,0.5,0.1,0.8,0.1c0.4,0,0.7-0.1,1-0.3
					c0.2-0.2,0.4-0.4,0.4-0.8c0-0.3-0.1-0.5-0.2-0.6c-0.1-0.1-0.2-0.2-0.4-0.3c-0.2-0.1-0.5-0.2-0.8-0.3c-0.3-0.1-0.6-0.2-0.9-0.4
					c-0.3-0.2-0.5-0.4-0.8-0.6C-53.7,289.8-53.8,289.4-53.8,289z"/>
				<path class="st8" d="M-40.6,294.4c-0.2,0-0.5,0-0.8-0.1c-0.3,0-0.5-0.1-0.8-0.2v2.7c0,0.2,0,0.3-0.1,0.4s-0.2,0.2-0.4,0.2
					s-0.3-0.1-0.4-0.2c-0.1-0.1-0.1-0.2-0.1-0.4V289c0-0.2,0-0.4-0.1-0.6c0-0.1-0.1-0.3-0.2-0.4l-0.1-0.1c0,0,0-0.1,0-0.2
					c0-0.2,0.1-0.3,0.2-0.4s0.2-0.1,0.3-0.1s0.2,0,0.3,0.1s0.2,0.1,0.3,0.3c0.3-0.2,0.7-0.3,1-0.4s0.7-0.2,1.1-0.2
					c0.8,0,1.3,0.3,1.7,0.8s0.6,1.2,0.6,2v1.9c0,0.4,0,0.8-0.1,1.2c-0.1,0.4-0.2,0.7-0.4,0.9c-0.2,0.3-0.4,0.5-0.7,0.6
					C-39.8,294.3-40.1,294.4-40.6,294.4z M-42.2,293.1c0.2,0.1,0.5,0.2,0.8,0.2s0.5,0.1,0.7,0.1c0.5,0,0.9-0.2,1.1-0.5
					s0.3-0.8,0.3-1.5v-1.9c0-1.1-0.5-1.7-1.4-1.7c-0.2,0-0.5,0-0.8,0.1s-0.5,0.2-0.8,0.4c0,0.2,0.1,0.4,0.1,0.6
					C-42.2,288.9-42.2,293.1-42.2,293.1z"/>
				<path class="st8" d="M-32.9,289.4c0-1-0.5-1.5-1.5-1.5c-0.2,0-0.5,0-0.6,0.1c-0.2,0.1-0.3,0.1-0.5,0.2c0,0-0.1,0-0.1,0.1
					c-0.1,0-0.2,0.1-0.2,0.1c-0.1,0-0.2-0.1-0.3-0.2s-0.1-0.2-0.1-0.3c0-0.2,0-0.3,0.1-0.4s0.3-0.2,0.5-0.3c0.2-0.1,0.4-0.1,0.7-0.2
					c0.2,0,0.5-0.1,0.7-0.1c0.9,0,1.5,0.2,1.9,0.7s0.6,1.2,0.6,2.2v3.2c0,0.3,0.1,0.4,0.3,0.4c0,0,0,0,0.1,0c0,0,0,0,0.1,0
					s0.2,0.1,0.3,0.2s0.1,0.2,0.1,0.3c0,0.2-0.1,0.3-0.2,0.4c-0.1,0.1-0.3,0.1-0.4,0.1c-0.2,0-0.5-0.1-0.6-0.2
					c-0.2-0.1-0.3-0.3-0.4-0.5c-0.6,0.5-1.2,0.8-2,0.8c-0.7,0-1.3-0.2-1.7-0.6s-0.5-0.9-0.5-1.6v-0.1c0-1.4,0.8-2.1,2.5-2.1
					c0.5,0,1,0.1,1.4,0.2v-0.9L-32.9,289.4L-32.9,289.4z M-34.4,291c-0.3,0-0.5,0-0.7,0.1s-0.3,0.1-0.4,0.3
					c-0.1,0.1-0.2,0.2-0.2,0.4c0,0.1-0.1,0.3-0.1,0.5v0.1c0,0.3,0.1,0.6,0.3,0.8c0.2,0.2,0.5,0.3,1,0.3c0.3,0,0.6-0.1,0.8-0.2
					c0.3-0.1,0.5-0.3,0.8-0.5v-1.5c-0.2-0.1-0.5-0.1-0.7-0.2C-33.9,291-34.2,291-34.4,291z"/>
				<path class="st8" d="M-28.4,293.8c0,0.2-0.1,0.3-0.2,0.4c-0.1,0.1-0.2,0.2-0.4,0.2s-0.3-0.1-0.4-0.2s-0.2-0.2-0.2-0.4V289
					c0-0.2,0-0.4-0.1-0.6c0-0.1-0.1-0.3-0.2-0.4l-0.1-0.1c0,0,0-0.1,0-0.2c0-0.2,0.1-0.3,0.2-0.4c0.1-0.1,0.2-0.1,0.4-0.1
					c0.1,0,0.2,0,0.3,0.1s0.2,0.2,0.3,0.3c0.3-0.2,0.6-0.3,1-0.5c0.4-0.1,0.7-0.2,1-0.2s0.5,0.1,0.6,0.2s0.2,0.2,0.2,0.4
					c0,0.2-0.1,0.3-0.2,0.4s-0.2,0.2-0.4,0.1c-0.3,0-0.6,0-0.9,0.1c-0.3,0-0.6,0.2-1,0.5c0,0.1,0,0.1,0,0.2s0,0.1,0,0.2L-28.4,293.8
					L-28.4,293.8z"/>
				<path class="st8" d="M-21.3,289.4c0-1-0.5-1.5-1.5-1.5c-0.2,0-0.5,0-0.6,0.1c-0.2,0.1-0.3,0.1-0.5,0.2c0,0-0.1,0-0.1,0.1
					c-0.1,0-0.2,0.1-0.2,0.1c-0.1,0-0.2-0.1-0.3-0.2s-0.1-0.2-0.1-0.3c0-0.2,0-0.3,0.1-0.4s0.3-0.2,0.5-0.3c0.2-0.1,0.4-0.1,0.7-0.2
					c0.2,0,0.5-0.1,0.7-0.1c0.9,0,1.5,0.2,1.9,0.7s0.6,1.2,0.6,2.2v3.2c0,0.3,0.1,0.4,0.3,0.4c0,0,0,0,0.1,0c0,0,0,0,0.1,0
					s0.2,0.1,0.3,0.2s0.1,0.2,0.1,0.3c0,0.2-0.1,0.3-0.2,0.4s-0.3,0.1-0.4,0.1c-0.2,0-0.5-0.1-0.6-0.2c-0.2-0.1-0.3-0.3-0.4-0.5
					c-0.6,0.5-1.2,0.8-2,0.8c-0.7,0-1.3-0.2-1.7-0.6s-0.5-0.9-0.5-1.6v-0.1c0-1.4,0.8-2.1,2.5-2.1c0.5,0,1,0.1,1.4,0.2v-0.9
					L-21.3,289.4L-21.3,289.4z M-22.8,291c-0.3,0-0.5,0-0.7,0.1s-0.3,0.1-0.4,0.3c-0.1,0.1-0.2,0.2-0.2,0.4c0,0.1-0.1,0.3-0.1,0.5
					v0.1c0,0.3,0.1,0.6,0.3,0.8c0.2,0.2,0.5,0.3,1,0.3c0.3,0,0.6-0.1,0.8-0.2c0.3-0.1,0.5-0.3,0.8-0.5v-1.5
					c-0.2-0.1-0.5-0.1-0.7-0.2C-22.3,291-22.5,291-22.8,291z"/>
				<path class="st8" d="M-11.7,287c0.2,0,0.5,0,0.8,0.1c0.3,0,0.6,0.1,0.8,0.2v-2.8c0-0.2,0-0.3,0.1-0.4s0.2-0.2,0.4-0.2
					s0.3,0.1,0.4,0.2c0.1,0.1,0.1,0.2,0.1,0.4v8.2c0,0.2,0,0.4,0.1,0.5s0.2,0.3,0.3,0.4l0.1,0.1c0,0,0,0.1,0,0.2
					c0,0.2-0.1,0.3-0.2,0.4c-0.1,0.1-0.2,0.1-0.3,0.1c-0.2,0-0.3,0-0.4-0.1c-0.1-0.1-0.2-0.2-0.3-0.3c-0.3,0.2-0.6,0.3-1,0.4
					c-0.3,0.1-0.7,0.2-1.1,0.2c-0.8,0-1.3-0.3-1.7-0.8s-0.6-1.2-0.6-2v-1.8c0-0.4,0-0.8,0.1-1.2c0.1-0.4,0.2-0.7,0.4-0.9
					c0.2-0.3,0.4-0.5,0.7-0.6C-12.5,287-12.1,287-11.7,287z M-10.1,288.2c-0.2-0.1-0.5-0.2-0.8-0.2s-0.5-0.1-0.7-0.1
					c-0.5,0-0.9,0.2-1.1,0.5s-0.3,0.8-0.3,1.5v1.8c0,1.1,0.5,1.7,1.4,1.7c0.2,0,0.5,0,0.7-0.1c0.3-0.1,0.5-0.2,0.8-0.3
					c0-0.1,0-0.1,0-0.2s0-0.1,0-0.2C-10.1,292.6-10.1,288.2-10.1,288.2z"/>
				<path class="st8" d="M-4.4,294.4c-0.4,0-0.8-0.1-1.2-0.2c-0.3-0.1-0.6-0.3-0.8-0.5s-0.4-0.5-0.5-0.8s-0.2-0.6-0.2-1v-2.4
					c0-0.4,0.1-0.7,0.2-1s0.3-0.6,0.5-0.8c0.2-0.2,0.5-0.4,0.8-0.5s0.7-0.2,1.2-0.2c0.4,0,0.8,0.1,1.2,0.2c0.3,0.1,0.6,0.3,0.8,0.5
					s0.4,0.5,0.5,0.8s0.2,0.6,0.2,1v2.4c0,0.4-0.1,0.7-0.2,1s-0.3,0.6-0.5,0.8c-0.2,0.2-0.5,0.4-0.8,0.5
					C-3.6,294.3-3.9,294.4-4.4,294.4z M-4.4,293.3c0.5,0,0.9-0.1,1.2-0.4s0.4-0.6,0.4-1.1v-2.4c0-0.5-0.1-0.8-0.4-1.1
					c-0.3-0.3-0.7-0.4-1.2-0.4s-0.9,0.1-1.2,0.4s-0.4,0.6-0.4,1.1v2.4c0,0.5,0.1,0.9,0.4,1.1C-5.3,293.2-4.9,293.3-4.4,293.3z"/>
				<path class="st8" d="M1.2,293.8c0,0.2,0,0.3-0.1,0.4s-0.2,0.2-0.4,0.2s-0.3-0.1-0.4-0.2c-0.1-0.1-0.1-0.2-0.1-0.4v-4.9
					c0-0.2,0-0.4,0-0.5s0-0.2-0.1-0.3S0,288,0,287.9l-0.1-0.1c0,0,0-0.1-0.1-0.1c0,0,0-0.1,0-0.2s0.1-0.3,0.2-0.4
					c0.1-0.1,0.2-0.1,0.4-0.1c0.1,0,0.2,0,0.3,0.1s0.2,0.2,0.3,0.3c0.3-0.2,0.6-0.4,1-0.5s0.7-0.2,1-0.2c0.8,0,1.3,0.2,1.7,0.7
					s0.6,1.2,0.6,2v4.2c0,0.2,0,0.3-0.1,0.4s-0.2,0.2-0.4,0.2s-0.3-0.1-0.4-0.2c-0.1-0.1-0.1-0.2-0.1-0.4v-4.2c0-0.5-0.1-1-0.3-1.3
					s-0.6-0.4-1-0.4c-0.3,0-0.5,0.1-0.8,0.2s-0.5,0.3-0.8,0.4c0,0.2,0,0.3,0,0.4v5.1H1.2z"/>
				<path class="st8" d="M9.3,287c0.2,0,0.5,0,0.8,0.1c0.3,0,0.6,0.1,0.8,0.2v-2.8c0-0.2,0-0.3,0.1-0.4s0.2-0.2,0.4-0.2
					s0.3,0.1,0.4,0.2c0.1,0.1,0.1,0.2,0.1,0.4v8.2c0,0.2,0,0.4,0.1,0.5s0.2,0.3,0.3,0.4l0.1,0.1c0,0,0,0.1,0,0.2
					c0,0.2-0.1,0.3-0.2,0.4c-0.1,0.1-0.2,0.1-0.3,0.1c-0.2,0-0.3,0-0.4-0.1c-0.1-0.1-0.2-0.2-0.3-0.3c-0.3,0.2-0.6,0.3-1,0.4
					c-0.3,0.1-0.7,0.2-1.1,0.2c-0.8,0-1.3-0.3-1.7-0.8s-0.6-1.2-0.6-2v-1.8c0-0.4,0-0.8,0.1-1.2c0.1-0.4,0.2-0.7,0.4-0.9
					c0.2-0.3,0.4-0.5,0.7-0.6C8.4,287,8.8,287,9.3,287z M10.9,288.2c-0.2-0.1-0.5-0.2-0.8-0.2s-0.5-0.1-0.7-0.1
					c-0.5,0-0.9,0.2-1.1,0.5S8,289.2,8,289.9v1.8c0,1.1,0.5,1.7,1.4,1.7c0.2,0,0.5,0,0.7-0.1c0.3-0.1,0.5-0.2,0.8-0.3
					c0-0.1,0-0.1,0-0.2s0-0.1,0-0.2C10.9,292.6,10.9,288.2,10.9,288.2z"/>
				<path class="st8" d="M16.6,293.4c0.3,0,0.6,0,0.8-0.1s0.5-0.2,0.7-0.3c0,0,0,0,0.1,0h0.1c0.1,0,0.3,0.1,0.4,0.2
					c0.1,0.1,0.1,0.2,0.1,0.4c0,0.2-0.1,0.3-0.3,0.4s-0.4,0.2-0.6,0.3c-0.2,0.1-0.5,0.1-0.8,0.2c-0.3,0-0.5,0.1-0.7,0.1
					c-0.4,0-0.8-0.1-1.1-0.2s-0.6-0.3-0.8-0.5s-0.4-0.5-0.5-0.8s-0.2-0.6-0.2-0.9v-2.7c0-0.3,0.1-0.7,0.2-1c0.1-0.3,0.3-0.6,0.5-0.8
					c0.2-0.2,0.5-0.4,0.8-0.5s0.7-0.2,1.1-0.2c0.8,0,1.4,0.2,1.8,0.6c0.4,0.4,0.6,1,0.6,1.7s-0.2,1.2-0.6,1.6
					c-0.4,0.4-1,0.6-1.9,0.6c-0.2,0-0.5,0-0.7,0c-0.3,0-0.5-0.1-0.8-0.1v0.8c0,0.4,0.1,0.7,0.4,1C15.7,293.3,16,293.4,16.6,293.4z
					 M17.8,289.2c0-0.5-0.1-0.8-0.3-1s-0.5-0.3-1-0.3s-0.8,0.1-1.1,0.4c-0.3,0.2-0.4,0.6-0.4,1v1.1c0.3,0,0.5,0.1,0.8,0.1
					s0.5,0,0.7,0c0.3,0,0.5,0,0.7-0.1s0.3-0.2,0.4-0.3c0.1-0.1,0.2-0.2,0.2-0.4C17.8,289.5,17.8,289.4,17.8,289.2z"/>
				<path class="st8" d="M27.6,293.7c-0.1,0.2-0.2,0.4-0.3,0.5s-0.3,0.2-0.5,0.2s-0.3-0.1-0.5-0.2c-0.1-0.1-0.2-0.3-0.3-0.5l-2-6.1
					c-0.1-0.2,0-0.3,0.1-0.5c0.1-0.1,0.3-0.2,0.4-0.2c0.1,0,0.2,0,0.3,0.1s0.2,0.2,0.2,0.3l1.7,5.4l1.6-5.4c0-0.1,0.1-0.2,0.2-0.3
					c0.1-0.1,0.2-0.1,0.3-0.1c0.2,0,0.3,0.1,0.4,0.2c0.1,0.1,0.1,0.3,0.1,0.5L27.6,293.7z"/>
				<path class="st8" d="M34.4,289.4c0-1-0.5-1.5-1.5-1.5c-0.2,0-0.5,0-0.6,0.1c-0.2,0.1-0.3,0.1-0.5,0.2c0,0-0.1,0-0.1,0.1
					c-0.1,0-0.2,0.1-0.2,0.1c-0.1,0-0.2-0.1-0.3-0.2s-0.1-0.2-0.1-0.3c0-0.2,0-0.3,0.1-0.4s0.3-0.2,0.5-0.3c0.2-0.1,0.4-0.1,0.7-0.2
					c0.2,0,0.5-0.1,0.7-0.1c0.9,0,1.5,0.2,1.9,0.7s0.6,1.2,0.6,2.2v3.2c0,0.3,0.1,0.4,0.3,0.4c0,0,0,0,0.1,0c0,0,0,0,0.1,0
					s0.2,0.1,0.3,0.2c0.1,0.1,0.1,0.2,0.1,0.3c0,0.2-0.1,0.3-0.2,0.4s-0.3,0.1-0.4,0.1c-0.2,0-0.5-0.1-0.6-0.2
					c-0.2-0.1-0.3-0.3-0.4-0.5c-0.6,0.5-1.2,0.8-2,0.8c-0.7,0-1.3-0.2-1.7-0.6s-0.5-0.9-0.5-1.6v-0.1c0-1.4,0.8-2.1,2.5-2.1
					c0.5,0,1,0.1,1.4,0.2v-0.9L34.4,289.4L34.4,289.4z M32.9,291c-0.3,0-0.5,0-0.7,0.1s-0.3,0.1-0.4,0.3c-0.1,0.1-0.2,0.2-0.2,0.4
					c0,0.1-0.1,0.3-0.1,0.5v0.1c0,0.3,0.1,0.6,0.3,0.8c0.2,0.2,0.5,0.3,1,0.3c0.3,0,0.6-0.1,0.8-0.2c0.3-0.1,0.5-0.3,0.8-0.5v-1.5
					c-0.2-0.1-0.5-0.1-0.7-0.2C33.4,291,33.1,291,32.9,291z"/>
				<path class="st8" d="M37.5,289c0-0.6,0.2-1.1,0.6-1.5s1-0.6,1.7-0.6c0.2,0,0.4,0,0.6,0s0.4,0.1,0.6,0.1c0.2,0.1,0.4,0.1,0.5,0.2
					s0.2,0.2,0.2,0.4c0,0.1,0,0.3-0.1,0.4s-0.2,0.2-0.4,0.2c-0.1,0-0.2,0-0.3-0.1c-0.2-0.1-0.3-0.1-0.5-0.2c-0.2,0-0.4-0.1-0.6-0.1
					c-0.9,0-1.3,0.3-1.3,1c0,0.2,0.1,0.4,0.2,0.5s0.3,0.3,0.5,0.4s0.5,0.2,0.8,0.3c0.3,0.1,0.6,0.2,0.9,0.4c0.3,0.2,0.5,0.4,0.7,0.7
					c0.2,0.3,0.3,0.6,0.3,1.1c0,0.6-0.2,1.2-0.6,1.5c-0.4,0.4-1,0.6-1.8,0.6c-0.2,0-0.4,0-0.6,0s-0.5-0.1-0.7-0.1
					c-0.2-0.1-0.4-0.1-0.6-0.3c-0.2-0.1-0.2-0.2-0.2-0.4c0-0.1,0-0.2,0.1-0.4c0.1-0.1,0.2-0.2,0.4-0.2H38c0,0,0,0,0.1,0
					c0.2,0.1,0.4,0.2,0.7,0.2c0.2,0.1,0.5,0.1,0.8,0.1c0.4,0,0.7-0.1,1-0.3c0.2-0.2,0.4-0.4,0.4-0.8c0-0.3-0.1-0.5-0.2-0.6
					s-0.2-0.2-0.4-0.3c-0.2-0.1-0.5-0.2-0.8-0.3c-0.3-0.1-0.6-0.2-0.9-0.4c-0.3-0.2-0.5-0.4-0.8-0.6C37.7,289.8,37.5,289.4,37.5,289
					z"/>
				<path class="st8" d="M44.8,293.6c0,0.2-0.1,0.4-0.2,0.6s-0.3,0.2-0.5,0.2s-0.4-0.1-0.6-0.2s-0.2-0.3-0.2-0.6
					c0-0.2,0.1-0.4,0.2-0.5s0.3-0.2,0.6-0.2c0.2,0,0.4,0.1,0.5,0.2S44.8,293.4,44.8,293.6z M43.4,284.6c0-0.2,0.1-0.3,0.2-0.4
					s0.2-0.2,0.4-0.2s0.3,0.1,0.4,0.2s0.2,0.2,0.2,0.4l-0.1,6.8c0,0.1,0,0.2-0.1,0.3c-0.1,0.1-0.2,0.1-0.3,0.1s-0.2,0-0.3-0.1
					c-0.1-0.1-0.1-0.2-0.1-0.3L43.4,284.6z"/>
			</g>
			<g>
				<path class="st8" d="M-122.2,452.9c0,0.2-0.1,0.4-0.2,0.6c-0.2,0.2-0.3,0.2-0.6,0.2c-0.2,0-0.4-0.1-0.6-0.2
					c-0.2-0.2-0.2-0.3-0.2-0.6c0-0.2,0.1-0.4,0.2-0.6c0.2-0.2,0.3-0.2,0.6-0.2c0.2,0,0.4,0.1,0.6,0.2
					C-122.3,452.4-122.2,452.6-122.2,452.9z M-123.4,455.1c0-0.1,0-0.2,0.1-0.3s0.2-0.1,0.3-0.1s0.2,0,0.3,0.1
					c0.1,0.1,0.1,0.2,0.1,0.3l0.1,7c0,0.2-0.1,0.3-0.2,0.4c-0.1,0.1-0.3,0.2-0.4,0.2c-0.2,0-0.3-0.1-0.4-0.2s-0.2-0.3-0.2-0.4
					L-123.4,455.1z"/>
				<path class="st8" d="M-114.7,458.9c0,0.2-0.1,0.3-0.2,0.4s-0.3,0.2-0.4,0.2h-3.9c-0.2,0-0.5,0-0.7-0.1s-0.3-0.3-0.3-0.6v-9.1
					c0-0.2,0.1-0.3,0.2-0.5s0.3-0.2,0.5-0.2h4c0.2,0,0.3,0.1,0.4,0.2c0.1,0.1,0.2,0.3,0.2,0.4c0,0.2-0.1,0.3-0.2,0.4
					c-0.1,0.1-0.3,0.2-0.4,0.2h-3.5v3.5h3.3c0.1,0,0.3,0.1,0.4,0.2c0.1,0.1,0.2,0.2,0.2,0.4s-0.1,0.3-0.2,0.4
					c-0.1,0.1-0.2,0.2-0.4,0.2h-3.3v3.5h3.7c0.2,0,0.3,0.1,0.4,0.2C-114.8,458.7-114.7,458.9-114.7,458.9z"/>
				<path class="st8" d="M-113.4,454.1c0-0.6,0.2-1.2,0.6-1.6s1-0.6,1.8-0.6c0.2,0,0.4,0,0.6,0s0.4,0.1,0.6,0.1
					c0.2,0.1,0.4,0.1,0.5,0.3c0.1,0.1,0.2,0.2,0.2,0.4c0,0.1,0,0.3-0.1,0.4c-0.1,0.1-0.2,0.2-0.4,0.2c-0.1,0-0.2,0-0.3-0.1
					c-0.2-0.1-0.3-0.1-0.5-0.2c-0.2,0-0.4-0.1-0.6-0.1c-0.9,0-1.3,0.3-1.3,1c0,0.2,0.1,0.4,0.2,0.6c0.1,0.1,0.3,0.3,0.5,0.4
					c0.3,0.1,0.5,0.2,0.9,0.3c0.3,0.1,0.6,0.2,0.9,0.4s0.5,0.4,0.7,0.7s0.3,0.7,0.3,1.1c0,0.7-0.2,1.2-0.6,1.6
					c-0.4,0.4-1,0.6-1.9,0.6c-0.2,0-0.4,0-0.7,0c-0.3,0-0.5-0.1-0.7-0.1c-0.2-0.1-0.4-0.2-0.6-0.3s-0.2-0.3-0.2-0.4s0-0.3,0.1-0.4
					c0.1-0.1,0.2-0.2,0.4-0.2h0.1c0,0,0,0,0.1,0c0.2,0.1,0.4,0.2,0.7,0.2c0.2,0.1,0.5,0.1,0.8,0.1c0.4,0,0.7-0.1,1-0.3
					c0.2-0.2,0.4-0.5,0.4-0.8s-0.1-0.5-0.2-0.6s-0.2-0.2-0.4-0.3c-0.2-0.1-0.5-0.2-0.9-0.3c-0.3-0.1-0.6-0.2-1-0.4
					c-0.3-0.2-0.6-0.4-0.8-0.7C-113.4,454.9-113.4,454.6-113.4,454.1z"/>
				<path class="st8" d="M-107.3,450.4c0-0.2,0-0.3,0.1-0.4c0.1-0.1,0.2-0.2,0.4-0.2c0.2,0,0.3,0.1,0.4,0.2c0.1,0.1,0.1,0.2,0.1,0.4
					v2.1h1.5c0.1,0,0.3,0.1,0.4,0.2c0.1,0.1,0.2,0.2,0.2,0.4s-0.1,0.3-0.2,0.4c-0.1,0.1-0.2,0.2-0.4,0.2h-1.5v3c0,0.4,0,0.7,0,1
					s0.1,0.5,0.2,0.6c0.1,0.2,0.2,0.3,0.4,0.4c0.2,0.1,0.4,0.1,0.6,0.1h0.1h0.1c0.1,0,0.2,0,0.3,0s0.2,0,0.2,0.1
					c0.1,0,0.1,0.1,0.2,0.2c0,0.1,0.1,0.2,0.1,0.3s0,0.2-0.1,0.3c0,0.1-0.1,0.1-0.2,0.2c-0.1,0-0.2,0.1-0.3,0.1s-0.2,0-0.3,0
					c-0.5,0-1-0.1-1.3-0.2c-0.3-0.1-0.6-0.3-0.8-0.6c-0.2-0.3-0.3-0.6-0.4-1s-0.1-0.8-0.1-1.3v-6.5H-107.3z"/>
				<path class="st8" d="M-98.8,454.5c0-1.1-0.5-1.6-1.6-1.6c-0.3,0-0.5,0-0.6,0.1c-0.2,0.1-0.3,0.1-0.5,0.2c0,0-0.1,0-0.1,0.1
					c-0.1,0-0.2,0.1-0.2,0.1c-0.1,0-0.2-0.1-0.3-0.2c-0.1-0.1-0.1-0.2-0.1-0.3c0-0.2,0-0.3,0.1-0.4c0.1-0.1,0.3-0.2,0.5-0.3
					s0.4-0.1,0.7-0.2c0.3-0.1,0.5-0.1,0.8-0.1c0.9,0,1.6,0.3,2,0.8s0.6,1.3,0.6,2.2v3.3c0,0.3,0.1,0.4,0.3,0.4c0,0,0,0,0.1,0
					c0,0,0,0,0.1,0s0.2,0.1,0.3,0.2c0.1,0.1,0.1,0.2,0.1,0.3c0,0.2-0.1,0.3-0.2,0.4s-0.3,0.1-0.5,0.1s-0.5-0.1-0.7-0.2
					c-0.2-0.1-0.3-0.3-0.5-0.5c-0.6,0.5-1.3,0.8-2,0.8c-0.8,0-1.3-0.2-1.7-0.6s-0.6-1-0.6-1.6v-0.1c0-1.5,0.9-2.2,2.6-2.2
					c0.5,0,1,0.1,1.5,0.2L-98.8,454.5L-98.8,454.5z M-100.4,456.2c-0.3,0-0.6,0-0.7,0.1c-0.2,0.1-0.3,0.2-0.4,0.3s-0.2,0.2-0.2,0.4
					c0,0.1-0.1,0.3-0.1,0.5v0.1c0,0.3,0.1,0.6,0.3,0.9c0.2,0.2,0.5,0.3,1,0.3c0.3,0,0.6-0.1,0.9-0.2c0.3-0.1,0.5-0.3,0.8-0.5v-1.6
					c-0.2-0.1-0.5-0.1-0.8-0.2C-99.9,456.2-100.1,456.2-100.4,456.2z M-99.5,449.1c0.1-0.1,0.2-0.2,0.3-0.2c0.1-0.1,0.2-0.1,0.3-0.1
					s0.2,0,0.3,0.1c0.1,0.1,0.1,0.2,0.1,0.3v0.1c0,0,0,0.1-0.1,0.1l-1.2,1.3c-0.1,0.1-0.2,0.1-0.2,0.2c-0.1,0-0.1,0.1-0.2,0.1
					s-0.3,0-0.3-0.1c-0.1-0.1-0.1-0.2-0.1-0.4c0-0.1,0-0.2,0.1-0.2L-99.5,449.1z"/>
				<path class="st8" d="M-95.6,454.1c0-0.6,0.2-1.2,0.6-1.6s1-0.6,1.8-0.6c0.2,0,0.4,0,0.6,0s0.4,0.1,0.6,0.1
					c0.2,0.1,0.4,0.1,0.5,0.3c0.1,0.1,0.2,0.2,0.2,0.4c0,0.1,0,0.3-0.1,0.4s-0.2,0.2-0.4,0.2c-0.1,0-0.2,0-0.3-0.1
					c-0.2-0.1-0.3-0.1-0.5-0.2c-0.2,0-0.4-0.1-0.6-0.1c-0.9,0-1.3,0.3-1.3,1c0,0.2,0.1,0.4,0.2,0.6c0.1,0.1,0.3,0.3,0.5,0.4
					c0.3,0.1,0.5,0.2,0.9,0.3c0.3,0.1,0.6,0.2,0.9,0.4c0.3,0.2,0.5,0.4,0.7,0.7s0.3,0.7,0.3,1.1c0,0.7-0.2,1.2-0.6,1.6
					c-0.4,0.4-1,0.6-1.9,0.6c-0.2,0-0.4,0-0.7,0c-0.3,0-0.5-0.1-0.7-0.1c-0.2-0.1-0.4-0.2-0.6-0.3s-0.2-0.3-0.2-0.4s0-0.3,0.1-0.4
					c0.1-0.1,0.2-0.2,0.4-0.2h0.1c0,0,0,0,0.1,0c0.2,0.1,0.4,0.2,0.7,0.2c0.2,0.1,0.5,0.1,0.8,0.1c0.4,0,0.7-0.1,1-0.3
					c0.2-0.2,0.4-0.5,0.4-0.8s-0.1-0.5-0.2-0.6c-0.1-0.1-0.2-0.2-0.4-0.3s-0.5-0.2-0.9-0.3c-0.3-0.1-0.6-0.2-1-0.4
					c-0.3-0.2-0.6-0.4-0.8-0.7C-95.4,454.9-95.6,454.6-95.6,454.1z"/>
				<path class="st8" d="M-82.4,458.6c0.3,0,0.6,0,0.8-0.1s0.5-0.2,0.7-0.3c0,0,0,0,0.1,0h0.1c0.1,0,0.3,0.1,0.4,0.2
					c0.1,0.1,0.1,0.2,0.1,0.4s-0.1,0.3-0.3,0.5c-0.2,0.1-0.4,0.2-0.6,0.3c-0.3,0.1-0.5,0.1-0.8,0.2c-0.3,0-0.5,0.1-0.7,0.1
					c-0.4,0-0.8-0.1-1.1-0.2s-0.6-0.3-0.8-0.5s-0.4-0.5-0.5-0.8s-0.2-0.6-0.2-1v-2.8c0-0.4,0.1-0.7,0.2-1s0.3-0.6,0.5-0.8
					s0.5-0.4,0.8-0.5s0.7-0.2,1.2-0.2c0.8,0,1.5,0.2,1.9,0.7c0.4,0.4,0.6,1,0.6,1.8c0,0.7-0.2,1.2-0.6,1.6c-0.4,0.4-1,0.6-1.9,0.6
					c-0.2,0-0.5,0-0.7,0s-0.5-0.1-0.8-0.1v0.9c0,0.4,0.1,0.7,0.4,1C-83.3,458.5-82.9,458.6-82.4,458.6z M-81.1,454.4
					c0-0.5-0.1-0.8-0.3-1s-0.6-0.3-1-0.3c-0.5,0-0.9,0.1-1.1,0.4c-0.3,0.2-0.4,0.6-0.4,1v1.1c0.3,0,0.6,0.1,0.9,0.1
					c0.3,0,0.5,0,0.7,0c0.3,0,0.5,0,0.7-0.1s0.3-0.2,0.4-0.3c0.1-0.1,0.2-0.2,0.2-0.4C-81.2,454.6-81.1,454.5-81.1,454.4z"/>
				<path class="st8" d="M-77.1,459.1c0,0.2,0,0.3-0.1,0.4c-0.1,0.1-0.2,0.2-0.4,0.2s-0.3-0.1-0.4-0.2c-0.1-0.1-0.1-0.2-0.1-0.4
					v-5.1c0-0.2,0-0.4,0-0.5s0-0.2-0.1-0.3s-0.1-0.1-0.1-0.2l-0.1-0.1c0,0,0-0.1-0.1-0.1c0,0,0-0.1,0-0.2s0.1-0.3,0.2-0.4
					c0.1-0.1,0.2-0.1,0.4-0.1c0.1,0,0.3,0,0.4,0.1c0.1,0.1,0.2,0.2,0.3,0.3c0.3-0.2,0.7-0.4,1-0.5c0.4-0.1,0.7-0.2,1.1-0.2
					c0.8,0,1.4,0.3,1.8,0.8c0.4,0.5,0.6,1.2,0.6,2v4.3c0,0.2,0,0.3-0.1,0.4c-0.1,0.1-0.2,0.2-0.4,0.2s-0.3-0.1-0.4-0.2
					c-0.1-0.1-0.1-0.2-0.1-0.4v-4.3c0-0.6-0.1-1-0.3-1.3s-0.6-0.5-1-0.5c-0.3,0-0.6,0.1-0.8,0.2c-0.3,0.1-0.5,0.3-0.8,0.5
					c0,0.2,0,0.3,0,0.4v5.2L-77.1,459.1L-77.1,459.1z"/>
				<path class="st8" d="M-66.3,449.4c0-0.2,0.1-0.3,0.2-0.4c0.1-0.1,0.2-0.2,0.4-0.2s0.3,0.1,0.4,0.2c0.1,0.1,0.2,0.2,0.2,0.4v8.8
					c0,0.2,0,0.3,0,0.4s0.1,0.2,0.2,0.3c0,0,0,0.1,0.1,0.1c0,0,0,0.1,0,0.2c0,0.1-0.1,0.3-0.2,0.4s-0.2,0.2-0.4,0.2
					c-0.1,0-0.2,0-0.3-0.1c-0.1,0-0.2-0.1-0.3-0.2c-0.1-0.1-0.2-0.3-0.2-0.5c-0.1-0.2-0.1-0.5-0.1-0.8L-66.3,449.4L-66.3,449.4z"/>
				<path class="st8" d="M-59.2,454.5c0-1.1-0.5-1.6-1.6-1.6c-0.3,0-0.5,0-0.6,0.1c-0.2,0.1-0.3,0.1-0.5,0.2c0,0-0.1,0-0.1,0.1
					c-0.1,0-0.2,0.1-0.2,0.1c-0.1,0-0.2-0.1-0.3-0.2c-0.1-0.1-0.1-0.2-0.1-0.3c0-0.2,0-0.3,0.1-0.4c0.1-0.1,0.3-0.2,0.5-0.3
					s0.4-0.1,0.7-0.2c0.3,0,0.5-0.1,0.8-0.1c0.9,0,1.6,0.3,2,0.8s0.6,1.3,0.6,2.2v3.3c0,0.3,0.1,0.4,0.3,0.4c0,0,0,0,0.1,0
					c0,0,0,0,0.1,0s0.2,0.1,0.3,0.2c0.1,0.1,0.1,0.2,0.1,0.3c0,0.2-0.1,0.3-0.2,0.4c-0.1,0.1-0.3,0.1-0.5,0.1s-0.5-0.1-0.7-0.2
					c-0.2-0.1-0.3-0.3-0.5-0.5c-0.6,0.5-1.3,0.8-2,0.8c-0.8,0-1.3-0.2-1.7-0.6c-0.4-0.4-0.6-1-0.6-1.6v-0.1c0-1.5,0.9-2.2,2.6-2.2
					c0.5,0,1,0.1,1.5,0.2L-59.2,454.5L-59.2,454.5z M-60.7,456.2c-0.3,0-0.6,0-0.7,0.1c-0.2,0.1-0.3,0.2-0.4,0.3
					c-0.1,0.1-0.2,0.2-0.2,0.4c0,0.1-0.1,0.3-0.1,0.5v0.1c0,0.3,0.1,0.6,0.3,0.9c0.2,0.2,0.5,0.3,1,0.3c0.3,0,0.6-0.1,0.9-0.2
					s0.5-0.3,0.8-0.5v-1.6c-0.2-0.1-0.5-0.1-0.8-0.2C-60.2,456.2-60.5,456.2-60.7,456.2z"/>
				<path class="st8" d="M-50.1,459.1c0,0.2-0.1,0.3-0.2,0.4c-0.1,0.1-0.2,0.2-0.4,0.2s-0.3-0.1-0.4-0.2c-0.1-0.1-0.2-0.2-0.2-0.4
					v-5c0-0.2,0-0.4-0.1-0.6c0-0.2-0.1-0.3-0.2-0.4l-0.1-0.1c0,0,0-0.1,0-0.2c0-0.2,0.1-0.3,0.2-0.4c0.1-0.1,0.2-0.1,0.4-0.1
					c0.1,0,0.2,0,0.3,0.1s0.2,0.2,0.3,0.3c0.3-0.2,0.7-0.4,1-0.5c0.4-0.1,0.7-0.2,1-0.2s0.5,0.1,0.6,0.2c0.1,0.1,0.2,0.2,0.2,0.4
					s-0.1,0.3-0.2,0.4c-0.1,0.1-0.3,0.2-0.4,0.1c-0.3,0-0.6,0-0.9,0.1c-0.3,0-0.6,0.2-1,0.5c0,0.1,0,0.2,0,0.2c0,0.1,0,0.1,0,0.2
					L-50.1,459.1L-50.1,459.1z"/>
				<path class="st8" d="M-42.1,452.5c0-0.2,0-0.3,0.1-0.4c0.1-0.1,0.2-0.2,0.4-0.2s0.3,0.1,0.4,0.2c0.1,0.1,0.1,0.2,0.1,0.4v5.2
					c0,0.2,0,0.4,0,0.5s0,0.2,0.1,0.3c0,0.1,0.1,0.1,0.1,0.2l0.1,0.1c0,0,0,0.1,0.1,0.1c0,0,0,0.1,0,0.2s-0.1,0.3-0.2,0.4
					c-0.1,0.1-0.2,0.2-0.4,0.2c-0.1,0-0.3,0-0.4-0.1c-0.1-0.1-0.2-0.2-0.3-0.3c-0.3,0.2-0.7,0.3-1,0.4c-0.4,0.1-0.7,0.1-1.1,0.1
					c-0.8,0-1.4-0.3-1.8-0.8c-0.4-0.5-0.6-1.2-0.6-2v-4.3c0-0.2,0-0.3,0.1-0.4c0.1-0.1,0.2-0.2,0.4-0.2s0.3,0.1,0.4,0.2
					c0.1,0.1,0.1,0.2,0.1,0.4v4.3c0,0.6,0.1,1,0.3,1.3s0.6,0.5,1,0.5c0.3,0,0.6,0,0.8-0.1c0.3-0.1,0.5-0.2,0.8-0.4
					c0-0.1,0-0.2,0-0.2c0-0.1,0-0.1,0-0.2v-5.4H-42.1z"/>
				<path class="st8" d="M-38.7,450.4c0-0.2,0-0.3,0.1-0.4c0.1-0.1,0.2-0.2,0.4-0.2s0.3,0.1,0.4,0.2c0.1,0.1,0.1,0.2,0.1,0.4v2.1
					h1.5c0.1,0,0.3,0.1,0.4,0.2c0.1,0.1,0.2,0.2,0.2,0.4s-0.1,0.3-0.2,0.4c-0.1,0.1-0.2,0.2-0.4,0.2h-1.5v3c0,0.4,0,0.7,0,1
					s0.1,0.5,0.2,0.6c0.1,0.2,0.2,0.3,0.4,0.4c0.2,0.1,0.4,0.1,0.6,0.1h0.1h0.1c0.1,0,0.2,0,0.3,0s0.2,0,0.2,0.1
					c0.1,0,0.1,0.1,0.2,0.2c0.1,0.1,0.1,0.2,0.1,0.3s0,0.2-0.1,0.3c0,0.1-0.1,0.1-0.2,0.2c-0.1,0-0.2,0.1-0.3,0.1s-0.2,0-0.3,0
					c-0.5,0-1-0.1-1.3-0.2s-0.6-0.3-0.8-0.6s-0.3-0.6-0.4-1c-0.1-0.4-0.1-0.8-0.1-1.3v-6.5H-38.7z"/>
				<path class="st8" d="M-30.3,454.5c0-1.1-0.5-1.6-1.6-1.6c-0.3,0-0.5,0-0.6,0.1c-0.2,0.1-0.3,0.1-0.5,0.2c0,0-0.1,0-0.1,0.1
					c-0.1,0-0.2,0.1-0.2,0.1c-0.1,0-0.2-0.1-0.3-0.2c-0.1-0.1-0.1-0.2-0.1-0.3c0-0.2,0-0.3,0.1-0.4c0.1-0.1,0.3-0.2,0.5-0.3
					s0.4-0.1,0.7-0.2c0.3-0.1,0.5-0.1,0.8-0.1c0.9,0,1.6,0.3,2,0.8s0.6,1.3,0.6,2.2v3.3c0,0.3,0.1,0.4,0.3,0.4c0,0,0,0,0.1,0
					c0,0,0,0,0.1,0s0.2,0.1,0.3,0.2c0.1,0.1,0.1,0.2,0.1,0.3c0,0.2-0.1,0.3-0.2,0.4c-0.1,0.1-0.3,0.1-0.5,0.1s-0.5-0.1-0.7-0.2
					c-0.2-0.1-0.3-0.3-0.5-0.5c-0.6,0.5-1.3,0.8-2,0.8c-0.8,0-1.3-0.2-1.7-0.6s-0.6-1-0.6-1.6v-0.1c0-1.5,0.9-2.2,2.6-2.2
					c0.5,0,1,0.1,1.5,0.2L-30.3,454.5L-30.3,454.5z M-31.8,456.2c-0.3,0-0.6,0-0.7,0.1c-0.2,0.1-0.3,0.2-0.4,0.3
					c-0.1,0.1-0.2,0.2-0.2,0.4c0,0.1-0.1,0.3-0.1,0.5v0.1c0,0.3,0.1,0.6,0.3,0.9c0.2,0.2,0.5,0.3,1,0.3c0.3,0,0.6-0.1,0.9-0.2
					c0.3-0.1,0.5-0.3,0.8-0.5v-1.6c-0.2-0.1-0.5-0.1-0.8-0.2C-31.3,456.2-31.6,456.2-31.8,456.2z"/>
				<path class="st8" d="M-18.6,454.5c0-1.1-0.5-1.6-1.6-1.6c-0.3,0-0.5,0-0.6,0.1c-0.2,0.1-0.3,0.1-0.5,0.2c0,0-0.1,0-0.1,0.1
					c-0.1,0-0.2,0.1-0.2,0.1c-0.1,0-0.2-0.1-0.3-0.2c-0.1-0.1-0.1-0.2-0.1-0.3c0-0.2,0-0.3,0.1-0.4c0.1-0.1,0.3-0.2,0.5-0.3
					s0.4-0.1,0.7-0.2c0.3-0.1,0.5-0.1,0.8-0.1c0.9,0,1.6,0.3,2,0.8s0.6,1.3,0.6,2.2v3.3c0,0.3,0.1,0.4,0.3,0.4c0,0,0,0,0.1,0
					c0,0,0,0,0.1,0s0.2,0.1,0.3,0.2c0.1,0.1,0.1,0.2,0.1,0.3c0,0.2-0.1,0.3-0.2,0.4c-0.1,0.1-0.3,0.1-0.5,0.1s-0.5-0.1-0.7-0.2
					c-0.2-0.1-0.3-0.3-0.5-0.5c-0.6,0.5-1.3,0.8-2,0.8c-0.8,0-1.3-0.2-1.7-0.6c-0.4-0.4-0.6-1-0.6-1.6v-0.1c0-1.5,0.9-2.2,2.6-2.2
					c0.5,0,1,0.1,1.5,0.2L-18.6,454.5L-18.6,454.5z M-20.2,456.2c-0.3,0-0.6,0-0.7,0.1c-0.2,0.1-0.3,0.2-0.4,0.3
					c-0.1,0.1-0.2,0.2-0.2,0.4c0,0.1-0.1,0.3-0.1,0.5v0.1c0,0.3,0.1,0.6,0.3,0.9c0.2,0.2,0.5,0.3,1,0.3c0.3,0,0.6-0.1,0.9-0.2
					s0.5-0.3,0.8-0.5v-1.6c-0.2-0.1-0.5-0.1-0.8-0.2C-19.7,456.2-19.9,456.2-20.2,456.2z"/>
				<path class="st8" d="M-15.2,449.4c0-0.2,0.1-0.3,0.2-0.4c0.1-0.1,0.2-0.2,0.4-0.2s0.3,0.1,0.4,0.2c0.1,0.1,0.2,0.2,0.2,0.4v8.8
					c0,0.2,0,0.3,0,0.4s0.1,0.2,0.2,0.3c0,0,0,0.1,0.1,0.1c0,0,0,0.1,0,0.2c0,0.1-0.1,0.3-0.2,0.4s-0.2,0.2-0.4,0.2
					c-0.1,0-0.2,0-0.3-0.1c-0.1,0-0.2-0.1-0.3-0.2c-0.1-0.1-0.2-0.3-0.2-0.5c-0.1-0.2-0.1-0.5-0.1-0.8
					C-15.2,458.2-15.2,449.4-15.2,449.4z"/>
				<path class="st8" d="M-4.5,458.6c0.3,0,0.6,0,0.8-0.1s0.5-0.2,0.7-0.3c0,0,0,0,0.1,0h0.1c0.1,0,0.3,0.1,0.4,0.2s0.1,0.2,0.1,0.4
					s-0.1,0.3-0.3,0.5c-0.2,0.1-0.4,0.2-0.6,0.3c-0.3,0.1-0.5,0.1-0.8,0.2c-0.3,0-0.5,0.1-0.7,0.1c-0.4,0-0.8-0.1-1.1-0.2
					c-0.3-0.1-0.6-0.3-0.8-0.5s-0.4-0.5-0.5-0.8s-0.2-0.6-0.2-1v-2.8c0-0.4,0.1-0.7,0.2-1c0.1-0.3,0.3-0.6,0.5-0.8s0.5-0.4,0.8-0.5
					s0.7-0.2,1.2-0.2c0.8,0,1.5,0.2,1.9,0.7c0.4,0.4,0.6,1,0.6,1.8c0,0.7-0.2,1.2-0.6,1.6c-0.4,0.4-1,0.6-1.9,0.6
					c-0.2,0-0.5,0-0.7,0s-0.5-0.1-0.8-0.1v0.9c0,0.4,0.1,0.7,0.4,1C-5.5,458.5-5.1,458.6-4.5,458.6z M-3.3,454.4
					c0-0.5-0.1-0.8-0.3-1s-0.6-0.3-1-0.3c-0.5,0-0.9,0.1-1.1,0.4c-0.3,0.2-0.4,0.6-0.4,1v1.1c0.3,0,0.6,0.1,0.9,0.1s0.5,0,0.7,0
					c0.3,0,0.5,0,0.7-0.1s0.3-0.2,0.4-0.3c0.1-0.1,0.2-0.2,0.2-0.4C-3.3,454.6-3.3,454.5-3.3,454.4z M-4.1,449.1
					c0.1-0.1,0.2-0.2,0.3-0.2c0.1-0.1,0.2-0.1,0.3-0.1s0.2,0,0.3,0.1s0.1,0.2,0.1,0.3v0.1c0,0,0,0.1-0.1,0.1l-1.2,1.3
					c-0.1,0.1-0.2,0.1-0.2,0.2c-0.1,0-0.1,0.1-0.2,0.1c-0.1,0-0.3,0-0.3-0.1c-0.1-0.1-0.1-0.2-0.1-0.4c0-0.1,0-0.2,0.1-0.2
					L-4.1,449.1z"/>
				<path class="st8" d="M4.5,458.9c0,0.1,0.1,0.2,0.1,0.3c0,0.2-0.1,0.3-0.2,0.4c-0.1,0.1-0.3,0.2-0.4,0.2c-0.1,0-0.2,0-0.3-0.1
					s-0.2-0.2-0.2-0.3l-1.7-2.6L0,459.5c-0.1,0.2-0.3,0.3-0.5,0.3s-0.3-0.1-0.4-0.2c-0.1-0.1-0.2-0.2-0.2-0.4c0-0.1,0-0.2,0.1-0.3
					l2.1-3.1l-1.9-2.9c-0.1-0.1-0.1-0.1-0.1-0.2c0-0.2,0.1-0.3,0.2-0.4c0.1-0.1,0.2-0.2,0.4-0.2s0.3,0.1,0.4,0.2s0.2,0.2,0.3,0.3
					l1.5,2.3l1.6-2.4c0.1-0.1,0.2-0.2,0.2-0.3c0.1-0.1,0.2-0.1,0.3-0.1s0.3,0.1,0.4,0.2c0.1,0.1,0.2,0.2,0.2,0.4c0,0.1,0,0.1,0,0.1
					s0,0.1-0.1,0.1l-1.9,2.9L4.5,458.9z"/>
				<path class="st8" d="M7.5,449.6c0,0.2-0.1,0.4-0.2,0.5c-0.1,0.1-0.3,0.2-0.5,0.2s-0.4-0.1-0.5-0.2c-0.1-0.1-0.2-0.3-0.2-0.5
					s0.1-0.4,0.2-0.5c0.1-0.1,0.3-0.2,0.5-0.2s0.4,0.1,0.5,0.2C7.4,449.4,7.5,449.4,7.5,449.6z M7.4,459.1c0,0.2-0.1,0.3-0.2,0.4
					c-0.1,0.1-0.2,0.2-0.4,0.2s-0.3-0.1-0.4-0.2c-0.1-0.1-0.2-0.2-0.2-0.4v-6.6c0-0.2,0.1-0.3,0.2-0.4c0.1-0.1,0.2-0.2,0.4-0.2
					s0.3,0.1,0.4,0.2c0.1,0.1,0.2,0.3,0.2,0.4V459.1z"/>
				<path class="st8" d="M9.7,450.4c0-0.2,0-0.3,0.1-0.4c0.1-0.1,0.2-0.2,0.4-0.2s0.3,0.1,0.4,0.2c0.1,0.1,0.1,0.2,0.1,0.4v2.1h1.5
					c0.1,0,0.3,0.1,0.4,0.2c0.1,0.1,0.2,0.2,0.2,0.4s-0.1,0.3-0.2,0.4c-0.1,0.1-0.2,0.2-0.4,0.2h-1.5v3c0,0.4,0,0.7,0,1
					s0.1,0.5,0.2,0.6c0.1,0.2,0.2,0.3,0.4,0.4c0.2,0.1,0.4,0.1,0.6,0.1H12h0.1c0.1,0,0.2,0,0.3,0s0.2,0,0.2,0.1
					c0.1,0,0.1,0.1,0.2,0.2c0,0.1,0.1,0.2,0.1,0.3s0,0.2-0.1,0.3c0,0.1-0.1,0.1-0.2,0.2c-0.1,0-0.2,0.1-0.3,0.1s-0.2,0-0.3,0
					c-0.5,0-1-0.1-1.3-0.2s-0.6-0.3-0.8-0.6s-0.3-0.6-0.4-1c-0.1-0.4-0.1-0.8-0.1-1.3v-6.5H9.7z"/>
				<path class="st8" d="M16.8,459.7c-0.5,0-0.9-0.1-1.2-0.2s-0.6-0.3-0.9-0.6c-0.2-0.2-0.4-0.5-0.5-0.8s-0.2-0.7-0.2-1v-2.5
					c0-0.4,0.1-0.7,0.2-1c0.1-0.3,0.3-0.6,0.5-0.8s0.5-0.4,0.9-0.6c0.3-0.1,0.7-0.2,1.2-0.2s0.9,0.1,1.2,0.2
					c0.3,0.1,0.6,0.3,0.9,0.6c0.2,0.2,0.4,0.5,0.5,0.8s0.2,0.7,0.2,1v2.5c0,0.4-0.1,0.7-0.2,1c-0.1,0.3-0.3,0.6-0.5,0.8
					s-0.5,0.4-0.9,0.6C17.7,459.6,17.3,459.7,16.8,459.7z M16.8,458.6c0.5,0,0.9-0.1,1.2-0.4c0.3-0.3,0.4-0.7,0.4-1.2v-2.5
					c0-0.5-0.1-0.9-0.4-1.1c-0.3-0.3-0.7-0.4-1.2-0.4s-0.9,0.1-1.2,0.4c-0.3,0.3-0.4,0.7-0.4,1.1v2.5c0,0.5,0.1,0.9,0.4,1.2
					S16.3,458.6,16.8,458.6z"/>
				<path class="st8" d="M25.8,449.4c0-0.2,0.1-0.3,0.2-0.4c0.1-0.1,0.2-0.2,0.4-0.2s0.3,0.1,0.4,0.2c0.1,0.1,0.2,0.2,0.2,0.4v8.8
					c0,0.2,0,0.3,0,0.4s0.1,0.2,0.2,0.3c0,0,0,0.1,0.1,0.1s0,0.1,0,0.2c0,0.1-0.1,0.3-0.2,0.4c-0.1,0.1-0.2,0.2-0.4,0.2
					c-0.1,0-0.2,0-0.3-0.1c-0.1,0-0.2-0.1-0.3-0.2c-0.1-0.1-0.2-0.3-0.2-0.5c-0.1-0.2-0.1-0.5-0.1-0.8
					C25.8,458.2,25.8,449.4,25.8,449.4z"/>
				<path class="st8" d="M32.9,454.5c0-1.1-0.5-1.6-1.6-1.6c-0.3,0-0.5,0-0.6,0.1c-0.2,0.1-0.3,0.1-0.5,0.2c0,0-0.1,0-0.1,0.1
					c-0.1,0-0.2,0.1-0.2,0.1c-0.1,0-0.2-0.1-0.3-0.2c-0.1-0.1-0.1-0.2-0.1-0.3c0-0.2,0-0.3,0.1-0.4c0.1-0.1,0.3-0.2,0.5-0.3
					s0.4-0.1,0.7-0.2c0.3,0,0.5-0.1,0.8-0.1c0.9,0,1.6,0.3,2,0.8s0.6,1.3,0.6,2.2v3.3c0,0.3,0.1,0.4,0.3,0.4c0,0,0,0,0.1,0
					c0,0,0,0,0.1,0s0.2,0.1,0.3,0.2c0.1,0.1,0.1,0.2,0.1,0.3c0,0.2-0.1,0.3-0.2,0.4s-0.3,0.1-0.5,0.1s-0.5-0.1-0.7-0.2
					c-0.2-0.1-0.3-0.3-0.5-0.5c-0.6,0.5-1.3,0.8-2,0.8c-0.8,0-1.3-0.2-1.7-0.6s-0.6-1-0.6-1.6v-0.1c0-1.5,0.9-2.2,2.6-2.2
					c0.5,0,1,0.1,1.5,0.2L32.9,454.5L32.9,454.5z M31.4,456.2c-0.3,0-0.6,0-0.7,0.1c-0.2,0.1-0.3,0.2-0.4,0.3
					c-0.1,0.1-0.2,0.2-0.2,0.4c0,0.1-0.1,0.3-0.1,0.5v0.1c0,0.3,0.1,0.6,0.3,0.9c0.2,0.2,0.5,0.3,1,0.3c0.3,0,0.6-0.1,0.9-0.2
					c0.3-0.1,0.5-0.3,0.8-0.5v-1.6c-0.2-0.1-0.5-0.1-0.8-0.2C31.9,456.2,31.6,456.2,31.4,456.2z"/>
				<path class="st8" d="M36.4,449.4c0-0.1,0-0.3,0.1-0.4c0.1-0.1,0.2-0.2,0.4-0.2c0.2,0,0.3,0.1,0.4,0.2c0.1,0.1,0.1,0.2,0.1,0.4
					v3.2c0.3-0.2,0.6-0.3,0.9-0.5c0.3-0.1,0.7-0.2,1.1-0.2s0.8,0.1,1.1,0.2c0.3,0.1,0.5,0.3,0.7,0.5s0.3,0.5,0.4,0.7
					c0.1,0.3,0.1,0.6,0.1,0.9v2.8c0,0.4-0.1,0.7-0.2,1s-0.3,0.6-0.5,0.8s-0.5,0.4-0.8,0.6c-0.3,0.1-0.7,0.2-1.2,0.2
					c-0.4,0-0.8-0.1-1.2-0.2c-0.3-0.1-0.6-0.3-0.8-0.5c-0.2-0.2-0.4-0.5-0.5-0.7c-0.1-0.3-0.2-0.6-0.2-0.9L36.4,449.4L36.4,449.4
					L36.4,449.4z M37.5,457.4c0,0.4,0.1,0.7,0.4,0.9s0.7,0.3,1.1,0.3c0.5,0,0.9-0.1,1.2-0.4c0.3-0.3,0.4-0.7,0.4-1.2v-2.8
					c0-0.4-0.1-0.7-0.3-1c-0.2-0.2-0.6-0.3-1.1-0.3c-0.4,0-0.7,0.1-1,0.2s-0.5,0.3-0.7,0.5C37.5,453.5,37.5,457.4,37.5,457.4z"/>
				<path class="st8" d="M45.9,459.7c-0.5,0-0.9-0.1-1.2-0.2s-0.6-0.3-0.9-0.6c-0.2-0.2-0.4-0.5-0.5-0.8s-0.2-0.7-0.2-1v-2.5
					c0-0.4,0.1-0.7,0.2-1s0.3-0.6,0.5-0.8s0.5-0.4,0.9-0.6c0.3-0.1,0.7-0.2,1.2-0.2s0.9,0.1,1.2,0.2s0.6,0.3,0.9,0.6
					c0.2,0.2,0.4,0.5,0.5,0.8s0.2,0.7,0.2,1v2.5c0,0.4-0.1,0.7-0.2,1s-0.3,0.6-0.5,0.8s-0.5,0.4-0.9,0.6
					C46.8,459.6,46.4,459.7,45.9,459.7z M45.9,458.6c0.5,0,0.9-0.1,1.2-0.4s0.4-0.7,0.4-1.2v-2.5c0-0.5-0.1-0.9-0.4-1.1
					c-0.3-0.3-0.7-0.4-1.2-0.4s-0.9,0.1-1.2,0.4c-0.3,0.3-0.4,0.7-0.4,1.1v2.5c0,0.5,0.1,0.9,0.4,1.2S45.4,458.6,45.9,458.6z"/>
				<path class="st8" d="M51.7,459.1c0,0.2-0.1,0.3-0.2,0.4c-0.1,0.1-0.2,0.2-0.4,0.2c-0.2,0-0.3-0.1-0.4-0.2
					c-0.1-0.1-0.2-0.2-0.2-0.4v-5c0-0.2,0-0.4-0.1-0.6c0-0.2-0.1-0.3-0.2-0.4l-0.1-0.1c0,0,0-0.1,0-0.2c0-0.2,0.1-0.3,0.2-0.4
					c0.1-0.1,0.2-0.1,0.4-0.1c0.1,0,0.2,0,0.3,0.1c0.1,0.1,0.2,0.2,0.3,0.3c0.3-0.2,0.7-0.4,1-0.5c0.4-0.1,0.7-0.2,1-0.2
					s0.5,0.1,0.6,0.2c0.1,0.1,0.2,0.2,0.2,0.4s-0.1,0.3-0.2,0.4c-0.1,0.1-0.3,0.2-0.4,0.1c-0.3,0-0.6,0-0.9,0.1
					c-0.3,0-0.6,0.2-1,0.5c0,0.1,0,0.2,0,0.2c0,0.1,0,0.1,0,0.2L51.7,459.1L51.7,459.1z"/>
				<path class="st8" d="M59.1,454.5c0-1.1-0.5-1.6-1.6-1.6c-0.3,0-0.5,0-0.6,0.1c-0.2,0.1-0.3,0.1-0.5,0.2c0,0-0.1,0-0.1,0.1
					c-0.1,0-0.2,0.1-0.2,0.1c-0.1,0-0.2-0.1-0.3-0.2s-0.1-0.2-0.1-0.3c0-0.2,0-0.3,0.1-0.4c0.1-0.1,0.3-0.2,0.5-0.3s0.4-0.1,0.7-0.2
					c0.3,0,0.5-0.1,0.8-0.1c0.9,0,1.6,0.3,2,0.8s0.6,1.3,0.6,2.2v3.3c0,0.3,0.1,0.4,0.3,0.4c0,0,0,0,0.1,0c0,0,0,0,0.1,0
					s0.2,0.1,0.3,0.2c0.1,0.1,0.1,0.2,0.1,0.3c0,0.2-0.1,0.3-0.2,0.4s-0.3,0.1-0.5,0.1s-0.5-0.1-0.7-0.2c-0.2-0.1-0.3-0.3-0.5-0.5
					c-0.6,0.5-1.3,0.8-2,0.8c-0.8,0-1.3-0.2-1.7-0.6c-0.4-0.4-0.6-1-0.6-1.6v-0.1c0-1.5,0.9-2.2,2.6-2.2c0.5,0,1,0.1,1.5,0.2v-0.9
					H59.1z M57.5,456.2c-0.3,0-0.6,0-0.7,0.1c-0.2,0.1-0.3,0.2-0.4,0.3s-0.2,0.2-0.2,0.4c0,0.1-0.1,0.3-0.1,0.5v0.1
					c0,0.3,0.1,0.6,0.3,0.9c0.2,0.2,0.5,0.3,1,0.3c0.3,0,0.6-0.1,0.9-0.2s0.5-0.3,0.8-0.5v-1.6c-0.2-0.1-0.5-0.1-0.8-0.2
					C58,456.2,57.8,456.2,57.5,456.2z"/>
				<path class="st8" d="M62.5,449.4c0-0.2,0.1-0.3,0.2-0.4s0.2-0.2,0.4-0.2c0.2,0,0.3,0.1,0.4,0.2s0.2,0.2,0.2,0.4v8.8
					c0,0.2,0,0.3,0,0.4s0.1,0.2,0.2,0.3c0,0,0,0.1,0.1,0.1c0,0,0,0.1,0,0.2c0,0.1-0.1,0.3-0.2,0.4s-0.2,0.2-0.4,0.2
					c-0.1,0-0.2,0-0.3-0.1c-0.1,0-0.2-0.1-0.3-0.2c-0.1-0.1-0.2-0.3-0.2-0.5c-0.1-0.2-0.1-0.5-0.1-0.8
					C62.5,458.2,62.5,449.4,62.5,449.4z"/>
				<path class="st8" d="M67.3,458.9c0,0.2-0.1,0.4-0.2,0.6c-0.2,0.2-0.3,0.2-0.6,0.2c-0.2,0-0.4-0.1-0.6-0.2
					c-0.2-0.2-0.2-0.4-0.2-0.6c0-0.2,0.1-0.4,0.2-0.6c0.2-0.2,0.3-0.2,0.6-0.2c0.2,0,0.4,0.1,0.6,0.2
					C67.2,458.5,67.3,458.7,67.3,458.9z M65.9,449.5c0-0.2,0.1-0.3,0.2-0.4c0.1-0.1,0.3-0.2,0.4-0.2c0.2,0,0.3,0.1,0.4,0.2
					c0.1,0.1,0.2,0.3,0.2,0.4l-0.1,7c0,0.1,0,0.2-0.1,0.3s-0.2,0.1-0.3,0.1c-0.1,0-0.2,0-0.3-0.1c-0.1-0.1-0.1-0.2-0.1-0.3
					L65.9,449.5z"/>
			</g>
		</g>
		<g>
			<path class="st9" d="M5.5,375.6c0-1-0.1-2-0.3-2.9c-0.1-3.1-1-6.1-3.2-8.2c0,0,0,0,0-0.1c-0.2-0.3-0.4-0.5-0.7-0.8
				c0.1-0.2,0.1-0.5-0.1-0.7l-0.1-0.1l0,0l0,0c-0.3-0.2-0.5-0.4-0.8-0.6c-0.7-1-1.7-1.9-2.8-2.3c-0.1,0-0.2,0-0.2,0
				c-0.2-0.2-0.5-0.4-0.7-0.6c-5-4-13.4-6.3-18.7-1.5c-0.1,0-0.1,0.1-0.1,0.1c-0.2-0.1-0.4-0.2-0.6,0c-1.8,1.2-4,1.7-5.1,3.7
				c0,0.1,0,0.1-0.1,0.2c-1.4,1-2.4,2.6-3.2,4.1c-0.1,0.2-0.1,0.4,0,0.6c-3.1,4-3.5,9.1-2,14.1c1.7,5.3,5,11.1,10.5,13
				c0.6,0.2,1.2,0.4,1.9,0.5c0.9,0.3,1.8,0.5,2.7,0.5c1.7,0.7,3.4,1.2,5.2,0.9c0.1,0,0.2-0.1,0.3-0.2c0.4-0.1,0.7-0.2,1.1-0.4
				c1.2,0,2.4-0.1,3.5-0.6c0.2-0.1,0.3-0.2,0.4-0.4c0.9-0.2,1.8-0.6,2.6-1c0.1,0,0.2,0,0.3,0c0.5-0.1,1-0.3,1.4-0.5
				c0.1,0,0.2,0,0.3-0.1c1.4-0.7,2.4-1.8,3.2-3c0.1,0,0.3-0.1,0.4-0.3c1-1.4,2.1-2.6,2.9-4c0.1,0,0.1-0.1,0.2-0.2
				c0.3-0.6,0.5-1.2,0.7-1.9c0.5-1.5,0.9-3,0.9-4.5c0-0.3,0.1-0.6,0.1-0.9c0.2-0.1,0.3-0.3,0.3-0.5C5.5,376.5,5.5,376.1,5.5,375.6z
				 M-16.9,356.6c-0.3,0-0.5,0.1-0.8,0.1c0.4-0.1,0.9-0.2,1.3-0.3C-16.5,356.5-16.7,356.6-16.9,356.6z M-2.8,385.4
				c-0.6,1.3-10.3,5.1-10.3,5.4c-1.4-0.2-9.6-2.9-10.8-3.6c-0.7-0.5-4.1-6.6-4.5-7.3c0-0.2-0.5-6.6,0.4-8.5c0.9-1.3,3.6-6.3,4-6.7
				c1.1-1.2,5.3-4.2,9.6-3.9c7.4-0.6,14.3,5.7,14.9,12.1C0.5,373.9-2.7,385-2.8,385.4z"/>
			<ellipse class="st10" cx="-14" cy="375.4" rx="20.5" ry="20.8"/>
			<circle class="st10" cx="-14.1" cy="375" r="15.4"/>
			<path class="st11" d="M-15.6,382.9c-4.9-0.1-6.7-5.6-6.6-9.8c0.1-2.3-3.5-2.3-3.6,0c-0.2,6.2,3.2,13.2,10.1,13.3
				C-13.3,386.4-13.3,382.9-15.6,382.9z"/>
			<path class="st11" d="M-23.2,366.5c-1,0-0.6,0.8-0.6,1.8v0.1c0,1-0.3,1.8,0.6,1.8c0.9,0,0.6-0.8,0.6-1.8v-0.1
				C-22.5,367.4-22.2,366.5-23.2,366.5z"/>
		</g>
		<path class="st12" d="M-60.4,361.2c2.6,0.8,5.9,0.7,8.6,0.4c3.7-0.3,2.9-5.8-0.7-5c-1.3,0.3-2.6,0.6-3.9,0.8
			c-1.3,0.2-2.7,0.2-3.9,0.6C-61.9,358.5-61.9,360.7-60.4,361.2z"/>
		<path class="st13" d="M-50.3,356.5h-9.8c-0.2-0.2-0.5-0.4-0.9-0.4c-0.6,0-1.1,0.6-1.1,1.2c0,0.5,0,1.1,0,1.6c0,0.9,0,1.9,0,2.8
			v0.4c0,0.3,0.1,0.7,0.4,0.9c0.2,0.2,0.5,0.3,0.7,0.3c0.1,0,0.1,0,0.2,0c1.8-0.3,3.6-0.3,5.4-0.3c0.4,0,0.9,0,1.3,0
			c0.4,0,0.9,0,1.3,0c1,0,1.8,0,2.5,0c0.6,0,1.1-0.5,1.1-1.1v-4.2C-49.1,357-49.6,356.5-50.3,356.5z M-51.4,360.7
			c-0.7,0-1.7,0-2.6,0c-1.8,0-3.7,0-5.7,0.2c0-0.6,0-1.3,0-1.9v-0.1h8.3V360.7z"/>
		<path class="st14" d="M12.3,398.6c0,1.5,0.3,5.4-1.3,5.4h-75.7c-1.6,0-5.4-3.9-5.4-5.4v-47.2c0-1.5,3.9,1.1,5.4,1.1H11
			c1.6,0,1.3-2.6,1.3-1.1V398.6z"/>
		<path class="st11" d="M8,394.5c-15.2,1.3-72.3,9.2-70.3-13c-0.5-8.4,0.2-18.8,0.5-27.2c0.1-2.8,0.3-5.5-2.4-5.5
			c-2.8,0-5,2.3-5.1,5.1c-0.3,10.3,0.1,20.5,0.9,30.7c-0.3,0.6-0.4,1.3-0.4,1.9c0,1.8,0.4,3.6,0.8,5.3c0.1,0.3,0.1,0.6,0.2,0.9
			c0,0.1,0.2,0.1,0.2,0.2c0,0.1,0.1,0.1,0.1,0.2l0,0c0,1.3-1.4,2.8-1,4.3c0.7,2.4,2.5,3.4,4.8,3.7c6.7,0.9,13.2,1.5,19.9,0.6
			c16.5,0.5,33.1-0.1,49.6-1.5c2.7-0.2,5.1-2.1,5.1-5.1C10.8,392.7,10.7,394.2,8,394.5z"/>
		<path class="st14" d="M-63.8,349.9v-5.6c0,0,0.6-1.3,1.1-1.6c0.9-0.5,14.2-0.5,15.1,0c0.7,0.4-0.1,2.9-0.1,2.9l25.3-0.4
			c0,0-0.8-3.7,0.4-4.4c1-0.6,21.6-0.6,22.6,0c0.7,0.4-1.3,2-1.3,2v2.5c0,0,6.6-0.7,7.8,0s-0.5,4.9-0.5,4.9"/>
		<circle class="st10" cx="-13.7" cy="375.6" r="10.6"/>
	</g>
</g>
<g id="Capa_2">
</g>
</svg>
