<?xml version="1.0" encoding="utf-8"?>
<!-- Generator: Adobe Illustrator 17.0.0, SVG Export Plug-In . SVG Version: 6.00 Build 0)  -->
<!DOCTYPE svg PUBLIC "-//W3C//DTD SVG 1.1//EN" "http://www.w3.org/Graphics/SVG/1.1/DTD/svg11.dtd">
<svg version="1.1" id="Capa_1" xmlns="http://www.w3.org/2000/svg" xmlns:xlink="http://www.w3.org/1999/xlink" x="0px" y="0px"
	 width="433px" height="612px" viewBox="171.5 0 433 612" enable-background="new 171.5 0 433 612" xml:space="preserve">
<g>
	<path fill="#0098D5" d="M351.24,185.691c-11.835,20.898-29.96,29.427-43.608,85.509c-5.331,22.07-6.61,42.222,0,75.274
		c2.346,11.728,29.427,32.413,58.748,37.21c15.46,2.559,33.692,0.96,59.174-2.559c9.169-1.279,46.38-9.063,48.939-36.464
		c1.919-20.898,9.169-42.861,0-75.274c-7.677-27.401-16.206-40.196-50.218-89.028c-33.905-48.619-31.24-47.766-31.24-47.766
		S363.288,164.261,351.24,185.691"/>
	<path fill="#FFFFFF" d="M475.026,279.73l-6.824-17.166c-53.097,23.883-112.378,11.622-149.268-0.96l-12.688,37.744
		c35.078,14.287,104.488,33.266,173.045-1.919L475.026,279.73z"/>
	<path fill="none" stroke="#004966" stroke-width="8" stroke-linecap="round" stroke-miterlimit="10" d="M354.652,600.017
		c0,0,36.038-105.554-5.118-220.171"/>
	<path fill="none" stroke="#004966" stroke-width="8" stroke-linecap="round" stroke-miterlimit="10" d="M426.833,602.576
		c0,0,36.038-105.554-5.118-220.171"/>
	<path fill="none" stroke="#004966" stroke-width="8" stroke-linecap="round" stroke-miterlimit="10" d="M434.084,195.607
		c-13.967-3.838,81.245,28.041,81.245,184.24"/>
	<path fill="none" stroke="#004966" stroke-width="8" stroke-linecap="round" stroke-miterlimit="10" d="M350.813,195.607
		c13.967-3.838-81.351,28.148-81.351,184.346"/>
	<path opacity="0.47" fill="#024A60" enable-background="new    " d="M451.783,231.005c-5.331-11.622-12.688-22.284-17.699-34.012
		c-2.665-6.077-6.504-15.247-13.434-17.379c-1.279-1.066-2.665-1.813-4.158-2.346c1.706-0.853,3.412-1.706,5.118-2.666
		c1.919-1.066,3.732-2.346,5.651-3.625c-11.089,3.092-22.177,5.757-31.666,12.794c1.279-0.213,2.559-0.426,3.838-0.64
		c-2.452,2.985-4.052,6.93-4.052,11.515c0,12.475,6.397,23.563,12.794,33.799c10.662,17.272,18.125,31.773,20.578,52.351
		c2.026,17.592,0.32,36.571-3.625,53.737c-3.092,13.434-15.46,21.644-17.912,35.078c-2.452,13.861,8.743,14.287,19.405,11.622
		c2.559,0.746,5.544,0.107,6.93-2.132c3.092-1.066,5.758-2.239,7.57-3.199c21.324-10.555,28.574-29.64,30.067-52.564
		C473.107,291.139,465.11,259.899,451.783,231.005"/>
	<path fill="none" stroke="#004966" stroke-width="8" stroke-linecap="round" stroke-miterlimit="10" d="M348.681,185.691
		c-11.835,20.898-29.96,29.427-43.608,85.509c-5.331,22.07-6.61,42.222,0,75.274c2.346,11.728,29.427,32.413,58.748,37.21
		c15.46,2.559,33.692,0.96,59.174-2.559c9.169-1.279,46.38-9.063,48.939-36.464c1.919-20.898,9.169-42.861,0-75.274
		c-7.783-27.295-16.313-40.089-50.325-88.921c-33.905-48.619-31.24-47.766-31.24-47.766S360.729,164.261,348.681,185.691z"/>
	<path fill="#FFFFFF" d="M456.367,108.178c0,38.383-31.133,69.516-69.516,69.516s-69.516-31.133-69.516-69.516
		s31.133-69.516,69.516-69.516S456.367,69.795,456.367,108.178"/>
	<path fill="#DFDEE4" d="M395.381,176.629c6.61-2.239,13.114-4.371,19.512-7.037c-0.32-0.107-0.64-0.32-1.066-0.426
		c1.706-0.746,3.412-1.599,5.118-2.559c19.618-10.769,42.222-36.144,31.24-58.748c-12.048-24.736-35.505,9.596-43.075,18.552
		c-8.316,9.809-20.791,15.46-33.479,16.419c-2.879-1.386-5.438-1.173-7.57,0c-14.394-1.066-27.828-8.21-34.225-22.07
		c-2.772-5.971-10.769-2.772-11.622,2.559c-5.118-2.559-12.155,3.199-8.53,8.636c1.493,2.132,2.985,4.265,4.585,6.397
		c1.173,5.864,5.224,10.662,9.916,14.607c1.386,1.173,2.985,1.706,4.585,1.599c0.107,1.279,0.746,2.452,1.919,3.305
		c18.978,14.5,41.688,21.004,63.972,16.739C396.234,175.349,395.807,175.882,395.381,176.629"/>
	<path fill="none" stroke="#004966" stroke-width="8" stroke-linecap="round" stroke-miterlimit="10" d="M453.808,108.178
		c0,38.383-31.133,69.516-69.516,69.516s-69.516-31.133-69.516-69.516s31.133-69.516,69.516-69.516S453.808,69.795,453.808,108.178z
		"/>
	<path fill="none" stroke="#004966" stroke-width="8" stroke-linecap="round" stroke-miterlimit="10" d="M354.652,45.486
		c0,0,60.027,6.61,81.884-38.063"/>
	<path fill="none" stroke="#004966" stroke-width="8" stroke-linecap="round" stroke-miterlimit="10" d="M353.905,185.265
		c0,0,10.342,18.125,32.306,18.125s29.001-18.125,29.001-18.125"/>
	<g>
		<path fill="#004966" d="M372.457,92.079c0-4.691-3.838-8.53-8.53-8.53s-8.53,3.838-8.53,8.53c0,4.691,3.838,8.53,8.53,8.53
			C368.725,100.608,372.457,96.77,372.457,92.079z"/>
		<path fill="#004966" d="M414.146,92.079c0-4.691-3.838-8.53-8.53-8.53s-8.53,3.838-8.53,8.53c0,4.691,3.838,8.53,8.53,8.53
			S414.146,96.77,414.146,92.079z"/>
		<path fill="none" stroke="#004966" stroke-width="7.8056" stroke-linecap="round" stroke-miterlimit="10" d="M361.155,142.723
			c4.265-19.831,15.033,4.798,26.442-3.518c4.478-3.305,4.478-10.022,10.022-12.688c5.544-2.772,10.129,1.493,12.155,6.717"/>
	</g>
	<g>
		<path fill="none" stroke="#004966" stroke-width="8" stroke-linecap="round" stroke-miterlimit="10" d="M238.649,281.863
			c0,0-21.964,16.313-22.177,47.126c-0.213,30.92,15.993,38.383,15.993,38.383"/>
		<path fill="none" stroke="#004966" stroke-width="8" stroke-linecap="round" stroke-miterlimit="10" d="M198.56,284.528
			c0,0-16.739,12.475-16.953,36.038c-0.213,23.563,12.155,29.321,12.155,29.321"/>
	</g>
	<g>
		<path fill="none" stroke="#004966" stroke-width="8" stroke-linecap="round" stroke-miterlimit="10" d="M541.237,290.179
			c0,0,21.964,16.313,22.177,47.126c0.213,30.92-15.993,38.383-15.993,38.383"/>
		<path fill="none" stroke="#004966" stroke-width="8" stroke-linecap="round" stroke-miterlimit="10" d="M581.433,292.845
			c0,0,16.739,12.475,16.953,36.038c0.213,23.563-12.155,29.321-12.155,29.321"/>
	</g>
</g>
<path fill="#FFFFFF" stroke="#004966" stroke-width="3" stroke-linecap="round" stroke-miterlimit="10" d="M253.498,536.407
	c0,0-9.952,52.04-3.525,63.443c6.22,11.403,277.2,5.183,286.323,3.732c9.122-1.659,14.306-44.161,5.598-75.883
	s-278.029-2.488-278.029-2.488"/>
<g>
	<path fill="#004966" d="M314.977,554.73c0,0.892-0.825,1.684-1.782,1.684c-0.99,0-1.849-0.792-1.849-1.684v-13.729l-4.555,9.373
		c-0.33,0.693-0.99,1.023-1.716,1.023c-0.727,0-1.354-0.33-1.716-1.023l-4.522-9.373v13.729c0,0.892-0.858,1.684-1.881,1.684
		c-0.99,0-1.749-0.792-1.749-1.684V534.3c0-1.023,0.792-1.782,1.881-1.782c0.858,0,1.485,0.363,1.848,1.057l6.172,12.739
		l6.139-12.772c0.396-0.76,1.089-1.023,1.848-1.023c1.056,0,1.881,0.792,1.881,1.782v20.429H314.977z"/>
	<path fill="#004966" d="M327.25,545.094c0-1.947-0.99-2.904-3.036-2.904c-0.858,0-1.386,0.197-1.947,0.429l-0.627,0.264
		c-0.198,0.1-0.561,0.165-0.858,0.165c-0.957,0-1.353-0.759-1.353-1.452c0-1.749,2.541-2.442,5.116-2.442
		c4.456,0,6.271,2.344,6.271,6.733v6.7c0,0.824,0.33,0.957,0.825,1.056c0.693,0.132,0.99,0.562,0.99,1.188
		c0,0.924-0.693,1.386-1.947,1.386c-1.155,0-2.013-0.462-2.641-1.485c-1.221,1.057-2.673,1.585-4.488,1.585
		c-3.598,0-5.446-2.014-5.446-5.083v-0.1c0-3.3,2.046-4.983,6.172-4.983c1.023,0,2.013,0.132,2.97,0.396L327.25,545.094
		L327.25,545.094z M321.64,551.166v0.1c0,1.32,0.66,2.079,2.476,2.079c1.122,0,2.112-0.33,3.135-1.155v-2.971
		c-0.957-0.23-2.046-0.363-2.871-0.363C322.069,548.855,321.64,549.912,321.64,551.166z"/>
	<path fill="#004966" d="M339.295,554.665c0,0.924-0.594,1.65-1.782,1.65c-1.188,0-1.782-0.727-1.782-1.65V544.07
		c0-1.452-0.231-1.519-0.429-1.849c-0.264-0.396-0.396-0.594-0.396-0.99c0-0.857,0.726-1.518,1.716-1.518
		c0.627,0,1.155,0.363,1.551,0.957c1.485-1.023,3.102-1.452,4.555-1.452c3.829,0,5.743,2.541,5.743,6.337v9.109
		c0,0.924-0.66,1.65-1.782,1.65c-1.155,0-1.782-0.727-1.782-1.65v-9.109c0-2.079-0.957-3.301-2.607-3.301
		c-0.99,0-2.013,0.363-3.103,1.023c0.066,0.297,0.099,0.561,0.099,0.792L339.295,554.665L339.295,554.665z"/>
	<path fill="#004966" d="M355.86,549.351v1.519c0,1.485,1.023,2.442,3.103,2.442c1.221,0,2.112-0.33,3.201-0.825
		c0.099-0.065,0.33-0.165,0.726-0.165c1.123,0,1.617,0.825,1.617,1.485c0,1.98-3.895,2.541-5.842,2.541
		c-4.06,0-6.37-2.442-6.37-5.644v-5.842c0-3.234,2.277-5.71,6.535-5.71c3.994,0,5.974,2.179,5.974,5.479
		c0,3.103-1.815,4.951-6.007,4.951C357.874,549.582,356.917,549.516,355.86,549.351z M358.765,542.09
		c-1.848,0-2.904,0.99-2.904,2.574v1.947c1.122,0.132,2.409,0.198,2.904,0.198c1.881,0,2.508-0.891,2.508-2.277
		C361.273,542.783,360.382,542.09,358.765,542.09z"/>
	<path fill="#004966" d="M371.865,556.447c0,3.663-2.178,6.304-5.775,6.304c-0.958,0-1.618-0.693-1.618-1.584
		c0-0.892,0.825-1.32,1.419-1.452c1.485-0.298,2.409-1.155,2.409-3.169v-15.645c0-0.891,0.759-1.649,1.782-1.649
		c0.99,0,1.782,0.759,1.782,1.649L371.865,556.447L371.865,556.447z M370.083,536.38c-1.188,0-2.079-0.891-2.079-1.947
		c0-1.089,0.891-1.947,2.079-1.947c1.155,0,2.08,0.892,2.08,1.947C372.163,535.522,371.238,536.38,370.083,536.38z"/>
	<path fill="#004966" d="M384.934,545.094c0-1.947-0.99-2.904-3.036-2.904c-0.858,0-1.386,0.197-1.947,0.429l-0.627,0.264
		c-0.198,0.1-0.561,0.165-0.858,0.165c-0.957,0-1.353-0.759-1.353-1.452c0-1.749,2.541-2.442,5.116-2.442
		c4.456,0,6.271,2.344,6.271,6.733v6.7c0,0.824,0.33,0.957,0.825,1.056c0.693,0.132,0.99,0.562,0.99,1.188
		c0,0.924-0.693,1.386-1.947,1.386c-1.155,0-2.013-0.462-2.641-1.485c-1.221,1.057-2.673,1.585-4.488,1.585
		c-3.598,0-5.446-2.014-5.446-5.083v-0.1c0-3.3,2.046-4.983,6.172-4.983c1.023,0,2.013,0.132,2.97,0.396L384.934,545.094
		L384.934,545.094z M379.323,551.166v0.1c0,1.32,0.66,2.079,2.476,2.079c1.122,0,2.112-0.33,3.135-1.155v-2.971
		c-0.957-0.23-2.046-0.363-2.871-0.363C379.752,548.855,379.323,549.912,379.323,551.166z"/>
	<path fill="#004966" d="M396.979,554.665c0,0.924-0.594,1.65-1.782,1.65c-1.188,0-1.782-0.727-1.782-1.65V544.07
		c0-1.452-0.231-1.519-0.429-1.849c-0.264-0.396-0.396-0.594-0.396-0.99c0-0.857,0.726-1.518,1.716-1.518
		c0.627,0,1.155,0.363,1.551,0.957c1.485-1.023,3.103-1.452,4.555-1.452c3.828,0,5.743,2.541,5.743,6.337v9.109
		c0,0.924-0.66,1.65-1.782,1.65c-1.155,0-1.782-0.727-1.782-1.65v-9.109c0-2.079-0.957-3.301-2.607-3.301
		c-0.99,0-2.014,0.363-3.103,1.023c0.065,0.297,0.099,0.561,0.099,0.792L396.979,554.665L396.979,554.665z"/>
	<path fill="#004966" d="M419.155,539.912v-6.073c0-0.892,0.627-1.617,1.782-1.617c1.122,0,1.782,0.726,1.782,1.617v18.252
		c0,0.692,0.197,1.089,0.726,1.551c0.231,0.264,0.363,0.528,0.363,0.892c0,1.022-0.858,1.584-1.65,1.584s-1.419-0.462-1.881-1.155
		c-1.519,0.825-3.004,1.386-4.654,1.386c-3.663,0-5.644-2.574-5.644-6.369v-3.961c0-3.928,1.419-6.733,5.875-6.733
		C416.91,539.284,417.967,539.449,419.155,539.912z M419.155,542.849c-1.057-0.396-2.212-0.561-2.872-0.561
		c-2.013,0-2.739,1.188-2.739,3.729v3.961c0,2.145,0.858,3.3,2.674,3.3c0.857,0,1.914-0.297,3.003-0.825
		c-0.065-0.264-0.065-0.495-0.065-0.692L419.155,542.849L419.155,542.849z"/>
	<path fill="#004966" d="M426.908,550.341v-5.215c0-3.399,2.311-6.007,6.667-6.007s6.667,2.607,6.667,6.007v5.215
		c0,3.367-2.311,6.007-6.667,6.007S426.908,553.708,426.908,550.341z M436.678,550.341v-5.247c0-1.75-1.057-2.839-3.103-2.839
		s-3.103,1.089-3.103,2.839v5.247c0,1.782,1.057,2.872,3.103,2.872S436.678,552.123,436.678,550.341z"/>
	<path fill="#004966" d="M472.087,544.961c0-1.484-0.857-2.673-2.475-2.673c-1.123,0-2.277,0.594-3.136,1.452
		c0.065,0.363,0.132,0.759,0.132,1.155v9.77c0,0.924-0.594,1.65-1.782,1.65s-1.782-0.727-1.782-1.65v-9.044
		c0-1.947-0.33-3.333-2.244-3.333c-1.122,0-2.344,0.495-3.301,1.089c0.033,0.231,0.066,0.495,0.066,0.693v10.595
		c0,0.924-0.595,1.65-1.782,1.65c-1.188,0-1.782-0.727-1.782-1.65V544.07c0-1.452-0.231-1.519-0.43-1.849
		c-0.264-0.396-0.396-0.627-0.396-0.957c0-0.924,0.759-1.551,1.683-1.551c0.66,0,1.155,0.363,1.519,0.891
		c1.485-0.924,3.069-1.452,4.653-1.452c1.585,0,2.806,0.528,3.829,1.552c1.584-0.99,3.069-1.552,4.885-1.552
		c3.729,0,5.907,2.311,5.907,5.743v9.77c0,0.924-0.594,1.65-1.782,1.65c-1.188,0-1.782-0.727-1.782-1.65L472.087,544.961
		L472.087,544.961z"/>
	<path fill="#004966" d="M482.314,536.38c-1.188,0-2.079-0.891-2.079-1.947c0-1.089,0.891-1.947,2.079-1.947
		c1.155,0,2.079,0.892,2.079,1.947C484.36,535.522,483.47,536.38,482.314,536.38z M482.314,556.315c-1.023,0-1.782-0.693-1.782-1.65
		v-13.764c0-0.891,0.759-1.649,1.782-1.649c0.99,0,1.782,0.759,1.782,1.649v13.764C484.097,555.622,483.305,556.315,482.314,556.315
		z"/>
	<path fill="#004966" d="M494.129,539.152c1.947,0,4.753,0.495,4.753,2.409c0,0.892-0.595,1.354-1.452,1.354
		c-1.057,0-1.552-0.726-3.301-0.726c-0.825,0-2.344,0.164-2.344,1.584c0,3.234,7.69,1.65,7.69,7.558
		c0,3.069-2.079,4.984-6.007,4.984c-1.881,0-5.38-0.43-5.38-2.179c0-0.594,0.396-1.947,1.849-1.584
		c0.594,0.132,2.013,0.759,3.399,0.759c1.485,0,2.641-0.726,2.641-1.914c0-3.103-7.69-1.452-7.69-7.294
		C488.287,541.133,490.268,539.152,494.129,539.152z"/>
	<path fill="#004966" d="M330.253,582.351v1.519c0,1.485,1.023,2.442,3.103,2.442c1.221,0,2.112-0.33,3.201-0.825
		c0.099-0.065,0.33-0.165,0.726-0.165c1.123,0,1.617,0.825,1.617,1.485c0,1.98-3.895,2.541-5.842,2.541
		c-4.06,0-6.37-2.442-6.37-5.644v-5.842c0-3.234,2.277-5.71,6.535-5.71c3.994,0,5.974,2.179,5.974,5.479
		c0,3.103-1.815,4.951-6.007,4.951C332.266,582.582,331.309,582.516,330.253,582.351z M333.157,575.09
		c-1.848,0-2.904,0.99-2.904,2.574v1.947c1.122,0.132,2.409,0.198,2.904,0.198c1.881,0,2.508-0.891,2.508-2.277
		C335.666,575.783,334.774,575.09,333.157,575.09z"/>
	<path fill="#004966" d="M360.846,577.961c0-1.484-0.858-2.673-2.475-2.673c-1.123,0-2.277,0.594-3.136,1.452
		c0.066,0.363,0.132,0.759,0.132,1.155v9.77c0,0.924-0.594,1.65-1.782,1.65c-1.188,0-1.783-0.727-1.783-1.65v-9.044
		c0-1.947-0.33-3.333-2.244-3.333c-1.122,0-2.343,0.495-3.3,1.089c0.033,0.231,0.066,0.495,0.066,0.693v10.595
		c0,0.924-0.594,1.65-1.782,1.65c-1.188,0-1.782-0.727-1.782-1.65V577.07c0-1.452-0.231-1.519-0.429-1.849
		c-0.264-0.396-0.396-0.627-0.396-0.957c0-0.924,0.759-1.551,1.683-1.551c0.66,0,1.155,0.363,1.519,0.891
		c1.485-0.924,3.069-1.452,4.653-1.452c1.584,0,2.806,0.528,3.829,1.552c1.584-0.99,3.069-1.552,4.885-1.552
		c3.729,0,5.908,2.311,5.908,5.743v9.77c0,0.924-0.594,1.65-1.782,1.65c-1.188,0-1.782-0.727-1.782-1.65v-9.704H360.846z"/>
	<path fill="#004966" d="M368.202,583.341v-5.215c0-3.399,2.31-6.007,6.667-6.007c4.356,0,6.667,2.607,6.667,6.007v5.215
		c0,3.367-2.311,6.007-6.667,6.007C370.512,589.348,368.202,586.708,368.202,583.341z M377.971,583.341v-5.247
		c0-1.75-1.056-2.839-3.102-2.839s-3.103,1.089-3.103,2.839v5.247c0,1.782,1.056,2.872,3.103,2.872
		C376.915,586.213,377.971,585.123,377.971,583.341z"/>
	<path fill="#004966" d="M384.503,578.424c0-3.466,1.947-6.172,6.37-6.172c1.75,0,5.116,0.462,5.116,2.442
		c0,0.692-0.462,1.386-1.584,1.386c-0.264,0-0.495-0.033-0.825-0.132c-0.726-0.33-1.353-0.66-2.442-0.66
		c-2.211,0-3.069,1.155-3.069,3.136v4.72c0,1.979,0.858,3.168,3.069,3.168c1.089,0,1.716-0.33,2.442-0.66
		c0.264-0.099,0.462-0.165,0.792-0.165c1.155,0,1.617,0.727,1.617,1.419c0,1.947-3.366,2.442-5.148,2.442
		c-4.39,0-6.337-2.739-6.337-6.204L384.503,578.424L384.503,578.424z"/>
	<path fill="#004966" d="M401.169,569.38c-1.188,0-2.079-0.891-2.079-1.947c0-1.089,0.891-1.947,2.079-1.947
		c1.155,0,2.079,0.892,2.079,1.947C403.215,568.522,402.324,569.38,401.169,569.38z M401.169,589.315
		c-1.023,0-1.782-0.693-1.782-1.65v-13.764c0-0.891,0.759-1.649,1.782-1.649c0.99,0,1.782,0.759,1.782,1.649v13.764
		C402.951,588.622,402.159,589.315,401.169,589.315z"/>
	<path fill="#004966" d="M407.043,583.341v-5.215c0-3.399,2.31-6.007,6.667-6.007c4.356,0,6.667,2.607,6.667,6.007v5.215
		c0,3.367-2.311,6.007-6.667,6.007C409.353,589.348,407.043,586.708,407.043,583.341z M416.812,583.341v-5.247
		c0-1.75-1.056-2.839-3.102-2.839c-2.047,0-3.103,1.089-3.103,2.839v5.247c0,1.782,1.056,2.872,3.103,2.872
		C415.756,586.213,416.812,585.123,416.812,583.341z"/>
	<path fill="#004966" d="M427.8,587.665c0,0.924-0.594,1.65-1.782,1.65s-1.782-0.727-1.782-1.65V577.07
		c0-1.452-0.23-1.519-0.429-1.849c-0.265-0.396-0.396-0.594-0.396-0.99c0-0.857,0.727-1.518,1.717-1.518
		c0.627,0,1.155,0.363,1.551,0.957c1.485-1.023,3.103-1.452,4.555-1.452c3.828,0,5.743,2.541,5.743,6.337v9.109
		c0,0.924-0.66,1.65-1.782,1.65c-1.155,0-1.782-0.727-1.782-1.65v-9.109c0-2.079-0.957-3.301-2.607-3.301
		c-0.99,0-2.014,0.363-3.103,1.023c0.065,0.297,0.099,0.561,0.099,0.792v10.596H427.8z"/>
	<path fill="#004966" d="M444.365,582.351v1.519c0,1.485,1.023,2.442,3.103,2.442c1.222,0,2.112-0.33,3.201-0.825
		c0.1-0.065,0.33-0.165,0.727-0.165c1.122,0,1.617,0.825,1.617,1.485c0,1.98-3.895,2.541-5.842,2.541c-4.06,0-6.37-2.442-6.37-5.644
		v-5.842c0-3.234,2.277-5.71,6.535-5.71c3.993,0,5.974,2.179,5.974,5.479c0,3.103-1.815,4.951-6.007,4.951
		C446.379,582.582,445.422,582.516,444.365,582.351z M447.27,575.09c-1.848,0-2.904,0.99-2.904,2.574v1.947
		c1.122,0.132,2.409,0.198,2.904,0.198c1.882,0,2.509-0.891,2.509-2.277C449.778,575.783,448.887,575.09,447.27,575.09z"/>
	<path fill="#004966" d="M462.021,572.152c1.947,0,4.752,0.495,4.752,2.409c0,0.892-0.594,1.354-1.452,1.354
		c-1.056,0-1.551-0.726-3.3-0.726c-0.825,0-2.344,0.164-2.344,1.584c0,3.234,7.69,1.65,7.69,7.558c0,3.069-2.08,4.984-6.007,4.984
		c-1.882,0-5.38-0.43-5.38-2.179c0-0.594,0.396-1.947,1.848-1.584c0.595,0.132,2.014,0.759,3.399,0.759
		c1.485,0,2.641-0.726,2.641-1.914c0-3.103-7.69-1.452-7.69-7.294C456.178,574.133,458.158,572.152,462.021,572.152z"/>
</g>
</svg>
