<?xml version="1.0" encoding="utf-8"?>
<!-- Generator: Adobe Illustrator 17.0.0, SVG Export Plug-In . SVG Version: 6.00 Build 0)  -->
<!DOCTYPE svg PUBLIC "-//W3C//DTD SVG 1.1//EN" "http://www.w3.org/Graphics/SVG/1.1/DTD/svg11.dtd">
<svg version="1.1" id="Capa_1" xmlns="http://www.w3.org/2000/svg" xmlns:xlink="http://www.w3.org/1999/xlink" x="0px" y="0px"
	 width="433px" height="612px" viewBox="189.5 0 433 612" enable-background="new 189.5 0 433 612" xml:space="preserve">
<g>
	<path fill="#0098D5" d="M368.306,186.692c-11.835,20.898-29.96,29.427-43.608,85.509c-5.331,22.07-6.61,42.222,0,75.274
		c2.346,11.728,29.427,32.413,58.748,37.21c15.46,2.559,33.692,0.96,59.174-2.559c9.169-1.279,46.38-9.063,48.939-36.464
		c1.919-20.898,9.169-42.861,0-75.274c-7.677-27.401-16.206-40.196-50.218-89.028c-33.905-48.619-31.24-47.766-31.24-47.766
		S380.354,165.261,368.306,186.692"/>
	<path fill="#FFFFFF" d="M492.092,280.731l-6.824-17.166c-53.097,23.883-112.378,11.622-149.268-0.96l-12.688,37.744
		c35.078,14.287,104.488,33.266,173.045-1.919L492.092,280.731z"/>
	<path fill="none" stroke="#004966" stroke-width="8" stroke-linecap="round" stroke-miterlimit="10" d="M371.718,601.018
		c0,0,36.038-105.554-5.118-220.171"/>
	<path fill="none" stroke="#004966" stroke-width="8" stroke-linecap="round" stroke-miterlimit="10" d="M443.9,603.577
		c0,0,36.038-105.554-5.118-220.171"/>
	<path fill="none" stroke="#004966" stroke-width="8" stroke-linecap="round" stroke-miterlimit="10" d="M451.15,196.608
		c-10.022-2.772,49.472,11.622,54.696,81.138c4.265,56.189,33.052,46.806,33.052,90.627"/>
	<path fill="none" stroke="#004966" stroke-width="8" stroke-linecap="round" stroke-miterlimit="10" d="M360.31,196.608
		c10.449-2.879-56.189,13.221-59.281,92.013c-1.706,45.314-21.217,60.454-22.07,92.333"/>
	<path opacity="0.47" fill="#024A60" enable-background="new    " d="M468.849,232.006c-5.331-11.622-12.688-22.284-17.699-34.012
		c-2.665-6.077-6.504-15.247-13.434-17.379c-1.279-1.066-2.666-1.813-4.158-2.346c1.706-0.853,3.412-1.706,5.118-2.665
		c1.919-1.066,3.732-2.346,5.651-3.625c-11.088,3.092-22.177,5.757-31.666,12.794c1.279-0.213,2.559-0.426,3.838-0.64
		c-2.452,2.985-4.052,6.93-4.052,11.515c0,12.475,6.397,23.563,12.794,33.799c10.662,17.272,18.125,31.773,20.578,52.351
		c2.026,17.592,0.32,36.571-3.625,53.737c-3.092,13.434-15.46,21.644-17.912,35.078c-2.452,13.861,8.743,14.287,19.405,11.622
		c2.559,0.746,5.544,0.107,6.93-2.132c3.092-1.066,5.758-2.239,7.57-3.199c21.324-10.555,28.574-29.64,30.067-52.564
		C490.173,292.139,482.177,260.9,468.849,232.006"/>
	<path fill="none" stroke="#004966" stroke-width="8" stroke-linecap="round" stroke-miterlimit="10" d="M365.748,186.692
		c-11.835,20.898-29.96,29.427-43.608,85.509c-5.331,22.07-6.61,42.222,0,75.274c2.346,11.728,29.427,32.413,58.748,37.21
		c15.46,2.559,33.692,0.96,59.174-2.559c9.169-1.279,46.38-9.063,48.939-36.464c1.919-20.898,9.169-42.861,0-75.274
		c-7.783-27.295-16.313-40.089-50.325-88.921c-33.905-48.619-31.24-47.766-31.24-47.766S377.796,165.261,365.748,186.692z"/>
	<path fill="#FFFFFF" d="M473.434,109.179c0,38.383-31.133,69.516-69.516,69.516s-69.516-31.133-69.516-69.516
		s31.133-69.516,69.516-69.516S473.434,70.796,473.434,109.179"/>
	<path fill="#DFDEE4" d="M412.447,177.629c6.61-2.239,13.114-4.371,19.512-7.037c-0.32-0.107-0.64-0.32-1.066-0.426
		c1.706-0.746,3.412-1.599,5.118-2.559c19.618-10.769,42.222-36.144,31.24-58.748c-12.048-24.736-35.505,9.596-43.075,18.552
		c-8.316,9.809-20.791,15.46-33.479,16.42c-2.879-1.386-5.438-1.173-7.57,0c-14.394-1.066-27.828-8.21-34.225-22.07
		c-2.772-5.971-10.769-2.772-11.622,2.559c-5.118-2.559-12.155,3.199-8.53,8.636c1.493,2.132,2.985,4.265,4.585,6.397
		c1.173,5.864,5.224,10.662,9.916,14.607c1.386,1.173,2.985,1.706,4.585,1.599c0.107,1.279,0.746,2.452,1.919,3.305
		c18.978,14.5,41.689,21.004,63.972,16.739C413.3,176.35,412.874,176.883,412.447,177.629"/>
	<path fill="none" stroke="#004966" stroke-width="8" stroke-linecap="round" stroke-miterlimit="10" d="M470.875,109.179
		c0,38.383-31.133,69.516-69.516,69.516s-69.516-31.133-69.516-69.516s31.133-69.516,69.516-69.516S470.875,70.796,470.875,109.179z
		"/>
	<path fill="none" stroke="#004966" stroke-width="8" stroke-linecap="round" stroke-miterlimit="10" d="M371.718,46.486
		c0,0,60.027,6.61,81.884-38.063"/>
	<path fill="none" stroke="#004966" stroke-width="8" stroke-linecap="round" stroke-miterlimit="10" d="M370.972,186.266
		c0,0,10.342,18.125,32.306,18.125s29.001-18.125,29.001-18.125"/>
	<g>
		<path fill="#004966" d="M389.524,93.079c0-4.691-3.838-8.53-8.53-8.53c-4.691,0-8.53,3.838-8.53,8.53
			c0,4.691,3.838,8.53,8.53,8.53C385.792,101.609,389.524,97.771,389.524,93.079z"/>
		<path fill="#004966" d="M431.212,93.079c0-4.691-3.838-8.53-8.53-8.53s-8.53,3.838-8.53,8.53c0,4.691,3.838,8.53,8.53,8.53
			S431.212,97.771,431.212,93.079z"/>
		<path fill="none" stroke="#004966" stroke-width="7.8056" stroke-linecap="round" stroke-miterlimit="10" d="M378.222,143.724
			c4.265-19.831,15.033,4.798,26.442-3.518c4.478-3.305,4.478-10.022,10.022-12.688c5.544-2.772,10.129,1.493,12.155,6.717"/>
	</g>
	<g>
		<path fill="none" stroke="#004966" stroke-width="8" stroke-linecap="round" stroke-miterlimit="10" d="M204.858,368.373
			c0,0,16.206-7.463,15.993-38.383c-0.213-30.813-22.177-47.126-22.177-47.126"/>
		<path fill="none" stroke="#004966" stroke-width="8" stroke-linecap="round" stroke-miterlimit="10" d="M243.561,350.887
			c0,0,12.368-5.757,12.155-29.321s-16.953-36.038-16.953-36.038"/>
	</g>
	<g>
		<path fill="none" stroke="#004966" stroke-width="8" stroke-linecap="round" stroke-miterlimit="10" d="M609.268,376.689
			c0,0-16.206-7.463-15.993-38.383c0.213-30.813,22.177-47.126,22.177-47.126"/>
		<path fill="none" stroke="#004966" stroke-width="8" stroke-linecap="round" stroke-miterlimit="10" d="M570.458,359.203
			c0,0-12.368-5.758-12.155-29.321c0.213-23.563,16.953-36.038,16.953-36.038"/>
	</g>
</g>
<g>
	<path fill="#FFFFFF" stroke="#004966" stroke-width="3" stroke-linecap="round" stroke-miterlimit="10" d="M270.305,537.934
		c0,0-9.952,52.04-3.525,63.443c6.22,11.403,277.2,5.183,286.323,3.732c9.122-1.659,14.306-44.161,5.598-75.883
		c-8.708-31.721-278.029-2.488-278.029-2.488"/>
</g>
<g>
	<path fill="#004966" d="M331.497,556.51c0,0.892-0.825,1.684-1.782,1.684c-0.99,0-1.849-0.792-1.849-1.684v-13.73l-4.555,9.373
		c-0.33,0.693-0.99,1.023-1.716,1.023c-0.727,0-1.354-0.33-1.716-1.023l-4.522-9.373v13.729c0,0.892-0.858,1.684-1.881,1.684
		c-0.99,0-1.749-0.792-1.749-1.684v-20.43c0-1.023,0.792-1.782,1.881-1.782c0.858,0,1.485,0.363,1.848,1.057l6.172,12.739
		l6.139-12.772c0.396-0.76,1.089-1.023,1.848-1.023c1.056,0,1.881,0.792,1.881,1.782v20.43H331.497z"/>
	<path fill="#004966" d="M343.771,546.873c0-1.947-0.99-2.904-3.036-2.904c-0.858,0-1.386,0.197-1.947,0.429l-0.627,0.264
		c-0.198,0.1-0.561,0.165-0.858,0.165c-0.957,0-1.353-0.759-1.353-1.452c0-1.749,2.541-2.442,5.116-2.442
		c4.456,0,6.271,2.344,6.271,6.733v6.7c0,0.824,0.33,0.957,0.825,1.056c0.693,0.132,0.99,0.562,0.99,1.188
		c0,0.924-0.693,1.386-1.947,1.386c-1.155,0-2.013-0.462-2.641-1.485c-1.221,1.057-2.673,1.585-4.488,1.585
		c-3.598,0-5.446-2.014-5.446-5.083v-0.1c0-3.3,2.046-4.983,6.172-4.983c1.023,0,2.013,0.132,2.97,0.396L343.771,546.873
		L343.771,546.873z M338.16,552.945v0.1c0,1.32,0.66,2.079,2.476,2.079c1.122,0,2.112-0.33,3.135-1.155v-2.971
		c-0.957-0.23-2.046-0.363-2.871-0.363C338.589,550.635,338.16,551.691,338.16,552.945z"/>
	<path fill="#004966" d="M355.816,556.444c0,0.924-0.594,1.65-1.782,1.65c-1.188,0-1.782-0.727-1.782-1.65V545.85
		c0-1.452-0.231-1.519-0.429-1.849c-0.264-0.396-0.396-0.594-0.396-0.99c0-0.857,0.726-1.518,1.716-1.518
		c0.627,0,1.155,0.363,1.551,0.957c1.485-1.023,3.102-1.452,4.555-1.452c3.829,0,5.743,2.541,5.743,6.337v9.109
		c0,0.924-0.66,1.65-1.782,1.65c-1.155,0-1.782-0.727-1.782-1.65v-9.109c0-2.079-0.957-3.301-2.607-3.301
		c-0.99,0-2.013,0.363-3.103,1.023c0.066,0.297,0.099,0.561,0.099,0.792L355.816,556.444L355.816,556.444z"/>
	<path fill="#004966" d="M372.381,551.13v1.519c0,1.485,1.023,2.442,3.103,2.442c1.221,0,2.112-0.33,3.201-0.825
		c0.099-0.065,0.33-0.165,0.726-0.165c1.123,0,1.617,0.825,1.617,1.485c0,1.98-3.895,2.541-5.842,2.541
		c-4.06,0-6.37-2.442-6.37-5.644v-5.842c0-3.234,2.277-5.71,6.535-5.71c3.994,0,5.974,2.179,5.974,5.479
		c0,3.103-1.815,4.951-6.007,4.951C374.394,551.361,373.437,551.295,372.381,551.13z M375.285,543.869
		c-1.848,0-2.904,0.99-2.904,2.574v1.947c1.122,0.132,2.409,0.198,2.904,0.198c1.881,0,2.508-0.891,2.508-2.277
		C377.793,544.563,376.902,543.869,375.285,543.869z"/>
	<path fill="#004966" d="M388.386,558.227c0,3.663-2.178,6.304-5.775,6.304c-0.958,0-1.618-0.693-1.618-1.584
		c0-0.892,0.825-1.32,1.419-1.452c1.485-0.298,2.409-1.155,2.409-3.169v-15.645c0-0.891,0.759-1.649,1.782-1.649
		c0.99,0,1.782,0.759,1.782,1.649L388.386,558.227L388.386,558.227z M386.604,538.159c-1.188,0-2.079-0.891-2.079-1.947
		c0-1.089,0.891-1.947,2.079-1.947c1.155,0,2.08,0.892,2.08,1.947C388.683,537.302,387.759,538.159,386.604,538.159z"/>
	<path fill="#004966" d="M401.455,546.873c0-1.947-0.99-2.904-3.037-2.904c-0.857,0-1.386,0.197-1.947,0.429l-0.627,0.264
		c-0.198,0.1-0.561,0.165-0.858,0.165c-0.957,0-1.353-0.759-1.353-1.452c0-1.749,2.541-2.442,5.115-2.442
		c4.456,0,6.271,2.344,6.271,6.733v6.7c0,0.824,0.33,0.957,0.824,1.056c0.693,0.132,0.99,0.562,0.99,1.188
		c0,0.924-0.692,1.386-1.947,1.386c-1.154,0-2.013-0.462-2.641-1.485c-1.221,1.057-2.673,1.585-4.488,1.585
		c-3.597,0-5.445-2.014-5.445-5.083v-0.1c0-3.3,2.046-4.983,6.172-4.983c1.023,0,2.014,0.132,2.971,0.396V546.873z M395.844,552.945
		v0.1c0,1.32,0.66,2.079,2.476,2.079c1.122,0,2.112-0.33,3.136-1.155v-2.971c-0.957-0.23-2.047-0.363-2.871-0.363
		C396.273,550.635,395.844,551.691,395.844,552.945z"/>
	<path fill="#004966" d="M413.499,556.444c0,0.924-0.595,1.65-1.782,1.65c-1.188,0-1.782-0.727-1.782-1.65V545.85
		c0-1.452-0.231-1.519-0.429-1.849c-0.265-0.396-0.396-0.594-0.396-0.99c0-0.857,0.727-1.518,1.717-1.518
		c0.627,0,1.154,0.363,1.551,0.957c1.484-1.023,3.103-1.452,4.555-1.452c3.828,0,5.742,2.541,5.742,6.337v9.109
		c0,0.924-0.66,1.65-1.781,1.65c-1.156,0-1.783-0.727-1.783-1.65v-9.109c0-2.079-0.957-3.301-2.607-3.301
		c-0.99,0-2.013,0.363-3.102,1.023c0.065,0.297,0.099,0.561,0.099,0.792v10.595H413.499z"/>
	<path fill="#004966" d="M435.676,541.691v-6.073c0-0.892,0.627-1.617,1.781-1.617c1.123,0,1.783,0.726,1.783,1.617v18.252
		c0,0.692,0.197,1.089,0.726,1.551c0.231,0.264,0.363,0.528,0.363,0.892c0,1.022-0.858,1.584-1.65,1.584s-1.419-0.462-1.882-1.155
		c-1.518,0.825-3.003,1.386-4.653,1.386c-3.663,0-5.644-2.574-5.644-6.369v-3.961c0-3.928,1.419-6.733,5.875-6.733
		C433.431,541.063,434.486,541.229,435.676,541.691z M435.676,544.628c-1.057-0.396-2.212-0.561-2.872-0.561
		c-2.013,0-2.739,1.188-2.739,3.729v3.961c0,2.145,0.857,3.3,2.674,3.3c0.857,0,1.914-0.297,3.003-0.825
		c-0.065-0.264-0.065-0.495-0.065-0.692L435.676,544.628L435.676,544.628z"/>
	<path fill="#004966" d="M443.429,552.12v-5.215c0-3.399,2.31-6.007,6.667-6.007c4.356,0,6.667,2.607,6.667,6.007v5.215
		c0,3.367-2.311,6.007-6.667,6.007C445.738,558.127,443.429,555.487,443.429,552.12z M453.197,552.12v-5.247
		c0-1.75-1.056-2.839-3.102-2.839c-2.047,0-3.103,1.089-3.103,2.839v5.247c0,1.782,1.056,2.872,3.103,2.872
		S453.197,553.902,453.197,552.12z"/>
	<path fill="#004966" d="M488.607,546.74c0-1.484-0.857-2.673-2.475-2.673c-1.123,0-2.277,0.594-3.137,1.452
		c0.066,0.363,0.133,0.759,0.133,1.155v9.77c0,0.924-0.594,1.65-1.782,1.65s-1.782-0.727-1.782-1.65V547.4
		c0-1.947-0.33-3.333-2.244-3.333c-1.123,0-2.344,0.495-3.301,1.089c0.033,0.231,0.066,0.495,0.066,0.693v10.595
		c0,0.924-0.595,1.65-1.783,1.65s-1.781-0.727-1.781-1.65V545.85c0-1.452-0.231-1.519-0.43-1.849
		c-0.264-0.396-0.396-0.627-0.396-0.957c0-0.924,0.76-1.551,1.684-1.551c0.66,0,1.155,0.363,1.519,0.891
		c1.485-0.924,3.069-1.452,4.653-1.452s2.806,0.528,3.828,1.552c1.585-0.99,3.07-1.552,4.885-1.552c3.73,0,5.908,2.311,5.908,5.743
		v9.77c0,0.924-0.594,1.65-1.782,1.65s-1.782-0.727-1.782-1.65v-9.705H488.607z"/>
	<path fill="#004966" d="M498.834,538.159c-1.188,0-2.078-0.891-2.078-1.947c0-1.089,0.891-1.947,2.078-1.947
		c1.156,0,2.08,0.892,2.08,1.947C500.881,537.302,499.99,538.159,498.834,538.159z M498.834,558.095
		c-1.022,0-1.781-0.693-1.781-1.65v-13.764c0-0.891,0.759-1.649,1.781-1.649c0.99,0,1.783,0.759,1.783,1.649v13.764
		C500.617,557.401,499.824,558.095,498.834,558.095z"/>
	<path fill="#004966" d="M510.649,540.932c1.947,0,4.753,0.495,4.753,2.409c0,0.892-0.595,1.354-1.453,1.354
		c-1.056,0-1.551-0.726-3.3-0.726c-0.825,0-2.344,0.164-2.344,1.584c0,3.234,7.69,1.65,7.69,7.558c0,3.069-2.08,4.984-6.007,4.984
		c-1.882,0-5.38-0.43-5.38-2.179c0-0.594,0.396-1.947,1.848-1.584c0.595,0.132,2.014,0.759,3.4,0.759
		c1.484,0,2.641-0.726,2.641-1.914c0-3.103-7.69-1.452-7.69-7.294C504.808,542.912,506.787,540.932,510.649,540.932z"/>
	<path fill="#004966" d="M346.773,584.13v1.519c0,1.485,1.023,2.442,3.103,2.442c1.221,0,2.112-0.33,3.201-0.825
		c0.099-0.065,0.33-0.165,0.726-0.165c1.123,0,1.617,0.825,1.617,1.485c0,1.98-3.895,2.541-5.842,2.541
		c-4.06,0-6.37-2.442-6.37-5.644v-5.842c0-3.234,2.277-5.71,6.535-5.71c3.994,0,5.974,2.179,5.974,5.479
		c0,3.103-1.815,4.951-6.007,4.951C348.787,584.361,347.83,584.295,346.773,584.13z M349.678,576.869
		c-1.848,0-2.904,0.99-2.904,2.574v1.947c1.122,0.132,2.409,0.198,2.904,0.198c1.881,0,2.508-0.891,2.508-2.277
		C352.186,577.563,351.295,576.869,349.678,576.869z"/>
	<path fill="#004966" d="M377.366,579.74c0-1.484-0.858-2.673-2.475-2.673c-1.123,0-2.277,0.594-3.136,1.452
		c0.066,0.363,0.132,0.759,0.132,1.155v9.77c0,0.924-0.594,1.65-1.782,1.65c-1.188,0-1.783-0.727-1.783-1.65V580.4
		c0-1.947-0.33-3.333-2.244-3.333c-1.122,0-2.343,0.495-3.3,1.089c0.033,0.231,0.066,0.495,0.066,0.693v10.595
		c0,0.924-0.594,1.65-1.782,1.65c-1.188,0-1.782-0.727-1.782-1.65V578.85c0-1.452-0.231-1.519-0.429-1.849
		c-0.264-0.396-0.396-0.627-0.396-0.957c0-0.924,0.759-1.551,1.683-1.551c0.66,0,1.155,0.363,1.519,0.891
		c1.485-0.924,3.069-1.452,4.653-1.452s2.806,0.528,3.829,1.552c1.584-0.99,3.069-1.552,4.885-1.552
		c3.729,0,5.908,2.311,5.908,5.743v9.77c0,0.924-0.594,1.65-1.782,1.65c-1.188,0-1.782-0.727-1.782-1.65v-9.705H377.366z"/>
	<path fill="#004966" d="M384.722,585.12v-5.215c0-3.399,2.31-6.007,6.667-6.007c4.356,0,6.667,2.607,6.667,6.007v5.215
		c0,3.367-2.311,6.007-6.667,6.007C387.032,591.127,384.722,588.487,384.722,585.12z M394.491,585.12v-5.247
		c0-1.75-1.056-2.839-3.102-2.839s-3.103,1.089-3.103,2.839v5.247c0,1.782,1.056,2.872,3.103,2.872
		C393.435,587.992,394.491,586.902,394.491,585.12z"/>
	<path fill="#004966" d="M401.023,580.203c0-3.466,1.947-6.172,6.37-6.172c1.749,0,5.116,0.462,5.116,2.442
		c0,0.692-0.463,1.386-1.584,1.386c-0.265,0-0.496-0.033-0.826-0.132c-0.726-0.33-1.353-0.66-2.441-0.66
		c-2.212,0-3.07,1.155-3.07,3.136v4.72c0,1.979,0.858,3.168,3.07,3.168c1.089,0,1.716-0.33,2.441-0.66
		c0.265-0.099,0.463-0.165,0.793-0.165c1.154,0,1.617,0.727,1.617,1.419c0,1.947-3.367,2.442-5.148,2.442
		c-4.391,0-6.338-2.739-6.338-6.204L401.023,580.203L401.023,580.203z"/>
	<path fill="#004966" d="M417.689,571.159c-1.188,0-2.08-0.891-2.08-1.947c0-1.089,0.892-1.947,2.08-1.947
		c1.154,0,2.079,0.892,2.079,1.947C419.735,570.302,418.844,571.159,417.689,571.159z M417.689,591.095
		c-1.023,0-1.783-0.693-1.783-1.65v-13.764c0-0.891,0.76-1.649,1.783-1.649c0.99,0,1.781,0.759,1.781,1.649v13.764
		C419.471,590.401,418.68,591.095,417.689,591.095z"/>
	<path fill="#004966" d="M423.563,585.12v-5.215c0-3.399,2.311-6.007,6.668-6.007c4.355,0,6.666,2.607,6.666,6.007v5.215
		c0,3.367-2.311,6.007-6.666,6.007C425.873,591.127,423.563,588.487,423.563,585.12z M433.332,585.12v-5.247
		c0-1.75-1.057-2.839-3.102-2.839c-2.047,0-3.104,1.089-3.104,2.839v5.247c0,1.782,1.057,2.872,3.104,2.872
		C432.275,587.992,433.332,586.902,433.332,585.12z"/>
	<path fill="#004966" d="M444.32,589.444c0,0.924-0.594,1.65-1.782,1.65s-1.782-0.727-1.782-1.65V578.85
		c0-1.452-0.23-1.519-0.43-1.849c-0.264-0.396-0.396-0.594-0.396-0.99c0-0.857,0.726-1.518,1.716-1.518
		c0.627,0,1.156,0.363,1.552,0.957c1.485-1.023,3.103-1.452,4.555-1.452c3.828,0,5.743,2.541,5.743,6.337v9.109
		c0,0.924-0.66,1.65-1.783,1.65c-1.154,0-1.781-0.727-1.781-1.65v-9.109c0-2.079-0.957-3.301-2.607-3.301
		c-0.99,0-2.014,0.363-3.104,1.023c0.066,0.297,0.1,0.561,0.1,0.792v10.595H444.32z"/>
	<path fill="#004966" d="M460.886,584.13v1.519c0,1.485,1.022,2.442,3.103,2.442c1.221,0,2.112-0.33,3.201-0.825
		c0.1-0.065,0.33-0.165,0.727-0.165c1.122,0,1.617,0.825,1.617,1.485c0,1.98-3.895,2.541-5.842,2.541
		c-4.061,0-6.37-2.442-6.37-5.644v-5.842c0-3.234,2.277-5.71,6.534-5.71c3.994,0,5.975,2.179,5.975,5.479
		c0,3.103-1.815,4.951-6.007,4.951C462.898,584.361,461.941,584.295,460.886,584.13z M463.79,576.869
		c-1.849,0-2.904,0.99-2.904,2.574v1.947c1.122,0.132,2.409,0.198,2.904,0.198c1.882,0,2.509-0.891,2.509-2.277
		C466.299,577.563,465.407,576.869,463.79,576.869z"/>
	<path fill="#004966" d="M478.541,573.932c1.947,0,4.752,0.495,4.752,2.409c0,0.892-0.594,1.354-1.452,1.354
		c-1.056,0-1.552-0.726-3.3-0.726c-0.826,0-2.344,0.164-2.344,1.584c0,3.234,7.689,1.65,7.689,7.558
		c0,3.069-2.079,4.984-6.006,4.984c-1.882,0-5.381-0.43-5.381-2.179c0-0.594,0.396-1.947,1.849-1.584
		c0.595,0.132,2.013,0.759,3.399,0.759c1.485,0,2.641-0.726,2.641-1.914c0-3.103-7.69-1.452-7.69-7.294
		C472.698,575.912,474.679,573.932,478.541,573.932z"/>
</g>
</svg>
