<?xml version="1.0" encoding="utf-8"?>
<!-- Generator: Adobe Illustrator 17.0.0, SVG Export Plug-In . SVG Version: 6.00 Build 0)  -->
<!DOCTYPE svg PUBLIC "-//W3C//DTD SVG 1.1//EN" "http://www.w3.org/Graphics/SVG/1.1/DTD/svg11.dtd">
<svg version="1.1" id="Capa_1" xmlns="http://www.w3.org/2000/svg" xmlns:xlink="http://www.w3.org/1999/xlink" x="0px" y="0px"
	 width="311.612px" height="612px" viewBox="260.969 0 311.612 612" enable-background="new 260.969 0 311.612 612"
	 xml:space="preserve">
<g>
	<path fill="#0098D5" d="M475.205,186.733c11.786,20.869,29.951,29.411,43.683,85.529c5.406,22.058,6.596,42.278,0,75.148
		c-2.487,11.786-29.519,32.438-58.821,37.304c-15.462,2.595-33.736,0.973-59.146-2.595c-9.191-1.298-46.278-8.975-48.873-36.439
		c-1.946-20.869-9.083-42.818,0-75.148c7.677-27.356,16.219-40.115,50.279-88.989c33.844-48.657,31.249-47.792,31.249-47.792
		S463.094,165.324,475.205,186.733"/>
	<path fill="#FFFFFF" d="M520.185,281.129l-6.812-17.192c-53.09,23.896-112.344,11.57-149.216-0.973L351.398,300.7
		c35.033,14.273,104.451,33.195,173.004-1.946L520.185,281.129z"/>
	<path fill="none" stroke="#004966" stroke-width="8" stroke-linecap="round" stroke-miterlimit="10" d="M451.308,605.402
		c0.973,5.19-4.217-99.153,5.19-220.039"/>
	<path fill="none" stroke="#004966" stroke-width="8" stroke-linecap="round" stroke-miterlimit="10" d="M379.188,607.997
		c0,0,11.353-140.349,25.626-220.039"/>
	<path opacity="0.4" fill="#075B75" enable-background="new    " d="M374.646,231.606c5.406-11.57,12.651-22.058,17.733-33.736
		c2.595-6.055,6.488-15.138,13.408-17.3c1.298-1.081,2.703-1.838,4.109-2.271c-1.73-0.865-3.352-1.73-5.082-2.703
		c-1.838-1.081-3.784-2.271-5.623-3.568c11.029,3.028,22.166,5.731,31.573,12.759c-1.298-0.216-2.595-0.433-3.893-0.649
		c2.487,3.028,4.109,6.92,4.109,11.353c0,12.435-6.488,23.355-12.759,33.628c-10.596,17.084-18.165,31.465-20.544,52.009
		c-2.054,17.409-0.324,36.331,3.676,53.307c3.136,13.3,15.462,21.517,17.841,34.817c2.487,13.732-8.758,14.165-19.355,11.57
		c-2.595,0.757-5.514,0.108-6.92-2.054c-3.028-1.081-5.731-2.271-7.569-3.136c-21.301-10.488-28.546-29.519-29.951-52.225
		C353.345,291.401,361.347,260.26,374.646,231.606"/>
	<path fill="none" stroke="#004966" stroke-width="8" stroke-miterlimit="10" d="M477.691,186.733
		c11.786,20.869,29.951,29.411,43.683,85.529c5.406,22.058,6.596,42.278,0,75.148c-2.379,11.786-29.411,32.33-58.713,37.196
		c-15.462,2.595-33.736,0.973-59.254-2.595c-9.191-1.298-46.278-8.975-48.874-36.439c-1.946-20.869-9.083-42.818,0-75.148
		c7.677-27.356,16.219-40.115,50.279-88.989c33.844-48.657,31.249-47.792,31.249-47.792S465.689,165.324,477.691,186.733z"/>
	<path fill="#FFFFFF" d="M349.344,88.23c-13.083,36.114,5.623,75.905,41.629,88.989c36.114,13.083,75.905-5.623,88.989-41.629
		c13.083-36.114-5.623-75.905-41.629-88.989S362.428,52.115,349.344,88.23"/>
	<path fill="#DFDEE4" d="M382.431,173.326c-5.298-4.325-10.596-8.542-15.462-13.192c0.324,0,0.757-0.108,1.081,0
		c-1.298-1.298-2.595-2.703-3.784-4.109c-14.381-16.868-26.599-48.333-9.083-65.849c19.139-19.247,29.194,21.085,33.087,32.114
		c4.325,12.11,13.948,21.625,25.194,26.816c3.028-0.324,5.298,0.757,6.92,2.595c13.516,3.893,28.113,1.73,38.601-9.083
		c4.541-4.649,10.705,1.081,9.731,6.38c5.514-0.649,10.056,7.136,4.866,10.921c-2.054,1.514-4.109,3.028-6.38,4.433
		c-2.919,5.082-8.326,8.218-13.84,10.38c-1.73,0.649-3.352,0.541-4.649-0.108c-0.541,1.189-1.514,2.054-2.811,2.487
		c-22.166,7.136-45.089,5.623-64.011-6.055C381.999,171.704,382.215,172.461,382.431,173.326"/>
	<path fill="none" stroke="#004966" stroke-width="8" stroke-miterlimit="10" d="M351.831,89.095
		c-13.083,36.114,5.623,75.905,41.629,88.989c36.114,13.083,75.905-5.623,88.989-41.629c13.083-36.114-5.623-75.905-41.629-88.989
		C404.706,34.382,364.915,52.98,351.831,89.095z"/>
	<path fill="none" stroke="#004966" stroke-width="8" stroke-linecap="round" stroke-miterlimit="10" d="M468.284,69.307
		c0,0-58.713-14.273-64.011-63.687"/>
	<path fill="none" stroke="#004966" stroke-width="8" stroke-linecap="round" stroke-miterlimit="10" d="M405.787,182.3
		c0,0-6.488,24.004,15.462,24.004s35.141-31.789,35.141-31.789"/>
	<path fill="#004966" d="M434.332,101.962c0-4.649-3.784-8.542-8.542-8.542c-4.649,0-8.542,3.784-8.542,8.542
		c0,4.649,3.784,8.542,8.542,8.542C430.548,110.396,434.332,106.611,434.332,101.962z"/>
	<path fill="#004966" d="M384.378,101.962c0-4.649-3.784-8.542-8.542-8.542c-4.649,0-8.542,3.784-8.542,8.542
		c0,4.649,3.784,8.542,8.542,8.542C380.593,110.396,384.378,106.611,384.378,101.962z"/>
	<g>
		<g>
			<path fill="#004966" d="M386.432,150.727c1.189-4.758,3.46-9.623,6.488-13.516c7.461-9.407,17.949-8.326,27.572-2.703
				c3.244,1.838,6.163-3.136,2.919-5.082c-10.921-6.38-23.68-8.001-32.979,1.73c-4.649,4.866-8.001,11.461-9.623,17.949
				C379.836,152.89,385.459,154.403,386.432,150.727L386.432,150.727z"/>
		</g>
	</g>
</g>
<path fill="none" stroke="#004966" stroke-width="8" stroke-linecap="round" stroke-miterlimit="10" d="M367.294,145.213
	c0,0,19.03,2.487,8.542,36.223s-72.013,27.572-69.85,57.848c2.163,30.276,89.097-47.252,89.097-47.252"/>
<path fill="none" stroke="#004966" stroke-width="8" stroke-linecap="round" stroke-miterlimit="10" d="M468.284,172.353
	c0.973,1.406,54.712,29.086,57.632,63.687s-39.25,103.802-39.25,103.802s-7.677,23.031,15.03,19.463"/>
<path fill="#FFFFFF" stroke="#004966" stroke-width="3" stroke-linecap="round" stroke-miterlimit="10" d="M273.66,541.827
	c0,0-9.952,52.04-3.525,63.443c6.22,11.403,277.2,5.183,286.323,3.732c9.122-1.659,14.306-44.161,5.598-75.883
	c-8.708-31.721-278.029-2.488-278.029-2.488"/>
<rect x="284.467" y="537.503" fill="none" width="265.562" height="73.496"/>
<g enable-background="new    ">
	<path fill="#004966" d="M340.642,553.11v6.799c0,0.924-0.825,1.782-1.815,1.782c-0.957,0-1.815-0.825-1.815-1.782v-19.836
		c0-1.056,0.958-1.98,2.08-1.98h4.852c5.842,0,7.921,3.631,7.921,7.559c0,4.785-3.103,7.459-7.921,7.459h-3.302V553.11z
		 M340.642,549.744h3.3c2.806,0,4.291-1.32,4.291-4.126c0-2.047-0.792-4.126-4.291-4.126h-3.3V549.744z"/>
	<path fill="#004966" d="M362.95,550.371c0-1.947-0.99-2.904-3.036-2.904c-0.858,0-1.386,0.197-1.947,0.429l-0.627,0.264
		c-0.198,0.1-0.561,0.165-0.858,0.165c-0.957,0-1.354-0.759-1.354-1.452c0-1.749,2.542-2.442,5.116-2.442
		c4.456,0,6.271,2.344,6.271,6.733v6.7c0,0.824,0.33,0.957,0.825,1.056c0.693,0.132,0.99,0.562,0.99,1.188
		c0,0.924-0.693,1.386-1.947,1.386c-1.155,0-2.013-0.462-2.641-1.485c-1.221,1.057-2.673,1.585-4.488,1.585
		c-3.598,0-5.446-2.014-5.446-5.083v-0.1c0-3.3,2.046-4.983,6.172-4.983c1.023,0,2.013,0.132,2.97,0.396L362.95,550.371
		L362.95,550.371z M357.339,556.443v0.1c0,1.32,0.66,2.079,2.476,2.079c1.122,0,2.112-0.33,3.135-1.155v-2.971
		c-0.957-0.23-2.046-0.363-2.871-0.363C357.769,554.133,357.339,555.189,357.339,556.443z"/>
	<path fill="#004966" d="M376.908,544.43c1.947,0,4.752,0.495,4.752,2.409c0,0.892-0.594,1.354-1.452,1.354
		c-1.056,0-1.551-0.726-3.3-0.726c-0.825,0-2.344,0.164-2.344,1.584c0,3.234,7.69,1.65,7.69,7.558c0,3.069-2.08,4.984-6.007,4.984
		c-1.881,0-5.38-0.43-5.38-2.179c0-0.594,0.396-1.947,1.848-1.584c0.594,0.132,2.013,0.759,3.399,0.759
		c1.485,0,2.641-0.726,2.641-1.914c0-3.103-7.69-1.452-7.69-7.294C371.067,546.41,373.046,544.43,376.908,544.43z"/>
	<path fill="#004966" d="M385.025,555.618v-5.215c0-3.399,2.31-6.007,6.667-6.007c4.356,0,6.667,2.607,6.667,6.007v5.215
		c0,3.367-2.311,6.007-6.667,6.007C387.336,561.625,385.025,558.985,385.025,555.618z M394.795,555.618v-5.247
		c0-1.75-1.056-2.839-3.102-2.839s-3.103,1.089-3.103,2.839v5.247c0,1.782,1.056,2.872,3.103,2.872
		C393.738,558.49,394.795,557.4,394.795,555.618z"/>
	<path fill="#004966" d="M420.203,550.371c0-1.947-0.99-2.904-3.036-2.904c-0.858,0-1.386,0.197-1.947,0.429l-0.627,0.264
		c-0.198,0.1-0.562,0.165-0.858,0.165c-0.957,0-1.353-0.759-1.353-1.452c0-1.749,2.541-2.442,5.115-2.442
		c4.456,0,6.271,2.344,6.271,6.733v6.7c0,0.824,0.33,0.957,0.825,1.056c0.693,0.132,0.99,0.562,0.99,1.188
		c0,0.924-0.692,1.386-1.947,1.386c-1.155,0-2.013-0.462-2.641-1.485c-1.221,1.057-2.673,1.585-4.488,1.585
		c-3.598,0-5.445-2.014-5.445-5.083v-0.1c0-3.3,2.046-4.983,6.172-4.983c1.022,0,2.013,0.132,2.97,0.396L420.203,550.371
		L420.203,550.371z M414.593,556.443v0.1c0,1.32,0.66,2.079,2.476,2.079c1.122,0,2.112-0.33,3.135-1.155v-2.971
		c-0.957-0.23-2.046-0.363-2.871-0.363C415.022,554.133,414.593,555.189,414.593,556.443z"/>
	<path fill="#004966" d="M442.148,560.933v5.842c0,0.924-0.66,1.65-1.782,1.65c-1.155,0-1.782-0.76-1.782-1.65v-17.394
		c0-0.925-0.133-1.42-0.463-1.914c-0.197-0.265-0.329-0.495-0.329-0.858c0-0.957,0.857-1.584,1.649-1.584
		c0.627,0,1.122,0.33,1.519,0.857c1.519-0.857,3.004-1.452,4.72-1.452c3.631,0,5.644,2.574,5.644,6.337v4.06
		c0,3.928-1.452,6.767-5.907,6.767C444.392,561.593,443.335,561.428,442.148,560.933z M442.148,558.028
		c1.022,0.396,2.145,0.561,2.871,0.561c2.014,0,2.739-1.188,2.739-3.763v-4.06c0-2.146-0.891-3.268-2.673-3.268
		c-0.925,0-1.98,0.33-3.069,0.892c0.065,0.363,0.132,0.693,0.132,0.99V558.028z"/>
	<path fill="#004966" d="M463.268,550.371c0-1.947-0.99-2.904-3.036-2.904c-0.858,0-1.386,0.197-1.947,0.429l-0.627,0.264
		c-0.198,0.1-0.562,0.165-0.858,0.165c-0.957,0-1.353-0.759-1.353-1.452c0-1.749,2.541-2.442,5.115-2.442
		c4.456,0,6.271,2.344,6.271,6.733v6.7c0,0.824,0.33,0.957,0.825,1.056c0.693,0.132,0.99,0.562,0.99,1.188
		c0,0.924-0.692,1.386-1.947,1.386c-1.155,0-2.013-0.462-2.641-1.485c-1.221,1.057-2.673,1.585-4.488,1.585
		c-3.598,0-5.445-2.014-5.445-5.083v-0.1c0-3.3,2.046-4.983,6.172-4.983c1.022,0,2.013,0.132,2.97,0.396L463.268,550.371
		L463.268,550.371z M457.657,556.443v0.1c0,1.32,0.66,2.079,2.476,2.079c1.122,0,2.112-0.33,3.135-1.155v-2.971
		c-0.957-0.23-2.046-0.363-2.871-0.363C458.086,554.133,457.657,555.189,457.657,556.443z"/>
	<path fill="#004966" d="M477.226,544.43c1.947,0,4.753,0.495,4.753,2.409c0,0.892-0.595,1.354-1.452,1.354
		c-1.057,0-1.552-0.726-3.301-0.726c-0.825,0-2.344,0.164-2.344,1.584c0,3.234,7.69,1.65,7.69,7.558
		c0,3.069-2.079,4.984-6.007,4.984c-1.881,0-5.38-0.43-5.38-2.179c0-0.594,0.396-1.947,1.849-1.584
		c0.594,0.132,2.013,0.759,3.399,0.759c1.485,0,2.641-0.726,2.641-1.914c0-3.103-7.69-1.452-7.69-7.294
		C471.384,546.41,473.364,544.43,477.226,544.43z"/>
	<path fill="#004966" d="M485.343,555.618v-5.215c0-3.399,2.311-6.007,6.667-6.007s6.667,2.607,6.667,6.007v5.215
		c0,3.367-2.311,6.007-6.667,6.007S485.343,558.985,485.343,555.618z M495.112,555.618v-5.247c0-1.75-1.057-2.839-3.103-2.839
		s-3.103,1.089-3.103,2.839v5.247c0,1.782,1.057,2.872,3.103,2.872S495.112,557.4,495.112,555.618z"/>
</g>
<g enable-background="new    ">
	<path fill="#004966" d="M288.931,583.701c0-3.466,1.947-6.172,6.37-6.172c1.75,0,5.116,0.462,5.116,2.442
		c0,0.692-0.462,1.386-1.584,1.386c-0.264,0-0.495-0.033-0.825-0.132c-0.726-0.33-1.353-0.66-2.442-0.66
		c-2.211,0-3.069,1.155-3.069,3.136v4.72c0,1.979,0.858,3.168,3.069,3.168c1.089,0,1.716-0.33,2.442-0.66
		c0.264-0.099,0.462-0.165,0.792-0.165c1.155,0,1.617,0.727,1.617,1.419c0,1.947-3.366,2.442-5.148,2.442
		c-4.39,0-6.337-2.739-6.337-6.204L288.931,583.701L288.931,583.701z"/>
	<path fill="#004966" d="M302.692,588.618v-5.215c0-3.399,2.31-6.007,6.667-6.007c4.356,0,6.667,2.607,6.667,6.007v5.215
		c0,3.367-2.311,6.007-6.667,6.007C305.002,594.625,302.692,591.985,302.692,588.618z M312.461,588.618v-5.247
		c0-1.75-1.056-2.839-3.102-2.839s-3.103,1.089-3.103,2.839v5.247c0,1.782,1.056,2.872,3.103,2.872
		C311.405,591.49,312.461,590.4,312.461,588.618z"/>
	<path fill="#004966" d="M323.449,592.942c0,0.924-0.594,1.65-1.782,1.65c-1.188,0-1.782-0.727-1.782-1.65v-10.595
		c0-1.452-0.231-1.519-0.429-1.849c-0.264-0.396-0.396-0.594-0.396-0.99c0-0.857,0.726-1.518,1.716-1.518
		c0.627,0,1.155,0.363,1.551,0.957c1.485-1.023,3.103-1.452,4.555-1.452c3.828,0,5.743,2.541,5.743,6.337v9.109
		c0,0.924-0.66,1.65-1.782,1.65c-1.155,0-1.782-0.727-1.782-1.65v-9.109c0-2.079-0.957-3.301-2.607-3.301
		c-0.99,0-2.013,0.363-3.103,1.023c0.066,0.297,0.099,0.561,0.099,0.792L323.449,592.942L323.449,592.942z"/>
	<path fill="#004966" d="M337.242,574.295c0-0.925,0.627-1.65,1.782-1.65c1.122,0,1.782,0.759,1.782,1.65v4.092h2.938
		c0.924,0,1.683,0.693,1.683,1.617c0,0.892-0.759,1.585-1.683,1.585h-2.938v5.775c0,2.904,0.264,3.961,2.244,3.961
		c0.231,0,0.462-0.033,0.594-0.033c1.419,0,2.211,0.363,2.211,1.485c0,1.518-1.254,1.716-2.542,1.716
		c-4.852,0-6.073-2.376-6.073-6.897v-13.301H337.242z"/>
	<path fill="#004966" d="M352.357,581.621c0.033,0.298,0.066,0.528,0.066,0.76v10.562c0,0.957-0.792,1.683-1.782,1.683
		c-1.023,0-1.782-0.726-1.782-1.683v-10.562c0-0.925-0.132-1.42-0.462-1.914c-0.198-0.265-0.33-0.495-0.33-0.892
		c0-0.924,0.792-1.551,1.716-1.551c0.594,0,1.123,0.396,1.519,0.957c1.485-0.892,3.168-1.42,4.323-1.42
		c1.684,0,2.211,0.693,2.211,1.617c0,1.057-0.825,1.75-1.815,1.684C354.634,580.829,353.743,580.796,352.357,581.621z"/>
	<path fill="#004966" d="M366.348,594.625c-3.729,0-5.677-2.574-5.677-6.369v-9.109c0-0.925,0.627-1.617,1.782-1.617
		c1.122,0,1.782,0.692,1.782,1.617v9.109c0,2.112,0.858,3.3,2.574,3.3c0.99,0,2.046-0.33,3.103-0.891
		c-0.033-0.297-0.066-0.562-0.066-0.792v-10.727c0-0.925,0.594-1.617,1.782-1.617s1.782,0.692,1.782,1.617v11.057
		c0,1.154,0.264,1.287,0.594,1.749c0.198,0.23,0.363,0.495,0.363,0.891c0,0.957-0.825,1.585-1.683,1.585
		c-0.726,0-1.287-0.463-1.716-1.123C369.483,594.263,367.866,594.625,366.348,594.625z"/>
	<path fill="#004966" d="M385.852,592.084c-1.684,5.215-2.938,8.978-7.591,8.978c-1.056,0-1.815-0.693-1.815-1.617
		c0-0.792,0.627-1.552,1.684-1.617c1.749,0,2.574-1.188,3.499-3.961l-5.182-14.126c-0.099-0.231-0.099-0.495-0.099-0.66
		c0-0.891,0.759-1.551,1.783-1.551c0.66,0,1.353,0.362,1.617,1.122l0.297,0.891c1.122,3.334,2.244,6.634,3.333,10.033
		c0.99-3.696,2.013-7.294,3.135-10.924c0.231-0.76,1.023-1.122,1.684-1.122c0.891,0,1.782,0.66,1.782,1.649
		c0,0.165-0.033,0.33-0.099,0.495L385.852,592.084z"/>
	<path fill="#004966" d="M392.021,588.618v-5.215c0-3.399,2.31-6.007,6.667-6.007c4.356,0,6.667,2.607,6.667,6.007v5.215
		c0,3.367-2.311,6.007-6.667,6.007C394.331,594.625,392.021,591.985,392.021,588.618z M401.79,588.618v-5.247
		c0-1.75-1.056-2.839-3.102-2.839s-3.103,1.089-3.103,2.839v5.247c0,1.782,1.056,2.872,3.103,2.872
		C400.734,591.49,401.79,590.4,401.79,588.618z"/>
	<path fill="#004966" d="M437.2,583.238c0-1.484-0.858-2.673-2.476-2.673c-1.122,0-2.277,0.594-3.136,1.452
		c0.066,0.363,0.133,0.759,0.133,1.155v9.77c0,0.924-0.595,1.65-1.783,1.65s-1.782-0.727-1.782-1.65v-9.044
		c0-1.947-0.33-3.333-2.244-3.333c-1.122,0-2.343,0.495-3.3,1.089c0.032,0.231,0.065,0.495,0.065,0.693v10.595
		c0,0.924-0.594,1.65-1.782,1.65s-1.782-0.727-1.782-1.65v-10.595c0-1.452-0.23-1.519-0.429-1.849
		c-0.265-0.396-0.396-0.627-0.396-0.957c0-0.924,0.76-1.551,1.684-1.551c0.66,0,1.155,0.363,1.518,0.891
		c1.485-0.924,3.07-1.452,4.654-1.452s2.806,0.528,3.828,1.552c1.585-0.99,3.069-1.552,4.885-1.552c3.729,0,5.908,2.311,5.908,5.743
		v9.77c0,0.924-0.594,1.65-1.782,1.65s-1.782-0.727-1.782-1.65L437.2,583.238L437.2,583.238z"/>
	<path fill="#004966" d="M447.427,574.657c-1.188,0-2.079-0.891-2.079-1.947c0-1.089,0.892-1.947,2.079-1.947
		c1.155,0,2.08,0.892,2.08,1.947C449.474,573.8,448.582,574.657,447.427,574.657z M447.427,594.593c-1.022,0-1.782-0.693-1.782-1.65
		v-13.764c0-0.891,0.76-1.649,1.782-1.649c0.99,0,1.782,0.759,1.782,1.649v13.764C449.209,593.899,448.417,594.593,447.427,594.593z
		"/>
	<path fill="#004966" d="M463.992,576.803c0-4.258,2.772-6.205,6.238-6.304c0.693-0.033,3.531,0,3.531,1.848
		c0,0.99-0.825,1.585-1.749,1.585c-0.594,0-1.222-0.198-1.98-0.198c-1.684,0-2.476,1.287-2.476,2.838v1.815h2.938
		c0.925,0,1.684,0.693,1.684,1.617c0,0.892-0.759,1.585-1.684,1.585h-2.938v11.32c0,0.891-0.66,1.617-1.782,1.617
		c-1.155,0-1.782-0.727-1.782-1.617L463.992,576.803L463.992,576.803z"/>
	<path fill="#004966" d="M481.187,594.625c-3.729,0-5.677-2.574-5.677-6.369v-9.109c0-0.925,0.627-1.617,1.782-1.617
		c1.122,0,1.782,0.692,1.782,1.617v9.109c0,2.112,0.858,3.3,2.574,3.3c0.99,0,2.046-0.33,3.103-0.891
		c-0.033-0.297-0.066-0.562-0.066-0.792v-10.727c0-0.925,0.595-1.617,1.782-1.617c1.188,0,1.782,0.692,1.782,1.617v11.057
		c0,1.154,0.265,1.287,0.595,1.749c0.197,0.23,0.362,0.495,0.362,0.891c0,0.957-0.824,1.585-1.683,1.585
		c-0.727,0-1.287-0.463-1.717-1.123C484.321,594.263,482.704,594.625,481.187,594.625z"/>
	<path fill="#004966" d="M492.966,574.295c0-0.925,0.627-1.65,1.782-1.65c1.122,0,1.782,0.759,1.782,1.65v4.092h2.938
		c0.925,0,1.684,0.693,1.684,1.617c0,0.892-0.759,1.585-1.684,1.585h-2.938v5.775c0,2.904,0.265,3.961,2.244,3.961
		c0.231,0,0.463-0.033,0.595-0.033c1.419,0,2.211,0.363,2.211,1.485c0,1.518-1.254,1.716-2.541,1.716
		c-4.852,0-6.073-2.376-6.073-6.897L492.966,574.295L492.966,574.295z"/>
	<path fill="#004966" d="M509.83,594.625c-3.729,0-5.677-2.574-5.677-6.369v-9.109c0-0.925,0.627-1.617,1.782-1.617
		c1.122,0,1.782,0.692,1.782,1.617v9.109c0,2.112,0.858,3.3,2.574,3.3c0.99,0,2.046-0.33,3.103-0.891
		c-0.033-0.297-0.066-0.562-0.066-0.792v-10.727c0-0.925,0.595-1.617,1.782-1.617c1.188,0,1.782,0.692,1.782,1.617v11.057
		c0,1.154,0.265,1.287,0.595,1.749c0.197,0.23,0.362,0.495,0.362,0.891c0,0.957-0.824,1.585-1.683,1.585
		c-0.727,0-1.287-0.463-1.717-1.123C512.965,594.263,511.348,594.625,509.83,594.625z"/>
	<path fill="#004966" d="M525.207,581.621c0.033,0.298,0.066,0.528,0.066,0.76v10.562c0,0.957-0.792,1.683-1.782,1.683
		c-1.023,0-1.782-0.726-1.782-1.683v-10.562c0-0.925-0.133-1.42-0.463-1.914c-0.197-0.265-0.33-0.495-0.33-0.892
		c0-0.924,0.793-1.551,1.717-1.551c0.594,0,1.122,0.396,1.519,0.957c1.484-0.892,3.168-1.42,4.323-1.42
		c1.684,0,2.211,0.693,2.211,1.617c0,1.057-0.825,1.75-1.814,1.684C527.484,580.829,526.594,580.796,525.207,581.621z"/>
	<path fill="#004966" d="M532.631,588.618v-5.215c0-3.399,2.311-6.007,6.667-6.007s6.667,2.607,6.667,6.007v5.215
		c0,3.367-2.311,6.007-6.667,6.007S532.631,591.985,532.631,588.618z M542.4,588.618v-5.247c0-1.75-1.057-2.839-3.103-2.839
		s-3.103,1.089-3.103,2.839v5.247c0,1.782,1.057,2.872,3.103,2.872S542.4,590.4,542.4,588.618z"/>
</g>
</svg>
