<?xml version="1.0" encoding="utf-8"?>
<!-- Generator: Adobe Illustrator 19.0.0, SVG Export Plug-In . SVG Version: 6.00 Build 0)  -->
<svg version="1.1" id="Capa_1" xmlns="http://www.w3.org/2000/svg" xmlns:xlink="http://www.w3.org/1999/xlink" x="0px" y="0px"
	 viewBox="90 91 792 612" style="enable-background:new 90 91 792 612;" xml:space="preserve">
<style type="text/css">
	.st0{fill:#CBCBCB;stroke:#004966;stroke-width:11;stroke-linecap:round;stroke-miterlimit:10;}
	.st1{fill:#FFFFFF;stroke:#004966;stroke-width:11;stroke-linecap:round;stroke-miterlimit:10;}
	.st2{fill:#FFFFFF;stroke:#004966;stroke-width:8.115;stroke-linecap:round;stroke-miterlimit:10;}
	.st3{fill:#FFFFFF;stroke:#004966;stroke-width:4.3326;stroke-linecap:round;stroke-miterlimit:10;}
	.st4{fill:#FFFFFF;stroke:#004966;stroke-width:6.5965;stroke-linecap:round;stroke-miterlimit:10;}
	.st5{fill:#656565;stroke:#004966;stroke-width:7.5747;stroke-linecap:round;stroke-miterlimit:10;}
	.st6{fill:#FFFFFF;stroke:#004966;stroke-width:7.4688;stroke-linecap:round;stroke-miterlimit:10;}
	.st7{fill:#209AB7;}
	.st8{opacity:0.2;fill:#F0F0EF;enable-background:new    ;}
	.st9{fill:none;stroke:#004966;stroke-width:2.1663;stroke-linecap:round;stroke-miterlimit:10;}
	.st10{fill:none;stroke:#004966;stroke-width:8.6652;stroke-linecap:round;stroke-miterlimit:10;}
	.st11{opacity:0.56;fill:#034154;enable-background:new    ;}
	.st12{fill:none;stroke:#004966;stroke-width:8;stroke-linecap:round;stroke-miterlimit:10;}
	.st13{fill:#F0F0EF;stroke:#004966;stroke-width:8.6652;stroke-linecap:round;stroke-miterlimit:10;}
	.st14{fill:#0098D5;}
	.st15{fill:#FFFFFF;}
	.st16{fill:none;stroke:#004966;stroke-width:8;stroke-miterlimit:10;}
	.st17{fill:#DFDEE4;}
	.st18{fill:#F0F0EF;}
	.st19{fill:#CBCBCB;}
	.st20{fill:#004966;}
	.st21{fill:#FFFFFF;stroke:#004966;stroke-width:3;stroke-linecap:round;stroke-miterlimit:10;}
</style>
<g>
	<g>
		<polyline class="st0" points="357.5,439.1 357.5,577 717.8,637 847,543 848.6,408.8 		"/>
		<polygon class="st1" points="321.7,415.5 323,444.5 717,504.9 858,424.8 858,393.8 477.7,363.8 		"/>
		<path class="st2" d="M321.7,415.5c4.1,0,154.4-54.5,154.4-54.5l373.5,33.8L713.6,471L321.7,415.5z"/>
		<path class="st3" d="M500.8,388.1c0.9,0,35.8-12.6,35.8-12.6l86.4,7.9l-31.4,17.6L500.8,388.1z"/>
		<path class="st4" d="M417.9,416.5c1.4,0,53.2-24,53.2-24l161.9,21.9l-47.9,26.9L417.9,416.5z"/>
		<g>
			<g>
				<polygon class="st0" points="593.8,378.3 579.7,380.9 563.5,308.3 594.3,308.3 				"/>
				<polygon class="st1" points="579.7,381.4 550.9,379.1 550.9,308.3 578.8,308.3 				"/>
			</g>
			<polygon class="st5" points="462.6,114.9 667.6,338 688.6,328.1 682.7,118.7 			"/>
			<polygon class="st6" points="447.1,114.9 440.9,316 669.1,336.9 664.1,118.6 			"/>
			<polygon class="st7" points="457.4,132.1 650.7,132.1 654.6,318.6 452,298.5 			"/>
			<path class="st8" d="M635.6,144.8L469.9,248.5l92.1-34.8c0,0-81.2,55.4-78.6,54.8c2.6-0.6,145.1-76.7,145.1-76.7l-43.8,2.6"/>
		</g>
		<g>
			<line class="st9" x1="477.6" y1="400.7" x2="598.4" y2="416.5"/>
			<line class="st9" x1="469.3" y1="405.2" x2="589.1" y2="420.5"/>
			<line class="st9" x1="457.3" y1="409.1" x2="584.7" y2="425.8"/>
			<line class="st9" x1="445.6" y1="413.4" x2="579.3" y2="431.5"/>
		</g>
		<line class="st10" x1="705.8" y1="502.7" x2="709.3" y2="632.6"/>
	</g>
	<ellipse class="st11" cx="541.6" cy="416.5" rx="18.2" ry="12.3"/>
	<path class="st12" d="M317.5,594.2c-0.8,3.4-10.1,88.3-10.1,88.3"/>
	<path class="st13" d="M439.8,555.1c0,41.8-63.9,75.6-142.8,75.6s-142.8-33.9-142.8-75.6c0-41.7,63.9-75.6,142.8-75.6
		S439.8,513.2,439.8,555.1z"/>
	<g>
		<path class="st14" d="M242.8,283.2c-13.8,24.4-23.6,35.7-39.6,101.3c-6.3,25.8-6,72.4,1.8,110.8c2.8,13.8,21.2,13.6,55.4,19.3
			c18.1,3,39.4,1.1,69.3-3c10.8-1.6,54.2-10.5,57.2-42.6c2.3-24.4,10.6-50.1,0-87.9c-9-31.9-18.9-46.9-58.7-104.1
			c-39.6-56.9-36.5-55.8-36.5-55.8S256.9,258.3,242.8,283.2"/>
		<path class="st14" d="M356.9,508.8c52.4-19.7-12.4-64.2-23.5-107.5c-8.2-31.7,11.5-31.8-7.4-58.7c-7.8-11.1,5.1-30.7-1.1-42.7
			c-5.3-9.9-13.1-4.3-20.8-12.6c-21.1-23-44.4-26.5-56-10.2c-18.9,26.4-33.6,26.7-34.1,59.1c-0.7,39.3-26.3,145.2-18.2,162.3
			c14.8,10.4,30.7,18.8,49.7,21.3C281.5,524.1,322.7,521.5,356.9,508.8"/>
		<path class="st15" d="M382.9,397.9l-7.3-18.5c-57.1,25.7-121,12.4-160.7-1L201.1,419c37.7,15.4,112.5,35.8,186.3-2.1L382.9,397.9z
			"/>
		<path class="st16" d="M239.8,283.2c-13.8,24.4-18.8,20.7-34.8,86.3c-6.3,25.8-7.8,87.4,0,125.8c2.8,13.8,18.2,13.6,52.4,19.3
			c18.1,3,39.4,1.1,69.2-3c10.8-1.6,54.2-10.5,57.2-42.6c2.3-24.4,10.6-50.1,0-87.9c-9-31.9-18.9-46.9-58.7-104.1
			c-39.6-56.9-36.5-55.8-36.5-55.8S253.9,258.3,239.8,283.2z"/>
		<path class="st15" d="M365.7,192.8c0,44.9-36.4,81.3-81.3,81.3s-81.3-36.4-81.3-81.3s36.4-81.3,81.3-81.3S365.7,147.9,365.7,192.8
			"/>
		<path class="st17" d="M231,264c7.2,3.6,14.5,7.3,21.9,10.3c-0.2-0.4-0.3-0.8-0.5-1.2c2.1,0.7,4.1,1.4,6.3,2.1
			c25.2,7.3,64.7,5.1,74.4-22.7c10.5-30.4-37.2-21.4-51-20.2c-15,1.3-30-4.4-41.3-14.2c-1.1-3.5-3.5-5.5-6.2-6.2
			c-11.1-12.7-16.2-29.8-10-46.5c2.7-7.2-6.6-11.2-11.8-7.4c-2.2-6.3-12.6-7.4-14.1,0.1c-0.6,3-1.1,6-1.6,9.1
			c-3.8,5.8-4.4,13.1-3.8,20.3c0.2,2.2,1.1,3.8,2.5,5.1c-0.9,1.1-1.4,2.7-1.2,4.3c3.7,27.7,17.1,51.9,39.1,66.7
			C232.7,263.7,231.8,263.8,231,264"/>
		<path class="st16" d="M362.7,192.8c0,44.9-36.4,81.3-81.3,81.3s-81.3-36.4-81.3-81.3s36.4-81.3,81.3-81.3
			C326.3,111.5,362.7,147.9,362.7,192.8z"/>
		<path class="st12" d="M333.4,130.3c0,0,23.9-0.6,23.9-18.8"/>
		<path class="st12" d="M325.1,314.7c-5.2,30.3,51,156.2,212.9,98.1"/>
		<path class="st12" d="M247.9,277c0,0,11.8,20.6,36.7,20.6c24.9,0,32.9-20.6,32.9-20.6"/>
		<path class="st12" d="M315.7,520.1c0,0,2.5,37.8,28.6,28.6c26.1-9.2,74.9-51.3,81.6-37.8c6.7,13.4,8.4,20.2,8.4,20.2"/>
		<path class="st12" d="M425,594.2c-0.8,3.4-10.1,88.3-10.1,88.3"/>
	</g>
	<g>
		<path class="st18" d="M364.3,475.7c0,67.4-55.1,122.6-122.5,122.6h-6C168.3,598.3,114,543,114,475.7v-62.9
			c0-67.4,54.3-122.7,121.7-122.7h6c67.4,0,122.5,55.2,122.5,122.7V475.7z"/>
		<path class="st19" d="M170.9,483.2v-68.6c0-55.1,30.9-103.1,78.6-123.5c-1.3,0-5.2-1-6.6-1h-7.1C168.3,290.2,114,346.5,114,414
			v59.7c0,64.5,52.3,117.1,115.7,121.6C193,571.3,170.9,530.1,170.9,483.2z"/>
		<path class="st20" d="M375.6,479.4c0,71.7-58.5,129.2-130.2,129.2h-2.1C171.7,608.6,114,551,114,479.4v-70.3
			c0-71.7,57.7-129.2,129.3-129.2h2.1c71.7,0,130.2,57.7,130.2,129.2V479.4z M364.3,409.8c0-65.9-53.9-119.6-119.7-119.6h-0.7
			c-65.9,0-119.5,53.8-119.5,119.6v69c0,65.9,53.7,119.4,119.5,119.4h0.7c65.9,0,119.7-53.7,119.7-119.4V409.8z"/>
	</g>
</g>
<path class="st21" d="M453.6,590c0,0-14,73.1-5,89.1c8.7,16,389.4,7.3,402.2,5.2c12.8-2.3,20.1-62,7.9-106.6
	c-12.2-44.6-390.5-3.5-390.5-3.5"/>
<g>
	<path class="st20" d="M531.2,637.5c0,1.3-1.2,2.4-2.5,2.4c-1.4,0-2.6-1.1-2.6-2.4v-19.3l-6.4,13.2c-0.5,1-1.4,1.4-2.4,1.4
		c-1,0-1.9-0.5-2.4-1.4l-6.4-13.2v19.3c0,1.3-1.2,2.4-2.6,2.4c-1.4,0-2.5-1.1-2.5-2.4v-28.7c0-1.4,1.1-2.5,2.6-2.5
		c1.2,0,2.1,0.5,2.6,1.5l8.7,17.9l8.6-17.9c0.6-1.1,1.5-1.4,2.6-1.4c1.5,0,2.6,1.1,2.6,2.5L531.2,637.5L531.2,637.5z"/>
	<path class="st20" d="M548.4,624c0-2.7-1.4-4.1-4.3-4.1c-1.2,0-1.9,0.3-2.7,0.6l-0.9,0.4c-0.3,0.1-0.8,0.2-1.2,0.2
		c-1.3,0-1.9-1.1-1.9-2c0-2.5,3.6-3.4,7.2-3.4c6.3,0,8.8,3.3,8.8,9.5v9.4c0,1.2,0.5,1.3,1.2,1.5c1,0.2,1.4,0.8,1.4,1.7
		c0,1.3-1,1.9-2.7,1.9c-1.6,0-2.8-0.6-3.7-2.1c-1.7,1.5-3.8,2.2-6.3,2.2c-5.1,0-7.7-2.8-7.7-7.1v-0.1c0-4.6,2.9-7,8.7-7
		c1.4,0,2.8,0.2,4.2,0.6L548.4,624L548.4,624z M540.5,632.5v0.1c0,1.9,0.9,2.9,3.5,2.9c1.6,0,3-0.5,4.4-1.6v-4.2
		c-1.3-0.3-2.9-0.5-4-0.5C541.1,629.2,540.5,630.7,540.5,632.5z"/>
	<path class="st20" d="M565.3,637.4c0,1.3-0.8,2.3-2.5,2.3c-1.7,0-2.5-1-2.5-2.3v-14.9c0-2-0.3-2.1-0.6-2.6
		c-0.4-0.6-0.6-0.8-0.6-1.4c0-1.2,1-2.1,2.4-2.1c0.9,0,1.6,0.5,2.2,1.3c2.1-1.4,4.4-2,6.4-2c5.4,0,8.1,3.6,8.1,8.9v12.8
		c0,1.3-0.9,2.3-2.5,2.3c-1.6,0-2.5-1-2.5-2.3v-12.8c0-2.9-1.3-4.6-3.7-4.6c-1.4,0-2.8,0.5-4.4,1.4c0.1,0.4,0.1,0.8,0.1,1.1
		L565.3,637.4L565.3,637.4z"/>
	<path class="st20" d="M583.6,631.3V624c0-4.8,3.2-8.4,9.4-8.4c6.1,0,9.4,3.7,9.4,8.4v7.3c0,4.7-3.2,8.4-9.4,8.4
		C586.8,639.8,583.6,636.1,583.6,631.3z M597.3,631.3V624c0-2.5-1.5-4-4.4-4c-2.9,0-4.4,1.5-4.4,4v7.4c0,2.5,1.5,4,4.4,4
		C595.8,635.4,597.3,633.8,597.3,631.3z"/>
	<path class="st20" d="M614.8,615.6c2.7,0,6.7,0.7,6.7,3.4c0,1.3-0.8,1.9-2,1.9c-1.5,0-2.2-1-4.6-1c-1.2,0-3.3,0.2-3.3,2.2
		c0,4.5,10.8,2.3,10.8,10.6c0,4.3-2.9,7-8.4,7c-2.6,0-7.6-0.6-7.6-3.1c0-0.8,0.6-2.7,2.6-2.2c0.8,0.2,2.8,1.1,4.8,1.1
		c2.1,0,3.7-1,3.7-2.7c0-4.4-10.8-2-10.8-10.2C606.6,618.4,609.4,615.6,614.8,615.6z"/>
	<path class="st20" d="M652.8,624c0-2.7-1.4-4.1-4.3-4.1c-1.2,0-1.9,0.3-2.7,0.6l-0.9,0.4c-0.3,0.1-0.8,0.2-1.2,0.2
		c-1.3,0-1.9-1.1-1.9-2c0-2.5,3.6-3.4,7.2-3.4c6.3,0,8.8,3.3,8.8,9.5v9.4c0,1.2,0.5,1.3,1.2,1.5c1,0.2,1.4,0.8,1.4,1.7
		c0,1.3-1,1.9-2.7,1.9c-1.6,0-2.8-0.6-3.7-2.1c-1.7,1.5-3.8,2.2-6.3,2.2c-5.1,0-7.6-2.8-7.6-7.1v-0.1c0-4.6,2.9-7,8.7-7
		c1.4,0,2.8,0.2,4.2,0.6L652.8,624L652.8,624z M644.9,632.5v0.1c0,1.9,0.9,2.9,3.5,2.9c1.6,0,3-0.5,4.4-1.6v-4.2
		c-1.3-0.3-2.9-0.5-4-0.5C645.5,629.2,644.9,630.7,644.9,632.5z"/>
	<path class="st20" d="M678.4,634.7v-26.5c0-1.3,1.1-2.3,2.5-2.3c1.4,0,2.5,1,2.5,2.3v26.2c0,1,0,1.4,0.6,2c0.3,0.3,0.6,0.6,0.6,1.3
		c0,1.3-1,2.1-2.6,2.1C680.6,639.8,678.4,639.2,678.4,634.7z"/>
	<path class="st20" d="M701.4,624c0-2.7-1.4-4.1-4.3-4.1c-1.2,0-1.9,0.3-2.7,0.6l-0.9,0.4c-0.3,0.1-0.8,0.2-1.2,0.2
		c-1.3,0-1.9-1.1-1.9-2c0-2.5,3.6-3.4,7.2-3.4c6.3,0,8.8,3.3,8.8,9.5v9.4c0,1.2,0.5,1.3,1.2,1.5c1,0.2,1.4,0.8,1.4,1.7
		c0,1.3-1,1.9-2.7,1.9c-1.6,0-2.8-0.6-3.7-2.1c-1.7,1.5-3.8,2.2-6.3,2.2c-5.1,0-7.7-2.8-7.7-7.1v-0.1c0-4.6,2.9-7,8.7-7
		c1.4,0,2.8,0.2,4.2,0.6L701.4,624L701.4,624z M693.6,632.5v0.1c0,1.9,0.9,2.9,3.5,2.9c1.6,0,3-0.5,4.4-1.6v-4.2
		c-1.3-0.3-2.9-0.5-4-0.5C694.2,629.2,693.6,630.7,693.6,632.5z"/>
	<path class="st20" d="M726,631.3V624c0-4.8,3.2-8.4,9.4-8.4c6.1,0,9.4,3.7,9.4,8.4v7.3c0,4.7-3.2,8.4-9.4,8.4
		C729.2,639.8,726,636.1,726,631.3z M739.7,631.3V624c0-2.5-1.5-4-4.4-4c-2.9,0-4.4,1.5-4.4,4v7.4c0,2.5,1.5,4,4.4,4
		C738.2,635.4,739.7,633.8,739.7,631.3z"/>
	<path class="st20" d="M750,608.2c0-1.2,0.9-2.3,2.5-2.3c1.6,0,2.5,1.1,2.5,2.3v9c1.6-1,3.2-1.6,5.6-1.6c5.6,0,7.7,3.2,7.7,7.5v8.3
		c0,4.7-3.1,8.4-9.2,8.4c-5.8,0-9.2-3.3-9.2-7.6L750,608.2L750,608.2z M755,632.2c0,2.1,1.6,3.4,4.2,3.4c2.8,0,4.2-1.5,4.2-4v-8.6
		c0-2.1-1.2-3.3-3.8-3.3c-1.9,0-3.4,0.6-4.5,1.8L755,632.2L755,632.2z"/>
	<path class="st20" d="M778.7,621.5c0,0.4,0.1,0.7,0.1,1.1v14.8c0,1.3-1.1,2.4-2.5,2.4c-1.4,0-2.5-1-2.5-2.4v-14.8
		c0-1.3-0.2-2-0.7-2.7c-0.3-0.4-0.5-0.7-0.5-1.3c0-1.3,1.1-2.2,2.4-2.2c0.8,0,1.6,0.6,2.1,1.3c2.1-1.3,4.5-2,6.1-2
		c2.4,0,3.1,1,3.1,2.3c0,1.5-1.2,2.5-2.5,2.4C781.9,620.4,780.7,620.3,778.7,621.5z"/>
	<path class="st20" d="M801.6,624c0-2.7-1.4-4.1-4.3-4.1c-1.2,0-1.9,0.3-2.7,0.6l-0.9,0.4c-0.3,0.1-0.8,0.2-1.2,0.2
		c-1.3,0-1.9-1.1-1.9-2c0-2.5,3.6-3.4,7.2-3.4c6.3,0,8.8,3.3,8.8,9.5v9.4c0,1.2,0.5,1.3,1.2,1.5c1,0.2,1.4,0.8,1.4,1.7
		c0,1.3-1,1.9-2.7,1.9c-1.6,0-2.8-0.6-3.7-2.1c-1.7,1.5-3.8,2.2-6.3,2.2c-5.1,0-7.6-2.8-7.6-7.1v-0.1c0-4.6,2.9-7,8.7-7
		c1.4,0,2.8,0.2,4.2,0.6L801.6,624L801.6,624z M793.7,632.5v0.1c0,1.9,0.9,2.9,3.5,2.9c1.6,0,3-0.5,4.4-1.6v-4.2
		c-1.3-0.3-2.9-0.5-4-0.5C794.3,629.2,793.7,630.7,793.7,632.5z"/>
</g>
</svg>
