<?xml version="1.0" encoding="utf-8"?>
<!-- Generator: Adobe Illustrator 19.0.0, SVG Export Plug-In . SVG Version: 6.00 Build 0)  -->
<svg version="1.1" id="Capa_1" xmlns="http://www.w3.org/2000/svg" xmlns:xlink="http://www.w3.org/1999/xlink" x="0px" y="0px"
	 viewBox="-149 91 311.6 352" style="enable-background:new -149 91 311.6 352;" xml:space="preserve">
<style type="text/css">
	.st0{fill:#0098D5;}
	.st1{fill:#FFFFFF;}
	.st2{opacity:0.4;fill:#075B75;enable-background:new    ;}
	.st3{fill:none;stroke:#004966;stroke-width:8;stroke-miterlimit:10;}
	.st4{fill:#DFDEE4;}
	.st5{fill:none;stroke:#004966;stroke-width:8;stroke-linecap:round;stroke-miterlimit:10;}
	.st6{fill:#004966;}
	.st7{fill:none;}
</style>
<g>
	<path class="st0" d="M69.7,278.2c11.8,20.9,30,29.4,43.7,85.5c5.4,22.1,6.6,42.3,0,75.1c-2.5,11.8-29.5,32.4-58.8,37.3
		c-15.5,2.6-33.7,1-59.1-2.6c-9.2-1.3-46.3-9-48.9-36.4c-1.9-20.9-9.1-42.8,0-75.1c7.7-27.4,16.2-40.1,50.3-89
		c33.8-48.7,31.2-47.8,31.2-47.8S57.6,256.8,69.7,278.2"/>
	<path class="st1" d="M114.7,372.6l-6.8-17.2c-53.1,23.9-112.3,11.6-149.2-1l-12.8,37.7c35,14.3,104.5,33.2,173-1.9L114.7,372.6z"/>
	<path class="st2" d="M-30.8,323.1c5.4-11.6,12.7-22.1,17.7-33.7c2.6-6.1,6.5-15.1,13.4-17.3c1.3-1.1,2.7-1.8,4.1-2.3
		c-1.7-0.9-3.4-1.7-5.1-2.7c-1.8-1.1-3.8-2.3-5.6-3.6c11,3,22.2,5.7,31.6,12.8c-1.3-0.2-2.6-0.4-3.9-0.6c2.5,3,4.1,6.9,4.1,11.4
		c0,12.4-6.5,23.4-12.8,33.6c-10.6,17.1-18.2,31.5-20.5,52c-2.1,17.4-0.3,36.3,3.7,53.3c3.1,13.3,15.5,21.5,17.8,34.8
		c2.5,13.7-8.8,14.2-19.4,11.6c-2.6,0.8-5.5,0.1-6.9-2.1c-3-1.1-5.7-2.3-7.6-3.1c-21.3-10.5-28.5-29.5-30-52.2
		C-52.1,382.9-44.1,351.8-30.8,323.1"/>
	<path class="st3" d="M72.2,278.2c11.8,20.9,30,29.4,43.7,85.5c5.4,22.1,6.6,42.3,0,75.1c-2.4,11.8-29.4,32.3-58.7,37.2
		c-15.5,2.6-33.7,1-59.3-2.6c-9.2-1.3-46.3-9-48.9-36.4c-1.9-20.9-9.1-42.8,0-75.1c7.7-27.4,16.2-40.1,50.3-89
		c33.8-48.7,31.2-47.8,31.2-47.8S60.2,256.8,72.2,278.2z"/>
	<path class="st1" d="M-56.1,179.7c-13.1,36.1,5.6,75.9,41.6,89c36.1,13.1,75.9-5.6,89-41.6c13.1-36.1-5.6-75.9-41.6-89
		S-43,143.6-56.1,179.7"/>
	<path class="st4" d="M-23,264.8c-5.3-4.3-10.6-8.5-15.5-13.2c0.3,0,0.8-0.1,1.1,0c-1.3-1.3-2.6-2.7-3.8-4.1
		c-14.4-16.9-26.6-48.3-9.1-65.8c19.1-19.2,29.2,21.1,33.1,32.1c4.3,12.1,13.9,21.6,25.2,26.8c3-0.3,5.3,0.8,6.9,2.6
		c13.5,3.9,28.1,1.7,38.6-9.1c4.5-4.6,10.7,1.1,9.7,6.4c5.5-0.6,10.1,7.1,4.9,10.9c-2.1,1.5-4.1,3-6.4,4.4
		c-2.9,5.1-8.3,8.2-13.8,10.4c-1.7,0.6-3.4,0.5-4.6-0.1c-0.5,1.2-1.5,2.1-2.8,2.5c-22.2,7.1-45.1,5.6-64-6.1
		C-23.5,263.2-23.2,264-23,264.8"/>
	<path class="st3" d="M-53.6,180.6c-13.1,36.1,5.6,75.9,41.6,89c36.1,13.1,75.9-5.6,89-41.6c13.1-36.1-5.6-75.9-41.6-89
		C-0.8,125.9-40.5,144.5-53.6,180.6z"/>
	<path class="st5" d="M62.8,160.8c0,0-58.7-14.3-64-63.7"/>
	<path class="st5" d="M0.3,273.8c0,0-6.5,24,15.5,24S50.9,266,50.9,266"/>
	<path class="st6" d="M28.9,193.5c0-4.6-3.8-8.5-8.5-8.5c-4.6,0-8.5,3.8-8.5,8.5c0,4.6,3.8,8.5,8.5,8.5
		C25.1,201.9,28.9,198.1,28.9,193.5z"/>
	<path class="st6" d="M-21.1,193.5c0-4.6-3.8-8.5-8.5-8.5c-4.6,0-8.5,3.8-8.5,8.5c0,4.6,3.8,8.5,8.5,8.5
		C-24.9,201.9-21.1,198.1-21.1,193.5z"/>
	<g>
		<g>
			<path class="st6" d="M17.3,221.2c-1.2,4.8-3.5,9.6-6.5,13.5c-7.5,9.4-17.9,8.3-27.6,2.7c-3.2-1.8-6.2,3.1-2.9,5.1
				c10.9,6.4,23.7,8,33-1.7c4.6-4.9,8-11.5,9.6-17.9C23.9,219,18.3,217.5,17.3,221.2L17.3,221.2z"/>
		</g>
	</g>
</g>
<path class="st5" d="M-82,243.6c0,0,20.5-3.5,10,30.2s-29.6,26.7-27.5,57c2.2,30.3,95.5-53,95.5-53"/>
<path class="st5" d="M65.4,271.2C89.5,306.1,128,343,131,326.3c7.4-41.2-20.5-57.5-16-66c2.6-4.9,6.8-3,8.5-0.9
	c5.9,7.1,13.8,12.3,19.5,10.9"/>
<line class="st7" x1="-141" y1="446.3" x2="153.6" y2="446.3"/>
</svg>
