<?xml version="1.0" encoding="utf-8"?>
<!-- Generator: Adobe Illustrator 17.0.0, SVG Export Plug-In . SVG Version: 6.00 Build 0)  -->
<!DOCTYPE svg PUBLIC "-//W3C//DTD SVG 1.1//EN" "http://www.w3.org/Graphics/SVG/1.1/DTD/svg11.dtd">
<svg version="1.1" id="Capa_1" xmlns="http://www.w3.org/2000/svg" xmlns:xlink="http://www.w3.org/1999/xlink" x="0px" y="0px"
	 width="310px" height="612px" viewBox="232.5 0 310 612" enable-background="new 232.5 0 310 612" xml:space="preserve">
<g>
	<path fill="#0098D5" d="M446.189,185.925c11.786,20.869,29.951,29.411,43.683,85.529c5.406,22.058,6.596,42.278,0,75.148
		c-2.487,11.786-29.519,32.438-58.821,37.304c-15.462,2.595-33.736,0.973-59.146-2.595c-9.191-1.298-46.278-8.975-48.874-36.439
		c-1.946-20.869-9.083-42.818,0-75.148c7.677-27.356,16.219-40.115,50.279-88.989c33.844-48.657,31.249-47.792,31.249-47.792
		S434.079,164.516,446.189,185.925"/>
	<path fill="#FFFFFF" d="M491.17,280.32l-6.812-17.192c-53.09,23.896-112.344,11.57-149.216-0.973l-12.759,37.736
		c35.033,14.273,104.451,33.195,173.004-1.946L491.17,280.32z"/>
	<path fill="none" stroke="#004966" stroke-width="8" stroke-linecap="round" stroke-miterlimit="10" d="M422.293,604.593
		c0.973,5.19-4.217-99.153,5.19-220.039"/>
	<path fill="none" stroke="#004966" stroke-width="8" stroke-linecap="round" stroke-miterlimit="10" d="M350.172,607.188
		c0,0,11.353-140.349,25.626-220.039"/>
	<path fill="none" stroke="#004966" stroke-width="8" stroke-linecap="round" stroke-miterlimit="10" d="M369.203,199.657
		c13.192-3.568-200.143,74.716-59.686,123.157c0,0,17.841,29.735-12.435,21.734"/>
	<path opacity="0.4" fill="#075B75" enable-background="new    " d="M345.631,230.798c5.406-11.57,12.651-22.058,17.733-33.736
		c2.595-6.055,6.488-15.138,13.408-17.3c1.298-1.081,2.703-1.838,4.109-2.271c-1.73-0.865-3.352-1.73-5.082-2.703
		c-1.838-1.081-3.784-2.271-5.623-3.568c11.029,3.028,22.166,5.731,31.573,12.759c-1.298-0.216-2.595-0.432-3.893-0.649
		c2.487,3.028,4.109,6.92,4.109,11.353c0,12.435-6.488,23.355-12.759,33.628c-10.596,17.084-18.165,31.465-20.544,52.009
		c-2.054,17.408-0.324,36.331,3.676,53.307c3.136,13.3,15.462,21.517,17.841,34.817c2.487,13.732-8.758,14.165-19.355,11.57
		c-2.595,0.757-5.514,0.108-6.92-2.054c-3.028-1.081-5.731-2.271-7.569-3.136c-21.301-10.488-28.546-29.519-29.951-52.225
		C324.33,290.592,332.331,259.451,345.631,230.798"/>
	<path fill="none" stroke="#004966" stroke-width="8" stroke-miterlimit="10" d="M448.676,185.925
		c11.786,20.869,29.951,29.411,43.683,85.529c5.406,22.058,6.596,42.278,0,75.148c-2.379,11.786-29.411,32.33-58.713,37.196
		c-15.462,2.595-33.736,0.973-59.254-2.595c-9.191-1.298-46.278-8.975-48.873-36.439c-1.946-20.869-9.083-42.818,0-75.148
		c7.677-27.356,16.219-40.115,50.279-88.989c33.844-48.657,31.249-47.792,31.249-47.792S436.674,164.516,448.676,185.925z"/>
	<path fill="#FFFFFF" d="M320.329,87.421c-13.083,36.114,5.623,75.905,41.629,88.989c36.115,13.083,75.905-5.623,88.989-41.629
		c13.083-36.114-5.623-75.905-41.629-88.989S333.413,51.306,320.329,87.421"/>
	<path fill="#DFDEE4" d="M353.416,172.517c-5.298-4.325-10.596-8.542-15.462-13.192c0.324,0,0.757-0.108,1.081,0
		c-1.298-1.298-2.595-2.703-3.784-4.109c-14.381-16.868-26.599-48.333-9.083-65.849c19.139-19.247,29.194,21.085,33.087,32.114
		c4.325,12.11,13.948,21.625,25.194,26.816c3.028-0.324,5.298,0.757,6.92,2.595c13.516,3.893,28.113,1.73,38.601-9.083
		c4.541-4.649,10.705,1.081,9.731,6.379c5.514-0.649,10.056,7.136,4.866,10.921c-2.054,1.514-4.109,3.028-6.38,4.433
		c-2.919,5.082-8.326,8.218-13.84,10.38c-1.73,0.649-3.352,0.541-4.649-0.108c-0.541,1.189-1.514,2.054-2.811,2.487
		c-22.166,7.136-45.089,5.623-64.011-6.055C352.984,170.895,353.2,171.652,353.416,172.517"/>
	<path fill="none" stroke="#004966" stroke-width="8" stroke-miterlimit="10" d="M322.816,88.286
		c-13.083,36.114,5.623,75.905,41.629,88.989c36.115,13.083,75.905-5.623,88.989-41.629c13.083-36.114-5.623-75.905-41.629-88.989
		C375.691,33.573,335.9,52.171,322.816,88.286z"/>
	<path fill="none" stroke="#004966" stroke-width="8" stroke-linecap="round" stroke-miterlimit="10" d="M439.269,68.499
		c0,0-58.713-14.273-64.011-63.687"/>
	<path fill="none" stroke="#004966" stroke-width="8" stroke-linecap="round" stroke-miterlimit="10" d="M376.772,181.492
		c0,0-6.488,24.004,15.462,24.004s35.141-31.789,35.141-31.789"/>
	<path fill="none" stroke="#004966" stroke-width="8" stroke-linecap="round" stroke-miterlimit="10" d="M448.676,185.925
		c17.084,62.606,0.757,109.749-21.301,121.319c-15.57,8.218-10.596-164.462-53.739-167.165"/>
	<path fill="#004966" d="M405.317,101.153c0-4.649-3.784-8.542-8.542-8.542c-4.649,0-8.542,3.784-8.542,8.542
		c0,4.649,3.784,8.542,8.542,8.542C401.533,109.587,405.317,105.802,405.317,101.153z"/>
	<path fill="#004966" d="M355.363,101.153c0-4.649-3.784-8.542-8.542-8.542c-4.649,0-8.542,3.784-8.542,8.542
		c0,4.649,3.784,8.542,8.542,8.542C351.578,109.587,355.363,105.802,355.363,101.153z"/>
	<g>
		<g>
			<path fill="#004966" d="M357.417,149.918c1.189-4.758,3.46-9.623,6.488-13.516c7.461-9.407,17.949-8.326,27.572-2.703
				c3.244,1.838,6.163-3.136,2.919-5.082c-10.921-6.379-23.68-8.001-32.979,1.73c-4.649,4.866-8.001,11.461-9.623,17.949
				C350.821,152.081,356.444,153.595,357.417,149.918L357.417,149.918z"/>
		</g>
	</g>
</g>
<path fill="#FFFFFF" stroke="#004966" stroke-width="3" stroke-linecap="round" stroke-miterlimit="10" d="M244.645,541.828
	c0,0-9.952,52.04-3.525,63.443c6.22,11.403,277.2,5.183,286.323,3.732c9.122-1.659,14.306-44.161,5.598-75.883
	s-278.029-2.488-278.029-2.488"/>
<g>
	<path fill="#004966" d="M311.412,553.111v6.799c0,0.924-0.825,1.782-1.815,1.782c-0.957,0-1.815-0.825-1.815-1.782v-19.836
		c0-1.056,0.958-1.98,2.08-1.98h4.852c5.842,0,7.921,3.631,7.921,7.559c0,4.785-3.103,7.459-7.921,7.459h-3.302V553.111z
		 M311.412,549.745h3.3c2.806,0,4.291-1.32,4.291-4.126c0-2.047-0.792-4.126-4.291-4.126h-3.3V549.745z"/>
	<path fill="#004966" d="M333.72,550.372c0-1.947-0.99-2.904-3.036-2.904c-0.858,0-1.386,0.197-1.947,0.429l-0.627,0.264
		c-0.198,0.1-0.561,0.165-0.858,0.165c-0.957,0-1.354-0.759-1.354-1.452c0-1.749,2.542-2.442,5.116-2.442
		c4.456,0,6.271,2.344,6.271,6.733v6.7c0,0.824,0.33,0.957,0.825,1.056c0.693,0.132,0.99,0.562,0.99,1.188
		c0,0.924-0.693,1.386-1.947,1.386c-1.155,0-2.013-0.462-2.641-1.485c-1.221,1.057-2.673,1.585-4.488,1.585
		c-3.598,0-5.446-2.014-5.446-5.083v-0.1c0-3.3,2.046-4.983,6.172-4.983c1.023,0,2.013,0.132,2.97,0.396L333.72,550.372
		L333.72,550.372z M328.109,556.444v0.1c0,1.32,0.66,2.079,2.476,2.079c1.122,0,2.112-0.33,3.135-1.155v-2.971
		c-0.957-0.23-2.046-0.363-2.871-0.363C328.539,554.134,328.109,555.19,328.109,556.444z"/>
	<path fill="#004966" d="M347.679,544.431c1.947,0,4.752,0.495,4.752,2.409c0,0.892-0.594,1.354-1.452,1.354
		c-1.056,0-1.551-0.726-3.3-0.726c-0.825,0-2.344,0.164-2.344,1.584c0,3.234,7.69,1.65,7.69,7.558c0,3.069-2.08,4.984-6.007,4.984
		c-1.881,0-5.38-0.43-5.38-2.179c0-0.594,0.396-1.947,1.848-1.584c0.594,0.132,2.013,0.759,3.399,0.759
		c1.485,0,2.641-0.726,2.641-1.914c0-3.103-7.69-1.452-7.69-7.294C341.836,546.411,343.817,544.431,347.679,544.431z"/>
	<path fill="#004966" d="M355.795,555.619v-5.215c0-3.399,2.31-6.007,6.667-6.007c4.356,0,6.667,2.607,6.667,6.007v5.215
		c0,3.367-2.311,6.007-6.667,6.007C358.105,561.626,355.795,558.986,355.795,555.619z M365.564,555.619v-5.247
		c0-1.75-1.056-2.839-3.102-2.839s-3.103,1.089-3.103,2.839v5.247c0,1.782,1.056,2.872,3.103,2.872
		C364.508,558.491,365.564,557.401,365.564,555.619z"/>
	<path fill="#004966" d="M390.974,550.372c0-1.947-0.99-2.904-3.036-2.904c-0.858,0-1.386,0.197-1.947,0.429l-0.627,0.264
		c-0.198,0.1-0.561,0.165-0.858,0.165c-0.957,0-1.353-0.759-1.353-1.452c0-1.749,2.541-2.442,5.116-2.442
		c4.456,0,6.271,2.344,6.271,6.733v6.7c0,0.824,0.33,0.957,0.825,1.056c0.693,0.132,0.99,0.562,0.99,1.188
		c0,0.924-0.693,1.386-1.947,1.386c-1.155,0-2.013-0.462-2.641-1.485c-1.221,1.057-2.673,1.585-4.488,1.585
		c-3.598,0-5.446-2.014-5.446-5.083v-0.1c0-3.3,2.046-4.983,6.172-4.983c1.023,0,2.013,0.132,2.97,0.396L390.974,550.372
		L390.974,550.372z M385.363,556.444v0.1c0,1.32,0.66,2.079,2.476,2.079c1.122,0,2.112-0.33,3.135-1.155v-2.971
		c-0.957-0.23-2.046-0.363-2.871-0.363C385.792,554.134,385.363,555.19,385.363,556.444z"/>
	<path fill="#004966" d="M412.917,560.934v5.842c0,0.924-0.66,1.65-1.782,1.65c-1.155,0-1.782-0.76-1.782-1.65v-17.394
		c0-0.925-0.132-1.42-0.462-1.914c-0.198-0.265-0.33-0.495-0.33-0.858c0-0.957,0.858-1.584,1.65-1.584
		c0.627,0,1.122,0.33,1.518,0.857c1.519-0.857,3.004-1.452,4.72-1.452c3.631,0,5.645,2.574,5.645,6.337v4.06
		c0,3.928-1.452,6.767-5.908,6.767C415.161,561.594,414.105,561.429,412.917,560.934z M412.917,558.029
		c1.023,0.396,2.146,0.561,2.872,0.561c2.013,0,2.739-1.188,2.739-3.763v-4.06c0-2.146-0.892-3.268-2.674-3.268
		c-0.924,0-1.98,0.33-3.069,0.892c0.066,0.363,0.132,0.693,0.132,0.99V558.029z"/>
	<path fill="#004966" d="M434.037,550.372c0-1.947-0.99-2.904-3.036-2.904c-0.858,0-1.386,0.197-1.947,0.429l-0.627,0.264
		c-0.198,0.1-0.562,0.165-0.858,0.165c-0.957,0-1.354-0.759-1.354-1.452c0-1.749,2.542-2.442,5.116-2.442
		c4.456,0,6.271,2.344,6.271,6.733v6.7c0,0.824,0.33,0.957,0.825,1.056c0.693,0.132,0.99,0.562,0.99,1.188
		c0,0.924-0.692,1.386-1.947,1.386c-1.155,0-2.013-0.462-2.641-1.485c-1.221,1.057-2.673,1.585-4.488,1.585
		c-3.598,0-5.445-2.014-5.445-5.083v-0.1c0-3.3,2.046-4.983,6.172-4.983c1.022,0,2.013,0.132,2.97,0.396L434.037,550.372
		L434.037,550.372z M428.427,556.444v0.1c0,1.32,0.66,2.079,2.476,2.079c1.122,0,2.112-0.33,3.135-1.155v-2.971
		c-0.957-0.23-2.046-0.363-2.871-0.363C428.855,554.134,428.427,555.19,428.427,556.444z"/>
	<path fill="#004966" d="M447.996,544.431c1.947,0,4.752,0.495,4.752,2.409c0,0.892-0.594,1.354-1.452,1.354
		c-1.056,0-1.551-0.726-3.3-0.726c-0.825,0-2.344,0.164-2.344,1.584c0,3.234,7.69,1.65,7.69,7.558c0,3.069-2.08,4.984-6.007,4.984
		c-1.882,0-5.38-0.43-5.38-2.179c0-0.594,0.396-1.947,1.848-1.584c0.595,0.132,2.014,0.759,3.399,0.759
		c1.485,0,2.641-0.726,2.641-1.914c0-3.103-7.69-1.452-7.69-7.294C442.153,546.411,444.134,544.431,447.996,544.431z"/>
	<path fill="#004966" d="M456.112,555.619v-5.215c0-3.399,2.311-6.007,6.667-6.007s6.667,2.607,6.667,6.007v5.215
		c0,3.367-2.311,6.007-6.667,6.007S456.112,558.986,456.112,555.619z M465.882,555.619v-5.247c0-1.75-1.057-2.839-3.103-2.839
		s-3.103,1.089-3.103,2.839v5.247c0,1.782,1.057,2.872,3.103,2.872S465.882,557.401,465.882,555.619z"/>
	<path fill="#004966" d="M259.718,583.702c0-3.466,1.947-6.172,6.37-6.172c1.75,0,5.116,0.462,5.116,2.442
		c0,0.692-0.462,1.386-1.584,1.386c-0.264,0-0.495-0.033-0.825-0.132c-0.726-0.33-1.353-0.66-2.442-0.66
		c-2.211,0-3.069,1.155-3.069,3.136v4.72c0,1.979,0.858,3.168,3.069,3.168c1.089,0,1.716-0.33,2.442-0.66
		c0.264-0.099,0.462-0.165,0.792-0.165c1.155,0,1.617,0.727,1.617,1.419c0,1.947-3.366,2.442-5.148,2.442
		c-4.39,0-6.337-2.739-6.337-6.204L259.718,583.702L259.718,583.702z"/>
	<path fill="#004966" d="M273.479,588.619v-5.215c0-3.399,2.31-6.007,6.667-6.007c4.356,0,6.667,2.607,6.667,6.007v5.215
		c0,3.367-2.311,6.007-6.667,6.007C275.789,594.626,273.479,591.986,273.479,588.619z M283.248,588.619v-5.247
		c0-1.75-1.056-2.839-3.102-2.839s-3.103,1.089-3.103,2.839v5.247c0,1.782,1.056,2.872,3.103,2.872
		C282.192,591.491,283.248,590.401,283.248,588.619z"/>
	<path fill="#004966" d="M294.236,592.943c0,0.924-0.594,1.65-1.782,1.65c-1.188,0-1.782-0.727-1.782-1.65v-10.595
		c0-1.452-0.231-1.519-0.429-1.849c-0.264-0.396-0.396-0.594-0.396-0.99c0-0.857,0.726-1.518,1.716-1.518
		c0.627,0,1.155,0.363,1.551,0.957c1.485-1.023,3.102-1.452,4.555-1.452c3.829,0,5.743,2.541,5.743,6.337v9.109
		c0,0.924-0.66,1.65-1.782,1.65c-1.155,0-1.782-0.727-1.782-1.65v-9.109c0-2.079-0.957-3.301-2.607-3.301
		c-0.99,0-2.013,0.363-3.103,1.023c0.066,0.297,0.099,0.561,0.099,0.792L294.236,592.943L294.236,592.943z"/>
	<path fill="#004966" d="M308.029,574.296c0-0.925,0.627-1.65,1.782-1.65c1.122,0,1.782,0.759,1.782,1.65v4.092h2.938
		c0.924,0,1.683,0.693,1.683,1.617c0,0.892-0.759,1.585-1.683,1.585h-2.938v5.775c0,2.904,0.264,3.961,2.244,3.961
		c0.231,0,0.462-0.033,0.594-0.033c1.419,0,2.211,0.363,2.211,1.485c0,1.518-1.254,1.716-2.542,1.716
		c-4.852,0-6.073-2.376-6.073-6.897v-13.301H308.029z"/>
	<path fill="#004966" d="M323.143,581.622c0.033,0.298,0.066,0.528,0.066,0.76v10.562c0,0.957-0.792,1.683-1.782,1.683
		c-1.023,0-1.782-0.726-1.782-1.683v-10.562c0-0.925-0.132-1.42-0.462-1.914c-0.198-0.265-0.33-0.495-0.33-0.892
		c0-0.924,0.792-1.551,1.716-1.551c0.594,0,1.123,0.396,1.519,0.957c1.485-0.892,3.168-1.42,4.323-1.42
		c1.684,0,2.211,0.693,2.211,1.617c0,1.057-0.825,1.75-1.815,1.684C325.42,580.83,324.529,580.797,323.143,581.622z"/>
	<path fill="#004966" d="M337.135,594.626c-3.729,0-5.677-2.574-5.677-6.369v-9.109c0-0.925,0.627-1.617,1.782-1.617
		c1.122,0,1.782,0.692,1.782,1.617v9.109c0,2.112,0.858,3.3,2.574,3.3c0.99,0,2.046-0.33,3.103-0.891
		c-0.033-0.297-0.066-0.562-0.066-0.792v-10.727c0-0.925,0.594-1.617,1.782-1.617s1.782,0.692,1.782,1.617v11.057
		c0,1.154,0.264,1.287,0.594,1.749c0.198,0.23,0.363,0.495,0.363,0.891c0,0.957-0.825,1.585-1.683,1.585
		c-0.726,0-1.287-0.463-1.716-1.123C340.271,594.264,338.653,594.626,337.135,594.626z"/>
	<path fill="#004966" d="M356.638,592.085c-1.683,5.215-2.937,8.978-7.591,8.978c-1.056,0-1.815-0.693-1.815-1.617
		c0-0.792,0.627-1.552,1.684-1.617c1.749,0,2.574-1.188,3.498-3.961l-5.182-14.126c-0.099-0.231-0.099-0.495-0.099-0.66
		c0-0.891,0.759-1.551,1.782-1.551c0.66,0,1.353,0.362,1.617,1.122l0.297,0.891c1.122,3.334,2.244,6.634,3.333,10.033
		c0.99-3.696,2.013-7.294,3.135-10.924c0.231-0.76,1.023-1.122,1.684-1.122c0.891,0,1.782,0.66,1.782,1.649
		c0,0.165-0.033,0.33-0.099,0.495L356.638,592.085z"/>
	<path fill="#004966" d="M362.808,588.619v-5.215c0-3.399,2.31-6.007,6.667-6.007c4.356,0,6.667,2.607,6.667,6.007v5.215
		c0,3.367-2.311,6.007-6.667,6.007C365.118,594.626,362.808,591.986,362.808,588.619z M372.577,588.619v-5.247
		c0-1.75-1.056-2.839-3.102-2.839s-3.103,1.089-3.103,2.839v5.247c0,1.782,1.056,2.872,3.103,2.872
		C371.521,591.491,372.577,590.401,372.577,588.619z"/>
	<path fill="#004966" d="M407.986,583.239c0-1.484-0.858-2.673-2.476-2.673c-1.122,0-2.277,0.594-3.136,1.452
		c0.066,0.363,0.133,0.759,0.133,1.155v9.77c0,0.924-0.595,1.65-1.783,1.65s-1.782-0.727-1.782-1.65v-9.044
		c0-1.947-0.33-3.333-2.244-3.333c-1.122,0-2.343,0.495-3.3,1.089c0.033,0.231,0.066,0.495,0.066,0.693v10.595
		c0,0.924-0.594,1.65-1.782,1.65c-1.188,0-1.782-0.727-1.782-1.65v-10.595c0-1.452-0.231-1.519-0.429-1.849
		c-0.264-0.396-0.396-0.627-0.396-0.957c0-0.924,0.759-1.551,1.683-1.551c0.66,0,1.155,0.363,1.518,0.891
		c1.485-0.924,3.07-1.452,4.654-1.452s2.806,0.528,3.828,1.552c1.585-0.99,3.069-1.552,4.885-1.552c3.729,0,5.908,2.311,5.908,5.743
		v9.77c0,0.924-0.594,1.65-1.782,1.65s-1.782-0.727-1.782-1.65v-9.704H407.986z"/>
	<path fill="#004966" d="M418.213,574.658c-1.188,0-2.079-0.891-2.079-1.947c0-1.089,0.892-1.947,2.079-1.947
		c1.155,0,2.08,0.892,2.08,1.947C420.26,573.801,419.368,574.658,418.213,574.658z M418.213,594.594
		c-1.022,0-1.782-0.693-1.782-1.65V579.18c0-0.891,0.76-1.649,1.782-1.649c0.99,0,1.782,0.759,1.782,1.649v13.764
		C419.995,593.9,419.203,594.594,418.213,594.594z"/>
	<path fill="#004966" d="M434.778,576.804c0-4.258,2.772-6.205,6.238-6.304c0.693-0.033,3.531,0,3.531,1.848
		c0,0.99-0.825,1.585-1.749,1.585c-0.594,0-1.222-0.198-1.98-0.198c-1.684,0-2.476,1.287-2.476,2.838v1.815h2.938
		c0.925,0,1.684,0.693,1.684,1.617c0,0.892-0.759,1.585-1.684,1.585h-2.938v11.32c0,0.891-0.66,1.617-1.782,1.617
		c-1.155,0-1.782-0.727-1.782-1.617L434.778,576.804L434.778,576.804z"/>
	<path fill="#004966" d="M451.973,594.626c-3.729,0-5.677-2.574-5.677-6.369v-9.109c0-0.925,0.627-1.617,1.782-1.617
		c1.122,0,1.782,0.692,1.782,1.617v9.109c0,2.112,0.858,3.3,2.574,3.3c0.99,0,2.046-0.33,3.103-0.891
		c-0.033-0.297-0.066-0.562-0.066-0.792v-10.727c0-0.925,0.595-1.617,1.782-1.617c1.188,0,1.782,0.692,1.782,1.617v11.057
		c0,1.154,0.265,1.287,0.595,1.749c0.197,0.23,0.362,0.495,0.362,0.891c0,0.957-0.824,1.585-1.683,1.585
		c-0.727,0-1.287-0.463-1.717-1.123C455.107,594.264,453.49,594.626,451.973,594.626z"/>
	<path fill="#004966" d="M463.752,574.296c0-0.925,0.627-1.65,1.782-1.65c1.122,0,1.782,0.759,1.782,1.65v4.092h2.938
		c0.925,0,1.684,0.693,1.684,1.617c0,0.892-0.759,1.585-1.684,1.585h-2.938v5.775c0,2.904,0.265,3.961,2.244,3.961
		c0.231,0,0.463-0.033,0.595-0.033c1.419,0,2.211,0.363,2.211,1.485c0,1.518-1.254,1.716-2.541,1.716
		c-4.852,0-6.073-2.376-6.073-6.897L463.752,574.296L463.752,574.296z"/>
	<path fill="#004966" d="M480.615,594.626c-3.729,0-5.677-2.574-5.677-6.369v-9.109c0-0.925,0.627-1.617,1.782-1.617
		c1.122,0,1.782,0.692,1.782,1.617v9.109c0,2.112,0.858,3.3,2.574,3.3c0.99,0,2.047-0.33,3.103-0.891
		c-0.032-0.297-0.065-0.562-0.065-0.792v-10.727c0-0.925,0.594-1.617,1.782-1.617c1.188,0,1.782,0.692,1.782,1.617v11.057
		c0,1.154,0.264,1.287,0.594,1.749c0.198,0.23,0.363,0.495,0.363,0.891c0,0.957-0.825,1.585-1.684,1.585
		c-0.726,0-1.287-0.463-1.716-1.123C483.751,594.264,482.134,594.626,480.615,594.626z"/>
	<path fill="#004966" d="M495.993,581.622c0.032,0.298,0.065,0.528,0.065,0.76v10.562c0,0.957-0.792,1.683-1.782,1.683
		c-1.023,0-1.782-0.726-1.782-1.683v-10.562c0-0.925-0.132-1.42-0.462-1.914c-0.198-0.265-0.33-0.495-0.33-0.892
		c0-0.924,0.792-1.551,1.716-1.551c0.595,0,1.123,0.396,1.519,0.957c1.485-0.892,3.169-1.42,4.323-1.42
		c1.684,0,2.212,0.693,2.212,1.617c0,1.057-0.825,1.75-1.815,1.684C498.271,580.83,497.379,580.797,495.993,581.622z"/>
	<path fill="#004966" d="M503.417,588.619v-5.215c0-3.399,2.31-6.007,6.667-6.007c4.356,0,6.667,2.607,6.667,6.007v5.215
		c0,3.367-2.311,6.007-6.667,6.007C505.727,594.626,503.417,591.986,503.417,588.619z M513.186,588.619v-5.247
		c0-1.75-1.056-2.839-3.102-2.839c-2.047,0-3.103,1.089-3.103,2.839v5.247c0,1.782,1.056,2.872,3.103,2.872
		C512.13,591.491,513.186,590.401,513.186,588.619z"/>
</g>
</svg>
