<?xml version="1.0" encoding="utf-8"?>
<!-- Generator: Adobe Illustrator 19.0.0, SVG Export Plug-In . SVG Version: 6.00 Build 0)  -->
<svg version="1.1" id="Capa_1" xmlns="http://www.w3.org/2000/svg" xmlns:xlink="http://www.w3.org/1999/xlink" x="0px" y="0px"
	 viewBox="-114 314 382 182" style="enable-background:new -114 314 382 182;" xml:space="preserve">
<style type="text/css">
	.st0{fill:#DFDEE4;}
	.st1{fill:none;stroke:#004966;stroke-width:4.2417;stroke-linecap:round;stroke-miterlimit:10;}
	.st2{fill:#0098D5;}
	.st3{fill:#FFFFFF;}
	.st4{fill:none;stroke:#004966;stroke-width:3.2495;stroke-linecap:round;stroke-miterlimit:10;}
	.st5{fill:none;stroke:#004966;stroke-width:3.2495;stroke-miterlimit:10;}
	.st6{fill:#004966;}
	.st7{fill:#EA7E25;}
</style>
<g>
	<g>
		<path class="st0" d="M245.9,333.9c-3.5-1.1-7,1.9-10.1,3.4c-3.6,1.7-7.2,2.8-11,3.9c-7.2,2.1-14.5,4.6-21.5,6.8
			c-5.4,1.6-16.6,1-20.7,5.3c-3.2,3.3,0.7,5.4-3.7,8.2c-3.2,2.1-7.8,2.9-11.6,4.1c-17.4,5.7-35.6,11.8-54,12.7
			c-8.5,0.4-12.3,3.6-18.1,9.4c-5.6,5.7-13,7.1-20.9,7.9c-6.1,0.6-16.4-1.6-21,2.6c-2.8,2.6-1.2,5.5-2.9,8.4c-1.8,3-5.7,4.5-8.5,5.5
			c-9.3,3.1-20.3,4.1-30,5c-5.5,0.5-11,0.7-16.5,1.3c-3,0.3-7.4-0.4-9.7,2.1c-2.7,2.9-0.5,6-4.2,8.5c-2.7,1.8-7.1,2.8-10.2,3.7
			c-7.6,2.1-15.3,3.7-23.1,4.8c-11,1.5-22.9,3.9-33.4,7.5c-5.6,1.9-10.9,1.7-16.5,3.1c-3.8,0.9-7.7,3.2-11.2,4.7c-1,3.6,2,1.6,3,3.4
			c1,1.7,0.7,3.7,0.7,5.9c0,1.8,0.3,4,0,5.8c-0.3,1.6-1.9,2.7-1.3,4.7c1.9,5.5,12.1,0.1,15.5-1c11.1-3.6,22.3-4.7,33.7-6.3
			c11.4-1.6,24.4-2.6,35.3-6.3c8.1-2.8,18.2-6.3,25.6-10.5c6.1-3.5,4.9-8.6,9.2-12.6c5.1-4.8,15.8-4,22.2-4.9
			c4.8-0.7,17.3-1,20.4-5.7c0.9-1.4-0.3-3.5,0.9-5.1c1.7-2.2,4.6-2.2,7.2-2.4c7.3-0.8,16.2-0.3,19.9-7.6c1.2-2.4,0.2-2.7,2.6-4.7
			c3.7-3.1,9.4-3.9,13.9-4.9c23.6-4.9,48.1-7.5,71.3-14.4c6.7-2,13-3.3,17.3-8.5c3.5-4.3,8.9-5.9,14.1-8.9
			c5.7-3.3,9.4-8.2,15.5-10.9c10.8-4.8,23.7-6.3,35-9.8c2.8-0.9,14.6-4.8,15.7-7.9c1.3-3.8-15.4-6.7-18.6-5.1"/>
		<path class="st1" d="M-110.3,450.4c0,0,93.5-18.6,93.5-24.2c0-5.6,1.2-6.8,9.9-8.7c8.7-1.9,50.2-3.7,55.7-8.7
			c5.6-5-1.2-11.8,10.5-13c11.8-1.2,21.7,1.2,29.7-3.7c8.1-5,13-12.4,13-12.4l18.6-3.7c0,0,14.9-1.2,20.4-3.7c5.6-2.5,18-3.1,21.1-5
			c3.1-1.9,16.7-2.5,19.8-5.6c3.1-3.1-1.2-6.2,1.9-8.7c3.1-2.5,6.2-3.7,14.2-5.6c8.1-1.9,25.4-6.2,25.4-6.2s9.3-3.1,11.1-3.7"/>
		<path class="st1" d="M259.4,353.8c0,0-61.9,18-61.3,22.3c0.6,4.3-5,13.6-18,17.3c-13,3.7-78,15.5-83,19.2c-5,3.7-0.6,9.9-8.1,11.8
			c-7.4,1.9-22.3,6.2-22.3,6.2l-117.1,59.5"/>
	</g>
	<g>
		<g>
			<path class="st2" d="M29.1,358.1c2.5,4.4,6.3,6.2,9.2,18c1.1,4.7,1.4,8.9,0,15.8c-0.5,2.5-6.2,6.8-12.3,7.8
				c-3.2,0.5-7.1,0.2-12.5-0.5c-1.9-0.3-9.7-1.9-10.3-7.7c-0.4-4.4-1.9-9,0-15.8c1.6-5.8,3.4-8.4,10.6-18.7c7.1-10.2,6.6-10,6.6-10
				S26.5,353.6,29.1,358.1"/>
			<path class="st3" d="M38.6,378l-1.4-3.6c-11.2,5-23.6,2.4-31.4-0.2L3,382.1c7.4,3,22,7,36.4-0.4L38.6,378z"/>
			<path class="st4" d="M24.1,446.2c0.2,1.1-0.9-20.9,1.1-46.3"/>
			<path class="st4" d="M8.9,446.7c0,0,2.4-29.5,5.4-46.3"/>
			<path class="st4" d="M12.9,361c2.8-0.8-42.1,15.7-12.5,25.9c0,0,3.7,6.3-2.6,4.6"/>
			<path class="st4" d="M28.1,360.1c-2.5-1.4,36.8,25.8,5.6,28.2c0,0-5.2,5.1,1.4,5.1"/>
			<path class="st2" d="M7.9,367.5c1.1-2.4,2.7-4.7,3.7-7.1c0.6-1.3,1.4-3.2,2.8-3.6c0.3-0.2,0.6-0.4,0.9-0.5
				c-0.4-0.2-0.7-0.4-1.1-0.6c-0.4-0.2-0.8-0.5-1.2-0.8c2.3,0.6,4.7,1.2,6.7,2.7c-0.3,0-0.5-0.1-0.8-0.1c0.5,0.6,0.9,1.5,0.9,2.4
				c0,2.6-1.4,4.9-2.7,7.1c-2.2,3.6-3.8,6.6-4.3,10.9c-0.4,3.7-0.1,7.6,0.8,11.2c0.7,2.8,3.3,4.5,3.8,7.3c0.5,2.9-1.8,3-4.1,2.4
				c-0.5,0.2-1.2,0-1.5-0.4c-0.6-0.2-1.2-0.5-1.6-0.7c-4.5-2.2-6-6.2-6.3-11C3.4,380.1,5.1,373.6,7.9,367.5"/>
			<path class="st5" d="M29.6,358.1c2.5,4.4,6.3,6.2,9.2,18c1.1,4.7,1.4,8.9,0,15.8c-0.5,2.5-6.2,6.8-12.3,7.8
				c-3.3,0.5-7.1,0.2-12.5-0.5c-1.9-0.3-9.7-1.9-10.3-7.7c-0.4-4.4-1.9-9,0-15.8c1.6-5.8,3.4-8.4,10.6-18.7c7.1-10.2,6.6-10,6.6-10
				S27.1,353.6,29.6,358.1z"/>
			<path class="st3" d="M2.6,337.4c-2.8,7.6,1.2,16,8.8,18.7c7.6,2.7,16-1.2,18.7-8.8c2.7-7.6-1.2-16-8.8-18.7
				C13.7,325.9,5.4,329.8,2.6,337.4"/>
			<path class="st0" d="M9.8,355.3c-1.1-0.9-2.3-1.8-3.4-2.8c0.1,0,0.2,0,0.2,0c-0.3-0.3-0.6-0.6-0.8-0.9c-3.1-3.6-5.8-10.2-2-13.9
				c4.1-4,6.3,4.4,7.2,6.8c0.9,2.5,3,4.5,5.4,5.6c0.7-0.1,1.2,0.2,1.5,0.5c2.9,0.8,6.1,0.4,8.4-1.9c1-1,2.3,0.2,2.1,1.3
				c1.2-0.1,2.2,1.5,1.1,2.3c-0.4,0.3-0.9,0.6-1.4,0.9c-0.6,1.1-1.8,1.7-3,2.2c-0.4,0.1-0.7,0.1-1,0c-0.1,0.2-0.3,0.4-0.6,0.5
				c-4.8,1.5-9.8,1.2-13.9-1.3C9.7,354.9,9.7,355.1,9.8,355.3"/>
			<circle class="st5" cx="16.9" cy="342.5" r="14.6"/>
			<path class="st4" d="M27.6,333.4c0,0-12.3-3-13.5-13.4"/>
			<path class="st4" d="M14.5,357.2c0,0-1.4,5.1,3.2,5.1c4.6,0,7.4-6.7,7.4-6.7"/>
			<g>
				<path class="st6" d="M7.6,342.7c-0.4,0-0.8-0.1-1.1-0.2c0.2,0.8,0.9,1.3,1.7,1.3c0.9,0,1.6-0.7,1.7-1.6
					C9.3,342.5,8.5,342.7,7.6,342.7z"/>
				<path class="st6" d="M18.1,342.7c-0.4,0-0.8-0.1-1.1-0.2c0.2,0.8,0.9,1.3,1.7,1.3c0.9,0,1.6-0.7,1.7-1.6
					C19.8,342.5,19,342.7,18.1,342.7z"/>
			</g>
		</g>
		<ellipse class="st6" cx="14.7" cy="352.3" rx="1.4" ry="1.7"/>
	</g>
	<rect x="-77.7" y="379.6" class="st6" width="6.1" height="64.2"/>
	<path class="st6" d="M105.7,389h-6.1v89.4c0,0,3.4,2.4,6.1,0V389z"/>
	<g>
		<polygon class="st7" points="-75.8,383.2 103.5,393.9 102.6,413.4 -74.6,396.5 		"/>
		<polyline class="st6" points="-62,383.2 -57.9,398.8 -50.7,399.9 -55,383.2 -32.3,385 -26,401.9 -17.1,403.4 -23.4,385.2 
			-1.2,387.3 2.8,404.8 11.1,405.7 7.4,387.5 26.9,388.4 32.4,407.1 41.3,408.3 36.4,388.7 50.3,389.3 56.9,409.4 67.2,411.1 
			61.5,390.7 75,391.6 85.4,412.9 93.1,414 84.5,391.9 		"/>
		<path class="st6" d="M104.6,415.8l-181.2-17.4l-1.5-17.4l183.8,10.9L104.6,415.8z M-72.7,394.5l173.2,16.6l0.7-15.2l-174.7-10.4
			L-72.7,394.5z"/>
	</g>
</g>
</svg>
