<?xml version="1.0" encoding="utf-8"?>
<!-- Generator: Adobe Illustrator 19.0.0, SVG Export Plug-In . SVG Version: 6.00 Build 0)  -->
<svg version="1.1" id="Capa_1" xmlns="http://www.w3.org/2000/svg" xmlns:xlink="http://www.w3.org/1999/xlink" x="0px" y="0px"
	 viewBox="-114 306 382 182" style="enable-background:new -114 306 382 182;" xml:space="preserve">
<style type="text/css">
	.st0{fill:#DFDEE4;}
	.st1{fill:none;stroke:#004966;stroke-width:4.2417;stroke-linecap:round;stroke-miterlimit:10;}
	.st2{fill:#0098D5;}
	.st3{fill:#FFFFFF;}
	.st4{fill:none;stroke:#004966;stroke-width:3.2495;stroke-linecap:round;stroke-miterlimit:10;}
	.st5{fill:none;stroke:#004966;stroke-width:3.2495;stroke-miterlimit:10;}
	.st6{fill:#004966;}
	.st7{fill:none;stroke:#004966;stroke-linecap:round;stroke-linejoin:round;stroke-miterlimit:10;}
	.st8{fill:#EA7E25;}
</style>
<g>
	<g>
		<path class="st0" d="M247,324.9c-3.5-1.1-7,1.9-10.1,3.4c-3.6,1.7-7.2,2.8-11,3.9c-7.2,2.1-14.5,4.6-21.5,6.8
			c-5.4,1.6-16.6,1-20.7,5.3c-3.2,3.3,0.7,5.4-3.7,8.2c-3.2,2.1-7.8,2.9-11.6,4.1c-17.4,5.7-35.6,11.8-54,12.7
			c-8.5,0.4-12.3,3.6-18.1,9.4c-5.6,5.7-13,7.1-20.9,7.9c-6.1,0.6-16.4-1.6-21,2.6c-2.8,2.6-1.2,5.5-2.9,8.4c-1.8,3-5.7,4.5-8.5,5.5
			c-9.3,3.1-20.3,4.1-30,5c-5.5,0.5-11,0.7-16.5,1.3c-3,0.3-7.4-0.4-9.7,2.1c-2.7,2.9-0.5,6-4.2,8.5c-2.7,1.8-7.1,2.8-10.2,3.7
			c-7.6,2.1-15.3,3.7-23.1,4.8c-11,1.5-22.9,3.9-33.4,7.5c-5.6,1.9-10.9,1.7-16.5,3.1c-3.8,0.9-7.7,3.2-11.2,4.7c-1,3.6,2,1.6,3,3.4
			c1,1.7,0.7,3.7,0.7,5.9c0,1.8,0.3,4,0,5.8c-0.3,1.6-1.9,2.7-1.3,4.7c1.9,5.5,12.1,0.1,15.5-1c11.1-3.6,22.3-4.7,33.7-6.3
			c11.4-1.6,24.4-2.6,35.3-6.3c8.1-2.8,18.2-6.3,25.6-10.5c6.1-3.5,4.9-8.6,9.2-12.6c5.1-4.8,15.8-4,22.2-4.9
			c4.8-0.7,17.3-1,20.4-5.7c0.9-1.4-0.3-3.5,0.9-5.1c1.7-2.2,4.6-2.2,7.2-2.4c7.3-0.8,16.2-0.3,19.9-7.6c1.2-2.4,0.2-2.7,2.6-4.7
			c3.7-3.1,9.4-3.9,13.9-4.9c23.6-4.9,48.1-7.5,71.3-14.4c6.7-2,13-3.3,17.3-8.5c3.5-4.3,8.9-5.9,14.1-8.9
			c5.7-3.3,9.4-8.2,15.5-10.9c10.8-4.8,23.7-6.3,35-9.8c2.8-0.9,14.6-4.8,15.7-7.9c1.3-3.8-15.4-6.7-18.6-5.1"/>
		<path class="st1" d="M-109.2,441.4c0,0,93.5-18.6,93.5-24.2s1.2-6.8,9.9-8.7c8.7-1.9,50.2-3.7,55.7-8.7c5.6-5-1.2-11.8,10.5-13
			c11.8-1.2,21.7,1.2,29.7-3.7c8.1-5,13-12.4,13-12.4l18.6-3.7c0,0,14.9-1.2,20.4-3.7c5.6-2.5,18-3.1,21.1-5s16.7-2.5,19.8-5.6
			s-1.2-6.2,1.9-8.7c3.1-2.5,6.2-3.7,14.2-5.6c8.1-1.9,25.4-6.2,25.4-6.2s9.3-3.1,11.1-3.7"/>
		<path class="st1" d="M260.5,344.8c0,0-61.9,18-61.3,22.3c0.6,4.3-5,13.6-18,17.3c-13,3.7-78,15.5-83,19.2s-0.6,9.9-8.1,11.8
			c-7.4,1.9-22.3,6.2-22.3,6.2l-117.1,59.5"/>
	</g>
	<g>
		<g>
			<path class="st2" d="M30.2,349.1c2.5,4.4,6.3,6.2,9.2,18c1.1,4.7,1.4,8.9,0,15.8c-0.5,2.5-6.2,6.8-12.3,7.8
				c-3.2,0.5-7.1,0.2-12.5-0.5c-1.9-0.3-9.7-1.9-10.3-7.7c-0.4-4.4-1.9-9,0-15.8c1.6-5.8,3.4-8.4,10.6-18.7c7.1-10.2,6.6-10,6.6-10
				S27.6,344.6,30.2,349.1"/>
			<path class="st3" d="M39.7,369l-1.4-3.6c-11.2,5-23.6,2.4-31.4-0.2l-2.8,7.9c7.4,3,22,7,36.4-0.4L39.7,369z"/>
			<path class="st4" d="M25.2,437.2c0.2,1.1-0.9-20.9,1.1-46.3"/>
			<path class="st4" d="M10,437.7c0,0,2.4-29.5,5.4-46.3"/>
			<path class="st4" d="M14,352c2.8-0.8-42.1,15.7-12.5,25.9c0,0,3.7,6.3-2.6,4.6"/>
			<path class="st4" d="M29.2,351.1c-2.5-1.4,36.8,25.8,5.6,28.2c0,0-5.2,5.1,1.4,5.1"/>
			<path class="st2" d="M9,358.5c1.1-2.4,2.7-4.7,3.7-7.1c0.6-1.3,1.4-3.2,2.8-3.6c0.3-0.2,0.6-0.4,0.9-0.5
				c-0.4-0.2-0.7-0.4-1.1-0.6c-0.4-0.2-0.8-0.5-1.2-0.8c2.3,0.6,4.7,1.2,6.7,2.7c-0.3,0-0.5-0.1-0.8-0.1c0.5,0.6,0.9,1.5,0.9,2.4
				c0,2.6-1.4,4.9-2.7,7.1c-2.2,3.6-3.8,6.6-4.3,10.9c-0.4,3.7-0.1,7.6,0.8,11.2c0.7,2.8,3.3,4.5,3.8,7.3c0.5,2.9-1.8,3-4.1,2.4
				c-0.5,0.2-1.2,0-1.5-0.4c-0.6-0.2-1.2-0.5-1.6-0.7c-4.5-2.2-6-6.2-6.3-11C4.5,371.1,6.2,364.6,9,358.5"/>
			<path class="st5" d="M30.7,349.1c2.5,4.4,6.3,6.2,9.2,18c1.1,4.7,1.4,8.9,0,15.8c-0.5,2.5-6.2,6.8-12.3,7.8
				c-3.3,0.5-7.1,0.2-12.5-0.5c-1.9-0.3-9.7-1.9-10.3-7.7c-0.4-4.4-1.9-9,0-15.8c1.6-5.8,3.4-8.4,10.6-18.7c7.1-10.2,6.6-10,6.6-10
				S28.2,344.6,30.7,349.1z"/>
			<path class="st3" d="M3.7,328.4c-2.8,7.6,1.2,16,8.8,18.7s16-1.2,18.7-8.8c2.7-7.6-1.2-16-8.8-18.7S6.5,320.8,3.7,328.4"/>
			<path class="st0" d="M10.9,346.3c-1.1-0.9-2.3-1.8-3.4-2.8c0.1,0,0.2,0,0.2,0c-0.3-0.3-0.6-0.6-0.8-0.9c-3.1-3.6-5.8-10.2-2-13.9
				c4.1-4,6.3,4.4,7.2,6.8c0.9,2.5,3,4.5,5.4,5.6c0.7-0.1,1.2,0.2,1.5,0.5c2.9,0.8,6.1,0.4,8.4-1.9c1-1,2.3,0.2,2.1,1.3
				c1.2-0.1,2.2,1.5,1.1,2.3c-0.4,0.3-0.9,0.6-1.4,0.9c-0.6,1.1-1.8,1.7-3,2.2c-0.4,0.1-0.7,0.1-1,0c-0.1,0.2-0.3,0.4-0.6,0.5
				c-4.8,1.5-9.8,1.2-13.9-1.3C10.8,345.9,10.8,346.1,10.9,346.3"/>
			<circle class="st5" cx="18" cy="333.5" r="14.6"/>
			<path class="st4" d="M28.7,324.4c0,0-12.3-3-13.5-13.4"/>
			<path class="st4" d="M15.6,348.2c0,0-1.4,5.1,3.2,5.1s7.4-6.7,7.4-6.7"/>
			<g>
				<path class="st6" d="M8.7,333.7c-0.4,0-0.8-0.1-1.1-0.2c0.2,0.8,0.9,1.3,1.7,1.3c0.9,0,1.6-0.7,1.7-1.6
					C10.4,333.5,9.6,333.7,8.7,333.7z"/>
				<path class="st6" d="M19.2,333.7c-0.4,0-0.8-0.1-1.1-0.2c0.2,0.8,0.9,1.3,1.7,1.3c0.9,0,1.6-0.7,1.7-1.6
					C20.9,333.5,20.1,333.7,19.2,333.7z"/>
			</g>
		</g>
		<ellipse class="st6" cx="25.1" cy="339.7" rx="1.4" ry="1.7"/>
		<path class="st7" d="M38,333.4c0,0,25.4,2.3,25.2-8.7c-0.2-11-19.2-2.5-10.9,1.3s4.3-3.7,4.3-3.7"/>
	</g>
	<rect x="-76.6" y="370.6" class="st6" width="6.1" height="64.2"/>
	<path class="st6" d="M106.8,380h-6.1v89.4c0,0,3.4,2.4,6.1,0V380z"/>
	<g>
		<polygon class="st8" points="-74.7,374.2 104.6,384.9 103.7,404.4 -73.5,387.5 		"/>
		<polyline class="st6" points="-60.9,374.2 -56.8,389.8 -49.6,390.9 -53.9,374.2 -31.2,376 -24.9,392.9 -16,394.4 -22.3,376.2 
			-0.1,378.3 3.9,395.8 12.2,396.7 8.5,378.5 28,379.4 33.5,398.1 42.4,399.3 37.5,379.7 51.4,380.3 58,400.4 68.3,402.1 
			62.6,381.7 76.1,382.6 86.5,403.9 94.2,405 85.6,382.9 		"/>
		<path class="st6" d="M105.7,406.8l-181.2-17.4L-77,372l183.8,10.9L105.7,406.8z M-71.6,385.5l173.2,16.6l0.7-15.2l-174.7-10.4
			L-71.6,385.5z"/>
	</g>
</g>
<path class="st7" d="M36.3,337.7c0,0,35.3-9.1,32.7,5.3s-14.3,0.7-7.3-1.6s3,3.4,3,3.4"/>
</svg>
