<?xml version="1.0" encoding="utf-8"?>
<!-- Generator: Adobe Illustrator 19.0.0, SVG Export Plug-In . SVG Version: 6.00 Build 0)  -->
<svg version="1.1" id="Capa_1" xmlns="http://www.w3.org/2000/svg" xmlns:xlink="http://www.w3.org/1999/xlink" x="0px" y="0px"
	 viewBox="-77 128 803.2 305" style="enable-background:new -77 128 803.2 305;" xml:space="preserve">
<style type="text/css">
	.st0{fill:#D5F0B4;}
	.st1{fill:#FFFFFF;}
	.st2{fill:#E0DFE6;}
	.st3{fill:#1F4D69;}
</style>
<path id="XMLID_30_" class="st0" d="M446.4,371.8c-2.3-10.1,1.6-22.3-5.5-31c-7.4-9.1-21.5-9.6-32.2-11.3
	c-7.2-1.2-19.5-3.5-18.2-13.4c0.5-4.1,4.1-6.7,7.6-8.3c5.1-2.3,10.8-3.2,16.4-3.8c10.1-1,21-1.3,31,0.6v-24.5c0-0.3,0.2-0.5,0.5-0.5
	c0.5-0.7,1.1-1.5,1.8-1.8c-0.3-42-0.7-121.7-1.3-140.9c0-0.8-0.7-1.5-1.5-1.5c-27.6,0.5-55.4,1.6-82.3,2.6
	c-38.1,1.4-380,2.9-418.9,2.9c-4.5,0-8.9,0-13.4-0.1c-0.4,0-0.8,0.2-1.1,0.4c-0.3,0.3-0.4,0.7-0.4,1.1c0.8,67.8,2.8,226,6,281.9
	c0,0.8,0.7,1.4,1.5,1.4l513.5-1.2c0.4,0,0.8-0.2,1.1-0.5s0.4-0.7,0.4-1.1c-0.7-14.3-1.2-28-1.6-41.1
	C448.3,378.6,447.2,375.2,446.4,371.8z"/>
<path id="XMLID_31_" class="st1" d="M575.4,298.2c-8.3-0.3-16.8-0.6-25.3-0.8c-0.1,0,0,0,0,0l0,0c-5.4-0.1-10.7-0.2-16.1-0.2
	c-9.3,0-17.7,0.3-17.8,0.3c-9.1,0-13-3.5-18-8c-7.1-6.4-16-14.4-43.5-14.4c-1.2,0-2.5,0-3.8,0.1c0,0.2-0.1,0.3-0.3,0.4
	c-0.9,0.2-1.6,1.3-2,2.1V302c0,0.3-0.3,0.5-0.6,0.5c-4.9-1-10.1-1.1-15.1-1.2c-6.9-0.1-13.8,0.1-20.7,1.1
	c-6.9,1.1-23.7,5.2-17.6,15.8c2.2,3.8,7.1,5.2,11.1,6.1c5.3,1.2,10.7,1.8,16,2.7c9.9,1.8,21.3,5,25.1,15.5c1.6,4.5,1.7,9.3,1.7,14
	c0,6.1,0.5,11.7,2.5,17.4c0.2,0.5,0.4,1,0.5,1.5c-0.1-3-0.2-6-0.2-9c3.6,0.1,6.8,0.1,9.9,0.1c36,0,50.4-6.2,62-11.1
	c7.7-3.3,13.9-5.9,24.5-5.9c0.7,0,1.4,0,2.1,0.1l0,0c0,0.5,0,1.1,0,1.6c0.3,9.5,0.6,19.3,0.8,29c0,0.8,0.6,1.4,1.4,1.4
	c6.6-0.1,13.2-0.2,19.6-0.3c8.8-0.2,17.6-0.4,26.7-0.4c3,0,88.9,0,119.9,0.1v-82C684,298.9,585.1,298.5,575.4,298.2z"/>
<path id="XMLID_13_" class="st1" d="M553.3,378.8c0.6,0,1.2,0,1.8,0l0,0C554.4,378.8,553.8,378.8,553.3,378.8L553.3,378.8z"/>
<path id="XMLID_11_" class="st2" d="M507.2,335.4c-6.3,2.6-11.6,6-18.6,6.6c-4.7,0.4-9.7,0-14.5-0.8c-4.1-1.2-8.2-2.7-11.9-4.5
	c-6.4-3.2-9.6-8.5-14.4-13.4c-4.5-4.7-10.4-5.8-16.7-5.3c-6.9,0.6-13.9,1.4-20.7,2.9c-1.6-0.1-3.2-0.3-4.8-0.6
	c-2.5-0.5-4.5-1.8-6.8-2.8c-0.1,0-0.2,0-0.3,0c-0.8-1.1-1.4-2.5-1.7-4c-0.2-0.7-1.2-0.7-1.4,0c-2.2,7.5,5.1,13.9,12.3,12.3
	c0.3-0.1,0.5-0.2,0.8-0.3c1.9,0.4,3.9,0.5,5.7,0.3c0.3,0,0.6-0.1,0.8-0.3c4.6,1.5,9.5,1.9,14.6,1.6c3.8-0.2,7.1-0.6,10.6,1.5
	c2.9,1.8,5.1,4.1,7.5,6.5c3.2,3.2,6.6,6.1,10.3,8.4c-1.4-0.3-2.8-0.6-4.2-0.9c-0.7-0.1-1.3-0.1-1.9,0c-0.1,0-0.2-0.1-0.4-0.1
	c-0.6-0.9-1.2-1.4-2.4-1.6c-0.1,0-0.2,0-0.3,0c-0.9-2.3-3.2-3.7-5.5-5.7c-3.4-3-6.6-5.5-11.1-6.5c-5-1.1-10.2-1.5-15.3-1.9
	c-4.9-0.3-10.1,0.5-14.8-1.3c-0.4-0.2-0.7,0.3-0.6,0.6c1,6.8,13.4,7.1,18.3,8.1c4.7,0.9,10.5,1.3,14.3,4.2c3.3,2.5,6.1,5.8,9.5,8.3
	c0.9,0.6,2.1,0.7,3.1,0.3c0,1.2,0.9,2.4,1.9,2.8c0.1,0,0.1,0,0.2,0.1c0,0.3,0,0.7,0.1,1c0.2,1.3,0.3,2.7,0.5,4.1
	c-0.2,0.3-0.5,0.6-0.7,0.9c-0.6,1.1,0.1,2.5,1.1,2.8c-0.4,1.3-0.7,2.6-0.7,4c0,1.7,2.5,2.1,3,0.4c0.5-1.7,0.7-3.5,1.2-5.2
	c0.1-0.5,0.3-1,0.5-1.5c0.4-0.6,0.8-1.2,1.2-1.9c0.2,0,0.3,0,0.5-0.1c0.2,0.4,0.5,0.7,1,0.7c1.6-0.1,3.3-0.2,4.9-0.3
	c14.1,2.2,29.8-3.4,40.4-12.1c0.5-0.4-0.1-1-0.6-0.8c2.6-1.7,4.8-3.8,6.3-6.4C507.3,335.5,507.3,335.3,507.2,335.4z"/>
<path id="XMLID_10_" class="st2" d="M458.5,294.6c-1.8-1.6-4.2-2.1-6-3.8c-1.7-1.6-2.6-3.5-4.1-5.3c-0.5-0.6-1.6-0.3-1.8,0.5
	c-0.6,2.4,0.2,5.4,1.8,7.9c-0.3,1-0.1,2.2,0.4,3.1c1,2,4,3.3,6.3,2.6c0.4,0.1,0.8,0.2,1.3,0.3C458.9,300.1,460.4,296.3,458.5,294.6z
	"/>
<path id="XMLID_9_" class="st2" d="M726.2,367.6c0-0.8-0.6-1.4-1.4-1.4c-22.5,0.4-138.8,1.1-149.2,1.5c-5.5,0.2-11.1,0.3-16.7,0.8
	c-0.2,0-1,0-1.7,0.1c-0.7-2.5-1.5-4.9-2.2-7.3c-0.2-1.5-0.5-3-0.8-4.5c-0.1-0.3-0.5-0.4-0.7-0.3c-1.3-3.8-2.8-7.7-3-11.7
	c0-0.5-0.7-0.7-0.9-0.3c-0.1,0.1-0.1,0.3-0.2,0.4c-0.7-2-1.4-3.5-1.3-5.6c0-0.7-0.5-1.2-1.2-1.3c-1-0.9-2.8-0.9-3.3,0.7
	c-4.7-0.6-10.5,1.8-14.6,3.3c-5.4,2-10.1,4.8-14.8,8.1c-5.4,3.7-10.7,6.4-17,8.3c-3.1,1-6.4,1.7-9.6,2.6c-0.8,0-1.6-0.1-2.5-0.2
	c-0.5-0.1-0.7,0.7-0.3,1c-1.5,0.5-3,1-4.5,1.6c-0.5,0.2-0.2,0.9,0.3,1c7.2,0.8,14.7-0.2,21.7-2.4c7.1-1.8,13.9-4.7,20.9-6.8
	c0.7-0.2,0.4-1.2-0.3-1c-1.2,0.3-2.4,0.5-3.6,0.7c1.8-0.9,3.5-1.9,5.2-3.1c1.6-0.7,3.2-1.5,4.8-2.1c0.2-0.1,0.5-0.2,0.7-0.3
	c0.2,0,0.5-0.1,0.7-0.1c-0.7,0.9,0,2.7,1.3,2.6c5.4-0.4,10.4-2.2,15.5-4.1c0.4-0.1,0.7-0.4,1-0.7c-0.5,3.1,0.5,6.4,1.1,9.5
	c0.5,2.3,0.9,4.7,1.4,7c-1.2,3-1.8,7.9-1.9,11.1c-0.3,7.4,8.6,4.8,13.2,4.7c8.7-0.2,17.3,0.5,26,0.7c5.3,0.1,116.7,0.6,136.6-0.9
	c0.7-0.1,1.3-0.7,1.3-1.4V367.6z"/>
<path id="XMLID_8_" class="st3" d="M-63.2,424.1c-0.8,0-1.5-0.6-1.5-1.4c-3.2-55.9-5.2-214.2-6-281.9c0-0.4,0.2-0.8,0.4-1.1
	c0.3-0.3,0.7-0.5,1.1-0.4c4.5,0,8.9,0.1,13.4,0.1c38.9,0,380.9-1.5,418.9-2.9c26.9-1,54.8-2.1,82.3-2.6c0.8,0,1.5,0.6,1.5,1.5
	c0.8,24.2,1.2,144.2,1.6,164.2c0,0.8-0.6,1.5-1.5,1.5c-0.8,0-1.5-0.6-1.5-1.5c-0.3-19.6-0.7-139.1-1.5-162.7
	c-27.1,0.5-54.4,1.6-80.8,2.5c-38.1,1.4-380.1,2.9-419.1,2.9c-4,0-7.9,0-11.9,0c0.8,66.5,2.7,223.8,5.9,278.8l510.5-1.2
	c-1.4-29.7-2.1-56.8-2.5-81.8c0-0.8,0.6-1.5,1.5-1.5c0.8,0,1.5,0.7,1.5,1.5c0.5,25.3,1.1,52.9,2.6,83.2c0,0.4-0.1,0.8-0.4,1.1
	c-0.3,0.3-0.7,0.5-1.1,0.5C450.3,422.9-63.2,424.1-63.2,424.1z"/>
<path id="XMLID_7_" class="st3" d="M478.2,349.3c-14.6,0-28.6-5.9-37.4-15.7c-2.9-3.3-7.1-5.2-11.5-5.2h-0.1c-6.6,0-13.5,0-22.5-0.1
	c-8-0.1-14.4-6.5-14.6-14.5c-0.1-7.7,6-14.1,13.6-14.4c5.5-0.2,11-0.4,16.6-0.6c11.9-0.4,24.1-0.8,36.3-1.3c0.8,0,1.4,0.6,1.5,1.3
	c0,0.8-0.6,1.4-1.3,1.5c-12.2,0.5-24.4,0.9-36.3,1.3c-5.5,0.2-11,0.4-16.6,0.6c-6.1,0.2-11,5.4-10.9,11.5
	c0.1,6.5,5.3,11.7,11.8,11.7c9,0.1,15.9,0.1,22.5,0.1h0.1c5.2,0,10.2,2.2,13.6,6.1c8.3,9.2,21.5,14.8,35.3,14.8
	c10.6,0,24.2-3.4,30.6-13c0.4-0.6,1.3-0.8,1.9-0.4c0.6,0.4,0.8,1.3,0.4,1.9C504.1,345.6,489.5,349.3,478.2,349.3z"/>
<path id="XMLID_6_" class="st3" d="M726.2,301.9c0-0.8-0.6-1.4-1.4-1.4c-22.6-0.1-139.8-0.5-150.4-0.9c-13.7-0.5-27.8-1-41.7-1
	c-9.3,0-17.8,0.3-17.8,0.3c-9.1,0-13-3.5-18-8c-7.1-6.4-16-14.4-43.5-14.4c-2.1,0-4.2,0-6.6,0.1c-0.8,0-1.4,0.7-1.3,1.4
	c0,0.8,0.7,1.4,1.4,1.3c2.4-0.1,4.5-0.1,6.5-0.1c26.5,0,34.5,7.3,41.7,13.7c5,4.5,9.7,8.8,19.9,8.8c0.1,0,8.5-0.3,17.8-0.3
	c13.9,0,28,0.5,41.6,1c10.6,0.4,127.8,0.7,150.5,0.9C725.5,303.3,726.2,302.7,726.2,301.9L726.2,301.9z"/>
<path id="XMLID_5_" class="st3" d="M459.8,368c-3.5,0-7.3-0.1-11.5-0.2c-0.8,0-1.4-0.7-1.4-1.4c0-0.8,0.7-1.4,1.4-1.4
	c4.2,0.1,7.9,0.2,11.4,0.2c35.5,0,49.5-6,60.9-10.9c7.7-3.3,14.4-6.2,25.6-6.2c1.1,0,2.3,0,3.5,0.1c0.8,0,1.4,0.7,1.3,1.5
	c0,0.8-0.7,1.4-1.5,1.3c-1.1-0.1-2.2-0.1-3.3-0.1c-10.6,0-16.7,2.6-24.5,5.9C510.2,361.9,495.8,368,459.8,368z"/>
<path id="XMLID_3_" class="st3" d="M726.2,381c0-0.8-0.6-1.4-1.4-1.4c-19.7-0.1-124.3-0.1-127.7-0.1c-9.1,0-18.2,0.2-27.1,0.4
	c-6,0.1-12.1,0.2-18.2,0.3c-0.2-9.2-0.5-18.6-0.7-27.6c-0.5-15.2-0.9-30.9-0.9-46.2c0-2,0-4.1,0-6.1c0-0.8-0.6-1.4-1.4-1.4
	c-0.8,0-1.4,0.6-1.4,1.4c0,2,0,4.1,0,6.1c0,15.4,0.5,31.1,0.9,46.3c0.3,9.5,0.6,19.3,0.8,29c0,0.8,0.6,1.4,1.4,1.4
	c6.6-0.1,13.2-0.2,19.6-0.3c8.8-0.2,18-0.4,27-0.4c3.4,0,107.9,0,127.7,0.1C725.5,382.4,726.2,381.8,726.2,381L726.2,381z"/>
</svg>
