<?xml version="1.0" encoding="utf-8"?>
<!-- Generator: Adobe Illustrator 19.0.0, SVG Export Plug-In . SVG Version: 6.00 Build 0)  -->
<svg version="1.1" id="Capa_1" xmlns="http://www.w3.org/2000/svg" xmlns:xlink="http://www.w3.org/1999/xlink" x="0px" y="0px"
	 viewBox="-191 298.9 228 196.1" style="enable-background:new -191 298.9 228 196.1;" xml:space="preserve">
<style type="text/css">
	.st0{fill:#E1DFE6;}
	.st1{fill:none;}
	.st2{fill:#004966;}
	.st3{fill:#64AC28;}
	.st4{opacity:0.5;fill:#64AC28;enable-background:new    ;}
	.st5{fill:#FFFFFF;}
	.st6{fill:#DFDEE4;}
	.st7{clip-path:url(#SVGID_2_);fill:#64AC28;}
	.st8{fill:#0098D5;}
	.st9{fill:none;stroke:#004966;stroke-width:1.7025;stroke-miterlimit:10;}
	.st10{fill:none;stroke:#004966;stroke-width:1.7025;stroke-linecap:round;stroke-miterlimit:10;}
	.st11{fill:none;stroke:#004966;stroke-width:1.6711;stroke-linecap:round;stroke-miterlimit:10;}
</style>
<g>
	<path class="st0" d="M-152.4,350.2c6.8-0.3,13.6-0.7,20.4-0.4c7.4,0.4,14.6,1.4,22,1.4c6.9,0,13.6-0.7,20.4,0.1
		c5.6,0.7,11.3,2.6,16.4-1c3.2-2.3,1.1-7.2-2.2-6.7c-1.3-3.2-4.9-5.7-8.2-6c-2.1-0.2-2.5,2.7-1,3.7c1.3,0.9,2.7,1.6,4,2.5
		c0.5,0.3,0.9,0.7,1.3,1.1c-1.8,0.2-3.7-0.2-5.4-0.5c-3.1-0.5-6.1-0.9-9.3-0.8c-6.5,0.4-12.8,0.8-19.3,0.4
		c-12.4-0.7-25.3-1.6-37.7,0.5c-0.3-0.8-0.3-1.6-0.2-2.4c0-0.6-0.9-0.9-1.2-0.3c-0.7,1.5-1.4,2.9-2.3,4.3
		C-155.7,347.9-154.4,350.3-152.4,350.2z"/>
	<path class="st0" d="M-107.7,322.5c2.8,1.5,5.8,2.7,6.5,6.2c0.1,0.6,1.1,0.6,1.2,0c1.1-6.7-6.7-12.4-11.8-15
		c-2.3-1.2-4.8,1.7-2.8,3.7C-112.6,319.4-110.3,321.1-107.7,322.5z"/>
	<path class="st0" d="M-93.9,324.5c0.6,0.3,1.1,0.7,1.5,1.2c-0.6,0.9-0.6,2.1,0.6,2.7c1.5,0.7,3,1.7,4,3c1.1,1.4,2.4,4.2,2,6
		c-0.2,0.6,0.7,0.8,0.9,0.3c0.6-1.4,1.5-2.6,1.6-4.2c0.1-1.3-0.3-2.7-0.8-3.9c-1.1-2.3-3.1-3.9-5.5-4.7c-0.2-0.2-0.3-0.4-0.5-0.6
		c-0.8-0.8-1.9-1.4-3-1.7C-94.2,322.3-94.9,323.9-93.9,324.5z"/>
	<path class="st1" d="M-82.8,337.9c-0.6-0.1-1-0.5-0.9-1.1c0-0.4,0.1-0.9,0.1-1.3c0-6.6-4.7-11.2-11.5-11.2c-1.6,0-3.1,0.3-4.4,0.9
		c-0.5,0.2-1,0-1.3-0.4c-2.4-3.8-7.5-10-15.3-10c-6,0-16.2,2.2-16.8,16.6c0,0.3-0.2,0.6-0.4,0.8c-0.3,0.2-0.6,0.2-0.9,0.1
		c-1.6-0.5-3.2-0.7-4.7-0.7c-9.9,0-15.1,9.1-15.1,18.2l80.3,1.3c0.2-0.9,0.3-1.9,0.3-2.8C-73.5,343-77.7,338.4-82.8,337.9z"/>
	<path class="st1" d="M-78.4,350.5c-0.1,0.4-0.5,0.7-1,0.7l-82.1-1.3c-0.5,0-1-0.4-1-1c0-0.3,0-0.6,0-0.9c0-10.1,5.9-20.4,17.2-20.4
		c1.3,0,2.7,0.2,4.1,0.5c1-11,7.7-17.2,18.8-17.2c6.3,0,12.2,3.6,16.6,10.3c1.4-0.5,2.9-0.7,4.4-0.7c8,0,13.5,5.5,13.5,13.3
		c0,0.2,0,0.3,0,0.5c5.7,1,10.2,6.3,10.2,12.1C-77.8,347.8-78,349.1-78.4,350.5z"/>
	<path class="st2" d="M-81.6,336c0-0.2,0-0.3,0-0.5c0-7.8-5.6-13.3-13.5-13.3c-1.6,0-3,0.2-4.4,0.7c-4.4-6.6-10.3-10.3-16.6-10.3
		c-11,0-17.8,6.3-18.8,17.2c-1.4-0.3-2.8-0.5-4.1-0.5c-11.3,0-17.2,10.2-17.2,20.4c0,0.3,0,0.6,0,0.9c0,0.5,0.5,1,1,1l82.1,1.3
		c0.5,0,0.9-0.3,1-0.7c0.4-1.4,0.6-2.7,0.6-4.1C-71.4,342.3-75.9,337-81.6,336z M-73.8,350.9l-80.3-1.3c0.1-9.1,5.2-18.2,15.1-18.2
		c1.5,0,3.1,0.2,4.7,0.7c0.3,0.1,0.6,0,0.9-0.1c0.3-0.2,0.4-0.5,0.4-0.8c0.7-14.4,10.8-16.6,16.8-16.6c7.8,0,13,6.3,15.3,10
		c0.3,0.4,0.8,0.6,1.3,0.4c1.3-0.6,2.8-0.9,4.4-0.9c6.8,0,11.5,4.6,11.5,11.2c0,0.4,0,0.9-0.1,1.3c0,0.6,0.4,1,0.9,1.1
		c5.1,0.5,9.3,5.1,9.3,10.2C-73.5,349-73.6,349.9-73.8,350.9z"/>
</g>
<g>
	<path class="st3" d="M-4.7,471.3c0,0-13.4-13.1-33.8-15s-45.3,2.3-54,7.7c-8.7,5.4-9.4,10.6-9.4,10.6s-32.1,4.7-26.8,9.2
		c5.3,4.5,39,9.6,64.8,8.7s21.6-6.5,21.6-6.5s29.8,2.3,37.5-1.6C2.8,480.7-4.7,471.3-4.7,471.3z"/>
	<path class="st4" d="M-31.5,471.5c-1.7-0.8-4.9-0.2-6.9-0.3c-2.7-0.1-5.5-0.4-8.2-0.1c-1.9,0.2-4.8,0.4-6.5,1.4
		c-2,1.2-0.4,1.1,0.1,2.5c-3.1,1-6.8,0.4-10,1.2c-1,0.2-3.3,0.5-3.9,1.5c-0.4,0.7-0.3,1.3,0.4,1.4c-2.2,0-16.9,1.4-16.6,4
		c3,1,6.3,0.6,9.3,0.7c3.8,0,7.5,0.4,11.3,0.3c2.9-0.1,6.5-0.1,9.2-1.5c2.1-1.1,1.9-1.8-0.1-2.5c1.8,0.2,17.7,0.8,16.6-1.7
		c2.4,0.6,6.6,0.2,8.1-2.2c1.6-2.5-1.7-3.8-3.8-4.1"/>
</g>
<g>
	<path class="st5" d="M24.7,361c0,31-25.1,56.1-56.1,56.1S-87.5,392-87.5,361s25.1-56.1,56.1-56.1C-0.4,305,24.7,330.1,24.7,361"/>
	<path class="st6" d="M-20.7,407.1c-3.3,2.4-8.7,2.3-10.7-3.1c-0.1-0.3-0.2-0.6-0.3-0.9c-0.9-1.3-1.4-2.9-1.3-4.6v-0.1
		c-13,3.3-26.7,1.7-39.3-7.4c-0.9-0.7-2.3,0.7-1.6,1.6c21.6,29.1,68.9,25.9,87.7-4.5c1-1.7,1.4-3.4,1.1-5
		C7.7,396.5-5.8,407.6-20.7,407.1"/>
	<path class="st6" d="M-27.3,403.1c0.1,0.3,0.2,0.6,0.3,0.9c2,5.4,7.4,5.5,10.7,3.1c2.4-1.7,3.6-4.8,1.5-8.2c-1.9-3-3.5-6.3-4.8-9.8
		c-5.3-14-6-30.7-4.8-45c0.1-1.3-1.7-1.6-2.3-0.6c-5,7.8-4.6,19.9-4.5,28.7c0.1,8.5,0.5,17.7,2.6,26.2v0.1
		C-28.2,400.1-27.8,401.6-27.3,403.1"/>
	<path class="st2" d="M-29,301.2c-3.8,0-11.5,0.4-16.5,1.8c-7.3,2.1-14.1,6.2-20.6,10.2l-1.1,0.6c-15,9.1-23.6,25-23.6,43.6
		c0,34.7,24.4,59.9,58.2,60.7c-0.1-1.5-0.2-3.1-0.3-4.6c-35-0.9-53.3-28.6-53.3-56c0-17,7.8-31.4,21.4-39.6l1.1-0.6
		c6.6-4,12.8-7.7,19.5-9.7c4.5-1.3,11.9-1.6,15.2-1.6c30.7,0,53,21.8,53,51.9c0,33.2-26.6,54.2-52.3,55.6c0.1,1.5,0.2,3.1,0.3,4.6
		c15.3-0.8,29.4-7.4,40-18.7c10.5-11.3,16.6-26.5,16.6-41.5C28.6,325,4.4,301.2-29,301.2"/>
	<g>
		<g>
			<g>
				<defs>
					<rect id="SVGID_1_" x="-72.2" y="308.6" width="89" height="107.3"/>
				</defs>
				<clipPath id="SVGID_2_">
					<use xlink:href="#SVGID_1_"  style="overflow:visible;"/>
				</clipPath>
				<path class="st7" d="M3.4,335.1c-0.8-1.1-1.8-2.2-2.9-3.2c-5.1-4.7-9.7-9.8-14-15.2c-3.2-4-8.9-2-11.1,1.8
					c2-4.4,0.1-10.4-5.9-9.8c-14.6,1.4-30,5.7-38,19.1c-5.7,9.6-4.4,22.2,1.4,31.4c0.9,1.4,1.9,2.7,3,3.9c0.6,1.5,1.7,2.9,3,3.8
					c1.1,0.8,2.2,1.5,3.3,2.3c-0.4,0.5-0.9,0.9-1.3,1.4c-7.7,8.7-8.7,20.3-0.6,29c2.5,2.7,5.6,4.6,9,5.9c9.7,9,22.7,16.4,31.8,3.6
					c4-5.6,5.4-12.8,5.1-20.1c3.4-0.4,6.8-0.5,10.3,0c6,0.7,7.9-6.1,5.9-10.4c7.8-4.5,13.5-12,14.3-23.1
					C17.4,345.9,11.1,339.2,3.4,335.1 M-51.3,383.6c0.9-2.4,3.2-4.9,5.8-7c0.6,1,1.4,1.8,2.4,2.3c1.6,0.7,3.2,1.4,4.9,2
					C-42.5,382-46.8,383.1-51.3,383.6 M-30.5,322.7c2.7-0.3,4.5-1.7,5.6-3.6c-0.4,0.8-0.6,1.7-0.6,2.6c0,1.8,0,3.6,0,5.3
					c-0.8,0.1-1.7,0.3-2.5,0.6c-11.6,4.9-20.7,12.3-28.7,21.3C-64.7,332.8-43.7,324-30.5,322.7 M-28.1,393.4
					c-2.2,0.3-4.5,0.5-6.8,0.6c2.3-0.7,4.6-1.4,6.9-2C-28,392.4-28,392.9-28.1,393.4 M2,358.3c-1.3,4-3.8,6.8-7,8.7
					c-1.6-3-2.7-6.1-3.7-9.2c0.8-2.4,1.5-4.9,2-7.4c1.7-0.7,3.4-1.5,5-2.3C1.8,350.4,3.5,353.7,2,358.3"/>
			</g>
		</g>
	</g>
	<path class="st2" d="M-29.3,476.2c0-41-0.3-101.8-0.4-143.2c0-6.1-1.1-11-2.3-11c-1.3,0.1-2.3,5.3-2.3,11.5
		c0.2,41.9,0.5,97.6,0.5,139.3c0.7,2.1,1.5,3.1,2.3,5.1c0.8-2.7,1.6-1.7,2.4-4.5"/>
	<path class="st2" d="M-31.7,356.5c0.5,0,0.9-0.1,1.3-0.4c0.3-0.2,0.6-0.5,1-0.7c3.4-2.4,6.7-4.9,9.8-7.4c4.9-3.8,9.6-7.5,14.6-10.4
		c1.1-0.6,1.5-2,0.9-3.2c-0.6-1.1-2-1.5-3.2-0.9c-5.3,3.1-10.3,7-15.2,10.7c-2.3,1.8-4.6,3.6-7,5.3c-0.8,0.6-1.6,1.2-2.4,1.7
		c-0.7-0.4-1.5-0.9-2.2-1.3c-2.2-1.3-4.4-2.6-6.6-3.9c-4.8-3-9.7-6-14.9-8.3c-1.2-0.5-2.5,0-3,1.2s0,2.5,1.2,3
		c4.9,2.1,9.7,5.1,14.4,8c2.9,1.8,5.9,3.7,9,5.4c0.4,0.2,0.8,0.5,1.3,0.7C-32.5,356.4-32.1,356.5-31.7,356.5"/>
	<path class="st2" d="M-33.1,377.9c0.4,0,0.8-0.1,1.2-0.3c0.7-0.4,1.4-0.8,2.1-1.2c2.3-1.3,4.5-2.6,6.8-3.9
		c11.8-6.8,24.1-13.8,34.7-22.7c1-0.8,1.1-2.3,0.3-3.3s-2.3-1.1-3.3-0.3c-10.3,8.6-22.3,15.5-34,22.2c-1.5,0.9-3,1.7-4.6,2.6
		c-1.1,0.6-2.2,1.3-3.3,1.9c-0.4-0.2-0.9-0.5-1.3-0.7c-4.9-2.6-9.7-5.5-14.4-8.3c-6.9-4.1-14-8.4-21.5-11.8c-1.2-0.5-2.5,0-3.1,1.1
		c-0.5,1.2,0,2.5,1.1,3.1c7.2,3.3,14.2,7.5,21,11.6c5.4,3.3,11,6.6,16.8,9.6c0.1,0,0.2,0.1,0.3,0.1
		C-33.8,377.8-33.4,377.9-33.1,377.9"/>
	<path class="st2" d="M8.7,369.4c-0.8-1-2.3-1.1-3.3-0.3c-11,9.2-22.7,17.2-34.9,23.9c-0.5,0.3-1,0.6-1.5,0.8
		c-1-0.4-2.1-0.9-3.1-1.4c-13.1-5.9-25.8-13.2-36.8-19.6c-1.1-0.6-2.5-0.3-3.2,0.8c-0.6,1.1-0.3,2.5,0.8,3.2
		c11.6,6.9,25.2,14.7,39.2,20.8c0.7,0.3,1.5,0.7,2.2,1c0.3,0.1,0.6,0.2,0.9,0.2c0.4,0,0.8-0.1,1.1-0.3c0.2-0.1,0.3-0.2,0.5-0.3
		c13.2-7.1,25.9-15.7,37.7-25.6C9.4,371.8,9.5,370.3,8.7,369.4"/>
</g>
<g>
	<g>
		<path class="st8" d="M-38.9,451.8c1.3,2.3,3.3,3.2,4.8,9.4c0.6,2.4,0.7,4.7,0,8.3c-0.3,1.3-3.2,3.6-6.5,4.1
			c-1.7,0.3-3.7,0.1-6.5-0.3c-1-0.1-5.1-1-5.4-4c-0.2-2.3-1-4.7,0-8.3c0.9-3,1.8-4.4,5.5-9.8s3.4-5.3,3.4-5.3
			S-40.3,449.5-38.9,451.8"/>
		<path class="st5" d="M-34,462.3l-0.8-1.9c-5.8,2.6-12.4,1.3-16.5-0.1l-1.4,4.2c3.9,1.6,11.5,3.7,19.1-0.2L-34,462.3z"/>
		<path class="st8" d="M-50,456.8c0.6-1.3,1.4-2.4,2-3.7c0.3-0.7,0.7-1.7,1.5-1.9c0.1-0.1,0.3-0.2,0.5-0.3c-0.2-0.1-0.4-0.2-0.6-0.3
			c-0.2-0.1-0.4-0.3-0.6-0.4c1.2,0.3,2.4,0.6,3.5,1.4c-0.1,0-0.3,0-0.4-0.1c0.3,0.3,0.5,0.8,0.5,1.3c0,1.4-0.7,2.6-1.4,3.7
			c-1.2,1.9-2,3.5-2.3,5.7c-0.2,1.9,0,4,0.4,5.9c0.3,1.5,1.7,2.4,2,3.8c0.3,1.5-1,1.6-2.1,1.3c-0.3,0.1-0.6,0-0.8-0.2
			c-0.3-0.1-0.6-0.3-0.8-0.3c-2.3-1.2-3.1-3.2-3.3-5.8C-52.4,463.4-51.5,460-50,456.8"/>
		<path class="st9" d="M-38.7,451.8c1.3,2.3,3.3,3.2,4.8,9.4c0.6,2.4,0.7,4.7,0,8.3c-0.3,1.3-3.2,3.6-6.5,4.1
			c-1.7,0.3-3.7,0.1-6.5-0.3c-1-0.1-5.1-1-5.4-4c-0.2-2.3-1-4.7,0-8.3c0.9-3,1.8-4.4,5.5-9.8s3.4-5.3,3.4-5.3S-40,449.5-38.7,451.8z
			"/>
		<path class="st5" d="M-52.8,441c-1.4,4,0.6,8.4,4.6,9.8s8.4-0.6,9.8-4.6s-0.6-8.4-4.6-9.8S-51.4,437-52.8,441"/>
		<path class="st6" d="M-49,450.4c-0.6-0.5-1.2-0.9-1.8-1.5h0.1c-0.1-0.1-0.3-0.3-0.4-0.5c-1.6-1.9-3-5.3-1-7.3
			c2.2-2.1,3.3,2.3,3.8,3.5c0.5,1.3,1.6,2.4,2.9,3c0.3,0,0.6,0.1,0.8,0.3c1.5,0.4,3.2,0.2,4.4-1c0.5-0.5,1.2,0.1,1.1,0.7
			c0.6-0.1,1.1,0.8,0.6,1.2c-0.2,0.2-0.5,0.3-0.7,0.5c-0.3,0.6-0.9,0.9-1.6,1.1c-0.2,0.1-0.4,0.1-0.5,0c-0.1,0.1-0.2,0.2-0.3,0.3
			c-2.5,0.8-5.1,0.6-7.3-0.7C-49.1,450.2-49.1,450.3-49,450.4"/>
		<circle class="st9" cx="-45.3" cy="443.7" r="7.7"/>
		<path class="st10" d="M-39.7,438.9c0,0-6.5-1.6-7.1-7"/>
		<path class="st10" d="M-46.6,451.4c0,0-0.7,2.7,1.7,2.7c2.4,0,3.9-3.5,3.9-3.5"/>
		<path class="st10" d="M-38.7,451.8c1.9,6.9,0.1,12.1-2.4,13.4c-1.7,0.9-0.4-15.2-5.2-15.5"/>
		<circle class="st2" cx="-44.4" cy="442.5" r="0.9"/>
		<circle class="st2" cx="-49.9" cy="442.5" r="0.9"/>
		<g>
			<g>
				<path class="st2" d="M-45.1,445.2c-0.1,0.5-0.4,1-0.7,1.4c-0.8,1.1-2,0.9-3.1,0.3c-0.4-0.2-0.7,0.3-0.3,0.6
					c1.2,0.7,2.5,0.9,3.6-0.1c0.5-0.5,0.9-1.3,1.1-2C-44.4,445-45,444.8-45.1,445.2L-45.1,445.2z"/>
			</g>
		</g>
	</g>
	<path class="st10" d="M-41.8,474.1c0.4-0.1-11.2-9.9-15.1-7s-8.2,14-8.2,14l-5.3,0.5"/>
	<path class="st10" d="M-50.6,472c0,0-12.3-9-13.9-6.4c-1.6,2.6-5.6,14-5.6,14l-5.1,0.6"/>
	<path class="st10" d="M-48.5,454.1l-6.1,9.3c0,0-11.7-0.1-12-0.1c-0.4,0-4,3.1-4,3.1"/>
</g>
<circle class="st11" cx="-62" cy="433.5" r="4.9"/>
<circle class="st11" cx="-82.9" cy="421.4" r="8.2"/>
<path class="st11" d="M-185,406.4c-2-8.8,2.8-17.8,11.2-22.7c-1.7-11,6.8-21.9,19.5-24.7c8.9-2,17.5,0.5,23,5.8c2-1,4.3-1.9,6.7-2.4
	c13.2-2.9,25.9,4,28.4,15.3c0.8,3.8,0.4,7.7-1,11.2c2.8,2.6,4.8,5.9,5.6,9.7c2.5,11.4-6.1,23-19.3,25.9c-2.7,0.6-5.3,0.8-7.8,0.6
	c-3.5,4.6-8.9,8.1-15.3,9.5c-12,2.6-23.5-2.8-27.4-12.4C-172.8,422.9-182.8,416.4-185,406.4z"/>
<g>
	<g>
		<defs>
			<path id="SVGID_3_" d="M-181.9,405.3c-1.8-8.1,2.6-16.4,10.3-20.9c-1.6-10.1,6.2-20.1,17.9-22.7c8.2-1.8,16.1,0.5,21.1,5.4
				c1.9-1,3.9-1.7,6.1-2.2c12.1-2.7,23.8,3.6,26.1,14.1c0.8,3.5,0.4,7.1-0.9,10.3c2.6,2.4,4.4,5.4,5.2,9
				c2.3,10.5-5.6,21.1-17.7,23.8c-2.5,0.5-4.9,0.7-7.2,0.5c-3.2,4.2-8.1,7.4-14.1,8.8c-11,2.4-21.6-2.6-25.2-11.4
				C-170.7,420.4-179.9,414.4-181.9,405.3z"/>
		</defs>
		<clipPath id="SVGID_4_">
			<use xlink:href="#SVGID_3_"  style="overflow:visible;"/>
		</clipPath>
	</g>
	<g>
		<defs>
			<path id="SVGID_5_" d="M-181.9,405.3c-1.8-8.1,2.6-16.4,10.3-20.9c-1.6-10.1,6.2-20.1,17.9-22.7c8.2-1.8,16.1,0.5,21.1,5.4
				c1.9-1,3.9-1.7,6.1-2.2c12.1-2.7,23.8,3.6,26.1,14.1c0.8,3.5,0.4,7.1-0.9,10.3c2.6,2.4,4.4,5.4,5.2,9
				c2.3,10.5-5.6,21.1-17.7,23.8c-2.5,0.5-4.9,0.7-7.2,0.5c-3.2,4.2-8.1,7.4-14.1,8.8c-11,2.4-21.6-2.6-25.2-11.4
				C-170.7,420.4-179.9,414.4-181.9,405.3z"/>
		</defs>
		<clipPath id="SVGID_6_">
			<use xlink:href="#SVGID_5_"  style="overflow:visible;"/>
		</clipPath>
	</g>
	<g>
		<defs>
			<path id="SVGID_7_" d="M-181.9,405.3c-1.8-8.1,2.6-16.4,10.3-20.9c-1.6-10.1,6.2-20.1,17.9-22.7c8.2-1.8,16.1,0.5,21.1,5.4
				c1.9-1,3.9-1.7,6.1-2.2c12.1-2.7,23.8,3.6,26.1,14.1c0.8,3.5,0.4,7.1-0.9,10.3c2.6,2.4,4.4,5.4,5.2,9
				c2.3,10.5-5.6,21.1-17.7,23.8c-2.5,0.5-4.9,0.7-7.2,0.5c-3.2,4.2-8.1,7.4-14.1,8.8c-11,2.4-21.6-2.6-25.2-11.4
				C-170.7,420.4-179.9,414.4-181.9,405.3z"/>
		</defs>
		<clipPath id="SVGID_8_">
			<use xlink:href="#SVGID_7_"  style="overflow:visible;"/>
		</clipPath>
	</g>
</g>
</svg>
