<?xml version="1.0" encoding="utf-8"?>
<!-- Generator: Adobe Illustrator 19.0.0, SVG Export Plug-In . SVG Version: 6.00 Build 0)  -->
<svg version="1.1" id="Capa_1" xmlns="http://www.w3.org/2000/svg" xmlns:xlink="http://www.w3.org/1999/xlink" x="0px" y="0px"
	 viewBox="-191 298.9 228 196.1" style="enable-background:new -191 298.9 228 196.1;" xml:space="preserve">
<style type="text/css">
	.st0{fill:#E1DFE6;}
	.st1{fill:none;}
	.st2{fill:#004966;}
	.st3{fill:#64AC28;}
	.st4{opacity:0.5;fill:#64AC28;enable-background:new    ;}
	.st5{fill:#FFFFFF;}
	.st6{fill:#DFDEE4;}
	.st7{clip-path:url(#SVGID_2_);fill:#64AC28;}
	.st8{fill:#0098D5;}
	.st9{fill:none;stroke:#004966;stroke-width:1.7025;stroke-miterlimit:10;}
	.st10{fill:none;stroke:#004966;stroke-width:1.7025;stroke-linecap:round;stroke-miterlimit:10;}
	.st11{fill:none;stroke:#004966;stroke-width:1.6711;stroke-linecap:round;stroke-miterlimit:10;}
</style>
<g>
	<path class="st0" d="M-149.6,350.6c6.8-0.3,13.6-0.7,20.4-0.4c7.4,0.4,14.6,1.4,22,1.4c6.9,0,13.6-0.7,20.4,0.1
		c5.6,0.7,11.3,2.6,16.4-1c3.2-2.3,1.1-7.2-2.2-6.7c-1.3-3.2-4.9-5.7-8.2-6c-2.1-0.2-2.5,2.7-1,3.7c1.3,0.9,2.7,1.6,4,2.5
		c0.5,0.3,0.9,0.7,1.3,1.1c-1.8,0.2-3.7-0.2-5.4-0.5c-3.1-0.5-6.1-0.9-9.3-0.8c-6.5,0.4-12.8,0.8-19.3,0.4
		c-12.4-0.7-25.3-1.6-37.7,0.5c-0.3-0.8-0.3-1.6-0.2-2.4c0-0.6-0.9-0.9-1.2-0.3c-0.7,1.5-1.4,2.9-2.3,4.3
		C-152.9,348.3-151.6,350.7-149.6,350.6z"/>
	<path class="st0" d="M-104.9,322.9c2.8,1.5,5.8,2.7,6.5,6.2c0.1,0.6,1.1,0.6,1.2,0c1.1-6.7-6.7-12.4-11.8-15
		c-2.3-1.2-4.8,1.7-2.8,3.7C-109.8,319.8-107.5,321.5-104.9,322.9z"/>
	<path class="st0" d="M-91.1,324.9c0.6,0.3,1.1,0.7,1.5,1.2c-0.6,0.9-0.6,2.1,0.6,2.7c1.5,0.7,3,1.7,4,3c1.1,1.4,2.4,4.2,2,6
		c-0.2,0.6,0.7,0.8,0.9,0.3c0.6-1.4,1.5-2.6,1.6-4.2c0.1-1.3-0.3-2.7-0.8-3.9c-1.1-2.3-3.1-3.9-5.5-4.7c-0.2-0.2-0.3-0.4-0.5-0.6
		c-0.8-0.8-1.9-1.4-3-1.7C-91.4,322.7-92.1,324.3-91.1,324.9z"/>
	<path class="st1" d="M-80,338.3c-0.6-0.1-1-0.5-0.9-1.1c0-0.4,0.1-0.9,0.1-1.3c0-6.6-4.7-11.2-11.5-11.2c-1.6,0-3.1,0.3-4.4,0.9
		c-0.5,0.2-1,0-1.3-0.4c-2.4-3.8-7.5-10-15.3-10c-6,0-16.2,2.2-16.8,16.6c0,0.3-0.2,0.6-0.4,0.8c-0.3,0.2-0.6,0.2-0.9,0.1
		c-1.6-0.5-3.2-0.7-4.7-0.7c-9.9,0-15.1,9.1-15.1,18.2l80.3,1.3c0.2-0.9,0.3-1.9,0.3-2.8C-70.7,343.4-74.9,338.8-80,338.3z"/>
	<path class="st1" d="M-75.6,350.9c-0.1,0.4-0.5,0.7-1,0.7l-82.1-1.3c-0.5,0-1-0.4-1-1c0-0.3,0-0.6,0-0.9c0-10.1,5.9-20.4,17.2-20.4
		c1.3,0,2.7,0.2,4.1,0.5c1-11,7.7-17.2,18.8-17.2c6.3,0,12.2,3.6,16.6,10.3c1.4-0.5,2.9-0.7,4.4-0.7c8,0,13.5,5.5,13.5,13.3
		c0,0.2,0,0.3,0,0.5c5.7,1,10.2,6.3,10.2,12.1C-75,348.2-75.2,349.5-75.6,350.9z"/>
	<path class="st2" d="M-78.8,336.4c0-0.2,0-0.3,0-0.5c0-7.8-5.6-13.3-13.5-13.3c-1.6,0-3,0.2-4.4,0.7c-4.4-6.6-10.3-10.3-16.6-10.3
		c-11,0-17.8,6.3-18.8,17.2c-1.4-0.3-2.8-0.5-4.1-0.5c-11.3,0-17.2,10.2-17.2,20.4c0,0.3,0,0.6,0,0.9c0,0.5,0.5,1,1,1l82.1,1.3
		c0.5,0,0.9-0.3,1-0.7c0.4-1.4,0.6-2.7,0.6-4.1C-68.6,342.7-73.1,337.4-78.8,336.4z M-71,351.3l-80.3-1.3
		c0.1-9.1,5.2-18.2,15.1-18.2c1.5,0,3.1,0.2,4.7,0.7c0.3,0.1,0.6,0,0.9-0.1c0.3-0.2,0.4-0.5,0.4-0.8c0.7-14.4,10.8-16.6,16.8-16.6
		c7.8,0,13,6.3,15.3,10c0.3,0.4,0.8,0.6,1.3,0.4c1.3-0.6,2.8-0.9,4.4-0.9c6.8,0,11.5,4.6,11.5,11.2c0,0.4,0,0.9-0.1,1.3
		c0,0.6,0.4,1,0.9,1.1c5.1,0.5,9.3,5.1,9.3,10.2C-70.7,349.4-70.8,350.3-71,351.3z"/>
</g>
<g>
	<path class="st3" d="M-1.9,471.7c0,0-13.4-13.1-33.8-15s-45.3,2.3-54,7.7c-8.7,5.4-9.4,10.6-9.4,10.6s-32.1,4.7-26.8,9.2
		c5.3,4.5,39,9.6,64.8,8.7s21.6-6.5,21.6-6.5s29.8,2.3,37.5-1.6C5.6,481.1-1.9,471.7-1.9,471.7z"/>
	<path class="st4" d="M-28.7,471.9c-1.7-0.8-4.9-0.2-6.9-0.3c-2.7-0.1-5.5-0.4-8.2-0.1c-1.9,0.2-4.8,0.4-6.5,1.4
		c-2,1.2-0.4,1.1,0.1,2.5c-3.1,1-6.8,0.4-10,1.2c-1,0.2-3.3,0.5-3.9,1.5c-0.4,0.7-0.3,1.3,0.4,1.4c-2.2,0-16.9,1.4-16.6,4
		c3,1,6.3,0.6,9.3,0.7c3.8,0,7.5,0.4,11.3,0.3c2.9-0.1,6.5-0.1,9.2-1.5c2.1-1.1,1.9-1.8-0.1-2.5c1.8,0.2,17.7,0.8,16.6-1.7
		c2.4,0.6,6.6,0.2,8.1-2.2c1.6-2.5-1.7-3.8-3.8-4.1"/>
</g>
<g>
	<path class="st5" d="M27.5,361.4c0,31-25.1,56.1-56.1,56.1s-56.1-25.1-56.1-56.1s25.1-56.1,56.1-56.1
		C2.4,305.4,27.5,330.5,27.5,361.4"/>
	<path class="st6" d="M-17.9,407.5c-3.3,2.4-8.7,2.3-10.7-3.1c-0.1-0.3-0.2-0.6-0.3-0.9c-0.9-1.3-1.4-2.9-1.3-4.6v-0.1
		c-13,3.3-26.7,1.7-39.3-7.4c-0.9-0.7-2.3,0.7-1.6,1.6c21.6,29.1,68.9,25.9,87.7-4.5c1-1.7,1.4-3.4,1.1-5
		C10.5,396.9-3,408-17.9,407.5"/>
	<path class="st6" d="M-24.5,403.5c0.1,0.3,0.2,0.6,0.3,0.9c2,5.4,7.4,5.5,10.7,3.1c2.4-1.7,3.6-4.8,1.5-8.2c-1.9-3-3.5-6.3-4.8-9.8
		c-5.3-14-6-30.7-4.8-45c0.1-1.3-1.7-1.6-2.3-0.6c-5,7.8-4.6,19.9-4.5,28.7c0.1,8.5,0.5,17.7,2.6,26.2v0.1
		C-25.4,400.5-25,402-24.5,403.5"/>
	<path class="st2" d="M-26.2,301.6c-3.8,0-11.5,0.4-16.5,1.8c-7.3,2.1-14.1,6.2-20.6,10.2l-1.1,0.6c-15,9.1-23.6,25-23.6,43.6
		c0,34.7,24.4,59.9,58.2,60.7c-0.1-1.5-0.2-3.1-0.3-4.6c-35-0.9-53.3-28.6-53.3-56c0-17,7.8-31.4,21.4-39.6l1.1-0.6
		c6.6-4,12.8-7.7,19.5-9.7c4.5-1.3,11.9-1.6,15.2-1.6c30.7,0,53,21.8,53,51.9c0,33.2-26.6,54.2-52.3,55.6c0.1,1.5,0.2,3.1,0.3,4.6
		c15.3-0.8,29.4-7.4,40-18.7c10.5-11.3,16.6-26.5,16.6-41.5C31.4,325.4,7.2,301.6-26.2,301.6"/>
	<g>
		<g>
			<g>
				<defs>
					<rect id="SVGID_1_" x="-69.4" y="309" width="89" height="107.3"/>
				</defs>
				<clipPath id="SVGID_2_">
					<use xlink:href="#SVGID_1_"  style="overflow:visible;"/>
				</clipPath>
				<path class="st7" d="M6.2,335.5c-0.8-1.1-1.8-2.2-2.9-3.2c-5.1-4.7-9.7-9.8-14-15.2c-3.2-4-8.9-2-11.1,1.8
					c2-4.4,0.1-10.4-5.9-9.8c-14.6,1.4-30,5.7-38,19.1c-5.7,9.6-4.4,22.2,1.4,31.4c0.9,1.4,1.9,2.7,3,3.9c0.6,1.5,1.7,2.9,3,3.8
					c1.1,0.8,2.2,1.5,3.3,2.3c-0.4,0.5-0.9,0.9-1.3,1.4c-7.7,8.7-8.7,20.3-0.6,29c2.5,2.7,5.6,4.6,9,5.9c9.7,9,22.7,16.4,31.8,3.6
					c4-5.6,5.4-12.8,5.1-20.1c3.4-0.4,6.8-0.5,10.3,0c6,0.7,7.9-6.1,5.9-10.4c7.8-4.5,13.5-12,14.3-23.1
					C20.2,346.3,13.9,339.6,6.2,335.5 M-48.5,384c0.9-2.4,3.2-4.9,5.8-7c0.6,1,1.4,1.8,2.4,2.3c1.6,0.7,3.2,1.4,4.9,2
					C-39.7,382.4-44,383.5-48.5,384 M-27.7,323.1c2.7-0.3,4.5-1.7,5.6-3.6c-0.4,0.8-0.6,1.7-0.6,2.6c0,1.8,0,3.6,0,5.3
					c-0.8,0.1-1.7,0.3-2.5,0.6c-11.6,4.9-20.7,12.3-28.7,21.3C-61.9,333.2-40.9,324.4-27.7,323.1 M-25.3,393.8
					c-2.2,0.3-4.5,0.5-6.8,0.6c2.3-0.7,4.6-1.4,6.9-2C-25.2,392.8-25.2,393.3-25.3,393.8 M4.8,358.7c-1.3,4-3.8,6.8-7,8.7
					c-1.6-3-2.7-6.1-3.7-9.2c0.8-2.4,1.5-4.9,2-7.4c1.7-0.7,3.4-1.5,5-2.3C4.6,350.8,6.3,354.1,4.8,358.7"/>
			</g>
		</g>
	</g>
	<path class="st2" d="M-26.5,476.6c0-41-0.3-101.8-0.4-143.2c0-6.1-1.1-11-2.3-11c-1.3,0.1-2.3,5.3-2.3,11.5
		c0.2,41.9,0.5,97.6,0.5,139.3c0.7,2.1,1.5,3.1,2.3,5.1c0.8-2.7,1.6-1.7,2.4-4.5"/>
	<path class="st2" d="M-28.9,356.9c0.5,0,0.9-0.1,1.3-0.4c0.3-0.2,0.6-0.5,1-0.7c3.4-2.4,6.7-4.9,9.8-7.4c4.9-3.8,9.6-7.5,14.6-10.4
		c1.1-0.6,1.5-2,0.9-3.2c-0.6-1.1-2-1.5-3.2-0.9c-5.3,3.1-10.3,7-15.2,10.7c-2.3,1.8-4.6,3.6-7,5.3c-0.8,0.6-1.6,1.2-2.4,1.7
		c-0.7-0.4-1.5-0.9-2.2-1.3c-2.2-1.3-4.4-2.6-6.6-3.9c-4.8-3-9.7-6-14.9-8.3c-1.2-0.5-2.5,0-3,1.2s0,2.5,1.2,3
		c4.9,2.1,9.7,5.1,14.4,8c2.9,1.8,5.9,3.7,9,5.4c0.4,0.2,0.8,0.5,1.3,0.7C-29.7,356.8-29.3,356.9-28.9,356.9"/>
	<path class="st2" d="M-30.3,378.3c0.4,0,0.8-0.1,1.2-0.3c0.7-0.4,1.4-0.8,2.1-1.2c2.3-1.3,4.5-2.6,6.8-3.9
		c11.8-6.8,24.1-13.8,34.7-22.7c1-0.8,1.1-2.3,0.3-3.3s-2.3-1.1-3.3-0.3c-10.3,8.6-22.3,15.5-34,22.2c-1.5,0.9-3,1.7-4.6,2.6
		c-1.1,0.6-2.2,1.3-3.3,1.9c-0.4-0.2-0.9-0.5-1.3-0.7c-4.9-2.6-9.7-5.5-14.4-8.3c-6.9-4.1-14-8.4-21.5-11.8c-1.2-0.5-2.5,0-3.1,1.1
		c-0.5,1.2,0,2.5,1.1,3.1c7.2,3.3,14.2,7.5,21,11.6c5.4,3.3,11,6.6,16.8,9.6c0.1,0,0.2,0.1,0.3,0.1C-31,378.2-30.6,378.3-30.3,378.3
		"/>
	<path class="st2" d="M11.5,369.8c-0.8-1-2.3-1.1-3.3-0.3c-11,9.2-22.7,17.2-34.9,23.9c-0.5,0.3-1,0.6-1.5,0.8
		c-1-0.4-2.1-0.9-3.1-1.4c-13.1-5.9-25.8-13.2-36.8-19.6c-1.1-0.6-2.5-0.3-3.2,0.8c-0.6,1.1-0.3,2.5,0.8,3.2
		c11.6,6.9,25.2,14.7,39.2,20.8c0.7,0.3,1.5,0.7,2.2,1c0.3,0.1,0.6,0.2,0.9,0.2c0.4,0,0.8-0.1,1.1-0.3c0.2-0.1,0.3-0.2,0.5-0.3
		c13.2-7.1,25.9-15.7,37.7-25.6C12.2,372.2,12.3,370.7,11.5,369.8"/>
</g>
<g>
	<g>
		<path class="st8" d="M-36.1,452.2c1.3,2.3,3.3,3.2,4.8,9.4c0.6,2.4,0.7,4.7,0,8.3c-0.3,1.3-3.2,3.6-6.5,4.1
			c-1.7,0.3-3.7,0.1-6.5-0.3c-1-0.1-5.1-1-5.4-4c-0.2-2.3-1-4.7,0-8.3c0.9-3,1.8-4.4,5.5-9.8s3.4-5.3,3.4-5.3
			S-37.5,449.9-36.1,452.2"/>
		<path class="st5" d="M-31.2,462.7l-0.8-1.9c-5.8,2.6-12.4,1.3-16.5-0.1l-1.4,4.2c3.9,1.6,11.5,3.7,19.1-0.2L-31.2,462.7z"/>
		<path class="st8" d="M-47.2,457.2c0.6-1.3,1.4-2.4,2-3.7c0.3-0.7,0.7-1.7,1.5-1.9c0.1-0.1,0.3-0.2,0.5-0.3
			c-0.2-0.1-0.4-0.2-0.6-0.3c-0.2-0.1-0.4-0.3-0.6-0.4c1.2,0.3,2.4,0.6,3.5,1.4c-0.1,0-0.3,0-0.4-0.1c0.3,0.3,0.5,0.8,0.5,1.3
			c0,1.4-0.7,2.6-1.4,3.7c-1.2,1.9-2,3.5-2.3,5.7c-0.2,1.9,0,4,0.4,5.9c0.3,1.5,1.7,2.4,2,3.8c0.3,1.5-1,1.6-2.1,1.3
			c-0.3,0.1-0.6,0-0.8-0.2c-0.3-0.1-0.6-0.3-0.8-0.3c-2.3-1.2-3.1-3.2-3.3-5.8C-49.6,463.8-48.7,460.4-47.2,457.2"/>
		<path class="st9" d="M-35.9,452.2c1.3,2.3,3.3,3.2,4.8,9.4c0.6,2.4,0.7,4.7,0,8.3c-0.3,1.3-3.2,3.6-6.5,4.1
			c-1.7,0.3-3.7,0.1-6.5-0.3c-1-0.1-5.1-1-5.4-4c-0.2-2.3-1-4.7,0-8.3c0.9-3,1.8-4.4,5.5-9.8s3.4-5.3,3.4-5.3
			S-37.2,449.9-35.9,452.2z"/>
		<path class="st5" d="M-50,441.4c-1.4,4,0.6,8.4,4.6,9.8s8.4-0.6,9.8-4.6s-0.6-8.4-4.6-9.8S-48.6,437.4-50,441.4"/>
		<path class="st6" d="M-46.2,450.8c-0.6-0.5-1.2-0.9-1.8-1.5h0.1c-0.1-0.1-0.3-0.3-0.4-0.5c-1.6-1.9-3-5.3-1-7.3
			c2.2-2.1,3.3,2.3,3.8,3.5c0.5,1.3,1.6,2.4,2.9,3c0.3,0,0.6,0.1,0.8,0.3c1.5,0.4,3.2,0.2,4.4-1c0.5-0.5,1.2,0.1,1.1,0.7
			c0.6-0.1,1.1,0.8,0.6,1.2c-0.2,0.2-0.5,0.3-0.7,0.5c-0.3,0.6-0.9,0.9-1.6,1.1c-0.2,0.1-0.4,0.1-0.5,0c-0.1,0.1-0.2,0.2-0.3,0.3
			c-2.5,0.8-5.1,0.6-7.3-0.7C-46.3,450.6-46.3,450.7-46.2,450.8"/>
		<circle class="st9" cx="-42.5" cy="444.1" r="7.7"/>
		<path class="st10" d="M-36.9,439.3c0,0-6.5-1.6-7.1-7"/>
		<path class="st10" d="M-43.8,451.8c0,0-0.7,2.7,1.7,2.7c2.4,0,3.9-3.5,3.9-3.5"/>
		<path class="st10" d="M-35.9,452.2c1.9,6.9,0.1,12.1-2.4,13.4c-1.7,0.9-0.4-15.2-5.2-15.5"/>
		<circle class="st2" cx="-41.6" cy="442.9" r="0.9"/>
		<circle class="st2" cx="-47.1" cy="442.9" r="0.9"/>
		<g>
			<g>
				<path class="st2" d="M-42.3,445.6c-0.1,0.5-0.4,1-0.7,1.4c-0.8,1.1-2,0.9-3.1,0.3c-0.4-0.2-0.7,0.3-0.3,0.6
					c1.2,0.7,2.5,0.9,3.6-0.1c0.5-0.5,0.9-1.3,1.1-2C-41.6,445.4-42.2,445.2-42.3,445.6L-42.3,445.6z"/>
			</g>
		</g>
	</g>
	<path class="st10" d="M-39,474.5c0.4-0.1-11.2-9.9-15.1-7s-8.2,14-8.2,14l-5.3,0.5"/>
	<path class="st10" d="M-47.8,472.4c0,0-12.3-9-13.9-6.4s-5.6,14-5.6,14l-5.1,0.6"/>
	<path class="st10" d="M-45.7,454.5l-6.1,9.3c0,0-11.7-0.1-12-0.1c-0.4,0-4,3.1-4,3.1"/>
</g>
<circle class="st11" cx="-59.2" cy="433.9" r="4.9"/>
<circle class="st11" cx="-80.1" cy="421.8" r="8.2"/>
</svg>
