<?xml version="1.0" encoding="utf-8"?>
<!-- Generator: Adobe Illustrator 19.0.0, SVG Export Plug-In . SVG Version: 6.00 Build 0)  -->
<svg version="1.1" id="Capa_1" xmlns="http://www.w3.org/2000/svg" xmlns:xlink="http://www.w3.org/1999/xlink" x="0px" y="0px"
	 viewBox="-144 201.1 321.1 391.9" style="enable-background:new -144 201.1 321.1 391.9;" xml:space="preserve">
<style type="text/css">
	.st0{fill:#E0DFE6;}
	.st1{fill:none;stroke:#1F4D69;stroke-width:3;stroke-linecap:round;stroke-linejoin:round;stroke-miterlimit:10;}
	.st2{fill:none;stroke:#939393;stroke-width:9;stroke-linecap:round;stroke-linejoin:round;stroke-miterlimit:10;}
	.st3{fill:#1F4D69;stroke:#1F4D69;stroke-width:3;stroke-linecap:round;stroke-linejoin:round;stroke-miterlimit:10;}
	.st4{fill:#296684;stroke:#1F4D69;stroke-width:3;stroke-linecap:round;stroke-linejoin:round;stroke-miterlimit:10;}
	.st5{fill:#1F4D69;stroke:#1F4E69;stroke-width:2;stroke-miterlimit:10;}
</style>
<path class="st0" d="M-106.3,484.6c0,0,17-37.1,39.9-37.1s53.4,39.9,83,20c29.6-20-3.3-53,32.5-52.4c35.9,0.5,61.3-30.9,59.8-84.4
	s14.6-102,30.5-111v298.8h-245.7V484.6L-106.3,484.6z"/>
<rect x="-106.3" y="219.6" class="st1" width="245.7" height="298.4"/>
<line class="st2" x1="-50.2" y1="390.1" x2="83.2" y2="390.1"/>
<line class="st2" x1="-66.5" y1="410.2" x2="99.5" y2="410.2"/>
<line class="st2" x1="-30.4" y1="432.6" x2="63.5" y2="432.6"/>
<line class="st2" x1="-43.6" y1="455" x2="76.7" y2="455"/>
<line class="st2" x1="-30.4" y1="477.3" x2="63.5" y2="477.3"/>
<polygon class="st3" points="16.5,518.5 139.4,518.5 78,546.5 16.5,574.5 -44.9,546.5 -106.3,518.5 "/>
<polygon class="st4" points="16.5,574.5 16.5,518.5 -106.3,518.5 "/>
<g>
	<path class="st5" d="M-61,280.4c0-2,0.3-3.8,0.8-5.5c0.5-1.7,1.3-3.1,2.3-4.2c1-1.2,2.3-2.1,3.9-2.7c1.6-0.6,3.4-1,5.6-1
		c1.3,0,2.5,0.1,3.7,0.4c1.2,0.3,2.3,0.6,3.2,1.1c0.9,0.5,1.7,1,2.2,1.6c0.6,0.6,0.8,1.2,0.8,1.9c0,0.7-0.3,1.3-0.8,1.8
		c-0.5,0.5-1.1,0.7-1.9,0.7c-0.5,0-0.9-0.1-1.1-0.2c-0.3-0.2-0.6-0.4-1-0.6l-0.3-0.2c-1.4-1-3-1.5-4.7-1.5c-1.3,0-2.4,0.2-3.3,0.6
		s-1.6,0.9-2.2,1.7c-0.6,0.7-0.9,1.6-1.2,2.6c-0.2,1-0.3,2.2-0.3,3.5V291c0,1.3,0.1,2.4,0.3,3.5c0.2,1,0.6,1.9,1.2,2.6
		c0.6,0.7,1.3,1.3,2.2,1.7c0.9,0.4,2,0.6,3.3,0.6c1.7,0,3.3-0.5,4.7-1.4l0.3-0.2c0.4-0.2,0.7-0.4,1-0.6s0.6-0.2,1.1-0.2
		c0.8,0,1.4,0.2,1.9,0.7c0.5,0.5,0.8,1.1,0.8,1.7c0,0.7-0.3,1.3-0.8,1.9c-0.6,0.6-1.3,1.1-2.2,1.6c-0.9,0.5-2,0.8-3.2,1.1
		c-1.2,0.3-2.4,0.4-3.7,0.4c-2.1,0-4-0.3-5.6-1c-1.6-0.6-2.8-1.5-3.9-2.7c-1-1.2-1.8-2.6-2.3-4.2c-0.5-1.6-0.8-3.5-0.8-5.5V280.4z"
		/>
	<path class="st5" d="M-28.2,303.7c-0.5,0.5-1.2,0.8-2,0.8s-1.5-0.3-2-0.8c-0.5-0.5-0.8-1.1-0.8-1.9v-21.6c0-0.7,0.3-1.3,0.8-1.8
		c0.5-0.5,1.2-0.8,2-0.8s1.5,0.3,2,0.8c0.5,0.5,0.8,1.1,0.8,1.8v21.6C-27.4,302.5-27.7,303.2-28.2,303.7z M-27.6,266.8
		c0.3-0.3,0.5-0.5,0.7-0.6c0.2-0.1,0.5-0.2,1-0.2c0.5,0,1,0.2,1.4,0.6c0.4,0.4,0.7,0.9,0.7,1.5c0,0.5-0.2,1-0.7,1.5l-3.9,4
		c-0.3,0.3-0.6,0.6-0.9,0.8c-0.3,0.2-0.7,0.3-1.1,0.3c-0.6,0-1.1-0.2-1.5-0.6c-0.4-0.4-0.6-0.9-0.6-1.6c0-0.3,0.2-0.7,0.5-1.1
		c0.3-0.4,0.7-0.9,1.2-1.4c0.5-0.5,1-1,1.5-1.4c0.5-0.5,0.9-0.9,1.3-1.3L-27.6,266.8z"/>
	<path class="st5" d="M-8.3,282.8c-0.6,0-1.1,0-1.5,0c-0.5,0-0.9,0-1.3,0.1c-0.4,0.1-0.9,0.2-1.3,0.4c-0.5,0.2-1,0.4-1.5,0.7
		c0,0.2,0.1,0.5,0.1,0.6s0,0.4,0,0.5v16.6c0,0.8-0.3,1.4-0.8,1.9c-0.5,0.5-1.2,0.8-2,0.8c-0.8,0-1.5-0.3-2-0.8
		c-0.5-0.5-0.8-1.1-0.8-1.9v-16.6c0-0.7-0.1-1.3-0.2-1.8c-0.1-0.4-0.3-0.9-0.6-1.2c-0.2-0.2-0.3-0.4-0.4-0.6
		c-0.1-0.2-0.1-0.5-0.1-0.8c0-0.7,0.3-1.3,0.8-1.8c0.5-0.4,1.2-0.7,1.9-0.7c0.5,0,0.9,0.1,1.3,0.4c0.4,0.3,0.8,0.6,1.1,1.1
		c1.2-0.7,2.4-1.2,3.6-1.6c1.2-0.4,2.3-0.6,3.2-0.6c1.3,0,2.2,0.2,2.7,0.7c0.5,0.5,0.8,1.1,0.8,1.8c0,0.8-0.3,1.5-0.8,2
		C-6.8,282.6-7.5,282.9-8.3,282.8z"/>
	<path class="st5" d="M-2.4,287.3c0-1.3,0.2-2.6,0.6-3.8c0.4-1.2,1-2.2,1.8-3.1c0.8-0.9,1.8-1.5,3.1-2c1.3-0.5,2.8-0.8,4.5-0.8
		c0.7,0,1.5,0.1,2.4,0.2s1.8,0.3,2.6,0.6c0.8,0.3,1.5,0.7,2.1,1.2c0.6,0.5,0.9,1.1,0.9,1.9c0,0.6-0.2,1.1-0.6,1.5s-1,0.7-1.9,0.7
		c-0.4,0-0.8-0.1-1.3-0.2c-0.6-0.3-1.2-0.5-1.7-0.7c-0.6-0.2-1.3-0.3-2.1-0.3c-1.8,0-3,0.4-3.7,1.3c-0.7,0.9-1.1,2.1-1.1,3.6v7.4
		c0,1.6,0.4,2.8,1.1,3.7c0.7,0.9,2,1.3,3.7,1.3c0.9,0,1.6-0.1,2.1-0.3c0.6-0.2,1.1-0.4,1.7-0.7c0.2-0.1,0.4-0.1,0.6-0.2
		c0.2-0.1,0.4-0.1,0.7-0.1c0.9,0,1.5,0.2,1.9,0.7c0.4,0.5,0.6,1,0.6,1.5c0,0.8-0.3,1.4-0.9,1.9c-0.6,0.5-1.3,0.9-2.1,1.2
		s-1.7,0.5-2.6,0.6c-0.9,0.1-1.7,0.2-2.4,0.2c-1.7,0-3.2-0.3-4.5-0.8c-1.2-0.5-2.3-1.2-3.1-2.1c-0.8-0.9-1.4-1.9-1.8-3.1
		c-0.4-1.2-0.6-2.5-0.6-3.8V287.3z"/>
	<path class="st5" d="M36.5,302.4c-1.2,0.8-2.4,1.3-3.6,1.6c-1.2,0.3-2.4,0.5-3.7,0.5c-1.5,0-2.7-0.2-3.9-0.7
		c-1.1-0.5-2.1-1.2-2.8-2.1c-0.7-0.9-1.3-1.9-1.7-3.2c-0.4-1.2-0.6-2.6-0.6-4.1v-14.3c0-0.7,0.2-1.3,0.7-1.8
		c0.5-0.5,1.2-0.7,2.1-0.7c0.9,0,1.6,0.2,2.1,0.7c0.5,0.5,0.7,1.1,0.7,1.8v14.3c0,1.7,0.3,2.9,1,3.8c0.7,0.9,1.7,1.3,3,1.3
		c0.8,0,1.6-0.1,2.4-0.4c0.8-0.2,1.6-0.6,2.5-1c0-0.2-0.1-0.5-0.1-0.7c0-0.2,0-0.4,0-0.6v-16.9c0-0.7,0.2-1.3,0.7-1.8
		c0.5-0.5,1.2-0.7,2.1-0.7c0.9,0,1.6,0.2,2.1,0.7c0.5,0.5,0.7,1.1,0.7,1.8v17.4c0,0.9,0.1,1.5,0.3,1.8c0.2,0.3,0.4,0.6,0.7,1
		c0.2,0.2,0.3,0.4,0.4,0.6c0.1,0.2,0.2,0.5,0.2,0.8c0,0.8-0.3,1.4-0.8,1.8c-0.5,0.4-1.2,0.7-1.8,0.7c-0.6,0-1.1-0.2-1.5-0.5
		C37.3,303.3,36.9,302.9,36.5,302.4z"/>
	<path class="st5" d="M51.9,304.4c-0.4,0-0.9-0.1-1.3-0.2c-0.5-0.1-0.9-0.4-1.3-0.8c-0.4-0.4-0.7-1-1-1.7c-0.3-0.8-0.4-1.8-0.4-3
		v-29.6c0-0.7,0.3-1.3,0.8-1.8c0.5-0.5,1.2-0.8,2-0.8c0.8,0,1.5,0.3,2,0.8c0.5,0.5,0.8,1.1,0.8,1.8v29.3c0,0.6,0,1,0.1,1.3
		c0.1,0.3,0.3,0.6,0.6,1c0.2,0.2,0.3,0.4,0.5,0.5s0.2,0.5,0.2,0.9c0,0.7-0.3,1.3-0.8,1.7C53.5,304.2,52.8,304.4,51.9,304.4z"/>
	<path class="st5" d="M69.9,304.4c-1.7,0-3.2-0.2-4.5-0.7c-1.3-0.5-2.4-1.2-3.3-2c-0.9-0.8-1.6-1.8-2-3c-0.4-1.2-0.7-2.4-0.7-3.7
		v-8.2c0-1.3,0.2-2.6,0.7-3.7c0.4-1.1,1.1-2.1,2-3c0.9-0.8,2-1.5,3.3-2c1.3-0.5,2.8-0.7,4.5-0.7c1.7,0,3.2,0.2,4.5,0.7
		c1.3,0.5,2.4,1.2,3.3,2c0.9,0.8,1.5,1.8,2,3c0.4,1.1,0.7,2.4,0.7,3.7v8.2c0,1.3-0.2,2.6-0.7,3.7c-0.4,1.2-1.1,2.2-2,3
		c-0.9,0.8-2,1.5-3.3,2C73.1,304.2,71.6,304.4,69.9,304.4z M69.9,299.5c1.6,0,2.8-0.4,3.7-1.2c0.8-0.8,1.2-1.9,1.2-3.3v-8.3
		c0-1.4-0.4-2.5-1.2-3.3c-0.8-0.8-2-1.2-3.7-1.2s-2.8,0.4-3.7,1.2c-0.8,0.8-1.2,1.9-1.2,3.3v8.3c0,1.4,0.4,2.5,1.2,3.3
		C67.1,299.1,68.3,299.5,69.9,299.5z"/>
	<path class="st5" d="M85.2,285.2c0-2.4,0.8-4.2,2.3-5.7c1.5-1.4,3.8-2.1,6.9-2.1c0.8,0,1.6,0.1,2.5,0.2c0.9,0.1,1.7,0.3,2.4,0.6
		s1.4,0.7,1.8,1.1c0.5,0.5,0.7,1.1,0.7,1.9c0,0.7-0.2,1.2-0.6,1.6c-0.4,0.4-1,0.5-1.7,0.5c-0.4,0-0.8-0.1-1.1-0.2
		c-0.3-0.1-0.7-0.2-1.1-0.4c-0.4-0.1-0.8-0.3-1.3-0.4c-0.5-0.1-1-0.2-1.7-0.2c-0.3,0-0.7,0-1.1,0.1c-0.4,0.1-0.8,0.2-1.2,0.3
		c-0.4,0.2-0.7,0.4-1,0.8c-0.3,0.3-0.4,0.8-0.4,1.3c0,0.9,0.3,1.5,0.9,2c0.6,0.5,1.3,0.9,2.2,1.3c0.9,0.4,1.8,0.7,2.9,1.1
		c1.1,0.4,2,0.8,2.9,1.4c0.9,0.6,1.6,1.4,2.2,2.3c0.6,1,0.9,2.2,0.9,3.8c0,2.4-0.8,4.3-2.4,5.7c-1.6,1.4-3.9,2.1-7.1,2.1
		c-0.7,0-1.6-0.1-2.6-0.2s-1.9-0.3-2.8-0.5c-0.9-0.3-1.6-0.6-2.2-1c-0.6-0.4-0.9-1-0.9-1.7c0-0.2,0-0.5,0.1-0.9
		c0.1-0.3,0.2-0.7,0.5-0.9c0.2-0.3,0.5-0.5,0.9-0.6c0.4-0.2,0.8-0.2,1.4,0c0.5,0.1,1.2,0.3,2.2,0.7c1,0.3,2,0.5,3.1,0.5
		c1.2,0,2.2-0.3,3-0.8c0.8-0.5,1.2-1.3,1.2-2.2c0-0.8-0.3-1.4-0.9-1.9c-0.6-0.5-1.3-0.9-2.2-1.2c-0.9-0.3-1.9-0.7-2.9-1
		c-1.1-0.3-2-0.8-2.9-1.4c-0.9-0.6-1.6-1.3-2.2-2.3C85.5,287.9,85.2,286.7,85.2,285.2z"/>
	<path class="st5" d="M-76.4,324.9c0.8,0,1.7,0.1,2.5,0.2c0.8,0.1,1.7,0.4,2.7,0.8v-9.5c0-0.7,0.2-1.3,0.7-1.8
		c0.5-0.5,1.2-0.8,2.1-0.8c0.9,0,1.6,0.2,2.1,0.8c0.5,0.5,0.7,1.1,0.7,1.8V345c0,0.6,0.1,1,0.3,1.4c0.2,0.3,0.5,0.7,0.9,1.1
		c0.4,0.4,0.6,0.9,0.6,1.4c0,0.8-0.3,1.4-0.8,1.8c-0.6,0.4-1.1,0.6-1.8,0.6c-0.6,0-1.2-0.2-1.7-0.5c-0.5-0.3-0.9-0.8-1.3-1.3
		c-1.2,0.7-2.4,1.2-3.6,1.6c-1.2,0.4-2.4,0.6-3.7,0.6c-1.5,0-2.7-0.2-3.8-0.7c-1.1-0.5-2-1.2-2.8-2c-0.8-0.9-1.3-1.9-1.7-3.2
		c-0.4-1.2-0.6-2.6-0.6-4.1v-6.2c0-1.6,0.2-3,0.5-4.3c0.3-1.3,0.8-2.4,1.5-3.3c0.7-0.9,1.7-1.7,2.8-2.2
		C-79.7,325.1-78.2,324.9-76.4,324.9z M-71.2,330.5c-0.8-0.3-1.7-0.5-2.5-0.7c-0.8-0.1-1.5-0.2-2-0.2c-1.6,0-2.7,0.5-3.3,1.4
		c-0.6,1-1,2.4-1,4.4v6.2c0,3.5,1.4,5.2,4.2,5.2c1.3,0,2.9-0.4,4.7-1.3c-0.1-0.2-0.1-0.4-0.1-0.6c0-0.2,0-0.3,0-0.5V330.5z"/>
	<path class="st5" d="M-48.8,341.1c-0.7,0-1.5,0-2.2-0.1c-0.8-0.1-1.6-0.1-2.4-0.3v2.4c0,1.2,0.4,2.1,1.2,2.8c0.8,0.7,2,1,3.7,1
		c1,0,1.8-0.1,2.6-0.4c0.8-0.2,1.6-0.6,2.4-0.9c0.1-0.1,0.2-0.1,0.4-0.2c0.2-0.1,0.4-0.1,0.8-0.1c0.9,0,1.5,0.3,1.9,0.8
		c0.4,0.5,0.6,1,0.6,1.6c0,0.8-0.3,1.4-1,1.9c-0.7,0.5-1.5,0.9-2.4,1.2c-1,0.3-2,0.5-3,0.6c-1.1,0.1-2,0.2-2.7,0.2
		c-1.6,0-3-0.2-4.3-0.7c-1.2-0.5-2.3-1.1-3.1-1.9c-0.8-0.8-1.5-1.7-1.9-2.8c-0.4-1.1-0.7-2.3-0.7-3.5v-9.2c0-1.3,0.2-2.5,0.7-3.6
		c0.4-1.1,1.1-2,2-2.8c0.9-0.8,1.9-1.4,3.2-1.9c1.3-0.5,2.8-0.7,4.4-0.7c3.1,0,5.5,0.8,7.1,2.4c1.6,1.6,2.3,3.7,2.3,6.3
		c0,2.5-0.7,4.4-2.2,5.7C-43.1,340.4-45.5,341.1-48.8,341.1z M-44.9,333.1c0-1.4-0.3-2.4-1-3c-0.7-0.6-1.7-0.9-2.9-0.9
		c-1.5,0-2.6,0.4-3.4,1.1c-0.8,0.7-1.2,1.7-1.2,3v3.1c0.9,0.1,1.8,0.2,2.7,0.2c0.9,0.1,1.5,0.1,1.9,0.1c1.5,0,2.5-0.3,3.1-1
		C-45.2,335.1-44.9,334.2-44.9,333.1z"/>
	<path class="st5" d="M-14.3,351.7c-0.4,0-0.9-0.1-1.3-0.2c-0.5-0.1-0.9-0.4-1.3-0.8c-0.4-0.4-0.7-1-1-1.7c-0.3-0.8-0.4-1.8-0.4-3
		v-29.6c0-0.7,0.3-1.3,0.8-1.8c0.5-0.5,1.2-0.8,2-0.8c0.8,0,1.5,0.2,2,0.8c0.5,0.5,0.8,1.1,0.8,1.8v29.3c0,0.6,0,1,0.1,1.3
		c0.1,0.3,0.3,0.6,0.6,1c0.2,0.2,0.3,0.4,0.5,0.5c0.1,0.2,0.2,0.5,0.2,0.9c0,0.7-0.3,1.3-0.8,1.7C-12.7,351.5-13.4,351.7-14.3,351.7
		z"/>
	<path class="st5" d="M7.4,334c0-3-1.6-4.6-4.8-4.6c-0.7,0-1.3,0.1-1.7,0.2c-0.5,0.1-0.9,0.3-1.3,0.5l-1,0.4
		c-0.3,0.2-0.8,0.3-1.3,0.3c-0.8,0-1.3-0.2-1.6-0.7c-0.3-0.5-0.5-1-0.5-1.6c0-0.7,0.2-1.3,0.7-1.8c0.4-0.5,1.1-0.9,1.8-1.2
		c0.8-0.3,1.6-0.5,2.6-0.7c1-0.1,2-0.2,3-0.2c3.5,0,6.1,0.9,7.6,2.7s2.3,4.4,2.3,7.9v10.5c0,0.7,0.1,1.1,0.4,1.3
		c0.2,0.2,0.6,0.3,0.9,0.4c1,0.2,1.6,0.8,1.6,1.9c0,1.5-1,2.2-3.1,2.2c-1.8,0-3.2-0.8-4.2-2.3c-1.9,1.7-4.3,2.5-7.1,2.5
		c-2.8,0-5-0.7-6.4-2.2c-1.4-1.5-2.2-3.4-2.2-5.8v-0.2c0-5.2,3.2-7.8,9.7-7.8c1.6,0,3.1,0.2,4.7,0.6V334z M2.9,339.9
		c-0.9,0-1.6,0.1-2.2,0.3c-0.6,0.2-1,0.4-1.3,0.8c-0.3,0.3-0.5,0.7-0.6,1.2c-0.1,0.5-0.2,0.9-0.2,1.4v0.2c0,1,0.3,1.8,0.9,2.4
		c0.6,0.6,1.6,0.9,3,0.9c0.9,0,1.7-0.1,2.5-0.4c0.8-0.3,1.6-0.7,2.4-1.4v-4.7c-0.8-0.2-1.5-0.3-2.3-0.4C4.2,340,3.5,339.9,2.9,339.9
		z"/>
	<path class="st5" d="M54.3,329.6c-1.1,3.2-2.2,6.4-3.3,9.6c-1.1,3.2-2.2,6.4-3.3,9.7c-0.3,1-0.8,1.7-1.3,2.1
		c-0.5,0.4-1.2,0.6-2.1,0.6c-0.9,0-1.7-0.2-2.2-0.6c-0.5-0.4-0.9-1.1-1.3-2.1c-1.1-3.3-2.2-6.5-3.3-9.7c-1.1-3.2-2.2-6.5-3.3-9.7
		l-0.6-2c0-0.1,0-0.1,0-0.2c0,0,0-0.1,0-0.2c0-0.7,0.3-1.3,0.9-1.7c0.6-0.5,1.2-0.7,1.9-0.7c0.5,0,1,0.2,1.6,0.5
		c0.5,0.3,0.9,0.8,1,1.4c0.5,1.6,1,3.1,1.5,4.6c0.5,1.5,1,3.1,1.5,4.6c0.5,1.6,0.9,3.1,1.3,4.6c0.4,1.5,0.8,3,1.2,4.6
		c0.4-1.6,0.7-3.1,1.1-4.6c0.3-1.5,0.8-3,1.2-4.6c0.5-1.6,1-3.1,1.4-4.6c0.5-1.5,0.9-3.1,1.4-4.6c0.2-0.5,0.5-0.9,1-1.3
		c0.5-0.3,1-0.5,1.6-0.5c0.7,0,1.4,0.2,1.9,0.7c0.5,0.5,0.8,1.1,0.8,1.8v0.3L54.3,329.6z"/>
	<path class="st5" d="M66,317.2c0,0.9-0.4,1.6-1,2.2c-0.6,0.6-1.4,0.9-2.3,0.9c-0.9,0-1.7-0.3-2.3-0.9c-0.6-0.6-0.9-1.3-0.9-2.2
		c0-0.9,0.3-1.6,0.9-2.2c0.6-0.6,1.4-0.9,2.3-0.9c0.9,0,1.7,0.3,2.3,0.9C65.7,315.7,66,316.4,66,317.2z M65.6,349.1
		c0,0.8-0.3,1.4-0.8,1.9c-0.5,0.5-1.2,0.7-2,0.7c-0.8,0-1.5-0.2-2-0.7c-0.5-0.5-0.8-1.1-0.8-1.9v-21.6c0-0.7,0.3-1.3,0.8-1.8
		c0.5-0.5,1.2-0.8,2-0.8c0.8,0,1.5,0.3,2,0.8c0.5,0.5,0.8,1.1,0.8,1.8V349.1z"/>
	<path class="st5" d="M81.2,324.9c0.8,0,1.7,0.1,2.5,0.2c0.8,0.1,1.7,0.4,2.7,0.8v-9.5c0-0.7,0.2-1.3,0.7-1.8
		c0.5-0.5,1.2-0.8,2.1-0.8c0.9,0,1.6,0.2,2.1,0.8c0.5,0.5,0.7,1.1,0.7,1.8V345c0,0.6,0.1,1,0.3,1.4c0.2,0.3,0.5,0.7,0.9,1.1
		c0.4,0.4,0.6,0.9,0.6,1.4c0,0.8-0.3,1.4-0.8,1.8c-0.6,0.4-1.1,0.6-1.8,0.6c-0.6,0-1.2-0.2-1.7-0.5c-0.5-0.3-0.9-0.8-1.3-1.3
		c-1.2,0.7-2.4,1.2-3.6,1.6c-1.2,0.4-2.4,0.6-3.7,0.6c-1.5,0-2.7-0.2-3.8-0.7c-1.1-0.5-2-1.2-2.8-2c-0.8-0.9-1.3-1.9-1.7-3.2
		c-0.4-1.2-0.6-2.6-0.6-4.1v-6.2c0-1.6,0.2-3,0.5-4.3c0.3-1.3,0.8-2.4,1.5-3.3c0.7-0.9,1.7-1.7,2.8-2.2S79.5,324.9,81.2,324.9z
		 M86.4,330.5c-0.8-0.3-1.7-0.5-2.5-0.7c-0.8-0.1-1.5-0.2-2-0.2c-1.6,0-2.7,0.5-3.3,1.4c-0.6,1-1,2.4-1,4.4v6.2
		c0,3.5,1.4,5.2,4.2,5.2c1.3,0,2.9-0.4,4.7-1.3c-0.1-0.2-0.1-0.4-0.1-0.6c0-0.2,0-0.3,0-0.5V330.5z"/>
	<path class="st5" d="M112.2,334c0-3-1.6-4.6-4.8-4.6c-0.7,0-1.3,0.1-1.7,0.2c-0.5,0.1-0.9,0.3-1.3,0.5l-1,0.4
		c-0.3,0.2-0.8,0.3-1.3,0.3c-0.8,0-1.3-0.2-1.6-0.7c-0.3-0.5-0.5-1-0.5-1.6c0-0.7,0.2-1.3,0.7-1.8c0.4-0.5,1.1-0.9,1.8-1.2
		c0.8-0.3,1.6-0.5,2.6-0.7c1-0.1,2-0.2,3-0.2c3.5,0,6.1,0.9,7.6,2.7c1.5,1.8,2.3,4.4,2.3,7.9v10.5c0,0.7,0.1,1.1,0.4,1.3
		c0.2,0.2,0.6,0.3,0.9,0.4c1,0.2,1.6,0.8,1.6,1.9c0,1.5-1,2.2-3.1,2.2c-1.8,0-3.2-0.8-4.2-2.3c-1.9,1.7-4.3,2.5-7.1,2.5
		c-2.8,0-5-0.7-6.4-2.2c-1.4-1.5-2.2-3.4-2.2-5.8v-0.2c0-5.2,3.2-7.8,9.7-7.8c1.6,0,3.1,0.2,4.7,0.6V334z M107.7,339.9
		c-0.9,0-1.6,0.1-2.2,0.3c-0.6,0.2-1,0.4-1.3,0.8c-0.3,0.3-0.5,0.7-0.6,1.2c-0.1,0.5-0.2,0.9-0.2,1.4v0.2c0,1,0.3,1.8,0.9,2.4
		c0.6,0.6,1.6,0.9,3,0.9c0.9,0,1.7-0.1,2.5-0.4c0.8-0.3,1.6-0.7,2.4-1.4v-4.7c-0.8-0.2-1.5-0.3-2.3-0.4
		C109.1,340,108.4,339.9,107.7,339.9z"/>
</g>
</svg>
