<?xml version="1.0" encoding="utf-8"?>
<!-- Generator: Adobe Illustrator 19.0.0, SVG Export Plug-In . SVG Version: 6.00 Build 0)  -->
<svg version="1.1" id="Capa_1" xmlns="http://www.w3.org/2000/svg" xmlns:xlink="http://www.w3.org/1999/xlink" x="0px" y="0px"
	 viewBox="-208.6 358.2 74.3 125.7" style="enable-background:new -208.6 358.2 74.3 125.7;" xml:space="preserve">
<style type="text/css">
	.st0{fill:none;stroke:#004966;stroke-width:2.1769;stroke-linecap:round;stroke-miterlimit:10;}
	.st1{fill:#C7C5D0;}
	.st2{fill:#DFDEE4;}
	.st3{fill:none;stroke:#004966;stroke-width:2.1769;stroke-miterlimit:10;}
	.st4{fill:#FFFFFF;}
	.st5{fill:#004966;}
	.st6{fill:#C7C5D0;stroke:#004966;stroke-width:0.8714;stroke-linecap:round;stroke-miterlimit:10;}
	.st7{fill:none;stroke:#004966;stroke-width:0.6535;stroke-miterlimit:10;}
</style>
<g>
	<path class="st0" d="M-178.6,480.4c0,0,0.4-19.4-1.1-45.5"/>
	<path class="st0" d="M-163.8,480.9c0,0-1-23.1-1.1-45.5"/>
	<path class="st0" d="M-162.3,396.7c-2.9-0.8,21.6,16,22.3-3.6"/>
	<path class="st0" d="M-179.4,396.7c2.9-0.8-41.8,23.9-21.6-14.9"/>
	<path class="st1" d="M-179.3,394.7c-2.4,4.3-6.2,6.1-9,17.7c-1.1,4.6-1.4,8.7,0,15.6c0.5,2.4,6.1,6.7,12.1,7.7
		c3.2,0.5,7,0.2,12.2-0.5c1.9-0.3,9.6-1.9,10.1-7.5c0.4-4.3,1.9-8.9,0-15.6c-1.6-5.7-3.4-8.3-10.4-18.4s-6.5-9.9-6.5-9.9
		S-176.8,390.2-179.3,394.7"/>
	<path class="st2" d="M-158.5,403.4c-1.1-2.3-2.6-4.4-3.7-6.7c-0.5-1.2-1.3-3-2.8-3.4c-0.3-0.2-0.6-0.4-0.9-0.5
		c0.4-0.2,0.7-0.3,1-0.5c0.4-0.2,0.8-0.5,1.2-0.7c-2.3,0.6-4.6,1.1-6.5,2.5c0.3,0,0.5-0.1,0.8-0.1c-0.5,0.6-0.8,1.4-0.8,2.2
		c0,2.4,1.3,4.6,2.6,6.6c2.2,3.4,3.8,6.2,4.3,10.2c0.4,3.4,0.1,7.2-0.8,10.5c-0.6,2.6-3.2,4.2-3.7,6.9c-0.5,2.7,1.8,2.8,4,2.3
		c0.5,0.1,1.1,0,1.4-0.4c0.6-0.2,1.2-0.4,1.6-0.6c4.4-2.1,5.9-5.8,6.2-10.3C-154.1,415.1-155.8,409-158.5,403.4"/>
	<path class="st3" d="M-179.8,394.7c-2.4,4.3-6.2,6.1-9,17.7c-1.1,4.6-1.4,8.7,0,15.6c0.5,2.4,6.1,6.7,12.1,7.7
		c3.2,0.5,7,0.2,12.2-0.5c1.9-0.3,9.6-1.9,10.1-7.5c0.4-4.3,1.9-8.9,0-15.6c-1.6-5.7-3.3-8.3-10.4-18.4c-7-10.1-6.5-9.9-6.5-9.9
		S-177.3,390.2-179.8,394.7z"/>
	<path class="st4" d="M-157.5,378.7c0,7.9-6.4,14.4-14.4,14.4c-7.9,0-14.4-6.4-14.4-14.4c0-7.9,6.4-14.4,14.4-14.4
		C-164,364.3-157.5,370.7-157.5,378.7"/>
	<path class="st2" d="M-170.3,392.8c1.4-0.5,2.7-0.9,4-1.4c-0.1,0-0.1-0.1-0.2-0.1c0.4-0.2,0.7-0.3,1-0.5c4.1-2.2,8.7-7.5,6.5-12.2
		c-2.5-5.1-7.3,2-8.9,3.8c-1.7,2-4.3,3.2-6.9,3.4c-0.6-0.3-1.1-0.2-1.6,0c-3-0.2-5.8-1.7-7.1-4.6c-0.6-1.2-2.2-0.6-2.4,0.5
		c-1.1-0.5-2.5,0.7-1.8,1.8c0.3,0.4,0.6,0.9,1,1.3c0.2,1.2,1.1,2.2,2.1,3c0.3,0.3,0.6,0.3,0.9,0.3c0,0.3,0.2,0.5,0.4,0.7
		c3.9,3,8.6,4.4,13.2,3.5C-170,392.5-170.1,392.7-170.3,392.8"/>
	<circle class="st3" cx="-172.4" cy="378.7" r="14.4"/>
	<path class="st0" d="M-178.8,394.6c0,0,2.1,3.7,6.7,3.7c4.5,0,6-3.7,6-3.7"/>
	<path class="st0" d="M-183.1,364.1c0,0,0.4,3.1,9.7,6.6c9.3,3.6,17.5,3.9,17.6,4.2"/>
	<path class="st0" d="M-176.3,361.2c0,0,0.4,6.4-3.8,11.4c-4.3,5-9.8,8.3-9.8,8.3"/>
	<circle class="st5" cx="-174.9" cy="378.3" r="1.9"/>
	<circle class="st5" cx="-166" cy="378" r="1.9"/>
	<path class="st6" d="M-170.6,405.4l-0.5-6.4l-8.5-7.3l-3-1.5l-3.4,5.1c0,0,6.2,7.3,6.3,7s3.6-3.8,3.6-3.8L-170.6,405.4z"/>
	<polygon class="st6" points="-170.3,403.8 -167.1,396.6 -161.5,389.8 -156.8,395.4 -160.8,400.3 -164.5,397.6 	"/>
	<line class="st7" x1="-170.9" y1="403.2" x2="-170.3" y2="436"/>
	<path class="st5" d="M-166.4,386.7c0,0.8-1.7,2.2-4.5,1.5c-3.2-0.7-6.4-1.4-5.4-1.8c0.7-0.3,2.5,0.4,5.4-1
		C-168.4,384.1-166.4,385.9-166.4,386.7z"/>
</g>
</svg>
