<?xml version="1.0" encoding="utf-8"?>
<!-- Generator: Adobe Illustrator 19.0.0, SVG Export Plug-In . SVG Version: 6.00 Build 0)  -->
<svg version="1.1" id="Capa_1" xmlns="http://www.w3.org/2000/svg" xmlns:xlink="http://www.w3.org/1999/xlink" x="0px" y="0px"
	 viewBox="-264 356.4 40.3 94.7" style="enable-background:new -264 356.4 40.3 94.7;" xml:space="preserve">
<style type="text/css">
	.st0{fill:#004966;}
	.st1{fill:#B5D082;}
	.st2{fill:none;stroke:#004966;stroke-width:0.8413;stroke-miterlimit:10;}
	.st3{fill:none;stroke:#004966;stroke-width:1.8315;stroke-linecap:round;stroke-miterlimit:10;}
	.st4{fill:#FFFFFF;}
	.st5{fill:#DFDEE4;}
	.st6{fill:none;stroke:#004966;stroke-miterlimit:10;}
	.st7{fill:none;stroke:#004966;stroke-width:0.3665;stroke-linecap:round;stroke-miterlimit:10;}
	.st8{fill:#B5D082;stroke:#004966;stroke-width:0.4207;stroke-linecap:round;stroke-miterlimit:10;}
</style>
<g>
	<g id="XMLID_1_">
		<g>
			<path class="st0" d="M-243.2,408.7h8.4h0.1c0,4.9-3.9,8.8-8.8,8.8c-2.4,0-4.6-1-6.2-2.6c-1.6-1.6-2.6-3.8-2.6-6.2H-243.2z"/>
			<path class="st1" d="M-234.7,394v14.7h-0.1h-8.4l-0.3-20.8l-0.1-4.6c2.4,0,4.7,2.9,6.3,4.5C-235.7,389.3-234.7,391.5-234.7,394z"
				/>
			<path class="st1" d="M-243.4,387.9l-0.1-4.6c0,0-4.8-0.4-0.1,0c-0.4,0-0.7,0-1.1,0.1l-2.6-0.3l-1.6,0.5c0,0,0.4,0.9,0.7,1.5
				c-2.5,2.1-4.1,5.7-4.1,8.9v14.7h9.1L-243.4,387.9z"/>
		</g>
		<g>
			<path class="st2" d="M-234.7,408.7c0,4.9-3.9,8.8-8.8,8.8c-2.4,0-4.6-1-6.2-2.6c-1.6-1.6-2.6-3.8-2.6-6.2V394
				c0-4.9,2.3-11.4,7.2-11.4c0,0,1.4,0.1,1.5,0.1c2.4,0,4.8,3.5,6.4,5.1c1.6,1.6,2.6,3.8,2.6,6.2V408.7z"/>
			<polyline class="st2" points="-243.5,387.9 -243.2,408.7 -243.2,408.7 			"/>
			<polyline class="st2" points="-252.3,408.7 -243.2,408.7 -234.8,408.7 			"/>
		</g>
	</g>
	<path class="st3" d="M-248.4,449.8c0,0,0.3-14.7-0.8-34.5"/>
	<path class="st3" d="M-237.2,450.2c0,0-0.8-17.5-0.8-34.5"/>
	<path class="st3" d="M-238.1,385.7c-2.2-0.6,12.7,4.4,12.7,28.9"/>
	<path class="st3" d="M-249.1,386.5c2.2-0.6-12.7,4.4-12.7,28.9"/>
	<path class="st4" d="M-232.5,372.8c0,6-4.9,10.9-10.9,10.9c-6,0-10.9-4.9-10.9-10.9c0-6,4.9-10.9,10.9-10.9
		C-237.4,361.9-232.5,366.8-232.5,372.8"/>
	<path class="st5" d="M-242.1,383.5c1-0.3,2.1-0.7,3.1-1.1c-0.1,0-0.1,0-0.2-0.1c0.3-0.1,0.5-0.3,0.8-0.4c3.1-1.7,6.6-5.7,4.9-9.2
		c-1.9-3.9-5.6,1.5-6.7,2.9c-1.3,1.5-3.3,2.4-5.2,2.6c-0.4-0.2-0.8-0.2-1.2,0c-2.2-0.2-4.4-1.3-5.4-3.5c-0.4-0.9-1.7-0.4-1.8,0.4
		c-0.8-0.4-1.9,0.5-1.3,1.3c0.2,0.3,0.5,0.7,0.7,1c0.2,0.9,0.8,1.7,1.6,2.3c0.2,0.2,0.5,0.3,0.7,0.3c0,0.2,0.1,0.4,0.3,0.5
		c3,2.3,6.5,3.3,10,2.6C-241.9,383.3-242,383.4-242.1,383.5"/>
	<circle class="st6" cx="-243.8" cy="372.8" r="10.9"/>
	<path class="st7" d="M-246.6,379c0,0,1.6,1.4,4.2,1.2c2.6-0.3,3.7-1.3,3.7-1.3"/>
	<circle class="st0" cx="-245.6" cy="372.5" r="1.5"/>
	<circle class="st0" cx="-238.9" cy="372.3" r="1.5"/>
	<path class="st8" d="M-243.4,391.6c0,0,0.1-4-0.1-4c-0.2,0-5.9-4.4-5.9-4.4l-1.8,1l-0.1,5.4l2.1-4.1c0,0,1.5,1.5,3,2.3
		C-244.6,388.5-243.4,391.6-243.4,391.6z"/>
	<path class="st8" d="M-243.6,391.6c0,0-0.1-4,0.1-4c0.2,0,5.9-4.4,5.9-4.4l1.8,1l0.1,5.4l-2.1-4.1c0,0-1.5,1.5-3,2.3
		C-242.3,388.5-243.6,391.6-243.6,391.6z"/>
	<path class="st0" d="M-254.2,378c-0.2,0-2.9-2.1-3-7.2c-0.1-5.1,1.3-7.3,1.3-7.3s-1-2.7-0.8-2.8c0.2-0.1,1.7,0.9,1.7,0.9l-0.6-2.8
		l1.6,1.9c0,0,1-1.9,6.1-2.8c5.1-0.8,10.6,1.5,12.7,0.5c2.1-1,4.2-1.4,4.2-1.4s-3.3,3.5-3.1,3.5c0.2-0.1,3.8,0.4,3.8,0.4l-2.8,2.1
		c0,0,0.5,3.6,0.5,3.9c0.1,0.2-0.5,3.2-0.6,2.9c-0.1-0.2-1.2-5.9-5.8-6.9c-4.6-0.9-6.1,0.8-6.1,0.8l2.9,2.7l-6-2
		c0,0-1.6-0.7-3.5,0.9c-1.9,1.6-3.1,3.7-3.1,4.2c0,0.5,0,2.3,0.1,2.7"/>
</g>
</svg>
