<?xml version="1.0" encoding="utf-8"?>
<!-- Generator: Adobe Illustrator 19.0.0, SVG Export Plug-In . SVG Version: 6.00 Build 0)  -->
<svg version="1.1" id="Capa_1" xmlns="http://www.w3.org/2000/svg" xmlns:xlink="http://www.w3.org/1999/xlink" x="0px" y="0px"
	 viewBox="-264 353.5 36.5 97.5" style="enable-background:new -264 353.5 36.5 97.5;" xml:space="preserve">
<style type="text/css">
	.st0{fill:#64AC28;stroke:#004966;stroke-width:1.8257;stroke-linecap:round;stroke-miterlimit:10;}
	.st1{fill:#004966;}
	.st2{fill:none;stroke:#004966;stroke-width:0.8413;stroke-miterlimit:10;}
	.st3{fill:none;stroke:#004966;stroke-width:1.8886;stroke-linecap:round;stroke-miterlimit:10;}
	.st4{fill:#FFFFFF;}
	.st5{fill:#DFDEE4;}
	.st6{fill:none;stroke:#004966;stroke-width:1.8315;stroke-miterlimit:10;}
	.st7{fill:none;stroke:#004966;stroke-width:0.3665;stroke-linecap:round;stroke-miterlimit:10;}
	.st8{fill:#0098C8;stroke:#004966;stroke-width:1.7898;stroke-linecap:round;stroke-miterlimit:10;}
	.st9{fill:#FFFFFF;stroke:#004966;stroke-width:1.7898;stroke-linecap:round;stroke-miterlimit:10;}
	.st10{fill:#64AC28;stroke:#004966;stroke-linecap:round;stroke-miterlimit:10;}
	.st11{fill:#E76A00;stroke:#004966;stroke-linecap:round;stroke-miterlimit:10;}
	.st12{fill:none;stroke:#004966;stroke-width:1.8315;stroke-linecap:round;stroke-miterlimit:10;}
</style>
<g>
	<path class="st0" d="M-235.2,401.4c0,6.1-4.9,11-10.9,11l0,0c-6,0-10.9-4.9-10.9-11V394c0-6.1,4.9-11,10.9-11l0,0
		c6,0,10.9,4.9,10.9,11V401.4z"/>
	<g>
		<g id="XMLID_2_">
			<g>
				<path class="st1" d="M-243.5,408.3h8.4h0.1c0,4.9-3.9,8.8-8.8,8.8c-2.4,0-4.6-1-6.2-2.6c-1.6-1.6-2.6-3.8-2.6-6.2H-243.5z"/>
			</g>
			<g>
				<polyline class="st2" points="-252.6,408.3 -243.5,408.3 -235.1,408.3 				"/>
			</g>
		</g>
		<path class="st3" d="M-248.8,449.4c0,0,0.3-15.6-0.8-36.6"/>
		<path class="st3" d="M-237.5,449.8c0,0-0.8-18.6-0.8-36.6"/>
		<path class="st4" d="M-232.8,372.4c0,6-4.9,10.9-10.9,10.9c-6,0-10.9-4.9-10.9-10.9c0-6,4.9-10.9,10.9-10.9
			C-237.7,361.5-232.8,366.4-232.8,372.4"/>
		<path class="st5" d="M-242.4,383.1c1-0.3,2.1-0.7,3.1-1.1c-0.1,0-0.1,0-0.2-0.1c0.3-0.1,0.5-0.3,0.8-0.4c3.1-1.7,6.6-5.7,4.9-9.2
			c-1.9-3.9-5.6,1.5-6.7,2.9c-1.3,1.5-3.3,2.4-5.2,2.6c-0.4-0.2-0.8-0.2-1.2,0c-2.2-0.2-4.4-1.3-5.4-3.5c-0.4-0.9-1.7-0.4-1.8,0.4
			c-0.8-0.4-1.9,0.5-1.3,1.3c0.2,0.3,0.5,0.7,0.7,1c0.2,0.9,0.8,1.7,1.6,2.3c0.2,0.2,0.5,0.3,0.7,0.3c0,0.2,0.1,0.4,0.3,0.5
			c3,2.3,6.5,3.3,10,2.6C-242.3,382.9-242.3,383-242.4,383.1"/>
		<circle class="st6" cx="-244.1" cy="372.4" r="10.9"/>
		<path class="st7" d="M-246.9,378.6c0,0,1.6,1.4,4.2,1.2c2.6-0.3,3.7-1.3,3.7-1.3"/>
		<circle class="st1" cx="-246" cy="372.2" r="1.5"/>
		<circle class="st1" cx="-239.3" cy="371.9" r="1.5"/>
	</g>
	<polygon class="st8" points="-235.3,408.1 -252.2,408.1 -249.1,386.9 -239.7,387 	"/>
	<ellipse class="st9" cx="-244.4" cy="386.2" rx="2" ry="2.6"/>
	
		<rect x="-259.3" y="396.2" transform="matrix(0.9201 -0.3916 0.3916 0.9201 -177.2335 -66.9347)" class="st10" width="13.2" height="9.8"/>
	
		<rect x="-260.9" y="394.9" transform="matrix(0.9201 -0.3916 0.3916 0.9201 -176.8586 -67.6504)" class="st11" width="13.2" height="9.8"/>
	<path class="st12" d="M-249.7,387.2c0,0-15.2,11.3-11.2,14.7c4,3.4,12.3,2.9,12.3,2.9"/>
	<path class="st12" d="M-239.2,387.3c0,0,5.3,5.7,7,9.5c1.7,3.7,1.8,15.6,1.8,15.6"/>
	<path class="st1" d="M-254.4,368.8c-0.9-2.7,0.6-6.3,3.1-7.7c1.6-0.9,3.8-1,5.5-1.6c2.1-0.7,4.2-1.6,5.5-3.3
		c0.1,1.8-1.4,2.2-2.2,3.6c1.8,0,4.4-2.3,4.8-4.1c0.7,1.6-0.8,2.5-0.7,4c1.2,0.1,3.4-2.9,3.8-4c0,1.2-1.8,5.1-0.9,5.9
		c1-1.1,1.7-2.9,2-4.4c0,1.9-0.4,3.5-1.2,5.2c-0.5,1-1,1.9-1.3,2.9c-0.6-0.3-0.8-1.1-1.4-1.6c-0.7-0.6-1.6-1.3-2.5-1.7
		c-1.8-0.8-4.2-0.9-6.1-0.6c-1.7,0.2-3.3,0.9-4.7,1.8c-1.2,0.8-1.6,1.9-2,3.2"/>
</g>
</svg>
