<?xml version="1.0" encoding="utf-8"?>
<!-- Generator: Adobe Illustrator 19.0.0, SVG Export Plug-In . SVG Version: 6.00 Build 0)  -->
<svg version="1.1" id="Capa_1" xmlns="http://www.w3.org/2000/svg" xmlns:xlink="http://www.w3.org/1999/xlink" x="0px" y="0px"
	 viewBox="-264 332.5 57 118.5" style="enable-background:new -264 332.5 57 118.5;" xml:space="preserve">
<style type="text/css">
	.st0{fill:#004966;}
	.st1{fill:none;stroke:#004966;stroke-width:1.8315;stroke-linecap:round;stroke-miterlimit:10;}
	.st2{fill:#FFFFFF;}
	.st3{fill:#DFDEE4;}
	.st4{fill:none;stroke:#004966;stroke-width:1.8315;stroke-miterlimit:10;}
	.st5{fill:none;stroke:#004966;stroke-width:0.3665;stroke-linecap:round;stroke-miterlimit:10;}
	.st6{fill:#DD2D5C;stroke:#004966;stroke-width:1.8315;stroke-linecap:round;stroke-miterlimit:10;}
	.st7{fill:#DD2D5C;}
	.st8{fill:#FFFFFF;stroke:#004966;stroke-linecap:round;stroke-miterlimit:10;}
	.st9{fill:#64AC28;stroke:#004966;stroke-width:1.8257;stroke-linecap:round;stroke-miterlimit:10;}
	.st10{fill:none;stroke:#004966;stroke-width:0.8413;stroke-miterlimit:10;}
	.st11{fill:none;stroke:#004966;stroke-width:1.8886;stroke-linecap:round;stroke-miterlimit:10;}
	.st12{fill:#0098C8;stroke:#004966;stroke-width:1.7898;stroke-linecap:round;stroke-miterlimit:10;}
	.st13{fill:#FFFFFF;stroke:#004966;stroke-width:1.7898;stroke-linecap:round;stroke-miterlimit:10;}
	.st14{fill:#64AC28;stroke:#004966;stroke-linecap:round;stroke-miterlimit:10;}
	.st15{fill:#E76A00;stroke:#004966;stroke-linecap:round;stroke-miterlimit:10;}
</style>
<g>
	<g>
		<path class="st0" d="M-248,358.6c-0.8,0.6-2,0.2-2.9,0.5c-1.4,0.4-2.8,1.2-4,2.2c-1.8,1.7-3,4.8-3.4,7.6c-0.2,1.5-0.3,3,0.1,4.5
			c0.4,1.3,0.5,2.8,0.6,4.2c0.1,1.4,0.5,5-0.9,5.6c1,0.1,2.2-0.3,3-1.1c0,0.7-0.5,1.8-0.7,2.5c-0.3,1-0.5,2-1.2,2.6
			c1,0.1,2.2-0.2,3-1.1c0,0.9-0.1,1.9-0.3,2.8c0.4,0.2,0.7,0.6,1,0.9c0.8,0.9,1.7,1.6,2.6,2.2c2.5,1.5,5.3,1.8,8,1.8
			c3.3,0,6.7-0.6,8.8-4c-1,0.1-2.1-1.4-2.5-2.3c-0.4-1-0.7-2.2-0.7-3.3c0.4,1.4,2.6,1.7,3.6,2.1c-1.3-0.1-2-2.5-1.9-3.8
			c0.1-1.8,1.1-3.8,1.6-5.5c0.5-1.8,0.5-3.8,0.5-5.6c0-1.6-0.2-3.7-0.5-5.3c-0.9-3.8-3.7-6.2-6.6-7.3c-2-0.7-3.9-0.8-5.9-0.5
			c-0.8,0.1-2.3,0.1-2.8,0.9"/>
		<g>
			<path class="st1" d="M-250.4,449.1c0,0,4.7-14.3,3.7-34.1"/>
			<path class="st1" d="M-239.2,449.5c0,0-3.2-17.8-3.2-34.8"/>
			<path class="st2" d="M-234.5,372.1c0,6-4.9,10.9-10.9,10.9c-6,0-10.9-4.9-10.9-10.9c0-6,4.9-10.9,10.9-10.9
				C-239.4,361.2-234.5,366.1-234.5,372.1"/>
			<path class="st3" d="M-244.1,382.8c1-0.3,2.1-0.7,3.1-1.1c-0.1,0-0.1-0.1-0.2-0.1c0.3-0.1,0.5-0.3,0.8-0.4
				c3.1-1.7,6.6-5.7,4.9-9.2c-1.9-3.9-5.6,1.5-6.7,2.9c-1.3,1.5-3.3,2.4-5.2,2.6c-0.4-0.2-0.8-0.2-1.2,0c-2.3-0.2-4.4-1.3-5.4-3.5
				c-0.4-0.9-1.7-0.4-1.8,0.4c-0.8-0.4-1.9,0.5-1.3,1.3c0.2,0.3,0.5,0.7,0.7,1c0.2,0.9,0.8,1.7,1.6,2.3c0.2,0.2,0.5,0.3,0.7,0.2
				c0,0.2,0.1,0.4,0.3,0.5c3,2.3,6.5,3.3,10,2.6C-243.9,382.6-244,382.7-244.1,382.8"/>
			<circle class="st4" cx="-245.8" cy="372.1" r="10.9"/>
			<path class="st5" d="M-248.6,378.3c0,0,1.6,1.4,4.2,1.2c2.6-0.3,3.7-1.3,3.7-1.3"/>
			<circle class="st0" cx="-246.3" cy="371.1" r="1.5"/>
			<circle class="st0" cx="-240.7" cy="370.4" r="1.5"/>
		</g>
		<path class="st6" d="M-250.2,387.2c0,0-2.6,1.9-1.8,4.8c0.8,2.9,2.6,6,2.6,6s-2.8,16.2,1,18.2c3.8,2,8.9,1.9,10.2-0.8
			c1.2-2.7-0.8-13.5,0-16.3c0.8-2.8,1.1-11.2-1.2-12.6C-241.7,385.1-250.2,387.2-250.2,387.2z"/>
		<path class="st0" d="M-245.5,441.4c0,1.1-0.9,1.9-1.9,1.9h-2.2c-1.1,0-1.9-0.9-1.9-1.9l0,0c0-1.1,0.9-1.9,1.9-1.9h2.2
			C-246.4,439.5-245.5,440.4-245.5,441.4L-245.5,441.4z"/>
		<path class="st0" d="M-236.8,441.6c0,1.1-0.9,1.9-1.9,1.9h-2.2c-1.1,0-1.9-0.9-1.9-1.9l0,0c0-1.1,0.9-1.9,1.9-1.9h2.2
			C-237.6,439.7-236.8,440.5-236.8,441.6L-236.8,441.6z"/>
		<path class="st1" d="M-252.1,390.1c-0.3,0.1-8.6,11.2-6.8,13.5c1.7,2.2,9.3,7.5,8.8,7.7c-0.5,0.2-3.1,4.3-3.1,4.3"/>
		<path class="st1" d="M-238,386.8c-0.2,0.2,4.4,13.7,1.4,12.7c-3-1.1-9.2-16.5-9.2-16.5l-3.9,1.2"/>
		<path class="st0" d="M-250.6,410.8c-0.2,0.1-0.1,4.7,2.8,5.9c2.9,1.1,7.8,1.1,8.6,0.1c0.8-1,1.5-3.7,1.5-3.7l-0.4-2"/>
		<path class="st7" d="M-248.7,388.6c-0.8-0.4-1.6,0.7-1.8,1.3c-0.2,0.8-0.2,1.9,0,2.7c0.3,1.7,2,2.8,2.3,4.5
			c0.3,1.8-0.1,3.5-0.5,5.3c-0.4,2-0.8,4.1-0.9,6.1c0,0.6-0.2,1.9,0.4,2.2c0.4,0.2,1.7-0.1,2.2-0.1c0.9,0,1.7,0.1,2.6,0.1
			c-0.7-0.7-0.6-2.9-0.8-3.9c-0.4-2.1-0.3-4.5-0.2-6.7c0-0.3-0.1-1.3,0.2-1.5c0.3-0.2,1.3,0.1,1.6,0.1c1.2,0.1,2.4,0,3.4-0.7
			c-1.6,0-2.7-0.7-4.2-1.4c-1.5-0.8-3-2.2-3.2-4c-0.1-0.5-0.1-1.2,0.2-1.7c0.2-0.6,0.7-0.9,0.6-1.6c-0.1-0.8-2.2-1.7-2.8-0.9"/>
		<path class="st0" d="M-250.2,361.9C-250.2,361.9-250.2,361.7-250.2,361.9c0.4,1.2,0.8,2,1.9,2.8c0.9,0.7,2.2,1.1,3.2,1.4
			c-1.1,0-1.5-1.7-1.4-2.6c0.1,0.9,2,1.6,2.6,2c0.5,0.3,1.1,0.8,1.3,1.4c0.1,0.2,0.1,0.8,0.3,1c0.4,0.5,0.5-0.3,0.5-0.8
			c-0.1-1-0.9-1.8-1.2-2.7c0.9,0.4,2.2,2,2.7,2.9c0.5,0.9,0.1,1.5,1.1,0.9c1.4-0.8,2.1-2,1.5-3.6c-0.3-0.8-0.6-1.7-1-2.4
			c-0.2-0.4-0.6-0.7-0.7-1.1"/>
	</g>
	<g>
		<path class="st8" d="M-242.6,351.5c-0.7-3.2,1-6.5,4.1-8.3c-0.6-4,2.5-8,7.1-9c3.2-0.7,6.4,0.2,8.4,2.1c0.7-0.4,1.6-0.7,2.4-0.9
			c4.8-1.1,9.5,1.5,10.4,5.6c0.3,1.4,0.1,2.8-0.4,4.1c1,1,1.8,2.2,2.1,3.6c0.9,4.2-2.2,8.4-7.1,9.5c-1,0.2-1.9,0.3-2.9,0.2
			c-1.3,1.7-3.2,3-5.6,3.5c-4.4,1-8.6-1-10-4.5C-238.1,357.6-241.8,355.2-242.6,351.5z"/>
	</g>
	<circle class="st8" cx="-249.4" cy="353.9" r="3.4"/>
</g>
<g>
	<path class="st9" d="M-165.6,401.4c0,6.1-4.9,11-10.9,11l0,0c-6,0-10.9-4.9-10.9-11V394c0-6.1,4.9-11,10.9-11l0,0
		c6,0,10.9,4.9,10.9,11V401.4z"/>
	<g>
		<g id="XMLID_2_">
			<g>
				<path class="st0" d="M-173.9,408.3h8.4h0.1c0,4.9-3.9,8.8-8.8,8.8c-2.4,0-4.6-1-6.2-2.6c-1.6-1.6-2.6-3.8-2.6-6.2H-173.9z"/>
			</g>
			<g>
				<polyline class="st10" points="-183,408.3 -173.9,408.3 -165.5,408.3 				"/>
			</g>
		</g>
		<path class="st11" d="M-179.1,449.4c0,0,0.3-15.6-0.8-36.6"/>
		<path class="st11" d="M-167.8,449.8c0,0-0.8-18.6-0.8-36.6"/>
		<path class="st2" d="M-163.2,372.4c0,6-4.9,10.9-10.9,10.9c-6,0-10.9-4.9-10.9-10.9c0-6,4.9-10.9,10.9-10.9
			C-168.1,361.5-163.2,366.4-163.2,372.4"/>
		<path class="st3" d="M-172.8,383.1c1-0.3,2.1-0.7,3.1-1.1c-0.1,0-0.1,0-0.2-0.1c0.3-0.1,0.5-0.3,0.8-0.4c3.1-1.7,6.6-5.7,4.9-9.2
			c-1.9-3.9-5.6,1.5-6.7,2.9c-1.3,1.5-3.3,2.4-5.2,2.6c-0.4-0.2-0.8-0.2-1.2,0c-2.2-0.2-4.4-1.3-5.4-3.5c-0.4-0.9-1.7-0.4-1.8,0.4
			c-0.8-0.4-1.9,0.5-1.3,1.3c0.2,0.3,0.5,0.7,0.7,1c0.2,0.9,0.8,1.7,1.6,2.3c0.2,0.2,0.5,0.3,0.7,0.3c0,0.2,0.1,0.4,0.3,0.5
			c3,2.3,6.5,3.3,10,2.6C-172.6,382.9-172.7,383-172.8,383.1"/>
		<circle class="st4" cx="-174.5" cy="372.4" r="10.9"/>
		<path class="st5" d="M-177.2,378.6c0,0,1.6,1.4,4.2,1.2c2.6-0.3,3.7-1.3,3.7-1.3"/>
		<circle class="st0" cx="-176.3" cy="372.2" r="1.5"/>
		<circle class="st0" cx="-169.6" cy="371.9" r="1.5"/>
	</g>
	<polygon class="st12" points="-165.6,408.1 -182.6,408.1 -179.5,386.9 -170,387 	"/>
	<ellipse class="st13" cx="-174.8" cy="386.2" rx="2" ry="2.6"/>
	
		<rect x="-189.7" y="396.2" transform="matrix(0.9201 -0.3916 0.3916 0.9201 -171.6721 -39.6641)" class="st14" width="13.2" height="9.8"/>
	
		<rect x="-191.3" y="394.9" transform="matrix(0.9201 -0.3916 0.3916 0.9201 -171.2972 -40.3796)" class="st15" width="13.2" height="9.8"/>
	<path class="st1" d="M-180,387.2c0,0-15.2,11.3-11.2,14.7c4,3.4,12.3,2.9,12.3,2.9"/>
	<path class="st1" d="M-169.6,387.3c0,0,5.3,5.7,7,9.5c1.7,3.7,1.8,15.6,1.8,15.6"/>
	<path class="st0" d="M-184.8,368.8c-0.9-2.7,0.6-6.3,3.1-7.7c1.6-0.9,3.8-1,5.5-1.6c2.1-0.7,4.2-1.6,5.5-3.3
		c0.1,1.8-1.4,2.2-2.2,3.6c1.8,0,4.4-2.3,4.8-4.1c0.7,1.6-0.8,2.5-0.7,4c1.2,0.1,3.4-2.9,3.8-4c0,1.2-1.8,5.1-0.9,5.9
		c1-1.1,1.7-2.9,2-4.4c0,1.9-0.4,3.5-1.2,5.2c-0.5,1-1,1.9-1.3,2.9c-0.6-0.3-0.8-1.1-1.4-1.6c-0.7-0.6-1.6-1.3-2.5-1.7
		c-1.8-0.8-4.2-0.9-6.1-0.6c-1.7,0.2-3.3,0.9-4.7,1.8c-1.2,0.8-1.6,1.9-2,3.2"/>
</g>
</svg>
