<?xml version="1.0" encoding="utf-8"?>
<!-- Generator: Adobe Illustrator 19.0.0, SVG Export Plug-In . SVG Version: 6.00 Build 0)  -->
<svg version="1.1" id="Capa_1" xmlns="http://www.w3.org/2000/svg" xmlns:xlink="http://www.w3.org/1999/xlink" x="0px" y="0px"
	 viewBox="-114 272 382 250" style="enable-background:new -114 272 382 250;" xml:space="preserve">
<style type="text/css">
	.st0{fill:#DAD4EA;}
	.st1{fill:#0098C8;}
	.st2{fill:none;stroke:#004966;stroke-width:7.6261;stroke-miterlimit:10;}
	.st3{fill:#FFFFFF;}
	.st4{fill:#DFDEE4;}
	.st5{fill:none;stroke:#004966;stroke-width:7.6261;stroke-linecap:round;stroke-miterlimit:10;}
	.st6{fill:#DD2D5C;}
	.st7{fill:none;stroke:#004966;stroke-width:4.2246;stroke-linecap:round;stroke-miterlimit:10;}
	.st8{fill:#004966;}
	.st9{fill:none;stroke:#004966;stroke-width:4.1661;stroke-linecap:round;stroke-miterlimit:10;}
	.st10{fill:#FFFFFF;stroke:#004966;stroke-width:1.6711;stroke-linecap:round;stroke-miterlimit:10;}
</style>
<g>
	<path class="st0" d="M263,361.3c12.2,64.1-61.2,131.9-164,151.4c-102.8,19.5-196-16.6-208.1-80.6c-12.2-64.1,61.2-131.9,164-151.4
		C157.6,261.2,250.9,297.3,263,361.3z"/>
	<g>
		<path class="st1" d="M111.4,382.3c-5.8,10.3-14.8,14.5-21.5,42.2c-2.7,10.9-3.3,20.9,0,37.1c1.2,5.8,14.5,16,29,18.4
			c7.6,1.3,16.6,0.5,29.2-1.3c4.5-0.6,22.9-4.4,24.1-18c1-10.3,4.5-21.2,0-37.1c-3.8-13.5-8-19.8-24.8-44
			C130.8,355.6,132,356,132,356S117.4,371.8,111.4,382.3"/>
		<path class="st1" d="M161.1,403.1c-2.6-5.4-6.2-10.4-8.8-15.9c-1.3-2.8-3.2-7.1-6.6-8.1c-0.6-0.5-1.3-0.9-2.1-1.1
			c0.8-0.4,1.7-0.8,2.5-1.3c0.9-0.5,1.8-1.1,2.8-1.7c-5.5,1.4-10.9,2.7-15.6,6c0.6-0.1,1.3-0.2,1.9-0.3c-1.2,1.4-2,3.2-2,5.4
			c0,5.8,3.2,11,6.3,15.8c5.3,8,9,14.8,10.2,24.4c1,8.2,0.2,17.1-1.8,25.1c-1.5,6.3-7.6,10.1-8.8,16.4c-1.2,6.5,4.3,6.7,9.6,5.4
			c1.3,0.3,2.7,0.1,3.4-1c1.5-0.5,2.8-1.1,3.7-1.5c10.5-5,14.1-13.9,14.8-24.6C171.6,431.2,167.6,416.6,161.1,403.1"/>
		<path class="st2" d="M110.3,382.3c-5.8,10.3-14.8,14.5-21.6,42.2c-2.7,10.9-3.3,20.9,0,37.1c1.2,5.8,14.5,16,29,18.4
			c7.6,1.3,16.6,0.5,29.2-1.3c4.5-0.6,22.9-4.4,24.1-18c1-10.3,4.5-21.2,0-37.1c-3.8-13.5-8-19.8-24.8-44
			c-16.7-24-15.4-23.6-15.4-23.6S116.2,371.8,110.3,382.3z"/>
		<path class="st3" d="M163.4,344.1c0,19-15.4,34.3-34.3,34.3s-34.4-15.3-34.4-34.3s15.4-34.3,34.3-34.3S163.4,325.2,163.4,344.1"/>
		<path class="st4" d="M133.3,377.9c3.2-1.1,6.5-2.1,9.6-3.5c-0.2-0.1-0.3-0.2-0.5-0.2c0.8-0.4,1.7-0.8,2.5-1.3
			c9.7-5.4,20.8-17.8,15.4-29c-5.9-12.2-17.5,4.7-21.2,9.2c-4.1,4.9-10.3,7.6-16.5,8.1c-1.4-0.7-2.7-0.6-3.7,0
			c-7.1-0.5-13.7-4-16.9-10.9c-1.4-3-5.3-1.4-5.7,1.3c-2.5-1.2-6,1.6-4.2,4.2c0.7,1.1,1.5,2.1,2.3,3.2c0.6,2.9,2.6,5.3,4.9,7.2
			c0.7,0.6,1.5,0.8,2.2,0.8c0.1,0.6,0.4,1.2,0.9,1.7c9.4,7.2,20.6,10.4,31.6,8.3C133.8,377.2,133.4,377.5,133.3,377.9"/>
		<path class="st2" d="M162.1,344.1c0,19-15.4,34.3-34.3,34.3c-19,0-34.3-15.4-34.3-34.3c0-19,15.4-34.3,34.3-34.3
			S162.1,325.2,162.1,344.1z"/>
		<path class="st5" d="M29.3,386c-6.9-1.9,40.2,13.9,40.2,91"/>
		<path class="st5" d="M147.4,382.3c-6.9-1.9,40.2,13.9,40.2,91"/>
		<path class="st5" d="M-11.8,386c6.9-1.9-40.1,13.9-40.1,91"/>
		<path class="st5" d="M109.9,380.5c6.9-1.9-40.1,13.9-40.1,91"/>
		<path class="st6" d="M-11.7,381.1c-5.8,10.3-14.8,14.5-21.5,42.2c-2.7,10.9-3.3,20.9,0,37.1c1.2,5.8,14.5,16,29,18.4
			c7.6,1.3,16.6,0.5,29.2-1.3c4.5-0.6,22.9-4.5,24.2-18c1-10.3,4.5-21.2,0-37.1c-3.8-13.5-8-19.8-24.8-44
			c-16.7-24-15.4-23.6-15.4-23.6S-5.7,370.5-11.7,381.1"/>
		<path class="st6" d="M38,401.8c-2.6-5.4-6.2-10.4-8.8-15.9c-1.3-2.8-3.2-7.1-6.6-8.1c-0.6-0.5-1.3-0.9-2.1-1.1
			c0.8-0.4,1.7-0.8,2.5-1.3c0.9-0.5,1.9-1.1,2.8-1.7c-5.5,1.4-10.9,2.7-15.6,6c0.6-0.1,1.3-0.2,1.9-0.3c-1.2,1.4-2,3.2-2,5.4
			c0,5.8,3.2,11,6.3,15.8c5.3,8.1,9,14.8,10.2,24.4c1,8.2,0.2,17.1-1.8,25.1c-1.5,6.3-7.6,10.1-8.8,16.4c-1.2,6.5,4.3,6.7,9.6,5.4
			c1.3,0.3,2.7,0.1,3.4-1c1.5-0.5,2.8-1.1,3.7-1.5c10.5-5,14.1-13.9,14.8-24.6C48.5,429.9,44.5,415.3,38,401.8"/>
		<path class="st2" d="M-12.9,381.1c-5.8,10.3-14.8,14.5-21.5,42.2c-2.7,10.9-3.3,20.9,0,37.1c1.2,5.8,14.5,16,29,18.4
			c7.6,1.3,16.6,0.5,29.2-1.3c4.5-0.6,22.9-4.5,24.2-18c1-10.3,4.5-21.2,0-37.1c-3.8-13.5-8-19.8-24.8-44
			c-16.7-24-15.4-23.6-15.4-23.6S-6.9,370.5-12.9,381.1z"/>
		<path class="st3" d="M40.3,342.8c0,19-15.4,34.3-34.3,34.3c-19,0-34.3-15.4-34.3-34.3c0-18.9,15.4-34.3,34.3-34.3
			S40.3,323.9,40.3,342.8"/>
		<path class="st4" d="M10.2,376.6c3.2-1.1,6.5-2.1,9.6-3.5c-0.2-0.1-0.3-0.2-0.5-0.2c0.8-0.4,1.7-0.8,2.5-1.3
			c9.7-5.3,20.8-17.8,15.4-29c-5.9-12.2-17.5,4.7-21.2,9.2c-4.1,4.9-10.3,7.6-16.5,8.1c-1.4-0.7-2.7-0.6-3.7,0
			c-7.1-0.5-13.8-4-16.9-10.9c-1.4-3-5.3-1.4-5.7,1.3c-2.5-1.2-6,1.6-4.2,4.2c0.7,1.1,1.5,2.1,2.3,3.2c0.6,2.9,2.6,5.3,4.9,7.2
			c0.7,0.6,1.5,0.8,2.2,0.8c0.1,0.6,0.4,1.2,0.9,1.7c9.4,7.2,20.6,10.4,31.6,8.3C10.5,376,10.3,376.3,10.2,376.6"/>
		<path class="st2" d="M39,342.8c0,19-15.4,34.3-34.3,34.3s-34.3-15.4-34.3-34.3c0-18.9,15.4-34.3,34.3-34.3S39,323.9,39,342.8z"/>
		<path class="st5" d="M-9.7,381.8c0,0,5.1,8.9,16,8.9c10.8,0,14.3-8.9,14.3-8.9"/>
		<g>
			<path class="st7" d="M-8.9,356c0,0,4.7,5.8,12.7,4.2c8.1-1.6,11.9-10.2,11.9-10.2"/>
			<circle class="st8" cx="-7.2" cy="337" r="4.3"/>
			<circle class="st8" cx="14" cy="337" r="4.3"/>
		</g>
		<g>
			<path class="st7" d="M115.9,356c0,0,4.7,5.8,12.7,4.2c8.1-1.6,11.9-10.2,11.9-10.2"/>
			<circle class="st8" cx="117.8" cy="337" r="4.3"/>
			<circle class="st8" cx="138.9" cy="337" r="4.3"/>
		</g>
		<path class="st8" d="M135.6,309.6c0.1,1.1-0.9-1.2-1.3-1.8c-2.4-3.1-5.1-5.7-8.6-7.5c-6.4-3.3-12.7-6.2-20-5.9
			c-2.8,0.1-7.3,1.7-5.9,5.6c1.4,3.7,8,4.5,10.6,7c-6.6-2-19.5-4.7-24.4,2c-5.1,7.1,14.9,8,19,7c-3.5-0.9-21.9,0.3-17.2,6.9
			c4.1,5.8,18.7,3.3,23.7,0.5"/>
		<path class="st9" d="M-14.6,314.3c-0.6,0-18.4-1-23.2,11.3c-4.8,12.4,13.8,38.1,8.6,47.1c-5.2,9-12.6,10.9-12.6,10.9"/>
		<path class="st9" d="M27,316.6c0.8,0,24.5-5.4,24.3,10.5c-0.2,15.9-17,52.5-5.4,60.9c11.5,8.4,18.4,1,18.4,1"/>
		<path class="st9" d="M1.9,307.8c-1,0.2-24.5-12.8-32.7-4s14.7,36.2,10,51.9c-4.6,15.7-6.1,23.2-6.1,23.2"/>
	</g>
</g>
<path class="st10" d="M0.2,499.3c0,0-4.8,25.1-1.7,30.6c3,5.5,133.7,2.5,138.1,1.8c4.4-0.8,6.9-21.3,2.7-36.6
	c-4.2-15.3-134.1-1.2-134.1-1.2"/>
<g>
	<path class="st8" d="M25.9,515.4v6.4c0,0.4-0.2,0.8-0.5,1.2c-0.3,0.3-0.7,0.5-1.2,0.5c-0.5,0-0.9-0.2-1.2-0.5
		c-0.3-0.3-0.5-0.7-0.5-1.2v-18.7c0-0.5,0.2-0.9,0.6-1.3c0.4-0.4,0.8-0.6,1.4-0.6h4.6c1.4,0,2.5,0.2,3.5,0.6c1,0.4,1.7,0.9,2.3,1.6
		c0.6,0.7,1,1.4,1.3,2.3c0.3,0.9,0.4,1.7,0.4,2.7c0,1.1-0.2,2.1-0.5,3c-0.4,0.9-0.9,1.6-1.5,2.2c-0.7,0.6-1.4,1-2.3,1.4
		s-1.9,0.5-3.1,0.5H25.9z M25.9,512.2h3.1c2.7,0,4-1.3,4-3.9c0-0.5-0.1-0.9-0.2-1.4c-0.1-0.5-0.3-0.9-0.6-1.2
		c-0.3-0.4-0.7-0.7-1.2-0.9c-0.5-0.2-1.2-0.3-2-0.3h-3.1V512.2z"/>
	<path class="st8" d="M40.1,522.3c-0.1,0.4-0.3,0.7-0.7,0.9c-0.3,0.2-0.7,0.3-0.9,0.3c-0.5,0-0.9-0.1-1.2-0.4
		c-0.4-0.3-0.5-0.7-0.5-1.2c0-0.1,0-0.2,0-0.3c0-0.1,0-0.2,0-0.3l6.1-18.4c0.2-0.5,0.4-1,0.7-1.3c0.3-0.4,0.8-0.5,1.4-0.5
		c0.6,0,1.1,0.2,1.4,0.5c0.3,0.4,0.5,0.8,0.7,1.3l6.1,18.4c0,0.1,0.1,0.2,0.1,0.3c0,0.1,0,0.2,0,0.3c0,0.5-0.2,0.9-0.5,1.2
		c-0.3,0.3-0.8,0.4-1.3,0.4c-0.6,0-1-0.2-1.2-0.5c-0.2-0.4-0.5-0.8-0.7-1.4l-1-3h-7.2L40.1,522.3z M44.9,506.1
		c-0.4,1.7-0.8,3.3-1.3,4.8c-0.5,1.5-0.9,3.1-1.4,4.7h5.4c-0.5-1.6-1-3.1-1.4-4.7C45.7,509.3,45.3,507.7,44.9,506.1z"/>
	<path class="st8" d="M70.5,507.6c0,1.6-0.4,2.9-1.2,3.9c-0.8,1-1.9,1.7-3.3,2c0.8,1.2,1.5,2.5,2.3,3.7c0.8,1.2,1.5,2.4,2.3,3.7
		c0.1,0.1,0.1,0.2,0.2,0.4c0,0.2,0.1,0.3,0.1,0.4c0,0.5-0.2,0.9-0.6,1.2c-0.4,0.3-0.8,0.5-1.2,0.5c-0.6,0-1.1-0.2-1.4-0.7l-5.4-8.8
		h-2.8v7.9c0,0.4-0.2,0.8-0.5,1.2c-0.3,0.3-0.8,0.5-1.2,0.5c-0.5,0-0.9-0.2-1.2-0.5c-0.3-0.3-0.5-0.7-0.5-1.2v-18.7
		c0-0.5,0.2-0.9,0.6-1.3c0.4-0.4,0.8-0.6,1.3-0.6h5.4c1.4,0,2.5,0.2,3.4,0.6c0.9,0.4,1.7,0.9,2.2,1.5c0.6,0.6,1,1.3,1.2,2.1
		C70.3,506.1,70.5,506.9,70.5,507.6z M67,507.6c0-0.4-0.1-0.8-0.2-1.2c-0.1-0.4-0.3-0.7-0.6-1c-0.3-0.3-0.7-0.5-1.2-0.7
		c-0.5-0.2-1.2-0.3-2-0.3h-3.8v6.3h3.9c1.2,0,2.2-0.3,2.8-0.8C66.7,509.4,67,508.7,67,507.6z"/>
	<path class="st8" d="M86.3,521.5c0,0.5-0.2,0.9-0.5,1.2c-0.3,0.3-0.7,0.5-1.2,0.5h-8.2c-0.6,0-1.2-0.1-1.7-0.4
		c-0.5-0.3-0.7-0.7-0.7-1.4v-18.3c0-0.5,0.2-0.9,0.5-1.3c0.4-0.4,0.8-0.6,1.4-0.6h8.4c0.5,0,0.9,0.2,1.2,0.5
		c0.3,0.3,0.5,0.7,0.5,1.2c0,0.5-0.2,0.8-0.5,1.1c-0.3,0.3-0.7,0.4-1.2,0.4h-6.9v6.1h6.3c0.4,0,0.8,0.2,1.2,0.5
		c0.4,0.3,0.5,0.7,0.5,1.1c0,0.5-0.2,0.8-0.5,1.2c-0.3,0.3-0.7,0.5-1.2,0.5h-6.3v6.2h7.2c0.5,0,0.9,0.1,1.2,0.5
		C86.2,520.7,86.3,521.1,86.3,521.5z"/>
	<path class="st8" d="M97.7,516c0,1.2-0.1,2.2-0.3,3.1c-0.2,0.9-0.6,1.7-1.1,2.3c-0.5,0.6-1.2,1.1-2.1,1.5s-1.9,0.5-3.2,0.5
		c-0.2,0-0.6,0-0.9,0c-0.4,0-0.7-0.1-1-0.2c-0.3-0.1-0.6-0.3-0.8-0.5c-0.2-0.2-0.3-0.6-0.3-1c0-0.5,0.2-0.9,0.5-1.2
		c0.3-0.3,0.7-0.4,1-0.4c0.3,0,0.5,0,0.8,0.1c0.3,0.1,0.6,0.1,1.1,0.1c0.6,0,1.1-0.1,1.5-0.3c0.4-0.2,0.7-0.5,0.9-0.9
		c0.2-0.4,0.4-0.8,0.5-1.4c0.1-0.5,0.1-1.1,0.1-1.8v-13.4c0-0.5,0.2-0.8,0.5-1.1c0.3-0.3,0.7-0.5,1.2-0.5c0.5,0,0.9,0.2,1.2,0.5
		c0.3,0.3,0.5,0.7,0.5,1.1V516z"/>
	<path class="st8" d="M103.3,522.3c-0.1,0.4-0.3,0.7-0.7,0.9c-0.3,0.2-0.7,0.3-0.9,0.3c-0.5,0-0.9-0.1-1.2-0.4
		c-0.4-0.3-0.5-0.7-0.5-1.2c0-0.1,0-0.2,0-0.3c0-0.1,0-0.2,0-0.3l6.1-18.4c0.2-0.5,0.4-1,0.7-1.3c0.3-0.4,0.8-0.5,1.4-0.5
		c0.6,0,1.1,0.2,1.4,0.5c0.3,0.4,0.5,0.8,0.7,1.3l6.1,18.4c0,0.1,0.1,0.2,0.1,0.3c0,0.1,0,0.2,0,0.3c0,0.5-0.2,0.9-0.5,1.2
		c-0.3,0.3-0.8,0.4-1.3,0.4c-0.6,0-1-0.2-1.2-0.5c-0.2-0.4-0.5-0.8-0.7-1.4l-1-3h-7.2L103.3,522.3z M108.1,506.1
		c-0.4,1.7-0.8,3.3-1.3,4.8c-0.5,1.5-0.9,3.1-1.4,4.7h5.4c-0.5-1.6-1-3.1-1.4-4.7C108.9,509.3,108.4,507.7,108.1,506.1z"/>
</g>
</svg>
