<?xml version="1.0" encoding="utf-8"?>
<!-- Generator: Adobe Illustrator 19.0.0, SVG Export Plug-In . SVG Version: 6.00 Build 0)  -->
<svg version="1.1" id="Capa_1" xmlns="http://www.w3.org/2000/svg" xmlns:xlink="http://www.w3.org/1999/xlink" x="0px" y="0px"
	 viewBox="-185 -566 382 566" style="enable-background:new -185 -566 382 566;" xml:space="preserve">
<style type="text/css">
	.st0{opacity:0.2;fill:#004966;}
	.st1{fill:none;stroke:#004966;stroke-width:8;stroke-linecap:round;stroke-miterlimit:10;}
	.st2{fill:#0098D5;}
	.st3{fill:#FFFFFF;}
	.st4{fill:#DFDEE4;}
	.st5{fill:none;stroke:#004966;stroke-width:6.7732;stroke-linecap:round;stroke-miterlimit:10;}
	.st6{fill:#004966;}
	.st7{fill:#FFFFFF;stroke:#004966;stroke-width:6;stroke-miterlimit:10;}
</style>
<g>
	<path class="st0" d="M69.7-38c0,19.3-53.7,35-120,35c-66.3,0-120-15.7-120-35c0-19.3,53.7-35,120-35C15.9-73.1,69.7-57.4,69.7-38z"
		/>
	<g>
		<path class="st1" d="M-85-56.9c0,0-1.4-78.2-4.2-179.2"/>
		<path class="st1" d="M-26.3-54.8c0,0,0.3-87.4-4.2-179.2"/>
		<path class="st2" d="M-87.8-394.1c-9.6,17-24.4,23.9-35.5,69.6c-4.4,18-5.4,34.4,0,61.2c1.9,9.6,24,26.4,47.8,30.3
			c12.6,2.1,27.4,0.8,48.2-2.1c7.5-1,37.7-7.3,39.8-29.6c1.6-17,7.4-34.9,0-61.2c-6.3-22.3-13.2-32.7-40.9-72.5
			c-27.6-39.6-25.4-38.9-25.4-38.9S-78-411.5-87.8-394.1"/>
		<path class="st3" d="M9.2-331.5l-5.5-14c-42.2,19.4-89.5,9.4-118.9-0.8l-10.1,30.7c27.9,11.6,83.2,27.1,137.8-1.5L9.2-331.5z"/>
		<path class="st2" d="M-6-357.2c-4.4-9.5-10.3-18.1-14.4-27.7c-2.1-4.9-5.3-12.4-10.9-14.2c-1-0.9-2.2-1.5-3.4-1.9
			c1.4-0.7,2.8-1.4,4.1-2.2c1.5-0.9,3-1.9,4.6-3c-9,2.5-18,4.7-25.7,10.4c1-0.1,2.1-0.3,3.1-0.5c-2,2.5-3.3,5.6-3.3,9.3
			c0,10.2,5.2,19.1,10.4,27.5c8.7,14,14.8,25.8,16.8,42.6c1.7,14.3,0.2,29.7-3,43.7c-2.5,10.9-12.6,17.6-14.5,28.6
			c-2,11.3,7.1,11.6,15.8,9.5c2.1,0.6,4.5,0.1,5.7-1.7c2.5-0.9,4.7-1.9,6.2-2.6c17.3-8.6,23.3-24.2,24.4-42.8
			C11.3-308.2,4.8-333.7-6-357.2"/>
		<path class="st1" d="M-89.9-394.1c-9.6,17-24.4,23.9-35.5,69.6c-4.4,18-5.4,34.4,0,61.2c1.9,9.6,24,26.4,47.8,30.3
			c12.6,2.1,27.4,0.8,48.2-2.1c7.5-1,37.7-7.3,39.8-29.6c1.6-17,7.4-34.9,0-61.2c-6.3-22.3-13.2-32.7-40.9-72.5
			C-58.1-437.9-56-437.2-56-437.2S-80.1-411.5-89.9-394.1z"/>
		<path class="st3" d="M-2.2-457.1c0,31.2-25.3,56.6-56.6,56.6s-56.6-25.3-56.6-56.6c0-31.3,25.3-56.6,56.6-56.6
			S-2.2-488.3-2.2-457.1"/>
		<path class="st4" d="M-51.9-401.4c5.3-1.8,10.7-3.5,15.9-5.7c-0.3-0.1-0.6-0.3-0.8-0.4c1.4-0.6,2.8-1.3,4.1-2.1
			c16-8.8,34.4-29.4,25.5-47.8c-9.8-20.2-28.9,7.8-35,15.1c-6.7,8-16.9,12.6-27.3,13.3c-2.3-1.1-4.4-1-6.1,0
			c-11.7-0.8-22.7-6.7-27.9-18c-2.2-4.9-8.8-2.3-9.5,2.1c-4.2-2-9.9,2.6-6.9,7c1.2,1.7,2.4,3.5,3.8,5.2c0.9,4.7,4.3,8.7,8.1,11.9
			c1.2,1,2.5,1.3,3.7,1.3c0.1,1,0.6,2,1.5,2.7c15.5,11.8,34,17.1,52.1,13.6C-51.2-402.5-51.6-402-51.9-401.4"/>
		<path class="st1" d="M-4.3-457.1c0,31.2-25.3,56.6-56.6,56.6c-31.3,0-56.6-25.3-56.6-56.6c0-31.3,25.3-56.6,56.6-56.6
			C-29.7-513.7-4.3-488.3-4.3-457.1z"/>
		<path class="st1" d="M-85-508.2c0,0,48.9,5.3,66.6-31"/>
		<path class="st1" d="M-85.6-394.4c0,0,8.5,14.7,26.3,14.7s23.6-14.7,23.6-14.7"/>
		<path class="st1" d="M-13.4-378c0,0,58,59.2,61.6,56.2c3.6-3,40.5-65.8,40.5-65.8"/>
		<path class="st1" d="M-97.3-385.9c0,0-85.7,48.3-79.7,61c6,12.7,50.1,51.3,50.1,51.3l-10.9,19.9"/>
		<g>
			<path class="st5" d="M-81.2-433.4c0,0,7.5,9.3,20.4,6.8c12.9-2.5,19-16.3,19-16.3"/>
			<g>
				<path class="st6" d="M-78.3-459.9c-3.3,0-6.1-2.3-6.8-5.4c-0.1,0.5-0.2,1-0.2,1.5c0,3.8,3.1,6.9,6.9,6.9c3.8,0,6.9-3.1,6.9-6.9
					c0-0.5-0.1-1-0.2-1.5C-72.2-462.3-75-459.9-78.3-459.9z"/>
			</g>
			<g>
				<path class="st6" d="M-44.4-459.9c-3.3,0-6.1-2.3-6.8-5.4c-0.1,0.5-0.2,1-0.2,1.5c0,3.8,3.1,6.9,6.9,6.9c3.8,0,6.9-3.1,6.9-6.9
					c0-0.5-0.1-1-0.2-1.5C-38.3-462.3-41.1-459.9-44.4-459.9z"/>
			</g>
		</g>
	</g>
	<rect x="83" y="-422" class="st7" width="95" height="121"/>
	<g>
		<rect x="93.7" y="-406.8" class="st6" width="44.9" height="1.7"/>
		<rect x="93.7" y="-400.5" class="st6" width="74.7" height="2.2"/>
		<rect x="93.7" y="-394.6" class="st6" width="74.7" height="2.2"/>
		<rect x="93.7" y="-388" class="st6" width="74.7" height="2.2"/>
		<rect x="93.7" y="-382.2" class="st6" width="74.7" height="2.2"/>
		<rect x="93.7" y="-365.5" class="st6" width="74.7" height="2.2"/>
		<rect x="93.7" y="-359.6" class="st6" width="74.7" height="2.2"/>
		<rect x="93.7" y="-353.1" class="st6" width="74.7" height="2.2"/>
		<rect x="93.7" y="-347.2" class="st6" width="74.7" height="2.2"/>
		<rect x="93.7" y="-334.8" class="st6" width="74.7" height="2.2"/>
		<rect x="93.7" y="-328.9" class="st6" width="74.7" height="2.2"/>
		<rect x="93.7" y="-322.3" class="st6" width="74.7" height="2.2"/>
		<rect x="93.7" y="-316.5" class="st6" width="74.7" height="2.2"/>
	</g>
</g>
</svg>
