<?xml version="1.0" encoding="utf-8"?>
<!-- Generator: Adobe Illustrator 19.0.0, SVG Export Plug-In . SVG Version: 6.00 Build 0)  -->
<svg version="1.1" id="Capa_1" xmlns="http://www.w3.org/2000/svg" xmlns:xlink="http://www.w3.org/1999/xlink" x="0px" y="0px"
	 viewBox="-236 347.3 138 98.7" style="enable-background:new -236 347.3 138 98.7;" xml:space="preserve">
<style type="text/css">
	.st0{fill:#EA7E25;stroke:#004966;stroke-width:0.6053;stroke-linecap:round;stroke-linejoin:round;stroke-miterlimit:10;}
	.st1{fill:#CC6723;stroke:#004966;stroke-width:0.4781;stroke-linecap:round;stroke-linejoin:round;stroke-miterlimit:10;}
	.st2{fill:#0098C8;stroke:#004966;stroke-width:1.0826;stroke-linecap:round;stroke-linejoin:round;stroke-miterlimit:10;}
	.st3{fill:#E1DFE6;stroke:#004966;stroke-width:1.0612;stroke-linecap:round;stroke-linejoin:round;stroke-miterlimit:10;}
	.st4{fill:#64AC28;stroke:#004966;stroke-width:1.0612;stroke-linecap:round;stroke-linejoin:round;stroke-miterlimit:10;}
	.st5{fill:#C7C5D0;stroke:#004966;stroke-width:0.5183;stroke-linecap:round;stroke-linejoin:round;stroke-miterlimit:10;}
	.st6{fill:#DFDEE4;stroke:#004966;stroke-width:0.5183;stroke-linecap:round;stroke-linejoin:round;stroke-miterlimit:10;}
	.st7{fill:#64AC28;stroke:#004966;stroke-width:0.5183;stroke-linecap:round;stroke-linejoin:round;stroke-miterlimit:10;}
	.st8{fill:#DD2D5C;stroke:#004966;stroke-width:1.2037;stroke-linecap:round;stroke-linejoin:round;stroke-miterlimit:10;}
	.st9{fill:#F6F6F7;}
	.st10{fill:#DFDEE4;}
	.st11{fill:#004966;}
	.st12{fill:none;stroke:#004966;stroke-width:1.2037;stroke-linecap:round;stroke-linejoin:round;stroke-miterlimit:10;}
	.st13{fill:none;stroke:#004966;stroke-width:0.6019;stroke-linecap:round;stroke-linejoin:round;stroke-miterlimit:10;}
	.st14{fill:#0098C8;}
	.st15{fill:#FFFFFF;}
	.st16{fill:none;stroke:#004966;stroke-width:0.5947;stroke-linecap:round;stroke-linejoin:round;stroke-miterlimit:10;}
	.st17{fill:#C7C5D0;}
	.st18{fill:none;stroke:#004966;stroke-width:1.2607;stroke-linecap:round;stroke-linejoin:round;stroke-miterlimit:10;}
	.st19{fill:#FFE000;}
	.st20{fill:none;stroke:#004966;stroke-width:0.1666;stroke-linecap:round;stroke-linejoin:round;stroke-miterlimit:10;}
	.st21{fill:none;stroke:#004966;stroke-width:0.4012;stroke-linecap:round;stroke-linejoin:round;stroke-miterlimit:10;}
	.st22{fill:#FFFFFF;stroke:#004966;stroke-width:0.75;stroke-linecap:round;stroke-miterlimit:10;}
</style>
<g>
	<ellipse class="st0" cx="-167" cy="432.3" rx="59.6" ry="12.6"/>
	<ellipse class="st1" cx="-168.2" cy="431.8" rx="47" ry="10"/>
	<g>
		<rect x="-204.3" y="348.6" class="st2" width="50.3" height="26.3"/>
		
			<rect x="-181.9" y="349.1" transform="matrix(-1 1.557135e-003 -1.557135e-003 -1 -357.8368 724.0795)" class="st3" width="5.4" height="25.7"/>
		<g>
			<path class="st4" d="M-188,348.8c-0.4,0-1,9.9-4.1,13.1c-3.2,3.3-12,5.1-12,5.1s0.2-18.5,0-18.5
				C-204.3,348.6-187.6,348.8-188,348.8z"/>
			<path class="st4" d="M-204.2,367.1c0,0-4.6,13.3-3.2,12.8c1.5-0.5,3.6-1.1,3.6-1.1s3.6,7.2,4.4,6c0.9-1.2,0.8-3.6,0.5-3.7
				s3.1,3.6,3.1,1.7c0-2-0.8-3.3-0.8-3.3s4,2.8,3.9,0.5s-8.9-13.2-8.9-13.2L-204.2,367.1z"/>
			<path class="st4" d="M-198.9,367.3c0,0.8-0.6,1.4-1.4,1.4h-4.2c-0.8,0-1.4-0.6-1.4-1.4l0,0c0-0.8,0.6-1.4,1.4-1.4h4.2
				C-199.6,365.9-198.9,366.6-198.9,367.3L-198.9,367.3z"/>
		</g>
		<g>
			<path class="st4" d="M-169.9,348.6c0.4,0,1,9.9,4.1,13.1c3.2,3.3,12,5.1,12,5.1s-0.2-18.5,0-18.5
				C-153.5,348.3-170.3,348.6-169.9,348.6z"/>
			<path class="st4" d="M-153.7,366.8c0,0,4.6,13.3,3.2,12.8c-1.5-0.5-3.7-1.1-3.7-1.1s-3.6,7.2-4.4,6c-0.9-1.2-0.8-3.6-0.5-3.7
				s-3.1,3.7-3.1,1.7s0.8-3.3,0.8-3.3s-4,2.8-3.9,0.5s8.9-13.2,8.9-13.2L-153.7,366.8z"/>
			<path class="st4" d="M-159,367.1c0,0.8,0.6,1.4,1.4,1.4h4.2c0.8,0,1.4-0.6,1.4-1.4l0,0c0-0.8-0.6-1.4-1.4-1.4h-4.2
				C-158.3,365.6-159,366.3-159,367.1L-159,367.1z"/>
		</g>
	</g>
	<g>
		<g>
			<g>
				<path class="st5" d="M-177.3,420.4h32.8c1.7-1.2,0.4-2.8,0.4-2.8l0.5-14.3c3.4,0.2,6.2-6.3,0.9-7.9s-7.9-0.4-7.9-0.4
					c-0.1-0.5-0.4-4.8-0.4-4.8s-23,0.7-26.6,0.7c-2.7,0-6.8,0-6.8,0c-3.6,0.1-26.6-0.7-26.6-0.7s-0.3,4.3-0.4,4.8
					c0,0-2.6-1.1-7.9,0.4c-5.3,1.6-2.5,8.1,0.9,7.9l0.5,14.3c0,0-1.3,1.6,0.4,2.8h32.8H-177.3z"/>
				<path class="st5" d="M-150.7,395.1c0,0-3.9,0.8-3.7,10.3c0,0,5.1,1.5,4.6,7.9c0,0-0.8-13,2.1-16.1c3-3.2,6.6-0.8,6.6-0.8
					s-2.3-1.7-6.3-1.7C-148.3,394.6-149.4,394.6-150.7,395.1z"/>
				<path class="st5" d="M-211.4,395.1c0,0,3.9,0.8,3.7,10.3c0,0-5.1,1.5-4.6,7.9c0,0,0.8-13-2.1-16.1c-3-3.2-6.6-0.8-6.6-0.8
					s2.3-1.7,6.3-1.7C-213.8,394.6-212.7,394.6-211.4,395.1z"/>
				<path class="st6" d="M-154.1,405.3c0,0,2.7,1.1,3.6,2.8c0,0,1.2,1.3,1,5.1h-62.8c-0.2-3.9,1-5.1,1-5.1c0.9-1.7,3.6-2.8,3.6-2.8
					S-182.4,404.5-154.1,405.3z"/>
			</g>
			<g>
				<g>
					<path class="st7" d="M-149.3,393.9c0,0-9.3,0.9-10.3,1.7c-1,0.8-4.8,6.7-5.5,10.5h11C-154.1,406.1-147.1,393.3-149.3,393.9z"/>
				</g>
				<g>
					<path class="st7" d="M-212,393.9c0,0,9.3,0.9,10.3,1.7c1,0.8,4.8,6.7,5.5,10.5h-11C-207.2,406.1-214.2,393.3-212,393.9z"/>
				</g>
			</g>
		</g>
		<path class="st8" d="M-203.2,399.9c0.4,0.2,3.7,7.1,11,9s8.5,0.6,8.5,0.6s2.1-6,1.8-9.4c-0.3-3.5-1.4-5-1.4-5s-2.2-1.9-8.1-1.7
			c-6,0.3-10.4,3.3-10.4,3.3L-203.2,399.9z"/>
		<g>
			<circle class="st9" cx="-206.9" cy="395.3" r="6.5"/>
			<path class="st10" d="M-206.8,388.6c-1.2,0-2.2,0.3-3.2,0.8c3.5,0.2,6.3,3.1,6.3,6.6c0,2.5-1.4,4.7-3.5,5.8c0.1,0,0.2,0,0.4,0
				c3.7,0,6.7-3,6.7-6.7C-200.1,391.6-203.1,388.6-206.8,388.6z"/>
			<path class="st11" d="M-206.9,402.4c-3.9,0-7-3.2-7-7c0-3.9,3.2-7,7-7c3.9,0,7,3.2,7,7C-199.9,399.3-203,402.4-206.9,402.4z
				 M-206.9,389.3c-3.3,0-6,2.7-6,6s2.7,6,6,6s6-2.7,6-6S-203.6,389.3-206.9,389.3z"/>
		</g>
		<path class="st12" d="M-182.3,404.5c0,0,10.6-12,15.8-10.6s8.6,13.3,8.6,13.3"/>
		<path class="st12" d="M-181.8,399c0,0,8.7-12.6,11.1-10.5c2.4,2.1,3,17.5,3,17.5"/>
		<path class="st12" d="M-199.5,401.1c0,0,0.6,10.2,4.7,9.1c4-1.1,8.2-12.5,8.2-12.5"/>
		<path class="st12" d="M-198.8,395c0,0,1-5,8.1-5.7c7.1-0.6,10,1.1,10,1.1"/>
		<path class="st12" d="M-212.8,393.3c-1.9-0.2-2.8,1.8-2.8,3.3c0,1.6,1.1,2.4-0.4,3.6c-1.3,1-2.4,1.1-1.7,2.9
			c0.3,0.7,1.1,1.4,0.9,2.3c-0.1,0.7-0.8,1.1-0.9,1.9"/>
		<path class="st12" d="M-211.9,397.9c-1.5,0.2-2.2,2.2-1.6,3.4c0.6,1.3,2.1,1.7,1.6,3.5c-0.3,1.2-1.7,1.1-2,2.3
			c-0.3,1.2,0.7,2.7,2,2.5"/>
		<path class="st12" d="M-208,399.1c-1.7-0.9-1.3,3.1-1,3.8c0.6,1.2,3.3,2.7,2.5,4.3c-0.6,1.2-2.3,0.8-2.8,2.3
			c-0.5,1.4,0.2,3.3,2,2.9"/>
		<path class="st12" d="M-204.1,400.1c-1.5-0.2-1.7,3.1-1.5,4c0.5,1.7,2.1,3.1,3.3,4.3c0.2,0.2,0.9,0.6,1,1c0,0.7-0.4,0.4-0.7,0.9
			c-0.5,0.8-0.8,1.7-0.3,2.5"/>
		<path class="st12" d="M-214,393.8c1.1-0.4,2-2,2-3.1c0.1-1.4-0.9-2.2-1.3-3.4"/>
		<path class="st12" d="M-212.3,391.3c0.8-0.9,2-1.5,2.8-2.5c0.7-0.9,1-2,1.5-3.1"/>
		<ellipse class="st11" cx="-206.6" cy="392.9" rx="0.9" ry="0.9"/>
		<ellipse class="st11" cx="-206.3" cy="389.4" rx="0.9" ry="0.9"/>
		<path class="st13" d="M-202.3,390.9c0,0-0.7,0.8-0.9,2.5s1.3,2.3,1.3,2.3"/>
	</g>
	<g>
		<rect x="-169.9" y="422.5" class="st14" width="21.9" height="1.8"/>
		<path class="st15" d="M-167.7,436.8v-12.7h1.8v12.7c0,0.2-0.2,0.4-0.4,0.4h-0.9C-167.5,437.3-167.7,437.1-167.7,436.8"/>
		<path class="st15" d="M-181.4,433v-12.5l1.8,0.7v12.2c0,0.3-0.4,0.5-0.7,0.4l-0.9-0.5C-181.3,433.3-181.4,433.3-181.4,433"/>
		<path class="st10" d="M-151.9,435.6v-11.5h1.8v11.5c0,0.2-0.2,0.4-0.4,0.4h-0.9C-151.7,436.1-151.9,435.9-151.9,435.6"/>
		<path class="st10" d="M-165.9,429.6v-5.3h0.9v5.3c0,0.2-0.2,0.4-0.4,0.4C-165.7,430-165.9,429.8-165.9,429.6"/>
		<polygon class="st14" points="-169.8,422.3 -184.1,418.3 -165.8,418.3 -148,422.3 		"/>
		<polyline class="st14" points="-184.1,418.3 -184.1,419.8 -169.9,424 -169.9,422.3 		"/>
		<rect x="-169.9" y="422.5" class="st16" width="21.9" height="1.8"/>
		<path class="st16" d="M-167.7,436.8v-12.1h1.8v12.1c0,0.2-0.2,0.4-0.4,0.4h-0.9C-167.5,437.3-167.7,437.1-167.7,436.8z"/>
		<path class="st16" d="M-181.4,433v-11.7h1.8v12.2c0,0.3-0.4,0.5-0.7,0.4l-0.9-0.5C-181.3,433.3-181.4,433.3-181.4,433z"/>
		<path class="st16" d="M-151.9,435.6v-10.9h1.8v10.9c0,0.2-0.2,0.4-0.4,0.4h-0.9C-151.7,436.1-151.9,435.9-151.9,435.6z"/>
		<path class="st16" d="M-165.9,429.6v-5.3h0.9v5.3c0,0.2-0.2,0.4-0.4,0.4C-165.7,430-165.9,429.8-165.9,429.6z"/>
		<polygon class="st16" points="-169.8,423 -184.1,418.8 -165.8,418.8 -148,423 		"/>
		<polyline class="st16" points="-184.5,418.8 -184.5,419.8 -170.3,424.3 		"/>
	</g>
	<ellipse class="st17" cx="-121" cy="426.8" rx="12" ry="2.5"/>
	<g>
		<path class="st18" d="M-127,426c0,0-4.2-12.3,0.6-25.7"/>
		<path class="st18" d="M-118.6,426.3c0,0-4.2-12.3,0.6-25.7"/>
		<g>
			<path class="st18" d="M-128.6,378.8c1.6-0.4-5.1,14-15.6,2"/>
			<path class="st18" d="M-118.9,378.8c-1.6-0.4,9.5,3.3,9.5,21.5"/>
			<path class="st19" d="M-119.1,377.5c1.4,2.4,3.5,3.4,5.1,10c0.6,2.6,0.4,17.8-0.4,21.6c-0.3,1.4-3.4,3.8-6.9,4.4
				c-1.8,0.3-3.9,0.1-6.9-0.3c-1.1-0.1-5.4-1.1-5.7-4.3c-0.2-2.4-0.7-17.8,0.4-21.6c0.9-3.2,1.9-4.7,5.9-10.4c4-5.7,3.7-5.6,3.7-5.6
				S-120.5,375-119.1,377.5"/>
			<path class="st18" d="M-118.8,377.5c1.4,2.4,3.5,3.4,5.1,10c0.6,2.6,0.4,17.8-0.4,21.6c-0.3,1.4-3.4,3.8-6.9,4.4
				c-1.8,0.3-3.9,0.1-6.9-0.3c-1.1-0.1-5.4-1.1-5.7-4.3c-0.2-2.4-0.7-17.8,0.4-21.6c0.9-3.2,1.9-4.7,5.9-10.4c4-5.7,3.7-5.6,3.7-5.6
				S-120.2,375-118.8,377.5z"/>
			<path class="st19" d="M-130.6,382.4c0.6-1.3,1.5-2.5,2.1-3.8c0.3-0.7,0.8-1.7,1.6-1.9c0.1-0.1,0.3-0.2,0.5-0.3
				c-0.2-0.1-0.4-0.2-0.6-0.3c-0.2-0.1-0.4-0.3-0.7-0.4c1.3,0.3,2.6,0.6,3.7,1.4c-0.1,0-0.3,0-0.4-0.1c0.3,0.3-1.9-0.4-1.9,0.1
				c0,1.4-0.8,2.6-1.5,3.7c-1,1.6-2.2,4.4-1.2,5.9c1.3,2,6.4,1.2,8.7,0.5c5.8-1.8,0.8,1.9-1.4,2.1c-2.5,0.3-3.7,0.5-6.2,0.1
				c-5.7-0.8-4.5,3.4-4.6,3.2C-133.3,389.8-132.2,385.6-130.6,382.4"/>
			<path class="st15" d="M-131.2,368.5c0,4.5,3.6,8.1,8.1,8.1s8.1-3.6,8.1-8.1s-3.6-8.1-8.1-8.1S-131.2,364-131.2,368.5"/>
			<path class="st10" d="M-124.1,376.5c-0.8-0.3-1.5-0.5-2.3-0.8h0.1c-0.2-0.1-0.4-0.2-0.6-0.3c-2.3-1.3-4.9-4.2-3.7-6.9
				c1.4-2.9,4.1,1.1,5,2.2c1,1.2,2.4,1.8,3.9,1.9c0.3-0.2,0.6-0.1,0.9,0c1.7-0.1,3.3-1,4-2.6c0.3-0.7,1.3-0.3,1.4,0.3
				c0.6-0.3,1.4,0.4,1,1c-0.2,0.3-0.3,0.5-0.5,0.7c-0.1,0.7-0.6,1.2-1.2,1.7c-0.2,0.1-0.4,0.2-0.5,0.2c0,0.1-0.1,0.3-0.2,0.4
				c-2.2,1.7-4.9,2.5-7.5,2C-124.2,376.3-124.1,376.4-124.1,376.5"/>
			<circle class="st18" cx="-122.8" cy="368.5" r="8.1"/>
			<path class="st18" d="M-133.9,375.8c0,0,2.4,2.4,2.6-1.1c0.5-8.2,0.6-12.9,6.7-14.1"/>
			<path class="st18" d="M-111.5,375.8c0,0-2.4,2.4-2.6-1.1c-0.5-8.2-0.6-12.9-6.7-14.1"/>
			<path class="st11" d="M-121,377.5c0,0.4,0.3,0.7,0.7,0.7c0.4,0,0.7-0.3,0.7-0.7c0-0.4-0.3-0.7-0.7-0.7S-121,377.1-121,377.5"/>
			<path class="st11" d="M-121.8,379.6c0,0.4,0.3,0.7,0.7,0.7c0.4,0,0.7-0.3,0.7-0.7c0-0.4-0.3-0.7-0.7-0.7
				C-121.5,379-121.8,379.3-121.8,379.6"/>
			<path class="st11" d="M-123.2,381.3c0,0.4,0.3,0.7,0.7,0.7c0.4,0,0.7-0.3,0.7-0.7s-0.3-0.7-0.7-0.7
				C-122.9,380.6-123.2,380.9-123.2,381.3"/>
			<path class="st11" d="M-125.3,381.3c0,0.4,0.3,0.7,0.7,0.7c0.4,0,0.7-0.3,0.7-0.7s-0.3-0.7-0.7-0.7
				C-125,380.6-125.3,380.9-125.3,381.3"/>
			<path class="st11" d="M-126.8,379.6c0,0.4,0.3,0.7,0.7,0.7c0.4,0,0.7-0.3,0.7-0.7c0-0.4-0.3-0.7-0.7-0.7
				C-126.5,379-126.8,379.3-126.8,379.6"/>
			<path class="st11" d="M-127.7,377.3c0,0.4,0.3,0.7,0.7,0.7c0.4,0,0.7-0.3,0.7-0.7c0-0.4-0.3-0.7-0.7-0.7
				C-127.4,376.6-127.7,376.9-127.7,377.3"/>
			<path class="st20" d="M-120.4,377.3c0,0-0.3,3.5-2.1,4.1c-1.8,0.6-3.2-0.1-4.5-3.8"/>
		</g>
		<circle class="st11" cx="-127.9" cy="368.4" r="1"/>
		<circle class="st11" cx="-122.6" cy="368.6" r="1"/>
		<path class="st21" d="M-126.7,373c0,0,0.9,1.2,2.6,0.7c1.7-0.4,2.4-1.4,2.4-1.4"/>
	</g>
</g>
<path class="st22" d="M-230,355.5c0,0-1.8,9.3-0.6,11.3c1.1,2,49.5,0.9,51.2,0.7c1.6-0.3,2.6-7.9,1-13.6c-1.6-5.7-49.7-0.4-49.7-0.4
	"/>
<g>
	<path class="st11" d="M-227.8,360.8v1.8c0,0.1,0,0.2-0.1,0.2c-0.1,0.1-0.1,0.1-0.2,0.1c-0.1,0-0.2,0-0.2-0.1s-0.1-0.1-0.1-0.2v-5
		c0-0.1,0-0.2,0.1-0.3s0.2-0.1,0.3-0.1h1.2c0.3,0,0.6,0,0.8,0.1c0.2,0.1,0.4,0.2,0.6,0.4c0.1,0.2,0.2,0.4,0.3,0.6
		c0.1,0.2,0.1,0.4,0.1,0.7c0,0.6-0.2,1-0.5,1.3c-0.3,0.3-0.8,0.5-1.3,0.5H-227.8z M-227.8,360.1h0.9c0.4,0,0.7-0.1,0.9-0.3
		c0.2-0.2,0.3-0.5,0.3-0.9c0-0.1,0-0.3,0-0.4s-0.1-0.3-0.2-0.4s-0.2-0.2-0.4-0.3c-0.2-0.1-0.3-0.1-0.6-0.1h-0.9V360.1z"/>
	<path class="st11" d="M-223.5,362.6c0,0.1,0,0.2-0.1,0.2c-0.1,0.1-0.1,0.1-0.2,0.1s-0.2,0-0.2-0.1s-0.1-0.1-0.1-0.2v-2.7
		c0-0.1,0-0.2,0-0.3s-0.1-0.2-0.1-0.2c0,0,0-0.1,0-0.1s0-0.1,0-0.1c0-0.1,0-0.2,0.1-0.2c0.1-0.1,0.1-0.1,0.2-0.1
		c0.1,0,0.1,0,0.2,0.1c0.1,0,0.1,0.1,0.1,0.2c0.2-0.1,0.4-0.2,0.6-0.3c0.2-0.1,0.4-0.1,0.5-0.1c0.2,0,0.3,0,0.3,0.1
		c0.1,0.1,0.1,0.1,0.1,0.2c0,0.1,0,0.2-0.1,0.2c-0.1,0.1-0.1,0.1-0.2,0.1c-0.2,0-0.3,0-0.5,0c-0.2,0-0.3,0.1-0.5,0.3
		c0,0,0,0.1,0,0.1c0,0,0,0.1,0,0.1V362.6z"/>
	<path class="st11" d="M-220.2,362.4c0.2,0,0.3,0,0.4-0.1c0.1,0,0.3-0.1,0.4-0.2c0,0,0,0,0,0c0,0,0,0,0.1,0c0.1,0,0.1,0,0.2,0.1
		c0.1,0.1,0.1,0.1,0.1,0.2c0,0.1,0,0.2-0.1,0.2c-0.1,0.1-0.2,0.1-0.3,0.2c-0.1,0-0.3,0.1-0.4,0.1c-0.1,0-0.3,0-0.4,0
		c-0.2,0-0.4,0-0.6-0.1c-0.2-0.1-0.3-0.2-0.4-0.3c-0.1-0.1-0.2-0.3-0.3-0.4c-0.1-0.2-0.1-0.3-0.1-0.5v-1.5c0-0.2,0-0.4,0.1-0.5
		c0.1-0.2,0.2-0.3,0.3-0.4c0.1-0.1,0.3-0.2,0.5-0.3c0.2-0.1,0.4-0.1,0.6-0.1c0.4,0,0.8,0.1,1,0.4c0.2,0.2,0.3,0.6,0.3,1
		c0,0.4-0.1,0.7-0.3,0.9s-0.6,0.3-1,0.3c-0.1,0-0.3,0-0.4,0c-0.1,0-0.3,0-0.4-0.1v0.5c0,0.2,0.1,0.4,0.2,0.5
		S-220.5,362.4-220.2,362.4z M-219.6,360c0-0.3-0.1-0.4-0.2-0.6c-0.1-0.1-0.3-0.2-0.5-0.2c-0.3,0-0.5,0.1-0.6,0.2
		c-0.1,0.1-0.2,0.3-0.2,0.5v0.6c0.1,0,0.3,0,0.5,0c0.2,0,0.3,0,0.4,0c0.1,0,0.3,0,0.4-0.1c0.1,0,0.2-0.1,0.2-0.1
		c0.1-0.1,0.1-0.1,0.1-0.2C-219.6,360.2-219.6,360.1-219.6,360z"/>
	<path class="st11" d="M-218.2,359.9c0-0.3,0.1-0.6,0.3-0.8c0.2-0.2,0.5-0.3,1-0.3c0.1,0,0.2,0,0.3,0c0.1,0,0.2,0,0.3,0.1
		c0.1,0,0.2,0.1,0.3,0.1s0.1,0.1,0.1,0.2c0,0.1,0,0.1-0.1,0.2c-0.1,0.1-0.1,0.1-0.2,0.1c0,0-0.1,0-0.1,0c-0.1,0-0.2-0.1-0.3-0.1
		c-0.1,0-0.2,0-0.3,0c-0.5,0-0.7,0.2-0.7,0.6c0,0.1,0,0.2,0.1,0.3c0.1,0.1,0.2,0.1,0.3,0.2s0.3,0.1,0.5,0.2c0.2,0.1,0.3,0.1,0.5,0.2
		c0.2,0.1,0.3,0.2,0.4,0.4c0.1,0.1,0.2,0.4,0.2,0.6c0,0.4-0.1,0.6-0.3,0.9c-0.2,0.2-0.6,0.3-1,0.3c-0.1,0-0.2,0-0.4,0
		c-0.1,0-0.3,0-0.4-0.1c-0.1,0-0.2-0.1-0.3-0.1c-0.1-0.1-0.1-0.1-0.1-0.2c0-0.1,0-0.1,0.1-0.2c0.1-0.1,0.1-0.1,0.2-0.1
		c0,0,0,0,0.1,0c0,0,0,0,0,0c0.1,0,0.2,0.1,0.4,0.1s0.3,0.1,0.4,0.1c0.2,0,0.4,0,0.5-0.1c0.1-0.1,0.2-0.2,0.2-0.5
		c0-0.1,0-0.3-0.1-0.3c-0.1-0.1-0.1-0.1-0.2-0.2c-0.1-0.1-0.3-0.1-0.5-0.2c-0.2-0.1-0.3-0.1-0.5-0.2c-0.2-0.1-0.3-0.2-0.4-0.4
		S-218.2,360.2-218.2,359.9z"/>
	<path class="st11" d="M-214.1,357.5c0,0.1,0,0.2-0.1,0.3c-0.1,0.1-0.2,0.1-0.3,0.1c-0.1,0-0.2,0-0.3-0.1c-0.1-0.1-0.1-0.2-0.1-0.3
		c0-0.1,0-0.2,0.1-0.3c0.1-0.1,0.2-0.1,0.3-0.1c0.1,0,0.2,0,0.3,0.1C-214.2,357.3-214.1,357.4-214.1,357.5z M-214.2,362.6
		c0,0.1,0,0.2-0.1,0.2s-0.1,0.1-0.2,0.1s-0.2,0-0.2-0.1s-0.1-0.1-0.1-0.2v-3.5c0-0.1,0-0.2,0.1-0.2c0.1-0.1,0.1-0.1,0.2-0.1
		s0.2,0,0.2,0.1c0.1,0.1,0.1,0.1,0.1,0.2V362.6z"/>
	<path class="st11" d="M-211.7,362.9c-0.2,0-0.5,0-0.6-0.1c-0.2-0.1-0.3-0.2-0.5-0.3c-0.1-0.1-0.2-0.3-0.3-0.5
		c-0.1-0.2-0.1-0.4-0.1-0.6v-1.3c0-0.2,0-0.4,0.1-0.6c0.1-0.2,0.2-0.3,0.3-0.5c0.1-0.1,0.3-0.2,0.5-0.3s0.4-0.1,0.6-0.1
		c0.2,0,0.5,0,0.6,0.1s0.3,0.2,0.5,0.3c0.1,0.1,0.2,0.3,0.3,0.5c0.1,0.2,0.1,0.4,0.1,0.6v1.3c0,0.2,0,0.4-0.1,0.6
		c-0.1,0.2-0.2,0.3-0.3,0.5c-0.1,0.1-0.3,0.2-0.5,0.3C-211.2,362.9-211.4,362.9-211.7,362.9z M-211.7,362.3c0.3,0,0.5-0.1,0.7-0.2
		s0.2-0.4,0.2-0.6v-1.3c0-0.3-0.1-0.5-0.2-0.6s-0.4-0.2-0.7-0.2c-0.3,0-0.5,0.1-0.7,0.2s-0.2,0.4-0.2,0.6v1.3c0,0.3,0.1,0.5,0.2,0.6
		S-212,362.3-211.7,362.3z M-211.6,357.2c0.1-0.1,0.1-0.1,0.1-0.1s0.1-0.1,0.2-0.1c0.1,0,0.1,0,0.2,0.1s0.1,0.1,0.1,0.2
		c0,0,0,0,0,0.1c0,0,0,0,0,0.1l-0.6,0.7c0,0-0.1,0.1-0.1,0.1c0,0-0.1,0-0.1,0c-0.1,0-0.1,0-0.2-0.1s-0.1-0.1-0.1-0.2
		c0,0,0-0.1,0-0.1L-211.6,357.2z"/>
	<path class="st11" d="M-208.6,362.6c0,0.1,0,0.2-0.1,0.2c-0.1,0.1-0.1,0.1-0.2,0.1s-0.2,0-0.2-0.1c-0.1-0.1-0.1-0.1-0.1-0.2v-2.7
		c0-0.1,0-0.2,0-0.3c0-0.1,0-0.1,0-0.1c0,0,0-0.1,0-0.1c0,0,0,0-0.1-0.1c0,0,0,0,0-0.1c0,0,0-0.1,0-0.1c0-0.1,0-0.1,0.1-0.2
		c0.1-0.1,0.1-0.1,0.2-0.1c0.1,0,0.1,0,0.2,0.1c0.1,0,0.1,0.1,0.1,0.2c0.2-0.1,0.4-0.2,0.6-0.3c0.2-0.1,0.4-0.1,0.6-0.1
		c0.4,0,0.7,0.1,1,0.4c0.2,0.3,0.3,0.6,0.3,1.1v2.3c0,0.1,0,0.2-0.1,0.2c-0.1,0.1-0.1,0.1-0.2,0.1c-0.1,0-0.2,0-0.2-0.1
		c-0.1-0.1-0.1-0.1-0.1-0.2v-2.3c0-0.3-0.1-0.5-0.2-0.7c-0.1-0.2-0.3-0.2-0.5-0.2c-0.2,0-0.3,0-0.5,0.1c-0.1,0.1-0.3,0.1-0.4,0.2
		c0,0.1,0,0.2,0,0.2V362.6z"/>
	<path class="st11" d="M-199.8,362.5c0,0.1,0,0.2-0.1,0.2c-0.1,0.1-0.1,0.1-0.2,0.1h-2.1c-0.1,0-0.3,0-0.4-0.1
		c-0.1-0.1-0.2-0.2-0.2-0.3v-4.9c0-0.1,0-0.2,0.1-0.3c0.1-0.1,0.2-0.1,0.3-0.1h2.2c0.1,0,0.2,0,0.2,0.1c0.1,0.1,0.1,0.1,0.1,0.2
		c0,0.1,0,0.2-0.1,0.2c-0.1,0.1-0.1,0.1-0.2,0.1h-1.9v1.9h1.8c0.1,0,0.2,0,0.2,0.1c0.1,0.1,0.1,0.1,0.1,0.2s0,0.2-0.1,0.2
		s-0.1,0.1-0.2,0.1h-1.8v1.9h2c0.1,0,0.2,0,0.2,0.1C-199.9,362.4-199.8,362.4-199.8,362.5z"/>
	<path class="st11" d="M-196.4,362.5c0,0,0,0.1,0,0.1c0,0.1,0,0.2-0.1,0.2c-0.1,0.1-0.1,0.1-0.2,0.1c-0.1,0-0.1,0-0.2-0.1
		c0,0-0.1-0.1-0.1-0.2l-0.9-1.4l-0.9,1.4c-0.1,0.1-0.2,0.2-0.3,0.2c-0.1,0-0.2,0-0.2-0.1s-0.1-0.1-0.1-0.2c0,0,0-0.1,0-0.1l1.1-1.7
		l-1-1.6c0,0,0-0.1,0-0.1c0-0.1,0-0.2,0.1-0.2s0.1-0.1,0.2-0.1s0.2,0,0.2,0.1c0.1,0.1,0.1,0.1,0.1,0.2l0.8,1.2l0.8-1.3
		c0-0.1,0.1-0.1,0.1-0.2c0,0,0.1-0.1,0.2-0.1c0.1,0,0.1,0,0.2,0.1c0.1,0.1,0.1,0.1,0.1,0.2c0,0,0,0.1,0,0.1c0,0,0,0,0,0.1l-1,1.6
		L-196.4,362.5z"/>
	<path class="st11" d="M-195.5,357.9c0-0.1,0-0.2,0.1-0.2s0.1-0.1,0.2-0.1c0.1,0,0.2,0,0.2,0.1c0.1,0.1,0.1,0.1,0.1,0.2v1.1h0.8
		c0.1,0,0.1,0,0.2,0.1c0.1,0.1,0.1,0.1,0.1,0.2s0,0.2-0.1,0.2s-0.1,0.1-0.2,0.1h-0.8v1.6c0,0.2,0,0.4,0,0.5c0,0.1,0,0.3,0.1,0.3
		c0,0.1,0.1,0.2,0.2,0.2c0.1,0,0.2,0.1,0.3,0.1c0,0,0.1,0,0.1,0c0,0,0,0,0.1,0c0,0,0.1,0,0.1,0s0.1,0,0.1,0c0,0,0.1,0.1,0.1,0.1
		c0,0,0,0.1,0,0.2c0,0.1,0,0.1,0,0.2c0,0-0.1,0.1-0.1,0.1c0,0-0.1,0-0.1,0c-0.1,0-0.1,0-0.2,0c-0.3,0-0.5,0-0.7-0.1
		s-0.3-0.2-0.4-0.3c-0.1-0.1-0.2-0.3-0.2-0.5c0-0.2-0.1-0.4-0.1-0.7V357.9z"/>
	<path class="st11" d="M-191.7,362.4c0.2,0,0.3,0,0.4-0.1c0.1,0,0.3-0.1,0.4-0.2c0,0,0,0,0,0c0,0,0,0,0.1,0c0.1,0,0.1,0,0.2,0.1
		c0.1,0.1,0.1,0.1,0.1,0.2c0,0.1,0,0.2-0.1,0.2c-0.1,0.1-0.2,0.1-0.3,0.2c-0.1,0-0.3,0.1-0.4,0.1c-0.1,0-0.3,0-0.4,0
		c-0.2,0-0.4,0-0.6-0.1c-0.2-0.1-0.3-0.2-0.4-0.3c-0.1-0.1-0.2-0.3-0.3-0.4c-0.1-0.2-0.1-0.3-0.1-0.5v-1.5c0-0.2,0-0.4,0.1-0.5
		c0.1-0.2,0.2-0.3,0.3-0.4c0.1-0.1,0.3-0.2,0.5-0.3c0.2-0.1,0.4-0.1,0.6-0.1c0.4,0,0.8,0.1,1,0.4c0.2,0.2,0.3,0.6,0.3,1
		c0,0.4-0.1,0.7-0.3,0.9s-0.6,0.3-1,0.3c-0.1,0-0.3,0-0.4,0c-0.1,0-0.3,0-0.4-0.1v0.5c0,0.2,0.1,0.4,0.2,0.5S-192,362.4-191.7,362.4
		z M-191,360c0-0.3-0.1-0.4-0.2-0.6c-0.1-0.1-0.3-0.2-0.5-0.2c-0.3,0-0.5,0.1-0.6,0.2c-0.1,0.1-0.2,0.3-0.2,0.5v0.6
		c0.1,0,0.3,0,0.5,0c0.2,0,0.3,0,0.4,0c0.1,0,0.3,0,0.4-0.1c0.1,0,0.2-0.1,0.2-0.1c0.1-0.1,0.1-0.1,0.1-0.2
		C-191,360.2-191,360.1-191,360z"/>
	<path class="st11" d="M-188.8,362.6c0,0.1,0,0.2-0.1,0.2c-0.1,0.1-0.1,0.1-0.2,0.1s-0.2,0-0.2-0.1s-0.1-0.1-0.1-0.2v-2.7
		c0-0.1,0-0.2,0-0.3s-0.1-0.2-0.1-0.2c0,0,0-0.1,0-0.1s0-0.1,0-0.1c0-0.1,0-0.2,0.1-0.2c0.1-0.1,0.1-0.1,0.2-0.1
		c0.1,0,0.1,0,0.2,0.1c0.1,0,0.1,0.1,0.1,0.2c0.2-0.1,0.4-0.2,0.6-0.3c0.2-0.1,0.4-0.1,0.5-0.1c0.2,0,0.3,0,0.3,0.1
		c0.1,0.1,0.1,0.1,0.1,0.2c0,0.1,0,0.2-0.1,0.2c-0.1,0.1-0.1,0.1-0.2,0.1c-0.2,0-0.3,0-0.5,0c-0.2,0-0.3,0.1-0.5,0.3
		c0,0,0,0.1,0,0.1c0,0,0,0.1,0,0.1V362.6z"/>
	<path class="st11" d="M-186.1,362.6c0,0.1,0,0.2-0.1,0.2c-0.1,0.1-0.1,0.1-0.2,0.1s-0.2,0-0.2-0.1c-0.1-0.1-0.1-0.1-0.1-0.2v-2.7
		c0-0.1,0-0.2,0-0.3c0-0.1,0-0.1,0-0.1c0,0,0-0.1,0-0.1c0,0,0,0-0.1-0.1c0,0,0,0,0-0.1c0,0,0-0.1,0-0.1c0-0.1,0-0.1,0.1-0.2
		c0.1-0.1,0.1-0.1,0.2-0.1c0.1,0,0.1,0,0.2,0.1c0.1,0,0.1,0.1,0.1,0.2c0.2-0.1,0.4-0.2,0.6-0.3c0.2-0.1,0.4-0.1,0.6-0.1
		c0.4,0,0.7,0.1,1,0.4c0.2,0.3,0.3,0.6,0.3,1.1v2.3c0,0.1,0,0.2-0.1,0.2c-0.1,0.1-0.1,0.1-0.2,0.1c-0.1,0-0.2,0-0.2-0.1
		c-0.1-0.1-0.1-0.1-0.1-0.2v-2.3c0-0.3-0.1-0.5-0.2-0.7c-0.1-0.2-0.3-0.2-0.5-0.2c-0.2,0-0.3,0-0.5,0.1c-0.1,0.1-0.3,0.1-0.4,0.2
		c0,0.1,0,0.2,0,0.2V362.6z"/>
	<path class="st11" d="M-180.7,360.1c0-0.6-0.3-0.9-0.9-0.9c-0.1,0-0.3,0-0.3,0c-0.1,0-0.2,0.1-0.3,0.1c0,0,0,0-0.1,0
		c0,0-0.1,0-0.1,0c-0.1,0-0.1,0-0.2-0.1c0-0.1-0.1-0.1-0.1-0.2c0-0.1,0-0.2,0.1-0.2c0.1-0.1,0.2-0.1,0.3-0.2c0.1,0,0.2-0.1,0.4-0.1
		c0.1,0,0.3,0,0.4,0c0.5,0,0.9,0.1,1.1,0.4s0.3,0.7,0.3,1.2v1.8c0,0.2,0,0.2,0.1,0.2c0,0,0,0,0,0c0,0,0,0,0,0c0.1,0,0.1,0,0.2,0.1
		s0.1,0.1,0.1,0.2c0,0.1,0,0.2-0.1,0.2c-0.1,0-0.2,0.1-0.2,0.1c-0.1,0-0.3,0-0.4-0.1c-0.1-0.1-0.2-0.2-0.2-0.3
		c-0.3,0.3-0.7,0.4-1.1,0.4c-0.4,0-0.7-0.1-0.9-0.3c-0.2-0.2-0.3-0.5-0.3-0.9v0c0-0.8,0.5-1.2,1.4-1.2c0.3,0,0.6,0,0.8,0.1V360.1z
		 M-181.5,361c-0.2,0-0.3,0-0.4,0.1c-0.1,0-0.2,0.1-0.2,0.1c-0.1,0.1-0.1,0.1-0.1,0.2c0,0.1,0,0.2,0,0.3v0c0,0.2,0.1,0.3,0.2,0.5
		c0.1,0.1,0.3,0.2,0.6,0.2c0.2,0,0.3,0,0.5-0.1c0.1-0.1,0.3-0.1,0.4-0.3v-0.9c-0.1,0-0.3-0.1-0.4-0.1
		C-181.2,361-181.3,361-181.5,361z"/>
</g>
</svg>
