<?xml version="1.0" encoding="utf-8"?>
<!-- Generator: Adobe Illustrator 19.0.0, SVG Export Plug-In . SVG Version: 6.00 Build 0)  -->
<svg version="1.1" id="Capa_1" xmlns="http://www.w3.org/2000/svg" xmlns:xlink="http://www.w3.org/1999/xlink" x="0px" y="0px"
	 viewBox="-236 347.3 138 98.7" style="enable-background:new -236 347.3 138 98.7;" xml:space="preserve">
<style type="text/css">
	.st0{fill:none;stroke:#004966;stroke-width:1.3784;stroke-linecap:round;stroke-miterlimit:10;}
	.st1{fill:#0098C8;stroke:#004966;stroke-width:1.3784;stroke-linecap:round;stroke-miterlimit:10;}
	.st2{fill:#C7C5D0;stroke:#004966;stroke-width:1.3784;stroke-linecap:round;stroke-miterlimit:10;}
	.st3{fill:none;stroke:#004966;stroke-width:1.3717;stroke-linecap:round;stroke-miterlimit:10;}
	.st4{fill:#C5DB9E;}
	.st5{fill:none;stroke:#004966;stroke-width:1.3717;stroke-miterlimit:10;}
	.st6{fill:#FFFFFF;}
	.st7{fill:#DFDEE4;}
	.st8{fill:#C7C5D0;stroke:#004966;stroke-width:1.3717;stroke-linecap:round;stroke-miterlimit:10;}
	.st9{fill:#C5DB9E;stroke:#004966;stroke-width:1.3717;stroke-linecap:round;stroke-miterlimit:10;}
	.st10{fill:#0098C8;stroke:#004966;stroke-width:1.3717;stroke-linecap:round;stroke-miterlimit:10;}
	.st11{fill:#DFDEE4;stroke:#004966;stroke-width:0.75;stroke-linecap:round;stroke-miterlimit:10;}
	.st12{fill:#817F97;stroke:#004966;stroke-linecap:round;stroke-miterlimit:10;}
	.st13{fill:#DFDEE4;stroke:#004966;stroke-width:0.25;stroke-linecap:round;stroke-miterlimit:10;}
	.st14{fill:none;stroke:#004966;stroke-width:0.25;stroke-linecap:round;stroke-miterlimit:10;}
	.st15{fill:#FFFFFF;stroke:#004966;stroke-width:0.25;stroke-linecap:round;stroke-miterlimit:10;}
	.st16{fill:none;stroke:#004966;stroke-width:0.5;stroke-linecap:round;stroke-miterlimit:10;}
	.st17{fill:#004966;}
	.st18{fill:#C7C5D0;}
	.st19{fill:#DD2D5C;stroke:#004966;stroke-width:1.3784;stroke-linecap:round;stroke-miterlimit:10;}
	.st20{fill:none;stroke:#004966;stroke-width:1.3784;stroke-miterlimit:10;}
	.st21{fill:none;stroke:#FFFFFF;stroke-width:0.1822;stroke-miterlimit:10;}
	.st22{fill:#FFFFFF;stroke:#004966;stroke-width:0.75;stroke-linecap:round;stroke-miterlimit:10;}
</style>
<g>
	<g>
		<path class="st0" d="M-230.3,436.6c1.6-0.6,40.5-13.2,40.5-13.2l86.2,3.9"/>
		<g>
			<rect x="-206.7" y="370.3" class="st1" width="21.5" height="29.9"/>
			<rect x="-209.7" y="398" class="st2" width="27.4" height="5.4"/>
			<line class="st0" x1="-196" y1="398.8" x2="-196" y2="370.4"/>
		</g>
		<g>
			<g>
				<path class="st3" d="M-157.6,441c0,0,1.1-10.7,0.6-24.2"/>
				<path class="st3" d="M-165.6,441.3c0,0,0.7-10.5,0.6-24.2"/>
				<path class="st3" d="M-166.4,396.5c1.5-0.4-17.9,14.1-2-5.9"/>
				<path class="st3" d="M-157.2,396.5"/>
				<path class="st4" d="M-157.2,395.4c1.3,2.3,3.3,3.2,4.8,9.4c0.6,2.4,0.7,4.6,0,8.3c-0.3,1.3-3.2,3.6-6.5,4.1
					c-1.7,0.3-3.7,0.1-6.5-0.3c-1-0.1-5.1-1-5.4-4c-0.2-2.3-1-4.7,0-8.3c0.8-3,1.8-4.4,5.5-9.8c3.7-5.3,3.4-5.3,3.4-5.3
					S-158.6,393-157.2,395.4"/>
				<path class="st4" d="M-168.3,400c0.6-1.2,1.4-2.3,2-3.5c0.3-0.6,0.7-1.6,1.5-1.8c0.1-0.1,0.3-0.2,0.5-0.2
					c-0.2-0.1-0.4-0.2-0.6-0.3c-0.2-0.1-0.4-0.2-0.6-0.4c1.2,0.3,2.4,0.6,3.5,1.3c-0.1,0-0.3,0-0.4-0.1c0.3,0.3,0.5,0.7,0.5,1.2
					c0,1.3-0.7,2.4-1.4,3.5c-1.2,1.8-2,3.3-2.3,5.4c-0.2,1.8,0,3.8,0.4,5.6c0.3,1.4,1.7,2.3,2,3.7c0.3,1.4-1,1.5-2.1,1.2
					c-0.3,0.1-0.6,0-0.8-0.2c-0.3-0.1-0.6-0.2-0.8-0.3c-2.3-1.1-3.1-3.1-3.3-5.5C-170.6,406.3-169.8,403-168.3,400"/>
				<path class="st5" d="M-157,395.4c1.3,2.3,3.3,3.2,4.8,9.4c0.6,2.4,0.7,4.6,0,8.3c-0.3,1.3-3.2,3.6-6.5,4.1
					c-1.7,0.3-3.7,0.1-6.5-0.3c-1-0.1-5.1-1-5.4-4c-0.2-2.3-1-4.7,0-8.3c0.8-3,1.8-4.4,5.5-9.8c3.7-5.3,3.4-5.3,3.4-5.3
					S-158.3,393-157,395.4z"/>
				<path class="st6" d="M-168.8,386.9c0,4.2,3.4,7.6,7.6,7.6c4.2,0,7.6-3.4,7.6-7.6s-3.4-7.6-7.6-7.6
					C-165.4,379.3-168.8,382.8-168.8,386.9"/>
				<path class="st7" d="M-162.1,394.4c-0.7-0.2-1.4-0.5-2.1-0.8h0.1c-0.2-0.1-0.4-0.2-0.6-0.3c-2.2-1.2-4.6-4-3.4-6.5
					c1.3-2.7,3.9,1.1,4.7,2c0.9,1.1,2.3,1.7,3.7,1.8c0.3-0.2,0.6-0.1,0.8,0c1.6-0.1,3.1-0.9,3.8-2.4c0.3-0.7,1.2-0.3,1.3,0.3
					c0.6-0.3,1.3,0.3,0.9,0.9c-0.2,0.2-0.3,0.5-0.5,0.7c-0.1,0.6-0.6,1.2-1.1,1.6c-0.2,0.1-0.3,0.2-0.5,0.2c0,0.1-0.1,0.3-0.2,0.4
					c-2.1,1.6-4.6,2.3-7,1.8C-162.2,394.3-162.1,394.3-162.1,394.4"/>
				<circle class="st5" cx="-160.9" cy="386.9" r="7.6"/>
				<path class="st3" d="M-157.6,380c0,0-6.6,0.7-9-4.2"/>
				<path class="st3" d="M-159.4,380.1c0,0-6.2,2.4-9.8-1.8"/>
				<path class="st3" d="M-160.7,380.5c0,0-5.6,3.6-9.9,0.2"/>
				<path class="st3" d="M-157.5,395.4c0,0-1.1,2-3.6,2s-3.2-2-3.2-2"/>
			</g>
			<polyline class="st8" points="-203.2,420.8 -203.2,437.6 -157.6,444.3 -143.7,435.8 -143.9,419.3 			"/>
			<polygon class="st8" points="-208.3,420.1 -208.3,415.6 -184.7,410.1 -141.7,411.6 -142.6,418.4 -158.6,424.8 			"/>
			<polyline class="st3" points="-208,415.8 -159.7,420.3 -141.8,412 			"/>
			<path class="st9" d="M-165.6,393.8l-0.4,1.9l0.6,2.6l3.1-1.8l3.7,2.4l2.3-3l-0.9-1.8c0,0-3.4,0.9-5.2,0.6
				C-164.1,394.4-165.6,393.8-165.6,393.8z"/>
			<path class="st10" d="M-162.3,396.5c0,0-1,2-1.6,6.9s-0.4,7.5-0.4,7.5"/>
			<path class="st11" d="M-189.6,407.8v0.2l0.1,5.6c0,0,0.9,1.2,2.3,0.9c1.4-0.3,2.1-0.8,2.1-0.8l-0.1-5.4
				C-185.2,408.3-189.5,407.8-189.6,407.8z"/>
			<g>
				<path class="st12" d="M-197.3,393.9c-0.1,0.2-0.4,13.4-0.4,13.4l18.7,1.8l1.6-0.9l-0.3-15.1L-197.3,393.9z"/>
				<path class="st13" d="M-179.4,408.8l-0.4-13.7c0,0-17.1,0.1-17.4,0.1l-0.1,11.8L-179.4,408.8z"/>
				<g>
					<line class="st14" x1="-191.9" y1="399.3" x2="-185.6" y2="399.5"/>
					<line class="st14" x1="-192.1" y1="400.6" x2="-185.8" y2="400.8"/>
					<line class="st14" x1="-192.1" y1="401.6" x2="-185.8" y2="401.8"/>
					<line class="st14" x1="-192" y1="402.8" x2="-185.7" y2="402.9"/>
				</g>
			</g>
			<path class="st13" d="M-183.3,412.6c0.2,0,5.6-1.8,5.6-1.8l15.3,0.6l-3.6,2.3L-183.3,412.6z"/>
			<line class="st14" x1="-177.7" y1="411.3" x2="-164.9" y2="411.9"/>
			<line class="st14" x1="-179" y1="411.8" x2="-165.4" y2="412.5"/>
			<line class="st14" x1="-180.4" y1="412.3" x2="-166.5" y2="413.3"/>
			<path class="st3" d="M-156.3,396.4c-1.5-0.4,1.2,12.2-15.9,15.7"/>
			<path class="st15" d="M-170.4,416.3c0,0,10.1-4.4,10.3-4.4c0.2,0.1,10.5,0.4,10.5,0.4l-9.7,4.7L-170.4,416.3z"/>
			<path class="st15" d="M-170.4,415.6c0,0,10.1-4.4,10.3-4.4c0.2,0.1,10.5,0.4,10.5,0.4l-9.7,4.7L-170.4,415.6z"/>
			<path class="st15" d="M-170.4,414.8c0,0,10.1-4.4,10.3-4.4c0.2,0.1,10.5,0.4,10.5,0.4l-9.7,4.7L-170.4,414.8z"/>
			<path class="st15" d="M-170.3,413.8c0,0,10.1-4.4,10.3-4.4c0.2,0.1,10.5,0.4,10.5,0.4l-9.7,4.7L-170.3,413.8z"/>
			<path class="st16" d="M-164.7,390.8c0,0,3.2,0.1,2.9,0.6s-2.4,0-2.4,0"/>
			<ellipse class="st17" cx="-165.8" cy="387.3" rx="0.8" ry="0.7"/>
			<ellipse class="st17" cx="-161.7" cy="387.5" rx="0.8" ry="0.7"/>
			<line class="st3" x1="-158.1" y1="442.3" x2="-158.1" y2="425"/>
		</g>
		<g>
			<ellipse class="st18" cx="-129.6" cy="439.1" rx="12.1" ry="2.7"/>
			<g>
				<path class="st0" d="M-125.3,438.5c0,0-4-11.7,0.6-24.3"/>
				<path class="st0" d="M-133.2,438.8c0,0,0.8-10.7,0.6-24.3"/>
				<path class="st19" d="M-125.7,391.8c0,0,3.9,0.5,4,3.3c0.1,2.7-2.1,7-1.4,9.5c0.7,2.4,3.6,6.3,1.6,8.7c-2,2.4-7.2,4.3-11.3,3
					c-4.1-1.4-5.1-6-4-8.4c1-2.4,3.6-4.9,3-6.7c-0.6-1.8-1.7-6.8-0.2-8.4C-132.6,391-125.7,391.8-125.7,391.8z"/>
				<g>
					<path class="st6" d="M-136.5,384.1c0,4.2,3.4,7.7,7.7,7.7c4.2,0,7.7-3.4,7.7-7.7c0-4.2-3.4-7.7-7.7-7.7
						C-133.1,376.5-136.5,379.9-136.5,384.1"/>
					<path class="st7" d="M-129.8,391.8c-0.7-0.2-1.5-0.5-2.2-0.8h0.1c-0.2-0.1-0.4-0.2-0.6-0.3c-2.2-1.2-4.7-4-3.5-6.5
						c1.3-2.7,3.9,1.1,4.8,2.1c0.9,1.1,2.3,1.7,3.7,1.8c0.3-0.2,0.6-0.1,0.8,0c1.6-0.1,3.1-0.9,3.8-2.4c0.3-0.7,1.2-0.3,1.3,0.3
						c0.6-0.3,1.3,0.4,0.9,0.9c-0.2,0.2-0.3,0.5-0.5,0.7c-0.1,0.6-0.6,1.2-1.1,1.6c-0.2,0.1-0.3,0.2-0.5,0.2c0,0.1-0.1,0.3-0.2,0.4
						c-2.1,1.6-4.6,2.3-7.1,1.9C-129.9,391.6-129.8,391.6-129.8,391.8"/>
					<circle class="st20" cx="-128.5" cy="384.1" r="7.7"/>
					<path class="st6" d="M-126.9,392.8c0,0.3,0.3,0.6,0.6,0.6c0.3,0,0.6-0.3,0.6-0.6c0-0.3-0.3-0.6-0.6-0.6
						C-126.6,392-126.9,392.3-126.9,392.8"/>
					<path class="st6" d="M-127.6,394.8c0,0.3,0.3,0.6,0.6,0.6c0.3,0,0.6-0.3,0.6-0.6c0-0.3-0.3-0.6-0.6-0.6
						C-127.3,394.1-127.6,394.4-127.6,394.8"/>
					<path class="st6" d="M-128.9,396.3c0,0.3,0.3,0.6,0.6,0.6c0.4,0,0.6-0.3,0.6-0.6c0-0.3-0.3-0.6-0.6-0.6
						C-128.6,395.8-128.9,395.9-128.9,396.3"/>
					<path class="st6" d="M-130.9,396.3c0,0.3,0.3,0.6,0.6,0.6s0.6-0.3,0.6-0.6c0-0.3-0.3-0.6-0.6-0.6
						C-130.7,395.8-130.9,395.9-130.9,396.3"/>
					<path class="st6" d="M-132.3,394.8c0,0.3,0.3,0.6,0.6,0.6c0.4,0,0.6-0.3,0.6-0.6c0-0.3-0.3-0.6-0.6-0.6
						S-132.3,394.4-132.3,394.8"/>
					<path class="st6" d="M-133.2,392.5c0,0.3,0.3,0.6,0.6,0.6s0.6-0.3,0.6-0.6c0-0.3-0.3-0.6-0.6-0.6
						C-132.9,391.8-133.2,392.1-133.2,392.5"/>
					<path class="st21" d="M-126.3,392.5c0,0-0.3,3.3-2,3.8s-3-0.1-4.3-3.6"/>
					<path class="st0" d="M-122.2,392.8c-1.5-0.4,17.2,19.1-9.6,5.6"/>
					<path class="st0" d="M-134.7,392.8c1.5-0.4-18.7,13,10.2,6.7"/>
				</g>
			</g>
			<circle class="st17" cx="-132.4" cy="383.5" r="0.8"/>
			<circle class="st17" cx="-128.2" cy="383.5" r="0.8"/>
			<path class="st16" d="M-131.1,387.8c0,0,1,0.8,1.9,0.6c1-0.2,1.4-0.7,1.4-0.7"/>
			<path class="st17" d="M-126.4,376.4c-0.2-0.7,0.4-1.6,0.9-2c0.8-0.5,1.6-0.7,2.6-0.4c0.5-2.1,4.1-2.3,5.7-1.9s2.6,1.5,3.2,3
				c0.4,1.1,0.5,2.3-0.3,3.3c-0.6,0.7-1.1,1.2-1.5,2c-0.4,0.9-0.4,1.9,0,2.8c0.3,0.6,0.9,0.8,1.6,0.9c-1.1,0.1-2-0.7-2.9-1.3
				c-0.6-0.4-1.1-0.6-1.6-1.2c-0.3-0.3-0.3-0.8-0.5-1.1c-0.4,1.2,0.7,1.7,1.2,2.6c-0.8-0.3-1.8-1.5-2.3-2.2
				c-0.4-0.6-0.6-1.3-0.4-2.1c0,0.9-0.3,1.3-1.2,1.2c-1-0.1-2-0.4-2.5-1.3c-0.6-1-1-2.2-2.4-2.1"/>
			<path class="st0" d="M-135.9,375.9c0,0,2.1,1.4,5,1.8c3,0.4,5.1-0.7,5.1-0.7"/>
			<path class="st0" d="M-137.3,377.8c0,0,2.7,1.6,5.8,1.1c3.1-0.4,5-1.7,5-1.7"/>
		</g>
	</g>
	<path class="st22" d="M-225.8,425.9c0,0-1.8,9.3-0.6,11.3c1.1,2,49.5,0.9,51.2,0.7c1.6-0.3,2.6-7.9,1-13.6
		c-1.6-5.7-49.7-0.4-49.7-0.4"/>
	<g>
		<path class="st17" d="M-223,431.2v1.8c0,0.1,0,0.2-0.1,0.2c-0.1,0.1-0.1,0.1-0.2,0.1c-0.1,0-0.2,0-0.2-0.1s-0.1-0.1-0.1-0.2v-5
			c0-0.1,0-0.2,0.1-0.3c0.1-0.1,0.2-0.1,0.3-0.1h1.2c0.3,0,0.6,0,0.8,0.1c0.2,0.1,0.4,0.2,0.6,0.4c0.1,0.2,0.2,0.4,0.3,0.6
			c0.1,0.2,0.1,0.4,0.1,0.7c0,0.6-0.2,1-0.5,1.3c-0.3,0.3-0.8,0.5-1.3,0.5H-223z M-223,430.6h0.9c0.4,0,0.7-0.1,0.9-0.3
			s0.3-0.5,0.3-0.9c0-0.1,0-0.3,0-0.4c0-0.1-0.1-0.3-0.2-0.4c-0.1-0.1-0.2-0.2-0.4-0.3c-0.2-0.1-0.3-0.1-0.6-0.1h-0.9V430.6z"/>
		<path class="st17" d="M-218.8,433c0,0.1,0,0.2-0.1,0.2c-0.1,0.1-0.1,0.1-0.2,0.1s-0.2,0-0.2-0.1s-0.1-0.1-0.1-0.2v-2.7
			c0-0.1,0-0.2,0-0.3c0-0.1-0.1-0.2-0.1-0.2c0,0,0-0.1,0-0.1s0-0.1,0-0.1c0-0.1,0-0.2,0.1-0.2c0.1-0.1,0.1-0.1,0.2-0.1
			c0.1,0,0.1,0,0.2,0.1c0.1,0,0.1,0.1,0.1,0.2c0.2-0.1,0.4-0.2,0.6-0.3c0.2-0.1,0.4-0.1,0.5-0.1c0.2,0,0.3,0,0.3,0.1
			c0.1,0.1,0.1,0.1,0.1,0.2c0,0.1,0,0.2-0.1,0.2c-0.1,0.1-0.1,0.1-0.2,0.1c-0.2,0-0.3,0-0.5,0s-0.3,0.1-0.5,0.3c0,0,0,0.1,0,0.1
			c0,0,0,0.1,0,0.1V433z"/>
		<path class="st17" d="M-215.5,432.8c0.2,0,0.3,0,0.4-0.1s0.3-0.1,0.4-0.2c0,0,0,0,0,0c0,0,0,0,0.1,0c0.1,0,0.1,0,0.2,0.1
			c0.1,0.1,0.1,0.1,0.1,0.2c0,0.1,0,0.2-0.1,0.2c-0.1,0.1-0.2,0.1-0.3,0.2c-0.1,0-0.3,0.1-0.4,0.1s-0.3,0-0.4,0
			c-0.2,0-0.4,0-0.6-0.1c-0.2-0.1-0.3-0.2-0.4-0.3c-0.1-0.1-0.2-0.3-0.3-0.4c-0.1-0.2-0.1-0.3-0.1-0.5v-1.5c0-0.2,0-0.4,0.1-0.5
			c0.1-0.2,0.2-0.3,0.3-0.4c0.1-0.1,0.3-0.2,0.5-0.3c0.2-0.1,0.4-0.1,0.6-0.1c0.4,0,0.8,0.1,1,0.4s0.3,0.6,0.3,1
			c0,0.4-0.1,0.7-0.3,0.9c-0.2,0.2-0.6,0.3-1,0.3c-0.1,0-0.3,0-0.4,0c-0.1,0-0.3,0-0.4-0.1v0.5c0,0.2,0.1,0.4,0.2,0.5
			C-216,432.7-215.8,432.8-215.5,432.8z M-214.8,430.5c0-0.3-0.1-0.4-0.2-0.6c-0.1-0.1-0.3-0.2-0.5-0.2c-0.3,0-0.5,0.1-0.6,0.2
			c-0.1,0.1-0.2,0.3-0.2,0.5v0.6c0.1,0,0.3,0,0.5,0c0.2,0,0.3,0,0.4,0c0.1,0,0.3,0,0.4-0.1c0.1,0,0.2-0.1,0.2-0.1
			c0.1-0.1,0.1-0.1,0.1-0.2C-214.8,430.6-214.8,430.5-214.8,430.5z"/>
		<path class="st17" d="M-213.5,430.3c0-0.3,0.1-0.6,0.3-0.8s0.5-0.3,1-0.3c0.1,0,0.2,0,0.3,0c0.1,0,0.2,0,0.3,0.1
			c0.1,0,0.2,0.1,0.3,0.1c0.1,0.1,0.1,0.1,0.1,0.2c0,0.1,0,0.1-0.1,0.2c-0.1,0.1-0.1,0.1-0.2,0.1c0,0-0.1,0-0.1,0
			c-0.1,0-0.2-0.1-0.3-0.1s-0.2,0-0.3,0c-0.5,0-0.7,0.2-0.7,0.6c0,0.1,0,0.2,0.1,0.3c0.1,0.1,0.2,0.1,0.3,0.2s0.3,0.1,0.5,0.2
			s0.3,0.1,0.5,0.2c0.2,0.1,0.3,0.2,0.4,0.4c0.1,0.1,0.2,0.4,0.2,0.6c0,0.4-0.1,0.6-0.3,0.9c-0.2,0.2-0.6,0.3-1,0.3
			c-0.1,0-0.2,0-0.4,0c-0.1,0-0.3,0-0.4-0.1c-0.1,0-0.2-0.1-0.3-0.1s-0.1-0.1-0.1-0.2c0-0.1,0-0.1,0.1-0.2s0.1-0.1,0.2-0.1
			c0,0,0,0,0.1,0c0,0,0,0,0,0c0.1,0,0.2,0.1,0.4,0.1s0.3,0.1,0.4,0.1c0.2,0,0.4,0,0.5-0.1c0.1-0.1,0.2-0.2,0.2-0.5
			c0-0.1,0-0.3-0.1-0.3c-0.1-0.1-0.1-0.1-0.2-0.2c-0.1-0.1-0.3-0.1-0.5-0.2s-0.3-0.1-0.5-0.2c-0.2-0.1-0.3-0.2-0.4-0.4
			S-213.5,430.6-213.5,430.3z"/>
		<path class="st17" d="M-209.4,427.9c0,0.1,0,0.2-0.1,0.3c-0.1,0.1-0.2,0.1-0.3,0.1c-0.1,0-0.2,0-0.3-0.1c-0.1-0.1-0.1-0.2-0.1-0.3
			s0-0.2,0.1-0.3c0.1-0.1,0.2-0.1,0.3-0.1c0.1,0,0.2,0,0.3,0.1C-209.4,427.7-209.4,427.8-209.4,427.9z M-209.5,433
			c0,0.1,0,0.2-0.1,0.2s-0.1,0.1-0.2,0.1s-0.2,0-0.2-0.1s-0.1-0.1-0.1-0.2v-3.5c0-0.1,0-0.2,0.1-0.2c0.1-0.1,0.1-0.1,0.2-0.1
			s0.2,0,0.2,0.1c0.1,0.1,0.1,0.1,0.1,0.2V433z"/>
		<path class="st17" d="M-206.9,433.3c-0.2,0-0.5,0-0.6-0.1s-0.3-0.2-0.5-0.3c-0.1-0.1-0.2-0.3-0.3-0.5c-0.1-0.2-0.1-0.4-0.1-0.6
			v-1.3c0-0.2,0-0.4,0.1-0.6c0.1-0.2,0.2-0.3,0.3-0.5c0.1-0.1,0.3-0.2,0.5-0.3c0.2-0.1,0.4-0.1,0.6-0.1c0.2,0,0.5,0,0.6,0.1
			c0.2,0.1,0.3,0.2,0.5,0.3c0.1,0.1,0.2,0.3,0.3,0.5c0.1,0.2,0.1,0.4,0.1,0.6v1.3c0,0.2,0,0.4-0.1,0.6c-0.1,0.2-0.2,0.3-0.3,0.5
			c-0.1,0.1-0.3,0.2-0.5,0.3S-206.7,433.3-206.9,433.3z M-206.9,432.7c0.3,0,0.5-0.1,0.7-0.2s0.2-0.4,0.2-0.6v-1.3
			c0-0.3-0.1-0.5-0.2-0.6s-0.4-0.2-0.7-0.2c-0.3,0-0.5,0.1-0.7,0.2s-0.2,0.4-0.2,0.6v1.3c0,0.3,0.1,0.5,0.2,0.6
			S-207.2,432.7-206.9,432.7z M-206.9,427.6c0.1-0.1,0.1-0.1,0.1-0.1c0,0,0.1-0.1,0.2-0.1c0.1,0,0.1,0,0.2,0.1s0.1,0.1,0.1,0.2
			c0,0,0,0,0,0.1c0,0,0,0,0,0.1l-0.6,0.7c0,0-0.1,0.1-0.1,0.1c0,0-0.1,0-0.1,0c-0.1,0-0.1,0-0.2-0.1s-0.1-0.1-0.1-0.2
			c0,0,0-0.1,0-0.1L-206.9,427.6z"/>
		<path class="st17" d="M-203.8,433c0,0.1,0,0.2-0.1,0.2c-0.1,0.1-0.1,0.1-0.2,0.1s-0.2,0-0.2-0.1c-0.1-0.1-0.1-0.1-0.1-0.2v-2.7
			c0-0.1,0-0.2,0-0.3c0-0.1,0-0.1,0-0.1c0,0,0-0.1,0-0.1c0,0,0,0-0.1-0.1c0,0,0,0,0-0.1c0,0,0-0.1,0-0.1c0-0.1,0-0.1,0.1-0.2
			s0.1-0.1,0.2-0.1c0.1,0,0.1,0,0.2,0.1c0.1,0,0.1,0.1,0.1,0.2c0.2-0.1,0.4-0.2,0.6-0.3c0.2-0.1,0.4-0.1,0.6-0.1
			c0.4,0,0.7,0.1,1,0.4c0.2,0.3,0.3,0.6,0.3,1.1v2.3c0,0.1,0,0.2-0.1,0.2c-0.1,0.1-0.1,0.1-0.2,0.1c-0.1,0-0.2,0-0.2-0.1
			c-0.1-0.1-0.1-0.1-0.1-0.2v-2.3c0-0.3-0.1-0.5-0.2-0.7c-0.1-0.2-0.3-0.2-0.5-0.2c-0.2,0-0.3,0-0.5,0.1c-0.1,0.1-0.3,0.1-0.4,0.2
			c0,0.1,0,0.2,0,0.2V433z"/>
		<path class="st17" d="M-197.3,427.9c0,0.1,0,0.2-0.1,0.3c-0.1,0.1-0.2,0.1-0.3,0.1c-0.1,0-0.2,0-0.3-0.1c-0.1-0.1-0.1-0.2-0.1-0.3
			s0-0.2,0.1-0.3c0.1-0.1,0.2-0.1,0.3-0.1c0.1,0,0.2,0,0.3,0.1C-197.3,427.7-197.3,427.8-197.3,427.9z M-197.3,433
			c0,0.1,0,0.2-0.1,0.2s-0.1,0.1-0.2,0.1s-0.2,0-0.2-0.1s-0.1-0.1-0.1-0.2v-3.5c0-0.1,0-0.2,0.1-0.2c0.1-0.1,0.1-0.1,0.2-0.1
			s0.2,0,0.2,0.1c0.1,0.1,0.1,0.1,0.1,0.2V433z"/>
		<path class="st17" d="M-195.4,433c0,0.1,0,0.2-0.1,0.2c-0.1,0.1-0.1,0.1-0.2,0.1s-0.2,0-0.2-0.1c-0.1-0.1-0.1-0.1-0.1-0.2v-2.7
			c0-0.1,0-0.2,0-0.3c0-0.1,0-0.1,0-0.1c0,0,0-0.1,0-0.1c0,0,0,0-0.1-0.1c0,0,0,0,0-0.1c0,0,0-0.1,0-0.1c0-0.1,0-0.1,0.1-0.2
			s0.1-0.1,0.2-0.1c0.1,0,0.1,0,0.2,0.1c0.1,0,0.1,0.1,0.1,0.2c0.2-0.1,0.4-0.2,0.6-0.3c0.2-0.1,0.4-0.1,0.6-0.1
			c0.4,0,0.7,0.1,1,0.4c0.2,0.3,0.3,0.6,0.3,1.1v2.3c0,0.1,0,0.2-0.1,0.2c-0.1,0.1-0.1,0.1-0.2,0.1c-0.1,0-0.2,0-0.2-0.1
			c-0.1-0.1-0.1-0.1-0.1-0.2v-2.3c0-0.3-0.1-0.5-0.2-0.7c-0.1-0.2-0.3-0.2-0.5-0.2c-0.2,0-0.3,0-0.5,0.1c-0.1,0.1-0.3,0.1-0.4,0.2
			c0,0.1,0,0.2,0,0.2V433z"/>
		<path class="st17" d="M-192,428.3c0-0.1,0-0.2,0.1-0.2s0.1-0.1,0.2-0.1c0.1,0,0.2,0,0.2,0.1c0.1,0.1,0.1,0.1,0.1,0.2v1.1h0.8
			c0.1,0,0.1,0,0.2,0.1c0.1,0.1,0.1,0.1,0.1,0.2c0,0.1,0,0.2-0.1,0.2c-0.1,0.1-0.1,0.1-0.2,0.1h-0.8v1.6c0,0.2,0,0.4,0,0.5
			c0,0.1,0,0.3,0.1,0.3s0.1,0.2,0.2,0.2c0.1,0,0.2,0.1,0.3,0.1c0,0,0.1,0,0.1,0c0,0,0,0,0.1,0c0,0,0.1,0,0.1,0c0,0,0.1,0,0.1,0
			s0.1,0.1,0.1,0.1c0,0,0,0.1,0,0.2c0,0.1,0,0.1,0,0.2c0,0-0.1,0.1-0.1,0.1s-0.1,0-0.1,0c-0.1,0-0.1,0-0.2,0c-0.3,0-0.5,0-0.7-0.1
			s-0.3-0.2-0.4-0.3c-0.1-0.1-0.2-0.3-0.2-0.5c0-0.2-0.1-0.4-0.1-0.7V428.3z"/>
		<path class="st17" d="M-188.2,432.8c0.2,0,0.3,0,0.4-0.1s0.3-0.1,0.4-0.2c0,0,0,0,0,0c0,0,0,0,0.1,0c0.1,0,0.1,0,0.2,0.1
			c0.1,0.1,0.1,0.1,0.1,0.2c0,0.1,0,0.2-0.1,0.2c-0.1,0.1-0.2,0.1-0.3,0.2c-0.1,0-0.3,0.1-0.4,0.1s-0.3,0-0.4,0
			c-0.2,0-0.4,0-0.6-0.1c-0.2-0.1-0.3-0.2-0.4-0.3c-0.1-0.1-0.2-0.3-0.3-0.4c-0.1-0.2-0.1-0.3-0.1-0.5v-1.5c0-0.2,0-0.4,0.1-0.5
			c0.1-0.2,0.2-0.3,0.3-0.4c0.1-0.1,0.3-0.2,0.5-0.3c0.2-0.1,0.4-0.1,0.6-0.1c0.4,0,0.8,0.1,1,0.4s0.3,0.6,0.3,1
			c0,0.4-0.1,0.7-0.3,0.9c-0.2,0.2-0.6,0.3-1,0.3c-0.1,0-0.3,0-0.4,0c-0.1,0-0.3,0-0.4-0.1v0.5c0,0.2,0.1,0.4,0.2,0.5
			C-188.7,432.7-188.5,432.8-188.2,432.8z M-187.5,430.5c0-0.3-0.1-0.4-0.2-0.6c-0.1-0.1-0.3-0.2-0.5-0.2c-0.3,0-0.5,0.1-0.6,0.2
			c-0.1,0.1-0.2,0.3-0.2,0.5v0.6c0.1,0,0.3,0,0.5,0c0.2,0,0.3,0,0.4,0c0.1,0,0.3,0,0.4-0.1c0.1,0,0.2-0.1,0.2-0.1
			c0.1-0.1,0.1-0.1,0.1-0.2C-187.5,430.6-187.5,430.5-187.5,430.5z"/>
		<path class="st17" d="M-185.3,433c0,0.1,0,0.2-0.1,0.2c-0.1,0.1-0.1,0.1-0.2,0.1s-0.2,0-0.2-0.1s-0.1-0.1-0.1-0.2v-2.7
			c0-0.1,0-0.2,0-0.3c0-0.1-0.1-0.2-0.1-0.2c0,0,0-0.1,0-0.1s0-0.1,0-0.1c0-0.1,0-0.2,0.1-0.2c0.1-0.1,0.1-0.1,0.2-0.1
			c0.1,0,0.1,0,0.2,0.1c0.1,0,0.1,0.1,0.1,0.2c0.2-0.1,0.4-0.2,0.6-0.3c0.2-0.1,0.4-0.1,0.5-0.1c0.2,0,0.3,0,0.3,0.1
			c0.1,0.1,0.1,0.1,0.1,0.2c0,0.1,0,0.2-0.1,0.2c-0.1,0.1-0.1,0.1-0.2,0.1c-0.2,0-0.3,0-0.5,0s-0.3,0.1-0.5,0.3c0,0,0,0.1,0,0.1
			c0,0,0,0.1,0,0.1V433z"/>
		<path class="st17" d="M-182.5,433c0,0.1,0,0.2-0.1,0.2c-0.1,0.1-0.1,0.1-0.2,0.1s-0.2,0-0.2-0.1c-0.1-0.1-0.1-0.1-0.1-0.2v-2.7
			c0-0.1,0-0.2,0-0.3c0-0.1,0-0.1,0-0.1c0,0,0-0.1,0-0.1c0,0,0,0-0.1-0.1c0,0,0,0,0-0.1c0,0,0-0.1,0-0.1c0-0.1,0-0.1,0.1-0.2
			s0.1-0.1,0.2-0.1c0.1,0,0.1,0,0.2,0.1c0.1,0,0.1,0.1,0.1,0.2c0.2-0.1,0.4-0.2,0.6-0.3c0.2-0.1,0.4-0.1,0.6-0.1
			c0.4,0,0.7,0.1,1,0.4c0.2,0.3,0.3,0.6,0.3,1.1v2.3c0,0.1,0,0.2-0.1,0.2c-0.1,0.1-0.1,0.1-0.2,0.1c-0.1,0-0.2,0-0.2-0.1
			c-0.1-0.1-0.1-0.1-0.1-0.2v-2.3c0-0.3-0.1-0.5-0.2-0.7c-0.1-0.2-0.3-0.2-0.5-0.2c-0.2,0-0.3,0-0.5,0.1c-0.1,0.1-0.3,0.1-0.4,0.2
			c0,0.1,0,0.2,0,0.2V433z"/>
		<path class="st17" d="M-177.1,430.6c0-0.6-0.3-0.9-0.9-0.9c-0.1,0-0.3,0-0.3,0s-0.2,0.1-0.3,0.1c0,0,0,0-0.1,0c0,0-0.1,0-0.1,0
			c-0.1,0-0.1,0-0.2-0.1c0-0.1-0.1-0.1-0.1-0.2c0-0.1,0-0.2,0.1-0.2c0.1-0.1,0.2-0.1,0.3-0.2c0.1,0,0.2-0.1,0.4-0.1
			c0.1,0,0.3,0,0.4,0c0.5,0,0.9,0.1,1.1,0.4c0.2,0.3,0.3,0.7,0.3,1.2v1.8c0,0.2,0,0.2,0.1,0.2c0,0,0,0,0,0c0,0,0,0,0,0
			c0.1,0,0.1,0,0.2,0.1c0,0.1,0.1,0.1,0.1,0.2c0,0.1,0,0.2-0.1,0.2c-0.1,0-0.2,0.1-0.2,0.1c-0.1,0-0.3,0-0.4-0.1
			c-0.1-0.1-0.2-0.2-0.2-0.3c-0.3,0.3-0.7,0.4-1.1,0.4c-0.4,0-0.7-0.1-0.9-0.3s-0.3-0.5-0.3-0.9v0c0-0.8,0.5-1.2,1.4-1.2
			c0.3,0,0.6,0,0.8,0.1V430.6z M-177.9,431.4c-0.2,0-0.3,0-0.4,0.1c-0.1,0-0.2,0.1-0.2,0.1s-0.1,0.1-0.1,0.2s0,0.2,0,0.3v0
			c0,0.2,0.1,0.3,0.2,0.5s0.3,0.2,0.6,0.2c0.2,0,0.3,0,0.5-0.1c0.1-0.1,0.3-0.1,0.4-0.3v-0.9c-0.1,0-0.3-0.1-0.4-0.1
			C-177.7,431.4-177.8,431.4-177.9,431.4z"/>
	</g>
</g>
</svg>
