<?xml version="1.0" encoding="utf-8"?>
<!-- Generator: Adobe Illustrator 19.0.0, SVG Export Plug-In . SVG Version: 6.00 Build 0)  -->
<svg version="1.1" id="Capa_1" xmlns="http://www.w3.org/2000/svg" xmlns:xlink="http://www.w3.org/1999/xlink" x="0px" y="0px"
	 viewBox="-236 347.3 138 98.7" style="enable-background:new -236 347.3 138 98.7;" xml:space="preserve">
<style type="text/css">
	.st0{fill:#EA7E25;stroke:#004966;stroke-width:0.6053;stroke-linecap:round;stroke-linejoin:round;stroke-miterlimit:10;}
	.st1{fill:#CC6723;stroke:#004966;stroke-width:0.4781;stroke-linecap:round;stroke-linejoin:round;stroke-miterlimit:10;}
	.st2{fill:#0098C8;stroke:#004966;stroke-width:1.0826;stroke-linecap:round;stroke-linejoin:round;stroke-miterlimit:10;}
	.st3{fill:#E1DFE6;stroke:#004966;stroke-width:1.0612;stroke-linecap:round;stroke-linejoin:round;stroke-miterlimit:10;}
	.st4{fill:#64AC28;stroke:#004966;stroke-width:1.0612;stroke-linecap:round;stroke-linejoin:round;stroke-miterlimit:10;}
	.st5{fill:#C7C5D0;stroke:#004966;stroke-width:0.5183;stroke-linecap:round;stroke-linejoin:round;stroke-miterlimit:10;}
	.st6{fill:#DFDEE4;stroke:#004966;stroke-width:0.5183;stroke-linecap:round;stroke-linejoin:round;stroke-miterlimit:10;}
	.st7{fill:#64AC28;stroke:#004966;stroke-width:0.5183;stroke-linecap:round;stroke-linejoin:round;stroke-miterlimit:10;}
	.st8{fill:#DD2D5C;stroke:#004966;stroke-width:1.2037;stroke-linecap:round;stroke-linejoin:round;stroke-miterlimit:10;}
	.st9{fill:#F6F6F7;}
	.st10{fill:#DFDEE4;}
	.st11{fill:#004966;}
	.st12{fill:none;stroke:#004966;stroke-width:1.2037;stroke-linecap:round;stroke-linejoin:round;stroke-miterlimit:10;}
	.st13{fill:none;stroke:#004966;stroke-width:0.6019;stroke-linecap:round;stroke-linejoin:round;stroke-miterlimit:10;}
	.st14{fill:#0098C8;}
	.st15{fill:#FFFFFF;}
	.st16{fill:none;stroke:#004966;stroke-width:0.5947;stroke-linecap:round;stroke-linejoin:round;stroke-miterlimit:10;}
	.st17{fill:#C7C5D0;}
	.st18{fill:none;stroke:#004966;stroke-width:1.2607;stroke-linecap:round;stroke-linejoin:round;stroke-miterlimit:10;}
	.st19{fill:#FFE000;}
	.st20{fill:none;stroke:#004966;stroke-width:0.1666;stroke-linecap:round;stroke-linejoin:round;stroke-miterlimit:10;}
	.st21{fill:none;stroke:#004966;stroke-width:0.4012;stroke-linecap:round;stroke-linejoin:round;stroke-miterlimit:10;}
	.st22{fill:#FFFFFF;stroke:#004966;stroke-width:0.75;stroke-linecap:round;stroke-miterlimit:10;}
	.st23{fill:none;}
	.st24{enable-background:new    ;}
</style>
<g>
	<ellipse class="st0" cx="-165.6" cy="432.6" rx="59.6" ry="12.6"/>
	<ellipse class="st1" cx="-166.8" cy="432" rx="47" ry="10"/>
	<g>
		<rect x="-202.9" y="348.9" class="st2" width="50.3" height="26.3"/>
		
			<rect x="-180.5" y="349.3" transform="matrix(1 -1.557133e-003 1.557133e-003 1 -0.5642 -0.2764)" class="st3" width="5.4" height="25.7"/>
		<g>
			<path class="st4" d="M-186.6,349.1c-0.4,0-1,9.9-4.1,13.1c-3.2,3.3-12,5.1-12,5.1s0.2-18.5,0-18.5
				C-202.9,348.9-186.2,349.1-186.6,349.1z"/>
			<path class="st4" d="M-202.8,367.4c0,0-4.6,13.3-3.2,12.8c1.5-0.5,3.6-1.1,3.6-1.1s3.6,7.2,4.4,6c0.9-1.2,0.8-3.6,0.5-3.7
				s3.1,3.6,3.1,1.7c0-2-0.8-3.3-0.8-3.3s4,2.8,3.9,0.5s-8.9-13.2-8.9-13.2L-202.8,367.4z"/>
			<path class="st4" d="M-197.5,367.6c0,0.8-0.6,1.4-1.4,1.4h-4.2c-0.8,0-1.4-0.6-1.4-1.4l0,0c0-0.8,0.6-1.4,1.4-1.4h4.2
				C-198.2,366.2-197.5,366.9-197.5,367.6L-197.5,367.6z"/>
		</g>
		<g>
			<path class="st4" d="M-168.5,348.9c0.4,0,1,9.9,4.1,13.1c3.2,3.3,12,5.1,12,5.1s-0.2-18.5,0-18.5
				C-152.1,348.6-168.9,348.9-168.5,348.9z"/>
			<path class="st4" d="M-152.3,367.1c0,0,4.6,13.3,3.2,12.8c-1.5-0.5-3.7-1.1-3.7-1.1s-3.6,7.2-4.4,6c-0.9-1.2-0.8-3.6-0.5-3.7
				s-3.1,3.7-3.1,1.7s0.8-3.3,0.8-3.3s-4,2.8-3.9,0.5s8.9-13.2,8.9-13.2L-152.3,367.1z"/>
			<path class="st4" d="M-157.6,367.4c0,0.8,0.6,1.4,1.4,1.4h4.2c0.8,0,1.4-0.6,1.4-1.4l0,0c0-0.8-0.6-1.4-1.4-1.4h-4.2
				C-156.9,365.9-157.6,366.6-157.6,367.4L-157.6,367.4z"/>
		</g>
	</g>
	<g>
		<g>
			<g>
				<path class="st5" d="M-175.9,420.7h32.8c1.7-1.2,0.4-2.8,0.4-2.8l0.5-14.3c3.4,0.2,6.2-6.3,0.9-7.9s-7.9-0.4-7.9-0.4
					c-0.1-0.5-0.4-4.8-0.4-4.8s-23,0.7-26.6,0.7c-2.7,0-6.8,0-6.8,0c-3.6,0.1-26.6-0.7-26.6-0.7s-0.3,4.3-0.4,4.8
					c0,0-2.6-1.1-7.9,0.4c-5.3,1.6-2.5,8.1,0.9,7.9l0.5,14.3c0,0-1.3,1.6,0.4,2.8h32.8H-175.9z"/>
				<path class="st5" d="M-149.3,395.4c0,0-3.9,0.8-3.7,10.3c0,0,5.1,1.5,4.6,7.9c0,0-0.8-13,2.1-16.1c3-3.2,6.6-0.8,6.6-0.8
					s-2.3-1.7-6.3-1.7C-146.9,394.9-148,394.9-149.3,395.4z"/>
				<path class="st5" d="M-210,395.4c0,0,3.9,0.8,3.7,10.3c0,0-5.1,1.5-4.6,7.9c0,0,0.8-13-2.1-16.1c-3-3.2-6.6-0.8-6.6-0.8
					s2.3-1.7,6.3-1.7C-212.4,394.9-211.3,394.9-210,395.4z"/>
				<path class="st6" d="M-152.7,405.6c0,0,2.7,1.1,3.6,2.8c0,0,1.2,1.3,1,5.1h-62.8c-0.2-3.9,1-5.1,1-5.1c0.9-1.7,3.6-2.8,3.6-2.8
					S-181,404.8-152.7,405.6z"/>
			</g>
			<g>
				<g>
					<path class="st7" d="M-147.9,394.2c0,0-9.3,0.9-10.3,1.7c-1,0.8-4.8,6.7-5.5,10.5h11C-152.7,406.4-145.7,393.5-147.9,394.2z"/>
				</g>
				<g>
					<path class="st7" d="M-210.6,394.2c0,0,9.3,0.9,10.3,1.7c1,0.8,4.8,6.7,5.5,10.5h-11C-205.8,406.4-212.8,393.5-210.6,394.2z"/>
				</g>
			</g>
		</g>
		<path class="st8" d="M-201.8,400.2c0.4,0.2,3.7,7.1,11,9s8.5,0.6,8.5,0.6s2.1-6,1.8-9.4c-0.3-3.5-1.4-5-1.4-5s-2.2-1.9-8.1-1.7
			c-6,0.3-10.4,3.3-10.4,3.3L-201.8,400.2z"/>
		<g>
			<circle class="st9" cx="-205.5" cy="395.6" r="6.5"/>
			<path class="st10" d="M-205.4,388.9c-1.2,0-2.2,0.3-3.2,0.8c3.5,0.2,6.3,3.1,6.3,6.6c0,2.5-1.4,4.7-3.5,5.8c0.1,0,0.2,0,0.4,0
				c3.7,0,6.7-3,6.7-6.7C-198.7,391.9-201.7,388.9-205.4,388.9z"/>
			<path class="st11" d="M-205.5,402.7c-3.9,0-7-3.2-7-7c0-3.9,3.2-7,7-7c3.9,0,7,3.2,7,7S-201.6,402.7-205.5,402.7z M-205.5,389.6
				c-3.3,0-6,2.7-6,6s2.7,6,6,6s6-2.7,6-6S-202.2,389.6-205.5,389.6z"/>
		</g>
		<path class="st12" d="M-180.9,404.8c0,0,10.6-12,15.8-10.6s5.6,13.1,5.6,13.1"/>
		<path class="st12" d="M-180.4,399.3c0,0,8.7-12.6,11.1-10.5c2.4,2.1,3,17.5,3,17.5"/>
		<path class="st12" d="M-198.1,401.4c0,0,0.6,10.2,4.7,9.1c4-1.1,8.2-12.5,8.2-12.5"/>
		<path class="st12" d="M-197.4,395.3c0,0,1-5,8.1-5.7c7.1-0.6,10,1.1,10,1.1"/>
		<path class="st12" d="M-211.4,393.5c-1.9-0.2-2,0.6-2,2.1c0,1.6,1,2.8-0.5,3.9c-1.3,1-1.7,1.3-1,3.1c0.3,0.7-0.3,2-0.4,2.9
			c-0.1,0.7,1.5,1.1,1.4,1.9"/>
		<path class="st12" d="M-210.5,398.2c-1.5,0.2-2.2,2.2-1.6,3.4c0.6,1.3,2.1,1.7,1.6,3.5c-0.3,1.2-1.7,1.1-2,2.3
			c-0.3,1.2,0.7,2.7,2,2.5"/>
		<path class="st12" d="M-206.6,399.4c-1.7-0.9-1.3,3.1-1,3.8c0.6,1.2,3.3,2.7,2.5,4.3c-0.6,1.2-2.3,0.8-2.8,2.3
			c-0.5,1.4,0.2,3.3,2,2.9"/>
		<path class="st12" d="M-202.7,400.4c-1.5-0.2-1.7,3.1-1.5,4c0.5,1.7,2.1,3.1,3.3,4.3c0.2,0.2,0.9,0.6,1,1c0,0.7-0.4,0.4-0.7,0.9
			c-0.5,0.8-0.8,1.7-0.3,2.5"/>
		<path class="st12" d="M-212.6,394c1.1-0.4,2-2,2-3.1c0.1-1.4-0.9-2.2-1.3-3.4"/>
		<path class="st12" d="M-210.9,391.5c0.8-0.9,2-1.5,2.8-2.5c0.7-0.9,1-2,1.5-3.1"/>
		<ellipse class="st11" cx="-204.4" cy="393.2" rx="0.3" ry="0.9"/>
		<ellipse class="st11" cx="-204.3" cy="389.7" rx="0.3" ry="0.9"/>
		<path class="st13" d="M-200.9,391.2c0,0-0.7,0.8-0.9,2.5s1.3,2.3,1.3,2.3"/>
	</g>
	<g>
		<rect x="-168.5" y="422.8" class="st14" width="21.9" height="1.8"/>
		<path class="st15" d="M-166.3,437.1v-12.7h1.8v12.7c0,0.2-0.2,0.4-0.4,0.4h-0.9C-166.1,437.5-166.3,437.4-166.3,437.1"/>
		<path class="st15" d="M-180,433.3v-12.5l1.8,0.7v12.2c0,0.3-0.4,0.5-0.7,0.4l-0.9-0.5C-179.9,433.6-180,433.5-180,433.3"/>
		<path class="st10" d="M-150.5,435.9v-11.5h1.8v11.5c0,0.2-0.2,0.4-0.4,0.4h-0.9C-150.3,436.4-150.5,436.2-150.5,435.9"/>
		<path class="st10" d="M-164.5,429.9v-5.3h0.9v5.3c0,0.2-0.2,0.4-0.4,0.4C-164.3,430.3-164.5,430.1-164.5,429.9"/>
		<polygon class="st14" points="-168.4,422.6 -182.7,418.6 -164.4,418.6 -146.6,422.6 		"/>
		<polyline class="st14" points="-182.7,418.6 -182.7,420 -168.5,424.3 -168.5,422.6 		"/>
		<rect x="-168.5" y="422.8" class="st16" width="21.9" height="1.8"/>
		<path class="st16" d="M-166.3,437.1V425h1.8v12.1c0,0.2-0.2,0.4-0.4,0.4h-0.9C-166.1,437.5-166.3,437.4-166.3,437.1z"/>
		<path class="st16" d="M-180,433.3v-11.7h1.8v12.2c0,0.3-0.4,0.5-0.7,0.4l-0.9-0.5C-179.9,433.6-180,433.5-180,433.3z"/>
		<path class="st16" d="M-150.5,435.9V425h1.8v10.9c0,0.2-0.2,0.4-0.4,0.4h-0.9C-150.3,436.4-150.5,436.2-150.5,435.9z"/>
		<path class="st16" d="M-164.5,429.9v-5.3h0.9v5.3c0,0.2-0.2,0.4-0.4,0.4C-164.3,430.3-164.5,430.1-164.5,429.9z"/>
		<polygon class="st16" points="-168.4,423.3 -182.7,419 -164.4,419 -146.6,423.3 		"/>
		<polyline class="st16" points="-183.1,419 -183.1,420 -168.9,424.6 		"/>
	</g>
	<ellipse class="st17" cx="-119.6" cy="427.1" rx="12" ry="2.5"/>
	<g>
		<path class="st18" d="M-125.6,426.3c0,0-4.2-12.3,0.6-25.7"/>
		<path class="st18" d="M-117.2,426.6c0,0-4.2-12.3,0.6-25.7"/>
		<g>
			<path class="st18" d="M-127.2,379c1.6-0.4-6.3,10.5-18.2,4.1"/>
			<path class="st19" d="M-117.7,377.8c1.4,2.4,3.5,3.4,5.1,10c0.6,2.6,0.4,17.8-0.4,21.6c-0.3,1.4-3.4,3.8-6.9,4.4
				c-1.8,0.3-3.9,0.1-6.9-0.3c-1.1-0.1-5.4-1.1-5.7-4.3c-0.2-2.4-0.7-17.8,0.4-21.6c0.9-3.2,1.9-4.7,5.9-10.4c4-5.7,3.7-5.6,3.7-5.6
				S-119.1,375.3-117.7,377.8"/>
			<path class="st18" d="M-117.4,377.8c1.4,2.4,3.5,3.4,5.1,10c0.6,2.6,0.4,17.8-0.4,21.6c-0.3,1.4-3.4,3.8-6.9,4.4
				c-1.8,0.3-3.9,0.1-6.9-0.3c-1.1-0.1-5.4-1.1-5.7-4.3c-0.2-2.4-0.7-17.8,0.4-21.6c0.9-3.2,1.9-4.7,5.9-10.4c4-5.7,3.7-5.6,3.7-5.6
				S-118.8,375.3-117.4,377.8z"/>
			<path class="st19" d="M-129.2,382.7c0.6-1.3,1.5-2.5,2.1-3.8c0.3-0.7,0.8-1.7,1.6-1.9c0.1-0.1,0.3-0.2,0.5-0.3
				c-0.2-0.1-0.4-0.2-0.6-0.3c-0.2-0.1-0.4-0.3-0.7-0.4c1.3,0.3,2.6,0.6,3.7,1.4c-0.1,0-0.3,0-0.4-0.1c0.3,0.3-1.9-0.4-1.9,0.1
				c0,1.4-0.8,2.6-1.5,3.7c-1,1.6-2.2,4.4-1.2,5.9c1.3,2,6.4,1.2,8.7,0.5c5.8-1.8,0.8,1.9-1.4,2.1c-2.5,0.3-3.7,0.5-6.2,0.1
				c-5.7-0.8-4.5,3.4-4.6,3.2C-131.9,390.1-130.8,385.9-129.2,382.7"/>
			<path class="st15" d="M-129.8,368.8c0,4.5,3.6,8.1,8.1,8.1s8.1-3.6,8.1-8.1s-3.6-8.1-8.1-8.1S-129.8,364.3-129.8,368.8"/>
			<path class="st10" d="M-122.7,376.8c-0.8-0.3-1.5-0.5-2.3-0.8h0.1c-0.2-0.1-0.4-0.2-0.6-0.3c-2.3-1.3-4.9-4.2-3.7-6.9
				c1.4-2.9,4.1,1.1,5,2.2c1,1.2,2.4,1.8,3.9,1.9c0.3-0.2,0.6-0.1,0.9,0c1.7-0.1,3.3-1,4-2.6c0.3-0.7,1.3-0.3,1.4,0.3
				c0.6-0.3,1.4,0.4,1,1c-0.2,0.3-0.3,0.5-0.5,0.7c-0.1,0.7-0.6,1.2-1.2,1.7c-0.2,0.1-0.4,0.2-0.5,0.2c0,0.1-0.1,0.3-0.2,0.4
				c-2.2,1.7-4.9,2.5-7.5,2C-122.8,376.6-122.7,376.7-122.7,376.8"/>
			<circle class="st18" cx="-121.4" cy="368.8" r="8.1"/>
			<path class="st18" d="M-132.5,376.1c0,0,2.4,2.4,2.6-1.1c0.5-8.2,0.6-12.9,6.7-14.1"/>
			<path class="st18" d="M-110.1,376.1c0,0-2.4,2.4-2.6-1.1c-0.5-8.2-0.6-12.9-6.7-14.1"/>
			<path class="st11" d="M-119.6,377.8c0,0.4,0.3,0.7,0.7,0.7s0.7-0.3,0.7-0.7c0-0.4-0.3-0.7-0.7-0.7S-119.6,377.4-119.6,377.8"/>
			<path class="st11" d="M-120.4,379.9c0,0.4,0.3,0.7,0.7,0.7s0.7-0.3,0.7-0.7c0-0.4-0.3-0.7-0.7-0.7
				C-120.1,379.3-120.4,379.6-120.4,379.9"/>
			<path class="st11" d="M-121.8,381.6c0,0.4,0.3,0.7,0.7,0.7s0.7-0.3,0.7-0.7s-0.3-0.7-0.7-0.7
				C-121.5,380.9-121.8,381.2-121.8,381.6"/>
			<path class="st11" d="M-123.9,381.6c0,0.4,0.3,0.7,0.7,0.7s0.7-0.3,0.7-0.7s-0.3-0.7-0.7-0.7
				C-123.6,380.9-123.9,381.2-123.9,381.6"/>
			<path class="st11" d="M-125.4,379.9c0,0.4,0.3,0.7,0.7,0.7s0.7-0.3,0.7-0.7c0-0.4-0.3-0.7-0.7-0.7
				C-125.1,379.3-125.4,379.6-125.4,379.9"/>
			<path class="st11" d="M-126.3,377.6c0,0.4,0.3,0.7,0.7,0.7s0.7-0.3,0.7-0.7c0-0.4-0.3-0.7-0.7-0.7
				C-126,376.9-126.3,377.2-126.3,377.6"/>
			<path class="st20" d="M-119,377.6c0,0-0.3,3.5-2.1,4.1c-1.8,0.6-3.2-0.1-4.5-3.8"/>
			<path class="st18" d="M-116.4,378.5c-1.6-0.4,21.5,10.6,1.5,19.6"/>
		</g>
		<circle class="st11" cx="-126.5" cy="368.7" r="1"/>
		<circle class="st11" cx="-121.2" cy="368.9" r="1"/>
		<path class="st21" d="M-125.3,373.3c0,0,0.9,1.2,2.6,0.7c1.7-0.4,2.4-1.4,2.4-1.4"/>
	</g>
</g>
<path class="st22" d="M-228.4,355.9c0,0-1.8,9.3-0.6,11.3c1.1,2,49.5,0.9,51.2,0.7c1.6-0.3,2.6-7.9,1-13.6s-49.7-0.4-49.7-0.4"/>
<rect x="-229.1" y="357.5" class="st23" width="53.1" height="8.9"/>
<g class="st24">
	<path class="st11" d="M-226.2,361.2v1.8c0,0.1,0,0.2-0.1,0.2c-0.1,0.1-0.1,0.1-0.2,0.1c-0.1,0-0.2,0-0.2-0.1
		c-0.1-0.1-0.1-0.1-0.1-0.2v-5c0-0.1,0-0.2,0.1-0.3c0.1-0.1,0.2-0.1,0.3-0.1h1.2c0.3,0,0.6,0,0.8,0.1s0.4,0.2,0.6,0.4
		c0.1,0.2,0.2,0.4,0.3,0.6c0.1,0.2,0.1,0.4,0.1,0.7c0,0.6-0.2,1-0.5,1.3s-0.8,0.5-1.3,0.5H-226.2z M-226.2,360.6h0.9
		c0.4,0,0.7-0.1,0.9-0.3c0.2-0.2,0.3-0.5,0.3-0.9c0-0.1,0-0.3,0-0.4c0-0.1-0.1-0.3-0.2-0.4c-0.1-0.1-0.2-0.2-0.4-0.3
		c-0.2-0.1-0.3-0.1-0.6-0.1h-0.9V360.6z"/>
	<path class="st11" d="M-221.9,363c0,0.1,0,0.2-0.1,0.2s-0.1,0.1-0.2,0.1c-0.1,0-0.2,0-0.2-0.1c-0.1-0.1-0.1-0.1-0.1-0.2v-2.7
		c0-0.1,0-0.2,0-0.3c0-0.1-0.1-0.2-0.1-0.2c0,0,0-0.1,0-0.1c0,0,0-0.1,0-0.1c0-0.1,0-0.2,0.1-0.2s0.1-0.1,0.2-0.1
		c0.1,0,0.1,0,0.2,0.1s0.1,0.1,0.1,0.2c0.2-0.1,0.4-0.2,0.6-0.3c0.2-0.1,0.4-0.1,0.5-0.1c0.2,0,0.3,0,0.3,0.1s0.1,0.1,0.1,0.2
		c0,0.1,0,0.2-0.1,0.2s-0.1,0.1-0.2,0.1c-0.2,0-0.3,0-0.5,0c-0.2,0-0.3,0.1-0.5,0.3c0,0,0,0.1,0,0.1c0,0,0,0.1,0,0.1V363z"/>
	<path class="st11" d="M-218.6,362.8c0.2,0,0.3,0,0.4-0.1s0.3-0.1,0.4-0.2c0,0,0,0,0,0c0,0,0,0,0.1,0c0.1,0,0.1,0,0.2,0.1
		c0.1,0.1,0.1,0.1,0.1,0.2c0,0.1,0,0.2-0.1,0.2s-0.2,0.1-0.3,0.2c-0.1,0-0.3,0.1-0.4,0.1s-0.3,0-0.4,0c-0.2,0-0.4,0-0.6-0.1
		c-0.2-0.1-0.3-0.2-0.4-0.3c-0.1-0.1-0.2-0.3-0.3-0.4c-0.1-0.2-0.1-0.3-0.1-0.5v-1.5c0-0.2,0-0.4,0.1-0.5s0.2-0.3,0.3-0.4
		s0.3-0.2,0.5-0.3s0.4-0.1,0.6-0.1c0.4,0,0.8,0.1,1,0.4c0.2,0.2,0.3,0.6,0.3,1c0,0.4-0.1,0.7-0.3,0.9c-0.2,0.2-0.6,0.3-1,0.3
		c-0.1,0-0.3,0-0.4,0c-0.1,0-0.3,0-0.4-0.1v0.5c0,0.2,0.1,0.4,0.2,0.5C-219.2,362.7-218.9,362.8-218.6,362.8z M-218,360.5
		c0-0.3-0.1-0.4-0.2-0.6c-0.1-0.1-0.3-0.2-0.5-0.2c-0.3,0-0.5,0.1-0.6,0.2s-0.2,0.3-0.2,0.5v0.6c0.1,0,0.3,0,0.5,0
		c0.2,0,0.3,0,0.4,0c0.1,0,0.3,0,0.4-0.1s0.2-0.1,0.2-0.1c0.1-0.1,0.1-0.1,0.1-0.2C-218,360.6-218,360.6-218,360.5z"/>
	<path class="st11" d="M-216.6,360.3c0-0.3,0.1-0.6,0.3-0.8s0.5-0.3,1-0.3c0.1,0,0.2,0,0.3,0c0.1,0,0.2,0,0.3,0.1
		c0.1,0,0.2,0.1,0.3,0.1c0.1,0.1,0.1,0.1,0.1,0.2c0,0.1,0,0.1-0.1,0.2c-0.1,0.1-0.1,0.1-0.2,0.1c0,0-0.1,0-0.1,0
		c-0.1,0-0.2-0.1-0.3-0.1c-0.1,0-0.2,0-0.3,0c-0.5,0-0.7,0.2-0.7,0.6c0,0.1,0,0.2,0.1,0.3c0.1,0.1,0.2,0.1,0.3,0.2
		c0.1,0.1,0.3,0.1,0.5,0.2c0.2,0.1,0.3,0.1,0.5,0.2s0.3,0.2,0.4,0.4s0.2,0.4,0.2,0.6c0,0.4-0.1,0.6-0.3,0.9s-0.6,0.3-1,0.3
		c-0.1,0-0.2,0-0.4,0c-0.1,0-0.3,0-0.4-0.1c-0.1,0-0.2-0.1-0.3-0.1s-0.1-0.1-0.1-0.2c0-0.1,0-0.1,0.1-0.2c0.1-0.1,0.1-0.1,0.2-0.1
		c0,0,0,0,0.1,0c0,0,0,0,0,0c0.1,0,0.2,0.1,0.4,0.1c0.1,0,0.3,0.1,0.4,0.1c0.2,0,0.4,0,0.5-0.1s0.2-0.2,0.2-0.5c0-0.1,0-0.3-0.1-0.3
		c-0.1-0.1-0.1-0.1-0.2-0.2c-0.1-0.1-0.3-0.1-0.5-0.2c-0.2-0.1-0.3-0.1-0.5-0.2s-0.3-0.2-0.4-0.4
		C-216.6,360.8-216.6,360.6-216.6,360.3z"/>
	<path class="st11" d="M-212.6,357.9c0,0.1,0,0.2-0.1,0.3c-0.1,0.1-0.2,0.1-0.3,0.1c-0.1,0-0.2,0-0.3-0.1c-0.1-0.1-0.1-0.2-0.1-0.3
		s0-0.2,0.1-0.3c0.1-0.1,0.2-0.1,0.3-0.1c0.1,0,0.2,0,0.3,0.1C-212.6,357.7-212.6,357.8-212.6,357.9z M-212.6,363
		c0,0.1,0,0.2-0.1,0.2c-0.1,0.1-0.1,0.1-0.2,0.1c-0.1,0-0.2,0-0.2-0.1s-0.1-0.1-0.1-0.2v-3.5c0-0.1,0-0.2,0.1-0.2s0.1-0.1,0.2-0.1
		c0.1,0,0.2,0,0.2,0.1c0.1,0.1,0.1,0.1,0.1,0.2V363z"/>
	<path class="st11" d="M-210.1,363.3c-0.2,0-0.5,0-0.6-0.1s-0.3-0.2-0.5-0.3c-0.1-0.1-0.2-0.3-0.3-0.5c-0.1-0.2-0.1-0.4-0.1-0.6
		v-1.3c0-0.2,0-0.4,0.1-0.6s0.2-0.3,0.3-0.5c0.1-0.1,0.3-0.2,0.5-0.3c0.2-0.1,0.4-0.1,0.6-0.1s0.5,0,0.6,0.1
		c0.2,0.1,0.3,0.2,0.5,0.3c0.1,0.1,0.2,0.3,0.3,0.5s0.1,0.4,0.1,0.6v1.3c0,0.2,0,0.4-0.1,0.6c-0.1,0.2-0.2,0.3-0.3,0.5
		c-0.1,0.1-0.3,0.2-0.5,0.3S-209.9,363.3-210.1,363.3z M-210.1,362.8c0.3,0,0.5-0.1,0.7-0.2c0.1-0.1,0.2-0.4,0.2-0.6v-1.3
		c0-0.3-0.1-0.5-0.2-0.6c-0.1-0.1-0.4-0.2-0.7-0.2s-0.5,0.1-0.7,0.2c-0.1,0.1-0.2,0.4-0.2,0.6v1.3c0,0.3,0.1,0.5,0.2,0.6
		C-210.6,362.7-210.4,362.8-210.1,362.8z M-210,357.6c0.1-0.1,0.1-0.1,0.1-0.1c0,0,0.1-0.1,0.2-0.1c0.1,0,0.1,0,0.2,0.1
		s0.1,0.1,0.1,0.2c0,0,0,0,0,0.1c0,0,0,0,0,0.1l-0.6,0.7c0,0-0.1,0.1-0.1,0.1s-0.1,0-0.1,0c-0.1,0-0.1,0-0.2-0.1
		c-0.1-0.1-0.1-0.1-0.1-0.2c0,0,0-0.1,0-0.1L-210,357.6z"/>
	<path class="st11" d="M-207,363c0,0.1,0,0.2-0.1,0.2s-0.1,0.1-0.2,0.1c-0.1,0-0.2,0-0.2-0.1s-0.1-0.1-0.1-0.2v-2.7
		c0-0.1,0-0.2,0-0.3s0-0.1,0-0.1c0,0,0-0.1,0-0.1s0,0-0.1-0.1c0,0,0,0,0-0.1c0,0,0-0.1,0-0.1c0-0.1,0-0.1,0.1-0.2
		c0.1-0.1,0.1-0.1,0.2-0.1c0.1,0,0.1,0,0.2,0.1c0.1,0,0.1,0.1,0.1,0.2c0.2-0.1,0.4-0.2,0.6-0.3s0.4-0.1,0.6-0.1c0.4,0,0.7,0.1,1,0.4
		c0.2,0.3,0.3,0.6,0.3,1.1v2.3c0,0.1,0,0.2-0.1,0.2s-0.1,0.1-0.2,0.1c-0.1,0-0.2,0-0.2-0.1s-0.1-0.1-0.1-0.2v-2.3
		c0-0.3-0.1-0.5-0.2-0.7c-0.1-0.2-0.3-0.2-0.5-0.2c-0.2,0-0.3,0-0.5,0.1s-0.3,0.1-0.4,0.2c0,0.1,0,0.2,0,0.2V363z"/>
	<path class="st11" d="M-198.2,363c0,0.1,0,0.2-0.1,0.2c-0.1,0.1-0.1,0.1-0.2,0.1h-2.1c-0.1,0-0.3,0-0.4-0.1
		c-0.1-0.1-0.2-0.2-0.2-0.3V358c0-0.1,0-0.2,0.1-0.3c0.1-0.1,0.2-0.1,0.3-0.1h2.2c0.1,0,0.2,0,0.2,0.1s0.1,0.1,0.1,0.2
		c0,0.1,0,0.2-0.1,0.2c-0.1,0.1-0.1,0.1-0.2,0.1h-1.9v1.9h1.8c0.1,0,0.2,0,0.2,0.1s0.1,0.1,0.1,0.2s0,0.2-0.1,0.2
		c-0.1,0.1-0.1,0.1-0.2,0.1h-1.8v1.9h2c0.1,0,0.2,0,0.2,0.1S-198.2,362.9-198.2,363z"/>
	<path class="st11" d="M-194.8,362.9c0,0,0,0.1,0,0.1c0,0.1,0,0.2-0.1,0.2c-0.1,0.1-0.1,0.1-0.2,0.1c-0.1,0-0.1,0-0.2-0.1
		c0,0-0.1-0.1-0.1-0.2l-0.9-1.4l-0.9,1.4c-0.1,0.1-0.2,0.2-0.3,0.2c-0.1,0-0.2,0-0.2-0.1c-0.1-0.1-0.1-0.1-0.1-0.2c0,0,0-0.1,0-0.1
		l1.1-1.7l-1-1.6c0,0,0-0.1,0-0.1c0-0.1,0-0.2,0.1-0.2c0.1-0.1,0.1-0.1,0.2-0.1c0.1,0,0.2,0,0.2,0.1s0.1,0.1,0.1,0.2l0.8,1.2
		l0.8-1.3c0-0.1,0.1-0.1,0.1-0.2c0,0,0.1-0.1,0.2-0.1s0.1,0,0.2,0.1s0.1,0.1,0.1,0.2c0,0,0,0.1,0,0.1c0,0,0,0,0,0.1l-1,1.6
		L-194.8,362.9z"/>
	<path class="st11" d="M-193.9,358.3c0-0.1,0-0.2,0.1-0.2s0.1-0.1,0.2-0.1c0.1,0,0.2,0,0.2,0.1c0.1,0.1,0.1,0.1,0.1,0.2v1.1h0.8
		c0.1,0,0.1,0,0.2,0.1c0.1,0.1,0.1,0.1,0.1,0.2c0,0.1,0,0.2-0.1,0.2c-0.1,0.1-0.1,0.1-0.2,0.1h-0.8v1.6c0,0.2,0,0.4,0,0.5
		c0,0.1,0,0.3,0.1,0.3c0,0.1,0.1,0.2,0.2,0.2s0.2,0.1,0.3,0.1c0,0,0.1,0,0.1,0c0,0,0,0,0.1,0c0,0,0.1,0,0.1,0c0,0,0.1,0,0.1,0
		s0.1,0.1,0.1,0.1s0,0.1,0,0.2c0,0.1,0,0.1,0,0.2s-0.1,0.1-0.1,0.1c0,0-0.1,0-0.1,0c-0.1,0-0.1,0-0.2,0c-0.3,0-0.5,0-0.7-0.1
		s-0.3-0.2-0.4-0.3s-0.2-0.3-0.2-0.5c0-0.2-0.1-0.4-0.1-0.7V358.3z"/>
	<path class="st11" d="M-190.1,362.8c0.2,0,0.3,0,0.4-0.1s0.3-0.1,0.4-0.2c0,0,0,0,0,0c0,0,0,0,0.1,0c0.1,0,0.1,0,0.2,0.1
		c0.1,0.1,0.1,0.1,0.1,0.2c0,0.1,0,0.2-0.1,0.2s-0.2,0.1-0.3,0.2c-0.1,0-0.3,0.1-0.4,0.1s-0.3,0-0.4,0c-0.2,0-0.4,0-0.6-0.1
		c-0.2-0.1-0.3-0.2-0.4-0.3c-0.1-0.1-0.2-0.3-0.3-0.4c-0.1-0.2-0.1-0.3-0.1-0.5v-1.5c0-0.2,0-0.4,0.1-0.5s0.2-0.3,0.3-0.4
		s0.3-0.2,0.5-0.3s0.4-0.1,0.6-0.1c0.4,0,0.8,0.1,1,0.4c0.2,0.2,0.3,0.6,0.3,1c0,0.4-0.1,0.7-0.3,0.9c-0.2,0.2-0.6,0.3-1,0.3
		c-0.1,0-0.3,0-0.4,0c-0.1,0-0.3,0-0.4-0.1v0.5c0,0.2,0.1,0.4,0.2,0.5C-190.6,362.7-190.4,362.8-190.1,362.8z M-189.4,360.5
		c0-0.3-0.1-0.4-0.2-0.6c-0.1-0.1-0.3-0.2-0.5-0.2c-0.3,0-0.5,0.1-0.6,0.2s-0.2,0.3-0.2,0.5v0.6c0.1,0,0.3,0,0.5,0
		c0.2,0,0.3,0,0.4,0c0.1,0,0.3,0,0.4-0.1s0.2-0.1,0.2-0.1c0.1-0.1,0.1-0.1,0.1-0.2C-189.4,360.6-189.4,360.6-189.4,360.5z"/>
	<path class="st11" d="M-187.3,363c0,0.1,0,0.2-0.1,0.2s-0.1,0.1-0.2,0.1c-0.1,0-0.2,0-0.2-0.1c-0.1-0.1-0.1-0.1-0.1-0.2v-2.7
		c0-0.1,0-0.2,0-0.3c0-0.1-0.1-0.2-0.1-0.2c0,0,0-0.1,0-0.1c0,0,0-0.1,0-0.1c0-0.1,0-0.2,0.1-0.2s0.1-0.1,0.2-0.1
		c0.1,0,0.1,0,0.2,0.1s0.1,0.1,0.1,0.2c0.2-0.1,0.4-0.2,0.6-0.3c0.2-0.1,0.4-0.1,0.5-0.1c0.2,0,0.3,0,0.3,0.1s0.1,0.1,0.1,0.2
		c0,0.1,0,0.2-0.1,0.2s-0.1,0.1-0.2,0.1c-0.2,0-0.3,0-0.5,0c-0.2,0-0.3,0.1-0.5,0.3c0,0,0,0.1,0,0.1c0,0,0,0.1,0,0.1V363z"/>
	<path class="st11" d="M-184.5,363c0,0.1,0,0.2-0.1,0.2s-0.1,0.1-0.2,0.1c-0.1,0-0.2,0-0.2-0.1s-0.1-0.1-0.1-0.2v-2.7
		c0-0.1,0-0.2,0-0.3s0-0.1,0-0.1c0,0,0-0.1,0-0.1s0,0-0.1-0.1c0,0,0,0,0-0.1c0,0,0-0.1,0-0.1c0-0.1,0-0.1,0.1-0.2
		c0.1-0.1,0.1-0.1,0.2-0.1c0.1,0,0.1,0,0.2,0.1c0.1,0,0.1,0.1,0.1,0.2c0.2-0.1,0.4-0.2,0.6-0.3s0.4-0.1,0.6-0.1c0.4,0,0.7,0.1,1,0.4
		c0.2,0.3,0.3,0.6,0.3,1.1v2.3c0,0.1,0,0.2-0.1,0.2s-0.1,0.1-0.2,0.1c-0.1,0-0.2,0-0.2-0.1s-0.1-0.1-0.1-0.2v-2.3
		c0-0.3-0.1-0.5-0.2-0.7c-0.1-0.2-0.3-0.2-0.5-0.2c-0.2,0-0.3,0-0.5,0.1s-0.3,0.1-0.4,0.2c0,0.1,0,0.2,0,0.2V363z"/>
	<path class="st11" d="M-179.1,360.6c0-0.6-0.3-0.9-0.9-0.9c-0.1,0-0.3,0-0.3,0c-0.1,0-0.2,0.1-0.3,0.1c0,0,0,0-0.1,0
		c0,0-0.1,0-0.1,0c-0.1,0-0.1,0-0.2-0.1c0-0.1-0.1-0.1-0.1-0.2c0-0.1,0-0.2,0.1-0.2c0.1-0.1,0.2-0.1,0.3-0.2c0.1,0,0.2-0.1,0.4-0.1
		c0.1,0,0.3,0,0.4,0c0.5,0,0.9,0.1,1.1,0.4c0.2,0.3,0.3,0.7,0.3,1.2v1.8c0,0.2,0,0.2,0.1,0.2c0,0,0,0,0,0c0,0,0,0,0,0
		c0.1,0,0.1,0,0.2,0.1s0.1,0.1,0.1,0.2c0,0.1,0,0.2-0.1,0.2c-0.1,0-0.2,0.1-0.2,0.1c-0.1,0-0.3,0-0.4-0.1c-0.1-0.1-0.2-0.2-0.2-0.3
		c-0.3,0.3-0.7,0.4-1.1,0.4c-0.4,0-0.7-0.1-0.9-0.3c-0.2-0.2-0.3-0.5-0.3-0.9v0c0-0.8,0.5-1.2,1.4-1.2c0.3,0,0.6,0,0.8,0.1V360.6z
		 M-179.9,361.5c-0.2,0-0.3,0-0.4,0.1c-0.1,0-0.2,0.1-0.2,0.1s-0.1,0.1-0.1,0.2c0,0.1,0,0.2,0,0.3v0c0,0.2,0.1,0.3,0.2,0.5
		c0.1,0.1,0.3,0.2,0.6,0.2c0.2,0,0.3,0,0.5-0.1s0.3-0.1,0.4-0.3v-0.9c-0.1,0-0.3-0.1-0.4-0.1S-179.8,361.5-179.9,361.5z"/>
</g>
</svg>
