<?xml version="1.0" encoding="utf-8"?>
<!-- Generator: Adobe Illustrator 19.0.0, SVG Export Plug-In . SVG Version: 6.00 Build 0)  -->
<svg version="1.1" id="Capa_1" xmlns="http://www.w3.org/2000/svg" xmlns:xlink="http://www.w3.org/1999/xlink" x="0px" y="0px"
	 viewBox="-285 361.9 39.1 70.1" style="enable-background:new -285 361.9 39.1 70.1;" xml:space="preserve">
<style type="text/css">
	.st0{fill:#0098D5;}
	.st1{fill:none;stroke:#004966;stroke-width:1.3515;stroke-miterlimit:10;}
	.st2{fill:#FFFFFF;}
	.st3{fill:#DFDEE4;}
	.st4{fill:none;stroke:#004966;stroke-width:1.3515;stroke-linecap:round;stroke-miterlimit:10;}
	.st5{fill:#0098C8;stroke:#004966;stroke-width:1.2513;stroke-linecap:round;stroke-miterlimit:10;}
	.st6{fill:none;stroke:#004966;stroke-width:0.9122;stroke-miterlimit:10;}
	.st7{fill:#004966;}
	.st8{fill:none;stroke:#004966;stroke-width:0.4502;stroke-linecap:round;stroke-miterlimit:10;}
</style>
<g>
	<g>
		<g>
			<g>
				<g>
					<path class="st0" d="M-259.3,386.9c1,1.8,2.6,2.6,3.8,7.5c0.5,1.9,0.6,3.7,0,6.6c-0.2,1-2.6,2.8-5.1,3.3
						c-1.4,0.2-2.9,0.1-5.2-0.2c-0.8-0.1-4.1-0.8-4.3-3.2c-0.2-1.8-0.8-3.7,0-6.6c0.7-2.4,1.4-3.5,4.4-7.8s2.7-4.2,2.7-4.2
						S-260.3,385-259.3,386.9"/>
					<path class="st0" d="M-268,390.8c0.5-1,1.1-1.9,1.6-3c0.2-0.5,0.6-1.3,1.2-1.5c0.1-0.1,0.2-0.2,0.4-0.2
						c-0.2-0.1-0.3-0.1-0.4-0.2c-0.2-0.1-0.3-0.2-0.5-0.3c1,0.3,1.9,0.5,2.8,1.1c-0.1,0-0.2,0-0.3-0.1c0.2,0.3,0.4,0.6,0.4,1
						c0,1.1-0.6,2-1.1,2.9c-0.9,1.5-1.6,2.8-1.8,4.5c-0.2,1.5,0,3.2,0.3,4.7c0.3,1.2,1.4,1.9,1.6,3c0.2,1.2-0.8,1.2-1.7,1
						c-0.2,0.1-0.5,0-0.6-0.2c-0.3-0.1-0.5-0.2-0.7-0.3c-1.9-0.9-2.5-2.6-2.6-4.6C-269.9,396-269.1,393.3-268,390.8"/>
					<path class="st1" d="M-259,386.9c1,1.8,2.6,2.6,3.8,7.5c0.5,1.9,0.6,3.7,0,6.6c-0.2,1-2.6,2.8-5.1,3.3
						c-1.4,0.2-2.9,0.1-5.2-0.2c-0.8-0.1-4.1-0.8-4.3-3.2c-0.2-1.8-0.8-3.7,0-6.6c0.7-2.4,1.4-3.5,4.4-7.8s2.7-4.2,2.7-4.2
						S-260,385-259,386.9z"/>
					<path class="st2" d="M-270.3,378.3c-1.1,3.2,0.5,6.6,3.6,7.8c3.2,1.1,6.6-0.5,7.8-3.6c1.1-3.2-0.5-6.6-3.6-7.8
						C-265.5,373.5-269,375.1-270.3,378.3"/>
					<path class="st3" d="M-267.3,385.7c-0.5-0.4-1-0.7-1.4-1.2h0.1c-0.1-0.1-0.2-0.2-0.3-0.4c-1.3-1.5-2.4-4.2-0.8-5.8
						c1.7-1.7,2.6,1.8,3,2.8c0.4,1.1,1.3,1.9,2.3,2.3c0.3,0,0.5,0.1,0.6,0.2c1.2,0.3,2.5,0.2,3.5-0.8c0.4-0.4,1,0.1,0.9,0.6
						c0.5-0.1,0.9,0.6,0.4,1c-0.2,0.1-0.4,0.3-0.6,0.4c-0.3,0.4-0.8,0.7-1.3,0.9c-0.2,0.1-0.3,0-0.4,0c0,0.1-0.1,0.2-0.3,0.2
						c-2,0.6-4.1,0.5-5.8-0.5C-267.3,385.6-267.3,385.6-267.3,385.7"/>
					<circle class="st1" cx="-264.3" cy="380.4" r="6.1"/>
					<path class="st4" d="M-265.3,386.5c0,0-0.6,2.1,1.4,2.1c1.9,0,3.1-2.8,3.1-2.8"/>
				</g>
			</g>
			<path class="st5" d="M-266.4,386.3l-0.3,1.1l0.5,1.9l2.3-1.4l2.7,1.8l1.7-2.2l-0.6-1.3c0,0-2.5,0.7-3.8,0.5
				C-265.3,386.4-266.4,386.3-266.4,386.3z"/>
			<line class="st6" x1="-264" y1="387.9" x2="-264.1" y2="404.2"/>
			<path class="st4" d="M-267.5,389.4c0,0-3,6.8-6.5,9.1c-3.5,2.2-5.6,2.7-5.6,2.7"/>
			<path class="st4" d="M-257.5,388.4c0,0,5,3.6,6.2,6.8c1.2,3.3,2,9.3,2,9.3"/>
			<path class="st7" d="M-270,379.2c-0.7-0.1-2.2-1.4-0.7-1.4c0-0.6-0.2-1.1-0.2-1.7c0.2,0,0.5-0.1,0.8,0c-0.8-0.8-0.5-1.7,0.6-1.6
				c-0.6-0.8-0.2-2.1,1-1.6c-0.5-1.5,0.9-1.5,1.8-0.9c0.3-0.9,1.6-1.1,2-0.2c0.3-0.9,2-1,2,0c0.8-0.5,3.3-0.2,2,0.9
				c0.9-0.3,1.6,0,1.2,1c0.7-0.2,1,0.4,1,1c0.6,0.1,1.5,1.1,0.6,1.3c0.6,0.1,0.9,0.7,0.4,1.1c0.5,0.3,0.4,1.6,0.4,2.2
				c0,0.9-0.4,1.5-1.3,1.6c0.5-1.7-0.3-2.7-1-4.3c-0.7-1.5-1.8-2.9-3.6-3.1c-1.8-0.2-3.4,0.5-4.6,1.7c-0.5,0.5-1.3,0.9-1.6,1.5
				c-0.4,0.8-0.1,1.6-0.7,2.3"/>
			<path class="st7" d="M-266.3,374.6c-0.2,0.8,0.3,1.2,1.1,1.1c-0.2,0.8,0.6,1.3,1.3,0.8c0.1,0.4,0.6,0.5,1,0.5c0-0.1,0-0.1,0-0.2
				c0.7,0.4,0.8-0.1,1.3-0.2c0.4-0.1,1,0.6,1.1-0.3c0.7,0.2,0.9-0.5,0.9-1.1c0-0.8-0.2-1-0.9-1.4c-1.1-0.7-3-1.2-4.3-0.8"/>
		</g>
		<path class="st4" d="M-259.9,404.3c0,0,0.3,4.2,0.3,9.3c-0.3,4,0,9.3,0,9.3"/>
		<path class="st4" d="M-268,403.4c0,0-1,3.1-0.7,8.2c-0.3,4.6-1.8,11.3-1.8,11.3"/>
		<path class="st8" d="M-264,384.3c0,0,0.6,0.2,1.7-0.3"/>
		<g>
			<path class="st7" d="M-265.8,380.9c-0.3,0-0.5-0.2-0.5-0.5c0,0.1-0.1,0.2-0.1,0.3c0,0.3,0.2,0.6,0.5,0.6c0.3,0,0.5-0.3,0.5-0.6
				c0,0,0,0,0-0.1C-265.4,380.8-265.6,380.9-265.8,380.9z"/>
			<path class="st7" d="M-262.7,380.9c-0.3,0-0.5-0.2-0.5-0.5c0,0.1-0.1,0.2-0.1,0.3c0,0.3,0.2,0.6,0.5,0.6s0.5-0.3,0.5-0.6
				c0,0,0,0,0-0.1C-262.3,380.8-262.5,380.9-262.7,380.9z"/>
		</g>
	</g>
</g>
</svg>
