<?xml version="1.0" encoding="utf-8"?>
<!-- Generator: Adobe Illustrator 15.1.0, SVG Export Plug-In . SVG Version: 6.00 Build 0)  -->
<!DOCTYPE svg PUBLIC "-//W3C//DTD SVG 1.1//EN" "http://www.w3.org/Graphics/SVG/1.1/DTD/svg11.dtd">
<svg version="1.1" id="Layer_1" xmlns="http://www.w3.org/2000/svg" xmlns:xlink="http://www.w3.org/1999/xlink" x="0px" y="0px"
	 width="53.185px" height="53.186px" viewBox="79.939 77.181 53.185 53.186" enable-background="new 79.939 77.181 53.185 53.186"
	 xml:space="preserve">
<g>
	<circle fill="#6E6694" stroke="#FFFFFF" stroke-width="2" stroke-miterlimit="10" cx="106.531" cy="103.774" r="25.59"/>
	<g>
		<g>
			<path fill="#FFFFFF" d="M96.572,109.261h1.492l2.427-2.429h-2.707v-6.333h4.944c0.323,0,0.63-0.131,0.861-0.358l5.615-5.656
				v3.635l2.429-2.428v-4.15c0-0.491-0.299-0.937-0.754-1.123c-0.451-0.188-0.973-0.083-1.321,0.266l-7.337,7.384h-5.649
				c-0.675,0-1.214,0.544-1.214,1.214v8.764C95.358,108.717,95.898,109.261,96.572,109.261z"/>
			<path fill="#FFFFFF" d="M109.205,112.851l-3.758-3.763l-1.718,1.717l5.831,5.841c0.233,0.233,0.542,0.357,0.862,0.357
				c0.154,0,0.312-0.03,0.458-0.095c0.455-0.186,0.754-0.63,0.754-1.121V102.9l-2.43,2.429V112.851L109.205,112.851z"/>
			<path fill="#FFFFFF" d="M121.254,89.677c-0.259-0.262-0.602-0.389-0.943-0.389c-0.341,0-0.68,0.127-0.943,0.389l-7.733,7.733
				l-2.429,2.427l-6.997,6.995l-2.428,2.429l-7.21,7.214c-0.522,0.522-0.522,1.365,0,1.887c0.261,0.262,0.601,0.391,0.942,0.391
				c0.343,0,0.682-0.131,0.943-0.391l8.417-8.415l1.717-1.719l4.615-4.617l2.429-2.427l9.62-9.62
				C121.775,91.043,121.775,90.198,121.254,89.677z"/>
		</g>
	</g>
</g>
</svg>
