<?xml version="1.0" encoding="utf-8"?>
<!-- Generator: Adobe Illustrator 19.0.0, SVG Export Plug-In . SVG Version: 6.00 Build 0)  -->
<svg version="1.1" id="Capa_1" xmlns="http://www.w3.org/2000/svg" xmlns:xlink="http://www.w3.org/1999/xlink" x="0px" y="0px"
	 viewBox="-144 201.1 321.1 391.9" style="enable-background:new -144 201.1 321.1 391.9;" xml:space="preserve">
<style type="text/css">
	.st0{fill:#E0DFE6;}
	.st1{fill:none;stroke:#1F4D69;stroke-width:3;stroke-linecap:round;stroke-linejoin:round;stroke-miterlimit:10;}
	.st2{fill:none;stroke:#939393;stroke-width:9;stroke-linecap:round;stroke-linejoin:round;stroke-miterlimit:10;}
	.st3{fill:#1F4D69;stroke:#1F4D69;stroke-width:3;stroke-linecap:round;stroke-linejoin:round;stroke-miterlimit:10;}
	.st4{fill:#296684;stroke:#1F4D69;stroke-width:3;stroke-linecap:round;stroke-linejoin:round;stroke-miterlimit:10;}
	.st5{fill:#1F4D69;}
</style>
<g>
	<path class="st0" d="M-100.3,484.5c0,0,17-37.1,39.9-37.1s53.4,39.9,83,20c29.6-20-3.3-53,32.5-52.4c35.9,0.5,61.3-30.9,59.8-84.4
		s14.6-102,30.5-111v298.8h-245.7V484.5L-100.3,484.5z"/>
	<rect x="-100.3" y="219.6" class="st1" width="245.7" height="298.4"/>
	<line class="st2" x1="-44.2" y1="390" x2="89.2" y2="390"/>
	<line class="st2" x1="-60.5" y1="410.1" x2="105.5" y2="410.1"/>
	<line class="st2" x1="-24.4" y1="432.5" x2="69.5" y2="432.5"/>
	<line class="st2" x1="-37.6" y1="455" x2="82.7" y2="455"/>
	<line class="st2" x1="-24.4" y1="477.3" x2="69.5" y2="477.3"/>
	<polygon class="st3" points="22.5,518.5 145.4,518.5 84,546.5 22.5,574.5 -38.9,546.5 -100.3,518.5 	"/>
	<polygon class="st4" points="22.5,574.5 22.5,518.5 -100.3,518.5 	"/>
</g>
<g>
	<path class="st5" d="M-18.3,312.5c0,2.4-0.3,4.7-1,7c-0.7,2.2-1.8,4.2-3.4,5.9c-1.5,1.7-3.6,3.1-6.2,4.1c-2.6,1-5.7,1.5-9.5,1.5
		h-7.8c-1.2,0-2.2-0.4-3.1-1.2c-0.9-0.8-1.3-1.8-1.3-2.9v-40.6c0-1.1,0.4-2.1,1.3-2.9c0.9-0.8,1.9-1.3,3.1-1.3h7.8
		c3.7,0,6.9,0.5,9.4,1.5s4.6,2.3,6.2,4c1.6,1.6,2.7,3.5,3.4,5.7c0.7,2.2,1,4.4,1,6.8V312.5z M-25.9,300c0-1.5-0.2-2.9-0.6-4.3
		c-0.4-1.3-1-2.5-1.9-3.4c-0.9-1-2.1-1.7-3.5-2.3c-1.4-0.6-3.2-0.8-5.2-0.8h-5.8v34.7h5.8c2.1,0,3.8-0.3,5.3-0.9
		c1.4-0.6,2.6-1.4,3.5-2.5c0.9-1,1.5-2.3,1.9-3.6c0.4-1.4,0.6-2.9,0.6-4.4V300z"/>
	<path class="st5" d="M4.7,331.7c-2.8,0-5.3-0.5-7.4-1.4c-2.1-0.9-3.9-2.2-5.3-3.8c-1.4-1.6-2.5-3.5-3.2-5.7c-0.7-2.2-1.1-4.5-1.1-7
		v-14.3c0-2.4,0.3-4.7,0.9-6.9c0.6-2.2,1.6-4.1,3-5.7c1.4-1.6,3.1-2.9,5.3-3.9c2.2-0.9,4.8-1.4,7.8-1.4s5.7,0.5,7.8,1.4
		c2.2,0.9,3.9,2.2,5.3,3.9c1.4,1.6,2.4,3.5,3,5.7c0.6,2.2,0.9,4.5,0.9,6.9v14.3c0,2.5-0.4,4.8-1.1,7c-0.7,2.2-1.8,4.1-3.2,5.7
		c-1.4,1.6-3.2,2.9-5.3,3.8C10,331.2,7.5,331.7,4.7,331.7z M4.7,288.6c-3.4,0-5.8,1-7.2,3c-1.4,2-2.1,4.6-2.1,7.8v14.3
		c0,3.2,0.8,5.9,2.3,7.9c1.5,2,3.9,3,7.1,3c3.2,0,5.5-1,7.1-3c1.5-2,2.3-4.6,2.3-7.9v-14.3c0-3.2-0.7-5.8-2.1-7.8
		C10.5,289.6,8.1,288.6,4.7,288.6z"/>
	<path class="st5" d="M37.1,328.1c0,0.9-0.4,1.8-1.1,2.5c-0.7,0.7-1.6,1.1-2.7,1.1c-1.1,0-2-0.4-2.7-1.1c-0.7-0.7-1.1-1.6-1.1-2.5
		v-41.9c0-1,0.4-2,1.2-2.8c0.8-0.9,1.8-1.3,3.1-1.3h18.8c1.1,0,2,0.4,2.7,1.1s1.1,1.6,1.1,2.5c0,1-0.4,1.8-1.1,2.5
		c-0.7,0.6-1.6,1-2.7,1H37.1v13.7h14.1c0.9,0,1.8,0.3,2.6,1c0.8,0.7,1.2,1.5,1.2,2.5c0,1-0.4,1.9-1.1,2.6c-0.7,0.7-1.6,1-2.7,1H37.1
		V328.1z"/>
	<path class="st5" d="M64.9,329c-0.2,0.8-0.7,1.5-1.5,1.9c-0.8,0.5-1.5,0.7-2.1,0.7c-1.1,0-2-0.3-2.8-1c-0.8-0.6-1.2-1.5-1.2-2.6
		c0-0.2,0-0.4,0-0.7c0-0.3,0.1-0.5,0.1-0.6L71,285.7c0.4-1.2,0.9-2.2,1.6-3c0.7-0.8,1.7-1.2,3.1-1.2c1.3,0,2.3,0.4,3,1.2
		c0.7,0.8,1.2,1.8,1.6,3l13.5,41.1c0.1,0.1,0.1,0.3,0.2,0.6c0,0.3,0,0.5,0,0.7c0,1.1-0.4,1.9-1.1,2.6c-0.8,0.6-1.7,1-2.8,1
		c-1.2,0-2.1-0.4-2.7-1.2c-0.6-0.8-1.1-1.8-1.5-3.1l-2.2-6.7H67.4L64.9,329z M75.6,292.9c-0.9,3.7-1.8,7.3-2.9,10.7
		c-1,3.4-2.1,6.9-3.2,10.4h12c-1.1-3.5-2.1-7-3.2-10.5C77.3,300.1,76.4,296.5,75.6,292.9z"/>
</g>
</svg>
