<?xml version="1.0" encoding="utf-8"?>
<!-- Generator: Adobe Illustrator 19.0.0, SVG Export Plug-In . SVG Version: 6.00 Build 0)  -->
<svg version="1.1" id="Capa_1" xmlns="http://www.w3.org/2000/svg" xmlns:xlink="http://www.w3.org/1999/xlink" x="0px" y="0px"
	 viewBox="-114 272 382 250" style="enable-background:new -114 272 382 250;" xml:space="preserve">
<style type="text/css">
	.st0{fill:#CDC6DE;}
	.st1{fill:#204B66;}
	.st2{fill:none;stroke:#204B66;stroke-width:6.3265;stroke-linecap:round;stroke-miterlimit:10;}
	.st3{fill:#E27536;}
	.st4{opacity:0.2;fill:#E27536;enable-background:new    ;}
	.st5{fill:none;stroke:#204B66;stroke-width:6.3265;stroke-miterlimit:10;}
	.st6{fill:#FFFFFF;}
	.st7{fill:#D5D2D8;}
	.st8{fill:none;stroke:#204B66;stroke-width:1.2661;stroke-linecap:round;stroke-miterlimit:10;}
	.st9{fill:#E27536;stroke:#204B66;stroke-width:4.2066;stroke-linecap:round;stroke-miterlimit:10;}
	.st10{fill:none;stroke:#204B66;stroke-width:1.8992;stroke-miterlimit:10;}
	.st11{fill:#0096BB;stroke:#204B66;stroke-width:4.2066;stroke-linecap:round;stroke-miterlimit:10;}
	.st12{fill:#FFFFFF;stroke:#004966;stroke-width:1.6711;stroke-linecap:round;stroke-miterlimit:10;}
	.st13{fill:#004966;}
</style>
<g>
	<path class="st0" d="M234.3,379.8c10.3,54.2-51.8,111.5-138.6,128s-165.6-14-175.9-68.1c-10.3-54.2,51.8-111.5,138.6-128
		S223.9,325.6,234.3,379.8z"/>
	<path class="st1" d="M68.7,497.6c-7.3,6.5-17,10.5-27.5,10.5c-22.9,0-41.5-18.6-41.5-41.5c0-21.9,17-39.8,38.6-41.3
		c0.6-3.4,1.7-6.5,3.2-9.4c-0.1,0-0.2,0-0.3,0c-28.1,0-50.8,22.7-50.8,50.8c0,28.1,22.7,50.8,50.8,50.8c10.2,0,19.6-3,27.5-8.2
		V497.6z"/>
	<polygon class="st1" points="40.6,448.8 40.6,466 19.1,466 19.1,476.5 49.7,476.5 49.7,448.8 	"/>
	<g>
		<path class="st2" d="M69.7,512.3c0,0,0.7-38.3-2.1-90.1"/>
		<path class="st2" d="M99.2,513.3c0,0-2-45.7-2.1-90.1"/>
		<path class="st2" d="M102.2,346.7c-5.7-1.6,33.3,11.5,33.3,75.5"/>
		<path class="st2" d="M68.1,346.7c5.7-1.6-33.3,11.5-33.3,75.5"/>
		<path class="st3" d="M68.3,342.6c-4.8,8.6-12.3,12-17.9,35c-2.2,9.1-2.7,17.3,0,30.8c1,4.8,12.1,13.3,24,15.3
			c6.3,1.1,13.8,0.4,24.2-1.1c3.8-0.5,19-3.7,20-14.9c0.8-8.5,3.7-17.6,0-30.8c-3.2-11.2-6.6-16.4-20.6-36.5
			c-13.9-19.9-12.8-19.6-12.8-19.6S73.2,333.8,68.3,342.6"/>
		<path class="st4" d="M109.5,359.8c-2.2-4.5-5.2-8.6-7.3-13.2c-1.1-2.3-2.6-5.9-5.5-6.7c-0.5-0.4-1.1-0.7-1.7-0.9
			c0.7-0.3,1.4-0.7,2.1-1c0.8-0.4,1.5-0.9,2.3-1.4c-4.5,1.2-9.1,2.2-12.9,5c0.5-0.1,1.1-0.2,1.6-0.3c-1,1.2-1.7,2.7-1.7,4.4
			c0,4.8,2.6,9.1,5.2,13.1c4.4,6.7,7.4,12.3,8.4,20.3c0.8,6.8,0.1,14.2-1.5,20.8c-1.3,5.2-6.3,8.4-7.3,13.6c-1,5.4,3.6,5.5,7.9,4.5
			c1.1,0.3,2.3,0,2.8-0.8c1.3-0.4,2.4-0.9,3.1-1.2c8.7-4.1,11.7-11.5,12.3-20.4C118.2,383.2,114.9,371,109.5,359.8"/>
		<path class="st5" d="M67.2,342.6c-4.8,8.6-12.3,12-17.9,35c-2.2,9.1-2.7,17.3,0,30.8c1,4.8,12.1,13.3,24,15.3
			c6.3,1.1,13.8,0.4,24.3-1.1c3.8-0.5,19-3.7,20-14.9c0.8-8.5,3.7-17.6,0-30.8c-3.2-11.2-6.6-16.4-20.6-36.5
			c-13.9-19.9-12.8-19.6-12.8-19.6S72.2,333.8,67.2,342.6z"/>
		<path class="st6" d="M111.4,310.9c0,15.7-12.7,28.5-28.5,28.5c-15.7,0-28.5-12.7-28.5-28.5c0-15.7,12.7-28.5,28.5-28.5
			C98.6,282.4,111.4,295.2,111.4,310.9"/>
		<path class="st7" d="M86.4,338.9c2.7-0.9,5.4-1.8,8-2.9c-0.1-0.1-0.3-0.1-0.4-0.2c0.7-0.3,1.4-0.7,2.1-1
			c8.1-4.4,17.3-14.8,12.8-24.1c-4.9-10.1-14.5,3.9-17.6,7.6c-3.4,4-8.5,6.3-13.7,6.7c-1.2-0.6-2.2-0.5-3.1,0
			c-5.9-0.4-11.4-3.4-14-9c-1.1-2.5-4.4-1.1-4.8,1.1c-2.1-1-5,1.3-3.5,3.5c0.6,0.9,1.2,1.8,1.9,2.6c0.5,2.4,2.2,4.4,4.1,6
			c0.6,0.5,1.2,0.7,1.9,0.7c0.1,0.5,0.3,1,0.8,1.4c7.8,5.9,17.1,8.6,26.2,6.9C86.7,338.4,86.5,338.6,86.4,338.9"/>
		<path class="st5" d="M110.3,310.9c0,15.7-12.7,28.5-28.5,28.5c-15.7,0-28.5-12.7-28.5-28.5c0-15.7,12.7-28.5,28.5-28.5
			S110.3,295.2,110.3,310.9z"/>
		<path class="st2" d="M69.4,342.4c0,0,4.3,7.4,13.2,7.4s11.9-7.4,11.9-7.4"/>
		<path class="st2" d="M60.8,282.1c0,0,0.8,6.1,19.2,13.2s34.7,7.8,34.9,8.3"/>
		<path class="st2" d="M74.3,276.4c0,0,0.8,12.6-7.6,22.6c-8.4,9.9-19.4,16.5-19.4,16.5"/>
		<path class="st8" d="M74.6,327.2c0,0,4.2,3.7,11,3c6.7-0.7,9.6-3.4,9.6-3.4"/>
		<path class="st1" d="M80.8,310.2c0-2.1-1.7-3.8-3.8-3.8c-2.1,0-3.8,1.7-3.8,3.8c0,2.1,1.7,3.8,3.8,3.8
			C79.1,314,80.8,312.3,80.8,310.2z"/>
		<path class="st1" d="M98.4,309.5c0-2.1-1.7-3.8-3.8-3.8c-2.1,0-3.8,1.7-3.8,3.8s1.7,3.8,3.8,3.8C96.7,313.3,98.4,311.6,98.4,309.5
			z"/>
		<path class="st9" d="M85.5,363.9l-1-12.7l-16.9-14.6l-6-3l-6.8,10.1c0,0,12.3,14.5,12.5,13.9s7.2-7.6,7.2-7.6L85.5,363.9z"/>
		<polygon class="st9" points="86.1,360.7 92.5,346.4 103.4,333 112.8,344 104.8,353.7 97.7,348.4 		"/>
		<line class="st10" x1="84.9" y1="359.5" x2="86.1" y2="424.4"/>
	</g>
	<polyline class="st11" points="81.1,349.5 78.4,356.1 82.6,361.4 75.9,411.5 83.3,429.2 96,412.7 88.9,362.2 92.5,357.6 
		88.9,348.6 81.8,349.5 	"/>
</g>
<path class="st12" d="M8.3,514c0,0-4.8,25.1-1.7,30.6c3,5.5,133.7,2.5,138.1,1.8c4.4-0.8,6.9-21.3,2.7-36.6
	c-4.2-15.3-134.1-1.2-134.1-1.2"/>
<g>
	<path class="st13" d="M26.9,519h-3.7c-0.5,0-0.9-0.2-1.2-0.5c-0.3-0.3-0.5-0.7-0.5-1.1c0-0.3,0.2-0.7,0.5-1.1
		c0.3-0.4,0.7-0.5,1.2-0.5H34c0.4,0,0.8,0.2,1.2,0.5c0.4,0.3,0.5,0.7,0.5,1.1c0,0.4-0.2,0.8-0.5,1.1c-0.3,0.3-0.7,0.5-1.2,0.5h-3.7
		v17.2c0,0.4-0.2,0.8-0.5,1.1c-0.3,0.3-0.7,0.5-1.2,0.5c-0.5,0-0.9-0.2-1.2-0.5c-0.3-0.3-0.5-0.7-0.5-1.1V519z"/>
	<path class="st13" d="M52.8,522.2c0,1.6-0.4,2.9-1.2,3.9c-0.8,1-1.9,1.7-3.3,2c0.8,1.2,1.5,2.4,2.3,3.6c0.8,1.2,1.5,2.4,2.3,3.6
		c0.1,0.1,0.1,0.2,0.2,0.4c0,0.2,0.1,0.3,0.1,0.4c0,0.5-0.2,0.9-0.6,1.2s-0.8,0.5-1.2,0.5c-0.6,0-1.1-0.2-1.4-0.7l-5.3-8.7h-2.8v7.8
		c0,0.4-0.2,0.8-0.5,1.1s-0.7,0.5-1.2,0.5c-0.5,0-0.8-0.2-1.2-0.5c-0.3-0.3-0.5-0.7-0.5-1.2v-18.5c0-0.5,0.2-0.9,0.6-1.3
		c0.4-0.4,0.8-0.6,1.3-0.6h5.4c1.4,0,2.5,0.2,3.4,0.6c0.9,0.4,1.7,0.9,2.2,1.4c0.6,0.6,1,1.3,1.2,2
		C52.7,520.6,52.8,521.4,52.8,522.2z M49.5,522.2c0-0.4-0.1-0.8-0.2-1.2c-0.1-0.4-0.3-0.7-0.6-1c-0.3-0.3-0.7-0.5-1.2-0.7
		c-0.5-0.2-1.2-0.3-2-0.3h-3.7v6.2h3.9c1.2,0,2.1-0.3,2.8-0.8C49.1,523.9,49.5,523.2,49.5,522.2z"/>
	<path class="st13" d="M58.9,536.6c-0.1,0.4-0.3,0.7-0.7,0.9c-0.3,0.2-0.7,0.3-0.9,0.3c-0.5,0-0.9-0.1-1.2-0.4
		c-0.3-0.3-0.5-0.7-0.5-1.1c0-0.1,0-0.2,0-0.3c0-0.1,0-0.2,0-0.3l6-18.3c0.2-0.5,0.4-1,0.7-1.3c0.3-0.3,0.8-0.5,1.4-0.5
		c0.6,0,1,0.2,1.3,0.5c0.3,0.4,0.5,0.8,0.7,1.3l6,18.3c0,0.1,0.1,0.2,0.1,0.3c0,0.1,0,0.2,0,0.3c0,0.5-0.2,0.9-0.5,1.1
		c-0.3,0.3-0.8,0.4-1.2,0.4c-0.6,0-1-0.2-1.2-0.5c-0.2-0.4-0.5-0.8-0.7-1.4l-1-3h-7.2L58.9,536.6z M63.7,520.6
		c-0.4,1.6-0.8,3.2-1.3,4.7c-0.5,1.5-0.9,3.1-1.4,4.6h5.3c-0.5-1.6-0.9-3.1-1.4-4.6C64.4,523.8,64,522.2,63.7,520.6z"/>
	<path class="st13" d="M76.5,537.5c-0.6,0-1-0.2-1.4-0.5c-0.4-0.4-0.6-0.8-0.6-1.3v-18c0-0.5,0.2-1,0.6-1.3c0.4-0.3,0.8-0.5,1.4-0.5
		h5.2c1.1,0,2,0.2,2.8,0.5c0.8,0.3,1.5,0.8,2,1.3c0.5,0.5,0.9,1.2,1.2,1.9c0.3,0.7,0.4,1.4,0.4,2.2c0,0.6-0.1,1.1-0.3,1.6
		c-0.2,0.5-0.4,0.9-0.8,1.3c-0.3,0.4-0.7,0.7-1.1,1c-0.4,0.3-0.9,0.5-1.4,0.8c0.5,0.2,1,0.4,1.5,0.6c0.5,0.2,0.9,0.6,1.3,0.9
		c0.4,0.4,0.7,0.8,1,1.4c0.3,0.5,0.4,1.2,0.4,2c0,0.9-0.2,1.7-0.5,2.5s-0.8,1.4-1.4,2c-0.6,0.6-1.4,1-2.3,1.3
		c-0.9,0.3-1.9,0.5-3,0.5H76.5z M81.5,524.7c0.4,0,0.8-0.1,1.2-0.2c0.4-0.1,0.7-0.3,1.1-0.6c0.3-0.2,0.6-0.6,0.8-0.9
		c0.2-0.4,0.3-0.8,0.3-1.3c0-0.4-0.1-0.7-0.2-1c-0.1-0.3-0.3-0.6-0.5-0.9c-0.2-0.2-0.5-0.4-0.9-0.6c-0.4-0.2-0.8-0.2-1.4-0.2H78v5.7
		H81.5z M78,527.9v6.5h3.6c1.3,0,2.3-0.3,2.9-0.9c0.6-0.6,0.9-1.3,0.9-2.3c0-1.1-0.4-1.9-1.1-2.5c-0.7-0.6-1.6-0.9-2.7-0.9H78z"/>
	<path class="st13" d="M93.8,536.6c-0.1,0.4-0.3,0.7-0.7,0.9c-0.3,0.2-0.7,0.3-0.9,0.3c-0.5,0-0.9-0.1-1.2-0.4
		c-0.3-0.3-0.5-0.7-0.5-1.1c0-0.1,0-0.2,0-0.3c0-0.1,0-0.2,0-0.3l6-18.3c0.2-0.5,0.4-1,0.7-1.3c0.3-0.3,0.8-0.5,1.4-0.5
		c0.6,0,1,0.2,1.3,0.5c0.3,0.4,0.5,0.8,0.7,1.3l6,18.3c0,0.1,0.1,0.2,0.1,0.3c0,0.1,0,0.2,0,0.3c0,0.5-0.2,0.9-0.5,1.1
		c-0.3,0.3-0.8,0.4-1.2,0.4c-0.6,0-1-0.2-1.2-0.5c-0.2-0.4-0.5-0.8-0.7-1.4l-1-3h-7.2L93.8,536.6z M98.6,520.6
		c-0.4,1.6-0.8,3.2-1.3,4.7c-0.5,1.5-0.9,3.1-1.4,4.6h5.3c-0.5-1.6-0.9-3.1-1.4-4.6C99.3,523.8,98.9,522.2,98.6,520.6z"/>
	<path class="st13" d="M117.7,530.5c0,1.1-0.1,2.2-0.3,3.1c-0.2,0.9-0.6,1.7-1.1,2.3c-0.5,0.6-1.2,1.1-2.1,1.5s-1.9,0.5-3.2,0.5
		c-0.2,0-0.5,0-0.9,0c-0.4,0-0.7-0.1-1-0.2c-0.3-0.1-0.6-0.3-0.8-0.5c-0.2-0.2-0.3-0.6-0.3-1c0-0.5,0.2-0.9,0.5-1.2
		c0.3-0.3,0.7-0.4,1-0.4c0.3,0,0.5,0,0.8,0.1c0.3,0.1,0.6,0.1,1.1,0.1c0.6,0,1.1-0.1,1.5-0.3c0.4-0.2,0.7-0.5,0.9-0.8
		c0.2-0.4,0.4-0.8,0.4-1.3c0.1-0.5,0.1-1.1,0.1-1.8v-13.3c0-0.5,0.2-0.8,0.5-1.1c0.3-0.3,0.7-0.5,1.2-0.5c0.5,0,0.8,0.2,1.2,0.5
		c0.3,0.3,0.5,0.7,0.5,1.1V530.5z"/>
	<path class="st13" d="M128.7,537.8c-1.3,0-2.3-0.2-3.3-0.6c-0.9-0.4-1.7-1-2.4-1.7c-0.6-0.7-1.1-1.6-1.4-2.5c-0.3-1-0.5-2-0.5-3.1
		v-6.3c0-1.1,0.1-2.1,0.4-3c0.3-1,0.7-1.8,1.3-2.5c0.6-0.7,1.4-1.3,2.3-1.7c1-0.4,2.1-0.6,3.5-0.6c1.4,0,2.5,0.2,3.5,0.6
		c1,0.4,1.7,1,2.3,1.7c0.6,0.7,1,1.6,1.3,2.5c0.3,1,0.4,2,0.4,3v6.3c0,1.1-0.2,2.1-0.5,3.1c-0.3,1-0.8,1.8-1.4,2.5
		c-0.6,0.7-1.4,1.3-2.4,1.7C131.1,537.6,130,537.8,128.7,537.8z M128.7,518.7c-1.5,0-2.6,0.4-3.2,1.3c-0.6,0.9-0.9,2-0.9,3.5v6.3
		c0,1.4,0.3,2.6,1,3.5c0.7,0.9,1.7,1.3,3.2,1.3c1.4,0,2.5-0.4,3.1-1.3c0.7-0.9,1-2.1,1-3.5v-6.3c0-1.4-0.3-2.6-0.9-3.5
		C131.3,519.1,130.2,518.7,128.7,518.7z"/>
</g>
</svg>
