<?xml version="1.0" encoding="utf-8"?>
<!-- Generator: Adobe Illustrator 19.0.0, SVG Export Plug-In . SVG Version: 6.00 Build 0)  -->
<svg version="1.1" id="Capa_1" xmlns="http://www.w3.org/2000/svg" xmlns:xlink="http://www.w3.org/1999/xlink" x="0px" y="0px"
	 viewBox="0 0 102 102" style="enable-background:new 0 0 102 102;" xml:space="preserve">
<style type="text/css">
	.st0{fill:#1F1F43;}
	.st1{fill:#FFFFFF;stroke:#1F1F43;stroke-width:1.5942;stroke-miterlimit:10;}
</style>
<circle id="XMLID_55_" class="st0" cx="50" cy="51.7" r="45.2"/>
<path id="XMLID_54_" class="st1" d="M77.3,42c0,0.5,0,1.1,0,1.6c0,16.9-12.9,36.6-36.6,36.6c-7.3,0-14.1-2.1-19.7-5.8
	c1,0.1,2,0.1,3,0.1c6,0,11.5-2,15.9-5.5c-5.6-0.1-10.4-3.8-12-8.9c0.8,0.1,1.6,0.3,2.4,0.3c1.1,0,2.3-0.1,3.4-0.5
	c-5.9-1.1-10.3-6.4-10.3-12.5v-0.1c1.8,1,3.8,1.5,5.8,1.6c-3.5-2.3-5.8-6.3-5.8-10.7c0-2.4,0.6-4.5,1.8-6.5
	c6.4,7.8,15.8,12.9,26.5,13.4c-0.3-1-0.4-1.9-0.4-2.9c0-7.2,5.8-12.8,12.9-12.8c3.8,0,7,1.5,9.4,4c2.9-0.6,5.6-1.6,8.2-3.1
	c-1,3-3,5.5-5.6,7.2c2.6-0.3,5.1-1,7.4-2C82,37.9,79.8,40.2,77.3,42L77.3,42z"/>
</svg>
