<?xml version="1.0" encoding="utf-8"?>
<!-- Generator: Adobe Illustrator 15.1.0, SVG Export Plug-In . SVG Version: 6.00 Build 0)  -->
<!DOCTYPE svg PUBLIC "-//W3C//DTD SVG 1.1//EN" "http://www.w3.org/Graphics/SVG/1.1/DTD/svg11.dtd">
<svg version="1.1" xmlns="http://www.w3.org/2000/svg" xmlns:xlink="http://www.w3.org/1999/xlink" x="0px" y="0px"
	 width="53.185px" height="53.186px" viewBox="79.939 77.181 53.185 53.186" enable-background="new 79.939 77.181 53.185 53.186"
	 xml:space="preserve">
<g id="Layer_1">
</g>
<g id="Layer_2">
	<circle fill="#6E6694" cx="106.531" cy="103.774" r="25.41"/>
	<path fill="#FFFFFF" d="M111.599,95.43v-3.803c0-0.488-0.297-0.932-0.749-1.114c-0.447-0.188-0.964-0.084-1.313,0.266l-7.284,7.332
		h-5.609c-0.671,0-1.207,0.539-1.207,1.204v8.702c0,0.666,0.536,1.206,1.207,1.206h5.55l7.348,7.332
		c0.229,0.231,0.539,0.354,0.854,0.354c0.152,0,0.311-0.028,0.457-0.095c0.451-0.184,0.747-0.625,0.747-1.113L111.599,95.43
		L111.599,95.43z M109.188,112.788l-5.619-5.595c0,0-0.291-0.383-0.659-0.383c-1.265,0-5.062,0-5.062,0v-6.288h4.908
		c0.321,0,0.627-0.129,0.855-0.356l5.576-5.615v3.609l0.003-0.001L109.188,112.788L109.188,112.788z"/>
	<path fill="#FFFFFF" d="M124.104,96.225c0.153,0.615-0.219,1.242-0.834,1.396l-9.04,2.276c-0.615,0.154-1.24-0.22-1.395-0.834l0,0
		c-0.154-0.615,0.218-1.24,0.834-1.396l9.04-2.276C123.324,95.237,123.949,95.611,124.104,96.225L124.104,96.225z"/>
	<path fill="#FFFFFF" d="M125.195,103.625c-0.017,0.634-0.543,1.136-1.178,1.119l-9.319-0.247c-0.634-0.017-1.135-0.545-1.116-1.179
		l0,0c0.017-0.634,0.543-1.135,1.178-1.118l9.318,0.245C124.713,102.461,125.214,102.992,125.195,103.625L125.195,103.625z"/>
	<path fill="#FFFFFF" d="M124.255,111.043c-0.188,0.605-0.83,0.947-1.438,0.761l-8.906-2.75c-0.605-0.188-0.946-0.83-0.758-1.438
		l0,0c0.188-0.605,0.829-0.947,1.436-0.759l8.908,2.751C124.101,109.792,124.44,110.438,124.255,111.043L124.255,111.043z"/>
</g>
</svg>
