<?xml version="1.0" encoding="utf-8"?>
<!-- Generator: Adobe Illustrator 19.0.0, SVG Export Plug-In . SVG Version: 6.00 Build 0)  -->
<svg version="1.1" id="Capa_1" xmlns="http://www.w3.org/2000/svg" xmlns:xlink="http://www.w3.org/1999/xlink" x="0px" y="0px"
	 viewBox="0 0 209.8 209.8" style="enable-background:new 0 0 209.8 209.8;" xml:space="preserve">
<style type="text/css">
	.st0{fill:none;stroke:#264A69;stroke-width:4.673;stroke-miterlimit:10;}
	.st1{fill:#214D6A;}
	.st2{fill:#0EA8DC;}
</style>
<g id="XMLID_1_">
	<circle id="XMLID_257_" class="st0" cx="104.9" cy="104.9" r="89.9"/>
	<path id="XMLID_254_" class="st1" d="M154.1,143.6c0,0-90.4-1.9-90.4-1.9c-0.9,0-1.7-0.7-1.8-1.7c-2.4-21.2-2.8-43.1-3.1-64.2
		c-0.1-4.1-0.1-8.2-0.2-12.3c0-0.5,0.2-1,0.6-1.4c0.4-0.4,0.9-0.5,1.4-0.5c18.7,1.5,37.7,2.2,58.1,2.2c10.5,0,21.7-0.2,33.1-0.6
		c0.5,0,1,0.2,1.4,0.5c0.4,0.4,0.6,0.8,0.6,1.3c0,2.7,0,5.5,0,8.2c0,20.6,0.2,44.6,2.3,68.2c0,0.5-0.1,1.1-0.5,1.4
		C155.1,143.4,154.6,143.6,154.1,143.6z M65.4,138l86.7,1.8c-1.9-23.1-2.1-46.4-2.1-66.5c0-2.1,0-4.2,0-6.3
		c-10.8,0.3-21.3,0.5-31.3,0.5c-19.8,0-38.2-0.7-56.4-2c0.1,3.4,0.1,6.8,0.2,10.2C62.8,96.3,63.1,117.4,65.4,138z"/>
	<path id="XMLID_258_" class="st1" d="M163.3,150.7c0,0-107.8-2.3-107.8-2.3c-1.1,0-2-0.9-2.2-2c-2.9-25.3-3.3-51.3-3.7-76.5
		c-0.1-4.9-0.1-9.8-0.2-14.6c0-0.6,0.2-1.2,0.7-1.7c0.5-0.4,1.1-0.6,1.7-0.6c22.3,1.7,44.9,2.6,69.3,2.6c12.6,0,25.8-0.2,39.4-0.7
		c0.6,0,1.2,0.2,1.6,0.6c0.4,0.4,0.7,1,0.7,1.6c0,3.3,0,6.5,0,9.8c0,24.6,0.2,53.2,2.7,81.3c0.1,0.6-0.2,1.3-0.6,1.7
		C164.5,150.4,163.9,150.7,163.3,150.7z M57.5,144l103.3,2.2c-2.3-27.5-2.5-55.3-2.5-79.2c0-2.5,0-5,0-7.5
		c-12.8,0.4-25.4,0.6-37.3,0.6c-23.6,0-45.6-0.8-67.2-2.4c0.1,4.1,0.1,8.1,0.2,12.2C54.5,94.3,54.9,119.5,57.5,144z"/>
	<path id="XMLID_250_" class="st1" d="M101.3,82.5c-1,0-1.9-0.8-1.9-1.8c0-1,0.8-1.9,1.8-1.9c11.7-0.2,23.8-0.4,35.8-0.4
		c1,0,1.9,0.8,1.9,1.9c0,1-0.8,1.9-1.9,1.9C125.2,82.2,113.1,82.4,101.3,82.5z"/>
	<path id="XMLID_249_" class="st1" d="M137.8,90.6c-6.3-0.2-12.7-0.3-18.8-0.4c-6.2-0.1-12.6-0.2-18.8-0.4c-1,0-1.8-0.9-1.8-1.9
		c0-1,0.9-1.8,1.9-1.8c6.2,0.2,12.6,0.3,18.8,0.4c6.2,0.1,12.6,0.2,18.8,0.4c1,0,1.8,0.9,1.8,1.9C139.7,89.8,138.8,90.6,137.8,90.6z
		"/>
	<path id="XMLID_248_" class="st1" d="M119.3,99c-6.2,0-12.5-0.1-18.8-0.3c-1,0-1.8-0.9-1.8-1.9c0-1,0.9-1.8,1.9-1.8
		c12.4,0.4,24.9,0.4,37.3,0c1,0,1.9,0.8,1.9,1.8c0,1-0.8,1.9-1.8,1.9C131.8,98.9,125.5,99,119.3,99z"/>
	<rect id="XMLID_213_" x="74.9" y="163.1" class="st1" width="75.9" height="3.2"/>
	
		<rect id="XMLID_262_" x="73.9" y="154.7" transform="matrix(0.6969 -0.7172 0.7172 0.6969 -85.9418 109.1582)" class="st1" width="24.4" height="3.2"/>
	
		<rect id="XMLID_263_" x="129.2" y="154.2" transform="matrix(0.623 0.7822 -0.7822 0.623 175.1651 -51.9377)" class="st1" width="24.4" height="3.2"/>
	<path id="XMLID_273_" class="st2" d="M86.8,88.3c2.2-2.2,1.4-7.1-2.7-7c-1.3,0-2.5,0.1-3.8,0.1c-0.7,0-1.4,0.2-1.9,0.5
		c-3.1-3.2-9.1,0.6-6.4,4.8c0.5,0.7-0.5,4.4-0.6,5.6c-0.2,2-0.4,4.3,0.8,6.1c1.1,1.8,3.2,2.6,5.2,2.8c1.9,0.2,4.5,0.4,6.3-0.1
		c4.2-1.2,4.2-5.6,3.8-9.1C87.4,90.6,87.1,89.4,86.8,88.3z"/>
	<path id="XMLID_269_" class="st2" d="M134.2,111.1c-9.2-0.1-20.5-2-29.4,0.9c-4.6,1.5-3,8.4,1.2,8c0.5,0.2,1,0.4,1.6,0.4
		c9.3,0.8,18.5,0.2,27.7-1.4C139.8,118.2,138.6,111.2,134.2,111.1z"/>
	<path id="XMLID_251_" class="st1" d="M87.5,101.8c-1.8,0-3.5,0-5.3-0.1c-1.7,0-3.5-0.1-5.2-0.1c-1.9,0-3.5,0-5,0.1
		c-1,0.1-1.9-0.7-2-1.7c-0.3-4.2-0.4-8.5-0.6-12.6c-0.1-2.6-0.2-5.2-0.3-7.8c0-0.5,0.2-1.1,0.6-1.4c0.4-0.4,0.9-0.6,1.4-0.5
		c3.4,0.2,6.8,0.3,10.2,0.4c2.5,0.1,5,0.1,7.5,0.2c1,0,1.8,0.8,1.8,1.8c0,1.6,0,3.2,0,4.9v1.6c0,3.3,0.1,9.3,0.6,13.1
		c0.1,0.5-0.1,1.1-0.4,1.5c-0.3,0.4-0.9,0.6-1.4,0.6C88.8,101.8,88.1,101.8,87.5,101.8z M77,97.9c1.8,0,3.5,0,5.3,0.1
		c1.7,0,3.3,0.1,5,0.1c-0.3-3.9-0.4-8.7-0.4-11.5V85c0-1,0-2,0-3c-1.9-0.1-3.7-0.1-5.6-0.1c-2.7-0.1-5.5-0.1-8.3-0.3
		c0.1,1.9,0.2,3.8,0.2,5.7c0.1,3.5,0.3,7.1,0.5,10.6C74.7,97.9,75.8,97.9,77,97.9z"/>
	<path id="XMLID_245_" class="st1" d="M105,123.5c-0.9,0-1.9,0-2.8,0c-1,0-1.8-0.8-1.8-1.7c-0.1-0.9-0.1-1.9-0.1-3.1
		c0-1.3,0-2.6,0.1-3.9c0-1.3,0.1-2.5,0.1-3.8l0-0.5c0-1,0.8-1.9,1.8-1.9c3.5,0,7,0,10.5,0c1.9,0,3.9,0,5.8,0c5.4,0,11.7-0.1,18-0.8
		c0.5-0.1,1.1,0.1,1.5,0.5c0.4,0.4,0.6,0.9,0.6,1.4l0,0.4c0,3.1,0.3,6.2,0.6,9.3l0.1,0.6c0.1,0.5-0.1,1-0.4,1.4
		c-0.3,0.4-0.8,0.6-1.3,0.7C127.6,122.7,116.2,123.5,105,123.5z M104.1,119.8c10.6,0,21.6-0.6,31.4-1.3c-0.2-2.2-0.4-4.4-0.5-6.6
		c-5.8,0.5-11.5,0.6-16.3,0.6c-1.9,0-3.9,0-5.8,0c-2.9,0-5.7,0-8.6,0c0,0.8,0,1.7-0.1,2.5c0,1.3-0.1,2.5-0.1,3.8
		C104.1,119.1,104.1,119.4,104.1,119.8z"/>
</g>
</svg>
