<?xml version="1.0" encoding="utf-8"?>
<!-- Generator: Adobe Illustrator 19.0.0, SVG Export Plug-In . SVG Version: 6.00 Build 0)  -->
<svg version="1.1" id="Capa_1" xmlns="http://www.w3.org/2000/svg" xmlns:xlink="http://www.w3.org/1999/xlink" x="0px" y="0px"
	 viewBox="0 0 209.8 209.8" style="enable-background:new 0 0 209.8 209.8;" xml:space="preserve">
<style type="text/css">
	.st0{fill:#F0F0F1;stroke:#264A69;stroke-width:3.4272;stroke-miterlimit:10;}
	.st1{fill:#E8E6EE;}
	.st2{fill:none;stroke:#264A69;stroke-width:1.8138;stroke-miterlimit:10;}
	.st3{fill:#FFFFFF;stroke:#264A69;stroke-width:3.4272;stroke-miterlimit:10;}
	.st4{fill:none;stroke:#264A69;stroke-width:4.673;stroke-miterlimit:10;}
	.st5{fill:#264A69;stroke:#264A69;stroke-width:1.8138;stroke-miterlimit:10;}
</style>
<g id="XMLID_216_">
	
		<rect id="XMLID_235_" x="54" y="72.2" transform="matrix(-0.9934 0.115 -0.115 -0.9934 184.5193 225.8229)" class="st0" width="63.4" height="92"/>
	<path id="XMLID_234_" class="st1" d="M119.9,140.4c-0.3-0.1-0.4,0-0.7,0c-0.5,0-0.6,0-0.2,0c-0.4,0-0.7-0.1-1.1-0.2
		c0,0-0.1,0-0.1,0c-0.5-0.2-1.1-0.3-1.6-0.5c-0.8-0.2-1.8-0.1-2.6-0.1c-1.2,0-2.4-0.1-3.6,0c-2.8,0.1-5.7,0.5-8.6,0.9
		c-0.8-4.5-1.9-8.9-2.6-13.4c-0.5-3-0.9-6.1-1.3-9.1c-0.5-3-1.2-6-1.8-8.9c-1.3-5.8-1.6-11.8-2.2-17.7c-0.3-3.2-0.8-6.1-1.8-9.2
		c-0.8-2.7-1.8-5-2.1-7.5c-0.1-0.9-0.5-1.7-1.1-2.3c-1.9,0.5-3.9,0.8-5.9,0.8c-0.4,0.7-0.6,1.6-0.5,2.4c0.4,2.8,1.3,5.5,2.2,8.2
		c0.9,2.8,1.4,5.1,1.7,8c0.6,6.1,0.9,12.2,2.2,18.2c0.6,2.8,1.3,5.5,1.7,8.4c0.5,3,0.9,6.1,1.3,9.1c0.9,6.1,2.6,12.1,3.4,18.2
		c0.3,2.1,2.2,3.7,4.2,3.4c0.6-0.1,1.1-0.3,1.6-0.6c3.3-0.4,6.7-0.9,10-1.1c1.6-0.1,3.4-0.2,4.9,0.2c-0.4-0.1-0.4-0.1,0.1,0
		c0.6,0.2,1.1,0.3,1.7,0.5c1,0.3,2,0.2,3,0.2c0.6,0,0.1-0.3,0.6-0.6C119.9,145.2,120.4,142.7,119.9,140.4z"/>
	<g id="XMLID_228_">
		<path id="XMLID_233_" class="st2" d="M63.9,109c1.6-0.9,2.9-3.3,4.4-4.7c0.3,1-0.2,4,0.9,4.4c1.2,0.5,3.6-3.5,4.4-4.1
			c-0.9,4.2,4.6,0,5.5-1.1c0,0.9,0.2,1.9,0.6,2.7c1.2-0.6,2.2-2.1,3.3-2.7c-0.7,4.4,4.3-1.1,5.5-1.7c0.1,1.2,0,2.4,0.1,3.6
			c2.5,0.3,4.1-2,6.3-2.8c1.9-0.6,3.2-0.4,5.2-2.3c-0.5,1.1-1.2,2-1.3,3.2c1.7-0.1,2.7-1.9,4.7-1.6"/>
		<path id="XMLID_232_" class="st2" d="M64.4,113.4c2.4,4.6,2.2,3.4,5.7,0.3c0.5,2.9,4-0.9,5.3-1.1c-0.1,0.4,0.1,0.9,0.1,1.3
			c1.9,0,3.3-1.9,5.2-2.1c-0.1,0.5,0.1,1.1,0.1,1.6c2.2,0.1,4.1-2,6.3-2.1c0,1.5-0.5,3.9,1.1,4.4c1.5,0.5,4.3-3.7,5-4.6
			c0.9,2.8,7.9-1.1,9.4,0.1c0.4-0.2,0.1-0.5,0.3-0.7"/>
		<path id="XMLID_231_" class="st2" d="M64.4,122.8c0,0.4,0,0.9,0,1.3c1.6,0.1,2.2-2,3.5-2.7c-0.1,0.5,0.2,1.3,0.1,1.9
			c1.9,0.2,3.5-2,5-2.9c-0.2,1-0.2,2-0.3,2.9c1.9-0.2,4.5-1.8,6-2.9c-0.1,4.1,5.7-3,6.1,0.4c2.3,0.4,4.1-1,6-1.8
			c-0.5,0.7-0.8,1.7-1,2.4c2-0.5,3.9-1.7,6.1-2.1c1.6-0.3,3.5-0.2,4.9-1.1c0.8,1.5,2.4,2.4,3.4,0.5"/>
		<path id="XMLID_230_" class="st2" d="M68.3,129.1c-0.6,0.5-0.8,1.5-0.5,2.4c2.1-0.2,3.1-2.7,4.6-3.8c0,3.6,6.2-0.4,7.5-1.1
			c-0.3,0.7,0,1.8-0.2,2.4c2.8,0.2,4.2-3.1,6.8-3.8c-1,4.7,5.6,1.2,7.1-0.1c-0.5,0.7-0.2,0.9-0.4,1.7c2.2,0.5,3.6-1.2,5.5-1.8
			c-0.1,0.5,0.2,1.3,0.1,1.8c1.6,0,4.9-0.6,6-1.6"/>
		<path id="XMLID_229_" class="st2" d="M67.7,138.8c1.6,0.9,3.7-1.5,4.6-2.7c-0.9,3.9,4,0.8,5-0.5c-0.9,4.5,3.9-0.1,5.3-0.3
			c-0.5,4.7,4.6-0.6,6.1-0.8c-0.1,0.3-0.1,1-0.2,1.3c2-0.8,4.4-2.5,6.6-2.4c-0.4,0.6-0.3,1.5-0.5,2.1c2.1,0,4.4-1.1,6.3-1.9
			c-0.2,0.5,0,1.4-0.2,1.9c1.7,0,3-1.4,4.6-1.6c0.7,1,1.9,0.2,2.5-0.9"/>
	</g>
	
		<rect id="XMLID_227_" x="92.2" y="48.2" transform="matrix(-0.9934 0.115 -0.115 -0.9934 257.7767 173.5244)" class="st3" width="63.4" height="92"/>
	<path id="XMLID_226_" class="st2" d="M103.7,86.8c1.6-0.9,2.9-3.3,4.4-4.7c0.3,1-0.2,4,0.9,4.4c1.2,0.5,3.6-3.5,4.4-4.1
		c-0.9,4.2,4.6,0,5.5-1.1c0,0.9,0.2,1.9,0.6,2.7c1.2-0.6,2.2-2.1,3.3-2.7c-0.7,4.4,4.3-1.1,5.5-1.7c0.1,1.2,0,2.4,0.1,3.6
		c2.5,0.3,4.1-2,6.3-2.8c1.9-0.6,3.2-0.3,5.2-2.3c-0.5,1.1-1.2,2-1.3,3.2c1.7-0.1,2.7-1.9,4.7-1.6"/>
	<path id="XMLID_225_" class="st2" d="M104.2,91.2c2.4,4.6,2.2,3.4,5.7,0.3c0.6,2.9,4-0.9,5.3-1.1c-0.1,0.4,0.1,0.9,0.1,1.3
		c1.9,0,3.3-1.9,5.2-2.1c-0.1,0.5,0.1,1.1,0.1,1.6c2.2,0.1,4.1-2,6.3-2.1c0,1.5-0.5,3.9,1.1,4.4c1.5,0.5,4.3-3.7,5-4.6
		c0.9,2.8,7.9-1.1,9.4,0.1c0.4-0.2,0.1-0.5,0.3-0.7"/>
	<path id="XMLID_224_" class="st2" d="M104.2,100.6c0,0.4,0,0.9,0,1.3c1.6,0.1,2.2-2,3.5-2.7c-0.1,0.6,0.2,1.3,0.1,1.9
		c1.9,0.2,3.5-2,5-2.9c-0.1,1-0.2,2-0.3,2.9c1.9-0.2,4.5-1.8,6-2.9c-0.1,4.1,5.7-3,6.1,0.4c2.3,0.4,4.1-1,6-1.8
		c-0.5,0.7-0.8,1.7-1,2.4c2-0.5,3.9-1.7,6.1-2.1c1.6-0.3,3.5-0.2,4.9-1.1c0.8,1.5,2.4,2.4,3.4,0.5"/>
	<path id="XMLID_223_" class="st2" d="M108.1,107c-0.6,0.5-0.8,1.5-0.5,2.4c2.1-0.2,3.1-2.7,4.6-3.8c0,3.6,6.2-0.4,7.5-1.1
		c-0.3,0.7,0,1.8-0.2,2.4c2.8,0.2,4.2-3.1,6.8-3.8c-1,4.7,5.6,1.2,7.1-0.1c-0.5,0.7-0.2,0.9-0.4,1.7c2.2,0.5,3.6-1.2,5.5-1.8
		c-0.1,0.5,0.2,1.3,0.1,1.8c1.6,0,4.9-0.6,6-1.6"/>
	<path id="XMLID_222_" class="st2" d="M107.5,116.6c1.6,0.9,3.7-1.5,4.6-2.7c-0.8,3.9,4,0.8,5-0.5c-0.9,4.5,3.9-0.1,5.3-0.3
		c-0.5,4.7,4.6-0.6,6.1-0.8c-0.1,0.3-0.1,1-0.2,1.3c2-0.8,4.4-2.5,6.6-2.4c-0.4,0.6-0.3,1.5-0.5,2.1c2.1,0,4.4-1.1,6.3-1.9
		c-0.2,0.5,0,1.4-0.2,1.9c1.7,0,3-1.4,4.6-1.6c0.7,1,1.9,0.2,2.5-0.9"/>
	<circle id="XMLID_220_" class="st4" cx="104.9" cy="104.9" r="88.4"/>
	<path id="XMLID_219_" class="st5" d="M61.8,96.7c-0.1,0.3-0.4,0.7-0.8,0.8c-0.5,0.1-1-0.4-1-0.9c0-0.2,0-0.4,0.1-0.5l3.3-8
		l-4.9-6.3c-0.1-0.1-0.2-0.3-0.2-0.5c-0.1-0.5,0.3-1,0.8-1c0.4-0.1,0.8,0.3,1.1,0.7l4.1,5.5l2.5-6.3c0.2-0.4,0.5-0.9,0.9-1
		c0.5-0.1,0.9,0.3,1,0.8c0,0.2,0,0.4-0.1,0.5l-3.1,7.3l5.3,6.9c0.1,0.1,0.2,0.3,0.2,0.5c0.1,0.5-0.3,1-0.8,1.1
		c-0.5,0.1-0.8-0.3-1-0.6l-4.7-6.2L61.8,96.7z"/>
	<path id="XMLID_218_" class="st5" d="M101.9,74.9l-0.6-5.8l-5.2-8.5c-0.1-0.1-0.1-0.3-0.1-0.4c-0.1-0.5,0.4-1,0.9-1.1
		c0.3,0,0.6,0.1,0.8,0.3l4.4,7.4l2.8-8.2c0.1-0.3,0.4-0.4,0.7-0.5c0.5-0.1,1,0.3,1.1,0.9c0,0.1,0,0.3,0,0.5l-3.3,9.5l0.6,5.8
		c0.1,0.5-0.3,1-0.9,1.1C102.5,75.9,102,75.5,101.9,74.9z"/>
</g>
</svg>
