<?xml version="1.0" encoding="utf-8"?>
<!-- Generator: Adobe Illustrator 19.0.0, SVG Export Plug-In . SVG Version: 6.00 Build 0)  -->
<svg version="1.1" id="Capa_1" xmlns="http://www.w3.org/2000/svg" xmlns:xlink="http://www.w3.org/1999/xlink" x="0px" y="0px"
	 viewBox="0 0 209.8 209.8" style="enable-background:new 0 0 209.8 209.8;" xml:space="preserve">
<style type="text/css">
	.st0{fill:none;stroke:#264A69;stroke-width:4.673;stroke-miterlimit:10;}
	.st1{fill:#214D6A;}
	.st2{fill:#0EA8DC;}
	.st3{fill:#F1851D;}
</style>
<g id="XMLID_1_">
	<circle id="XMLID_272_" class="st0" cx="104.9" cy="104.9" r="89.9"/>
	<circle id="XMLID_325_" class="st0" cx="62" cy="54.8" r="6.1"/>
	<circle id="XMLID_326_" class="st0" cx="71.4" cy="54.8" r="6.1"/>
	<circle id="XMLID_327_" class="st0" cx="80.8" cy="54.8" r="6.1"/>
	<circle id="XMLID_328_" class="st0" cx="90.2" cy="54.8" r="6.1"/>
	<circle id="XMLID_329_" class="st0" cx="99.6" cy="54.8" r="6.1"/>
	<circle id="XMLID_330_" class="st0" cx="109" cy="54.8" r="6.1"/>
	<circle id="XMLID_331_" class="st0" cx="118.4" cy="54.8" r="6.1"/>
	<circle id="XMLID_332_" class="st0" cx="127.8" cy="54.8" r="6.1"/>
	<circle id="XMLID_333_" class="st0" cx="137.2" cy="54.8" r="6.1"/>
	<circle id="XMLID_334_" class="st0" cx="146.6" cy="54.8" r="6.1"/>
	<path id="XMLID_274_" class="st1" d="M159.9,151.1c0,0-107.8-2.3-107.8-2.3c-1.1,0-2-0.9-2.2-2c-2.9-25.3-3.3-51.3-3.7-76.5
		c-0.1-4.9-0.1-9.8-0.2-14.6c0-0.6,0.2-1.2,0.7-1.7c0.5-0.4,1.1-0.6,1.7-0.6c22.3,1.7,44.9,2.6,69.3,2.6c12.6,0,25.8-0.2,39.4-0.7
		c0.6,0,1.2,0.2,1.6,0.6c0.4,0.4,0.7,1,0.7,1.6c0,3.3,0,6.5,0,9.8c0,24.6,0.2,53.2,2.7,81.3c0.1,0.6-0.2,1.3-0.6,1.7
		C161.1,150.8,160.5,151.1,159.9,151.1z M54.1,144.4l103.3,2.2c-2.3-27.5-2.5-55.3-2.5-79.2c0-2.5,0-5,0-7.5
		c-12.8,0.4-25.4,0.6-37.3,0.6c-23.6,0-45.6-0.8-67.2-2.4c0.1,4.1,0.1,8.1,0.2,12.2C51.1,94.7,51.5,119.9,54.1,144.4z"/>
	<path id="XMLID_339_" class="st1" d="M167.7,72.3c0-3.3,0-6.5,0-9.8c0-0.6-0.2-1.2-0.7-1.6c-0.4-0.4-1-0.7-1.6-0.6
		c-2.9,0.1-5.8,0.2-8.7,0.3c-0.2,1.8-1,3.4-2.4,4.5c3-0.1,6-0.2,9-0.3c0,2.5,0,5,0,7.5c0,24,0.2,51.7,2.5,79.2l-103.3-2.2
		c-0.1-0.8-0.1-1.5-0.2-2.3c-1,0.9-2.4,1.5-4.2,1.5c0,0-0.1,0-0.1,0c0.1,1.1,0.2,2.2,0.3,3.3c0.1,1.1,1.1,2,2.2,2
		c0,0,107.8,2.3,107.8,2.3c0.6,0,1.2-0.3,1.6-0.7c0.4-0.5,0.6-1.1,0.6-1.7C167.9,125.5,167.7,96.9,167.7,72.3z"/>
	<path id="XMLID_280_" class="st2" d="M76.7,76.4c1.8-1.8,1.1-5.7-2.2-5.6c-1,0-2.1,0-3.1,0.1c-0.6,0-1.1,0.2-1.5,0.4
		c-2.5-2.6-7.3,0.5-5.2,3.9c0.4,0.6-0.4,3.6-0.5,4.6c-0.1,1.7-0.3,3.5,0.6,5c0.9,1.5,2.6,2.1,4.2,2.2c1.5,0.1,3.6,0.3,5.1-0.1
		c3.4-0.9,3.4-4.5,3.1-7.4C77.2,78.3,77,77.3,76.7,76.4z"/>
	<path id="XMLID_277_" class="st1" d="M77.3,87.4c-1.4,0-2.9,0-4.3-0.1c-1.4,0-2.8-0.1-4.2-0.1c-1.5,0-2.8,0-4,0.1
		c-0.8,0.1-1.6-0.6-1.6-1.4c-0.2-3.4-0.4-6.9-0.5-10.2c-0.1-2.1-0.2-4.2-0.3-6.3c0-0.4,0.1-0.9,0.5-1.2c0.3-0.3,0.7-0.5,1.2-0.4
		c2.7,0.2,5.5,0.2,8.2,0.3c2,0,4,0.1,6.1,0.2c0.8,0,1.4,0.7,1.5,1.5c0,1.3,0,2.6,0,3.9V75c0,2.6,0.1,7.5,0.5,10.6
		c0.1,0.4-0.1,0.9-0.4,1.2c-0.3,0.3-0.7,0.5-1.1,0.5C78.3,87.4,77.8,87.4,77.3,87.4z M68.8,84.2c1.4,0,2.9,0,4.3,0.1
		c1.3,0,2.7,0.1,4,0.1c-0.3-3.1-0.3-7-0.3-9.3v-1.3c0-0.8,0-1.6,0-2.4c-1.5-0.1-3-0.1-4.6-0.1c-2.2,0-4.4-0.1-6.7-0.2
		c0.1,1.6,0.1,3.1,0.2,4.7c0.1,2.8,0.2,5.7,0.4,8.6C66.9,84.2,67.8,84.2,68.8,84.2z"/>
	<path id="XMLID_284_" class="st2" d="M98.3,76.4c1.8-1.8,1.1-5.7-2.2-5.6c-1,0-2.1,0-3.1,0.1c-0.6,0-1.1,0.2-1.5,0.4
		c-2.5-2.6-7.3,0.5-5.2,3.9c0.4,0.6-0.4,3.6-0.5,4.6c-0.1,1.7-0.3,3.5,0.6,5c0.9,1.5,2.6,2.1,4.2,2.2c1.5,0.1,3.6,0.3,5.1-0.1
		c3.4-0.9,3.4-4.5,3.1-7.4C98.8,78.3,98.6,77.3,98.3,76.4z"/>
	<path id="XMLID_281_" class="st1" d="M98.9,87.4c-1.4,0-2.9,0-4.3-0.1c-1.4,0-2.8-0.1-4.2-0.1c-1.5,0-2.8,0-4,0.1
		c-0.8,0.1-1.6-0.6-1.6-1.4c-0.2-3.4-0.4-6.9-0.5-10.2c-0.1-2.1-0.2-4.2-0.3-6.3c0-0.4,0.1-0.9,0.5-1.2c0.3-0.3,0.7-0.5,1.2-0.4
		c2.7,0.2,5.5,0.2,8.2,0.3c2,0,4,0.1,6.1,0.2c0.8,0,1.4,0.7,1.5,1.5c0,1.3,0,2.6,0,3.9V75c0,2.6,0.1,7.5,0.5,10.6
		c0.1,0.4-0.1,0.9-0.4,1.2c-0.3,0.3-0.7,0.5-1.1,0.5C99.9,87.4,99.4,87.4,98.9,87.4z M90.4,84.2c1.4,0,2.9,0,4.3,0.1
		c1.3,0,2.7,0.1,4,0.1c-0.3-3.1-0.3-7-0.3-9.3v-1.3c0-0.8,0-1.6,0-2.4c-1.5-0.1-3-0.1-4.6-0.1c-2.2,0-4.4-0.1-6.7-0.2
		c0.1,1.6,0.1,3.1,0.2,4.7c0.1,2.8,0.2,5.7,0.4,8.6C88.6,84.2,89.5,84.2,90.4,84.2z"/>
	<path id="XMLID_288_" class="st2" d="M119.9,76.4c1.8-1.8,1.1-5.7-2.2-5.6c-1,0-2.1,0-3.1,0.1c-0.6,0-1.1,0.2-1.5,0.4
		c-2.5-2.6-7.3,0.5-5.2,3.9c0.4,0.6-0.4,3.6-0.5,4.6c-0.1,1.7-0.3,3.5,0.6,5c0.9,1.5,2.6,2.1,4.2,2.2c1.5,0.1,3.6,0.3,5.1-0.1
		c3.4-0.9,3.4-4.5,3.1-7.4C120.4,78.3,120.2,77.3,119.9,76.4z"/>
	<path id="XMLID_285_" class="st1" d="M120.5,87.4c-1.4,0-2.9,0-4.3-0.1c-1.4,0-2.8-0.1-4.2-0.1c-1.5,0-2.8,0-4,0.1
		c-0.8,0.1-1.6-0.6-1.6-1.4c-0.2-3.4-0.4-6.9-0.5-10.2c-0.1-2.1-0.2-4.2-0.3-6.3c0-0.4,0.1-0.9,0.5-1.2c0.3-0.3,0.7-0.5,1.2-0.4
		c2.7,0.2,5.5,0.2,8.2,0.3c2,0,4,0.1,6.1,0.2c0.8,0,1.4,0.7,1.5,1.5c0,1.3,0,2.6,0,3.9V75c0,2.6,0.1,7.5,0.5,10.6
		c0.1,0.4-0.1,0.9-0.4,1.2c-0.3,0.3-0.7,0.5-1.1,0.5C121.6,87.4,121,87.4,120.5,87.4z M112,84.2c1.4,0,2.9,0,4.3,0.1
		c1.3,0,2.7,0.1,4,0.1c-0.3-3.1-0.3-7-0.3-9.3v-1.3c0-0.8,0-1.6,0-2.4c-1.5-0.1-3-0.1-4.6-0.1c-2.2,0-4.4-0.1-6.7-0.2
		c0.1,1.6,0.1,3.1,0.2,4.7c0.1,2.8,0.2,5.7,0.4,8.6C110.2,84.2,111.1,84.2,112,84.2z"/>
	<path id="XMLID_300_" class="st2" d="M76.7,99.3c1.8-1.8,1.1-5.7-2.2-5.6c-1,0-2.1,0-3.1,0.1c-0.6,0-1.1,0.2-1.5,0.4
		c-2.5-2.6-7.3,0.5-5.2,3.9c0.4,0.6-0.4,3.6-0.5,4.6c-0.1,1.7-0.3,3.5,0.6,5c0.9,1.5,2.6,2.1,4.2,2.2c1.5,0.1,3.6,0.3,5.1-0.1
		c3.4-0.9,3.4-4.5,3.1-7.4C77.2,101.2,77,100.2,76.7,99.3z"/>
	<path id="XMLID_297_" class="st1" d="M77.3,110.3c-1.4,0-2.9,0-4.3-0.1c-1.4,0-2.8-0.1-4.2-0.1c-1.5,0-2.8,0-4,0.1
		c-0.8,0.1-1.6-0.6-1.6-1.4c-0.2-3.4-0.4-6.9-0.5-10.2c-0.1-2.1-0.2-4.2-0.3-6.3c0-0.4,0.1-0.9,0.5-1.2c0.3-0.3,0.7-0.5,1.2-0.4
		c2.7,0.2,5.5,0.2,8.2,0.3c2,0,4,0.1,6.1,0.2c0.8,0,1.4,0.7,1.5,1.5c0,1.3,0,2.6,0,3.9V98c0,2.6,0.1,7.5,0.5,10.6
		c0.1,0.4-0.1,0.9-0.4,1.2c-0.3,0.3-0.7,0.5-1.1,0.5C78.3,110.3,77.8,110.3,77.3,110.3z M68.8,107.1c1.4,0,2.9,0,4.3,0.1
		c1.3,0,2.7,0.1,4,0.1c-0.3-3.1-0.3-7-0.3-9.3v-1.3c0-0.8,0-1.6,0-2.4c-1.5-0.1-3-0.1-4.6-0.1c-2.2,0-4.4-0.1-6.7-0.2
		c0.1,1.6,0.1,3.1,0.2,4.7c0.1,2.8,0.2,5.7,0.4,8.6C66.9,107.1,67.8,107.1,68.8,107.1z"/>
	<path id="XMLID_296_" class="st2" d="M98.3,99.3c1.8-1.8,1.1-5.7-2.2-5.6c-1,0-2.1,0-3.1,0.1c-0.6,0-1.1,0.2-1.5,0.4
		c-2.5-2.6-7.3,0.5-5.2,3.9c0.4,0.6-0.4,3.6-0.5,4.6c-0.1,1.7-0.3,3.5,0.6,5c0.9,1.5,2.6,2.1,4.2,2.2c1.5,0.1,3.6,0.3,5.1-0.1
		c3.4-0.9,3.4-4.5,3.1-7.4C98.8,101.2,98.6,100.2,98.3,99.3z"/>
	<path id="XMLID_293_" class="st1" d="M98.9,110.3c-1.4,0-2.9,0-4.3-0.1c-1.4,0-2.8-0.1-4.2-0.1c-1.5,0-2.8,0-4,0.1
		c-0.8,0.1-1.6-0.6-1.6-1.4c-0.2-3.4-0.4-6.9-0.5-10.2c-0.1-2.1-0.2-4.2-0.3-6.3c0-0.4,0.1-0.9,0.5-1.2c0.3-0.3,0.7-0.5,1.2-0.4
		c2.7,0.2,5.5,0.2,8.2,0.3c2,0,4,0.1,6.1,0.2c0.8,0,1.4,0.7,1.5,1.5c0,1.3,0,2.6,0,3.9V98c0,2.6,0.1,7.5,0.5,10.6
		c0.1,0.4-0.1,0.9-0.4,1.2c-0.3,0.3-0.7,0.5-1.1,0.5C99.9,110.3,99.4,110.3,98.9,110.3z M90.4,107.1c1.4,0,2.9,0,4.3,0.1
		c1.3,0,2.7,0.1,4,0.1c-0.3-3.1-0.3-7-0.3-9.3v-1.3c0-0.8,0-1.6,0-2.4c-1.5-0.1-3-0.1-4.6-0.1c-2.2,0-4.4-0.1-6.7-0.2
		c0.1,1.6,0.1,3.1,0.2,4.7c0.1,2.8,0.2,5.7,0.4,8.6C88.6,107.1,89.5,107.1,90.4,107.1z"/>
	<path id="XMLID_292_" class="st3" d="M119.9,99.3c1.8-1.8,1.1-5.7-2.2-5.6c-1,0-2.1,0-3.1,0.1c-0.6,0-1.1,0.2-1.5,0.4
		c-2.5-2.6-7.3,0.5-5.2,3.9c0.4,0.6-0.4,3.6-0.5,4.6c-0.1,1.7-0.3,3.5,0.6,5c0.9,1.5,2.6,2.1,4.2,2.2c1.5,0.1,3.6,0.3,5.1-0.1
		c3.4-0.9,3.4-4.5,3.1-7.4C120.4,101.2,120.2,100.2,119.9,99.3z"/>
	<path id="XMLID_289_" class="st1" d="M120.5,110.3c-1.4,0-2.9,0-4.3-0.1c-1.4,0-2.8-0.1-4.2-0.1c-1.5,0-2.8,0-4,0.1
		c-0.8,0.1-1.6-0.6-1.6-1.4c-0.2-3.4-0.4-6.9-0.5-10.2c-0.1-2.1-0.2-4.2-0.3-6.3c0-0.4,0.1-0.9,0.5-1.2c0.3-0.3,0.7-0.5,1.2-0.4
		c2.7,0.2,5.5,0.2,8.2,0.3c2,0,4,0.1,6.1,0.2c0.8,0,1.4,0.7,1.5,1.5c0,1.3,0,2.6,0,3.9V98c0,2.6,0.1,7.5,0.5,10.6
		c0.1,0.4-0.1,0.9-0.4,1.2c-0.3,0.3-0.7,0.5-1.1,0.5C121.6,110.3,121,110.3,120.5,110.3z M112,107.1c1.4,0,2.9,0,4.3,0.1
		c1.3,0,2.7,0.1,4,0.1c-0.3-3.1-0.3-7-0.3-9.3v-1.3c0-0.8,0-1.6,0-2.4c-1.5-0.1-3-0.1-4.6-0.1c-2.2,0-4.4-0.1-6.7-0.2
		c0.1,1.6,0.1,3.1,0.2,4.7c0.1,2.8,0.2,5.7,0.4,8.6C110.2,107.1,111.1,107.1,112,107.1z"/>
	<path id="XMLID_324_" class="st2" d="M76.3,122.7c1.8-1.8,1.1-5.7-2.2-5.6c-1,0-2.1,0-3.1,0.1c-0.6,0-1.1,0.2-1.5,0.4
		c-2.5-2.6-7.3,0.5-5.2,3.9c0.4,0.6-0.4,3.6-0.5,4.6c-0.1,1.7-0.3,3.5,0.6,5c0.9,1.5,2.6,2.1,4.2,2.2c1.5,0.1,3.6,0.3,5.1-0.1
		c3.4-0.9,3.4-4.5,3.1-7.4C76.7,124.6,76.5,123.6,76.3,122.7z"/>
	<path id="XMLID_321_" class="st1" d="M76.9,133.7c-1.4,0-2.9,0-4.3-0.1c-1.4,0-2.8-0.1-4.2-0.1c-1.5,0-2.8,0-4,0.1
		c-0.8,0.1-1.6-0.6-1.6-1.4c-0.2-3.4-0.4-6.9-0.5-10.2c-0.1-2.1-0.2-4.2-0.3-6.3c0-0.4,0.1-0.9,0.5-1.2c0.3-0.3,0.7-0.5,1.2-0.4
		c2.7,0.2,5.5,0.2,8.2,0.3c2,0,4,0.1,6.1,0.2c0.8,0,1.4,0.7,1.5,1.5c0,1.3,0,2.6,0,3.9v1.3c0,2.6,0.1,7.5,0.5,10.6
		c0.1,0.4-0.1,0.9-0.4,1.2c-0.3,0.3-0.7,0.5-1.1,0.5C77.9,133.7,77.4,133.7,76.9,133.7z M68.4,130.5c1.4,0,2.9,0,4.3,0.1
		c1.3,0,2.7,0.1,4,0.1c-0.3-3.1-0.3-7-0.3-9.3V120c0-0.8,0-1.6,0-2.4c-1.5-0.1-3-0.1-4.6-0.1c-2.2,0-4.4-0.1-6.7-0.2
		c0.1,1.6,0.1,3.1,0.2,4.7c0.1,2.8,0.2,5.7,0.4,8.6C66.5,130.5,67.4,130.5,68.4,130.5z"/>
	<path id="XMLID_320_" class="st2" d="M97.9,122.7c1.8-1.8,1.1-5.7-2.2-5.6c-1,0-2.1,0-3.1,0.1c-0.6,0-1.1,0.2-1.5,0.4
		c-2.5-2.6-7.3,0.5-5.2,3.9c0.4,0.6-0.4,3.6-0.5,4.6c-0.1,1.7-0.3,3.5,0.6,5c0.9,1.5,2.6,2.1,4.2,2.2c1.5,0.1,3.6,0.3,5.1-0.1
		c3.4-0.9,3.4-4.5,3.1-7.4C98.4,124.6,98.2,123.6,97.9,122.7z"/>
	<path id="XMLID_317_" class="st1" d="M98.5,133.7c-1.4,0-2.9,0-4.3-0.1c-1.4,0-2.8-0.1-4.2-0.1c-1.5,0-2.8,0-4,0.1
		c-0.8,0.1-1.6-0.6-1.6-1.4c-0.2-3.4-0.4-6.9-0.5-10.2c-0.1-2.1-0.2-4.2-0.3-6.3c0-0.4,0.1-0.9,0.5-1.2c0.3-0.3,0.7-0.5,1.2-0.4
		c2.7,0.2,5.5,0.2,8.2,0.3c2,0,4,0.1,6.1,0.2c0.8,0,1.4,0.7,1.5,1.5c0,1.3,0,2.6,0,3.9v1.3c0,2.6,0.1,7.5,0.5,10.6
		c0.1,0.4-0.1,0.9-0.4,1.2c-0.3,0.3-0.7,0.5-1.1,0.5C99.5,133.7,99,133.7,98.5,133.7z M90,130.5c1.4,0,2.9,0,4.3,0.1
		c1.3,0,2.7,0.1,4,0.1c-0.3-3.1-0.3-7-0.3-9.3V120c0-0.8,0-1.6,0-2.4c-1.5-0.1-3-0.1-4.6-0.1c-2.2,0-4.4-0.1-6.7-0.2
		c0.1,1.6,0.1,3.1,0.2,4.7c0.1,2.8,0.2,5.7,0.4,8.6C88.1,130.5,89,130.5,90,130.5z"/>
	<path id="XMLID_316_" class="st2" d="M119.5,122.7c1.8-1.8,1.1-5.7-2.2-5.6c-1,0-2.1,0-3.1,0.1c-0.6,0-1.1,0.2-1.5,0.4
		c-2.5-2.6-7.3,0.5-5.2,3.9c0.4,0.6-0.4,3.6-0.5,4.6c-0.1,1.7-0.3,3.5,0.6,5c0.9,1.5,2.6,2.1,4.2,2.2c1.5,0.1,3.6,0.3,5.1-0.1
		c3.4-0.9,3.4-4.5,3.1-7.4C120,124.6,119.8,123.6,119.5,122.7z"/>
	<path id="XMLID_313_" class="st1" d="M120.1,133.7c-1.4,0-2.9,0-4.3-0.1c-1.4,0-2.8-0.1-4.2-0.1c-1.5,0-2.8,0-4,0.1
		c-0.8,0.1-1.6-0.6-1.6-1.4c-0.2-3.4-0.4-6.9-0.5-10.2c-0.1-2.1-0.2-4.2-0.3-6.3c0-0.4,0.1-0.9,0.5-1.2c0.3-0.3,0.7-0.5,1.2-0.4
		c2.7,0.2,5.5,0.2,8.2,0.3c2,0,4,0.1,6.1,0.2c0.8,0,1.4,0.7,1.5,1.5c0,1.3,0,2.6,0,3.9v1.3c0,2.6,0.1,7.5,0.5,10.6
		c0.1,0.4-0.1,0.9-0.4,1.2c-0.3,0.3-0.7,0.5-1.1,0.5C121.1,133.7,120.6,133.7,120.1,133.7z M111.6,130.5c1.4,0,2.9,0,4.3,0.1
		c1.3,0,2.7,0.1,4,0.1c-0.3-3.1-0.3-7-0.3-9.3V120c0-0.8,0-1.6,0-2.4c-1.5-0.1-3-0.1-4.6-0.1c-2.2,0-4.4-0.1-6.7-0.2
		c0.1,1.6,0.1,3.1,0.2,4.7c0.1,2.8,0.2,5.7,0.4,8.6C109.7,130.5,110.6,130.5,111.6,130.5z"/>
	<path id="XMLID_312_" class="st2" d="M142.1,76.4c1.8-1.8,1.1-5.7-2.2-5.6c-1,0-2.1,0-3.1,0.1c-0.6,0-1.1,0.2-1.5,0.4
		c-2.5-2.6-7.3,0.5-5.2,3.9c0.4,0.6-0.4,3.6-0.5,4.6c-0.1,1.7-0.3,3.5,0.6,5c0.9,1.5,2.6,2.1,4.2,2.2c1.5,0.1,3.6,0.3,5.1-0.1
		c3.4-0.9,3.4-4.5,3.1-7.4C142.6,78.3,142.4,77.3,142.1,76.4z"/>
	<path id="XMLID_309_" class="st1" d="M142.7,87.4c-1.4,0-2.9,0-4.3-0.1c-1.4,0-2.8-0.1-4.2-0.1c-1.5,0-2.8,0-4,0.1
		c-0.8,0.1-1.6-0.6-1.6-1.4c-0.2-3.4-0.4-6.9-0.5-10.2c-0.1-2.1-0.2-4.2-0.3-6.3c0-0.4,0.1-0.9,0.5-1.2c0.3-0.3,0.7-0.5,1.2-0.4
		c2.7,0.2,5.5,0.2,8.2,0.3c2,0,4,0.1,6.1,0.2c0.8,0,1.4,0.7,1.5,1.5c0,1.3,0,2.6,0,3.9V75c0,2.6,0.1,7.5,0.5,10.6
		c0.1,0.4-0.1,0.9-0.4,1.2c-0.3,0.3-0.7,0.5-1.1,0.5C143.8,87.4,143.3,87.4,142.7,87.4z M134.2,84.2c1.4,0,2.9,0,4.3,0.1
		c1.3,0,2.7,0.1,4,0.1c-0.3-3.1-0.3-7-0.3-9.3v-1.3c0-0.8,0-1.6,0-2.4c-1.5-0.1-3-0.1-4.6-0.1c-2.2,0-4.4-0.1-6.7-0.2
		c0.1,1.6,0.1,3.1,0.2,4.7c0.1,2.8,0.2,5.7,0.4,8.6C132.4,84.2,133.3,84.2,134.2,84.2z"/>
	<path id="XMLID_308_" class="st2" d="M142.1,99.3c1.8-1.8,1.1-5.7-2.2-5.6c-1,0-2.1,0-3.1,0.1c-0.6,0-1.1,0.2-1.5,0.4
		c-2.5-2.6-7.3,0.5-5.2,3.9c0.4,0.6-0.4,3.6-0.5,4.6c-0.1,1.7-0.3,3.5,0.6,5c0.9,1.5,2.6,2.1,4.2,2.2c1.5,0.1,3.6,0.3,5.1-0.1
		c3.4-0.9,3.4-4.5,3.1-7.4C142.6,101.2,142.4,100.2,142.1,99.3z"/>
	<path id="XMLID_305_" class="st1" d="M142.7,110.3c-1.4,0-2.9,0-4.3-0.1c-1.4,0-2.8-0.1-4.2-0.1c-1.5,0-2.8,0-4,0.1
		c-0.8,0.1-1.6-0.6-1.6-1.4c-0.2-3.4-0.4-6.9-0.5-10.2c-0.1-2.1-0.2-4.2-0.3-6.3c0-0.4,0.1-0.9,0.5-1.2c0.3-0.3,0.7-0.5,1.2-0.4
		c2.7,0.2,5.5,0.2,8.2,0.3c2,0,4,0.1,6.1,0.2c0.8,0,1.4,0.7,1.5,1.5c0,1.3,0,2.6,0,3.9V98c0,2.6,0.1,7.5,0.5,10.6
		c0.1,0.4-0.1,0.9-0.4,1.2c-0.3,0.3-0.7,0.5-1.1,0.5C143.8,110.3,143.3,110.3,142.7,110.3z M134.2,107.1c1.4,0,2.9,0,4.3,0.1
		c1.3,0,2.7,0.1,4,0.1c-0.3-3.1-0.3-7-0.3-9.3v-1.3c0-0.8,0-1.6,0-2.4c-1.5-0.1-3-0.1-4.6-0.1c-2.2,0-4.4-0.1-6.7-0.2
		c0.1,1.6,0.1,3.1,0.2,4.7c0.1,2.8,0.2,5.7,0.4,8.6C132.4,107.1,133.3,107.1,134.2,107.1z"/>
	<path id="XMLID_304_" class="st2" d="M141.7,122.7c1.8-1.8,1.1-5.7-2.2-5.6c-1,0-2.1,0-3.1,0.1c-0.6,0-1.1,0.2-1.5,0.4
		c-2.5-2.6-7.3,0.5-5.2,3.9c0.4,0.6-0.4,3.6-0.5,4.6c-0.1,1.7-0.3,3.5,0.6,5c0.9,1.5,2.6,2.1,4.2,2.2c1.5,0.1,3.6,0.3,5.1-0.1
		c3.4-0.9,3.4-4.5,3.1-7.4C142.2,124.6,142,123.6,141.7,122.7z"/>
	<path id="XMLID_301_" class="st1" d="M142.3,133.7c-1.4,0-2.9,0-4.3-0.1c-1.4,0-2.8-0.1-4.2-0.1c-1.5,0-2.8,0-4,0.1
		c-0.8,0.1-1.6-0.6-1.6-1.4c-0.2-3.4-0.4-6.9-0.5-10.2c-0.1-2.1-0.2-4.2-0.3-6.3c0-0.4,0.1-0.9,0.5-1.2c0.3-0.3,0.7-0.5,1.2-0.4
		c2.7,0.2,5.5,0.2,8.2,0.3c2,0,4,0.1,6.1,0.2c0.8,0,1.4,0.7,1.5,1.5c0,1.3,0,2.6,0,3.9v1.3c0,2.6,0.1,7.5,0.5,10.6
		c0.1,0.4-0.1,0.9-0.4,1.2c-0.3,0.3-0.7,0.5-1.1,0.5C143.3,133.7,142.8,133.7,142.3,133.7z M133.8,130.5c1.4,0,2.9,0,4.3,0.1
		c1.3,0,2.7,0.1,4,0.1c-0.3-3.1-0.3-7-0.3-9.3V120c0-0.8,0-1.6,0-2.4c-1.5-0.1-3-0.1-4.6-0.1c-2.2,0-4.4-0.1-6.7-0.2
		c0.1,1.6,0.1,3.1,0.2,4.7c0.1,2.8,0.2,5.7,0.4,8.6C131.9,130.5,132.8,130.5,133.8,130.5z"/>
</g>
</svg>
