<?xml version="1.0" encoding="utf-8"?>
<!-- Generator: Adobe Illustrator 19.0.0, SVG Export Plug-In . SVG Version: 6.00 Build 0)  -->
<svg version="1.1" id="Capa_1" xmlns="http://www.w3.org/2000/svg" xmlns:xlink="http://www.w3.org/1999/xlink" x="0px" y="0px"
	 viewBox="0 0 209.8 209.8" style="enable-background:new 0 0 209.8 209.8;" xml:space="preserve">
<style type="text/css">
	.st0{fill:none;stroke:#264A69;stroke-width:4.673;stroke-miterlimit:10;}
	.st1{fill:#F1851D;stroke:#214D6A;stroke-width:4.026;stroke-miterlimit:10;}
	.st2{fill:#CCCCCC;stroke:#214D6A;stroke-width:4.026;stroke-miterlimit:10;}
	.st3{fill:#F1851D;}
</style>
<g id="XMLID_1_">
	<circle id="XMLID_203_" class="st0" cx="104.9" cy="104.9" r="89.9"/>
	<path id="XMLID_71_" class="st1" d="M117,97.4c4.9-17.3-2.2-36.4-18.4-46C79.4,40,54.4,46.4,43,65.7c-11.4,19.3-5.1,44.2,14.2,55.6
		c16.2,9.6,36.3,6.6,49.2-6c2.5-2.4,4.7-5.2,6.5-8.3C114.7,104,116.1,100.7,117,97.4z"/>
	<path id="XMLID_136_" class="st2" d="M108.8,95.1c3.9-13.6-1.7-28.7-14.5-36.3c-15.2-9-34.9-4-43.9,11.2c-9,15.2-4,34.9,11.2,43.9
		c12.8,7.6,28.7,5.2,38.8-4.7c1.9-1.9,3.7-4.1,5.1-6.5C107,100.2,108,97.7,108.8,95.1z"/>
	<path id="XMLID_139_" class="st3" d="M161,126.2c-1.6,4.7-4.6,8.7-8.6,11.5c-3.2,2.2-0.1,7.5,3.1,5.2c5.4-3.8,9.3-8.9,11.4-15.2
		C168.1,124.1,162.3,122.5,161,126.2z"/>
	<path id="XMLID_138_" class="st0" d="M167.4,127.2L117,97.4c-0.9,3.3-2.3,6.6-4.2,9.7c-1.8,3.1-4,5.9-6.5,8.3l50.4,29.8
		c3.9,2.3,8.9,1,11.2-2.9l2.3-3.9C172.6,134.6,171.3,129.5,167.4,127.2z"/>
</g>
</svg>
