<?xml version="1.0" encoding="utf-8"?>
<!-- Generator: Adobe Illustrator 19.0.0, SVG Export Plug-In . SVG Version: 6.00 Build 0)  -->
<svg version="1.1" id="Capa_1" xmlns="http://www.w3.org/2000/svg" xmlns:xlink="http://www.w3.org/1999/xlink" x="0px" y="0px"
	 viewBox="0 0 209.8 209.8" style="enable-background:new 0 0 209.8 209.8;" xml:space="preserve">
<style type="text/css">
	.st0{fill:none;stroke:#264A69;stroke-width:4.673;stroke-miterlimit:10;}
	.st1{fill:#FFFFFF;stroke:#214D6A;stroke-width:2.3548;stroke-miterlimit:10;}
	.st2{fill:#D2D9DB;}
	.st3{fill:#FFFFFF;stroke:#214D6A;stroke-width:4.026;stroke-miterlimit:10;}
	.st4{fill:#8CBF34;}
</style>
<g id="XMLID_1_">
	<circle id="XMLID_217_" class="st0" cx="104.9" cy="104.9" r="89.9"/>
	<polygon id="XMLID_212_" class="st0" points="41.6,88.6 74.3,99.9 105.4,79.3 158,93.3 177.4,158.9 114.6,154.4 84.2,174.7 
		41.6,149.5 	"/>
	<line id="XMLID_214_" class="st0" x1="74.3" y1="110.8" x2="84.2" y2="174.7"/>
	<line id="XMLID_215_" class="st1" x1="104.6" y1="86.5" x2="114.4" y2="150.3"/>
	<path id="XMLID_161_" class="st2" d="M120.5,126.1c-1.6-2.4-3.8-4-6.1-5.6c-2-1.4-4.1-2.9-6.5-3.3c-3.3-0.6-6.3,0.1-8.6,1.9
		c-0.6,0.1-1.1,0.1-1.7,0.2c-0.4,0-0.8-0.1-1.1,0c-3.2,0.3-6.3,0.8-8.7,3.1c-2.3,2.2-3.1,5.4-2.3,8.5c1.3,4.7,6.3,7.9,10.5,9.7
		c5.7,2.4,11,3.2,16.9,0.9c3.2-1.2,5.9-2.8,7.9-5.7C122.7,132.9,122.3,128.8,120.5,126.1z"/>
	<g id="XMLID_148_">
		<g id="XMLID_149_">
			<path id="XMLID_150_" class="st3" d="M104.9,42.6c-16.6,0-30,13.4-30,30c0,16.6,30,57.1,30,57.1s30-40.5,30-57.1
				C134.9,56,121.5,42.6,104.9,42.6z M104.9,82.7c-6.3,0-11.5-5.1-11.5-11.5c0-6.3,5.1-11.5,11.5-11.5c6.3,0,11.5,5.1,11.5,11.5
				C116.3,77.6,111.2,82.7,104.9,82.7z"/>
		</g>
	</g>
	<path id="XMLID_165_" class="st4" d="M94.7,71.6c0,1.8,0.9,3.3,1.6,4.8c1,1.9,3,2.9,5.1,2.9c1.3,0.7,2.9,0.8,4.4,0.6
		c0.5-0.1,1.1-0.3,1.5-0.6c1.9-0.1,3.8-1,4.9-2.9c1-1.7,1-3.9,0.1-5.7c0-0.1,0.1-0.1,0.1-0.2c0.6-1.5,0.3-3.6-0.5-5
		c-0.2-0.4-0.5-0.7-0.8-1c-0.5-0.7-1.2-1.3-1.9-1.6c-1.6-0.7-3.2-1-5-1c-1.6,0-3,0.3-4.4,0.8c0,0-0.1,0-0.1,0.1
		c-0.1,0.1-0.3,0.1-0.4,0.2c-0.4,0.2-0.8,0.5-1.2,0.8c0,0,0,0,0,0c-0.1,0.1-0.2,0.1-0.2,0.2c-0.7,0.7-1.3,1.5-1.6,2.6
		c-0.1,0.3-0.1,0.6-0.2,0.8C95.2,68.6,94.6,70.1,94.7,71.6z"/>
</g>
</svg>
