<?xml version="1.0" encoding="utf-8"?>
<!-- Generator: Adobe Illustrator 19.0.0, SVG Export Plug-In . SVG Version: 6.00 Build 0)  -->
<svg version="1.1" id="Capa_1" xmlns="http://www.w3.org/2000/svg" xmlns:xlink="http://www.w3.org/1999/xlink" x="0px" y="0px"
	 viewBox="0 0 209.8 209.8" style="enable-background:new 0 0 209.8 209.8;" xml:space="preserve">
<style type="text/css">
	.st0{fill:none;stroke:#264A69;stroke-width:4.673;stroke-miterlimit:10;}
	.st1{fill:none;stroke:#264A69;stroke-width:4.5167;stroke-miterlimit:10;}
	.st2{fill:#F1851D;stroke:#214D6A;stroke-width:4.026;stroke-miterlimit:10;}
	.st3{fill:#0EA8DC;}
	.st4{fill:none;stroke:#264A69;stroke-width:4.6547;stroke-miterlimit:10;}
</style>
<g id="XMLID_1_">
	<circle id="XMLID_335_" class="st0" cx="104.9" cy="104.9" r="89.9"/>
	<path id="XMLID_337_" class="st1" d="M168.3,127c-1.1-14.6-11.4-15.5-11.4-15.5c-16.9-1.7-42.2,3.7-40.6-23.8l0.5-2.7h-1.1H93.1h0
		l0-0.4c-0.2,1.6,6.5,29.2-38.3,26.4c0,0-11.2,1.6-12.4,16.2c-1.1,14.6,18.1,21.1,50.7,21.1c1.6,0,3,0,4.4,0c0.1,0,1.4,0,5.4,0
		c1.1,0,2.3,0,3.8,0c1.6,0,3.4,0,5.6,0c1.1,0,2.3,0,3.6,0C147.2,148.2,169.4,141.6,168.3,127z"/>
	<circle id="XMLID_336_" class="st2" cx="102.5" cy="124.7" r="15.4"/>
	<path id="XMLID_341_" class="st3" d="M77.8,96.9c-7.2-10.6-14-20.1-26-25.6c-4.7-2.2-8.8,4.8-4.1,7c10.7,5,16.6,13.2,23.1,22.7
		C73.8,105.2,80.8,101.1,77.8,96.9z"/>
	<path id="XMLID_342_" class="st3" d="M157,71.5c-9.1,7.3-18.1,14.8-23.8,25.2c-2.5,4.5,4.4,8.6,7,4.1c5.4-9.7,14-16.7,22.6-23.5
		C166.8,73.9,161,68.3,157,71.5z"/>
	<path id="XMLID_338_" class="st4" d="M146.4,60c-10.6-4.1-25.3-6.7-41.5-6.7S74.1,55.8,63.5,60c-10.8,1.5-19.2,11-19.2,22.5
		c0,12.6,9.9,22.7,22.2,22.7c12.3,0,22.2-10.2,22.2-22.7c0-1.9-0.2-3.8-0.7-5.5c5.4-0.6,11-1,16.9-1s11.6,0.3,16.9,1
		c-0.4,1.8-0.7,3.6-0.7,5.5c0,12.6,9.9,22.7,22.2,22.7s22.2-10.2,22.2-22.7C165.6,71,157.3,61.5,146.4,60z"/>
</g>
</svg>
