<?xml version="1.0" encoding="utf-8"?>
<!-- Generator: Adobe Illustrator 19.0.0, SVG Export Plug-In . SVG Version: 6.00 Build 0)  -->
<svg version="1.1" id="Capa_1" xmlns="http://www.w3.org/2000/svg" xmlns:xlink="http://www.w3.org/1999/xlink" x="0px" y="0px"
	 viewBox="0 0 209.8 209.8" style="enable-background:new 0 0 209.8 209.8;" xml:space="preserve">
<style type="text/css">
	.st0{fill:none;stroke:#264A69;stroke-width:4.673;stroke-miterlimit:10;}
	.st1{fill:#E4215E;}
	.st2{fill:#214D6A;}
</style>
<g id="XMLID_1_">
	<circle id="XMLID_221_" class="st0" cx="104.9" cy="104.9" r="89.9"/>
	<path id="XMLID_265_" class="st1" d="M83.9,149.7c-0.9,5.9-0.7,11.4,4.8,14.9c2.7,1.7,5.9,2.6,9,3.6c2.9,0.9,5.7,2.5,8.7,3.3
		c5.5,1.4,11.5-2.7,15.7-5.8c5.1-3.7,7.2-8.4,5.3-14.6c-2.4-7.9-4.7-15.5-6.6-23.6c-0.4-1.8-0.9-3.7-1.3-5.5c0-0.6,0-1.1,0-1.7
		c-0.1-8-0.9-16-2.2-23.9c-1.7-10.7-3.1-22.3-6.7-32.5c-0.6-1.7-2.1-2.7-3.6-3c-0.2-0.6-0.6-1.1-0.9-1.5c2.5,0.6,5.1-1.2,5.9-3.6
		c1-2.9-0.3-5.6-2.6-7.3c-0.3-2.1-2.9-3.8-4.9-3.7c-2.2,0.1-3.6,1.2-4.5,3c-2.3,0.2-4.2,1.8-4.5,4.2c-0.3,2.5,1.2,4.4,3.4,5.3
		c0.7,0.3,1.3,0.4,2,0.4c-1.8,0.3-3.5,1.5-3.9,3.7c-1.2,6-0.3,11.6,0.4,17.5c-3.7,15.2-6.7,30.6-9.3,46
		C86.6,133.2,85.1,141.5,83.9,149.7z M115.7,149.5c0.1,0.3,0.2,0.6,0.3,0.8c1.3,3.5,2.9,5-0.4,7.4c-1.2,0.9-3.7,2.6-5.6,3.4
		C112.5,157.5,114.4,153.6,115.7,149.5z M96.6,127.3c0.5-4.1,1-8.2,1.4-12.3c-0.3,14.1-1.3,28.2-1.1,42.2c-2-0.6-3.2-1.3-3.2-3.9
		C94,144.7,95.6,135.9,96.6,127.3z"/>
	<path id="XMLID_242_" class="st2" d="M132.9,162.3l0-0.2c-0.4-2.1-1.1-4.2-1.6-6.3c-0.6-2.1-1.1-4.2-1.6-6.3
		c-0.5-2.1-1.1-4.2-1.5-6.3c-0.5-2.1-1-4.2-1.5-6.4c-0.5-2.1-1-4.2-1.4-6.4c-0.4-2.1-0.9-4.3-1.3-6.4c-0.8-4.3-1.6-8.5-2.2-12.8
		c-0.7-4.3-1.2-8.6-1.8-12.9c-0.5-4.3-1.1-8.7-1.8-13c-0.3-2.2-0.7-4.3-1.1-6.5l-1.3-6.4l-2.3-10.9l-0.1-0.5
		c0.1,0.3,0.1,0.5,0.1,0.5c0.7-0.2,1.3-0.8,1.3-1.5c0.2-2.5,0.5-4.9,0.9-7.4l0.2,0.3V48l-11.3-6.4l-12.4,4.6l1.1,5.1l0.1-0.2
		l0.5,2.6l1.1,6.1c0.1,0.3,0.2,0.6,0.4,0.8c-2.5,16.8-4.9,33.6-7.1,50.4c-1.2,8.6-2.3,17.3-3.4,25.9l-1.6,13l-0.7,6.5
		c-0.2,2.2-0.5,4.3-0.6,6.5l0,0.1c0,0.6,0.2,1.2,0.8,1.5c2.1,1.3,4.2,2.4,6.3,3.4c2.1,1.1,4.1,2.1,6.1,3.2
		c1.3,0.8,10.5,6.7,11.5,7.5l0.1,0.1c0.5,0.4,1.3,0.4,1.9,0c1.2-0.8,2.4-1.6,3.6-2.4l5.3-3.2l2.8-1.7c2-1.2,4-2.4,6-3.7
		c1-0.7,1.9-1.3,2.9-2c1-0.7,2-1.3,2.9-2C132.7,163.6,133,163,132.9,162.3z M113.1,59.4C113.1,59.4,113.1,59.4,113.1,59.4
		c-0.2-0.8-1-1.4-1.8-1.2C112.1,58,112.9,58.6,113.1,59.4z M104.6,45.9l8.2,2.9c-0.5,3-0.9,6-1.3,9.1l-6.6-0.2l-2,0l-1,0
		c-0.2,0-0.3,0-0.6,0l-0.5,0l-2.5,0.1l-0.8-4.7L96.5,48L104.6,45.9z M127.5,163.4c-0.9,0.7-1.8,1.3-2.8,1.9
		c-1.9,1.2-3.9,2.4-5.9,3.6c-2,1.2-4,2.3-6,3.6c-1.7,1-3.3,2-5,3c-1.6-1.2-3.2-2.3-4.8-3.4c-2-1.3-4-2.6-6.1-3.7
		c-2.1-1.2-4.2-2.2-6.3-3.2c-1.8-0.9-3.5-1.7-5-2.7c0.2-1.8,0.3-3.6,0.5-5.4l0.7-6.5c0.5-4.3,0.9-8.6,1.5-13
		c1-8.6,2.1-17.3,3.3-25.9c2.2-16.8,4.5-33.5,6.8-50.2l2.5-0.1l0.5,0c0,0,0.3,0,0.4,0l1,0l2,0c1.8,0,3.6,0.1,5.4,0.1l2.3,11.4
		l1.3,6.4c0.4,2.1,0.8,4.3,1.1,6.4c0.6,4.3,1.2,8.6,1.7,12.9c0.5,4.3,1.1,8.7,1.7,13c0.6,4.3,1.4,8.7,2.2,13
		c0.4,2.2,0.8,4.3,1.3,6.5c0.4,2.2,0.9,4.3,1.4,6.4c0.4,2.1,1,4.3,1.4,6.4c0.5,2.1,1,4.3,1.5,6.4c0.5,2.1,1,4.3,1.6,6.4
		c0.5,1.8,0.9,3.5,1.4,5.3C128.6,162.4,128,162.9,127.5,163.4z"/>
	<path id="XMLID_237_" class="st2" d="M87.6,34.4c-0.3,2.4-0.5,4.9-0.6,7.3c-0.2,3.4-0.3,6.8-0.4,10.2c0,0.4,0.1,0.8,0.4,1.1
		c0.6,0.7,1.6,0.8,2.3,0.2c0.8-0.6,1.6-1.3,2.4-1.9c1-0.8,2.1-1.7,3.2-2.5c0.5-0.4,1.1-0.8,1.6-1.2c2-1.6,4.1-3,6.3-4.4
		c2.5,2.3,5.1,4.4,7.9,6.3c0.2,0.1,0.3,0.2,0.5,0.3c1,0.7,2.1,1.4,3.1,2c2,1.3,4,2.5,6.1,3.6c0.4,0.2,0.7,0.3,1.1,0.2
		c0.9-0.2,1.5-1,1.4-2c-0.3-1.7-0.6-3.4-0.8-5.1c-0.2-1.7-0.5-3.4-0.7-5c-0.3-2.4-0.5-4.7-0.6-7.1c-0.1-1-0.1-2-0.1-3
		c0-0.1,0-0.2,0-0.3c-0.2-0.9-1-1.4-1.9-1.3c-0.3,0.1-0.6,0.1-0.8,0.2c-1.2,0.3-2.4,0.7-3.6,1.1c-1.4,0.5-2.8,1.1-4.2,1.8
		c-1.4,0.7-2.7,1.4-4,2.2l-1.9,1.2c-0.3,0.2-0.5,0.3-0.8,0.5l-1.9-1.8c-0.9-0.9-1.9-1.7-2.9-2.6c-1-0.8-2-1.7-3.1-2.4
		c-0.5-0.4-1.1-0.7-1.7-1.1l-1-0.5c-0.3-0.1-0.6-0.2-0.8-0.3c0,0,0,0-0.1,0c-0.4-0.1-0.9,0-1.2,0.3c-0.2-0.2-0.5-0.4-0.8-0.4
		c-0.6-0.1-1.2,0.2-1.5,0.7c0,0,0,0-0.1,0.1c-0.1,0.2-0.2,0.4-0.2,0.6C87.8,32.4,87.7,33.4,87.6,34.4z M107.6,39.9
		c1.2-0.7,2.5-1.4,3.7-2c1.3-0.6,2.6-1.2,3.9-1.6c0.7-0.3,1.4-0.5,2.1-0.7c0,2.8,0.2,5.6,0.6,8.4c0.2,1.7,0.4,3.4,0.7,5.2l0.2,1.5
		c-2.1-1.3-4.2-2.6-6.3-4.1c-2.4-1.7-4.7-3.5-7-5.3C106.3,40.7,106.9,40.3,107.6,39.9z M91.4,33.1c0,0,0.7,0.4,0.7,0.4
		c0.5,0.3,1,0.7,1.5,1c1,0.7,1.9,1.5,2.9,2.3c0.9,0.8,1.9,1.7,2.8,2.6c0.4,0.4,0.8,0.7,1.1,1.1c-0.8,0.5-1.6,1.1-2.3,1.6
		c-1.3,0.9-2.5,1.8-3.7,2.7c-0.7,0.5-1.3,1-2,1.5c-0.4,0.3-0.8,0.6-1.1,0.9c-0.4,0.3-0.9,0.7-1.3,1l0.3-6.5c0.1-2.7,0.3-5.4,0.6-8.1
		c0-0.1,0-0.2,0-0.4c0-0.2,0-0.3,0.1-0.5C91.1,32.9,91.3,33,91.4,33.1z"/>
</g>
</svg>
