<?xml version="1.0" encoding="utf-8"?>
<!-- Generator: Adobe Illustrator 19.0.0, SVG Export Plug-In . SVG Version: 6.00 Build 0)  -->
<svg version="1.1" id="Capa_1" xmlns="http://www.w3.org/2000/svg" xmlns:xlink="http://www.w3.org/1999/xlink" x="0px" y="0px"
	 viewBox="0 0 273.7 179" style="enable-background:new 0 0 273.7 179;" xml:space="preserve">
<style type="text/css">
	.st0{fill:none;stroke:#1D4B66;stroke-width:2.427;stroke-linecap:round;stroke-miterlimit:10;}
	.st1{fill:#DFDEE4;}
	.st2{fill:#C6C5CF;}
	.st3{fill:none;stroke:#1D4B66;stroke-width:2.289;stroke-linecap:round;stroke-miterlimit:10;}
	.st4{fill:#1B98C6;}
	.st5{fill:none;stroke:#1D4B66;stroke-width:2.278;stroke-linecap:round;stroke-miterlimit:10;}
	.st6{clip-path:url(#XMLID_136_);fill:#C3C3C8;}
	.st7{fill:none;stroke:#1D4B66;stroke-width:2.278;stroke-miterlimit:10;}
	.st8{fill:#FFFFFF;}
	.st9{fill:#C3C3C8;}
	.st10{fill:none;stroke:#1D4B66;stroke-width:0.415;stroke-linecap:round;stroke-miterlimit:10;}
	.st11{fill:#1D4B66;}
	.st12{opacity:0.3;}
	.st13{clip-path:url(#XMLID_137_);fill:#AEADB3;}
	.st14{fill:none;stroke:#1D4B66;stroke-width:2.427;stroke-miterlimit:10;}
	.st15{fill:#D27D2F;}
	.st16{fill:none;stroke:#1D4B66;stroke-linecap:round;stroke-miterlimit:10;}
	.st17{fill:#C8EBFB;}
</style>
<line id="XMLID_84_" class="st0" x1="120.2" y1="6.2" x2="120.2" y2="114.8"/>
<path id="XMLID_83_" class="st1" d="M25,119.2c0.3-0.2-13.5-32.5-9.8-33.5c3.8-1,28.2-6,29.2-2.8c1,3.2,2.1,31.2,2.1,31.2"/>
<path id="XMLID_82_" class="st0" d="M25,119.2c0.3-0.2-13.5-32.5-9.8-33.5c3.8-1,28.2-6,29.2-2.8c1,3.2,2.1,31.2,2.1,31.2"/>
<path id="XMLID_81_" class="st1" d="M59.6,122c0,3.6-8.1,6.5-18,6.5c-9.9,0-18-2.9-18-6.5c0-3.6,8.1-6.5,18-6.5
	C51.6,115.5,59.6,118.4,59.6,122"/>
<ellipse id="XMLID_80_" class="st0" cx="41.6" cy="122" rx="18" ry="6.5"/>
<line id="XMLID_79_" class="st0" x1="55.3" y1="126.1" x2="55.3" y2="144.2"/>
<line id="XMLID_78_" class="st0" x1="49.3" y1="128.5" x2="49.3" y2="155.1"/>
<line id="XMLID_77_" class="st0" x1="31" y1="128.1" x2="31" y2="146"/>
<line id="XMLID_76_" class="st0" x1="25.7" y1="125.6" x2="25.7" y2="155.2"/>
<polyline id="XMLID_75_" class="st2" points="99.6,128 65.4,144.1 207,172.4 206.5,135.5 "/>
<path id="XMLID_74_" class="st3" d="M45.7,140c2.5-1,66.1-21.6,66.1-21.6l140.7,6.4"/>
<rect id="XMLID_73_" x="212.8" y="30.3" class="st4" width="35" height="48.9"/>
<rect id="XMLID_72_" x="212.8" y="30.3" class="st3" width="35" height="48.9"/>
<rect id="XMLID_71_" x="208" y="75.8" class="st2" width="44.8" height="8.8"/>
<rect id="XMLID_70_" x="208" y="75.8" class="st3" width="44.8" height="8.8"/>
<line id="XMLID_69_" class="st3" x1="230.4" y1="75.3" x2="230.4" y2="30.6"/>
<path id="XMLID_68_" class="st5" d="M148.7,78.2c0,0-0.5,8.5-5.5,11.7c-5,3.3-11.8,6.5-11.8,6.5"/>
<path id="XMLID_67_" class="st5" d="M164.5,147.1c0,0,1.9-17.5,0.9-39.5"/>
<path id="XMLID_66_" class="st5" d="M151.5,147.5c0,0,1.1-17.1,0.9-39.5"/>
<path id="XMLID_65_" class="st1" d="M165.1,72.7c2.1,3.8,5.4,5.3,7.8,15.4c1,4,1.2,7.6,0,13.5c-0.4,2.1-5.3,5.8-10.5,6.7
	c-2.8,0.5-6.1,0.2-10.6-0.5c-1.7-0.2-8.3-1.6-8.8-6.5c-0.4-3.7-1.6-7.7,0-13.5c1.4-4.9,2.9-7.2,9-16c6.1-8.7,5.6-8.6,5.6-8.6
	S162.9,68.9,165.1,72.7"/>
<g id="XMLID_61_">
	<g id="XMLID_62_">
		<defs>
			<rect id="XMLID_63_" x="143.5" y="70.1" width="13.7" height="35.9"/>
		</defs>
		<clipPath id="XMLID_136_">
			<use xlink:href="#XMLID_63_"  style="overflow:visible;"/>
		</clipPath>
		<path id="XMLID_64_" class="st6" d="M147.1,80.3c1-2,2.3-3.8,3.2-5.8c0.5-1,1.2-2.6,2.4-3c0.2-0.2,0.5-0.3,0.7-0.4
			c-0.3-0.1-0.6-0.3-0.9-0.5c-0.3-0.2-0.7-0.4-1-0.6c2,0.5,4,1,5.7,2.2c-0.2,0-0.5-0.1-0.7-0.1c0.4,0.5,0.7,1.2,0.7,1.9
			c0,2.1-1.2,4-2.3,5.7c-1.9,2.9-3.3,5.4-3.7,8.9c-0.4,3-0.1,6.2,0.7,9.1c0.6,2.3,2.8,3.7,3.2,6c0.5,2.4-1.6,2.4-3.5,2
			c-0.5,0.1-1,0-1.2-0.4c-0.6-0.2-1-0.4-1.4-0.5c-3.8-1.8-5.1-5-5.4-8.9C143.2,90.5,144.7,85.2,147.1,80.3"/>
	</g>
</g>
<path id="XMLID_60_" class="st7" d="M165.6,72.7c2.1,3.8,5.4,5.3,7.8,15.4c1,4,1.2,7.6,0,13.5c-0.4,2.1-5.3,5.8-10.5,6.7
	c-2.8,0.5-6.1,0.2-10.6-0.5c-1.7-0.2-8.3-1.6-8.8-6.5c-0.4-3.7-1.6-7.7,0-13.5c1.4-4.9,2.9-7.2,9-16c6.1-8.7,5.6-8.6,5.6-8.6
	S163.4,68.9,165.6,72.7z"/>
<path id="XMLID_59_" class="st8" d="M146.2,58.8c0,6.9,5.6,12.5,12.5,12.5c6.9,0,12.5-5.6,12.5-12.5s-5.6-12.5-12.5-12.5
	C151.8,46.3,146.2,51.9,146.2,58.8"/>
<path id="XMLID_58_" class="st1" d="M157.2,71.1c-1.2-0.4-2.4-0.8-3.5-1.3c0.1,0,0.1-0.1,0.2-0.1c-0.3-0.1-0.6-0.3-0.9-0.5
	c-3.5-1.9-7.6-6.5-5.6-10.5c2.2-4.4,6.4,1.7,7.7,3.3c1.5,1.8,3.7,2.8,6,2.9c0.5-0.3,1-0.2,1.4,0c2.6-0.2,5-1.5,6.1-4
	c0.5-1.1,1.9-0.5,2.1,0.5c0.9-0.5,2.2,0.6,1.5,1.5c-0.3,0.4-0.5,0.8-0.8,1.2c-0.2,1-0.9,1.9-1.8,2.6c-0.3,0.2-0.5,0.3-0.8,0.3
	c0,0.2-0.1,0.4-0.3,0.6c-3.4,2.6-7.5,3.8-11.5,3C157,70.9,157.1,71,157.2,71.1"/>
<path id="XMLID_57_" class="st7" d="M146.7,58.8c0,6.9,5.6,12.5,12.5,12.5c6.9,0,12.5-5.6,12.5-12.5s-5.6-12.5-12.5-12.5
	C152.3,46.3,146.7,51.9,146.7,58.8z"/>
<path id="XMLID_56_" class="st5" d="M164.6,72.6c0,0-1.9,3.3-5.8,3.3c-3.9,0-5.2-3.3-5.2-3.3"/>
<polyline id="XMLID_55_" class="st2" points="90.1,114.1 90.1,141.7 164.5,152.6 187.2,138.5 186.9,111.6 "/>
<polyline id="XMLID_54_" class="st5" points="90.1,114.1 90.1,141.7 164.5,152.6 187.2,138.5 186.9,111.6 "/>
<polygon id="XMLID_53_" class="st2" points="81.7,113 81.7,105.7 120.4,96.7 190.6,99.2 189,110.3 162.8,120.7 "/>
<polygon id="XMLID_52_" class="st5" points="81.7,113 81.7,105.7 120.4,96.7 190.6,99.2 189,110.3 162.8,120.7 "/>
<polyline id="XMLID_51_" class="st5" points="82.2,105.9 161.2,113.1 190.4,99.9 "/>
<path id="XMLID_50_" class="st9" d="M151.5,70.1l-0.7,3.1l1,4.3l5-3l6.1,3.9l3.8-4.9l-1.4-2.9c0,0-5.6,1.5-8.5,1
	C153.9,71.1,151.5,70.1,151.5,70.1"/>
<path id="XMLID_49_" class="st5" d="M151.5,70.1l-0.7,3.1l1,4.3l5-3l6.1,3.9l3.8-4.9l-1.4-2.9c0,0-5.6,1.5-8.5,1
	C153.9,71.1,151.5,70.1,151.5,70.1z"/>
<path id="XMLID_48_" class="st4" d="M156.8,74.5c0,0-1.7,3.3-2.7,11.3c-1,8-0.6,12.2-0.6,12.2"/>
<path id="XMLID_47_" class="st5" d="M156.8,74.5c0,0-1.7,3.3-2.7,11.3c-1,8-0.6,12.2-0.6,12.2"/>
<path id="XMLID_46_" class="st1" d="M122.6,100.8c0.3,0,9.1-3,9.1-3l25,1.1l-5.9,3.7L122.6,100.8z"/>
<path id="XMLID_45_" class="st10" d="M122.6,100.8c0.3,0,9.1-3,9.1-3l25,1.1l-5.9,3.7L122.6,100.8z"/>
<line id="XMLID_44_" class="st10" x1="131.7" y1="98.6" x2="152.6" y2="99.6"/>
<line id="XMLID_43_" class="st10" x1="129.5" y1="99.3" x2="151.8" y2="100.6"/>
<line id="XMLID_42_" class="st10" x1="127.3" y1="100.2" x2="149.9" y2="101.8"/>
<path id="XMLID_41_" class="st5" d="M166.7,74.4c-2.5-0.7,13.1,20-14.9,25.8"/>
<path id="XMLID_40_" class="st8" d="M143.7,106.8c0,0,16.5-7.2,16.9-7.1c0.4,0.1,17.2,0.7,17.2,0.7L162,108L143.7,106.8z"/>
<path id="XMLID_39_" class="st10" d="M143.7,106.8c0,0,16.5-7.2,16.9-7.1c0.4,0.1,17.2,0.7,17.2,0.7L162,108L143.7,106.8z"/>
<path id="XMLID_38_" class="st8" d="M143.7,105.6c0,0,16.5-7.2,16.9-7.1c0.4,0.1,17.2,0.7,17.2,0.7l-15.8,7.6L143.7,105.6z"/>
<path id="XMLID_37_" class="st10" d="M143.7,105.6c0,0,16.5-7.2,16.9-7.1c0.4,0.1,17.2,0.7,17.2,0.7l-15.8,7.6L143.7,105.6z"/>
<path id="XMLID_36_" class="st8" d="M143.7,104.3c0,0,16.5-7.2,16.9-7.1c0.4,0.1,17.2,0.7,17.2,0.7l-15.8,7.6L143.7,104.3z"/>
<path id="XMLID_35_" class="st10" d="M143.7,104.3c0,0,16.5-7.2,16.9-7.1c0.4,0.1,17.2,0.7,17.2,0.7l-15.8,7.6L143.7,104.3z"/>
<path id="XMLID_34_" class="st8" d="M143.8,102.6c0,0,16.5-7.2,16.9-7.1c0.4,0.1,17.2,0.7,17.2,0.7l-15.8,7.6L143.8,102.6z"/>
<path id="XMLID_33_" class="st10" d="M143.8,102.6c0,0,16.5-7.2,16.9-7.1c0.4,0.1,17.2,0.7,17.2,0.7l-15.8,7.6L143.8,102.6z"/>
<path id="XMLID_32_" class="st11" d="M152.4,59.5c0,0.7-0.6,1.2-1.2,1.2c-0.7,0-1.2-0.5-1.2-1.2c0-0.7,0.6-1.2,1.2-1.2
	C151.9,58.3,152.4,58.8,152.4,59.5"/>
<path id="XMLID_31_" class="st11" d="M159.1,59.7c0,0.7-0.5,1.2-1.2,1.2c-0.7,0-1.2-0.5-1.2-1.2c0-0.7,0.5-1.2,1.2-1.2
	C158.6,58.5,159.1,59.1,159.1,59.7"/>
<line id="XMLID_30_" class="st5" x1="163.8" y1="149.3" x2="163.8" y2="121"/>
<path id="XMLID_29_" class="st0" d="M58.5,90.9c0,0,4.1,11.8,8.2,13.9c4.2,2.1,15.4,4.4,15.4,4.4l2.1,6.1"/>
<path id="XMLID_28_" class="st1" d="M39.9,84.9c-2.3,4-5.7,5.6-8.3,16.4c-1,4.2-1.3,8.1,0,14.4c0.4,2.2,5.6,6.2,11.2,7.1
	c3,0.5,6.4,0.2,11.3-0.5c1.8-0.2,8.9-1.7,9.4-7c0.4-4,1.7-8.2,0-14.4c-1.5-5.2-3.1-7.7-9.6-17c-6.5-9.3-6-9.1-6-9.1
	S42.2,80.8,39.9,84.9"/>
<g id="XMLID_24_" class="st12">
	<g id="XMLID_25_">
		<defs>
			<rect id="XMLID_26_" x="48.3" y="82.1" width="14.6" height="40.2"/>
		</defs>
		<clipPath id="XMLID_137_">
			<use xlink:href="#XMLID_26_"  style="overflow:visible;"/>
		</clipPath>
		<path id="XMLID_27_" class="st13" d="M59.2,93.5c-1-2.2-2.4-4.2-3.4-6.5c-0.5-1.2-1.2-2.9-2.6-3.3c-0.2-0.2-0.5-0.4-0.8-0.4
			c0.3-0.2,0.6-0.3,1-0.5c0.4-0.2,0.7-0.4,1.1-0.7c-2.1,0.6-4.2,1.1-6.1,2.4c0.2,0,0.5-0.1,0.7-0.1c-0.5,0.6-0.8,1.3-0.8,2.2
			c0,2.4,1.2,4.5,2.5,6.4c2,3.3,3.5,6,3.9,9.9c0.4,3.3,0.1,6.9-0.7,10.2c-0.6,2.5-3,4.1-3.4,6.7c-0.5,2.6,1.7,2.7,3.7,2.2
			c0.5,0.1,1.1,0,1.3-0.4c0.6-0.2,1.1-0.4,1.4-0.6c4.1-2,5.5-5.6,5.7-10C63.2,104.9,61.7,99,59.2,93.5"/>
	</g>
</g>
<path id="XMLID_23_" class="st14" d="M39.4,84.9c-2.3,4-5.7,5.6-8.3,16.4c-1,4.2-1.3,8.1,0,14.4c0.5,2.2,5.6,6.2,11.2,7.1
	c3,0.5,6.4,0.2,11.3-0.5c1.8-0.2,8.9-1.7,9.4-7c0.4-4,1.7-8.2,0-14.4c-1.5-5.2-3.1-7.7-9.6-17c-6.5-9.3-6-9.1-6-9.1
	S41.7,80.8,39.4,84.9z"/>
<path id="XMLID_22_" class="st8" d="M64,66.1c2.5,6.9-1.1,14.5-8,17c-6.9,2.5-14.5-1.1-17-8c-2.5-6.9,1.1-14.5,8-17
	C53.9,55.6,61.5,59.1,64,66.1"/>
<path id="XMLID_21_" class="st1" d="M57.5,82.3c1-0.8,2.1-1.6,3.1-2.5c-0.1,0-0.1,0-0.2,0c0.3-0.3,0.5-0.5,0.7-0.8
	c2.8-3.2,5.2-9.2,1.8-12.6c-3.8-3.7-5.8,4-6.5,6.1c-0.8,2.3-2.7,4.1-5,5.1c-0.6-0.1-1.1,0.1-1.4,0.5c-2.7,0.8-5.5,0.3-7.6-1.7
	c-0.9-0.9-2.1,0.2-1.9,1.2c-1.1-0.1-2,1.4-1,2.1c0.4,0.3,0.8,0.6,1.2,0.9c0.6,1,1.6,1.6,2.7,2c0.3,0.1,0.7,0.1,0.9,0
	c0.1,0.2,0.3,0.4,0.6,0.5c4.4,1.4,8.9,1.1,12.6-1.2C57.5,82,57.5,82.2,57.5,82.3"/>
<circle id="XMLID_20_" class="st14" cx="51" cy="70.7" r="13.3"/>
<path id="XMLID_19_" class="st0" d="M53.2,84.1c0,0,1.2,4.6-3,4.6c-4.2,0-6.7-6.1-6.7-6.1"/>
<path id="XMLID_18_" class="st11" d="M47.7,68.7c0-0.9,0.7-1.6,1.6-1.6c0.9,0,1.6,0.7,1.6,1.6c0,0.9-0.7,1.6-1.6,1.6
	C48.5,70.3,47.7,69.6,47.7,68.7"/>
<path id="XMLID_17_" class="st11" d="M57.3,68.7c0-0.9,0.7-1.6,1.6-1.6c0.9,0,1.6,0.7,1.6,1.6c0,0.9-0.7,1.6-1.6,1.6
	C58,70.3,57.3,69.6,57.3,68.7"/>
<path id="XMLID_16_" class="st11" d="M57.4,77.3c-2.5,0.3-5.8-0.3-6.8-3c-0.2-0.7-1.3-0.4-1.1,0.3c1.2,3.2,4.8,4.2,7.9,3.8
	C58.2,78.3,58.2,77.2,57.4,77.3"/>
<path id="XMLID_15_" class="st0" d="M62.4,117.5c0,0,11.4-11.9,14.9-8c3.5,4-0.7,43.5-0.4,43.9"/>
<path id="XMLID_14_" class="st4" d="M49.4,88.9l0.3,3.2l1.5,1l-0.6,1.5l3.9,22.4l2.8,2.5c0,0,1.8-3.1,1.5-3.1
	c-0.3,0-4.9-22.1-4.9-22.1l-1.5-1.1l0.5-1.1l-0.9-3.4L50.5,88L49.4,88.9z"/>
<path id="XMLID_13_" class="st0" d="M40,121.8c0.3-0.4,13.9-12.2,17.7-9.1c3.8,3.1,0.4,42,0.9,42"/>
<path id="XMLID_12_" class="st0" d="M34.7,90.2c-0.4,0.4-2.8,20.3,3.1,21.8c5.9,1.5,24.7,1.7,24.7,1.7l3.2,4.5"/>
<path id="XMLID_11_" class="st1" d="M40,81.1c0,0,2.9,2.8,4.8,3.7c1.8,0.9,4.6,3.4,4.6,3.4L47.3,92l-8.5-6.7L40,81.1z"/>
<path id="XMLID_10_" class="st0" d="M40,81.1c0,0,2.9,2.8,4.8,3.7c1.8,0.9,4.6,3.4,4.6,3.4L47.3,92l-8.5-6.7L40,81.1z"/>
<polyline id="XMLID_9_" class="st1" points="54.5,85.2 52,88.2 54.7,90.7 56.1,85.6 54.9,84.6 "/>
<polyline id="XMLID_8_" class="st0" points="54.5,85.2 52,88.2 54.7,90.7 56.1,85.6 54.9,84.6 "/>
<path id="XMLID_7_" class="st0" d="M40.6,61.8c0,0,3.2-2.3,3.9-4.3c0.8-2,1-4.1,1-4.1"/>
<path id="XMLID_6_" class="st0" d="M48.1,58.2c0,0,3.2-2.3,3.9-4.3c0.8-2,1-4.1,1-4.1"/>
<path id="XMLID_5_" class="st0" d="M54.4,59.2c0,0,3.2-2.3,3.9-4.3c0.8-2,1-4.1,1-4.1"/>
<path id="XMLID_4_" class="st0" d="M59.6,61.3c0,0,3.2-2.3,3.9-4.3c0.8-2,1-4.1,1-4.1"/>
<path id="XMLID_3_" class="st11" d="M148.9,47.8c-0.3,3,3.7,5.3,6.1,6c-1.2-1.2-1.3-3.1-0.4-4.5c0.8,1.4,2.6,2.3,3.9,3.1
	c-0.4-1-1.6-3.8,0.3-3.5c1.1,0.2,2.2,1.4,3.1,2.1c0.8,0.6,1.7,1.3,2.6,1.7c-0.3-1.3-0.8-2.3,0.8-2.6c1.2-0.2,2.3,0,3.3,0.6
	c1.5,0.9,2.8,2.5,3.4,4.2c0.4,1.2,0.2,2.6,0.3,3.9c0.4-2.5,1.7-4.8,1.8-7.4c0-0.8,0.3-1.6-0.5-1.8c-0.6-0.2-2,0.5-2.4,0.9
	c-0.6-1.7,0.7-3.4,0.4-5.1c-1.1,0.5-2.3,2.4-3.5,2.6c-0.7,0.1-1.6-1-2.2-1.5c-2.5-2.2-6.2-3.1-9.5-3.1c-2.1,0-4.9,0.4-6.7,1.7
	c-0.8,0.6-2.1,2.7-1.2,3.7"/>
<path id="XMLID_2_" class="st15" d="M156.8,73.1l-2.5,1.4l-0.5,2.3l0.7,1.2l-1.7,3.1c0,0-2.2,15.4-2.1,15.3c0.2-0.1,5.4,0.2,5.4,0.2
	l1.6-15.3l-1.1-2.9l1.6-1.4l0.2-3L156.8,73.1z"/>
<path id="XMLID_87_" class="st16" d="M159.9,66.5c0,0-1.9-0.6-4.1-0.1c-2.2,0.5-3.7,0.4-3.7,0.4"/>
<g id="XMLID_131_">
	<path id="XMLID_132_" class="st11" d="M180.4,50.5c-0.1,0-0.1,0.1-0.1,0.1c0,0.1-0.1,0.1-0.1,0.2c-0.1,0.2-0.3,0.4-0.5,0.4
		c-0.2,0.1-0.4,0.1-0.6,0c-0.1,0-0.2-0.1-0.3-0.1c-0.1-0.1-0.1-0.1-0.2-0.2c-0.1-0.1-0.1-0.2-0.1-0.3c0-0.1,0-0.2,0.1-0.4
		c0.1-0.1,0.1-0.3,0.2-0.4c0.1-0.1,0.2-0.2,0.4-0.3c0.1-0.1,0.3-0.2,0.4-0.3c0.1-0.1,0.3-0.2,0.4-0.2c0.1-0.1,0.2-0.1,0.4-0.2
		c0.1-0.1,0.3-0.2,0.4-0.2c0.1-0.1,0.3-0.2,0.4-0.3c0.1-0.1,0.2-0.3,0.3-0.4c0.1-0.3,0.1-0.5,0-0.8c-0.1-0.3-0.3-0.5-0.7-0.6
		c-0.1,0-0.3-0.1-0.4-0.1c-0.2,0-0.3,0-0.5,0c-0.1,0-0.3,0-0.4,0.1c-0.1,0-0.3,0-0.4,0c-0.2-0.1-0.3-0.2-0.4-0.4
		c-0.1-0.2-0.1-0.4,0-0.6c0.1-0.2,0.2-0.3,0.5-0.4c0.2-0.1,0.5-0.1,0.8-0.1c0.3,0,0.6,0,0.9,0.1c0.3,0.1,0.6,0.1,0.8,0.2
		c0.4,0.1,0.7,0.3,1,0.6c0.3,0.2,0.5,0.5,0.6,0.8c0.1,0.3,0.2,0.6,0.2,0.9c0,0.3-0.1,0.7-0.2,1c-0.2,0.4-0.4,0.8-0.7,1.1
		c-0.3,0.3-0.6,0.5-1,0.6c-0.3,0.1-0.5,0.2-0.6,0.3C180.7,50.4,180.6,50.4,180.4,50.5z M179.6,52.7c-0.1,0.2-0.3,0.4-0.5,0.5
		c-0.2,0.1-0.5,0.1-0.8,0c-0.3-0.1-0.4-0.3-0.6-0.5c-0.1-0.2-0.1-0.5,0-0.7c0.1-0.2,0.3-0.4,0.5-0.5c0.2-0.1,0.5-0.1,0.8,0
		c0.3,0.1,0.5,0.3,0.6,0.5C179.7,52.2,179.7,52.5,179.6,52.7z"/>
</g>
<g id="XMLID_127_">
	<path id="XMLID_128_" class="st11" d="M148.4,37.2c0,0.1,0,0.1,0.1,0.2c0,0.1,0.1,0.1,0.1,0.1c0.2,0.2,0.2,0.4,0.2,0.6
		c0,0.2-0.1,0.4-0.2,0.6c-0.1,0.1-0.1,0.1-0.2,0.2c-0.1,0.1-0.2,0.1-0.3,0.1c-0.1,0-0.2,0-0.3,0c-0.1,0-0.2-0.1-0.3-0.2
		c-0.1-0.1-0.2-0.2-0.3-0.4c-0.1-0.1-0.1-0.3-0.2-0.5c0-0.2-0.1-0.3-0.1-0.5c0-0.2,0-0.3,0-0.5c0-0.1,0-0.3,0-0.4
		c0-0.2,0-0.3-0.1-0.5c0-0.2-0.1-0.3-0.2-0.5c-0.1-0.2-0.2-0.3-0.3-0.4c-0.2-0.2-0.5-0.3-0.7-0.3c-0.3,0-0.6,0.2-0.8,0.5
		c-0.1,0.1-0.2,0.2-0.3,0.4c-0.1,0.1-0.2,0.3-0.2,0.5c0,0.1-0.1,0.3-0.1,0.4c0,0.1-0.1,0.3-0.2,0.4c-0.1,0.1-0.3,0.2-0.5,0.3
		c-0.2,0-0.4,0-0.6-0.2c-0.2-0.1-0.2-0.3-0.2-0.6c0-0.2,0.1-0.5,0.2-0.8c0.1-0.3,0.2-0.5,0.4-0.8c0.2-0.3,0.3-0.5,0.5-0.7
		c0.3-0.3,0.6-0.5,0.9-0.7s0.6-0.3,1-0.3c0.3,0,0.6,0,1,0.1c0.3,0.1,0.6,0.3,0.9,0.5c0.4,0.3,0.6,0.7,0.7,1c0.1,0.4,0.2,0.7,0.3,1.1
		c0,0.3,0,0.5,0.1,0.7C148.4,36.9,148.4,37.1,148.4,37.2z M150.2,38.7c0.2,0.2,0.3,0.4,0.3,0.7c0,0.3-0.1,0.5-0.3,0.7
		c-0.2,0.2-0.4,0.3-0.7,0.3c-0.3,0-0.5-0.1-0.7-0.2c-0.2-0.2-0.3-0.4-0.3-0.7c0-0.3,0.1-0.5,0.3-0.7c0.2-0.2,0.4-0.3,0.7-0.4
		C149.7,38.5,150,38.6,150.2,38.7z"/>
</g>
<g id="XMLID_123_">
	<path id="XMLID_124_" class="st11" d="M167.6,33.4c0.1,0,0.1-0.1,0.1-0.1c0-0.1,0.1-0.1,0.1-0.2c0.1-0.2,0.3-0.4,0.5-0.4
		c0.2-0.1,0.4-0.1,0.6,0c0.1,0,0.2,0.1,0.3,0.1c0.1,0.1,0.1,0.1,0.2,0.2c0.1,0.1,0.1,0.2,0.1,0.3c0,0.1,0,0.2-0.1,0.4
		c-0.1,0.1-0.1,0.3-0.2,0.4c-0.1,0.1-0.2,0.2-0.4,0.3c-0.1,0.1-0.3,0.2-0.4,0.3c-0.1,0.1-0.3,0.2-0.4,0.2c-0.1,0.1-0.2,0.1-0.4,0.2
		c-0.1,0.1-0.3,0.2-0.4,0.2c-0.1,0.1-0.3,0.2-0.4,0.3c-0.1,0.1-0.2,0.3-0.3,0.4c-0.1,0.3-0.1,0.5,0,0.8c0.1,0.3,0.3,0.5,0.7,0.6
		c0.1,0,0.3,0.1,0.4,0.1c0.2,0,0.3,0,0.5,0c0.1,0,0.3,0,0.4-0.1c0.1,0,0.3,0,0.4,0c0.2,0.1,0.3,0.2,0.4,0.4c0.1,0.2,0.1,0.4,0,0.6
		c-0.1,0.2-0.2,0.3-0.5,0.4c-0.2,0.1-0.5,0.1-0.8,0.1c-0.3,0-0.6,0-0.9-0.1c-0.3-0.1-0.6-0.1-0.8-0.2c-0.4-0.1-0.7-0.3-1-0.6
		c-0.3-0.2-0.5-0.5-0.6-0.8c-0.1-0.3-0.2-0.6-0.2-0.9c0-0.3,0.1-0.7,0.2-1c0.2-0.4,0.4-0.8,0.7-1.1c0.3-0.3,0.6-0.5,1-0.6
		c0.3-0.1,0.5-0.2,0.6-0.3C167.3,33.6,167.5,33.5,167.6,33.4z M168.4,31.2c0.1-0.2,0.3-0.4,0.5-0.5c0.2-0.1,0.5-0.1,0.8,0
		c0.3,0.1,0.4,0.3,0.6,0.5c0.1,0.2,0.1,0.5,0,0.7c-0.1,0.2-0.3,0.4-0.5,0.5c-0.2,0.1-0.5,0.1-0.8,0c-0.3-0.1-0.5-0.3-0.6-0.5
		C168.3,31.7,168.3,31.5,168.4,31.2z"/>
</g>
<g id="XMLID_113_">
	<path id="XMLID_114_" class="st17" d="M181.7,50.1c-0.1,0-0.1,0.1-0.1,0.1c0,0.1-0.1,0.1-0.1,0.2c-0.1,0.2-0.3,0.4-0.5,0.4
		c-0.2,0.1-0.4,0.1-0.6,0c-0.1,0-0.2-0.1-0.3-0.1c-0.1-0.1-0.1-0.1-0.2-0.2c-0.1-0.1-0.1-0.2-0.1-0.3c0-0.1,0-0.2,0.1-0.4
		c0.1-0.1,0.1-0.3,0.2-0.4c0.1-0.1,0.2-0.2,0.4-0.3c0.1-0.1,0.3-0.2,0.4-0.3s0.3-0.2,0.4-0.2c0.1-0.1,0.2-0.1,0.4-0.2
		c0.1-0.1,0.3-0.2,0.4-0.2c0.1-0.1,0.3-0.2,0.4-0.3c0.1-0.1,0.2-0.3,0.3-0.4c0.1-0.3,0.1-0.5,0-0.8c-0.1-0.3-0.3-0.5-0.7-0.6
		c-0.1,0-0.3-0.1-0.4-0.1c-0.2,0-0.3,0-0.5,0c-0.1,0-0.3,0-0.4,0.1c-0.1,0-0.3,0-0.4,0c-0.2-0.1-0.3-0.2-0.4-0.4
		c-0.1-0.2-0.1-0.4,0-0.6c0.1-0.2,0.2-0.3,0.5-0.4c0.2-0.1,0.5-0.1,0.8-0.1c0.3,0,0.6,0,0.9,0.1c0.3,0.1,0.6,0.1,0.8,0.2
		c0.4,0.1,0.7,0.3,1,0.6c0.3,0.2,0.5,0.5,0.6,0.8c0.1,0.3,0.2,0.6,0.2,0.9c0,0.3-0.1,0.7-0.2,1c-0.2,0.4-0.4,0.8-0.7,1.1
		c-0.3,0.3-0.6,0.5-1,0.6c-0.3,0.1-0.5,0.2-0.6,0.3C182,50,181.8,50.1,181.7,50.1z M180.9,52.4c-0.1,0.2-0.3,0.4-0.5,0.5
		c-0.2,0.1-0.5,0.1-0.8,0c-0.3-0.1-0.4-0.3-0.6-0.5c-0.1-0.2-0.1-0.5,0-0.7c0.1-0.2,0.3-0.4,0.5-0.5c0.2-0.1,0.5-0.1,0.8,0
		c0.3,0.1,0.5,0.3,0.6,0.5C181,51.9,181,52.1,180.9,52.4z"/>
</g>
<g id="XMLID_85_">
	<path id="XMLID_86_" class="st17" d="M149.6,36.9c0,0.1,0,0.1,0.1,0.2c0,0.1,0.1,0.1,0.1,0.1c0.2,0.2,0.2,0.4,0.2,0.6
		c0,0.2-0.1,0.4-0.2,0.6c-0.1,0.1-0.1,0.1-0.2,0.2c-0.1,0.1-0.2,0.1-0.3,0.1c-0.1,0-0.2,0-0.3,0c-0.1,0-0.2-0.1-0.3-0.2
		c-0.1-0.1-0.2-0.2-0.3-0.4c-0.1-0.1-0.1-0.3-0.2-0.5c0-0.2-0.1-0.3-0.1-0.5s0-0.3,0-0.5c0-0.1,0-0.3,0-0.4c0-0.2,0-0.3-0.1-0.5
		c0-0.2-0.1-0.3-0.2-0.5c-0.1-0.2-0.2-0.3-0.3-0.4c-0.2-0.2-0.5-0.3-0.7-0.3c-0.3,0-0.6,0.2-0.8,0.5c-0.1,0.1-0.2,0.2-0.3,0.4
		c-0.1,0.1-0.2,0.3-0.2,0.5c0,0.1-0.1,0.3-0.1,0.4c0,0.1-0.1,0.3-0.2,0.4c-0.1,0.1-0.3,0.2-0.5,0.3c-0.2,0-0.4,0-0.6-0.2
		c-0.2-0.1-0.2-0.3-0.2-0.6c0-0.2,0.1-0.5,0.2-0.8c0.1-0.3,0.2-0.5,0.4-0.8c0.2-0.3,0.3-0.5,0.5-0.7c0.3-0.3,0.6-0.5,0.9-0.7
		c0.3-0.2,0.6-0.3,1-0.3c0.3,0,0.6,0,1,0.1c0.3,0.1,0.6,0.3,0.9,0.5c0.4,0.3,0.6,0.7,0.7,1c0.1,0.4,0.2,0.7,0.3,1.1
		c0,0.3,0,0.5,0.1,0.7C149.6,36.6,149.6,36.7,149.6,36.9z M151.4,38.4c0.2,0.2,0.3,0.4,0.3,0.7c0,0.3-0.1,0.5-0.3,0.7
		c-0.2,0.2-0.4,0.3-0.7,0.3c-0.3,0-0.5-0.1-0.7-0.2s-0.3-0.4-0.3-0.7c0-0.3,0.1-0.5,0.3-0.7c0.2-0.2,0.4-0.3,0.7-0.4
		C151,38.2,151.2,38.2,151.4,38.4z"/>
</g>
<g id="XMLID_119_">
	<path id="XMLID_120_" class="st17" d="M168.9,33.1c0.1,0,0.1-0.1,0.1-0.1c0-0.1,0.1-0.1,0.1-0.2c0.1-0.2,0.3-0.4,0.5-0.4
		c0.2-0.1,0.4-0.1,0.6,0c0.1,0,0.2,0.1,0.3,0.1c0.1,0.1,0.1,0.1,0.2,0.2c0.1,0.1,0.1,0.2,0.1,0.3c0,0.1,0,0.2-0.1,0.4
		c-0.1,0.1-0.1,0.3-0.2,0.4c-0.1,0.1-0.2,0.2-0.4,0.3c-0.1,0.1-0.3,0.2-0.4,0.3s-0.3,0.2-0.4,0.2c-0.1,0.1-0.2,0.1-0.4,0.2
		c-0.1,0.1-0.3,0.2-0.4,0.2c-0.1,0.1-0.3,0.2-0.4,0.3c-0.1,0.1-0.2,0.3-0.3,0.4c-0.1,0.3-0.1,0.5,0,0.8c0.1,0.3,0.3,0.5,0.7,0.6
		c0.1,0,0.3,0.1,0.4,0.1c0.2,0,0.3,0,0.5,0c0.1,0,0.3,0,0.4-0.1c0.1,0,0.3,0,0.4,0c0.2,0.1,0.3,0.2,0.4,0.4c0.1,0.2,0.1,0.4,0,0.6
		c-0.1,0.2-0.2,0.3-0.5,0.4c-0.2,0.1-0.5,0.1-0.8,0.1c-0.3,0-0.6,0-0.9-0.1c-0.3-0.1-0.6-0.1-0.8-0.2c-0.4-0.1-0.7-0.3-1-0.6
		c-0.3-0.2-0.5-0.5-0.6-0.8c-0.1-0.3-0.2-0.6-0.2-0.9c0-0.3,0.1-0.7,0.2-1c0.2-0.4,0.4-0.8,0.7-1.1c0.3-0.3,0.6-0.5,1-0.6
		c0.3-0.1,0.5-0.2,0.6-0.3C168.6,33.2,168.7,33.2,168.9,33.1z M169.7,30.9c0.1-0.2,0.3-0.4,0.5-0.5c0.2-0.1,0.5-0.1,0.8,0
		c0.3,0.1,0.4,0.3,0.6,0.5c0.1,0.2,0.1,0.5,0,0.7c-0.1,0.2-0.3,0.4-0.5,0.5c-0.2,0.1-0.5,0.1-0.8,0c-0.3-0.1-0.5-0.3-0.6-0.5
		C169.6,31.4,169.6,31.1,169.7,30.9z"/>
</g>
</svg>
