<?xml version="1.0" encoding="utf-8"?>
<!-- Generator: Adobe Illustrator 19.0.0, SVG Export Plug-In . SVG Version: 6.00 Build 0)  -->
<svg version="1.1" id="Capa_1" xmlns="http://www.w3.org/2000/svg" xmlns:xlink="http://www.w3.org/1999/xlink" x="0px" y="0px"
	 viewBox="-168 307 273.7 179" style="enable-background:new -168 307 273.7 179;" xml:space="preserve">
<style type="text/css">
	.st0{fill:none;stroke:#1D4B66;stroke-width:2.427;stroke-linecap:round;stroke-miterlimit:10;}
	.st1{fill:#DFDEE4;}
	.st2{fill:#C6C5CF;}
	.st3{fill:none;stroke:#1D4B66;stroke-width:2.289;stroke-linecap:round;stroke-miterlimit:10;}
	.st4{fill:#1B98C6;}
	.st5{fill:none;stroke:#1D4B66;stroke-width:2.278;stroke-linecap:round;stroke-miterlimit:10;}
	.st6{clip-path:url(#SVGID_2_);fill:#C3C3C8;}
	.st7{fill:none;stroke:#1D4B66;stroke-width:2.278;stroke-miterlimit:10;}
	.st8{fill:#FFFFFF;}
	.st9{fill:#C3C3C8;}
	.st10{fill:none;stroke:#1D4B66;stroke-width:0.415;stroke-linecap:round;stroke-miterlimit:10;}
	.st11{fill:#1D4B66;}
	.st12{opacity:0.3;}
	.st13{clip-path:url(#SVGID_4_);fill:#AEADB3;}
	.st14{fill:none;stroke:#1D4B66;stroke-width:2.427;stroke-miterlimit:10;}
	.st15{fill:#D27D2F;}
	.st16{fill:#C8EBFB;}
</style>
<line id="XMLID_84_" class="st0" x1="-47.8" y1="313.2" x2="-47.8" y2="421.8"/>
<path id="XMLID_83_" class="st1" d="M-143,426.2c0.3-0.2-13.5-32.5-9.8-33.5c3.8-1,28.2-6,29.2-2.8s2.1,31.2,2.1,31.2"/>
<path id="XMLID_82_" class="st0" d="M-143,426.2c0.3-0.2-13.5-32.5-9.8-33.5c3.8-1,28.2-6,29.2-2.8s2.1,31.2,2.1,31.2"/>
<path id="XMLID_81_" class="st1" d="M-108.4,429c0,3.6-8.1,6.5-18,6.5s-18-2.9-18-6.5s8.1-6.5,18-6.5
	C-116.4,422.5-108.4,425.4-108.4,429"/>
<ellipse id="XMLID_80_" class="st0" cx="-126.4" cy="429" rx="18" ry="6.5"/>
<line id="XMLID_79_" class="st0" x1="-112.7" y1="433.1" x2="-112.7" y2="451.2"/>
<line id="XMLID_78_" class="st0" x1="-118.7" y1="435.5" x2="-118.7" y2="462.1"/>
<line id="XMLID_77_" class="st0" x1="-137" y1="435.1" x2="-137" y2="453"/>
<line id="XMLID_76_" class="st0" x1="-142.3" y1="432.6" x2="-142.3" y2="462.2"/>
<polyline id="XMLID_75_" class="st2" points="-68.4,435 -102.6,451.1 39,479.4 38.5,442.5 "/>
<path id="XMLID_74_" class="st3" d="M-122.3,447c2.5-1,66.1-21.6,66.1-21.6l140.7,6.4"/>
<rect id="XMLID_73_" x="44.8" y="337.3" class="st4" width="35" height="48.9"/>
<rect id="XMLID_72_" x="44.8" y="337.3" class="st3" width="35" height="48.9"/>
<rect id="XMLID_71_" x="40" y="382.8" class="st2" width="44.8" height="8.8"/>
<rect id="XMLID_70_" x="40" y="382.8" class="st3" width="44.8" height="8.8"/>
<line id="XMLID_69_" class="st3" x1="62.4" y1="382.3" x2="62.4" y2="337.6"/>
<path id="XMLID_68_" class="st5" d="M-19.3,385.2c0,0-0.5,8.5-5.5,11.7c-5,3.3-11.8,6.5-11.8,6.5"/>
<path id="XMLID_67_" class="st5" d="M-3.5,454.1c0,0,1.9-17.5,0.9-39.5"/>
<path id="XMLID_66_" class="st5" d="M-16.5,454.5c0,0,1.1-17.1,0.9-39.5"/>
<path id="XMLID_65_" class="st1" d="M-2.9,379.7c2.1,3.8,5.4,5.3,7.8,15.4c1,4,1.2,7.6,0,13.5c-0.4,2.1-5.3,5.8-10.5,6.7
	c-2.8,0.5-6.1,0.2-10.6-0.5c-1.7-0.2-8.3-1.6-8.8-6.5c-0.4-3.7-1.6-7.7,0-13.5c1.4-4.9,2.9-7.2,9-16c6.1-8.7,5.6-8.6,5.6-8.6
	S-5.1,375.9-2.9,379.7"/>
<g id="XMLID_61_">
	<g id="XMLID_62_">
		<g>
			<defs>
				<rect id="SVGID_1_" x="-24.5" y="377.1" width="13.7" height="35.9"/>
			</defs>
			<clipPath id="SVGID_2_">
				<use xlink:href="#SVGID_1_"  style="overflow:visible;"/>
			</clipPath>
			<path id="XMLID_64_" class="st6" d="M-20.9,387.3c1-2,2.3-3.8,3.2-5.8c0.5-1,1.2-2.6,2.4-3c0.2-0.2,0.5-0.3,0.7-0.4
				c-0.3-0.1-0.6-0.3-0.9-0.5c-0.3-0.2-0.7-0.4-1-0.6c2,0.5,4,1,5.7,2.2c-0.2,0-0.5-0.1-0.7-0.1c0.4,0.5,0.7,1.2,0.7,1.9
				c0,2.1-1.2,4-2.3,5.7c-1.9,2.9-3.3,5.4-3.7,8.9c-0.4,3-0.1,6.2,0.7,9.1c0.6,2.3,2.8,3.7,3.2,6c0.5,2.4-1.6,2.4-3.5,2
				c-0.5,0.1-1,0-1.2-0.4c-0.6-0.2-1-0.4-1.4-0.5c-3.8-1.8-5.1-5-5.4-8.9C-24.8,397.5-23.3,392.2-20.9,387.3"/>
		</g>
	</g>
</g>
<path id="XMLID_60_" class="st7" d="M-2.4,379.7c2.1,3.8,5.4,5.3,7.8,15.4c1,4,1.2,7.6,0,13.5c-0.4,2.1-5.3,5.8-10.5,6.7
	c-2.8,0.5-6.1,0.2-10.6-0.5c-1.7-0.2-8.3-1.6-8.8-6.5c-0.4-3.7-1.6-7.7,0-13.5c1.4-4.9,2.9-7.2,9-16c6.1-8.7,5.6-8.6,5.6-8.6
	S-4.6,375.9-2.4,379.7z"/>
<path id="XMLID_59_" class="st8" d="M-21.8,365.8c0,6.9,5.6,12.5,12.5,12.5s12.5-5.6,12.5-12.5c0-6.9-5.6-12.5-12.5-12.5
	S-21.8,358.9-21.8,365.8"/>
<path id="XMLID_58_" class="st1" d="M-10.8,378.1c-1.2-0.4-2.4-0.8-3.5-1.3c0.1,0,0.1-0.1,0.2-0.1c-0.3-0.1-0.6-0.3-0.9-0.5
	c-3.5-1.9-7.6-6.5-5.6-10.5c2.2-4.4,6.4,1.7,7.7,3.3c1.5,1.8,3.7,2.8,6,2.9c0.5-0.3,1-0.2,1.4,0c2.6-0.2,5-1.5,6.1-4
	c0.5-1.1,1.9-0.5,2.1,0.5c0.9-0.5,2.2,0.6,1.5,1.5c-0.3,0.4-0.5,0.8-0.8,1.2c-0.2,1-0.9,1.9-1.8,2.6c-0.3,0.2-0.5,0.3-0.8,0.3
	c0,0.2-0.1,0.4-0.3,0.6c-3.4,2.6-7.5,3.8-11.5,3C-11,377.9-10.9,378-10.8,378.1"/>
<path id="XMLID_57_" class="st7" d="M-21.3,365.8c0,6.9,5.6,12.5,12.5,12.5s12.5-5.6,12.5-12.5c0-6.9-5.6-12.5-12.5-12.5
	S-21.3,358.9-21.3,365.8z"/>
<path id="XMLID_56_" class="st5" d="M-3.4,379.6c0,0-1.9,3.3-5.8,3.3c-3.9,0-5.2-3.3-5.2-3.3"/>
<polyline id="XMLID_55_" class="st2" points="-77.9,421.1 -77.9,448.7 -3.5,459.6 19.2,445.5 18.9,418.6 "/>
<polyline id="XMLID_54_" class="st5" points="-77.9,421.1 -77.9,448.7 -3.5,459.6 19.2,445.5 18.9,418.6 "/>
<polygon id="XMLID_53_" class="st2" points="-86.3,420 -86.3,412.7 -47.6,403.7 22.6,406.2 21,417.3 -5.2,427.7 "/>
<polygon id="XMLID_52_" class="st5" points="-86.3,420 -86.3,412.7 -47.6,403.7 22.6,406.2 21,417.3 -5.2,427.7 "/>
<polyline id="XMLID_51_" class="st5" points="-85.8,412.9 -6.8,420.1 22.4,406.9 "/>
<path id="XMLID_50_" class="st9" d="M-16.5,377.1l-0.7,3.1l1,4.3l5-3l6.1,3.9l3.8-4.9l-1.4-2.9c0,0-5.6,1.5-8.5,1
	C-14.1,378.1-16.5,377.1-16.5,377.1"/>
<path id="XMLID_49_" class="st5" d="M-16.5,377.1l-0.7,3.1l1,4.3l5-3l6.1,3.9l3.8-4.9l-1.4-2.9c0,0-5.6,1.5-8.5,1
	C-14.1,378.1-16.5,377.1-16.5,377.1z"/>
<path id="XMLID_48_" class="st4" d="M-11.2,381.5c0,0-1.7,3.3-2.7,11.3s-0.6,12.2-0.6,12.2"/>
<path id="XMLID_47_" class="st5" d="M-11.2,381.5c0,0-1.7,3.3-2.7,11.3s-0.6,12.2-0.6,12.2"/>
<path id="XMLID_46_" class="st1" d="M-45.4,407.8c0.3,0,9.1-3,9.1-3l25,1.1l-5.9,3.7L-45.4,407.8z"/>
<path id="XMLID_45_" class="st10" d="M-45.4,407.8c0.3,0,9.1-3,9.1-3l25,1.1l-5.9,3.7L-45.4,407.8z"/>
<line id="XMLID_44_" class="st10" x1="-36.3" y1="405.6" x2="-15.4" y2="406.6"/>
<line id="XMLID_43_" class="st10" x1="-38.5" y1="406.3" x2="-16.2" y2="407.6"/>
<line id="XMLID_42_" class="st10" x1="-40.7" y1="407.2" x2="-18.1" y2="408.8"/>
<path id="XMLID_41_" class="st5" d="M-1.3,381.4c-2.5-0.7,13.1,20-14.9,25.8"/>
<path id="XMLID_40_" class="st8" d="M-24.3,413.8c0,0,16.5-7.2,16.9-7.1c0.4,0.1,17.2,0.7,17.2,0.7L-6,415L-24.3,413.8z"/>
<path id="XMLID_39_" class="st10" d="M-24.3,413.8c0,0,16.5-7.2,16.9-7.1c0.4,0.1,17.2,0.7,17.2,0.7L-6,415L-24.3,413.8z"/>
<path id="XMLID_38_" class="st8" d="M-24.3,412.6c0,0,16.5-7.2,16.9-7.1s17.2,0.7,17.2,0.7L-6,413.8L-24.3,412.6z"/>
<path id="XMLID_37_" class="st10" d="M-24.3,412.6c0,0,16.5-7.2,16.9-7.1s17.2,0.7,17.2,0.7L-6,413.8L-24.3,412.6z"/>
<path id="XMLID_36_" class="st8" d="M-24.3,411.3c0,0,16.5-7.2,16.9-7.1c0.4,0.1,17.2,0.7,17.2,0.7L-6,412.5L-24.3,411.3z"/>
<path id="XMLID_35_" class="st10" d="M-24.3,411.3c0,0,16.5-7.2,16.9-7.1c0.4,0.1,17.2,0.7,17.2,0.7L-6,412.5L-24.3,411.3z"/>
<path id="XMLID_34_" class="st8" d="M-24.2,409.6c0,0,16.5-7.2,16.9-7.1s17.2,0.7,17.2,0.7l-15.8,7.6L-24.2,409.6z"/>
<path id="XMLID_33_" class="st10" d="M-24.2,409.6c0,0,16.5-7.2,16.9-7.1s17.2,0.7,17.2,0.7l-15.8,7.6L-24.2,409.6z"/>
<path id="XMLID_32_" class="st11" d="M-15.6,366.5c0,0.7-0.6,1.2-1.2,1.2c-0.7,0-1.2-0.5-1.2-1.2s0.6-1.2,1.2-1.2
	C-16.1,365.3-15.6,365.8-15.6,366.5"/>
<path id="XMLID_31_" class="st11" d="M-8.9,366.7c0,0.7-0.5,1.2-1.2,1.2s-1.2-0.5-1.2-1.2c0-0.7,0.5-1.2,1.2-1.2
	S-8.9,366.1-8.9,366.7"/>
<line id="XMLID_30_" class="st5" x1="-4.2" y1="456.3" x2="-4.2" y2="428"/>
<path id="XMLID_29_" class="st0" d="M-109.5,397.9c0,0,4.1,11.8,8.2,13.9c4.2,2.1,15.4,4.4,15.4,4.4l2.1,6.1"/>
<path id="XMLID_28_" class="st1" d="M-128.1,391.9c-2.3,4-5.7,5.6-8.3,16.4c-1,4.2-1.3,8.1,0,14.4c0.4,2.2,5.6,6.2,11.2,7.1
	c3,0.5,6.4,0.2,11.3-0.5c1.8-0.2,8.9-1.7,9.4-7c0.4-4,1.7-8.2,0-14.4c-1.5-5.2-3.1-7.7-9.6-17c-6.5-9.3-6-9.1-6-9.1
	S-125.8,387.8-128.1,391.9"/>
<g id="XMLID_24_" class="st12">
	<g id="XMLID_25_">
		<g>
			<defs>
				<rect id="SVGID_3_" x="-119.7" y="389.1" width="14.6" height="40.2"/>
			</defs>
			<clipPath id="SVGID_4_">
				<use xlink:href="#SVGID_3_"  style="overflow:visible;"/>
			</clipPath>
			<path id="XMLID_27_" class="st13" d="M-108.8,400.5c-1-2.2-2.4-4.2-3.4-6.5c-0.5-1.2-1.2-2.9-2.6-3.3c-0.2-0.2-0.5-0.4-0.8-0.4
				c0.3-0.2,0.6-0.3,1-0.5c0.4-0.2,0.7-0.4,1.1-0.7c-2.1,0.6-4.2,1.1-6.1,2.4c0.2,0,0.5-0.1,0.7-0.1c-0.5,0.6-0.8,1.3-0.8,2.2
				c0,2.4,1.2,4.5,2.5,6.4c2,3.3,3.5,6,3.9,9.9c0.4,3.3,0.1,6.9-0.7,10.2c-0.6,2.5-3,4.1-3.4,6.7c-0.5,2.6,1.7,2.7,3.7,2.2
				c0.5,0.1,1.1,0,1.3-0.4c0.6-0.2,1.1-0.4,1.4-0.6c4.1-2,5.5-5.6,5.7-10C-104.8,411.9-106.3,406-108.8,400.5"/>
		</g>
	</g>
</g>
<path id="XMLID_23_" class="st14" d="M-128.6,391.9c-2.3,4-5.7,5.6-8.3,16.4c-1,4.2-1.3,8.1,0,14.4c0.5,2.2,5.6,6.2,11.2,7.1
	c3,0.5,6.4,0.2,11.3-0.5c1.8-0.2,8.9-1.7,9.4-7c0.4-4,1.7-8.2,0-14.4c-1.5-5.2-3.1-7.7-9.6-17c-6.5-9.3-6-9.1-6-9.1
	S-126.3,387.8-128.6,391.9z"/>
<path id="XMLID_22_" class="st8" d="M-104,373.1c2.5,6.9-1.1,14.5-8,17s-14.5-1.1-17-8s1.1-14.5,8-17S-106.5,366.1-104,373.1"/>
<path id="XMLID_21_" class="st1" d="M-110.5,389.3c1-0.8,2.1-1.6,3.1-2.5c-0.1,0-0.1,0-0.2,0c0.3-0.3,0.5-0.5,0.7-0.8
	c2.8-3.2,5.2-9.2,1.8-12.6c-3.8-3.7-5.8,4-6.5,6.1c-0.8,2.3-2.7,4.1-5,5.1c-0.6-0.1-1.1,0.1-1.4,0.5c-2.7,0.8-5.5,0.3-7.6-1.7
	c-0.9-0.9-2.1,0.2-1.9,1.2c-1.1-0.1-2,1.4-1,2.1c0.4,0.3,0.8,0.6,1.2,0.9c0.6,1,1.6,1.6,2.7,2c0.3,0.1,0.7,0.1,0.9,0
	c0.1,0.2,0.3,0.4,0.6,0.5c4.4,1.4,8.9,1.1,12.6-1.2C-110.5,389-110.5,389.2-110.5,389.3"/>
<circle id="XMLID_20_" class="st14" cx="-117" cy="377.7" r="13.3"/>
<path id="XMLID_19_" class="st0" d="M-114.8,391.1c0,0,1.2,4.6-3,4.6c-4.2,0-6.7-6.1-6.7-6.1"/>
<path id="XMLID_18_" class="st11" d="M-120.3,375.7c0-0.9,0.7-1.6,1.6-1.6c0.9,0,1.6,0.7,1.6,1.6c0,0.9-0.7,1.6-1.6,1.6
	C-119.5,377.3-120.3,376.6-120.3,375.7"/>
<path id="XMLID_17_" class="st11" d="M-110.7,375.7c0-0.9,0.7-1.6,1.6-1.6c0.9,0,1.6,0.7,1.6,1.6c0,0.9-0.7,1.6-1.6,1.6
	C-110,377.3-110.7,376.6-110.7,375.7"/>
<path id="XMLID_15_" class="st0" d="M-105.6,424.5c0,0,11.4-11.9,14.9-8c3.5,4-0.7,43.5-0.4,43.9"/>
<path id="XMLID_14_" class="st4" d="M-118.6,395.9l0.3,3.2l1.5,1l-0.6,1.5l3.9,22.4l2.8,2.5c0,0,1.8-3.1,1.5-3.1s-4.9-22.1-4.9-22.1
	l-1.5-1.1l0.5-1.1l-0.9-3.4l-1.5-0.7L-118.6,395.9z"/>
<path id="XMLID_13_" class="st0" d="M-128,428.8c0.3-0.4,13.9-12.2,17.7-9.1c3.8,3.1,0.4,42,0.9,42"/>
<path id="XMLID_12_" class="st0" d="M-133.3,397.2c-0.4,0.4-2.8,20.3,3.1,21.8c5.9,1.5,24.7,1.7,24.7,1.7l3.2,4.5"/>
<path id="XMLID_11_" class="st1" d="M-128,388.1c0,0,2.9,2.8,4.8,3.7c1.8,0.9,4.6,3.4,4.6,3.4l-2.1,3.8l-8.5-6.7L-128,388.1z"/>
<path id="XMLID_10_" class="st0" d="M-128,388.1c0,0,2.9,2.8,4.8,3.7c1.8,0.9,4.6,3.4,4.6,3.4l-2.1,3.8l-8.5-6.7L-128,388.1z"/>
<polyline id="XMLID_9_" class="st1" points="-113.5,392.2 -116,395.2 -113.3,397.7 -111.9,392.6 -113.1,391.6 "/>
<polyline id="XMLID_8_" class="st0" points="-113.5,392.2 -116,395.2 -113.3,397.7 -111.9,392.6 -113.1,391.6 "/>
<path id="XMLID_7_" class="st0" d="M-127.4,368.8c0,0,3.2-2.3,3.9-4.3c0.8-2,1-4.1,1-4.1"/>
<path id="XMLID_6_" class="st0" d="M-119.9,365.2c0,0,3.2-2.3,3.9-4.3c0.8-2,1-4.1,1-4.1"/>
<path id="XMLID_5_" class="st0" d="M-113.6,366.2c0,0,3.2-2.3,3.9-4.3c0.8-2,1-4.1,1-4.1"/>
<path id="XMLID_4_" class="st0" d="M-108.4,368.3c0,0,3.2-2.3,3.9-4.3c0.8-2,1-4.1,1-4.1"/>
<path id="XMLID_3_" class="st11" d="M-19.1,354.8c-0.3,3,3.7,5.3,6.1,6c-1.2-1.2-1.3-3.1-0.4-4.5c0.8,1.4,2.6,2.3,3.9,3.1
	c-0.4-1-1.6-3.8,0.3-3.5c1.1,0.2,2.2,1.4,3.1,2.1c0.8,0.6,1.7,1.3,2.6,1.7c-0.3-1.3-0.8-2.3,0.8-2.6c1.2-0.2,2.3,0,3.3,0.6
	c1.5,0.9,2.8,2.5,3.4,4.2c0.4,1.2,0.2,2.6,0.3,3.9c0.4-2.5,1.7-4.8,1.8-7.4c0-0.8,0.3-1.6-0.5-1.8c-0.6-0.2-2,0.5-2.4,0.9
	c-0.6-1.7,0.7-3.4,0.4-5.1c-1.1,0.5-2.3,2.4-3.5,2.6c-0.7,0.1-1.6-1-2.2-1.5c-2.5-2.2-6.2-3.1-9.5-3.1c-2.1,0-4.9,0.4-6.7,1.7
	c-0.8,0.6-2.1,2.7-1.2,3.7"/>
<path id="XMLID_2_" class="st15" d="M-11.2,380.1l-2.5,1.4l-0.5,2.3l0.7,1.2l-1.7,3.1c0,0-2.2,15.4-2.1,15.3
	c0.2-0.1,5.4,0.2,5.4,0.2l1.6-15.3l-1.1-2.9l1.6-1.4l0.2-3L-11.2,380.1z"/>
<g id="XMLID_131_">
	<path id="XMLID_132_" class="st11" d="M12.4,357.5c-0.1,0-0.1,0.1-0.1,0.1c0,0.1-0.1,0.1-0.1,0.2c-0.1,0.2-0.3,0.4-0.5,0.4
		c-0.2,0.1-0.4,0.1-0.6,0c-0.1,0-0.2-0.1-0.3-0.1c-0.1-0.1-0.1-0.1-0.2-0.2c-0.1-0.1-0.1-0.2-0.1-0.3s0-0.2,0.1-0.4
		c0.1-0.1,0.1-0.3,0.2-0.4c0.1-0.1,0.2-0.2,0.4-0.3c0.1-0.1,0.3-0.2,0.4-0.3c0.1-0.1,0.3-0.2,0.4-0.2c0.1-0.1,0.2-0.1,0.4-0.2
		c0.1-0.1,0.3-0.2,0.4-0.2c0.1-0.1,0.3-0.2,0.4-0.3c0.1-0.1,0.2-0.3,0.3-0.4c0.1-0.3,0.1-0.5,0-0.8c-0.1-0.3-0.3-0.5-0.7-0.6
		c-0.1,0-0.3-0.1-0.4-0.1c-0.2,0-0.3,0-0.5,0c-0.1,0-0.3,0-0.4,0.1c-0.1,0-0.3,0-0.4,0c-0.2-0.1-0.3-0.2-0.4-0.4
		c-0.1-0.2-0.1-0.4,0-0.6s0.2-0.3,0.5-0.4c0.2-0.1,0.5-0.1,0.8-0.1s0.6,0,0.9,0.1c0.3,0.1,0.6,0.1,0.8,0.2c0.4,0.1,0.7,0.3,1,0.6
		c0.3,0.2,0.5,0.5,0.6,0.8c0.1,0.3,0.2,0.6,0.2,0.9c0,0.3-0.1,0.7-0.2,1c-0.2,0.4-0.4,0.8-0.7,1.1c-0.3,0.3-0.6,0.5-1,0.6
		c-0.3,0.1-0.5,0.2-0.6,0.3C12.7,357.4,12.6,357.4,12.4,357.5z M11.6,359.7c-0.1,0.2-0.3,0.4-0.5,0.5c-0.2,0.1-0.5,0.1-0.8,0
		c-0.3-0.1-0.4-0.3-0.6-0.5c-0.1-0.2-0.1-0.5,0-0.7s0.3-0.4,0.5-0.5s0.5-0.1,0.8,0s0.5,0.3,0.6,0.5
		C11.7,359.2,11.7,359.5,11.6,359.7z"/>
</g>
<g id="XMLID_127_">
	<path id="XMLID_128_" class="st11" d="M-19.6,344.2c0,0.1,0,0.1,0.1,0.2c0,0.1,0.1,0.1,0.1,0.1c0.2,0.2,0.2,0.4,0.2,0.6
		c0,0.2-0.1,0.4-0.2,0.6c-0.1,0.1-0.1,0.1-0.2,0.2c-0.1,0.1-0.2,0.1-0.3,0.1s-0.2,0-0.3,0s-0.2-0.1-0.3-0.2
		c-0.1-0.1-0.2-0.2-0.3-0.4c-0.1-0.1-0.1-0.3-0.2-0.5c0-0.2-0.1-0.3-0.1-0.5s0-0.3,0-0.5c0-0.1,0-0.3,0-0.4c0-0.2,0-0.3-0.1-0.5
		c0-0.2-0.1-0.3-0.2-0.5c-0.1-0.2-0.2-0.3-0.3-0.4c-0.2-0.2-0.5-0.3-0.7-0.3c-0.3,0-0.6,0.2-0.8,0.5c-0.1,0.1-0.2,0.2-0.3,0.4
		c-0.1,0.1-0.2,0.3-0.2,0.5c0,0.1-0.1,0.3-0.1,0.4c0,0.1-0.1,0.3-0.2,0.4c-0.1,0.1-0.3,0.2-0.5,0.3c-0.2,0-0.4,0-0.6-0.2
		c-0.2-0.1-0.2-0.3-0.2-0.6c0-0.2,0.1-0.5,0.2-0.8c0.1-0.3,0.2-0.5,0.4-0.8c0.2-0.3,0.3-0.5,0.5-0.7c0.3-0.3,0.6-0.5,0.9-0.7
		s0.6-0.3,1-0.3c0.3,0,0.6,0,1,0.1c0.3,0.1,0.6,0.3,0.9,0.5c0.4,0.3,0.6,0.7,0.7,1c0.1,0.4,0.2,0.7,0.3,1.1c0,0.3,0,0.5,0.1,0.7
		C-19.6,343.9-19.6,344.1-19.6,344.2z M-17.8,345.7c0.2,0.2,0.3,0.4,0.3,0.7c0,0.3-0.1,0.5-0.3,0.7c-0.2,0.2-0.4,0.3-0.7,0.3
		s-0.5-0.1-0.7-0.2c-0.2-0.2-0.3-0.4-0.3-0.7s0.1-0.5,0.3-0.7c0.2-0.2,0.4-0.3,0.7-0.4C-18.3,345.5-18,345.6-17.8,345.7z"/>
</g>
<g id="XMLID_123_">
	<path id="XMLID_124_" class="st11" d="M-0.4,340.4c0.1,0,0.1-0.1,0.1-0.1c0-0.1,0.1-0.1,0.1-0.2c0.1-0.2,0.3-0.4,0.5-0.4
		c0.2-0.1,0.4-0.1,0.6,0c0.1,0,0.2,0.1,0.3,0.1c0.1,0.1,0.1,0.1,0.2,0.2c0.1,0.1,0.1,0.2,0.1,0.3c0,0.1,0,0.2-0.1,0.4
		c-0.1,0.1-0.1,0.3-0.2,0.4c-0.1,0.1-0.2,0.2-0.4,0.3c-0.1,0.1-0.3,0.2-0.4,0.3c-0.1,0.1-0.3,0.2-0.4,0.2c-0.1,0.1-0.2,0.1-0.4,0.2
		c-0.1,0.1-0.3,0.2-0.4,0.2c-0.1,0.1-0.3,0.2-0.4,0.3c-0.1,0.1-0.2,0.3-0.3,0.4c-0.1,0.3-0.1,0.5,0,0.8c0.1,0.3,0.3,0.5,0.7,0.6
		c0.1,0,0.3,0.1,0.4,0.1c0.2,0,0.3,0,0.5,0c0.1,0,0.3,0,0.4-0.1c0.1,0,0.3,0,0.4,0c0.2,0.1,0.3,0.2,0.4,0.4c0.1,0.2,0.1,0.4,0,0.6
		c-0.1,0.2-0.2,0.3-0.5,0.4c-0.2,0.1-0.5,0.1-0.8,0.1s-0.6,0-0.9-0.1c-0.3-0.1-0.6-0.1-0.8-0.2c-0.4-0.1-0.7-0.3-1-0.6
		c-0.3-0.2-0.5-0.5-0.6-0.8c-0.1-0.3-0.2-0.6-0.2-0.9c0-0.3,0.1-0.7,0.2-1c0.2-0.4,0.4-0.8,0.7-1.1c0.3-0.3,0.6-0.5,1-0.6
		c0.3-0.1,0.5-0.2,0.6-0.3C-0.7,340.6-0.5,340.5-0.4,340.4z M0.4,338.2c0.1-0.2,0.3-0.4,0.5-0.5c0.2-0.1,0.5-0.1,0.8,0
		c0.3,0.1,0.4,0.3,0.6,0.5c0.1,0.2,0.1,0.5,0,0.7c-0.1,0.2-0.3,0.4-0.5,0.5s-0.5,0.1-0.8,0s-0.5-0.3-0.6-0.5
		C0.3,338.7,0.3,338.5,0.4,338.2z"/>
</g>
<g id="XMLID_113_">
	<path id="XMLID_114_" class="st16" d="M13.7,357.1c-0.1,0-0.1,0.1-0.1,0.1c0,0.1-0.1,0.1-0.1,0.2c-0.1,0.2-0.3,0.4-0.5,0.4
		c-0.2,0.1-0.4,0.1-0.6,0c-0.1,0-0.2-0.1-0.3-0.1c-0.1-0.1-0.1-0.1-0.2-0.2c-0.1-0.1-0.1-0.2-0.1-0.3c0-0.1,0-0.2,0.1-0.4
		c0.1-0.1,0.1-0.3,0.2-0.4c0.1-0.1,0.2-0.2,0.4-0.3c0.1-0.1,0.3-0.2,0.4-0.3c0.1-0.1,0.3-0.2,0.4-0.2c0.1-0.1,0.2-0.1,0.4-0.2
		c0.1-0.1,0.3-0.2,0.4-0.2c0.1-0.1,0.3-0.2,0.4-0.3c0.1-0.1,0.2-0.3,0.3-0.4c0.1-0.3,0.1-0.5,0-0.8c-0.1-0.3-0.3-0.5-0.7-0.6
		c-0.1,0-0.3-0.1-0.4-0.1c-0.2,0-0.3,0-0.5,0c-0.1,0-0.3,0-0.4,0.1c-0.1,0-0.3,0-0.4,0c-0.2-0.1-0.3-0.2-0.4-0.4
		c-0.1-0.2-0.1-0.4,0-0.6c0.1-0.2,0.2-0.3,0.5-0.4c0.2-0.1,0.5-0.1,0.8-0.1s0.6,0,0.9,0.1c0.3,0.1,0.6,0.1,0.8,0.2
		c0.4,0.1,0.7,0.3,1,0.6c0.3,0.2,0.5,0.5,0.6,0.8c0.1,0.3,0.2,0.6,0.2,0.9c0,0.3-0.1,0.7-0.2,1c-0.2,0.4-0.4,0.8-0.7,1.1
		c-0.3,0.3-0.6,0.5-1,0.6c-0.3,0.1-0.5,0.2-0.6,0.3C14,357,13.8,357.1,13.7,357.1z M12.9,359.4c-0.1,0.2-0.3,0.4-0.5,0.5
		s-0.5,0.1-0.8,0s-0.4-0.3-0.6-0.5c-0.1-0.2-0.1-0.5,0-0.7c0.1-0.2,0.3-0.4,0.5-0.5c0.2-0.1,0.5-0.1,0.8,0c0.3,0.1,0.5,0.3,0.6,0.5
		C13,358.9,13,359.1,12.9,359.4z"/>
</g>
<g id="XMLID_85_">
	<path id="XMLID_86_" class="st16" d="M-18.4,343.9c0,0.1,0,0.1,0.1,0.2c0,0.1,0.1,0.1,0.1,0.1c0.2,0.2,0.2,0.4,0.2,0.6
		c0,0.2-0.1,0.4-0.2,0.6c-0.1,0.1-0.1,0.1-0.2,0.2c-0.1,0.1-0.2,0.1-0.3,0.1s-0.2,0-0.3,0s-0.2-0.1-0.3-0.2s-0.2-0.2-0.3-0.4
		c-0.1-0.1-0.1-0.3-0.2-0.5c0-0.2-0.1-0.3-0.1-0.5c0-0.2,0-0.3,0-0.5c0-0.1,0-0.3,0-0.4c0-0.2,0-0.3-0.1-0.5c0-0.2-0.1-0.3-0.2-0.5
		c-0.1-0.2-0.2-0.3-0.3-0.4c-0.2-0.2-0.5-0.3-0.7-0.3c-0.3,0-0.6,0.2-0.8,0.5c-0.1,0.1-0.2,0.2-0.3,0.4c-0.1,0.1-0.2,0.3-0.2,0.5
		c0,0.1-0.1,0.3-0.1,0.4s-0.1,0.3-0.2,0.4c-0.1,0.1-0.3,0.2-0.5,0.3c-0.2,0-0.4,0-0.6-0.2c-0.2-0.1-0.2-0.3-0.2-0.6
		c0-0.2,0.1-0.5,0.2-0.8c0.1-0.3,0.2-0.5,0.4-0.8c0.2-0.3,0.3-0.5,0.5-0.7c0.3-0.3,0.6-0.5,0.9-0.7c0.3-0.2,0.6-0.3,1-0.3
		c0.3,0,0.6,0,1,0.1c0.3,0.1,0.6,0.3,0.9,0.5c0.4,0.3,0.6,0.7,0.7,1c0.1,0.4,0.2,0.7,0.3,1.1c0,0.3,0,0.5,0.1,0.7
		C-18.4,343.6-18.4,343.7-18.4,343.9z M-16.6,345.4c0.2,0.2,0.3,0.4,0.3,0.7c0,0.3-0.1,0.5-0.3,0.7c-0.2,0.2-0.4,0.3-0.7,0.3
		s-0.5-0.1-0.7-0.2s-0.3-0.4-0.3-0.7c0-0.3,0.1-0.5,0.3-0.7s0.4-0.3,0.7-0.4C-17,345.2-16.8,345.2-16.6,345.4z"/>
</g>
<g id="XMLID_119_">
	<path id="XMLID_120_" class="st16" d="M0.9,340.1C1,340.1,1,340,1,340c0-0.1,0.1-0.1,0.1-0.2c0.1-0.2,0.3-0.4,0.5-0.4
		c0.2-0.1,0.4-0.1,0.6,0c0.1,0,0.2,0.1,0.3,0.1c0.1,0.1,0.1,0.1,0.2,0.2c0.1,0.1,0.1,0.2,0.1,0.3s0,0.2-0.1,0.4
		c-0.1,0.1-0.1,0.3-0.2,0.4c-0.1,0.1-0.2,0.2-0.4,0.3c-0.1,0.1-0.3,0.2-0.4,0.3s-0.3,0.2-0.4,0.2c-0.1,0.1-0.2,0.1-0.4,0.2
		c-0.1,0.1-0.3,0.2-0.4,0.2c-0.1,0.1-0.3,0.2-0.4,0.3c-0.1,0.1-0.2,0.3-0.3,0.4c-0.1,0.3-0.1,0.5,0,0.8s0.3,0.5,0.7,0.6
		c0.1,0,0.3,0.1,0.4,0.1c0.2,0,0.3,0,0.5,0c0.1,0,0.3,0,0.4-0.1c0.1,0,0.3,0,0.4,0c0.2,0.1,0.3,0.2,0.4,0.4c0.1,0.2,0.1,0.4,0,0.6
		c-0.1,0.2-0.2,0.3-0.5,0.4c-0.2,0.1-0.5,0.1-0.8,0.1s-0.6,0-0.9-0.1c-0.3-0.1-0.6-0.1-0.8-0.2c-0.4-0.1-0.7-0.3-1-0.6
		c-0.3-0.2-0.5-0.5-0.6-0.8c-0.1-0.3-0.2-0.6-0.2-0.9s0.1-0.7,0.2-1c0.2-0.4,0.4-0.8,0.7-1.1c0.3-0.3,0.6-0.5,1-0.6
		c0.3-0.1,0.5-0.2,0.6-0.3C0.6,340.2,0.7,340.2,0.9,340.1z M1.7,337.9c0.1-0.2,0.3-0.4,0.5-0.5s0.5-0.1,0.8,0s0.4,0.3,0.6,0.5
		c0.1,0.2,0.1,0.5,0,0.7c-0.1,0.2-0.3,0.4-0.5,0.5s-0.5,0.1-0.8,0s-0.5-0.3-0.6-0.5C1.6,338.4,1.6,338.1,1.7,337.9z"/>
</g>
<ellipse class="st11" cx="-114.3" cy="384.5" rx="4.4" ry="1.7"/>
<ellipse class="st11" cx="-11.1" cy="373.3" rx="3.3" ry="0.8"/>
</svg>
