<?xml version="1.0" encoding="utf-8"?>
<!-- Generator: Adobe Illustrator 19.0.0, SVG Export Plug-In . SVG Version: 6.00 Build 0)  -->
<svg version="1.1" id="Capa_1" xmlns="http://www.w3.org/2000/svg" xmlns:xlink="http://www.w3.org/1999/xlink" x="0px" y="0px"
	 viewBox="-389 204 245 284" style="enable-background:new -389 204 245 284;" xml:space="preserve">
<style type="text/css">
	.st0{fill:#E4205E;}
	.st1{opacity:0.25;fill:#E0DFE6;}
	.st2{fill:none;stroke:#FFFFFF;stroke-width:5.6744;stroke-linecap:round;stroke-miterlimit:10;}
</style>
<path id="XMLID_17_" class="st0" d="M-273.5,323.7c-4,7-10,9.8-14.6,28.7c-1.8,7.4-2.2,14.2,0,25.2c0.8,3.9,9.9,10.8,19.7,12.5
	c5.2,0.9,11.3,0.3,19.8-0.9c3.1-0.4,15.5-3,16.4-12.2c0.7-7,3.1-14.4,0-25.2c-2.6-9.2-5.4-13.5-16.8-29.8
	c-11.3-16.3-10.5-16-10.5-16S-269.5,316.5-273.5,323.7z"/>
<path id="XMLID_16_" class="st1" d="M-239.8,337.8c-1.8-3.7-4.2-7.1-5.9-10.8c-0.9-1.9-2.2-4.8-4.5-5.5c-0.4-0.3-0.9-0.6-1.4-0.7
	c0.6-0.3,1.1-0.5,1.7-0.9c0.6-0.3,1.3-0.7,1.9-1.2c-3.7,1-7.4,1.8-10.6,4.1c0.4-0.1,0.9-0.1,1.3-0.2c-0.8,1-1.4,2.2-1.4,3.6
	c0,4,2.2,7.5,4.3,10.7c3.6,5.5,6.1,10.1,6.9,16.6c0.7,5.6,0.1,11.6-1.2,17c-1,4.2-5.2,6.9-6,11.1c-0.8,4.4,2.9,4.5,6.5,3.7
	c0.9,0.2,1.8,0,2.3-0.7c1-0.4,1.9-0.7,2.5-1c7.1-3.4,9.6-9.4,10.1-16.7C-232.7,356.9-235.4,346.9-239.8,337.8z"/>
<path id="XMLID_15_" class="st2" d="M-274.4,323.7c-4,7-10,9.8-14.6,28.7c-1.8,7.4-2.2,14.2,0,25.2c0.8,3.9,9.9,10.8,19.7,12.5
	c5.2,0.9,11.3,0.3,19.8-0.9c3.1-0.4,15.5-3,16.4-12.2c0.7-7,3.1-14.4,0-25.2c-2.6-9.2-5.4-13.5-16.8-29.8
	c-11.3-16.3-10.5-16-10.5-16S-270.3,316.5-274.4,323.7z"/>
<circle id="XMLID_13_" class="st0" cx="-261.6" cy="297.7" r="23.3"/>
<path id="XMLID_12_" class="st1" d="M-258.7,320.7c2.2-0.7,4.4-1.4,6.5-2.3c-0.1,0-0.2-0.1-0.3-0.1c0.6-0.3,1.1-0.5,1.7-0.9
	c6.6-3.6,14.1-12.1,10.5-19.7c-4-8.3-11.9,3.2-14.4,6.2c-2.8,3.3-7,5.2-11.2,5.5c-0.9-0.5-1.8-0.4-2.5,0c-4.8-0.3-9.3-2.7-11.5-7.4
	c-0.9-2-3.6-0.9-3.9,0.9c-1.7-0.8-4.1,1.1-2.8,2.9c0.5,0.7,1,1.4,1.5,2.2c0.4,1.9,1.8,3.6,3.3,4.9c0.5,0.4,1,0.6,1.5,0.5
	c0,0.4,0.2,0.8,0.6,1.1c6.4,4.9,14,7.1,21.4,5.6C-258.4,320.2-258.6,320.4-258.7,320.7z"/>
<circle id="XMLID_11_" class="st2" cx="-262.4" cy="297.7" r="23.3"/>
<path id="XMLID_10_" class="st2" d="M-246.8,327c0,0,28.5,55.3,53,34.4"/>
<path id="XMLID_9_" class="st2" d="M-277.1,328c0,0-29.9,57.7-52,33.4"/>
<path id="XMLID_8_" class="st2" d="M-269.3,390c-0.6,4.2-46.4-18.3-50.7-15.7c-4.3,2.6-0.6,16.1,61.2,26.1"/>
<path id="XMLID_7_" class="st2" d="M-249.2,389.5c0.6,4.2,46.2-20.3,50.5-17.7c4.3,2.6-4.8,19-64.5,37.1"/>
<path id="XMLID_2_" class="st2" d="M-321.3,363.7c0,0,0-14.6-8.2-11.3c-8.3,3.3,0.9,9.5,0.9,9.5"/>
<path id="XMLID_1_" class="st2" d="M-200.5,363.6c0,0,0.1-14.6,8.1-11.1s-1,9.5-1,9.5"/>
</svg>
