<?xml version="1.0" encoding="utf-8"?>
<!-- Generator: Adobe Illustrator 19.0.0, SVG Export Plug-In . SVG Version: 6.00 Build 0)  -->
<svg version="1.1" id="Capa_1" xmlns="http://www.w3.org/2000/svg" xmlns:xlink="http://www.w3.org/1999/xlink" x="0px" y="0px"
	 viewBox="-312 113.2 335 334.8" style="enable-background:new -312 113.2 335 334.8;" xml:space="preserve">
<style type="text/css">
	.st0{fill:#252A5F;}
</style>
<g>
	<path class="st0" d="M-12.9,192.3L0.7,197c-2.7-4.7-5.6-9.2-8.7-13.6l-12.8-2C-18.1,184.9-15.4,188.5-12.9,192.3z"/>
	<path class="st0" d="M-30.9,170.1l14.2,2.2c-3.5-4.1-7.2-8.1-11-11.8l-12.9,0.3C-37.3,163.8-34,166.9-30.9,170.1z"/>
	<path class="st0" d="M-283.2,357.3l-13.2-6c2.3,4.9,4.8,9.6,7.5,14.2l12.6,3.2C-278.8,365-281.1,361.2-283.2,357.3z"/>
	<path class="st0" d="M-301.3,303.6l-10.2-10.3c0.4,5.4,1.1,10.7,2,15.9l10.7,7.4C-299.9,312.4-300.7,308-301.3,303.6z"/>
	<path class="st0" d="M-52.5,151.6l14.4-0.3c-4.2-3.4-8.5-6.6-13-9.7l-12.7,2.6C-59.9,146.5-56.1,149-52.5,151.6z"/>
	<path class="st0" d="M-294.7,331.2l-11.9-8.3c1.4,5.2,2.9,10.3,4.8,15.3l11.9,5.4C-291.7,339.6-293.3,335.5-294.7,331.2z"/>
	<path class="st0" d="M1.5,217.6l12.5,7.1c-1.8-5.1-3.9-10.1-6.2-14.9l-12.2-4.2C-2.2,209.5-0.3,213.5,1.5,217.6z"/>
	<path class="st0" d="M-224.3,417.6l-14.4,1.6c4.4,3,8.9,5.8,13.6,8.3l12.5-3.7C-216.6,421.9-220.5,419.8-224.3,417.6z"/>
	<path class="st0" d="M9.8,244.3l11,9.2c-0.9-5.3-2-10.6-3.4-15.8l-11.3-6.4C7.5,235.6,8.8,239.9,9.8,244.3z"/>
	<path class="st0" d="M13.8,272.4l9.2,11c0-0.9,0-1.8,0-2.8c0-4.5-0.2-8.9-0.5-13.3l-10-8.3C13.1,263.4,13.5,267.9,13.8,272.4z"/>
	<path class="st0" d="M-247.4,401.1l-14.4-1c3.8,3.7,7.8,7.3,11.9,10.6l12.9-1.4C-240.6,406.7-244.1,404-247.4,401.1z"/>
	<path class="st0" d="M-188.6,128.3l8.7-11.5c-5.3,1.1-10.5,2.5-15.6,4.2l-5.9,11.6C-197.2,131-192.9,129.6-188.6,128.3z"/>
	<path class="st0" d="M-215.2,138.7l6.5-12.9c-4.6,1.9-9.1,4-13.5,6.3l-3.8,12.5C-222.5,142.5-218.9,140.6-215.2,138.7z"/>
	<path class="st0" d="M-259.9,172l1.7-14.4c-4,3.7-7.8,7.5-11.3,11.6l0.8,13C-265.9,178.6-263,175.3-259.9,172z"/>
	<path class="st0" d="M-238.6,153l4.3-13.8c-4.6,2.9-9,6-13.2,9.3l-1.5,13C-245.7,158.5-242.2,155.7-238.6,153z"/>
	<path class="st0" d="M-144.5,122.1c4.2,0,8.4,0.2,12.5,0.5l12.2-7.7c-5.3-0.8-10.7-1.3-16.1-1.6l-9.6,8.8
		C-145.2,122.1-144.8,122.1-144.5,122.1z"/>
	<path class="st0" d="M-160.6,122.9l10.6-9.7c-5.4,0.2-10.8,0.6-16.1,1.3l-7.8,10.4C-169.5,124-165.1,123.4-160.6,122.9z"/>
	<path class="st0" d="M-303,280.6c0-1.8,0-3.6,0.1-5.4l-8.2-12c-0.6,5.3-0.9,10.7-0.9,16.1l9.2,9.2
		C-302.9,285.9-303,283.3-303,280.6z"/>
	<path class="st0" d="M-77,137.2l14.1-2.9c-4.7-2.6-9.5-5-14.5-7.2l-12,4.9C-85.2,133.5-81.1,135.3-77,137.2z"/>
	<path class="st0" d="M-299.4,246.9l-5.9-13.2c-1.5,5.1-2.7,10.3-3.7,15.7l7.4,10.7C-301.1,255.6-300.3,251.2-299.4,246.9z"/>
	<path class="st0" d="M-277.5,194.4l-0.9-14.4c-3.2,4.3-6.2,8.7-9,13.3l3.2,12.6C-282.2,202-280,198.2-277.5,194.4z"/>
	<path class="st0" d="M-103.8,127.4l13.4-5.4c-5.1-1.7-10.3-3.2-15.6-4.5l-11,7C-112.6,125.3-108.2,126.2-103.8,127.4z"/>
	<path class="st0" d="M-290.8,219.6l-3.5-14c-2.4,4.8-4.6,9.7-6.5,14.7l5.4,11.9C-294.1,227.9-292.6,223.7-290.8,219.6z"/>
	<path class="st0" d="M-267.3,380.8l-14.1-3.6c3.1,4.4,6.4,8.6,9.9,12.6l13,0.9C-261.5,387.6-264.5,384.3-267.3,380.8z"/>
	<path class="st0" d="M-39.2,399.1l-2.9,14.1c4.2-3.3,8.3-6.7,12.2-10.4l0.3-13C-32.7,393.1-35.9,396.1-39.2,399.1z"/>
	<path class="st0" d="M-62,416l-5.4,13.4c4.8-2.5,9.4-5.2,13.8-8.1l2.6-12.7C-54.6,411.2-58.3,413.7-62,416z"/>
	<path class="st0" d="M-198.6,429.6l-13.8,4.1c4.8,2.2,9.8,4.1,14.9,5.8l11.6-5.9C-190.3,432.4-194.5,431.1-198.6,429.6z"/>
	<path class="st0" d="M-4.4,354.7l2.2,14.2c2.8-4.5,5.4-9.2,7.8-14l-4.3-12.2C-0.4,346.8-2.3,350.8-4.4,354.7z"/>
	<path class="st0" d="M-87.5,428.5l-7.7,12.2c5.1-1.6,10.1-3.4,15-5.4l4.8-12.1C-79.3,425.2-83.3,426.9-87.5,428.5z"/>
	<path class="st0" d="M12.7,300.8l7.1,12.5c1-5.2,1.8-10.5,2.4-15.9l-8.3-9.9C13.6,291.9,13.3,296.4,12.7,300.8z"/>
	<path class="st0" d="M6.6,328.5l4.7,13.6c2-5,3.7-10,5.2-15.2l-6.4-11.3C9.1,320,7.9,324.3,6.6,328.5z"/>
	<path class="st0" d="M-19.8,378.5l-0.3,14.4c3.6-4,7-8.1,10.2-12.4l-2-12.8C-14.5,371.4-17.1,375-19.8,378.5z"/>
	<path class="st0" d="M-171.2,436.9l-12.9,6.5c5.1,1.2,10.4,2.3,15.7,3l10.4-7.9C-162.5,438.2-166.9,437.6-171.2,436.9z"/>
	<path class="st0" d="M-114.7,436.3l-9.7,10.6c5.3-0.6,10.6-1.5,15.7-2.6l6.9-11C-106.1,434.5-110.4,435.5-114.7,436.3z"/>
	<path class="st0" d="M-142.9,439.1l-11.5,8.7c3.3,0.2,6.6,0.3,9.9,0.3c2,0,4.1,0,6.1-0.1l8.8-9.6C-134,438.8-138.4,439-142.9,439.1
		z"/>
</g>
</svg>
