<?xml version="1.0" encoding="utf-8"?>
<!-- Generator: Adobe Illustrator 15.1.0, SVG Export Plug-In . SVG Version: 6.00 Build 0)  -->
<!DOCTYPE svg PUBLIC "-//W3C//DTD SVG 1.1//EN" "http://www.w3.org/Graphics/SVG/1.1/DTD/svg11.dtd">
<svg version="1.1" id="Layer_1" xmlns="http://www.w3.org/2000/svg" xmlns:xlink="http://www.w3.org/1999/xlink" x="0px" y="0px"
	 width="457.447px" height="323.404px" viewBox="0 0 457.447 323.404" enable-background="new 0 0 457.447 323.404"
	 xml:space="preserve">
<path fill="none" stroke="#1D4B66" stroke-width="4" stroke-linecap="round" stroke-miterlimit="10" d="M373.727,141.229
	c-0.835,0-3.348,24.844-8.653,36.847c-5.299,12.004-17.304,19.541-17.304,19.541"/>
<g opacity="0.2">
	<g>
		<defs>
			<rect id="SVGID_1_" x="330.538" y="286.525" width="110.009" height="33.555"/>
		</defs>
		<clipPath id="SVGID_2_">
			<use xlink:href="#SVGID_1_"  overflow="visible"/>
		</clipPath>
		<path clip-path="url(#SVGID_2_)" fill="#1B98C6" d="M440.543,303.303c0,9.263-24.624,16.773-55.002,16.773
			c-30.376,0-55.004-7.511-55.004-16.773c0-9.267,24.628-16.775,55.004-16.775C415.919,286.528,440.543,294.037,440.543,303.303"/>
	</g>
</g>
<path fill="#D27D2F" d="M413.368,127.754c4.812,8.527,12.232,11.987,17.8,34.887c2.193,9.021,2.697,17.237,0,30.676
	c-0.961,4.792-12,13.206-23.941,15.194c-6.296,1.051-13.74,0.408-24.147-1.05c-3.744-0.528-18.899-3.676-19.949-14.857
	c-0.796-8.508-3.72-17.481,0-30.676c3.151-11.165,6.607-16.375,20.493-36.313c13.814-19.828,12.733-19.474,12.733-19.474
	S408.439,119.018,413.368,127.754"/>
<path fill="none" stroke="#1D4B66" stroke-width="4" stroke-linecap="round" stroke-miterlimit="10" d="M409.947,301.492
	c0.375,2.109-12.981-40.241-4.222-92.7"/>
<path fill="none" stroke="#1D4B66" stroke-width="4" stroke-linecap="round" stroke-miterlimit="10" d="M374.223,299.612
	c0,0,3.918-47.777,3.272-92.883"/>
<g opacity="0.3">
	<g>
		<defs>
			<rect id="SVGID_3_" x="364.381" y="121.732" width="31.04" height="85.69"/>
		</defs>
		<clipPath id="SVGID_4_">
			<use xlink:href="#SVGID_3_"  overflow="visible"/>
		</clipPath>
		<path clip-path="url(#SVGID_4_)" fill="#D27D2F" d="M372.368,146.061c2.188-4.719,5.165-9.011,7.238-13.773
			c1.074-2.459,2.628-6.181,5.485-7.042c0.514-0.441,1.084-0.749,1.692-0.948c-0.691-0.334-1.384-0.693-2.067-1.09
			c-0.762-0.438-1.531-0.931-2.303-1.475c4.521,1.24,9.041,2.343,12.902,5.203c-0.524-0.077-1.048-0.166-1.571-0.268
			c1.021,1.226,1.677,2.81,1.673,4.643c-0.006,5.07-2.627,9.535-5.223,13.707c-4.345,6.983-7.413,12.859-8.394,21.204
			c-0.84,7.116-0.131,14.808,1.487,21.754c1.267,5.428,6.304,8.779,7.291,14.219c1.021,5.617-3.576,5.778-7.911,4.715
			c-1.055,0.295-2.243,0.057-2.833-0.852c-1.253-0.451-2.347-0.929-3.089-1.292c-8.687-4.296-11.656-12.024-12.239-21.311
			C363.678,170.443,366.94,157.771,372.368,146.061"/>
	</g>
</g>
<path fill="none" stroke="#1D4B66" stroke-width="4" stroke-miterlimit="10" d="M414.421,127.754
	c4.813,8.527,12.232,11.987,17.796,34.887c2.198,9.021,2.698,17.237,0,30.676c-0.961,4.792-12,13.206-23.943,15.194
	c-6.297,1.051-13.741,0.408-24.144-1.05c-3.749-0.528-18.901-3.676-19.954-14.857c-0.792-8.508-3.712-17.481,0-30.676
	c3.152-11.165,6.615-16.375,20.493-36.313c13.814-19.828,12.733-19.474,12.733-19.474S409.49,119.018,414.421,127.754z"/>
<path fill="#FFFFFF" d="M362.058,87.577c-5.333,14.721,2.273,30.98,16.994,36.313c14.719,5.333,30.976-2.273,36.311-16.995
	c5.332-14.718-2.274-30.977-16.994-36.313C383.644,65.25,367.39,72.855,362.058,87.577"/>
<path fill="#DFDEE4" d="M375.958,122.276c-2.204-1.76-4.444-3.493-6.512-5.395c0.152-0.007,0.309-0.027,0.46-0.02
	c-0.539-0.534-1.083-1.094-1.591-1.684c-6.045-6.887-11.176-19.712-3.831-26.871c8.037-7.834,12.259,8.604,13.909,13.114
	c1.808,4.928,5.839,8.799,10.563,10.927c1.279-0.139,2.24,0.295,2.887,1.054c5.654,1.604,11.814,0.729,16.187-3.705
	c1.893-1.912,4.507,0.435,4.099,2.615c2.324-0.249,4.206,2.9,2.065,4.471c-0.855,0.624-1.739,1.24-2.665,1.823
	c-1.243,2.071-3.496,3.364-5.825,4.223c-0.717,0.265-1.393,0.211-1.963-0.023c-0.238,0.467-0.633,0.845-1.196,1.024
	c-9.303,2.93-18.907,2.274-26.865-2.469C375.792,121.653,375.888,121.961,375.958,122.276"/>
<path fill="none" stroke="#1D4B66" stroke-width="4" stroke-miterlimit="10" d="M363.045,87.935
	c-5.333,14.722,2.273,30.978,16.995,36.313c14.725,5.332,30.974-2.274,36.309-16.995c5.333-14.725-2.272-30.978-16.994-36.31
	C384.637,65.608,368.378,73.213,363.045,87.935z"/>
<path fill="none" stroke="#1D4B66" stroke-width="4" stroke-linecap="round" stroke-miterlimit="10" d="M385.065,125.978
	c0,0-2.665,9.806,6.293,9.806c8.955,0,14.34-12.958,14.34-12.958"/>
<path fill="#DFDEE4" d="M416.979,154.43c3.852,7.46-3.101,18.71-15.529,25.118c-12.425,6.413-25.621,5.555-29.47-1.906
	c-3.854-7.463,3.1-18.714,15.527-25.121C399.935,146.111,413.128,146.966,416.979,154.43"/>
<path fill="#1B98C6" d="M393.708,154.181h4.772v16.567c0,2.634-0.208,4.486-0.625,5.551c-0.418,1.067-1.108,1.912-2.075,2.539
	c-0.961,0.625-2.122,0.941-3.463,0.941c-2.755,0-5.091-1.208-7.023-3.616l3.42-3.209c0.763,0.859,1.405,1.439,1.941,1.734
	c0.531,0.291,1.045,0.439,1.546,0.439c0.507,0,0.882-0.218,1.139-0.645c0.247-0.432,0.368-1.376,0.368-2.838V154.181z"/>
<path fill="#1D4B66" d="M362.25,94.785c0-11.533-1.694-21.2-12.312-27.553c3.187-0.057,7.297,0.056,10.545,1.256
	c-5.071,0.112-12.408-4.955-14.456-9.847c6.072,6.214,11.573-0.042,17.286-1.521c5.528-1.432,10.649-3.808,16.538-3.875
	c7.198-0.076,13.693,0.703,20.495,2.907c2.398,0.772,5.526,2.516,8.019,2.393c3.594-0.179,6.59-3.076,10.463-2.781
	c-1.647,1.256-3.4,2.741-3.741,4.819c1.475,0.083,9.922-0.849,9.843,1.113c-0.05,1.234-5.481,3.301-6.682,4.856
	c5.879-1.2,4.392,14.211,4.567,18.015c0.291,6.277-0.862,13.134-3.891,18.54c-1.349-4.789-0.04-9.574-2.376-14.228
	c-2.059-4.093-4.59-6.86-7.487-10.191c-6.27-7.202-15.579-8.444-24.892-7.48c-3.206,0.332-6.744,0.474-9.618,2.005
	c-2.728,1.458-3.311,3.115-5.001,5.641c-2.516,3.768-7.687,9.468-5.893,14.522"/>
<path fill="none" stroke="#1D4B66" stroke-width="4" stroke-linecap="round" stroke-miterlimit="10" d="M362.25,94.785
	c0-11.533-1.694-21.2-12.312-27.553c3.187-0.057,7.297,0.056,10.545,1.256c-5.071,0.112-12.408-4.955-14.456-9.847
	c6.072,6.214,11.573-0.042,17.286-1.521c5.528-1.432,10.649-3.808,16.538-3.875c7.198-0.076,13.693,0.703,20.495,2.907
	c2.398,0.772,5.526,2.516,8.019,2.393c3.594-0.179,6.59-3.076,10.463-2.781c-1.647,1.256-3.4,2.741-3.741,4.819
	c1.475,0.083,9.922-0.849,9.843,1.113c-0.05,1.234-5.481,3.301-6.682,4.856c5.879-1.2,4.392,14.211,4.567,18.015
	c0.291,6.277-0.862,13.134-3.891,18.54c-1.349-4.789-0.04-9.574-2.376-14.228c-2.059-4.093-4.59-6.86-7.487-10.191
	c-6.27-7.202-15.579-8.444-24.892-7.48c-3.206,0.332-6.744,0.474-9.618,2.005c-2.728,1.458-3.311,3.115-5.001,5.641
	c-2.516,3.768-7.687,9.468-5.893,14.522"/>
<line fill="none" stroke="#1D4B66" stroke-width="4" stroke-linecap="round" stroke-miterlimit="10" x1="381.065" y1="114.15" x2="393.068" y2="114.15"/>
<path fill="#1D4B66" d="M379.503,96.843c0-1.551-1.256-2.808-2.808-2.808c-1.55,0-2.804,1.256-2.804,2.808
	c0,1.551,1.254,2.807,2.804,2.807C378.248,99.65,379.503,98.394,379.503,96.843"/>
<path fill="#1D4B66" d="M396.655,96.376c0-1.551-1.257-2.807-2.807-2.807c-1.549,0-2.809,1.256-2.809,2.807s1.26,2.807,2.809,2.807
	C395.398,99.183,396.655,97.927,396.655,96.376"/>
<path fill="none" stroke="#1D4B66" stroke-width="4" stroke-linecap="round" stroke-miterlimit="10" d="M415.319,130.903
	c0,0,25.122,16.189,27.077,36.843c1.955,20.657-0.278,36.012-0.278,36.012"/>
<rect x="76.574" y="37.076" fill="none" stroke="#1D4B66" stroke-width="4" stroke-linecap="round" stroke-miterlimit="10" width="212.433" height="247.552"/>
<rect x="302.248" y="137.249" fill="none" stroke="#1D4B66" stroke-width="4" stroke-linecap="round" stroke-miterlimit="10" width="27.634" height="54.113"/>
<line fill="none" stroke="#1D4B66" stroke-width="4" stroke-linecap="round" stroke-miterlimit="10" x1="4.901" y1="284.042" x2="447.572" y2="284.042"/>
<rect x="118.859" y="4.349" fill="none" stroke="#1D4B66" stroke-width="4" stroke-linecap="round" stroke-miterlimit="10" width="123.224" height="22.857"/>
<rect x="85.02" y="46.395" fill="none" stroke="#1D4B66" stroke-width="4" stroke-linecap="round" stroke-miterlimit="10" width="193.559" height="237.504"/>
<line fill="none" stroke="#1D4B66" stroke-width="4" stroke-linecap="round" stroke-miterlimit="10" x1="179.462" y1="46.863" x2="179.462" y2="284.367"/>
<path fill="#7DAB40" d="M140.641,15.412c0-2.528-2.05-4.573-4.575-4.573c-2.529,0-4.576,2.045-4.576,4.573
	c0,2.526,2.046,4.574,4.576,4.574C138.591,19.985,140.641,17.938,140.641,15.412"/>
<path fill="#7DAB40" d="M156.99,15.412c0-2.528-2.05-4.573-4.576-4.573c-2.528,0-4.573,2.045-4.573,4.573
	c0,2.526,2.045,4.574,4.573,4.574C154.94,19.985,156.99,17.938,156.99,15.412"/>
<path fill="#7DAB40" d="M173.335,15.412c0-2.528-2.05-4.573-4.575-4.573s-4.571,2.045-4.571,4.573c0,2.526,2.046,4.574,4.571,4.574
	S173.335,17.938,173.335,15.412"/>
<path fill="#7DAB40" d="M189.684,15.412c0-2.528-2.05-4.573-4.575-4.573c-2.528,0-4.574,2.045-4.574,4.573
	c0,2.526,2.046,4.574,4.574,4.574C187.634,19.985,189.684,17.938,189.684,15.412"/>
<path fill="#C0325C" d="M206.032,15.412c0-2.528-2.05-4.573-4.576-4.573c-2.527,0-4.573,2.045-4.573,4.573
	c0,2.526,2.046,4.574,4.573,4.574C203.982,19.985,206.032,17.938,206.032,15.412"/>
<path fill="#7DAB40" d="M222.377,15.412c0-2.528-2.05-4.573-4.575-4.573c-2.524,0-4.571,2.045-4.571,4.573
	c0,2.526,2.046,4.574,4.571,4.574C220.328,19.985,222.377,17.938,222.377,15.412"/>
<polygon fill="#7DAB40" points="316.572,148.354 315.949,148.354 309.897,159.066 322.16,159.066 "/>
<polygon fill="#C0325C" points="315.485,182.66 316.1,182.66 322.16,171.948 309.897,171.948 "/>
<rect x="87.862" y="49.358" fill="#DFDEE4" width="52.571" height="230.581"/>
<path fill="#DFDEE4" d="M275.39,278.697c0,0-13.979-132.43-34.36-170.97c-9.684-18.307-57.958-59.196-57.958-59.196h92.318V278.697z
	"/>
</svg>
