<?xml version="1.0" encoding="utf-8"?>
<!-- Generator: Adobe Illustrator 15.1.0, SVG Export Plug-In . SVG Version: 6.00 Build 0)  -->
<!DOCTYPE svg PUBLIC "-//W3C//DTD SVG 1.1//EN" "http://www.w3.org/Graphics/SVG/1.1/DTD/svg11.dtd">
<svg version="1.1" id="Layer_1" xmlns="http://www.w3.org/2000/svg" xmlns:xlink="http://www.w3.org/1999/xlink" x="0px" y="0px"
	 width="457.447px" height="323.404px" viewBox="0 0 457.447 323.404" enable-background="new 0 0 457.447 323.404"
	 xml:space="preserve">
<rect x="76.574" y="37.076" fill="none" stroke="#1D4B66" stroke-width="4" stroke-linecap="round" stroke-miterlimit="10" width="212.433" height="247.552"/>
<line fill="none" stroke="#1D4B66" stroke-width="4" stroke-linecap="round" stroke-miterlimit="10" x1="76.224" y1="284.042" x2="291.224" y2="284.042"/>
<rect x="118.859" y="4.349" fill="none" stroke="#1D4B66" stroke-width="4" stroke-linecap="round" stroke-miterlimit="10" width="123.224" height="22.856"/>
<rect x="85.02" y="46.395" fill="none" stroke="#1D4B66" stroke-width="4" stroke-linecap="round" stroke-miterlimit="10" width="193.559" height="237.504"/>
<line fill="none" stroke="#1D4B66" stroke-width="4" stroke-linecap="round" stroke-miterlimit="10" x1="179.462" y1="46.863" x2="179.462" y2="284.367"/>
<path fill="#7DAB40" d="M140.641,15.412c0-2.528-2.05-4.573-4.575-4.573c-2.529,0-4.576,2.045-4.576,4.573
	c0,2.526,2.046,4.574,4.576,4.574C138.591,19.985,140.641,17.938,140.641,15.412"/>
<path fill="#7DAB40" d="M156.99,15.412c0-2.528-2.05-4.573-4.576-4.573c-2.528,0-4.573,2.045-4.573,4.573
	c0,2.526,2.045,4.574,4.573,4.574C154.94,19.985,156.99,17.938,156.99,15.412"/>
<path fill="#7DAB40" d="M173.335,15.412c0-2.528-2.05-4.573-4.575-4.573c-2.525,0-4.571,2.045-4.571,4.573
	c0,2.526,2.046,4.574,4.571,4.574C171.285,19.986,173.335,17.938,173.335,15.412"/>
<path fill="#7DAB40" d="M189.684,15.412c0-2.528-2.05-4.573-4.575-4.573c-2.528,0-4.574,2.045-4.574,4.573
	c0,2.526,2.046,4.574,4.574,4.574C187.634,19.985,189.684,17.938,189.684,15.412"/>
<path fill="#C0325C" d="M206.032,15.412c0-2.528-2.05-4.573-4.576-4.573c-2.527,0-4.573,2.045-4.573,4.573
	c0,2.526,2.046,4.574,4.573,4.574C203.982,19.985,206.032,17.938,206.032,15.412"/>
<path fill="#7DAB40" d="M222.377,15.412c0-2.528-2.05-4.573-4.575-4.573c-2.524,0-4.571,2.045-4.571,4.573
	c0,2.526,2.046,4.574,4.571,4.574C220.328,19.985,222.377,17.938,222.377,15.412"/>
<rect x="87.362" y="47.858" fill="#DFDEE4" width="52.571" height="230.581"/>
<path fill="#DFDEE4" d="M275.39,278.697c0,0-13.979-132.43-34.359-170.97c-9.684-18.308-57.958-59.196-57.958-59.196h92.317V278.697
	z"/>
</svg>
