<?xml version="1.0" encoding="utf-8"?>
<!-- Generator: Adobe Illustrator 19.0.0, SVG Export Plug-In . SVG Version: 6.00 Build 0)  -->
<svg version="1.1" id="Layer_1" xmlns="http://www.w3.org/2000/svg" xmlns:xlink="http://www.w3.org/1999/xlink" x="0px" y="0px"
	 viewBox="-282 184.6 457.4 323.4" style="enable-background:new -282 184.6 457.4 323.4;" xml:space="preserve">
<style type="text/css">
	.st0{fill:none;stroke:#1D4B66;stroke-width:4;stroke-linecap:round;stroke-miterlimit:10;}
	.st1{fill:#7DAB40;}
	.st2{fill:#C0325C;}
	.st3{fill:#DFDEE4;}
</style>
<rect x="-205.4" y="221.7" class="st0" width="212.4" height="247.6"/>
<rect x="20.2" y="321.8" class="st0" width="27.6" height="54.1"/>
<line class="st0" x1="-277.1" y1="468.6" x2="165.6" y2="468.6"/>
<rect x="-163.1" y="188.9" class="st0" width="123.2" height="22.9"/>
<rect x="-197" y="231" class="st0" width="193.6" height="237.5"/>
<line class="st0" x1="-102.5" y1="231.5" x2="-102.5" y2="469"/>
<path class="st1" d="M-141.4,200c0-2.5-2.1-4.6-4.6-4.6c-2.5,0-4.6,2-4.6,4.6c0,2.5,2,4.6,4.6,4.6
	C-143.4,204.6-141.4,202.5-141.4,200"/>
<path class="st1" d="M-125,200c0-2.5-2.1-4.6-4.6-4.6c-2.5,0-4.6,2-4.6,4.6c0,2.5,2,4.6,4.6,4.6C-127.1,204.6-125,202.5-125,200"/>
<path class="st1" d="M-108.7,200c0-2.5-2.1-4.6-4.6-4.6s-4.6,2-4.6,4.6c0,2.5,2,4.6,4.6,4.6S-108.7,202.5-108.7,200"/>
<path class="st1" d="M-92.3,200c0-2.5-2.1-4.6-4.6-4.6c-2.5,0-4.6,2-4.6,4.6c0,2.5,2,4.6,4.6,4.6C-94.4,204.6-92.3,202.5-92.3,200"
	/>
<path class="st2" d="M-76,200c0-2.5-2.1-4.6-4.6-4.6c-2.5,0-4.6,2-4.6,4.6c0,2.5,2,4.6,4.6,4.6C-78,204.6-76,202.5-76,200"/>
<path class="st1" d="M-59.6,200c0-2.5-2.1-4.6-4.6-4.6c-2.5,0-4.6,2-4.6,4.6c0,2.5,2,4.6,4.6,4.6C-61.7,204.6-59.6,202.5-59.6,200"
	/>
<polygon class="st1" points="34.6,333 33.9,333 27.9,343.7 40.2,343.7 "/>
<polygon class="st2" points="33.5,367.3 34.1,367.3 40.2,356.5 27.9,356.5 "/>
<rect x="-194.1" y="234" class="st3" width="52.6" height="230.6"/>
<path class="st3" d="M-6.6,463.3c0,0-14-132.4-34.4-171c-9.7-18.3-58-59.2-58-59.2h92.3V463.3z"/>
</svg>
