<?xml version="1.0" encoding="utf-8"?>
<!-- Generator: Adobe Illustrator 15.1.0, SVG Export Plug-In . SVG Version: 6.00 Build 0)  -->
<!DOCTYPE svg PUBLIC "-//W3C//DTD SVG 1.1//EN" "http://www.w3.org/Graphics/SVG/1.1/DTD/svg11.dtd">
<svg version="1.1" id="Capa_1" xmlns="http://www.w3.org/2000/svg" xmlns:xlink="http://www.w3.org/1999/xlink" x="0px" y="0px"
	 width="760px" height="620px" viewBox="0 0 760 620" enable-background="new 0 0 760 620" xml:space="preserve">
<path fill="#FFFFFF" stroke="#1F4D69" stroke-width="6" stroke-miterlimit="10" d="M715.672,20.354H44.931
	c-19.721,0-35.857,16.59-35.857,36.869V226.81c0,20.277,16.136,36.866,35.857,36.866h670.741c19.722,0,35.855-16.589,35.855-36.866
	V57.223C751.529,36.944,735.394,20.354,715.672,20.354z"/>
<polygon fill="#FFFFFF" stroke="#1F4D69" stroke-width="4" stroke-miterlimit="10" points="128.931,383.258 115.5,382.257 
	115.5,236.882 128.931,236.882 "/>
<polygon fill="#FFFFFF" stroke="#1F4D69" stroke-width="4" stroke-miterlimit="10" points="678.932,383.258 665.5,382.257 
	665.5,236.882 678.932,236.882 "/>
<line fill="none" stroke="#1F4D69" stroke-width="4" stroke-miterlimit="10" x1="39.559" y1="55.071" x2="27.5" y2="55.071"/>
<path fill="#1F4D69" d="M-1011.505,678.241v6.354c3.378,0.41,6.707,0.827,10.005,1.248v-6.318
	C-1005.016,679.069-1008.359,678.641-1011.505,678.241z"/>
<path fill="#1F4D69" d="M-1011.505,641.296v4.063c3.288,0.124,6.628,0.253,10.005,0.387v-4.095
	C-1004.923,641.523-1008.261,641.405-1011.505,641.296z"/>
<g>
	<g>
		<path fill="none" stroke="#1F4D69" stroke-width="6" stroke-miterlimit="10" d="M515.79,459.279
			c-20.414,17.688-41.287,43.584-43.923,76.783"/>
		<g>
			<path fill="#1F4D69" d="M507.491,466.474l1.685,25.584l0.896-0.024l21.079-32.137c8.612-9.392,17.224-18.783,25.834-28.178
				c-11.758,4.912-23.516,9.823-35.274,14.733l-37.386,8.916l-0.396,0.735L507.491,466.474z"/>
		</g>
	</g>
</g>
<g>
	<g>
		<path fill="#1F4D69" d="M291.677,467.488l23.493-10.271l-0.327-0.837l-37.385-8.916c-11.758-4.912-23.515-9.823-35.274-14.732
			c8.612,9.391,17.223,18.783,25.833,28.177l21.079,32.138l0.827,0.123L291.677,467.488z"/>
	</g>
</g>
<g>
	<path id="XMLID_274_" fill="none" stroke="#1F4D69" stroke-width="8.5291" stroke-linecap="round" stroke-miterlimit="10" d="
		M1370.581,874.851c-0.515,2.861,2.302-54.772-2.843-121.54"/>
	<path id="XMLID_273_" fill="none" stroke="#1F4D69" stroke-width="8.5291" stroke-linecap="round" stroke-miterlimit="10" d="
		M1410.384,876.271c0,0-6.295-77.517-14.173-121.539"/>
	<path id="XMLID_272_" fill="none" stroke="#1F4D69" stroke-width="8.5291" stroke-linecap="round" stroke-miterlimit="10" d="
		M1399.886,651.184c-7.286-1.999,110.538,41.293,32.941,68.039c0,0-9.827,16.424,6.862,12.011"/>
	<g id="XMLID_260_">
		<path id="XMLID_263_" fill="#FFFFFF" d="M1357.386,643.596c-6.516,11.546-16.561,16.229-24.098,47.235
			c-2.968,12.213-3.652,23.337,0,41.531c1.301,6.486,16.249,17.877,32.413,20.571c8.529,1.423,18.613,0.551,32.695-1.422
			c5.074-0.712,25.586-4.975,27.008-20.113c1.082-11.519,5.039-23.673,0-41.531c-4.264-15.118-8.943-22.171-27.742-49.163
			c-18.698-26.849-17.243-26.369-17.243-26.369S1364.063,631.767,1357.386,643.596z"/>
		<path id="XMLID_262_" fill="#E0DFE6" d="M1412.896,666.815c-2.961-6.087-6.987-11.621-9.801-17.762
			c-1.451-3.169-3.556-7.968-7.42-9.083c-0.701-0.565-1.477-0.968-2.297-1.22c0.939-0.432,1.875-0.895,2.805-1.406
			c1.028-0.564,2.07-1.204,3.109-1.902c-6.111,1.599-12.236,3.015-17.462,6.709c0.709-0.098,1.417-0.21,2.125-0.347
			c-1.374,1.576-2.267,3.626-2.265,5.992c0.008,6.538,3.562,12.292,7.074,17.672c5.883,9.001,10.031,16.581,11.362,27.341
			c1.136,9.178,0.171,19.094-2.019,28.055c-1.709,6.996-8.529,11.314-9.869,18.331c-1.381,7.24,4.839,7.453,10.716,6.083
			c1.424,0.379,3.035,0.067,3.83-1.104c1.698-0.578,3.18-1.19,4.183-1.663c11.758-5.539,15.778-15.504,16.574-27.48
			C1424.658,698.255,1420.245,681.909,1412.896,666.815z"/>
		<path id="XMLID_261_" fill="none" stroke="#1F4D69" stroke-width="8.5291" stroke-miterlimit="10" d="M1355.964,643.596
			c-6.516,11.546-16.562,16.229-24.098,47.235c-2.968,12.213-3.652,23.337,0,41.531c1.301,6.486,16.249,17.877,32.413,20.571
			c8.529,1.423,18.613,0.551,32.695-1.422c5.074-0.712,25.586-4.975,27.008-20.113c1.082-11.519,5.039-23.673,0-41.531
			c-4.265-15.118-8.943-22.171-27.742-49.163c-18.698-26.849-17.243-26.369-17.243-26.369S1362.641,631.767,1355.964,643.596z"/>
	</g>
	<g id="XMLID_163_">
		<circle id="XMLID_259_" fill="#FFFFFF" cx="1390.773" cy="602.279" r="38.381"/>
		<path id="XMLID_258_" fill="#E0DFE6" d="M1408.035,636.178c2.99-2.383,6.021-4.723,8.82-7.301
			c-0.207-0.007-0.414-0.037-0.623-0.027c0.736-0.726,1.459-1.48,2.158-2.277c8.181-9.324,15.129-26.69,5.184-36.383
			c-10.885-10.609-16.602,11.649-18.836,17.747c-2.444,6.676-7.903,11.922-14.295,14.801c-1.734-0.193-3.033,0.398-3.906,1.428
			c-7.656,2.171-16.001,0.983-21.92-5.017c-2.563-2.597-6.107,0.589-5.549,3.536c-3.147-0.332-5.701,3.932-2.793,6.056
			c1.152,0.842,2.354,1.676,3.6,2.468c1.688,2.804,4.742,4.553,7.895,5.716c0.974,0.358,1.883,0.288,2.662-0.031
			c0.315,0.631,0.842,1.145,1.609,1.387c12.596,3.968,25.607,3.076,36.374-3.349
			C1408.259,635.335,1408.137,635.753,1408.035,636.178z"/>
		
			<circle id="XMLID_257_" fill="none" stroke="#1F4D69" stroke-width="8.5291" stroke-miterlimit="10" cx="1389.436" cy="602.763" r="38.381"/>
	</g>
	<path id="XMLID_255_" fill="none" stroke="#1F4D69" stroke-width="8.5291" stroke-linecap="round" stroke-miterlimit="10" d="
		M1395.71,641.189c0,0,3.604,13.281-8.521,13.281c-12.127,0-19.418-17.547-19.418-17.547"/>
	<path id="XMLID_1_" fill="none" stroke="#1F4D69" stroke-width="8.5291" stroke-linecap="round" stroke-miterlimit="10" d="
		M1355.964,643.596c3.136,6.875-75.43-110.88-5.164-68.46c0,0,18.905-2.982,4.821-12.965"/>
</g>
<g>
	<path fill="#E0DFE6" d="M724.605,232.479c-9.775-8.667-23.073-8.298-35.394-8.097c-2.622,0.043-5.24,0.076-7.862,0.045
		c-1.182-0.014-2.361-0.073-3.54-0.141c-0.182-0.01-0.33-0.017-0.463-0.022c-4.444-0.721-8.995-0.519-13.485-0.729
		c-3.354-0.157-8.913-0.63-10.949-0.91c-15.69-2.165-30.95-6.939-46.599-9.527c-17.007-2.813-34.177-4.676-51.361-5.943
		c-32.774-2.415-65.518-1.525-98.322-2.395c-34.752-0.921-69.524,0.435-104.224,2.292c-0.742,0.04-1.484,0.081-2.227,0.121
		c-16.591-1.069-33.192-1.939-49.771-2.454c-33.692-1.043-67.409,0.032-101.107,0.095c-25.585,0.047-51.169-1.629-76.75-0.573
		c-10.085,0.416-19.086,2.521-28.802,4.885c-0.964,0.236-1.934,0.451-2.904,0.664c-6.911-1.004-13.923-1.49-20.841-0.878
		c-0.312-6.681-0.76-13.363-0.761-19.997c-0.002-14.941-0.078-29.882-0.65-44.813c-0.481-12.544-1.719-24.667-0.612-37.196
		c1.572-17.787,4.319-37.731-1.877-54.732c-0.576-12.365-4.725-23.568-17.04-28.341c-8.857-3.432-16.366-1.044-22.27,4.028
		c-7.56,0.936-13.237,7.454-13.415,15.157c-0.083,3.585-0.175,4.083-1.158,8.033c-0.785,3.155-1.864,6.24-2.866,9.33
		c-2.843,8.777-2.301,17.598-2.301,26.721c0,5.776-0.227,11.615,0.009,17.405c-0.341,11.326-0.268,22.661-0.061,33.99
		c0.304,16.675-0.907,34.91,0.593,52.436c-0.477,2.008-0.931,4.021-1.325,6.051c0.256,6.975-0.276,14.712,0.717,22.061
		c0.207,1.439-1.118,3.448-1.002,4.096c0.238,1.331,0.665,2.606,1.116,3.874c1.477,4.147,3.479,7.695,6.554,10.885
		c0.62,0.645,1.265,1.223,1.924,1.755c-0.519,5.726,2.372,11.404,7.476,14.72c7.823,5.084,18.807,12.438,28.137,8.677
		c3.479-1.402,6.454,2.141,8.905-0.214c0.721,0.076,1.441,0.149,2.162,0.214c3.174,1.36,4.308-0.358,8.037-0.922
		c-3.036,0.459,7.378,10.458,7.378,0.264c2.282-0.169,4.301,0.125,6.587,0.132c4.249,0.011,8.157-0.242,12.386,0.131
		c7.737,0.686,10.376-1.733,17.655,0.527c15.288,4.748,30.567-0.659,43.875,1.317c0.777,0.101,5.548-2.868,6.324-2.767
		c23.668,3.063,43.377,0.62,67.196-0.264c8.008,0.987,15.98,1.45,23.979,2.24c33.416,3.303,67.309,0.686,100.794-0.922
		c32.49-1.561,64.708,0.208,97.237-0.132c11.211-0.116,21.622-0.891,32.807-0.131c0.571,0.039,5.923,0.331,5.139,0.131
		c1.433,0.243,3.056,0.107,4.48,0.396c3.819,0.775,7.521-0.827,11.33,0c16.536,3.585,32.939,0,47.828-0.132
		c0.191,4.591,8.296,0.302,8.695,0c10.725,1.707,20.103-1.182,30.831,0.132c10.818,1.325,21.541-0.265,32.443-0.265h34.285
		c10.212,0,20.397,0.11,30.604,0.321c9.967,0.208,20.917-0.837,29.358-6.624C729.169,251.234,732.435,239.421,724.605,232.479z"/>
</g>
<path fill="none" stroke="#1F4D69" stroke-width="2.9359" stroke-miterlimit="10" d="M705.109,43.014H55.49
	c-12.298,0-22.359,10.344-22.359,22.99v152.021c0,12.644,10.063,22.988,22.359,22.988h649.618c12.3,0,22.362-10.344,22.362-22.988
	V66.004C727.472,53.359,717.409,43.014,705.109,43.014z"/>
<path fill="none" stroke="#1F4D69" stroke-width="6" stroke-miterlimit="10" d="M715.672,20.354H44.931
	c-19.721,0-35.857,16.59-35.857,36.869V226.81c0,20.277,16.136,36.866,35.857,36.866h670.741c19.722,0,35.855-16.589,35.855-36.866
	V57.223C751.529,36.944,735.394,20.354,715.672,20.354z"/>
<path fill="none" d="M111.096,381.954c1.829,0.134,3.659,0.268,5.495,0.406C114.755,382.222,112.924,382.088,111.096,381.954z"/>
<path fill="none" d="M117.624,382.438c1.835,0.139,3.671,0.279,5.512,0.423C121.295,382.718,119.458,382.577,117.624,382.438z"/>
<path fill="none" d="M453.496,415.279c-0.763,0.215-1.529,0.425-2.291,0.642c0.724-0.206,1.456-0.399,2.181-0.603
	C453.422,415.306,453.459,415.292,453.496,415.279z"/>
<path fill="none" d="M104.593,381.489c1.821,0.127,3.645,0.257,5.473,0.39C108.238,381.746,106.414,381.616,104.593,381.489z"/>
<path fill="none" d="M222.887,393.248c1.43,0.192,2.857,0.391,4.285,0.588C225.744,393.639,224.317,393.44,222.887,393.248z"/>
<path fill="none" d="M708.221,379.305c-1.82,0.101-3.647,0.207-5.473,0.312c1.822-0.104,3.646-0.21,5.463-0.311
	C708.214,379.306,708.217,379.305,708.221,379.305z"/>
<path fill="none" d="M98.064,381.039c1.834,0.124,3.673,0.25,5.517,0.379C101.737,381.289,99.898,381.163,98.064,381.039z"/>
<path fill="none" d="M124.166,382.942c1.852,0.146,3.707,0.293,5.564,0.443C127.873,383.235,126.018,383.088,124.166,382.942z"/>
<path fill="none" d="M202.774,390.674c1.696,0.205,3.39,0.416,5.083,0.627C206.164,391.09,204.47,390.879,202.774,390.674z"/>
<path fill="none" d="M130.666,383.462c1.887,0.153,3.775,0.309,5.667,0.468C134.441,383.771,132.553,383.615,130.666,383.462z"/>
<path fill="none" d="M216.208,392.362c1.489,0.194,2.976,0.392,4.463,0.591C219.184,392.754,217.697,392.557,216.208,392.362z"/>
<path fill="none" d="M209.493,391.502c1.56,0.196,3.118,0.397,4.676,0.598C212.611,391.899,211.053,391.698,209.493,391.502z"/>
<path fill="none" d="M137.184,384.002c1.93,0.164,3.862,0.328,5.796,0.497C141.046,384.33,139.114,384.166,137.184,384.002z"/>
<path fill="none" d="M143.559,384.55c2.024,0.177,4.05,0.357,6.079,0.54C147.609,384.907,145.583,384.727,143.559,384.55z"/>
<path fill="none" d="M149.852,385.109c17.242,1.562,34.616,3.362,51.914,5.444C184.468,388.472,167.094,386.672,149.852,385.109z"/>
<path fill="none" d="M91.623,380.611c1.84,0.119,3.685,0.242,5.534,0.366C95.307,380.854,93.463,380.73,91.623,380.611z"/>
<path fill="none" d="M621.228,443.792c-1.077,0.411-2.154,0.833-3.231,1.255C619.073,444.625,620.15,444.203,621.228,443.792z"/>
<path fill="none" d="M615.148,446.168c-1.101,0.441-2.202,0.894-3.304,1.346C612.946,447.063,614.048,446.609,615.148,446.168z"/>
<path fill="none" d="M627.307,441.523c-1.063,0.388-2.127,0.783-3.19,1.181C625.18,442.307,626.244,441.911,627.307,441.523z"/>
<path fill="none" d="M633.377,439.36c-1.053,0.367-2.105,0.739-3.159,1.114C631.271,440.1,632.324,439.728,633.377,439.36z"/>
<path fill="none" d="M645.481,435.339c-1.036,0.329-2.072,0.659-3.109,0.997C643.409,435.998,644.445,435.668,645.481,435.339z"/>
<path fill="none" d="M85.18,380.199c1.849,0.116,3.702,0.233,5.56,0.354C88.881,380.433,87.028,380.315,85.18,380.199z"/>
<path fill="none" d="M639.436,437.302c-1.045,0.346-2.089,0.697-3.135,1.053C637.347,437.999,638.391,437.647,639.436,437.302z"/>
<path fill="none" d="M609.067,448.657c-1.142,0.479-2.282,0.972-3.423,1.463C606.785,449.629,607.926,449.136,609.067,448.657z"/>
<path fill="none" d="M602.99,451.262c-1.244,0.546-2.486,1.109-3.729,1.671C600.504,452.371,601.747,451.808,602.99,451.262z"/>
<path fill="none" d="M78.751,379.803c1.875,0.113,3.756,0.229,5.642,0.348C82.507,380.032,80.627,379.916,78.751,379.803z"/>
<path fill="none" d="M66.07,379.063c1.933,0.108,3.872,0.22,5.818,0.333C69.942,379.282,68.003,379.171,66.07,379.063z"/>
<path fill="none" d="M72.375,379.424c1.909,0.111,3.824,0.226,5.745,0.341C76.199,379.648,74.284,379.535,72.375,379.424z"/>
<path fill="none" d="M596.924,453.984c-1.769,0.812-3.534,1.645-5.3,2.488C593.39,455.629,595.155,454.797,596.924,453.984z"/>
<path fill="none" d="M59.776,378.715c1.966,0.107,3.94,0.216,5.92,0.327C63.716,378.931,61.742,378.822,59.776,378.715z"/>
<path fill="none" d="M325.852,412.062c1.091,0.266,2.18,0.531,3.265,0.801C328.032,412.593,326.943,412.327,325.852,412.062z"/>
<path fill="none" d="M343.74,416.667c1.061,0.289,2.122,0.577,3.175,0.87C345.862,417.244,344.8,416.956,343.74,416.667z"/>
<path fill="none" d="M307.407,407.82c1.124,0.244,2.247,0.49,3.367,0.738C309.654,408.311,308.531,408.064,307.407,407.82z"/>
<path fill="none" d="M319.768,410.609c1.1,0.258,2.199,0.517,3.293,0.778C321.967,411.125,320.868,410.867,319.768,410.609z"/>
<path fill="none" d="M301.144,406.484c1.138,0.237,2.274,0.478,3.407,0.721C303.418,406.962,302.282,406.723,301.144,406.484z"/>
<path fill="none" d="M337.835,415.089c1.073,0.28,2.146,0.562,3.212,0.847C339.981,415.65,338.908,415.369,337.835,415.089z"/>
<path fill="none" d="M331.88,413.556c1.082,0.273,2.164,0.546,3.241,0.824C334.044,414.102,332.962,413.829,331.88,413.556z"/>
<path fill="none" d="M651.516,433.471c-1.033,0.313-2.066,0.627-3.102,0.947C649.449,434.098,650.482,433.783,651.516,433.471z"/>
<path fill="none" d="M313.618,409.195c1.109,0.251,2.217,0.502,3.32,0.757C315.835,409.697,314.728,409.446,313.618,409.195z"/>
<path fill="none" d="M229.574,394.168c1.381,0.194,2.759,0.391,4.138,0.589C232.333,394.559,230.955,394.362,229.574,394.168z"/>
<path fill="none" d="M262.626,399.248c1.228,0.205,2.452,0.415,3.675,0.625C265.078,399.663,263.854,399.453,262.626,399.248z"/>
<path fill="none" d="M256.072,398.165c1.25,0.203,2.497,0.409,3.743,0.614C258.569,398.574,257.322,398.368,256.072,398.165z"/>
<path fill="none" d="M269.153,400.365c1.208,0.21,2.411,0.423,3.615,0.638C271.564,400.788,270.36,400.575,269.153,400.365z"/>
<path fill="none" d="M288.469,403.924c1.168,0.229,2.334,0.458,3.498,0.688C290.803,404.382,289.637,404.152,288.469,403.924z"/>
<path fill="none" d="M282.068,402.701c1.186,0.223,2.368,0.447,3.549,0.673C284.436,403.148,283.253,402.924,282.068,402.701z"/>
<path fill="none" d="M275.628,401.515c1.197,0.217,2.391,0.436,3.583,0.656C278.019,401.95,276.825,401.731,275.628,401.515z"/>
<path fill="none" d="M294.835,405.186c1.152,0.233,2.301,0.468,3.448,0.704C297.136,405.653,295.987,405.419,294.835,405.186z"/>
<path fill="none" d="M440.045,419.209c1.53-0.467,3.079-0.911,4.617-1.367C443.124,418.298,441.575,418.742,440.045,419.209z"/>
<path fill="none" d="M349.557,418.283c1.053,0.298,2.107,0.596,3.153,0.897C351.664,418.879,350.61,418.581,349.557,418.283z"/>
<path fill="none" d="M418.209,426.349c1.274-0.446,2.568-0.867,3.849-1.306C420.777,425.481,419.483,425.902,418.209,426.349z"/>
<path fill="none" d="M242.869,396.101c1.301,0.196,2.6,0.396,3.898,0.596C245.469,396.497,244.17,396.297,242.869,396.101z"/>
<path fill="none" d="M249.49,397.117c1.271,0.199,2.539,0.4,3.807,0.604C252.029,397.518,250.761,397.316,249.49,397.117z"/>
<path fill="none" d="M236.226,395.117c1.344,0.196,2.686,0.395,4.028,0.595C238.912,395.512,237.57,395.313,236.226,395.117z"/>
<path fill="none" d="M407.56,430.212c0.928-0.348,1.875-0.677,2.808-1.021C409.435,429.535,408.487,429.864,407.56,430.212z"/>
<path fill="none" d="M429.039,422.685c1.436-0.47,2.892-0.915,4.336-1.376C431.931,421.77,430.475,422.215,429.039,422.685z"/>
<path fill="none" d="M387.872,430.735c1.072,0.401,2.149,0.8,3.21,1.206C390.021,431.535,388.944,431.137,387.872,430.735z"/>
<path fill="none" d="M360.974,421.644c1.037,0.317,2.076,0.633,3.105,0.955C363.049,422.276,362.01,421.961,360.974,421.644z"/>
<path fill="none" d="M355.305,419.942c1.046,0.308,2.093,0.614,3.131,0.927C357.397,420.557,356.351,420.25,355.305,419.942z"/>
<path fill="none" d="M366.584,423.395c1.022,0.326,2.047,0.649,3.061,0.98C368.631,424.044,367.606,423.721,366.584,423.395z"/>
<path fill="none" d="M382.772,428.868c1.028,0.369,2.062,0.736,3.081,1.11C384.834,429.604,383.801,429.237,382.772,428.868z"/>
<path fill="none" d="M372.091,425.185c1.016,0.336,2.035,0.671,3.042,1.012C374.125,425.855,373.106,425.521,372.091,425.185z"/>
<path fill="none" d="M377.493,427.01c1.016,0.352,2.038,0.7,3.044,1.055C379.53,427.71,378.509,427.361,377.493,427.01z"/>
<path fill="none" d="M675.374,426.896c-1.009,0.251-2.014,0.499-3.025,0.759C673.36,427.396,674.365,427.147,675.374,426.896z"/>
<path fill="none" d="M1.013,389.26v-13.259c18.408,0.727,38.085,1.595,58.594,2.705C38.721,377.575,18.699,376.694,0,375.96v13.397
	C0.337,389.324,0.675,389.292,1.013,389.26z"/>
<path fill="none" d="M689.728,423.496c-0.882,0.197-1.771,0.402-2.655,0.604C687.957,423.898,688.846,423.693,689.728,423.496z"/>
<path fill="none" d="M728.795,416.021c-0.725,0.119-1.451,0.237-2.18,0.359C727.344,416.259,728.07,416.141,728.795,416.021z"/>
<path fill="none" d="M657.519,431.698c-1.026,0.296-2.053,0.592-3.082,0.896C655.466,432.29,656.492,431.994,657.519,431.698z"/>
<path fill="none" d="M739.186,414.386c-0.607,0.093-1.213,0.184-1.822,0.277C737.973,414.569,738.578,414.479,739.186,414.386z"/>
<path fill="none" d="M392.085,432.334c1.366,0.528,2.73,1.058,4.076,1.596c0.301,0.121,0.611,0.238,0.912,0.359
	c0.001,0,0.001,0,0.002,0c-0.302-0.121-0.611-0.238-0.912-0.359v-8.089h-0.002v8.088
	C394.815,433.391,393.45,432.862,392.085,432.334z"/>
<path fill="none" d="M744.17,413.642c-0.523,0.077-1.043,0.152-1.568,0.229C743.127,413.794,743.646,413.719,744.17,413.642z"/>
<path fill="none" d="M663.496,430.015c-1.018,0.279-2.034,0.558-3.056,0.845C661.462,430.572,662.479,430.294,663.496,430.015z"/>
<path fill="none" d="M683.915,424.822c-0.942,0.22-1.891,0.451-2.835,0.678C682.024,425.273,682.973,425.042,683.915,424.822z"/>
<path fill="none" d="M669.448,428.414c-1.013,0.267-2.023,0.528-3.039,0.802C667.425,428.942,668.436,428.681,669.448,428.414z"/>
<path fill="none" d="M734.044,415.18c-0.672,0.105-1.343,0.212-2.019,0.319C732.7,415.392,733.372,415.285,734.044,415.18z"/>
<path fill="none" d="M706.853,419.933c-0.825,0.16-1.655,0.325-2.484,0.489C705.197,420.258,706.027,420.093,706.853,419.933z"/>
<path fill="none" d="M712.452,418.87c-0.809,0.149-1.621,0.304-2.434,0.457C710.831,419.174,711.644,419.02,712.452,418.87z"/>
<path fill="none" d="M717.978,417.865c-0.788,0.141-1.577,0.283-2.368,0.427C716.4,418.148,717.191,418.006,717.978,417.865z"/>
<path fill="none" d="M522.046,573.198L526.597,620h0.002l-4.551-46.803c-8.141-39.258,0.308-65.37,21.634-85.888
	C522.354,507.827,513.906,533.94,522.046,573.198z"/>
<path fill="none" d="M723.423,416.918c-0.755,0.129-1.511,0.259-2.27,0.391C721.911,417.177,722.668,417.047,723.423,416.918z"/>
<path fill="none" d="M748.747,412.979c-0.32,0.046-0.638,0.091-0.96,0.137C748.109,413.07,748.427,413.025,748.747,412.979z"/>
<path fill="none" d="M701.203,421.054c-0.849,0.173-1.703,0.353-2.555,0.528C699.5,421.406,700.354,421.227,701.203,421.054z"/>
<path fill="none" d="M695.492,422.241c-0.865,0.184-1.735,0.376-2.604,0.564C693.757,422.617,694.627,422.425,695.492,422.241z"/>
<path fill="#FFFFFF" d="M761,395.804c-0.889,0.194-1.805,0.337-2.745,0.411c-54.001,4.291-106.023,17.77-159.728,24.546
	c-12.908,1.63-24.522,2.875-37.074,5.6c-12.511,2.716-24.868,5.914-37.45,8.415c-11.27,2.239-23.116,3.894-33.707,7.895
	c0.896-0.306-3.153,1.495-2.804,1.317c-1.899,0.97-3.912,1.7-5.979,2.416c-0.317,0.111-3.403,1.276-1.864,0.653
	c-0.634,0.251-1.269,0.504-1.899,0.761c-5.155,2.104-10.29,4.261-15.578,6.149c-14.056,5.021-29.896,7.152-43.033,0.021
	c-7.425-4.029-8.595-11.388-5.339-17.673c2.105-4.06,7.131-7.437,11.633-9.871c8.575-4.642,18.379-7.833,27.954-11.126
	c-0.725,0.203-1.457,0.396-2.181,0.603c-2.193,0.624-4.365,1.275-6.543,1.921c-1.538,0.456-3.087,0.9-4.617,1.367
	c-2.238,0.683-4.451,1.395-6.67,2.1c-1.444,0.461-2.9,0.906-4.336,1.376c-2.345,0.766-4.661,1.564-6.981,2.358
	c-1.28,0.438-2.574,0.859-3.849,1.306c-2.636,0.925-5.239,1.884-7.842,2.843c-0.933,0.344-1.88,0.673-2.808,1.021
	c-3.527,1.325-7.022,2.683-10.484,4.077l0,0c-0.001,0-0.001,0-0.002,0c-0.301-0.121-0.611-0.238-0.912-0.359
	c-1.346-0.538-2.71-1.067-4.076-1.596c-0.336-0.13-0.666-0.263-1.003-0.393c-1.061-0.406-2.138-0.805-3.21-1.206
	c-0.675-0.251-1.341-0.508-2.019-0.757c-1.02-0.374-2.053-0.741-3.081-1.11c-0.745-0.268-1.484-0.539-2.235-0.804
	c-1.007-0.354-2.028-0.703-3.044-1.055c-0.787-0.271-1.568-0.545-2.36-0.813c-1.007-0.341-2.026-0.676-3.042-1.012
	c-0.815-0.271-1.625-0.544-2.446-0.81c-1.013-0.331-2.039-0.654-3.061-0.98c-0.834-0.265-1.665-0.533-2.505-0.796
	c-1.029-0.322-2.068-0.638-3.105-0.955c-0.845-0.259-1.688-0.52-2.538-0.774c-1.039-0.313-2.085-0.619-3.131-0.927
	c-0.864-0.254-1.726-0.511-2.595-0.762c-1.046-0.302-2.1-0.6-3.153-0.897c-0.879-0.25-1.757-0.5-2.642-0.746
	c-1.053-0.293-2.115-0.581-3.175-0.87c-0.896-0.244-1.792-0.49-2.692-0.731c-1.066-0.285-2.139-0.566-3.212-0.847
	c-0.904-0.237-1.807-0.476-2.715-0.709c-1.077-0.278-2.159-0.551-3.241-0.824c-0.92-0.232-1.839-0.465-2.763-0.693
	c-1.084-0.27-2.174-0.535-3.265-0.801c-0.929-0.226-1.858-0.451-2.791-0.674c-1.094-0.262-2.193-0.521-3.293-0.778
	c-0.941-0.221-1.883-0.439-2.829-0.657c-1.104-0.255-2.211-0.506-3.32-0.757c-0.947-0.212-1.895-0.426-2.845-0.637
	c-1.12-0.248-2.243-0.494-3.367-0.738c-0.951-0.207-1.902-0.412-2.855-0.615c-1.133-0.243-2.269-0.483-3.407-0.721
	c-0.952-0.2-1.906-0.397-2.861-0.595c-1.147-0.236-2.296-0.471-3.448-0.704c-0.955-0.191-1.911-0.384-2.869-0.573
	c-1.164-0.23-2.329-0.46-3.498-0.688c-0.949-0.185-1.9-0.367-2.852-0.55c-1.181-0.226-2.364-0.45-3.549-0.673
	c-0.951-0.178-1.903-0.354-2.856-0.53c-1.193-0.221-2.387-0.439-3.583-0.656c-0.952-0.172-1.906-0.343-2.861-0.512
	c-1.204-0.215-2.407-0.428-3.615-0.638c-0.949-0.166-1.9-0.329-2.852-0.492c-1.224-0.21-2.448-0.42-3.675-0.625
	c-0.936-0.158-1.874-0.313-2.812-0.469c-1.246-0.205-2.493-0.411-3.743-0.614c-0.923-0.149-1.849-0.297-2.774-0.444
	c-1.268-0.203-2.537-0.404-3.807-0.604c-0.906-0.142-1.815-0.28-2.723-0.421c-1.298-0.199-2.597-0.399-3.898-0.596
	c-0.871-0.132-1.744-0.259-2.615-0.389c-1.342-0.2-2.684-0.398-4.028-0.595c-0.837-0.121-1.676-0.24-2.514-0.36
	c-1.379-0.198-2.757-0.395-4.138-0.589c-0.8-0.111-1.602-0.222-2.402-0.332c-1.428-0.197-2.855-0.396-4.285-0.588
	c-0.738-0.1-1.477-0.197-2.216-0.295c-1.487-0.199-2.974-0.396-4.463-0.591c-0.68-0.089-1.36-0.175-2.039-0.263
	c-1.558-0.2-3.116-0.401-4.676-0.598c-0.545-0.068-1.091-0.133-1.635-0.201c-1.694-0.211-3.388-0.422-5.083-0.627
	c-0.336-0.04-0.673-0.08-1.009-0.12c-17.297-2.082-34.672-3.883-51.914-5.444c-0.072-0.006-0.143-0.013-0.214-0.02
	c-2.029-0.183-4.055-0.363-6.079-0.54c-0.192-0.017-0.386-0.034-0.578-0.051c-1.935-0.169-3.866-0.333-5.796-0.497
	c-0.284-0.023-0.567-0.048-0.851-0.072c-1.892-0.159-3.781-0.314-5.667-0.468c-0.312-0.025-0.624-0.052-0.936-0.076
	c-1.858-0.15-3.712-0.298-5.564-0.443c-0.344-0.026-0.688-0.055-1.03-0.081c-1.841-0.144-3.677-0.284-5.512-0.423
	c-0.344-0.025-0.689-0.052-1.033-0.078c-1.835-0.139-3.666-0.272-5.495-0.406c-0.343-0.024-0.687-0.051-1.03-0.075
	c-1.828-0.133-3.652-0.263-5.473-0.39c-0.337-0.024-0.676-0.048-1.013-0.071c-1.843-0.129-3.682-0.255-5.517-0.379
	c-0.302-0.021-0.605-0.041-0.907-0.062c-1.849-0.124-3.693-0.247-5.534-0.366c-0.294-0.019-0.589-0.039-0.884-0.058
	c-1.858-0.121-3.711-0.238-5.56-0.354c-0.262-0.017-0.524-0.033-0.786-0.049c-1.886-0.118-3.767-0.234-5.642-0.348
	c-0.21-0.013-0.421-0.025-0.632-0.038c-1.921-0.115-3.836-0.229-5.745-0.341c-0.163-0.009-0.325-0.019-0.486-0.028
	c-1.946-0.113-3.885-0.225-5.818-0.333c-0.124-0.007-0.249-0.014-0.374-0.021c-1.98-0.111-3.955-0.22-5.92-0.327
	c-0.057-0.003-0.112-0.006-0.169-0.009c-20.509-1.11-40.186-1.979-58.594-2.705v13.259c5.295-0.491,10.618-0.664,15.946-0.485
	c14.796,0.495,29.601,2.331,44.278,4.181c15.861,2.001,31.777,3.498,47.688,5.047c15.631,1.521,31.228,3.65,46.868,4.965
	c1.224,0.103,2.447,0.222,3.671,0.335c11.171-0.797,22.648,0.358,33.284,2.306c17.324,3.173,34.595,9.155,50.571,17.231
	c0.333,0.137,0.671,0.264,1.004,0.401c12.398,5.135,23.939,10.614,33.147,20.72c0.976,1.072,1.921,2.165,2.846,3.272
	c0.338,0.3,0.667,0.609,1.001,0.914l33.524,7.995l0.327,0.836l-19.949,8.722c1.85,3.501,3.441,7.16,4.801,10.895
	c13.919,16.03,13.919,16.03,0,0c0.762,2.094,1.458,4.208,2.072,6.335c0.852,2.951,1.63,5.922,2.383,8.9
	c0.09,0.355,0.183,0.71,0.271,1.065c1.351,3.834,2.615,7.693,3.799,11.557c5.259,11.838,10.778,24.716,9.942,37.636
	c1.549,7.362,2.809,14.785,3.634,22.292c1.046,9.523,1.465,20.606-0.415,30.972c0.856,2.136,1.576,4.285,2.146,6.387
	c1.262,4.667,2.309,9.786,2.056,14.642c-0.063,1.214-0.183,2.419-0.331,3.621h201.017l-4.551-46.802
	c-8.14-39.258,0.309-65.371,21.636-85.889c11.925-11.474,27.876-21.198,47.208-30.492c0.244-0.117,0.49-0.228,0.734-0.345
	c1.766-0.844,3.531-1.677,5.3-2.488c0.778-0.358,1.558-0.7,2.338-1.052c1.242-0.562,2.484-1.125,3.729-1.671
	c0.885-0.388,1.77-0.762,2.654-1.142c1.141-0.491,2.281-0.984,3.423-1.463c0.926-0.388,1.853-0.764,2.777-1.144
	c1.102-0.452,2.203-0.904,3.304-1.346c0.949-0.379,1.898-0.749,2.848-1.121c1.077-0.422,2.154-0.844,3.231-1.255
	c0.963-0.368,1.926-0.728,2.889-1.088c1.063-0.397,2.128-0.793,3.19-1.181c0.971-0.354,1.941-0.702,2.911-1.049
	c1.054-0.375,2.106-0.747,3.159-1.114c0.975-0.339,1.949-0.674,2.924-1.006c1.046-0.355,2.09-0.707,3.135-1.053
	c0.979-0.326,1.958-0.648,2.937-0.966c1.037-0.338,2.073-0.668,3.109-0.997c0.978-0.31,1.956-0.619,2.933-0.921
	c1.035-0.32,2.068-0.635,3.102-0.947c0.975-0.294,1.948-0.59,2.921-0.877c1.029-0.304,2.056-0.6,3.082-0.896
	c0.975-0.281,1.95-0.564,2.922-0.839c1.021-0.287,2.038-0.565,3.056-0.845c0.972-0.268,1.944-0.539,2.913-0.799
	c1.016-0.273,2.026-0.535,3.039-0.802c0.967-0.253,1.937-0.513,2.9-0.759c1.012-0.26,2.017-0.508,3.025-0.759
	c1.907-0.479,3.809-0.943,5.706-1.396c0.944-0.227,1.893-0.458,2.835-0.678c1.057-0.248,2.105-0.482,3.157-0.722
	c0.885-0.202,1.773-0.407,2.655-0.604c1.058-0.235,2.108-0.461,3.161-0.69c0.868-0.188,1.738-0.381,2.604-0.564
	c1.056-0.225,2.104-0.441,3.156-0.659c0.852-0.176,1.706-0.355,2.555-0.528c1.06-0.215,2.112-0.423,3.165-0.632
	c0.829-0.164,1.659-0.329,2.484-0.489c1.061-0.206,2.113-0.406,3.166-0.605c0.813-0.153,1.625-0.308,2.434-0.457
	c1.057-0.197,2.107-0.389,3.157-0.578c0.791-0.144,1.58-0.286,2.368-0.427c1.063-0.188,2.12-0.374,3.176-0.557
	c0.759-0.132,1.515-0.262,2.27-0.391c1.068-0.182,2.132-0.361,3.192-0.537c0.729-0.122,1.455-0.24,2.18-0.359
	c1.08-0.177,2.158-0.351,3.23-0.522c0.676-0.107,1.347-0.214,2.019-0.319c1.11-0.174,2.218-0.349,3.319-0.517
	c0.609-0.094,1.215-0.185,1.822-0.277c1.144-0.173,2.284-0.346,3.416-0.515c0.525-0.077,1.045-0.152,1.568-0.229
	c1.211-0.177,2.42-0.354,3.617-0.525c0.322-0.046,0.64-0.091,0.96-0.137c4.17-0.594,8.258-1.154,12.253-1.687V395.804z
	 M464.492,495.854c-0.122,0.236-0.21,0.402-0.278,0.532c0.047-0.113,0.091-0.22,0.132-0.319c0.071-0.146,0.156-0.32,0.257-0.522
	C464.573,495.624,464.54,495.721,464.492,495.854z M531.343,459.839l-20.922,32.347l-0.89,0.024l-1.643-25.301
	c-17.332,17.312-33.127,40.701-35.389,69.591c2.262-28.89,18.057-52.279,35.389-69.591l-0.029-0.449l-23.388-10.438l0.394-0.739
	l37.107-8.974c11.672-4.942,23.342-9.886,35.013-14.829C548.439,440.936,539.892,450.388,531.343,459.839z"/>
<path fill="#FFFFFF" d="M700.208,380.579c2.665-0.435,5.333-0.857,8.003-1.273c-1.817,0.101-3.641,0.206-5.463,0.311
	c-1.007,0.058-2.015,0.116-3.023,0.176C699.898,380.049,700.061,380.312,700.208,380.579z"/>
<path fill="#E0DFE6" d="M195.418,455.156c-0.51-0.216-1.019-0.431-1.532-0.645C194.399,454.726,194.909,454.94,195.418,455.156z"/>
<path fill="#E0DFE6" d="M64.893,419.797c-0.222-0.039-0.442-0.077-0.663-0.115C64.451,419.72,64.671,419.758,64.893,419.797z"/>
<path fill="#E0DFE6" d="M181.859,449.753c-0.521-0.195-1.045-0.391-1.569-0.585C180.814,449.363,181.338,449.558,181.859,449.753z"
	/>
<path fill="#E0DFE6" d="M198.714,456.572c-0.503-0.22-1.006-0.439-1.512-0.657C197.708,456.133,198.21,456.353,198.714,456.572z"/>
<path fill="#E0DFE6" d="M192.079,453.765c-0.512-0.21-1.024-0.419-1.538-0.627C191.055,453.346,191.567,453.555,192.079,453.765z"/>
<path fill="#E0DFE6" d="M185.297,451.063c-0.519-0.201-1.04-0.401-1.561-0.6C184.257,450.662,184.778,450.862,185.297,451.063z"/>
<path fill="#E0DFE6" d="M188.703,452.399c-0.514-0.205-1.03-0.409-1.547-0.611C187.673,451.99,188.188,452.195,188.703,452.399z"/>
<path fill="#E0DFE6" d="M89.798,424.481c-0.292-0.06-0.583-0.118-0.875-0.177C89.215,424.363,89.507,424.422,89.798,424.481z"/>
<path fill="#E0DFE6" d="M201.97,458.016c-0.496-0.224-0.99-0.447-1.49-0.669C200.979,457.568,201.475,457.792,201.97,458.016z"/>
<path fill="#E0DFE6" d="M68.437,420.425c-0.281-0.051-0.562-0.101-0.842-0.151C67.875,420.324,68.156,420.374,68.437,420.425z"/>
<path fill="#E0DFE6" d="M255.854,496.729c15.04,19.624,20.905,44.539,14.421,76.468l-1.792,15.742l1.792-15.741
	C276.759,541.269,270.894,516.354,255.854,496.729z"/>
<path fill="#E0DFE6" d="M0,410.099c0.338,0.044,0.671,0.087,1.013,0.131v-20.97c-0.338,0.032-0.676,0.064-1.013,0.098V410.099z"/>
<path fill="#E0DFE6" d="M57.918,418.597c-0.028-0.005-0.056-0.01-0.084-0.015C57.862,418.587,57.89,418.592,57.918,418.597z"/>
<path fill="#E0DFE6" d="M205.178,459.483c-0.487-0.227-0.972-0.454-1.462-0.679C204.206,459.029,204.691,459.257,205.178,459.483z"
	/>
<path fill="#E0DFE6" d="M61.396,419.189c-0.156-0.026-0.312-0.054-0.468-0.08C61.084,419.136,61.24,419.163,61.396,419.189z"/>
<path fill="#E0DFE6" d="M211.314,462.429c-0.418-0.207-0.833-0.417-1.253-0.623C210.481,462.012,210.896,462.222,211.314,462.429z"
	/>
<path fill="#E0DFE6" d="M208.325,460.971c-0.471-0.227-0.939-0.454-1.413-0.679C207.386,460.517,207.854,460.744,208.325,460.971z"
	/>
<path fill="#E0DFE6" d="M140.395,436.424c-0.502-0.139-1.005-0.277-1.507-0.415C139.39,436.146,139.893,436.285,140.395,436.424z"/>
<path fill="#E0DFE6" d="M133.009,434.434c-0.501-0.132-1.003-0.262-1.504-0.393C132.006,434.172,132.507,434.302,133.009,434.434z"
	/>
<path fill="#E0DFE6" d="M129.304,433.472c-0.495-0.128-0.99-0.253-1.485-0.379C128.313,433.219,128.809,433.344,129.304,433.472z"/>
<path fill="#E0DFE6" d="M79.106,422.39c-0.33-0.063-0.659-0.126-0.988-0.188C78.447,422.264,78.776,422.327,79.106,422.39z"/>
<path fill="#E0DFE6" d="M125.579,432.526c-0.479-0.119-0.957-0.238-1.436-0.356C124.622,432.288,125.101,432.407,125.579,432.526z"
	/>
<path fill="#E0DFE6" d="M121.865,431.606c-0.464-0.113-0.927-0.226-1.391-0.338C120.938,431.381,121.401,431.493,121.865,431.606z"
	/>
<path fill="#E0DFE6" d="M75.528,421.717c-0.318-0.059-0.635-0.118-0.952-0.176C74.893,421.599,75.21,421.658,75.528,421.717z"/>
<path fill="#E0DFE6" d="M178.383,448.465c-0.514-0.188-1.031-0.373-1.547-0.56C177.352,448.092,177.869,448.277,178.383,448.465z"/>
<path fill="#E0DFE6" d="M136.709,435.418c-0.505-0.136-1.009-0.271-1.514-0.405C135.7,435.147,136.204,435.282,136.709,435.418z"/>
<path fill="#E0DFE6" d="M86.266,423.776c-0.325-0.064-0.65-0.129-0.975-0.193C85.616,423.647,85.941,423.712,86.266,423.776z"/>
<path fill="#E0DFE6" d="M96.261,425.809c-0.008-0.001-0.015-0.003-0.022-0.005C96.246,425.806,96.253,425.808,96.261,425.809z"/>
<path fill="#E0DFE6" d="M118.141,430.706c-0.431-0.103-0.862-0.205-1.293-0.307C117.278,430.501,117.709,430.604,118.141,430.706z"
	/>
<path fill="#E0DFE6" d="M147.708,438.494c-0.489-0.143-0.978-0.285-1.467-0.426C146.73,438.209,147.219,438.352,147.708,438.494z"/>
<path fill="#E0DFE6" d="M93.213,425.177c-0.212-0.044-0.424-0.088-0.636-0.131C92.789,425.089,93.001,425.134,93.213,425.177z"/>
<path fill="#E0DFE6" d="M110.711,428.969c-0.288-0.064-0.576-0.129-0.864-0.194C110.135,428.84,110.423,428.904,110.711,428.969z"/>
<path fill="#E0DFE6" d="M82.714,423.081c-0.344-0.067-0.689-0.134-1.033-0.199C82.025,422.947,82.37,423.015,82.714,423.081z"/>
<path fill="#E0DFE6" d="M114.418,429.826c-0.384-0.09-0.767-0.178-1.151-0.268C113.651,429.648,114.035,429.736,114.418,429.826z"/>
<path fill="#E0DFE6" d="M144.073,437.452c-0.504-0.143-1.007-0.286-1.512-0.427C143.065,437.166,143.569,437.31,144.073,437.452z"/>
<path fill="#E0DFE6" d="M164.215,443.572c-0.267-0.087-0.536-0.172-0.804-0.259C163.679,443.4,163.948,443.485,164.215,443.572z"/>
<path fill="#E0DFE6" d="M154.756,440.59c-0.401-0.122-0.801-0.245-1.203-0.367C153.955,440.345,154.355,440.468,154.756,440.59z"/>
<path fill="#E0DFE6" d="M71.98,421.063c-0.312-0.057-0.625-0.112-0.937-0.17C71.356,420.951,71.668,421.007,71.98,421.063z"/>
<path fill="#E0DFE6" d="M151.309,439.552c-0.47-0.14-0.938-0.28-1.409-0.419C150.371,439.271,150.839,439.412,151.309,439.552z"/>
<path fill="#E0DFE6" d="M171.347,445.968c-0.488-0.168-0.979-0.334-1.469-0.502C170.368,445.634,170.859,445.8,171.347,445.968z"/>
<path fill="#E0DFE6" d="M174.875,447.203c-0.502-0.179-1.008-0.354-1.512-0.531C173.868,446.849,174.373,447.024,174.875,447.203z"
	/>
<path fill="#E0DFE6" d="M167.795,444.759c-0.449-0.15-0.9-0.299-1.35-0.448C166.895,444.46,167.347,444.608,167.795,444.759z"/>
<path fill="#E0DFE6" d="M291.646,467.692c2.85,2.807,5.66,5.773,8.375,8.901c-1.359-3.734-2.951-7.394-4.801-10.895l-3.544,1.55
	L291.646,467.692z"/>
<path fill="#E0DFE6" d="M57.833,418.582c0.028,0.005,0.056,0.01,0.084,0.015c1,0.168,2.003,0.339,3.01,0.513
	c0.156,0.026,0.312,0.054,0.468,0.08c0.942,0.162,1.887,0.326,2.834,0.492c0.221,0.038,0.441,0.076,0.663,0.115
	c0.898,0.157,1.799,0.316,2.702,0.477c0.281,0.051,0.561,0.101,0.842,0.151c0.867,0.154,1.735,0.312,2.607,0.469
	c0.312,0.058,0.625,0.113,0.937,0.17c0.863,0.157,1.729,0.316,2.595,0.478c0.317,0.058,0.634,0.117,0.952,0.176
	c0.861,0.16,1.725,0.322,2.59,0.485c0.329,0.062,0.659,0.125,0.988,0.188c0.857,0.162,1.715,0.326,2.575,0.492
	c0.344,0.065,0.688,0.132,1.033,0.199c0.858,0.167,1.716,0.334,2.577,0.502c0.325,0.064,0.65,0.129,0.975,0.193
	c0.885,0.175,1.77,0.35,2.658,0.528c0.292,0.059,0.583,0.117,0.875,0.177c0.925,0.187,1.851,0.374,2.778,0.564
	c0.212,0.043,0.424,0.087,0.636,0.131c1.007,0.207,2.016,0.416,3.026,0.627c0.007,0.002,0.014,0.004,0.022,0.005
	c4.509,0.944,9.042,1.933,13.586,2.966c0.288,0.065,0.576,0.13,0.864,0.194c0.852,0.195,1.704,0.393,2.556,0.59
	c0.384,0.09,0.768,0.178,1.151,0.268c0.81,0.189,1.619,0.381,2.429,0.573c0.431,0.102,0.862,0.204,1.293,0.307
	c0.778,0.186,1.555,0.374,2.333,0.563c0.464,0.112,0.927,0.225,1.391,0.338c0.76,0.187,1.519,0.374,2.278,0.563
	c0.479,0.118,0.958,0.237,1.436,0.356c0.747,0.188,1.493,0.376,2.24,0.566c0.495,0.126,0.99,0.251,1.485,0.379
	c0.734,0.188,1.467,0.378,2.201,0.569c0.501,0.131,1.002,0.261,1.504,0.393c0.729,0.192,1.458,0.385,2.186,0.579
	c0.505,0.135,1.009,0.27,1.514,0.405c0.727,0.196,1.453,0.394,2.179,0.591c0.502,0.138,1.005,0.276,1.507,0.415
	c0.723,0.199,1.444,0.399,2.166,0.602c0.504,0.141,1.008,0.284,1.512,0.427c0.723,0.204,1.446,0.409,2.168,0.616
	c0.489,0.141,0.978,0.283,1.467,0.426c0.731,0.212,1.463,0.423,2.193,0.639c0.471,0.139,0.939,0.279,1.409,0.419
	c0.749,0.223,1.498,0.445,2.244,0.671c0.402,0.122,0.802,0.245,1.203,0.367c2.903,0.886,5.79,1.793,8.655,2.724
	c0.268,0.087,0.537,0.172,0.804,0.259c0.746,0.244,1.487,0.492,2.23,0.738c0.45,0.149,0.901,0.298,1.35,0.448
	c0.696,0.233,1.389,0.471,2.083,0.707c0.49,0.168,0.98,0.334,1.469,0.502c0.674,0.232,1.345,0.469,2.017,0.704
	c0.504,0.177,1.009,0.353,1.512,0.531c0.656,0.232,1.308,0.468,1.96,0.702c0.516,0.187,1.033,0.372,1.547,0.56
	c0.638,0.233,1.273,0.468,1.908,0.703c0.524,0.194,1.047,0.39,1.569,0.585c0.627,0.235,1.252,0.474,1.876,0.711
	c0.521,0.198,1.042,0.398,1.561,0.6c0.621,0.239,1.241,0.481,1.859,0.725c0.517,0.202,1.033,0.406,1.547,0.611
	c0.614,0.245,1.227,0.49,1.838,0.738c0.514,0.208,1.026,0.417,1.538,0.627c0.604,0.247,1.208,0.497,1.808,0.747
	c0.513,0.214,1.022,0.429,1.532,0.645c0.596,0.252,1.191,0.505,1.784,0.759c0.506,0.218,1.008,0.438,1.512,0.657
	c0.59,0.257,1.181,0.515,1.767,0.774c0.5,0.222,0.994,0.445,1.49,0.669c0.583,0.263,1.167,0.523,1.745,0.789
	c0.491,0.225,0.976,0.452,1.462,0.679c0.579,0.27,1.16,0.537,1.734,0.809c0.474,0.225,0.942,0.452,1.413,0.679
	c0.58,0.278,1.162,0.555,1.736,0.835c0.42,0.206,0.835,0.416,1.253,0.623c0.6,0.297,1.203,0.592,1.797,0.893
	c17.865,9.028,32.452,19.98,42.742,33.408c15.041,19.625,20.906,44.539,14.421,76.469l-1.792,15.741L264.95,620h60.63
	c0.148-1.202,0.268-2.407,0.331-3.621c0.253-4.855-0.793-9.975-2.056-14.642c-0.57-2.102-1.289-4.251-2.146-6.387
	c1.879-10.365,1.461-21.448,0.415-30.972c-0.825-7.507-2.084-14.93-3.634-22.292c0.836-12.92-4.684-25.798-9.942-37.636
	c-1.185-3.863-2.448-7.723-3.799-11.557c-0.089-0.355-0.181-0.71-0.271-1.065c-0.753-2.979-1.531-5.949-2.383-8.9
	c-0.615-2.127-1.31-4.241-2.072-6.335c-2.715-3.128-5.525-6.095-8.375-8.901l-1.725,25.238l-0.827-0.124l-21.079-32.137
	c-8.61-9.394-17.222-18.786-25.833-28.177c11.759,4.909,23.517,9.82,35.274,14.732l3.861,0.921
	c-0.334-0.305-0.663-0.614-1.001-0.914c-0.925-1.107-1.87-2.2-2.846-3.272c-9.208-10.105-20.749-15.585-33.147-20.72
	c-0.333-0.138-0.67-0.265-1.004-0.401c-15.976-8.076-33.247-14.059-50.571-17.231c-10.635-1.947-22.112-3.103-33.284-2.306
	c-1.224-0.113-2.447-0.232-3.671-0.335c-15.641-1.314-31.237-3.444-46.868-4.965c-15.91-1.549-31.826-3.046-47.688-5.047
	c-14.678-1.85-29.482-3.686-44.278-4.181c-5.329-0.179-10.651-0.006-15.946,0.485v20.97
	C17.005,412.308,36.567,414.993,57.833,418.582z"/>
<path fill="#E0DFE6" d="M464.214,496.386c0.068-0.13,0.156-0.296,0.278-0.532c0.048-0.133,0.081-0.229,0.11-0.31
	c-0.101,0.202-0.186,0.377-0.257,0.522C464.305,496.166,464.261,496.272,464.214,496.386z"/>
<path fill="#E0DFE6" d="M726.269,378.368c1.949-0.097,3.903-0.194,5.844-0.285C730.171,378.174,728.219,378.271,726.269,378.368z"/>
<path fill="#E0DFE6" d="M630.271,384.981c1.901-0.178,3.804-0.354,5.705-0.525C634.074,384.627,632.172,384.803,630.271,384.981z"/>
<path fill="#E0DFE6" d="M737.82,377.819c1.981-0.09,3.966-0.183,5.936-0.269C741.785,377.637,739.802,377.729,737.82,377.819z"/>
<path fill="#E0DFE6" d="M509.026,402.062c1.796-0.357,3.599-0.704,5.4-1.054C512.625,401.357,510.822,401.704,509.026,402.062z"/>
<path fill="#E0DFE6" d="M690.843,380.327c1.915-0.119,3.833-0.239,5.742-0.354C694.674,380.088,692.759,380.208,690.843,380.327z"/>
<path fill="#E0DFE6" d="M520.911,399.769c1.819-0.339,3.645-0.665,5.47-0.994C524.556,399.104,522.731,399.43,520.911,399.769z"/>
<path fill="#E0DFE6" d="M666.802,381.95c1.893-0.139,3.785-0.277,5.675-0.41C670.587,381.673,668.695,381.812,666.802,381.95z"/>
<path fill="#E0DFE6" d="M714.572,378.965c1.932-0.104,3.866-0.207,5.789-0.305C718.438,378.758,716.504,378.861,714.572,378.965z"/>
<path fill="#E0DFE6" d="M654.655,382.876c1.9-0.15,3.799-0.301,5.695-0.446C658.454,382.575,656.556,382.726,654.655,382.876z"/>
<path fill="#E0DFE6" d="M749.087,377.321c2.077-0.09,4.159-0.18,6.223-0.266C753.246,377.142,751.164,377.231,749.087,377.321z"/>
<path fill="#E0DFE6" d="M532.884,397.619c1.836-0.318,3.677-0.626,5.518-0.934C536.561,396.993,534.721,397.301,532.884,397.619z"/>
<path fill="#E0DFE6" d="M678.867,381.102c1.901-0.127,3.805-0.256,5.701-0.38C682.671,380.846,680.77,380.975,678.867,381.102z"/>
<path fill="#E0DFE6" d="M618.053,386.171c1.896-0.192,3.793-0.382,5.688-0.566C621.846,385.789,619.95,385.979,618.053,386.171z"/>
<path fill="#E0DFE6" d="M456.039,414.584c-0.846,0.233-1.698,0.459-2.543,0.695c-0.037,0.013-0.074,0.026-0.11,0.039
	C454.269,415.069,455.155,414.828,456.039,414.584z"/>
<path fill="#E0DFE6" d="M462.518,412.812c1.659-0.44,3.332-0.862,5.001-1.291C465.85,411.949,464.177,412.371,462.518,412.812z"/>
<path fill="#E0DFE6" d="M593.582,388.857c1.891-0.224,3.779-0.443,5.67-0.66C597.361,388.414,595.473,388.634,593.582,388.857z"/>
<path fill="#E0DFE6" d="M557.034,393.733c1.862-0.277,3.727-0.548,5.592-0.816C560.761,393.186,558.896,393.456,557.034,393.733z"/>
<path fill="#E0DFE6" d="M544.928,395.61c1.85-0.298,3.702-0.586,5.556-0.874C548.63,395.024,546.777,395.313,544.928,395.61z"/>
<path fill="#E0DFE6" d="M569.18,391.988c1.875-0.26,3.753-0.513,5.632-0.764C572.933,391.476,571.056,391.729,569.18,391.988z"/>
<path fill="#E0DFE6" d="M581.366,390.364c1.886-0.241,3.774-0.478,5.662-0.712C585.14,389.887,583.252,390.123,581.366,390.364z"/>
<path fill="#E0DFE6" d="M497.231,404.508c1.769-0.38,3.545-0.745,5.319-1.114C500.776,403.763,499,404.128,497.231,404.508z"/>
<path fill="#E0DFE6" d="M605.82,387.461c1.89-0.208,3.781-0.412,5.672-0.611C609.602,387.049,607.711,387.253,605.82,387.461z"/>
<path fill="#E0DFE6" d="M485.541,407.111c1.737-0.4,3.485-0.785,5.231-1.175C489.026,406.326,487.279,406.711,485.541,407.111z"/>
<path fill="#E0DFE6" d="M761,376.826c-0.304,0.012-0.608,0.023-0.912,0.036C760.393,376.85,760.696,376.838,761,376.826L761,376.826
	z"/>
<path fill="#E0DFE6" d="M642.476,383.885c1.904-0.164,3.807-0.327,5.708-0.485C646.282,383.558,644.38,383.721,642.476,383.885z"/>
<path fill="#E0DFE6" d="M708.522,379.288c-0.101,0.006-0.201,0.011-0.302,0.017c-0.004,0-0.007,0.001-0.01,0.001
	C708.313,379.3,708.418,379.294,708.522,379.288z"/>
<path fill="#E0DFE6" d="M473.963,409.879c1.704-0.423,3.42-0.826,5.132-1.237C477.383,409.053,475.667,409.456,473.963,409.879z"/>
<path fill="#E0DFE6" d="M760.088,376.862c-1.593,0.064-3.178,0.127-4.778,0.193c-2.063,0.086-4.146,0.176-6.223,0.266
	c-1.775,0.076-3.546,0.15-5.331,0.229c-1.97,0.086-3.954,0.179-5.936,0.269c-1.9,0.087-3.798,0.173-5.708,0.264
	c-1.94,0.091-3.895,0.188-5.844,0.285c-1.968,0.096-3.932,0.191-5.907,0.292c-1.923,0.098-3.857,0.201-5.789,0.305
	c-2.015,0.106-4.027,0.213-6.05,0.323c-0.104,0.006-0.209,0.012-0.312,0.018c-2.67,0.416-5.338,0.839-8.003,1.273
	c-0.147-0.268-0.31-0.53-0.483-0.787c-1.048,0.062-2.091,0.119-3.14,0.182c-1.909,0.114-3.827,0.234-5.742,0.354
	c-2.089,0.13-4.179,0.259-6.274,0.395c-1.896,0.124-3.8,0.253-5.701,0.38c-2.129,0.144-4.258,0.288-6.391,0.438
	c-1.89,0.133-3.782,0.271-5.675,0.41c-2.148,0.157-4.298,0.315-6.451,0.479c-1.896,0.146-3.795,0.296-5.695,0.446
	c-2.155,0.172-4.313,0.345-6.472,0.523c-1.901,0.158-3.804,0.321-5.708,0.485c-2.165,0.187-4.332,0.376-6.5,0.571
	c-1.901,0.171-3.804,0.348-5.705,0.525c-2.176,0.203-4.353,0.41-6.53,0.623c-1.895,0.185-3.791,0.374-5.688,0.566
	c-2.187,0.222-4.373,0.447-6.561,0.679c-1.891,0.199-3.782,0.403-5.672,0.611c-2.19,0.24-4.379,0.486-6.568,0.736
	c-1.891,0.217-3.779,0.437-5.67,0.66c-2.186,0.259-4.37,0.525-6.554,0.795c-1.888,0.234-3.776,0.471-5.662,0.712
	c-2.188,0.28-4.371,0.568-6.555,0.86c-1.879,0.251-3.757,0.504-5.632,0.764c-2.188,0.303-4.371,0.614-6.554,0.929
	c-1.865,0.269-3.729,0.539-5.592,0.816c-2.187,0.327-4.369,0.663-6.551,1.003c-1.854,0.288-3.706,0.576-5.556,0.874
	c-2.179,0.35-4.353,0.712-6.526,1.075c-1.841,0.308-3.682,0.615-5.518,0.934c-2.172,0.376-4.338,0.766-6.503,1.155
	c-1.825,0.329-3.65,0.655-5.47,0.994c-2.167,0.403-4.326,0.822-6.484,1.239c-1.802,0.35-3.604,0.696-5.4,1.054
	c-2.165,0.434-4.32,0.884-6.476,1.332c-1.774,0.369-3.551,0.734-5.319,1.114c-2.161,0.466-4.31,0.947-6.459,1.429
	c-1.746,0.39-3.494,0.774-5.231,1.175c-2.158,0.498-4.301,1.016-6.446,1.53c-1.712,0.411-3.428,0.814-5.132,1.237
	c-2.158,0.533-4.3,1.089-6.444,1.642c-1.669,0.429-3.342,0.851-5.001,1.291c-2.172,0.576-4.323,1.177-6.479,1.772
	c-0.884,0.244-1.771,0.485-2.653,0.734c-9.575,3.293-19.379,6.484-27.954,11.126c-4.502,2.435-9.527,5.812-11.633,9.871
	c-3.256,6.285-2.086,13.644,5.339,17.673c13.137,7.131,28.978,4.999,43.033-0.021c5.288-1.889,10.423-4.046,15.578-6.149
	c0.631-0.257,1.266-0.51,1.899-0.761c-1.539,0.623,1.547-0.542,1.864-0.653c2.067-0.716,4.08-1.446,5.979-2.416
	c-0.35,0.178,3.699-1.623,2.804-1.317c10.591-4.001,22.438-5.655,33.707-7.895c12.582-2.501,24.939-5.699,37.45-8.415
	c12.552-2.725,24.166-3.97,37.074-5.6c53.704-6.776,105.727-20.255,159.728-24.546c0.94-0.074,1.856-0.217,2.745-0.411v-18.978
	C760.696,376.838,760.393,376.85,760.088,376.862z"/>
<path fill="#1F4D69" d="M748.747,412.979c-0.32,0.046-0.638,0.091-0.96,0.137c-1.196,0.171-2.406,0.349-3.617,0.525
	c-0.523,0.077-1.043,0.152-1.568,0.229c-1.132,0.169-2.273,0.342-3.416,0.515c-0.607,0.093-1.213,0.184-1.822,0.277
	c-1.101,0.168-2.209,0.343-3.319,0.517c-0.672,0.105-1.344,0.212-2.019,0.319c-1.071,0.172-2.15,0.347-3.23,0.522
	c-0.725,0.119-1.451,0.237-2.18,0.359c-1.06,0.176-2.124,0.355-3.192,0.537c-0.755,0.129-1.512,0.259-2.27,0.391
	c-1.055,0.183-2.114,0.369-3.176,0.557c-0.786,0.141-1.577,0.283-2.368,0.427c-1.05,0.189-2.101,0.381-3.157,0.578
	c-0.809,0.149-1.621,0.304-2.434,0.457c-1.053,0.199-2.106,0.399-3.166,0.605c-0.825,0.16-1.655,0.325-2.484,0.489
	c-1.053,0.208-2.105,0.417-3.165,0.632c-0.849,0.173-1.703,0.353-2.555,0.528c-1.051,0.218-2.101,0.435-3.156,0.659
	c-0.865,0.184-1.735,0.376-2.604,0.564c-1.053,0.229-2.104,0.455-3.161,0.69c-0.882,0.197-1.771,0.402-2.655,0.604
	c-1.052,0.239-2.101,0.474-3.157,0.722c-0.942,0.22-1.891,0.451-2.835,0.678c-1.896,0.453-3.799,0.918-5.706,1.396
	c-1.009,0.251-2.014,0.499-3.025,0.759c-0.964,0.246-1.934,0.506-2.9,0.759c-1.013,0.267-2.023,0.528-3.039,0.802
	c-0.969,0.26-1.941,0.531-2.913,0.799c-1.018,0.279-2.034,0.558-3.056,0.845c-0.972,0.274-1.947,0.558-2.922,0.839
	c-1.026,0.296-2.053,0.592-3.082,0.896c-0.973,0.287-1.947,0.583-2.921,0.877c-1.033,0.313-2.066,0.627-3.102,0.947
	c-0.977,0.302-1.955,0.611-2.933,0.921c-1.036,0.329-2.072,0.659-3.109,0.997c-0.979,0.317-1.958,0.64-2.937,0.966
	c-1.045,0.346-2.089,0.697-3.135,1.053c-0.975,0.331-1.949,0.667-2.924,1.006c-1.053,0.367-2.106,0.739-3.159,1.114
	c-0.97,0.347-1.94,0.695-2.911,1.049c-1.063,0.388-2.127,0.783-3.19,1.181c-0.963,0.36-1.926,0.72-2.889,1.088
	c-1.077,0.411-2.154,0.833-3.231,1.255c-0.949,0.372-1.898,0.742-2.848,1.121c-1.101,0.441-2.202,0.895-3.304,1.346
	c-0.925,0.38-1.852,0.756-2.777,1.144c-1.142,0.479-2.282,0.972-3.423,1.463c-0.885,0.38-1.77,0.754-2.654,1.142
	c-1.243,0.546-2.486,1.109-3.729,1.671c-0.78,0.352-1.56,0.693-2.338,1.052c-1.769,0.813-3.534,1.645-5.3,2.488
	c-0.244,0.117-0.491,0.229-0.735,0.346c-19.331,9.294-35.282,19.018-47.207,30.491c-21.326,20.518-29.774,46.63-21.634,85.888
	L526.599,620h23.161l-15.738-50.146C519.245,512.463,520.448,450.242,761,418.426v-7.132
	C757.004,411.827,752.919,412.386,748.747,412.979z"/>
<path fill="#1F4D69" d="M396.163,433.93c0.301,0.121,0.61,0.238,0.912,0.359c3.461-1.395,6.957-2.752,10.484-4.077
	c0.928-0.348,1.875-0.677,2.808-1.021c2.603-0.959,5.206-1.918,7.842-2.843c1.274-0.446,2.568-0.867,3.849-1.306
	c2.32-0.794,4.637-1.593,6.981-2.358c1.436-0.47,2.892-0.915,4.336-1.376c2.219-0.705,4.432-1.417,6.67-2.1
	c1.53-0.467,3.079-0.911,4.617-1.367c2.178-0.646,4.35-1.297,6.543-1.921c0.762-0.217,1.528-0.427,2.291-0.642
	c2.187-0.752,4.365-1.508,6.51-2.291c7.449-2.717,15.137-4.937,22.429-7.615c6.689-2.459,13.622-4.486,20.789-5.839
	c15.111-2.849,31.182-3.341,46.373-6.05c10.905-1.944,25.421-2.244,43.573-6.207c9.836-2.146,19.448-0.583,29.121-3.2
	c3.142-0.29,6.281-0.581,9.417-0.914c12.685-1.345,25.357-2.81,38.073-3.847c0.018,0.029,0.019,0.059,0.042,0.087
	c-0.006-0.03-0.012-0.06-0.019-0.09h0.003c0.058,0.384,0.389,0.595,0.756,0.422c0.2-0.08,0.394-0.172,0.581-0.275
	c8.689-0.918,17.415-1.317,26.144-1.682c0.204-0.008,0.337-0.119,0.413-0.26c0.786,0.688,1.467,1.449,2.021,2.27
	c1.012-0.06,2.018-0.114,3.026-0.172c1.825-0.104,3.652-0.211,5.473-0.312c16.196-2.52,32.474-4.637,48.881-5.941
	c1.339-0.105,2.644-0.033,3.898,0.168v-0.486c-108.486,4.302-277.706,17.696-364.839,52.796h0.002V433.93z"/>
<path fill="#1F4D69" d="M59.607,378.706c0.057,0.003,0.112,0.006,0.169,0.009c1.966,0.107,3.939,0.216,5.92,0.327
	c0.125,0.007,0.249,0.014,0.374,0.021c1.933,0.108,3.872,0.22,5.818,0.333c0.162,0.01,0.324,0.02,0.486,0.028
	c1.909,0.111,3.824,0.225,5.745,0.341c0.211,0.013,0.422,0.025,0.632,0.038c1.876,0.113,3.756,0.229,5.642,0.348
	c0.262,0.016,0.524,0.032,0.786,0.049c1.849,0.116,3.702,0.233,5.56,0.354c0.294,0.019,0.589,0.039,0.884,0.058
	c1.84,0.119,3.684,0.242,5.534,0.366c0.302,0.021,0.605,0.041,0.907,0.062c1.834,0.124,3.673,0.25,5.517,0.379
	c0.337,0.023,0.675,0.047,1.013,0.071c1.821,0.127,3.645,0.257,5.473,0.39c0.343,0.024,0.687,0.051,1.03,0.075
	c1.829,0.134,3.659,0.268,5.495,0.406c0.344,0.026,0.689,0.053,1.033,0.078c1.835,0.139,3.671,0.279,5.512,0.423
	c0.343,0.026,0.687,0.055,1.03,0.081c1.852,0.146,3.707,0.293,5.564,0.443c0.312,0.024,0.624,0.052,0.936,0.076
	c1.887,0.153,3.775,0.309,5.667,0.468c0.283,0.024,0.567,0.049,0.851,0.072c1.93,0.164,3.862,0.328,5.796,0.497
	c0.192,0.017,0.386,0.034,0.578,0.051c2.025,0.177,4.05,0.357,6.079,0.54c0.071,0.007,0.143,0.014,0.214,0.02
	c17.242,1.563,34.616,3.362,51.914,5.444c0.336,0.04,0.673,0.08,1.009,0.12c1.696,0.205,3.39,0.416,5.083,0.627
	c0.544,0.068,1.09,0.133,1.635,0.201c1.56,0.196,3.118,0.397,4.676,0.598c0.679,0.088,1.359,0.174,2.039,0.263
	c1.489,0.194,2.976,0.392,4.463,0.591c0.739,0.098,1.478,0.195,2.216,0.295c1.43,0.192,2.857,0.391,4.285,0.588
	c0.8,0.11,1.602,0.221,2.402,0.332c1.381,0.194,2.759,0.391,4.138,0.589c0.838,0.12,1.677,0.239,2.514,0.36
	c1.344,0.196,2.686,0.395,4.028,0.595c0.872,0.13,1.745,0.258,2.615,0.389c1.301,0.196,2.6,0.396,3.898,0.596
	c0.908,0.141,1.817,0.279,2.723,0.421c1.271,0.199,2.539,0.4,3.807,0.604c0.925,0.147,1.851,0.295,2.774,0.444
	c1.25,0.203,2.497,0.409,3.743,0.614c0.938,0.155,1.876,0.311,2.812,0.469c1.228,0.205,2.452,0.415,3.675,0.625
	c0.951,0.163,1.903,0.326,2.852,0.492c1.208,0.21,2.411,0.423,3.615,0.638c0.955,0.169,1.909,0.34,2.861,0.512
	c1.197,0.217,2.391,0.436,3.583,0.656c0.953,0.176,1.905,0.353,2.856,0.53c1.186,0.223,2.368,0.447,3.549,0.673
	c0.952,0.183,1.902,0.365,2.852,0.55c1.168,0.229,2.334,0.458,3.498,0.688c0.958,0.189,1.914,0.382,2.869,0.573
	c1.152,0.233,2.301,0.468,3.448,0.704c0.956,0.197,1.91,0.395,2.861,0.595c1.138,0.238,2.274,0.478,3.407,0.721
	c0.954,0.203,1.905,0.408,2.855,0.615c1.124,0.244,2.247,0.49,3.367,0.738c0.95,0.211,1.898,0.425,2.845,0.637
	c1.109,0.251,2.217,0.502,3.32,0.757c0.946,0.218,1.888,0.437,2.829,0.657c1.1,0.258,2.199,0.516,3.293,0.778
	c0.933,0.223,1.862,0.448,2.791,0.674c1.091,0.266,2.18,0.531,3.265,0.801c0.924,0.229,1.843,0.461,2.763,0.693
	c1.082,0.273,2.164,0.546,3.241,0.824c0.908,0.233,1.811,0.472,2.715,0.709c1.073,0.28,2.146,0.562,3.212,0.847
	c0.901,0.241,1.796,0.487,2.692,0.731c1.061,0.289,2.122,0.577,3.175,0.87c0.885,0.246,1.763,0.496,2.642,0.746
	c1.053,0.298,2.107,0.596,3.153,0.897c0.869,0.251,1.731,0.508,2.595,0.762c1.046,0.308,2.093,0.614,3.131,0.927
	c0.85,0.255,1.692,0.516,2.538,0.774c1.037,0.317,2.076,0.633,3.105,0.955c0.84,0.263,1.671,0.531,2.505,0.796
	c1.022,0.326,2.047,0.649,3.061,0.98c0.821,0.266,1.631,0.539,2.446,0.81c1.016,0.336,2.035,0.671,3.042,1.012
	c0.792,0.269,1.573,0.542,2.36,0.813c1.016,0.352,2.038,0.7,3.044,1.055c0.751,0.265,1.49,0.536,2.235,0.804
	c1.028,0.369,2.062,0.736,3.081,1.11c0.678,0.249,1.344,0.506,2.019,0.757c1.072,0.401,2.149,0.8,3.21,1.206
	c0.337,0.129,0.667,0.263,1.003,0.393c1.365,0.528,2.73,1.057,4.076,1.595v-8.088C307.117,389.971,109.345,375.858,0,371.813v4.146
	C18.699,376.694,38.721,377.575,59.607,378.706z"/>
<path fill="#1F4D69" d="M391.082,431.941c0.337,0.13,0.667,0.263,1.003,0.393C391.749,432.204,391.419,432.07,391.082,431.941z"/>
<path fill="#1F4D69" d="M543.682,487.31c11.925-11.474,27.876-21.197,47.207-30.491c0.244-0.117,0.491-0.229,0.735-0.346
	c-0.244,0.117-0.49,0.228-0.734,0.345C571.558,466.111,555.606,475.836,543.682,487.31z"/>
<path fill="#1F4D69" d="M259.814,398.779c0.938,0.155,1.876,0.311,2.812,0.469C261.69,399.09,260.752,398.935,259.814,398.779z"/>
<path fill="#1F4D69" d="M410.367,429.191c2.603-0.959,5.206-1.918,7.842-2.843C415.573,427.273,412.97,428.232,410.367,429.191z"/>
<path fill="#1F4D69" d="M742.602,413.871c-1.132,0.169-2.272,0.342-3.416,0.515C740.328,414.213,741.47,414.04,742.602,413.871z"/>
<path fill="#1F4D69" d="M380.537,428.064c0.751,0.265,1.49,0.536,2.235,0.804C382.027,428.601,381.288,428.329,380.537,428.064z"/>
<path fill="#1F4D69" d="M298.283,405.89c0.956,0.197,1.91,0.395,2.861,0.595C300.192,406.284,299.238,406.087,298.283,405.89z"/>
<path fill="#1F4D69" d="M291.966,404.612c0.958,0.189,1.914,0.382,2.869,0.573C293.88,404.994,292.924,404.802,291.966,404.612z"/>
<path fill="#1F4D69" d="M385.854,429.979c0.678,0.249,1.344,0.506,2.019,0.757C387.197,430.484,386.531,430.228,385.854,429.979z"/>
<path fill="#1F4D69" d="M375.133,426.196c0.792,0.269,1.573,0.542,2.36,0.813C376.706,426.738,375.924,426.465,375.133,426.196z"/>
<path fill="#1F4D69" d="M323.061,411.388c0.933,0.223,1.862,0.448,2.791,0.674C324.923,411.836,323.994,411.61,323.061,411.388z"/>
<path fill="#1F4D69" d="M272.768,401.003c0.955,0.169,1.909,0.34,2.861,0.512C274.676,401.343,273.722,401.172,272.768,401.003z"/>
<path fill="#1F4D69" d="M329.117,412.862c0.924,0.229,1.843,0.461,2.763,0.693C330.96,413.323,330.041,413.091,329.117,412.862z"/>
<path fill="#1F4D69" d="M310.773,408.559c0.95,0.211,1.898,0.425,2.845,0.637C312.671,408.983,311.724,408.77,310.773,408.559z"/>
<path fill="#1F4D69" d="M285.617,403.374c0.952,0.183,1.903,0.365,2.852,0.55C287.52,403.739,286.569,403.557,285.617,403.374z"/>
<path fill="#1F4D69" d="M341.047,415.936c0.901,0.241,1.796,0.487,2.692,0.731C342.844,416.423,341.948,416.177,341.047,415.936z"/>
<path fill="#1F4D69" d="M335.121,414.38c0.908,0.233,1.811,0.472,2.715,0.709C336.931,414.852,336.029,414.613,335.121,414.38z"/>
<path fill="#1F4D69" d="M422.058,425.043c2.32-0.794,4.637-1.593,6.981-2.358C426.694,423.45,424.378,424.249,422.058,425.043z"/>
<path fill="#1F4D69" d="M737.363,414.663c-1.102,0.168-2.209,0.343-3.319,0.517C735.154,415.006,736.263,414.831,737.363,414.663z"
	/>
<path fill="#1F4D69" d="M316.938,409.952c0.946,0.218,1.888,0.437,2.829,0.657C318.826,410.389,317.884,410.17,316.938,409.952z"/>
<path fill="#1F4D69" d="M732.025,415.499c-1.072,0.172-2.15,0.346-3.23,0.522C729.875,415.846,730.954,415.671,732.025,415.499z"/>
<path fill="#1F4D69" d="M748.747,412.979c4.172-0.594,8.257-1.152,12.253-1.686v-0.001
	C757.005,411.825,752.917,412.386,748.747,412.979z"/>
<path fill="#1F4D69" d="M279.212,402.171c0.953,0.176,1.905,0.353,2.856,0.53C281.117,402.523,280.165,402.347,279.212,402.171z"/>
<path fill="#1F4D69" d="M304.551,407.205c0.954,0.203,1.905,0.408,2.855,0.615C306.456,407.613,305.505,407.408,304.551,407.205z"/>
<path fill="#1F4D69" d="M358.436,420.869c0.85,0.255,1.692,0.516,2.538,0.774C360.128,421.385,359.286,421.124,358.436,420.869z"/>
<path fill="#1F4D69" d="M721.153,417.309c-1.056,0.183-2.113,0.369-3.176,0.557C719.039,417.678,720.099,417.491,721.153,417.309z"
	/>
<path fill="#1F4D69" d="M369.645,424.375c0.821,0.266,1.631,0.539,2.446,0.81C371.276,424.914,370.465,424.641,369.645,424.375z"/>
<path fill="#1F4D69" d="M266.301,399.873c0.951,0.163,1.903,0.326,2.852,0.492C268.204,400.199,267.252,400.036,266.301,399.873z"/>
<path fill="#1F4D69" d="M364.079,422.599c0.84,0.263,1.671,0.531,2.505,0.796C365.75,423.13,364.919,422.861,364.079,422.599z"/>
<path fill="#1F4D69" d="M747.787,413.116c-1.197,0.171-2.406,0.349-3.617,0.525C745.381,413.465,746.591,413.287,747.787,413.116z"
	/>
<path fill="#1F4D69" d="M726.615,416.381c-1.061,0.176-2.124,0.355-3.192,0.537C724.491,416.736,725.556,416.557,726.615,416.381z"
	/>
<path fill="#1F4D69" d="M346.915,417.537c0.885,0.246,1.763,0.496,2.642,0.746C348.678,418.033,347.8,417.783,346.915,417.537z"/>
<path fill="#1F4D69" d="M352.71,419.181c0.869,0.251,1.731,0.508,2.595,0.762C354.441,419.688,353.579,419.432,352.71,419.181z"/>
<path fill="#1F4D69" d="M103.581,381.418c0.337,0.023,0.675,0.047,1.013,0.071C104.256,381.465,103.917,381.441,103.581,381.418z"/>
<path fill="#1F4D69" d="M715.609,418.292c-1.05,0.189-2.101,0.381-3.157,0.578C713.509,418.673,714.56,418.481,715.609,418.292z"/>
<path fill="#1F4D69" d="M78.12,379.765c0.211,0.013,0.422,0.025,0.632,0.038C78.542,379.79,78.331,379.777,78.12,379.765z"/>
<path fill="#1F4D69" d="M672.349,427.655c-0.964,0.246-1.934,0.506-2.9,0.759C670.415,428.161,671.385,427.901,672.349,427.655z"/>
<path fill="#1F4D69" d="M59.607,378.706c0.057,0.003,0.112,0.006,0.169,0.009C59.72,378.712,59.664,378.709,59.607,378.706z"/>
<path fill="#1F4D69" d="M84.394,380.15c0.262,0.016,0.524,0.032,0.786,0.049C84.918,380.183,84.656,380.166,84.394,380.15z"/>
<path fill="#1F4D69" d="M65.697,379.042c0.125,0.007,0.25,0.014,0.374,0.021C65.946,379.056,65.821,379.049,65.697,379.042z"/>
<path fill="#1F4D69" d="M407.56,430.212c-3.527,1.325-7.023,2.683-10.484,4.077l0,0C400.537,432.895,404.032,431.537,407.56,430.212
	z"/>
<path fill="#1F4D69" d="M666.409,429.216c-0.969,0.26-1.941,0.531-2.913,0.799C664.468,429.747,665.44,429.476,666.409,429.216z"/>
<path fill="#1F4D69" d="M681.08,425.5c-1.897,0.453-3.799,0.918-5.706,1.396C677.281,426.418,679.184,425.953,681.08,425.5z"/>
<path fill="#1F4D69" d="M253.297,397.721c0.925,0.147,1.852,0.295,2.774,0.444C255.148,398.016,254.223,397.868,253.297,397.721z"/>
<path fill="#1F4D69" d="M97.157,380.978c0.302,0.021,0.605,0.041,0.907,0.062C97.762,381.019,97.459,380.998,97.157,380.978z"/>
<path fill="#1F4D69" d="M90.739,380.554c0.294,0.019,0.589,0.039,0.884,0.058C91.329,380.593,91.034,380.572,90.739,380.554z"/>
<path fill="#1F4D69" d="M617.996,445.047c-0.949,0.372-1.898,0.742-2.848,1.121C616.098,445.789,617.047,445.419,617.996,445.047z"
	/>
<path fill="#1F4D69" d="M636.301,438.354c-0.975,0.332-1.949,0.667-2.924,1.006C634.352,439.021,635.326,438.686,636.301,438.354z"
	/>
<path fill="#1F4D69" d="M642.372,436.336c-0.979,0.317-1.958,0.64-2.937,0.966C640.414,436.976,641.394,436.653,642.372,436.336z"/>
<path fill="#1F4D69" d="M654.437,432.594c-0.973,0.287-1.946,0.583-2.921,0.877C652.489,433.177,653.464,432.881,654.437,432.594z"
	/>
<path fill="#1F4D69" d="M599.262,452.933c-0.78,0.352-1.56,0.693-2.338,1.052C597.702,453.626,598.481,453.284,599.262,452.933z"/>
<path fill="#1F4D69" d="M630.218,440.475c-0.97,0.347-1.94,0.695-2.911,1.049C628.277,441.17,629.248,440.821,630.218,440.475z"/>
<path fill="#1F4D69" d="M648.414,434.418c-0.977,0.302-1.955,0.611-2.933,0.921C646.459,435.029,647.438,434.72,648.414,434.418z"/>
<path fill="#1F4D69" d="M624.116,442.704c-0.963,0.36-1.926,0.72-2.889,1.088C622.19,443.424,623.153,443.064,624.116,442.704z"/>
<path fill="#1F4D69" d="M611.845,447.514c-0.925,0.38-1.852,0.756-2.777,1.144C609.993,448.27,610.92,447.894,611.845,447.514z"/>
<path fill="#1F4D69" d="M605.645,450.12c-0.885,0.38-1.77,0.754-2.654,1.142C603.875,450.874,604.76,450.5,605.645,450.12z"/>
<path fill="#1F4D69" d="M702.748,379.616c-1.009,0.058-2.015,0.112-3.026,0.172c0.001,0.001,0.002,0.003,0.003,0.004
	C700.733,379.732,701.741,379.674,702.748,379.616z"/>
<path fill="#1F4D69" d="M660.44,430.859c-0.972,0.274-1.947,0.558-2.922,0.839C658.493,431.417,659.469,431.134,660.44,430.859z"/>
<path fill="#1F4D69" d="M71.888,379.396c0.162,0.01,0.324,0.02,0.486,0.028C72.212,379.415,72.05,379.405,71.888,379.396z"/>
<path fill="#1F4D69" d="M227.172,393.836c0.8,0.11,1.602,0.221,2.402,0.332C228.774,394.057,227.972,393.946,227.172,393.836z"/>
<path fill="#1F4D69" d="M233.712,394.757c0.838,0.12,1.677,0.239,2.514,0.36C235.389,394.996,234.55,394.877,233.712,394.757z"/>
<path fill="#1F4D69" d="M698.648,421.582c-1.052,0.218-2.101,0.435-3.156,0.659C696.548,422.017,697.598,421.8,698.648,421.582z"/>
<path fill="#1F4D69" d="M110.066,381.879c0.343,0.024,0.687,0.051,1.03,0.075C110.753,381.93,110.409,381.903,110.066,381.879z"/>
<path fill="#1F4D69" d="M704.368,420.422c-1.053,0.209-2.105,0.417-3.165,0.632C702.263,420.839,703.315,420.63,704.368,420.422z"/>
<path fill="#1F4D69" d="M710.019,419.327c-1.053,0.199-2.105,0.399-3.166,0.605C707.912,419.727,708.966,419.526,710.019,419.327z"
	/>
<path fill="#1F4D69" d="M444.662,417.842c2.178-0.646,4.35-1.297,6.543-1.921C449.012,416.545,446.84,417.196,444.662,417.842z"/>
<path fill="#1F4D69" d="M433.375,421.309c2.219-0.705,4.432-1.417,6.67-2.1C437.807,419.892,435.594,420.604,433.375,421.309z"/>
<path fill="#1F4D69" d="M214.169,392.1c0.679,0.088,1.359,0.174,2.039,0.263C215.528,392.273,214.848,392.188,214.169,392.1z"/>
<path fill="#1F4D69" d="M246.767,396.696c0.908,0.141,1.817,0.279,2.723,0.421C248.584,396.976,247.675,396.837,246.767,396.696z"/>
<path fill="#1F4D69" d="M240.253,395.712c0.872,0.13,1.745,0.257,2.615,0.389C241.998,395.97,241.125,395.842,240.253,395.712z"/>
<path fill="#1F4D69" d="M220.671,392.953c0.739,0.098,1.478,0.195,2.216,0.295C222.148,393.148,221.41,393.051,220.671,392.953z"/>
<path fill="#1F4D69" d="M123.136,382.861c0.343,0.026,0.687,0.055,1.03,0.081C123.822,382.916,123.479,382.888,123.136,382.861z"/>
<path fill="#1F4D69" d="M129.73,383.386c0.312,0.024,0.624,0.051,0.936,0.076C130.354,383.438,130.042,383.41,129.73,383.386z"/>
<path fill="#1F4D69" d="M136.333,383.93c0.283,0.024,0.567,0.049,0.851,0.072C136.9,383.979,136.617,383.954,136.333,383.93z"/>
<path fill="#1F4D69" d="M687.072,424.101c-1.052,0.239-2.101,0.474-3.157,0.722C684.972,424.574,686.021,424.34,687.072,424.101z"/>
<path fill="#1F4D69" d="M142.98,384.499c0.192,0.017,0.386,0.034,0.578,0.051C143.366,384.533,143.173,384.516,142.98,384.499z"/>
<path fill="#1F4D69" d="M116.59,382.36c0.344,0.026,0.689,0.053,1.033,0.078C117.279,382.413,116.934,382.387,116.59,382.36z"/>
<path fill="#1F4D69" d="M201.766,390.554c0.336,0.04,0.673,0.08,1.009,0.12C202.438,390.634,202.102,390.594,201.766,390.554z"/>
<path fill="#1F4D69" d="M207.858,391.301c0.544,0.068,1.09,0.133,1.635,0.201C208.948,391.434,208.402,391.369,207.858,391.301z"/>
<path fill="#1F4D69" d="M149.638,385.09c0.071,0.007,0.143,0.014,0.214,0.02C149.78,385.104,149.709,385.097,149.638,385.09z"/>
<path fill="#1F4D69" d="M692.889,422.806c-1.053,0.229-2.104,0.455-3.161,0.69C690.785,423.261,691.836,423.035,692.889,422.806z"/>
<path fill="#1F4D69" d="M251.97,508.039c0.028,0.081,0.062,0.177,0.11,0.311c0.122,0.235,0.209,0.401,0.277,0.531
	c-0.046-0.113-0.09-0.22-0.131-0.318C252.155,508.417,252.07,508.241,251.97,508.039z"/>
<path fill="#1F4D69" d="M85.291,423.583c-0.861-0.168-1.719-0.335-2.577-0.502C83.572,423.248,84.431,423.415,85.291,423.583z"/>
<path fill="#1F4D69" d="M166.445,444.311c-0.743-0.246-1.484-0.494-2.23-0.738C164.961,443.816,165.703,444.064,166.445,444.311z"/>
<path fill="#1F4D69" d="M149.9,439.133c-0.73-0.216-1.461-0.427-2.193-0.639C148.439,438.706,149.17,438.917,149.9,439.133z"/>
<path fill="#1F4D69" d="M173.364,446.672c-0.672-0.235-1.343-0.472-2.017-0.704C172.021,446.2,172.692,446.437,173.364,446.672z"/>
<path fill="#1F4D69" d="M169.878,445.466c-0.694-0.236-1.387-0.474-2.083-0.707C168.491,444.992,169.185,445.229,169.878,445.466z"
	/>
<path fill="#1F4D69" d="M163.411,443.313c-2.866-0.931-5.752-1.838-8.655-2.724C157.659,441.476,160.545,442.383,163.411,443.313z"
	/>
<path fill="#1F4D69" d="M138.888,436.009c-0.726-0.197-1.452-0.395-2.179-0.591C137.436,435.614,138.162,435.812,138.888,436.009z"
	/>
<path fill="#1F4D69" d="M146.241,438.068c-0.722-0.207-1.445-0.412-2.168-0.616C144.796,437.656,145.519,437.861,146.241,438.068z"
	/>
<path fill="#1F4D69" d="M135.195,435.013c-0.728-0.194-1.457-0.387-2.186-0.579C133.738,434.626,134.467,434.818,135.195,435.013z"
	/>
<path fill="#1F4D69" d="M142.561,437.025c-0.722-0.202-1.443-0.402-2.166-0.602C141.118,436.623,141.839,436.823,142.561,437.025z"
	/>
<path fill="#1F4D69" d="M197.202,455.915c-0.592-0.254-1.188-0.507-1.784-0.759C196.014,455.408,196.61,455.661,197.202,455.915z"/>
<path fill="#1F4D69" d="M190.541,453.138c-0.611-0.248-1.224-0.493-1.838-0.738C189.317,452.645,189.93,452.89,190.541,453.138z"/>
<path fill="#1F4D69" d="M193.887,454.512c-0.6-0.25-1.203-0.5-1.808-0.747C192.684,454.012,193.287,454.262,193.887,454.512z"/>
<path fill="#1F4D69" d="M131.505,434.041c-0.734-0.191-1.467-0.381-2.201-0.569C130.038,433.66,130.771,433.85,131.505,434.041z"/>
<path fill="#1F4D69" d="M200.48,457.347c-0.586-0.26-1.177-0.518-1.767-0.774C199.304,456.829,199.895,457.087,200.48,457.347z"/>
<path fill="#1F4D69" d="M183.736,450.464c-0.624-0.237-1.249-0.476-1.876-0.711C182.487,449.988,183.112,450.227,183.736,450.464z"
	/>
<path fill="#1F4D69" d="M180.291,449.168c-0.635-0.235-1.27-0.47-1.908-0.703C179.021,448.698,179.656,448.933,180.291,449.168z"/>
<path fill="#1F4D69" d="M176.836,447.905c-0.653-0.234-1.305-0.47-1.96-0.702C175.531,447.436,176.183,447.671,176.836,447.905z"/>
<path fill="#1F4D69" d="M187.156,451.788c-0.618-0.243-1.238-0.485-1.859-0.725C185.918,451.303,186.538,451.545,187.156,451.788z"
	/>
<path fill="#1F4D69" d="M120.474,431.269c-0.778-0.188-1.555-0.377-2.333-0.563C118.918,430.892,119.696,431.08,120.474,431.269z"/>
<path fill="#1F4D69" d="M71.044,420.894c-0.872-0.157-1.74-0.314-2.607-0.469C69.303,420.579,70.173,420.736,71.044,420.894z"/>
<path fill="#1F4D69" d="M74.576,421.541c-0.867-0.161-1.732-0.32-2.595-0.478C72.844,421.221,73.709,421.38,74.576,421.541z"/>
<path fill="#1F4D69" d="M67.595,420.273c-0.903-0.16-1.804-0.319-2.702-0.477C65.791,419.954,66.692,420.113,67.595,420.273z"/>
<path fill="#1F4D69" d="M78.118,422.202c-0.865-0.163-1.729-0.325-2.59-0.485C76.389,421.877,77.252,422.039,78.118,422.202z"/>
<path fill="#1F4D69" d="M255.854,496.729c-10.291-13.428-24.877-24.38-42.742-33.408c-0.594-0.301-1.198-0.596-1.797-0.893
	c-0.418-0.207-0.833-0.417-1.253-0.623c-0.574-0.28-1.156-0.557-1.736-0.835c-0.471-0.227-0.939-0.454-1.413-0.679
	c-0.575-0.271-1.156-0.539-1.734-0.809c-0.487-0.227-0.972-0.454-1.462-0.679c-0.578-0.266-1.162-0.526-1.745-0.789
	c-0.496-0.224-0.991-0.447-1.49-0.669c-0.586-0.26-1.177-0.518-1.767-0.774c-0.503-0.22-1.006-0.439-1.512-0.657
	c-0.592-0.254-1.188-0.507-1.784-0.759c-0.51-0.216-1.019-0.431-1.532-0.645c-0.6-0.25-1.203-0.5-1.808-0.747
	c-0.512-0.21-1.024-0.419-1.538-0.627c-0.611-0.248-1.224-0.493-1.838-0.738c-0.514-0.204-1.03-0.409-1.547-0.611
	c-0.618-0.243-1.238-0.485-1.859-0.725c-0.519-0.201-1.04-0.401-1.561-0.6c-0.624-0.237-1.249-0.476-1.876-0.711
	c-0.521-0.195-1.045-0.39-1.569-0.585c-0.635-0.235-1.27-0.47-1.908-0.703c-0.514-0.188-1.031-0.373-1.547-0.56
	c-0.653-0.234-1.305-0.47-1.96-0.702c-0.502-0.179-1.008-0.354-1.512-0.531c-0.672-0.235-1.343-0.472-2.017-0.704
	c-0.488-0.168-0.979-0.334-1.469-0.502c-0.694-0.236-1.387-0.474-2.083-0.707c-0.449-0.15-0.9-0.299-1.35-0.448
	c-0.743-0.246-1.484-0.494-2.23-0.738c-0.267-0.087-0.536-0.172-0.804-0.259c-2.866-0.931-5.752-1.838-8.655-2.724
	c-0.401-0.122-0.801-0.245-1.203-0.367c-0.747-0.226-1.496-0.448-2.244-0.671c-0.47-0.14-0.938-0.28-1.409-0.419
	c-0.73-0.216-1.461-0.427-2.193-0.639c-0.489-0.143-0.978-0.285-1.467-0.426c-0.722-0.207-1.445-0.412-2.168-0.616
	c-0.504-0.143-1.008-0.286-1.512-0.427c-0.722-0.202-1.443-0.402-2.166-0.602c-0.502-0.139-1.005-0.277-1.507-0.415
	c-0.726-0.197-1.452-0.395-2.179-0.591c-0.505-0.136-1.009-0.271-1.514-0.405c-0.728-0.194-1.457-0.387-2.186-0.579
	c-0.501-0.132-1.003-0.262-1.504-0.393c-0.733-0.191-1.467-0.381-2.201-0.569c-0.495-0.128-0.99-0.253-1.485-0.379
	c-0.747-0.19-1.493-0.379-2.24-0.566c-0.479-0.119-0.957-0.238-1.436-0.356c-0.76-0.189-1.519-0.377-2.278-0.563
	c-0.464-0.113-0.927-0.226-1.391-0.338c-0.778-0.188-1.555-0.377-2.333-0.563c-0.431-0.103-0.862-0.205-1.293-0.307
	c-0.81-0.192-1.619-0.384-2.429-0.573c-0.384-0.09-0.767-0.178-1.151-0.268c-0.852-0.197-1.705-0.395-2.556-0.59
	c-0.288-0.064-0.576-0.129-0.864-0.194c-4.543-1.033-9.077-2.021-13.586-2.966c-0.008-0.001-0.015-0.003-0.022-0.005
	c-1.011-0.211-2.019-0.42-3.026-0.627c-0.212-0.043-0.424-0.088-0.636-0.131c-0.928-0.19-1.853-0.378-2.778-0.564
	c-0.292-0.06-0.583-0.118-0.875-0.177c-0.888-0.179-1.773-0.354-2.658-0.528c-0.325-0.064-0.65-0.129-0.975-0.193
	c-0.86-0.168-1.719-0.335-2.577-0.502c-0.344-0.066-0.689-0.134-1.033-0.199c-0.86-0.166-1.718-0.33-2.575-0.492
	c-0.33-0.063-0.659-0.126-0.988-0.188c-0.865-0.163-1.729-0.325-2.59-0.485c-0.318-0.059-0.635-0.118-0.952-0.176
	c-0.867-0.161-1.732-0.32-2.595-0.478c-0.312-0.057-0.625-0.112-0.937-0.17c-0.871-0.157-1.741-0.314-2.607-0.469
	c-0.281-0.051-0.562-0.101-0.842-0.151c-0.903-0.16-1.804-0.319-2.702-0.477c-0.222-0.039-0.442-0.077-0.663-0.115
	c-0.947-0.166-1.893-0.33-2.834-0.492c-0.156-0.026-0.312-0.054-0.468-0.08c-1.007-0.174-2.011-0.345-3.01-0.513
	c-0.028-0.005-0.056-0.01-0.084-0.015c-21.267-3.589-40.829-6.273-56.82-8.352v-0.001c-0.342-0.044-0.675-0.087-1.013-0.131v5.193
	v1.212c248.091,31.551,273.217,95.405,258.299,153.351L240.881,620h19.23h4.838l3.534-31.061l1.792-15.742
	C276.759,541.269,270.894,516.354,255.854,496.729z M252.081,508.35c-0.048-0.134-0.082-0.229-0.11-0.311
	c0.1,0.202,0.185,0.378,0.256,0.523c0.042,0.099,0.085,0.205,0.131,0.318C252.29,508.751,252.202,508.585,252.081,508.35z"/>
<path fill="#1F4D69" d="M1.013,410.23c15.992,2.078,35.553,4.763,56.82,8.352C36.567,414.993,17.005,412.308,1.013,410.23
	L1.013,410.23z"/>
<path fill="#1F4D69" d="M64.23,419.682c-0.947-0.166-1.892-0.33-2.834-0.492C62.338,419.352,63.283,419.516,64.23,419.682z"/>
<path fill="#1F4D69" d="M81.681,422.882c-0.86-0.166-1.718-0.33-2.575-0.492C79.963,422.552,80.821,422.716,81.681,422.882z"/>
<path fill="#1F4D69" d="M127.819,433.093c-0.747-0.19-1.493-0.379-2.24-0.566C126.326,432.714,127.072,432.902,127.819,433.093z"/>
<path fill="#1F4D69" d="M60.928,419.109c-1.007-0.174-2.011-0.345-3.01-0.513C58.917,418.765,59.921,418.936,60.928,419.109z"/>
<path fill="#1F4D69" d="M116.847,430.399c-0.81-0.192-1.619-0.384-2.429-0.573C115.228,430.016,116.038,430.207,116.847,430.399z"/>
<path fill="#1F4D69" d="M113.267,429.559c-0.852-0.197-1.705-0.395-2.556-0.59C111.563,429.164,112.415,429.361,113.267,429.559z"/>
<path fill="#1F4D69" d="M203.715,458.805c-0.578-0.266-1.162-0.526-1.745-0.789C202.553,458.278,203.137,458.539,203.715,458.805z"
	/>
<path fill="#1F4D69" d="M124.143,432.17c-0.76-0.189-1.519-0.377-2.278-0.563C122.624,431.793,123.383,431.98,124.143,432.17z"/>
<path fill="#1F4D69" d="M109.847,428.774c-4.543-1.033-9.077-2.021-13.586-2.966C100.77,426.753,105.304,427.741,109.847,428.774z"
	/>
<path fill="#1F4D69" d="M88.923,424.305c-0.888-0.179-1.773-0.354-2.658-0.528C87.15,423.951,88.036,424.126,88.923,424.305z"/>
<path fill="#1F4D69" d="M92.577,425.046c-0.928-0.19-1.853-0.378-2.778-0.564C90.724,424.668,91.649,424.855,92.577,425.046z"/>
<path fill="#1F4D69" d="M96.239,425.804c-1.011-0.211-2.019-0.42-3.026-0.627C94.22,425.384,95.229,425.593,96.239,425.804z"/>
<path fill="#1F4D69" d="M153.553,440.223c-0.747-0.226-1.496-0.448-2.244-0.671C152.058,439.774,152.807,439.997,153.553,440.223z"
	/>
<path fill="#1F4D69" d="M206.912,460.292c-0.575-0.271-1.156-0.539-1.734-0.809C205.756,459.753,206.337,460.021,206.912,460.292z"
	/>
<polygon fill="#1F4D69" points="264.949,620 264.95,620 268.483,588.939 "/>
<path fill="#1F4D69" d="M210.061,461.806c-0.574-0.28-1.156-0.557-1.736-0.835C208.905,461.249,209.487,461.525,210.061,461.806z"/>
<path fill="#1F4D69" d="M714.572,378.965c1.932-0.104,3.865-0.207,5.789-0.305c1.977-0.101,3.939-0.196,5.907-0.292
	c1.95-0.097,3.902-0.194,5.844-0.285c1.911-0.091,3.808-0.177,5.708-0.264c1.981-0.091,3.965-0.183,5.936-0.269
	c1.785-0.079,3.555-0.153,5.331-0.229c2.077-0.09,4.159-0.18,6.223-0.266c1.602-0.066,3.185-0.129,4.778-0.193
	c0.304-0.013,0.608-0.024,0.912-0.036v-3.295c-1.255-0.201-2.56-0.273-3.898-0.168c-16.407,1.305-32.685,3.422-48.881,5.941
	c0.101-0.006,0.201-0.011,0.302-0.017C710.545,379.178,712.558,379.071,714.572,378.965z"/>
<path fill="#1F4D69" d="M462.518,412.812c1.659-0.44,3.332-0.862,5.001-1.291c2.145-0.553,4.286-1.108,6.444-1.642
	c1.704-0.423,3.42-0.826,5.132-1.237c2.146-0.515,4.288-1.032,6.446-1.53c1.738-0.4,3.485-0.785,5.231-1.175
	c2.149-0.481,4.298-0.963,6.459-1.429c1.769-0.38,3.545-0.745,5.319-1.114c2.156-0.448,4.311-0.898,6.476-1.332
	c1.796-0.357,3.599-0.704,5.4-1.054c2.159-0.417,4.317-0.836,6.484-1.239c1.82-0.339,3.645-0.665,5.47-0.994
	c2.165-0.391,4.331-0.779,6.503-1.155c1.837-0.318,3.677-0.626,5.518-0.934c2.174-0.363,4.348-0.726,6.526-1.075
	c1.85-0.298,3.702-0.586,5.556-0.874c2.183-0.34,4.364-0.676,6.551-1.003c1.862-0.277,3.727-0.548,5.592-0.816
	c2.183-0.314,4.365-0.626,6.554-0.929c1.876-0.26,3.753-0.513,5.632-0.764c2.184-0.292,4.367-0.58,6.555-0.86
	c1.886-0.241,3.773-0.478,5.662-0.712c2.184-0.27,4.368-0.536,6.554-0.795c1.891-0.224,3.779-0.443,5.67-0.66
	c2.189-0.25,4.378-0.496,6.568-0.736c1.891-0.208,3.781-0.412,5.672-0.611c2.188-0.23,4.374-0.457,6.561-0.679
	c1.897-0.192,3.793-0.382,5.688-0.566c2.178-0.213,4.354-0.42,6.53-0.623c1.901-0.179,3.804-0.354,5.705-0.525
	c2.168-0.195,4.334-0.385,6.5-0.571c1.904-0.164,3.807-0.327,5.708-0.485c2.16-0.179,4.315-0.352,6.472-0.523
	c1.9-0.15,3.799-0.301,5.695-0.446c2.154-0.164,4.303-0.322,6.451-0.479c1.894-0.139,3.785-0.277,5.675-0.41
	c2.133-0.15,4.262-0.295,6.391-0.438c1.902-0.127,3.804-0.256,5.701-0.38c2.097-0.136,4.185-0.265,6.274-0.395
	c1.916-0.119,3.831-0.239,5.742-0.354c1.047-0.063,2.092-0.124,3.137-0.186c-0.554-0.82-1.234-1.582-2.021-2.27
	c-0.076,0.141-0.209,0.252-0.413,0.26c-8.729,0.364-17.454,0.764-26.144,1.682c-0.188,0.104-0.381,0.195-0.581,0.275
	c-0.367,0.173-0.698-0.038-0.756-0.422h-0.003c0.007,0.03,0.013,0.06,0.019,0.09c-0.023-0.028-0.024-0.058-0.042-0.087
	c-12.716,1.037-25.389,2.502-38.073,3.847c-3.136,0.333-6.275,0.624-9.417,0.914c-9.673,2.617-19.285,1.055-29.121,3.2
	c-18.152,3.963-32.668,4.263-43.573,6.207c-15.191,2.709-31.262,3.201-46.373,6.05c-7.167,1.353-14.1,3.38-20.789,5.839
	c-7.292,2.679-14.979,4.898-22.429,7.615c-2.145,0.783-4.323,1.539-6.51,2.291c0.845-0.236,1.697-0.462,2.543-0.695
	C458.194,413.988,460.346,413.388,462.518,412.812z"/>
<path fill="#1F4D69" d="M574.812,391.225c2.184-0.292,4.367-0.58,6.555-0.86C579.179,390.645,576.995,390.933,574.812,391.225z"/>
<path fill="#1F4D69" d="M562.626,392.917c2.183-0.314,4.366-0.626,6.554-0.929C566.991,392.291,564.809,392.603,562.626,392.917z"/>
<path fill="#1F4D69" d="M611.492,386.85c2.188-0.231,4.374-0.457,6.561-0.679C615.866,386.393,613.681,386.619,611.492,386.85z"/>
<path fill="#1F4D69" d="M599.252,388.197c2.189-0.25,4.378-0.496,6.568-0.736C603.63,387.701,601.441,387.947,599.252,388.197z"/>
<path fill="#1F4D69" d="M648.184,383.399c2.159-0.179,4.316-0.352,6.472-0.523C652.499,383.048,650.344,383.221,648.184,383.399z"/>
<path fill="#1F4D69" d="M660.351,382.43c2.153-0.164,4.303-0.322,6.451-0.479C664.653,382.107,662.505,382.266,660.351,382.43z"/>
<path fill="#1F4D69" d="M623.74,385.604c2.178-0.213,4.354-0.42,6.53-0.623C628.095,385.185,625.918,385.392,623.74,385.604z"/>
<path fill="#1F4D69" d="M635.976,384.456c2.168-0.195,4.335-0.385,6.5-0.571C640.31,384.071,638.144,384.261,635.976,384.456z"/>
<path fill="#1F4D69" d="M502.551,403.394c2.155-0.448,4.311-0.898,6.476-1.332C506.861,402.495,504.707,402.945,502.551,403.394z"/>
<path fill="#1F4D69" d="M490.772,405.937c2.149-0.481,4.298-0.963,6.459-1.429C495.07,404.974,492.922,405.455,490.772,405.937z"/>
<path fill="#1F4D69" d="M479.095,408.642c2.146-0.515,4.288-1.032,6.446-1.53C483.383,407.609,481.24,408.127,479.095,408.642z"/>
<path fill="#1F4D69" d="M550.483,394.736c2.182-0.34,4.364-0.676,6.551-1.003C554.848,394.061,552.666,394.396,550.483,394.736z"/>
<path fill="#1F4D69" d="M467.519,411.521c2.145-0.553,4.286-1.108,6.444-1.642C471.805,410.412,469.663,410.968,467.519,411.521z"/>
<path fill="#1F4D69" d="M514.427,401.008c2.158-0.417,4.317-0.836,6.484-1.239C518.744,400.172,516.586,400.591,514.427,401.008z"/>
<path fill="#1F4D69" d="M538.401,396.686c2.174-0.363,4.348-0.726,6.526-1.075C542.749,395.96,540.575,396.322,538.401,396.686z"/>
<path fill="#1F4D69" d="M526.381,398.774c2.165-0.39,4.331-0.779,6.503-1.155C530.712,397.995,528.546,398.384,526.381,398.774z"/>
<path fill="#1F4D69" d="M587.028,389.652c2.184-0.27,4.368-0.536,6.554-0.795C591.396,389.116,589.212,389.383,587.028,389.652z"/>
<path fill="#1F4D69" d="M456.039,414.584c2.155-0.596,4.307-1.196,6.479-1.772C460.346,413.388,458.194,413.988,456.039,414.584z"/>
<path fill="#1F4D69" d="M755.31,377.056c1.601-0.066,3.186-0.129,4.778-0.193C758.494,376.927,756.911,376.989,755.31,377.056z"/>
<path fill="#1F4D69" d="M743.756,377.551c1.785-0.079,3.556-0.153,5.331-0.229C747.311,377.397,745.541,377.472,743.756,377.551z"/>
<path fill="#1F4D69" d="M699.725,379.792c-0.001-0.001-0.002-0.003-0.003-0.004c-1.045,0.062-2.09,0.123-3.137,0.186
	C697.634,379.911,698.677,379.854,699.725,379.792z"/>
<path fill="#1F4D69" d="M672.477,381.54c2.133-0.15,4.262-0.295,6.391-0.438C676.738,381.245,674.609,381.39,672.477,381.54z"/>
<path fill="#1F4D69" d="M732.112,378.083c1.91-0.091,3.808-0.177,5.708-0.264C735.92,377.906,734.023,377.992,732.112,378.083z"/>
<path fill="#1F4D69" d="M684.568,380.722c2.096-0.136,4.186-0.265,6.274-0.395C688.753,380.457,686.665,380.586,684.568,380.722z"/>
<path fill="#1F4D69" d="M708.522,379.288c2.022-0.11,4.035-0.217,6.05-0.323C712.558,379.071,710.545,379.178,708.522,379.288z"/>
<path fill="#1F4D69" d="M720.361,378.66c1.976-0.101,3.939-0.196,5.907-0.292C724.301,378.464,722.338,378.56,720.361,378.66z"/>
<g>
	<path fill="#1F4D69" d="M287.425,457.576c2.82,2.085,5.272,4.208,7.742,6.458c2.443,2.241,4.79,4.57,7.043,6.982
		c4.503,4.825,8.638,9.978,12.285,15.445c3.646,5.466,6.8,11.251,9.281,17.295c2.481,6.041,4.275,12.344,5.224,18.743
		c-1.522-6.288-3.856-12.329-6.812-18.008c-2.957-5.681-6.523-11.007-10.516-15.961c-3.994-4.955-8.415-9.543-13.136-13.765
		c-2.362-2.11-4.8-4.128-7.306-6.04c-2.487-1.893-5.123-3.768-7.655-5.303L287.425,457.576z"/>
</g>
<g>
	<path fill="#1F4D69" d="M517.364,463.462c-2.613,1.515-5.331,3.361-7.903,5.229c-2.591,1.888-5.117,3.882-7.567,5.97
		c-4.899,4.178-9.503,8.733-13.681,13.67c-4.174,4.938-7.922,10.265-11.035,15.979c-3.113,5.71-5.581,11.813-7.178,18.19
		c1.024-6.493,2.957-12.872,5.604-18.958c2.647-6.09,5.997-11.889,9.837-17.348c3.844-5.46,8.175-10.586,12.869-15.37
		c2.349-2.392,4.789-4.699,7.322-6.915c2.561-2.224,5.102-4.321,8.003-6.371L517.364,463.462z"/>
</g>
</svg>
