<?xml version="1.0" encoding="utf-8"?>
<!-- Generator: Adobe Illustrator 19.0.0, SVG Export Plug-In . SVG Version: 6.00 Build 0)  -->
<svg version="1.1" id="Capa_1" xmlns="http://www.w3.org/2000/svg" xmlns:xlink="http://www.w3.org/1999/xlink" x="0px" y="0px"
	 viewBox="-421 211.8 115.6 138.2" style="enable-background:new -421 211.8 115.6 138.2;" xml:space="preserve">
<style type="text/css">
	.st0{fill:#FA8510;}
	.st1{fill:none;stroke:#1F4D69;stroke-width:6;stroke-linecap:round;stroke-miterlimit:10;}
</style>
<path id="XMLID_861_" class="st0" d="M-380.1,288.6c15.7-6.1,31.6-14.5,45.2-24.7c0.4,0.1,0.8,0.2,1.2,0.2
	c16.1,2.6,17.6-19.8,1.5-22.2c-15.4-2.3-24.8-8.8-39.4-14c-5.3-1.9-13-3.4-15.6-0.3c-1.5-3.3-6.6-2.2-7.8,1
	c-5.4,14.4,4.3,32.1,1.7,46.6C-394.7,282.6-388.6,291.9-380.1,288.6z"/>
<path id="XMLID_858_" class="st1" d="M-383.8,339.5l-5.1-47.8c0,0-9.2-67.2-7.3-68.5c10.5-6.9,81.4,24.3,81.4,29.8
	c0,4.7-58.1,31.2-70.8,40"/>
</svg>
