<?xml version="1.0" encoding="utf-8"?>
<!-- Generator: Adobe Illustrator 15.1.0, SVG Export Plug-In . SVG Version: 6.00 Build 0)  -->
<!DOCTYPE svg PUBLIC "-//W3C//DTD SVG 1.1//EN" "http://www.w3.org/Graphics/SVG/1.1/DTD/svg11.dtd">
<svg version="1.1" id="Capa_1" xmlns="http://www.w3.org/2000/svg" xmlns:xlink="http://www.w3.org/1999/xlink" x="0px" y="0px"
	 width="79.976px" height="108.272px" viewBox="487.709 848.178 79.976 108.272"
	 enable-background="new 487.709 848.178 79.976 108.272" xml:space="preserve">
<path fill="#FA8510" d="M505.929,910.868c13.983-5.388,28.038-12.845,40.158-21.923c0.358,0.061,0.716,0.145,1.074,0.202
	c14.318,2.269,20.377-19.729,6.03-21.855c-13.646-2.026-26.748-5.685-39.736-10.271c-4.707-1.666-8.353-0.288-10.645,2.414
	c-1.312-2.932-5.908-1.955-6.969,0.881c-4.791,12.808,0.608,25.858-1.731,38.735C492.946,905.478,498.442,913.756,505.929,910.868
	 M507.531,878.49c3.111,1.308,6.248,2.495,9.4,3.618c-3.674,2.004-7.354,3.998-10.928,6.165c-1.371-3.674-1.85-7.852-2.035-12.098
	C504.961,877.092,506.124,877.896,507.531,878.49"/>
<path fill="none" stroke="#1F4D69" stroke-width="7.4456" stroke-miterlimit="10" d="M502.642,956.058l-4.507-42.455
	c0,0-8.185-59.695-6.465-60.822c9.357-6.13,72.292,21.623,72.292,26.466c0,4.196-51.637,27.756-62.935,35.505"/>
</svg>
