<?xml version="1.0" encoding="utf-8"?>
<!-- Generator: Adobe Illustrator 19.0.0, SVG Export Plug-In . SVG Version: 6.00 Build 0)  -->
<svg version="1.1" id="Capa_1" xmlns="http://www.w3.org/2000/svg" xmlns:xlink="http://www.w3.org/1999/xlink" x="0px" y="0px"
	 viewBox="32 232.3 1024 97.7" style="enable-background:new 32 232.3 1024 97.7;" xml:space="preserve">
<style type="text/css">
	.st0{fill:#FFFFFF;}
	.st1{fill:#0D004C;}
	.st2{fill:#04A7DB;}
	.st3{fill:none;stroke:#374D99;stroke-miterlimit:10;}
	.st4{fill:#00478C;}
</style>
<rect id="XMLID_7_" x="-0.4" y="222.1" class="st0" width="1060.4" height="94.8"/>
<rect id="XMLID_1043_" x="29.9" y="307" class="st1" width="1027.8" height="24"/>
<polygon id="XMLID_1042_" class="st2" points="1060,232.3 1060,300.3 381,300.3 349.7,232.3 "/>
<g id="XMLID_964_">
	<line id="XMLID_1041_" class="st3" x1="96.3" y1="243.6" x2="96.3" y2="291.4"/>
	<path id="XMLID_1038_" class="st4" d="M141.6,243.9h2.3v2h-2.3V243.9z M141.6,246.7h2.3v8.3h-2.3V246.7z"/>
	<path id="XMLID_1037_" class="st4" d="M147.3,246.7v1l0,0c0.2-0.6,0.9-1.3,1.6-1.3c1.1,0,2.1,0.6,2.1,1.7v6.8h-2.3V249
		c0-0.4-0.2-0.7-0.6-0.7c-0.4,0-0.6,0.3-0.6,0.7v5.9h-2.3v-8.3L147.3,246.7L147.3,246.7z"/>
	<path id="XMLID_1034_" class="st4" d="M152.2,243.9h2.3v2h-2.3V243.9z M152.2,246.7h2.3v8.3h-2.3V246.7z"/>
	<path id="XMLID_1033_" class="st4" d="M159.5,249.7L159.5,249.7c0-0.4,0-0.7-0.1-1s-0.3-0.5-0.6-0.5c-0.6,0-0.7,0.5-0.7,1v3.4
		c0,0.5,0.1,1,0.8,1c0.9,0,0.7-1.3,0.7-1.9h2.3c0,0.5-0.1,1.5-0.2,2c-0.3,1-1.2,1.5-2.2,1.6c-0.2,0-0.4,0-0.8,0
		c-1.7,0-2.9-0.7-2.9-2.6v-3.4c0-2.1,1.1-2.8,2.9-2.8c2.3,0,3.2,1,3.1,3.3L159.5,249.7L159.5,249.7z"/>
	<path id="XMLID_1030_" class="st4" d="M162.8,243.9h2.3v2h-2.3V243.9z M162.8,246.7h2.3v8.3h-2.3V246.7z"/>
	<path id="XMLID_1027_" class="st4" d="M170.1,254.2c-0.6,0.6-1.1,1-2,1c-1.3,0-2.2-0.9-2.2-2.2c0-1.9,1-2.5,2.1-2.8
		c1-0.3,2-0.4,2-1.3c0-0.5-0.3-0.9-0.7-0.9c-0.9,0-0.9,0.6-0.9,1.3h-2.3c-0.1-2.1,1.3-2.8,3.2-2.8c2.3,0,3.2,0.7,3.2,2.5v5.1
		c0,0.3,0.1,0.6,0.2,0.9h-2.3L170.1,254.2z M170.1,250.9c-0.5,0.3-0.9,0.4-1.2,0.6c-0.3,0.2-0.5,0.5-0.5,1.1c0,0.5,0.3,0.9,0.9,0.9
		c0.7,0,0.8-0.7,0.9-1.3L170.1,250.9L170.1,250.9z"/>
	<path id="XMLID_1026_" class="st4" d="M172.7,248.4v-1.7h0.9v-2.4h2.3v2.4h1.1v1.7h-1v4.4c0,0.5,0.2,0.6,0.5,0.6s0.4,0,0.6,0v1.7
		c-0.5,0.1-1,0.1-1.5,0.1c-1.3,0-2-0.6-2-1.9v-4.8L172.7,248.4L172.7,248.4z"/>
	<path id="XMLID_1023_" class="st4" d="M177.9,243.9h2.3v2h-2.3V243.9z M177.9,246.7h2.3v8.3h-2.3V246.7z"/>
	<polygon id="XMLID_1022_" class="st4" points="184,252 184,252 184.8,246.7 187.1,246.7 185.3,254.9 182.6,254.9 180.8,246.7 
		183.2,246.7 	"/>
	<path id="XMLID_1019_" class="st4" d="M191.3,254.2c-0.6,0.6-1.1,1-2,1c-1.3,0-2.2-0.9-2.2-2.2c0-1.9,1-2.5,2.1-2.8
		c1-0.3,2-0.4,2-1.3c0-0.5-0.3-0.9-0.7-0.9c-0.9,0-0.9,0.6-0.9,1.3h-2.3c-0.1-2.1,1.3-2.8,3.2-2.8c2.3,0,3.2,0.7,3.2,2.5v5.1
		c0,0.3,0.1,0.6,0.2,0.9h-2.3L191.3,254.2z M191.2,250.9c-0.5,0.3-0.9,0.4-1.2,0.6c-0.3,0.2-0.5,0.5-0.5,1.1c0,0.5,0.3,0.9,0.9,0.9
		c0.7,0,0.8-0.7,0.9-1.3L191.2,250.9L191.2,250.9z"/>
	<path id="XMLID_1016_" class="st4" d="M199.8,246.7v1l0,0c0.5-0.8,1.1-1.2,1.9-1.2c1.6,0,2,1.5,2,2.8v2.9c0,1.4-0.3,3-2.1,3.1
		c-0.4,0-1.2-0.2-1.7-1l0,0v3.6h-2.3v-11.2H199.8z M201.4,249.7c0-0.5,0-1.4-0.7-1.4c-0.6,0-0.8,0.7-0.8,1.5v1.9
		c0,0.7,0.1,1.5,0.7,1.5c0.8,0,0.7-0.9,0.7-1.4v-2.1H201.4z"/>
	<path id="XMLID_1013_" class="st4" d="M204.5,249.3c0-2.1,1.3-2.8,3.1-2.8c2.1,0,3.1,1,3.1,2.8v3.4c-0.1,1.9-1.3,2.6-3.1,2.6
		c-1.7,0-3.1-0.7-3.1-2.6V249.3z M206.9,252.8c0,0.5,0.2,0.7,0.7,0.7s0.7-0.3,0.7-0.7v-3.7c0-0.5-0.2-1-0.7-1s-0.7,0.4-0.7,1V252.8z
		"/>
	<path id="XMLID_1012_" class="st4" d="M213.7,246.7v1.3l0,0c0.3-0.9,0.8-1.5,1.8-1.5v2.7c-0.2,0-0.5-0.1-0.7-0.1
		c-0.7,0-0.9,0.1-1,0.8v5.1h-2.3v-8.3H213.7z"/>
	<rect id="XMLID_1011_" x="219.5" y="243.9" class="st4" width="2.3" height="11.1"/>
	<path id="XMLID_1008_" class="st4" d="M222.9,249.3c0-2.1,1.3-2.8,3.1-2.8c2.1,0,3.1,1,3.1,2.8v3.4c-0.1,1.9-1.3,2.6-3.1,2.6
		c-1.7,0-3.1-0.7-3.1-2.6V249.3z M225.2,252.8c0,0.5,0.2,0.7,0.7,0.7s0.7-0.3,0.7-0.7v-3.7c0-0.5-0.2-1-0.7-1s-0.7,0.4-0.7,1V252.8z
		"/>
	<path id="XMLID_1007_" class="st4" d="M233.2,249.1c-0.1-0.6,0-1.1-0.8-1.1c-0.5,0-0.8,0.2-0.8,0.7c0,0.4,0.4,0.7,0.7,0.8
		c1.5,0.7,3.2,1.1,3.2,3.1c0,1.8-1.4,2.6-3.1,2.6c-1.9,0-3.2-0.8-3.1-2.8h2.2c0,0.6,0.1,1.2,0.8,1.2c0.5,0,0.8-0.3,0.8-0.8
		c0-0.3-0.1-0.5-0.3-0.6c-0.9-0.5-2.3-0.9-3-1.7c-0.4-0.5-0.6-0.9-0.6-1.6c0-1.8,1.4-2.6,3.1-2.6c1.7,0,3.1,0.9,3,2.7h-2.1
		L233.2,249.1L233.2,249.1z"/>
	<path id="XMLID_1006_" class="st2" d="M109.6,280.6v3.8c0,1.1,0.5,1.6,1.4,1.5c1,0,1.4-0.2,1.4-1.1v-24.3h7.1v21
		c0,2.1,0.1,4.5-0.9,6.5c-1.5,2.8-4.1,3.4-7.2,3.4c-3.4,0-6.3-1.6-7.1-5c-0.4-1.4-0.3-2.7-0.3-4.1v-1.7
		C104,280.6,109.6,280.6,109.6,280.6z"/>
	<path id="XMLID_1002_" class="st2" d="M141,281c0,6.8-2.4,10.3-9.5,10.3c-7.1,0-9.6-3.5-9.6-10.3v-12.2c0-5.8,3.5-9,9.6-9
		c6.2,0,9.5,3.2,9.5,9V281z M139.7,251.6l-6.9,5.9h-5.5l4-5.9H139.7z M134,269.3c0-1.8-0.2-4.1-2.5-4.1c-2.2,0-2.5,2.2-2.5,4.1v12.4
		c0,1.7,0.3,4.3,2.6,4.3s2.4-2.6,2.4-4.3V269.3z"/>
	<polygon id="XMLID_1001_" class="st2" points="148.4,290.6 141.8,260.5 148.9,260.5 152.5,281.6 152.6,281.6 156.2,260.5 
		163.3,260.5 156.7,290.6 	"/>
	<polygon id="XMLID_1000_" class="st2" points="164.4,290.6 164.4,260.5 180.6,260.5 180.6,266.5 171.4,266.5 171.4,272.1 
		180.3,272.1 180.3,278.1 171.4,278.1 171.4,284.6 181,284.6 181,290.6 	"/>
	<polygon id="XMLID_999_" class="st2" points="189.3,273.8 189.2,273.9 189.8,290.6 183.1,290.6 183.1,260.5 190.4,260.5 
		195.9,277.3 196,277.3 195.3,260.5 202,260.5 202,290.6 194.8,290.6 	"/>
	<polygon id="XMLID_998_" class="st2" points="204.4,290.6 204.4,260.5 220.6,260.5 220.6,266.5 211.4,266.5 211.4,272.1 
		220.3,272.1 220.3,278.1 211.4,278.1 211.4,284.6 221,284.6 221,290.6 	"/>
	<path id="XMLID_997_" class="st2" d="M228.6,280.6v2.1c0,1.7,0.6,3.3,2.8,3.3c1.6,0,2.4-1.5,2.4-3c0-2.5-2.1-3.5-3.9-4.6
		c-2.2-1.2-4-2.4-5.3-3.9s-2-3.4-2-6c0-5.7,3.4-8.6,8.9-8.6c6.1,0,9.3,4.1,9,9.8H234c-0.1-1.8,0-4.2-2.3-4.3c-1.4-0.1-2.3,0.7-2.5,2
		c-0.2,1.8,0.7,2.7,2.1,3.7c2.7,1.7,4.9,2.7,6.6,4.3c1.6,1.5,2.6,3.5,2.6,7.2c0,5.8-3.2,9-9.1,9c-6.5,0-9.2-3.6-9.2-7.6v-3.2h6.4
		V280.6z"/>
	<path id="XMLID_965_" class="st4" d="M50.6,279.8c-0.1,0.1-0.2,0.3-0.2,0.5v7.2l0,0c0,0-4-7.1-4.1-7.4c-0.1-0.2-0.3-0.4-0.5-0.5
		s-0.4-0.2-0.8-0.2h-1.3c-0.3,0-0.5,0.1-0.6,0.3c-0.1,0.1-0.2,0.3-0.2,0.5v10.2c0,0.3,0.1,0.4,0.2,0.5c0.1,0.2,0.3,0.3,0.6,0.3h0.7
		c0.3,0,0.5-0.1,0.6-0.3c0.1-0.1,0.2-0.3,0.2-0.5V283l0,0c0,0,4.1,7.3,4.3,7.5c0.2,0.4,0.6,0.7,1.2,0.7H52c0.3,0,0.5-0.1,0.6-0.3
		c0.1-0.1,0.2-0.3,0.2-0.5v-9.1h16.6c0.2,0,0.3,0,0.4-0.1s0.2-0.2,0.2-0.4v-0.7c0-0.2,0-0.3-0.2-0.4c-0.1-0.1-0.2-0.1-0.4-0.1H51.2
		C50.9,279.5,50.7,279.6,50.6,279.8 M79.9,255.7c-3-4.4-5.6-5.9-6.3-6.6c-0.8-0.8-1.4-1.6-1.8-2.1c-0.9-0.9-2-2.1-3.8-2.1
		s-3,1.2-3.3,2.2c-0.1,0.3-0.2,0.6-0.3,0.8c-0.2,0.3-1,1.6-1.3,2.2h1.5l-0.8,1.2c0.8-0.2,1.4-0.3,2.2-0.3c0.7,0,1.2,0.2,1.4,0.6
		c0.4,0.8,0.4,3.3,1.1,5.2c0.7,1.8,2.2,3.5,4,4.8c0,0,0,0,0.1,0s0.1-0.1,0.1-0.1s0-0.1-0.1-0.1c-1.5-1.5-2.7-3.2-3.4-5
		c-0.6-1.8-0.5-4.3-1.1-5.4c-0.4-0.7-1.2-0.9-1.9-0.9c-0.6,0-1.1,0.1-1.4,0.2l0.6-1.1h-1.1c0.2-0.4,0.5-0.8,0.6-1s0.1-0.4,0.3-0.8
		c0.4-1,1.3-1.7,2.5-1.7c1.5,0,2.4,1,3.2,1.9c0.4,0.4,1.1,1.4,1.8,2.1c0.5,0.5,1.5,1,3,2.6c0.9,0.9,1.9,2.1,3,3.7
		c3.8,5.6,6.4,10.6,7.8,14.5l0,0c-4-2.7-7.5-5.3-10.3-8.5c-2-2.3-3.7-4.9-5.2-8.2c-0.1-0.2-0.2-0.4-0.3-0.6c0-0.1-0.1-0.1-0.1-0.1
		c-0.1,0-0.1,0.1-0.1,0.1c0,0.1,0,0.3,0.1,0.7c0.8,3.5,3,6.6,5.4,9.2s5.1,4.8,7.3,6.4l1.7,4.9c0,0.1,0.1,0.2,0.1,0.4
		c0,0.1,0,0.2-0.1,0.2c0,0-0.1,0.1-0.3,0.1h-0.5c-0.2,0-0.3,0-0.4-0.1s-0.1-0.2-0.2-0.3c-0.2-0.5-1.1-3-1.2-3.6
		c0-0.1-0.1-0.1-0.2-0.1s-0.1,0.1-0.1,0.1c0,0.1,0,0.1,0.1,0.4c0.2,1.2,0.5,2.5,0.6,3c0,0.2,0.1,0.4,0.1,0.6c0,0.1,0,0.2-0.2,0.3
		l-0.5,0.5c-0.1,0.1-0.2,0.2-0.3,0.2s-0.2-0.1-0.3-0.3c-0.6-2.8-1.5-6.3-1.8-7.3c-0.1-0.2-0.1-0.3-0.2-0.3s-0.2,0.1-0.2,0.2
		s0,0.2,0,0.2c0.1,1,0.7,4.7,1.4,8c0.1,0.6,0.3,0.9,0.8,0.9c0.2,0,0.4-0.1,0.6-0.3c0.3-0.3,0.4-0.4,0.8-0.8c0.3-0.3,0.5-0.4,0.9-0.4
		h1.2c0.3,0,0.4-0.1,0.6-0.2c0.1-0.1,0.2-0.3,0.2-0.5s-0.1-0.4-0.2-0.7c-0.3-0.8-1.3-3.6-1.6-4.3l0,0c1,0.8,2.4,1.7,3.1,1.7
		c0.2,0,0.3-0.1,0.3-0.4C87.9,270,85.5,264,79.9,255.7 M57.8,282.5c-2.8,0-4.3,2.2-4.3,4.4c0,2.4,1.7,4.6,4.3,4.6
		c1.3,0,2.6-0.5,3.4-1.4c0.3-0.4,0.6-0.9,0.6-1.2c0-0.1,0-0.2-0.1-0.3c-0.1-0.1-0.2-0.1-0.3-0.1h-1.3c-0.3,0-0.4,0.1-0.6,0.3
		c-0.4,0.5-0.9,0.8-1.7,0.8c-1.2,0-2-0.9-2-1.9h5.5c0.2,0,0.4-0.1,0.5-0.2s0.2-0.3,0.2-0.7c0-1-0.3-2.1-1-3
		C60.4,283.1,59.3,282.5,57.8,282.5 M66.4,282.5c-2.2,0-3.6,1-3.6,2.7c0,0.6,0.2,1.1,0.6,1.4c0.4,0.4,1,0.7,1.8,1l1.8,0.5
		c0.5,0.1,0.9,0.3,0.9,0.7c0,0.7-0.7,0.9-1.5,0.9c-0.4,0-0.8-0.1-1.1-0.2c-0.2-0.1-0.4-0.3-0.5-0.5s-0.2-0.3-0.3-0.4
		c-0.1-0.1-0.2-0.1-0.4-0.1h-1c-0.2,0-0.3,0.1-0.4,0.2s-0.1,0.2-0.1,0.3c0,0.3,0.1,0.7,0.4,1.1c0.6,0.8,1.9,1.5,3.5,1.5
		c1.6,0,3.8-0.7,3.8-2.8c0-0.5-0.2-1-0.5-1.4c-0.4-0.5-0.9-0.8-1.8-1.1l-1.8-0.5c-0.7-0.2-1.1-0.3-1.1-0.8c0-0.4,0.4-0.8,1.3-0.8
		c0.5,0,1,0.1,1.4,0.5c0.3,0.3,0.2,0.4,0.4,0.5c0.1,0.1,0.3,0.1,0.5,0.1h0.9c0.1,0,0.2,0,0.3-0.1s0.1-0.2,0.1-0.4
		c0-0.4-0.3-0.9-0.7-1.4C68.6,282.9,67.6,282.5,66.4,282.5 M52.6,246.4c0.2-0.4,0.5-0.6,1-0.6c0.6,0,1.1,0.5,1.1,1.1
		c0,0.4-0.2,0.7-0.4,0.9c0.1,0.2,0.1,0.4,0.1,0.6c0,0.7-0.4,1.1-1.1,1.4c-0.1,0.4-0.3,0.8-0.6,1c-0.5,0.5-1,0.5-1,0.7
		c0,0.1,0.1,0.2,0.3,0.2c0.9,0,1.8-0.5,1.9-1.3c0.8-0.3,1.4-1.1,1.4-1.8c0-0.2,0-0.3-0.1-0.5c0.2-0.2,0.5-0.6,0.5-1.2
		c0-0.5-0.2-1-0.6-1.4c-0.3-0.3-0.8-0.5-1.4-0.5c-0.8,0-1.3,0.4-1.6,0.9c-0.9,0-2,1-2,2.3H50c-0.1-0.5-0.6-0.8-1-0.8
		c-0.3-1-1.1-1.9-2.3-1.9c-0.1,0-0.3,0-0.5,0c-0.4-0.3-0.8-0.5-1.3-0.5c-1.1,0-2,0.9-2,2c0,0.7,0.3,1.2,0.9,1.6v0.1
		c0,0.9,1,2.2,2.4,2.2c0,0.2,0.3,0.5,0.6,0.6v0.1h-0.1c-2,0-2.8,0.9-2.8,1.6c-0.6,0.2-1,0.9-1,1.5c0,1.2,0.9,2,2,2
		c0.4,0,0.8-0.2,1-0.4c0.2,0.1,0.5,0.1,0.7,0.1c0.5,0,1.2-0.2,1.6-0.8c0.1,0,0.1,0,0.2,0c0.7,0,1.3-0.5,1.6-1.1
		c0.1-0.2,0.1-0.3,0.1-0.4c0-0.1,0-0.2-0.1-0.2s-0.1,0.1-0.3,0.3c-0.4,0.4-1.1,0.6-1.8,0.6c-0.3,0.5-0.8,0.8-1.3,0.8
		c-0.4,0-0.6-0.1-0.9-0.3c-0.2,0.3-0.5,0.4-0.8,0.4c-0.6,0-1.1-0.4-1.1-1.1c0-0.4,0.3-0.8,0.7-1c0.1-0.8,0.9-1.3,2-1.3
		c0.1,0,0.3,0,0.4,0c0.2-0.3,0.5-0.5,1.1-0.6c0.1,0,0.2,0,0.3-0.1c0.1,0,0.1-0.1,0.1-0.2s0-0.1-0.1-0.2c-0.1,0-0.2,0-0.3-0.1
		c-0.5-0.1-1.1-0.4-1.4-1.2c-1.2,0-2.1-1-2.1-2v-0.1c-0.4-0.2-0.7-0.5-0.7-1c0-0.6,0.5-1.1,1.1-1.1c0.4,0,0.7,0.2,0.9,0.4
		c0.2,0,0.4-0.1,0.5-0.1c0.9,0,1.8,0.6,2,1.7c1.1,0.1,1.4,1.1,1.5,1.5c0,0.2,0.1,0.4,0.2,0.4s0.2-0.2,0.2-0.4c0.1-0.4,0.2-0.7,0.5-1
		C50.7,247.3,51.5,246.4,52.6,246.4 M71.3,282.8h-0.4c-0.2,0-0.3,0-0.4,0.1s-0.2,0.2-0.2,0.4v0.5c0,0.2,0,0.3,0.2,0.4
		c0.1,0.1,0.2,0.1,0.4,0.1h0.4v4c0,1,0.3,1.7,0.8,2.2s1.1,0.8,2.2,0.8H75c0.2,0,0.3,0,0.4-0.1s0.2-0.2,0.2-0.4v-0.7
		c0-0.2-0.1-0.3-0.2-0.4s-0.2-0.1-0.4-0.1h-0.1c-0.4,0-0.7-0.1-0.9-0.3c-0.2-0.2-0.4-0.6-0.4-1v-3.8H75c0.2,0,0.3,0,0.4-0.1
		s0.2-0.2,0.2-0.4v-0.5c0-0.2,0-0.3-0.2-0.4c-0.1-0.1-0.2-0.1-0.4-0.1h-1.4v-2.7c0-0.2-0.1-0.4-0.2-0.5s-0.3-0.2-0.5-0.2H72
		c-0.2,0-0.4,0.1-0.5,0.2s-0.2,0.3-0.2,0.5V282.8z M76.2,290.7c0,0.2,0.1,0.4,0.2,0.5s0.3,0.2,0.5,0.2h0.9c0.2,0,0.4-0.1,0.5-0.2
		s0.2-0.3,0.2-0.5v-10.4c0-0.2-0.1-0.4-0.2-0.5s-0.3-0.2-0.5-0.2h-0.9c-0.2,0-0.4,0.1-0.5,0.2s-0.2,0.3-0.2,0.5V290.7z M54.9,252.7
		c-0.4,0.5-0.6,0.8-1.5,1.8c-1.1,1.3-1.7,2.4-2.7,4.8c0.2,0,0.4,0,0.6,0c0.1,0,0.2,0,0.4,0l0.1-0.3c0.5-1.2,1.3-2.8,2.3-4l0.4-0.4
		c1.1-1.2,1.7-2,2.1-3.7c0.1-0.6,0.3-1.1,0.7-1.5s0.8-0.5,1.3-0.5c0.4,0,0.7,0.1,1.1,0.3c0.4,0.2,0.5,0.2,0.9,0.2c0.1,0,0.2,0,0.3,0
		l-0.6,0.7l0.8,0.5c-0.9,0.3-1.4,1.2-1.6,1.6c0,0.1,0,0.1,0,0.2c0,0.1,0,0.1,0.1,0.1s0.2-0.1,0.3-0.2c0.5-0.6,0.8-0.9,2.5-1.5
		l-1.2-0.9l0.9-1.3h-0.9c-0.5,0-0.9,0-1.4-0.2c-0.6-0.3-1-0.4-1.5-0.4c-0.7,0-1.3,0.2-1.8,0.7c-0.6,0.5-0.8,1.3-1,2.1
		C55.6,251.4,55.4,252,54.9,252.7 M56.8,258.1c-0.5,0.6-1.1,1.4-1.6,2.3c0.2,0.1,0.7,0.3,0.8,0.4c0.5-0.8,1.3-1.8,1.8-2.6
		c0.5-0.7,0.6-1,0.7-1.9c0-0.2,0-0.3,0-0.5c0-0.5,0.2-1,0.6-1.4c0.3-0.3,0.8-0.5,1.3-0.5s0.8,0.1,1.2,0.1c0.3,0,0.5-0.1,0.7-0.1
		l0.2-0.1l-0.4,0.9L63,255c-0.5,0.3-1.8,1.8-1.8,3.6c0,0.6,0.1,1.2,0.2,1.7c0,0.1,0,0.1,0.1,0.1s0.1,0,0.1-0.1v-0.2
		c0-0.5,0.1-1.4,0.3-2.1c0.4-1.3,1.3-2.5,2.3-3l-1.2-0.7l0.6-1.4L63,253c-0.4,0.1-0.7,0.2-1,0.2c-0.2,0-0.5,0-0.8-0.1
		c-0.2-0.1-0.5-0.1-0.8-0.1c-0.6,0-1.3,0.2-1.8,0.7c-0.8,0.8-0.9,1.7-0.9,2.4C57.5,257.1,57.3,257.3,56.8,258.1 M77.2,258.6
		c-0.1-0.1-0.1-0.1-0.2-0.1s-0.1,0.1-0.1,0.1c0,0.1,0.1,0.2,0.3,0.6c0.6,1,1.4,2.1,2.3,3c1,1.1,2.2,2,3.4,2.9l0.4,0.3
		c0.1,0,0.1,0.1,0.1,0.1c0.1,0,0.1-0.1,0.1-0.1s0-0.1-0.1-0.1c-1.2-1.1-2.4-2.3-3.6-3.6C79,260.7,78,259.6,77.2,258.6 M55.8,286
		c0.1-1,0.9-1.7,2-1.7s1.9,0.7,2,1.7H55.8z M51.6,255c0.1-0.2,0.5-0.7,0.6-0.8c-0.6-1.2-1.6-2.4-2.1-2.9l-0.4,0.4
		C50.2,252.2,50.9,253.4,51.6,255 M45.7,247.8c-0.1-0.1-0.1-0.1-0.1-0.2c0-0.1,0-0.1,0.1-0.1h0.1c0.6,0.2,1.1,0.5,1.5,0.9
		c0.4,0.3,0.7,0.6,1.1,1.1l-0.3,0.4C47.8,249.5,46.4,248.4,45.7,247.8 M51.4,250.5l-0.4-0.3c0.3-0.7,0.6-1.3,1-1.7
		c0.3-0.3,0.6-0.6,0.9-0.9c0.1-0.1,0.1-0.1,0.2-0.1c0.1,0,0.1,0.1,0.1,0.1v0.1C52.6,248.5,51.7,250,51.4,250.5 M46,254.1
		c-0.1,0-0.2,0.1-0.2,0.1c-0.1,0-0.1-0.1-0.1-0.1c0-0.1,0-0.1,0.1-0.1c1-0.8,1.8-1.1,3-1.3l0.1,0.5L46,254.1z M66.4,248
		c0-0.3,0.1-0.8,0.7-0.8c0.2,0,0.3,0,0.5,0.1s0.3,0.2,0.3,0.4c0,0.1-0.1,0.3-0.4,0.5c-0.2,0.2-0.5,0.4-0.7,0.4
		C66.5,248.5,66.4,248.2,66.4,248 M58.3,250.3c0-0.3,0.2-0.7,0.6-0.7c0.2,0,0.4,0.1,0.5,0.2c0.1,0.1,0.1,0.2,0.1,0.3
		c0,0.2-0.2,0.4-0.4,0.5s-0.3,0.2-0.5,0.2C58.4,250.7,58.3,250.6,58.3,250.3 M60.2,255.2c0-0.1,0-0.2,0-0.3c0.1-0.2,0.2-0.4,0.5-0.4
		c0.2,0,0.3,0,0.5,0.1c0.1,0.1,0.2,0.2,0.2,0.3c0,0.3-0.6,0.7-0.9,0.7C60.3,255.7,60.2,255.5,60.2,255.2 M87.2,281.3
		c0.2,0,0.3,0,0.4-0.1s0.2-0.2,0.2-0.4v-0.7c0-0.3-0.1-0.4-0.2-0.5s-0.2-0.2-0.4-0.2c-0.1,0-0.3,0-0.5,0l-6.4,0.6
		c-0.2,0-0.3,0.1-0.3,0.1c-0.1,0.1-0.1,0.2-0.1,0.3v0.4c0,0.2,0,0.2,0.1,0.3s0.2,0.1,0.3,0.1L87.2,281.3L87.2,281.3z M83.6,282.5
		c-2.8,0-4.3,2.2-4.3,4.4c0,2.4,1.7,4.6,4.3,4.6c1.3,0,2.6-0.5,3.4-1.4c0.3-0.4,0.6-0.9,0.6-1.2c0-0.1,0-0.2-0.1-0.3
		s-0.2-0.1-0.3-0.1h-1.3c-0.3,0-0.4,0.1-0.6,0.3c-0.4,0.5-0.9,0.8-1.7,0.8c-1.2,0-2-0.9-2-1.9h5.6c0.2,0,0.4-0.1,0.5-0.2
		s0.2-0.3,0.2-0.7c0-1-0.3-2.1-1-3C86.2,283.1,85.1,282.5,83.6,282.5 M81.7,286c0.1-1,0.9-1.7,2-1.7s1.9,0.7,2,1.7H81.7z
		 M57.1,265.3c-1.1,0-1.6-0.5-1.6-1.2c0-1.1,2-2.2,3.8-2.9l0.5,0.6c-1.1,0.4-3.3,1.4-3.3,2.2c0,0.3,0.2,0.5,0.8,0.5
		c1.2,0,2.4-0.6,3.6-1.1c0.1,0,0.2-0.1,0.3-0.1c0.2,0,0.2,0,0.4,0.2l0.2,0.3C60.3,264.5,58.6,265.3,57.1,265.3 M60,265.6
		c-1.1,0.6-2.1,1-3.1,1c-1.1,0-2-0.5-2.8-1.7c-0.3-0.5-0.6-1.1-0.9-1.7c-0.4-0.7-0.8-1-1.5-1s-1.3,0.3-2,0.6v0.2
		c0.1,0.2,0.2,0.4,0.4,0.4c0.1,0,0.2,0,0.3-0.1c0.4-0.1,0.7-0.2,1.1-0.2c0.6,0,0.9,0.4,1.3,1.2l0.2,0.3c-0.4,0.1-1.4,0.2-2.1,0.2
		h-0.3l0.1,0.3c0,0.1,0.1,0.3,0.2,0.3c0.1,0.1,0.4,0.1,0.7,0.1c0.9,0,1.6-0.1,2-0.2c1,1.5,2.3,2,3.6,2c1.1,0,2.2-0.4,3.3-1L60,265.6
		z M61.1,265.9l-0.2-0.7c1.6-0.9,3.1-1.6,5.5-1.8c0,0.9,0,2.1,0.7,2.1c0.6,0,2-1.6,3.5-3.6c0.1,0.1,0.4,0.3,0.6,0.4l-0.4,0.5
		c-1.5,2-2.8,3.6-3.9,3.6c-1,0-1.4-1.2-1.4-2C64,264.5,62.6,265,61.1,265.9 M82.2,249.9c-0.6,0-0.8-0.3-0.8-0.8c0-1,0.6-2.4,1-3.3
		h-1c-0.5,1-2.5,4.1-3.5,5.4l0.6,0.7c0.6-0.6,1.2-1.7,1.9-2.8h0.1c0,0.1,0,0.1,0,0.2c0,0.9,0.5,1.6,1.6,1.6c0.7,0,1.8-0.3,2.8-0.7
		c0.9-0.3,1.6-0.6,2-0.7v-1c-0.4,0.1-1.4,0.5-2.3,0.8S82.7,249.9,82.2,249.9 M84.3,252.8c1-0.4,2.7-1.1,3.7-1.4v-1
		c-2,0.7-5.5,2.2-7.8,3.5c0.1,0.1,0.5,0.7,0.5,0.7c1-0.4,1.9-0.7,2.7-0.7c1.1,0,2.1,0,3.6-0.4v-0.7c-0.9,0.2-1.8,0.4-2.4,0.4
		c-0.4,0-0.5,0-0.5-0.2C84.1,252.9,84.2,252.9,84.3,252.8 M63.5,258h4.1l-0.3-0.7h-3.4L63.5,258z M49.2,261.7c0.4,0,0.8-0.1,1.1-0.3
		c0.3-0.1,0.6-0.3,1.1-0.3c1,0,2.3,0.5,3.4,1c0.1,0,0.1,0,0.2,0c0.2,0,0.3-0.1,0.4-0.2l0.1-0.3c-1.2-0.7-3.2-1.5-4.2-1.5
		c-0.5,0-0.8,0.1-1.1,0.2c-0.4,0.1-0.7,0.3-1,0.3c-0.8,0-2.9-0.8-2.9-1.6c0-0.9,3.3-1.3,3.6-1.3l0.3-0.7c-2.4,0-5.2,0.8-5.2,1.9
		c0,0.3,0.2,0.5,0.2,0.8c0,0.4-0.2,0.7-0.2,1.1c0,0.3,0.2,0.7,0.4,1s0.5,0.6,0.5,0.9c0,0.2-0.1,0.5-0.1,1c0,1.1,0.6,1.7,1.8,3
		l0.2,0.3c-1,0.4-2.8,1.2-3.3,1.4c-1.5,0.6-1.9,1.4-1.9,2.6c0,0.5,0,1,0,1.5h0.3c0.6,0,0.7-0.4,0.7-0.7c0-0.2,0-0.5,0-0.8
		c0-0.7,0-1.2,1.1-1.7c0.4-0.2,2.5-1.1,4.1-1.7c0.5-0.2,0.9-0.4,1.4-0.4s1.1,0.2,1.9,0.7c0.6,0.4,1.3,0.9,1.9,1.5l0.7-0.5
		c-0.6-0.7-1.4-1.3-2.2-1.8s-1.5-0.8-2.1-0.8c-0.3,0-0.5,0-0.7,0.1s-0.4,0.1-0.7,0.1s-0.5-0.1-0.9-0.5c-0.1-0.2-1-1.1-1.2-1.4
		c-0.1-0.1-0.2-0.4-0.2-0.7c0-0.1,0-0.3,0.1-0.4c0.7,0.6,1.7,0.9,2.8,1.1l-0.2-0.8c-1.6-0.4-3.3-1.8-3.3-2.7c0-0.2,0-0.3,0.1-0.5
		C47,261.1,48.5,261.7,49.2,261.7 M60.7,261.8c1-0.7,2-0.8,2.9-0.8c0.5,0,1.1,0.1,1.7,0.2c0.5,0.1,1,0.1,1.5,0.1
		c1.1,0,2.2-0.4,2.7-0.6c0.1,0.2,0.4,0.4,0.5,0.5c-0.2,0.1-1.7,0.9-3.2,0.9c-0.7,0-1.3-0.1-1.8-0.2s-1-0.1-1.5-0.1s-1.7,0.2-2.3,0.5
		L60.7,261.8z M75.5,264.7c-1.2,2.5-3,4.3-4.9,5.4c-0.9,0.5-1.7,0.8-3.4,0.8h-3.7c-1.3,0-2.2,0.2-2.8,0.3c-0.7,0.2-1.1,0.4-1.9,0.4
		c-1.1,0-2-0.5-2.5-1l0.9-0.7l-0.4-0.6c-0.3,0.2-3.4,2.5-4,3l0,0c0-0.2,0-0.3,0-0.4c0-1.8-0.8-2.2-2-2.7l-0.8,0.5
		c1.7,0.6,2.1,1,2.1,2.3c0,1-0.4,1.4-0.9,1.7c-0.5,0.3-1.2,0.5-1.8,0.5c-0.2,0-0.4,0-0.4,0.1c-0.1,0.1-0.1,0.2-0.1,0.4v0.3h0.2
		c1.1,0,2.1-0.2,3.1-1l3.5-2.8c0.5,0.6,1.8,1.4,3.3,1.4c0.8,0,1.4-0.2,2.2-0.4c0.6-0.2,1.2-0.3,2.5-0.3h3.7c1.9,0,2.8-0.4,3.9-1
		c2.2-1.2,4.1-3.3,5.2-5.8C76,265,75.7,264.8,75.5,264.7 M69.5,267.6c1-1.5,1.8-2.9,3.9-4c-0.2-0.1-0.5-0.3-0.7-0.5
		c-0.8,0.4-1.6,1.1-2.3,1.8c-1.6,1.7-1.4,2.6-3.1,3.3c-0.4,0.2-0.9,0.3-1.6,0.5c-0.4-1.2-1.4-2.4-2.4-2.4c-0.7,0-1.5,0.4-2.5,0.8
		c-1.1,0.5-2.1,1.1-2.5,1.3l0.4,0.6c0.3-0.2,1.3-0.7,2.3-1.1c0.8-0.4,1.6-0.7,2.1-0.7c0.8,0,1.4,0.9,1.6,1.7
		c-1.1,0.3-2.8,0.3-3.4,0.3c-0.2,0-0.3,0-0.4,0.1c-0.1,0.1-0.1,0.2-0.2,0.4l-0.1,0.3h0.6c3,0,5.8-0.5,7.6-1.6
		c0.3,0.1,0.5,0.1,0.8,0.1c1,0,2.1-0.6,2.8-1.1c0.2-0.2,0.3-0.4,0.3-0.5s0-0.2,0-0.2v-0.3c-1,0.8-1.8,1.3-2.7,1.3
		C69.7,267.7,69.6,267.7,69.5,267.6"/>
</g>
<polygon id="XMLID_732_" class="st2" points="302.7,-0.2 785,-0.4 759.6,55.8 302.7,55.8 "/>
</svg>
