<?xml version="1.0" encoding="utf-8"?>
<!-- Generator: Adobe Illustrator 19.0.0, SVG Export Plug-In . SVG Version: 6.00 Build 0)  -->
<svg version="1.1" id="Capa_1" xmlns="http://www.w3.org/2000/svg" xmlns:xlink="http://www.w3.org/1999/xlink" x="0px" y="0px"
	 viewBox="-389 204 245 284" style="enable-background:new -389 204 245 284;" xml:space="preserve">
<style type="text/css">
	.st0{fill:none;stroke:#FFFFFF;stroke-width:5.1758;stroke-linecap:round;stroke-miterlimit:10;}
	.st1{fill:none;stroke:#FFFFFF;stroke-width:5.6744;stroke-linecap:round;stroke-miterlimit:10;}
	.st2{fill:#E4205E;}
	.st3{opacity:0.25;fill:#E0DFE6;}
	.st4{fill:none;stroke:#FFFFFF;stroke-width:2.5879;stroke-linecap:round;stroke-miterlimit:10;}
</style>
<path id="XMLID_51_" class="st0" d="M-276.7,468.5c0,0,12.1-35.4-1.7-73.8"/>
<path id="XMLID_50_" class="st0" d="M-252.5,469.4c0,0,12.1-35.4-1.7-73.8"/>
<path id="XMLID_49_" class="st1" d="M-245.2,340.4c0,0,36.2-12.5,13.4-71.6"/>
<path id="XMLID_48_" class="st1" d="M-285.5,340.4c0,0-36.2-12.5-13.4-71.6"/>
<path id="XMLID_47_" class="st2" d="M-277.9,329.7c-4,7-10,9.8-14.6,28.7c-1.8,7.4-2.2,14.2,0,25.2c0.8,3.9,9.9,10.8,19.7,12.5
	c5.2,0.9,11.3,0.3,19.8-0.9c3.1-0.4,15.5-3,16.4-12.2c0.7-7,3.1-14.4,0-25.2c-2.6-9.2-5.4-13.5-16.8-29.8
	c-11.3-16.3-10.5-16-10.5-16S-273.8,322.5-277.9,329.7z"/>
<path id="XMLID_46_" class="st3" d="M-244.2,343.8c-1.8-3.7-4.2-7.1-5.9-10.8c-0.9-1.9-2.2-4.8-4.5-5.5c-0.4-0.3-0.9-0.6-1.4-0.7
	c0.6-0.3,1.1-0.5,1.7-0.9c0.6-0.3,1.3-0.7,1.9-1.2c-3.7,1-7.4,1.8-10.6,4.1c0.4-0.1,0.9-0.1,1.3-0.2c-0.8,1-1.4,2.2-1.4,3.6
	c0,4,2.2,7.5,4.3,10.7c3.6,5.5,6.1,10.1,6.9,16.6c0.7,5.6,0.1,11.6-1.2,17c-1,4.2-5.2,6.9-6,11.1c-0.8,4.4,2.9,4.5,6.5,3.7
	c0.9,0.2,1.8,0,2.3-0.7c1-0.4,1.9-0.7,2.5-1c7.1-3.4,9.6-9.4,10.1-16.7C-237,362.9-239.7,353-244.2,343.8z"/>
<path id="XMLID_45_" class="st1" d="M-278.7,329.7c-4,7-10,9.8-14.6,28.7c-1.8,7.4-2.2,14.2,0,25.2c0.8,3.9,9.9,10.8,19.7,12.5
	c5.2,0.9,11.3,0.3,19.8-0.9c3.1-0.4,15.5-3,16.4-12.2c0.7-7,3.1-14.4,0-25.2c-2.6-9.2-5.4-13.5-16.8-29.8
	c-11.3-16.3-10.5-16-10.5-16S-274.7,322.5-278.7,329.7z"/>
<circle id="XMLID_43_" class="st2" cx="-265.9" cy="303.7" r="23.3"/>
<path id="XMLID_42_" class="st3" d="M-263.1,326.7c2.2-0.7,4.4-1.4,6.5-2.3c-0.1,0-0.2-0.1-0.3-0.1c0.6-0.3,1.1-0.5,1.7-0.9
	c6.6-3.6,14.1-12.1,10.5-19.7c-4-8.3-11.9,3.2-14.4,6.2c-2.8,3.3-7,5.2-11.2,5.5c-0.9-0.5-1.8-0.4-2.5,0c-4.8-0.3-9.3-2.7-11.5-7.4
	c-0.9-2-3.6-0.9-3.9,0.9c-1.7-0.8-4.1,1.1-2.8,2.9c0.5,0.7,1,1.4,1.5,2.2c0.4,1.9,1.8,3.6,3.3,4.9c0.5,0.4,1,0.6,1.5,0.5
	c0,0.4,0.2,0.8,0.6,1.1c6.4,4.9,14,7.1,21.4,5.6C-262.8,326.2-262.9,326.4-263.1,326.7z"/>
<circle id="XMLID_41_" class="st1" cx="-266.8" cy="303.7" r="23.3"/>
<line id="XMLID_20_" class="st4" x1="-328" y1="248.9" x2="-310.3" y2="268.3"/>
<line id="XMLID_19_" class="st4" x1="-306.2" y1="231.6" x2="-296" y2="255.8"/>
<line id="XMLID_18_" class="st4" x1="-279.9" y1="222.6" x2="-278.4" y2="248.8"/>
<line id="XMLID_17_" class="st4" x1="-252.2" y1="222.9" x2="-259.5" y2="248.1"/>
<line id="XMLID_16_" class="st4" x1="-226.1" y1="232.3" x2="-241.3" y2="253.7"/>
<line id="XMLID_15_" class="st4" x1="-204.6" y1="250" x2="-226.1" y2="265"/>
<line id="XMLID_14_" class="st4" x1="-190.3" y1="273.7" x2="-215.6" y2="280.8"/>
<line id="XMLID_13_" class="st4" x1="-184.6" y1="300.9" x2="-210.8" y2="299.1"/>
<line id="XMLID_12_" class="st4" x1="-188.4" y1="328.4" x2="-212.5" y2="318"/>
<line id="XMLID_11_" class="st4" x1="-201.1" y1="353.1" x2="-220.3" y2="335.3"/>
<line id="XMLID_10_" class="st4" x1="-324" y1="351.5" x2="-303.9" y2="334.6"/>
<line id="XMLID_9_" class="st4" x1="-340.4" y1="329.1" x2="-315.8" y2="319.9"/>
<line id="XMLID_8_" class="st4" x1="-348.4" y1="302.5" x2="-322.1" y2="302"/>
<line id="XMLID_7_" class="st4" x1="-347" y1="274.8" x2="-322.1" y2="283.1"/>
</svg>
