<?xml version="1.0" encoding="utf-8"?>
<!-- Generator: Adobe Illustrator 19.0.0, SVG Export Plug-In . SVG Version: 6.00 Build 0)  -->
<svg version="1.1" id="Layer_1" xmlns="http://www.w3.org/2000/svg" xmlns:xlink="http://www.w3.org/1999/xlink" x="0px" y="0px"
	 viewBox="0 179.1 955.1 549.9" style="enable-background:new 0 179.1 955.1 549.9;" xml:space="preserve">
<style type="text/css">
	.st0{fill:#E0DFE6;}
	.st1{fill:none;stroke:#1F4D69;stroke-width:3.6151;stroke-linecap:round;stroke-linejoin:round;stroke-miterlimit:10;}
	.st2{fill:none;stroke:#1F4D69;stroke-width:4;stroke-linecap:round;stroke-linejoin:round;stroke-miterlimit:10;}
	.st3{fill:none;stroke:#1F4D69;stroke-width:4.1742;stroke-linecap:round;stroke-linejoin:round;stroke-miterlimit:10;}
	.st4{fill:#FFFFFF;}
	.st5{fill:none;stroke:#1F4D69;stroke-width:1.554;stroke-linecap:round;stroke-linejoin:round;stroke-miterlimit:10;}
	.st6{fill:#1F4D69;}
	.st7{fill:none;stroke:#1F4D69;stroke-miterlimit:10;}
</style>
<ellipse class="st0" cx="120.9" cy="686.8" rx="97.2" ry="24.1"/>
<path class="st1" d="M362.2,639.3c-115.1,2.6-92.4-118.2-104.7-208.5c-13.4-98.1-6-86.4-18.9-111.1c-8.4-16.1-62.5,11.2-62.5,11.2
	c9.5-25.6,24.9-43.9,61.1-43c3.4-1.2,9.5-60.2,20-61.3c74.6-7.4,325.6-19.7,353.9-17.7c89.2,6,301.1-15.7,314.3,73.7
	c16.1,108.5,31.9,304.6-12.4,339.7C876.7,651.2,461.6,637.2,362.2,639.3z"/>
<g id="XMLID_697_">
	<path id="XMLID_774_" class="st2" d="M135.5,695.4c0,0,18-55.3,4.3-166.6"/>
	<path id="XMLID_773_" class="st2" d="M83.6,695.4c0,0,14.7-78.1,6.8-162.6"/>
	<path id="XMLID_772_" class="st3" d="M137.2,402.1c3.7,4.9,42.1,53.4,55.3,54.2c8,0.5,16.3-31.9,25.3-49c1.5-2.8,8.4-4.6,16.4-5.4"
		/>
	<g id="XMLID_766_">
		<path id="XMLID_769_" class="st4" d="M132.6,395.7c8.8,14,21.5,19.2,32.5,57.3c4.5,15,5.8,28.9,2.3,51.6
			c-1.2,8.1-19.2,23.2-39.1,27.3c-10.4,2.3-23,1.7-40.7,0.2c-6.3-0.6-32.1-4.8-34.7-23.5c-2-14.3-7.7-29.2-2.3-51.6
			c4.5-19,9.8-28.1,31.6-62.6c21.6-34.4,20-33.8,20-33.8S123.5,381.4,132.6,395.7z"/>
		<path id="XMLID_768_" class="st0" d="M64.9,430.1c3.4-8.1,8-15.8,11.2-23.9c1.7-4.3,4-10.7,8.8-12.4c0.8-0.8,1.8-1.4,2.8-1.7
			c-1.2-0.5-2.5-1.1-3.5-1.7c-1.4-0.6-2.6-1.5-4-2.3c7.7,1.7,15.4,3.2,22.1,7.8c-0.9-0.2-1.8-0.2-2.6-0.3c1.8,2,3.1,4.6,3.2,7.8
			c0.3,8.6-3.7,16.4-7.8,23.8c-6.8,12.3-11.5,22.4-12.6,36.7c-0.9,12.1,0.9,25.2,4.1,36.8c2.5,9.1,11.2,14.4,13.4,23.6
			c2.1,9.5-5.5,10.1-12.9,8.6c-1.7,0.6-3.8,0.3-4.8-1.2c-2.1-0.6-4-1.4-5.2-2c-14.9-6.6-20.4-19.5-22.1-35.3
			C52,472.3,56.6,450.5,64.9,430.1z"/>
		<path id="XMLID_767_" class="st2" d="M134.3,395.7c8.8,14,21.5,19.2,32.5,57.3c4.5,15,5.8,28.9,2.3,51.6
			c-1.2,8.1-19.2,23.2-39.1,27.3c-10.4,2.3-23,1.7-40.7,0.2c-6.3-0.6-32.1-4.8-34.7-23.5c-2-14.3-7.7-29.2-2.3-51.6
			c4.5-19,9.8-28.1,31.6-62.6c21.6-34.4,20-33.8,20-33.8S125.4,381.3,134.3,395.7z"/>
	</g>
	<circle id="XMLID_765_" class="st4" cx="105.5" cy="343.7" r="47.7"/>
	<path id="XMLID_763_" class="st0" d="M66.4,369c-1.5-4.5-3.2-8.9-4.6-13.5c0.2,0.2,0.5,0.3,0.6,0.3c-0.3-1.2-0.6-2.5-0.8-3.8
		C59,336.7,63,313.9,79.9,310c18.4-4.1,10,23.2,8.3,31.2c-1.8,8.6,0.6,17.8,5.4,25c2,0.9,2.9,2.5,3.2,4c6.8,7.4,16.3,11.5,26.4,9.1
		c4.5-1.1,6.1,4.6,3.5,7.4c3.5,1.7,3.5,7.8-1.1,8.3c-1.8,0.2-3.5,0.3-5.4,0.3c-3.7,1.8-8,1.7-12.1,0.9c-1.2-0.3-2.1-0.9-2.8-1.8
		c-0.8,0.5-1.7,0.6-2.6,0.5c-16-4-29.2-13.5-36.2-27.3C66.7,367.9,66.6,368.5,66.4,369z"/>
	<circle id="XMLID_762_" class="st2" cx="107.4" cy="343.7" r="47.7"/>
	<path id="XMLID_771_" class="st2" d="M94.6,411.4c-6.6,9.4-33.8,64.6,19.5,106.1"/>
</g>
<path class="st5" d="M81.3,345.7c0,0-13.5-60.5,37-60.5c10.1,0,12,16.6,12,16.6"/>
<ellipse class="st6" cx="84.1" cy="351.9" rx="12" ry="12.9"/>
<path class="st7" d="M88.2,358.9c0,0,5.5,16.4,25.9,12.1c15.4-3.2,25.9-10.3,25.9-10.3"/>
<ellipse transform="matrix(-0.9457 0.3251 -0.3251 -0.9457 382.0549 664.7234)" class="st6" cx="135.5" cy="364.3" rx="9.7" ry="3.8"/>
<ellipse class="st6" cx="125.3" cy="338" rx="1.7" ry="4.3"/>
<ellipse class="st6" cx="144.3" cy="331.3" rx="1.7" ry="4.3"/>
</svg>
