<?xml version="1.0" encoding="utf-8"?>
<!-- Generator: Adobe Illustrator 15.1.0, SVG Export Plug-In . SVG Version: 6.00 Build 0)  -->
<!DOCTYPE svg PUBLIC "-//W3C//DTD SVG 1.1//EN" "http://www.w3.org/Graphics/SVG/1.1/DTD/svg11.dtd">
<svg version="1.1" id="Layer_1" xmlns="http://www.w3.org/2000/svg" xmlns:xlink="http://www.w3.org/1999/xlink" x="0px" y="0px"
	 width="801.068px" height="580.333px" viewBox="-114.021 -47.455 801.068 580.333"
	 enable-background="new -114.021 -47.455 801.068 580.333" xml:space="preserve">
<path fill="none" stroke="#1F4D69" stroke-width="4" stroke-linecap="round" stroke-linejoin="round" stroke-miterlimit="10" d="
	M-54.916-29.456c-25-5-22,281.395-14,297.395c8.025,7.239,83.302-1.185,89.894,12c7,14-13.667,27-23,29c13,5,20.932,10,61-28
	c17.799,7.684,536.588-5.291,557.572-7c58.107-4.729,60,8,55-49c7-140,1-246.395-14-256.395
	C617.077-35.184,46.398-26.717-54.916-29.456z"/>
<g id="XMLID_697_">
	<path fill="none" stroke="#1F4D69" stroke-width="4" stroke-linecap="round" stroke-linejoin="round" stroke-miterlimit="10" d="
		M-114.49,481.228c8.207-10.678,16.165-21.655,24.852-31.949"/>
	<path fill="none" stroke="#1F4D69" stroke-width="4" stroke-linecap="round" stroke-linejoin="round" stroke-miterlimit="10" d="
		M-72.935,360.313C-76.886,360.489-73.108,360.196-72.935,360.313c-15.42-1.374-28.42,4.626-41.221,11.021"/>
	
		<path id="XMLID_771_" fill="none" stroke="#1F4D69" stroke-width="4" stroke-linecap="round" stroke-linejoin="round" stroke-miterlimit="10" d="
		M-40.707,381.633c-2.712-3.257,8.185,42.705,27.501,44.08c10.094,0.719,8.166-38.402,20.726-54.779"/>
	<g id="XMLID_766_">
		<path fill="#FFFFFF" d="M-40.604,377.6c1.024-10.774-1.664-29.478-1.752-30.084c-0.083,0.175-1.721,1.399-23.676,9.511
			c-24.996,9.234-31.373,11.755-41.208,19.827c-2.488,2.042-4.563,4.101-6.36,6.156c0.344,4.739,0.312,9.499,0.096,14.254
			c-0.538,11.87-1.159,23.727-1.576,35.599c7.096,6.443,12.696,10.887,18.313,13.556c11.992,5.693,27.201,5.048,31.072,1.338
			c10.852-10.4,15.55-18.111,19.233-27.603C-37.113,396.056-41.622,388.293-40.604,377.6z"/>
		<path fill="#E0DFE6" d="M-56.184,365.321c-1.761-4.877-5.174-8.656-8.498-12.548c0.365,0.946,0.762,1.854,1.185,2.705
			c0.381,0.771,0.789,1.511,1.213,2.232c-0.661-0.213-1.363-0.305-2.091-0.254c-3.083-1.047-6.707,1.169-9.138,2.602
			c-4.711,2.778-9.95,4.591-14.738,7.265c-9.657,5.392-18.406,12.23-25.119,20.871c0.06,3.021,0,6.046-0.136,9.069
			c-0.441,9.734-0.935,19.46-1.333,29.191c3.194,3.353,7.133,5.577,9.448,0.395c2.359-5.284-0.173-11.313,1.932-16.755
			c2.694-6.97,6.646-14.006,11.651-19.58c5.87-6.536,12.136-9.65,20.214-12.909c4.829-1.949,9.854-4.127,12.887-8.47
			c1.098-1.569,1.455-3.347,1.271-5.03C-57.028,364.523-56.608,364.925-56.184,365.321z"/>
		<path fill="none" stroke="#1F4D69" stroke-width="4" stroke-linecap="round" stroke-linejoin="round" stroke-miterlimit="10" d="
			M-39.659,378.259c1.022-10.776-1.665-29.48-1.752-30.086c-0.083,0.176-1.717,1.399-23.677,9.512
			c-24.997,9.234-31.372,11.755-41.21,19.828c-2.879,2.363-5.227,4.749-7.203,7.126c0.23,4.201,0.186,8.415-0.004,12.625
			c-0.535,11.804-1.153,23.595-1.57,35.4c7.547,6.91,13.39,11.626,19.254,14.41c11.991,5.696,27.201,5.048,31.07,1.34
			c10.853-10.4,15.55-18.11,19.233-27.603C-36.168,396.714-40.674,388.95-39.659,378.259z"/>
	</g>
	<circle id="XMLID_765_" fill="#FFFFFF" cx="-33.883" cy="340.062" r="31.091"/>
	<path id="XMLID_763_" fill="#E0DFE6" d="M-54.477,362.983c-1.843-2.489-3.726-4.954-5.377-7.558
		c0.164,0.037,0.332,0.058,0.492,0.109c-0.424-0.722-0.832-1.463-1.211-2.234c-4.455-9.007-6.264-24.05,3.545-29.558
		c10.736-6.027,10.558,12.589,11.033,17.828c0.519,5.736,3.693,10.983,8.095,14.573c1.399,0.208,2.292,0.944,2.76,1.933
		c5.539,3.298,12.315,4.115,18.203,0.654c2.549-1.498,4.656,1.735,3.604,3.928c2.532,0.397,3.641,4.267,0.921,5.322
		c-1.078,0.416-2.193,0.817-3.333,1.179c-1.905,1.842-4.662,2.572-7.374,2.825c-0.836,0.075-1.533-0.167-2.077-0.58
		c-0.378,0.426-0.898,0.72-1.55,0.749c-10.687,0.473-20.684-2.944-27.767-10.223C-54.476,362.277-54.467,362.629-54.477,362.983z"/>
	
		<circle id="XMLID_762_" fill="none" stroke="#1F4D69" stroke-width="4" stroke-linecap="round" stroke-linejoin="round" stroke-miterlimit="10" cx="-32.938" cy="340.719" r="31.092"/>
</g>
<ellipse transform="matrix(0.6086 -0.7935 0.7935 0.6086 -279.4022 99.9133)" fill="#1F4D69" cx="-38.431" cy="333.154" rx="3.625" ry="2.25"/>
<ellipse transform="matrix(0.6086 -0.7935 0.7935 0.6086 -282.4177 115.1011)" fill="#1F4D69" cx="-24.544" cy="343.804" rx="3.625" ry="2.25"/>
<path fill="#1F4D69" d="M-39.933,354.214c-1.607,0.658-2.175,1.798-3.162,1.041c-0.986-0.756-0.763-2.702,0.497-4.345
	c0.261-0.341,0.546-0.642,0.843-0.897c1.137-0.98,1.735-0.591,2.517,0.009c0.824,0.632,1.512,1.376,0.747,2.798
	C-38.639,353.1-39.617,354.086-39.933,354.214z"/>
</svg>
