<?xml version="1.0" encoding="utf-8"?>
<!-- Generator: Adobe Illustrator 19.0.0, SVG Export Plug-In . SVG Version: 6.00 Build 0)  -->
<svg version="1.1" id="Capa_1" xmlns="http://www.w3.org/2000/svg" xmlns:xlink="http://www.w3.org/1999/xlink" x="0px" y="0px"
	 viewBox="-389 204 245 284" style="enable-background:new -389 204 245 284;" xml:space="preserve">
<style type="text/css">
	.st0{fill:none;stroke:#FFFFFF;stroke-width:5.6744;stroke-linecap:round;stroke-miterlimit:10;}
	.st1{fill:#E4205E;}
	.st2{opacity:0.25;fill:#E0DFE6;}
</style>
<path id="XMLID_40_" class="st0" d="M-280.9,239.5c0,0,24.2,28.5,25.5,69.2"/>
<path id="XMLID_39_" class="st0" d="M-203.9,250.1c0,0-3.1,37.2-31.1,66.9"/>
<path id="XMLID_38_" class="st0" d="M-270,383.9c0,0,0.2,41.9,0.2,67c0,2.3-5.1,1.4-8.9,1.4"/>
<path id="XMLID_37_" class="st0" d="M-282.4,372.9c0,0-8.3-11.3-40.3-39.2"/>
<g id="XMLID_33_">
	<path id="XMLID_36_" class="st1" d="M-283,367.9c-0.8-8-5.3-13-1.9-32.1c1.3-7.5,3.6-13.9,10.1-23.1c2.3-3.3,13.4-6,23-3.6
		c5.1,1.3,10.5,4.2,17.8,8.7c2.6,1.6,13,9,10.1,17.8c-2.2,6.7-3,14.4-10.1,23.1c-6,7.4-10.4,10.2-27.4,20.6
		c-16.9,10.4-16,10.5-16,10.5S-282.2,376.1-283,367.9z"/>
	<path id="XMLID_35_" class="st2" d="M-246.5,368.5c-3.1,2.7-6.7,4.8-9.8,7.5c-1.6,1.4-3.9,3.6-6.3,3.2c-0.5,0.1-1.1,0.2-1.6,0.1
		c0.4,0.5,0.8,1,1.2,1.5c0.4,0.6,0.9,1.2,1.3,1.8c-3-2.4-6.1-4.7-8.1-8c0.4,0.2,0.7,0.5,1.1,0.7c-0.4-1.2-0.4-2.6,0.2-3.9
		c1.6-3.6,5-6,8.2-8.1c5.5-3.6,9.6-6.8,13-12.4c2.9-4.8,4.7-10.6,5.7-16.1c0.8-4.3-2-8.4-1-12.6c1-4.4,4.5-3,7.4-0.8
		c0.9,0.1,1.7,0.7,1.9,1.5c0.8,0.7,1.5,1.4,1.9,1.9c5.2,5.9,5,12.5,2.5,19.3C-232.3,353.9-238.8,361.9-246.5,368.5z"/>
	<path id="XMLID_34_" class="st0" d="M-283.8,367.6c-0.8-8-5.3-13-1.9-32.1c1.3-7.5,3.6-13.9,10.1-23.1c2.3-3.3,13.4-6,23-3.6
		c5.1,1.3,10.5,4.2,17.8,8.7c2.6,1.6,13,9,10.1,17.8c-2.2,6.7-3,14.4-10.1,23.1c-6,7.4-10.4,10.2-27.4,20.6
		c-16.9,10.4-16,10.5-16,10.5S-283,375.8-283.8,367.6z"/>
</g>
<circle id="XMLID_32_" class="st1" cx="-282.4" cy="396.2" r="23.3"/>
<path id="XMLID_31_" class="st2" d="M-279.6,373.3c2.2,0.7,4.4,1.4,6.5,2.3c-0.1,0-0.2,0.1-0.3,0.1c0.6,0.3,1.1,0.5,1.7,0.9
	c6.6,3.6,14.1,12.1,10.5,19.7c-4,8.3-11.9-3.2-14.4-6.2c-2.8-3.3-7-5.2-11.2-5.5c-0.9,0.5-1.8,0.4-2.5,0c-4.8,0.3-9.3,2.7-11.5,7.4
	c-0.9,2-3.6,0.9-3.9-0.9c-1.7,0.8-4.1-1.1-2.8-2.9c0.5-0.7,1-1.4,1.5-2.2c0.4-1.9,1.8-3.6,3.3-4.9c0.5-0.4,1-0.6,1.5-0.5
	c0-0.4,0.2-0.8,0.6-1.1c6.4-4.9,14-7.1,21.4-5.6C-279.3,373.7-279.4,373.5-279.6,373.3z"/>
<circle id="XMLID_30_" class="st0" cx="-283.3" cy="396.2" r="23.3"/>
<line id="XMLID_2_" class="st0" x1="-329.1" y1="343.5" x2="-314.8" y2="340.6"/>
</svg>
