<?xml version="1.0" encoding="utf-8"?>
<!-- Generator: Adobe Illustrator 15.1.0, SVG Export Plug-In . SVG Version: 6.00 Build 0)  -->
<!DOCTYPE svg PUBLIC "-//W3C//DTD SVG 1.1//EN" "http://www.w3.org/Graphics/SVG/1.1/DTD/svg11.dtd">
<svg version="1.1" id="Capa_1" xmlns="http://www.w3.org/2000/svg" xmlns:xlink="http://www.w3.org/1999/xlink" x="0px" y="0px"
	 width="1027.8px" height="97.1px" viewBox="-1.9 632.95 1027.8 97.1" enable-background="new -1.9 632.95 1027.8 97.1"
	 xml:space="preserve">
<rect x="-0.8" y="632.95" fill="#FFFFFF" stroke="#000000" stroke-miterlimit="10" width="1026.7" height="99.05"/>
<g>
	<g id="Capa_1_1_">
	</g>
	<g id="Capa_2">
	</g>
	<rect id="XMLID_434_" x="-1.9" y="706.05" fill="#0D004C" width="1027.8" height="24"/>
	<polygon id="XMLID_513_" fill="#E41E5D" points="1025.9,632.95 1025.9,701.05 349.2,701.05 317.9,632.95 	"/>
	<g id="XMLID_800_">
		<line id="XMLID_721_" fill="none" stroke="#384E9A" stroke-miterlimit="10" x1="64.8" y1="647.151" x2="64.8" y2="694.85"/>
		<path id="XMLID_796_" fill="#00478C" d="M110.1,647.151h2.3v2h-2.3V647.151z M110.1,650.151h2.3v8.3h-2.3V650.151z"/>
		<path id="XMLID_718_" fill="#00478C" d="M115.8,650.151v1l0,0c0.2-0.602,0.9-1.302,1.6-1.302c1.1,0,2.1,0.602,2.1,1.7v6.8h-2.3
			v-5.898c0-0.4-0.2-0.7-0.6-0.7s-0.6,0.3-0.6,0.7v5.898h-2.3v-8.3L115.8,650.151L115.8,650.151z"/>
		<path id="XMLID_792_" fill="#00478C" d="M120.7,647.151h2.3v2h-2.3V647.151z M120.7,650.151h2.3v8.3h-2.3V650.151z"/>
		<path id="XMLID_715_" fill="#00478C" d="M128,653.151v-0.102c0-0.3,0-0.6-0.1-0.898c-0.1-0.302-0.3-0.5-0.6-0.5
			c-0.6,0-0.7,0.5-0.7,1v3.398c0,0.5,0.1,1,0.8,1c0.9,0,0.7-1.3,0.7-1.898h2.3c0,0.5-0.1,1.5-0.2,2c-0.3,1-1.2,1.5-2.2,1.6
			c-0.2,0-0.4,0-0.8,0c-1.7,0-2.9-0.7-2.9-2.6v-3.4c0-2.1,1.1-2.8,2.9-2.8c2.3,0,3.2,1,3.1,3.3H128V653.151z"/>
		<path id="XMLID_788_" fill="#00478C" d="M131.3,647.151h2.3v2h-2.3V647.151z M131.3,650.151h2.3v8.3h-2.3V650.151z"/>
		<path id="XMLID_785_" fill="#00478C" d="M138.6,657.651c-0.6,0.6-1.1,1-2,1c-1.3,0-2.2-0.9-2.2-2.2c0-1.9,1-2.5,2.1-2.8
			c1-0.302,2-0.4,2-1.302c0-0.5-0.3-0.898-0.7-0.898c-0.9,0-0.9,0.6-0.9,1.3h-2.3c-0.1-2.1,1.3-2.8,3.2-2.8c2.3,0,3.2,0.7,3.2,2.5
			v5.1c0,0.3,0.1,0.602,0.2,0.9h-2.3L138.6,657.651z M138.5,654.151c-0.5,0.3-0.9,0.398-1.2,0.6c-0.3,0.2-0.5,0.5-0.5,1.1
			c0,0.5,0.3,0.9,0.9,0.9c0.7,0,0.8-0.7,0.9-1.3L138.5,654.151L138.5,654.151z"/>
		<path id="XMLID_710_" fill="#00478C" d="M141.2,651.651v-1.7h0.9v-2.4h2.3v2.4h1.1v1.7h-1.1v4.398c0,0.5,0.2,0.602,0.5,0.602
			c0.3,0,0.4,0,0.6,0v1.698c-0.5,0.102-1,0.102-1.5,0.102c-1.3,0-2-0.602-2-1.9v-4.7h-0.8V651.651z"/>
		<path id="XMLID_781_" fill="#00478C" d="M146.4,647.151h2.3v2h-2.3V647.151z M146.4,650.151h2.3v8.3h-2.3V650.151z"/>
		<polygon id="XMLID_707_" fill="#00478C" points="152.4,655.45 152.5,655.45 153.3,650.151 155.6,650.151 153.8,658.35 
			151.1,658.35 149.3,650.151 151.7,650.151 		"/>
		<path id="XMLID_777_" fill="#00478C" d="M159.8,657.651c-0.6,0.6-1.1,1-2,1c-1.3,0-2.2-0.9-2.2-2.2c0-1.9,1-2.5,2.1-2.8
			c1-0.302,2-0.4,2-1.302c0-0.5-0.3-0.898-0.7-0.898c-0.9,0-0.9,0.6-0.9,1.3h-2.3c-0.1-2.1,1.3-2.8,3.2-2.8c2.3,0,3.2,0.7,3.2,2.5
			v5.1c0,0.3,0.1,0.602,0.2,0.9h-2.3L159.8,657.651z M159.7,654.151c-0.5,0.3-0.9,0.398-1.2,0.6s-0.5,0.5-0.5,1.1
			c0,0.5,0.3,0.9,0.9,0.9c0.7,0,0.8-0.7,0.9-1.3L159.7,654.151L159.7,654.151z"/>
		<path id="XMLID_774_" fill="#00478C" d="M168.3,650.151v1l0,0c0.5-0.802,1.1-1.2,1.9-1.2c1.6,0,2,1.5,2,2.8v2.9
			c0,1.398-0.3,3-2.1,3.1c-0.4,0-1.2-0.2-1.7-1l0,0v3.6h-2.3v-11.1L168.3,650.151L168.3,650.151z M169.9,653.151
			c0-0.5,0-1.4-0.7-1.4c-0.6,0-0.8,0.7-0.8,1.5v1.9c0,0.698,0.1,1.5,0.7,1.5c0.8,0,0.7-0.9,0.7-1.4v-2.1H169.9z"/>
		<path id="XMLID_771_" fill="#00478C" d="M173,652.651c0-2.102,1.3-2.802,3.1-2.802c2.1,0,3.1,1,3.1,2.802v3.398
			c-0.1,1.9-1.3,2.602-3.1,2.602c-1.7,0-3.1-0.7-3.1-2.602V652.651z M175.4,656.151c0,0.5,0.2,0.698,0.7,0.698s0.7-0.3,0.7-0.698
			v-3.7c0-0.5-0.2-1-0.7-1s-0.7,0.398-0.7,1V656.151z"/>
		<path id="XMLID_700_" fill="#00478C" d="M182.1,650.151v1.3l0,0c0.3-0.9,0.8-1.5,1.8-1.5v2.7c-0.2,0-0.5-0.102-0.7-0.102
			c-0.7,0-0.9,0.102-1,0.8v5.102h-2.3v-8.3H182.1L182.1,650.151z"/>
		<rect id="XMLID_699_" x="187.9" y="647.151" fill="#00478C" width="2.3" height="11.1"/>
		<path id="XMLID_766_" fill="#00478C" d="M191.3,652.651c0-2.102,1.3-2.802,3.1-2.802c2.1,0,3.1,1,3.1,2.802v3.398
			c-0.1,1.9-1.3,2.602-3.1,2.602c-1.7,0-3.1-0.7-3.1-2.602V652.651z M193.7,656.151c0,0.5,0.2,0.698,0.7,0.698s0.7-0.3,0.7-0.698
			v-3.7c0-0.5-0.2-1-0.7-1s-0.7,0.398-0.7,1V656.151z"/>
		<path id="XMLID_696_" fill="#00478C" d="M201.7,652.45c-0.1-0.602,0-1.102-0.8-1.102c-0.5,0-0.8,0.2-0.8,0.7
			c0,0.4,0.4,0.7,0.7,0.8c1.5,0.7,3.2,1.102,3.2,3.102c0,1.8-1.4,2.6-3.1,2.6c-1.9,0-3.2-0.8-3.1-2.8h2.2c0,0.6,0.1,1.2,0.8,1.2
			c0.5,0,0.8-0.3,0.8-0.8c0-0.302-0.1-0.5-0.3-0.602c-0.9-0.5-2.3-0.898-3-1.7c-0.4-0.5-0.6-0.898-0.6-1.6c0-1.8,1.4-2.6,3.1-2.6
			c1.7,0,3.1,0.898,3,2.698L201.7,652.45L201.7,652.45z"/>
		<path id="XMLID_695_" fill="#04A7DB" d="M78.1,684.05v3.8c0,1.102,0.5,1.602,1.4,1.5c1,0,1.4-0.198,1.4-1.1v-24.4H88v21
			c0,2.102,0.1,4.5-0.9,6.5c-1.5,2.802-4.1,3.4-7.2,3.4c-3.4,0-6.3-1.6-7.1-5c-0.4-1.4-0.3-2.7-0.3-4.1v-1.802h5.6V684.05z"/>
		<path id="XMLID_760_" fill="#04A7DB" d="M109.5,684.35c0,6.802-2.4,10.302-9.5,10.302s-9.6-3.5-9.6-10.302v-12.3
			c0-5.8,3.5-9,9.6-9c6.2,0,9.5,3.2,9.5,9V684.35z M108.2,654.95l-6.9,5.898h-5.5l4-5.898H108.2L108.2,654.95z M102.5,672.651
			c0-1.802-0.2-4.102-2.5-4.102c-2.2,0-2.5,2.2-2.5,4.102v12.3c0,1.7,0.3,4.3,2.6,4.3c2.3,0,2.4-2.6,2.4-4.3V672.651z"/>
		<polygon id="XMLID_691_" fill="#04A7DB" points="116.9,694.05 110.3,663.85 117.4,663.85 121,685.05 121.1,685.05 124.7,663.85 
			131.8,663.85 125.2,694.05 		"/>
		<polygon id="XMLID_690_" fill="#04A7DB" points="132.9,694.05 132.9,663.85 149,663.85 149,669.85 139.9,669.85 139.9,675.55 
			148.8,675.55 148.8,681.55 139.9,681.55 139.9,688.05 149.5,688.05 149.5,694.05 		"/>
		<polygon id="XMLID_689_" fill="#04A7DB" points="157.8,677.151 157.7,677.35 158.3,694.05 151.6,694.05 151.6,663.85 
			158.9,663.85 164.3,680.85 164.5,680.85 163.8,663.85 170.5,663.85 170.5,694.05 163.3,694.05 		"/>
		<polygon id="XMLID_688_" fill="#04A7DB" points="172.9,694.05 172.9,663.85 189,663.85 189,669.85 179.9,669.85 179.9,675.55 
			188.8,675.55 188.8,681.55 179.9,681.55 179.9,688.05 189.5,688.05 189.5,694.05 		"/>
		<path id="XMLID_687_" fill="#04A7DB" d="M197.1,684.05v2.102c0,1.698,0.6,3.3,2.8,3.3c1.6,0,2.4-1.5,2.4-3
			c0-2.5-2.1-3.5-3.9-4.602c-2.2-1.198-4-2.398-5.3-3.898c-1.3-1.5-2-3.4-2-6c0-5.7,3.4-8.602,8.9-8.602c6.1,0,9.3,4.102,9,9.802
			h-6.5c-0.1-1.802,0-4.2-2.3-4.302c-1.4-0.1-2.3,0.7-2.5,2c-0.2,1.802,0.7,2.7,2.1,3.7c2.7,1.7,4.9,2.7,6.6,4.3
			c1.6,1.5,2.6,3.5,2.6,7.2c0,5.8-3.2,9-9.1,9c-6.5,0-9.2-3.6-9.2-7.6v-3.4H197.1z"/>
		<path id="XMLID_723_" fill="#00478C" d="M19,683.151c-0.1,0.1-0.2,0.3-0.2,0.5v7.198l0,0c0,0-4-7.1-4.1-7.398
			c-0.1-0.2-0.3-0.4-0.5-0.5c-0.2-0.102-0.4-0.2-0.8-0.2h-1.3c-0.3,0-0.5,0.1-0.6,0.3c-0.1,0.102-0.2,0.3-0.2,0.5v10.4
			c0,0.3,0.1,0.398,0.2,0.5c0.1,0.2,0.3,0.3,0.6,0.3h0.7c0.3,0,0.5-0.1,0.6-0.3c0.1-0.102,0.2-0.3,0.2-0.5v-7.4l0,0
			c0,0,4.1,7.3,4.3,7.5c0.2,0.4,0.6,0.7,1.2,0.7h1.3c0.3,0,0.5-0.1,0.6-0.3c0.1-0.102,0.2-0.3,0.2-0.5v-9.102h16.6
			c0.2,0,0.3,0,0.4-0.1c0.1-0.1,0.2-0.2,0.2-0.4v-0.698c0-0.2,0-0.302-0.2-0.4c-0.1-0.1-0.2-0.1-0.4-0.1H19.7
			C19.4,682.85,19.2,683.151,19,683.151 M48.4,659.151c-3-4.4-5.6-5.9-6.3-6.602c-0.8-0.8-1.4-1.6-1.8-2.1
			c-0.9-0.9-2-2.102-3.8-2.102s-3,1.2-3.3,2.2c-0.1,0.3-0.2,0.602-0.3,0.8c-0.2,0.302-1,1.602-1.3,2.2h1.5l-0.7,1.4
			c0.8-0.2,1.4-0.3,2.2-0.3c0.7,0,1.2,0.198,1.4,0.6c0.4,0.8,0.4,3.3,1.1,5.2c0.7,1.8,2.2,3.5,4,4.8c0,0,0,0,0.1,0
			c0.1,0,0.1-0.1,0.1-0.1s0-0.102-0.1-0.102c-1.5-1.5-2.7-3.2-3.4-5c-0.6-1.8-0.5-4.3-1.1-5.398c-0.4-0.7-1.2-0.9-1.9-0.9
			c-0.6,0-1.1,0.1-1.4,0.2l0.6-1.102h-1.1c0.2-0.398,0.5-0.8,0.6-1c0.1-0.198,0.1-0.398,0.3-0.8c0.4-1,1.3-1.7,2.5-1.7
			c1.5,0,2.4,1,3.2,1.9c0.4,0.4,1.1,1.4,1.8,2.1c0.5,0.5,1.5,1,3,2.602c0.9,0.898,1.9,2.1,3,3.7c3.8,5.6,6.4,10.6,7.8,14.5l0,0
			c-4-2.7-7.5-5.302-10.3-8.5c-2-2.302-3.7-4.9-5.2-8.2c-0.1-0.2-0.2-0.4-0.3-0.602c0-0.1-0.1-0.1-0.1-0.1c-0.1,0-0.1,0.1-0.1,0.1
			c0,0.102,0,0.302,0.1,0.7c0.8,3.5,3,6.602,5.4,9.2s5.1,4.8,7.3,6.4l1.7,4.898c0,0.102,0.1,0.2,0.1,0.4c0,0.1,0,0.2-0.1,0.2
			c0,0-0.1,0.1-0.3,0.1h-0.5c-0.2,0-0.3,0-0.4-0.1c-0.1-0.102-0.1-0.2-0.2-0.302c-0.2-0.5-1.1-3-1.2-3.6c0-0.1-0.1-0.1-0.2-0.1
			c-0.1,0-0.1,0.1-0.1,0.1c0,0.1,0,0.1,0.1,0.4c0.2,1.198,0.5,2.5,0.6,3c0,0.198,0.1,0.398,0.1,0.6c0,0.1,0,0.2-0.2,0.3l-0.5,0.5
			c-0.1,0.102-0.2,0.2-0.3,0.2s-0.2-0.1-0.3-0.3c-0.6-2.8-1.5-6.3-1.8-7.3c-0.1-0.2-0.1-0.302-0.2-0.302c-0.1,0-0.2,0.102-0.2,0.2
			c0,0.102,0,0.2,0,0.2c0.1,1,0.7,4.7,1.4,8c0.1,0.6,0.3,0.9,0.8,0.9c0.2,0,0.4-0.102,0.6-0.302c0.3-0.3,0.4-0.398,0.8-0.8
			c0.3-0.3,0.5-0.398,0.9-0.398h1.2c0.3,0,0.4-0.102,0.6-0.2c0.1-0.102,0.2-0.3,0.2-0.5s-0.1-0.4-0.2-0.7c-0.3-0.8-1.3-3.6-1.6-4.3
			l0,0c1,0.8,2.4,1.7,3.1,1.7c0.2,0,0.3-0.102,0.3-0.4C56.4,673.35,54,667.35,48.4,659.151 M26.3,685.85c-2.8,0-4.3,2.2-4.3,4.4
			c0,2.4,1.7,4.6,4.3,4.6c1.3,0,2.6-0.5,3.4-1.398c0.3-0.4,0.6-0.9,0.6-1.2c0-0.1,0-0.2-0.1-0.3c-0.1-0.102-0.2-0.102-0.3-0.102
			h-1.3c-0.3,0-0.4,0.102-0.6,0.302c-0.4,0.5-0.9,0.8-1.7,0.8c-1.2,0-2-0.9-2-1.9h5.5c0.2,0,0.4-0.1,0.5-0.2
			c0.1-0.1,0.2-0.3,0.2-0.698c0-1-0.3-2.102-1-3C28.9,686.55,27.8,685.85,26.3,685.85 M34.8,685.85c-2.2,0-3.6,1-3.6,2.7
			c0,0.602,0.2,1.102,0.6,1.4c0.4,0.398,1,0.7,1.8,1l1.8,0.5c0.5,0.1,0.9,0.3,0.9,0.7c0,0.698-0.7,0.898-1.5,0.898
			c-0.4,0-0.8-0.1-1.1-0.2c-0.2-0.1-0.4-0.3-0.5-0.5c-0.1-0.198-0.2-0.3-0.3-0.398c-0.1-0.102-0.2-0.102-0.4-0.102h-1
			c-0.2,0-0.3,0.102-0.4,0.2c-0.1,0.102-0.1,0.2-0.1,0.3c0,0.302,0.1,0.7,0.4,1.102c0.6,0.8,1.9,1.5,3.5,1.5s3.8-0.7,3.8-2.8
			c0-0.5-0.2-1-0.5-1.4c-0.4-0.5-0.9-0.8-1.8-1.1l-1.8-0.5c-0.7-0.2-1.1-0.302-1.1-0.802c0-0.398,0.4-0.8,1.3-0.8
			c0.5,0,1,0.102,1.4,0.5c0.3,0.3,0.2,0.4,0.4,0.5c0.1,0.102,0.3,0.102,0.5,0.102H38c0.1,0,0.2,0,0.3-0.102
			c0.1-0.1,0.1-0.2,0.1-0.398c0-0.4-0.3-0.9-0.7-1.4C37.1,686.35,36.1,685.85,34.8,685.85 M21.1,649.651c0.2-0.4,0.5-0.602,1-0.602
			c0.6,0,1.1,0.5,1.1,1.102c0,0.398-0.2,0.698-0.4,0.898c0.1,0.2,0.1,0.4,0.1,0.602c0,0.698-0.4,1.1-1.1,1.398
			c-0.1,0.4-0.3,0.8-0.6,1c-0.5,0.5-1,0.5-1,0.7c0,0.1,0.1,0.2,0.3,0.2c0.9,0,1.8-0.5,1.9-1.3c0.8-0.302,1.4-1.102,1.4-1.802
			c0-0.198,0-0.3-0.1-0.5c0.2-0.198,0.5-0.6,0.5-1.198c0-0.5-0.2-1-0.6-1.4c-0.3-0.3-0.8-0.5-1.4-0.5c-0.8,0-1.3,0.4-1.6,0.9
			c-0.9,0-2,1-2,2.3h-0.1c-0.1-0.5-0.6-0.8-1-0.8c-0.3-1-1.1-1.9-2.3-1.9c-0.1,0-0.3,0-0.5,0c-0.4-0.3-0.8-0.5-1.3-0.5
			c-1.1,0-2,0.9-2,2c0,0.7,0.3,1.2,0.9,1.6v0.102c0,0.898,1,2.2,2.4,2.2c0,0.198,0.3,0.5,0.6,0.6v0.1h-0.1c-2,0-2.8,0.9-2.8,1.602
			c-0.6,0.2-1,0.898-1,1.5c0,1.2,0.9,2,2,2c0.4,0,0.8-0.2,1-0.4c0.2,0.102,0.5,0.102,0.7,0.102c0.5,0,1.2-0.2,1.6-0.802
			c0.1,0,0.1,0,0.2,0c0.7,0,1.3-0.5,1.6-1.1c0.1-0.2,0.1-0.3,0.1-0.4c0-0.1,0-0.198-0.1-0.198s-0.1,0.1-0.3,0.3
			c-0.4,0.398-1.1,0.6-1.8,0.6c-0.3,0.5-0.8,0.8-1.3,0.8c-0.4,0-0.6-0.1-0.9-0.3c-0.2,0.3-0.5,0.4-0.8,0.4c-0.6,0-1.1-0.4-1.1-1.102
			c0-0.398,0.3-0.8,0.7-1c0.1-0.8,0.9-1.3,2-1.3c0.1,0,0.3,0,0.4,0c0.2-0.3,0.5-0.5,1.1-0.6c0.1,0,0.2,0,0.3-0.102
			c0.1,0,0.1-0.1,0.1-0.198c0-0.102,0-0.102-0.1-0.2c-0.1,0-0.2,0-0.3-0.102c-0.5-0.1-1.1-0.398-1.4-1.198c-1.2,0-2.1-1-2.1-2
			v-0.102c-0.4-0.2-0.7-0.5-0.7-1c0-0.6,0.5-1.1,1.1-1.1c0.4,0,0.7,0.2,0.9,0.398c0.2,0,0.4-0.1,0.5-0.1c0.9,0,1.8,0.6,2,1.7
			c1.1,0.1,1.4,1.1,1.5,1.5c0,0.2,0.1,0.398,0.2,0.398s0.2-0.198,0.2-0.398c0.1-0.4,0.2-0.7,0.5-1
			C19.2,650.651,20,649.651,21.1,649.651 M39.8,686.35h-0.4c-0.2,0-0.3,0-0.4,0.102c-0.1,0.1-0.2,0.2-0.2,0.398v0.5
			c0,0.2,0,0.302,0.2,0.4c0.1,0.1,0.2,0.1,0.4,0.1h0.4v4c0,1,0.3,1.7,0.8,2.2s1.1,0.8,2.2,0.8h0.7c0.2,0,0.3,0,0.4-0.1
			s0.2-0.2,0.2-0.4v-0.698c0-0.2-0.1-0.302-0.2-0.4s-0.2-0.1-0.4-0.1h-0.1c-0.4,0-0.7-0.102-0.9-0.302c-0.2-0.198-0.4-0.6-0.4-1
			v-3.8h1.4c0.2,0,0.3,0,0.4-0.1c0.1-0.102,0.2-0.2,0.2-0.4v-0.5c0-0.2,0-0.3-0.2-0.398c-0.1-0.102-0.2-0.102-0.4-0.102h-1.4v-2.7
			c0-0.198-0.1-0.398-0.2-0.5c-0.1-0.1-0.3-0.198-0.5-0.198h-0.9c-0.2,0-0.4,0.1-0.5,0.198c-0.1,0.102-0.2,0.302-0.2,0.5V686.35
			L39.8,686.35z M44.7,694.151c0,0.198,0.1,0.398,0.2,0.5c0.1,0.1,0.3,0.198,0.5,0.198h0.9c0.2,0,0.4-0.1,0.5-0.198
			c0.1-0.102,0.2-0.302,0.2-0.5v-10.4c0-0.2-0.1-0.4-0.2-0.5c-0.1-0.1-0.3-0.2-0.5-0.2h-0.9c-0.2,0-0.4,0.102-0.5,0.2
			s-0.2,0.3-0.2,0.5V694.151z M23.4,656.151c-0.4,0.5-0.6,0.8-1.5,1.8c-1.1,1.3-1.7,2.398-2.7,4.8c0.2,0,0.4,0,0.6,0
			c0.1,0,0.2,0,0.4,0l0.1-0.3c0.5-1.2,1.3-2.8,2.3-4l0.4-0.4c1.1-1.2,1.7-2,2.1-3.7c0.1-0.6,0.3-1.1,0.7-1.5
			c0.4-0.398,0.8-0.5,1.3-0.5c0.4,0,0.7,0.102,1.1,0.302c0.4,0.198,0.5,0.198,0.9,0.198c0.1,0,0.2,0,0.3,0l-0.6,0.7l0.8,0.5
			c-0.9,0.3-1.4,1.2-1.6,1.602c0,0.1,0,0.1,0,0.198c0,0.102,0,0.102,0.1,0.102s0.2-0.102,0.3-0.2c0.5-0.6,0.8-0.9,2.5-1.5l-1.2-0.9
			l0.9-1.3h-0.9c-0.5,0-0.9,0-1.4-0.2c-0.6-0.3-1-0.398-1.5-0.398c-0.7,0-1.3,0.2-1.8,0.7c-0.6,0.5-0.8,1.3-1,2.1
			C24.1,654.651,23.9,655.45,23.4,656.151 M25.2,661.55c-0.5,0.602-1.1,1.4-1.6,2.3c0.2,0.102,0.7,0.302,0.8,0.4
			c0.5-0.8,1.3-1.8,1.8-2.6c0.5-0.7,0.6-1,0.7-1.9c0-0.2,0-0.3,0-0.5c0-0.5,0.2-1,0.6-1.4c0.3-0.3,0.8-0.5,1.3-0.5
			s0.8,0.102,1.2,0.102c0.3,0,0.5-0.102,0.7-0.102l0.2-0.1l-0.4,0.9l0.9,0.3c-0.5,0.3-1.8,1.8-1.8,3.6c0,0.602,0.1,1.2,0.2,1.7
			c0,0.1,0,0.1,0.1,0.1s0.1,0,0.1-0.1v-0.2c0-0.5,0.1-1.398,0.3-2.1c0.4-1.3,1.3-2.5,2.3-3l-1.4-0.602l0.6-1.398l-0.6,0.1
			c-0.4,0.102-0.7,0.2-1,0.2c-0.2,0-0.5,0-0.8-0.1c-0.2-0.102-0.5-0.102-0.8-0.102c-0.6,0-1.3,0.2-1.8,0.7c-0.8,0.8-0.9,1.7-0.9,2.4
			C26,660.55,25.8,660.85,25.2,661.55 M45.7,662.05c-0.1-0.1-0.1-0.1-0.2-0.1s-0.1,0.1-0.1,0.1c0,0.102,0.1,0.2,0.3,0.602
			c0.6,1,1.4,2.1,2.3,3c1,1.1,2.2,2,3.4,2.898l0.4,0.3c0.1,0,0.1,0.102,0.1,0.102c0.1,0,0.1-0.102,0.1-0.102s0-0.1-0.1-0.1
			c-1.2-1.1-2.4-2.3-3.6-3.6C47.4,664.151,46.5,663.05,45.7,662.05 M24.3,689.35c0.1-1,0.9-1.698,2-1.698c1.1,0,1.9,0.698,2,1.698
			H24.3z M20.1,658.35c0.1-0.198,0.5-0.698,0.6-0.8c-0.6-1.2-1.6-2.398-2.1-2.898l-0.4,0.398C18.7,655.651,19.4,656.651,20.1,658.35
			 M14.2,651.151c-0.1-0.102-0.1-0.102-0.1-0.2c0-0.102,0-0.102,0.1-0.102h0.1c0.6,0.2,1.1,0.5,1.5,0.9c0.4,0.3,0.7,0.6,1.1,1.1
			l-0.3,0.4C16.2,652.95,14.9,651.651,14.2,651.151 M19.9,653.95l-0.4-0.3c0.3-0.7,0.6-1.302,1-1.7c0.3-0.3,0.6-0.602,0.9-0.9
			c0.1-0.1,0.1-0.1,0.2-0.1s0.1,0.1,0.1,0.1v0.102C21.1,651.95,20.2,653.45,19.9,653.95 M14.5,657.651c-0.1,0-0.2,0.1-0.2,0.1
			c-0.1,0-0.1-0.1-0.1-0.1c0-0.102,0-0.102,0.1-0.102c1-0.8,1.8-1.1,3-1.3l0.1,0.5L14.5,657.651z M34.9,651.45
			c0-0.3,0.1-0.8,0.7-0.8c0.2,0,0.3,0,0.5,0.1c0.2,0.1,0.3,0.2,0.3,0.4c0,0.1-0.1,0.3-0.4,0.5c-0.2,0.198-0.5,0.398-0.7,0.398
			C35,651.95,34.9,651.651,34.9,651.45 M26.8,653.651c0-0.302,0.2-0.7,0.6-0.7c0.2,0,0.4,0.1,0.5,0.2c0.1,0.1,0.1,0.198,0.1,0.3
			c0,0.2-0.2,0.398-0.4,0.5c-0.2,0.1-0.3,0.2-0.5,0.2C26.9,654.151,26.8,653.95,26.8,653.651 M28.7,658.651c0-0.102,0-0.2,0-0.302
			c0.1-0.198,0.2-0.398,0.5-0.398c0.2,0,0.3,0,0.5,0.1c0.1,0.102,0.2,0.2,0.2,0.3c0,0.302-0.6,0.7-0.9,0.7
			C28.8,659.151,28.7,658.85,28.7,658.651 M55.6,684.651c0.2,0,0.3,0,0.4-0.102c0.1-0.1,0.2-0.2,0.2-0.398v-0.7
			c0-0.3-0.1-0.4-0.2-0.5c-0.1-0.102-0.2-0.2-0.4-0.2c-0.1,0-0.3,0-0.5,0l-6.4,0.6c-0.2,0-0.3,0.102-0.3,0.102
			c-0.1,0.1-0.1,0.2-0.1,0.3v0.4c0,0.198,0,0.198,0.1,0.3c0.1,0.1,0.2,0.1,0.3,0.1h6.9V684.651z M52.1,685.85
			c-2.8,0-4.3,2.2-4.3,4.4c0,2.4,1.7,4.6,4.3,4.6c1.3,0,2.6-0.5,3.4-1.398c0.3-0.4,0.6-0.9,0.6-1.2c0-0.1,0-0.2-0.1-0.3
			c-0.1-0.102-0.2-0.102-0.3-0.102h-1.3c-0.3,0-0.4,0.102-0.6,0.302c-0.4,0.5-0.9,0.8-1.7,0.8c-1.2,0-2-0.9-2-1.9h5.6
			c0.2,0,0.4-0.1,0.5-0.2c0.1-0.1,0.2-0.3,0.2-0.698c0-1-0.3-2.102-1-3C54.7,686.55,53.6,685.85,52.1,685.85 M50.1,689.35
			c0.1-1,0.9-1.698,2-1.698s1.9,0.698,2,1.698H50.1z M25.5,668.651c-1.1,0-1.6-0.5-1.6-1.2c0-1.102,2-2.2,3.8-2.9l0.5,0.602
			c-1.1,0.398-3.3,1.398-3.3,2.198c0,0.302,0.2,0.5,0.8,0.5c1.2,0,2.4-0.6,3.6-1.1c0.1,0,0.2-0.1,0.3-0.1c0.2,0,0.2,0,0.4,0.198
			l0.2,0.302C28.8,667.85,27.1,668.651,25.5,668.651 M28.5,669.05c-1.1,0.602-2.1,1-3.1,1c-1.1,0-2-0.5-2.8-1.7
			c-0.3-0.5-0.6-1.1-0.9-1.698c-0.4-0.7-0.8-1-1.5-1c-0.7,0-1.3,0.3-2,0.6v0.2c0.1,0.2,0.2,0.398,0.4,0.398c0.1,0,0.2,0,0.3-0.1
			c0.4-0.1,0.7-0.2,1.1-0.2c0.6,0,0.9,0.4,1.3,1.2l0.2,0.3c-0.4,0.102-1.4,0.2-2.1,0.2h-0.3l0.1,0.3c0,0.102,0.1,0.3,0.2,0.3
			c0.1,0.102,0.4,0.102,0.7,0.102c0.9,0,1.6-0.102,2-0.2c1,1.5,2.3,2,3.6,2c1.1,0,2.2-0.4,3.3-1L28.5,669.05z M29.6,669.35
			l-0.2-0.698c1.6-0.9,3.1-1.602,5.5-1.802c0,0.9,0,2.102,0.7,2.102c0.6,0,2-1.602,3.5-3.602c0.1,0.102,0.4,0.302,0.6,0.4l-0.4,0.5
			c-1.5,2-2.8,3.6-3.9,3.6c-1,0-1.4-1.198-1.4-2C32.5,667.85,31.1,668.35,29.6,669.35 M50.6,653.151c-0.6,0-0.8-0.302-0.8-0.802
			c0-1,0.6-2.398,1-3.3h-1c-0.5,1-2.5,4.102-3.5,5.4l0.6,0.7c0.6-0.602,1.2-1.7,1.9-2.802h0.1c0,0.102,0,0.102,0,0.2
			c0,0.9,0.5,1.602,1.6,1.602c0.7,0,1.8-0.302,2.8-0.7c0.9-0.3,1.6-0.602,2-0.7v-1c-0.4,0.1-1.4,0.5-2.3,0.8
			C52.2,652.95,51.2,653.151,50.6,653.151 M52.8,656.151c1-0.4,2.7-1.102,3.7-1.4v-1c-2,0.7-5.5,2.2-7.8,3.5
			c0.1,0.1,0.5,0.7,0.5,0.7c1-0.4,1.9-0.7,2.7-0.7c1.1,0,2.1,0,3.6-0.4v-0.698c-0.9,0.198-1.8,0.398-2.4,0.398c-0.4,0-0.5,0-0.5-0.2
			C52.6,656.151,52.6,656.151,52.8,656.151 M32,661.35h4.1l-0.3-0.698h-3.4L32,661.35z M17.7,665.151c0.4,0,0.8-0.102,1.1-0.302
			c0.3-0.1,0.6-0.3,1.1-0.3c1,0,2.3,0.5,3.4,1c0.1,0,0.1,0,0.2,0c0.2,0,0.3-0.1,0.4-0.2l0.1-0.3c-1.2-0.7-3.2-1.5-4.2-1.5
			c-0.5,0-0.8,0.102-1.1,0.2c-0.4,0.1-0.7,0.3-1,0.3c-0.8,0-2.9-0.8-2.9-1.6c0-0.9,3.3-1.3,3.6-1.3l0.3-0.7
			c-2.4,0-5.2,0.8-5.2,1.898c0,0.302,0.2,0.5,0.2,0.802c0,0.398-0.2,0.698-0.2,1.1c0,0.3,0.2,0.7,0.4,1c0.2,0.3,0.5,0.6,0.5,0.9
			c0,0.198-0.1,0.5-0.1,1c0,1.1,0.6,1.698,1.8,3l0.2,0.3c-1,0.398-2.8,1.2-3.3,1.398c-1.5,0.602-1.9,1.4-1.9,2.602c0,0.5,0,1,0,1.5
			h0.3c0.6,0,0.7-0.4,0.7-0.7c0-0.2,0-0.5,0-0.8c0-0.7,0-1.2,1.1-1.7c0.4-0.2,2.5-1.1,4.1-1.7c0.5-0.2,0.9-0.398,1.4-0.398
			s1.1,0.198,1.9,0.698c0.6,0.4,1.3,0.9,1.9,1.5l0.7-0.5c-0.6-0.698-1.4-1.3-2.2-1.8s-1.5-0.8-2.1-0.8c-0.3,0-0.5,0-0.7,0.1
			c-0.2,0.102-0.4,0.102-0.7,0.102s-0.5-0.102-0.9-0.5c-0.1-0.2-1-1.102-1.2-1.4c-0.1-0.1-0.2-0.398-0.2-0.7c0-0.1,0-0.3,0.1-0.398
			c0.7,0.6,1.7,0.898,2.8,1.1l-0.2-0.8c-1.6-0.4-3.3-1.8-3.3-2.7c0-0.2,0-0.3,0.1-0.5C15.5,664.55,16.9,665.151,17.7,665.151
			 M29.2,665.151c1-0.7,2-0.802,2.9-0.802c0.5,0,1.1,0.102,1.7,0.2c0.5,0.102,1,0.102,1.5,0.102c1.1,0,2.2-0.4,2.7-0.602
			c0.1,0.2,0.4,0.4,0.5,0.5c-0.2,0.102-1.7,0.9-3.2,0.9c-0.7,0-1.3-0.102-1.8-0.2s-1-0.1-1.5-0.1s-1.7,0.198-2.3,0.5L29.2,665.151z
			 M44,668.151c-1.2,2.5-3,4.3-4.9,5.398c-0.9,0.5-1.7,0.8-3.4,0.8H32c-1.3,0-2.2,0.2-2.8,0.302c-0.7,0.198-1.1,0.398-1.9,0.398
			c-1.1,0-2-0.5-2.5-1l0.9-0.7l-0.4-0.6c-0.3,0.2-3.4,2.5-4,3l0,0c0-0.2,0-0.3,0-0.4c0-1.8-0.8-2.198-2-2.698l-0.8,0.5
			c1.7,0.6,2.1,1,2.1,2.3c0,1-0.4,1.398-0.9,1.7c-0.5,0.3-1.2,0.5-1.8,0.5c-0.2,0-0.4,0-0.4,0.1c-0.1,0.1-0.1,0.2-0.1,0.4v0.3h0.2
			c1.1,0,2.1-0.2,3.1-1l3.5-2.8c0.5,0.6,1.8,1.398,3.3,1.398c0.8,0,1.4-0.2,2.2-0.398c0.6-0.2,1.2-0.302,2.5-0.302h3.7
			c1.9,0,2.8-0.398,3.9-1c2.2-1.198,4.1-3.3,5.2-5.8C44.4,668.35,44.2,668.151,44,668.151 M38,671.151c1-1.5,1.8-2.9,3.9-4
			c-0.2-0.102-0.5-0.302-0.7-0.5c-0.8,0.398-1.6,1.1-2.3,1.8c-1.6,1.7-1.4,2.6-3.1,3.3c-0.4,0.2-0.9,0.3-1.6,0.5
			c-0.4-1.2-1.4-2.4-2.4-2.4c-0.7,0-1.5,0.4-2.5,0.802c-1.1,0.5-2.1,1.1-2.5,1.3l0.4,0.6c0.3-0.2,1.3-0.7,2.3-1.1
			c0.8-0.4,1.6-0.7,2.1-0.7c0.8,0,1.4,0.9,1.6,1.7c-1.1,0.3-2.8,0.3-3.4,0.3c-0.2,0-0.3,0-0.4,0.1c-0.1,0.102-0.1,0.2-0.2,0.4
			l-0.1,0.3h0.6c3,0,5.8-0.5,7.6-1.6c0.3,0.1,0.5,0.1,0.8,0.1c1,0,2.1-0.6,2.8-1.1c0.2-0.2,0.3-0.4,0.3-0.5c0-0.102,0-0.2,0-0.2
			v-0.4c-1,0.802-1.8,1.302-2.7,1.302C38.2,671.151,38.1,671.151,38,671.151"/>
	</g>
</g>
</svg>
