<?xml version="1.0" encoding="utf-8"?>
<!-- Generator: Adobe Illustrator 15.1.0, SVG Export Plug-In . SVG Version: 6.00 Build 0)  -->
<!DOCTYPE svg PUBLIC "-//W3C//DTD SVG 1.1//EN" "http://www.w3.org/Graphics/SVG/1.1/DTD/svg11.dtd">
<svg version="1.1" id="Layer_1" xmlns="http://www.w3.org/2000/svg" xmlns:xlink="http://www.w3.org/1999/xlink" x="0px" y="0px"
	 width="407px" height="368px" viewBox="0 0 407 368" enable-background="new 0 0 407 368" xml:space="preserve">
<path fill="#DFDEE4" d="M33.249,244.346c0.601-0.4-27.357-65.574-19.712-67.584c7.644-2.012,56.924-12.068,58.936-5.633
	c2.011,6.436,4.222,62.964,4.222,62.964"/>
<path fill="none" stroke="#1D4B66" stroke-width="5.9668" stroke-linecap="round" stroke-miterlimit="10" d="M33.249,244.346
	c0.601-0.4-27.357-65.574-19.712-67.584c7.644-2.012,56.924-12.068,58.936-5.633c2.011,6.436,4.222,62.964,4.222,62.964"/>
<path fill="#DFDEE4" d="M103.129,250.067c0,7.264-16.271,13.145-36.35,13.145c-20.076,0-36.351-5.881-36.351-13.145
	c0-7.256,16.275-13.146,36.351-13.146C86.857,236.922,103.129,242.812,103.129,250.067"/>
<path fill="none" stroke="#1D4B66" stroke-width="5.9668" stroke-linecap="round" stroke-miterlimit="10" d="M103.129,250.067
	c0,7.264-16.271,13.145-36.35,13.145c-20.076,0-36.351-5.881-36.351-13.145c0-7.256,16.275-13.146,36.351-13.146
	C86.857,236.922,103.129,242.812,103.129,250.067z"/>
<line fill="none" stroke="#1D4B66" stroke-width="5.9668" stroke-linecap="round" stroke-miterlimit="10" x1="94.396" y1="258.418" x2="94.396" y2="295.029"/>
<line fill="none" stroke="#1D4B66" stroke-width="5.9668" stroke-linecap="round" stroke-miterlimit="10" x1="82.328" y1="263.246" x2="82.328" y2="316.953"/>
<line fill="none" stroke="#1D4B66" stroke-width="5.9668" stroke-linecap="round" stroke-miterlimit="10" x1="45.317" y1="262.443" x2="45.317" y2="298.65"/>
<line fill="none" stroke="#1D4B66" stroke-width="5.9668" stroke-linecap="round" stroke-miterlimit="10" x1="34.655" y1="257.413" x2="34.655" y2="317.154"/>
<polyline fill="#C6C5CF" points="183.825,262.265 114.742,294.646 400.778,351.855 399.706,277.376 "/>
<path fill="none" stroke="#1D4B66" stroke-width="5.6005" stroke-linecap="round" stroke-miterlimit="10" d="M282.94,161.562
	c0,0-1.096,17.079-11.171,23.651c-10.071,6.573-23.873,13.143-23.873,13.143"/>
<path fill="none" stroke="#1D4B66" stroke-width="5.6005" stroke-linecap="round" stroke-miterlimit="10" d="M314.899,300.763
	c0,0,3.784-35.374,1.866-79.82"/>
<path fill="none" stroke="#1D4B66" stroke-width="5.6005" stroke-linecap="round" stroke-miterlimit="10" d="M288.758,301.694
	c0,0,2.246-34.473,1.871-79.813"/>
<path fill="#FFFFFF" d="M316.157,150.528c4.28,7.585,10.875,10.66,15.826,31.023c1.952,8.021,2.401,15.326,0,27.274
	c-0.854,4.268-10.674,11.745-21.287,13.513c-5.598,0.934-12.225,0.363-21.476-0.929c-3.332-0.468-16.806-3.27-17.734-13.212
	c-0.712-7.567-3.313-15.543,0-27.28c2.799-9.925,5.875-14.559,18.219-32.288c12.28-17.631,11.33-17.316,11.33-17.316
	S311.77,142.763,316.157,150.528"/>
<g>
	<g>
		<defs>
			<rect id="SVGID_1_" x="272.598" y="145.179" width="27.598" height="72.569"/>
		</defs>
		<clipPath id="SVGID_2_">
			<use xlink:href="#SVGID_1_"  overflow="visible"/>
		</clipPath>
		<path clip-path="url(#SVGID_2_)" fill="#C3C3C8" d="M279.7,165.782c1.946-3.998,4.595-7.631,6.433-11.661
			c0.956-2.083,2.342-5.24,4.877-5.968c0.459-0.376,0.973-0.64,1.508-0.801c-0.615-0.287-1.231-0.591-1.839-0.925
			c-0.68-0.374-1.36-0.794-2.048-1.25c4.017,1.05,8.04,1.979,11.474,4.401c-0.469-0.063-0.93-0.132-1.397-0.219
			c0.901,1.029,1.491,2.377,1.488,3.93c-0.004,4.294-2.338,8.074-4.647,11.608c-3.86,5.909-6.589,10.89-7.469,17.951
			c-0.74,6.031-0.106,12.542,1.33,18.429c1.125,4.598,5.605,7.431,6.482,12.044c0.911,4.749-3.174,4.892-7.034,3.997
			c-0.935,0.245-1.995,0.037-2.523-0.729c-1.111-0.385-2.082-0.782-2.742-1.092c-7.719-3.638-10.36-10.185-10.882-18.052
			C271.977,186.429,274.875,175.692,279.7,165.782"/>
	</g>
</g>
<path fill="none" stroke="#1D4B66" stroke-width="5.6005" stroke-miterlimit="10" d="M317.092,150.528
	c4.282,7.585,10.875,10.66,15.827,31.023c1.951,8.021,2.396,15.326,0,27.274c-0.853,4.268-10.675,11.745-21.29,13.513
	c-5.602,0.934-12.223,0.363-21.472-0.929c-3.333-0.468-16.808-3.27-17.742-13.212c-0.71-7.567-3.308-15.543,0-27.28
	c2.804-9.925,5.875-14.559,18.219-32.288c12.285-17.631,11.33-17.316,11.33-17.316S312.704,142.763,317.092,150.528z"/>
<path fill="#FFFFFF" d="M278.026,122.445c0,13.923,11.28,25.204,25.202,25.204c13.919,0,25.203-11.281,25.203-25.204
	s-11.284-25.205-25.203-25.205C289.307,97.241,278.026,108.522,278.026,122.445"/>
<path fill="#DFDEE4" d="M300.154,147.236c-2.379-0.8-4.77-1.565-7.079-2.533c0.127-0.051,0.248-0.115,0.376-0.153
	c-0.62-0.287-1.23-0.595-1.84-0.925c-7.134-3.927-15.314-13.091-11.346-21.303c4.35-8.984,12.86,3.474,15.604,6.744
	c3.003,3.573,7.554,5.591,12.141,5.938c1.023-0.503,1.958-0.434,2.729,0.002c5.209-0.369,10.098-2.965,12.413-7.996
	c0.998-2.18,3.902-1.003,4.217,0.941c1.871-0.913,4.397,1.15,3.082,3.114c-0.527,0.778-1.079,1.565-1.676,2.329
	c-0.409,2.108-1.906,3.872-3.59,5.295c-0.521,0.441-1.098,0.602-1.65,0.579c-0.055,0.46-0.263,0.894-0.685,1.214
	c-6.892,5.271-15.123,7.631-23.213,6.077C299.828,146.767,299.997,147.003,300.154,147.236"/>
<path fill="none" stroke="#1D4B66" stroke-width="5.6005" stroke-miterlimit="10" d="M278.958,122.445
	c0,13.923,11.278,25.204,25.206,25.204c13.919,0,25.209-11.281,25.209-25.204s-11.29-25.205-25.209-25.205
	C290.236,97.241,278.958,108.522,278.958,122.445z"/>
<path fill="none" stroke="#1D4B66" stroke-width="5.6005" stroke-linecap="round" stroke-miterlimit="10" d="M315.171,150.361
	c0,0-3.766,6.569-11.729,6.569c-7.964,0-10.52-6.569-10.52-6.569"/>
<polyline fill="#C6C5CF" points="164.706,234.213 164.706,289.852 314.996,311.904 360.797,283.406 360.117,229.125 "/>
<polyline fill="none" stroke="#1D4B66" stroke-width="5.6005" stroke-linecap="round" stroke-miterlimit="10" points="
	164.706,234.213 164.706,289.852 314.996,311.904 360.797,283.406 360.117,229.125 "/>
<polygon fill="#C6C5CF" points="147.743,231.833 147.743,217.243 225.771,198.924 367.579,204.007 364.53,226.404 311.604,247.439 
	"/>
<polygon fill="none" stroke="#1D4B66" stroke-width="5.6005" stroke-linecap="round" stroke-miterlimit="10" points="
	147.743,231.833 147.743,217.243 225.771,198.924 367.579,204.007 364.53,226.404 311.604,247.439 "/>
<polyline fill="none" stroke="#1D4B66" stroke-width="5.6005" stroke-linecap="round" stroke-miterlimit="10" points="
	148.759,217.582 308.215,232.173 367.246,205.372 "/>
<path fill="#C3C3C8" d="M288.631,145.177l-1.355,6.271l2.017,8.66l10.072-6.042l12.286,7.851l7.656-9.867l-2.82-5.846
	c0,0-11.281,3.026-17.122,2.018C293.52,147.21,288.631,145.177,288.631,145.177"/>
<path fill="none" stroke="#1D4B66" stroke-width="5.6005" stroke-linecap="round" stroke-miterlimit="10" d="M288.631,145.177
	l-1.355,6.271l2.017,8.66l10.072-6.042l12.286,7.851l7.656-9.867l-2.82-5.846c0,0-11.281,3.026-17.122,2.018
	C293.52,147.21,288.631,145.177,288.631,145.177z"/>
<path fill="#1B98C6" d="M299.364,154.067c0,0-3.423,6.645-5.437,22.76c-2.015,16.123-1.21,24.582-1.21,24.582"/>
<path fill="none" stroke="#1D4B66" stroke-width="5.6005" stroke-linecap="round" stroke-miterlimit="10" d="M299.364,154.067
	c0,0-3.423,6.645-5.437,22.76c-2.015,16.123-1.21,24.582-1.21,24.582"/>
<path fill="#DFDEE4" d="M209.357,191.035l0.006,0.717l0.177,18.405c0,0,3.035,4.111,7.505,3.038
	c4.465-1.072,6.966-2.681,6.966-2.681l-0.177-17.693C223.835,192.821,209.898,191.035,209.357,191.035"/>
<path fill="none" stroke="#1D4B66" stroke-width="3.0621" stroke-linecap="round" stroke-miterlimit="10" d="M209.357,191.035
	l0.006,0.717l0.177,18.405c0,0,3.035,4.111,7.505,3.038c4.465-1.072,6.966-2.681,6.966-2.681l-0.177-17.693
	C223.835,192.821,209.898,191.035,209.357,191.035z"/>
<path fill="#807E96" d="M183.915,145.676c-0.234,0.709-1.176,44.187-1.176,44.187l61.809,5.867l5.408-3.057l-0.943-49.814
	L183.915,145.676z"/>
<path fill="none" stroke="#1D4B66" stroke-width="4.0839" stroke-linecap="round" stroke-miterlimit="10" d="M183.915,145.676
	c-0.234,0.709-1.176,44.187-1.176,44.187l61.809,5.867l5.408-3.057l-0.943-49.814L183.915,145.676z"/>
<path fill="#FFFFFF" d="M243.264,194.341l-1.18-45.29c0,0-56.454,0.298-57.34,0.298l-0.44,38.812L243.264,194.341z"/>
<path fill="none" stroke="#1D4B66" stroke-width="1.0218" stroke-linecap="round" stroke-miterlimit="10" d="M243.264,194.341
	l-1.18-45.29c0,0-56.454,0.298-57.34,0.298l-0.44,38.812L243.264,194.341z"/>
<line fill="none" stroke="#1D4B66" stroke-width="1.0218" stroke-linecap="round" stroke-miterlimit="10" x1="201.801" y1="163.463" x2="222.53" y2="163.906"/>
<line fill="none" stroke="#1D4B66" stroke-width="1.0218" stroke-linecap="round" stroke-miterlimit="10" x1="201.355" y1="167.577" x2="222.087" y2="168.023"/>
<line fill="none" stroke="#1D4B66" stroke-width="1.0218" stroke-linecap="round" stroke-miterlimit="10" x1="201.355" y1="170.96" x2="222.087" y2="171.404"/>
<line fill="none" stroke="#1D4B66" stroke-width="1.0218" stroke-linecap="round" stroke-miterlimit="10" x1="201.507" y1="174.929" x2="222.238" y2="175.371"/>
<path fill="#DFDEE4" d="M230.236,207.233c0.585,0,18.434-6.018,18.434-6.018l50.461,2.133l-11.837,7.568L230.236,207.233z"/>
<path fill="none" stroke="#1D4B66" stroke-width="1.0218" stroke-linecap="round" stroke-miterlimit="10" d="M230.236,207.233
	c0.585,0,18.434-6.018,18.434-6.018l50.461,2.133l-11.837,7.568L230.236,207.233z"/>
<line fill="none" stroke="#1D4B66" stroke-width="1.0218" stroke-linecap="round" stroke-miterlimit="10" x1="248.77" y1="202.765" x2="291.004" y2="204.842"/>
<line fill="none" stroke="#1D4B66" stroke-width="1.0218" stroke-linecap="round" stroke-miterlimit="10" x1="244.316" y1="204.253" x2="289.221" y2="206.77"/>
<line fill="none" stroke="#1D4B66" stroke-width="1.0218" stroke-linecap="round" stroke-miterlimit="10" x1="239.722" y1="206.029" x2="285.521" y2="209.285"/>
<path fill="none" stroke="#1D4B66" stroke-width="5.6005" stroke-linecap="round" stroke-miterlimit="10" d="M319.341,153.969
	c-5.047-1.386,26.469,40.437-30.109,52.1"/>
<path fill="#FFFFFF" d="M272.918,219.402c0,0,33.348-14.636,34.069-14.391c0.722,0.235,34.793,1.43,34.793,1.43l-31.915,15.361
	L272.918,219.402z"/>
<path fill="none" stroke="#1D4B66" stroke-width="1.0218" stroke-linecap="round" stroke-miterlimit="10" d="M272.918,219.402
	c0,0,33.348-14.636,34.069-14.391c0.722,0.235,34.793,1.43,34.793,1.43l-31.915,15.361L272.918,219.402z"/>
<path fill="#FFFFFF" d="M272.918,217.005c0,0,33.348-14.636,34.069-14.397s34.793,1.438,34.793,1.438l-31.915,15.357
	L272.918,217.005z"/>
<path fill="none" stroke="#1D4B66" stroke-width="1.0218" stroke-linecap="round" stroke-miterlimit="10" d="M272.918,217.005
	c0,0,33.348-14.636,34.069-14.397s34.793,1.438,34.793,1.438l-31.915,15.357L272.918,217.005z"/>
<path fill="#FFFFFF" d="M272.918,214.362c0,0,33.348-14.636,34.069-14.394c0.722,0.238,34.793,1.437,34.793,1.437l-31.915,15.361
	L272.918,214.362z"/>
<path fill="none" stroke="#1D4B66" stroke-width="1.0218" stroke-linecap="round" stroke-miterlimit="10" d="M272.918,214.362
	c0,0,33.348-14.636,34.069-14.394c0.722,0.238,34.793,1.437,34.793,1.437l-31.915,15.361L272.918,214.362z"/>
<path fill="#FFFFFF" d="M273.16,211.001c0,0,33.348-14.632,34.073-14.393c0.718,0.238,34.785,1.434,34.785,1.434l-31.911,15.359
	L273.16,211.001z"/>
<path fill="none" stroke="#1D4B66" stroke-width="1.0218" stroke-linecap="round" stroke-miterlimit="10" d="M273.16,211.001
	c0,0,33.348-14.632,34.073-14.393c0.718,0.238,34.785,1.434,34.785,1.434l-31.911,15.359L273.16,211.001z"/>
<path fill="#1D4B66" d="M290.587,123.8c0,1.333-1.114,2.417-2.482,2.417c-1.367,0-2.479-1.083-2.479-2.417
	c0-1.335,1.111-2.416,2.479-2.416C289.473,121.385,290.587,122.465,290.587,123.8"/>
<path fill="#1D4B66" d="M304.037,124.32c0,1.337-1.11,2.416-2.483,2.416c-1.369,0-2.48-1.078-2.48-2.416
	c0-1.334,1.111-2.417,2.48-2.417C302.927,121.904,304.037,122.986,304.037,124.32"/>
<line fill="none" stroke="#1D4B66" stroke-width="5.6005" stroke-linecap="round" stroke-miterlimit="10" x1="313.502" y1="305.324" x2="313.502" y2="248.153"/>
<path fill="#1D4B66" d="M277.576,121.983c-3.271-0.421-10.042-6.429-3.203-6.353c-0.138-2.525-1.116-4.79-0.76-7.478
	c0.998,0.167,2.403-0.365,3.365-0.131c-3.747-3.64-2.464-7.567,2.793-7.176c-2.489-3.759-0.704-9.59,4.455-7.155
	c-2.207-6.635,4.147-6.758,8.058-4.036c1.324-3.863,7.299-5.089,9.044-0.973c1.25-3.85,8.89-4.579,9.049-0.033
	c3.49-2.178,14.628-0.791,9.043,4.234c3.991-1.294,6.96,0.082,5.399,4.477c3.143-0.825,4.28,1.717,4.384,4.37
	c2.738,0.376,6.822,5.128,2.756,6.005c2.743,0.57,4.055,3.011,1.604,4.835c2.456,1.309,1.741,6.989,1.851,9.86
	c0.15,3.879-1.727,6.859-5.769,7.107c2.347-7.626-1.526-12.234-4.658-19.2c-2.975-6.635-8.19-13.113-16.027-13.913
	c-8.008-0.813-15.118,2.038-20.755,7.517c-2.24,2.175-5.83,3.984-7.36,6.936c-1.757,3.378-0.465,7.269-3.268,10.212"/>
<path fill="#1D4B66" d="M294.166,101.361c-0.79,3.431,1.499,5.399,4.865,4.997c-0.755,3.788,2.761,5.879,5.829,3.665
	c0.519,1.895,2.468,2.302,4.474,2.023c0.045-0.254,0.103-0.505,0.164-0.76c3.182,1.717,3.371-0.549,5.741-0.898
	c1.85-0.276,4.684,2.551,4.997-1.34c3.313,0.699,3.99-2.355,3.972-4.998c-0.03-3.648-1.073-4.645-4.134-6.387
	c-5.148-2.925-13.37-5.401-19.18-3.477"/>
<path fill="none" stroke="#1D4B66" stroke-width="5.9668" stroke-linecap="round" stroke-miterlimit="10" d="M100.87,187.289
	c0,0,8.196,23.835,16.639,28.053c8.441,4.224,31.032,8.938,31.032,8.938l4.218,12.411"/>
<path fill="#D27D2F" d="M63.316,175.133c-4.563,8.081-11.596,11.359-16.86,33.054c-2.082,8.546-2.563,16.323,0,29.063
	c0.907,4.53,11.362,12.504,22.673,14.387c5.966,1.001,13.019,0.389,22.875-0.994c3.557-0.497,17.909-3.483,18.906-14.077
	c0.755-8.057,3.522-16.562,0-29.056c-2.986-10.574-6.256-15.515-19.414-34.397c-13.086-18.784-12.067-18.452-12.067-18.452
	S67.984,166.855,63.316,175.133"/>
<path fill="#DFDEE4" d="M105.818,202.485c3.643,7.065-2.938,17.719-14.704,23.782c-11.762,6.071-24.26,5.262-27.907-1.805
	c-3.643-7.063,2.937-17.717,14.704-23.782C89.682,194.609,102.175,195.419,105.818,202.485"/>
<path fill="#1B98C6" d="M83.788,202.251h4.515v15.686c0,2.498-0.196,4.251-0.595,5.255c-0.395,1.01-1.051,1.811-1.963,2.404
	c-0.908,0.597-2.002,0.891-3.274,0.891c-2.606,0-4.827-1.142-6.657-3.419l3.248-3.038c0.717,0.813,1.327,1.357,1.836,1.637
	c0.5,0.276,0.987,0.42,1.462,0.42c0.478,0,0.838-0.204,1.073-0.613c0.238-0.408,0.357-1.299,0.357-2.686V202.251z"/>
<g opacity="0.3">
	<g>
		<defs>
			<rect id="SVGID_3_" x="80.315" y="169.431" width="29.411" height="81.173"/>
		</defs>
		<clipPath id="SVGID_4_">
			<use xlink:href="#SVGID_3_"  overflow="visible"/>
		</clipPath>
		<path clip-path="url(#SVGID_4_)" fill="#D27D2F" d="M102.152,192.479c-2.072-4.475-4.887-8.538-6.849-13.046
			c-1.021-2.336-2.495-5.86-5.203-6.679c-0.485-0.414-1.028-0.708-1.6-0.894c0.652-0.317,1.305-0.656,1.959-1.033
			c0.718-0.413,1.453-0.885,2.183-1.396c-4.287,1.171-8.566,2.211-12.223,4.93c0.495-0.079,0.99-0.158,1.489-0.259
			c-0.965,1.163-1.598,2.662-1.591,4.4c0.006,4.802,2.492,9.029,4.951,12.984c4.122,6.614,7.021,12.181,7.953,20.081
			c0.8,6.747,0.124,14.034-1.407,20.616c-1.205,5.145-5.978,8.311-6.913,13.465c-0.963,5.326,3.388,5.475,7.497,4.466
			c0.995,0.282,2.121,0.06,2.689-0.805c1.176-0.427,2.218-0.878,2.917-1.224c8.232-4.07,11.041-11.393,11.6-20.188
			C110.385,215.573,107.298,203.567,102.152,192.479"/>
	</g>
</g>
<path fill="none" stroke="#1D4B66" stroke-width="5.9668" stroke-miterlimit="10" d="M62.318,175.133
	c-4.563,8.081-11.585,11.359-16.863,33.054c-2.078,8.546-2.554,16.323,0,29.063c0.91,4.53,11.366,12.504,22.686,14.387
	c5.963,1.001,13.019,0.389,22.875-0.994c3.547-0.497,17.9-3.483,18.899-14.077c0.751-8.057,3.519-16.562,0-29.056
	c-2.983-10.574-6.263-15.515-19.414-34.397c-13.085-18.784-12.059-18.452-12.059-18.452S66.991,166.855,62.318,175.133z"/>
<path fill="#FFFFFF" d="M111.921,137.075c5.056,13.944-2.152,29.343-16.098,34.397c-13.945,5.048-29.342-2.152-34.393-16.101
	c-5.061-13.94,2.146-29.343,16.098-34.394C91.476,115.924,106.866,123.13,111.921,137.075"/>
<path fill="#DFDEE4" d="M98.754,169.942c2.088-1.67,4.213-3.306,6.169-5.107c-0.139-0.008-0.292-0.027-0.436-0.019
	c0.516-0.51,1.025-1.035,1.503-1.599c5.729-6.522,10.587-18.671,3.636-25.452c-7.614-7.425-11.621,8.148-13.175,12.421
	c-1.717,4.67-5.531,8.338-10.01,10.355c-1.211-0.135-2.124,0.276-2.731,0.994c-5.359,1.516-11.195,0.695-15.336-3.506
	c-1.797-1.818-4.273,0.405-3.885,2.475c-2.201-0.237-3.983,2.746-1.95,4.232c0.804,0.593,1.643,1.178,2.514,1.726
	c1.181,1.961,3.315,3.191,5.526,4.005c0.681,0.25,1.318,0.196,1.864-0.02c0.217,0.435,0.592,0.797,1.128,0.967
	c8.81,2.773,17.913,2.151,25.447-2.344C98.911,169.352,98.822,169.648,98.754,169.942"/>
<path fill="none" stroke="#1D4B66" stroke-width="5.9668" stroke-miterlimit="10" d="M110.986,137.412
	c5.059,13.946-2.152,29.349-16.099,34.4c-13.944,5.051-29.342-2.153-34.395-16.103c-5.059-13.943,2.158-29.344,16.097-34.391
	C90.534,116.261,105.935,123.468,110.986,137.412z"/>
<path fill="none" stroke="#1D4B66" stroke-width="5.9668" stroke-linecap="round" stroke-miterlimit="10" d="M90.132,173.451
	c0,0,2.52,9.291-5.966,9.291c-8.487,0-13.585-12.274-13.585-12.274"/>
<path fill="#1D4B66" d="M79.1,142.371c0-1.815,1.468-3.29,3.287-3.29c1.815,0,3.291,1.475,3.291,3.29
	c0,1.819-1.476,3.288-3.291,3.288C80.567,145.658,79.1,144.189,79.1,142.371"/>
<path fill="#1D4B66" d="M98.388,142.371c0-1.815,1.472-3.29,3.28-3.29c1.826,0,3.3,1.475,3.3,3.29c0,1.819-1.474,3.288-3.3,3.288
	C99.859,145.658,98.388,144.189,98.388,142.371"/>
<path fill="#1D4B66" d="M98.705,159.824c-5.138,0.56-11.76-0.698-13.736-6.11c-0.495-1.353-2.669-0.765-2.172,0.599
	c2.342,6.404,9.634,8.447,15.909,7.76C100.131,161.917,100.146,159.667,98.705,159.824"/>
<path fill="none" stroke="#1D4B66" stroke-width="5.9668" stroke-linecap="round" stroke-miterlimit="10" d="M63.422,249.662
	c0.595-0.89,27.984-24.706,35.725-18.459c7.74,6.255,0.893,84.855,1.785,84.855"/>
<path fill="none" stroke="#1D4B66" stroke-width="5.9668" stroke-linecap="round" stroke-miterlimit="10" d="M108.677,241.028
	c0,0,22.93-24.118,30.071-16.072c7.147,8.039-1.487,87.828-0.89,88.715"/>
<path fill="none" stroke="#1D4B66" stroke-width="5.9668" stroke-linecap="round" stroke-miterlimit="10" d="M52.707,185.798
	c-0.742,0.744-5.709,40.966,6.209,43.941c11.917,2.985,49.899,3.478,49.899,3.478l6.459,9.188"/>
<path fill="#1D4B66" d="M57.969,149.748c-1.402-4.497-3.149-8.681-3.522-13.539c-0.25-3.315-1.242-8.216,0.785-11.043
	c-1.88-1.238-4.309-3.524-4.835-5.703c2.44,0.617,4.966,0.803,7.499,0.789c-2.263-0.962-3.661-3.052-4.792-5.083
	c1.584,0.991,3.352,1.508,5.09,2.057c0.901-5.455,12.439-6.88,16.625-7.268c10.493-0.977,22.373-1.823,31.115-8.316
	c-0.678,3.251-5.069,5.288-5.687,8.261c3.704-0.083,8.527-0.713,12.087-1.545c-2.391,0.78-5.372,2.407-6.837,4.526
	c1.598,0.209,3.124-0.381,4.703-0.193c0.138,5.183,2.95,10.161,3.011,15.476c0.039,3.202,0.705,7.518-1.086,10.127
	c-0.996-1.43-1.327-3.461-2.162-5.064c-1.048-1.999-2.278-3.072-3.792-4.661c-2.146-2.263-4.025-4.438-6.512-6.238
	c-5.714-4.131-14.846-4.012-21.456-2.367c-5.387,1.336-13.788,5.334-16.113,10.825c-2.041,4.813-4.11,10.378-3.581,15.711
	c0.059,0.617,0.077,1.029,0.271,1.626"/>
<path fill="none" stroke="#1D4B66" stroke-width="5.9668" stroke-linecap="round" stroke-miterlimit="10" d="M57.969,149.748
	c-1.402-4.497-3.149-8.681-3.522-13.539c-0.25-3.315-1.242-8.216,0.785-11.043c-1.88-1.238-4.309-3.524-4.835-5.703
	c2.44,0.617,4.966,0.803,7.499,0.789c-2.263-0.962-3.661-3.052-4.792-5.083c1.584,0.991,3.352,1.508,5.09,2.057
	c0.901-5.455,12.439-6.88,16.625-7.268c10.493-0.977,22.373-1.823,31.115-8.316c-0.678,3.251-5.069,5.288-5.687,8.261
	c3.704-0.083,8.527-0.713,12.087-1.545c-2.391,0.78-5.372,2.407-6.837,4.526c1.598,0.209,3.124-0.381,4.703-0.193
	c0.138,5.183,2.95,10.161,3.011,15.476c0.039,3.202,0.705,7.518-1.086,10.127c-0.996-1.43-1.327-3.461-2.162-5.064
	c-1.048-1.999-2.278-3.072-3.792-4.661c-2.146-2.263-4.025-4.438-6.512-6.238c-5.714-4.131-14.846-4.012-21.456-2.367
	c-5.387,1.336-13.788,5.334-16.113,10.825c-2.041,4.813-4.11,10.378-3.581,15.711c0.059,0.617,0.077,1.029,0.271,1.626"/>
<path fill="#1D4B66" d="M301.017,135.5c-2.307-0.415-4.705-0.723-7.108-0.598c0.015,0.068,0.017,0.351,0.008,0.415
	c1.035,0.414,2.749,0.727,3.348,1.768c0.574,0.991-0.121,2.297-0.098,3.351c1.424,0.29,2.943,0.379,3.666-1.218
	c0.443-0.985,0.354-2.954-0.283-3.717"/>
</svg>
