<?xml version="1.0" encoding="utf-8"?>
<!-- Generator: Adobe Illustrator 15.1.0, SVG Export Plug-In . SVG Version: 6.00 Build 0)  -->
<!DOCTYPE svg PUBLIC "-//W3C//DTD SVG 1.1//EN" "http://www.w3.org/Graphics/SVG/1.1/DTD/svg11.dtd">
<svg version="1.1" id="Layer_1" xmlns="http://www.w3.org/2000/svg" xmlns:xlink="http://www.w3.org/1999/xlink" x="0px" y="0px"
	 width="53.25px" height="75.152px" viewBox="0 0 53.25 75.152" enable-background="new 0 0 53.25 75.152" xml:space="preserve">
<path fill="#FFCC80" d="M18.835,47.18c0.224-0.072,0.447-0.143,0.671-0.213c2.591,0.088,5.237-0.18,7.873-0.635
	c-0.861,1.842,2.05,4.652,3.814,2.348c0.763-0.992,1.58-1.939,2.425-2.867c4.211-0.514,9.325-0.947,11.104-5.021
	c0.439-1.006,0.323-2.242-0.345-3.125c-0.127-0.167-0.254-0.335-0.381-0.504c0.28-0.482,0.218-1.23-0.392-1.482
	c-0.383-0.158-0.758-0.324-1.137-0.49c-0.186-0.299-0.472-0.527-0.816-0.584c-0.139-0.25-0.324-0.489-0.616-0.702
	c-4.306-3.114-8.845-5.548-13.85-7.345c-2.486-0.894-3.808,2.395-1.608,3.688c1.601,0.941,3.234,1.799,4.893,2.594
	c-0.033,0.156-0.042,0.317-0.029,0.484c-0.224-0.12-0.449-0.229-0.674-0.354c-0.935-0.523-1.908-0.279-2.62,0.326
	c-0.519-0.05-1.047-0.074-1.586-0.05c-0.605,0.028-1.008,0.317-1.239,0.716c-3.824,0.082-7.568,1.516-11.43,2.361
	c-0.374-0.077-0.788-0.034-1.216,0.182c-0.049,0.023-0.097,0.059-0.145,0.086c-0.998,0.172-2.003,0.295-3.021,0.325
	c-2.789,0.082-3.509,3.91-1.592,5.511c0.035,0.027,0.07,0.053,0.105,0.082c-0.744,2.51-0.343,5.102,2.342,6.439
	C12.075,50.299,16.308,47.98,18.835,47.18 M27.583,39.891c-3.082,0.648-6.213,1.066-9.217,0.727
	C21.54,39.598,24.7,38.885,27.583,39.891"/>
<path fill="#1F4D69" d="M3.304,35.339c0.032-0.073,0.07-0.146,0.113-0.213C3.64,34.78,3.995,34.542,4.4,34.464
	c5.652-1.071,11.688-2.06,18.411-3.008c-0.409-2.85-0.739-5.283-1.029-7.564c-0.066-0.525,0.149-1.049,0.569-1.374
	c0.418-0.326,0.978-0.404,1.471-0.209c1.138,0.45,2.263,0.922,3.38,1.409c3.93,1.714,7.794,3.643,11.535,5.509
	c3.424,1.71,6.969,3.479,10.53,5.065c0.423,0.187,0.731,0.558,0.845,1.004c0.112,0.447,0.012,0.92-0.269,1.285
	c-3.562,4.592-8.034,8.448-12.358,12.174c-2.92,2.518-5.94,5.119-8.638,7.916c-0.401,0.416-1.007,0.564-1.555,0.381
	c-0.549-0.184-0.943-0.664-1.013-1.24c-0.278-2.246-0.594-4.619-0.981-7.373c-3.377,0.467-6.776,1.105-10.078,1.727
	c-2.458,0.461-4.999,0.938-7.523,1.344c-0.809,0.131-1.574-0.414-1.715-1.223c-0.85-4.844-1.649-9.408-2.761-13.995
	C3.144,35.972,3.174,35.638,3.304,35.339 M25.885,33.333c-0.046,0.106-0.105,0.207-0.175,0.301c-0.242,0.32-0.598,0.529-0.994,0.584
	c-6.659,0.923-12.638,1.875-18.217,2.906c0.845,3.706,1.53,7.483,2.182,11.182c2.006-0.342,4.021-0.721,5.985-1.09
	c3.824-0.719,7.779-1.463,11.724-1.945c0.812-0.1,1.554,0.467,1.668,1.277c0.308,2.156,0.574,4.08,0.81,5.873
	c2.172-2.072,4.442-4.029,6.658-5.938c3.896-3.359,7.602-6.553,10.741-10.257c-3.012-1.39-5.983-2.873-8.871-4.315
	c-3.702-1.849-7.532-3.762-11.393-5.443c-0.303-0.131-0.606-0.264-0.911-0.393c0.259,1.941,0.555,4.043,0.903,6.442
	C26.034,32.796,25.995,33.08,25.885,33.333"/>
<path fill="#1F4D69" d="M49.141,12.701c0.592-0.578,1.543-0.567,2.123,0.026c0.577,0.592,0.565,1.542-0.026,2.121
	c-1.759,1.718-3.023,4-4.361,6.416c-0.401,0.727-1.314,0.986-2.04,0.585c-0.724-0.4-0.986-1.314-0.585-2.039
	C45.635,17.309,47.067,14.727,49.141,12.701"/>
<path fill="#1F4D69" d="M32.572,4.109c0.477-0.6,1.344-0.747,1.996-0.316c0.691,0.457,0.885,1.386,0.428,2.078
	c-0.712,1.08-0.728,2.378-0.746,3.88c-0.014,1.19-0.03,2.54-0.436,3.884c-0.237,0.796-1.075,1.245-1.869,1.005
	s-1.241-1.075-1.003-1.868c0.281-0.941,0.294-1.97,0.309-3.06c0.02-1.721,0.046-3.676,1.24-5.491
	C32.517,4.183,32.541,4.145,32.572,4.109"/>
<path fill="#1F4D69" d="M15.49,4.799c0.252-0.289,0.616-0.48,1.029-0.508c0.827-0.055,1.541,0.571,1.597,1.397
	c0.1,1.51,0.819,2.899,1.58,4.371c0.367,0.707,0.747,1.439,1.054,2.19c0.312,0.768-0.058,1.644-0.821,1.957
	c-0.768,0.313-1.643-0.054-1.956-0.822c-0.256-0.626-0.589-1.268-0.94-1.945c-0.829-1.603-1.77-3.417-1.912-5.553
	C15.095,5.473,15.237,5.087,15.49,4.799"/>
<path fill="#1F4D69" d="M2.582,17.76c0.331-0.76,1.216-1.106,1.975-0.774c1.461,0.637,2.753,1.535,4.004,2.406
	c0.801,0.559,1.56,1.086,2.344,1.538c0.719,0.412,0.964,1.332,0.553,2.048c-0.412,0.719-1.329,0.965-2.047,0.553
	c-0.897-0.516-1.746-1.105-2.565-1.678c-1.182-0.822-2.298-1.6-3.488-2.117C2.599,19.404,2.251,18.519,2.582,17.76"/>
<path fill="#1F4D69" d="M6.245,63.082c0.035-0.082,0.08-0.16,0.131-0.236c1.75-2.611,3.308-4.836,5.219-7.211
	c0.519-0.646,1.462-0.748,2.109-0.23c0.645,0.52,0.748,1.465,0.228,2.109c-1.843,2.293-3.358,4.457-5.066,7.002
	c-0.461,0.688-1.392,0.873-2.081,0.41C6.175,64.516,5.961,63.734,6.245,63.082"/>
<path fill="#1F4D69" d="M20.491,62.57c0.33-0.76,1.215-1.105,1.974-0.775c0.759,0.332,1.107,1.215,0.776,1.975
	c-0.996,2.283-1.697,4.492-2.276,7.158c-0.175,0.814-0.974,1.324-1.784,1.148c-0.809-0.176-1.325-0.975-1.148-1.783
	C18.655,67.424,19.413,65.043,20.491,62.57"/>
<path fill="#1F4D69" d="M33.646,61.879c0.183-0.418,0.553-0.748,1.03-0.861c0.806-0.191,1.615,0.309,1.804,1.115
	c0.159,0.668,0.295,1.344,0.431,2.021c0.383,1.916,0.746,3.725,1.618,5.262c0.409,0.721,0.156,1.635-0.563,2.045
	c-0.719,0.41-1.635,0.158-2.045-0.564c-1.11-1.955-1.539-4.09-1.953-6.154c-0.129-0.643-0.256-1.285-0.406-1.918
	C33.483,62.496,33.521,62.166,33.646,61.879"/>
<path fill="#1F4D69" d="M44.521,56.336c0.088-0.112,0.191-0.216,0.315-0.303c0.673-0.481,1.609-0.326,2.091,0.348
	c0.799,1.111,1.385,2.292,1.951,3.434c0.652,1.314,1.27,2.556,2.135,3.553c0.543,0.625,0.482,1.572-0.147,2.114
	c-0.625,0.544-1.573,0.478-2.116-0.146c-1.118-1.287-1.85-2.76-2.559-4.186c-0.536-1.084-1.045-2.106-1.702-3.022
	C44.096,57.574,44.127,56.847,44.521,56.336"/>
</svg>
