<?xml version="1.0" encoding="utf-8"?>
<!-- Generator: Adobe Illustrator 15.1.0, SVG Export Plug-In . SVG Version: 6.00 Build 0)  -->
<!DOCTYPE svg PUBLIC "-//W3C//DTD SVG 1.1//EN" "http://www.w3.org/Graphics/SVG/1.1/DTD/svg11.dtd">
<svg version="1.1" id="Layer_1" xmlns="http://www.w3.org/2000/svg" xmlns:xlink="http://www.w3.org/1999/xlink" x="0px" y="0px"
	 width="1024px" height="768px" viewBox="0 0 1024 768" enable-background="new 0 0 1024 768" xml:space="preserve">
<pattern  width="42.595" height="42.596" patternUnits="userSpaceOnUse" id="Unnamed_Pattern" viewBox="0 -42.596 42.595 42.596" overflow="visible">
	<g>
		<polygon fill="none" points="0,-42.596 42.595,-42.596 42.595,0 0,0 		"/>
		<g>
			<defs>
				<rect id="SVGID_1_" x="0" y="-42.596" width="42.595" height="42.596"/>
			</defs>
			<clipPath id="SVGID_2_">
				<use xlink:href="#SVGID_1_"  overflow="visible"/>
			</clipPath>
			<path clip-path="url(#SVGID_2_)" fill-rule="evenodd" clip-rule="evenodd" fill="#EAE9EC" d="M0.591-27.755
				c4.104-5.039,8.896-9.461,13-14.5c0.814-1,2.221,0.424,1.414,1.414c-4.103,5.039-8.896,9.461-13,14.5
				C1.191-25.341-0.216-26.765,0.591-27.755"/>
			<path clip-path="url(#SVGID_2_)" fill-rule="evenodd" clip-rule="evenodd" fill="#EAE9EC" d="M25.591-1.755
				c4.104-5.039,8.896-9.461,13-14.5c0.814-1,2.221,0.424,1.414,1.414c-4.103,5.039-8.896,9.461-13,14.5
				C26.191,0.659,24.784-0.765,25.591-1.755"/>
			<path clip-path="url(#SVGID_2_)" fill-rule="evenodd" clip-rule="evenodd" fill="#EAE9EC" d="M14.841-0.591
				c-5.039-4.104-9.461-8.896-14.5-13c-1-0.814,0.424-2.221,1.414-1.414c5.039,4.103,9.461,8.896,14.5,13
				C17.255-1.19,15.831,0.216,14.841-0.591"/>
			<path clip-path="url(#SVGID_2_)" fill-rule="evenodd" clip-rule="evenodd" fill="#EAE9EC" d="M40.841-25.591
				c-5.039-4.104-9.461-8.897-14.5-13c-1-0.814,0.424-2.221,1.414-1.414c5.039,4.103,9.461,8.896,14.5,13
				C43.255-26.19,41.831-24.784,40.841-25.591"/>
			<path clip-path="url(#SVGID_2_)" fill-rule="evenodd" clip-rule="evenodd" fill="#EAE9EC" d="M28.86-20.798
				c0-4.313-3.498-7.813-7.812-7.813c-4.313,0-7.813,3.499-7.813,7.813c0,4.313,3.5,7.812,7.813,7.812
				C25.362-12.986,28.86-16.485,28.86-20.798"/>
		</g>
	</g>
</pattern>
<pattern  id="SVGID_3_" xlink:href="#Unnamed_Pattern" patternTransform="matrix(1.018 0 0 -1.2085 -4177.2524 7251.9277)">
</pattern>
<rect x="-9.461" y="-4.922" fill="url(#SVGID_3_)" width="1042.461" height="781.713"/>
</svg>
