<?xml version="1.0" encoding="utf-8"?>
<!-- Generator: Adobe Illustrator 15.1.0, SVG Export Plug-In . SVG Version: 6.00 Build 0)  -->
<!DOCTYPE svg PUBLIC "-//W3C//DTD SVG 1.1//EN" "http://www.w3.org/Graphics/SVG/1.1/DTD/svg11.dtd">
<svg version="1.1" id="Layer_1" xmlns="http://www.w3.org/2000/svg" xmlns:xlink="http://www.w3.org/1999/xlink" x="0px" y="0px"
	 width="189px" height="239.317px" viewBox="0 0 189 239.317" enable-background="new 0 0 189 239.317" xml:space="preserve">
<g>
	<defs>
		<rect id="SVGID_1_" x="-1" y="0.317" width="190" height="239"/>
	</defs>
	<clipPath id="SVGID_2_">
		<use xlink:href="#SVGID_1_"  overflow="visible"/>
	</clipPath>
	<g clip-path="url(#SVGID_2_)">
		<rect x="-47.833" y="2.72" fill="#99989D" width="278.368" height="45.848"/>
		
			<rect x="-47.833" y="2.72" fill="none" stroke="#1D4B66" stroke-width="2.4058" stroke-miterlimit="10" width="278.368" height="45.848"/>
		<rect x="-47.696" y="190.325" fill="#99989D" width="279.635" height="45.85"/>
		
			<rect x="-47.696" y="190.325" fill="none" stroke="#1D4B66" stroke-width="2.4115" stroke-miterlimit="10" width="279.635" height="45.85"/>
		<rect x="16.578" y="33.049" fill="#AEADB3" width="152.17" height="171.937"/>
		
			<rect x="16.578" y="33.049" fill="none" stroke="#1D4B66" stroke-width="2.8675" stroke-miterlimit="10" width="152.17" height="171.937"/>
		<rect x="33.954" y="46.048" fill="#A5CCED" width="118.468" height="146.414"/>
		
			<rect x="33.954" y="46.048" fill="none" stroke="#1D4B66" stroke-width="2.4058" stroke-miterlimit="10" width="118.468" height="146.414"/>
		<polygon fill="#C3C3C8" points="-47.836,234.304 15.324,204.828 15.324,32.194 -47.836,2.72 		"/>
		<polygon fill="none" stroke="#1D4B66" stroke-width="2.8675" stroke-miterlimit="10" points="-47.836,234.304 15.324,204.828 
			15.324,32.194 -47.836,2.72 		"/>
		<polygon fill="#C3C3C8" points="231.938,233.836 168.778,204.36 168.778,31.728 231.938,2.251 		"/>
		<polygon fill="none" stroke="#1D4B66" stroke-width="2.8675" stroke-miterlimit="10" points="231.938,233.836 168.778,204.36 
			168.778,31.728 231.938,2.251 		"/>
	</g>
</g>
</svg>
