<?xml version="1.0" encoding="utf-8"?>
<!-- Generator: Adobe Illustrator 16.0.0, SVG Export Plug-In . SVG Version: 6.00 Build 0)  -->
<!DOCTYPE svg PUBLIC "-//W3C//DTD SVG 1.1//EN" "http://www.w3.org/Graphics/SVG/1.1/DTD/svg11.dtd">
<svg version="1.1" id="Capa_1" xmlns="http://www.w3.org/2000/svg" xmlns:xlink="http://www.w3.org/1999/xlink" x="0px" y="0px"
	 width="475.477px" height="239.987px" viewBox="0 0 475.477 239.987" enable-background="new 0 0 475.477 239.987"
	 xml:space="preserve">
<path fill="none" stroke="#214D6A" stroke-width="9.2198" stroke-linecap="round" stroke-miterlimit="10" d="M46.792,73.079
	c0,8.103-6.58,14.667-14.679,14.667c-8.101,0-14.668-6.564-14.668-14.667s6.568-14.67,14.668-14.67
	C40.211,58.409,46.792,64.976,46.792,73.079z"/>
<path fill="none" stroke="#214D6A" stroke-width="9.2198" stroke-linecap="round" stroke-miterlimit="10" d="M117.194,112.256
	c0,13.534-10.975,24.511-24.508,24.511c-13.546,0-24.513-10.977-24.513-24.511c0-13.533,10.966-24.511,24.513-24.511
	C106.22,87.745,117.194,98.723,117.194,112.256z"/>
<path fill="none" stroke="#214D6A" stroke-width="12.5443" stroke-linecap="round" stroke-miterlimit="10" d="M457.566,126.011
	c0-23.639-22.617-43.74-54.306-51.568c-2.509-28.948-38.779-51.93-83.285-51.93c-31.077,0-58.1,11.208-72.518,27.809
	c-7.602-1.512-15.666-2.337-24.01-2.337c-46.131,0-83.524,24.673-83.524,55.103c0,10.244,4.311,19.8,11.679,28.019
	c-7.368,8.218-11.679,17.777-11.679,28.017c0,30.441,37.394,55.11,83.524,55.11c9.337,0,18.284-1.059,26.683-2.916
	c15.05,9.668,35.57,15.656,58.249,15.656c41.95,0,76.575-20.406,82.547-46.981C428.951,174.836,457.566,152.631,457.566,126.011z"/>
</svg>
