<?xml version="1.0" encoding="utf-8"?>
<!-- Generator: Adobe Illustrator 15.1.0, SVG Export Plug-In . SVG Version: 6.00 Build 0)  -->
<!DOCTYPE svg PUBLIC "-//W3C//DTD SVG 1.1//EN" "http://www.w3.org/Graphics/SVG/1.1/DTD/svg11.dtd">
<svg version="1.1" xmlns="http://www.w3.org/2000/svg" xmlns:xlink="http://www.w3.org/1999/xlink" x="0px" y="0px" width="267px"
	 height="316px" viewBox="-419.5 320.5 267 316" enable-background="new -419.5 320.5 267 316" xml:space="preserve">
<g id="Capa_1">
	<g id="Capa_1_1_">
	</g>
	<g id="Capa_2">
	</g>
</g>
<g id="Layer_2">
	<path fill-rule="evenodd" clip-rule="evenodd" fill="#1F4D69" d="M-394.764,600.006c-1.779-6.505,0.302-11.729,1.912-16.844
		c5.635-17.858,11.982-35.46,19.083-52.811c4.196-10.257,7.271-20.97,10.855-31.486c0.11-0.329,0.127-0.695,0.264-1.021
		c7.508-19.041,15.007-38.083,22.52-57.125c2.839-7.211,5.572-14.471,8.597-21.601c1.567-3.716,3.537-7.296,5.58-10.783
		c3.313-5.645,8.703-7.528,14.885-7.419c3.457,0.06,5.619,2.695,7.838,4.894c4.593,4.555,7.576,10.169,9.982,16.123
		c6.033,14.896,12.131,29.77,18.097,44.696c6.682,16.729,13.144,33.541,19.901,50.252c3.687,9.161,7.847,18.144,11.669,27.262
		c4.715,11.236,9.305,22.521,13.957,33.781c0.407,0.979,0.894,1.921,1.389,2.869c2.293,4.453,1.712,8.687-2.22,11.745
		c-5.151,4.021-10.859,7.212-17.042,9.462c-11.439,4.165-23.417,6.084-35.307,8.353c-7.072,1.35-14.263,2.252-21.419,3.049
		c-2.39,0.264-7.326,0.285-9.732,0.535c-9.076,0.969-15.792-0.467-24.872-0.576c-5.237-0.061-10.513-0.941-15.698-1.878
		c-8.474-1.517-16.996-2.992-25.295-5.233C-385.021,604.853-389.86,602.102-394.764,600.006"/>
	<path fill-rule="evenodd" clip-rule="evenodd" fill="#FFFFFF" d="M-309.517,494.526c6.928,7.713,13.22,6.556,19.288-3.754
		c0.618,1.114,1.19,2.008,1.644,2.958c0.645,1.339,1.17,2.753,1.822,4.093c2.898,5.878,7.11,8.343,13.571,7.889
		c1.818-0.127,3.598-0.478,5.619-0.758c1.623,3.764,3.314,7.525,4.894,11.342c7.661,18.585,15.304,37.166,22.911,55.767
		c1.189,2.913,2.185,5.926,3.105,8.935c1.034,3.406,0.339,5.25-2.466,7.323c-8.461,6.215-17.94,9.837-28.287,11.481
		c-6.398,1.018-12.703,2.576-19.088,3.538c-6.885,1.037-13.827,1.796-20.749,2.414c-10.928,0.976-21.865,0.138-32.774-0.368
		c-4.793-0.216-9.56-1.106-14.292-1.937c-6.194-1.097-12.439-2.097-18.486-3.782c-4.89-1.361-9.53-3.657-14.322-5.568
		c0.691-7.763,2.471-14.644,4.877-21.354c3.923-10.944,8.109-21.797,12.033-32.74c3.738-10.449,7.271-20.979,10.936-31.452
		c0.483-1.382,1.191-2.67,1.912-4.225c8.551,3.021,13.279-1.949,17.448-7.982c1.492-2.156,2.796-4.437,4.458-7.101
		c-0.178,5.08-0.373,9.597-0.45,14.122c-0.025,1.648,0.034,3.346,0.395,4.944c1.402,6.131,7.02,9.121,13.025,7.024
		c4.347-1.508,7.372-4.554,9.054-8.697C-311.886,502.828-310.872,498.802-309.517,494.526"/>
	<path fill-rule="evenodd" clip-rule="evenodd" fill="#FFFFFF" d="M-354.032,498.303c0.796-3.441,1.432-6.764,2.33-10.009
		c2.796-10.045,6.424-19.783,10.61-29.346c5.237-11.937,9.914-24.109,15.028-36.108c1.148-2.695,2.834-5.25,4.64-7.572
		c4.31-5.513,11.958-5.41,16.203,0.068c3.237,4.198,5.991,8.64,7.86,13.682c3.496,9.457,7.242,18.816,10.979,28.177
		c1.355,3.372,3.097,6.579,4.47,9.939c4.127,10.106,8.169,20.237,12.249,30.397c-4.279,3.424-9.156,2.987-12.415-2.017
		c-2.478-3.827-4.363-8.183-5.745-12.547c-1.279-4.051-1.504-8.436-2.313-12.652c-0.653-3.377-1.035-6.871-3.305-9.626
		c-2.224,0.025-2.821,1.195-2.415,2.933c0.288,1.283,0.83,2.507,1.237,3.771c2.084,6.623,2.568,13.339,0.678,20.063
		c-1.187,4.254-3.601,5.694-7.567,5.571c-2.407-0.071-3.992-1.173-4.322-3.271c-0.711-4.36-1.271-8.783-1.369-13.194
		c-0.131-5.952,0.267-11.924,0.36-17.881c0.042-2.127,0-4.3-1.822-5.859c-2.543,0.326-2.08,2.19-2.111,3.792
		c-0.101,7.415,0.085,14.856-0.406,22.254c-0.518,7.567-1.534,15.122-4.102,22.343c-1.348,3.762-3.771,6.574-7.618,7.978
		c-4.356,1.594-8.419-0.152-9.063-4.703c-0.691-4.853-0.691-9.903-0.25-14.8c0.915-10.229,3.016-20.262,6.067-30.098
		c0.789-2.537,2.114-5.393-0.225-8.029c-2.246,0.158-2.148,1.929-2.508,3.523c-2.098,9.176-3.987,18.472-8.157,26.973
		c-2.39,4.867-5.449,9.436-8.584,13.875C-347.38,498.425-350.095,499.734-354.032,498.303"/>
	<path fill-rule="evenodd" clip-rule="evenodd" fill="#1F4D69" d="M-232.673,619.5c-14.067-0.525-27.257-4.109-39.634-10.271
		c-4.398-2.191-7.915-6.203-11.686-9.556c-0.652-0.584-1.034-2.198-0.733-3.037c2.437-6.732,4.843-13.491,7.682-20.051
		c7.059-16.307,14.432-32.468,21.478-48.789c2.97-6.856,4.894-14.211,8.284-20.83c3.462-6.746,7.39-13.555,12.482-19.075
		c6.974-7.584,14.059-5.725,20.444,2.382c5.864,7.444,9.156,16.104,12.723,24.677c4.059,9.778,8.089,19.566,12.297,29.283
		c5.24,12.104,10.622,24.158,15.986,36.209c1.123,2.538,2.343,5.038,3.656,7.486c2.373,4.458,2.093,8.619-1.762,11.92
		c-3.559,3.055-7.406,6.02-11.609,8.02c-9.737,4.64-20.084,9.165-30.864,10.44C-220.203,619.047-225.088,619.5-232.673,619.5"/>
	<path fill-rule="evenodd" clip-rule="evenodd" fill="#FFFFFF" d="M-266.083,569.21c5.953,4.834,12.648,3.368,16.093-3.41
		c2.503-4.907,4.732-9.941,7.359-15.496c0.509,2.835,0.802,5.156,1.343,7.407c1.614,6.617,6.462,8.868,12.547,5.872
		c2.974-1.466,5.207-3.746,6.524-6.834c0.771-1.814,1.457-3.669,2.441-6.17c1.978,3.979,4.64,5.619,8.639,4.732
		c3.716-0.82,4.428-3.854,5.386-6.553c2.021,2.711,3.592,6.282,6.334,8.07c2.704,1.763,6.58,1.729,11.029,2.721
		c3.039,6.775,6.551,14.601,10.068,22.41c0.94,2.109,1.911,4.198,2.788,6.326c1.78,4.321,1.339,6.457-2.136,9.385
		c-6.347,5.367-13.673,8.69-21.8,10.354c-6.021,1.225-11.975,2.705-18.012,3.835c-18.405,3.44-35.77,0.302-52.006-8.864
		c-2.491-1.396-4.551-3.64-6.601-5.694c-0.568-0.572-0.78-2.008-0.516-2.843C-273.891,585.849-271.611,577.04-266.083,569.21"/>
	<path fill-rule="evenodd" clip-rule="evenodd" fill="#FFFFFF" d="M-236.312,526.788c-2.564,0.165-2.107,2.19-2.589,3.449
		c-3.304,8.636-6.441,17.347-9.826,25.952c-0.992,2.525-2.352,5.021-4.051,7.114c-1.369,1.674-3.355,3.056-5.347,3.944
		c-2.521,1.136-4.644-0.382-4.563-3.109c0.051-2.255,0.305-4.589,1-6.717c2.762-8.52,6.542-16.635,10.245-24.777
		c2.195-4.826,3.864-9.897,5.974-14.771c3.737-8.648,7.662-17.253,14.513-23.991c3.585-3.525,7.788-3.571,11.282,0.099
		c2.902,3.049,5.445,6.558,7.56,10.202c2.491,4.322,4.453,8.961,6.431,13.559c4.323,10.059,8.474,20.176,12.704,30.27
		c0.224,0.56,0.559,1.114,0.634,1.703c0.17,1.271,0.768,3.013,0.187,3.751c-1.237,1.521-3.076,0.689-4.551-0.145
		c-2.88-1.653-4.94-3.983-5.831-7.289c-1.041-3.97-2.207-7.901-3.287-11.854c-0.33-1.186-0.61-2.759-2.221-1.992
		c-0.661,0.323-1.016,1.971-0.982,2.996c0.109,3.166,0.575,6.314,0.703,9.474c0.043,1.17-0.381,2.398-0.746,3.547
		c-0.61,1.822-2.063,2.594-3.894,2.589c-1.873,0-3.33-0.878-3.622-2.817c-0.568-4.047-1.102-8.109-1.416-12.181
		c-0.238-3.153,0.246-6.398-1.364-9.318c-2.966-0.187-2.521,1.826-2.221,3.373c1.348,6.893,0.432,13.635-1.22,20.316
		c-0.458,1.895-1.102,3.94-2.288,5.412c-1.365,1.69-3.229,3.354-5.216,4.08c-3.792,1.384-6.208-0.298-6.776-4.268
		c-0.902-6.402-0.474-12.736,1.025-19.041C-235.305,533.186-234.604,529.898-236.312,526.788"/>
	<path fill-rule="evenodd" clip-rule="evenodd" fill="#D2D9DB" d="M-351.621,605.098c1.089-4.296,1.246-8.74,0.724-13.782
		c-0.779-7.775,0-13.897,2.957-21.14c3.085-7.563,7.229-14.864,8.763-22.973c1.416-7.475,1.373-15.127,3.102-22.551
		c0.246-1.08,1.492-1.419,2.39-0.97c8.449,4.198,21.592,1.189,26.448-7.076c3.466-5.897,4.449-10.462,4.407-17.207
		c-2.055-0.715-3.805-2.165-5.966-4.571c-1.398,4.39-2.601,6.254-4.195,10.168c-1.725,4.26-4.839,7.39-9.313,8.941
		c-6.169,2.156-11.937-0.915-13.381-7.216c-0.377-1.636-0.441-3.39-0.407-5.085c0.084-4.647,0.284-9.292,0.458-14.512
		c-1.703,2.729-3.051,5.076-4.576,7.3c-4.284,6.2-9.144,11.306-17.931,8.199c-0.737,1.598-1.475,2.928-1.975,4.339
		c-3.767,10.771-7.39,21.592-11.246,32.328c-4.017,11.25-8.313,22.402-12.364,33.651c-2.466,6.903-4.292,13.975-5.007,21.952
		c4.931,1.968,9.686,4.323,14.711,5.721c6.22,1.729,12.644,2.762,19.008,3.89C-353.879,604.704-352.761,604.902-351.621,605.098"/>
	<path fill-rule="evenodd" clip-rule="evenodd" fill="#D2D9DB" d="M-251.354,600.36c0.381-4.773,2.809-9.296,4.733-13.604
		c2.475-5.626,4.843-11.241,6.457-17.189c0.255-0.966,1.348-1.334,2.182-0.891c12.343,6.433,20.686-2.698,22.079-14.228
		c-1.512-0.789-2.744-2.241-3.778-4.339c-1,2.542-1.7,4.424-2.484,6.271c-1.33,3.131-3.601,5.444-6.631,6.937
		c-6.182,3.047-11.088,0.754-12.728-5.966c-0.55-2.284-0.861-4.64-1.369-7.517c-2.67,5.639-4.933,10.754-7.47,15.728
		c-3.496,6.891-10.306,8.377-16.352,3.467c-5.61,7.953-7.927,16.893-10.668,25.634c-0.271,0.853-0.047,2.309,0.525,2.895
		c2.08,2.083,4.168,4.356,6.694,5.778c6.526,3.683,13.237,6.396,20.126,8.123C-251.037,607.864-251.66,604.204-251.354,600.36"/>
	<path fill="#FA8510" d="M-310.906,374.063c8.978-3.458,17.99-8.246,25.778-14.071c0.229,0.033,0.466,0.093,0.691,0.13
		c9.194,1.453,13.08-12.663,3.877-14.032c-8.767-1.295-17.173-3.652-25.516-6.593c-3.025-1.067-5.364-0.188-6.834,1.551
		c-0.834-1.885-3.792-1.259-4.47,0.567c-3.084,8.217,0.39,16.592-1.12,24.86C-319.246,370.604-315.72,375.914-310.906,374.063
		 M-309.881,353.274c2.008,0.844,4.008,1.607,6.029,2.326c-2.351,1.289-4.711,2.563-7.013,3.954
		c-0.88-2.352-1.185-5.034-1.296-7.764C-311.529,352.381-310.779,352.897-309.881,353.274"/>
	<path fill="none" stroke="#1F4D69" stroke-width="4.751" stroke-miterlimit="10" d="M-313.016,403.072l-2.898-27.255
		c0,0-5.254-38.32-4.153-39.046c6.013-3.937,46.413,13.885,46.413,16.991c0,2.69-33.151,17.821-40.4,22.791"/>
</g>
</svg>
