<?xml version="1.0" encoding="utf-8"?>
<!-- Generator: Adobe Illustrator 15.1.0, SVG Export Plug-In . SVG Version: 6.00 Build 0)  -->
<!DOCTYPE svg PUBLIC "-//W3C//DTD SVG 1.1//EN" "http://www.w3.org/Graphics/SVG/1.1/DTD/svg11.dtd">
<svg version="1.1" id="Capa_1" xmlns="http://www.w3.org/2000/svg" xmlns:xlink="http://www.w3.org/1999/xlink" x="0px" y="0px"
	 width="546px" height="768px" viewBox="0 0 546 768" enable-background="new 0 0 546 768" xml:space="preserve">
<rect x="37.661" y="38.767" fill="#676767" width="497.945" height="707.012"/>
<rect x="14.194" y="19.316" fill="#FFFFFF" width="497.945" height="707.011"/>
<rect x="14.194" y="19.316" fill="#E41E5D" width="497.945" height="66.259"/>
<rect x="14.194" y="540.979" fill="#D7D7D8" width="497.945" height="185.226"/>
<rect x="14.194" y="540.979" fill="#1F1E43" width="497.945" height="50.949"/>
<g>
	<g>
		<path fill="#1F1E43" d="M79.7,164.131c-0.878,0-1.632-0.753-1.632-1.631s0.754-1.631,1.632-1.631c0.878,0,1.631,0.753,1.631,1.631
			S80.704,164.131,79.7,164.131z M78.82,167.394c0-0.502,0.377-1.004,0.879-1.004c0.502,0,0.878,0.502,0.878,1.004l0.251,14.432
			c0,0.627-0.502,1.255-1.255,1.255c-0.753,0-1.255-0.627-1.255-1.255L78.82,167.394z"/>
		<path fill="#1F1E43" d="M89.236,175.551v-7.529l-5.396-11.545c0-0.125-0.125-0.376-0.125-0.627c0-0.627,0.627-1.255,1.255-1.255
			c0.377,0,0.754,0.125,1.004,0.502l4.644,10.039l4.644-10.039c0.125-0.376,0.627-0.502,1.004-0.502
			c0.627,0,1.254,0.627,1.254,1.255c0,0.125,0,0.376-0.125,0.627l-5.396,11.67v7.404c0,0.628-0.502,1.255-1.255,1.255
			S89.236,176.179,89.236,175.551z"/>
		<path fill="#1F1E43" d="M105.927,166.139c0-2.259-1.129-3.263-3.263-3.263c-1.129,0-1.631,0.251-2.385,0.627
			c-0.125,0-0.502,0.251-0.752,0.251c-0.627,0-0.879-0.502-0.879-1.004c-0.125-1.38,2.134-2.008,4.268-2.008
			c3.766,0,5.396,2.133,5.396,6.149v6.776c0,0.627,0.125,0.878,0.502,0.878c0.125,0,0.125,0,0.25,0c0.627,0,0.879,0.502,0.879,1.004
			c0,0.753-0.754,1.004-1.381,1.004c-1.004,0-1.881-0.627-2.258-1.506c-1.13,1.129-2.511,1.631-4.142,1.631
			c-3.138,0-4.644-1.882-4.644-4.643v-0.125c0-3.012,1.758-4.518,5.396-4.518c1.129,0,2.133,0.125,3.137,0.376v-1.631h-0.126v0.002
			H105.927z M99.777,172.037L99.777,172.037c0,1.506,0.628,2.51,2.636,2.51c1.255,0,2.384-0.376,3.388-1.38v-3.263
			c-1.004-0.251-2.259-0.502-3.137-0.502C100.279,169.527,99.777,170.657,99.777,172.037z"/>
		<path fill="#1F1E43" d="M122.241,157.48c0-0.627,0.376-1.129,1.255-1.129c0.753,0,1.255,0.502,1.255,1.129v4.267h3.138
			c0.627,0,1.129,0.502,1.129,1.129s-0.502,1.129-1.129,1.129h-3.138v6.149c0,3.137,0.251,4.267,2.511,4.267
			c0.125,0,0.375,0,0.627,0c0.752,0,1.631,0.125,1.631,1.129s-0.879,1.129-1.758,1.129c-4.267,0-5.271-2.133-5.271-6.274
			L122.241,157.48L122.241,157.48z"/>
		<path fill="#1F1E43" d="M133.41,157.48c-0.878,0-1.506-0.627-1.506-1.506c0-0.879,0.627-1.506,1.506-1.506
			s1.506,0.627,1.506,1.506C134.916,156.853,134.288,157.48,133.41,157.48z M133.41,176.681c-0.627,0-1.256-0.502-1.256-1.255
			v-13.553c0-0.627,0.503-1.255,1.256-1.255c0.627,0,1.255,0.502,1.255,1.255v13.553
			C134.665,176.179,134.037,176.681,133.41,176.681z"/>
		<path fill="#1F1E43" d="M147.465,173.794c0,0,0.251-0.125,0.376-0.125c0.628,0,1.13,0.502,1.13,1.129
			c0,1.506-3.263,2.008-5.02,2.008c-3.514,0-5.396-2.259-5.396-5.02v-5.772c0-2.886,2.008-5.145,5.647-5.145
			c3.388,0,5.021,2.008,5.021,5.02c0,2.761-1.507,4.518-5.146,4.518c-0.878,0-2.008-0.125-3.137-0.251v1.757
			c0,1.757,1.129,2.761,3.388,2.761C145.582,174.547,146.335,174.296,147.465,173.794z M144.076,162.876
			c-2.008,0-3.137,1.129-3.137,2.761v2.384c1.129,0.125,2.635,0.251,3.263,0.251c2.384,0,2.761-1.255,2.761-2.51
			C146.837,163.755,145.833,162.876,144.076,162.876z"/>
		<path fill="#1F1E43" d="M155.245,175.551c0,0.628-0.376,1.13-1.255,1.13c-0.879,0-1.256-0.502-1.256-1.13v-10.416
			c0-1.631-0.25-1.631-0.502-2.133c0-0.125-0.25-0.251-0.25-0.627c0-0.627,0.502-1.129,1.129-1.129c0.502,0,1.004,0.376,1.255,0.878
			c1.38-1.004,2.886-1.38,4.392-1.38c3.264,0,4.895,2.384,4.895,5.772v8.91c0,0.627-0.376,1.129-1.256,1.129
			c-0.753,0-1.255-0.502-1.255-1.129v-8.91c0-2.384-1.004-3.639-2.761-3.639c-1.255,0-2.384,0.502-3.388,1.255
			c0,0.376,0.125,0.627,0.125,0.878L155.245,175.551L155.245,175.551z"/>
		<path fill="#1F1E43" d="M176.327,173.794c0,0,0.251-0.125,0.376-0.125c0.627,0,1.129,0.502,1.129,1.129
			c0,1.506-3.263,2.008-5.02,2.008c-3.515,0-5.396-2.259-5.396-5.02v-5.772c0-2.886,2.008-5.145,5.646-5.145
			c3.389,0,5.021,2.008,5.021,5.02c0,2.761-1.506,4.518-5.146,4.518c-0.877,0-2.008-0.125-3.137-0.251v1.757
			c0,1.757,1.129,2.761,3.389,2.761C174.445,174.547,175.323,174.296,176.327,173.794z M172.939,162.876
			c-2.009,0-3.138,1.129-3.138,2.761v2.384c1.129,0.125,2.636,0.251,3.264,0.251c2.384,0,2.761-1.255,2.761-2.51
			C175.7,163.755,174.696,162.876,172.939,162.876z"/>
		<path fill="#1F1E43" d="M195.151,160.743c1.631,0,4.016,0.376,4.016,1.757c0,0.627-0.502,1.129-1.129,1.129
			c-0.251,0-0.376,0-0.502-0.125c-0.627-0.251-1.255-0.502-2.384-0.502c-1.883,0-2.762,0.753-2.762,2.133
			c0,1.004,0.376,1.38,1.381,2.008c2.133,1.004,5.646,1.255,5.646,5.271c0,2.761-1.757,4.518-5.145,4.518
			c-1.507,0-4.519-0.377-4.519-1.757c0-0.502,0.376-1.129,1.129-1.129c0.125,0,0.251,0,0.251,0c0.878,0.376,1.882,0.753,3.012,0.753
			c1.632,0,2.762-0.627,2.762-2.259c0-1.129-0.502-1.506-1.129-1.882c-1.883-1.004-6.023-1.255-6.023-5.271
			C190.131,162.5,191.888,160.743,195.151,160.743z"/>
		<path fill="#1F1E43" d="M211.716,161.998c0-0.627,0.376-1.129,1.255-1.129c0.878,0,1.255,0.502,1.255,1.129v10.667
			c0,1.631,0.251,1.631,0.503,2.133c0,0.125,0.25,0.376,0.25,0.627c0,0.627-0.502,1.129-1.129,1.129s-1.004-0.376-1.255-0.878
			c-1.38,0.753-2.886,1.129-4.392,1.129c-3.263,0-4.895-2.384-4.895-5.772v-8.91c0-0.627,0.377-1.129,1.256-1.129
			s1.255,0.502,1.255,1.129v8.91c0,2.384,1.004,3.639,2.761,3.639c1.255,0,2.384-0.376,3.389-1.004c0-0.251,0-0.627,0-0.878
			L211.716,161.998L211.716,161.998z"/>
		<path fill="#1F1E43" d="M230.414,176.053v5.773c0,0.627-0.376,1.129-1.255,1.129c-0.879,0-1.255-0.502-1.255-1.129v-16.69
			c0-1.004-0.125-1.631-0.502-2.133c-0.125-0.125-0.251-0.376-0.251-0.627c0-0.627,0.502-1.129,1.129-1.129
			c0.502,0,0.878,0.251,1.255,0.753c1.38-0.753,2.886-1.38,4.518-1.38c3.264,0,4.896,2.384,4.896,5.772v4.016
			c0,3.639-1.255,6.149-5.146,6.149C232.798,176.681,231.543,176.43,230.414,176.053z M230.414,173.919
			c1.004,0.502,2.384,0.627,3.137,0.627c2.259,0,3.012-1.255,3.012-4.141v-4.016c0-2.384-1.004-3.639-3.012-3.639
			c-1.004,0-2.259,0.376-3.263,1.004c0.125,0.502,0.125,0.878,0.125,1.255L230.414,173.919L230.414,173.919z"/>
		<path fill="#1F1E43" d="M250.241,166.139c0-2.259-1.13-3.263-3.263-3.263c-1.131,0-1.633,0.251-2.386,0.627
			c-0.125,0-0.502,0.251-0.753,0.251c-0.627,0-0.878-0.502-0.878-1.004c-0.126-1.38,2.133-2.008,4.267-2.008
			c3.766,0,5.396,2.133,5.396,6.149v6.776c0,0.627,0.126,0.878,0.502,0.878c0.126,0,0.126,0,0.251,0
			c0.628,0,0.879,0.502,0.879,1.004c0,0.753-0.753,1.004-1.381,1.004c-1.004,0-1.882-0.627-2.259-1.506
			c-1.129,1.129-2.51,1.631-4.142,1.631c-3.138,0-4.644-1.882-4.644-4.643v-0.125c0-3.012,1.757-4.518,5.396-4.518
			c1.129,0,2.133,0.125,3.137,0.376v-1.631h-0.124v0.002H250.241z M244.092,172.037L244.092,172.037c0,1.506,0.628,2.51,2.637,2.51
			c1.255,0,2.384-0.376,3.388-1.38v-3.263c-1.004-0.251-2.259-0.502-3.138-0.502C244.594,169.527,244.092,170.657,244.092,172.037z"
			/>
		<path fill="#1F1E43" d="M261.912,160.743c1.631,0,4.016,0.376,4.016,1.757c0,0.627-0.502,1.129-1.13,1.129
			c-0.251,0-0.376,0-0.502-0.125c-0.627-0.251-1.255-0.502-2.384-0.502c-1.883,0-2.762,0.753-2.762,2.133
			c0,1.004,0.377,1.38,1.381,2.008c2.134,1.004,5.646,1.255,5.646,5.271c0,2.761-1.757,4.518-5.146,4.518
			c-1.506,0-4.519-0.377-4.519-1.757c0-0.502,0.377-1.129,1.129-1.129c0.126,0,0.252,0,0.252,0c0.879,0.376,1.883,0.753,3.013,0.753
			c1.631,0,2.761-0.627,2.761-2.259c0-1.129-0.502-1.506-1.13-1.882c-1.883-1.004-6.023-1.255-6.023-5.271
			C256.892,162.5,258.648,160.743,261.912,160.743z"/>
		<path fill="#1F1E43" d="M277.598,166.139c0-2.259-1.129-3.263-3.263-3.263c-1.129,0-1.631,0.251-2.384,0.627
			c-0.126,0-0.502,0.251-0.753,0.251c-0.628,0-0.879-0.502-0.879-1.004c-0.125-1.38,2.134-2.008,4.267-2.008
			c3.766,0,5.396,2.133,5.396,6.149v6.776c0,0.627,0.125,0.878,0.502,0.878c0.125,0,0.125,0,0.25,0c0.627,0,0.879,0.502,0.879,1.004
			c0,0.753-0.754,1.004-1.381,1.004c-1.004,0-1.883-0.627-2.26-1.506c-1.13,1.129-2.51,1.631-4.142,1.631
			c-3.137,0-4.643-1.882-4.643-4.643v-0.125c0-3.012,1.757-4.518,5.396-4.518c1.13,0,2.134,0.125,3.139,0.376L277.598,166.139
			L277.598,166.139z M271.449,172.037L271.449,172.037c0,1.506,0.627,2.51,2.635,2.51c1.255,0,2.385-0.376,3.389-1.38v-3.263
			c-1.004-0.251-2.259-0.502-3.138-0.502C271.951,169.527,271.449,170.657,271.449,172.037z"/>
		<path fill="#1F1E43" d="M287.261,176.053v5.773c0,0.627-0.377,1.129-1.255,1.129c-0.753,0-1.255-0.502-1.255-1.129v-16.69
			c0-1.004-0.126-1.631-0.502-2.133c-0.126-0.125-0.251-0.376-0.251-0.627c0-0.627,0.502-1.129,1.129-1.129
			c0.502,0,0.879,0.251,1.255,0.753c1.382-0.753,2.888-1.38,4.521-1.38c3.263,0,4.894,2.384,4.894,5.772v4.016
			c0,3.639-1.255,6.149-5.146,6.149C289.645,176.681,288.391,176.43,287.261,176.053z M287.261,173.919
			c1.005,0.502,2.384,0.627,3.14,0.627c2.258,0,3.012-1.255,3.012-4.141v-4.016c0-2.384-1.004-3.639-3.012-3.639
			c-1.006,0-2.262,0.376-3.266,1.004c0.126,0.502,0.126,0.878,0.126,1.255V173.919L287.261,173.919z"/>
		<path fill="#1F1E43" d="M298.555,171.284v-5.145c0-3.012,2.008-5.396,5.772-5.396c3.764,0,5.771,2.384,5.771,5.396v5.145
			c0,3.012-2.008,5.396-5.771,5.396C300.563,176.68,298.555,174.296,298.555,171.284z M307.59,171.284v-5.145
			c0-2.008-1.129-3.263-3.388-3.263s-3.39,1.255-3.39,3.263v5.145c0,2.008,1.131,3.263,3.39,3.263S307.59,173.292,307.59,171.284z"
			/>
		<path fill="#1F1E43" d="M315.998,175.551c0,0.628-0.502,1.255-1.255,1.255c-0.628,0-1.255-0.502-1.255-1.255v-10.29
			c0-1.004-0.127-1.631-0.502-2.133c-0.127-0.125-0.252-0.376-0.252-0.627c0-0.627,0.502-1.129,1.129-1.129
			c0.503,0,0.88,0.376,1.256,0.878c1.255-0.878,3.012-1.255,4.142-1.255c1.255,0,1.632,0.502,1.632,1.129
			c0,0.753-0.502,1.255-1.256,1.255c-1.255,0-2.384,0-3.89,1.129c0,0.251,0,0.627,0,0.878L315.998,175.551L315.998,175.551z"/>
		<path fill="#1F1E43" d="M323.904,157.48c0-0.627,0.375-1.129,1.254-1.129c0.754,0,1.256,0.502,1.256,1.129v4.267h3.137
			c0.629,0,1.131,0.502,1.131,1.129s-0.502,1.129-1.131,1.129h-3.137v6.149c0,3.137,0.251,4.267,2.51,4.267c0.125,0,0.376,0,0.627,0
			c0.754,0,1.633,0.125,1.633,1.129s-0.879,1.129-1.758,1.129c-4.267,0-5.271-2.133-5.271-6.274V157.48H323.904z"/>
		<path fill="#1F1E43" d="M341.725,173.794c0,0,0.25-0.125,0.375-0.125c0.629,0,1.131,0.502,1.131,1.129
			c0,1.506-3.264,2.008-5.021,2.008c-3.515,0-5.396-2.259-5.396-5.02v-5.772c0-2.886,2.008-5.145,5.646-5.145
			c3.388,0,5.021,2.008,5.021,5.02c0,2.761-1.506,4.518-5.146,4.518c-0.878,0-2.008-0.125-3.137-0.251v1.757
			c0,1.757,1.129,2.761,3.388,2.761C339.716,174.547,340.594,174.296,341.725,173.794z M338.335,162.876
			c-2.008,0-3.137,1.129-3.137,2.761v2.384c1.129,0.125,2.635,0.251,3.263,0.251c2.385,0,2.762-1.255,2.762-2.51
			C341.096,163.755,340.092,162.876,338.335,162.876z"/>
		<path fill="#1F1E43" d="M360.422,160.743c1.631,0,4.016,0.376,4.016,1.757c0,0.627-0.502,1.129-1.129,1.129
			c-0.252,0-0.377,0-0.502-0.125c-0.628-0.251-1.256-0.502-2.385-0.502c-1.883,0-2.761,0.753-2.761,2.133
			c0,1.004,0.376,1.38,1.38,2.008c2.134,1.004,5.646,1.255,5.646,5.271c0,2.761-1.758,4.518-5.146,4.518
			c-1.506,0-4.518-0.377-4.518-1.757c0-0.502,0.377-1.129,1.129-1.129c0.125,0,0.252,0,0.252,0c0.878,0.376,1.882,0.753,3.012,0.753
			c1.631,0,2.761-0.627,2.761-2.259c0-1.129-0.502-1.506-1.13-1.882c-1.882-1.004-6.021-1.255-6.021-5.271
			C355.527,162.5,357.158,160.743,360.422,160.743z"/>
		<path fill="#1F1E43" d="M376.609,173.794c0,0,0.25-0.125,0.377-0.125c0.627,0,1.129,0.502,1.129,1.129
			c0,1.506-3.264,2.008-5.021,2.008c-3.514,0-5.396-2.259-5.396-5.02v-5.772c0-2.886,2.008-5.145,5.646-5.145
			c3.391,0,5.021,2.008,5.021,5.02c0,2.761-1.506,4.518-5.146,4.518c-0.879,0-2.008-0.125-3.138-0.251v1.757
			c0,1.757,1.13,2.761,3.39,2.761C374.729,174.547,375.48,174.296,376.609,173.794z M373.223,162.876
			c-2.009,0-3.139,1.129-3.139,2.761v2.384c1.13,0.125,2.636,0.251,3.264,0.251c2.385,0,2.762-1.255,2.762-2.51
			C375.982,163.755,374.979,162.876,373.223,162.876z"/>
		<path fill="#1F1E43" d="M381.378,155.473c0-0.627,0.502-1.255,1.255-1.255c0.628,0,1.256,0.502,1.256,1.255v18.07
			c0,0.627,0,1.129,0.377,1.38c0.125,0.125,0.25,0.376,0.25,0.627c0,0.628-0.502,1.13-1.129,1.13c-0.754,0-1.883-0.377-1.883-3.138
			v-18.07L381.378,155.473L381.378,155.473z"/>
		<path fill="#1F1E43" d="M388.406,155.473c0-0.627,0.502-1.255,1.255-1.255c0.627,0,1.255,0.502,1.255,1.255v18.07
			c0,0.627,0,1.129,0.376,1.38c0.126,0.125,0.251,0.376,0.251,0.627c0,0.628-0.502,1.13-1.129,1.13
			c-0.753,0-1.883-0.377-1.883-3.138v-18.07L388.406,155.473L388.406,155.473z"/>
		<path fill="#1F1E43" d="M402.963,166.139c0-2.259-1.13-3.263-3.263-3.263c-1.13,0-1.632,0.251-2.385,0.627
			c-0.125,0-0.503,0.251-0.753,0.251c-0.629,0-0.879-0.502-0.879-1.004c-0.127-1.38,2.134-2.008,4.268-2.008
			c3.765,0,5.396,2.133,5.396,6.149v6.776c0,0.627,0.126,0.878,0.502,0.878c0.126,0,0.126,0,0.251,0
			c0.629,0,0.881,0.502,0.881,1.004c0,0.753-0.754,1.004-1.383,1.004c-1.004,0-1.882-0.627-2.259-1.506
			c-1.129,1.129-2.51,1.631-4.141,1.631c-3.138,0-4.646-1.882-4.646-4.643v-0.125c0-3.012,1.758-4.518,5.396-4.518
			c1.129,0,2.133,0.125,3.137,0.376L402.963,166.139L402.963,166.139z M396.813,172.037L396.813,172.037
			c0,1.506,0.63,2.51,2.638,2.51c1.255,0,2.384-0.376,3.388-1.38v-3.263c-1.004-0.251-2.259-0.502-3.137-0.502
			C397.315,169.527,396.813,170.657,396.813,172.037z"/>
		<path fill="#1F1E43" d="M417.771,161.496v-6.023c0-0.627,0.375-1.129,1.255-1.129c0.753,0,1.255,0.502,1.255,1.129v17.568
			c0,0.878,0.126,1.38,0.753,1.882c0.126,0.125,0.251,0.376,0.251,0.627c0,0.628-0.502,1.13-1.129,1.13
			c-0.753,0-1.255-0.377-1.633-1.004c-1.382,0.627-2.762,1.255-4.394,1.255c-3.263,0-4.894-2.385-4.894-5.773v-3.89
			c0-3.639,1.255-6.149,5.146-6.149C415.386,160.869,416.641,161.12,417.771,161.496z M417.771,163.629
			c-1.006-0.376-2.387-0.627-3.14-0.627c-2.259,0-3.012,1.255-3.012,4.141v3.89c0,2.384,1.004,3.639,3.012,3.639
			c1.004,0,2.134-0.376,3.265-0.878c0-0.251,0-0.502,0-0.753L417.771,163.629L417.771,163.629z"/>
		<path fill="#1F1E43" d="M424.171,171.284v-5.145c0-3.012,2.008-5.396,5.772-5.396c3.764,0,5.771,2.384,5.771,5.396v5.145
			c0,3.012-2.008,5.396-5.771,5.396C426.179,176.68,424.171,174.296,424.171,171.284z M433.206,171.284v-5.145
			c0-2.008-1.13-3.263-3.389-3.263c-2.261,0-3.39,1.255-3.39,3.263v5.145c0,2.008,1.129,3.263,3.39,3.263
			C432.076,174.547,433.206,173.292,433.206,171.284z"/>
		<path fill="#1F1E43" d="M440.484,176.806c-0.879,0-1.634-0.753-1.634-1.631s0.755-1.631,1.634-1.631
			c0.878,0,1.631,0.753,1.631,1.631S441.362,176.806,440.484,176.806z M439.229,155.849c0-0.627,0.504-1.255,1.257-1.255
			s1.255,0.627,1.255,1.255l-0.251,14.431c0,0.502-0.377,1.004-0.879,1.004s-0.878-0.502-0.878-1.004L439.229,155.849z"/>
	</g>
</g>
<g>
	<g>
		<path fill="#1F1E43" d="M80.578,493.041c-0.878,0-1.631-0.753-1.631-1.631c0-0.879,0.753-1.632,1.631-1.632
			s1.631,0.753,1.631,1.632C82.209,492.288,81.457,493.041,80.578,493.041z M79.7,496.179c0-0.502,0.376-1.004,0.878-1.004
			s0.878,0.502,0.878,1.004l0.251,14.433c0,0.628-0.502,1.256-1.255,1.256s-1.255-0.628-1.255-1.256L79.7,496.179z"/>
		<path fill="#1F1E43" d="M96.266,505.339h-8.158c-1.004,0-1.881-0.376-1.881-1.38v-18.698c0-0.753,0.627-1.38,1.379-1.38h8.283
			c0.627,0,1.254,0.502,1.254,1.255c0,0.627-0.502,1.129-1.254,1.129H88.61v7.153h6.652c0.627,0,1.254,0.502,1.254,1.255
			s-0.502,1.255-1.254,1.255H88.61v7.278h7.529c0.627,0,1.256,0.502,1.256,1.129C97.52,504.837,97.018,505.339,96.266,505.339z"/>
		<path fill="#1F1E43" d="M105.3,489.653c1.632,0,4.017,0.376,4.017,1.757c0,0.627-0.502,1.129-1.129,1.129
			c-0.252,0-0.377,0-0.502-0.125c-0.627-0.251-1.256-0.502-2.385-0.502c-1.882,0-2.761,0.753-2.761,2.133
			c0,1.004,0.376,1.381,1.38,2.008c2.133,1.004,5.646,1.255,5.646,5.271c0,2.761-1.756,4.518-5.145,4.518
			c-1.506,0-4.518-0.376-4.518-1.757c0-0.502,0.375-1.129,1.129-1.129c0.125,0,0.251,0,0.251,0c0.878,0.376,1.882,0.753,3.012,0.753
			c1.631,0,2.761-0.628,2.761-2.259c0-1.13-0.502-1.506-1.129-1.883c-1.882-1.006-6.023-1.257-6.023-5.271
			C100.279,491.41,102.037,489.653,105.3,489.653z"/>
		<path fill="#1F1E43" d="M112.955,486.391c0-0.628,0.376-1.13,1.255-1.13s1.255,0.502,1.255,1.13v4.269h3.137
			c0.627,0,1.129,0.502,1.129,1.129c0,0.628-0.502,1.13-1.129,1.13h-3.137v6.148c0,3.138,0.251,4.267,2.51,4.267
			c0.125,0,0.377,0,0.627,0c0.754,0,1.631,0.126,1.631,1.13s-0.877,1.129-1.756,1.129c-4.268,0-5.271-2.133-5.271-6.272
			L112.955,486.391L112.955,486.391z"/>
		<path fill="#1F1E43" d="M130.271,495.049c0-2.259-1.129-3.263-3.263-3.263c-1.129,0-1.631,0.251-2.384,0.628
			c-0.125,0-0.502,0.251-0.753,0.251c-0.627,0-0.878-0.502-0.878-1.004c-0.125-1.381,2.133-2.008,4.268-2.008
			c3.764,0,5.396,2.133,5.396,6.146v6.776c0,0.628,0.125,0.879,0.502,0.879c0.125,0,0.125,0,0.251,0
			c0.627,0,0.878,0.502,0.878,1.004c0,0.753-0.753,1.004-1.38,1.004c-1.004,0-1.883-0.628-2.26-1.506
			c-1.129,1.129-2.51,1.631-4.141,1.631c-3.137,0-4.643-1.882-4.643-4.643v-0.126c0-3.014,1.757-4.52,5.396-4.52
			c1.129,0,2.133,0.126,3.137,0.377v-1.632h-0.127L130.271,495.049L130.271,495.049z M127.135,498.313
			c-2.51,0-3.012,1.131-3.012,2.511v0.126c0,1.38,0.627,2.51,2.635,2.51c1.256,0,2.385-0.377,3.389-1.381v-3.263
			C129.27,498.438,128.139,498.313,127.135,498.313z M126.633,486.265c-0.125,0.126-0.125,0.251-0.125,0.502
			c0,0.628,0.502,1.132,1.004,1.132c0.377,0,0.627-0.251,1.004-0.503l2.51-2.637c0.125-0.125,0.125-0.376,0.125-0.502
			c0-0.627-0.502-1.004-1.004-1.004s-0.752,0.251-1.129,0.753L126.633,486.265z"/>
		<path fill="#1F1E43" d="M154.618,502.578c0,0,0.251-0.125,0.376-0.125c0.627,0,1.129,0.502,1.129,1.129
			c0,1.506-3.264,2.008-5.02,2.008c-3.515,0-5.396-2.259-5.396-5.02v-5.772c0-2.886,2.008-5.145,5.646-5.145
			c3.389,0,5.021,2.008,5.021,5.02c0,2.761-1.506,4.52-5.146,4.52c-0.877,0-2.008-0.126-3.138-0.251v1.757
			c0,1.757,1.13,2.761,3.39,2.761C152.734,503.457,153.614,503.08,154.618,502.578z M151.355,491.786
			c-2.008,0-3.138,1.13-3.138,2.761v2.385c1.13,0.125,2.636,0.251,3.263,0.251c2.385,0,2.762-1.255,2.762-2.51
			C154.116,492.665,153.111,491.786,151.355,491.786z"/>
		<path fill="#1F1E43" d="M162.398,504.335c0,0.628-0.377,1.13-1.256,1.13s-1.255-0.502-1.255-1.13V493.92
			c0-1.632-0.251-1.632-0.502-2.134c0-0.125-0.251-0.251-0.251-0.627c0-0.628,0.502-1.13,1.129-1.13
			c0.502,0,1.004,0.377,1.255,0.879c1.381-1.004,2.887-1.381,4.393-1.381c3.263,0,4.894,2.385,4.894,5.771v8.91
			c0,0.627-0.376,1.129-1.255,1.129c-0.753,0-1.255-0.502-1.255-1.129v-8.91c0-2.384-1.004-3.639-2.761-3.639
			c-1.255,0-2.384,0.502-3.388,1.255c0,0.376,0.125,0.627,0.125,0.878L162.398,504.335L162.398,504.335z"/>
		<path fill="#1F1E43" d="M184.735,484.383c0-0.628,0.502-1.255,1.255-1.255c0.753,0,1.255,0.502,1.255,1.255v18.07
			c0,0.627,0,1.129,0.376,1.38c0.125,0.126,0.251,0.377,0.251,0.628c0,0.627-0.502,1.129-1.129,1.129
			c-0.753,0-1.882-0.376-1.882-3.137v-18.07H184.735z"/>
		<path fill="#1F1E43" d="M199.292,495.049c0-2.259-1.129-3.263-3.263-3.263c-1.129,0-1.631,0.251-2.385,0.628
			c-0.125,0-0.502,0.251-0.753,0.251c-0.627,0-0.878-0.502-0.878-1.004c-0.125-1.381,2.133-2.008,4.268-2.008
			c3.765,0,5.396,2.133,5.396,6.146v6.776c0,0.628,0.125,0.879,0.502,0.879c0.125,0,0.125,0,0.251,0
			c0.627,0,0.878,0.502,0.878,1.004c0,0.753-0.753,1.004-1.38,1.004c-1.004,0-1.882-0.628-2.259-1.506
			c-1.129,1.129-2.51,1.631-4.141,1.631c-3.138,0-4.644-1.882-4.644-4.643v-0.126c0-3.014,1.757-4.52,5.396-4.52
			c1.129,0,2.133,0.126,3.137,0.377v-1.632h-0.126L199.292,495.049L199.292,495.049z M193.143,500.821L193.143,500.821
			c0,1.506,0.627,2.51,2.636,2.51c1.255,0,2.384-0.376,3.388-1.38v-3.263c-1.004-0.251-2.259-0.504-3.137-0.504
			C193.645,498.313,193.143,499.441,193.143,500.821z"/>
		<path fill="#1F1E43" d="M218.116,504.335c0,0.628-0.502,1.255-1.255,1.255c-0.627,0-1.256-0.502-1.256-1.255v-10.29
			c0-1.004-0.125-1.631-0.502-2.133c-0.125-0.126-0.251-0.377-0.251-0.628c0-0.627,0.503-1.129,1.13-1.129
			c0.502,0,0.878,0.376,1.255,0.878c1.255-0.878,3.012-1.255,4.141-1.255c1.255,0,1.631,0.502,1.631,1.13
			c0,0.753-0.502,1.255-1.255,1.255c-1.255,0-2.384,0-3.89,1.129c0,0.251,0,0.628,0,0.879L218.116,504.335L218.116,504.335z"/>
		<path fill="#1F1E43" d="M234.429,490.908c0-0.628,0.376-1.13,1.255-1.13s1.256,0.502,1.256,1.13v10.666
			c0,1.632,0.251,1.632,0.502,2.134c0,0.125,0.251,0.376,0.251,0.627c0,0.628-0.502,1.13-1.13,1.13
			c-0.627,0-1.004-0.377-1.255-0.879c-1.38,0.753-2.886,1.13-4.392,1.13c-3.263,0-4.895-2.385-4.895-5.771v-8.91
			c0-0.627,0.377-1.129,1.256-1.129c0.879,0,1.255,0.502,1.255,1.129v8.91c0,2.384,1.004,3.639,2.761,3.639
			c1.255,0,2.384-0.376,3.388-1.004c0-0.251,0-0.627,0-0.878L234.429,490.908L234.429,490.908z"/>
		<path fill="#1F1E43" d="M241.457,486.391c0-0.628,0.376-1.13,1.255-1.13c0.878,0,1.255,0.502,1.255,1.13v4.269h3.137
			c0.629,0,1.131,0.502,1.131,1.129c0,0.628-0.502,1.13-1.131,1.13h-3.137v6.148c0,3.138,0.251,4.267,2.51,4.267
			c0.125,0,0.377,0,0.627,0c0.754,0,1.633,0.126,1.633,1.13s-0.879,1.129-1.758,1.129c-4.267,0-5.271-2.133-5.271-6.272
			L241.457,486.391L241.457,486.391z"/>
		<path fill="#1F1E43" d="M258.9,495.049c0-2.259-1.131-3.263-3.265-3.263c-1.129,0-1.631,0.251-2.384,0.628
			c-0.126,0-0.502,0.251-0.753,0.251c-0.628,0-0.879-0.502-0.879-1.004c-0.125-1.381,2.134-2.008,4.267-2.008
			c3.766,0,5.396,2.133,5.396,6.146v6.776c0,0.628,0.126,0.879,0.502,0.879c0.126,0,0.126,0,0.251,0
			c0.628,0,0.879,0.502,0.879,1.004c0,0.753-0.754,1.004-1.381,1.004c-1.004,0-1.883-0.628-2.259-1.506
			c-1.131,1.129-2.511,1.631-4.143,1.631c-3.137,0-4.643-1.882-4.643-4.643v-0.126c0-3.014,1.757-4.52,5.396-4.52
			c1.13,0,2.134,0.126,3.139,0.377v-1.632H258.9V495.049z M252.751,500.821L252.751,500.821c0,1.506,0.627,2.51,2.635,2.51
			c1.255,0,2.386-0.376,3.39-1.38v-3.263c-1.004-0.251-2.26-0.504-3.139-0.504C253.253,498.313,252.751,499.441,252.751,500.821z"/>
		<path fill="#1F1E43" d="M282.743,495.049c0-2.259-1.13-3.263-3.263-3.263c-1.131,0-1.633,0.251-2.387,0.628
			c-0.125,0-0.502,0.251-0.753,0.251c-0.627,0-0.878-0.502-0.878-1.004c-0.126-1.381,2.133-2.008,4.268-2.008
			c3.766,0,5.396,2.133,5.396,6.146v6.776c0,0.628,0.126,0.879,0.502,0.879c0.126,0,0.126,0,0.251,0c0.628,0,0.88,0.502,0.88,1.004
			c0,0.753-0.754,1.004-1.382,1.004c-1.004,0-1.882-0.628-2.259-1.506c-1.129,1.129-2.51,1.631-4.141,1.631
			c-3.14,0-4.646-1.882-4.646-4.643v-0.126c0-3.014,1.757-4.52,5.396-4.52c1.129,0,2.134,0.126,3.138,0.377L282.743,495.049
			L282.743,495.049z M276.721,500.821L276.721,500.821c0,1.506,0.627,2.51,2.635,2.51c1.256,0,2.386-0.376,3.39-1.38v-3.263
			c-1.004-0.251-2.259-0.504-3.14-0.504C277.096,498.313,276.721,499.441,276.721,500.821z"/>
		<path fill="#1F1E43" d="M289.896,484.383c0-0.628,0.502-1.255,1.254-1.255c0.627,0,1.256,0.502,1.256,1.255v18.07
			c0,0.627,0,1.129,0.376,1.38c0.126,0.126,0.251,0.377,0.251,0.628c0,0.627-0.502,1.129-1.129,1.129
			c-0.754,0-1.885-0.376-1.885-3.137v-18.07H289.896z"/>
		<path fill="#1F1E43" d="M310.979,503.457c1.256,0,2.135-0.377,3.139-0.879c0,0,0.251-0.125,0.377-0.125
			c0.627,0,1.129,0.502,1.129,1.129c0,1.506-3.264,2.008-5.021,2.008c-3.514,0-5.396-2.259-5.396-5.02v-5.772
			c0-2.886,2.008-5.145,5.646-5.145c3.391,0,5.021,2.008,5.021,5.02c0,2.761-1.506,4.52-5.146,4.52
			c-0.879,0-2.008-0.126-3.138-0.251v1.757C307.59,502.327,308.721,503.457,310.979,503.457z M313.488,494.547
			c0-2.008-1.004-2.761-2.762-2.761c-2.009,0-3.139,1.13-3.139,2.761v2.385c1.13,0.125,2.637,0.251,3.264,0.251
			C313.111,497.057,313.488,495.802,313.488,494.547z M309.473,486.265c-0.125,0.126-0.125,0.251-0.125,0.502
			c0,0.628,0.502,1.132,1.004,1.132c0.377,0,0.629-0.251,1.004-0.503l2.511-2.637c0.126-0.125,0.126-0.376,0.126-0.502
			c0-0.627-0.502-1.004-1.004-1.004s-0.754,0.251-1.131,0.753L309.473,486.265z"/>
		<path fill="#1F1E43" d="M329.551,503.833c0.126,0.126,0.126,0.377,0.126,0.502c0,0.628-0.502,1.255-1.255,1.255
			c-0.502,0-0.753-0.251-1.13-0.878l-3.515-5.271l-3.514,5.521c-0.252,0.376-0.629,0.627-1.005,0.627
			c-0.628,0-1.255-0.502-1.255-1.255c0-0.125,0-0.376,0.125-0.502l4.27-6.399l-4.019-6.021c-0.125-0.126-0.125-0.377-0.125-0.502
			c0-0.628,0.502-1.255,1.255-1.255c0.627,0,1.004,0.627,1.381,1.004l3.139,4.769l3.263-5.02c0.251-0.502,0.628-0.753,1.13-0.753
			s1.129,0.502,1.129,1.129c0,0.126,0,0.377-0.125,0.628l-4.142,6.021L329.551,503.833z"/>
		<path fill="#1F1E43" d="M334.193,486.391c-0.879,0-1.506-0.628-1.506-1.506c0-0.879,0.627-1.506,1.506-1.506
			s1.507,0.627,1.507,1.506C335.7,485.638,335.072,486.391,334.193,486.391z M334.193,505.59c-0.627,0-1.254-0.502-1.254-1.255
			v-13.553c0-0.627,0.502-1.255,1.254-1.255c0.627,0,1.256,0.502,1.256,1.255v13.553C335.449,505.088,334.947,505.59,334.193,505.59
			z"/>
		<path fill="#1F1E43" d="M340.218,486.391c0-0.628,0.376-1.13,1.255-1.13c0.754,0,1.256,0.502,1.256,1.13v4.269h3.138
			c0.628,0,1.13,0.502,1.13,1.129c0,0.628-0.502,1.13-1.13,1.13h-3.138v6.148c0,3.138,0.25,4.267,2.511,4.267
			c0.125,0,0.376,0,0.627,0c0.753,0,1.632,0.126,1.632,1.13s-0.879,1.129-1.757,1.129c-4.269,0-5.271-2.133-5.271-6.272v-12.927
			L340.218,486.391L340.218,486.391z"/>
		<path fill="#1F1E43" d="M349.127,500.194v-5.146c0-3.012,2.008-5.396,5.773-5.396c3.765,0,5.771,2.384,5.771,5.396v5.146
			c0,3.012-2.008,5.396-5.771,5.396C351.135,505.59,349.127,503.206,349.127,500.194z M358.163,500.194v-5.146
			c0-2.008-1.13-3.263-3.39-3.263s-3.39,1.255-3.39,3.263v5.146c0,2.008,1.13,3.263,3.39,3.263
			C357.033,503.331,358.163,502.202,358.163,500.194z"/>
		<path fill="#1F1E43" d="M373.473,484.383c0-0.628,0.502-1.255,1.256-1.255c0.627,0,1.256,0.502,1.256,1.255v18.07
			c0,0.627,0,1.129,0.375,1.38c0.127,0.126,0.252,0.377,0.252,0.628c0,0.627-0.502,1.129-1.131,1.129
			c-0.752,0-1.883-0.376-1.883-3.137v-18.07H373.473z"/>
		<path fill="#1F1E43" d="M388.029,495.049c0-2.259-1.129-3.263-3.264-3.263c-1.131,0-1.633,0.251-2.386,0.628
			c-0.125,0-0.502,0.251-0.753,0.251c-0.627,0-0.878-0.502-0.878-1.004c-0.126-1.381,2.133-2.008,4.267-2.008
			c3.767,0,5.396,2.133,5.396,6.146v6.776c0,0.628,0.125,0.879,0.502,0.879c0.125,0,0.125,0,0.251,0
			c0.627,0,0.878,0.502,0.878,1.004c0,0.753-0.753,1.004-1.381,1.004c-1.004,0-1.883-0.628-2.258-1.506
			c-1.131,1.129-2.512,1.631-4.144,1.631c-3.138,0-4.644-1.882-4.644-4.643v-0.126c0-3.014,1.757-4.52,5.396-4.52
			c1.129,0,2.133,0.126,3.137,0.377L388.029,495.049L388.029,495.049z M381.88,500.821L381.88,500.821
			c0,1.506,0.628,2.51,2.636,2.51c1.256,0,2.387-0.376,3.391-1.38v-3.263c-1.004-0.251-2.262-0.504-3.139-0.504
			C382.382,498.313,381.88,499.441,381.88,500.821z"/>
		<path fill="#1F1E43" d="M395.184,484.383c0-0.628,0.375-1.13,1.254-1.13c0.755,0,1.257,0.502,1.257,1.13v6.525
			c1.129-0.753,2.384-1.255,4.016-1.255c3.514,0,4.769,2.133,4.769,4.769v5.772c0,3.012-1.883,5.396-5.646,5.396
			c-3.514,0-5.646-2.133-5.646-4.894v-16.313H395.184z M397.566,500.696c0,1.631,1.255,2.635,3.263,2.635
			c2.259,0,3.263-1.255,3.263-3.263v-5.772c0-1.631-0.878-2.635-2.886-2.635c-1.506,0-2.636,0.627-3.514,1.506L397.566,500.696
			L397.566,500.696z"/>
		<path fill="#1F1E43" d="M409.111,500.194v-5.146c0-3.012,2.008-5.396,5.771-5.396s5.772,2.384,5.772,5.396v5.146
			c0,3.012-2.01,5.396-5.772,5.396S409.111,503.206,409.111,500.194z M418.146,500.194v-5.146c0-2.008-1.131-3.263-3.39-3.263
			s-3.389,1.255-3.389,3.263v5.146c0,2.008,1.13,3.263,3.389,3.263C417.018,503.331,418.146,502.202,418.146,500.194z"/>
		<path fill="#1F1E43" d="M426.681,504.335c0,0.628-0.502,1.255-1.255,1.255c-0.628,0-1.255-0.502-1.255-1.255v-10.29
			c0-1.004-0.126-1.631-0.502-2.133c-0.126-0.126-0.251-0.377-0.251-0.628c0-0.627,0.502-1.129,1.129-1.129
			c0.502,0,0.879,0.376,1.255,0.878c1.255-0.878,3.013-1.255,4.144-1.255c1.255,0,1.631,0.502,1.631,1.13
			c0,0.753-0.502,1.255-1.255,1.255c-1.255,0-2.384,0-3.892,1.129c0,0.251,0,0.628,0,0.879L426.681,504.335L426.681,504.335z"/>
		<path fill="#1F1E43" d="M441.864,495.049c0-2.259-1.129-3.263-3.265-3.263c-1.129,0-1.631,0.251-2.384,0.628
			c-0.126,0-0.502,0.251-0.753,0.251c-0.628,0-0.879-0.502-0.879-1.004c-0.125-1.381,2.134-2.008,4.267-2.008
			c3.767,0,5.396,2.133,5.396,6.146v6.776c0,0.628,0.125,0.879,0.502,0.879c0.125,0,0.125,0,0.251,0
			c0.627,0,0.878,0.502,0.878,1.004c0,0.753-0.753,1.004-1.38,1.004c-1.004,0-1.883-0.628-2.259-1.506
			c-1.13,1.129-2.511,1.631-4.144,1.631c-3.137,0-4.643-1.882-4.643-4.643v-0.126c0-3.014,1.757-4.52,5.396-4.52
			c1.132,0,2.136,0.126,3.14,0.377L441.864,495.049L441.864,495.049z M435.716,500.821L435.716,500.821
			c0,1.506,0.627,2.51,2.635,2.51c1.257,0,2.387-0.376,3.391-1.38v-3.263c-1.004-0.251-2.259-0.504-3.14-0.504
			C436.218,498.313,435.716,499.441,435.716,500.821z"/>
		<path fill="#1F1E43" d="M449.018,484.383c0-0.628,0.502-1.255,1.257-1.255c0.628,0,1.255,0.502,1.255,1.255v18.07
			c0,0.627,0,1.129,0.377,1.38c0.125,0.126,0.25,0.377,0.25,0.628c0,0.627-0.502,1.129-1.129,1.129
			c-0.753,0-1.885-0.376-1.885-3.137v-18.07H449.018z"/>
		<path fill="#1F1E43" d="M457.3,505.59c-0.878,0-1.631-0.753-1.631-1.631c0-0.879,0.753-1.632,1.631-1.632
			c0.879,0,1.632,0.753,1.632,1.632C458.806,504.837,458.179,505.59,457.3,505.59z M455.92,484.634c0-0.628,0.502-1.255,1.255-1.255
			s1.255,0.627,1.255,1.255l-0.251,14.433c0,0.502-0.377,1.004-0.879,1.004s-0.878-0.502-0.878-1.004L455.92,484.634z"/>
	</g>
</g>
<g>
	<g>
		<path fill="#1F1E43" d="M477.378,61.229c-0.251,0.376-0.753,0.878-1.506,0.878c-0.878,0-1.506-0.627-1.506-1.255
			c0-0.251,0.126-0.502,0.251-0.627l7.529-9.663l-6.901-8.784c-0.126-0.125-0.251-0.502-0.251-0.627
			c0-0.627,0.753-1.255,1.506-1.255s1.38,0.502,1.757,1.129l5.772,7.655l5.771-7.655c0.377-0.502,1.004-1.129,1.757-1.129
			s1.508,0.502,1.508,1.255c0,0.251-0.125,0.502-0.253,0.627l-6.899,8.784l7.529,9.663c0.125,0.125,0.25,0.376,0.25,0.627
			c0,0.627-0.752,1.255-1.507,1.255c-0.753,0-1.255-0.502-1.632-0.878l-6.523-8.659L477.378,61.229z"/>
	</g>
</g>
<g>
	<g>
		<path fill="#FFFFFF" d="M209.331,560.053c0-4.769,2.134-7.778,6.902-7.778c2.761,0,5.396,1.255,5.396,2.636
			c0,0.627-0.502,1.129-1.129,1.129c-0.376,0-0.627-0.251-1.129-0.502c-0.878-0.627-1.882-1.004-3.012-1.004
			c-3.515,0-4.644,2.134-4.644,5.521v6.525c0,3.389,1.129,5.521,4.644,5.521c1.255,0,2.133-0.251,3.012-1.004
			c0.502-0.251,0.627-0.503,1.129-0.503c0.627,0,1.129,0.503,1.129,1.13c0,1.381-2.635,2.638-5.396,2.638
			c-4.77,0-6.902-3.14-6.902-7.781V560.053z"/>
		<path fill="#FFFFFF" d="M224.014,568.963v-5.146c0-3.014,2.008-5.396,5.772-5.396c3.764,0,5.771,2.384,5.771,5.396v5.146
			c0,3.012-2.008,5.396-5.771,5.396C226.021,574.359,224.014,571.975,224.014,568.963z M233.049,568.963v-5.146
			c0-2.01-1.129-3.265-3.388-3.265c-2.259,0-3.388,1.255-3.388,3.265v5.146c0,2.008,1.129,3.263,3.388,3.263
			C231.92,572.226,233.049,570.971,233.049,568.963z"/>
		<path fill="#FFFFFF" d="M255.888,563.692c0-1.759-0.878-3.014-2.761-3.014c-1.255,0-2.635,0.753-3.388,1.631
			c0.125,0.378,0.125,0.881,0.125,1.383v9.536c0,0.627-0.376,1.13-1.255,1.13c-0.878,0-1.256-0.503-1.256-1.13v-8.909
			c0-2.134-0.375-3.767-2.51-3.767c-1.38,0-2.635,0.628-3.514,1.255c0,0.378,0.126,0.628,0.126,1.005v10.416
			c0,0.628-0.377,1.13-1.255,1.13c-0.879,0-1.255-0.502-1.255-1.13v-10.416c0-1.632-0.251-1.632-0.502-2.134
			c0-0.126-0.251-0.251-0.251-0.628c0-0.627,0.502-1.129,1.129-1.129c0.502,0,0.879,0.376,1.255,0.878
			c1.381-0.878,2.887-1.38,4.518-1.38c1.632,0,2.761,0.502,3.515,1.506c1.255-1.004,2.761-1.506,4.393-1.506
			c3.263,0,5.145,2.133,5.145,5.146v9.535c0,0.629-0.375,1.132-1.255,1.132c-0.878,0-1.255-0.503-1.255-1.132L255.888,563.692
			L255.888,563.692z"/>
		<path fill="#FFFFFF" d="M265.426,573.857v5.771c0,0.627-0.377,1.129-1.255,1.129c-0.879,0-1.255-0.502-1.255-1.129v-16.688
			c0-1.006-0.126-1.634-0.502-2.136c-0.126-0.125-0.251-0.376-0.251-0.627c0-0.628,0.502-1.13,1.129-1.13
			c0.502,0,0.879,0.251,1.255,0.753c1.381-0.753,2.887-1.38,4.518-1.38c3.264,0,4.896,2.384,4.896,5.771v4.017
			c0,3.639-1.255,6.147-5.146,6.147C267.685,574.358,266.43,574.233,265.426,573.857z M265.426,571.724
			c1.004,0.502,2.384,0.627,3.137,0.627c2.26,0,3.013-1.255,3.013-4.141v-4.016c0-2.387-1.004-3.642-3.013-3.642
			c-1.004,0-2.259,0.377-3.263,1.004c0.126,0.504,0.126,0.881,0.126,1.257V571.724L265.426,571.724z"/>
		<path fill="#FFFFFF" d="M285.127,563.817c0-2.261-1.129-3.265-3.263-3.265c-1.13,0-1.632,0.251-2.384,0.628
			c-0.127,0-0.502,0.251-0.754,0.251c-0.629,0-0.879-0.502-0.879-1.004c-0.125-1.381,2.135-2.008,4.268-2.008
			c3.765,0,5.396,2.133,5.396,6.148v6.775c0,0.627,0.125,0.878,0.502,0.878c0.125,0,0.125,0,0.25,0c0.627,0,0.879,0.502,0.879,1.004
			c0,0.753-0.754,1.006-1.381,1.006c-1.004,0-1.883-0.628-2.259-1.508c-1.13,1.132-2.51,1.634-4.142,1.634
			c-3.139,0-4.645-1.885-4.645-4.646v-0.125c0-3.013,1.758-4.518,5.396-4.518c1.13,0,2.134,0.125,3.138,0.376L285.127,563.817
			L285.127,563.817z M278.979,569.716L278.979,569.716c0,1.506,0.629,2.51,2.637,2.51c1.255,0,2.385-0.377,3.389-1.381v-3.263
			c-1.004-0.251-2.259-0.502-3.138-0.502C279.48,567.206,278.979,568.335,278.979,569.716z"/>
		<path fill="#FFFFFF" d="M294.79,573.229c0,0.63-0.502,1.257-1.255,1.257c-0.627,0-1.256-0.502-1.256-1.257V562.94
			c0-1.006-0.125-1.634-0.502-2.136c-0.125-0.125-0.25-0.376-0.25-0.627c0-0.628,0.502-1.13,1.129-1.13
			c0.502,0,0.879,0.377,1.256,0.879c1.255-0.879,3.012-1.255,4.141-1.255c1.256,0,1.633,0.502,1.633,1.129
			c0,0.753-0.502,1.255-1.256,1.255c-1.255,0-2.385,0-3.891,1.132c0,0.25,0,0.627,0,0.878L294.79,573.229L294.79,573.229z"/>
		<path fill="#FFFFFF" d="M302.57,555.159c0-0.628,0.377-1.13,1.255-1.13c0.753,0,1.255,0.502,1.255,1.13v4.267h3.138
			c0.628,0,1.13,0.502,1.13,1.129c0,0.628-0.502,1.131-1.13,1.131h-3.138v6.148c0,3.137,0.251,4.268,2.51,4.268
			c0.126,0,0.377,0,0.628,0c0.753,0,1.632,0.125,1.632,1.13c0,1.004-0.879,1.13-1.758,1.13c-4.267,0-5.271-2.134-5.271-6.274V555.16
			L302.57,555.159L302.57,555.159z"/>
		<path fill="#FFFFFF" d="M313.613,555.159c-0.879,0-1.506-0.628-1.506-1.506c0-0.879,0.627-1.506,1.506-1.506
			s1.506,0.627,1.506,1.506C315.119,554.531,314.492,555.159,313.613,555.159z M313.613,574.358c-0.627,0-1.256-0.503-1.256-1.257
			V559.55c0-0.627,0.502-1.255,1.256-1.255c0.753,0,1.255,0.502,1.255,1.255v13.553
			C314.868,573.857,314.366,574.358,313.613,574.358z"/>
		<path fill="#FFFFFF" d="M322.146,573.229c0,0.63-0.504,1.257-1.256,1.257c-0.627,0-1.256-0.502-1.256-1.257V562.94
			c0-1.006-0.125-1.634-0.502-2.136c-0.125-0.125-0.251-0.376-0.251-0.627c0-0.628,0.502-1.13,1.13-1.13
			c0.502,0,0.879,0.377,1.256,0.879c1.256-0.879,3.012-1.255,4.143-1.255c1.255,0,1.631,0.502,1.631,1.129
			c0,0.753-0.502,1.255-1.255,1.255c-1.255,0-2.384,0-3.89,1.132c0,0.25,0,0.627,0,0.878L322.146,573.229L322.146,573.229z"/>
	</g>
</g>
<circle fill="#1F1E43" cx="114.751" cy="660.696" r="45.177"/>
<circle fill="#1F1E43" cx="256.033" cy="660.696" r="45.177"/>
<circle fill="#1F1E43" cx="402.033" cy="660.696" r="45.177"/>
<path fill="#FFFFFF" stroke="#1F1E43" stroke-width="1.3702" stroke-miterlimit="10" d="M129.684,660.696h-8.91v32.376h-13.301
	v-32.376h-6.777v-11.169h6.65v-6.65c0-9.036,3.766-14.558,14.557-14.558h8.91v11.169h-5.521c-4.142,0-4.392,1.506-4.392,4.518v5.521
	h10.164L129.684,660.696z"/>
<circle fill="#FFFFFF" stroke="#204D69" stroke-width="3.0066" stroke-miterlimit="10" cx="263.167" cy="332.163" r="125.741"/>
<g>
	<path fill="#D1D8DA" d="M332.438,380.979c-18.194,9.914-37.771,16.69-57.35,23.092c-10.039,3.263-20.204,6.398-30.368,9.663
		c-2.008,0.627-4.016,1.255-6.148,1.757c-0.125,0-1.255,0.251-1.506,0.251c0,0,0,0-0.125,0v-0.125
		c0.251,0.502-0.503-1.004-0.503-1.256c-0.25-0.753-0.502-1.508-0.753-2.386c-0.627-1.883-1.255-3.765-1.882-5.771
		c-1.757-5.521-3.765-10.792-5.771-16.188c-3.891-10.792-7.404-21.71-10.039-32.878c-5.271-22.338-8.283-45.303-15.06-67.263
		c-1.004-3.264-3.388-5.021-6.022-5.522c6.399,0.126,12.925-1.631,18.824-3.639c9.16-3.138,17.944-7.404,26.729-11.294
		c7.027-3.138,14.809-5.647,22.212-8.91c0.627-0.251,1.255-0.502,1.882-0.753c1.004-0.376,2.009-0.753,3.013-1.255
		c0.628,1.632,2.259,2.887,4.142,2.008c3.766-1.506,7.654-2.635,11.545-4.141c1.381-0.628,2.133-1.632,2.385-2.887
		c1.004-0.753,1.883-1.632,2.762-2.51c0.377,0.125,0.879,0.251,1.255,0.251c2.134,0,3.264-1.632,3.515-3.514
		c0.251-2.636-0.753-5.396-1.757-7.78c-1.004-2.385-2.008-5.146-4.521-6.023c-1.004-0.377-2.133-0.126-2.885,0.502
		c-0.127,0-0.252-0.126-0.378-0.126l0,0c-1.004-2.635-3.765-3.263-5.896-1.506c-1.758,1.506-3.641,2.887-5.647,4.142
		c-13.302,2.635-26.102,9.913-38.022,15.686c-15.938,7.655-33.256,13.177-46.683,25.099c-2.008,1.757-0.878,5.271,1.506,5.897
		c1.256,0.377,2.511,0.502,3.766,0.628c-4.77,0.251-9.412,4.142-7.655,10.165c7.027,22.964,10.039,46.808,15.687,70.023
		c2.886,11.67,6.775,22.965,10.916,34.259c3.013,8.407,5.021,17.945,9.412,25.979c4.017,7.401,11.67,8.532,19.2,7.15
		c9.913-1.882,19.952-5.896,29.49-9.034c21.333-6.775,42.541-14.056,62.619-23.97c2.134-1.129,4.267-2.259,6.399-3.388
		C350.131,390.14,341.85,375.833,332.438,380.979z M208.704,272.555c0.627,0.628,1.38,1.004,2.51,1.004
		c1.757-0.125,3.515-0.376,5.146-0.753c0,0,0,0,0,0.126c-4.644,1.757-9.914,3.639-15.06,4.141
		C203.81,275.441,206.194,273.936,208.704,272.555z"/>
	<path fill="#8ABD33" d="M272.453,341.7c-0.502-1.004-1.255-1.506-2.008-1.632l0,0c-0.377-1.129-1.255-2.261-2.26-3.014
		c-0.251-2.008-1.004-4.141-1.757-5.771c1.004-1.38,1.632-2.886,1.757-4.771c0.125-2.133-1.632-4.141-3.64-4.769
		c-1.255-0.376-2.635-0.125-3.891,0c-0.878,0.126-2.259-0.878-3.264-1.631c0.628-1.632,1.005-3.266,1.255-4.771
		c0.127-0.627,0.127-1.129-0.125-1.631c0.503-0.126,1.005-0.502,1.507-0.879c1.506-1.255,2.385-3.012,3.012-4.769
		c0.125-0.503,0.251-1.006,0.125-1.382c0.502-0.377,0.879-0.628,1.256-1.128c2.133-2.008,0.502-6.023-2.51-5.897c0,0,0,0-0.126,0
		c-0.502-0.502-1.255-0.753-2.259-0.753c-2.26,0.125-4.645,0.878-6.4,2.51c-2.886,0.502-4.267,4.392-2.259,6.023
		c0.126,0.376,0.251,0.753,0.502,1.129c-0.753,1.381-1.255,2.761-1.129,4.518c0,0.502,0.125,0.879,0.376,1.255
		c-0.125,0.377-0.251,0.753-0.376,1.004c-0.377,0.879-0.126,1.757,0.251,2.511c-2.008-0.503-3.766,0.755-5.396,2.135
		c-0.125,0-0.125,0-0.251,0.126c-2.635,1.255-5.02,2.761-7.277,4.392c-3.64,2.636-0.627,7.906,3.514,6.023
		c1.004-0.502,2.008-1.004,2.887-1.506c0.251,0,0.502,0,0.627,0c1.758-0.251,3.139-1.006,4.77-1.759
		c1.381-0.627,2.385,0,3.891,0.126c0.753,0,1.38,0,2.008-0.251c1.129,0.628,2.133,1.257,3.389,1.633
		c0.251,0.126,0.628,0.126,0.879,0.126c-1.13,1.506-2.385,2.886-2.887,4.643c-2.762,0.753-5.271,3.891-4.268,6.651
		c0.377,1.004,1.004,1.882,2.008,2.51c0.251,0.251,0.502,0.502,0.879,0.627l0,0c1.256,1.255,3.389,1.757,5.396,1.632
		c0.377,0.502,1.004,0.753,1.632,1.004c1.38,1.631,3.138,2.133,4.769,1.757c0.252,0,0.502,0.125,0.754,0.125
		C271.449,347.975,274.084,344.963,272.453,341.7z"/>
	<g>
		<path fill="#204D69" stroke="#204D69" stroke-width="0.6142" stroke-miterlimit="10" d="M249.111,383.111
			c-0.125,0-0.251-0.125-0.251-0.376s0-0.377,0.251-0.377c0.377-0.251,0.879-0.503,1.255-0.503c0.502-0.125,0.879-0.125,1.381,0
			c0.502,0,0.878,0.253,1.255,0.378c1.004,0.502,1.631,1.255,2.133,2.134c0.502,0.878,0.628,1.882,0.377,3.012
			c-0.126,0.627-0.502,1.255-1.13,2.008l-0.502,0.627c-0.251,0.251-0.376,0.377-0.502,0.502l-0.125,0.126l-0.126,0.125
			c0,0,0,0-0.125,0.126v0.125v0.126l1.255,2.888c0.753,1.883,1.38,3.389,1.757,4.644c0.125,0.251,0,0.502-0.251,0.502
			c-0.251,0.125-0.502,0-0.502-0.251c-0.377-1.255-1.004-2.887-1.757-4.644c-0.879-2.008-1.381-3.265-1.632-3.892
			c-0.125-0.377-0.376-1.004-0.627-2.008s-0.502-1.632-0.502-1.757C250.115,384.868,249.613,383.739,249.111,383.111
			L249.111,383.111z M250.366,383.362c0.377,0.754,0.753,1.632,1.13,2.762c0,0.125,0.251,0.878,0.627,2.008
			c0,0.125,0.126,0.251,0.126,0.376c0,0.126,0.125,0.251,0.125,0.377c0,0.125,0,0.251,0.126,0.251
			c0.125,0.502,0.251,0.627,0.251,0.627s0.125-0.125,0.376-0.251c0,0,0.126-0.125,0.251-0.251c0.753-0.878,1.255-1.631,1.506-2.259
			c0.126-0.753,0.126-1.38,0-2.008c-0.251-0.628-0.627-1.13-1.004-1.506c-0.376-0.377-0.753-0.628-1.38-0.753
			c-0.502-0.126-1.004-0.251-1.506-0.126c-0.251,0-0.377,0.126-0.377,0.251C250.241,382.986,250.241,383.237,250.366,383.362z"/>
		<path fill="#204D69" stroke="#204D69" stroke-width="0.6142" stroke-miterlimit="10" d="M260.908,397.543
			c-0.126-0.627-0.377-1.882-0.879-3.765c-0.125-0.376-0.251-1.004-0.377-1.757c-0.752-3.014-1.254-5.021-1.381-6.023
			c-0.25-1.004-0.377-2.134-0.502-3.263c-0.251-1.759-0.126-2.889,0.252-3.391c0.879-0.878,1.757-0.753,2.635,0.628
			c0.502,0.753,1.005,1.507,1.256,2.512c2.133,4.267,3.89,8.657,5.396,13.051c0.126,0.251,0,0.502-0.251,0.502
			c-0.251,0.126-0.502,0-0.502-0.251c-1.004-2.886-2.008-5.521-3.137-8.156c-0.126-0.377-0.377-0.502-0.753-0.377
			c-0.502,0.126-1.381,0.377-2.511,0.628c-0.376,0.125-0.502,0.376-0.376,0.753c1.255,4.896,2.008,7.78,2.134,8.784
			c0,0.125,0,0.376-0.126,0.376c-0.126,0.126-0.251,0.126-0.376,0.126C261.033,397.794,260.908,397.669,260.908,397.543z
			 M259.15,386.626c0,0.125,0.126,0.251,0.252,0.376c0.125,0.126,0.125,0.126,0.25,0.126c0.126,0,0.252,0,0.377-0.126
			c0.879-0.251,1.632-0.502,2.134-0.627c0.125,0,0.251,0,0.376-0.126c0.126,0,0.126-0.125,0.126-0.251s0-0.251-0.126-0.502
			c-0.125-0.376-0.753-1.506-1.631-3.514c0,0,0,0-0.126-0.128c-0.126-0.376-0.251-0.627-0.376-0.753
			c-0.126-0.251-0.252-0.502-0.502-0.753c-0.126-0.251-0.377-0.502-0.502-0.627c-0.126-0.126-0.377-0.126-0.502-0.126
			c-0.252,0.126-0.377,0.251-0.377,0.502c0,0.126,0,0.251-0.125,0.502c0,0.377,0,1.006,0.125,1.885
			C258.648,384.366,258.9,385.622,259.15,386.626z"/>
		<path fill="#204D69" stroke="#204D69" stroke-width="0.6142" stroke-miterlimit="10" d="M263.92,381.229
			c-0.251-1.13,0-2.134,0.502-3.012c0.502-0.879,1.255-1.506,2.259-1.883c1.005-0.376,1.882-0.125,2.636,0.502
			c0.753,0.628,1.255,1.632,1.381,3.012c0,0.251-0.126,0.377-0.377,0.502c-0.251,0-0.376-0.125-0.502-0.376
			c-0.125-1.13-0.502-2.008-1.004-2.385c-0.502-0.502-1.129-0.627-1.883-0.376c-0.753,0.251-1.381,0.753-1.757,1.506
			c-0.377,0.753-0.502,1.506-0.377,2.386c0.251,1.004,0.628,1.757,1.381,2.259c0.502,0.377,1.129,0.754,2.009,1.13
			c0.878,0.376,1.631,0.753,2.259,1.13c0.627,0.376,1.38,0.753,2.008,1.38c0.753,0.628,1.255,1.381,1.631,2.134
			c0.628,1.255,0.753,2.386,0.377,3.39c-0.377,1.004-1.004,1.632-2.134,1.883c-1.004,0.251-2.008,0-3.012-0.753
			c-1.004-0.753-1.631-1.757-2.133-3.265c0-0.126,0-0.251,0-0.377c0-0.125,0.125-0.125,0.25-0.251c0.125,0,0.252,0,0.377,0
			c0.126,0,0.126,0.126,0.251,0.251c0.377,1.257,1.004,2.136,1.883,2.763c0.753,0.628,1.631,0.753,2.384,0.628
			c0.753-0.126,1.255-0.628,1.506-1.381c0.251-0.755,0.126-1.633-0.376-2.637c-0.251-0.502-0.502-0.879-0.753-1.255
			c-0.251-0.377-0.628-0.628-0.879-0.879s-0.627-0.502-1.129-0.753s-0.879-0.502-1.13-0.627c-0.251-0.126-0.627-0.251-1.255-0.502
			c-1.129-0.502-2.009-1.004-2.762-1.507C264.673,383.362,264.171,382.358,263.92,381.229z"/>
		<path fill="#204D69" stroke="#204D69" stroke-width="0.6142" stroke-miterlimit="10" d="M276.469,392.272
			c-0.126-0.629-0.377-1.884-0.879-3.767c-0.125-0.376-0.251-1.004-0.376-1.757c-0.753-3.012-1.255-5.02-1.381-6.023
			c-0.251-1.004-0.376-2.134-0.502-3.263c-0.251-1.757-0.125-2.887,0.251-3.389c0.879-0.878,1.757-0.753,2.636,0.628
			c0.502,0.753,1.005,1.506,1.255,2.51c2.133,4.269,3.891,8.659,5.396,13.051c0.126,0.251,0,0.502-0.251,0.502
			c-0.251,0.126-0.503,0-0.503-0.251c-1.004-2.886-2.008-5.521-3.137-8.155c-0.127-0.376-0.377-0.503-0.754-0.376
			c-0.502,0.125-1.381,0.376-2.51,0.627c-0.377,0.126-0.502,0.377-0.377,0.753c1.255,4.895,2.008,7.779,2.134,8.784
			c0,0.125,0,0.377-0.126,0.377c-0.125,0.126-0.251,0.126-0.376,0.126C276.846,392.649,276.469,392.523,276.469,392.272z
			 M274.712,381.354c0,0.128,0.125,0.253,0.251,0.379c0.125,0.125,0.125,0.125,0.251,0.125c0.125,0,0.251,0,0.376-0.125
			c0.879-0.251,1.633-0.504,2.135-0.629c0.125,0,0.25,0,0.375-0.125c0.127,0,0.127-0.127,0.127-0.252c0-0.126,0-0.251-0.127-0.502
			c-0.125-0.377-0.752-1.506-1.631-3.514c0,0,0,0-0.126-0.126c-0.125-0.376-0.251-0.627-0.376-0.753
			c-0.126-0.251-0.251-0.502-0.502-0.753c-0.126-0.251-0.377-0.502-0.502-0.627c-0.126-0.126-0.377-0.126-0.502-0.126
			c-0.251,0.126-0.377,0.251-0.377,0.502c0,0.126,0,0.251-0.125,0.502c0,0.377,0,1.004,0.125,1.883
			C274.21,379.096,274.461,380.477,274.712,381.354z"/>
		<path fill="#204D69" stroke="#204D69" stroke-width="0.6142" stroke-miterlimit="10" d="M278.602,373.323
			c-0.125,0-0.25-0.125-0.25-0.376s0-0.377,0.25-0.377c0.377-0.251,0.881-0.502,1.256-0.502c0.502-0.125,0.879-0.125,1.382,0
			c0.502,0,0.878,0.251,1.255,0.377c1.004,0.502,1.631,1.255,2.133,2.133c0.502,0.879,0.628,1.883,0.377,3.012
			c-0.126,0.628-0.502,1.255-1.13,2.008l-0.502,0.628c-0.251,0.251-0.376,0.376-0.502,0.502l-0.125,0.125l-0.126,0.126
			c0,0,0,0-0.125,0.128c-0.126,0.125,0,0.125,0,0.125v0.126l1.255,2.886c0.753,1.883,1.38,3.389,1.757,4.644
			c0.125,0.251,0,0.502-0.251,0.502c-0.251,0.125-0.502,0-0.502-0.251c-0.377-1.255-1.004-2.887-1.757-4.644
			c-0.879-2.008-1.381-3.263-1.633-3.893c-0.125-0.376-0.375-1.004-0.627-2.008c-0.25-1.004-0.502-1.631-0.502-1.757
			C279.605,375.08,279.104,373.951,278.602,373.323L278.602,373.323z M279.855,373.574c0.377,0.753,0.754,1.632,1.131,2.761
			c0,0.126,0.25,0.879,0.627,2.008c0,0.126,0.126,0.251,0.126,0.377c0,0.125,0.125,0.251,0.125,0.376c0,0.126,0,0.251,0.126,0.251
			c0.125,0.502,0.251,0.628,0.251,0.628s0.125-0.126,0.376-0.251c0,0,0.126-0.126,0.251-0.251c0.753-0.879,1.255-1.632,1.506-2.259
			c0.126-0.753,0.126-1.381,0-2.008c-0.251-0.628-0.502-1.13-1.004-1.506c-0.376-0.377-0.753-0.628-1.38-0.753
			c-0.502-0.126-1.004-0.251-1.506-0.126c-0.252,0-0.379,0.126-0.379,0.251C279.73,373.198,279.73,373.323,279.855,373.574z"/>
		<path fill="#204D69" stroke="#204D69" stroke-width="0.6142" stroke-miterlimit="10" d="M285.88,371.441
			c0.126-0.502,0.251-0.879,0.628-1.383c0.376-0.502,0.627-0.753,1.004-1.004c1.256-0.753,2.387-0.376,3.391,1.004
			c0.502,0.629,1.004,1.885,1.756,3.767c1.632,4.393,2.511,7.655,2.762,9.663c0.125,1.381-0.126,2.259-0.628,2.887
			c-0.627,0.753-1.38,0.878-2.384,0.376c-0.628-0.376-1.256-1.129-2.008-2.134c-0.629-1.004-1.383-2.133-2.01-3.516
			c-0.627-1.38-1.256-3.012-1.883-4.894C285.88,374.327,285.755,372.696,285.88,371.441z M286.759,371.566
			c-0.251,1.255,0,2.761,0.503,4.518c0.502,1.757,1.129,3.263,1.756,4.645c0.627,1.256,1.256,2.386,1.885,3.39
			c0.752,1.004,1.254,1.631,1.756,1.882s0.879,0.251,1.256-0.125c0.753-0.879,0.627-2.887-0.252-6.024
			c-0.25-1.129-1.129-3.514-2.385-7.15c-0.25-0.502-0.375-0.879-0.627-1.255c-0.25-0.377-0.504-0.753-0.754-1.13
			c-0.252-0.376-0.627-0.628-1.004-0.628c-0.377-0.127-0.754,0-1.004,0.252c-0.252,0.125-0.502,0.376-0.754,0.753
			C287.01,370.813,286.884,371.19,286.759,371.566z"/>
		<path fill="#204D69" stroke="#204D69" stroke-width="0.6142" stroke-miterlimit="10" d="M297.928,383.111
			c-0.628-2.01-1.13-3.516-1.255-4.394c-1.13-3.891-2.259-7.276-3.515-10.165c0,0-0.125-0.125-0.125-0.251
			c-0.125-0.125-0.125-0.251-0.125-0.251c0-0.125,0-0.125,0-0.251c0-0.125,0.125-0.251,0.125-0.251
			c2.134-1.255,3.891-1.38,5.521-0.251c0.752,0.502,1.254,1.13,1.506,2.134c0.25,1.004,0.125,1.882-0.252,2.888
			c-0.375,1.255-1.129,2.259-2.008,3.138c0,0-0.125,0,0,0.125c0,0.126,0,0.126,0.126,0.126c0.878,0.753,2.384,2.384,4.394,4.769
			c0.628,0.753,1.255,1.508,1.883,2.01c0.125,0.125,0.125,0.251,0.125,0.502c0,0.125-0.125,0.251-0.251,0.376
			c-0.125,0-0.251,0-0.376-0.125c-0.502-0.502-1.256-1.255-1.883-2.136c-2.385-2.886-3.892-4.518-4.394-4.769l0,0c0,0,0,0-0.126,0
			c0.126,0.502,0.126,0.879,0.126,0.879c0,0.125,0.125,0.376,0.251,0.753c0.125,0.376,0.125,0.627,0.251,0.753
			c0,0.125,0,0.125,0.125,0.251c0,0.125,0.126,0.251,0.126,0.502c0.125,0.251,0.125,0.376,0.125,0.627
			c0.252,1.004,0.502,1.885,0.879,2.889c0.125,0.376,0.377,0.878,0.502,1.506c0,0.125,0,0.251,0,0.376
			c0,0.126-0.125,0.126-0.25,0.251c-0.127,0-0.252,0-0.377,0s-0.125-0.125-0.252-0.251
			C298.305,384.241,298.18,383.739,297.928,383.111z M294.037,368.43c0.753,1.631,1.381,3.641,2.134,5.897
			c0.125,0.377,0.251,0.628,0.376,0.502l0.377-0.251c0.753-0.753,1.381-1.506,1.758-2.51c0.375-1.004,0.502-1.884,0.25-2.637
			c-0.25-0.753-0.627-1.255-1.13-1.632c-1.004-0.753-2.133-0.878-3.639-0.251C294.037,367.802,293.912,368.053,294.037,368.43z"/>
		<path fill="#204D69" stroke="#204D69" stroke-width="0.6142" stroke-miterlimit="10" d="M299.936,365.92c0-0.126,0-0.251,0-0.377
			c0-0.125,0.125-0.125,0.252-0.251c0.627-0.251,1.758-0.627,3.138-1.129c1.757-0.502,2.761-0.879,3.138-1.004
			c0.125,0,0.251,0,0.376,0c0.126,0,0.251,0.125,0.251,0.251c0,0.125,0,0.251,0,0.376c0,0.126-0.125,0.126-0.251,0.251
			c-0.753,0.251-1.882,0.628-3.137,1.004c0.502,0.753,0.878,1.757,1.129,2.887c0,0.125,0.126,0.376,0.126,0.502
			c0,0.251,0.125,0.376,0.125,0.502c0,0.125,0,0.125,0,0.251c0.251,0.753,0.628,2.01,1.13,3.641
			c1.129,3.765,2.009,6.398,2.886,7.906c0.127,0.125,0.127,0.251,0,0.376c-0.125,0.126-0.25,0.251-0.375,0.251
			c-0.127,0-0.252-0.125-0.377-0.251c-0.879-1.633-1.758-4.269-2.887-8.156c-0.502-1.757-0.879-2.887-1.13-3.642
			c-0.125-0.376-0.251-0.878-0.376-1.255c-0.377-1.255-0.753-2.133-1.004-2.635c0-0.126-0.251,0-0.629,0.125
			c-0.502,0.126-1.004,0.377-1.758,0.628c-0.125,0-0.25,0-0.375,0C300.061,366.171,299.936,366.045,299.936,365.92z"/>
		<path fill="#204D69" stroke="#204D69" stroke-width="0.6142" stroke-miterlimit="10" d="M308.971,363.284
			c-0.125-0.753-0.125-1.255,0.125-1.506c0.127-0.125,0.377-0.251,0.879-0.502l3.641-1.131c0.251-0.126,0.502,0,0.628,0.253
			c0.125,0.251-0.126,0.502-0.628,0.627c-0.125,0-0.627,0.251-1.631,0.502s-1.508,0.502-1.758,0.502
			c-0.252,0.126-0.377,0.126-0.377,0.126h-0.125c0,0,0,0,0,0.125l0,0c0,0,0,0,0,0.126v0.125v0.126c0,0,0,0,0,0.125v0.126
			c0.125,0.502,0.502,1.506,1.004,3.012c0.627,1.506,1.004,2.51,1.129,2.886c0.127,0.251,0.127,0.377,0.252,0.502
			c0.125,0,0.25,0,0.502,0c0.125,0,0.25-0.125,0.377-0.125c0.125,0,0.251-0.126,0.376-0.126c0.126,0,0.126,0,0.251-0.125
			c0.126,0,0.251,0,0.251,0c0.126,0,0.126,0.125,0.126,0.251c0.125,0.251,0,0.503-0.251,0.503c-0.126,0.125-0.502,0.252-1.004,0.377
			c-0.126,0-0.251,0.126-0.378,0.126c-0.125,0-0.125,0.125-0.125,0.251c0,0.125,0,0.251,0,0.502
			c0.754,3.012,1.507,5.145,2.134,6.648c0.126,0.377,0.377,0.753,0.502,1.13c0,0,0,0,0,0.125l0,0v-0.251
			c0.126,0.251,0.251,0.502,0.628,0.377c0.125,0,0.627-0.126,1.506-0.502c0.878-0.377,1.506-0.628,1.631-0.628
			c0.252-0.125,0.502,0,0.502,0.251c0.127,0.251,0,0.502-0.25,0.502c0,0-0.754,0.251-1.883,0.753
			c-0.879,0.378-1.632,0.503-2.134,0.378c-0.251,0-0.502-0.252-0.753-0.629c-0.251-0.251-0.376-0.753-0.627-1.255
			c-0.502-1.38-1.506-4.267-2.637-8.532c-0.252-0.628-0.502-1.507-0.879-2.511C309.598,365.167,309.096,363.912,308.971,363.284z"/>
	</g>
	<path fill="none" stroke="#204D69" stroke-width="2.8637" stroke-miterlimit="10" d="M292.279,244.445
		c0,0,1.005-15.185-8.407-12.549c-9.411,2.635-94.494,43.921-94.494,43.921s-10.416,13.553,15.687,6.274
		c26.102-7.279,95.623-35.012,99.263-33.38c3.64,1.506,40.156,141.553,40.156,141.553s-2.135,4.646-10.918,8.91
		c-8.909,4.143-97.631,34.51-97.631,34.51s-8.407,4.143-12.047-6.774c-3.639-10.918-34.008-137.412-34.008-137.412"/>
	<path fill="#FFFFFF" d="M193.395,280.963c1.757-1.381,3.388-3.138,5.396-4.016c3.89-1.883,8.031-3.263,12.047-5.02
		c8.283-3.389,16.439-6.902,24.722-10.29c14.182-5.773,28.235-11.546,42.542-17.192c1.506-0.628,3.766-0.502,5.021,0.251
		c2.636,1.506,5.021,3.765,7.905,6.148c-4.143,1.381-7.654,2.636-11.168,3.891c-23.593,8.533-46.559,18.447-70.651,25.224
		c-3.263,0.878-6.4,2.133-9.537,3.263C197.284,283.975,195.402,283.473,193.395,280.963"/>
	<path fill="#204D69" d="M266.43,297.653c7.529,0,13.554,4.894,19.325,10.041c0.753,0.627,1.507,1.38,1.757,2.259
		c1.129,4.643,2.512,9.16,3.264,13.93c1.381,8.533-2.135,15.312-9.034,19.952c-9.035,5.898-18.698,9.914-30.243,7.906
		c-5.396-0.879-8.784-3.893-11.294-7.78c-7.655-12.047-7.53-24.848,0.251-36.895c5.02-7.78,12.549-10.542,21.459-9.915
		C263.167,297.025,264.296,297.276,266.43,297.653 M263.041,300.79c-2.008,0-3.765-0.125-5.521,0c-5.646,0-7.152,2.008-6.022,7.404
		c2.384,11.043,1.631,12.047-9.788,14.808c-1.757,0.376-3.263,1.255-2.636,3.138c0.377,1.255,1.883,2.888,3.012,3.014
		c2.008,0,4.142-1.004,6.149-1.506c2.259-0.63,4.518-1.508,6.775-1.508c2.887,0,5.146,2.763,5.521,5.396
		c0.377,2.887-1.506,3.765-3.641,4.644c-1.004,0.376-2.008,1.129-3.137,1.883c0.376,1.382,0.376,2.888,1.129,3.515
		c2.887,2.259,6.149,4.142,9.663,6.523c2.51-1.004,5.271-2.259,8.784-3.639c-1.38-0.879-1.882-1.255-2.384-1.506
		c-6.274-3.138-6.651-4.395-4.394-11.169c0.753-2.133,0.753-4.645,1.004-7.027c-1.004,0-1.631-0.126-2.259-0.126
		c-3.89,0.377-6.776-1.255-8.157-4.643c-1.255-2.889-0.376-5.772,1.883-8.157c1.005-1.004,1.884-2.008,2.637-3.263
		C263.041,306.313,264.673,304.179,263.041,300.79 M267.434,301.794c-0.251,4.896-2.51,8.157-5.396,11.42
		c-1.129,1.255-1.506,3.641-1.255,5.396c0.376,2.385,2.636,2.259,4.769,2.259c4.268-0.125,5.396,0.879,5.271,5.021
		c0,1.633-0.251,3.139-0.627,4.771c-1.884,7.277-1.884,7.277,5.145,10.039c0.502,0.251,1.004,0.627,1.632,0.753
		c0.879,0.125,2.01,0.251,2.762-0.126c4.268-1.882,7.528-7.905,7.151-13.929c-2.008,0.753-3.639,1.38-5.396,2.008
		c-3.516,1.255-5.146,0.627-6.651-2.638c-0.627-1.38-1.38-2.635-2.259-3.891c-2.51-3.514-2.259-6.776,1.506-8.282
		c3.766-1.506,4.645-4.267,5.271-7.527C275.967,303.928,272.578,301.669,267.434,301.794 M257.27,331.786
		c-1.884-3.012-3.892-2.886-6.4-1.882c-3.514,1.38-7.152,2.635-10.792,3.89c1.883,9.914,7.026,14.181,16.94,13.679
		C248.986,342.955,248.358,335.3,257.27,331.786 M279.73,325.889c2.385-1.004,4.895-1.883,7.653-3.012
		c-1.506-4.017-0.753-8.785-4.392-11.295c-3.014,2.51-5.647,4.769-8.031,6.776C276.469,320.743,277.975,323.128,279.73,325.889
		 M246.729,304.681c-4.017,5.02-7.906,8.658-8.032,14.808c1.506,0,2.635,0,3.765-0.126c0.753,0,1.631-0.125,2.384-0.251
		c4.017-1.004,4.896-2.386,4.143-6.399C248.484,310.453,247.73,308.194,246.729,304.681"/>
</g>
<path fill="#FFFFFF" stroke="#1F1E43" stroke-width="1.5942" stroke-miterlimit="10" d="M283.266,651.033c0,0.502,0,1.13,0,1.632
	c0,16.94-12.927,36.643-36.645,36.643c-7.278,0-14.055-2.133-19.701-5.771c1.004,0.126,2.008,0.126,3.012,0.126
	c6.023,0,11.545-2.008,15.938-5.521c-5.646-0.126-10.415-3.765-12.047-8.908c0.753,0.125,1.632,0.251,2.385,0.251
	c1.129,0,2.259-0.125,3.388-0.502c-5.896-1.132-10.29-6.4-10.29-12.551v-0.126c1.758,1.005,3.766,1.507,5.772,1.634
	c-3.515-2.261-5.772-6.274-5.772-10.667c0-2.386,0.628-4.52,1.758-6.525c6.399,7.78,15.812,12.926,26.479,13.428
	c-0.251-1.004-0.377-1.883-0.377-2.887c0-7.152,5.773-12.8,12.926-12.8c3.766,0,7.027,1.506,9.412,4.016
	c2.887-0.627,5.646-1.631,8.156-3.137c-1.004,3.012-3.012,5.521-5.646,7.15c2.637-0.251,5.146-1.004,7.404-2.008
	C288.033,646.893,285.773,649.151,283.266,651.033L283.266,651.033z"/>
<g>
	
		<rect x="377.794" y="646.884" fill="#FFFFFF" stroke="#1F1E43" stroke-width="1.3702" stroke-miterlimit="10" width="10.586" height="33.861"/>
	<path fill="#FFFFFF" stroke="#1F1E43" stroke-width="1.3702" stroke-miterlimit="10" d="M382.818,642.649h-0.072
		c-3.831,0-6.314-2.592-6.314-5.87c0-3.346,2.559-5.878,6.465-5.878c3.901,0,6.305,2.527,6.379,5.87
		C389.273,640.052,386.798,642.649,382.818,642.649z"/>
	<path fill="#FFFFFF" stroke="#1F1E43" stroke-width="1.3702" stroke-miterlimit="10" d="M430.708,680.745h-11.991v-17.521
		c0-4.587-1.878-7.717-6.008-7.717c-3.154,0-4.909,2.11-5.729,4.151c-0.311,0.728-0.262,1.745-0.262,2.763v18.323h-11.884
		c0,0,0.151-31.04,0-33.861h11.884v5.315c0.705-2.325,4.501-5.643,10.563-5.643c7.513,0,13.424,4.874,13.424,15.358L430.708,680.745
		L430.708,680.745z"/>
</g>
</svg>
