<?xml version="1.0" encoding="utf-8"?>
<!-- Generator: Adobe Illustrator 19.0.0, SVG Export Plug-In . SVG Version: 6.00 Build 0)  -->
<svg version="1.1" id="Capa_1" xmlns="http://www.w3.org/2000/svg" xmlns:xlink="http://www.w3.org/1999/xlink" x="0px" y="0px"
	 viewBox="-164 203.1 282.7 387.9" style="enable-background:new -164 203.1 282.7 387.9;" xml:space="preserve">
<style type="text/css">
	.st0{fill:#666666;}
	.st1{fill:#FFFFFF;}
	.st2{fill:#E41E5D;}
	.st3{fill:#FFFFFF;stroke:#1F4D69;stroke-width:1.9071;stroke-miterlimit:10;}
	.st4{fill:#D7D7D8;}
	.st5{fill:#1F1E43;}
	.st6{fill:#FFFFFF;stroke:#1F1E43;stroke-width:1.3702;stroke-miterlimit:10;}
	.st7{fill:#FFFFFF;stroke:#1F1E43;stroke-width:1.5942;stroke-miterlimit:10;}
	.st8{fill:#0D004C;}
	.st9{fill:#1F4D69;}
	.st10{fill:#D2D9DB;}
	.st11{fill:#FA8510;}
	.st12{fill:none;stroke:#1F4D69;stroke-width:2;stroke-miterlimit:10;}
</style>
<g id="Capa_1_1_">
	<g>
		<g>
			<rect x="-138.7" y="223.3" class="st0" width="251.7" height="357.4"/>
			<rect x="-150.6" y="213.4" class="st1" width="251.7" height="357.4"/>
			<rect x="-150.6" y="213.4" class="st2" width="251.7" height="33.5"/>
			<circle class="st3" cx="-24.7" cy="371.6" r="63.5"/>
			<rect x="-150.6" y="477.2" class="st4" width="251.7" height="93.6"/>
			<rect x="-150.6" y="477.2" class="st5" width="251.7" height="25.8"/>
			<g>
				<g>
					<path class="st1" d="M-52,486.8c0-2.4,1.1-3.9,3.5-3.9c1.4,0,2.7,0.6,2.7,1.3c0,0.3-0.3,0.6-0.6,0.6c-0.2,0-0.3-0.1-0.6-0.3
						c-0.4-0.3-1-0.5-1.5-0.5c-1.8,0-2.3,1.1-2.3,2.8v3.3c0,1.7,0.6,2.8,2.3,2.8c0.6,0,1.1-0.1,1.5-0.5c0.3-0.1,0.3-0.3,0.6-0.3
						s0.6,0.3,0.6,0.6c0,0.7-1.3,1.3-2.7,1.3c-2.4,0-3.5-1.6-3.5-3.9V486.8z"/>
					<path class="st1" d="M-44.6,491.3v-2.6c0-1.5,1-2.7,2.9-2.7s2.9,1.2,2.9,2.7v2.6c0,1.5-1,2.7-2.9,2.7S-44.6,492.8-44.6,491.3z
						 M-40,491.3v-2.6c0-1-0.6-1.6-1.7-1.6c-1.1,0-1.7,0.6-1.7,1.6v2.6c0,1,0.6,1.6,1.7,1.6C-40.6,493-40,492.3-40,491.3z"/>
					<path class="st1" d="M-28.5,488.7c0-0.9-0.4-1.5-1.4-1.5c-0.6,0-1.3,0.4-1.7,0.8c0.1,0.2,0.1,0.4,0.1,0.7v4.8
						c0,0.3-0.2,0.6-0.6,0.6c-0.4,0-0.6-0.3-0.6-0.6V489c0-1.1-0.2-1.9-1.3-1.9c-0.7,0-1.3,0.3-1.8,0.6c0,0.2,0.1,0.3,0.1,0.5v5.3
						c0,0.3-0.2,0.6-0.6,0.6c-0.4,0-0.6-0.3-0.6-0.6v-5.3c0-0.8-0.1-0.8-0.3-1.1c0-0.1-0.1-0.1-0.1-0.3c0-0.3,0.3-0.6,0.6-0.6
						s0.4,0.2,0.6,0.4c0.7-0.4,1.5-0.7,2.3-0.7s1.4,0.3,1.8,0.8c0.6-0.5,1.4-0.8,2.2-0.8c1.6,0,2.6,1.1,2.6,2.6v4.8
						c0,0.3-0.2,0.6-0.6,0.6s-0.6-0.3-0.6-0.6L-28.5,488.7L-28.5,488.7z"/>
					<path class="st1" d="M-23.7,493.8v2.9c0,0.3-0.2,0.6-0.6,0.6s-0.6-0.3-0.6-0.6v-8.4c0-0.5-0.1-0.8-0.3-1.1
						c-0.1-0.1-0.1-0.2-0.1-0.3c0-0.3,0.3-0.6,0.6-0.6c0.3,0,0.4,0.1,0.6,0.4c0.7-0.4,1.5-0.7,2.3-0.7c1.6,0,2.5,1.2,2.5,2.9v2
						c0,1.8-0.6,3.1-2.6,3.1C-22.5,494-23.2,494-23.7,493.8z M-23.7,492.7c0.5,0.3,1.2,0.3,1.6,0.3c1.1,0,1.5-0.6,1.5-2.1v-2
						c0-1.2-0.5-1.8-1.5-1.8c-0.5,0-1.1,0.2-1.6,0.5c0.1,0.3,0.1,0.4,0.1,0.6v4.5H-23.7z"/>
					<path class="st1" d="M-13.7,488.7c0-1.1-0.6-1.6-1.6-1.6c-0.6,0-0.8,0.1-1.2,0.3c-0.1,0-0.3,0.1-0.4,0.1
						c-0.3,0-0.4-0.3-0.4-0.5c-0.1-0.7,1.1-1,2.2-1c1.9,0,2.7,1.1,2.7,3.1v3.4c0,0.3,0.1,0.4,0.3,0.4c0.1,0,0.1,0,0.1,0
						c0.3,0,0.4,0.3,0.4,0.5c0,0.4-0.4,0.5-0.7,0.5c-0.5,0-1-0.3-1.1-0.8c-0.6,0.6-1.3,0.8-2.1,0.8c-1.6,0-2.3-1-2.3-2.3v-0.1
						c0-1.5,0.9-2.3,2.7-2.3c0.6,0,1.1,0.1,1.6,0.2L-13.7,488.7L-13.7,488.7z M-16.8,491.7L-16.8,491.7c0,0.8,0.3,1.3,1.3,1.3
						c0.6,0,1.2-0.2,1.7-0.7v-1.6c-0.5-0.1-1.1-0.3-1.6-0.3C-16.6,490.4-16.8,491-16.8,491.7z"/>
					<path class="st1" d="M-8.8,493.5c0,0.3-0.3,0.6-0.6,0.6s-0.6-0.3-0.6-0.6v-5.2c0-0.5-0.1-0.8-0.3-1.1c-0.1-0.1-0.1-0.2-0.1-0.3
						c0-0.3,0.3-0.6,0.6-0.6s0.4,0.2,0.6,0.4c0.6-0.4,1.5-0.6,2.1-0.6s0.8,0.3,0.8,0.6c0,0.4-0.3,0.6-0.6,0.6c-0.6,0-1.2,0-2,0.6
						c0,0.1,0,0.3,0,0.4L-8.8,493.5L-8.8,493.5z"/>
					<path class="st1" d="M-4.9,484.3c0-0.3,0.2-0.6,0.6-0.6s0.6,0.3,0.6,0.6v2.2h1.6c0.3,0,0.6,0.3,0.6,0.6c0,0.3-0.3,0.6-0.6,0.6
						h-1.6v3.1c0,1.6,0.1,2.2,1.3,2.2c0.1,0,0.2,0,0.3,0c0.4,0,0.8,0.1,0.8,0.6s-0.4,0.6-0.9,0.6c-2.2,0-2.7-1.1-2.7-3.2v-6.5V484.3
						L-4.9,484.3z"/>
					<path class="st1" d="M0.7,484.3c-0.4,0-0.8-0.3-0.8-0.8c0-0.4,0.3-0.8,0.8-0.8c0.4,0,0.8,0.3,0.8,0.8S1.1,484.3,0.7,484.3z
						 M0.7,494c-0.3,0-0.6-0.3-0.6-0.6v-6.9c0-0.3,0.3-0.6,0.6-0.6s0.6,0.3,0.6,0.6v6.9C1.3,493.8,1.1,494,0.7,494z"/>
					<path class="st1" d="M5,493.5c0,0.3-0.3,0.6-0.6,0.6s-0.6-0.3-0.6-0.6v-5.2c0-0.5-0.1-0.8-0.3-1.1c-0.1-0.1-0.1-0.2-0.1-0.3
						c0-0.3,0.3-0.6,0.6-0.6s0.4,0.2,0.6,0.4c0.6-0.4,1.5-0.6,2.1-0.6s0.8,0.3,0.8,0.6c0,0.4-0.3,0.6-0.6,0.6c-0.6,0-1.2,0-2,0.6
						c0,0.1,0,0.3,0,0.4L5,493.5L5,493.5z"/>
				</g>
			</g>
			<circle class="st5" cx="-99.8" cy="537.7" r="22.8"/>
			<circle class="st5" cx="-28.4" cy="537.7" r="22.8"/>
			<circle class="st5" cx="45.4" cy="537.7" r="22.8"/>
			<path class="st6" d="M-92.3,537.7h-4.5v16.4h-6.7v-16.4h-3.4V532h3.4v-3.4c0-4.6,1.9-7.4,7.4-7.4h4.5v5.6h-2.8
				c-2.1,0-2.2,0.8-2.2,2.3v2.8h5.1L-92.3,537.7z"/>
			<path class="st7" d="M-14.6,532.8c0,0.3,0,0.6,0,0.8c0,8.6-6.5,18.5-18.5,18.5c-3.7,0-7.1-1.1-10-2.9c0.5,0.1,1,0.1,1.5,0.1
				c3,0,5.8-1,8.1-2.8c-2.9-0.1-5.3-1.9-6.1-4.5c0.4,0.1,0.8,0.1,1.2,0.1c0.6,0,1.1-0.1,1.7-0.3c-3-0.6-5.2-3.2-5.2-6.3v-0.1
				c0.9,0.5,1.9,0.8,2.9,0.8c-1.8-1.1-2.9-3.2-2.9-5.4c0-1.2,0.3-2.3,0.9-3.3c3.2,3.9,8,6.5,13.4,6.8c-0.1-0.5-0.2-1-0.2-1.5
				c0-3.6,2.9-6.5,6.5-6.5c1.9,0,3.6,0.8,4.8,2c1.5-0.3,2.9-0.8,4.1-1.6c-0.5,1.5-1.5,2.8-2.9,3.6c1.3-0.1,2.6-0.5,3.7-1
				C-12.2,530.7-13.4,531.9-14.6,532.8L-14.6,532.8z"/>
			<g>
				<rect x="33.1" y="530.7" class="st6" width="5.4" height="17.1"/>
				<path class="st6" d="M35.7,528.6L35.7,528.6c-2,0-3.2-1.3-3.2-3s1.3-3,3.3-3s3.2,1.3,3.2,3C38.9,527.3,37.7,528.6,35.7,528.6z"
					/>
				<path class="st6" d="M59.9,547.8h-6.1V539c0-2.3-0.9-3.9-3-3.9c-1.6,0-2.5,1.1-2.9,2.1c-0.2,0.4-0.1,0.9-0.1,1.4v9.3h-6
					c0,0,0.1-15.7,0-17.1h6v2.7c0.4-1.2,2.3-2.9,5.3-2.9c3.8,0,6.8,2.5,6.8,7.8V547.8L59.9,547.8z"/>
			</g>
			<g>
				<path class="st8" d="M-118.4,450.8c0,0.2-0.1,0.4-0.2,0.6c-0.2,0.2-0.3,0.2-0.6,0.2c-0.2,0-0.4-0.1-0.6-0.2
					c-0.2-0.2-0.2-0.3-0.2-0.6c0-0.2,0.1-0.4,0.2-0.6c0.2-0.2,0.3-0.2,0.6-0.2c0.2,0,0.4,0.1,0.6,0.2
					C-118.5,450.4-118.4,450.6-118.4,450.8z M-119.6,453.1c0-0.1,0-0.2,0.1-0.3c0.1-0.1,0.2-0.1,0.3-0.1c0.1,0,0.2,0,0.3,0.1
					c0.1,0.1,0.1,0.2,0.1,0.3l0.1,7c0,0.2-0.1,0.3-0.2,0.4s-0.3,0.2-0.4,0.2c-0.2,0-0.3-0.1-0.4-0.2s-0.2-0.3-0.2-0.4L-119.6,453.1z
					"/>
				<path class="st8" d="M-110.9,456.9c0,0.2-0.1,0.3-0.2,0.4s-0.3,0.2-0.4,0.2h-3.9c-0.2,0-0.5,0-0.7-0.1s-0.3-0.3-0.3-0.6v-9.1
					c0-0.2,0.1-0.3,0.2-0.5s0.3-0.2,0.5-0.2h4c0.2,0,0.3,0.1,0.4,0.2s0.2,0.3,0.2,0.4c0,0.2-0.1,0.3-0.2,0.4s-0.3,0.2-0.4,0.2h-3.5
					v3.5h3.3c0.1,0,0.3,0.1,0.4,0.2s0.2,0.2,0.2,0.4c0,0.2-0.1,0.3-0.2,0.4s-0.2,0.2-0.4,0.2h-3.3v3.5h3.7c0.2,0,0.3,0.1,0.4,0.2
					C-111,456.7-110.9,456.8-110.9,456.9z"/>
				<path class="st8" d="M-109.6,452.1c0-0.6,0.2-1.2,0.6-1.6s1-0.6,1.8-0.6c0.2,0,0.4,0,0.6,0s0.4,0.1,0.6,0.1
					c0.2,0.1,0.4,0.1,0.5,0.3c0.1,0.1,0.2,0.2,0.2,0.4c0,0.1,0,0.3-0.1,0.4s-0.2,0.2-0.4,0.2c-0.1,0-0.2,0-0.3-0.1
					c-0.2-0.1-0.3-0.1-0.5-0.2c-0.2,0-0.4-0.1-0.6-0.1c-0.9,0-1.3,0.3-1.3,1c0,0.2,0.1,0.4,0.2,0.6c0.1,0.1,0.3,0.3,0.5,0.4
					c0.3,0.1,0.5,0.2,0.9,0.3c0.3,0.1,0.6,0.2,0.9,0.4c0.3,0.2,0.5,0.4,0.7,0.7c0.2,0.3,0.3,0.7,0.3,1.1c0,0.7-0.2,1.2-0.6,1.6
					s-1,0.6-1.9,0.6c-0.2,0-0.4,0-0.7,0c-0.3,0-0.5-0.1-0.7-0.1c-0.2-0.1-0.4-0.2-0.6-0.3c-0.2-0.1-0.2-0.3-0.2-0.4s0-0.3,0.1-0.4
					s0.2-0.2,0.4-0.2h0.1c0,0,0,0,0.1,0c0.2,0.1,0.4,0.2,0.7,0.2c0.2,0.1,0.5,0.1,0.8,0.1c0.4,0,0.7-0.1,1-0.3
					c0.2-0.2,0.4-0.5,0.4-0.8s-0.1-0.5-0.2-0.6s-0.2-0.2-0.4-0.3c-0.2-0.1-0.5-0.2-0.9-0.3c-0.3-0.1-0.6-0.2-1-0.4
					c-0.3-0.2-0.6-0.4-0.8-0.7S-109.6,452.6-109.6,452.1z"/>
				<path class="st8" d="M-103.5,448.3c0-0.2,0-0.3,0.1-0.4s0.2-0.2,0.4-0.2c0.2,0,0.3,0.1,0.4,0.2s0.1,0.2,0.1,0.4v2.1h1.5
					c0.1,0,0.3,0.1,0.4,0.2s0.2,0.2,0.2,0.4c0,0.2-0.1,0.3-0.2,0.4s-0.2,0.2-0.4,0.2h-1.5v3c0,0.4,0,0.7,0,1s0.1,0.5,0.2,0.6
					c0.1,0.2,0.2,0.3,0.4,0.4c0.2,0.1,0.4,0.1,0.6,0.1h0.1h0.1c0.1,0,0.2,0,0.3,0c0.1,0,0.2,0,0.2,0.1c0.1,0,0.1,0.1,0.2,0.2
					c0,0.1,0.1,0.2,0.1,0.3c0,0.1,0,0.2-0.1,0.3c0,0.1-0.1,0.1-0.2,0.2c-0.1,0-0.2,0.1-0.3,0.1c-0.1,0-0.2,0-0.3,0
					c-0.5,0-1-0.1-1.3-0.2s-0.6-0.3-0.8-0.6c-0.2-0.3-0.3-0.6-0.4-1s-0.1-0.8-0.1-1.3v-6.5H-103.5z"/>
				<path class="st8" d="M-95,452.5c0-1.1-0.5-1.6-1.6-1.6c-0.3,0-0.5,0-0.6,0.1c-0.2,0.1-0.3,0.1-0.5,0.2c0,0-0.1,0-0.1,0.1
					c-0.1,0-0.2,0.1-0.2,0.1c-0.1,0-0.2-0.1-0.3-0.2c-0.1-0.1-0.1-0.2-0.1-0.3c0-0.2,0-0.3,0.1-0.4s0.3-0.2,0.5-0.3
					c0.2-0.1,0.4-0.1,0.7-0.2s0.5-0.1,0.8-0.1c0.9,0,1.6,0.3,2,0.8s0.6,1.3,0.6,2.2v3.3c0,0.3,0.1,0.4,0.3,0.4c0,0,0,0,0.1,0
					c0,0,0,0,0.1,0s0.2,0.1,0.3,0.2c0.1,0.1,0.1,0.2,0.1,0.3c0,0.2-0.1,0.3-0.2,0.4s-0.3,0.1-0.5,0.1s-0.5-0.1-0.7-0.2
					s-0.3-0.3-0.5-0.5c-0.6,0.5-1.3,0.8-2,0.8c-0.8,0-1.3-0.2-1.7-0.6c-0.4-0.4-0.6-1-0.6-1.6v-0.1c0-1.5,0.9-2.2,2.6-2.2
					c0.5,0,1,0.1,1.5,0.2v-0.9H-95z M-96.6,454.2c-0.3,0-0.6,0-0.7,0.1c-0.2,0.1-0.3,0.2-0.4,0.3c-0.1,0.1-0.2,0.2-0.2,0.4
					c0,0.1-0.1,0.3-0.1,0.5v0.1c0,0.3,0.1,0.6,0.3,0.9c0.2,0.2,0.5,0.3,1,0.3c0.3,0,0.6-0.1,0.9-0.2s0.5-0.3,0.8-0.5v-1.6
					c-0.2-0.1-0.5-0.1-0.8-0.2C-96.1,454.2-96.3,454.2-96.6,454.2z M-95.7,447.1c0.1-0.1,0.2-0.2,0.3-0.2c0.1-0.1,0.2-0.1,0.3-0.1
					c0.1,0,0.2,0,0.3,0.1c0.1,0.1,0.1,0.2,0.1,0.3v0.1c0,0,0,0.1-0.1,0.1l-1.2,1.3c-0.1,0.1-0.2,0.1-0.2,0.2c-0.1,0-0.1,0.1-0.2,0.1
					s-0.3,0-0.3-0.1c-0.1-0.1-0.1-0.2-0.1-0.4c0-0.1,0-0.2,0.1-0.2L-95.7,447.1z"/>
				<path class="st8" d="M-91.8,452.1c0-0.6,0.2-1.2,0.6-1.6s1-0.6,1.8-0.6c0.2,0,0.4,0,0.6,0s0.4,0.1,0.6,0.1
					c0.2,0.1,0.4,0.1,0.5,0.3c0.1,0.1,0.2,0.2,0.2,0.4c0,0.1,0,0.3-0.1,0.4s-0.2,0.2-0.4,0.2c-0.1,0-0.2,0-0.3-0.1
					c-0.2-0.1-0.3-0.1-0.5-0.2c-0.2,0-0.4-0.1-0.6-0.1c-0.9,0-1.3,0.3-1.3,1c0,0.2,0.1,0.4,0.2,0.6c0.1,0.1,0.3,0.3,0.5,0.4
					c0.3,0.1,0.5,0.2,0.9,0.3c0.3,0.1,0.6,0.2,0.9,0.4c0.3,0.2,0.5,0.4,0.7,0.7c0.2,0.3,0.3,0.7,0.3,1.1c0,0.7-0.2,1.2-0.6,1.6
					s-1,0.6-1.9,0.6c-0.2,0-0.4,0-0.7,0c-0.3,0-0.5-0.1-0.7-0.1c-0.2-0.1-0.4-0.2-0.6-0.3c-0.2-0.1-0.2-0.3-0.2-0.4s0-0.3,0.1-0.4
					s0.2-0.2,0.4-0.2h0.1c0,0,0,0,0.1,0c0.2,0.1,0.4,0.2,0.7,0.2c0.2,0.1,0.5,0.1,0.8,0.1c0.4,0,0.7-0.1,1-0.3
					c0.2-0.2,0.4-0.5,0.4-0.8s-0.1-0.5-0.2-0.6s-0.2-0.2-0.4-0.3c-0.2-0.1-0.5-0.2-0.9-0.3c-0.3-0.1-0.6-0.2-1-0.4
					c-0.3-0.2-0.6-0.4-0.8-0.7C-91.6,452.9-91.8,452.6-91.8,452.1z"/>
				<path class="st8" d="M-78.6,456.6c0.3,0,0.6,0,0.8-0.1c0.2-0.1,0.5-0.2,0.7-0.3c0,0,0,0,0.1,0h0.1c0.1,0,0.3,0.1,0.4,0.2
					s0.1,0.2,0.1,0.4c0,0.2-0.1,0.3-0.3,0.5c-0.2,0.1-0.4,0.2-0.6,0.3c-0.3,0.1-0.5,0.1-0.8,0.2c-0.3,0-0.5,0.1-0.7,0.1
					c-0.4,0-0.8-0.1-1.1-0.2c-0.3-0.1-0.6-0.3-0.8-0.5c-0.2-0.2-0.4-0.5-0.5-0.8s-0.2-0.6-0.2-1v-2.8c0-0.4,0.1-0.7,0.2-1
					s0.3-0.6,0.5-0.8c0.2-0.2,0.5-0.4,0.8-0.5s0.7-0.2,1.2-0.2c0.8,0,1.5,0.2,1.9,0.7c0.4,0.4,0.6,1,0.6,1.8c0,0.7-0.2,1.2-0.6,1.6
					s-1,0.6-1.9,0.6c-0.2,0-0.5,0-0.7,0s-0.5-0.1-0.8-0.1v0.9c0,0.4,0.1,0.7,0.4,1C-79.5,456.5-79.1,456.6-78.6,456.6z M-77.3,452.3
					c0-0.5-0.1-0.8-0.3-1s-0.6-0.3-1-0.3c-0.5,0-0.9,0.1-1.1,0.4c-0.3,0.2-0.4,0.6-0.4,1v1.1c0.3,0,0.6,0.1,0.9,0.1s0.5,0,0.7,0
					c0.3,0,0.5,0,0.7-0.1s0.3-0.2,0.4-0.3c0.1-0.1,0.2-0.2,0.2-0.4C-77.4,452.6-77.3,452.5-77.3,452.3z"/>
				<path class="st8" d="M-73.3,457.1c0,0.2,0,0.3-0.1,0.4s-0.2,0.2-0.4,0.2c-0.2,0-0.3-0.1-0.4-0.2s-0.1-0.2-0.1-0.4V452
					c0-0.2,0-0.4,0-0.5s0-0.2-0.1-0.3s-0.1-0.1-0.1-0.2l-0.1-0.1c0,0,0-0.1-0.1-0.1c0,0,0-0.1,0-0.2s0.1-0.3,0.2-0.4
					s0.2-0.1,0.4-0.1c0.1,0,0.3,0,0.4,0.1s0.2,0.2,0.3,0.3c0.3-0.2,0.7-0.4,1-0.5c0.4-0.1,0.7-0.2,1.1-0.2c0.8,0,1.4,0.3,1.8,0.8
					s0.6,1.2,0.6,2v4.3c0,0.2,0,0.3-0.1,0.4s-0.2,0.2-0.4,0.2s-0.3-0.1-0.4-0.2s-0.1-0.2-0.1-0.4v-4.3c0-0.6-0.1-1-0.3-1.3
					c-0.2-0.3-0.6-0.5-1-0.5c-0.3,0-0.6,0.1-0.8,0.2c-0.3,0.1-0.5,0.3-0.8,0.5c0,0.2,0,0.3,0,0.4v5.2H-73.3z"/>
				<path class="st8" d="M-62.5,447.4c0-0.2,0.1-0.3,0.2-0.4s0.2-0.2,0.4-0.2c0.2,0,0.3,0.1,0.4,0.2c0.1,0.1,0.2,0.2,0.2,0.4v8.8
					c0,0.2,0,0.3,0,0.4s0.1,0.2,0.2,0.3c0,0,0,0.1,0.1,0.1c0,0,0,0.1,0,0.2s-0.1,0.3-0.2,0.4s-0.2,0.2-0.4,0.2c-0.1,0-0.2,0-0.3-0.1
					c-0.1,0-0.2-0.1-0.3-0.2c-0.1-0.1-0.2-0.3-0.2-0.5c-0.1-0.2-0.1-0.5-0.1-0.8V447.4z"/>
				<path class="st8" d="M-55.4,452.5c0-1.1-0.5-1.6-1.6-1.6c-0.3,0-0.5,0-0.6,0.1c-0.2,0.1-0.3,0.1-0.5,0.2c0,0-0.1,0-0.1,0.1
					c-0.1,0-0.2,0.1-0.2,0.1c-0.1,0-0.2-0.1-0.3-0.2s-0.1-0.2-0.1-0.3c0-0.2,0-0.3,0.1-0.4s0.3-0.2,0.5-0.3c0.2-0.1,0.4-0.1,0.7-0.2
					c0.3,0,0.5-0.1,0.8-0.1c0.9,0,1.6,0.3,2,0.8s0.6,1.3,0.6,2.2v3.3c0,0.3,0.1,0.4,0.3,0.4c0,0,0,0,0.1,0c0,0,0,0,0.1,0
					s0.2,0.1,0.3,0.2s0.1,0.2,0.1,0.3c0,0.2-0.1,0.3-0.2,0.4c-0.1,0.1-0.3,0.1-0.5,0.1s-0.5-0.1-0.7-0.2s-0.3-0.3-0.5-0.5
					c-0.6,0.5-1.3,0.8-2,0.8c-0.8,0-1.3-0.2-1.7-0.6s-0.6-1-0.6-1.6v-0.1c0-1.5,0.9-2.2,2.6-2.2c0.5,0,1,0.1,1.5,0.2L-55.4,452.5
					L-55.4,452.5z M-56.9,454.2c-0.3,0-0.6,0-0.7,0.1c-0.2,0.1-0.3,0.2-0.4,0.3c-0.1,0.1-0.2,0.2-0.2,0.4c0,0.1-0.1,0.3-0.1,0.5v0.1
					c0,0.3,0.1,0.6,0.3,0.9c0.2,0.2,0.5,0.3,1,0.3c0.3,0,0.6-0.1,0.9-0.2c0.3-0.1,0.5-0.3,0.8-0.5v-1.6c-0.2-0.1-0.5-0.1-0.8-0.2
					C-56.4,454.2-56.7,454.2-56.9,454.2z"/>
				<path class="st8" d="M-46.3,457.1c0,0.2-0.1,0.3-0.2,0.4c-0.1,0.1-0.2,0.2-0.4,0.2s-0.3-0.1-0.4-0.2c-0.1-0.1-0.2-0.2-0.2-0.4
					v-5c0-0.2,0-0.4-0.1-0.6c0-0.2-0.1-0.3-0.2-0.4l-0.1-0.1c0,0,0-0.1,0-0.2c0-0.2,0.1-0.3,0.2-0.4c0.1-0.1,0.2-0.1,0.4-0.1
					c0.1,0,0.2,0,0.3,0.1s0.2,0.2,0.3,0.3c0.3-0.2,0.7-0.4,1-0.5c0.4-0.1,0.7-0.2,1-0.2s0.5,0.1,0.6,0.2s0.2,0.2,0.2,0.4
					c0,0.2-0.1,0.3-0.2,0.4s-0.3,0.2-0.4,0.1c-0.3,0-0.6,0-0.9,0.1c-0.3,0-0.6,0.2-1,0.5c0,0.1,0,0.2,0,0.2c0,0.1,0,0.1,0,0.2v5
					H-46.3z"/>
				<path class="st8" d="M-38.3,450.5c0-0.2,0-0.3,0.1-0.4s0.2-0.2,0.4-0.2s0.3,0.1,0.4,0.2c0.1,0.1,0.1,0.2,0.1,0.4v5.2
					c0,0.2,0,0.4,0,0.5s0,0.2,0.1,0.3c0,0.1,0.1,0.1,0.1,0.2l0.1,0.1c0,0,0,0.1,0.1,0.1c0,0,0,0.1,0,0.2s-0.1,0.3-0.2,0.4
					c-0.1,0.1-0.2,0.2-0.4,0.2c-0.1,0-0.3,0-0.4-0.1c-0.1-0.1-0.2-0.2-0.3-0.3c-0.3,0.2-0.7,0.3-1,0.4c-0.4,0.1-0.7,0.1-1.1,0.1
					c-0.8,0-1.4-0.3-1.8-0.8s-0.6-1.2-0.6-2v-4.3c0-0.2,0-0.3,0.1-0.4s0.2-0.2,0.4-0.2s0.3,0.1,0.4,0.2c0.1,0.1,0.1,0.2,0.1,0.4v4.3
					c0,0.6,0.1,1,0.3,1.3s0.6,0.5,1,0.5c0.3,0,0.6,0,0.8-0.1c0.3-0.1,0.5-0.2,0.8-0.4c0-0.1,0-0.2,0-0.2c0-0.1,0-0.1,0-0.2v-5.4
					H-38.3z"/>
				<path class="st8" d="M-34.9,448.3c0-0.2,0-0.3,0.1-0.4s0.2-0.2,0.4-0.2s0.3,0.1,0.4,0.2c0.1,0.1,0.1,0.2,0.1,0.4v2.1h1.5
					c0.1,0,0.3,0.1,0.4,0.2s0.2,0.2,0.2,0.4c0,0.2-0.1,0.3-0.2,0.4s-0.2,0.2-0.4,0.2h-1.5v3c0,0.4,0,0.7,0,1s0.1,0.5,0.2,0.6
					c0.1,0.2,0.2,0.3,0.4,0.4s0.4,0.1,0.6,0.1h0.1h0.1c0.1,0,0.2,0,0.3,0s0.2,0,0.2,0.1c0.1,0,0.1,0.1,0.2,0.2s0.1,0.2,0.1,0.3
					c0,0.1,0,0.2-0.1,0.3c0,0.1-0.1,0.1-0.2,0.2c-0.1,0-0.2,0.1-0.3,0.1s-0.2,0-0.3,0c-0.5,0-1-0.1-1.3-0.2s-0.6-0.3-0.8-0.6
					c-0.2-0.3-0.3-0.6-0.4-1c-0.1-0.4-0.1-0.8-0.1-1.3v-6.5H-34.9z"/>
				<path class="st8" d="M-26.5,452.5c0-1.1-0.5-1.6-1.6-1.6c-0.3,0-0.5,0-0.6,0.1c-0.2,0.1-0.3,0.1-0.5,0.2c0,0-0.1,0-0.1,0.1
					c-0.1,0-0.2,0.1-0.2,0.1c-0.1,0-0.2-0.1-0.3-0.2c-0.1-0.1-0.1-0.2-0.1-0.3c0-0.2,0-0.3,0.1-0.4s0.3-0.2,0.5-0.3
					c0.2-0.1,0.4-0.1,0.7-0.2s0.5-0.1,0.8-0.1c0.9,0,1.6,0.3,2,0.8s0.6,1.3,0.6,2.2v3.3c0,0.3,0.1,0.4,0.3,0.4c0,0,0,0,0.1,0
					c0,0,0,0,0.1,0s0.2,0.1,0.3,0.2c0.1,0.1,0.1,0.2,0.1,0.3c0,0.2-0.1,0.3-0.2,0.4s-0.3,0.1-0.5,0.1s-0.5-0.1-0.7-0.2
					s-0.3-0.3-0.5-0.5c-0.6,0.5-1.3,0.8-2,0.8c-0.8,0-1.3-0.2-1.7-0.6s-0.6-1-0.6-1.6v-0.1c0-1.5,0.9-2.2,2.6-2.2
					c0.5,0,1,0.1,1.5,0.2L-26.5,452.5L-26.5,452.5z M-28,454.2c-0.3,0-0.6,0-0.7,0.1c-0.2,0.1-0.3,0.2-0.4,0.3
					c-0.1,0.1-0.2,0.2-0.2,0.4c0,0.1-0.1,0.3-0.1,0.5v0.1c0,0.3,0.1,0.6,0.3,0.9c0.2,0.2,0.5,0.3,1,0.3c0.3,0,0.6-0.1,0.9-0.2
					s0.5-0.3,0.8-0.5v-1.6c-0.2-0.1-0.5-0.1-0.8-0.2C-27.5,454.2-27.8,454.2-28,454.2z"/>
				<path class="st8" d="M-14.8,452.5c0-1.1-0.5-1.6-1.6-1.6c-0.3,0-0.5,0-0.6,0.1c-0.2,0.1-0.3,0.1-0.5,0.2c0,0-0.1,0-0.1,0.1
					c-0.1,0-0.2,0.1-0.2,0.1c-0.1,0-0.2-0.1-0.3-0.2c-0.1-0.1-0.1-0.2-0.1-0.3c0-0.2,0-0.3,0.1-0.4s0.3-0.2,0.5-0.3
					c0.2-0.1,0.4-0.1,0.7-0.2s0.5-0.1,0.8-0.1c0.9,0,1.6,0.3,2,0.8s0.6,1.3,0.6,2.2v3.3c0,0.3,0.1,0.4,0.3,0.4c0,0,0,0,0.1,0
					c0,0,0,0,0.1,0s0.2,0.1,0.3,0.2s0.1,0.2,0.1,0.3c0,0.2-0.1,0.3-0.2,0.4c-0.1,0.1-0.3,0.1-0.5,0.1s-0.5-0.1-0.7-0.2
					c-0.2-0.1-0.3-0.3-0.5-0.5c-0.6,0.5-1.3,0.8-2,0.8c-0.8,0-1.3-0.2-1.7-0.6c-0.4-0.4-0.6-1-0.6-1.6v-0.1c0-1.5,0.9-2.2,2.6-2.2
					c0.5,0,1,0.1,1.5,0.2v-0.9H-14.8z M-16.4,454.2c-0.3,0-0.6,0-0.7,0.1c-0.2,0.1-0.3,0.2-0.4,0.3c-0.1,0.1-0.2,0.2-0.2,0.4
					c0,0.1-0.1,0.3-0.1,0.5v0.1c0,0.3,0.1,0.6,0.3,0.9c0.2,0.2,0.5,0.3,1,0.3c0.3,0,0.6-0.1,0.9-0.2s0.5-0.3,0.8-0.5v-1.6
					c-0.2-0.1-0.5-0.1-0.8-0.2C-15.9,454.2-16.1,454.2-16.4,454.2z"/>
				<path class="st8" d="M-11.4,447.4c0-0.2,0.1-0.3,0.2-0.4c0.1-0.1,0.2-0.2,0.4-0.2s0.3,0.1,0.4,0.2c0.1,0.1,0.2,0.2,0.2,0.4v8.8
					c0,0.2,0,0.3,0,0.4s0.1,0.2,0.2,0.3c0,0,0,0.1,0.1,0.1c0,0,0,0.1,0,0.2s-0.1,0.3-0.2,0.4c-0.1,0.1-0.2,0.2-0.4,0.2
					c-0.1,0-0.2,0-0.3-0.1c-0.1,0-0.2-0.1-0.3-0.2s-0.2-0.3-0.2-0.5c-0.1-0.2-0.1-0.5-0.1-0.8C-11.4,456.2-11.4,447.4-11.4,447.4z"
					/>
				<path class="st8" d="M0.3,456.6c0.3,0,0.6,0,0.8-0.1s0.5-0.2,0.7-0.3c0,0,0,0,0.1,0H2c0.1,0,0.3,0.1,0.4,0.2
					c0.1,0.1,0.1,0.2,0.1,0.4c0,0.2-0.1,0.3-0.3,0.5c-0.2,0.1-0.4,0.2-0.6,0.3c-0.3,0.1-0.5,0.1-0.8,0.2c-0.3,0-0.5,0.1-0.7,0.1
					c-0.4,0-0.8-0.1-1.1-0.2s-0.6-0.3-0.8-0.5c-0.2-0.2-0.4-0.5-0.5-0.8s-0.2-0.6-0.2-1v-2.8c0-0.4,0.1-0.7,0.2-1s0.3-0.6,0.5-0.8
					s0.5-0.4,0.8-0.5s0.7-0.2,1.2-0.2c0.8,0,1.5,0.2,1.9,0.7c0.4,0.4,0.6,1,0.6,1.8c0,0.7-0.2,1.2-0.6,1.6s-1,0.6-1.9,0.6
					c-0.2,0-0.5,0-0.7,0s-0.5-0.1-0.8-0.1v0.9c0,0.4,0.1,0.7,0.4,1C-0.7,456.5-0.3,456.6,0.3,456.6z M1.5,452.3c0-0.5-0.1-0.8-0.3-1
					s-0.6-0.3-1-0.3c-0.5,0-0.9,0.1-1.1,0.4c-0.3,0.2-0.4,0.6-0.4,1v1.1c0.3,0,0.6,0.1,0.9,0.1s0.5,0,0.7,0c0.3,0,0.5,0,0.7-0.1
					s0.3-0.2,0.4-0.3c0.1-0.1,0.2-0.2,0.2-0.4C1.5,452.6,1.5,452.5,1.5,452.3z M0.7,447.1c0.1-0.1,0.2-0.2,0.3-0.2
					c0.1-0.1,0.2-0.1,0.3-0.1s0.2,0,0.3,0.1s0.1,0.2,0.1,0.3v0.1c0,0,0,0.1-0.1,0.1l-1.2,1.3c-0.1,0.1-0.2,0.1-0.2,0.2
					c-0.1,0-0.1,0.1-0.2,0.1s-0.3,0-0.3-0.1c-0.1-0.1-0.1-0.2-0.1-0.4c0-0.1,0-0.2,0.1-0.2L0.7,447.1z"/>
				<path class="st8" d="M9.3,456.8c0,0.1,0.1,0.2,0.1,0.3c0,0.2-0.1,0.3-0.2,0.4c-0.1,0.1-0.3,0.2-0.4,0.2c-0.1,0-0.2,0-0.3-0.1
					s-0.2-0.2-0.2-0.3l-1.7-2.6l-1.8,2.7c-0.1,0.2-0.3,0.3-0.5,0.3s-0.3-0.1-0.4-0.2s-0.2-0.2-0.2-0.4c0-0.1,0-0.2,0.1-0.3l2.1-3.1
					L4,450.8c-0.1-0.1-0.1-0.1-0.1-0.2c0-0.2,0.1-0.3,0.2-0.4s0.2-0.2,0.4-0.2c0.2,0,0.3,0.1,0.4,0.2s0.2,0.2,0.3,0.3l1.5,2.3
					l1.6-2.4c0.1-0.1,0.2-0.2,0.2-0.3c0.1-0.1,0.2-0.1,0.3-0.1s0.3,0.1,0.4,0.2c0.1,0.1,0.2,0.2,0.2,0.4c0,0.1,0,0.1,0,0.1
					s0,0.1-0.1,0.1l-1.9,2.9L9.3,456.8z"/>
				<path class="st8" d="M12.3,447.6c0,0.2-0.1,0.4-0.2,0.5c-0.1,0.1-0.3,0.2-0.5,0.2s-0.4-0.1-0.5-0.2s-0.2-0.3-0.2-0.5
					s0.1-0.4,0.2-0.5c0.1-0.1,0.3-0.2,0.5-0.2s0.4,0.1,0.5,0.2C12.2,447.3,12.3,447.4,12.3,447.6z M12.2,457.1
					c0,0.2-0.1,0.3-0.2,0.4c-0.1,0.1-0.2,0.2-0.4,0.2s-0.3-0.1-0.4-0.2c-0.1-0.1-0.2-0.2-0.2-0.4v-6.6c0-0.2,0.1-0.3,0.2-0.4
					c0.1-0.1,0.2-0.2,0.4-0.2s0.3,0.1,0.4,0.2c0.1,0.1,0.2,0.3,0.2,0.4V457.1z"/>
				<path class="st8" d="M14.5,448.3c0-0.2,0-0.3,0.1-0.4s0.2-0.2,0.4-0.2c0.2,0,0.3,0.1,0.4,0.2s0.1,0.2,0.1,0.4v2.1H17
					c0.1,0,0.3,0.1,0.4,0.2s0.2,0.2,0.2,0.4c0,0.2-0.1,0.3-0.2,0.4s-0.2,0.2-0.4,0.2h-1.5v3c0,0.4,0,0.7,0,1s0.1,0.5,0.2,0.6
					c0.1,0.2,0.2,0.3,0.4,0.4c0.2,0.1,0.4,0.1,0.6,0.1h0.1h0.1c0.1,0,0.2,0,0.3,0c0.1,0,0.2,0,0.2,0.1c0.1,0,0.1,0.1,0.2,0.2
					c0,0.1,0.1,0.2,0.1,0.3c0,0.1,0,0.2-0.1,0.3c0,0.1-0.1,0.1-0.2,0.2c-0.1,0-0.2,0.1-0.3,0.1c-0.1,0-0.2,0-0.3,0
					c-0.5,0-1-0.1-1.3-0.2s-0.6-0.3-0.8-0.6c-0.2-0.3-0.3-0.6-0.4-1c-0.1-0.4-0.1-0.8-0.1-1.3v-6.5H14.5z"/>
				<path class="st8" d="M21.6,457.7c-0.5,0-0.9-0.1-1.2-0.2c-0.3-0.1-0.6-0.3-0.9-0.6c-0.2-0.2-0.4-0.5-0.5-0.8s-0.2-0.7-0.2-1
					v-2.5c0-0.4,0.1-0.7,0.2-1s0.3-0.6,0.5-0.8c0.2-0.2,0.5-0.4,0.9-0.6c0.3-0.1,0.7-0.2,1.2-0.2s0.9,0.1,1.2,0.2
					c0.3,0.1,0.6,0.3,0.9,0.6c0.2,0.2,0.4,0.5,0.5,0.8s0.2,0.7,0.2,1v2.5c0,0.4-0.1,0.7-0.2,1s-0.3,0.6-0.5,0.8
					c-0.2,0.2-0.5,0.4-0.9,0.6C22.5,457.6,22.1,457.7,21.6,457.7z M21.6,456.6c0.5,0,0.9-0.1,1.2-0.4c0.3-0.3,0.4-0.7,0.4-1.2v-2.5
					c0-0.5-0.1-0.9-0.4-1.1c-0.3-0.3-0.7-0.4-1.2-0.4s-0.9,0.1-1.2,0.4c-0.3,0.3-0.4,0.7-0.4,1.1v2.5c0,0.5,0.1,0.9,0.4,1.2
					C20.7,456.5,21.1,456.6,21.6,456.6z"/>
				<path class="st8" d="M30.6,447.4c0-0.2,0.1-0.3,0.2-0.4c0.1-0.1,0.2-0.2,0.4-0.2s0.3,0.1,0.4,0.2c0.1,0.1,0.2,0.2,0.2,0.4v8.8
					c0,0.2,0,0.3,0,0.4s0.1,0.2,0.2,0.3c0,0,0,0.1,0.1,0.1s0,0.1,0,0.2s-0.1,0.3-0.2,0.4c-0.1,0.1-0.2,0.2-0.4,0.2
					c-0.1,0-0.2,0-0.3-0.1c-0.1,0-0.2-0.1-0.3-0.2c-0.1-0.1-0.2-0.3-0.2-0.5c-0.1-0.2-0.1-0.5-0.1-0.8
					C30.6,456.2,30.6,447.4,30.6,447.4z"/>
				<path class="st8" d="M37.7,452.5c0-1.1-0.5-1.6-1.6-1.6c-0.3,0-0.5,0-0.6,0.1c-0.2,0.1-0.3,0.1-0.5,0.2c0,0-0.1,0-0.1,0.1
					c-0.1,0-0.2,0.1-0.2,0.1c-0.1,0-0.2-0.1-0.3-0.2s-0.1-0.2-0.1-0.3c0-0.2,0-0.3,0.1-0.4s0.3-0.2,0.5-0.3c0.2-0.1,0.4-0.1,0.7-0.2
					c0.3,0,0.5-0.1,0.8-0.1c0.9,0,1.6,0.3,2,0.8s0.6,1.3,0.6,2.2v3.3c0,0.3,0.1,0.4,0.3,0.4c0,0,0,0,0.1,0c0,0,0,0,0.1,0
					s0.2,0.1,0.3,0.2s0.1,0.2,0.1,0.3c0,0.2-0.1,0.3-0.2,0.4c-0.1,0.1-0.3,0.1-0.5,0.1s-0.5-0.1-0.7-0.2s-0.3-0.3-0.5-0.5
					c-0.6,0.5-1.3,0.8-2,0.8c-0.8,0-1.3-0.2-1.7-0.6s-0.6-1-0.6-1.6v-0.1c0-1.5,0.9-2.2,2.6-2.2c0.5,0,1,0.1,1.5,0.2L37.7,452.5
					L37.7,452.5z M36.2,454.2c-0.3,0-0.6,0-0.7,0.1c-0.2,0.1-0.3,0.2-0.4,0.3c-0.1,0.1-0.2,0.2-0.2,0.4c0,0.1-0.1,0.3-0.1,0.5v0.1
					c0,0.3,0.1,0.6,0.3,0.9c0.2,0.2,0.5,0.3,1,0.3c0.3,0,0.6-0.1,0.9-0.2c0.3-0.1,0.5-0.3,0.8-0.5v-1.6c-0.2-0.1-0.5-0.1-0.8-0.2
					C36.7,454.2,36.4,454.2,36.2,454.2z"/>
				<path class="st8" d="M41.2,447.3c0-0.1,0-0.3,0.1-0.4s0.2-0.2,0.4-0.2s0.3,0.1,0.4,0.2c0.1,0.1,0.1,0.2,0.1,0.4v3.2
					c0.3-0.2,0.6-0.3,0.9-0.5c0.3-0.1,0.7-0.2,1.1-0.2c0.4,0,0.8,0.1,1.1,0.2s0.5,0.3,0.7,0.5s0.3,0.5,0.4,0.7
					c0.1,0.3,0.1,0.6,0.1,0.9v2.8c0,0.4-0.1,0.7-0.2,1c-0.1,0.3-0.3,0.6-0.5,0.8c-0.2,0.2-0.5,0.4-0.8,0.6c-0.3,0.1-0.7,0.2-1.2,0.2
					c-0.4,0-0.8-0.1-1.2-0.2c-0.3-0.1-0.6-0.3-0.8-0.5s-0.4-0.5-0.5-0.7c-0.1-0.3-0.2-0.6-0.2-0.9v-7.9H41.2z M42.3,455.3
					c0,0.4,0.1,0.7,0.4,0.9c0.3,0.2,0.7,0.3,1.1,0.3c0.5,0,0.9-0.1,1.2-0.4s0.4-0.7,0.4-1.2v-2.8c0-0.4-0.1-0.7-0.3-1
					c-0.2-0.2-0.6-0.3-1.1-0.3c-0.4,0-0.7,0.1-1,0.2s-0.5,0.3-0.7,0.5C42.3,451.5,42.3,455.3,42.3,455.3z"/>
				<path class="st8" d="M50.7,457.7c-0.5,0-0.9-0.1-1.2-0.2s-0.6-0.3-0.9-0.6c-0.2-0.2-0.4-0.5-0.5-0.8s-0.2-0.7-0.2-1v-2.5
					c0-0.4,0.1-0.7,0.2-1c0.1-0.3,0.3-0.6,0.5-0.8c0.2-0.2,0.5-0.4,0.9-0.6c0.3-0.1,0.7-0.2,1.2-0.2s0.9,0.1,1.2,0.2
					s0.6,0.3,0.9,0.6c0.2,0.2,0.4,0.5,0.5,0.8s0.2,0.7,0.2,1v2.5c0,0.4-0.1,0.7-0.2,1c-0.1,0.3-0.3,0.6-0.5,0.8
					c-0.2,0.2-0.5,0.4-0.9,0.6C51.6,457.6,51.2,457.7,50.7,457.7z M50.7,456.6c0.5,0,0.9-0.1,1.2-0.4s0.4-0.7,0.4-1.2v-2.5
					c0-0.5-0.1-0.9-0.4-1.1c-0.3-0.3-0.7-0.4-1.2-0.4s-0.9,0.1-1.2,0.4s-0.4,0.7-0.4,1.1v2.5c0,0.5,0.1,0.9,0.4,1.2
					C49.8,456.5,50.2,456.6,50.7,456.6z"/>
				<path class="st8" d="M56.5,457.1c0,0.2-0.1,0.3-0.2,0.4c-0.1,0.1-0.2,0.2-0.4,0.2s-0.3-0.1-0.4-0.2c-0.1-0.1-0.2-0.2-0.2-0.4v-5
					c0-0.2,0-0.4-0.1-0.6c0-0.2-0.1-0.3-0.2-0.4l-0.1-0.1c0,0,0-0.1,0-0.2c0-0.2,0.1-0.3,0.2-0.4c0.1-0.1,0.2-0.1,0.4-0.1
					c0.1,0,0.2,0,0.3,0.1s0.2,0.2,0.3,0.3c0.3-0.2,0.7-0.4,1-0.5c0.4-0.1,0.7-0.2,1-0.2s0.5,0.1,0.6,0.2s0.2,0.2,0.2,0.4
					c0,0.2-0.1,0.3-0.2,0.4c-0.1,0.1-0.3,0.2-0.4,0.1c-0.3,0-0.6,0-0.9,0.1c-0.3,0-0.6,0.2-1,0.5c0,0.1,0,0.2,0,0.2
					c0,0.1,0,0.1,0,0.2v5H56.5z"/>
				<path class="st8" d="M63.9,452.5c0-1.1-0.5-1.6-1.6-1.6c-0.3,0-0.5,0-0.6,0.1c-0.2,0.1-0.3,0.1-0.5,0.2c0,0-0.1,0-0.1,0.1
					c-0.1,0-0.2,0.1-0.2,0.1c-0.1,0-0.2-0.1-0.3-0.2s-0.1-0.2-0.1-0.3c0-0.2,0-0.3,0.1-0.4s0.3-0.2,0.5-0.3c0.2-0.1,0.4-0.1,0.7-0.2
					c0.3,0,0.5-0.1,0.8-0.1c0.9,0,1.6,0.3,2,0.8s0.6,1.3,0.6,2.2v3.3c0,0.3,0.1,0.4,0.3,0.4c0,0,0,0,0.1,0c0,0,0,0,0.1,0
					s0.2,0.1,0.3,0.2s0.1,0.2,0.1,0.3c0,0.2-0.1,0.3-0.2,0.4s-0.3,0.1-0.5,0.1s-0.5-0.1-0.7-0.2s-0.3-0.3-0.5-0.5
					c-0.6,0.5-1.3,0.8-2,0.8c-0.8,0-1.3-0.2-1.7-0.6s-0.6-1-0.6-1.6v-0.1c0-1.5,0.9-2.2,2.6-2.2c0.5,0,1,0.1,1.5,0.2v-0.9H63.9z
					 M62.3,454.2c-0.3,0-0.6,0-0.7,0.1c-0.2,0.1-0.3,0.2-0.4,0.3S61,454.8,61,455c0,0.1-0.1,0.3-0.1,0.5v0.1c0,0.3,0.1,0.6,0.3,0.9
					c0.2,0.2,0.5,0.3,1,0.3c0.3,0,0.6-0.1,0.9-0.2c0.3-0.1,0.5-0.3,0.8-0.5v-1.6c-0.2-0.1-0.5-0.1-0.8-0.2
					C62.8,454.2,62.6,454.2,62.3,454.2z"/>
				<path class="st8" d="M67.3,447.4c0-0.2,0.1-0.3,0.2-0.4s0.2-0.2,0.4-0.2c0.2,0,0.3,0.1,0.4,0.2s0.2,0.2,0.2,0.4v8.8
					c0,0.2,0,0.3,0,0.4s0.1,0.2,0.2,0.3c0,0,0,0.1,0.1,0.1c0,0,0,0.1,0,0.2s-0.1,0.3-0.2,0.4s-0.2,0.2-0.4,0.2c-0.1,0-0.2,0-0.3-0.1
					c-0.1,0-0.2-0.1-0.3-0.2c-0.1-0.1-0.2-0.3-0.2-0.5c-0.1-0.2-0.1-0.5-0.1-0.8C67.3,456.2,67.3,447.4,67.3,447.4z"/>
				<path class="st8" d="M72.1,456.9c0,0.2-0.1,0.4-0.2,0.6c-0.2,0.2-0.3,0.2-0.6,0.2c-0.2,0-0.4-0.1-0.6-0.2
					c-0.2-0.2-0.2-0.4-0.2-0.6s0.1-0.4,0.2-0.6c0.2-0.2,0.3-0.2,0.6-0.2c0.2,0,0.4,0.1,0.6,0.2C72,456.5,72.1,456.7,72.1,456.9z
					 M70.7,447.5c0-0.2,0.1-0.3,0.2-0.4s0.3-0.2,0.4-0.2c0.2,0,0.3,0.1,0.4,0.2s0.2,0.3,0.2,0.4l-0.1,7c0,0.1,0,0.2-0.1,0.3
					c-0.1,0.1-0.2,0.1-0.3,0.1c-0.1,0-0.2,0-0.3-0.1c-0.1-0.1-0.1-0.2-0.1-0.3L70.7,447.5z"/>
			</g>
		</g>
		<g id="Layer_2">
			<path class="st9" d="M-58.8,408.3c-0.6-2.1,0.1-3.8,0.6-5.5c1.8-5.8,3.9-11.5,6.2-17.1c1.4-3.3,2.4-6.8,3.5-10.2
				c0-0.1,0-0.2,0.1-0.3c2.4-6.2,4.9-12.3,7.3-18.5c0.9-2.3,1.8-4.7,2.8-7c0.5-1.2,1.1-2.4,1.8-3.5c1.1-1.8,2.8-2.4,4.8-2.4
				c1.1,0,1.8,0.9,2.5,1.6c1.5,1.5,2.5,3.3,3.2,5.2c2,4.8,3.9,9.6,5.9,14.5c2.2,5.4,4.3,10.9,6.5,16.3c1.2,3,2.5,5.9,3.8,8.8
				c1.5,3.6,3,7.3,4.5,10.9c0.1,0.3,0.3,0.6,0.5,0.9c0.7,1.4,0.6,2.8-0.7,3.8c-1.7,1.3-3.5,2.3-5.5,3.1c-3.7,1.4-7.6,2-11.4,2.7
				c-2.3,0.4-4.6,0.7-6.9,1c-0.8,0.1-2.4,0.1-3.2,0.2c-2.9,0.3-5.1-0.2-8.1-0.2c-1.7,0-3.4-0.3-5.1-0.6c-2.7-0.5-5.5-1-8.2-1.7
				C-55.6,409.8-57.2,408.9-58.8,408.3"/>
			<path class="st1" d="M-31.1,374.1c2.2,2.5,4.3,2.1,6.3-1.2c0.2,0.4,0.4,0.7,0.5,1c0.2,0.4,0.4,0.9,0.6,1.3
				c0.9,1.9,2.3,2.7,4.4,2.6c0.6,0,1.2-0.2,1.8-0.2c0.5,1.2,1.1,2.4,1.6,3.7c2.5,6,5,12,7.4,18.1c0.4,0.9,0.7,1.9,1,2.9
				c0.3,1.1,0.1,1.7-0.8,2.4c-2.7,2-5.8,3.2-9.2,3.7c-2.1,0.3-4.1,0.8-6.2,1.1c-2.2,0.3-4.5,0.6-6.7,0.8c-3.5,0.3-7.1,0-10.6-0.1
				c-1.6-0.1-3.1-0.4-4.6-0.6c-2-0.4-4-0.7-6-1.2c-1.6-0.4-3.1-1.2-4.6-1.8c0.2-2.5,0.8-4.7,1.6-6.9c1.3-3.5,2.6-7.1,3.9-10.6
				c1.2-3.4,2.4-6.8,3.5-10.2c0.2-0.4,0.4-0.9,0.6-1.4c2.8,1,4.3-0.6,5.7-2.6c0.5-0.7,0.9-1.4,1.4-2.3c-0.1,1.6-0.1,3.1-0.1,4.6
				c0,0.5,0,1.1,0.1,1.6c0.5,2,2.3,3,4.2,2.3c1.4-0.5,2.4-1.5,2.9-2.8C-31.9,376.8-31.6,375.5-31.1,374.1"/>
			<path class="st1" d="M-45.6,375.3c0.3-1.1,0.5-2.2,0.8-3.2c0.9-3.3,2.1-6.4,3.4-9.5c1.7-3.9,3.2-7.8,4.9-11.7
				c0.4-0.9,0.9-1.7,1.5-2.5c1.4-1.8,3.9-1.8,5.3,0c1,1.4,1.9,2.8,2.5,4.4c1.1,3.1,2.3,6.1,3.6,9.1c0.4,1.1,1,2.1,1.4,3.2
				c1.3,3.3,2.6,6.6,4,9.9c-1.4,1.1-3,1-4-0.7c-0.8-1.2-1.4-2.7-1.9-4.1c-0.4-1.3-0.5-2.7-0.7-4.1c-0.2-1.1-0.3-2.2-1.1-3.1
				c-0.7,0-0.9,0.4-0.8,1c0.1,0.4,0.3,0.8,0.4,1.2c0.7,2.1,0.8,4.3,0.2,6.5c-0.4,1.4-1.2,1.8-2.5,1.8c-0.8,0-1.3-0.4-1.4-1.1
				c-0.2-1.4-0.4-2.8-0.4-4.3c0-1.9,0.1-3.9,0.1-5.8c0-0.7,0-1.4-0.6-1.9c-0.8,0.1-0.7,0.7-0.7,1.2c0,2.4,0,4.8-0.1,7.2
				c-0.2,2.5-0.5,4.9-1.3,7.2c-0.4,1.2-1.2,2.1-2.5,2.6c-1.4,0.5-2.7,0-2.9-1.5c-0.2-1.6-0.2-3.2-0.1-4.8c0.3-3.3,1-6.6,2-9.8
				c0.3-0.8,0.7-1.7-0.1-2.6c-0.7,0.1-0.7,0.6-0.8,1.1c-0.7,3-1.3,6-2.6,8.7c-0.8,1.6-1.8,3.1-2.8,4.5
				C-43.4,375.3-44.3,375.8-45.6,375.3"/>
			<path class="st9" d="M-6.2,414.6c-4.6-0.2-8.8-1.3-12.8-3.3c-1.4-0.7-2.6-2-3.8-3.1c-0.2-0.2-0.3-0.7-0.2-1
				c0.8-2.2,1.6-4.4,2.5-6.5c2.3-5.3,4.7-10.5,7-15.8c1-2.2,1.6-4.6,2.7-6.8c1.1-2.2,2.4-4.4,4-6.2c2.3-2.5,4.6-1.9,6.6,0.8
				c1.9,2.4,3,5.2,4.1,8c1.3,3.2,2.6,6.3,4,9.5c1.7,3.9,3.4,7.8,5.2,11.7c0.4,0.8,0.8,1.6,1.2,2.4c0.8,1.4,0.7,2.8-0.6,3.9
				c-1.2,1-2.4,2-3.8,2.6c-3.2,1.5-6.5,3-10,3.4C-2.2,414.4-3.8,414.6-6.2,414.6"/>
			<path class="st1" d="M-17.1,398.3c1.9,1.6,4.1,1.1,5.2-1.1c0.8-1.6,1.5-3.2,2.4-5c0.2,0.9,0.3,1.7,0.4,2.4
				c0.5,2.1,2.1,2.9,4.1,1.9c1-0.5,1.7-1.2,2.1-2.2c0.2-0.6,0.5-1.2,0.8-2c0.6,1.3,1.5,1.8,2.8,1.5c1.2-0.3,1.4-1.2,1.7-2.1
				c0.7,0.9,1.2,2,2.1,2.6c0.9,0.6,2.1,0.6,3.6,0.9c1,2.2,2.1,4.7,3.3,7.3c0.3,0.7,0.6,1.4,0.9,2.1c0.6,1.4,0.4,2.1-0.7,3
				c-2.1,1.7-4.4,2.8-7.1,3.4c-2,0.4-3.9,0.9-5.8,1.2c-6,1.1-11.6,0.1-16.9-2.9c-0.8-0.5-1.5-1.2-2.1-1.8c-0.2-0.2-0.3-0.7-0.2-0.9
				C-19.6,403.7-18.8,400.8-17.1,398.3"/>
			<path class="st1" d="M-7.4,384.5c-0.8,0.1-0.7,0.7-0.8,1.1c-1.1,2.8-2.1,5.6-3.2,8.4c-0.3,0.8-0.8,1.6-1.3,2.3
				c-0.4,0.5-1.1,1-1.7,1.3c-0.8,0.4-1.5-0.1-1.5-1c0-0.7,0.1-1.5,0.3-2.2c0.9-2.8,2.1-5.4,3.3-8c0.7-1.6,1.3-3.2,1.9-4.8
				c1.2-2.8,2.5-5.6,4.7-7.8c1.2-1.1,2.5-1.2,3.7,0c0.9,1,1.8,2.1,2.5,3.3c0.8,1.4,1.4,2.9,2.1,4.4c1.4,3.3,2.7,6.5,4.1,9.8
				c0.1,0.2,0.2,0.4,0.2,0.6c0.1,0.4,0.2,1,0.1,1.2c-0.4,0.5-1,0.2-1.5,0c-0.9-0.5-1.6-1.3-1.9-2.4c-0.3-1.3-0.7-2.6-1.1-3.8
				c-0.1-0.4-0.2-0.9-0.7-0.6c-0.2,0.1-0.3,0.6-0.3,1c0,1,0.2,2,0.2,3.1c0,0.4-0.1,0.8-0.2,1.1c-0.2,0.6-0.7,0.8-1.3,0.8
				c-0.6,0-1.1-0.3-1.2-0.9c-0.2-1.3-0.4-2.6-0.5-3.9c-0.1-1,0.1-2.1-0.4-3c-1-0.1-0.8,0.6-0.7,1.1c0.4,2.2,0.1,4.4-0.4,6.6
				c-0.1,0.6-0.4,1.3-0.7,1.8c-0.4,0.5-1,1.1-1.7,1.3c-1.2,0.4-2-0.1-2.2-1.4c-0.3-2.1-0.2-4.1,0.3-6.2
				C-7.1,386.6-6.8,385.5-7.4,384.5"/>
			<path class="st10" d="M-44.8,409.9c0.4-1.4,0.4-2.8,0.2-4.5c-0.3-2.5,0-4.5,1-6.9c1-2.5,2.3-4.8,2.8-7.4c0.5-2.4,0.4-4.9,1-7.3
				c0.1-0.4,0.5-0.5,0.8-0.3c2.7,1.4,7,0.4,8.6-2.3c1.1-1.9,1.4-3.4,1.4-5.6c-0.7-0.2-1.2-0.7-1.9-1.5c-0.5,1.4-0.8,2-1.4,3.3
				c-0.6,1.4-1.6,2.4-3,2.9c-2,0.7-3.9-0.3-4.3-2.3c-0.1-0.5-0.1-1.1-0.1-1.6c0-1.5,0.1-3,0.1-4.7c-0.6,0.9-1,1.6-1.5,2.4
				c-1.4,2-3,3.7-5.8,2.7c-0.2,0.5-0.5,0.9-0.6,1.4c-1.2,3.5-2.4,7-3.6,10.5c-1.3,3.6-2.7,7.3-4,10.9c-0.8,2.2-1.4,4.5-1.6,7.1
				c1.6,0.6,3.1,1.4,4.8,1.9c2,0.6,4.1,0.9,6.2,1.3C-45.5,409.8-45.1,409.9-44.8,409.9"/>
			<path class="st10" d="M-12.3,408.4c0.1-1.5,0.9-3,1.5-4.4c0.8-1.8,1.6-3.6,2.1-5.6c0.1-0.3,0.4-0.4,0.7-0.3
				c4,2.1,6.7-0.9,7.2-4.6c-0.5-0.3-0.9-0.7-1.2-1.4c-0.3,0.8-0.6,1.4-0.8,2c-0.4,1-1.2,1.8-2.1,2.2c-2,1-3.6,0.2-4.1-1.9
				c-0.2-0.7-0.3-1.5-0.4-2.4c-0.9,1.8-1.6,3.5-2.4,5.1c-1.1,2.2-3.3,2.7-5.3,1.1c-1.8,2.6-2.6,5.5-3.5,8.3c-0.1,0.3,0,0.7,0.2,0.9
				c0.7,0.7,1.4,1.4,2.2,1.9c2.1,1.2,4.3,2.1,6.5,2.6C-12.2,410.8-12.4,409.6-12.3,408.4"/>
			<path class="st11" d="M-31.6,335c2.9-1.1,5.8-2.7,8.4-4.6c0.1,0,0.2,0,0.2,0c3,0.5,4.2-4.1,1.3-4.5c-2.8-0.4-5.6-1.2-8.3-2.1
				c-1-0.3-1.7-0.1-2.2,0.5c-0.3-0.6-1.2-0.4-1.4,0.2c-1,2.7,0.1,5.4-0.4,8.1C-34.3,333.9-33.1,335.6-31.6,335 M-31.2,328.3
				c0.7,0.3,1.3,0.5,2,0.8c-0.8,0.4-1.5,0.8-2.3,1.3c-0.3-0.8-0.4-1.6-0.4-2.5C-31.8,328-31.5,328.2-31.2,328.3"/>
			<path class="st12" d="M-32.3,344.4l-0.9-8.8c0,0-1.7-12.4-1.3-12.7c1.9-1.3,15,4.5,15,5.5c0,0.9-10.7,5.8-13.1,7.4"/>
		</g>
	</g>
</g>
<g id="Capa_2">
</g>
<g>
	<path class="st8" d="M-84.7,290.8c0,0.2-0.1,0.4-0.2,0.6c-0.1,0.2-0.3,0.2-0.5,0.2c-0.2,0-0.4-0.1-0.6-0.2
		c-0.1-0.2-0.2-0.3-0.2-0.6c0-0.2,0.1-0.4,0.2-0.5c0.1-0.1,0.3-0.2,0.6-0.2c0.2,0,0.4,0.1,0.5,0.2
		C-84.8,290.4-84.7,290.6-84.7,290.8z M-86.1,281.7c0-0.2,0.1-0.3,0.2-0.4c0.1-0.1,0.2-0.2,0.4-0.2c0.2,0,0.3,0.1,0.4,0.2
		c0.1,0.1,0.2,0.2,0.2,0.4l-0.1,6.8c0,0.1,0,0.2-0.1,0.3c-0.1,0.1-0.2,0.1-0.3,0.1c-0.1,0-0.2,0-0.3-0.1c-0.1-0.1-0.1-0.2-0.1-0.3
		L-86.1,281.7z"/>
	<path class="st8" d="M-76.8,291.5c-0.1,0.1-0.2,0.2-0.4,0.2c-0.2,0-0.3-0.1-0.4-0.2c-0.1-0.1-0.2-0.3-0.2-0.4V287h-3.9v4.1
		c0,0.2-0.1,0.3-0.2,0.4c-0.1,0.1-0.2,0.2-0.4,0.2c-0.2,0-0.3-0.1-0.4-0.2c-0.1-0.1-0.2-0.3-0.2-0.4v-9.3c0-0.2,0.1-0.3,0.2-0.4
		c0.1-0.1,0.2-0.2,0.4-0.2c0.2,0,0.3,0.1,0.4,0.2c0.1,0.1,0.2,0.2,0.2,0.4v4.1h3.9v-4.1c0-0.2,0.1-0.3,0.2-0.4
		c0.1-0.1,0.2-0.2,0.4-0.2s0.3,0.1,0.4,0.2c0.1,0.1,0.2,0.2,0.2,0.4v9.3C-76.6,291.2-76.7,291.3-76.8,291.5z"/>
	<path class="st8" d="M-71.1,286.6c0-1-0.5-1.5-1.5-1.5c-0.2,0-0.5,0-0.6,0.1c-0.2,0.1-0.3,0.1-0.5,0.2c0,0-0.1,0-0.1,0.1
		c-0.1,0-0.2,0.1-0.2,0.1c-0.1,0-0.2-0.1-0.3-0.2c-0.1-0.1-0.1-0.2-0.1-0.3c0-0.2,0-0.3,0.1-0.4c0.1-0.1,0.3-0.2,0.5-0.3
		c0.2-0.1,0.4-0.1,0.7-0.2c0.2,0,0.5-0.1,0.7-0.1c0.9,0,1.6,0.2,1.9,0.7c0.4,0.5,0.6,1.2,0.6,2.2v3.2c0,0.3,0.1,0.4,0.3,0.4
		c0,0,0,0,0.1,0c0,0,0,0,0.1,0c0.1,0,0.2,0.1,0.3,0.2c0.1,0.1,0.1,0.2,0.1,0.3c0,0.2-0.1,0.3-0.2,0.4c-0.1,0.1-0.3,0.1-0.4,0.1
		c-0.2,0-0.5-0.1-0.6-0.2c-0.2-0.1-0.3-0.3-0.4-0.5c-0.6,0.5-1.2,0.8-2,0.8c-0.7,0-1.3-0.2-1.7-0.6c-0.4-0.4-0.5-0.9-0.5-1.6v-0.1
		c0-1.4,0.8-2.1,2.5-2.1c0.5,0,1,0.1,1.5,0.2V286.6z M-72.6,288.2c-0.3,0-0.5,0-0.7,0.1c-0.2,0.1-0.3,0.1-0.4,0.3
		c-0.1,0.1-0.2,0.2-0.2,0.4c0,0.1-0.1,0.3-0.1,0.5v0.1c0,0.3,0.1,0.6,0.3,0.8c0.2,0.2,0.5,0.3,1,0.3c0.3,0,0.6-0.1,0.9-0.2
		c0.3-0.1,0.5-0.3,0.8-0.5v-1.6c-0.2-0.1-0.5-0.1-0.7-0.2C-72.1,288.2-72.4,288.2-72.6,288.2z"/>
	<path class="st8" d="M-67.9,286.1c0-0.6,0.2-1.1,0.6-1.5c0.4-0.4,1-0.6,1.7-0.6c0.2,0,0.4,0,0.6,0c0.2,0,0.4,0.1,0.6,0.1
		c0.2,0.1,0.4,0.1,0.5,0.2c0.1,0.1,0.2,0.2,0.2,0.4c0,0.1,0,0.3-0.1,0.4c-0.1,0.1-0.2,0.2-0.4,0.2c-0.1,0-0.2,0-0.3-0.1
		c-0.2-0.1-0.3-0.1-0.5-0.2c-0.2,0-0.4-0.1-0.6-0.1c-0.9,0-1.3,0.3-1.3,1c0,0.2,0.1,0.4,0.2,0.5c0.1,0.1,0.3,0.3,0.5,0.4
		c0.2,0.1,0.5,0.2,0.8,0.3c0.3,0.1,0.6,0.2,0.9,0.4s0.5,0.4,0.7,0.7c0.2,0.3,0.3,0.6,0.3,1.1c0,0.7-0.2,1.2-0.6,1.5
		c-0.4,0.4-1,0.6-1.8,0.6c-0.2,0-0.4,0-0.6,0c-0.2,0-0.5-0.1-0.7-0.1c-0.2-0.1-0.4-0.1-0.6-0.3c-0.2-0.1-0.2-0.2-0.2-0.4
		c0-0.1,0-0.2,0.1-0.4c0.1-0.1,0.2-0.2,0.4-0.2c0,0,0.1,0,0.1,0c0,0,0,0,0.1,0c0.2,0.1,0.4,0.2,0.7,0.2c0.2,0.1,0.5,0.1,0.8,0.1
		c0.4,0,0.7-0.1,1-0.3c0.2-0.2,0.4-0.4,0.4-0.8c0-0.3-0.1-0.5-0.2-0.6c-0.1-0.1-0.2-0.2-0.4-0.3c-0.2-0.1-0.5-0.2-0.8-0.3
		c-0.3-0.1-0.6-0.2-0.9-0.4c-0.3-0.2-0.5-0.4-0.8-0.6C-67.8,287-67.9,286.6-67.9,286.1z"/>
	<path class="st8" d="M-57.5,281.6c0-0.2,0.1-0.3,0.2-0.4c0.1-0.1,0.2-0.2,0.4-0.2c0.2,0,0.3,0.1,0.4,0.2s0.2,0.2,0.2,0.4v8.5
		c0,0.2,0,0.3,0,0.4c0,0.1,0.1,0.2,0.2,0.3c0,0,0,0.1,0.1,0.1c0,0,0,0.1,0,0.2c0,0.1-0.1,0.3-0.2,0.4c-0.1,0.1-0.2,0.2-0.4,0.2
		c-0.1,0-0.2,0-0.3-0.1c-0.1,0-0.2-0.1-0.3-0.2c-0.1-0.1-0.2-0.2-0.2-0.4c-0.1-0.2-0.1-0.5-0.1-0.8V281.6z"/>
	<path class="st8" d="M-54.2,281.6c0-0.2,0.1-0.3,0.2-0.4c0.1-0.1,0.2-0.2,0.4-0.2c0.2,0,0.3,0.1,0.4,0.2c0.1,0.1,0.2,0.2,0.2,0.4
		v8.5c0,0.2,0,0.3,0,0.4c0,0.1,0.1,0.2,0.2,0.3c0,0,0,0.1,0.1,0.1c0,0,0,0.1,0,0.2c0,0.1-0.1,0.3-0.2,0.4c-0.1,0.1-0.2,0.2-0.4,0.2
		c-0.1,0-0.2,0-0.3-0.1c-0.1,0-0.2-0.1-0.3-0.2c-0.1-0.1-0.2-0.2-0.2-0.4c-0.1-0.2-0.1-0.5-0.1-0.8V281.6z"/>
	<path class="st8" d="M-48.6,290.6c0.3,0,0.6,0,0.8-0.1c0.2-0.1,0.5-0.2,0.7-0.3c0,0,0,0,0.1,0c0,0,0.1,0,0.1,0
		c0.1,0,0.3,0.1,0.4,0.2s0.1,0.2,0.1,0.4c0,0.2-0.1,0.3-0.3,0.4c-0.2,0.1-0.4,0.2-0.6,0.3c-0.2,0.1-0.5,0.1-0.8,0.2
		c-0.3,0-0.5,0.1-0.7,0.1c-0.4,0-0.8-0.1-1.1-0.2c-0.3-0.1-0.6-0.3-0.8-0.5c-0.2-0.2-0.4-0.5-0.5-0.8c-0.1-0.3-0.2-0.6-0.2-0.9v-2.7
		c0-0.3,0.1-0.7,0.2-1c0.1-0.3,0.3-0.6,0.5-0.8c0.2-0.2,0.5-0.4,0.8-0.5c0.3-0.1,0.7-0.2,1.1-0.2c0.8,0,1.4,0.2,1.8,0.6
		c0.4,0.4,0.6,1,0.6,1.7c0,0.7-0.2,1.2-0.6,1.6c-0.4,0.4-1,0.6-1.9,0.6c-0.2,0-0.5,0-0.7,0c-0.3,0-0.5-0.1-0.8-0.1v0.9
		c0,0.4,0.1,0.7,0.4,1C-49.5,290.5-49.1,290.6-48.6,290.6z M-47.4,286.4c0-0.5-0.1-0.8-0.3-1c-0.2-0.2-0.6-0.3-1-0.3
		c-0.5,0-0.8,0.1-1.1,0.4c-0.3,0.2-0.4,0.6-0.4,1v1.1c0.3,0,0.6,0.1,0.9,0.1c0.3,0,0.5,0,0.7,0c0.3,0,0.5,0,0.7-0.1
		c0.2-0.1,0.3-0.2,0.4-0.3c0.1-0.1,0.2-0.2,0.2-0.4C-47.4,286.7-47.4,286.6-47.4,286.4z"/>
	<path class="st8" d="M-42.4,284.1c0.3,0,0.7,0,1,0.1c0.3,0.1,0.6,0.2,0.9,0.4c0.2-0.3,0.4-0.5,0.6-0.6c0.2-0.1,0.4-0.2,0.6-0.2
		c0.2,0,0.3,0,0.4,0.1c0.1,0.1,0.2,0.2,0.2,0.4c0,0.1,0,0.1,0,0.2c0,0,0,0.1-0.1,0.1c-0.1,0.1-0.3,0.2-0.4,0.3
		c-0.1,0.1-0.2,0.2-0.2,0.3c-0.1,0.1-0.1,0.2-0.1,0.3c0,0.1,0,0.3,0,0.4v0.9c0,0.4-0.1,0.7-0.2,1c-0.1,0.3-0.3,0.6-0.5,0.8
		c-0.2,0.2-0.5,0.4-0.8,0.5c-0.3,0.1-0.7,0.2-1.1,0.2c-0.4,0-0.8-0.1-1.1-0.2c-0.1,0.1-0.1,0.2-0.1,0.4c0,0.1,0,0.2,0,0.3
		c0,0.1,0,0.2,0.1,0.3c0.1,0.1,0.1,0.1,0.2,0.2c0.1,0,0.2,0.1,0.3,0.1c0.1,0,0.2,0,0.3,0h0.6c0.4,0,0.8,0,1.1,0.1
		c0.4,0.1,0.7,0.2,0.9,0.4c0.3,0.2,0.5,0.4,0.6,0.7c0.1,0.3,0.2,0.6,0.2,0.9c0,0.4-0.1,0.7-0.2,1c-0.1,0.3-0.4,0.5-0.6,0.7
		c-0.3,0.2-0.6,0.4-0.9,0.5c-0.4,0.1-0.8,0.2-1.2,0.2c-0.4,0-0.8-0.1-1.1-0.2c-0.3-0.1-0.6-0.2-0.9-0.4c-0.2-0.2-0.4-0.4-0.6-0.7
		c-0.1-0.3-0.2-0.6-0.2-0.9c0-0.4,0.1-0.7,0.2-1s0.3-0.5,0.6-0.8c-0.2-0.2-0.3-0.3-0.3-0.6c-0.1-0.2-0.1-0.4-0.1-0.6
		c0-0.2,0-0.4,0.1-0.6c0.1-0.2,0.2-0.4,0.4-0.6c-0.5-0.5-0.8-1.2-0.8-2c0-0.4,0.1-0.7,0.2-1s0.3-0.6,0.5-0.8
		c0.2-0.2,0.5-0.4,0.8-0.6C-43.2,284.1-42.8,284.1-42.4,284.1z M-42.8,291.6c-0.2,0-0.4,0-0.6-0.1c-0.3,0.3-0.5,0.7-0.5,1.1
		c0,0.4,0.1,0.8,0.4,1c0.3,0.2,0.7,0.3,1.3,0.3c0.5,0,0.9-0.1,1.3-0.3c0.3-0.2,0.5-0.5,0.5-1c0-0.7-0.6-1.1-1.7-1.1H-42.8z
		 M-40.8,285.9c0-0.1,0-0.1,0-0.2c0-0.1,0-0.1,0-0.2c-0.2-0.1-0.5-0.2-0.7-0.3c-0.2-0.1-0.5-0.1-0.8-0.1c-0.5,0-0.9,0.1-1.2,0.4
		c-0.3,0.3-0.4,0.7-0.4,1.2c0,0.5,0.1,0.9,0.4,1.2c0.2,0.3,0.6,0.4,1.2,0.4c0.5,0,0.9-0.1,1.1-0.4c0.2-0.3,0.4-0.6,0.4-1.1V285.9z"
		/>
	<path class="st8" d="M-34.1,286.6c0-1-0.5-1.5-1.5-1.5c-0.2,0-0.5,0-0.6,0.1c-0.2,0.1-0.3,0.1-0.5,0.2c0,0-0.1,0-0.1,0.1
		c-0.1,0-0.2,0.1-0.2,0.1c-0.1,0-0.2-0.1-0.3-0.2c-0.1-0.1-0.1-0.2-0.1-0.3c0-0.2,0-0.3,0.1-0.4c0.1-0.1,0.3-0.2,0.5-0.3
		c0.2-0.1,0.4-0.1,0.7-0.2c0.2,0,0.5-0.1,0.7-0.1c0.9,0,1.6,0.2,1.9,0.7c0.4,0.5,0.6,1.2,0.6,2.2v3.2c0,0.3,0.1,0.4,0.3,0.4
		c0,0,0,0,0.1,0c0,0,0,0,0.1,0c0.1,0,0.2,0.1,0.3,0.2c0.1,0.1,0.1,0.2,0.1,0.3c0,0.2-0.1,0.3-0.2,0.4c-0.1,0.1-0.3,0.1-0.4,0.1
		c-0.2,0-0.5-0.1-0.6-0.2c-0.2-0.1-0.3-0.3-0.4-0.5c-0.6,0.5-1.2,0.8-2,0.8c-0.7,0-1.3-0.2-1.7-0.6c-0.4-0.4-0.5-0.9-0.5-1.6v-0.1
		c0-1.4,0.8-2.1,2.5-2.1c0.5,0,1,0.1,1.5,0.2V286.6z M-35.5,288.2c-0.3,0-0.5,0-0.7,0.1c-0.2,0.1-0.3,0.1-0.4,0.3
		c-0.1,0.1-0.2,0.2-0.2,0.4c0,0.1-0.1,0.3-0.1,0.5v0.1c0,0.3,0.1,0.6,0.3,0.8c0.2,0.2,0.5,0.3,1,0.3c0.3,0,0.6-0.1,0.9-0.2
		c0.3-0.1,0.5-0.3,0.8-0.5v-1.6c-0.2-0.1-0.5-0.1-0.7-0.2C-35.1,288.2-35.3,288.2-35.5,288.2z"/>
	<path class="st8" d="M-28.7,284.1c0.2,0,0.5,0,0.8,0.1c0.3,0,0.6,0.1,0.8,0.2v-2.8c0-0.2,0-0.3,0.1-0.4c0.1-0.1,0.2-0.2,0.4-0.2
		c0.2,0,0.3,0.1,0.4,0.2c0.1,0.1,0.1,0.2,0.1,0.4v8.3c0,0.2,0,0.4,0.1,0.5c0.1,0.1,0.2,0.3,0.3,0.4c0,0,0.1,0.1,0.1,0.1
		c0,0,0,0.1,0,0.2c0,0.2-0.1,0.3-0.2,0.4c-0.1,0.1-0.2,0.1-0.3,0.1c-0.2,0-0.3,0-0.4-0.1c-0.1-0.1-0.2-0.2-0.3-0.3
		c-0.3,0.2-0.6,0.3-1,0.4c-0.3,0.1-0.7,0.2-1.1,0.2c-0.8,0-1.3-0.3-1.7-0.8c-0.4-0.5-0.6-1.2-0.6-2V287c0-0.4,0-0.8,0.1-1.2
		c0.1-0.4,0.2-0.7,0.4-0.9c0.2-0.3,0.4-0.5,0.7-0.6C-29.6,284.2-29.2,284.1-28.7,284.1z M-27.1,285.4c-0.2-0.1-0.5-0.2-0.8-0.2
		c-0.3,0-0.5-0.1-0.7-0.1c-0.5,0-0.9,0.2-1.1,0.5c-0.2,0.3-0.3,0.8-0.3,1.5v1.8c0,1.1,0.5,1.7,1.4,1.7c0.2,0,0.5,0,0.7-0.1
		c0.3-0.1,0.5-0.2,0.8-0.3c0-0.1,0-0.1,0-0.2c0-0.1,0-0.1,0-0.2V285.4z"/>
	<path class="st8" d="M-21.4,291.6c-0.4,0-0.8-0.1-1.2-0.2c-0.3-0.1-0.6-0.3-0.8-0.5c-0.2-0.2-0.4-0.5-0.5-0.8
		c-0.1-0.3-0.2-0.7-0.2-1v-2.4c0-0.4,0.1-0.7,0.2-1c0.1-0.3,0.3-0.6,0.5-0.8c0.2-0.2,0.5-0.4,0.8-0.5c0.3-0.1,0.7-0.2,1.2-0.2
		c0.4,0,0.8,0.1,1.2,0.2c0.3,0.1,0.6,0.3,0.8,0.5c0.2,0.2,0.4,0.5,0.5,0.8c0.1,0.3,0.2,0.6,0.2,1v2.4c0,0.4-0.1,0.7-0.2,1
		c-0.1,0.3-0.3,0.6-0.5,0.8c-0.2,0.2-0.5,0.4-0.8,0.5C-20.6,291.5-20.9,291.6-21.4,291.6z M-21.4,290.6c0.5,0,0.9-0.1,1.2-0.4
		c0.3-0.3,0.4-0.6,0.4-1.1v-2.4c0-0.5-0.1-0.8-0.4-1.1c-0.3-0.3-0.7-0.4-1.2-0.4c-0.5,0-0.9,0.1-1.2,0.4c-0.3,0.3-0.4,0.6-0.4,1.1
		v2.4c0,0.5,0.1,0.9,0.4,1.1C-22.3,290.4-21.9,290.6-21.4,290.6z"/>
	<path class="st8" d="M-9.1,286.6c0-1-0.5-1.5-1.5-1.5c-0.2,0-0.5,0-0.6,0.1c-0.2,0.1-0.3,0.1-0.5,0.2c0,0-0.1,0-0.1,0.1
		c-0.1,0-0.2,0.1-0.2,0.1c-0.1,0-0.2-0.1-0.3-0.2c-0.1-0.1-0.1-0.2-0.1-0.3c0-0.2,0-0.3,0.1-0.4c0.1-0.1,0.3-0.2,0.5-0.3
		c0.2-0.1,0.4-0.1,0.7-0.2c0.2,0,0.5-0.1,0.7-0.1c0.9,0,1.6,0.2,1.9,0.7c0.4,0.5,0.6,1.2,0.6,2.2v3.2c0,0.3,0.1,0.4,0.3,0.4
		c0,0,0,0,0.1,0c0,0,0,0,0.1,0c0.1,0,0.2,0.1,0.3,0.2c0.1,0.1,0.1,0.2,0.1,0.3c0,0.2-0.1,0.3-0.2,0.4c-0.1,0.1-0.3,0.1-0.4,0.1
		c-0.2,0-0.5-0.1-0.6-0.2c-0.2-0.1-0.3-0.3-0.4-0.5c-0.6,0.5-1.2,0.8-2,0.8c-0.7,0-1.3-0.2-1.7-0.6c-0.4-0.4-0.5-0.9-0.5-1.6v-0.1
		c0-1.4,0.8-2.1,2.5-2.1c0.5,0,1,0.1,1.5,0.2V286.6z M-10.5,288.2c-0.3,0-0.5,0-0.7,0.1c-0.2,0.1-0.3,0.1-0.4,0.3
		c-0.1,0.1-0.2,0.2-0.2,0.4c0,0.1-0.1,0.3-0.1,0.5v0.1c0,0.3,0.1,0.6,0.3,0.8c0.2,0.2,0.5,0.3,1,0.3c0.3,0,0.6-0.1,0.9-0.2
		c0.3-0.1,0.5-0.3,0.8-0.5v-1.6c-0.2-0.1-0.5-0.1-0.7-0.2C-10.1,288.2-10.3,288.2-10.5,288.2z"/>
	<path class="st8" d="M-1.4,281.6c0-0.2,0.1-0.3,0.2-0.4c0.1-0.1,0.2-0.2,0.4-0.2c0.2,0,0.3,0.1,0.4,0.2s0.2,0.2,0.2,0.4v8.5
		c0,0.2,0,0.3,0,0.4c0,0.1,0.1,0.2,0.2,0.3c0,0,0,0.1,0.1,0.1c0,0,0,0.1,0,0.2c0,0.1-0.1,0.3-0.2,0.4s-0.2,0.2-0.4,0.2
		c-0.1,0-0.2,0-0.3-0.1c-0.1,0-0.2-0.1-0.3-0.2c-0.1-0.1-0.2-0.2-0.2-0.4c-0.1-0.2-0.1-0.5-0.1-0.8V281.6z"/>
	<path class="st8" d="M5.5,286.6c0-1-0.5-1.5-1.5-1.5c-0.2,0-0.5,0-0.6,0.1c-0.2,0.1-0.3,0.1-0.5,0.2c0,0-0.1,0-0.1,0.1
		c-0.1,0-0.2,0.1-0.2,0.1c-0.1,0-0.2-0.1-0.3-0.2c-0.1-0.1-0.1-0.2-0.1-0.3c0-0.2,0-0.3,0.1-0.4c0.1-0.1,0.3-0.2,0.5-0.3
		c0.2-0.1,0.4-0.1,0.7-0.2c0.2,0,0.5-0.1,0.7-0.1c0.9,0,1.6,0.2,1.9,0.7c0.4,0.5,0.6,1.2,0.6,2.2v3.2c0,0.3,0.1,0.4,0.3,0.4
		c0,0,0,0,0.1,0c0,0,0,0,0.1,0c0.1,0,0.2,0.1,0.3,0.2c0.1,0.1,0.1,0.2,0.1,0.3c0,0.2-0.1,0.3-0.2,0.4c-0.1,0.1-0.3,0.1-0.4,0.1
		c-0.2,0-0.5-0.1-0.6-0.2c-0.2-0.1-0.3-0.3-0.4-0.5c-0.6,0.5-1.2,0.8-2,0.8c-0.7,0-1.3-0.2-1.7-0.6c-0.4-0.4-0.5-0.9-0.5-1.6v-0.1
		c0-1.4,0.8-2.1,2.5-2.1c0.5,0,1,0.1,1.5,0.2V286.6z M4,288.2c-0.3,0-0.5,0-0.7,0.1c-0.2,0.1-0.3,0.1-0.4,0.3
		c-0.1,0.1-0.2,0.2-0.2,0.4c0,0.1-0.1,0.3-0.1,0.5v0.1c0,0.3,0.1,0.6,0.3,0.8c0.2,0.2,0.5,0.3,1,0.3c0.3,0,0.6-0.1,0.9-0.2
		s0.5-0.3,0.8-0.5v-1.6c-0.2-0.1-0.5-0.1-0.7-0.2C4.5,288.2,4.2,288.2,4,288.2z"/>
	<path class="st8" d="M12.8,286.8c0-0.4,0.1-0.7,0.2-1c0.1-0.3,0.3-0.6,0.5-0.8c0.2-0.2,0.5-0.4,0.8-0.6c0.3-0.1,0.7-0.2,1.2-0.2
		c0.2,0,0.4,0,0.6,0c0.2,0,0.4,0.1,0.7,0.1c0.2,0.1,0.4,0.2,0.5,0.3c0.1,0.1,0.2,0.3,0.2,0.4c0,0.1,0,0.2-0.1,0.3
		c-0.1,0.1-0.2,0.1-0.3,0.1c-0.1,0-0.1,0-0.2,0c-0.2-0.1-0.3-0.2-0.5-0.2c-0.2-0.1-0.4-0.1-0.6-0.1c-0.6,0-1,0.1-1.2,0.4
		c-0.2,0.3-0.4,0.7-0.4,1.2v2.2c0,0.5,0.1,0.9,0.4,1.2c0.2,0.3,0.6,0.4,1.2,0.4c0.2,0,0.5,0,0.6-0.1c0.2-0.1,0.4-0.1,0.5-0.2
		c0.1,0,0.2,0,0.2,0c0.1,0,0.2,0,0.3,0.1c0.1,0.1,0.1,0.2,0.1,0.3c0,0.2-0.1,0.3-0.2,0.4c-0.1,0.1-0.3,0.2-0.5,0.3
		c-0.2,0.1-0.4,0.1-0.7,0.1c-0.2,0-0.4,0-0.6,0c-0.5,0-0.8-0.1-1.2-0.2c-0.3-0.1-0.6-0.3-0.8-0.6s-0.4-0.5-0.5-0.8
		c-0.1-0.3-0.2-0.7-0.2-1V286.8z"/>
	<path class="st8" d="M20.2,281.8c0,0.2-0.1,0.4-0.2,0.5s-0.3,0.2-0.5,0.2c-0.2,0-0.4-0.1-0.5-0.2c-0.1-0.1-0.2-0.3-0.2-0.5
		c0-0.2,0.1-0.4,0.2-0.5c0.1-0.1,0.3-0.2,0.5-0.2c0.2,0,0.4,0.1,0.5,0.2C20.2,281.5,20.2,281.7,20.2,281.8z M20.1,291
		c0,0.2-0.1,0.3-0.2,0.4s-0.2,0.2-0.4,0.2c-0.2,0-0.3-0.1-0.4-0.2c-0.1-0.1-0.2-0.2-0.2-0.4v-6.4c0-0.2,0.1-0.3,0.2-0.4
		c0.1-0.1,0.2-0.2,0.4-0.2c0.2,0,0.3,0.1,0.4,0.2c0.1,0.1,0.2,0.2,0.2,0.4V291z"/>
	<path class="st8" d="M30.3,286.5c0-0.4-0.1-0.7-0.3-1c-0.2-0.3-0.5-0.4-1-0.4c-0.3,0-0.6,0.1-0.9,0.2c-0.3,0.1-0.5,0.3-0.7,0.5
		c0,0.2,0.1,0.4,0.1,0.6v4.5c0,0.2,0,0.3-0.1,0.4c-0.1,0.1-0.2,0.2-0.4,0.2s-0.3-0.1-0.4-0.2c-0.1-0.1-0.1-0.2-0.1-0.4v-4.2
		c0-0.3,0-0.5,0-0.7c0-0.2-0.1-0.4-0.2-0.5c-0.1-0.2-0.2-0.3-0.4-0.4c-0.2-0.1-0.4-0.1-0.6-0.1c-0.3,0-0.6,0.1-0.9,0.2
		c-0.3,0.1-0.5,0.3-0.7,0.4c0,0.2,0,0.3,0,0.4v4.9c0,0.2,0,0.3-0.1,0.4c-0.1,0.1-0.2,0.2-0.4,0.2c-0.2,0-0.3-0.1-0.4-0.2
		c-0.1-0.1-0.1-0.2-0.1-0.4v-4.9c0-0.2,0-0.4,0-0.5c0-0.1,0-0.2-0.1-0.3c0-0.1-0.1-0.1-0.1-0.2c0,0-0.1-0.1-0.1-0.1
		c0,0,0-0.1-0.1-0.1c0,0,0-0.1,0-0.2c0-0.1,0.1-0.3,0.2-0.4c0.1-0.1,0.2-0.1,0.4-0.1c0.1,0,0.2,0,0.3,0.1s0.2,0.2,0.3,0.3
		c0.3-0.2,0.7-0.4,1-0.5c0.4-0.1,0.7-0.2,1.1-0.2c0.4,0,0.7,0.1,1,0.2c0.3,0.1,0.5,0.3,0.7,0.5c0.3-0.2,0.6-0.4,1-0.5
		s0.7-0.2,1.1-0.2c0.8,0,1.4,0.2,1.8,0.7s0.6,1,0.6,1.8v4.5c0,0.2,0,0.3-0.1,0.4c-0.1,0.1-0.2,0.2-0.4,0.2s-0.3-0.1-0.4-0.2
		c-0.1-0.1-0.1-0.2-0.1-0.4V286.5z"/>
	<path class="st8" d="M37.2,286.6c0-1-0.5-1.5-1.5-1.5c-0.2,0-0.5,0-0.6,0.1c-0.2,0.1-0.3,0.1-0.5,0.2c0,0-0.1,0-0.1,0.1
		c-0.1,0-0.2,0.1-0.2,0.1c-0.1,0-0.2-0.1-0.3-0.2c-0.1-0.1-0.1-0.2-0.1-0.3c0-0.2,0-0.3,0.1-0.4c0.1-0.1,0.3-0.2,0.5-0.3
		c0.2-0.1,0.4-0.1,0.7-0.2c0.2,0,0.5-0.1,0.7-0.1c0.9,0,1.6,0.2,1.9,0.7c0.4,0.5,0.6,1.2,0.6,2.2v3.2c0,0.3,0.1,0.4,0.3,0.4
		c0,0,0,0,0.1,0c0,0,0,0,0.1,0c0.1,0,0.2,0.1,0.3,0.2c0.1,0.1,0.1,0.2,0.1,0.3c0,0.2-0.1,0.3-0.2,0.4c-0.1,0.1-0.3,0.1-0.4,0.1
		c-0.2,0-0.5-0.1-0.6-0.2c-0.2-0.1-0.3-0.3-0.4-0.5c-0.6,0.5-1.2,0.8-2,0.8c-0.7,0-1.3-0.2-1.7-0.6c-0.4-0.4-0.5-0.9-0.5-1.6v-0.1
		c0-1.4,0.8-2.1,2.5-2.1c0.5,0,1,0.1,1.5,0.2V286.6z M35.7,288.2c-0.3,0-0.5,0-0.7,0.1c-0.2,0.1-0.3,0.1-0.4,0.3
		c-0.1,0.1-0.2,0.2-0.2,0.4c0,0.1-0.1,0.3-0.1,0.5v0.1c0,0.3,0.1,0.6,0.3,0.8c0.2,0.2,0.5,0.3,1,0.3c0.3,0,0.6-0.1,0.9-0.2
		c0.3-0.1,0.5-0.3,0.8-0.5v-1.6c-0.2-0.1-0.5-0.1-0.7-0.2C36.2,288.2,35.9,288.2,35.7,288.2z"/>
	<path class="st8" d="M41.9,290.8c0,0.2-0.1,0.4-0.2,0.6c-0.1,0.2-0.3,0.2-0.5,0.2c-0.2,0-0.4-0.1-0.6-0.2c-0.1-0.2-0.2-0.3-0.2-0.6
		c0-0.2,0.1-0.4,0.2-0.5c0.1-0.1,0.3-0.2,0.6-0.2c0.2,0,0.4,0.1,0.5,0.2C41.8,290.4,41.9,290.6,41.9,290.8z M40.5,281.7
		c0-0.2,0.1-0.3,0.2-0.4c0.1-0.1,0.2-0.2,0.4-0.2c0.2,0,0.3,0.1,0.4,0.2c0.1,0.1,0.2,0.2,0.2,0.4l-0.1,6.8c0,0.1,0,0.2-0.1,0.3
		c-0.1,0.1-0.2,0.1-0.3,0.1c-0.1,0-0.2,0-0.3-0.1c-0.1-0.1-0.1-0.2-0.1-0.3L40.5,281.7z"/>
</g>
</svg>
