<?xml version="1.0" encoding="utf-8"?>
<!-- Generator: Adobe Illustrator 15.1.0, SVG Export Plug-In . SVG Version: 6.00 Build 0)  -->
<!DOCTYPE svg PUBLIC "-//W3C//DTD SVG 1.1//EN" "http://www.w3.org/Graphics/SVG/1.1/DTD/svg11.dtd">
<svg version="1.1" id="Layer_1" xmlns="http://www.w3.org/2000/svg" xmlns:xlink="http://www.w3.org/1999/xlink" x="0px" y="0px"
	 width="189px" height="239.317px" viewBox="0 0 189 239.317" enable-background="new 0 0 189 239.317" xml:space="preserve">
<g opacity="0.2">
	<g>
		<defs>
			<rect id="SVGID_1_" x="107.867" y="208.773" width="47.162" height="13.738"/>
		</defs>
		<clipPath id="SVGID_2_">
			<use xlink:href="#SVGID_1_"  overflow="visible"/>
		</clipPath>
		<path clip-path="url(#SVGID_2_)" fill="#1D4B66" d="M155.029,215.643c0,3.794-10.56,6.869-23.587,6.869
			c-13.021,0-23.575-3.075-23.575-6.869c0-3.795,10.555-6.869,23.575-6.869C144.47,208.773,155.029,211.848,155.029,215.643"/>
	</g>
</g>
<g opacity="0.2">
	<g>
		<defs>
			<rect id="SVGID_3_" x="33.84" y="209.232" width="47.162" height="13.735"/>
		</defs>
		<clipPath id="SVGID_4_">
			<use xlink:href="#SVGID_3_"  overflow="visible"/>
		</clipPath>
		<path clip-path="url(#SVGID_4_)" fill="#1D4B66" d="M81.002,216.099c0,3.794-10.56,6.869-23.581,6.869
			c-13.026,0-23.581-3.075-23.581-6.869c0-3.792,10.555-6.869,23.581-6.869C70.442,209.229,81.002,212.307,81.002,216.099"/>
	</g>
</g>
<path fill="none" stroke="#1D4B66" stroke-width="3.7105" stroke-linecap="round" stroke-miterlimit="10" d="M123.084,213.788
	c0,0-0.42-23.074-1.238-52.854"/>
<path fill="none" stroke="#1D4B66" stroke-width="3.7105" stroke-linecap="round" stroke-miterlimit="10" d="M140.396,214.407
	c0,0,0.084-25.796-1.241-52.86"/>
<path fill="#D27D2F" d="M122.249,114.304c-2.833,5.021-7.205,7.063-10.481,20.545c-1.29,5.313-1.587,10.151,0,18.064
	c0.563,2.82,7.068,7.774,14.097,8.941c3.711,0.625,8.096,0.241,14.223-0.616c2.207-0.305,11.128-2.164,11.741-8.745
	c0.471-5.012,2.193-10.294,0-18.062c-1.851-6.575-3.884-9.644-12.063-21.383c-8.135-11.677-7.502-11.467-7.502-11.467
	S125.15,109.162,122.249,114.304"/>
<g opacity="0.3">
	<g>
		<defs>
			<rect id="SVGID_5_" x="132.817" y="110.764" width="18.28" height="50.786"/>
		</defs>
		<clipPath id="SVGID_6_">
			<use xlink:href="#SVGID_5_"  overflow="visible"/>
		</clipPath>
		<path clip-path="url(#SVGID_6_)" fill="#D27D2F" d="M146.388,125.18c-1.288-2.795-3.041-5.343-4.257-8.163
			c-0.633-1.453-1.548-3.662-3.226-4.175c-0.308-0.261-0.644-0.445-1.002-0.561c0.408-0.198,0.817-0.411,1.221-0.646
			c0.448-0.261,0.894-0.555,1.35-0.874c-2.66,0.734-5.32,1.387-7.595,3.083c0.312-0.044,0.616-0.095,0.922-0.156
			c-0.597,0.723-0.98,1.666-0.98,2.753c0.003,3.004,1.549,5.647,3.072,8.12c2.562,4.137,4.365,7.623,4.945,12.568
			c0.489,4.217,0.072,8.775-0.874,12.895c-0.751,3.218-3.713,5.203-4.296,8.426c-0.599,3.327,2.106,3.425,4.66,2.798
			c0.621,0.171,1.321,0.028,1.669-0.507c0.736-0.269,1.378-0.552,1.817-0.768c5.11-2.545,6.863-7.123,7.211-12.632
			C151.507,139.632,149.583,132.116,146.388,125.18"/>
	</g>
</g>
<path fill="none" stroke="#1D4B66" stroke-width="3.7105" stroke-miterlimit="10" d="M121.628,114.304
	c-2.831,5.021-7.197,7.063-10.476,20.545c-1.291,5.313-1.588,10.151,0,18.064c0.563,2.82,7.067,7.774,14.096,8.941
	c3.708,0.625,8.096,0.241,14.218-0.616c2.206-0.305,11.134-2.164,11.747-8.745c0.467-5.012,2.192-10.294,0-18.062
	c-1.852-6.575-3.89-9.644-12.063-21.383c-8.135-11.677-7.502-11.467-7.502-11.467S124.534,109.162,121.628,114.304z"/>
<path fill="#FFFFFF" d="M147.502,95.707c0,9.219-7.474,16.692-16.695,16.692c-9.218,0-16.692-7.474-16.692-16.692
	s7.475-16.692,16.692-16.692C140.028,79.015,147.502,86.488,147.502,95.707"/>
<path fill="#DFDEE4" d="M132.846,112.128c1.579-0.532,3.164-1.039,4.688-1.678c-0.081-0.036-0.162-0.078-0.246-0.106
	c0.406-0.188,0.812-0.389,1.215-0.607c4.727-2.602,10.143-8.673,7.511-14.11c-2.879-5.951-8.513,2.302-10.327,4.466
	c-1.994,2.366-5.002,3.702-8.04,3.932c-0.681-0.333-1.305-0.285-1.806,0.006c-3.456-0.246-6.693-1.969-8.225-5.301
	c-0.658-1.442-2.579-0.664-2.792,0.624c-1.238-0.599-2.912,0.765-2.039,2.064c0.348,0.512,0.712,1.033,1.106,1.543
	c0.271,1.397,1.263,2.562,2.383,3.503c0.342,0.294,0.723,0.397,1.092,0.384c0.031,0.305,0.174,0.594,0.454,0.804
	c4.559,3.488,10.014,5.054,15.368,4.023C133.064,111.814,132.952,111.965,132.846,112.128"/>
<circle fill="none" stroke="#1D4B66" stroke-width="3.7105" stroke-miterlimit="10" cx="130.192" cy="95.707" r="16.693"/>
<path fill="none" stroke="#1D4B66" stroke-width="3.7105" stroke-linecap="round" stroke-miterlimit="10" d="M122.904,114.197
	c0,0,2.492,4.346,7.763,4.346c5.275,0,6.97-4.346,6.97-4.346"/>
<path fill="#1D4B66" d="M127.11,93.713c0-1.128-0.91-2.044-2.038-2.044c-1.129,0-2.044,0.916-2.044,2.044
	c0,1.129,0.915,2.042,2.044,2.042C126.2,95.755,127.11,94.842,127.11,93.713"/>
<path fill="#1D4B66" d="M137.102,93.713c0-1.128-0.91-2.044-2.038-2.044c-1.129,0-2.044,0.916-2.044,2.044
	c0,1.129,0.915,2.042,2.044,2.042C136.191,95.755,137.102,94.842,137.102,93.713"/>
<path fill="#DFDEE4" d="M145.486,130.651c2.268,4.396-1.829,11.02-9.146,14.791c-7.319,3.777-15.087,3.273-17.35-1.12
	c-2.269-4.396,1.822-11.019,9.137-14.794C135.45,125.757,143.218,126.258,145.486,130.651"/>
<path fill="#1B98C6" d="M131.781,130.506h2.809v9.756c0,1.555-0.123,2.644-0.366,3.269c-0.247,0.627-0.655,1.128-1.222,1.495
	c-0.565,0.372-1.248,0.555-2.038,0.555c-1.624,0-3.002-0.709-4.142-2.129l2.019-1.887c0.448,0.504,0.829,0.846,1.143,1.016
	c0.312,0.174,0.616,0.261,0.905,0.261c0.305,0,0.523-0.126,0.675-0.381c0.146-0.252,0.218-0.81,0.218-1.669V130.506z"/>
<path fill="#1D4B66" d="M114.146,92.092c-0.588-0.561-0.583-1.63-0.688-2.392c-0.208-1.512-0.676-2.851-1.022-4.323
	c-0.378-1.6-0.535-3.761-0.364-5.396c0.843,0.611,1.594,1.353,2.462,1.93c-0.739-1.873-2.104-4.764-0.97-6.769
	c1.229,0.669,1.687,2.269,2.574,3.26c0.982-3.428,6.768-3.694,9.529-3.974c3.405-0.348,6.871-0.4,10.104-1.675
	c2.979-1.176,4.889-2.806,7.003-5.104c0.059,1.42,0.123,2.938-0.246,4.323c-0.3,1.132-0.983,2.235-1.229,3.327
	c2.279-0.775,5.646-0.955,8.015-0.354c-1.21,0.381-3.378,1.521-3.843,2.717c1.294,0.07,5.024-0.507,5.651,0.941
	c-1.344,0.509-2.876,1.438-3.506,2.794c-0.835,1.798-0.196,4.441,0.219,6.265c0.358,1.573,1.615,5.682-0.102,6.961
	c-0.229-3.103-1.557-6.667-3.797-8.907c-1.489-1.487-3.473-2.543-5.271-3.604c-1.764-1.05-3.895-2.105-5.857-2.711
	c-4.542-1.389-10.017-0.05-13.825,2.613c-2.758,1.935-3.813,4.052-4.265,7.236c-0.126,0.843-0.412,1.674-0.667,2.461"/>
<path fill="none" stroke="#1D4B66" stroke-width="3.7105" stroke-linecap="round" stroke-miterlimit="10" d="M114.146,92.092
	c-0.588-0.561-0.583-1.63-0.688-2.392c-0.208-1.512-0.676-2.851-1.022-4.323c-0.378-1.6-0.535-3.761-0.364-5.396
	c0.843,0.611,1.594,1.353,2.462,1.93c-0.739-1.873-2.104-4.764-0.97-6.769c1.229,0.669,1.687,2.269,2.574,3.26
	c0.982-3.428,6.768-3.694,9.529-3.974c3.405-0.348,6.871-0.4,10.104-1.675c2.979-1.176,4.889-2.806,7.003-5.104
	c0.059,1.42,0.123,2.938-0.246,4.323c-0.3,1.132-0.983,2.235-1.229,3.327c2.279-0.775,5.646-0.955,8.015-0.354
	c-1.21,0.381-3.378,1.521-3.843,2.717c1.294,0.07,5.024-0.507,5.651,0.941c-1.344,0.509-2.876,1.438-3.506,2.794
	c-0.835,1.798-0.196,4.441,0.219,6.265c0.358,1.573,1.615,5.682-0.102,6.961c-0.229-3.103-1.557-6.667-3.797-8.907
	c-1.489-1.487-3.473-2.543-5.271-3.604c-1.764-1.05-3.895-2.105-5.857-2.711c-4.542-1.389-10.017-0.05-13.825,2.613
	c-2.758,1.935-3.813,4.052-4.265,7.236c-0.126,0.843-0.412,1.674-0.667,2.461"/>
<path fill="none" stroke="#1D4B66" stroke-width="3.7105" stroke-linecap="round" stroke-miterlimit="10" d="M119.505,116.577
	c0,0-22.875,6.584-21.371,41.47"/>
<path fill="none" stroke="#1D4B66" stroke-width="3.7105" stroke-linecap="round" stroke-miterlimit="10" d="M141.729,115.771
	c0,0,22.869,6.584,21.365,41.467"/>
<path fill="none" stroke="#1D4B66" stroke-width="1.9986" stroke-linecap="round" stroke-miterlimit="10" d="M124.204,102.686
	c0,0,2.201,2.741,6.009,2.005c3.809-0.736,5.612-4.812,5.612-4.812"/>
<path fill="#1D4B66" d="M53.952,76.839c-1.177,0.849-3.053,0.37-4.369,0.781c-2.061,0.647-4.287,1.795-5.986,3.38
	c-2.767,2.576-4.612,7.303-5.158,11.476c-0.306,2.315-0.471,4.601,0.201,6.793c0.605,1.969,0.798,4.279,0.913,6.371
	c0.112,2.167,0.736,7.555-1.414,8.521c1.504,0.102,3.349-0.476,4.472-1.666c0.018,1.033-0.789,2.742-1.069,3.783
	c-0.403,1.496-0.756,3.081-1.873,3.915c1.498,0.101,3.391-0.345,4.505-1.641c0.06,1.411-0.218,2.839-0.445,4.187
	c0.535,0.243,1.022,0.876,1.454,1.347c1.237,1.341,2.5,2.486,3.987,3.391c3.77,2.308,7.98,2.655,12.119,2.655
	c5.032,0,10.087-0.896,13.308-6.016c-1.513,0.168-3.147-2.119-3.814-3.548c-0.672-1.464-0.988-3.262-0.988-4.937
	c0.552,2.182,4.001,2.543,5.424,3.192c-1.921-0.199-2.963-3.741-2.879-5.758c0.104-2.702,1.639-5.729,2.381-8.274
	c0.772-2.66,0.809-5.707,0.789-8.519c-0.017-2.495-0.24-5.562-0.82-7.952c-1.363-5.688-5.52-9.396-10.03-11.033
	c-2.991-1.084-5.878-1.141-8.967-0.754c-1.182,0.146-3.492,0.096-4.278,1.313"/>
<path fill="none" stroke="#1D4B66" stroke-width="3.6589" stroke-linecap="round" stroke-miterlimit="10" d="M50.261,213.797
	c0,0,7.158-21.596,5.528-51.581"/>
<path fill="none" stroke="#1D4B66" stroke-width="3.6589" stroke-linecap="round" stroke-miterlimit="10" d="M67.343,214.407
	c0,0-4.783-26.886-4.831-52.614"/>
<path fill="#FFFFFF" d="M74.349,97.295c0,9.092-7.367,16.471-16.465,16.471c-9.096,0-16.469-7.379-16.469-16.471
	c0-9.099,7.373-16.471,16.469-16.471C66.981,80.824,74.349,88.196,74.349,97.295"/>
<path fill="#DFDEE4" d="M59.894,113.491c1.552-0.521,3.12-1.02,4.623-1.655c-0.081-0.03-0.159-0.072-0.246-0.101
	c0.406-0.182,0.81-0.384,1.198-0.604c4.666-2.565,10.012-8.552,7.415-13.917c-2.842-5.87-8.397,2.271-10.189,4.407
	c-1.966,2.333-4.935,3.651-7.937,3.876c-0.666-0.331-1.276-0.277-1.78,0.005c-3.408-0.243-6.598-1.938-8.109-5.225
	c-0.658-1.423-2.549-0.655-2.756,0.613c-1.227-0.594-2.873,0.753-2.011,2.035c0.342,0.51,0.7,1.02,1.087,1.518
	c0.271,1.384,1.248,2.537,2.352,3.462c0.336,0.288,0.717,0.397,1.075,0.383c0.04,0.297,0.171,0.583,0.448,0.79
	c4.503,3.441,9.883,4.987,15.161,3.968C60.106,113.189,60,113.337,59.894,113.491"/>
<path fill="none" stroke="#1D4B66" stroke-width="3.6589" stroke-miterlimit="10" d="M73.744,97.295
	c0,9.092-7.37,16.471-16.466,16.471c-9.095,0-16.474-7.379-16.474-16.471c0-9.099,7.379-16.471,16.474-16.471
	C66.374,80.824,73.744,88.196,73.744,97.295z"/>
<path fill="#1D4B66" d="M54.227,96.911c0-1.213-0.986-2.195-2.198-2.195c-1.21,0-2.193,0.982-2.193,2.195
	c0,1.215,0.983,2.195,2.193,2.195C53.24,99.106,54.227,98.126,54.227,96.911"/>
<path fill="#1D4B66" d="M64.94,96.811c0-1.213-0.98-2.198-2.193-2.198c-1.212,0-2.195,0.985-2.195,2.198
	c0,1.212,0.983,2.192,2.195,2.192C63.96,99.003,64.94,98.022,64.94,96.811"/>
<path fill="none" stroke="#1D4B66" stroke-width="1.9986" stroke-linecap="round" stroke-miterlimit="10" d="M52.087,106.482
	c0,0,2.441,2.147,6.34,1.753c3.903-0.387,5.559-1.949,5.559-1.949"/>
<path fill="#C0325C" d="M50.703,120.167c0,0-3.926,2.823-2.674,7.228c1.257,4.399,3.926,9.112,3.926,9.112
	s-4.236,24.514,1.574,27.496c5.815,2.984,13.511,2.828,15.396-1.258c1.89-4.08-1.252-20.425,0-24.67
	c1.263-4.24,1.733-16.97-1.885-19.012C63.431,117.022,50.703,120.167,50.703,120.167"/>
<path fill="none" stroke="#1D4B66" stroke-width="3.6589" stroke-linecap="round" stroke-miterlimit="10" d="M50.703,120.167
	c0,0-3.926,2.823-2.674,7.228c1.257,4.399,3.926,9.112,3.926,9.112s-4.236,24.514,1.574,27.496
	c5.815,2.984,13.511,2.828,15.396-1.258c1.89-4.08-1.252-20.425,0-24.67c1.263-4.24,1.733-16.97-1.885-19.012
	C63.431,117.022,50.703,120.167,50.703,120.167z"/>
<path fill="#1D4B66" d="M57.71,202.234c0,1.591-1.288,2.885-2.879,2.885h-3.31c-1.591,0-2.885-1.294-2.885-2.885
	c0-1.588,1.294-2.879,2.885-2.879h3.31C56.422,199.355,57.71,200.646,57.71,202.234"/>
<path fill="#1D4B66" d="M70.955,202.481c0,1.59-1.294,2.884-2.885,2.884h-3.304c-1.591,0-2.885-1.294-2.885-2.884
	c0-1.594,1.294-2.879,2.885-2.879h3.304C69.661,199.603,70.955,200.888,70.955,202.481"/>
<path fill="none" stroke="#1D4B66" stroke-width="3.6589" stroke-linecap="round" stroke-miterlimit="10" d="M47.769,124.631
	c-0.381,0.123-12.981,17.012-10.336,20.417c2.644,3.402,14.108,11.341,13.357,11.719c-0.753,0.375-4.662,6.553-4.662,6.553"/>
<path fill="#1D4B66" d="M50.087,155.935c-0.321,0.109-0.111,7.166,4.273,8.88c4.389,1.711,11.767,1.604,13.05,0.104
	c1.282-1.495,2.245-5.665,2.245-5.665l-0.638-3.103"/>
<g>
	<g>
		<defs>
			<rect id="SVGID_7_" x="50.109" y="121.935" width="15.766" height="34.163"/>
		</defs>
		<clipPath id="SVGID_8_">
			<use xlink:href="#SVGID_7_"  overflow="visible"/>
		</clipPath>
		<path clip-path="url(#SVGID_8_)" fill="#C0325C" d="M52.972,122.357c-1.153-0.655-2.476,0.982-2.68,2.032
			c-0.227,1.193-0.255,2.865-0.022,4.063c0.479,2.495,2.977,4.262,3.452,6.836c0.513,2.794-0.134,5.286-0.722,8.028
			c-0.658,3.088-1.165,6.183-1.311,9.305c-0.04,0.835-0.247,2.809,0.613,3.344c0.585,0.361,2.601-0.135,3.318-0.135
			c1.299,0,2.609,0.183,3.867,0.193c-1.09-1.131-0.955-4.337-1.252-5.889c-0.616-3.198-0.387-6.86-0.342-10.12
			c0.006-0.409-0.123-1.952,0.342-2.269c0.392-0.266,1.927,0.199,2.456,0.228c1.89,0.101,3.62,0.002,5.183-1.081
			c-2.408,0.045-4.161-1.025-6.278-2.137c-2.268-1.185-4.48-3.386-4.811-6.091c-0.101-0.829-0.078-1.828,0.241-2.567
			c0.363-0.844,1.128-1.3,0.952-2.347c-0.213-1.21-3.402-2.599-4.184-1.291"/>
	</g>
</g>
<path fill="#1D4B66" d="M50.58,81.898c0.067-0.041-0.006-0.24,0.101-0.117c0.482,1.924,1.059,3.089,2.733,4.38
	c1.366,1.056,3.287,1.596,4.9,2.153c-1.73,0.011-2.224-2.585-2.192-3.867c0.109,1.321,3.038,2.399,3.996,3.007
	c0.814,0.519,1.596,1.235,2.011,2.12c0.173,0.367,0.156,1.176,0.408,1.468c0.658,0.742,0.762-0.529,0.689-1.196
	c-0.168-1.489-1.39-2.693-1.852-4.061c1.423,0.569,3.33,3.059,4.083,4.372c0.771,1.327,0.098,2.22,1.683,1.363
	c2.159-1.173,3.103-3.005,2.277-5.438c-0.4-1.185-0.91-2.52-1.51-3.615c-0.306-0.557-0.936-1.002-1-1.643"/>
<path fill="none" stroke="#1D4B66" stroke-width="3.6589" stroke-linecap="round" stroke-miterlimit="10" d="M68.238,121.512
	c0,0,15.71,14.304,13.666,18.518c-2.045,4.215-12.131,13.537-12.131,13.537l3.83,7.922"/>
</svg>
