<?xml version="1.0" encoding="utf-8"?>
<!-- Generator: Adobe Illustrator 16.0.0, SVG Export Plug-In . SVG Version: 6.00 Build 0)  -->
<!DOCTYPE svg PUBLIC "-//W3C//DTD SVG 1.1//EN" "http://www.w3.org/Graphics/SVG/1.1/DTD/svg11.dtd">
<svg version="1.1" id="Capa_1" xmlns="http://www.w3.org/2000/svg" xmlns:xlink="http://www.w3.org/1999/xlink" x="0px" y="0px"
	 width="120.548px" height="276.712px" viewBox="0 0 120.548 276.712" enable-background="new 0 0 120.548 276.712"
	 xml:space="preserve">
<g>
	<g opacity="0.3">
		<g>
			<defs>
				<rect id="SVGID_1_" x="15.456" y="236.641" width="90.437" height="24.068"/>
			</defs>
			<clipPath id="SVGID_2_">
				<use xlink:href="#SVGID_1_"  overflow="visible"/>
			</clipPath>
			<path clip-path="url(#SVGID_2_)" fill="#1D4B66" d="M105.893,248.675c0,6.644-20.244,12.034-45.219,12.034
				c-24.973,0-45.218-5.391-45.218-12.034s20.245-12.034,45.218-12.034C85.648,236.641,105.893,242.031,105.893,248.675"/>
		</g>
	</g>
	<path fill="#D27D32" d="M75.901,83.359c4.359,7.716,11.077,10.844,16.103,31.559c1.986,8.164,2.447,15.591,0,27.753
		c-0.863,4.331-10.852,11.943-21.649,13.741c-5.697,0.957-12.435,0.37-21.842-0.943c-3.399-0.479-17.105-3.33-18.051-13.447
		c-0.727-7.692-3.367-15.813,0-27.747c2.846-10.1,5.972-14.814,18.538-32.85C61.492,63.492,60.523,63.81,60.523,63.81
		S71.443,75.456,75.901,83.359"/>
	<path fill="#DFDEE4" d="M35.319,109.478c-3.479,6.748,2.804,16.917,14.037,22.712c11.239,5.792,23.17,5.023,26.651-1.728
		c3.479-6.745-2.806-16.914-14.045-22.71C50.729,101.957,38.797,102.73,35.319,109.478"/>
	<path fill="#1C98C6" d="M54.729,108.841h4.313v14.98c0,2.384-0.194,4.058-0.573,5.018c-0.376,0.963-1.003,1.727-1.869,2.296
		c-0.872,0.567-1.915,0.852-3.131,0.852c-2.487,0-4.61-1.088-6.356-3.271l3.1-2.9c0.689,0.776,1.271,1.302,1.755,1.564
		c0.479,0.268,0.943,0.4,1.39,0.4c0.462,0,0.809-0.194,1.026-0.584c0.233-0.388,0.345-1.242,0.345-2.562V108.841z"/>
	<g opacity="0.3">
		<g>
			<defs>
				<rect id="SVGID_3_" x="31.59" y="77.912" width="28.079" height="77.517"/>
			</defs>
			<clipPath id="SVGID_4_">
				<use xlink:href="#SVGID_3_"  overflow="visible"/>
			</clipPath>
			<path clip-path="url(#SVGID_4_)" fill="#D27D32" d="M38.82,99.921c1.977-4.271,4.667-8.15,6.539-12.457
				c0.974-2.229,2.382-5.595,4.971-6.377c0.461-0.396,0.98-0.677,1.527-0.855c-0.624-0.303-1.25-0.624-1.875-0.983
				c-0.684-0.4-1.39-0.846-2.08-1.336c4.091,1.117,8.179,2.115,11.669,4.705c-0.47-0.07-0.943-0.146-1.424-0.245
				c0.923,1.112,1.524,2.544,1.518,4.204c-0.003,4.587-2.379,8.624-4.726,12.396c-3.935,6.319-6.701,11.638-7.593,19.182
				c-0.763,6.441-0.117,13.395,1.342,19.686c1.154,4.908,5.712,7.937,6.607,12.854c0.917,5.086-3.233,5.231-7.162,4.269
				c-0.952,0.268-2.026,0.057-2.564-0.772c-1.128-0.401-2.12-0.838-2.787-1.165c-7.863-3.886-10.544-10.878-11.08-19.276
				C30.96,121.977,33.909,110.508,38.82,99.921"/>
		</g>
	</g>
	<path fill="none" stroke="#1D4B66" stroke-width="3.8421" stroke-miterlimit="10" d="M76.859,83.359
		c4.355,7.716,11.063,10.844,16.1,31.559c1.982,8.164,2.436,15.591,0,27.753c-0.869,4.331-10.853,11.943-21.664,13.741
		c-5.692,0.957-12.429,0.37-21.839-0.943c-3.39-0.479-17.097-3.33-18.048-13.447c-0.715-7.692-3.362-15.813,0-27.747
		c2.846-10.1,5.977-14.814,18.539-32.85C62.438,63.492,61.461,63.81,61.461,63.81S72.395,75.456,76.859,83.359z"/>
	<path fill="#FFFFFF" d="M29.49,47.016c-4.829,13.314,2.057,28.021,15.373,32.843c13.313,4.826,28.016-2.054,32.842-15.372
		c4.832-13.312-2.051-28.021-15.37-32.846C49.011,26.82,34.316,33.699,29.49,47.016"/>
	<path fill="#DFDEE4" d="M42.063,78.403c-1.994-1.593-4.017-3.16-5.895-4.88c0.134-0.006,0.282-0.021,0.422-0.019
		c-0.493-0.484-0.978-0.989-1.436-1.526c-5.473-6.225-10.111-17.83-3.473-24.304c7.271-7.088,11.102,7.783,12.581,11.86
		c1.641,4.463,5.279,7.96,9.559,9.889c1.157-0.128,2.028,0.267,2.609,0.952c5.119,1.45,10.688,0.662,14.646-3.352
		c1.712-1.736,4.079,0.393,3.709,2.363c2.097-0.222,3.804,2.628,1.86,4.045c-0.77,0.567-1.57,1.124-2.398,1.648
		c-1.129,1.874-3.166,3.045-5.279,3.822c-0.649,0.24-1.257,0.189-1.778-0.017c-0.211,0.417-0.566,0.76-1.079,0.921
		c-8.413,2.647-17.102,2.06-24.298-2.238C41.915,77.84,41.997,78.117,42.063,78.403"/>
	<path fill="none" stroke="#1D4B66" stroke-width="3.8421" stroke-miterlimit="10" d="M30.382,47.338
		c-4.829,13.317,2.057,28.027,15.373,32.849c13.316,4.826,28.021-2.056,32.848-15.373c4.829-13.319-2.065-28.025-15.373-32.847
		C49.917,27.142,35.208,34.021,30.382,47.338z"/>
	<path fill="none" stroke="#1D4B66" stroke-width="3.8421" stroke-linecap="round" stroke-miterlimit="10" d="M50.299,81.752
		c0,0-2.407,8.872,5.698,8.872c8.099,0,12.968-11.722,12.968-11.722"/>
	<path fill="#1D4B66" d="M60.831,44.388c0-1.732-1.401-3.139-3.139-3.139c-1.729,0-3.137,1.407-3.137,3.139
		c0,1.737,1.407,3.143,3.137,3.143C59.43,47.53,60.831,46.125,60.831,44.388"/>
	<path fill="#1D4B66" d="M42.416,52.073c0-1.737-1.407-3.143-3.137-3.143c-1.738,0-3.148,1.406-3.148,3.143
		c0,1.735,1.41,3.139,3.148,3.139C41.008,55.212,42.416,53.808,42.416,52.073"/>
	<path fill="#1D4B66" d="M80.543,55.874c1.321-4.233,2.969-8.174,3.313-12.746c0.239-3.121,1.174-7.734-0.735-10.397
		c1.772-1.161,4.054-3.316,4.553-5.365c-2.299,0.579-4.678,0.752-7.063,0.741c2.128-0.908,3.45-2.874,4.51-4.785
		c-1.487,0.935-3.153,1.419-4.792,1.938c-0.844-5.134-11.703-6.476-15.649-6.843c-9.874-0.919-21.059-1.712-29.29-7.825
		c0.644,3.057,4.778,4.977,5.354,7.775c-3.481-0.082-8.023-0.671-11.379-1.456c2.25,0.735,5.06,2.264,6.438,4.262
		c-1.504,0.198-2.937-0.362-4.427-0.181c-0.128,4.874-2.775,9.563-2.837,14.566c-0.034,3.013-0.661,7.077,1.025,9.531
		c0.938-1.346,1.251-3.256,2.037-4.765c0.986-1.882,2.146-2.894,3.567-4.391c2.02-2.126,3.792-4.175,6.134-5.87
		c5.373-3.889,13.971-3.778,20.193-2.228c5.07,1.261,12.982,5.02,15.167,10.187c1.921,4.534,3.869,9.771,3.371,14.794
		c-0.055,0.58-0.074,0.966-0.257,1.529"/>
	<path fill="none" stroke="#1D4B66" stroke-width="5.6188" stroke-linecap="round" stroke-miterlimit="10" d="M80.543,55.874
		c1.321-4.233,2.969-8.174,3.313-12.746c0.239-3.121,1.174-7.734-0.735-10.397c1.772-1.161,4.054-3.316,4.553-5.365
		c-2.299,0.579-4.678,0.752-7.063,0.741c2.128-0.908,3.45-2.874,4.51-4.785c-1.487,0.935-3.153,1.419-4.792,1.938
		c-0.844-5.134-11.703-6.476-15.649-6.843c-9.874-0.919-21.059-1.712-29.29-7.825c0.644,3.057,4.778,4.977,5.354,7.775
		c-3.481-0.082-8.023-0.671-11.379-1.456c2.25,0.735,5.06,2.264,6.438,4.262c-1.504,0.198-2.937-0.362-4.427-0.181
		c-0.128,4.874-2.775,9.563-2.837,14.566c-0.034,3.013-0.661,7.077,1.025,9.531c0.938-1.346,1.251-3.256,2.037-4.765
		c0.986-1.882,2.146-2.894,3.567-4.391c2.02-2.126,3.792-4.175,6.134-5.87c5.373-3.889,13.971-3.778,20.193-2.228
		c5.07,1.261,12.982,5.02,15.167,10.187c1.921,4.534,3.869,9.771,3.371,14.794c-0.055,0.58-0.074,0.966-0.257,1.529"/>
	<path fill="none" stroke="#1D4B66" stroke-width="3.8421" stroke-linecap="round" stroke-miterlimit="10" d="M44.008,88.505
		c0,0-36.76,35.008-28.005,41.659c8.752,6.655,14.701,7.704,14.701,7.704l-3.499,8.398"/>
	<path fill="none" stroke="#1D4B66" stroke-width="3.8421" stroke-linecap="round" stroke-miterlimit="10" d="M51.43,156.973
		c0,0,2.573,23.795,2.248,48.552c-0.319,24.758-3.214,39.868-3.214,39.868"/>
	<path fill="none" stroke="#1D4B66" stroke-width="3.8421" stroke-linecap="round" stroke-miterlimit="10" d="M72.999,156.654
		c0,0-2.573,23.788-2.251,48.552c0.322,24.754,3.217,39.868,3.217,39.868"/>
	<path fill="none" stroke="#1D4B66" stroke-width="3.8421" stroke-linecap="round" stroke-miterlimit="10" d="M70.011,78.068
		c3.938,5.395,6.517,12.661,10.025,18.599c3.392,5.742,7.583,11.748,9.9,17.81c2.517,6.583-1.375,9.709-5.585,14.258
		c-1.63,1.761-4.168,4.176-4.757,6.584c-0.767,3.136,1.451,2.92,3.083,5.416"/>
	<path fill="none" stroke="#1D4B66" stroke-width="2.5614" stroke-linecap="round" stroke-miterlimit="10" d="M43.345,66.068
		c2.264,5.025,13.845,5.252,15.333,0.333"/>
</g>
</svg>
