<?xml version="1.0" encoding="utf-8"?>
<!-- Generator: Adobe Illustrator 16.0.0, SVG Export Plug-In . SVG Version: 6.00 Build 0)  -->
<!DOCTYPE svg PUBLIC "-//W3C//DTD SVG 1.1//EN" "http://www.w3.org/Graphics/SVG/1.1/DTD/svg11.dtd">
<svg version="1.1" id="Capa_1" xmlns="http://www.w3.org/2000/svg" xmlns:xlink="http://www.w3.org/1999/xlink" x="0px" y="0px"
	 width="120.548px" height="276.712px" viewBox="0 0 120.548 276.712" enable-background="new 0 0 120.548 276.712"
	 xml:space="preserve">
<g>
	<g opacity="0.3">
		<g>
			<defs>
				<rect id="SVGID_1_" x="15.456" y="236.641" width="90.437" height="24.068"/>
			</defs>
			<clipPath id="SVGID_2_">
				<use xlink:href="#SVGID_1_"  overflow="visible"/>
			</clipPath>
			<path clip-path="url(#SVGID_2_)" fill="#1D4B66" d="M105.893,248.675c0,6.644-20.244,12.034-45.219,12.034
				c-24.973,0-45.218-5.391-45.218-12.034s20.245-12.034,45.218-12.034C85.648,236.641,105.893,242.031,105.893,248.675"/>
		</g>
	</g>
	<path fill="#D27D32" d="M75.901,83.359c4.359,7.716,11.077,10.844,16.103,31.559c1.986,8.164,2.447,15.591,0,27.753
		c-0.863,4.331-10.852,11.943-21.649,13.741c-5.697,0.957-12.435,0.37-21.842-0.943c-3.399-0.479-17.105-3.33-18.051-13.447
		c-0.727-7.692-3.367-15.813,0-27.747c2.846-10.1,5.972-14.814,18.538-32.85C61.492,63.492,60.523,63.81,60.523,63.81
		S71.443,75.456,75.901,83.359"/>
	<path fill="#DFDEE4" d="M35.319,109.478c-3.479,6.748,2.804,16.917,14.037,22.712c11.239,5.792,23.17,5.023,26.651-1.728
		c3.479-6.745-2.806-16.914-14.045-22.71C50.729,101.957,38.797,102.73,35.319,109.478"/>
	<path fill="#1C98C6" d="M54.729,108.841h4.313v14.98c0,2.384-0.194,4.058-0.573,5.018c-0.376,0.963-1.003,1.727-1.869,2.296
		c-0.872,0.567-1.915,0.852-3.131,0.852c-2.487,0-4.61-1.088-6.356-3.271l3.1-2.9c0.689,0.776,1.271,1.302,1.755,1.564
		c0.479,0.268,0.943,0.4,1.39,0.4c0.462,0,0.809-0.194,1.026-0.584c0.233-0.388,0.345-1.242,0.345-2.562V108.841z"/>
	<g opacity="0.3">
		<g>
			<defs>
				<rect id="SVGID_3_" x="31.59" y="77.912" width="28.079" height="77.517"/>
			</defs>
			<clipPath id="SVGID_4_">
				<use xlink:href="#SVGID_3_"  overflow="visible"/>
			</clipPath>
			<path clip-path="url(#SVGID_4_)" fill="#D27D32" d="M38.82,99.921c1.977-4.271,4.667-8.15,6.539-12.457
				c0.974-2.229,2.382-5.595,4.971-6.377c0.461-0.396,0.98-0.677,1.527-0.855c-0.624-0.303-1.25-0.624-1.875-0.983
				c-0.684-0.4-1.39-0.846-2.08-1.336c4.091,1.117,8.179,2.115,11.669,4.705c-0.47-0.07-0.943-0.146-1.424-0.245
				c0.923,1.112,1.524,2.544,1.518,4.204c-0.003,4.587-2.379,8.624-4.726,12.396c-3.935,6.319-6.701,11.638-7.593,19.182
				c-0.763,6.441-0.117,13.395,1.342,19.686c1.154,4.908,5.712,7.937,6.607,12.854c0.917,5.086-3.233,5.231-7.162,4.269
				c-0.952,0.268-2.026,0.057-2.564-0.772c-1.128-0.401-2.12-0.838-2.787-1.165c-7.863-3.886-10.544-10.878-11.08-19.276
				C30.96,121.977,33.909,110.508,38.82,99.921"/>
		</g>
	</g>
	<path fill="none" stroke="#1D4B66" stroke-width="3.8421" stroke-miterlimit="10" d="M76.859,83.359
		c4.355,7.716,11.063,10.844,16.1,31.559c1.982,8.164,2.436,15.591,0,27.753c-0.869,4.331-10.853,11.943-21.664,13.741
		c-5.692,0.957-12.429,0.37-21.839-0.943c-3.39-0.479-17.097-3.33-18.048-13.447c-0.715-7.692-3.362-15.813,0-27.747
		c2.846-10.1,5.977-14.814,18.539-32.85C62.438,63.492,61.461,63.81,61.461,63.81S72.395,75.456,76.859,83.359z"/>
	<path fill="#FFFFFF" d="M29.49,47.016c-4.829,13.314,2.057,28.021,15.373,32.843c13.313,4.826,28.016-2.054,32.842-15.372
		c4.832-13.312-2.051-28.021-15.37-32.846C49.011,26.82,34.316,33.699,29.49,47.016"/>
	<path fill="#DFDEE4" d="M42.063,78.403c-1.994-1.593-4.017-3.16-5.895-4.88c0.134-0.006,0.282-0.021,0.422-0.019
		c-0.493-0.484-0.978-0.989-1.436-1.526c-5.473-6.225-10.111-17.83-3.473-24.304c7.271-7.088,11.102,7.783,12.581,11.86
		c1.641,4.463,5.279,7.96,9.559,9.889c1.157-0.128,2.028,0.267,2.609,0.952c5.119,1.45,10.688,0.662,14.646-3.352
		c1.712-1.736,4.079,0.393,3.709,2.363c2.097-0.222,3.804,2.628,1.86,4.045c-0.77,0.567-1.57,1.124-2.398,1.648
		c-1.129,1.874-3.166,3.045-5.279,3.822c-0.649,0.24-1.257,0.189-1.778-0.017c-0.211,0.417-0.566,0.76-1.079,0.921
		c-8.413,2.647-17.102,2.06-24.298-2.238C41.915,77.84,41.997,78.117,42.063,78.403"/>
	<path fill="none" stroke="#1D4B66" stroke-width="3.8421" stroke-miterlimit="10" d="M30.382,47.338
		c-4.829,13.317,2.057,28.027,15.373,32.849c13.316,4.826,28.021-2.056,32.848-15.373c4.829-13.319-2.065-28.025-15.373-32.847
		C49.917,27.142,35.208,34.021,30.382,47.338z"/>
	<path fill="none" stroke="#1D4B66" stroke-width="3.8421" stroke-linecap="round" stroke-miterlimit="10" d="M50.299,81.752
		c0,0-2.407,8.872,5.698,8.872c8.099,0,12.968-11.722,12.968-11.722"/>
	<path fill="#1D4B66" d="M60.831,44.388c0-1.732-1.401-3.139-3.139-3.139c-1.729,0-3.137,1.407-3.137,3.139
		c0,1.737,1.407,3.143,3.137,3.143C59.43,47.53,60.831,46.125,60.831,44.388"/>
	<path fill="#1D4B66" d="M42.416,52.073c0-1.737-1.407-3.143-3.137-3.143c-1.738,0-3.148,1.406-3.148,3.143
		c0,1.735,1.41,3.139,3.148,3.139C41.008,55.212,42.416,53.808,42.416,52.073"/>
	<path fill="#1D4B66" d="M80.543,55.874c1.321-4.233,2.969-8.174,3.313-12.746c0.239-3.121,1.174-7.734-0.735-10.397
		c1.772-1.161,4.054-3.316,4.553-5.365c-2.299,0.579-4.678,0.752-7.063,0.741c2.128-0.908,3.45-2.874,4.51-4.785
		c-1.487,0.935-3.153,1.419-4.792,1.938c-0.844-5.134-11.703-6.476-15.649-6.843c-9.874-0.919-21.059-1.712-29.29-7.825
		c0.644,3.057,4.778,4.977,5.354,7.775c-3.481-0.082-8.023-0.671-11.379-1.456c2.25,0.735,5.06,2.264,6.438,4.262
		c-1.504,0.198-2.937-0.362-4.427-0.181c-0.128,4.874-2.775,9.563-2.837,14.566c-0.034,3.013-0.661,7.077,1.025,9.531
		c0.938-1.346,1.251-3.256,2.037-4.765c0.986-1.882,2.146-2.894,3.567-4.391c2.02-2.126,3.792-4.175,6.134-5.87
		c5.373-3.889,13.971-3.778,20.193-2.228c5.07,1.261,12.982,5.02,15.167,10.187c1.921,4.534,3.869,9.771,3.371,14.794
		c-0.055,0.58-0.074,0.966-0.257,1.529"/>
	<path fill="none" stroke="#1D4B66" stroke-width="5.6188" stroke-linecap="round" stroke-miterlimit="10" d="M80.543,55.874
		c1.321-4.233,2.969-8.174,3.313-12.746c0.239-3.121,1.174-7.734-0.735-10.397c1.772-1.161,4.054-3.316,4.553-5.365
		c-2.299,0.579-4.678,0.752-7.063,0.741c2.128-0.908,3.45-2.874,4.51-4.785c-1.487,0.935-3.153,1.419-4.792,1.938
		c-0.844-5.134-11.703-6.476-15.649-6.843c-9.874-0.919-21.059-1.712-29.29-7.825c0.644,3.057,4.778,4.977,5.354,7.775
		c-3.481-0.082-8.023-0.671-11.379-1.456c2.25,0.735,5.06,2.264,6.438,4.262c-1.504,0.198-2.937-0.362-4.427-0.181
		c-0.128,4.874-2.775,9.563-2.837,14.566c-0.034,3.013-0.661,7.077,1.025,9.531c0.938-1.346,1.251-3.256,2.037-4.765
		c0.986-1.882,2.146-2.894,3.567-4.391c2.02-2.126,3.792-4.175,6.134-5.87c5.373-3.889,13.971-3.778,20.193-2.228
		c5.07,1.261,12.982,5.02,15.167,10.187c1.921,4.534,3.869,9.771,3.371,14.794c-0.055,0.58-0.074,0.966-0.257,1.529"/>
	<path fill="none" stroke="#1D4B66" stroke-width="3.8421" stroke-linecap="round" stroke-miterlimit="10" d="M44.008,88.505
		c0,0-36.76,35.008-28.005,41.659c8.752,6.655,14.701,7.704,14.701,7.704l-3.499,8.398"/>
	<path fill="none" stroke="#1D4B66" stroke-width="3.8421" stroke-linecap="round" stroke-miterlimit="10" d="M51.43,156.973
		c0,0,2.573,23.795,2.248,48.552c-0.319,24.758-3.214,39.868-3.214,39.868"/>
	<path fill="none" stroke="#1D4B66" stroke-width="3.8421" stroke-linecap="round" stroke-miterlimit="10" d="M72.999,156.654
		c0,0-2.573,23.788-2.251,48.552c0.322,24.754,3.217,39.868,3.217,39.868"/>
	<path fill="none" stroke="#1D4B66" stroke-width="3.8421" stroke-linecap="round" stroke-miterlimit="10" d="M70.011,78.068
		c3.938,5.395,6.517,12.661,10.025,18.599c3.392,5.742,7.583,11.748,9.9,17.81c2.517,6.583-1.375,9.709-5.585,14.258
		c-1.63,1.761-4.168,4.176-4.757,6.584c-0.767,3.136,1.451,2.92,3.083,5.416"/>
	<path fill="none" stroke="#1D4B66" stroke-width="2.5614" stroke-linecap="round" stroke-miterlimit="10" d="M43.345,66.068
		c2.264,5.025,13.845,5.252,15.333,0.333"/>
</g>
<g>
	<g opacity="0.3">
		<g>
			<defs>
				<rect id="SVGID_5_" x="15.11" y="236.68" width="91.134" height="24.029"/>
			</defs>
			<clipPath id="SVGID_6_">
				<use xlink:href="#SVGID_5_"  overflow="visible"/>
			</clipPath>
			<path clip-path="url(#SVGID_6_)" fill="#1D4B66" d="M106.244,248.695c0,6.633-20.4,12.014-45.568,12.014
				c-25.165,0-45.565-5.381-45.565-12.014c0-6.632,20.4-12.016,45.565-12.016C85.844,236.68,106.244,242.063,106.244,248.695"/>
		</g>
	</g>
	<path fill="#D27D32" d="M76.023,83.652c4.391,7.701,11.162,10.828,16.225,31.505c2.002,8.151,2.467,15.566,0,27.711
		c-0.869,4.322-10.936,11.922-21.814,13.717c-5.742,0.956-12.532,0.371-22.012-0.941c-3.425-0.477-17.237-3.324-18.19-13.426
		c-0.732-7.68-3.394-15.787,0-27.704c2.868-10.08,6.018-14.79,18.682-32.794c12.589-17.904,11.61-17.585,11.61-17.585
		S71.529,75.763,76.023,83.652"/>
	<path fill="#DFDEE4" d="M35.126,109.728c-3.505,6.737,2.826,16.888,14.146,22.674c11.323,5.784,23.349,5.015,26.856-1.728
		c3.504-6.732-2.828-16.883-14.154-22.671C50.656,102.218,38.632,102.99,35.126,109.728"/>
	<path fill="#1C98C6" d="M54.687,109.093h4.345v14.956c0,2.377-0.194,4.05-0.576,5.008c-0.379,0.962-1.011,1.724-1.883,2.293
		c-0.878,0.566-1.929,0.851-3.154,0.851c-2.507,0-4.646-1.087-6.406-3.267l3.124-2.895c0.695,0.774,1.28,1.3,1.769,1.562
		c0.482,0.267,0.95,0.401,1.401,0.401c0.465,0,0.815-0.193,1.033-0.585c0.235-0.388,0.348-1.241,0.348-2.555V109.093z"/>
	<g opacity="0.3">
		<g>
			<defs>
				<rect id="SVGID_7_" x="31.368" y="78.214" width="28.295" height="77.389"/>
			</defs>
			<clipPath id="SVGID_8_">
				<use xlink:href="#SVGID_7_"  overflow="visible"/>
			</clipPath>
			<path clip-path="url(#SVGID_8_)" fill="#D27D32" d="M38.655,100.185c1.992-4.26,4.702-8.137,6.588-12.435
				c0.982-2.227,2.4-5.586,5.011-6.369c0.465-0.392,0.987-0.673,1.538-0.853c-0.628-0.302-1.26-0.621-1.889-0.979
				c-0.688-0.401-1.401-0.847-2.096-1.336c4.123,1.115,8.242,2.113,11.759,4.699c-0.475-0.068-0.95-0.145-1.436-0.245
				c0.93,1.109,1.535,2.54,1.529,4.198c-0.002,4.579-2.396,8.609-4.761,12.375c-3.965,6.308-6.753,11.616-7.651,19.147
				c-0.77,6.434-0.118,13.375,1.353,19.654c1.162,4.902,5.756,7.926,6.657,12.835c0.925,5.077-3.259,5.223-7.218,4.26
				c-0.959,0.269-2.041,0.058-2.584-0.771c-1.137-0.4-2.136-0.835-2.808-1.164c-7.924-3.878-10.625-10.858-11.165-19.244
				C30.734,122.205,33.706,110.754,38.655,100.185"/>
		</g>
	</g>
	<path fill="none" stroke="#1D4B66" stroke-width="3.8537" stroke-miterlimit="10" d="M76.986,83.652
		c4.391,7.701,11.148,10.828,16.225,31.505c1.998,8.151,2.455,15.566,0,27.711c-0.877,4.322-10.936,11.922-21.832,13.717
		c-5.736,0.956-12.524,0.371-22.007-0.941c-3.416-0.477-17.229-3.324-18.188-13.426c-0.721-7.68-3.388-15.787,0-27.704
		c2.868-10.08,6.023-14.79,18.682-32.794c12.587-17.904,11.603-17.585,11.603-17.585S72.488,75.763,76.986,83.652z"/>
	<path fill="#FFFFFF" d="M29.252,47.371c-4.866,13.291,2.073,27.973,15.492,32.788c13.415,4.818,28.232-2.053,33.096-15.348
		c4.869-13.287-2.068-27.975-15.488-32.791C48.925,27.206,34.116,34.075,29.252,47.371"/>
	<path fill="#DFDEE4" d="M41.922,78.703c-2.01-1.587-4.048-3.151-5.94-4.87c0.136-0.005,0.285-0.022,0.426-0.02
		c-0.496-0.483-0.985-0.987-1.447-1.521c-5.516-6.217-10.188-17.802-3.5-24.266c7.327-7.077,11.188,7.77,12.679,11.843
		c1.653,4.454,5.319,7.946,9.632,9.869c1.166-0.125,2.044,0.267,2.63,0.949c5.158,1.451,10.77,0.664,14.758-3.345
		c1.727-1.734,4.113,0.393,3.738,2.361c2.113-0.223,3.834,2.622,1.875,4.039c-0.775,0.563-1.582,1.121-2.418,1.644
		c-1.137,1.872-3.189,3.041-5.318,3.817c-0.656,0.239-1.268,0.188-1.791-0.017c-0.215,0.415-0.572,0.756-1.09,0.918
		c-8.477,2.643-17.233,2.057-24.484-2.233C41.772,78.143,41.856,78.418,41.922,78.703"/>
	<path fill="none" stroke="#1D4B66" stroke-width="3.8537" stroke-miterlimit="10" d="M30.15,47.69
		c-4.865,13.297,2.073,27.981,15.493,32.793c13.417,4.818,28.237-2.051,33.101-15.347c4.867-13.294-2.082-27.976-15.492-32.791
		C49.837,27.53,35.014,34.396,30.15,47.69z"/>
	<path fill="none" stroke="#1D4B66" stroke-width="3.8537" stroke-linecap="round" stroke-miterlimit="10" d="M50.222,82.048
		c0,0-2.426,8.856,5.742,8.856c8.161,0,13.067-11.701,13.067-11.701"/>
	<path fill="#1D4B66" d="M60.834,44.746c0-1.729-1.412-3.135-3.162-3.135c-1.742,0-3.16,1.405-3.16,3.135
		c0,1.732,1.418,3.137,3.16,3.137C59.422,47.883,60.834,46.478,60.834,44.746"/>
	<path fill="#1D4B66" d="M42.278,52.417c0-1.732-1.419-3.135-3.161-3.135c-1.751,0-3.173,1.403-3.173,3.135
		c0,1.735,1.422,3.134,3.173,3.134C40.859,55.551,42.278,54.152,42.278,52.417"/>
	<path fill="none" stroke="#1D4B66" stroke-width="2.5691" stroke-linecap="round" stroke-miterlimit="10" d="M45.296,71.667
		c0,0,4.226-2.973,6.348-2.446c2.127,0.518,2.822,5.238,2.822,5.238"/>
	<path fill="#1D4B66" d="M80.699,56.211c1.332-4.227,2.992-8.158,3.34-12.725c0.24-3.115,1.182-7.719-0.742-10.379
		c1.787-1.158,4.086-3.31,4.588-5.355c-2.316,0.577-4.715,0.75-7.117,0.739c2.145-0.904,3.479-2.867,4.545-4.778
		c-1.498,0.933-3.178,1.416-4.83,1.934c-0.85-5.125-11.793-6.462-15.77-6.832c-9.949-0.916-21.221-1.707-29.515-7.811
		c0.648,3.052,4.815,4.969,5.395,7.762c-3.508-0.082-8.085-0.668-11.467-1.454c2.269,0.734,5.1,2.259,6.489,4.255
		c-1.517,0.199-2.96-0.361-4.462-0.183c-0.13,4.87-2.797,9.552-2.859,14.546c-0.035,3.006-0.666,7.065,1.033,9.513
		c0.944-1.345,1.261-3.25,2.053-4.758c0.993-1.877,2.162-2.887,3.595-4.38c2.035-2.125,3.821-4.169,6.181-5.862
		c5.415-3.882,14.08-3.771,20.349-2.224c5.111,1.26,13.082,5.011,15.285,10.167c1.936,4.528,3.898,9.756,3.396,14.773
		c-0.055,0.578-0.076,0.961-0.258,1.524"/>
	<path fill="none" stroke="#1D4B66" stroke-width="5.6357" stroke-linecap="round" stroke-miterlimit="10" d="M80.699,56.211
		c1.332-4.227,2.992-8.158,3.34-12.725c0.24-3.115,1.182-7.719-0.742-10.379c1.787-1.158,4.086-3.31,4.588-5.355
		c-2.316,0.577-4.715,0.75-7.117,0.739c2.145-0.904,3.479-2.867,4.545-4.778c-1.498,0.933-3.178,1.416-4.83,1.934
		c-0.85-5.125-11.793-6.462-15.77-6.832c-9.949-0.916-21.221-1.707-29.515-7.811c0.648,3.052,4.815,4.969,5.395,7.762
		c-3.508-0.082-8.085-0.668-11.467-1.454c2.269,0.734,5.1,2.259,6.489,4.255c-1.517,0.199-2.96-0.361-4.462-0.183
		c-0.13,4.87-2.797,9.552-2.859,14.546c-0.035,3.006-0.666,7.065,1.033,9.513c0.944-1.345,1.261-3.25,2.053-4.758
		c0.993-1.877,2.162-2.887,3.595-4.38c2.035-2.125,3.821-4.169,6.181-5.862c5.415-3.882,14.08-3.771,20.349-2.224
		c5.111,1.26,13.082,5.011,15.285,10.167c1.936,4.528,3.898,9.756,3.396,14.773c-0.055,0.578-0.076,0.961-0.258,1.524"/>
	<path fill="none" stroke="#1D4B66" stroke-width="3.8537" stroke-linecap="round" stroke-miterlimit="10" d="M43.883,88.789
		c0,0-37.044,34.952-28.221,41.591c8.818,6.646,14.813,7.692,14.813,7.692l-3.525,8.385"/>
	<path fill="none" stroke="#1D4B66" stroke-width="3.8537" stroke-linecap="round" stroke-miterlimit="10" d="M77.041,81.8
		c0,0,7.414,12.583,5.297,27.259c-2.115,14.682-11.291,18.175-10.938,11.536c0.354-6.642-10.953-48.434-15-49.908
		c-4.051-1.467-8.985-1.819-8.985-1.819"/>
	<path fill="none" stroke="#1D4B66" stroke-width="3.8537" stroke-linecap="round" stroke-miterlimit="10" d="M51.361,157.145
		c0,0,2.593,23.756,2.266,48.472c-0.321,24.716-3.238,39.801-3.238,39.801"/>
	<path fill="none" stroke="#1D4B66" stroke-width="3.8537" stroke-linecap="round" stroke-miterlimit="10" d="M73.096,156.827
		c0,0-2.592,23.749-2.266,48.472c0.322,24.712,3.24,39.801,3.24,39.801"/>
</g>
</svg>
