<?xml version="1.0" encoding="utf-8"?>
<!-- Generator: Adobe Illustrator 19.0.0, SVG Export Plug-In . SVG Version: 6.00 Build 0)  -->
<svg version="1.1" id="Capa_1" xmlns="http://www.w3.org/2000/svg" xmlns:xlink="http://www.w3.org/1999/xlink" x="0px" y="0px"
	 viewBox="0 0 729.4 195" style="enable-background:new 0 0 729.4 195;" xml:space="preserve">
<style type="text/css">
	.st0{fill:#1F4D69;}
	.st1{fill:none;stroke:#040468;stroke-width:2.1077;stroke-miterlimit:10;stroke-dasharray:5.6206,10.5386;}
</style>
<path id="XMLID_2_" class="st0" d="M1130.4,47.9c2.5-2.4,4.1-5.1,4.4-7.1c0.1-0.7,0-1.2-0.2-1.6c0,0-0.1-0.2-0.2-0.3
	c-0.1-0.1-0.2-0.2-0.2-0.2c-0.4-0.3-0.9-0.5-1.5-0.6c-2-0.3-5.1,0.5-8.1,2.1c-2.5,1.3-5,3.3-8.6,6.1c-0.6,0.5-1.2,1-1.9,1.5
	l-5.7-2.7l0,0c0.3-0.2,0.5-0.5,0.5-0.9c0.1-0.4,0-0.7-0.2-1l-0.9-1.2c-0.2-0.3-0.5-0.5-0.9-0.5c-0.4-0.1-0.7,0-1,0.3l-1.8,1.4
	l-0.8-0.4c0.2-0.2,0.4-0.5,0.4-0.8c0.1-0.4,0-0.7-0.2-1l-0.9-1.2c-0.2-0.3-0.5-0.5-0.9-0.5c-0.4-0.1-0.7,0-1,0.2l-1.7,1.2l-5.8-2.7
	c-0.1-0.1-0.3-0.1-0.4-0.1c-0.4-0.1-0.9,0-1.2,0.3l-2.4,1.8c-0.3,0.2-0.5,0.5-0.5,0.8c-0.1,0.5,0.1,0.9,0.5,1.2l11.6,9
	c0.1,0,0.2,0.2,0.3,0.3l3.1,4.2c-3.9,3.1-7.5,6-10.3,8.7c-0.3,0.2-0.5,0.5-0.8,0.7l-9.7-2.4c0,0-0.1,0-0.2,0c-0.4-0.1-0.9,0-1.3,0.3
	l-1.1,0.8c-0.3,0.2-0.5,0.5-0.5,0.8c-0.1,0.5,0.1,1,0.5,1.2l6.4,4.3c0,0,0.2,0.2,0.2,0.2l0.5,0.7c-0.3,0.5-0.4,0.9-0.5,1.3
	c-0.1,0.5,0,1,0.3,1.3l0,0l0,0c0.3,0.4,0.7,0.6,1.2,0.7c0.4,0.1,0.8,0,1.4-0.1l0.5,0.7c0,0.1,0.1,0.2,0.1,0.3l2.2,7.4
	c0.1,0.5,0.5,0.8,1,0.9l0,0c0.3,0,0.7,0,0.9-0.2l1.2-0.9c0.3-0.3,0.6-0.7,0.7-1.1c0-0.1,0-0.1,0-0.1l0.6-10c0.3-0.2,0.6-0.3,0.9-0.5
	c3.4-1.9,7.3-4.4,11.3-7.2l3.1,4.2c0,0.1,0.2,0.3,0.2,0.3l5.2,13.7c0.1,0.4,0.5,0.8,1,0.8c0.3,0,0.7,0,0.9-0.2l2.5-1.8
	c0.3-0.3,0.5-0.6,0.6-1c0-0.1,0-0.3,0-0.4l-0.9-6.3l1.7-1.2c0.3-0.2,0.5-0.5,0.5-0.9c0.1-0.3,0-0.7-0.2-1l-0.9-1.2
	c-0.2-0.3-0.5-0.5-0.9-0.5c-0.3,0-0.6,0-0.9,0.2l-0.1-0.9l1.8-1.4c0.3-0.2,0.5-0.5,0.5-0.9c0.1-0.4,0-0.7-0.2-1l-0.9-1.2
	c-0.2-0.3-0.5-0.5-0.9-0.5c-0.4-0.1-0.7,0-1,0.2l0,0l-0.9-6.2c0.7-0.5,1.4-1,2-1.4C1125.8,51.7,1128.5,49.8,1130.4,47.9"/>
<path id="XMLID_31_" class="st1" d="M3.6,184c0,0,192.9-227.2,437.5-168c116.8,28.3,30.9,219-40.3,112.4
	c-75.6-113.2,205.9,18.8,328.6-32.7"/>
</svg>
