<?xml version="1.0" encoding="utf-8"?>
<!-- Generator: Adobe Illustrator 19.0.0, SVG Export Plug-In . SVG Version: 6.00 Build 0)  -->
<svg version="1.1" id="Capa_1" xmlns="http://www.w3.org/2000/svg" xmlns:xlink="http://www.w3.org/1999/xlink" x="0px" y="0px"
	 viewBox="-254 346 102 102" style="enable-background:new -254 346 102 102;" xml:space="preserve">
<style type="text/css">
	.st0{fill:#E41E5D;}
	.st1{fill:#FFFFFF;stroke:#E41E5D;stroke-width:1.3702;stroke-miterlimit:10;}
</style>
<circle id="XMLID_60_" class="st0" cx="-203" cy="397" r="45.2"/>
<g id="XMLID_54_">
	<rect id="XMLID_59_" x="-227.2" y="383.2" class="st1" width="10.6" height="33.9"/>
	<path id="XMLID_58_" class="st1" d="M-222.2,379L-222.2,379c-3.9,0-6.4-2.6-6.4-5.9c0-3.3,2.6-5.9,6.5-5.9c3.9,0,6.3,2.5,6.4,5.9
		C-215.7,376.4-218.2,379-222.2,379z"/>
	<path id="XMLID_55_" class="st1" d="M-174.3,417.1h-12v-17.5c0-4.6-1.9-7.7-6-7.7c-3.2,0-4.9,2.1-5.7,4.2c-0.3,0.7-0.3,1.7-0.3,2.8
		v18.3h-11.9c0,0,0.2-31,0-33.9h11.9v5.3c0.7-2.3,4.5-5.6,10.6-5.6c7.5,0,13.4,4.9,13.4,15.4V417.1L-174.3,417.1z"/>
</g>
</svg>
