<?xml version="1.0" encoding="utf-8"?>
<!-- Generator: Adobe Illustrator 19.0.0, SVG Export Plug-In . SVG Version: 6.00 Build 0)  -->
<svg version="1.1" id="Capa_1" xmlns="http://www.w3.org/2000/svg" xmlns:xlink="http://www.w3.org/1999/xlink" x="0px" y="0px"
	 viewBox="249.3 3.2 535 570.7" style="enable-background:new 249.3 3.2 535 570.7;" xml:space="preserve">
<style type="text/css">
	.st0{fill:#1F4D69;}
	.st1{fill:#87D329;}
</style>
<path id="XMLID_30_" class="st0" d="M774.5,426.1c-0.3-42-0.7-121.7-1.3-140.9c0-0.8-0.7-1.5-1.5-1.5c-27.6,0.5-55.4,1.6-82.3,2.6
	c-38.1,1.4-380,2.9-418.9,2.9c-4.5,0-8.9,0-13.4-0.1c-0.4,0-0.8,0.2-1.1,0.4c-0.3,0.3-0.4,0.7-0.4,1.1c0.8,67.8,2.8,226,6,281.9
	c0,0.8,0.7,1.4,1.5,1.4l513.5-1.2c0.4,0,0.8-0.2,1.1-0.5c0.3-0.3,0.4-0.7,0.4-1.1c-0.7-14.3-1.2-28-1.6-41.1
	C775,526.9,773.8,426.4,774.5,426.1z"/>
<path id="XMLID_8_" class="st1" d="M262.6,573.9c-0.8,0-1.5-0.6-1.5-1.4c-3.2-55.9-5.2-214.2-6-281.9c0-0.4,0.2-0.8,0.4-1.1
	c0.3-0.3,0.7-0.5,1.1-0.4c4.5,0,8.9,0.1,13.4,0.1c38.9,0,381.1-1.5,419.1-2.9c26.9-1,54.8-2.1,82.3-2.6c0.8,0,1.5,0.6,1.5,1.5
	c0.8,24.2,1.2,144.2,1.6,164.2c0,0.8-0.4,26.1-1.3,26.1c-0.8,0-1.7-25.2-1.7-26.1c-0.3-19.6-0.7-139.1-1.5-162.7
	c-27.1,0.5-54.4,1.6-80.8,2.5c-38.1,1.4-380.3,2.9-419.3,2.9c-4,0-7.9,0-11.9,0c0.8,66.5,2.7,223.8,5.9,278.8l510.7-1.2
	c-1.4-29.7-2.1-56.8-2.5-81.8c0-0.8,0.1-39.6,1-39.6c0.8,0,2,38.8,2,39.6c0.5,25.3,1.1,52.9,2.6,83.2c0,0.4-0.1,0.8-0.4,1.1
	c-0.3,0.3-0.7,0.5-1.1,0.5C776.3,572.7,262.6,573.9,262.6,573.9z"/>
<path class="st0" d="M336.5,73.3c1.1-1.1,1.7-2.6,1.7-4.1l0-10.5c0,0,0,0,0,0v-0.5c0-1.6-0.6-3-1.7-4.1s-2.6-1.7-4.1-1.7l0,0v-1.1
	l0,0c1.6,0,3-0.6,4.1-1.7c1.1-1.1,1.7-2.6,1.7-4.1l0-10.5c0-1.6-0.6-3-1.7-4.1s-2.6-1.7-4.1-1.7l0,0l0-1.1l0,0c1.6,0,3-0.6,4.1-1.7
	c1.1-1.1,1.7-2.6,1.7-4.1l0-10.5c0-1.6-0.6-3-1.7-4.1c-1.1-1.1-2.6-1.7-4.1-1.7l-3.9,0c-3.1,0-5.8,2.7-5.8,5.8v10.5
	c0,1.6,0.6,3,1.7,4.1c1.1,1.1,2.6,1.7,4.1,1.7l0,0l0,1.1h0c-3.1,0-5.8,2.7-5.8,5.8l0,10.5c0,3.2,2.6,5.8,5.8,5.8l0,0l0,1.1h0
	c-3.1,0-5.8,2.7-5.8,5.8l0,10.5c0,0,0,0,0,0v0.5c0,1.6,0.6,3,1.7,4.1c1.1,1.1,2.6,1.7,4.1,1.7l0,0l0,1.1h0c-3.1,0-5.8,2.7-5.8,5.8
	l0,10.5c0,3.2,2.6,5.8,5.8,5.8l0,0l0,1.1h0c-3.1,0-5.8,2.7-5.8,5.8l0,10.5c0,0,0,0,0,0v0.6c0,1.6,0.6,3,1.7,4.1
	c1.1,1.1,2.6,1.7,4.1,1.7l0,0l0,1.1h0c-3.1,0-5.8,2.7-5.8,5.8l0,10.5c0,3.2,2.6,5.8,5.8,5.8l0,0l0,1.1h0c-3.1,0-5.8,2.7-5.8,5.8
	l0,10.5c0,0,0,0,0,0v0.5c0,1.6,0.6,3,1.7,4.1c1.1,1.1,2.6,1.7,4.1,1.7l0,0l0,1.1h0c-3.1,0-5.8,2.7-5.8,5.8l0,10.5
	c0,3.2,2.6,5.8,5.8,5.8l0,0l0,1.1h0c-3.1,0-5.8,2.7-5.8,5.8l0,10.5c0,0.8,0.2,1.5,0.4,2.2c0.3,0.7,0.7,1.3,1.3,1.9
	c1.1,1.1,2.6,1.7,4.1,1.7l0,0l0,1.1h0c-3.1,0-5.8,2.7-5.8,5.8l0,10.5c0,3.2,2.6,5.8,5.8,5.8l0,0l0,1.1h0c-3.1,0-5.8,2.7-5.8,5.8
	l0,10.5c0,0,0,0,0,0v0.5c0,1.6,0.6,3,1.7,4.1c1.1,1.1,2.6,1.7,4.1,1.7l0,0l0,1.1h0c-3.1,0-5.8,2.7-5.8,5.8l0,10.5
	c0,3.2,2.6,5.8,5.8,5.8l0,0l0,1.1h0c-3.1,0-5.8,2.7-5.8,5.8l0,10.5c0,1.6,0.6,3,1.7,4.1c1.1,1.1,2.6,1.7,4.1,1.7l3.9,0
	c1.6,0,3-0.6,4.1-1.7s1.7-2.6,1.7-4.1l0-10.5c0-1.6-0.6-3-1.7-4.1s-2.6-1.7-4.1-1.7l0,0v-1.1l0,0c1.6,0,3-0.6,4.1-1.7
	c1.1-1.1,1.7-2.6,1.7-4.1l0-10.5c0-1.6-0.6-3-1.7-4.1s-2.6-1.7-4.1-1.7l0,0l0-1.1l0,0c1.6,0,3-0.6,4.1-1.7c1.1-1.1,1.7-2.6,1.7-4.1
	l0-10.5c0,0,0,0,0,0v-0.5c0-1.6-0.6-3-1.7-4.1c-1.1-1.1-2.6-1.7-4.1-1.7l0,0v-1.1l0,0c1.6,0,3-0.6,4.1-1.7c1.1-1.1,1.7-2.6,1.7-4.1
	l0-10.5c0-1.6-0.6-3-1.7-4.1s-2.6-1.7-4.1-1.7l0,0l0-1.1l0,0c1.6,0,3-0.6,4.1-1.7c1.1-1.1,1.7-2.6,1.7-4.1l0-10.5
	c0-0.8-0.2-1.5-0.4-2.2c-0.3-0.7-0.7-1.3-1.3-1.9c-1.1-1.1-2.6-1.7-4.1-1.7l0,0v-1.1l0,0c1.6,0,3-0.6,4.1-1.7
	c1.1-1.1,1.7-2.6,1.7-4.1l0-10.5c0-1.6-0.6-3-1.7-4.1s-2.6-1.7-4.1-1.7l0,0l0-1.1l0,0c1.6,0,3-0.6,4.1-1.7c1.1-1.1,1.7-2.6,1.7-4.1
	l0-10.5c0,0,0,0,0,0v-0.5c0-1.6-0.6-3-1.7-4.1s-2.6-1.7-4.1-1.7l0,0v-1.1l0,0c1.6,0,3-0.6,4.1-1.7c1.1-1.1,1.7-2.6,1.7-4.1l0-10.5
	c0-1.6-0.6-3-1.7-4.1s-2.6-1.7-4.1-1.7l0,0l0-1.1l0,0c1.6,0,3-0.6,4.1-1.7c1.1-1.1,1.7-2.6,1.7-4.1l0-10.5c0,0,0,0,0,0l0-0.6
	c0-1.6-0.6-3-1.7-4.1s-2.6-1.7-4.1-1.7l0,0v-1.1l0,0c1.6,0,3-0.6,4.1-1.7c1.1-1.1,1.7-2.6,1.7-4.1l0-10.5c0-1.6-0.6-3-1.7-4.1
	s-2.6-1.7-4.1-1.7l0,0l0-1.1l0,0C334,75,335.4,74.4,336.5,73.3z M330.5,68c-1.1,0-1.9,0.9-1.9,1.9l0,0.7h0c-1.1,0-2-0.9-2-2l0-10
	c0-0.5,0.2-1,0.6-1.4c0.4-0.4,0.9-0.6,1.4-0.6h0l0,0.7c0,1.1,0.9,1.9,1.9,1.9c0.5,0,1-0.2,1.4-0.6c0.3-0.3,0.6-0.8,0.6-1.4l0-0.7h0
	c0.5,0,1,0.2,1.4,0.6c0.4,0.4,0.6,0.9,0.6,1.4l0,10c0,1-0.9,2-2,2h0l0-0.7C332.4,68.9,331.5,68,330.5,68z M328.5,22.9l0,1.2l0,0
	c-0.5,0-1-0.2-1.4-0.6c-0.4-0.4-0.6-0.9-0.6-1.4l0-10.5c0-0.5,0.2-1,0.6-1.4c0.4-0.4,0.9-0.6,1.4-0.6l3.9,0c0.5,0,1,0.2,1.4,0.6
	c0.4,0.4,0.6,0.9,0.6,1.4l0,10.5c0,1-0.9,2-2,2l0,0l0-1.2c0-1.1-0.9-1.9-1.9-1.9C329.4,21,328.5,21.9,328.5,22.9z M328.5,47.4
	c-1.1,0-2-0.9-2-2l0-10.5c0-0.5,0.2-1,0.6-1.4c0.4-0.4,0.9-0.6,1.4-0.6l0,0l0,1.2c0,1.1,0.9,1.9,1.9,1.9c0.5,0,1-0.2,1.4-0.6
	c0.3-0.3,0.6-0.8,0.6-1.4l0-1.2l0,0c0.5,0,1,0.2,1.4,0.6c0.4,0.4,0.6,0.9,0.6,1.4l0,10.5c0,1-0.9,2-2,2l0,0l0-1.2
	c0-1.1-0.9-1.9-1.9-1.9c-1.1,0-1.9,0.9-1.9,1.9L328.5,47.4L328.5,47.4z M330.5,106.4c0.5,0,1-0.2,1.4-0.6c0.3-0.3,0.6-0.8,0.6-1.4
	l0-0.7h0c0.5,0,1,0.2,1.4,0.6c0.4,0.4,0.6,0.9,0.6,1.4l0,9.9c0,1-0.9,2-2,2h0l0-0.7c0-1.1-0.9-1.9-1.9-1.9c-1.1,0-1.9,0.9-1.9,1.9
	l0,0.7h0c-1.1,0-2-0.9-2-2l0-9.9c0-0.5,0.2-1,0.6-1.4c0.4-0.4,0.9-0.6,1.4-0.6h0l0,0.7C328.5,105.5,329.4,106.4,330.5,106.4z
	 M330.5,153.4c0.5,0,1-0.2,1.4-0.6c0.3-0.3,0.6-0.8,0.6-1.4l0-0.7h0c0.5,0,1,0.2,1.4,0.6c0.4,0.4,0.6,0.9,0.6,1.4l0,10
	c0,1-0.9,2-2,2h0l0-0.7c0-1.1-0.9-1.9-1.9-1.9c-1.1,0-1.9,0.9-1.9,1.9l0,0.7h0c-1.1,0-2-0.9-2-2l0-10c0-0.5,0.2-1,0.6-1.4
	c0.4-0.4,0.9-0.6,1.4-0.6h0l0,0.7C328.5,152.6,329.4,153.4,330.5,153.4z M333.5,197.6c0.1,0.1,0.2,0.2,0.3,0.2
	c0.1,0.1,0.1,0.1,0.2,0.2c0.3,0.3,0.4,0.8,0.4,1.2l0,10.5c0,1-0.9,2-2,2l0,0h0l0-1.2c0-1.1-0.9-1.9-1.9-1.9c-1.1,0-1.9,0.9-1.9,1.9
	l0,1.2h0c-0.9,0-1.7-0.6-1.9-1.5c0,0,0,0,0-0.1c0-0.1,0-0.2,0-0.3c0,0,0-0.1,0-0.1l0-10.5c0-0.5,0.2-1,0.6-1.4
	c0.3-0.3,0.8-0.5,1.3-0.6c0,0,0.1,0,0.1,0h0l0,1.2c0,1.1,0.9,1.9,1.9,1.9c0.5,0,1-0.2,1.4-0.6c0.3-0.3,0.6-0.8,0.6-1.4l0-1.2h0
	c0.1,0,0.3,0,0.4,0C333.1,197.3,333.3,197.4,333.5,197.6z M330.5,246.9c0.5,0,1-0.2,1.4-0.6c0.3-0.3,0.6-0.8,0.6-1.4l0-0.7h0
	c0.5,0,1,0.2,1.4,0.6c0.4,0.4,0.6,0.9,0.6,1.4l0,10c0,1-0.9,2-2,2h0l0-0.7c0-1.1-0.9-1.9-1.9-1.9c-1.1,0-1.9,0.9-1.9,1.9l0,0.7h0
	c-1.1,0-2-0.9-2-2l0-10c0-0.5,0.2-1,0.6-1.4c0.4-0.4,0.9-0.6,1.4-0.6h0l0,0.7C328.5,246,329.4,246.9,330.5,246.9z M332.4,290.7
	L332.4,290.7c0.5,0,1,0.2,1.4,0.6s0.6,0.9,0.6,1.4l0,10.5c0,1-0.9,2-2,2l-3.9,0c-1.1,0-2-0.9-2-2l0-10.5c0-0.5,0.2-1,0.6-1.4
	c0.4-0.4,0.9-0.6,1.4-0.6h0l0,1.2c0,1.1,0.9,1.9,1.9,1.9c0.5,0,1-0.2,1.4-0.6c0.3-0.3,0.6-0.8,0.6-1.4L332.4,290.7z M332.4,268.7
	l0-1.2l0,0c0.5,0,1,0.2,1.4,0.6c0.4,0.4,0.6,0.9,0.6,1.4l0,10.5c0,1-0.9,2-2,2l0,0l0-1.2c0-1.1-0.9-1.9-1.9-1.9
	c-1.1,0-1.9,0.9-1.9,1.9l0,1.2l0,0c-1.1,0-2-0.9-2-2l0-10.5c0-0.5,0.2-1,0.6-1.4c0.4-0.4,0.9-0.6,1.4-0.6l0,0l0,1.2
	c0,1.1,0.9,1.9,1.9,1.9c0.5,0,1-0.2,1.4-0.6C332.2,269.7,332.4,269.3,332.4,268.7z M332.4,221.7l0-1.2l0,0c0.5,0,1,0.2,1.4,0.6
	c0.4,0.4,0.6,0.9,0.6,1.4l0,10.5c0,1-0.9,2-2,2l0,0l0-1.2c0-1.1-0.9-1.9-1.9-1.9c-1.1,0-1.9,0.9-1.9,1.9l0,1.2l0,0c-1.1,0-2-0.9-2-2
	l0-10.5c0-0.5,0.2-1,0.6-1.4s0.9-0.6,1.4-0.6l0,0l0,1.2c0,1.1,0.9,1.9,1.9,1.9c0.5,0,1-0.2,1.4-0.6
	C332.2,222.7,332.4,222.3,332.4,221.7z M332.4,175.3l0-1.2l0,0c0.5,0,1,0.2,1.4,0.6c0.4,0.4,0.6,0.9,0.6,1.4l0,10.5c0,1-0.9,2-2,2
	l0,0l0-1.2c0-1.1-0.9-1.9-1.9-1.9c-1.1,0-1.9,0.9-1.9,1.9l0,1.2l0,0c-1.1,0-2-0.9-2-2l0-10.5c0-0.5,0.2-1,0.6-1.4
	c0.4-0.4,0.9-0.6,1.4-0.6l0,0l0,1.2c0,1.1,0.9,1.9,1.9,1.9c0.5,0,1-0.2,1.4-0.6C332.2,176.3,332.4,175.8,332.4,175.3z M332.4,128.3
	l0-1.2l0,0c0.5,0,1,0.2,1.4,0.6c0.4,0.4,0.6,0.9,0.6,1.4l0,10.5c0,1-0.9,2-2,2l0,0l0-1.2c0-1.1-0.9-1.9-1.9-1.9
	c-1.1,0-1.9,0.9-1.9,1.9l0,1.2l0,0c-1.1,0-2-0.9-2-2l0-10.5c0-0.5,0.2-1,0.6-1.4c0.4-0.4,0.9-0.6,1.4-0.6l0,0l0,1.2
	c0,1.1,0.9,1.9,1.9,1.9c0.5,0,1-0.2,1.4-0.6C332.2,129.3,332.4,128.8,332.4,128.3z M332.4,81.2l0-1.2l0,0c0.5,0,1,0.2,1.4,0.6
	c0.4,0.4,0.6,0.9,0.6,1.4l0,10.5c0,1-0.9,2-2,2l0,0l0-1.2c0-1.1-0.9-1.9-1.9-1.9c-1.1,0-1.9,0.9-1.9,1.9l0,1.2l0,0c-1.1,0-2-0.9-2-2
	l0-10.5c0-0.5,0.2-1,0.6-1.4c0.4-0.4,0.9-0.6,1.4-0.6l0,0l0,1.2c0,1.1,0.9,1.9,1.9,1.9c0.5,0,1-0.2,1.4-0.6
	C332.2,82.2,332.4,81.8,332.4,81.2z"/>
<path class="st0" d="M697.8,70.6c1.1-1.1,1.7-2.6,1.7-4.1l0-10.5c0,0,0,0,0,0v-0.5c0-1.6-0.6-3-1.7-4.1s-2.6-1.7-4.1-1.7l0,0v-1.1
	l0,0c1.6,0,3-0.6,4.1-1.7c1.1-1.1,1.7-2.6,1.7-4.1l0-10.5c0-1.6-0.6-3-1.7-4.1s-2.6-1.7-4.1-1.7l0,0l0-1.1l0,0c1.6,0,3-0.6,4.1-1.7
	c1.1-1.1,1.7-2.6,1.7-4.1l0-10.5c0-1.6-0.6-3-1.7-4.1c-1.1-1.1-2.6-1.7-4.1-1.7l-3.9,0c-3.1,0-5.8,2.7-5.8,5.8v10.5
	c0,1.6,0.6,3,1.7,4.1c1.1,1.1,2.6,1.7,4.1,1.7l0,0l0,1.1h0c-3.1,0-5.8,2.7-5.8,5.8l0,10.5c0,3.2,2.6,5.8,5.8,5.8l0,0l0,1.1h0
	c-3.1,0-5.8,2.7-5.8,5.8l0,10.5c0,0,0,0,0,0v0.5c0,1.6,0.6,3,1.7,4.1c1.1,1.1,2.6,1.7,4.1,1.7l0,0l0,1.1h0c-3.1,0-5.8,2.7-5.8,5.8
	l0,10.5c0,3.2,2.6,5.8,5.8,5.8l0,0l0,1.1h0c-3.1,0-5.8,2.7-5.8,5.8l0,10.5c0,0,0,0,0,0v0.6c0,1.6,0.6,3,1.7,4.1
	c1.1,1.1,2.6,1.7,4.1,1.7l0,0l0,1.1h0c-3.1,0-5.8,2.7-5.8,5.8l0,10.5c0,3.2,2.6,5.8,5.8,5.8l0,0l0,1.1h0c-3.1,0-5.8,2.7-5.8,5.8
	l0,10.5c0,0,0,0,0,0v0.5c0,1.6,0.6,3,1.7,4.1c1.1,1.1,2.6,1.7,4.1,1.7l0,0l0,1.1h0c-3.1,0-5.8,2.7-5.8,5.8l0,10.5
	c0,3.2,2.6,5.8,5.8,5.8l0,0l0,1.1h0c-3.1,0-5.8,2.7-5.8,5.8l0,10.5c0,0.8,0.2,1.5,0.4,2.2c0.3,0.7,0.7,1.3,1.3,1.9
	c1.1,1.1,2.6,1.7,4.1,1.7l0,0l0,1.1h0c-3.1,0-5.8,2.7-5.8,5.8l0,10.5c0,3.2,2.6,5.8,5.8,5.8l0,0l0,1.1h0c-3.1,0-5.8,2.7-5.8,5.8
	l0,10.5c0,0,0,0,0,0v0.5c0,1.6,0.6,3,1.7,4.1c1.1,1.1,2.6,1.7,4.1,1.7l0,0l0,1.1h0c-3.1,0-5.8,2.7-5.8,5.8l0,10.5
	c0,3.2,2.6,5.8,5.8,5.8l0,0l0,1.1h0c-3.1,0-5.8,2.7-5.8,5.8l0,10.5c0,1.6,0.6,3,1.7,4.1c1.1,1.1,2.6,1.7,4.1,1.7l3.9,0
	c1.6,0,3-0.6,4.1-1.7s1.7-2.6,1.7-4.1l0-10.5c0-1.6-0.6-3-1.7-4.1s-2.6-1.7-4.1-1.7l0,0V283l0,0c1.6,0,3-0.6,4.1-1.7
	c1.1-1.1,1.7-2.6,1.7-4.1l0-10.5c0-1.6-0.6-3-1.7-4.1s-2.6-1.7-4.1-1.7l0,0l0-1.1l0,0c1.6,0,3-0.6,4.1-1.7c1.1-1.1,1.7-2.6,1.7-4.1
	l0-10.5c0,0,0,0,0,0V243c0-1.6-0.6-3-1.7-4.1c-1.1-1.1-2.6-1.7-4.1-1.7l0,0V236l0,0c1.6,0,3-0.6,4.1-1.7c1.1-1.1,1.7-2.6,1.7-4.1
	l0-10.5c0-1.6-0.6-3-1.7-4.1s-2.6-1.7-4.1-1.7l0,0l0-1.1l0,0c1.6,0,3-0.6,4.1-1.7c1.1-1.1,1.7-2.6,1.7-4.1l0-10.5
	c0-0.8-0.2-1.5-0.4-2.2c-0.3-0.7-0.7-1.3-1.3-1.9c-1.1-1.1-2.6-1.7-4.1-1.7l0,0v-1.1l0,0c1.6,0,3-0.6,4.1-1.7
	c1.1-1.1,1.7-2.6,1.7-4.1l0-10.5c0-1.6-0.6-3-1.7-4.1s-2.6-1.7-4.1-1.7l0,0l0-1.1l0,0c1.6,0,3-0.6,4.1-1.7c1.1-1.1,1.7-2.6,1.7-4.1
	l0-10.5c0,0,0,0,0,0v-0.5c0-1.6-0.6-3-1.7-4.1s-2.6-1.7-4.1-1.7l0,0v-1.1l0,0c1.6,0,3-0.6,4.1-1.7c1.1-1.1,1.7-2.6,1.7-4.1l0-10.5
	c0-1.6-0.6-3-1.7-4.1s-2.6-1.7-4.1-1.7l0,0l0-1.1l0,0c1.6,0,3-0.6,4.1-1.7c1.1-1.1,1.7-2.6,1.7-4.1l0-10.5c0,0,0,0,0,0l0-0.6
	c0-1.6-0.6-3-1.7-4.1s-2.6-1.7-4.1-1.7l0,0v-1.1l0,0c1.6,0,3-0.6,4.1-1.7c1.1-1.1,1.7-2.6,1.7-4.1l0-10.5c0-1.6-0.6-3-1.7-4.1
	s-2.6-1.7-4.1-1.7l0,0l0-1.1l0,0C695.3,72.3,696.7,71.7,697.8,70.6z M691.8,65.3c-1.1,0-1.9,0.9-1.9,1.9l0,0.7h0c-1.1,0-2-0.9-2-2
	l0-10c0-0.5,0.2-1,0.6-1.4c0.4-0.4,0.9-0.6,1.4-0.6h0l0,0.7c0,1.1,0.9,1.9,1.9,1.9c0.5,0,1-0.2,1.4-0.6c0.3-0.3,0.6-0.8,0.6-1.4
	l0-0.7h0c0.5,0,1,0.2,1.4,0.6c0.4,0.4,0.6,0.9,0.6,1.4l0,10c0,1-0.9,2-2,2h0l0-0.7C693.7,66.1,692.8,65.3,691.8,65.3z M689.8,20.2
	l0,1.2l0,0c-0.5,0-1-0.2-1.4-0.6c-0.4-0.4-0.6-0.9-0.6-1.4l0-10.5c0-0.5,0.2-1,0.6-1.4c0.4-0.4,0.9-0.6,1.4-0.6l3.9,0
	c0.5,0,1,0.2,1.4,0.6c0.4,0.4,0.6,0.9,0.6,1.4l0,10.5c0,1-0.9,2-2,2l0,0l0-1.2c0-1.1-0.9-1.9-1.9-1.9
	C690.7,18.3,689.8,19.1,689.8,20.2z M689.8,44.7c-1.1,0-2-0.9-2-2l0-10.5c0-0.5,0.2-1,0.6-1.4c0.4-0.4,0.9-0.6,1.4-0.6l0,0l0,1.2
	c0,1.1,0.9,1.9,1.9,1.9c0.5,0,1-0.2,1.4-0.6c0.3-0.3,0.6-0.8,0.6-1.4l0-1.2l0,0c0.5,0,1,0.2,1.4,0.6c0.4,0.4,0.6,0.9,0.6,1.4l0,10.5
	c0,1-0.9,2-2,2l0,0l0-1.2c0-1.1-0.9-1.9-1.9-1.9c-1.1,0-1.9,0.9-1.9,1.9L689.8,44.7L689.8,44.7z M691.8,103.7c0.5,0,1-0.2,1.4-0.6
	c0.3-0.3,0.6-0.8,0.6-1.4l0-0.7h0c0.5,0,1,0.2,1.4,0.6c0.4,0.4,0.6,0.9,0.6,1.4l0,9.9c0,1-0.9,2-2,2h0l0-0.7c0-1.1-0.9-1.9-1.9-1.9
	c-1.1,0-1.9,0.9-1.9,1.9l0,0.7h0c-1.1,0-2-0.9-2-2l0-9.9c0-0.5,0.2-1,0.6-1.4c0.4-0.4,0.9-0.6,1.4-0.6h0l0,0.7
	C689.8,102.8,690.7,103.7,691.8,103.7z M691.8,150.7c0.5,0,1-0.2,1.4-0.6c0.3-0.3,0.6-0.8,0.6-1.4l0-0.7h0c0.5,0,1,0.2,1.4,0.6
	c0.4,0.4,0.6,0.9,0.6,1.4l0,10c0,1-0.9,2-2,2h0l0-0.7c0-1.1-0.9-1.9-1.9-1.9c-1.1,0-1.9,0.9-1.9,1.9l0,0.7h0c-1.1,0-2-0.9-2-2l0-10
	c0-0.5,0.2-1,0.6-1.4c0.4-0.4,0.9-0.6,1.4-0.6h0l0,0.7C689.8,149.9,690.7,150.7,691.8,150.7z M694.8,194.9c0.1,0.1,0.2,0.2,0.3,0.2
	c0.1,0.1,0.1,0.1,0.2,0.2c0.3,0.3,0.4,0.8,0.4,1.2l0,10.5c0,1-0.9,2-2,2l0,0h0l0-1.2c0-1.1-0.9-1.9-1.9-1.9c-1.1,0-1.9,0.9-1.9,1.9
	l0,1.2h0c-0.9,0-1.7-0.6-1.9-1.5c0,0,0,0,0-0.1c0-0.1,0-0.2,0-0.3c0,0,0-0.1,0-0.1l0-10.5c0-0.5,0.2-1,0.6-1.4
	c0.3-0.3,0.8-0.5,1.3-0.6c0,0,0.1,0,0.1,0h0l0,1.2c0,1.1,0.9,1.9,1.9,1.9c0.5,0,1-0.2,1.4-0.6c0.3-0.3,0.6-0.8,0.6-1.4l0-1.2h0
	c0.1,0,0.3,0,0.4,0C694.3,194.6,694.6,194.7,694.8,194.9z M691.8,244.2c0.5,0,1-0.2,1.4-0.6c0.3-0.3,0.6-0.8,0.6-1.4l0-0.7h0
	c0.5,0,1,0.2,1.4,0.6c0.4,0.4,0.6,0.9,0.6,1.4l0,10c0,1-0.9,2-2,2h0l0-0.7c0-1.1-0.9-1.9-1.9-1.9c-1.1,0-1.9,0.9-1.9,1.9l0,0.7h0
	c-1.1,0-2-0.9-2-2l0-10c0-0.5,0.2-1,0.6-1.4c0.4-0.4,0.9-0.6,1.4-0.6h0l0,0.7C689.8,243.3,690.7,244.2,691.8,244.2z M693.7,288
	L693.7,288c0.5,0,1,0.2,1.4,0.6s0.6,0.9,0.6,1.4l0,10.5c0,1-0.9,2-2,2l-3.9,0c-1.1,0-2-0.9-2-2l0-10.5c0-0.5,0.2-1,0.6-1.4
	c0.4-0.4,0.9-0.6,1.4-0.6h0l0,1.2c0,1.1,0.9,1.9,1.9,1.9c0.5,0,1-0.2,1.4-0.6c0.3-0.3,0.6-0.8,0.6-1.4L693.7,288z M693.7,266l0-1.2
	l0,0c0.5,0,1,0.2,1.4,0.6c0.4,0.4,0.6,0.9,0.6,1.4l0,10.5c0,1-0.9,2-2,2l0,0l0-1.2c0-1.1-0.9-1.9-1.9-1.9c-1.1,0-1.9,0.9-1.9,1.9
	l0,1.2l0,0c-1.1,0-2-0.9-2-2l0-10.5c0-0.5,0.2-1,0.6-1.4c0.4-0.4,0.9-0.6,1.4-0.6l0,0l0,1.2c0,1.1,0.9,1.9,1.9,1.9
	c0.5,0,1-0.2,1.4-0.6C693.5,267,693.7,266.6,693.7,266z M693.7,219l0-1.2l0,0c0.5,0,1,0.2,1.4,0.6c0.4,0.4,0.6,0.9,0.6,1.4l0,10.5
	c0,1-0.9,2-2,2l0,0l0-1.2c0-1.1-0.9-1.9-1.9-1.9c-1.1,0-1.9,0.9-1.9,1.9l0,1.2l0,0c-1.1,0-2-0.9-2-2l0-10.5c0-0.5,0.2-1,0.6-1.4
	s0.9-0.6,1.4-0.6l0,0l0,1.2c0,1.1,0.9,1.9,1.9,1.9c0.5,0,1-0.2,1.4-0.6C693.5,220,693.7,219.6,693.7,219z M693.7,172.6l0-1.2l0,0
	c0.5,0,1,0.2,1.4,0.6c0.4,0.4,0.6,0.9,0.6,1.4l0,10.5c0,1-0.9,2-2,2l0,0l0-1.2c0-1.1-0.9-1.9-1.9-1.9c-1.1,0-1.9,0.9-1.9,1.9l0,1.2
	l0,0c-1.1,0-2-0.9-2-2l0-10.5c0-0.5,0.2-1,0.6-1.4c0.4-0.4,0.9-0.6,1.4-0.6l0,0l0,1.2c0,1.1,0.9,1.9,1.9,1.9c0.5,0,1-0.2,1.4-0.6
	C693.5,173.6,693.7,173.1,693.7,172.6z M693.7,125.6l0-1.2l0,0c0.5,0,1,0.2,1.4,0.6c0.4,0.4,0.6,0.9,0.6,1.4l0,10.5c0,1-0.9,2-2,2
	l0,0l0-1.2c0-1.1-0.9-1.9-1.9-1.9c-1.1,0-1.9,0.9-1.9,1.9l0,1.2l0,0c-1.1,0-2-0.9-2-2l0-10.5c0-0.5,0.2-1,0.6-1.4
	c0.4-0.4,0.9-0.6,1.4-0.6l0,0l0,1.2c0,1.1,0.9,1.9,1.9,1.9c0.5,0,1-0.2,1.4-0.6C693.5,126.6,693.7,126.1,693.7,125.6z M693.7,78.5
	l0-1.2l0,0c0.5,0,1,0.2,1.4,0.6c0.4,0.4,0.6,0.9,0.6,1.4l0,10.5c0,1-0.9,2-2,2l0,0l0-1.2c0-1.1-0.9-1.9-1.9-1.9
	c-1.1,0-1.9,0.9-1.9,1.9l0,1.2l0,0c-1.1,0-2-0.9-2-2l0-10.5c0-0.5,0.2-1,0.6-1.4c0.4-0.4,0.9-0.6,1.4-0.6l0,0l0,1.2
	c0,1.1,0.9,1.9,1.9,1.9c0.5,0,1-0.2,1.4-0.6C693.5,79.5,693.7,79.1,693.7,78.5z"/>
</svg>
