<?xml version="1.0" encoding="utf-8"?>
<!-- Generator: Adobe Illustrator 19.0.0, SVG Export Plug-In . SVG Version: 6.00 Build 0)  -->
<svg version="1.1" id="Capa_1" xmlns="http://www.w3.org/2000/svg" xmlns:xlink="http://www.w3.org/1999/xlink" x="0px" y="0px"
	 viewBox="206 52 1024 690" style="enable-background:new 206 52 1024 690;" xml:space="preserve">
<style type="text/css">
	.st0{fill:none;}
	.st1{fill:#DBDBDD;}
	.st2{fill:#F5F5F5;}
	.st3{fill:#FFCC80;}
	.st4{fill:#E0DFE6;}
	.st5{fill:#1F4D69;}
	.st6{fill:#FFFFFF;}
	.st7{fill:none;stroke:#1F4D69;stroke-width:0.988;stroke-miterlimit:10;}
	.st8{fill:none;stroke:#1F4D69;stroke-width:0.988;stroke-linecap:round;stroke-miterlimit:10;}
	.st9{fill:none;stroke:#1F4D69;stroke-width:4;stroke-linecap:round;stroke-miterlimit:10;}
	.st10{fill:url(#SVGID_1_);}
	.st11{fill:url(#SVGID_2_);}
	.st12{fill:url(#SVGID_3_);}
	.st13{fill:#FFFFFF;stroke:#1F4D69;stroke-width:3;stroke-miterlimit:10;}
	.st14{fill:#D2D9DB;}
</style>
<pattern  x="206" y="742" width="31" height="29.9" patternUnits="userSpaceOnUse" id="SVGID_4_" viewBox="0.1 -29.9 31 29.9" style="overflow:visible;">
	<g>
		<polygon class="st0" points="0.1,0 31.1,0 31.1,-29.9 0.1,-29.9 		"/>
		<g>
			<polygon class="st0" points="0.1,-29.9 31.1,-29.9 31.1,0 0.1,0 			"/>
			<g>
				<polygon class="st0" points="0.1,-29.9 31.1,-29.9 31.1,0 0.1,0 				"/>
				<path class="st1" d="M8-20.8c2.3,0.2,4.7,0.4,6.8,0.2l0.1,1c-2.1,0.2-4.6,0-6.9-0.2c-1.7-0.1-3.3-0.3-4.9-0.3
					c-1.1,0-2,0.1-3,0.2v-1C1-21,2-21.1,3.1-21.1C4.7-21.1,6.4-20.9,8-20.8"/>
				<path class="st1" d="M6.7-27.8c-0.4,0-0.7,0-1,0c-0.5-0.1-1-0.1-1.7-0.1v-1c0.1,0,0.3,0,0.5,0c0.5,0,0.9,0,1.2,0s0.6,0,1,0
					c1.3,0,4.9-0.1,6,0l-0.1,1C11.6-27.9,8-27.8,6.7-27.8"/>
				<path class="st1" d="M11.8-11.2c2.8,0,5.2,0.1,7.4,0.3l-0.1,1c-2.2-0.2-4.6-0.3-7.3-0.3c-2.8,0-5.6,0.1-8.4,0.2
					c-1.1,0-2.2,0.1-3.3,0.1v-1c1.1,0,2.2-0.1,3.3-0.1C6.2-11.1,9-11.2,11.8-11.2"/>
				<polygon class="st1" points="16.1,-14.9 0.1,-14.9 0.1,-15.9 16.1,-15.9 				"/>
				<path class="st1" d="M16.9-1.2c1.6-0.1,3.3-0.1,5.6-0.2v1c-2.2,0.1-4,0.1-5.6,0.2C13.4-0.1,10.9,0,6,0C4,0,2,0,0,0v-1
					c1.9,0,3.9,0,6,0C11-1,13.5-1.1,16.9-1.2"/>
				<path class="st1" d="M11.2-6.3c1.3,0,2.4-0.1,3.4-0.1c1.7-0.1,3.2-0.2,5.5,0.1l-0.1,1c-2.3-0.2-3.7-0.2-5.4-0.1
					c-1,0.1-2.1,0.1-3.4,0.1c-2.2,0-4.4,0-6.6,0.1c-1.5,0-3,0.1-4.5,0.1v-1c1.5,0,3,0,4.5-0.1C6.8-6.3,9-6.3,11.2-6.3"/>
				<path class="st1" d="M1.8-23.9l0.1-1c2.6,0.3,7,0.3,10.2,0.3c0.8,0,1,0,2,0v1c-1,0-1.2,0-2,0C8.9-23.6,4.4-23.6,1.8-23.9"/>
				<path class="st1" d="M24.6-1.3c2.1-2.4,4.3-5,6.5-7.7v1.6c-1.9,2.3-3.8,4.6-5.7,6.8L24.6-1.3z"/>
				<polygon class="st1" points="18.2,-19.9 25.8,-29.9 27.1,-29.9 19,-19.4 				"/>
				<path class="st1" d="M22.9-6.6l-0.7-0.7c2.4-2.6,4.9-5.5,7.8-9.2c0.4-0.5,0.7-1,1.1-1.5v1.7c-0.1,0.1-0.2,0.3-0.3,0.4
					C27.9-12.2,25.4-9.2,22.9-6.6"/>
				<path class="st1" d="M16.5-26.6c0.5-0.6,1.5-1.3,2.7-3.3h1.3c-1.4,2-2.6,3.1-3.2,3.8L16.5-26.6z"/>
				<path class="st1" d="M24.8-16.5c-1,1.3-2,2.5-2.9,3.6l-0.8-0.6l0.3-0.4c0.9-1,1.7-2.1,2.6-3.3c1.9-2.4,3.7-4.9,5.5-7.4
					c0.5-0.8,1.1-1.5,1.7-2.3v1.7c-0.3,0.4-0.6,0.8-0.9,1.2C28.5-21.5,26.6-18.9,24.8-16.5"/>
			</g>
		</g>
	</g>
</pattern>
<pattern  x="206" y="742" width="31" height="29.9" patternUnits="userSpaceOnUse" id="SVGID_5_" viewBox="0.1 -29.9 31 29.9" style="overflow:visible;">
	<g>
		<polygon class="st0" points="0.1,0 31.1,0 31.1,-29.9 0.1,-29.9 		"/>
		<g>
			<polygon class="st0" points="0.1,-29.9 31.1,-29.9 31.1,0 0.1,0 			"/>
			<g>
				<polygon class="st0" points="0.1,-29.9 31.1,-29.9 31.1,0 0.1,0 				"/>
				<path class="st1" d="M8-20.8c2.3,0.2,4.7,0.4,6.8,0.2l0.1,1c-2.1,0.2-4.6,0-6.9-0.2c-1.7-0.1-3.3-0.3-4.9-0.3
					c-1.1,0-2,0.1-3,0.2v-1C1-21,2-21.1,3.1-21.1C4.7-21.1,6.4-20.9,8-20.8"/>
				<path class="st1" d="M6.7-27.8c-0.4,0-0.7,0-1,0c-0.5-0.1-1-0.1-1.7-0.1v-1c0.1,0,0.3,0,0.5,0c0.5,0,0.9,0,1.2,0s0.6,0,1,0
					c1.3,0,4.9-0.1,6,0l-0.1,1C11.6-27.9,8-27.8,6.7-27.8"/>
				<path class="st1" d="M11.8-11.2c2.8,0,5.2,0.1,7.4,0.3l-0.1,1c-2.2-0.2-4.6-0.3-7.3-0.3c-2.8,0-5.6,0.1-8.4,0.2
					c-1.1,0-2.2,0.1-3.3,0.1v-1c1.1,0,2.2-0.1,3.3-0.1C6.2-11.1,9-11.2,11.8-11.2"/>
				<polygon class="st1" points="16.1,-14.9 0.1,-14.9 0.1,-15.9 16.1,-15.9 				"/>
				<path class="st1" d="M16.9-1.2c1.6-0.1,3.3-0.1,5.6-0.2v1c-2.2,0.1-4,0.1-5.6,0.2C13.4-0.1,10.9,0,6,0C4,0,2,0,0,0v-1
					c1.9,0,3.9,0,6,0C11-1,13.5-1.1,16.9-1.2"/>
				<path class="st1" d="M11.2-6.3c1.3,0,2.4-0.1,3.4-0.1c1.7-0.1,3.2-0.2,5.5,0.1l-0.1,1c-2.3-0.2-3.7-0.2-5.4-0.1
					c-1,0.1-2.1,0.1-3.4,0.1c-2.2,0-4.4,0-6.6,0.1c-1.5,0-3,0.1-4.5,0.1v-1c1.5,0,3,0,4.5-0.1C6.8-6.3,9-6.3,11.2-6.3"/>
				<path class="st1" d="M1.8-23.9l0.1-1c2.6,0.3,7,0.3,10.2,0.3c0.8,0,1,0,2,0v1c-1,0-1.2,0-2,0C8.9-23.6,4.4-23.6,1.8-23.9"/>
				<path class="st1" d="M24.6-1.3c2.1-2.4,4.3-5,6.5-7.7v1.6c-1.9,2.3-3.8,4.6-5.7,6.8L24.6-1.3z"/>
				<polygon class="st1" points="18.2,-19.9 25.8,-29.9 27.1,-29.9 19,-19.4 				"/>
				<path class="st1" d="M22.9-6.6l-0.7-0.7c2.4-2.6,4.9-5.5,7.8-9.2c0.4-0.5,0.7-1,1.1-1.5v1.7c-0.1,0.1-0.2,0.3-0.3,0.4
					C27.9-12.2,25.4-9.2,22.9-6.6"/>
				<path class="st1" d="M16.5-26.6c0.5-0.6,1.5-1.3,2.7-3.3h1.3c-1.4,2-2.6,3.1-3.2,3.8L16.5-26.6z"/>
				<path class="st1" d="M24.8-16.5c-1,1.3-2,2.5-2.9,3.6l-0.8-0.6l0.3-0.4c0.9-1,1.7-2.1,2.6-3.3c1.9-2.4,3.7-4.9,5.5-7.4
					c0.5-0.8,1.1-1.5,1.7-2.3v1.7c-0.3,0.4-0.6,0.8-0.9,1.2C28.5-21.5,26.6-18.9,24.8-16.5"/>
			</g>
		</g>
	</g>
</pattern>
<pattern  x="206" y="742" width="31" height="29.9" patternUnits="userSpaceOnUse" id="SVGID_6_" viewBox="0.1 -29.9 31 29.9" style="overflow:visible;">
	<g>
		<polygon class="st0" points="0.1,0 31.1,0 31.1,-29.9 0.1,-29.9 		"/>
		<g>
			<polygon class="st0" points="0.1,-29.9 31.1,-29.9 31.1,0 0.1,0 			"/>
			<g>
				<polygon class="st0" points="0.1,-29.9 31.1,-29.9 31.1,0 0.1,0 				"/>
				<path class="st1" d="M8-20.8c2.3,0.2,4.7,0.4,6.8,0.2l0.1,1c-2.1,0.2-4.6,0-6.9-0.2c-1.7-0.1-3.3-0.3-4.9-0.3
					c-1.1,0-2,0.1-3,0.2v-1C1-21,2-21.1,3.1-21.1C4.7-21.1,6.4-20.9,8-20.8"/>
				<path class="st1" d="M6.7-27.8c-0.4,0-0.7,0-1,0c-0.5-0.1-1-0.1-1.7-0.1v-1c0.1,0,0.3,0,0.5,0c0.5,0,0.9,0,1.2,0s0.6,0,1,0
					c1.3,0,4.9-0.1,6,0l-0.1,1C11.6-27.9,8-27.8,6.7-27.8"/>
				<path class="st1" d="M11.8-11.2c2.8,0,5.2,0.1,7.4,0.3l-0.1,1c-2.2-0.2-4.6-0.3-7.3-0.3c-2.8,0-5.6,0.1-8.4,0.2
					c-1.1,0-2.2,0.1-3.3,0.1v-1c1.1,0,2.2-0.1,3.3-0.1C6.2-11.1,9-11.2,11.8-11.2"/>
				<polygon class="st1" points="16.1,-14.9 0.1,-14.9 0.1,-15.9 16.1,-15.9 				"/>
				<path class="st1" d="M16.9-1.2c1.6-0.1,3.3-0.1,5.6-0.2v1c-2.2,0.1-4,0.1-5.6,0.2C13.4-0.1,10.9,0,6,0C4,0,2,0,0,0v-1
					c1.9,0,3.9,0,6,0C11-1,13.5-1.1,16.9-1.2"/>
				<path class="st1" d="M11.2-6.3c1.3,0,2.4-0.1,3.4-0.1c1.7-0.1,3.2-0.2,5.5,0.1l-0.1,1c-2.3-0.2-3.7-0.2-5.4-0.1
					c-1,0.1-2.1,0.1-3.4,0.1c-2.2,0-4.4,0-6.6,0.1c-1.5,0-3,0.1-4.5,0.1v-1c1.5,0,3,0,4.5-0.1C6.8-6.3,9-6.3,11.2-6.3"/>
				<path class="st1" d="M1.8-23.9l0.1-1c2.6,0.3,7,0.3,10.2,0.3c0.8,0,1,0,2,0v1c-1,0-1.2,0-2,0C8.9-23.6,4.4-23.6,1.8-23.9"/>
				<path class="st1" d="M24.6-1.3c2.1-2.4,4.3-5,6.5-7.7v1.6c-1.9,2.3-3.8,4.6-5.7,6.8L24.6-1.3z"/>
				<polygon class="st1" points="18.2,-19.9 25.8,-29.9 27.1,-29.9 19,-19.4 				"/>
				<path class="st1" d="M22.9-6.6l-0.7-0.7c2.4-2.6,4.9-5.5,7.8-9.2c0.4-0.5,0.7-1,1.1-1.5v1.7c-0.1,0.1-0.2,0.3-0.3,0.4
					C27.9-12.2,25.4-9.2,22.9-6.6"/>
				<path class="st1" d="M16.5-26.6c0.5-0.6,1.5-1.3,2.7-3.3h1.3c-1.4,2-2.6,3.1-3.2,3.8L16.5-26.6z"/>
				<path class="st1" d="M24.8-16.5c-1,1.3-2,2.5-2.9,3.6l-0.8-0.6l0.3-0.4c0.9-1,1.7-2.1,2.6-3.3c1.9-2.4,3.7-4.9,5.5-7.4
					c0.5-0.8,1.1-1.5,1.7-2.3v1.7c-0.3,0.4-0.6,0.8-0.9,1.2C28.5-21.5,26.6-18.9,24.8-16.5"/>
			</g>
		</g>
	</g>
</pattern>
<g id="Layer_1">
	<path class="st2" d="M1149.3,617.3c-11.8-0.3-23.7-0.4-35.5,0.3c-9.8,0.5-29.3,2.6-32.7-9.4c-0.6-0.7-1-1.7-1-2.7v-14
		c0-1.9,0.9-3.1,2.1-3.8c-0.4-2.5-1.3-4.8-3.5-5.4c-2.7-0.9-6.8-0.4-9.7-0.2c-3,0.1-6,0.5-8.9,0.6c-3.7,0.2-7.8,0.5-11.7-0.1
		c-2.4,2-6.9,0.4-7.3-2.7c-0.2-0.2-0.4-0.3-0.6-0.5c0,0,0,0-0.1,0c-3.9-3.3-4.5-8.3-3.2-13.2c-0.6,0-1.1,0-1.7,0
		c-8.6-0.1-18.2-2.2-26.1-5.3c-3.7-1.4-3.7-6-1.6-8l-4.1-68.2h-34.5l-6,21l-25.5,1.5l-9,25.5l-27,6l-4.5,7.5l-13.5-39l-6,1.5
		l-10.5,36l-7.5,30l-27,6l-6,15h-25.5l-6,15c0,0-9.6,2.9-15.1-4.6c0,0-7.5,10.5-21,0c0,0-11,11.5-23.5,0.5c0,0-9,12-24.5-2
		c0,0-7.5,14.5-26.5,0c0,0-10,13-25,1.5c0,0-9,9-21.5-1c0,0-10.5,11.5-22,1.5c0,0-13,11.5-24-1.5c0,0-10,12-26.5-0.5l-15.5,4.5
		l-45-38.5L485.6,583l-49.5-47l-17,9c0,0-26-39.5-33.5-33.5s-30,38-38,37.5s-62,0.5-62,0.5l5.5-33l-21-6.5l6.5-64l-27.5-5.5l-1,12.5
		l-31-5.5l-4.5,56.5l-14.5-1l-1.5,4.5l-24,5.5l4,30.5c0,0,2.2,8.5,0.7,8.5s-13.3-3.4-13.3-3.4l6.7-64.6l-25.5-5l-4.5,10
		c0,0-32-3-32.5-3.5s0,53.5,0,53.5l-16.5,1.5l-1.5,6l-24,4l6.5,29.5l-2,164.5h1089V617.8C1156.2,617.6,1152.8,617.4,1149.3,617.3z"
		/>
	<polygon class="st2" points="313.1,321.7 280.7,344.3 278.5,383.8 313.2,404.6 342.8,384.9 343.8,344.7 	"/>
	<path class="st3" d="M231.3,526.1c-0.2-0.1-0.5-0.1-0.6,0.1c-0.5,0-0.9,0.1-1.3,0.1c-3.1,0.2-4.4,3.3-3.4,5.5v0.1
		c0.5,1.5,1.1,2.9,1.7,4.3c0.9,2.1,3.9,2.5,4.6,0c0.1-0.3,0.2-0.5,0.2-0.8c6.9,3.1,14,7.4,21.4,3.8c1-0.5,1.6-1.3,1.8-2.2
		c0.6-0.7,1-1.6,0.9-2.4C255.4,521.7,240.8,525.2,231.3,526.1"/>
	<path class="st4" d="M281.4,540.4c-2.3-0.4-5-1.1-7.8-1.6c-0.3-0.4-0.7-0.8-1.2-1.1c-2-1.2-3.2-4.4-4.4-6.3
		c-1.6-2.4-3.2-4.7-5.6-6.4c-1.3-0.9-3.2,0.9-2.2,2.2c2.1,2.9,2.9,6.5,4.1,9.9c-0.4,0.1-0.7,0.4-0.8,0.9s-0.2,1.4-0.5,1.8
		c-0.7,0.9-0.2,2.4,0.8,2.9c1.6,0.8,3.3,1.2,5.1,1.7c0.5,0.2,0.9,0.3,1.4,0.4c0.4,0.1,0.7,0.2,1.1,0.3c2.7,0.9,5.3,1.9,8,2.8
		C284.2,549.7,286.4,541.3,281.4,540.4"/>
	<path class="st4" d="M186.4,530.8c0.6,1,1.7,1.4,2.8,1.1c0.4-0.1,0.9-0.4,1.2-0.6c0.3-0.2,0.7-0.4,1-0.5c0.6-0.3,1.3-0.7,1.7-1.3
		c0.5-0.6,0.9-1.2,0.9-2.1c0-0.7-0.2-1.2-0.6-1.8c-0.8-1.1-2.6-1.6-3.7-0.7c-0.1,0.1-0.3,0.2-0.5,0.3c-0.5,0.3-0.9,0.7-1.2,1.1
		c-0.4,0.5-1,1.1-1.4,1.7c0,0,0,0,0,0.1l-0.1,0.1c0,0.1-0.1,0.2-0.1,0.2c-0.1,0.1-0.1,0.2-0.1,0.4C186,529.6,186,530.3,186.4,530.8"
		/>
	<path class="st4" d="M207.3,532c0.7-0.1,1.2-0.2,1.8-0.6c0.5-0.4,0.9-0.9,1.1-1.5c0.1-0.5,0.1-1.1,0-1.6c-0.1-0.3-0.3-0.8-0.6-1.1
		c0-0.2,0-0.5,0-0.7c0-1-0.7-2-1.7-2.2c-1-0.2-1.9,0.2-2.5,1c-0.3,0.4-0.5,0.7-0.7,1.1c-0.1,0.1-0.2,0.3-0.2,0.5
		c-0.1,0.1-0.1,0.2-0.1,0.3c-0.7,1.2-0.5,2.8,0.5,3.8C205.3,531.7,206.3,532.2,207.3,532"/>
	<path class="st4" d="M222.6,511.8c1.4,1.1,3.9,0.9,4.7-0.9c0.9-1.8,1.9-3.7,2.1-5.8c0.2-1.6-2.1-2.9-3.4-1.9
		c-1.5,1.1-2.5,2.5-3.7,3.9C221,508.4,221,510.6,222.6,511.8"/>
	<path class="st4" d="M240.6,504.6c-0.2,0.6-0.5,1.1-0.7,1.7c-0.4,0.9-0.5,1.8,0,2.7c0.5,0.8,1.4,1.3,2.3,1.3s1.9-0.5,2.3-1.3
		c0.5-0.9,0.4-1.8,0-2.7c-0.2-0.6-0.5-1.1-0.7-1.7C243.3,503.4,241.2,503.4,240.6,504.6"/>
	<path class="st4" d="M260.9,512.1c0.3-1.1,0.1-2.1-0.4-3c-0.4-0.9-1.8-1.4-2.8-1.1c-0.6,0.2-1.1,0.6-1.4,1.1
		c-0.7,0.2-1.3,0.8-1.6,1.3c-0.4,0.7-0.5,1.5-0.3,2.3c0.2,0.7,0.7,1.4,1.4,1.8c1,0.6,2,0.4,3,0C259.9,514,260.7,513.1,260.9,512.1"
		/>
	<path class="st4" d="M259,494.6c1.2,0.1,2.6-0.4,3.1-1.5c0.5-1,0.6-2.3-0.3-3.1c-0.5-0.5-1.1-0.7-1.7-0.4c-0.1,0-0.3,0-0.4,0
		c-0.1,0-0.2,0-0.2,0c-1.5-0.2-2.8,0.6-3,2.2c-0.1,0.7,0.1,1.3,0.5,1.9C257.5,494.3,258.1,494.5,259,494.6"/>
	<path class="st4" d="M240.4,490.3c0.8,0.6,1.7,0.8,2.7,0.6c1.1-0.3,1.8-1.1,2.2-2.2c0.5-1.3,0.7-2.6,0.7-4c0-2.1-3-3-4-1.1
		c-0.1,0.2-0.3,0.5-0.4,0.7l-0.1,0.1l-0.1,0.1c-0.2,0.2-0.3,0.3-0.5,0.5l0,0l-0.1,0.1C238.9,486.4,238.6,488.9,240.4,490.3"/>
	<path class="st4" d="M226.1,493.6c2,0,3.5-2,3-4c-0.2-0.8-0.4-1.6-0.6-2.4c-0.6-2.4-4.2-2.4-4.8,0c-0.2,0.8-0.4,1.6-0.6,2.4
		C222.5,491.6,224,493.6,226.1,493.6"/>
	<path class="st4" d="M233.4,477.2c1-0.1,1.9-0.3,2.6-1.1c0.6-0.5,0.9-1.2,1.1-1.9c0.2-0.6,0.3-1.3,0.3-2c0-1-0.1-2.4-1-3.1
		c-0.9-0.8-2-1.1-3.1-0.6c-0.5,0.2-1,0.7-1.4,1.2c-0.4,0.4-0.7,0.9-1.1,1.3c0.2-0.2,0.4-0.5,0.5-0.7c-0.4,0.6-0.9,1-1.2,1.7
		c-0.5,1.2-0.4,2.3,0.2,3.5C230.9,476.5,232.3,477.3,233.4,477.2"/>
	<path class="st4" d="M247.4,472.2c1.6,0.7,3.4-0.2,3.9-1.9c0.1-0.2,0.1-0.4,0.2-0.5v-0.1c0-0.1,0.1-0.3,0.2-0.4
		c0.1-0.2,0.2-0.3,0.3-0.5c0.3-0.6,0.6-1.2,1.1-1.8c0.6-0.8,0.3-2-0.3-2.6c-0.7-0.7-1.8-0.8-2.6-0.3c-1.8,0.9-3.1,2.3-4,4.1
		C245.2,469.6,245.8,471.5,247.4,472.2"/>
	<path class="st4" d="M262.3,473c1.3,0.7,3,0.3,3.7-1c0.5-0.9,0.8-1.9,0.8-2.9c0.1-1.4-1.3-2.7-2.7-2.7c-0.7,0-1.4,0.3-1.9,0.8
		s-0.7,1-0.8,1.7c0,0,0,0.1-0.1,0.1c-0.1,0.1-0.1,0.2-0.2,0.3C260.5,470.4,261,472.3,262.3,473"/>
	<path class="st5" d="M214.9,503.9c0.7-19,1.1-35.2,1.1-50.7c0-1.2,0-2.5,0-3.7c5.7,0.2,11.5,0.9,17,1.5c4.7,0.6,9.6,1.1,14.4,1.4
		c0.4,0,0.8-0.1,1.1-0.4s0.5-0.7,0.4-1.1v-0.8c-0.1-1.9-0.2-3.8-0.2-5.6c0-0.3,0-0.6,0-0.9c9,1.8,17.5,3,25.8,3.9
		c-1.5,13.5-2.6,26.9-3.6,41.4c0.1-0.8,0.4,4.4,1.2,4.4c0.5,0,1.1-1.1,1.6-1.1c1-14.4,2.6-32.4,4.1-45.9c0-0.4-0.1-0.8-0.3-1.1
		c-0.3-0.3-0.6-0.5-1-0.5c-9.2-0.9-18.6-2.3-28.8-4.3c-0.4-0.1-0.9,0-1.2,0.3c-0.3,0.3-0.6,0.7-0.6,1.1c-0.1,0.9-0.1,1.8-0.1,2.8
		c0,1.6,0.1,3.3,0.2,4.9c-4.2-0.3-8.4-0.8-12.5-1.3c-6.2-0.7-12.5-1.5-18.9-1.6c-0.4,0-0.8,0.1-1.1,0.4s-0.4,0.7-0.4,1.1
		c0,1.7,0,3.5,0,5.2c0,15-0.3,30.8-1,49.1c0.5,0,1,0,1.5,0C214.2,502.4,214.9,503.1,214.9,503.9"/>
	<path class="st5" d="M178.7,552.3c0.8-0.1,1.4-0.9,1.2-1.7c-0.1-0.5-1.4-7.3-1.5-7.8c-1-6.4-1.9-12.8-2.7-19c-0.5-3.5-1-7-1.5-10.5
		c8.1-0.7,16.3-1,24.2-1.3c4.8-0.2,9.8-0.4,14.7-0.7c0.8,0,1.4-0.7,1.4-1.4c0.1-2,0.2-4,0.2-6c0,0.8-0.7,1.5-1.5,1.4
		c-0.5,0-1,0-1.5,0c0,1-0.1,2-0.1,3.1c-4.5,0.2-8.9,0.4-13.3,0.6c-0.1,0-0.3,0-0.4,0c0,0.5,0,1,0,1.5c0,0.8-0.6,1.5-1.5,1.5
		c-0.8,0-1.5-0.6-1.5-1.5c0-0.5,0-1,0-1.5c-7.4,0.3-14.9,0.6-22.5,1.3c-0.4,0-0.8,0.2-1,0.6c-0.3,0.3-0.4,0.7-0.3,1.1
		c0.6,4,1.1,8,1.7,12c0.9,6.3,1.7,12.7,2.8,19.1c0.1,0.5,1.4,7.3,1.5,7.8C177.2,551.7,177.8,552.5,178.7,552.3"/>
	<path class="st5" d="M286.3,549.9c0.1-0.5,0.2-0.9,0.3-1.4c1.9-10,4-20.6,6.6-31c0.1-0.4,0-0.8-0.2-1.2c-0.2-0.4-0.6-0.6-1-0.7
		c-5.6-0.9-11.2-2.6-16.6-4.2c-1-0.3-1.9-0.6-2.9-0.9c0.4-6.9,0.9-13.5,1.3-19.9c-0.5,0-1-0.1-1.5-0.1c-0.8-0.1-1.4-0.8-1.4-1.6
		c-0.5,7.2-1,14.7-1.5,22.6c0,0.7,0.4,1.3,1.1,1.5c1.3,0.4,2.7,0.8,4,1.2c5,1.5,10.2,3,15.4,4c-2.5,9.9-4.4,19.9-6.2,29.3
		c-0.1,0.6-0.2,1.1-0.3,1.7c-0.1,0.7,0.2,1.3,0.8,1.6c0.1,0.1,0.2,0.1,0.4,0.1h0.1c0.1,0,0.1,0,0.2,0
		C285.6,551.1,286.2,550.6,286.3,549.9"/>
	<path class="st5" d="M196.5,512.1c0.9,0,1.5-0.7,1.5-1.5c0-0.5,0-1,0-1.5c0-0.9,0-1.8,0-2.7c0-0.4,0-0.7,0-1.1c1.7,0,3.4,0,5.1,0
		c3.4,0,6.2,0,8.8,0.1c0.5,0,1,0,1.5,0c0.8,0,1.5-0.6,1.5-1.4s-0.6-1.5-1.4-1.6c-0.5,0-1,0-1.5,0c-2.6-0.1-5.5-0.1-8.9-0.1
		c-2.2,0-4.4,0-6.6,0c-0.8,0-1.5,0.7-1.5,1.5c0,0.9,0,1.7,0,2.6s0,1.9,0,2.8c0,0.5,0,1,0,1.5C195,511.4,195.6,512.1,196.5,512.1"/>
	<path class="st5" d="M236.2,464.3v-1.1c0-0.8-0.5-1.4-1.3-1.5c-3.6-0.5-7.4-0.9-11.2-1c-0.4,0-0.8,0.1-1.1,0.4
		c-0.3,0.3-0.5,0.7-0.5,1.1c0,2.2-0.2,4.4-0.4,6.6c-0.1,0.9-0.2,1.9-0.3,2.8c0,0.4,0.1,0.8,0.4,1.1s0.7,0.5,1.1,0.5
		c2.8,0,5.8,0.1,8.6,0.3c0.9,0.1,1.8,0.1,2.7,0.2h0.1c0.8,0,1.5-0.6,1.5-1.4C236,469.6,236.1,466.9,236.2,464.3 M233,470.7
		c-0.4,0-0.8,0-1.2-0.1c-2.3-0.1-4.7-0.3-7.1-0.3c0-0.4,0.1-0.8,0.1-1.1c0.2-1.8,0.4-3.6,0.4-5.4c2.7,0.1,5.4,0.4,8,0.7
		C233.1,466.5,233.1,468.6,233,470.7"/>
	<path class="st5" d="M265.4,483.6c-3.6-0.5-7.4-0.9-11.2-1c-0.4,0-0.8,0.1-1.1,0.4c-0.3,0.3-0.5,0.7-0.5,1.1c0,2.2-0.2,4.4-0.4,6.6
		c-0.1,0.9-0.2,1.9-0.3,2.8c0,0.4,0.1,0.8,0.4,1.1c0.3,0.3,0.7,0.5,1.1,0.5c2.8,0,5.8,0.1,8.6,0.3c0.9,0.1,1.8,0.1,2.7,0.2h0.1
		c0.8,0,1.5-0.6,1.5-1.4c0.1-2.7,0.2-5.4,0.3-8v-1.1C266.7,484.3,266.2,483.7,265.4,483.6 M263.5,492.5c-0.4,0-0.8,0-1.2-0.1
		c-2.3-0.1-4.7-0.3-7.1-0.3c0-0.4,0.1-0.8,0.1-1.1c0.2-1.8,0.4-3.6,0.4-5.4c2.7,0.1,5.4,0.4,8,0.7
		C263.6,488.4,263.6,490.5,263.5,492.5"/>
	<path class="st5" d="M252.9,464.5c0.1-0.8-0.5-1.5-1.2-1.6c-3-0.5-6.6-1.1-10.1-1c-0.8,0-1.4,0.7-1.5,1.5c0,0.4,0,0.7,0,1.1
		c0,1.3,0,2.7,0.1,4c0,1.3,0.1,2.6,0.1,3.9v0.6c0,0.8,0.6,1.5,1.4,1.5c1.5,0.1,3.1,0.3,4.5,0.4c1.4,0.2,2.9,0.3,4.3,0.4h0.1
		c0.8,0,1.4-0.6,1.5-1.4C252.4,470.5,252.7,467.1,252.9,464.5 M249.2,472.3c-0.9-0.1-1.8-0.2-2.7-0.3c-1.1-0.1-2.2-0.2-3.3-0.3
		c0-1.1,0-2.2-0.1-3.2c0-1.2-0.1-2.3-0.1-3.5c2.3,0,4.6,0.4,6.7,0.7C249.7,467.6,249.5,469.9,249.2,472.3"/>
	<path class="st5" d="M268.1,465.1c-0.6-0.1-1.2-0.3-1.8-0.5c-2.6-0.7-5.3-1.4-8.1-1.3c-0.8,0-1.4,0.7-1.5,1.5
		c0,1.7-0.1,3.3-0.1,4.9c-0.1,1.7-0.1,3.5-0.1,5.2c0,0.8,0.6,1.4,1.3,1.5c1.1,0.1,2.3,0.3,3.4,0.4c1.9,0.3,3.9,0.5,5.9,0.6
		c0,0,0,0,0.1,0c0.8,0,1.4-0.6,1.5-1.4c0.1-1.3,0.1-2.6,0.1-3.9c0-1.9,0.1-3.7,0.3-5.5C269.4,466,268.9,465.3,268.1,465.1
		 M266,472.2c0,0.7,0,1.5-0.1,2.3c-1.4-0.1-2.8-0.3-4.2-0.5c-0.7-0.1-1.5-0.2-2.2-0.3c0-1.3,0.1-2.5,0.1-3.8c0-1.1,0.1-2.3,0.1-3.5
		c1.9,0.1,3.8,0.6,5.8,1.2c0.2,0,0.4,0.1,0.6,0.1C266,469.3,266,470.7,266,472.2"/>
	<path class="st5" d="M196.4,528.3c-0.3-1.9-0.7-3.6-0.8-5.4c-0.1-0.8-0.7-1.4-1.4-1.4c-0.6,0-1.2-0.1-1.8-0.1
		c-2.5-0.1-5.1-0.3-7.7,0.2c-0.2,0-0.3,0.1-0.5,0.1c-0.8,0.2-1.3,0.9-1.1,1.7c0.3,1.6,0.6,3.2,0.8,4.9c0.3,1.7,0.6,3.4,0.9,5.1
		c0.1,0.7,0.8,1.2,1.5,1.2h0.1c1.1-0.1,2.3-0.2,3.5-0.3c1.9-0.1,4-0.2,5.9-0.6c0.8-0.1,1.4-0.9,1.3-1.7
		C196.9,530.9,196.7,529.6,196.4,528.3 M189.7,531.4c-0.7,0-1.5,0.1-2.2,0.1c-0.2-1.2-0.4-2.5-0.6-3.7c-0.2-1.1-0.4-2.3-0.6-3.4
		c1.9-0.2,3.9-0.1,6,0c0.2,0,0.4,0,0.6,0c0.2,1.5,0.4,3,0.7,4.4c0.1,0.7,0.3,1.5,0.4,2.2C192.5,531.2,191.1,531.3,189.7,531.4"/>
	<path class="st5" d="M230.3,500.5c-3.6-0.5-7.4-0.9-11.2-1c-0.4,0-0.8,0.1-1.1,0.4s-0.5,0.7-0.5,1.1c0,2.2-0.2,4.4-0.4,6.6
		c-0.1,0.9-0.2,1.9-0.3,2.8c0,0.4,0.1,0.8,0.4,1.1c0.3,0.3,0.7,0.5,1.1,0.5c2.8,0,5.8,0.1,8.6,0.3c0.9,0.1,1.8,0.1,2.7,0.2h0.1
		c0.8,0,1.5-0.6,1.5-1.4c0.1-2.7,0.2-5.4,0.3-8V502C231.6,501.2,231.1,500.6,230.3,500.5 M228.4,509.5c-0.4,0-0.8,0-1.2-0.1
		c-2.3-0.1-4.7-0.3-7.1-0.3c0-0.4,0.1-0.8,0.1-1.1c0.2-1.8,0.4-3.6,0.4-5.4c2.7,0.1,5.4,0.4,8,0.7
		C228.5,505.3,228.5,507.4,228.4,509.5"/>
	<path class="st5" d="M215.1,522.2c0-0.8-0.6-1.4-1.4-1.4c-3.7-0.2-7.4-0.3-11.2-0.1c-0.4,0-0.8,0.2-1.1,0.5
		c-0.3,0.3-0.4,0.7-0.4,1.1c0.2,2.2,0.1,4.4,0.1,6.7c0,0.9,0,1.9,0,2.8c0,0.4,0.2,0.8,0.5,1.1c0.3,0.3,0.6,0.4,1,0.4h0.1
		c0.3,0,0.5,0,0.8-0.1c2.6-0.2,5.2-0.3,7.8-0.3c0.9,0,1.8,0,2.7-0.1c0.8,0,1.5-0.7,1.5-1.5c-0.1-2.7-0.2-5.4-0.4-8V522.2z
		 M211.3,529.9c-2.3,0-4.8,0.1-7.1,0.3c0-0.4,0-0.8,0-1.2c0-1.8,0.1-3.6,0-5.4c2.7-0.1,5.4-0.1,8,0.1c0.1,2,0.2,4.1,0.3,6.2
		C212.1,529.9,211.7,529.9,211.3,529.9"/>
	<path class="st5" d="M247.1,501.7c-3-0.5-6.6-1.1-10.1-1c-0.8,0-1.4,0.7-1.5,1.5c0,0.4,0,0.7,0,1.1c0,1.3,0,2.7,0.1,4
		c0,1.3,0.1,2.6,0.1,3.9v0.6c0,0.8,0.6,1.5,1.4,1.5c1.5,0.1,3.1,0.3,4.5,0.4c1.4,0.2,2.9,0.3,4.3,0.4h0.1c0.8,0,1.4-0.6,1.5-1.4
		c0.3-3.5,0.6-6.9,0.8-9.5C248.4,502.5,247.9,501.9,247.1,501.7 M244.7,511.1c-0.9-0.1-1.8-0.2-2.7-0.3c-1.1-0.1-2.2-0.2-3.3-0.3
		c0-1.1,0-2.2-0.1-3.2c0-1.2-0.1-2.3-0.1-3.5c2.3,0,4.6,0.4,6.7,0.7C245.1,506.4,244.9,508.7,244.7,511.1"/>
	<path class="st5" d="M263.6,504c-0.6-0.1-1.2-0.3-1.8-0.5c-2.6-0.7-5.3-1.4-8.1-1.3c-0.8,0-1.4,0.7-1.5,1.5c0,1.6-0.1,3.3-0.1,4.9
		c-0.1,1.7-0.1,3.5-0.1,5.2c0,0.8,0.6,1.4,1.3,1.5c1.1,0.1,2.3,0.3,3.4,0.4c1.9,0.3,3.9,0.5,5.9,0.6c0,0,0,0,0.1,0
		c0.8,0,1.4-0.6,1.5-1.4c0.1-1.3,0.1-2.6,0.1-3.9c0-1.9,0.1-3.7,0.3-5.5C264.8,504.9,264.3,504.1,263.6,504 M261.4,511
		c0,0.7,0,1.5-0.1,2.3c-1.4-0.1-2.8-0.3-4.2-0.5c-0.7-0.1-1.5-0.2-2.2-0.3c0-1.3,0.1-2.5,0.1-3.8c0-1.1,0.1-2.3,0.1-3.5
		c1.9,0.1,3.8,0.6,5.8,1.2c0.2,0,0.4,0.1,0.6,0.1C261.4,508.1,261.4,509.6,261.4,511"/>
	<path class="st5" d="M248.6,482.8c-0.6-0.1-1.2-0.3-1.8-0.5c-2.6-0.7-5.3-1.4-8.1-1.3c-0.8,0-1.4,0.7-1.5,1.5
		c0,1.7-0.1,3.3-0.1,4.9c-0.1,1.7-0.1,3.4-0.1,5.2c0,0.8,0.6,1.4,1.3,1.5c1.1,0.1,2.3,0.3,3.4,0.4c1.9,0.3,3.9,0.5,5.9,0.6
		c0,0,0,0,0.1,0c0.8,0,1.4-0.6,1.5-1.4c0.1-1.3,0.1-2.6,0.1-3.9c0-1.9,0.1-3.7,0.3-5.5C249.8,483.7,249.4,483,248.6,482.8
		 M246.4,489.9c0,0.7,0,1.5-0.1,2.3c-1.4-0.1-2.8-0.3-4.2-0.5c-0.7-0.1-1.4-0.2-2.2-0.3c0-1.3,0.1-2.5,0.1-3.8
		c0-1.2,0.1-2.3,0.1-3.5c1.9,0.1,3.8,0.6,5.8,1.2c0.2,0,0.4,0.1,0.6,0.1C246.5,486.9,246.5,488.4,246.4,489.9"/>
	<path class="st5" d="M232.5,479.8l-1.5-0.1c-2.9-0.2-5.9-0.4-8.8-0.4h-0.4c-0.8,0-1.5,0.7-1.5,1.5c0,3.4,0,7-0.3,10.6
		c0,0.8,0.6,1.5,1.4,1.6c2,0.1,4,0.3,5.9,0.5c1.5,0.2,3.1,0.3,4.6,0.4h0.1c0.4,0,0.7-0.1,1-0.4s0.5-0.7,0.5-1.1l0.1-1.6
		c0.1-3.2,0.3-6.4,0.3-9.6C233.9,480.5,233.3,479.8,232.5,479.8 M230.6,490.8L230.6,490.8c-1,0-2-0.1-3-0.2c-1.5-0.2-3-0.3-4.6-0.4
		c0.1-2.6,0.2-5.3,0.2-7.8c2.5,0,5.1,0.2,7.6,0.4h0.1C230.8,485.4,230.7,488.1,230.6,490.8"/>
	<path class="st5" d="M260.5,543.6c0-0.5,0.1-0.9,0.1-1.4c0.4-5.3,0.9-11.4,1.7-17.6c0.1-0.4-0.1-0.8-0.3-1.2
		c-0.3-0.3-0.7-0.5-1.1-0.5c-6.8-0.4-27.9-3-34.3-3.8c-0.4-0.1-0.9,0.1-1.2,0.4c-0.3,0.3-0.5,0.7-0.5,1.2c0,0.7,0,1.5,0,2.2
		c0,3.9-0.4,7.8-0.7,11.6c-0.1,1.5-0.3,3-0.4,4.4c0,0.5-0.1,0.9-0.1,1.4c-0.1,0.8,0.6,1.5,1.4,1.6c0.8,0.1,1.5-0.6,1.6-1.4
		c0-0.5,0.1-1,0.1-1.6c0.1-1.4,0.2-2.8,0.4-4.2c0.3-3.9,0.7-7.9,0.7-11.9c0-0.2,0-0.4,0-0.6c7.2,0.9,23.7,2.9,31.1,3.5
		c-0.7,5.6-1.2,11-1.5,15.9c0,0.6-0.1,1.1-0.1,1.7c-0.1,0.7,0.4,1.4,1.1,1.5c0.1,0,0.2,0,0.3,0.1c0.1,0,0.1,0,0.1,0
		C259.7,545,260.4,544.3,260.5,543.6"/>
	<path class="st3" d="M125.6,563.4c-0.2-0.1-0.5-0.1-0.6,0.1c-0.5,0-0.9,0.1-1.3,0.1c-3.1,0.2-4.4,3.3-3.4,5.5v0.1
		c0.5,1.5,1.1,2.9,1.7,4.3c0.9,2.1,3.9,2.5,4.6,0c0.1-0.3,0.2-0.5,0.2-0.8c6.9,3.1,14,7.4,21.4,3.8c1-0.5,1.6-1.3,1.8-2.2
		c0.6-0.7,1-1.6,0.9-2.4C149.7,558.9,135.1,562.4,125.6,563.4"/>
	<path class="st4" d="M175.7,577.7c-2.3-0.4-5-1.1-7.8-1.6c-0.3-0.4-0.7-0.8-1.2-1.1c-2-1.2-3.2-4.4-4.4-6.3
		c-1.6-2.4-3.2-4.7-5.6-6.4c-1.3-0.9-3.2,0.9-2.2,2.2c2.1,2.9,2.9,6.5,4.1,9.9c-0.4,0.1-0.7,0.4-0.8,0.9c-0.1,0.5-0.2,1.4-0.5,1.8
		c-0.7,0.9-0.2,2.4,0.8,2.9c1.6,0.8,3.3,1.2,5.1,1.7c0.5,0.2,0.9,0.3,1.4,0.4c0.4,0.1,0.7,0.2,1.1,0.3c2.7,0.9,5.3,1.9,8,2.8
		C178.5,586.9,180.7,578.5,175.7,577.7"/>
	<path class="st4" d="M80.7,570.6c0.6,1,1.7,1.4,2.8,1.1c0.4-0.1,0.9-0.4,1.2-0.6c0.3-0.2,0.6-0.3,1-0.5c0.6-0.3,1.3-0.7,1.7-1.3
		c0.5-0.6,0.9-1.2,0.9-2.1c0-0.7-0.2-1.2-0.6-1.8c-0.8-1.1-2.6-1.6-3.7-0.7c-0.1,0.1-0.3,0.2-0.5,0.3c-0.5,0.3-0.9,0.7-1.2,1.1
		c-0.4,0.5-1,1.1-1.4,1.7c0,0,0,0,0,0.1l-0.1,0.1c0,0.1-0.1,0.2-0.1,0.2c-0.1,0.1-0.1,0.2-0.1,0.4C80.3,569.3,80.3,570,80.7,570.6"
		/>
	<path class="st4" d="M101.6,569.3c0.7-0.1,1.2-0.2,1.8-0.6c0.5-0.4,0.9-0.9,1.1-1.5c0.1-0.5,0.1-1.1,0-1.6
		c-0.1-0.3-0.3-0.8-0.6-1.1c0-0.2,0-0.5,0-0.7c0-1-0.7-2-1.7-2.2s-1.9,0.2-2.5,1c-0.3,0.4-0.5,0.7-0.7,1.1c-0.1,0.1-0.2,0.3-0.2,0.5
		c-0.1,0.1-0.1,0.2-0.1,0.3c-0.7,1.2-0.5,2.8,0.5,3.8C99.6,568.9,100.7,569.4,101.6,569.3"/>
	<path class="st4" d="M116.9,549c1.4,1.1,3.9,0.9,4.7-0.9c0.9-1.8,1.9-3.7,2.1-5.8c0.2-1.6-2.1-2.9-3.4-1.9
		c-1.5,1.1-2.5,2.5-3.7,3.9C115.3,545.6,115.3,547.8,116.9,549"/>
	<path class="st4" d="M135,541.9c-0.2,0.6-0.5,1.1-0.7,1.7c-0.4,0.9-0.5,1.8,0,2.7c0.5,0.8,1.4,1.3,2.3,1.3s1.9-0.5,2.3-1.3
		c0.5-0.9,0.4-1.8,0-2.7c-0.2-0.6-0.5-1.1-0.7-1.7C137.7,540.6,135.5,540.6,135,541.9"/>
	<path class="st4" d="M155.3,549.3c0.3-1.1,0.1-2.1-0.4-3c-0.4-0.9-1.8-1.4-2.8-1.1c-0.6,0.2-1.1,0.6-1.4,1.1
		c-0.7,0.2-1.3,0.8-1.6,1.3c-0.4,0.7-0.5,1.5-0.3,2.3c0.2,0.7,0.7,1.4,1.4,1.8c1,0.6,2,0.4,3,0C154.2,551.3,155,550.3,155.3,549.3"
		/>
	<path class="st4" d="M153.3,531.8c1.2,0.1,2.6-0.4,3.1-1.5c0.5-1,0.6-2.3-0.3-3.1c-0.5-0.5-1.1-0.7-1.7-0.4c-0.1,0-0.3,0-0.4,0
		s-0.2,0-0.2,0c-1.5-0.2-2.8,0.6-3,2.2c-0.1,0.7,0.1,1.3,0.5,1.9C151.8,531.5,152.4,531.7,153.3,531.8"/>
	<path class="st4" d="M134.7,527.5c0.8,0.6,1.7,0.8,2.7,0.6c1.1-0.3,1.8-1.1,2.2-2.2c0.5-1.3,0.7-2.6,0.7-4c0-2.1-3-3-4-1.1
		c-0.1,0.2-0.3,0.5-0.4,0.7l-0.1,0.1l-0.1,0.1c-0.2,0.2-0.3,0.3-0.5,0.5l0,0l-0.1,0.1C133.2,523.6,132.9,526.1,134.7,527.5"/>
	<path class="st4" d="M120.4,530.8c2,0,3.5-2,3-4c-0.2-0.8-0.4-1.6-0.6-2.4c-0.6-2.4-4.2-2.4-4.8,0c-0.2,0.8-0.4,1.6-0.6,2.4
		C116.9,528.8,118.3,530.8,120.4,530.8"/>
	<path class="st4" d="M127.7,514.4c1-0.1,1.9-0.3,2.6-1.1c0.6-0.5,0.9-1.2,1.1-1.9c0.2-0.6,0.3-1.3,0.3-2c0-1-0.1-2.4-1-3.1
		c-0.9-0.8-2-1.1-3.1-0.6c-0.5,0.2-1,0.7-1.4,1.2c-0.4,0.4-0.7,0.9-1.1,1.3c0.2-0.2,0.4-0.5,0.5-0.7c-0.4,0.6-0.9,1-1.2,1.7
		c-0.5,1.2-0.4,2.3,0.2,3.5C125.2,513.7,126.6,514.5,127.7,514.4"/>
	<path class="st4" d="M141.7,509.4c1.6,0.7,3.4-0.2,3.9-1.9c0.1-0.2,0.1-0.4,0.2-0.5v-0.1c0-0.1,0.1-0.3,0.2-0.4
		c0.1-0.2,0.2-0.3,0.3-0.5c0.3-0.6,0.6-1.2,1.1-1.8c0.6-0.8,0.3-2-0.3-2.6c-0.7-0.7-1.8-0.8-2.6-0.3c-1.8,0.9-3.1,2.3-4,4.1
		C139.5,506.8,140.1,508.7,141.7,509.4"/>
	<path class="st4" d="M156.6,510.2c1.3,0.7,3,0.3,3.7-1c0.5-0.9,0.8-1.9,0.8-2.9c0.1-1.4-1.3-2.7-2.7-2.7c-0.7,0-1.4,0.3-1.9,0.8
		s-0.7,1-0.8,1.7c0,0,0,0.1-0.1,0.1c-0.1,0.1-0.1,0.2-0.2,0.3C154.9,507.6,155.4,509.5,156.6,510.2"/>
	<path class="st5" d="M109.2,541.1c0.7-19,1.1-35.2,1.1-50.7c0-1.2,0-2.5,0-3.7c5.7,0.2,11.5,0.9,17,1.5c4.7,0.6,9.6,1.1,14.4,1.4
		c0.4,0,0.8-0.1,1.1-0.4c0.3-0.3,0.5-0.7,0.4-1.1v-0.8c-0.1-1.9-0.2-3.8-0.2-5.6c0-0.3,0-0.6,0-0.9c9,1.8,17.5,3,25.8,3.9
		c-1.5,13.5-2.8,30.7-3.9,45.1c0.1-0.8,1.9,0.5,2.8,0.6c0.5,0,0.7-6.2,0.6-5.7c1.1-14.9,2.1-27.7,3.6-41.2c0-0.4-0.1-0.8-0.3-1.1
		c-0.3-0.3-0.6-0.5-1-0.5c-9.2-0.9-18.6-2.3-28.8-4.3c-0.4-0.1-0.9,0-1.2,0.3s-0.6,0.7-0.6,1.1c-0.1,0.9-0.1,1.8-0.1,2.8
		c0,1.6,0.1,3.3,0.2,4.9c-4.2-0.3-8.4-0.8-12.5-1.3c-6.2-0.7-12.5-1.5-18.9-1.6c-0.4,0-0.8,0.1-1.1,0.4c-0.3,0.3-0.4,0.7-0.4,1.1
		c0,1.7,0,3.5,0,5.2c0,15-0.3,30.8-1,49.1c0.5,0,1,0,1.5,0C108.6,539.6,109.2,540.3,109.2,541.1"/>
	<path class="st5" d="M71.8,583.2c0.8-0.1,1.4-0.9,1.2-1.7c-0.1-0.5-0.2-1-0.2-1.5c-1-6.4-1.9-12.8-2.7-19c-0.5-3.5-1-7-1.5-10.5
		c8.1-0.7,16.3-1,24.2-1.3c4.8-0.2,9.8-0.4,14.7-0.7c0.8,0,1.4-0.7,1.4-1.4c0.1-2,0.2-4,0.2-6c0,0.8-0.7,1.5-1.5,1.4
		c-0.5,0-1,0-1.5,0c0,1-0.1,2-0.1,3.1c-4.5,0.2-8.9,0.4-13.3,0.6c-0.1,0-0.3,0-0.4,0c0,0.5,0,1,0,1.5c0,0.8-0.6,1.5-1.5,1.5
		c-0.8,0-1.5-0.6-1.5-1.5c0-0.5,0-1,0-1.5c-7.4,0.3-14.9,0.6-22.5,1.3c-0.4,0-0.8,0.2-1,0.6c-0.3,0.3-0.4,0.7-0.3,1.1
		c0.6,4,1.1,8,1.7,12c0.9,6.3,1.7,12.7,2.8,19.1c0.1,0.5,0.1,1,0.2,1.5C70.2,582.8,71,583.3,71.8,583.2"/>
	<path class="st5" d="M180.7,587.1c0.1-0.5,0.2-0.9,0.3-1.4c1.9-10,4-20.6,6.6-31c0.1-0.4,0-0.8-0.2-1.2c-0.2-0.4-0.6-0.6-1-0.7
		c-5.6-0.9-11.2-2.6-16.6-4.2c-1-0.3-1.9-0.6-2.9-0.9c0.4-6.9,0.9-13.5,1.3-19.9c-0.5,0-1-0.1-1.5-0.1c-0.8-0.1-1.4-0.8-1.4-1.6
		c-0.5,7.2-1,14.7-1.5,22.6c0,0.7,0.4,1.3,1.1,1.5c1.3,0.4,2.7,0.8,4,1.2c5,1.5,10.2,3,15.4,4c-2.5,9.9-4.4,19.9-6.2,29.3
		c-0.1,0.6-0.2,1.1-0.3,1.7c-0.1,0.7,0.2,1.3,0.8,1.6c0.1,0.1,0.2,0.1,0.4,0.1h0.1c0.1,0,0.1,0,0.2,0
		C179.9,588.3,180.5,587.8,180.7,587.1"/>
	<path class="st5" d="M90.8,549.3c0.9,0,1.5-0.7,1.5-1.5c0-0.5,0-1,0-1.5c0-0.9,0-1.8,0-2.7c0-0.4,0-0.7,0-1.1c1.7,0,3.4,0,5.1,0
		c3.4,0,6.2,0,8.8,0.1c0.5,0,1,0,1.5,0c0.8,0,1.5-0.6,1.5-1.4c0-0.8-0.6-1.5-1.4-1.6c-0.5,0-1,0-1.5,0c-2.7-0.1-5.5-0.1-8.9-0.1
		c-2.2,0-4.4,0-6.6,0c-0.8,0-1.5,0.7-1.5,1.5c0,0.9,0,1.7,0,2.6s0,1.9,0,2.8c0,0.5,0,1,0,1.5C89.3,548.6,90,549.3,90.8,549.3"/>
	<path class="st5" d="M130.5,501.5v-1.1c0-0.8-0.5-1.4-1.3-1.5c-3.6-0.5-7.4-0.9-11.2-1c-0.4,0-0.8,0.1-1.1,0.4
		c-0.3,0.3-0.5,0.7-0.5,1.1c0,2.2-0.2,4.4-0.4,6.6c-0.1,0.9-0.2,1.9-0.3,2.8c0,0.4,0.1,0.8,0.4,1.1c0.3,0.3,0.7,0.5,1.1,0.5
		c2.8,0,5.8,0.1,8.6,0.3c0.9,0.1,1.8,0.1,2.7,0.2h0.1c0.8,0,1.5-0.6,1.5-1.4C130.4,506.9,130.4,504.1,130.5,501.5 M127.3,507.9
		c-0.4,0-0.8,0-1.2-0.1c-2.3-0.1-4.7-0.3-7.1-0.3c0-0.4,0.1-0.8,0.1-1.1c0.2-1.8,0.4-3.6,0.4-5.4c2.7,0.1,5.4,0.4,8,0.7
		C127.4,503.7,127.4,505.8,127.3,507.9"/>
	<path class="st5" d="M159.8,520.8c-3.6-0.5-7.4-0.9-11.2-1c-0.4,0-0.8,0.1-1.1,0.4c-0.3,0.3-0.5,0.7-0.5,1.1c0,2.2-0.2,4.4-0.4,6.6
		c-0.1,0.9-0.2,1.9-0.3,2.8c0,0.4,0.1,0.8,0.4,1.1s0.7,0.5,1.1,0.5c2.8,0,5.8,0.1,8.6,0.3c0.9,0.1,1.8,0.1,2.7,0.2h0.1
		c0.8,0,1.5-0.6,1.5-1.4c0.1-2.7,0.2-5.4,0.3-8v-1.1C161.1,521.5,160.5,520.9,159.8,520.8 M157.8,529.8c-0.4,0-0.8,0-1.2-0.1
		c-2.3-0.1-4.7-0.3-7.1-0.3c0-0.4,0.1-0.8,0.1-1.1c0.2-1.8,0.4-3.6,0.4-5.4c2.7,0.1,5.4,0.4,8,0.7
		C158,525.6,157.9,527.7,157.8,529.8"/>
	<path class="st5" d="M147.2,501.7c0.1-0.8-0.5-1.5-1.2-1.6c-3-0.5-6.6-1.1-10.1-1c-0.8,0-1.4,0.7-1.5,1.5c0,0.4,0,0.7,0,1.1
		c0,1.3,0,2.7,0.1,4c0,1.3,0.1,2.6,0.1,3.9v0.6c0,0.8,0.6,1.5,1.4,1.5c1.5,0.1,3.1,0.3,4.5,0.4c1.4,0.2,2.9,0.3,4.3,0.4h0.1
		c0.8,0,1.4-0.6,1.5-1.4C146.8,507.7,147,504.3,147.2,501.7 M143.6,509.5c-0.9-0.1-1.8-0.2-2.7-0.3c-1.1-0.1-2.2-0.2-3.3-0.3
		c0-1.1,0-2.2-0.1-3.2c0-1.2-0.1-2.3-0.1-3.5c2.3,0,4.6,0.4,6.7,0.7C144,504.8,143.8,507.1,143.6,509.5"/>
	<path class="st5" d="M162.4,502.4c-0.6-0.1-1.2-0.3-1.8-0.5c-2.6-0.7-5.3-1.4-8.1-1.3c-0.8,0-1.4,0.7-1.5,1.5
		c0,1.6-0.1,3.3-0.1,4.9c-0.1,1.7-0.1,3.5-0.1,5.2c0,0.8,0.6,1.4,1.3,1.5c1.1,0.1,2.3,0.3,3.4,0.4c1.9,0.3,3.9,0.5,5.9,0.6
		c0,0,0,0,0.1,0c0.8,0,1.4-0.6,1.5-1.4c0.1-1.3,0.1-2.6,0.1-3.9c0-1.9,0.1-3.7,0.3-5.5C163.7,503.3,163.2,502.5,162.4,502.4
		 M160.3,509.4c0,0.7,0,1.5-0.1,2.3c-1.4-0.1-2.8-0.3-4.2-0.5c-0.7-0.1-1.5-0.2-2.2-0.3c0-1.3,0.1-2.5,0.1-3.8
		c0-1.1,0.1-2.3,0.1-3.5c1.9,0.1,3.8,0.6,5.8,1.2c0.2,0,0.4,0.1,0.6,0.1C160.3,506.5,160.3,508,160.3,509.4"/>
	<path class="st5" d="M90.8,568c-0.3-1.9-0.7-3.6-0.8-5.4c-0.1-0.8-0.7-1.4-1.4-1.4c-0.6,0-1.2-0.1-1.8-0.1
		c-2.5-0.1-5.1-0.3-7.7,0.2c-0.2,0-0.3,0.1-0.5,0.1c-0.8,0.2-1.3,0.9-1.1,1.7c0.3,1.6,0.6,3.2,0.8,4.9c0.3,1.7,0.6,3.4,0.9,5.1
		c0.1,0.7,0.8,1.2,1.5,1.2h0.1c1.1-0.1,2.3-0.2,3.5-0.3c1.9-0.1,4-0.2,5.9-0.6c0.8-0.1,1.4-0.9,1.3-1.7
		C91.2,570.6,91,569.3,90.8,568 M84,571.1c-0.7,0-1.5,0.1-2.2,0.1c-0.2-1.2-0.4-2.5-0.6-3.7c-0.2-1.1-0.4-2.3-0.6-3.4
		c1.9-0.2,3.9-0.1,6,0c0.2,0,0.4,0,0.6,0c0.2,1.5,0.4,3,0.7,4.4c0.1,0.7,0.3,1.5,0.4,2.2C86.8,571,85.4,571,84,571.1"/>
	<path class="st5" d="M124.7,537.7c-3.6-0.5-7.4-0.9-11.2-1c-0.4,0-0.8,0.1-1.1,0.4c-0.3,0.3-0.5,0.7-0.5,1.1c0,2.2-0.2,4.4-0.4,6.6
		c-0.1,0.9-0.2,1.9-0.3,2.8c0,0.4,0.1,0.8,0.4,1.1s0.7,0.5,1.1,0.5c2.8,0,5.8,0.1,8.6,0.3c0.9,0.1,1.8,0.1,2.7,0.2h0.1
		c0.8,0,1.5-0.6,1.5-1.4c0.1-2.7,0.2-5.4,0.3-8v-1.1C126,538.5,125.4,537.8,124.7,537.7 M122.7,546.7c-0.4,0-0.8,0-1.2-0.1
		c-2.3-0.1-4.7-0.3-7.1-0.3c0-0.4,0.1-0.8,0.1-1.1c0.2-1.8,0.4-3.6,0.4-5.4c2.7,0.1,5.4,0.4,8,0.7
		C122.9,542.5,122.8,544.6,122.7,546.7"/>
	<path class="st5" d="M109.4,559.4c0-0.8-0.6-1.4-1.4-1.4c-3.7-0.2-7.4-0.3-11.2-0.1c-0.4,0-0.8,0.2-1,0.5c-0.3,0.3-0.4,0.7-0.4,1.1
		c0.2,2.2,0.1,4.4,0.1,6.7c0,0.9,0,1.9,0,2.8c0,0.4,0.2,0.8,0.5,1.1s0.6,0.4,1,0.4h0.1c0.3,0,0.5,0,0.8-0.1c2.6-0.2,5.2-0.3,7.8-0.3
		c0.9,0,1.8,0,2.7-0.1c0.8,0,1.5-0.7,1.5-1.5c-0.1-2.7-0.2-5.4-0.4-8L109.4,559.4z M105.6,567.1c-2.3,0-4.8,0.1-7.1,0.3
		c0-0.4,0-0.8,0-1.2c0-1.8,0.1-3.6,0-5.4c2.7-0.1,5.4-0.1,8,0.1c0.1,2,0.2,4.1,0.3,6.2C106.4,567.1,106,567.1,105.6,567.1"/>
	<path class="st5" d="M141.4,538.9c-3-0.5-6.6-1.1-10.1-1c-0.8,0-1.4,0.7-1.5,1.5c0,0.4,0,0.7,0,1.1c0,1.3,0,2.7,0.1,4
		c0,1.3,0.1,2.6,0.1,3.9v0.6c0,0.8,0.6,1.5,1.4,1.5c1.5,0.1,3.1,0.3,4.5,0.4c1.4,0.2,2.9,0.3,4.3,0.4h0.1c0.8,0,1.4-0.6,1.5-1.4
		c0.3-3.5,0.6-6.9,0.8-9.5C142.7,539.8,142.2,539.1,141.4,538.9 M139,548.3c-0.9-0.1-1.8-0.2-2.7-0.3c-1.1-0.1-2.2-0.2-3.3-0.3
		c0-1.1,0-2.2-0.1-3.2c0-1.2-0.1-2.3-0.1-3.5c2.3,0,4.6,0.4,6.7,0.7C139.4,543.6,139.2,545.9,139,548.3"/>
	<path class="st5" d="M157.9,541.2c-0.6-0.1-1.2-0.3-1.8-0.5c-2.6-0.7-5.3-1.4-8.1-1.3c-0.8,0-1.4,0.7-1.5,1.5
		c0,1.7-0.1,3.3-0.1,4.9c-0.1,1.7-0.1,3.5-0.1,5.2c0,0.8,0.6,1.4,1.3,1.5c1.1,0.1,2.3,0.3,3.4,0.4c1.9,0.3,3.9,0.5,5.9,0.6
		c0,0,0,0,0.1,0c0.8,0,1.4-0.6,1.5-1.4c0.1-1.3,0.1-2.6,0.1-3.9c0-1.9,0.1-3.7,0.3-5.5C159.1,542.1,158.6,541.4,157.9,541.2
		 M155.7,548.2c0,0.7,0,1.5-0.1,2.3c-1.4-0.1-2.8-0.3-4.2-0.5c-0.7-0.1-1.5-0.2-2.2-0.3c0-1.3,0.1-2.5,0.1-3.8
		c0-1.1,0.1-2.3,0.1-3.5c1.9,0.1,3.8,0.6,5.8,1.2c0.2,0,0.4,0.1,0.6,0.1C155.8,545.3,155.7,546.8,155.7,548.2"/>
	<path class="st5" d="M142.9,520c-0.6-0.1-1.2-0.3-1.8-0.5c-2.6-0.7-5.3-1.4-8.1-1.3c-0.8,0-1.4,0.7-1.5,1.5c0,1.7-0.1,3.3-0.1,4.9
		c-0.1,1.7-0.1,3.4-0.1,5.2c0,0.8,0.6,1.4,1.3,1.5c1.1,0.1,2.3,0.3,3.4,0.4c1.9,0.3,3.9,0.5,5.9,0.6c0,0,0,0,0.1,0
		c0.8,0,1.4-0.6,1.5-1.4c0.1-1.3,0.1-2.6,0.1-3.9c0-1.9,0.1-3.7,0.3-5.5C144.2,520.9,143.7,520.2,142.9,520 M140.8,527.1
		c0,0.7,0,1.5-0.1,2.3c-1.4-0.1-2.8-0.3-4.2-0.5c-0.7-0.1-1.5-0.2-2.2-0.3c0-1.3,0.1-2.5,0.1-3.8c0-1.2,0.1-2.3,0.1-3.5
		c1.9,0.1,3.8,0.6,5.8,1.2c0.2,0,0.4,0.1,0.6,0.1C140.8,524.1,140.8,525.6,140.8,527.1"/>
	<path class="st5" d="M126.8,517l-1.5-0.1c-2.9-0.2-5.9-0.4-8.8-0.4h-0.4c-0.8,0-1.5,0.7-1.5,1.5c0,3.4,0,7-0.3,10.6
		c0,0.8,0.6,1.5,1.4,1.6c2,0.1,4,0.3,5.9,0.5c1.5,0.2,3.1,0.3,4.6,0.4h0.1c0.4,0,0.7-0.1,1-0.4s0.5-0.7,0.5-1.1l0.1-1.6
		c0.1-3.2,0.3-6.4,0.3-9.6C128.2,517.7,127.6,517,126.8,517 M124.9,528L124.9,528c-1,0-2-0.1-3-0.2c-1.5-0.2-3-0.3-4.6-0.4
		c0.1-2.6,0.2-5.3,0.2-7.8c2.5,0,5.1,0.2,7.6,0.4h0.1C125.2,522.6,125,525.3,124.9,528"/>
	<path class="st5" d="M154.8,580.8c0-0.5,0.1-0.9,0.1-1.4c0.4-5.3,0.9-11.4,1.7-17.6c0.1-0.4-0.1-0.8-0.3-1.2
		c-0.3-0.3-0.7-0.5-1.1-0.5c-6.8-0.4-27.9-3-34.3-3.8c-0.4-0.1-0.9,0.1-1.2,0.4c-0.3,0.3-0.5,0.7-0.5,1.2c0,0.7,0,1.5,0,2.2
		c0,3.9-0.4,7.8-0.7,11.6c-0.1,1.5-0.3,3-0.4,4.4c0,0.5-0.1,0.9-0.1,1.4c-0.1,0.8,0.6,1.5,1.4,1.6s1.5-0.6,1.6-1.4
		c0-0.5,0.1-1,0.1-1.6c0.1-1.4,0.2-2.8,0.4-4.2c0.3-3.9,0.7-7.9,0.7-11.9c0-0.2,0-0.4,0-0.6c7.2,0.9,23.7,2.9,31.1,3.5
		c-0.7,5.6-1.2,11-1.5,15.9c0,0.6-0.1,1.1-0.1,1.7c-0.1,0.7,0.4,1.3,1.1,1.5c0.1,0,0.2,0,0.3,0.1c0.1,0,0.1,0,0.1,0
		C154.1,582.2,154.7,581.6,154.8,580.8"/>
	<path class="st4" d="M343.1,350.3c-0.3-1.4-1.6-2.7-3-3c-4.4-1.1-7.4,2.8-10.4,5.4c-4.1,3.5-8.3,7-12.4,10.6
		c-1.5-0.6-3.6,0-4.1,1.9c-1.4,5.6-1.9,11.6-2.1,17.7c-0.1,0-0.1,0-0.2,0c-3.1,0.3-6.2,0.5-9.4,0.5c-0.3-0.1-0.5-0.2-0.8-0.3
		c-0.3-0.1-3.7-1.6-2.1-0.1c-1.4-1.4-3.6-1.6-5.6-0.7h-0.1c-0.5,0.2-0.9,0.6-1.3,1c-3-0.1-5.9-0.2-8.8-0.2c-0.2,0-0.4,0.3-0.2,0.4
		c2.3,1.9,5.1,3.1,8.1,3.9c0.3,1.3,1,2.5,2.2,3.1c6,2.9,11.2,3.6,14.7,9.8c1,1.8,3,2.3,4.7,1.9c1.7,2.2,5.1,3.2,7.2,0.7
		c3.8-4.5,7.9-8.3,12.6-11.8c3.5-2.6,8.8-4.6,10.9-8.7c2.1-4.2,0.9-10.3,0.8-14.8C343.6,362,344.4,355.6,343.1,350.3"/>
	<path class="st5" d="M343.8,344.7c-0.8,0.6-1.7,1.1-2.5,1.7l0.5,38l-26.6,17.3c0.1,1-1.7,0.8-1.7-0.1l-32.5-20
		c0.1-4.7,0.1-9.6,0.2-14.2c0.1-6.9,0.3-14.1,0.3-21.1c0-0.3,0-0.5,0-0.8l-1.8-1.2c-0.7-0.5-0.9-1.5-0.4-2.2s1.5-0.9,2.2-0.4
		l2.1,1.4l28.7-18l28.3,18c0.5-0.3,0.9-0.6,1.4-1c0.7-0.5,1.7-0.3,2.3,0.4c0.2,0.3,0.3,0.6,0.3,0.9v-0.8c0-0.5-0.3-1.1-0.7-1.3
		l-30.6-19.5c-0.5-0.3-1.2-0.3-1.7,0L279,342c-0.5,0.3-0.8,0.8-0.8,1.4c0,0.9,0,1.9,0,2.8c0,7-0.1,14.2-0.3,21.1
		c-0.1,5-0.2,10.1-0.2,15.2c0,0.6,0.3,1.1,0.7,1.4l35.5,22c0.3,0.2,0.6,0.3,0.9,0.3c0.3,0,0.6-0.1,0.9-0.3l28.7-19.2
		c0.5-0.3,0.7-0.8,0.7-1.4l-0.6-41.9C344.5,343.9,344.3,344.4,343.8,344.7"/>
	<path class="st5" d="M343,342.1c-0.5,0.3-0.9,0.6-1.4,1c-8.3,5.7-18.1,12.4-28.7,19l-28.3-19l-2.3-2.2c-0.7-0.5-2.6,0.5-3.1,1.3
		c-0.5,0.7-0.9,1.9-0.2,2.4l2.8,1.6l29.5,18.7c0-0.3,0-0.6,0-0.9c0-0.9,0.6-1.7,1.5-1.7s1.7,0.6,1.7,1.5c0,0.3,0,0.6,0,0.9
		c10.2-6.3,19.6-12.7,27.7-18.3c0.8-0.6,1.7-1.2,2.5-1.7c0.5-0.3,0.7-0.8,0.7-1.3c0-0.3-0.1-0.6-0.3-0.9
		C344.7,341.7,343.7,341.5,343,342.1"/>
	<path class="st5" d="M314.6,364.7c0-0.3,0-0.6,0-0.9c0-0.9-0.8-1.6-1.7-1.5c-0.9,0-1.6,0.8-1.5,1.7c0,0.3,0,0.6,0,0.9
		c0.3,6.1,0.5,11.9,0.8,17.5c0.3,7.1,0.6,13.8,0.9,19.5c0.1,0.9,0.1,1.9,0.2,2.7c0.1,0.9,0.8,1.5,1.6,1.5h0.1
		c0.9-0.1,1.6-0.8,1.5-1.7c-0.1-0.9-0.1-1.8-0.2-2.8c-0.3-5.7-0.6-12.4-0.9-19.4C315.1,376.7,314.9,370.8,314.6,364.7"/>
	<path class="st5" d="M291.8,531.5c-0.5,0-1,0-1.5,0c-0.8,0-1.5-0.7-1.5-1.5s0.7-1.5,1.5-1.5c0.5,0,1,0,1.4,0c0-9.9-0.2-11.1-0.4-21
		c-0.5,0-1,0-1.5,0.1c0,0,0,0-0.1,0c-0.8,0-1.5-0.6-1.5-1.4s0.6-1.5,1.4-1.6c0.5,0,1,0,1.5-0.1c-0.2-7.7-0.3-7.4-0.5-15.1
		c-0.5,0-1,0-1.5,0c-0.8,0-1.5-0.7-1.5-1.5s0.6-1.5,1.5-1.5c0.5,0,1,0,1.5,0c-0.1-4.5-0.2-3.7-0.4-8.1c-0.1-3.9-0.2-7.7-0.3-11.6
		c-0.5,0-1,0-1.5,0c0,0,0,0-0.1,0c-0.8,0-1.5-0.6-1.5-1.4c0.1,4.4,0.2,8.8,0.3,13.1c0.7,25.9,1.4,30.7,1.4,57.1
		c0,4.1,0,8.2-0.1,12.3h3c0-4.1,0.1-8.2,0.1-12.3C291.8,534.2,291.8,532.8,291.8,531.5"/>
	<path class="st5" d="M288.5,463.8c0.5,0,1,0,1.5,0c-0.2-8.7-0.4-12.8-0.6-21.7c-0.5,0-1,0-1.6,0c-0.8,0-1.5-0.7-1.5-1.5
		c0.2,9.8,0.4,15,0.7,24.7C287,464.5,287.6,463.8,288.5,463.8"/>
	<path class="st5" d="M286.3,440.5c0-0.8,0.7-1.4,1.5-1.4c0.5,0,1,0,1.5,0c-0.1-6.8-0.2-8.3-0.3-15.2c0-1,0-2,0-3c0-1.8,0-3.7,0-5.5
		c-0.5,0-1,0-1.5,0c-0.8,0-1.5-0.6-1.5-1.4c0,2.1,0,4.2,0,6.3c0,1,0,2,0,3.1C286.1,430.8,286.2,433,286.3,440.5"/>
	<path class="st5" d="M287.4,412.4c0.5,0,1,0,1.6,0c0-1,0-2.1,0-3.1c0-12.3,0.2-11.1,0.5-22c0-0.8-0.6-1.5-1.5-1.5
		c-0.8,0-1.5,0.6-1.5,1.5c-0.3,11-0.5,9.8-0.5,22.1c0,1.5,0,3.1,0,4.6C286,413.1,286.6,412.4,287.4,412.4"/>
	<path class="st5" d="M342.8,487.9c-0.5,0-1,0-1.5,0c0.2,8,0.5,7.9,0.8,15.8c0.5,0,1,0,1.5,0c0.8,0,1.5,0.6,1.5,1.4
		c-0.4-8.8-0.7-9.7-0.9-18.7C344.3,487.2,343.6,487.9,342.8,487.9"/>
	<path class="st5" d="M343.8,506.7c-0.5,0-1,0-1.5,0c0.5,11,1,13.3,1.6,24.2c0.6,0,1.1,0.1,1.7,0.1c0.8,0.1,1.5,0.8,1.4,1.6
		s-0.7,1.4-1.5,1.4h-0.1c-0.4,0-0.9-0.1-1.3-0.1c0.3,4.6,0.5,9.2,0.9,13.8h3c-1.1-17-2-25.4-2.7-42.5
		C345.2,506.1,344.6,506.7,343.8,506.7"/>
	<path class="st5" d="M342.1,465.8c-0.5,0-1,0-1.5,0c0.2,8.2,0.4,11,0.6,19.1c0.5,0,1,0,1.5,0c0.8,0,1.5,0.6,1.5,1.4
		c-0.3-9-0.5-12.8-0.7-22C343.6,465.1,343,465.8,342.1,465.8"/>
	<path class="st5" d="M342.9,414.6c0,0.8-0.7,1.5-1.5,1.5c-0.5,0-1,0-1.5,0c0,2.6,0,5.2,0,7.7c0,1,0,2,0,3c0,5.6,0.1,5.8,0.2,11.4
		c0.5,0,1,0,1.5,0c0.8,0,1.5,0.7,1.5,1.5s-0.7,1.5-1.5,1.5c-0.5,0-1,0-1.5,0c0.1,8.9,0.2,13,0.4,21.7c0.5,0,1,0,1.5,0
		c0.8,0,1.5,0.7,1.5,1.5c-0.3-15.4-0.5-21.2-0.6-37.4c0-1,0-2,0-3c-0.1-15.7-0.2-19.3-0.2-36c0-0.8-0.7-1.5-1.5-1.5
		s-1.5,0.7-1.5,1.5c0,12.9,0,12.9,0.1,25.2c0.5,0,1,0,1.5,0C342.2,413.1,342.9,413.7,342.9,414.6"/>
	<path class="st5" d="M287.5,415.4c0.5,0,1,0,1.5,0c3-0.1,6.1-0.1,9.6-0.1c7.7,0,15.5,0.2,23.1,0.4c6,0.2,12.2,0.3,18.3,0.4
		c0.5,0,1,0,1.5,0c0.8,0,1.5-0.7,1.5-1.5s-0.7-1.5-1.5-1.5c-0.5,0-1,0-1.5,0c-6.1-0.1-12.2-0.2-18.2-0.4c-7.6-0.2-15.5-0.4-23.2-0.4
		c-3.4,0-6.5,0-9.6,0.1c-0.5,0-1,0-1.6,0c-0.8,0-1.4,0.7-1.4,1.4v0.1c0,0,0,0,0,0.1C286,414.8,286.7,415.4,287.5,415.4"/>
	<path class="st5" d="M287.8,442c0.5,0,1,0,1.6,0c1.3,0,2.6,0,3.9,0c8.7,0,17.5-0.3,26-0.5c6.9-0.2,13.9-0.4,20.9-0.5
		c0.5,0,1,0,1.5,0c0.8,0,1.5-0.7,1.5-1.5s-0.7-1.5-1.5-1.5c-0.5,0-1,0-1.5,0c-7,0.1-14.1,0.3-20.9,0.5c-8.5,0.2-17.3,0.5-25.9,0.5
		c-1.3,0-2.7,0-4,0c-0.5,0-1,0-1.5,0c-0.8,0-1.5,0.6-1.5,1.4c0,0.1,0,0.1,0,0.1C286.4,441.4,287,442,287.8,442"/>
	<path class="st5" d="M342.1,462.8c-0.5,0-1,0-1.5,0c-4.7,0.1-9.5,0.1-14.3,0.2c-11.9,0.1-24.2,0.3-36.4,0.7c-0.5,0-1,0-1.5,0
		c-0.8,0-1.5,0.7-1.4,1.5c0,0.8,0.7,1.5,1.5,1.5c0,0,0,0,0.1,0c0.5,0,1,0,1.5,0c12.1-0.4,24.4-0.6,36.3-0.7
		c4.8-0.1,9.5-0.1,14.3-0.2c0.5,0,1,0,1.5,0c0.8,0,1.5-0.7,1.5-1.5C343.6,463.5,342.9,462.8,342.1,462.8"/>
	<path class="st5" d="M342.8,484.9c-0.5,0-1,0-1.5,0c-8.8,0.1-17.7,0.5-26.4,0.8c-7.9,0.3-16.1,0.6-24.2,0.7c-0.5,0-1,0-1.5,0
		c-0.8,0-1.5,0.7-1.5,1.5s0.7,1.5,1.5,1.5c0.5,0,1,0,1.5,0c8.1-0.1,16.3-0.5,24.2-0.7c8.6-0.3,17.6-0.7,26.3-0.8c0.5,0,1,0,1.5,0
		c0.8,0,1.5-0.7,1.5-1.5c0,0,0,0,0-0.1v-0.1C344.2,485.5,343.6,484.9,342.8,484.9"/>
	<path class="st5" d="M343.7,503.7c-0.5,0-1,0-1.5,0c-4.8,0.1-9.6,0.1-14.4,0.1c-11.9,0.1-24.2,0.1-36.4,0.7c-0.5,0-1,0-1.5,0.1
		c-0.8,0-1.5,0.7-1.4,1.6c0,0.8,0.7,1.4,1.5,1.4c0,0,0,0,0.1,0c0.5,0,1,0,1.5-0.1c12.1-0.5,24.4-0.6,36.3-0.7
		c4.8,0,9.7-0.1,14.5-0.1c0.5,0,1,0,1.5,0c0.8,0,1.5-0.7,1.5-1.5c0-0.1,0-0.1,0-0.1C345.2,504.3,344.5,503.7,343.7,503.7"/>
	<path class="st5" d="M290.3,528.5c-0.8,0-1.5,0.6-1.5,1.5c0,0.8,0.6,1.5,1.5,1.5c0.5,0,1,0,1.5,0c18.3,0.5,35.4,1.3,52.3,2.5
		c0.4,0,0.9,0.1,1.3,0.1h0.1c0.8,0,1.4-0.6,1.5-1.4c0.1-0.8-0.6-1.5-1.4-1.6c-0.6,0-1.1-0.1-1.7-0.1c-16.8-1.1-33.9-1.9-52.1-2.4
		C291.3,528.5,290.8,528.5,290.3,528.5"/>
	<path class="st3" d="M884,535c-3.8,0.2-8.3,0.5-12.1,1.4c-0.3-0.5-1.2-0.8-1.5-0.1c-0.1,0.2-0.2,0.5-0.3,0.7
		c-0.9,0.6-1.1,1.8-0.8,2.7c-0.1,0.4-0.2,0.8-0.3,1.2c-0.3,1,0.4,2,1.3,2.3c3.8,1.1,8.6,1.2,12.6,1.2c3,0,6.2-1.5,6.4-4.9
		C889.6,536.3,886.8,534.9,884,535"/>
	<path class="st3" d="M875.9,522.6c2.6,0.1,5.3-0.2,7.8-0.4c1.3-0.1,2.7-1.4,2.1-2.8c-0.7-1.8-1.4-3.6-2.1-5.4
		c-0.6-1.5-1.1-3.3-2.9-3.8c-3.1-0.9-6.4,3.2-7.9,5.4c-1.1,1.5,0,3,1.4,3.4c-0.1,0.2-0.1,0.4-0.2,0.6
		C873.6,521,874.3,522.5,875.9,522.6 M878.4,516.6c0.2-0.2,0.4-0.4,0.6-0.6c0,0,0.2-0.2,0.4-0.4c0.4,0.8,0.7,1.7,1.1,2.5
		c-0.8,0.1-1.6,0.1-2.4,0.2C878.2,517.8,878.3,517.2,878.4,516.6"/>
	<path class="st4" d="M900.4,550.4c-5.6-2.9-13-1.8-19.1-1.2c-6.2,0.6-13.5,0.8-19.1,3.8c-1.2,0.6-0.8,2.3,0.3,2.7
		c5.7,2.1,12.8,1.3,18.8,1.1c6-0.3,12.5,0.4,18.4-0.6C902.4,555.7,902.7,551.6,900.4,550.4"/>
	<path class="st5" d="M899.9,543.7c0-0.8-0.7-1.4-1.5-1.4c-1.4,0-2.7,0-3.9,0.1c0.5,0.2,0.9,0.7,0.9,1.4c0,0.8-0.6,1.5-1.5,1.5h-0.4
		c-1,0-2.1,0-3.1,0.1c0.2,0.1,0.5,0.2,0.7,0.2c1.7-0.1,3.6-0.2,5.8-0.2c0.2,1.9,0.5,3.6,0.8,5.3c0.2,1.5,0.5,2.9,0.7,4.3
		c-8.5,0-17,0.2-25.3,0.4c-3.6,0.1-7.1,0.2-10.7,0.3c-0.1-2.6-0.2-5.1-0.2-7.6c0-0.5,0-0.9,0-1.4c1,0,2.1,0,3.1,0.1
		c0.4,0,0.8,0,1.3,0.1c0.5,0,1.1-0.3,1.3-0.7c-2,0.1-4,0.2-5.9,0.3h-0.1c-0.8,0-1.4-0.6-1.5-1.4c0-0.6,0.3-1.1,0.7-1.4
		c-0.2,0-0.4,0-0.5,0c-0.8,0.1-1.4,0.7-1.4,1.5c0,0.9,0,1.9,0,2.8c0,3,0.1,6.1,0.3,9.2c0.1,0.8,0.7,1.4,1.5,1.4
		c4.1-0.1,8.2-0.2,12.2-0.3c8.8-0.3,17.9-0.5,26.8-0.4c0.4,0,0.8-0.2,1.1-0.5c0.3-0.3,0.4-0.7,0.4-1.1c-0.2-2.3-0.5-4.3-0.8-6.2
		C900.4,548,900,546,899.9,543.7"/>
	<path class="st5" d="M869.5,539.1c0.2-0.8,0.4-1.7,0.6-2.5c-0.4,0-0.8,0-1.2,0.1c0,0,0,0-0.1,0c-0.8,0-1.5-0.6-1.5-1.4
		c0-0.8,0.6-1.5,1.4-1.6c0.6,0,1.3-0.1,2-0.1c0.7-2.9,1.3-5.8,2-8.8c-0.4,0-0.9-0.1-1.3-0.1c-0.8-0.1-1.4-0.8-1.4-1.6
		c0-0.1,0-0.2,0-0.2c-1.3,5.2-2.5,10.5-3.6,15.6c-0.4,1.6-0.7,3.2-1.1,4.8c1-0.1,2.1-0.1,3.1-0.2C869,541.7,869.3,540.4,869.5,539.1
		"/>
	<path class="st5" d="M871.8,521.7c0.6,0.1,1.2,0.1,1.8,0.1c0.9-3.5,1.8-7.1,2.9-10.5c0.4,0,0.9,0,1.3,0c1.4,0,2.9,0,4.4,0.1
		c0.8,3.5,1.6,7.2,2.3,10.9c0.6,0,1.2,0,1.8,0c0.8,0,1.5,0.7,1.5,1.5c0,0.8-0.7,1.5-1.5,1.5c-0.4,0-0.8,0-1.2,0c0.5,2.3,1,4.7,1.5,7
		c0.6-0.1,1.1-0.1,1.7-0.2c0.8-0.1,1.6,0.5,1.6,1.4c0.1,0.8-0.5,1.6-1.4,1.6c-0.4,0-0.9,0.1-1.3,0.1c0.6,2.4,1.2,4.8,1.8,7.2
		c1,0,2.1-0.1,3.1-0.1c-1.8-6.3-3.2-13.1-4.6-19.7c-0.9-4.3-1.8-8.8-2.8-13c-0.2-0.6-0.7-1.1-1.4-1.1c-1.9-0.1-3.8-0.1-5.6-0.1
		c-0.8,0-1.6,0-2.4,0c-0.7,0-1.3,0.4-1.5,1.1c-1.4,4.4-2.5,8.9-3.6,13.4C870.5,522.1,871.1,521.6,871.8,521.7"/>
	<path class="st5" d="M860.4,545.1c0.1,0.8,0.7,1.4,1.5,1.4h0.1c2-0.1,3.9-0.2,5.9-0.3c7.5-0.4,15.1-0.6,22.6-0.8
		c1,0,2.1-0.1,3.1-0.1h0.4c0.8,0,1.5-0.7,1.5-1.5c0-0.6-0.4-1.1-0.9-1.4c-0.2-0.1-0.4-0.1-0.6-0.1h-0.4c-0.4,0-0.9,0-1.3,0
		c-1,0-2,0-3.1,0.1c-6.8,0.2-13.6,0.4-20.4,0.7c-1,0.1-2.1,0.1-3.1,0.2c-1.3,0.1-2.5,0.1-3.8,0.2c-0.3,0-0.5,0.1-0.7,0.2
		C860.6,544,860.3,544.5,860.4,545.1"/>
	<path class="st5" d="M887.3,535.2c0.4,0,0.9-0.1,1.3-0.1c0.8-0.1,1.4-0.8,1.4-1.6c-0.1-0.8-0.8-1.4-1.6-1.4
		c-0.6,0.1-1.1,0.1-1.7,0.2c-0.7,0.1-1.5,0.1-2.2,0.2c-4.5,0.4-9.1,0.8-13.6,1.1c-0.7,0-1.3,0.1-2,0.1c-0.8,0-1.5,0.7-1.4,1.6
		c0,0.8,0.7,1.4,1.5,1.4c0,0,0,0,0.1,0c0.4,0,0.8,0,1.2-0.1c4.9-0.2,9.8-0.7,14.6-1.1C885.5,535.4,886.4,535.3,887.3,535.2"/>
	<path class="st5" d="M871.5,524.7c0.4,0,0.9,0.1,1.3,0.1c3.8,0.3,7.8,0.5,11.9,0.5h0.3c0.4,0,0.8,0,1.2,0c0.8,0,1.5-0.7,1.5-1.5
		c0-0.8-0.7-1.5-1.5-1.5c-0.6,0-1.2,0-1.8,0c-3.8,0-7.4-0.1-10.9-0.4c-0.6,0-1.2-0.1-1.8-0.1c-0.7-0.1-1.4,0.4-1.6,1v0.1
		c0,0.1,0,0.2,0,0.2C870.1,523.9,870.7,524.6,871.5,524.7"/>
	<path class="st5" d="M1078.6,588.8c0-1.7-0.1-3.5-0.1-5.2c0-0.8-0.6-1.5-1.4-1.5c-1.9-0.1-3.9-0.1-6.1-0.1
		c-5.2,0-10.5,0.2-15.6,0.4c-5.9,0.2-11.9,0.5-17.9,0.4c0-1.5,0.1-2.9,0.2-4.4c0.1-3.3,0.2-6.8,0.2-10.2c0-1.1,0-2.3,0-3.4
		c0-0.8-0.7-1.5-1.5-1.5c-11,0-21.8-0.2-30.3-0.4c0-3.3,0-6.7,0-10c0-18.7-0.3-37.7-0.5-56.1c-0.1-5-0.1-10.1-0.2-15.1
		c0-0.4-0.2-0.8-0.5-1.1c-0.3-0.3-5.4-0.4-5.8-0.4c-3.8,0.1-26.7,0.6-29.4,0.6H968c-0.8,0-1.5,0.7-1.5,1.5
		c-0.2,7.5-0.9,15.1-1.6,22.4c-3.4,0-6.9-0.1-10.3-0.2c-7-0.1-14.2-0.3-21.3-0.2c-0.8,0-1.4,0.6-1.5,1.4c-0.4,4.5-0.7,9.1-1,13.7
		c-0.4,5.2-0.8,10.5-1.2,15.7c-3.4-0.1-6.9-0.3-10.3-0.5c-3.8-0.2-15.2-0.6-15.4-0.6c-1.7,0-3.3,0-4.9,0.1c-0.8,0-1.4,0.7-1.4,1.5
		v2.9c-0.1,5.6-0.1,11.3-0.7,17c-2.1-0.1-4.2-0.1-6.3-0.2c-7-0.2-14.3-0.5-21.4-0.5c-0.9,0-9.5,0.2-10.7,0.2c-0.8,0-1.4,0.6-1.4,1.4
		c-0.2,3.4-0.3,6.8-0.4,10.1c-0.1,3.6-0.2,7.3-0.5,10.9c-1.4,0-2.8,0-4.2,0c-7,0-14.3,0.1-21.5,1c-0.7,0.1-1.3,0.7-1.3,1.4v1.4
		c-0.1,4.5-0.3,9.1-0.5,13.7c-5.4-0.2-10.4-0.3-15.5-0.3c-6,0-11.3,0.2-16.1,0.6c-0.8,0.1-1.3,0.7-1.4,1.4c-0.2,3-0.5,5.9-0.9,8.9
		c-0.2,1.5-0.3,3.4-0.5,4.4h3c0.1-1,0.3-2.6,0.5-4c0.3-2.6,0.6-5.2,0.8-7.8c4.4-0.3,9.2-0.4,14.6-0.4c5.5,0,10.9,0.2,16.9,0.3
		c0.8,0,1.7-0.6,1.8-1.4c0.3-5.1-0.2-10.2,0.8-15.2v-0.1c6-0.7,13.1-0.8,19.6-0.8c1.9,0,3.6,0,5.5-0.1c0.8,0,1.3-0.6,1.4-1.4
		c0.4-4.1,0.5-8.4,0.6-12.5c0.1-2.8,0.1-5.8,0.3-8.7c2.9-0.1,5.9-0.2,9.2-0.2c7.1,0,14.3,0.2,21.3,0.5c2.6,0.1,5.1,0.2,7.7,0.3
		c0.8,0.1,1.4-0.6,1.5-1.3c0.7-6.3,0.8-12.6,0.9-18.7V537c1.1,0,2.2,0,3.3,0c5.1,0,10.2,0.3,15.2,0.6c3.9,0.2,7.8,0.4,11.8,0.5
		c0.8,0,1.5-0.6,1.5-1.4c0.5-5.7,0.9-11.5,1.3-17.2c0.3-4.1,0.6-8.2,0.9-12.3c6.6-0.1,13.3,0.1,19.8,0.2c3.9,0.1,7.8,0.2,11.7,0.2
		c0.8,0,1.4-0.6,1.5-1.4l0.1-0.6c0.7-7.1,1.3-14.5,1.6-21.8c3.1,0,18.2-0.4,20.5-0.4c4.1-0.1,8.2-0.2,12.4-0.3
		c0.1,4.5,0.1,9.1,0.2,13.6c0.3,18.4,0.5,37.4,0.5,56c0,3.8,0,7.6,0,11.5c0,0.8,0.6,1.5,1.5,1.5c8.3,0.2,19.2,0.4,30.4,0.4
		c0,0.6,0,1.2,0,1.9c0,3.3-0.1,6.7-0.2,10c-0.1,2-0.1,4-0.2,5.9c0,0.4,0.1,0.8,0.4,1.1c0.3,0.3,0.7,0.5,1,0.5
		c6.6,0.2,13.2-0.1,19.6-0.4c5.1-0.2,10.3-0.4,15.5-0.4c1.6,0,3.1,0,4.5,0.1c0,1.3,0,2.5,0.1,3.8c0.1,4.1,0.1,8.1,0.1,12.3
		c0,3.3,0,5.9-0.1,8.9h3c0.1-3,0.1-5.7,0.1-8.9C1078.7,597,1078.6,592.9,1078.6,588.8"/>
	<path class="st5" d="M841.4,368.9c-4.6,4.8-9.2,9.7-14,14.8c1.3,0,2.7,0.1,4,0.1c4.2-4.5,8.3-8.8,12.3-13
		C842.9,370.2,842.2,369.5,841.4,368.9"/>
	<path class="st5" d="M813.6,344.9c0.5,0,1,0,1.6,0c-0.1-0.1-0.3-0.3-0.4-0.4c-0.2-0.2-0.3-0.4-0.4-0.6c-0.1,0.2-0.2,0.4-0.3,0.5
		C813.9,344.6,813.8,344.8,813.6,344.9"/>
	<path class="st5" d="M691.3,376.3c8.2-6.1,16.4-12.5,24.4-18.7c-0.3-0.3-0.6-0.6-0.9-1c-0.6-0.6-0.6-1.5,0-2.1s1.5-0.6,2.1,0
		c0.4,0.4,0.8,0.8,1.2,1.2c4.9-3.8,10-7.7,14.9-11.5c8.3,0,16.7,0.1,25.1,0.1c0.8-0.8,1.6-1.7,2.4-2.5c0.6-0.6,1.5-0.6,2.1,0
		s0.6,1.5,0,2.1c-0.1,0.2-0.3,0.3-0.4,0.5c1.7,0,3.5,0,5.2,0c-0.1-0.2-0.3-0.3-0.5-0.5c-0.5-0.6-0.5-1.6,0.2-2.1
		c0.6-0.5,1.6-0.5,2.1,0.2c0.7,0.8,1.5,1.7,2.2,2.5c12.8,0.1,25.5,0.2,38.1,0.4c0.8-0.9,1.6-1.7,2.4-2.5c0.6-0.6,1.5-0.6,2.1,0
		c0.2,0.2,0.3,0.4,0.4,0.6c0.1-0.2,0.2-0.4,0.3-0.6c0.6-0.6,1.5-0.6,2.1,0c0.9,0.9,1.8,1.7,2.7,2.6c14.7,0.1,29.7,0.3,44.5,0.4
		c-6.9,7-13.7,14-20.6,21.3c0.8,0.7,1.5,1.3,2.3,2c7.5-7.9,14.9-15.5,22.4-23.1c-0.2-0.2-0.4-0.4-0.6-0.6c-0.4-0.4-0.5-1.1-0.3-1.6
		c0.2-0.4,0.5-0.7,0.9-0.8c-0.2,0-0.3-0.1-0.5-0.1c-19.1-0.1-38.5-0.3-57.3-0.5c-25.5-0.3-51.9-0.5-77.8-0.6c-0.3,0-0.7,0.1-0.9,0.3
		c-5.8,4.4-11.7,9-17.4,13.4c-8.1,6.3-16.5,12.9-25,19.1C690.1,374.8,690.7,375.5,691.3,376.3"/>
	<path class="st5" d="M914.9,386.7c0.6,0.6,0.6,1.5,0,2.1c-0.3,0.3-0.7,0.5-1.1,0.5c-0.4,0-0.8-0.1-1-0.4c-0.9-0.9-1.8-1.7-2.7-2.6
		c-11.7-0.1-21.3-0.3-29.5-0.5c-0.8,0.8-1.6,1.6-2.5,2.5c-0.3,0.3-0.7,0.4-1.1,0.4c-0.4,0-0.8-0.1-1.1-0.4c-0.6-0.6-0.6-1.5,0-2.1
		c0.2-0.2,0.3-0.3,0.5-0.5c-4.1-0.1-7.7-0.2-11.1-0.3l0.4,0.3c0.6,0.5,0.7,1.5,0.2,2.1c-0.3,0.4-0.7,0.5-1.1,0.5
		c-0.3,0-0.7-0.1-1-0.4l-3.3-2.8c-6.7-0.3-12.3-0.5-17.4-0.8c-4-0.2-7.8-0.4-11.6-0.5c-1.3-0.1-2.6-0.1-4-0.1
		c-5.8-0.2-12.2-0.3-20.4-0.3c0.1,0.2,0.3,0.3,0.4,0.5c0.6,0.6,0.5,1.6-0.1,2.1c-0.3,0.3-0.7,0.4-1,0.4c-0.4,0-0.8-0.2-1.1-0.5
		c-0.8-0.8-1.5-1.7-2.3-2.5c-9.3,0-18.6,0.2-27.9,0.5c-0.9,0.9-1.8,1.8-2.7,2.7c-0.3,0.3-0.7,0.4-1,0.4c-0.4,0-0.8-0.2-1.1-0.5
		c-0.6-0.6-0.6-1.5,0-2.1c0.1-0.1,0.3-0.3,0.4-0.4c-7.6,0.3-15.2,0.6-22.8,0.9c0.2,0.1,0.3,0.3,0.5,0.4c0.6,0.6,0.6,1.5,0,2.1
		c-0.3,0.3-0.7,0.5-1.1,0.5c-0.4,0-0.8-0.1-1-0.4c-0.8-0.8-1.7-1.6-2.5-2.4c-6.9,0.3-13.7,0.7-20.5,1.1c-0.9,0.9-1.8,1.8-2.7,2.8
		c-0.3,0.3-0.7,0.4-1.1,0.4c-0.4,0-0.8-0.1-1.1-0.4c-0.6-0.6-0.6-1.5,0-2.1c0.1-0.1,0.3-0.3,0.4-0.4c-0.8,0-1.5,0.1-2.3,0.1
		c-7.6,0.4-15.3,0.8-22.9,1.2c-0.3,1-0.7,2.1-1.2,3.1c8.1-0.4,16.2-0.8,24.3-1.3c28.8-1.6,58.7-3.2,88-3.2c17,0,26.3,0.4,38.1,1
		c15,0.7,83.8,1.6,125,1.9v-3c-0.9,0-52.5,0-53.4,0C914.6,386.4,914.8,386.5,914.9,386.7"/>
	<path class="st5" d="M731.4,373.2c0.7-0.7,1.4-1.5,2-2.2c-5.1-5-10.3-10.1-15.4-15.3c-0.4-0.4-0.8-0.8-1.2-1.2
		c-0.6-0.6-1.5-0.6-2.1,0c-0.6,0.6-0.6,1.5,0,2.1c0.3,0.3,0.6,0.6,0.9,1C720.9,363,726.2,368.2,731.4,373.2"/>
	<path class="st5" d="M735.6,373.1c-0.7,0.7-1.4,1.5-2,2.2c1.7,1.7,3.5,3.4,5.2,5s3.3,3.2,5,4.8c0.8,0.8,1.7,1.6,2.5,2.4
		c0.3,0.3,0.7,0.4,1,0.4c0.4,0,0.8-0.2,1.1-0.5c0.6-0.6,0.6-1.5,0-2.1c-0.2-0.1-0.3-0.3-0.5-0.4c-2.3-2.2-4.6-4.5-7-6.8
		C739.2,376.5,737.4,374.8,735.6,373.1"/>
	<path class="st5" d="M735.6,373.1c2.5-2.8,5.1-5.5,7.6-8.2c6.2-6.8,12.6-13.8,19-20.5c0.1-0.2,0.3-0.3,0.4-0.5
		c0.6-0.6,0.6-1.5,0-2.1s-1.5-0.6-2.1,0c-0.8,0.8-1.6,1.7-2.4,2.5c-5.8,6.1-11.6,12.4-17.1,18.5c-2.5,2.7-5,5.4-7.5,8.2
		c-0.7,0.7-1.4,1.5-2,2.2c-4.1,4.4-8.3,8.9-12.5,13.2c-0.1,0.1-0.3,0.3-0.4,0.4c-0.6,0.6-0.6,1.5,0,2.1c0.3,0.3,0.7,0.4,1.1,0.4
		c0.4,0,0.8-0.1,1.1-0.5c0.9-0.9,1.8-1.8,2.7-2.8c3.5-3.6,6.9-7.2,10.3-10.9C734.3,374.6,735,373.9,735.6,373.1"/>
	<path class="st5" d="M792,367.1c-0.7,0.7-1.4,1.4-2.1,2.1c0.9,1,1.9,2,2.8,3c3.4,3.6,6.9,7.4,10.3,11.1c0.8,0.8,1.5,1.7,2.3,2.5
		c0.3,0.3,0.7,0.5,1.1,0.5c0.4,0,0.7-0.1,1-0.4c0.6-0.6,0.7-1.5,0.1-2.1c-0.1-0.2-0.3-0.3-0.4-0.5c-4.1-4.4-8.2-8.9-12.2-13.2
		C793.9,369.2,793,368.2,792,367.1"/>
	<path class="st5" d="M790,365c-6.2-6.7-12.5-13.5-18.5-20.4c-0.7-0.8-1.5-1.7-2.2-2.5c-0.5-0.6-1.5-0.7-2.1-0.2s-0.7,1.5-0.2,2.1
		c0.1,0.2,0.3,0.3,0.5,0.5c6.6,7.7,13.5,15.2,20.4,22.6C788.6,366.4,789.3,365.7,790,365"/>
	<path class="st5" d="M736.8,344c-0.3-9.1-0.6-278-0.6-287.1c0-1.1,0-2.2,0-3.3c0-0.8-0.7-1.5-1.5-1.5s-1.5,0.7-1.5,1.5
		c0,0.2,0,0.5,0,0.7c0,10.2,0.3,280,0.6,290C734.8,344.1,735.8,344.1,736.8,344"/>
	<path class="st5" d="M789.9,369.3c0.7-0.7,1.4-1.4,2.1-2.1c8.9-8.9,16-16.3,21.6-22.2c0.1-0.2,0.3-0.3,0.4-0.5
		c0.1-0.2,0.3-0.3,0.3-0.5c-0.1-0.3-0.1-0.7,0-1c-0.1-0.2-0.2-0.4-0.4-0.6c-0.6-0.6-1.5-0.5-2.1,0c-0.8,0.8-1.6,1.6-2.4,2.5
		c-5.3,5.5-11.7,12.2-19.6,20.1c-0.7,0.7-1.4,1.4-2.1,2.1c-5.1,5.1-10.8,10.7-17.1,16.9c-0.1,0.1-0.3,0.3-0.4,0.4
		c-0.6,0.6-0.6,1.5,0,2.1c0.3,0.3,0.7,0.5,1.1,0.5c0.4,0,0.8-0.1,1-0.4c0.9-0.9,1.8-1.8,2.7-2.7
		C780.5,378.6,785.4,373.7,789.9,369.3"/>
	<path class="st5" d="M845.7,368.7c-0.8-0.7-1.5-1.3-2.3-2c-8.1-7-16.2-14.3-23.9-21.7c-0.9-0.9-1.8-1.7-2.7-2.6
		c-0.6-0.6-1.5-0.6-2.1,0c-0.2,0.2-0.3,0.4-0.3,0.6c-0.1,0.3-0.1,0.7,0,1c0.1,0.2,0.2,0.4,0.4,0.6c0.1,0.1,0.3,0.3,0.4,0.4
		c8.4,8.3,17.3,16.2,26.2,23.9c0.8,0.7,1.5,1.3,2.3,2c4.8,4.1,9.6,8.2,14.4,12.3l2.4,2l3.3,2.8c0.3,0.2,0.6,0.4,1,0.4
		s0.8-0.2,1.1-0.5c0.5-0.6,0.5-1.6-0.2-2.1l-0.4-0.3L860,381C855.3,376.8,850.5,372.8,845.7,368.7"/>
	<path class="st5" d="M910.1,386.2c0.9,0.9,1.8,1.7,2.7,2.6c0.3,0.3,0.7,0.4,1,0.4c0.4,0,0.8-0.1,1.1-0.5c0.6-0.6,0.6-1.5,0-2.1
		c-0.1-0.1-0.3-0.3-0.4-0.4c-5.6-5.5-11.3-10.9-16.9-16.2c-0.2-0.2-0.4-0.4-0.6-0.6c-0.7,0.7-1.4,1.4-2.1,2.1
		c0.2,0.2,0.4,0.4,0.7,0.6C900.3,376.8,905.3,381.5,910.1,386.2"/>
	<path class="st5" d="M868.6,342.4c-0.2,0-0.3,0-0.5,0.1c-0.4,0.1-0.7,0.4-0.9,0.8c-0.2,0.6-0.1,1.2,0.3,1.6
		c0.2,0.2,0.4,0.4,0.6,0.6c8,8.1,16.4,16.1,24.5,23.9c0.7-0.7,1.4-1.4,2.1-2.1c-7.5-7.2-15.2-14.5-22.6-21.9
		c13.6,0.1,25.9,0.1,37.5,0.1c1.9,0,5.4,0.1,7.3,0.1c0.5,0,49.3,38.6,49.8,38.6c0,0,1.5,0.3,1.5-0.9l-1.4-2.1
		c-0.6,0-49.4-38.6-50.1-38.6c-1.8,0-5.3-0.1-7.1-0.1C897.1,342.6,883.7,342.5,868.6,342.4"/>
	<path class="st5" d="M894.8,367.4c-0.7,0.7-1.4,1.4-2.1,2.1c-5,5-10.4,10.3-16.2,16.1c-0.2,0.1-0.3,0.3-0.5,0.4
		c-0.6,0.6-0.6,1.5,0,2.1c0.3,0.3,0.7,0.4,1.1,0.4c0.4,0,0.8-0.1,1.1-0.4c0.8-0.8,1.7-1.7,2.5-2.5c5.1-5,9.8-9.7,14.3-14.2
		c0.7-0.7,1.4-1.4,2.1-2.1c7.3-7.2,16.6-16.2,22.9-22.4l-2.8-1.7l-0.1,0.1C910.1,352.3,902.9,359.4,894.8,367.4"/>
	<path class="st5" d="M415.9,367.5c4.6,4.8,9.2,9.7,14,14.8c-1.3,0-2.7,0.1-4,0.1c-4.2-4.5-8.3-8.8-12.3-13
		C414.4,368.9,415.1,368.2,415.9,367.5"/>
	<path class="st5" d="M443.7,343.6c-0.5,0-1,0-1.6,0c0.1-0.1,0.3-0.3,0.4-0.4c0.2-0.2,0.3-0.4,0.4-0.6c0.1,0.2,0.2,0.4,0.3,0.5
		C443.4,343.3,443.5,343.4,443.7,343.6"/>
	<path class="st5" d="M566,375c-8.2-6.1-16.4-12.5-24.4-18.7c0.3-0.3,0.6-0.6,0.9-1c0.6-0.6,0.6-1.5,0-2.1s-1.5-0.6-2.1,0
		c-0.4,0.4-0.8,0.8-1.2,1.2c-4.9-3.8-10-7.7-14.9-11.5c-8.3,0-16.7,0.1-25.1,0.2c-0.8-0.8-1.6-1.7-2.4-2.5c-0.6-0.6-1.5-0.6-2.1,0
		s-0.6,1.5,0,2.1c0.1,0.2,0.3,0.3,0.4,0.5c-1.7,0-3.5,0-5.2,0c0.1-0.2,0.3-0.3,0.5-0.5c0.5-0.6,0.5-1.6-0.2-2.1
		c-0.6-0.5-1.6-0.5-2.1,0.2c-0.7,0.8-1.5,1.7-2.2,2.5c-12.8,0.1-25.5,0.2-38.1,0.4c-0.8-0.9-1.6-1.7-2.4-2.5c-0.6-0.6-1.5-0.6-2.1,0
		c-0.2,0.2-0.3,0.4-0.4,0.6c-0.1-0.2-0.2-0.4-0.3-0.6c-0.6-0.6-1.5-0.6-2.1,0c-0.9,0.9-1.8,1.7-2.7,2.6c-14.7,0.1-29.7,0.3-44.5,0.4
		c6.9,7,13.7,14,20.6,21.3c-0.8,0.7-1.5,1.3-2.3,2c-7.5-7.9-14.9-15.5-22.4-23.1c0.2-0.2,0.4-0.4,0.6-0.6c0.4-0.4,0.5-1.1,0.3-1.6
		c-0.2-0.4-0.5-0.7-0.9-0.8c0.2,0,0.3-0.1,0.5-0.1c19.1-0.1,38.5-0.3,57.3-0.5c25.5-0.3,51.9-0.5,77.8-0.6c0.3,0,0.7,0.1,0.9,0.3
		c5.8,4.4,11.7,9,17.4,13.4c8.1,6.3,16.5,12.9,25,19.1C567.2,373.4,566.6,374.2,566,375"/>
	<path class="st5" d="M347.2,384.9c11.7-0.1,21.3-0.3,29.5-0.5c0.8,0.8,1.6,1.6,2.5,2.5c0.3,0.3,0.7,0.4,1.1,0.4
		c0.4,0,0.8-0.1,1.1-0.4c0.6-0.6,0.6-1.5,0-2.1c-0.2-0.2-0.3-0.3-0.5-0.5c4.1-0.1,7.7-0.2,11.1-0.3l-0.4,0.3
		c-0.6,0.5-0.7,1.5-0.2,2.1c0.3,0.3,0.7,0.5,1.1,0.5c0.3,0,0.7-0.1,1-0.4l3.3-2.8c6.7-0.3,12.3-0.5,17.4-0.8c4-0.2,7.8-0.4,11.6-0.5
		c1.3-0.1,2.6-0.1,4-0.1c5.8-0.2,12.2-0.3,20.4-0.3c-0.1,0.2-0.3,0.3-0.4,0.5c-0.6,0.6-0.5,1.6,0.1,2.1c0.3,0.3,0.6,0.4,1,0.4
		c0.4,0,0.8-0.2,1.1-0.5c0.8-0.8,1.5-1.7,2.3-2.5c9.3,0,18.6,0.2,27.9,0.5c0.9,0.9,1.8,1.8,2.7,2.7c0.3,0.3,0.7,0.4,1,0.4
		c0.4,0,0.8-0.2,1.1-0.5c0.6-0.6,0.6-1.5,0-2.1c-0.1-0.1-0.3-0.3-0.4-0.4c7.6,0.3,15.2,0.6,22.8,0.9c-0.2,0.1-0.3,0.3-0.5,0.4
		c-0.6,0.6-0.6,1.5,0,2.1c0.3,0.3,0.7,0.5,1.1,0.5s0.8-0.1,1-0.4c0.8-0.8,1.7-1.6,2.5-2.4c6.9,0.3,13.7,0.7,20.5,1.1
		c0.9,0.9,1.8,1.8,2.7,2.8c0.3,0.3,0.7,0.4,1.1,0.4c0.4,0,0.8-0.1,1-0.4c0.6-0.6,0.6-1.5,0-2.1c-0.1-0.1-0.3-0.3-0.4-0.4
		c0.8,0,1.5,0.1,2.3,0.1c7.6,0.4,15.3,0.8,22.9,1.2c0.3,1,0.7,2.1,1.2,3.1c-8.1-0.4-16.2-0.8-24.3-1.3c-28.8-1.6-58.7-3.2-88-3.2
		c-17,0-26.3,0.4-38.1,1c-15,0.7-33,1.6-74.2,1.9l1.6-3.5c0.9,0,0.2,0.4,1,0.4"/>
	<path class="st5" d="M525.9,371.9c-0.7-0.7-1.4-1.5-2-2.2c5.1-5,10.3-10.1,15.4-15.3c0.4-0.4,0.8-0.8,1.2-1.2
		c0.6-0.6,1.5-0.6,2.1,0c0.6,0.6,0.6,1.5,0,2.1c-0.3,0.3-0.6,0.6-0.9,1C536.4,361.6,531.1,366.8,525.9,371.9"/>
	<path class="st5" d="M521.7,371.8c0.7,0.7,1.4,1.5,2,2.2c-1.7,1.7-3.5,3.4-5.2,5s-3.3,3.2-5,4.8c-0.8,0.8-1.7,1.6-2.5,2.4
		c-0.3,0.3-0.7,0.4-1,0.4c-0.4,0-0.8-0.2-1.1-0.5c-0.6-0.6-0.6-1.5,0-2.1c0.2-0.1,0.3-0.3,0.5-0.4c2.3-2.2,4.6-4.5,7-6.8
		C518.1,375.2,519.9,373.5,521.7,371.8"/>
	<path class="st5" d="M521.7,371.8c-2.5-2.8-5.1-5.5-7.6-8.2c-6.2-6.8-12.6-13.8-19-20.5c-0.1-0.2-0.3-0.3-0.4-0.5
		c-0.6-0.6-0.6-1.5,0-2.1s1.5-0.6,2.1,0c0.8,0.8,1.6,1.7,2.4,2.5c5.8,6.1,11.6,12.4,17.1,18.5c2.5,2.7,5,5.4,7.5,8.2
		c0.7,0.7,1.4,1.5,2,2.2c4.1,4.4,8.3,8.9,12.5,13.2c0.1,0.1,0.3,0.3,0.4,0.4c0.6,0.6,0.6,1.5,0,2.1c-0.3,0.3-0.7,0.4-1.1,0.4
		c-0.4,0-0.8-0.1-1.1-0.5c-0.9-0.9-1.8-1.8-2.7-2.8c-3.5-3.6-6.9-7.2-10.3-10.9C523,373.3,522.3,372.5,521.7,371.8"/>
	<path class="st5" d="M465.3,365.8c0.7,0.7,1.4,1.4,2.1,2.1c-0.9,1-1.9,2-2.8,3c-3.4,3.6-6.9,7.4-10.3,11.1
		c-0.8,0.8-1.5,1.7-2.3,2.5c-0.3,0.3-0.7,0.5-1.1,0.5s-0.7-0.1-1-0.4c-0.6-0.6-0.7-1.5-0.1-2.1c0.1-0.2,0.3-0.3,0.4-0.5
		c4.1-4.4,8.2-8.9,12.2-13.2C463.4,367.9,464.3,366.8,465.3,365.8"/>
	<path class="st5" d="M467.3,363.6c6.2-6.7,12.5-13.5,18.5-20.4c0.7-0.8,1.5-1.7,2.2-2.5c0.5-0.6,1.5-0.7,2.1-0.2s0.7,1.5,0.2,2.1
		c-0.1,0.2-0.3,0.3-0.5,0.5c-6.6,7.7-13.5,15.2-20.4,22.6C468.7,365,468,364.3,467.3,363.6"/>
	<path class="st5" d="M467.4,367.9c-0.7-0.7-1.4-1.4-2.1-2.1c-8.9-8.9-16-16.3-21.6-22.2c-0.1-0.2-0.3-0.3-0.4-0.5
		c-0.1-0.2-0.3-0.3-0.3-0.5c0.1-0.3,0.1-0.7,0-1c0.1-0.2,0.2-0.4,0.4-0.6c0.6-0.6,1.5-0.5,2.1,0c0.8,0.8,1.6,1.6,2.4,2.5
		c5.3,5.5,11.7,12.2,19.6,20.1c0.7,0.7,1.4,1.4,2.1,2.1c5.1,5.1,10.8,10.7,17.1,16.9c0.1,0.1,0.3,0.3,0.4,0.4c0.6,0.6,0.6,1.5,0,2.1
		c-0.3,0.3-0.7,0.5-1.1,0.5s-0.8-0.1-1-0.4c-0.9-0.9-1.8-1.8-2.7-2.7C476.8,377.3,471.9,372.4,467.4,367.9"/>
	<path class="st5" d="M411.6,367.3c0.8-0.7,1.5-1.3,2.3-2c8.1-7,16.2-14.3,23.9-21.7c0.9-0.9,1.8-1.7,2.7-2.6c0.6-0.6,1.5-0.6,2.1,0
		c0.2,0.2,0.3,0.4,0.3,0.6c0.1,0.3,0.1,0.7,0,1c-0.1,0.2-0.2,0.4-0.4,0.6c-0.1,0.1-0.3,0.3-0.4,0.4c-8.4,8.3-17.3,16.2-26.2,23.9
		c-0.8,0.7-1.5,1.3-2.3,2c-4.8,4.1-9.6,8.2-14.4,12.3l-2.4,2l-3.3,2.8c-0.3,0.2-0.6,0.4-1,0.4s-0.8-0.2-1.1-0.5
		c-0.5-0.6-0.5-1.6,0.2-2.1l0.4-0.3l5.3-4.5C402,375.5,406.8,371.4,411.6,367.3"/>
	<path class="st5" d="M388.7,341.1c0.2,0,0.3,0,0.5,0.1c0.4,0.1,0.7,0.4,0.9,0.8c0.2,0.6,0.1,1.2-0.3,1.6c-0.2,0.2-0.4,0.4-0.6,0.6
		c-8,8.1-16.4,16.1-24.5,23.9c-0.7-0.7-1.4-1.4-2.1-2.1c7.5-7.2,15.2-14.5,22.6-21.9c-13.6,0.1-25.9,0.1-37.5,0.1
		c-2.4,0-4.9,0-7.2,0l-0.1-0.1v-2.9c2.4,0,4.9,0,7.4,0C360.2,341.2,373.6,341.2,388.7,341.1"/>
	<path class="st5" d="M362.5,366c0.7,0.7,1.4,1.4,2.1,2.1c5,5,10.4,10.3,16.2,16.1c0.2,0.1,0.3,0.3,0.5,0.4c0.6,0.6,0.6,1.5,0,2.1
		c-0.3,0.3-0.7,0.4-1.1,0.4c-0.4,0-0.8-0.1-1.1-0.4c-0.8-0.8-1.7-1.7-2.5-2.5c-5.1-5-9.8-9.7-14.3-14.2c-0.7-0.7-1.4-1.4-2.1-2.1
		c-7.3-7.2-13.9-13.7-20.2-19.8v-4.2l0.1,0.1C347.2,351,354.4,358.1,362.5,366"/>
	<path class="st4" d="M88,292.4c8.7-0.4,17.3-0.9,26-0.5c9.4,0.5,18.6,1.8,28,1.8c8.8,0,17.3-0.9,26,0.1c7.1,0.8,14.4,3.4,20.8-1.2
		c4.1-2.9,1.4-9.2-2.8-8.5c-1.7-4.1-6.2-7.2-10.4-7.6c-2.7-0.3-3.2,3.4-1.3,4.7c1.7,1.1,3.5,2,5.1,3.2c0.6,0.4,1.1,0.9,1.6,1.4
		c-2.3,0.3-4.7-0.3-6.9-0.6c-4-0.7-7.8-1.2-11.8-1c-8.2,0.5-16.3,1-24.5,0.6c-15.8-0.9-32.2-2.1-48,0.6c-0.3-1-0.4-2-0.2-3
		c0-0.8-1.2-1.1-1.5-0.4c-0.9,1.9-1.8,3.7-2.9,5.5C83.8,289.5,85.5,292.5,88,292.4"/>
	<path class="st4" d="M144.9,257.2c3.5,1.9,7.4,3.4,8.2,7.9c0.1,0.7,1.4,0.7,1.5,0c1.4-8.5-8.5-15.8-15.1-19.1
		c-2.9-1.5-6.1,2.2-3.6,4.6C138.6,253.3,141.6,255.4,144.9,257.2"/>
	<path class="st4" d="M162.5,259.7c0.7,0.4,1.4,0.9,1.9,1.5c-0.8,1.1-0.8,2.7,0.8,3.4c1.9,0.9,3.8,2.1,5.1,3.9
		c1.4,1.8,3.1,5.3,2.5,7.6c-0.2,0.8,0.9,1,1.2,0.3c0.7-1.7,2-3.3,2.1-5.3c0.1-1.6-0.3-3.5-1-5c-1.4-2.9-3.9-5-7-5.9
		c-0.2-0.3-0.4-0.5-0.7-0.7c-1.1-1-2.4-1.8-3.8-2.2C162.1,257,161.2,259,162.5,259.7"/>
	<path class="st5" d="M178.1,274.3c0-0.2,0-0.4,0-0.7c0-9.9-7.1-16.9-17.2-16.9c-2,0-3.9,0.3-5.6,0.9c-5.6-8.5-13.1-13.1-21.1-13.1
		c-14,0-22.7,8-23.9,21.9c-1.8-0.4-3.5-0.6-5.2-0.6c-14.3,0-21.8,13-21.8,25.9c0,0.4,0,0.8,0,1.1c0,0.7,0.6,1.2,1.3,1.3l104.5,1.6
		c0.6,0,1.1-0.4,1.3-0.9c0.5-1.7,0.7-3.5,0.7-5.2C191,282.3,185.3,275.7,178.1,274.3 M188,293.3l-102.2-1.6
		c0.1-11.5,6.7-23.1,19.2-23.1c1.9,0,4,0.3,6,0.9c0.4,0.1,0.8,0,1.1-0.2c0.3-0.2,0.5-0.6,0.5-1c0.8-18.3,13.8-21.1,21.4-21.1
		c10,0,16.5,8,19.5,12.8c0.3,0.5,1,0.8,1.6,0.5c1.7-0.7,3.6-1.1,5.6-1.1c8.6,0,14.6,5.9,14.6,14.3c0,0.6,0,1.1-0.1,1.7
		c-0.1,0.7,0.5,1.3,1.2,1.4c6.5,0.6,11.9,6.5,11.9,13C188.4,290.9,188.3,292.1,188,293.3"/>
	<path class="st5" d="M794.8,608.2c-4.8,1.5-10.1,0.3-13.4-2.9c-0.6-0.6-1.5-0.6-2-0.1c-2.6,2.3-5.4,3.6-8.8,3.9
		c-4.7,0.4-9-1.2-11.7-4.4c-0.3-0.3-0.7-0.5-1.1-0.5c-0.4,0-0.8,0.2-1.1,0.5c-2.8,3-6.1,4.7-9.8,5.1c-3.9,0.4-8.9-0.8-11.3-4.2
		c-0.3-0.4-0.7-0.6-1.2-0.6s-0.9,0.2-1.2,0.5c-2.2,2.6-4.6,3.9-7.8,4.2c-4.7,0.4-9.7-1.8-12.4-5.6c-0.3-0.4-0.7-0.6-1.1-0.6
		s-0.9,0.1-1.2,0.4c-2.3,2.3-6.1,5.2-11,5.6c-5.8,0.5-11.1-1.9-13.4-6.3c-0.2-0.4-0.6-0.7-1.1-0.8s-0.9,0.1-1.3,0.4
		c-3.4,3-7.7,5-12,5.4c-0.8,0.1-1.4,0.1-2.4,0v0.6c-3-0.2-6.1-1.4-8.2-3.5c-0.6-0.6-1.5-0.6-2-0.1c-2.6,2.3-5.4,3.6-8.8,3.9
		c-4.7,0.4-9-1.2-11.7-4.4c-0.3-0.3-0.7-0.5-1.1-0.5s-0.8,0.2-1.1,0.5c-2.8,3-6.1,4.7-9.8,5.1c-3.9,0.4-8.9-0.8-11.3-4.2
		c-0.3-0.4-0.7-0.6-1.2-0.6s-0.9,0.2-1.2,0.5c-2.2,2.6-4.6,3.9-7.8,4.2c-4.7,0.4-9.7-1.8-12.4-5.6c-0.3-0.4-0.7-0.6-1.1-0.6
		c-0.4,0-0.9,0.1-1.2,0.4c-2.3,2.3-6.1,5.2-11,5.6c-5.8,0.5-11.1-1.9-13.4-6.3c-0.2-0.4-0.6-0.7-1.1-0.8s-0.9,0.1-1.3,0.4
		c-3.4,3-7.7,5-12,5.4c-0.8,0.1-1.6,0.1-2.4,0c0,1,0,2,0,3c0.9,0,1.7,0,2.6-0.1c4.3-0.4,8.8-2.2,12.4-5c3.2,4.4,9.1,6.9,15.4,6.3
		c5-0.5,8.9-3,11.6-5.3c3.4,3.9,8.8,6,14,5.5c3.4-0.3,6.2-1.6,8.7-4c3,3,7.8,4.5,12.9,4.1c3.9-0.4,7.5-2,10.6-4.9
		c3.3,3.2,8.1,4.8,13.1,4.3c3.6-0.3,6.6-1.5,9.4-3.8c3.2,2.6,7.4,3.9,11.8,3.5c1-0.1,2-0.3,3-0.6c0-0.2,0-0.4-0.1-0.6
		c3.4-0.8,6.7-2.4,9.5-4.6c3.2,4.4,9.1,6.9,15.4,6.3c5-0.5,8.9-3,11.6-5.3c3.4,3.9,8.8,6,14,5.5c3.4-0.3,6.2-1.6,8.7-4
		c3,3,7.8,4.5,12.9,4.1c3.9-0.4,7.5-2,10.6-4.9c3.3,3.2,8.1,4.8,13.1,4.3c3.6-0.3,6.6-1.5,9.4-3.8c3.2,2.6,7.4,3.9,11.8,3.5
		c1-0.1,2-0.3,3-0.6C795,610.2,794.9,609.2,794.8,608.2"/>
	<path class="st4" d="M538.3,606.9c-2.4-2.2-6.6-6.6-10.3-7.6c-2.7,3.1-6.4,5.2-10.8,4.2c-2.4-0.6-3.8-2.3-5.9-3.3
		c-1.5-0.8-0.4-0.7-1.1-0.6c-0.4,0.1-1.8,1.5-2.1,1.7c-3.9,2.3-7.4-0.4-10.6-2.8c-2.3-1.8-4.6-3.7-6.7-5.8c-1.5,1.9-3.2,3.6-5.3,4.8
		c-4.7,2.9-8.5-4.1-4.2-7.2c2.4-1.7,4.2-3.6,5.7-6s5.2-2.6,6.6,0c0.9,1.6,2.1,3.1,3.3,4.5c1.3,1.4,3.8,2.8,4.7,4.2
		c0,0,0.7,0.8,0.8,1.5c0.3-0.5,0.7-1.1,0.8-1.2c1.2-1.3,2.8-2.4,4.5-3c3.1-1.2,6.1-0.7,8.7,1.5c1,0.9,1.8,2.3,3.1,2.8
		c2.1,0.9,4.2-0.7,6.2-1.4c1.6-0.6,3.2,0.7,3.7,2.1c0.8,2.2,3.3,3.9,4.9,5.4c1.7,1.7,3.3,3.4,4.8,5.2
		C540,606.6,539,607.6,538.3,606.9"/>
	<path class="st4" d="M357.5,543c0.2-0.1,0.5-0.3,0.7-0.4c1.8-1,4.5-0.8,5.9,0.8c0.3,0.3,0.5,0.6,0.8,0.9c1,1.1,1.4,2.2,1.3,3.3
		c0.8,1,1.7,1.9,2.5,2.2c1.4,0.4,3.8-1.7,5-2.3c3.8-1.9,7.5-2.3,11,0.3c3.8,2.8,5.3,7.3,8.1,10.9c2.6,3.5,10.5,4.2,12.7,0
		c0.6-1.2,1.9-1.4,3.1-1.2c3.8,0.5,6.6,3,9.2,5.6c2.5,2.5,4.7,5,8.4,3.7c6.4-2.3,11.6-8,16.9-12c4.1-3,8.6-4.4,12.9-1.1
		c3,2.3,5.3,5.1,7.5,8.1c1.4,0.7,2.8,1.4,4.3,2c4.4,1.7,2.6,8.9-2,7.2c-3.6-0.8-6.9-3.1-10.3-4.5c0.2,2.8-2.9,4.6-5.4,4.2
		c-1.5-0.2-3-0.7-4.4-1c-2.2,2.3-5.6,2.9-9,2.5c-4.6,3.5-9.8,6.7-15.6,5.5c-6.3-1.3-10.1-7.1-13.3-12.6c-2.8,3-6.4,4.2-11.3,3.7
		c-5.7-0.5-9-3.9-11.9-8.5c-1.1-1.8-3.1-6.2-5.4-6.2c-2.5-0.1-5.6,3.4-8.2,4.1c-6.4,1.8-10.3-3.5-14.3-7.5
		C354.3,548.5,354.8,544.6,357.5,543"/>
	<path class="st4" d="M480.9,588.1c-1.8,3.1-4.6,6-6.6,8c-4.5,4.6-9.7,9.1-15.7,11.6c-2.2,0.9-4.1-0.1-5.3-1.7
		c-0.9,0-1.8-0.5-2.3-1.4c-1.2-2.2-7.7,1.7-9.6,2c-4.9,0.9-5.9-6.6-0.9-6.7c4.5-0.1,9.5-3.2,13.1-0.8c0.3-0.3,0.6-0.5,1-0.7
		c4.8-2.3,9.4-4.8,13.6-8.2c1-0.8,2-1.6,2.9-2.4c-1.1,0-2.1-0.5-2.9-1.5c-1.5-1.9-0.8-4.2,1.1-5.6c1.3-0.9,2.7-1.4,4.2-1.9
		c0-0.1,0-0.2,0-0.3c0-0.6-0.1-1.2-0.2-1.8c-0.2-2.6,3.3-3,4.6-1.2c0.2,0.3,0.4,0.6,0.6,1c0.2,0,0.4,0,0.5,0
		C486.4,576.4,486.9,586.5,480.9,588.1"/>
	<path class="st5" d="M549.5,611.9c-0.4,0-0.7-0.1-1-0.4c-8.1-7.2-14.8-13.6-20.5-19c0.3-0.2,0.7-0.3,1-0.5c0.7-0.4,1-1.3,0.6-2
		c-0.4-0.7-1.3-1-2-0.6c-0.7,0.4-1.3,0.7-1.9,0.9c-1.2-1.2-2.4-2.4-3.6-3.5c-8.6-8.3-14.8-14.3-17.1-14.3c-0.2,0-0.3,0-0.3,0.1
		c-3.4,2.9-6.9,5.6-10.3,8.3c-0.4-0.4-0.8-0.8-1.3-1.2c-0.6-0.6-1.6-0.5-2.1,0.1c-0.6,0.6-0.5,1.6,0.1,2.1c0.3,0.3,0.6,0.6,0.9,0.9
		c-0.8,0.6-1.5,1.2-2.2,1.7c-5.1,3.9-10.4,8-15.5,12.4c-0.6,0.5-1.6,0.5-2.1-0.2c-0.5-0.6-0.5-1.6,0.2-2.1c4.1-3.5,8.3-6.8,12.5-10
		l1.2,1.2c0.3,0.3,0.7,0.4,1.1,0.4s0.8-0.1,1.1-0.4c0.6-0.6,0.6-1.5,0-2.1l-0.9-0.9c0.3-0.2,0.5-0.4,0.8-0.6
		c4.9-3.8,9.9-7.7,14.9-11.8c0.6-0.5,1.4-0.8,2.2-0.8c3.5,0,8.4,4.8,19.2,15.2c6.8,6.6,15.2,14.7,26.3,24.6c0.6,0.6,0.7,1.5,0.1,2.1
		C550.3,611.7,549.9,611.9,549.5,611.9"/>
	<path class="st5" d="M488.1,585.7c-0.3,0.3-0.7,0.4-1.1,0.4s-0.8-0.1-1.1-0.4l-1.2-1.2l-3.3-3.3c-11.5-11.6-23.4-23.6-36.2-35.1
		c-0.4-0.4-1-1-1.7-1.7c-1.5-1.5-5.9-5.9-7.7-6.5c-5.7,4.1-11.3,7.4-15.9,9.4c-0.6,0.3-1.3,0.1-1.7-0.4c-6.4-7.2-11.9-14.3-16.3-20
		c-6.3-8.2-11.8-15.2-14.5-15.2c-4.2,0-6.6,4.8-9.1,9.9c-1.2,2.4-2.4,4.8-3.8,6.7c-3.7,5-7.8,9.5-12.9,13.8
		c-0.3-0.4-0.6-0.7-0.9-1.1c-0.5-0.6-1.5-0.7-2.1-0.2s-0.7,1.5-0.2,2.1c0.3,0.4,0.6,0.8,1,1.1c-2.2,1.8-4.6,3.6-7.2,5.4
		c-0.7,0.5-1.6,0.3-2.1-0.4c-0.5-0.7-0.3-1.6,0.4-2.1c9.4-6.6,16.1-12.8,21.6-20.4c1.3-1.7,2.3-3.9,3.5-6.3
		c2.7-5.4,5.7-11.6,11.8-11.6c4.1,0,8.9,6.2,16.8,16.4c4.2,5.4,9.4,12.1,15.5,19c4.2-2,9.4-5.1,14.6-8.8c0.4-0.3,0.7-0.5,1.2-0.5
		c2.5,0,6.1,3.4,10.2,7.5c0.7,0.7,1.2,1.2,1.6,1.6c4.6,4.2,29.6,28.5,36.3,35.2l3.6,3.6l0.9,0.9
		C488.6,584.1,488.6,585.1,488.1,585.7"/>
	<path class="st5" d="M491,579.7c0.6-0.6,1.5-0.6,2.1-0.1c0.4,0.4,0.9,0.8,1.3,1.2c3.3,3.2,6,6.2,8.3,9.3c0.5-0.4,1.1-0.9,1.6-1.3
		c1.5-1.3,3.1-2.8,5.5-2.8c2.6,0,4.5,1.5,6.2,2.9c1.6,1.3,3.1,2.5,5,2.5c1.4,0,2.9-0.4,4.7-1.2c0.6-0.3,1.2-0.6,1.9-0.9
		c0.7-0.4,1.6-0.1,2,0.6c0.4,0.7,0.1,1.6-0.6,2c-0.3,0.2-0.6,0.3-1,0.5c-2,1-4.4,1.9-7,1.9c-3,0-5.1-1.7-6.9-3.2
		c-1.5-1.2-2.8-2.2-4.3-2.2c-1.2,0-2.1,0.8-3.5,2c-0.9,0.8-2,1.8-3.3,2.4c-0.7,0.3-1.5,0.1-1.9-0.5c-2.4-3.4-5.3-6.7-9.1-10.3
		c-0.3-0.3-0.6-0.6-0.9-0.9C490.4,581.2,490.4,580.3,491,579.7"/>
	<path class="st5" d="M358.5,540.7c0.6-0.5,1.6-0.4,2.1,0.2c0.3,0.4,0.6,0.8,0.9,1.1c2.9,3.4,5.1,5.1,6.4,5.1c0.4,0,1.4-1.1,2-1.7
		c1.2-1.3,2.5-2.6,4.2-2.6h0.2c9,0.6,12.4,6,15.1,10.4c3.7,5.8,6.1,9.7,20.5,1.1c0.5-0.3,1.1-0.3,1.6,0c1.7,1.1,3,2.5,4.2,3.8
		c2.2,2.5,4.2,4.6,8.8,4.6c4.3,0,8.4-2.5,12.7-5.2c3.6-2.2,7.2-4.5,11.2-5.4c0.8-0.2,1.6,0.3,1.8,1.1c0.2,0.8-0.3,1.6-1.1,1.8
		c-3.5,0.8-7,2.9-10.3,5c-4.5,2.8-9.1,5.7-14.3,5.7c-5.9,0-8.6-3-11-5.6c-0.9-1-1.8-2-2.8-2.8c-15.1,8.8-19.2,4.7-23.7-2.5
		c-2.6-4.2-5.3-8.5-12.8-9c-0.4,0-1.4,1.1-2,1.7c-1.2,1.3-2.5,2.6-4.2,2.6c-2.9,0-6-3-8.7-6.2c-0.3-0.4-0.6-0.8-1-1.1
		C357.8,542.2,357.9,541.2,358.5,540.7"/>
	<path class="st5" d="M968.6,460.6c-0.1,1.9,0,4-0.1,6c0.5,0,1.1-0.2,1.7-0.1c0-2,0-4,0-6C969.7,460.6,969.1,460.6,968.6,460.6"/>
	<path class="st5" d="M972.5,466.7c-0.7-1.1-2.2-1.6-3.6-1c-2,0.9-2.5,3.2-1.5,4.9c1,1.7,3.7,2.7,5.4,2.3c2.3-0.6,2-2.7,0.6-4.2
		c-0.3,0.5-0.4,1.1-0.8,1.7c0.1,0.3,0.4,0.6,0.2,0.8c-0.9,0.2-1.6,0.1-2.4-0.2c-1.3-0.6-2.8-2.8-0.9-3.7c0.6-0.3,1.5-0.1,1.7,0.5
		c0.5,1-0.9,1.7-1,2.6c0.5,0.3,1.1,0.5,1.8,0.5C972.8,469.7,973.6,468.3,972.5,466.7"/>
	<path class="st5" d="M970.8,476.1c0-2.7,0-0.4,0-3.1c-0.6-0.2-1.1-0.6-1.7-0.8c0,3,0,0.6,0,3.6"/>
	<path class="st5" d="M968.7,440.7c-0.1,1.9,0,4,0,6c0.5,0,1.1-0.2,1.7-0.1c0-2,0-4-0.1-6C969.8,440.7,969.3,440.7,968.7,440.7"/>
	<path class="st5" d="M972.8,447.1c-0.5-1.2-1.9-2-3.3-1.6c-2.2,0.5-3.1,2.7-2.3,4.6c0.7,1.8,3.1,3.3,4.9,3.2c2.4-0.1,2.4-2.3,1.3-4
		c-0.4,0.5-0.6,1.1-1.1,1.5c0.1,0.3,0.3,0.7,0,0.8c-0.9,0-1.6-0.2-2.3-0.7c-1.2-0.8-2.2-3.3-0.2-3.8c0.6-0.2,1.4,0.2,1.6,0.8
		c0.3,1-1.2,1.5-1.4,2.4c0.5,0.4,1,0.7,1.6,0.9C972.5,450.1,973.6,448.9,972.8,447.1"/>
	<path class="st5" d="M968.5,462c0.6,0,1.1,0,1.7,0c0-2.7,0-5.4,0-8.1c-0.6-0.2-1.1-0.6-1.7-0.8C968.5,456,968.5,459,968.5,462"/>
	<path class="st5" d="M968.3,420.5c-0.2,1.9-0.1,4-0.1,6c0.5,0,1.1-0.2,1.7,0c0-2,0-4,0.1-6C969.4,420.5,968.8,420.5,968.3,420.5"/>
	<path class="st5" d="M972.5,427.8c-0.2-1.3-1.3-2.4-2.8-2.4c-2.2-0.1-3.7,1.8-3.5,3.8s2.1,4.1,3.8,4.4c2.3,0.5,3-1.6,2.3-3.5
		c-0.5,0.4-0.9,0.9-1.4,1.2c0,0.3,0.1,0.7-0.2,0.8c-0.9-0.3-1.5-0.6-2.1-1.2c-0.9-1.1-1.3-3.8,0.8-3.7c0.7,0,1.3,0.6,1.3,1.2
		c0,1.1-1.5,1.2-2,2c0.4,0.5,0.8,0.9,1.3,1.3C971.4,430.6,972.8,429.7,972.5,427.8"/>
	<path class="st5" d="M968.7,442.1c0.6,0,1.1,0,1.7,0c0-2.7-0.1-5.4-0.1-8.1c-0.6-0.2-1.1-0.5-1.7-0.8
		C968.6,436.2,968.7,439.1,968.7,442.1"/>
	<path class="st5" d="M968.7,398.7c-0.1,1.9,0,4-0.1,6c0.5,0,1.1-0.2,1.7-0.1c0-2,0-4,0-6C969.8,398.7,969.3,398.7,968.7,398.7"/>
	<path class="st5" d="M972.3,407.7c-0.2-1.3-1.3-2.4-2.7-2.5c-2.2-0.1-3.7,1.7-3.5,3.7c0.1,2,2,4.1,3.7,4.5c2.3,0.5,3-1.5,2.4-3.5
		c-0.5,0.3-0.9,0.8-1.5,1.1c0,0.3,0.1,0.7-0.2,0.8c-0.9-0.3-1.5-0.6-2-1.3c-0.9-1.1-1.2-3.8,0.9-3.7c0.7,0,1.3,0.6,1.3,1.2
		c0,1.1-1.6,1.1-2.1,1.9c0.3,0.5,0.8,1,1.3,1.3C971.2,410.5,972.6,409.6,972.3,407.7"/>
	<path class="st5" d="M968.2,421.9c0.6,0,1.1,0,1.7,0c0-2.7,0.1-5.4,0.1-8.1c-0.6-0.2-1.1-0.6-1.7-0.9
		C968.3,415.9,968.2,418.9,968.2,421.9"/>
	<path class="st5" d="M971.7,376.5c-0.6,1.8-1,3.9-1.6,5.8c0.5,0.1,1.2,0.1,1.6,0.4c0.5-1.9,1-3.9,1.5-5.8
		C972.7,376.8,972.2,376.7,971.7,376.5"/>
	<path class="st5" d="M973.2,386.1c0.1-1.3-0.6-2.6-2.1-3.1c-2.1-0.7-4,0.7-4.3,2.7c-0.3,1.9,1,4.5,2.5,5.3c2.1,1.1,3.3-0.8,3.2-2.8
		c-0.6,0.2-1.1,0.6-1.7,0.7c-0.1,0.3-0.1,0.7-0.4,0.7c-0.8-0.5-1.3-1-1.7-1.7c-0.6-1.3-0.2-4,1.8-3.4c0.6,0.2,1.2,0.9,1,1.5
		c-0.3,1-1.8,0.7-2.5,1.4c0.2,0.6,0.5,1.1,1,1.6C971.4,388.5,973,388,973.2,386.1"/>
	<path class="st5" d="M968.7,400.1c0.6,0,1.1,0,1.7,0c0-2.7,0-5.4,0-8.1c-0.6-0.2-1.1-0.6-1.7-0.8
		C968.7,394.2,968.7,397.1,968.7,400.1"/>
	<path class="st5" d="M801.2,558.1c5.3,0.5,10.6-1.4,14.8-5.2c4-3.7,6.6-8.8,7.1-14c0.8-8.4-3.4-16.7-10.4-20.6
		c-1.1-0.6-1.9-1-3.2-1.3c-1.8-0.4-3.5-0.7-5-0.8c-6.3-0.6-11.8,0.9-15.8,4.1c-3.7,3-6,7.6-6.5,13C781,546.3,789.2,557,801.2,558.1
		 M785.2,533.8c0.9-9.8,8.4-15.5,19-14.5c1.4,0.1,2.8,0.4,4.4,0.7c1,0.2,1.7,0.5,2.6,1.1c5.9,3.3,9.5,10.4,8.8,17.6
		c-0.8,8.5-8.6,17.3-18.7,16.4C791.2,554,784.2,544.9,785.2,533.8 M803.6,597.1h-3v-39h3V597.1z"/>
	<path class="st6" d="M805.2,530.8c-1.5,0.3-4.1,1.8-7.3,3.5c-1.3,0.7-7,4.3-8.3,6c-0.5,0.6,1.1-2.2,2.1-0.6
		c0.5,0.8,3.6-0.9,4.9,0.2c0.5,0.4,2.4,1.8,3.8,0.8c1.1-0.8,3-0.6,4.1-2.4c1-1.5,2.3,0.6,3.2-3.1c0.9-3.7,0.9-3.5,0.9-3.5
		S806.7,530.4,805.2,530.8"/>
	<path class="st4" d="M806.1,538.3c0.6-0.5,0.5-1.5,0.8-2.2c0.2-0.4,0.4-0.9,0.2-1.3c0-0.1,0-0.2-0.1-0.3c0.1,0,0.2,0.1,0.3,0.1
		s0.3,0.1,0.4,0.1c-0.6-0.4-1.2-0.8-1.9-1c0.1,0.1,0.1,0.1,0.2,0.2c-0.2,0-0.5,0.1-0.7,0.3c-0.6,0.5-0.8,1.3-1,2
		c-0.3,1.2-0.8,1.6-2.2,1.9c-1.1,0.2-2.1-0.4-3,0.1c-0.7,0.4-1.6,0.1-2.3,0.6c-0.7,0.4-0.8,0.2-0.3,0.6c0.1,0.2,0.2,0.3,0.4,0.2
		c0.2,0.1,0.3,0.2,0.5,0.2c1.4,0.6,2.9,0.4,4.2-0.1C803.5,539.1,804.2,539.9,806.1,538.3"/>
	<path class="st7" d="M805,530.7c-1.5,0.3-4.1,1.8-7.3,3.5c-1.3,0.7-7,4.3-8.3,6c-0.5,0.6,4.8-4.4,5.4-0.3c0.2,1,3.1-2.5,4.4-1.4
		c0.5,0.4,1.1,2.2,1.3,2.4c1.4,1.4,0.6,0,4.4-2.6c1.5-1,0.9,9.1,2.7-3.2c0.6-3.8,0.9-3.5,0.9-3.5S806.6,530.3,805,530.7z"/>
	<path class="st6" d="M812.5,533.6c-1.8,1.6-4.6,1.5-6.3-0.4s-1.5-4.6,0.4-6.3c1.8-1.6,4.6-1.5,6.3,0.4
		C814.5,529.2,814.3,532,812.5,533.6"/>
	<path class="st4" d="M806.6,533.6c0.4,0.2,0.8,0.4,1.2,0.6c0,0,0,0,0-0.1c0.1,0,0.2,0.1,0.3,0.1c1.4,0.5,3.5,0.5,4.1-1
		c0.7-1.6-2-1.3-2.7-1.3c-0.8,0-1.6-0.3-2.2-0.9c-0.1-0.2-0.2-0.3-0.3-0.4c-0.6-0.7-0.8-1.7-0.4-2.6c0.2-0.4-0.3-0.6-0.6-0.4
		c-0.1-0.4-0.7-0.4-0.8,0c0,0.2-0.1,0.3-0.1,0.5c-0.2,0.3-0.3,0.7-0.3,1.1c0,0.1,0,0.2,0.1,0.3c-0.1,0.1-0.1,0.1-0.1,0.2
		c0.1,1.5,0.8,2.9,1.9,3.8C806.7,533.6,806.7,533.6,806.6,533.6"/>
	<circle class="st7" cx="809.4" cy="530.2" r="4.4"/>
	<path class="st8" d="M801,534.3c0,0-2-12.6,9.2-10.6"/>
	<path class="st7" d="M806.2,540.2c0,0-0.1,3.5,3.8-0.5c5-5.1-0.3,4.6,5.1,2.6c0.7-0.3,1.7-3,2.7-2.8c1,0.2,0.6,2.9,2.3,3.2"/>
	<path class="st7" d="M786.2,543.2c0,0-0.1,3.5,3.8-0.5c5-5.1-0.3,4.6,5.1,2.6c0.7-0.3,1.7-3,2.7-2.8c1,0.2,0.1,2.2,1.8,2.5"/>
	<path class="st7" d="M799.1,545c0,0,0.6,0.7,2.9-1.3c5.4-4.7-0.3,4.6,5.1,2.6c0.7-0.3,1.7-3,2.7-2.8c1,0.2,0.6,2.9,2.3,3.2"/>
	<path class="st7" d="M810.2,545.2c0,0-0.1,3.5,3.8-0.5c5-5.1-0.3,4.6,5.1,2.6c0.7-0.3,1.7-3,2.7-2.8"/>
	<path class="st7" d="M789.4,540.2c0,0-4,1.5-3.5-1.4"/>
	<line class="st9" x1="789.4" y1="523.4" x2="816.4" y2="551.6"/>
	<pattern  id="SVGID_1_" xlink:href="#SVGID_4_" patternTransform="matrix(1 0 0 -1 -4243.3608 -15068.8711)">
	</pattern>
	<path class="st10" d="M348.5,374.6c0,0.1-0.1,0.2-0.1,0.3c0.3,0.4,0.6,0.7,0.8,1.2c0.2,0,0.4,0.1,0.7,0.1c1.1,0.2,2.2,0.4,3.4,0.5
		C351.6,376.2,350,375.5,348.5,374.6"/>
	<pattern  id="SVGID_2_" xlink:href="#SVGID_5_" patternTransform="matrix(1 0 0 -1 -4243.3608 -15068.8711)">
	</pattern>
	<path class="st11" d="M789.7,376.1c-0.7,0.6-1.5,1.2-2.2,1.8c1.6,0,3.2,0.1,4.8,0.2C791.4,377.4,790.5,376.8,789.7,376.1"/>
	<pattern  id="SVGID_3_" xlink:href="#SVGID_6_" patternTransform="matrix(1 0 0 -1 -4243.3608 -15068.8711)">
	</pattern>
	<path class="st12" d="M787.1,353.5c1.2,1.4,2.3,2.7,3.4,4.1c1.7-1.3,3.3-2.7,4.9-4.1c-0.4,0-0.9,0-1.3,0
		C791.8,353.5,789.4,353.5,787.1,353.5"/>
	<path class="st5" d="M736.8,344c-4.6-126-0.4-160.7-0.6-287.1"/>
	<path class="st5" d="M920.8,344c-0.3-9.1-0.6-278-0.6-287.1c0-1.1,0-2.2,0-3.3c0-0.8-0.7-1.5-1.5-1.5s-1.5,0.7-1.5,1.5
		c0,0.2,0,0.5,0,0.7c0,10.2,0.3,280,0.6,290C918.8,344.1,919.8,344.1,920.8,344"/>
	<path class="st5" d="M920.8,344c-4.6-126-0.4-160.7-0.6-287.1"/>
	<circle class="st13" cx="736" cy="342.7" r="6.3"/>
	<circle class="st13" cx="918" cy="342.7" r="6.3"/>
</g>
<g id="Layer_2">
</g>
<path class="st5" d="M1430.6,605.9c-0.1,0.2-0.1,0.4-0.2,0.6C1430.5,606.2,1430.5,606,1430.6,605.9z"/>
<path class="st5" d="M1431,605.2c-0.1,0.2-0.2,0.4-0.3,0.6C1430.7,605.5,1430.8,605.3,1431,605.2z"/>
<path class="st5" d="M1082.3,605.8c-0.3,1.1-0.6,2.1-0.9,3.2C1081.7,607.9,1082,606.9,1082.3,605.8z"/>
<path class="st5" d="M1430.3,606.7c-0.1,0.2-0.1,0.4-0.1,0.7C1430.2,607.1,1430.3,606.9,1430.3,606.7z"/>
<path class="st5" d="M1431.5,604.5c-0.2,0.2-0.3,0.3-0.4,0.5C1431.2,604.8,1431.3,604.6,1431.5,604.5z"/>
<path class="st5" d="M1439,605.4c-0.4-0.3-0.7-0.6-1.1-0.9C1438.2,604.8,1438.6,605.1,1439,605.4z"/>
<path class="st5" d="M1245.2,420.6c-0.3-0.6-0.6-1.2-0.9-1.8c-3-7.2-5.9-14.5-9-21.7c-2.5-5.9-5.1-11.6-7.5-17.5
	c-4.3-10.7-8.5-21.5-12.8-32.3c-3.8-9.6-7.7-19.1-11.6-28.7c-1.5-3.8-3.5-7.4-6.4-10.4c-1.4-1.4-2.8-3.1-5-3.1
	c-4-0.1-7.4,1.1-9.6,4.8c-1.3,2.2-2.6,4.5-3.6,6.9c-1.9,4.6-3.7,9.2-5.5,13.9c-4.8,12.2-9.6,24.4-14.5,36.7
	c-0.1,0.2-0.1,0.4-0.2,0.7c-2.3,6.8-4.3,13.6-7,20.2c-4.6,11.1-70.6,203.5-74.3,215c-1,3.3-2.4,6.6-1.2,10.8
	c0.9,0.4,1.9,0.8,2.8,1.3c0.9-2,1.6-4,2.2-6.1c0.5-4.6,1.6-8.7,3-12.7c2.5-7,67.2-195.1,69.7-202.1c2.4-6.7,4.7-13.5,7-20.2
	c0.3-0.9,0.8-1.7,1.2-2.7c5.5,1.9,8.5-1.2,11.2-5.1c1-1.4,1.8-2.8,2.9-4.6c-0.1,3.3-0.2,6.2-0.3,9.1c0,1.1,0,2.2,0.3,3.2
	c0.9,3.9,4.5,5.9,8.4,4.5c2.8-1,4.7-2.9,5.8-5.6c1-2.4,1.6-5,2.5-7.8c4.4,5,8.5,4.2,12.4-2.4c0.4,0.7,0.8,1.3,1.1,1.9
	c0.4,0.9,0.8,1.8,1.2,2.6c1.9,3.8,4.6,5.4,8.7,5.1c1.2-0.1,2.3-0.3,3.6-0.5c1,2.4,2.1,4.8,3.1,7.3c4.9,11.9,9.8,23.9,14.7,35.8
	c0.8,1.9,1.4,3.8,2,5.7c0.7,2.2,75.6,183.3,73.8,184.6c-0.4,0.3-0.8,0.5-1.3,0.8c-0.1-0.1-0.1-0.1-0.2-0.2c1.1,1.1,2.2,2.2,3.2,3.4
	c1.6-0.3,3-0.7,3.8-1.3C1321.8,606.1,1246.7,423.4,1245.2,420.6z"/>
<path class="st5" d="M1430.2,608.1c0-0.2,0-0.4,0-0.6C1430.2,607.7,1430.2,607.9,1430.2,608.1z"/>
<path class="st6" d="M1430.2,608.2L1430.2,608.2C1430.2,608.1,1430.2,608.2,1430.2,608.2z"/>
<path class="st6" d="M1431.1,605c0,0-0.1,0.1-0.1,0.2C1431,605.1,1431,605.1,1431.1,605z"/>
<path class="st6" d="M1439.6,606c-0.2-0.2-0.4-0.4-0.6-0.6C1439.2,605.6,1439.4,605.8,1439.6,606z"/>
<path class="st6" d="M1089.5,613.5L1089.5,613.5c0.6-1.7,1.1-3.5,1.5-5.3C1090.5,610,1090,611.7,1089.5,613.5z"/>
<path class="st6" d="M1081.3,609.3c0-0.1,0-0.2,0.1-0.3C1081.4,609.1,1081.4,609.1,1081.3,609.3
	C1081.3,609.2,1081.3,609.3,1081.3,609.3z"/>
<path class="st6" d="M1430.6,605.7L1430.6,605.7C1430.6,605.8,1430.6,605.8,1430.6,605.7z"/>
<path class="st6" d="M1430.2,607.3L1430.2,607.3C1430.2,607.4,1430.2,607.4,1430.2,607.3z"/>
<path class="st6" d="M1430.4,606.4c0,0.1,0,0.2-0.1,0.2C1430.4,606.6,1430.4,606.5,1430.4,606.4z"/>
<path class="st6" d="M1313.7,605.4c1.8-1.3-73.2-182.5-73.8-184.6c-0.6-1.9-1.2-3.9-2-5.7c-4.9-11.9-9.8-23.9-14.7-35.8
	c-1-2.5-2.1-4.9-3.1-7.3c-1.3,0.2-2.4,0.4-3.6,0.5c-4.1,0.3-6.9-1.3-8.7-5.1c-0.4-0.9-0.8-1.8-1.2-2.6c-0.3-0.6-0.7-1.2-1.1-1.9
	c-3.9,6.6-7.9,7.4-12.4,2.4c-0.9,2.7-1.5,5.3-2.5,7.8c-1.1,2.7-3,4.6-5.8,5.6c-3.9,1.3-7.5-0.6-8.4-4.5c-0.2-1-0.3-2.1-0.3-3.2
	c0-2.9,0.2-5.8,0.3-9.1c-1.1,1.7-1.9,3.2-2.9,4.6c-2.7,3.9-5.7,7.1-11.2,5.1c-0.5,1-0.9,1.8-1.2,2.7c-2.4,6.7-4.6,13.5-7,20.2
	c-2.5,7-67.2,195.1-69.7,202.1c-1.4,4-2.5,8.1-3,12.7c0-0.1,0-0.2,0.1-0.2c0.3-1.1,0.6-2.1,0.9-3.2c1.4-5.6,10.1-3.2,8.7,2.4
	c-0.5,1.8-1,3.5-1.5,5.3c0.3,0.1,0.6,0.2,1,0.3c3.9,1.1,7.9,1.7,11.9,2.4c3,0.5,6.1,1.1,9.2,1.2c7,0.3,14,0.9,21,0.2
	c4.4-0.4,115-4.3,119.5-4.9c4.1-0.6,30.9-2.5,35-3.1c3.8-0.6,10.1-0.6,15.9-1.3c0-0.1,0-0.1,0-0.2v-0.1c0-0.2,0-0.4,0-0.6v-0.1
	c0-0.2,0.1-0.5,0.1-0.7c0-0.1,0-0.2,0.1-0.2c0.1-0.2,0.1-0.4,0.2-0.6v-0.1c0.1-0.2,0.2-0.4,0.3-0.6c0-0.1,0.1-0.1,0.1-0.2
	c0.1-0.2,0.3-0.4,0.4-0.5c1.9-1.9,4.4-1.5,6.4,0c0.4,0.3,0.8,0.6,1.1,0.9c0.2,0.2,0.4,0.4,0.6,0.6c0.1,0.1,0.1,0.1,0.2,0.2
	C1312.9,605.9,1313.3,605.6,1313.7,605.4z"/>
<path class="st6" d="M1164.5,367.6c0.5-2.2,0.9-4.3,1.5-6.4c1.8-6.4,4.1-12.7,6.8-18.8c3.4-7.7,6.4-15.5,9.6-23.2
	c0.7-1.7,1.8-3.4,3-4.9c2.8-3.5,7.7-3.5,10.4,0c2.1,2.7,3.8,5.5,5,8.8c2.2,6.1,4.6,12.1,7,18.1c0.9,2.2,2,4.2,2.9,6.4
	c2.6,6.5,5.2,13,7.9,19.5c-2.7,2.2-5.9,1.9-8-1.3c-1.6-2.5-2.8-5.3-3.7-8.1c-0.8-2.6-1-5.4-1.5-8.1c-0.4-2.2-0.7-4.4-2.1-6.2
	c-1.4,0-1.8,0.8-1.6,1.9c0.2,0.8,0.5,1.6,0.8,2.4c1.3,4.3,1.6,8.6,0.4,12.9c-0.8,2.7-2.3,3.7-4.9,3.6c-1.5,0-2.6-0.8-2.8-2.1
	c-0.5-2.8-0.8-5.6-0.9-8.5c-0.1-3.8,0.2-7.7,0.2-11.5c0-1.4,0-2.8-1.2-3.8c-1.6,0.2-1.3,1.4-1.4,2.4c-0.1,4.8,0.1,9.5-0.3,14.3
	c-0.3,4.9-1,9.7-2.6,14.3c-0.9,2.4-2.4,4.2-4.9,5.1c-2.8,1-5.4-0.1-5.8-3c-0.4-3.1-0.4-6.4-0.2-9.5c0.6-6.6,1.9-13,3.9-19.3
	c0.5-1.6,1.4-3.5-0.1-5.2c-1.4,0.1-1.4,1.2-1.6,2.3c-1.3,5.9-2.6,11.9-5.2,17.3c-1.5,3.1-3.5,6.1-5.5,8.9
	C1168.8,367.7,1167,368.5,1164.5,367.6"/>
<path class="st0" d="M1437.8,604.5c-1.9-1.5-4.5-1.9-6.4,0c-1.5,1.5-1.9,4.9,0,6.4c2.6,2,4.9,4.9,6.6,7.1c1.5,1.9,3.9,2.9,6.2,1.6
	c1.9-1.1,3.1-4.2,1.6-6.2C1443.5,610.2,1441,606.9,1437.8,604.5z"/>
<path class="st5" d="M1233.7,637.1C1233.7,637,1233.7,637,1233.7,637.1C1233.7,637,1233.7,637,1233.7,637.1z"/>
<path class="st5" d="M1233.6,637.6L1233.6,637.6L1233.6,637.6z"/>
<path class="st5" d="M1233.8,635.8L1233.8,635.8L1233.8,635.8z"/>
<path class="st5" d="M1226.5,632.5c-0.2,0.1-0.4,0.1-0.6,0.2C1226.1,632.6,1226.3,632.5,1226.5,632.5z"/>
<path class="st5" d="M1228.1,632c-0.4,0.1-0.8,0.2-1.2,0.3C1227.3,632.2,1227.7,632.1,1228.1,632z"/>
<path class="st5" d="M1491.5,629.1C1491.4,629,1491.4,629,1491.5,629.1C1491.4,629,1491.4,629,1491.5,629.1z"/>
<path class="st5" d="M1233.1,638.8L1233.1,638.8L1233.1,638.8z"/>
<path class="st5" d="M1332.9,539.5c-0.8-1.6-1.6-3.2-2.3-4.8c-3.4-7.7-6.9-15.5-10.3-23.2c-2.7-6.2-5.3-12.5-7.9-18.8
	c-2.3-5.5-4.4-11.1-8.2-15.8c-4.1-5.2-8.6-6.4-13.1-1.5c-3.3,3.5-5.8,7.9-8,12.2c-2.2,4.2-3.4,9-5.3,13.4
	c-4.5,10.5-9.3,20.9-13.8,31.3c-1.8,4.2-43.7,97.2-45.2,101.5c-0.2,0.5,0.1,1.6,0.5,1.9c0.5,0.5,1,1,1.6,1.5c1-1.4,2.2-2.7,3.6-3.6
	c-0.1,0.1-0.2,0.1-0.3,0.2c-0.2-0.4-0.2-1-0.1-1.4c1.7-5.5,43.5-99.8,47.1-104.8c3.8,3.1,8.1,2.2,10.3-2.2c1.6-3.2,3-6.4,4.7-9.9
	c0.3,1.8,0.5,3.3,0.9,4.8c1,4.2,4.1,5.7,8.1,3.8c1.9-0.9,3.3-2.4,4.2-4.4c0.5-1.2,0.9-2.4,1.6-4c1.3,2.6,3,3.6,5.5,3
	c2.4-0.5,2.8-2.5,3.5-4.2c1.3,1.7,2.3,4,4.1,5.2c1.7,1.1,4.2,1.1,7.1,1.7c2,4.4,4.2,9.4,6.5,14.4c0.6,1.4,40,87.3,40.5,88.7
	c1.1,2.8,0.9,4.1-1.4,6c-0.2,0.2-0.4,0.3-0.6,0.5l0,0c0.6,1-0.9-0.3-1.2,0.8c0,0.1,0-0.1,0,0c-1.6-2.9-2.5,1.7-2.5,1.8
	s-6.1,2.7-6.1,2.8c1.5-1,13.1-3.3,14.4-4.5C1372.9,629.7,1334.4,542.4,1332.9,539.5z"/>
<path class="st5" d="M1484.8,632.7L1484.8,632.7C1484.8,632.8,1484.8,632.8,1484.8,632.7z"/>
<path class="st5" d="M1492.1,629.5L1492.1,629.5L1492.1,629.5z"/>
<path class="st5" d="M1225.3,633c-0.1,0.1-0.3,0.1-0.4,0.2C1225,633.1,1225.2,633,1225.3,633z"/>
<path class="st5" d="M1233.8,636.3C1233.8,636.3,1233.8,636.4,1233.8,636.3C1233.8,636.4,1233.8,636.3,1233.8,636.3z"/>
<path class="st6" d="M1485,631.8c-0.1,0.3-0.2,0.6-0.2,0.9C1484.8,632.4,1484.9,632.1,1485,631.8z"/>
<path class="st6" d="M1233.1,638.8c0.2-0.4,0.4-0.7,0.5-1.1C1233.5,638,1233.3,638.4,1233.1,638.8z"/>
<path class="st6" d="M1484.6,635.7L1484.6,635.7c-0.1-1,0-1.9,0.1-2.8C1484.6,633.8,1484.6,634.7,1484.6,635.7z"/>
<path class="st6" d="M1491.4,629c-0.3-0.1-0.5-0.3-0.8-0.3C1490.8,628.7,1491.1,628.9,1491.4,629z"/>
<path class="st6" d="M1492.1,629.5c-0.2-0.2-0.4-0.3-0.6-0.4C1491.7,629.2,1491.9,629.3,1492.1,629.5z"/>
<path class="st6" d="M1225.9,632.7c-0.2,0.1-0.4,0.2-0.5,0.3C1225.5,632.9,1225.7,632.8,1225.9,632.7z"/>
<path class="st6" d="M1492.1,629.5c0.4,0.4,0.8,0.8,1.1,1.3C1493,630.3,1492.6,629.9,1492.1,629.5z"/>
<path class="st6" d="M1224.9,633.2c-0.2,0.1-0.4,0.2-0.5,0.3C1224.5,633.4,1224.7,633.3,1224.9,633.2z"/>
<path class="st6" d="M1226.9,632.3c-0.2,0.1-0.3,0.1-0.5,0.2C1226.6,632.4,1226.8,632.3,1226.9,632.3z"/>
<path class="st6" d="M1233.7,635.7c0-0.2-0.1-0.4-0.1-0.5C1233.7,635.3,1233.7,635.5,1233.7,635.7z"/>
<path class="st6" d="M1233.8,636.3c0-0.2,0-0.3,0-0.5C1233.8,636,1233.8,636.1,1233.8,636.3z"/>
<path class="st6" d="M1233.6,637.6c0.1-0.2,0.1-0.4,0.1-0.5C1233.7,637.2,1233.6,637.4,1233.6,637.6z"/>
<path class="st6" d="M1233.1,638.8c-0.2,0.4-0.5,0.7-0.8,1l0,0C1232.6,639.5,1232.8,639.2,1233.1,638.8z"/>
<path class="st6" d="M1233.8,636.4c0,0.2,0,0.4-0.1,0.6C1233.8,636.8,1233.8,636.6,1233.8,636.4z"/>
<path class="st6" d="M1366.5,630.4c2.2-1.9,2.5-3.3,1.4-6c-0.6-1.4-39.9-87.3-40.5-88.7c-2.3-5-4.5-10-6.5-14.4
	c-2.9-0.6-5.3-0.6-7.1-1.7c-1.8-1.2-2.8-3.4-4.1-5.2c-0.6,1.7-1.1,3.7-3.5,4.2c-2.6,0.6-4.3-0.5-5.5-3c-0.6,1.6-1.1,2.8-1.6,4
	c-0.8,2-2.3,3.4-4.2,4.4c-3.9,1.9-7,0.5-8.1-3.8c-0.3-1.4-0.5-2.9-0.9-4.8c-1.7,3.6-3.1,6.8-4.7,9.9c-2.2,4.3-6.5,5.3-10.3,2.2
	c-3.5,5-45.3,99.3-47.1,104.8c-0.1,0.4-0.1,1,0.1,1.4c0.1-0.1,9,5,9,5c-0.2,0.4,18.4,6.7,28.8,4.7c3.9-0.7,86.7-5.9,90.6-6.5
	c9.2-1.4,13.1-6.7,13.4-6.2l0,0C1366.1,630.7,1366.3,630.5,1366.5,630.4z"/>
<path class="st6" d="M1290.1,500.3c-1.6,0.1-1.4,1.4-1.7,2.2c-2.1,5.5-4.1,11.1-6.3,16.7c-0.6,1.6-1.5,3.2-2.6,4.6
	c-0.9,1.1-2.2,2-3.4,2.5c-1.6,0.7-3-0.2-2.9-2c0-1.4,0.2-2.9,0.6-4.3c1.8-5.5,4.2-10.7,6.6-15.9c1.4-3.1,2.5-6.4,3.8-9.5
	c2.4-5.6,4.9-11.1,9.3-15.4c2.3-2.3,5-2.3,7.2,0.1c1.9,2,3.5,4.2,4.9,6.5c1.6,2.8,2.9,5.8,4.1,8.7c2.8,6.5,5.4,13,8.2,19.4
	c0.1,0.4,0.4,0.7,0.4,1.1c0.1,0.8,0.5,1.9,0.1,2.4c-0.8,1-2,0.4-2.9-0.1c-1.8-1.1-3.2-2.6-3.7-4.7c-0.7-2.5-1.4-5.1-2.1-7.6
	c-0.2-0.8-0.4-1.8-1.4-1.3c-0.4,0.2-0.7,1.3-0.6,1.9c0.1,2,0.4,4.1,0.5,6.1c0,0.8-0.2,1.5-0.5,2.3c-0.4,1.2-1.3,1.7-2.5,1.7
	s-2.1-0.6-2.3-1.8c-0.4-2.6-0.7-5.2-0.9-7.8c-0.2-2,0.2-4.1-0.9-6c-1.9-0.1-1.6,1.2-1.4,2.2c0.9,4.4,0.3,8.8-0.8,13
	c-0.3,1.2-0.7,2.5-1.5,3.5c-0.9,1.1-2.1,2.2-3.3,2.6c-2.4,0.9-4-0.2-4.3-2.7c-0.6-4.1-0.3-8.2,0.7-12.2
	C1290.7,504.4,1291.2,502.3,1290.1,500.3"/>
<path class="st14" d="M1104,617.3c0.7-2.8,0.8-5.6,0.5-8.8c-0.5-5,0-8.9,1.9-13.6c2-4.9,66.6-190.6,67.6-195.8
	c0.9-4.8,0.9-9.7,2-14.5c0.2-0.7,1-0.9,1.5-0.6c5.4,2.7,13.9,0.8,17-4.5c2.2-3.8,2.9-6.7,2.8-11c-1.3-0.5-2.4-1.4-3.8-2.9
	c-0.9,2.8-1.7,4-2.7,6.5c-1.1,2.7-3.1,4.7-6,5.7c-4,1.4-7.7-0.6-8.6-4.6c-0.2-1-0.3-2.2-0.3-3.3c0.1-3,0.2-6,0.3-9.3
	c-1.1,1.8-2,3.3-2.9,4.7c-2.7,4-5.9,7.3-11.5,5.3c-0.5,1-0.9,1.9-1.3,2.8c-2.4,6.9-4.7,13.9-7.2,20.8
	c-2.6,7.2-67.3,195.5-69.9,202.7c-1.6,4.4-2.8,9-3.2,14.1c3.2,1.3,6.2,2.8,9.4,3.7c4,1.1,8.1,1.8,12.2,2.5
	C1102.6,617,1103.3,617.1,1104,617.3"/>
<path class="st14" d="M1300.8,515.2c-0.6,1.6-1.1,2.8-1.6,4c-0.9,2-2.3,3.5-4.3,4.5c-4,2-7.1,0.5-8.2-3.8c-0.4-1.5-0.6-3-0.9-4.8
	c-1.7,3.6-3.2,6.9-4.8,10.1c-2.2,4.4-6.6,5.4-10.5,2.2c-3.6,5.1-45.4,99.5-47.2,105.1c-0.1,0.5-0.1,1.2,0.2,1.6
	c6.5,4.7,13.7,6.1,16.7,6.9c-0.6-2.3-0.4-2.4-0.2-4.8c0.2-3.1,42.1-94.6,43.3-97.4c1.6-3.6,3.1-7.2,4.1-11c0.2-0.6,0.9-0.9,1.4-0.6
	c7.9,4.1,13.3-1.7,14.2-9.1C1302.2,517.5,1301.4,516.6,1300.8,515.2z"/>
</svg>
