<?xml version="1.0" encoding="utf-8"?>
<!-- Generator: Adobe Illustrator 19.0.0, SVG Export Plug-In . SVG Version: 6.00 Build 0)  -->
<svg version="1.1" id="Capa_1" xmlns="http://www.w3.org/2000/svg" xmlns:xlink="http://www.w3.org/1999/xlink" x="0px" y="0px"
	 viewBox="0 0 1024 690" style="enable-background:new 0 0 1024 690;" xml:space="preserve">
<style type="text/css">
	.st0{fill:none;}
	.st1{fill:#DBDBDD;}
	.st2{fill:#F5F5F5;}
	.st3{fill:#FFCC80;}
	.st4{fill:#E0DFE6;}
	.st5{fill:#1F4D69;}
	.st6{fill:#FFFFFF;}
	.st7{fill:none;stroke:#1F4D69;stroke-width:0.988;stroke-miterlimit:10;}
	.st8{fill:none;stroke:#1F4D69;stroke-width:0.988;stroke-linecap:round;stroke-miterlimit:10;}
	.st9{fill:none;stroke:#1F4D69;stroke-width:4;stroke-linecap:round;stroke-miterlimit:10;}
	.st10{fill:url(#SVGID_4_);}
	.st11{fill:url(#SVGID_5_);}
	.st12{fill:url(#SVGID_6_);}
	.st13{fill:#FFFFFF;stroke:#1F4D69;stroke-width:3;stroke-miterlimit:10;}
	.st14{fill-rule:evenodd;clip-rule:evenodd;fill:#FFFFFF;}
	.st15{fill-rule:evenodd;clip-rule:evenodd;fill:#D2D9DB;}
	.st16{fill:#FA8510;}
	.st17{fill:none;stroke:#1F4D69;stroke-width:3.0499;stroke-miterlimit:10;}
</style>
<pattern  y="690" width="31" height="29.9" patternUnits="userSpaceOnUse" id="SVGID_1_" viewBox="0 -29.9 31 29.9" style="overflow:visible;">
	<g>
		<polygon class="st0" points="0,0 31,0 31,-29.9 0,-29.9 		"/>
		<g>
			<polygon class="st0" points="0,0 31,0 31,-29.9 0,-29.9 			"/>
			<path class="st1" d="M7.9-9.1c2.3-0.2,4.7-0.4,6.8-0.2l0.1-1c-2.1-0.2-4.6,0-6.9,0.2C6.2-10,4.6-9.8,3-9.8c-1.1,0-2-0.1-3-0.2v1
				c0.9,0.1,1.9,0.2,3,0.2C4.6-8.8,6.3-9,7.9-9.1"/>
			<path class="st1" d="M6.6-2.1c-0.4,0-0.7,0-1,0C5.1-2,4.6-2,3.9-2l0,1C4-1,4.2-1,4.4-1c0.5,0,0.9,0,1.2,0c0.3,0,0.6,0,1,0
				c1.3,0,4.9,0.1,6,0l-0.1-1C11.5-2,7.9-2.1,6.6-2.1"/>
			<path class="st1" d="M11.7-18.7c2.8,0,5.2-0.1,7.4-0.3L19-20c-2.2,0.2-4.6,0.3-7.3,0.3c-2.8,0-5.6-0.1-8.4-0.2
				C2.2-19.9,1.1-20,0-20v1c1.1,0,2.2,0.1,3.3,0.1C6.1-18.8,8.9-18.7,11.7-18.7"/>
			<polygon class="st1" points="16,-15 0,-15 0,-14 16,-14 			"/>
			<path class="st1" d="M16.8-28.7c1.6,0.1,3.3,0.1,5.6,0.2l0-1c-2.2-0.1-4-0.1-5.6-0.2c-3.5-0.1-6-0.2-10.9-0.2c-2,0-4,0-6,0v1
				c1.9,0,3.9,0,6,0C10.9-28.9,13.4-28.8,16.8-28.7"/>
			<path class="st1" d="M11.1-23.6c1.3,0,2.4,0.1,3.4,0.1c1.7,0.1,3.2,0.2,5.5-0.1l-0.1-1c-2.3,0.2-3.7,0.2-5.4,0.1
				c-1-0.1-2.1-0.1-3.4-0.1c-2.2,0-4.4,0-6.6-0.1c-1.5,0-3-0.1-4.5-0.1v1c1.5,0,3,0,4.5,0.1C6.7-23.6,8.9-23.6,11.1-23.6"/>
			<path class="st1" d="M1.7-6l0.1,1C4.4-5.3,8.8-5.3,12-5.3c0.8,0,1,0,2,0v-1c-1,0-1.2,0-2,0C8.8-6.3,4.3-6.3,1.7-6"/>
			<path class="st1" d="M24.5-28.6c2.1,2.4,4.3,5,6.5,7.7v-1.6c-1.9-2.3-3.8-4.6-5.7-6.8L24.5-28.6z"/>
			<polygon class="st1" points="18.1,-10 25.7,0 27,0 18.9,-10.5 			"/>
			<path class="st1" d="M22.8-23.3l-0.7,0.7c2.4,2.6,4.9,5.5,7.8,9.2c0.4,0.5,0.7,1,1.1,1.5v-1.7c-0.1-0.1-0.2-0.3-0.3-0.4
				C27.8-17.7,25.3-20.7,22.8-23.3"/>
			<path class="st1" d="M16.4-3.3C16.9-2.7,17.9-2,19.1,0h1.3c-1.4-2-2.6-3.1-3.2-3.8L16.4-3.3z"/>
			<path class="st1" d="M24.7-13.4c-1-1.3-2-2.5-2.9-3.6l-0.8,0.6l0.3,0.4c0.9,1,1.7,2.1,2.6,3.3c1.9,2.4,3.7,4.9,5.5,7.4
				c0.5,0.8,1.1,1.5,1.7,2.3v-1.7c-0.3-0.4-0.6-0.8-0.9-1.2C28.4-8.4,26.5-11,24.7-13.4"/>
		</g>
	</g>
</pattern>
<pattern  y="690" width="31" height="29.9" patternUnits="userSpaceOnUse" id="SVGID_2_" viewBox="0 -29.9 31 29.9" style="overflow:visible;">
	<g>
		<polygon class="st0" points="0,0 31,0 31,-29.9 0,-29.9 		"/>
		<g>
			<polygon class="st0" points="0,0 31,0 31,-29.9 0,-29.9 			"/>
			<path class="st1" d="M7.9-9.1c2.3-0.2,4.7-0.4,6.8-0.2l0.1-1c-2.1-0.2-4.6,0-6.9,0.2C6.2-10,4.6-9.8,3-9.8c-1.1,0-2-0.1-3-0.2v1
				c0.9,0.1,1.9,0.2,3,0.2C4.6-8.8,6.3-9,7.9-9.1"/>
			<path class="st1" d="M6.6-2.1c-0.4,0-0.7,0-1,0C5.1-2,4.6-2,3.9-2l0,1C4-1,4.2-1,4.4-1c0.5,0,0.9,0,1.2,0c0.3,0,0.6,0,1,0
				c1.3,0,4.9,0.1,6,0l-0.1-1C11.5-2,7.9-2.1,6.6-2.1"/>
			<path class="st1" d="M11.7-18.7c2.8,0,5.2-0.1,7.4-0.3L19-20c-2.2,0.2-4.6,0.3-7.3,0.3c-2.8,0-5.6-0.1-8.4-0.2
				C2.2-19.9,1.1-20,0-20v1c1.1,0,2.2,0.1,3.3,0.1C6.1-18.8,8.9-18.7,11.7-18.7"/>
			<polygon class="st1" points="16,-15 0,-15 0,-14 16,-14 			"/>
			<path class="st1" d="M16.8-28.7c1.6,0.1,3.3,0.1,5.6,0.2l0-1c-2.2-0.1-4-0.1-5.6-0.2c-3.5-0.1-6-0.2-10.9-0.2c-2,0-4,0-6,0v1
				c1.9,0,3.9,0,6,0C10.9-28.9,13.4-28.8,16.8-28.7"/>
			<path class="st1" d="M11.1-23.6c1.3,0,2.4,0.1,3.4,0.1c1.7,0.1,3.2,0.2,5.5-0.1l-0.1-1c-2.3,0.2-3.7,0.2-5.4,0.1
				c-1-0.1-2.1-0.1-3.4-0.1c-2.2,0-4.4,0-6.6-0.1c-1.5,0-3-0.1-4.5-0.1v1c1.5,0,3,0,4.5,0.1C6.7-23.6,8.9-23.6,11.1-23.6"/>
			<path class="st1" d="M1.7-6l0.1,1C4.4-5.3,8.8-5.3,12-5.3c0.8,0,1,0,2,0v-1c-1,0-1.2,0-2,0C8.8-6.3,4.3-6.3,1.7-6"/>
			<path class="st1" d="M24.5-28.6c2.1,2.4,4.3,5,6.5,7.7v-1.6c-1.9-2.3-3.8-4.6-5.7-6.8L24.5-28.6z"/>
			<polygon class="st1" points="18.1,-10 25.7,0 27,0 18.9,-10.5 			"/>
			<path class="st1" d="M22.8-23.3l-0.7,0.7c2.4,2.6,4.9,5.5,7.8,9.2c0.4,0.5,0.7,1,1.1,1.5v-1.7c-0.1-0.1-0.2-0.3-0.3-0.4
				C27.8-17.7,25.3-20.7,22.8-23.3"/>
			<path class="st1" d="M16.4-3.3C16.9-2.7,17.9-2,19.1,0h1.3c-1.4-2-2.6-3.1-3.2-3.8L16.4-3.3z"/>
			<path class="st1" d="M24.7-13.4c-1-1.3-2-2.5-2.9-3.6l-0.8,0.6l0.3,0.4c0.9,1,1.7,2.1,2.6,3.3c1.9,2.4,3.7,4.9,5.5,7.4
				c0.5,0.8,1.1,1.5,1.7,2.3v-1.7c-0.3-0.4-0.6-0.8-0.9-1.2C28.4-8.4,26.5-11,24.7-13.4"/>
		</g>
	</g>
</pattern>
<pattern  y="690" width="31" height="29.9" patternUnits="userSpaceOnUse" id="SVGID_3_" viewBox="0 -29.9 31 29.9" style="overflow:visible;">
	<g>
		<polygon class="st0" points="0,0 31,0 31,-29.9 0,-29.9 		"/>
		<g>
			<polygon class="st0" points="0,0 31,0 31,-29.9 0,-29.9 			"/>
			<path class="st1" d="M7.9-9.1c2.3-0.2,4.7-0.4,6.8-0.2l0.1-1c-2.1-0.2-4.6,0-6.9,0.2C6.2-10,4.6-9.8,3-9.8c-1.1,0-2-0.1-3-0.2v1
				c0.9,0.1,1.9,0.2,3,0.2C4.6-8.8,6.3-9,7.9-9.1"/>
			<path class="st1" d="M6.6-2.1c-0.4,0-0.7,0-1,0C5.1-2,4.6-2,3.9-2l0,1C4-1,4.2-1,4.4-1c0.5,0,0.9,0,1.2,0c0.3,0,0.6,0,1,0
				c1.3,0,4.9,0.1,6,0l-0.1-1C11.5-2,7.9-2.1,6.6-2.1"/>
			<path class="st1" d="M11.7-18.7c2.8,0,5.2-0.1,7.4-0.3L19-20c-2.2,0.2-4.6,0.3-7.3,0.3c-2.8,0-5.6-0.1-8.4-0.2
				C2.2-19.9,1.1-20,0-20v1c1.1,0,2.2,0.1,3.3,0.1C6.1-18.8,8.9-18.7,11.7-18.7"/>
			<polygon class="st1" points="16,-15 0,-15 0,-14 16,-14 			"/>
			<path class="st1" d="M16.8-28.7c1.6,0.1,3.3,0.1,5.6,0.2l0-1c-2.2-0.1-4-0.1-5.6-0.2c-3.5-0.1-6-0.2-10.9-0.2c-2,0-4,0-6,0v1
				c1.9,0,3.9,0,6,0C10.9-28.9,13.4-28.8,16.8-28.7"/>
			<path class="st1" d="M11.1-23.6c1.3,0,2.4,0.1,3.4,0.1c1.7,0.1,3.2,0.2,5.5-0.1l-0.1-1c-2.3,0.2-3.7,0.2-5.4,0.1
				c-1-0.1-2.1-0.1-3.4-0.1c-2.2,0-4.4,0-6.6-0.1c-1.5,0-3-0.1-4.5-0.1v1c1.5,0,3,0,4.5,0.1C6.7-23.6,8.9-23.6,11.1-23.6"/>
			<path class="st1" d="M1.7-6l0.1,1C4.4-5.3,8.8-5.3,12-5.3c0.8,0,1,0,2,0v-1c-1,0-1.2,0-2,0C8.8-6.3,4.3-6.3,1.7-6"/>
			<path class="st1" d="M24.5-28.6c2.1,2.4,4.3,5,6.5,7.7v-1.6c-1.9-2.3-3.8-4.6-5.7-6.8L24.5-28.6z"/>
			<polygon class="st1" points="18.1,-10 25.7,0 27,0 18.9,-10.5 			"/>
			<path class="st1" d="M22.8-23.3l-0.7,0.7c2.4,2.6,4.9,5.5,7.8,9.2c0.4,0.5,0.7,1,1.1,1.5v-1.7c-0.1-0.1-0.2-0.3-0.3-0.4
				C27.8-17.7,25.3-20.7,22.8-23.3"/>
			<path class="st1" d="M16.4-3.3C16.9-2.7,17.9-2,19.1,0h1.3c-1.4-2-2.6-3.1-3.2-3.8L16.4-3.3z"/>
			<path class="st1" d="M24.7-13.4c-1-1.3-2-2.5-2.9-3.6l-0.8,0.6l0.3,0.4c0.9,1,1.7,2.1,2.6,3.3c1.9,2.4,3.7,4.9,5.5,7.4
				c0.5,0.8,1.1,1.5,1.7,2.3v-1.7c-0.3-0.4-0.6-0.8-0.9-1.2C28.4-8.4,26.5-11,24.7-13.4"/>
		</g>
	</g>
</pattern>
<g id="Layer_1">
	<path class="st2" d="M943.3,565.3c-11.8-0.3-23.7-0.4-35.5,0.3c-9.8,0.5-29.3,2.6-32.7-9.4c-0.6-0.7-1-1.7-1-2.7v-14
		c0-1.9,0.9-3.1,2.1-3.8c-0.4-2.5-1.3-4.8-3.5-5.4c-2.7-0.9-6.8-0.4-9.7-0.2c-3,0.1-6,0.5-8.9,0.6c-3.7,0.2-7.8,0.5-11.7-0.1
		c-2.4,2-6.9,0.4-7.3-2.7c-0.2-0.2-0.4-0.3-0.6-0.5c0,0,0,0-0.1,0c-3.9-3.3-4.5-8.3-3.2-13.2c-0.6,0-1.1,0-1.7,0
		c-8.6-0.1-18.2-2.2-26.1-5.3c-3.7-1.4-3.7-6-1.6-8l-4.1-68.2h-34.5l-6,21l-25.5,1.5l-9,25.5l-27,6l-4.5,7.5l-13.5-39l-6,1.5
		l-10.5,36l-7.5,30l-27,6l-6,15h-25.5l-6,15c0,0-9.6,2.9-15.1-4.6c0,0-7.5,10.5-21,0c0,0-11,11.5-23.5,0.5c0,0-9,12-24.5-2
		c0,0-7.5,14.5-26.5,0c0,0-10,13-25,1.5c0,0-9,9-21.5-1c0,0-10.5,11.5-22,1.5c0,0-13,11.5-24-1.5c0,0-10,12-26.5-0.5l-15.5,4.5
		l-45-38.5L279.6,531l-49.5-47l-17,9c0,0-26-39.5-33.5-33.5s-30,38-38,37.5s-62,0.5-62,0.5l5.5-33l-21-6.5l6.5-64l-27.5-5.5l-1,12.5
		l-31-5.5L6.6,452l-14.5-1l-1.5,4.5l-24,5.5l4,30.5c0,0,2.2,8.5,0.7,8.5s-13.3-3.4-13.3-3.4l6.7-64.6l-25.5-5l-4.5,10
		c0,0-32-3-32.5-3.5s0,53.5,0,53.5l-16.5,1.5l-1.5,6l-24,4l6.5,29.5l-2,164.5H953.7l0-126.7C950.2,565.6,946.8,565.4,943.3,565.3z"
		/>
	<polygon class="st2" points="107.1,269.7 74.7,292.3 72.5,331.8 107.2,352.6 136.8,332.9 137.8,292.7 	"/>
	<path class="st3" d="M25.3,474.1c-0.2-0.1-0.5-0.1-0.6,0.1c-0.5,0-0.9,0.1-1.3,0.1c-3.1,0.2-4.4,3.3-3.4,5.5c0,0,0,0.1,0,0.1
		c0.5,1.5,1.1,2.9,1.7,4.3c0.9,2.1,3.9,2.5,4.6,0c0.1-0.3,0.2-0.5,0.2-0.8c6.9,3.1,14,7.4,21.4,3.8c1-0.5,1.6-1.3,1.8-2.2
		c0.6-0.7,1-1.6,0.9-2.4C49.4,469.7,34.8,473.2,25.3,474.1"/>
	<path class="st4" d="M75.4,488.4c-2.3-0.4-5-1.1-7.8-1.6c-0.3-0.4-0.7-0.8-1.2-1.1c-2-1.2-3.2-4.4-4.4-6.3
		c-1.6-2.4-3.2-4.7-5.6-6.4c-1.3-0.9-3.2,0.9-2.2,2.2c2.1,2.9,2.9,6.5,4.1,9.9c-0.4,0.1-0.7,0.4-0.8,0.9c-0.1,0.5-0.2,1.4-0.5,1.8
		c-0.7,0.9-0.2,2.4,0.8,2.9c1.6,0.8,3.3,1.2,5.1,1.7c0.5,0.2,0.9,0.3,1.4,0.4c0.4,0.1,0.7,0.2,1.1,0.3c2.7,0.9,5.3,1.9,8,2.8
		C78.2,497.7,80.4,489.3,75.4,488.4"/>
	<path class="st4" d="M-19.6,478.8c0.6,1,1.7,1.4,2.8,1.1c0.4-0.1,0.9-0.4,1.2-0.6c0.3-0.2,0.7-0.4,1-0.5c0.6-0.3,1.3-0.7,1.7-1.3
		c0.5-0.6,0.9-1.2,0.9-2.1c0-0.7-0.2-1.2-0.6-1.8c-0.8-1.1-2.6-1.6-3.7-0.7c-0.1,0.1-0.3,0.2-0.5,0.3c-0.5,0.3-0.9,0.7-1.2,1.1
		c-0.4,0.5-1,1.1-1.4,1.7c0,0,0,0,0,0.1c0,0-0.1,0.1-0.1,0.1c0,0.1-0.1,0.2-0.1,0.2c-0.1,0.1-0.1,0.2-0.1,0.4
		C-20,477.6-20,478.3-19.6,478.8"/>
	<path class="st4" d="M1.3,480c0.7-0.1,1.2-0.2,1.8-0.6c0.5-0.4,0.9-0.9,1.1-1.5c0.1-0.5,0.1-1.1,0-1.6c-0.1-0.3-0.3-0.8-0.6-1.1
		c0-0.2,0-0.5,0-0.7c0-1-0.7-2-1.7-2.2c-1-0.2-1.9,0.2-2.5,1c-0.3,0.4-0.5,0.7-0.7,1.1c-0.1,0.1-0.2,0.3-0.2,0.5
		c-0.1,0.1-0.1,0.2-0.1,0.3c-0.7,1.2-0.5,2.8,0.5,3.8C-0.7,479.7,0.3,480.2,1.3,480"/>
	<path class="st4" d="M16.6,459.8c1.4,1.1,3.9,0.9,4.7-0.9c0.9-1.8,1.9-3.7,2.1-5.8c0.2-1.6-2.1-2.9-3.4-1.9
		c-1.5,1.1-2.5,2.5-3.7,3.9C15,456.4,15,458.6,16.6,459.8"/>
	<path class="st4" d="M34.6,452.6c-0.2,0.6-0.5,1.1-0.7,1.7c-0.4,0.9-0.5,1.8,0,2.7c0.5,0.8,1.4,1.3,2.3,1.3s1.9-0.5,2.3-1.3
		c0.5-0.9,0.4-1.8,0-2.7c-0.2-0.6-0.5-1.1-0.7-1.7C37.3,451.4,35.2,451.4,34.6,452.6"/>
	<path class="st4" d="M54.9,460.1c0.3-1.1,0.1-2.1-0.4-3c-0.4-0.9-1.8-1.4-2.8-1.1c-0.6,0.2-1.1,0.6-1.4,1.1
		c-0.7,0.2-1.3,0.8-1.6,1.3c-0.4,0.7-0.5,1.5-0.3,2.3c0.2,0.7,0.7,1.4,1.4,1.8c1,0.6,2,0.4,3,0C53.9,462,54.7,461.1,54.9,460.1"/>
	<path class="st4" d="M53,442.6c1.2,0.1,2.6-0.4,3.1-1.5c0.5-1,0.6-2.3-0.3-3.1c-0.5-0.5-1.1-0.7-1.7-0.4c-0.1,0-0.3,0-0.4,0
		c-0.1,0-0.2,0-0.2,0c-1.5-0.2-2.8,0.6-3,2.2c-0.1,0.7,0.1,1.3,0.5,1.9C51.5,442.3,52.1,442.5,53,442.6"/>
	<path class="st4" d="M34.4,438.3c0.8,0.6,1.7,0.8,2.7,0.6c1.1-0.3,1.8-1.1,2.2-2.2c0.5-1.3,0.7-2.6,0.7-4c0-2.1-3-3-4-1.1
		c-0.1,0.2-0.3,0.5-0.4,0.7c0,0-0.1,0.1-0.1,0.1c0,0-0.1,0.1-0.1,0.1c-0.2,0.2-0.3,0.3-0.5,0.5c0,0,0,0,0,0c0,0-0.1,0.1-0.1,0.1
		C32.9,434.4,32.6,436.9,34.4,438.3"/>
	<path class="st4" d="M20.1,441.6c2,0,3.5-2,3-4c-0.2-0.8-0.4-1.6-0.6-2.4c-0.6-2.4-4.2-2.4-4.8,0c-0.2,0.8-0.4,1.6-0.6,2.4
		C16.5,439.6,18,441.6,20.1,441.6"/>
	<path class="st4" d="M27.4,425.2c1-0.1,1.9-0.3,2.6-1.1c0.6-0.5,0.9-1.2,1.1-1.9c0.2-0.6,0.3-1.3,0.3-2c0-1-0.1-2.4-1-3.1
		c-0.9-0.8-2-1.1-3.1-0.6c-0.5,0.2-1,0.7-1.4,1.2c-0.4,0.4-0.7,0.9-1.1,1.3c0.2-0.2,0.4-0.5,0.5-0.7c-0.4,0.6-0.9,1-1.2,1.7
		c-0.5,1.2-0.4,2.3,0.2,3.5C24.9,424.5,26.3,425.3,27.4,425.2"/>
	<path class="st4" d="M41.4,420.2c1.6,0.7,3.4-0.2,3.9-1.9c0.1-0.2,0.1-0.4,0.2-0.5c0,0,0-0.1,0-0.1c0-0.1,0.1-0.3,0.2-0.4
		c0.1-0.2,0.2-0.3,0.3-0.5c0.3-0.6,0.6-1.2,1.1-1.8c0.6-0.8,0.3-2-0.3-2.6c-0.7-0.7-1.8-0.8-2.6-0.3c-1.8,0.9-3.1,2.3-4,4.1
		C39.2,417.6,39.8,419.5,41.4,420.2"/>
	<path class="st4" d="M56.3,421c1.3,0.7,3,0.3,3.7-1c0.5-0.9,0.8-1.9,0.8-2.9c0.1-1.4-1.3-2.7-2.7-2.7c-0.7,0-1.4,0.3-1.9,0.8
		c-0.5,0.5-0.7,1-0.8,1.7c0,0,0,0.1-0.1,0.1c-0.1,0.1-0.1,0.2-0.2,0.3C54.5,418.4,55,420.3,56.3,421"/>
	<path class="st5" d="M8.9,451.9c0.7-19,1.1-35.2,1.1-50.7c0-1.2,0-2.5,0-3.7c5.7,0.2,11.5,0.9,17,1.5c4.7,0.6,9.6,1.1,14.4,1.4
		c0.4,0,0.8-0.1,1.1-0.4c0.3-0.3,0.5-0.7,0.4-1.1l0-0.8c-0.1-1.9-0.2-3.8-0.2-5.6c0-0.3,0-0.6,0-0.9c9,1.8,17.5,3,25.8,3.9
		c-1.5,13.5-2.6,26.9-3.6,41.4c0.1-0.8,0.4,4.4,1.2,4.4c0.5,0,1.1-1.1,1.6-1.1c1-14.4,2.6-32.4,4.1-45.9c0-0.4-0.1-0.8-0.3-1.1
		c-0.3-0.3-0.6-0.5-1-0.5c-9.2-0.9-18.6-2.3-28.8-4.3c-0.4-0.1-0.9,0-1.2,0.3c-0.3,0.3-0.6,0.7-0.6,1.1c-0.1,0.9-0.1,1.8-0.1,2.8
		c0,1.6,0.1,3.3,0.2,4.9c-4.2-0.3-8.4-0.8-12.5-1.3c-6.2-0.7-12.5-1.5-18.9-1.6c-0.4,0-0.8,0.1-1.1,0.4c-0.3,0.3-0.4,0.7-0.4,1.1
		c0,1.7,0,3.5,0,5.2c0,15-0.3,30.8-1,49.1c0.5,0,1,0,1.5,0C8.2,450.4,8.9,451.1,8.9,451.9"/>
	<path class="st5" d="M-27.3,500.3c0.8-0.1,1.4-0.9,1.2-1.7c-0.1-0.5-1.4-7.3-1.5-7.8c-1-6.4-1.9-12.8-2.7-19c-0.5-3.5-1-7-1.5-10.5
		c8.1-0.7,16.3-1,24.2-1.3c4.8-0.2,9.8-0.4,14.7-0.7c0.8,0,1.4-0.7,1.4-1.4c0.1-2,0.2-4,0.2-6c0,0.8-0.7,1.5-1.5,1.4
		c-0.5,0-1,0-1.5,0c0,1-0.1,2-0.1,3.1c-4.5,0.2-8.9,0.4-13.3,0.6c-0.1,0-0.3,0-0.4,0c0,0.5,0,1,0,1.5c0,0.8-0.6,1.5-1.5,1.5
		c-0.8,0-1.5-0.6-1.5-1.5c0-0.5,0-1,0-1.5c-7.4,0.3-14.9,0.6-22.5,1.3c-0.4,0-0.8,0.2-1,0.6c-0.3,0.3-0.4,0.7-0.3,1.1
		c0.6,4,1.1,8,1.7,12c0.9,6.3,1.7,12.7,2.8,19.1c0.1,0.5,1.4,7.3,1.5,7.8c0.1,0.8,0.7,1.6,1.6,1.4"/>
	<path class="st5" d="M80.3,497.9c0.1-0.5,0.2-0.9,0.3-1.4c1.9-10,4-20.6,6.6-31c0.1-0.4,0-0.8-0.2-1.2c-0.2-0.4-0.6-0.6-1-0.7
		c-5.6-0.9-11.2-2.6-16.6-4.2c-1-0.3-1.9-0.6-2.9-0.9c0.4-6.9,0.9-13.5,1.3-19.9c-0.5,0-1-0.1-1.5-0.1c-0.8-0.1-1.4-0.8-1.4-1.6
		c-0.5,7.2-1,14.7-1.5,22.6c0,0.7,0.4,1.3,1.1,1.5c1.3,0.4,2.7,0.8,4,1.2c5,1.5,10.2,3,15.4,4c-2.5,9.9-4.4,19.9-6.2,29.3
		c-0.1,0.6-0.2,1.1-0.3,1.7c-0.1,0.7,0.2,1.3,0.8,1.6c0.1,0.1,0.2,0.1,0.4,0.1c0,0,0.1,0,0.1,0c0.1,0,0.1,0,0.2,0
		C79.6,499.1,80.2,498.6,80.3,497.9"/>
	<path class="st5" d="M-9.5,460.1c0.9,0,1.5-0.7,1.5-1.5c0-0.5,0-1,0-1.5c0-0.9,0-1.8,0-2.7c0-0.4,0-0.7,0-1.1c1.7,0,3.4,0,5.1,0
		c3.4,0,6.2,0,8.8,0.1c0.5,0,1,0,1.5,0c0.8,0,1.5-0.6,1.5-1.4c0-0.8-0.6-1.5-1.4-1.6c-0.5,0-1,0-1.5,0c-2.6-0.1-5.5-0.1-8.9-0.1
		c-2.2,0-4.4,0-6.6,0c-0.8,0-1.5,0.7-1.5,1.5c0,0.9,0,1.7,0,2.6c0,0.9,0,1.9,0,2.8c0,0.5,0,1,0,1.5C-11,459.4-10.4,460.1-9.5,460.1"
		/>
	<path class="st5" d="M30.2,412.3l0-1.1c0-0.8-0.5-1.4-1.3-1.5c-3.6-0.5-7.4-0.9-11.2-1c-0.4,0-0.8,0.1-1.1,0.4
		c-0.3,0.3-0.5,0.7-0.5,1.1c0,2.2-0.2,4.4-0.4,6.6c-0.1,0.9-0.2,1.9-0.3,2.8c0,0.4,0.1,0.8,0.4,1.1s0.7,0.5,1.1,0.5
		c2.8,0,5.8,0.1,8.6,0.3c0.9,0.1,1.8,0.1,2.7,0.2c0,0,0.1,0,0.1,0c0.8,0,1.5-0.6,1.5-1.4C30,417.6,30.1,414.9,30.2,412.3 M27,418.7
		c-0.4,0-0.8,0-1.2-0.1c-2.3-0.1-4.7-0.3-7.1-0.3c0-0.4,0.1-0.8,0.1-1.1c0.2-1.8,0.4-3.6,0.4-5.4c2.7,0.1,5.4,0.4,8,0.7
		C27.1,414.5,27.1,416.6,27,418.7"/>
	<path class="st5" d="M59.4,431.6c-3.6-0.5-7.4-0.9-11.2-1c-0.4,0-0.8,0.1-1.1,0.4c-0.3,0.3-0.5,0.7-0.5,1.1c0,2.2-0.2,4.4-0.4,6.6
		c-0.1,0.9-0.2,1.9-0.3,2.8c0,0.4,0.1,0.8,0.4,1.1c0.3,0.3,0.7,0.5,1.1,0.5c2.8,0,5.8,0.1,8.6,0.3c0.9,0.1,1.8,0.1,2.7,0.2
		c0,0,0.1,0,0.1,0c0.8,0,1.5-0.6,1.5-1.4c0.1-2.7,0.2-5.4,0.3-8l0-1.1C60.7,432.3,60.2,431.7,59.4,431.6 M57.5,440.5
		c-0.4,0-0.8,0-1.2-0.1c-2.3-0.1-4.7-0.3-7.1-0.3c0-0.4,0.1-0.8,0.1-1.1c0.2-1.8,0.4-3.6,0.4-5.4c2.7,0.1,5.4,0.4,8,0.7
		C57.6,436.4,57.6,438.5,57.5,440.5"/>
	<path class="st5" d="M46.9,412.5c0.1-0.8-0.5-1.5-1.2-1.6c-3-0.5-6.6-1.1-10.1-1c-0.8,0-1.4,0.7-1.5,1.5c0,0.4,0,0.7,0,1.1
		c0,1.3,0,2.7,0.1,4c0,1.3,0.1,2.6,0.1,3.9l0,0.6c0,0.8,0.6,1.5,1.4,1.5c1.5,0.1,3.1,0.3,4.5,0.4c1.4,0.2,2.9,0.3,4.3,0.4
		c0,0,0.1,0,0.1,0c0.8,0,1.4-0.6,1.5-1.4C46.4,418.5,46.7,415.1,46.9,412.5 M43.2,420.3c-0.9-0.1-1.8-0.2-2.7-0.3
		c-1.1-0.1-2.2-0.2-3.3-0.3c0-1.1,0-2.2-0.1-3.2c0-1.2-0.1-2.3-0.1-3.5c2.3,0,4.6,0.4,6.7,0.7C43.7,415.6,43.5,417.9,43.2,420.3"/>
	<path class="st5" d="M62.1,413.1c-0.6-0.1-1.2-0.3-1.8-0.5c-2.6-0.7-5.3-1.4-8.1-1.3c-0.8,0-1.4,0.7-1.5,1.5c0,1.7-0.1,3.3-0.1,4.9
		c-0.1,1.7-0.1,3.5-0.1,5.2c0,0.8,0.6,1.4,1.3,1.5c1.1,0.1,2.3,0.3,3.4,0.4c1.9,0.3,3.9,0.5,5.9,0.6c0,0,0,0,0.1,0
		c0.8,0,1.4-0.6,1.5-1.4c0.1-1.3,0.1-2.6,0.1-3.9c0-1.9,0.1-3.7,0.3-5.5C63.4,414,62.9,413.3,62.1,413.1 M60,420.2
		c0,0.7,0,1.5-0.1,2.3c-1.4-0.1-2.8-0.3-4.2-0.5c-0.7-0.1-1.5-0.2-2.2-0.3c0-1.3,0.1-2.5,0.1-3.8c0-1.1,0.1-2.3,0.1-3.5
		c1.9,0.1,3.8,0.6,5.8,1.2c0.2,0,0.4,0.1,0.6,0.1C60,417.3,60,418.7,60,420.2"/>
	<path class="st5" d="M-9.6,476.3c-0.3-1.9-0.7-3.6-0.8-5.4c-0.1-0.8-0.7-1.4-1.4-1.4c-0.6,0-1.2-0.1-1.8-0.1
		c-2.5-0.1-5.1-0.3-7.7,0.2c-0.2,0-0.3,0.1-0.5,0.1c-0.8,0.2-1.3,0.9-1.1,1.7c0.3,1.6,0.6,3.2,0.8,4.9c0.3,1.7,0.6,3.4,0.9,5.1
		c0.1,0.7,0.8,1.2,1.5,1.2c0,0,0.1,0,0.1,0c1.1-0.1,2.3-0.2,3.5-0.3c1.9-0.1,4-0.2,5.9-0.6c0.8-0.1,1.4-0.9,1.3-1.7
		C-9.1,478.9-9.3,477.6-9.6,476.3 M-16.3,479.4c-0.7,0-1.5,0.1-2.2,0.1c-0.2-1.2-0.4-2.5-0.6-3.7c-0.2-1.1-0.4-2.3-0.6-3.4
		c1.9-0.2,3.9-0.1,6,0c0.2,0,0.4,0,0.6,0c0.2,1.5,0.4,3,0.7,4.4c0.1,0.7,0.3,1.5,0.4,2.2C-13.5,479.2-14.9,479.3-16.3,479.4"/>
	<path class="st5" d="M24.3,448.5c-3.6-0.5-7.4-0.9-11.2-1c-0.4,0-0.8,0.1-1.1,0.4c-0.3,0.3-0.5,0.7-0.5,1.1c0,2.2-0.2,4.4-0.4,6.6
		c-0.1,0.9-0.2,1.9-0.3,2.8c0,0.4,0.1,0.8,0.4,1.1c0.3,0.3,0.7,0.5,1.1,0.5c2.8,0,5.8,0.1,8.6,0.3c0.9,0.1,1.8,0.1,2.7,0.2
		c0,0,0.1,0,0.1,0c0.8,0,1.5-0.6,1.5-1.4c0.1-2.7,0.2-5.4,0.3-8l0-1.1C25.6,449.2,25.1,448.6,24.3,448.5 M22.4,457.5
		c-0.4,0-0.8,0-1.2-0.1c-2.3-0.1-4.7-0.3-7.1-0.3c0-0.4,0.1-0.8,0.1-1.1c0.2-1.8,0.4-3.6,0.4-5.4c2.7,0.1,5.4,0.4,8,0.7
		C22.5,453.3,22.5,455.4,22.4,457.5"/>
	<path class="st5" d="M9.1,470.2c0-0.8-0.6-1.4-1.4-1.4c-3.7-0.2-7.4-0.3-11.2-0.1c-0.4,0-0.8,0.2-1.1,0.5c-0.3,0.3-0.4,0.7-0.4,1.1
		c0.2,2.2,0.1,4.4,0.1,6.7c0,0.9,0,1.9,0,2.8c0,0.4,0.2,0.8,0.5,1.1c0.3,0.3,0.6,0.4,1,0.4c0,0,0.1,0,0.1,0c0.3,0,0.5,0,0.8-0.1
		c2.6-0.2,5.2-0.3,7.8-0.3c0.9,0,1.8,0,2.7-0.1c0.8,0,1.5-0.7,1.5-1.5c-0.1-2.7-0.2-5.4-0.4-8L9.1,470.2z M5.3,477.9
		c-2.3,0-4.8,0.1-7.1,0.3c0-0.4,0-0.8,0-1.2c0-1.8,0.1-3.6,0-5.4c2.7-0.1,5.4-0.1,8,0.1c0.1,2,0.2,4.1,0.3,6.2
		C6.1,477.9,5.7,477.9,5.3,477.9"/>
	<path class="st5" d="M41.1,449.7c-3-0.5-6.6-1.1-10.1-1c-0.8,0-1.4,0.7-1.5,1.5c0,0.4,0,0.7,0,1.1c0,1.3,0,2.7,0.1,4
		c0,1.3,0.1,2.6,0.1,3.9l0,0.6c0,0.8,0.6,1.5,1.4,1.5c1.5,0.1,3.1,0.3,4.5,0.4c1.4,0.2,2.9,0.3,4.3,0.4c0,0,0.1,0,0.1,0
		c0.8,0,1.4-0.6,1.5-1.4c0.3-3.5,0.6-6.9,0.8-9.5C42.4,450.5,41.9,449.9,41.1,449.7 M38.7,459.1c-0.9-0.1-1.8-0.2-2.7-0.3
		c-1.1-0.1-2.2-0.2-3.3-0.3c0-1.1,0-2.2-0.1-3.2c0-1.2-0.1-2.3-0.1-3.5c2.3,0,4.6,0.4,6.7,0.7C39.1,454.4,38.9,456.7,38.7,459.1"/>
	<path class="st5" d="M57.6,452c-0.6-0.1-1.2-0.3-1.8-0.5c-2.6-0.7-5.3-1.4-8.1-1.3c-0.8,0-1.4,0.7-1.5,1.5c0,1.6-0.1,3.3-0.1,4.9
		c-0.1,1.7-0.1,3.5-0.1,5.2c0,0.8,0.6,1.4,1.3,1.5c1.1,0.1,2.3,0.3,3.4,0.4c1.9,0.3,3.9,0.5,5.9,0.6c0,0,0,0,0.1,0
		c0.8,0,1.4-0.6,1.5-1.4c0.1-1.3,0.1-2.6,0.1-3.9c0-1.9,0.1-3.7,0.3-5.5C58.8,452.9,58.3,452.1,57.6,452 M55.4,459
		c0,0.7,0,1.5-0.1,2.3c-1.4-0.1-2.8-0.3-4.2-0.5c-0.7-0.1-1.5-0.2-2.2-0.3c0-1.3,0.1-2.5,0.1-3.8c0-1.1,0.1-2.3,0.1-3.5
		c1.9,0.1,3.8,0.6,5.8,1.2c0.2,0,0.4,0.1,0.6,0.1C55.4,456.1,55.4,457.6,55.4,459"/>
	<path class="st5" d="M42.6,430.8c-0.6-0.1-1.2-0.3-1.8-0.5c-2.6-0.7-5.3-1.4-8.1-1.3c-0.8,0-1.4,0.7-1.5,1.5c0,1.7-0.1,3.3-0.1,4.9
		c-0.1,1.7-0.1,3.4-0.1,5.2c0,0.8,0.6,1.4,1.3,1.5c1.1,0.1,2.3,0.3,3.4,0.4c1.9,0.3,3.9,0.5,5.9,0.6c0,0,0,0,0.1,0
		c0.8,0,1.4-0.6,1.5-1.4c0.1-1.3,0.1-2.6,0.1-3.9c0-1.9,0.1-3.7,0.3-5.5C43.8,431.7,43.4,431,42.6,430.8 M40.4,437.9
		c0,0.7,0,1.5-0.1,2.3c-1.4-0.1-2.8-0.3-4.2-0.5c-0.7-0.1-1.4-0.2-2.2-0.3c0-1.3,0.1-2.5,0.1-3.8c0-1.2,0.1-2.3,0.1-3.5
		c1.9,0.1,3.8,0.6,5.8,1.2c0.2,0,0.4,0.1,0.6,0.1C40.5,434.9,40.5,436.4,40.4,437.9"/>
	<path class="st5" d="M26.5,427.8l-1.5-0.1c-2.9-0.2-5.9-0.4-8.8-0.4h-0.4c-0.8,0-1.5,0.7-1.5,1.5c0,3.4,0,7-0.3,10.6
		c0,0.8,0.6,1.5,1.4,1.6c2,0.1,4,0.3,5.9,0.5c1.5,0.2,3.1,0.3,4.6,0.4c0,0,0.1,0,0.1,0c0.4,0,0.7-0.1,1-0.4c0.3-0.3,0.5-0.7,0.5-1.1
		l0.1-1.6c0.1-3.2,0.3-6.4,0.3-9.6C27.9,428.5,27.3,427.8,26.5,427.8 M24.6,438.8L24.6,438.8c-1,0-2-0.1-3-0.2
		c-1.5-0.2-3-0.3-4.6-0.4c0.1-2.6,0.2-5.3,0.2-7.8c2.5,0,5.1,0.2,7.6,0.4l0.1,0C24.8,433.4,24.7,436.1,24.6,438.8"/>
	<path class="st5" d="M54.5,491.6c0-0.5,0.1-0.9,0.1-1.4c0.4-5.3,0.9-11.4,1.7-17.6c0.1-0.4-0.1-0.8-0.3-1.2
		c-0.3-0.3-0.7-0.5-1.1-0.5c-6.8-0.4-27.9-3-34.3-3.8c-0.4-0.1-0.9,0.1-1.2,0.4c-0.3,0.3-0.5,0.7-0.5,1.2c0,0.7,0,1.5,0,2.2
		c0,3.9-0.4,7.8-0.7,11.6c-0.1,1.5-0.3,3-0.4,4.4c0,0.5-0.1,0.9-0.1,1.4c-0.1,0.8,0.6,1.5,1.4,1.6c0.8,0.1,1.5-0.6,1.6-1.4
		c0-0.5,0.1-1,0.1-1.6c0.1-1.4,0.2-2.8,0.4-4.2c0.3-3.9,0.7-7.9,0.7-11.9c0-0.2,0-0.4,0-0.6c7.2,0.9,23.7,2.9,31.1,3.5
		c-0.7,5.6-1.2,11-1.5,15.9c0,0.6-0.1,1.1-0.1,1.7c-0.1,0.7,0.4,1.4,1.1,1.5c0.1,0,0.2,0,0.3,0.1c0.1,0,0.1,0,0.1,0
		C53.7,493,54.4,492.3,54.5,491.6"/>
	<path class="st3" d="M-80.4,511.4c-0.2-0.1-0.5-0.1-0.6,0.1c-0.5,0-0.9,0.1-1.3,0.1c-3.1,0.2-4.4,3.3-3.4,5.5c0,0,0,0.1,0,0.1
		c0.5,1.5,1.1,2.9,1.7,4.3c0.9,2.1,3.9,2.5,4.6,0c0.1-0.3,0.2-0.5,0.2-0.8c6.9,3.1,14,7.4,21.4,3.8c1-0.5,1.6-1.3,1.8-2.2
		c0.6-0.7,1-1.6,0.9-2.4C-56.3,506.9-70.9,510.4-80.4,511.4"/>
	<path class="st4" d="M-30.3,525.7c-2.3-0.4-5-1.1-7.8-1.6c-0.3-0.4-0.7-0.8-1.2-1.1c-2-1.2-3.2-4.4-4.4-6.3
		c-1.6-2.4-3.2-4.7-5.6-6.4c-1.3-0.9-3.2,0.9-2.2,2.2c2.1,2.9,2.9,6.5,4.1,9.9c-0.4,0.1-0.7,0.4-0.8,0.9c-0.1,0.5-0.2,1.4-0.5,1.8
		c-0.7,0.9-0.2,2.4,0.8,2.9c1.6,0.8,3.3,1.2,5.1,1.7c0.5,0.2,0.9,0.3,1.4,0.4c0.4,0.1,0.7,0.2,1.1,0.3c2.7,0.9,5.3,1.9,8,2.8
		C-27.5,534.9-25.3,526.5-30.3,525.7"/>
	<path class="st4" d="M-125.3,518.6c0.6,1,1.7,1.4,2.8,1.1c0.4-0.1,0.9-0.4,1.2-0.6c0.3-0.2,0.6-0.3,1-0.5c0.6-0.3,1.3-0.7,1.7-1.3
		c0.5-0.6,0.9-1.2,0.9-2.1c0-0.7-0.2-1.2-0.6-1.8c-0.8-1.1-2.6-1.6-3.7-0.7c-0.1,0.1-0.3,0.2-0.5,0.3c-0.5,0.3-0.9,0.7-1.2,1.1
		c-0.4,0.5-1,1.1-1.4,1.7c0,0,0,0,0,0.1c0,0-0.1,0.1-0.1,0.1c0,0.1-0.1,0.2-0.1,0.2c-0.1,0.1-0.1,0.2-0.1,0.4
		C-125.7,517.3-125.7,518-125.3,518.6"/>
	<path class="st4" d="M-104.4,517.3c0.7-0.1,1.2-0.2,1.8-0.6c0.5-0.4,0.9-0.9,1.1-1.5c0.1-0.5,0.1-1.1,0-1.6
		c-0.1-0.3-0.3-0.8-0.6-1.1c0-0.2,0-0.5,0-0.7c0-1-0.7-2-1.7-2.2c-1-0.2-1.9,0.2-2.5,1c-0.3,0.4-0.5,0.7-0.7,1.1
		c-0.1,0.1-0.2,0.3-0.2,0.5c-0.1,0.1-0.1,0.2-0.1,0.3c-0.7,1.2-0.5,2.8,0.5,3.8C-106.4,516.9-105.3,517.4-104.4,517.3"/>
	<path class="st4" d="M-89.1,497c1.4,1.1,3.9,0.9,4.7-0.9c0.9-1.8,1.9-3.7,2.1-5.8c0.2-1.6-2.1-2.9-3.4-1.9
		c-1.5,1.1-2.5,2.5-3.7,3.9C-90.7,493.6-90.7,495.8-89.1,497"/>
	<path class="st4" d="M-71,489.9c-0.2,0.6-0.5,1.1-0.7,1.7c-0.4,0.9-0.5,1.8,0,2.7c0.5,0.8,1.4,1.3,2.3,1.3s1.9-0.5,2.3-1.3
		c0.5-0.9,0.4-1.8,0-2.7c-0.2-0.6-0.5-1.1-0.7-1.7C-68.3,488.6-70.5,488.6-71,489.9"/>
	<path class="st4" d="M-50.7,497.3c0.3-1.1,0.1-2.1-0.4-3c-0.4-0.9-1.8-1.4-2.8-1.1c-0.6,0.2-1.1,0.6-1.4,1.1
		c-0.7,0.2-1.3,0.8-1.6,1.3c-0.4,0.7-0.5,1.5-0.3,2.3c0.2,0.7,0.7,1.4,1.4,1.8c1,0.6,2,0.4,3,0C-51.8,499.3-51,498.3-50.7,497.3"/>
	<path class="st4" d="M-52.7,479.8c1.2,0.1,2.6-0.4,3.1-1.5c0.5-1,0.6-2.3-0.3-3.1c-0.5-0.5-1.1-0.7-1.7-0.4c-0.1,0-0.3,0-0.4,0
		c-0.1,0-0.2,0-0.2,0c-1.5-0.2-2.8,0.6-3,2.2c-0.1,0.7,0.1,1.3,0.5,1.9C-54.2,479.5-53.6,479.7-52.7,479.8"/>
	<path class="st4" d="M-71.3,475.5c0.8,0.6,1.7,0.8,2.7,0.6c1.1-0.3,1.8-1.1,2.2-2.2c0.5-1.3,0.7-2.6,0.7-4c0-2.1-3-3-4-1.1
		c-0.1,0.2-0.3,0.5-0.4,0.7c0,0-0.1,0.1-0.1,0.1c0,0-0.1,0.1-0.1,0.1c-0.2,0.2-0.3,0.3-0.5,0.5c0,0,0,0,0,0c0,0-0.1,0.1-0.1,0.1
		C-72.8,471.6-73.1,474.1-71.3,475.5"/>
	<path class="st4" d="M-85.6,478.8c2,0,3.5-2,3-4c-0.2-0.8-0.4-1.6-0.6-2.4c-0.6-2.4-4.2-2.4-4.8,0c-0.2,0.8-0.4,1.6-0.6,2.4
		C-89.1,476.8-87.7,478.8-85.6,478.8"/>
	<path class="st4" d="M-78.3,462.4c1-0.1,1.9-0.3,2.6-1.1c0.6-0.5,0.9-1.2,1.1-1.9c0.2-0.6,0.3-1.3,0.3-2c0-1-0.1-2.4-1-3.1
		c-0.9-0.8-2-1.1-3.1-0.6c-0.5,0.2-1,0.7-1.4,1.2c-0.4,0.4-0.7,0.9-1.1,1.3c0.2-0.2,0.4-0.5,0.5-0.7c-0.4,0.6-0.9,1-1.2,1.7
		c-0.5,1.2-0.4,2.3,0.2,3.5C-80.8,461.7-79.4,462.5-78.3,462.4"/>
	<path class="st4" d="M-64.3,457.4c1.6,0.7,3.4-0.2,3.9-1.9c0.1-0.2,0.1-0.4,0.2-0.5c0,0,0-0.1,0-0.1c0-0.1,0.1-0.3,0.2-0.4
		c0.1-0.2,0.2-0.3,0.3-0.5c0.3-0.6,0.6-1.2,1.1-1.8c0.6-0.8,0.3-2-0.3-2.6c-0.7-0.7-1.8-0.8-2.6-0.3c-1.8,0.9-3.1,2.3-4,4.1
		C-66.5,454.8-65.9,456.7-64.3,457.4"/>
	<path class="st4" d="M-49.4,458.2c1.3,0.7,3,0.3,3.7-1c0.5-0.9,0.8-1.9,0.8-2.9c0.1-1.4-1.3-2.7-2.7-2.7c-0.7,0-1.4,0.3-1.9,0.8
		c-0.5,0.5-0.7,1-0.8,1.7c0,0,0,0.1-0.1,0.1c-0.1,0.1-0.1,0.2-0.2,0.3C-51.1,455.6-50.6,457.5-49.4,458.2"/>
	<path class="st5" d="M-96.8,489.1c0.7-19,1.1-35.2,1.1-50.7c0-1.2,0-2.5,0-3.7c5.7,0.2,11.5,0.9,17,1.5c4.7,0.6,9.6,1.1,14.4,1.4
		c0.4,0,0.8-0.1,1.1-0.4c0.3-0.3,0.5-0.7,0.4-1.1l0-0.8c-0.1-1.9-0.2-3.8-0.2-5.6c0-0.3,0-0.6,0-0.9c9,1.8,17.5,3,25.8,3.9
		c-1.5,13.5-2.8,30.7-3.9,45.1c0.1-0.8,1.9,0.5,2.8,0.6c0.5,0,0.7-6.2,0.6-5.7c1.1-14.9,2.1-27.7,3.6-41.2c0-0.4-0.1-0.8-0.3-1.1
		c-0.3-0.3-0.6-0.5-1-0.5c-9.2-0.9-18.6-2.3-28.8-4.3c-0.4-0.1-0.9,0-1.2,0.3c-0.3,0.3-0.6,0.7-0.6,1.1c-0.1,0.9-0.1,1.8-0.1,2.8
		c0,1.6,0.1,3.3,0.2,4.9c-4.2-0.3-8.4-0.8-12.5-1.3c-6.2-0.7-12.5-1.5-18.9-1.6c-0.4,0-0.8,0.1-1.1,0.4c-0.3,0.3-0.4,0.7-0.4,1.1
		c0,1.7,0,3.5,0,5.2c0,15-0.3,30.8-1,49.1c0.5,0,1,0,1.5,0C-97.4,487.6-96.8,488.3-96.8,489.1"/>
	<path class="st5" d="M-134.2,531.2c0.8-0.1,1.4-0.9,1.2-1.7c-0.1-0.5-0.2-1-0.2-1.5c-1-6.4-1.9-12.8-2.7-19c-0.5-3.5-1-7-1.5-10.5
		c8.1-0.7,16.3-1,24.2-1.3c4.8-0.2,9.8-0.4,14.7-0.7c0.8,0,1.4-0.7,1.4-1.4c0.1-2,0.2-4,0.2-6c0,0.8-0.7,1.5-1.5,1.4
		c-0.5,0-1,0-1.5,0c0,1-0.1,2-0.1,3.1c-4.5,0.2-8.9,0.4-13.3,0.6c-0.1,0-0.3,0-0.4,0c0,0.5,0,1,0,1.5c0,0.8-0.6,1.5-1.5,1.5
		c-0.8,0-1.5-0.6-1.5-1.5c0-0.5,0-1,0-1.5c-7.4,0.3-14.9,0.6-22.5,1.3c-0.4,0-0.8,0.2-1,0.6c-0.3,0.3-0.4,0.7-0.3,1.1
		c0.6,4,1.1,8,1.7,12c0.9,6.3,1.7,12.7,2.8,19.1c0.1,0.5,0.1,1,0.2,1.5C-135.8,530.8-135,531.3-134.2,531.2"/>
	<path class="st5" d="M-25.3,535.1c0.1-0.5,0.2-0.9,0.3-1.4c1.9-10,4-20.6,6.6-31c0.1-0.4,0-0.8-0.2-1.2c-0.2-0.4-0.6-0.6-1-0.7
		c-5.6-0.9-11.2-2.6-16.6-4.2c-1-0.3-1.9-0.6-2.9-0.9c0.4-6.9,0.9-13.5,1.3-19.9c-0.5,0-1-0.1-1.5-0.1c-0.8-0.1-1.4-0.8-1.4-1.6
		c-0.5,7.2-1,14.7-1.5,22.6c0,0.7,0.4,1.3,1.1,1.5c1.3,0.4,2.7,0.8,4,1.2c5,1.5,10.2,3,15.4,4c-2.5,9.9-4.4,19.9-6.2,29.3
		c-0.1,0.6-0.2,1.1-0.3,1.7c-0.1,0.7,0.2,1.3,0.8,1.6c0.1,0.1,0.2,0.1,0.4,0.1c0,0,0.1,0,0.1,0c0.1,0,0.1,0,0.2,0
		C-26.1,536.3-25.5,535.8-25.3,535.1"/>
	<path class="st5" d="M-115.2,497.3c0.9,0,1.5-0.7,1.5-1.5c0-0.5,0-1,0-1.5c0-0.9,0-1.8,0-2.7c0-0.4,0-0.7,0-1.1c1.7,0,3.4,0,5.1,0
		c3.4,0,6.2,0,8.8,0.1c0.5,0,1,0,1.5,0c0.8,0,1.5-0.6,1.5-1.4c0-0.8-0.6-1.5-1.4-1.6c-0.5,0-1,0-1.5,0c-2.7-0.1-5.5-0.1-8.9-0.1
		c-2.2,0-4.4,0-6.6,0c-0.8,0-1.5,0.7-1.5,1.5c0,0.9,0,1.7,0,2.6c0,0.9,0,1.9,0,2.8c0,0.5,0,1,0,1.5
		C-116.7,496.6-116,497.3-115.2,497.3"/>
	<path class="st5" d="M-75.5,449.5l0-1.1c0-0.8-0.5-1.4-1.3-1.5c-3.6-0.5-7.4-0.9-11.2-1c-0.4,0-0.8,0.1-1.1,0.4
		c-0.3,0.3-0.5,0.7-0.5,1.1c0,2.2-0.2,4.4-0.4,6.6c-0.1,0.9-0.2,1.9-0.3,2.8c0,0.4,0.1,0.8,0.4,1.1c0.3,0.3,0.7,0.5,1.1,0.5
		c2.8,0,5.8,0.1,8.6,0.3c0.9,0.1,1.8,0.1,2.7,0.2c0,0,0.1,0,0.1,0c0.8,0,1.5-0.6,1.5-1.4C-75.6,454.9-75.6,452.1-75.5,449.5
		 M-78.7,455.9c-0.4,0-0.8,0-1.2-0.1c-2.3-0.1-4.7-0.3-7.1-0.3c0-0.4,0.1-0.8,0.1-1.1c0.2-1.8,0.4-3.6,0.4-5.4
		c2.7,0.1,5.4,0.4,8,0.7C-78.6,451.7-78.6,453.8-78.7,455.9"/>
	<path class="st5" d="M-46.2,468.8c-3.6-0.5-7.4-0.9-11.2-1c-0.4,0-0.8,0.1-1.1,0.4c-0.3,0.3-0.5,0.7-0.5,1.1c0,2.2-0.2,4.4-0.4,6.6
		c-0.1,0.9-0.2,1.9-0.3,2.8c0,0.4,0.1,0.8,0.4,1.1c0.3,0.3,0.7,0.5,1.1,0.5c2.8,0,5.8,0.1,8.6,0.3c0.9,0.1,1.8,0.1,2.7,0.2
		c0,0,0.1,0,0.1,0c0.8,0,1.5-0.6,1.5-1.4c0.1-2.7,0.2-5.4,0.3-8l0-1.1C-44.9,469.5-45.5,468.9-46.2,468.8 M-48.2,477.8
		c-0.4,0-0.8,0-1.2-0.1c-2.3-0.1-4.7-0.3-7.1-0.3c0-0.4,0.1-0.8,0.1-1.1c0.2-1.8,0.4-3.6,0.4-5.4c2.7,0.1,5.4,0.4,8,0.7
		C-48,473.6-48.1,475.7-48.2,477.8"/>
	<path class="st5" d="M-58.8,449.7c0.1-0.8-0.5-1.5-1.2-1.6c-3-0.5-6.6-1.1-10.1-1c-0.8,0-1.4,0.7-1.5,1.5c0,0.4,0,0.7,0,1.1
		c0,1.3,0,2.7,0.1,4c0,1.3,0.1,2.6,0.1,3.9l0,0.6c0,0.8,0.6,1.5,1.4,1.5c1.5,0.1,3.1,0.3,4.5,0.4c1.4,0.2,2.9,0.3,4.3,0.4
		c0,0,0.1,0,0.1,0c0.8,0,1.4-0.6,1.5-1.4C-59.2,455.7-59,452.3-58.8,449.7 M-62.4,457.5c-0.9-0.1-1.8-0.2-2.7-0.3
		c-1.1-0.1-2.2-0.2-3.3-0.3c0-1.1,0-2.2-0.1-3.2c0-1.2-0.1-2.3-0.1-3.5c2.3,0,4.6,0.4,6.7,0.7C-62,452.8-62.2,455.1-62.4,457.5"/>
	<path class="st5" d="M-43.6,450.4c-0.6-0.1-1.2-0.3-1.8-0.5c-2.6-0.7-5.3-1.4-8.1-1.3c-0.8,0-1.4,0.7-1.5,1.5
		c0,1.6-0.1,3.3-0.1,4.9c-0.1,1.7-0.1,3.5-0.1,5.2c0,0.8,0.6,1.4,1.3,1.5c1.1,0.1,2.3,0.3,3.4,0.4c1.9,0.3,3.9,0.5,5.9,0.6
		c0,0,0,0,0.1,0c0.8,0,1.4-0.6,1.5-1.4c0.1-1.3,0.1-2.6,0.1-3.9c0-1.9,0.1-3.7,0.3-5.5C-42.3,451.3-42.8,450.5-43.6,450.4
		 M-45.7,457.4c0,0.7,0,1.5-0.1,2.3c-1.4-0.1-2.8-0.3-4.2-0.5c-0.7-0.1-1.5-0.2-2.2-0.3c0-1.3,0.1-2.5,0.1-3.8
		c0-1.1,0.1-2.3,0.1-3.5c1.9,0.1,3.8,0.6,5.8,1.2c0.2,0,0.4,0.1,0.6,0.1C-45.7,454.5-45.7,456-45.7,457.4"/>
	<path class="st5" d="M-115.2,516c-0.3-1.9-0.7-3.6-0.8-5.4c-0.1-0.8-0.7-1.4-1.4-1.4c-0.6,0-1.2-0.1-1.8-0.1
		c-2.5-0.1-5.1-0.3-7.7,0.2c-0.2,0-0.3,0.1-0.5,0.1c-0.8,0.2-1.3,0.9-1.1,1.7c0.3,1.6,0.6,3.2,0.8,4.9c0.3,1.7,0.6,3.4,0.9,5.1
		c0.1,0.7,0.8,1.2,1.5,1.2c0,0,0.1,0,0.1,0c1.1-0.1,2.3-0.2,3.5-0.3c1.9-0.1,4-0.2,5.9-0.6c0.8-0.1,1.4-0.9,1.3-1.7
		C-114.8,518.6-115,517.3-115.2,516 M-122,519.1c-0.7,0-1.5,0.1-2.2,0.1c-0.2-1.2-0.4-2.5-0.6-3.7c-0.2-1.1-0.4-2.3-0.6-3.4
		c1.9-0.2,3.9-0.1,6,0c0.2,0,0.4,0,0.6,0c0.2,1.5,0.4,3,0.7,4.4c0.1,0.7,0.3,1.5,0.4,2.2C-119.2,519-120.6,519-122,519.1"/>
	<path class="st5" d="M-81.3,485.7c-3.6-0.5-7.4-0.9-11.2-1c-0.4,0-0.8,0.1-1.1,0.4c-0.3,0.3-0.5,0.7-0.5,1.1c0,2.2-0.2,4.4-0.4,6.6
		c-0.1,0.9-0.2,1.9-0.3,2.8c0,0.4,0.1,0.8,0.4,1.1c0.3,0.3,0.7,0.5,1.1,0.5c2.8,0,5.8,0.1,8.6,0.3c0.9,0.1,1.8,0.1,2.7,0.2
		c0,0,0.1,0,0.1,0c0.8,0,1.5-0.6,1.5-1.4c0.1-2.7,0.2-5.4,0.3-8l0-1.1C-80,486.5-80.6,485.8-81.3,485.7 M-83.3,494.7
		c-0.4,0-0.8,0-1.2-0.1c-2.3-0.1-4.7-0.3-7.1-0.3c0-0.4,0.1-0.8,0.1-1.1c0.2-1.8,0.4-3.6,0.4-5.4c2.7,0.1,5.4,0.4,8,0.7
		C-83.1,490.5-83.2,492.6-83.3,494.7"/>
	<path class="st5" d="M-96.6,507.4c0-0.8-0.6-1.4-1.4-1.4c-3.7-0.2-7.4-0.3-11.2-0.1c-0.4,0-0.8,0.2-1,0.5c-0.3,0.3-0.4,0.7-0.4,1.1
		c0.2,2.2,0.1,4.4,0.1,6.7c0,0.9,0,1.9,0,2.8c0,0.4,0.2,0.8,0.5,1.1c0.3,0.3,0.6,0.4,1,0.4c0,0,0.1,0,0.1,0c0.3,0,0.5,0,0.8-0.1
		c2.6-0.2,5.2-0.3,7.8-0.3c0.9,0,1.8,0,2.7-0.1c0.8,0,1.5-0.7,1.5-1.5c-0.1-2.7-0.2-5.4-0.4-8L-96.6,507.4z M-100.4,515.1
		c-2.3,0-4.8,0.1-7.1,0.3c0-0.4,0-0.8,0-1.2c0-1.8,0.1-3.6,0-5.4c2.7-0.1,5.4-0.1,8,0.1c0.1,2,0.2,4.1,0.3,6.2
		C-99.6,515.1-100,515.1-100.4,515.1"/>
	<path class="st5" d="M-64.6,486.9c-3-0.5-6.6-1.1-10.1-1c-0.8,0-1.4,0.7-1.5,1.5c0,0.4,0,0.7,0,1.1c0,1.3,0,2.7,0.1,4
		c0,1.3,0.1,2.6,0.1,3.9l0,0.6c0,0.8,0.6,1.5,1.4,1.5c1.5,0.1,3.1,0.3,4.5,0.4c1.4,0.2,2.9,0.3,4.3,0.4c0,0,0.1,0,0.1,0
		c0.8,0,1.4-0.6,1.5-1.4c0.3-3.5,0.6-6.9,0.8-9.5C-63.3,487.8-63.8,487.1-64.6,486.9 M-67,496.3c-0.9-0.1-1.8-0.2-2.7-0.3
		c-1.1-0.1-2.2-0.2-3.3-0.3c0-1.1,0-2.2-0.1-3.2c0-1.2-0.1-2.3-0.1-3.5c2.3,0,4.6,0.4,6.7,0.7C-66.6,491.6-66.8,493.9-67,496.3"/>
	<path class="st5" d="M-48.1,489.2c-0.6-0.1-1.2-0.3-1.8-0.5c-2.6-0.7-5.3-1.4-8.1-1.3c-0.8,0-1.4,0.7-1.5,1.5
		c0,1.7-0.1,3.3-0.1,4.9c-0.1,1.7-0.1,3.5-0.1,5.2c0,0.8,0.6,1.4,1.3,1.5c1.1,0.1,2.3,0.3,3.4,0.4c1.9,0.3,3.9,0.5,5.9,0.6
		c0,0,0,0,0.1,0c0.8,0,1.4-0.6,1.5-1.4c0.1-1.3,0.1-2.6,0.1-3.9c0-1.9,0.1-3.7,0.3-5.5C-46.9,490.1-47.4,489.4-48.1,489.2
		 M-50.3,496.2c0,0.7,0,1.5-0.1,2.3c-1.4-0.1-2.8-0.3-4.2-0.5c-0.7-0.1-1.5-0.2-2.2-0.3c0-1.3,0.1-2.5,0.1-3.8
		c0-1.1,0.1-2.3,0.1-3.5c1.9,0.1,3.8,0.6,5.8,1.2c0.2,0,0.4,0.1,0.6,0.1C-50.2,493.3-50.3,494.8-50.3,496.2"/>
	<path class="st5" d="M-63.1,468c-0.6-0.1-1.2-0.3-1.8-0.5c-2.6-0.7-5.3-1.4-8.1-1.3c-0.8,0-1.4,0.7-1.5,1.5c0,1.7-0.1,3.3-0.1,4.9
		c-0.1,1.7-0.1,3.4-0.1,5.2c0,0.8,0.6,1.4,1.3,1.5c1.1,0.1,2.3,0.3,3.4,0.4c1.9,0.3,3.9,0.5,5.9,0.6c0,0,0,0,0.1,0
		c0.8,0,1.4-0.6,1.5-1.4c0.1-1.3,0.1-2.6,0.1-3.9c0-1.9,0.1-3.7,0.3-5.5C-61.8,468.9-62.3,468.2-63.1,468 M-65.2,475.1
		c0,0.7,0,1.5-0.1,2.3c-1.4-0.1-2.8-0.3-4.2-0.5c-0.7-0.1-1.5-0.2-2.2-0.3c0-1.3,0.1-2.5,0.1-3.8c0-1.2,0.1-2.3,0.1-3.5
		c1.9,0.1,3.8,0.6,5.8,1.2c0.2,0,0.4,0.1,0.6,0.1C-65.2,472.1-65.2,473.6-65.2,475.1"/>
	<path class="st5" d="M-79.2,465l-1.5-0.1c-2.9-0.2-5.9-0.4-8.8-0.4h-0.4c-0.8,0-1.5,0.7-1.5,1.5c0,3.4,0,7-0.3,10.6
		c0,0.8,0.6,1.5,1.4,1.6c2,0.1,4,0.3,5.9,0.5c1.5,0.2,3.1,0.3,4.6,0.4c0,0,0.1,0,0.1,0c0.4,0,0.7-0.1,1-0.4c0.3-0.3,0.5-0.7,0.5-1.1
		l0.1-1.6c0.1-3.2,0.3-6.4,0.3-9.6C-77.8,465.7-78.4,465-79.2,465 M-81.1,476L-81.1,476c-1,0-2-0.1-3-0.2c-1.5-0.2-3-0.3-4.6-0.4
		c0.1-2.6,0.2-5.3,0.2-7.8c2.5,0,5.1,0.2,7.6,0.4l0.1,0C-80.8,470.6-81,473.3-81.1,476"/>
	<path class="st5" d="M-51.2,528.8c0-0.5,0.1-0.9,0.1-1.4c0.4-5.3,0.9-11.4,1.7-17.6c0.1-0.4-0.1-0.8-0.3-1.2
		c-0.3-0.3-0.7-0.5-1.1-0.5c-6.8-0.4-27.9-3-34.3-3.8c-0.4-0.1-0.9,0.1-1.2,0.4c-0.3,0.3-0.5,0.7-0.5,1.2c0,0.7,0,1.5,0,2.2
		c0,3.9-0.4,7.8-0.7,11.6c-0.1,1.5-0.3,3-0.4,4.4c0,0.5-0.1,0.9-0.1,1.4c-0.1,0.8,0.6,1.5,1.4,1.6c0.8,0.1,1.5-0.6,1.6-1.4
		c0-0.5,0.1-1,0.1-1.6c0.1-1.4,0.2-2.8,0.4-4.2c0.3-3.9,0.7-7.9,0.7-11.9c0-0.2,0-0.4,0-0.6c7.2,0.9,23.7,2.9,31.1,3.5
		c-0.7,5.6-1.2,11-1.5,15.9c0,0.6-0.1,1.1-0.1,1.7c-0.1,0.7,0.4,1.3,1.1,1.5c0.1,0,0.2,0,0.3,0.1c0.1,0,0.1,0,0.1,0
		C-51.9,530.2-51.3,529.6-51.2,528.8"/>
	<path class="st4" d="M137.1,298.3c-0.3-1.4-1.6-2.7-3-3c-4.4-1.1-7.4,2.8-10.4,5.4c-4.1,3.5-8.3,7-12.4,10.6
		c-1.5-0.6-3.6,0-4.1,1.9c-1.4,5.6-1.9,11.6-2.1,17.7c-0.1,0-0.1,0-0.2,0c-3.1,0.3-6.2,0.5-9.4,0.5c-0.3-0.1-0.5-0.2-0.8-0.3
		c-0.3-0.1-3.7-1.6-2.1-0.1c-1.4-1.4-3.6-1.6-5.6-0.7c0,0-0.1,0-0.1,0c-0.5,0.2-0.9,0.6-1.3,1c-3-0.1-5.9-0.2-8.8-0.2
		c-0.2,0-0.4,0.3-0.2,0.4c2.3,1.9,5.1,3.1,8.1,3.9c0.3,1.3,1,2.5,2.2,3.1c6,2.9,11.2,3.6,14.7,9.8c1,1.8,3,2.3,4.7,1.9
		c1.7,2.2,5.1,3.2,7.2,0.7c3.8-4.5,7.9-8.3,12.6-11.8c3.5-2.6,8.8-4.6,10.9-8.7c2.1-4.2,0.9-10.3,0.8-14.8
		C137.6,310,138.4,303.6,137.1,298.3"/>
	<path class="st5" d="M137.8,292.7c-0.8,0.6-1.7,1.1-2.5,1.7l0.5,38l-26.6,17.3c0.1,1-1.7,0.8-1.7-0.1l-32.5-20
		c0.1-4.7,0.1-9.6,0.2-14.2c0.1-6.9,0.3-14.1,0.3-21.1c0-0.3,0-0.5,0-0.8l-1.8-1.2c-0.7-0.5-0.9-1.5-0.4-2.2
		c0.5-0.7,1.5-0.9,2.2-0.4l2.1,1.4l28.7-18l28.3,18c0.5-0.3,0.9-0.6,1.4-1c0.7-0.5,1.7-0.3,2.3,0.4c0.2,0.3,0.3,0.6,0.3,0.9l0-0.8
		c0-0.5-0.3-1.1-0.7-1.3l-30.6-19.5c-0.5-0.3-1.2-0.3-1.7,0L73,290c-0.5,0.3-0.8,0.8-0.8,1.4c0,0.9,0,1.9,0,2.8
		c0,7-0.1,14.2-0.3,21.1c-0.1,5-0.2,10.1-0.2,15.2c0,0.6,0.3,1.1,0.7,1.4l35.5,22c0.3,0.2,0.6,0.3,0.9,0.3c0.3,0,0.6-0.1,0.9-0.3
		l28.7-19.2c0.5-0.3,0.7-0.8,0.7-1.4l-0.6-41.9C138.5,291.9,138.3,292.4,137.8,292.7"/>
	<path class="st5" d="M137,290.1c-0.5,0.3-0.9,0.6-1.4,1c-8.3,5.7-18.1,12.4-28.7,19l-28.3-19l-2.3-2.2c-0.7-0.5-2.6,0.5-3.1,1.3
		c-0.5,0.7-0.9,1.9-0.2,2.4l2.8,1.6l29.5,18.7c0-0.3,0-0.6,0-0.9c0-0.9,0.6-1.7,1.5-1.7c0.9,0,1.7,0.6,1.7,1.5c0,0.3,0,0.6,0,0.9
		c10.2-6.3,19.6-12.7,27.7-18.3c0.8-0.6,1.7-1.2,2.5-1.7c0.5-0.3,0.7-0.8,0.7-1.3c0-0.3-0.1-0.6-0.3-0.9
		C138.7,289.7,137.7,289.5,137,290.1"/>
	<path class="st5" d="M108.6,312.7c0-0.3,0-0.6,0-0.9c0-0.9-0.8-1.6-1.7-1.5c-0.9,0-1.6,0.8-1.5,1.7c0,0.3,0,0.6,0,0.9
		c0.3,6.1,0.5,11.9,0.8,17.5c0.3,7.1,0.6,13.8,0.9,19.5c0.1,0.9,0.1,1.9,0.2,2.7c0.1,0.9,0.8,1.5,1.6,1.5c0,0,0.1,0,0.1,0
		c0.9-0.1,1.6-0.8,1.5-1.7c-0.1-0.9-0.1-1.8-0.2-2.8c-0.3-5.7-0.6-12.4-0.9-19.4C109.1,324.7,108.9,318.8,108.6,312.7"/>
	<path class="st5" d="M85.8,479.5c-0.5,0-1,0-1.5,0c-0.8,0-1.5-0.7-1.5-1.5c0-0.8,0.7-1.5,1.5-1.5c0.5,0,1,0,1.4,0
		c0-9.9-0.2-11.1-0.4-21c-0.5,0-1,0-1.5,0.1c0,0,0,0-0.1,0c-0.8,0-1.5-0.6-1.5-1.4c0-0.8,0.6-1.5,1.4-1.6c0.5,0,1,0,1.5-0.1
		c-0.2-7.7-0.3-7.4-0.5-15.1c-0.5,0-1,0-1.5,0c-0.8,0-1.5-0.7-1.5-1.5c0-0.8,0.6-1.5,1.5-1.5c0.5,0,1,0,1.5,0
		c-0.1-4.5-0.2-3.7-0.4-8.1c-0.1-3.9-0.2-7.7-0.3-11.6c-0.5,0-1,0-1.5,0c0,0,0,0-0.1,0c-0.8,0-1.5-0.6-1.5-1.4
		c0.1,4.4,0.2,8.8,0.3,13.1c0.7,25.9,1.4,30.7,1.4,57.1c0,4.1,0,8.2-0.1,12.3h3c0-4.1,0.1-8.2,0.1-12.3
		C85.8,482.2,85.8,480.8,85.8,479.5"/>
	<path class="st5" d="M82.5,411.8c0.5,0,1,0,1.5,0c-0.2-8.7-0.4-12.8-0.6-21.7c-0.5,0-1,0-1.6,0c-0.8,0-1.5-0.7-1.5-1.5
		c0.2,9.8,0.4,15,0.7,24.7C81,412.5,81.6,411.8,82.5,411.8"/>
	<path class="st5" d="M80.3,388.5c0-0.8,0.7-1.4,1.5-1.4c0.5,0,1,0,1.5,0c-0.1-6.8-0.2-8.3-0.3-15.2c0-1,0-2,0-3c0-1.8,0-3.7,0-5.5
		c-0.5,0-1,0-1.5,0c-0.8,0-1.5-0.6-1.5-1.4c0,2.1,0,4.2,0,6.3c0,1,0,2,0,3.1C80.1,378.8,80.2,381,80.3,388.5"/>
	<path class="st5" d="M81.4,360.4c0.5,0,1,0,1.6,0c0-1,0-2.1,0-3.1c0-12.3,0.2-11.1,0.5-22c0-0.8-0.6-1.5-1.5-1.5
		c-0.8,0-1.5,0.6-1.5,1.5c-0.3,11-0.5,9.8-0.5,22.1c0,1.5,0,3.1,0,4.6C80,361.1,80.6,360.4,81.4,360.4"/>
	<path class="st5" d="M136.8,435.9c-0.5,0-1,0-1.5,0c0.2,8,0.5,7.9,0.8,15.8c0.5,0,1,0,1.5,0c0.8,0,1.5,0.6,1.5,1.4
		c-0.4-8.8-0.7-9.7-0.9-18.7C138.3,435.2,137.6,435.9,136.8,435.9"/>
	<path class="st5" d="M137.8,454.7c-0.5,0-1,0-1.5,0c0.5,11,1,13.3,1.6,24.2c0.6,0,1.1,0.1,1.7,0.1c0.8,0.1,1.5,0.8,1.4,1.6
		c-0.1,0.8-0.7,1.4-1.5,1.4c0,0-0.1,0-0.1,0c-0.4,0-0.9-0.1-1.3-0.1c0.3,4.6,0.5,9.2,0.9,13.8h3c-1.1-17-2-25.4-2.7-42.5
		C139.2,454.1,138.6,454.7,137.8,454.7"/>
	<path class="st5" d="M136.1,413.8c-0.5,0-1,0-1.5,0c0.2,8.2,0.4,11,0.6,19.1c0.5,0,1,0,1.5,0c0.8,0,1.5,0.6,1.5,1.4
		c-0.3-9-0.5-12.8-0.7-22C137.6,413.1,137,413.8,136.1,413.8"/>
	<path class="st5" d="M136.9,362.6c0,0.8-0.7,1.5-1.5,1.5c-0.5,0-1,0-1.5,0c0,2.6,0,5.2,0,7.7c0,1,0,2,0,3c0,5.6,0.1,5.8,0.2,11.4
		c0.5,0,1,0,1.5,0c0.8,0,1.5,0.7,1.5,1.5c0,0.8-0.7,1.5-1.5,1.5c-0.5,0-1,0-1.5,0c0.1,8.9,0.2,13,0.4,21.7c0.5,0,1,0,1.5,0
		c0.8,0,1.5,0.7,1.5,1.5c-0.3-15.4-0.5-21.2-0.6-37.4c0-1,0-2,0-3c-0.1-15.7-0.2-19.3-0.2-36c0-0.8-0.7-1.5-1.5-1.5
		s-1.5,0.7-1.5,1.5c0,12.9,0,12.9,0.1,25.2c0.5,0,1,0,1.5,0C136.2,361.1,136.9,361.7,136.9,362.6"/>
	<path class="st5" d="M81.5,363.4c0.5,0,1,0,1.5,0c3-0.1,6.1-0.1,9.6-0.1c7.7,0,15.5,0.2,23.1,0.4c6,0.2,12.2,0.3,18.3,0.4
		c0.5,0,1,0,1.5,0c0.8,0,1.5-0.7,1.5-1.5c0-0.8-0.7-1.5-1.5-1.5c-0.5,0-1,0-1.5,0c-6.1-0.1-12.2-0.2-18.2-0.4
		c-7.6-0.2-15.5-0.4-23.2-0.4c-3.4,0-6.5,0-9.6,0.1c-0.5,0-1,0-1.6,0c-0.8,0-1.4,0.7-1.4,1.4c0,0,0,0.1,0,0.1c0,0,0,0,0,0.1
		C80,362.8,80.7,363.4,81.5,363.4"/>
	<path class="st5" d="M81.8,390c0.5,0,1,0,1.6,0c1.3,0,2.6,0,3.9,0c8.7,0,17.5-0.3,26-0.5c6.9-0.2,13.9-0.4,20.9-0.5
		c0.5,0,1,0,1.5,0c0.8,0,1.5-0.7,1.5-1.5c0-0.8-0.7-1.5-1.5-1.5c-0.5,0-1,0-1.5,0c-7,0.1-14.1,0.3-20.9,0.5
		c-8.5,0.2-17.3,0.5-25.9,0.5c-1.3,0-2.7,0-4,0c-0.5,0-1,0-1.5,0c-0.8,0-1.5,0.6-1.5,1.4c0,0.1,0,0.1,0,0.1
		C80.4,389.4,81,390,81.8,390"/>
	<path class="st5" d="M136.1,410.8c-0.5,0-1,0-1.5,0c-4.7,0.1-9.5,0.1-14.3,0.2c-11.9,0.1-24.2,0.3-36.4,0.7c-0.5,0-1,0-1.5,0
		c-0.8,0-1.5,0.7-1.4,1.5c0,0.8,0.7,1.5,1.5,1.5c0,0,0,0,0.1,0c0.5,0,1,0,1.5,0c12.1-0.4,24.4-0.6,36.3-0.7
		c4.8-0.1,9.5-0.1,14.3-0.2c0.5,0,1,0,1.5,0c0.8,0,1.5-0.7,1.5-1.5C137.6,411.5,136.9,410.8,136.1,410.8"/>
	<path class="st5" d="M136.8,432.9c-0.5,0-1,0-1.5,0c-8.8,0.1-17.7,0.5-26.4,0.8c-7.9,0.3-16.1,0.6-24.2,0.7c-0.5,0-1,0-1.5,0
		c-0.8,0-1.5,0.7-1.5,1.5c0,0.8,0.7,1.5,1.5,1.5c0.5,0,1,0,1.5,0c8.1-0.1,16.3-0.5,24.2-0.7c8.6-0.3,17.6-0.7,26.3-0.8
		c0.5,0,1,0,1.5,0c0.8,0,1.5-0.7,1.5-1.5c0,0,0,0,0-0.1c0,0,0-0.1,0-0.1C138.2,433.5,137.6,432.9,136.8,432.9"/>
	<path class="st5" d="M137.7,451.7c-0.5,0-1,0-1.5,0c-4.8,0.1-9.6,0.1-14.4,0.1c-11.9,0.1-24.2,0.1-36.4,0.7c-0.5,0-1,0-1.5,0.1
		c-0.8,0-1.5,0.7-1.4,1.6c0,0.8,0.7,1.4,1.5,1.4c0,0,0,0,0.1,0c0.5,0,1,0,1.5-0.1c12.1-0.5,24.4-0.6,36.3-0.7
		c4.8,0,9.7-0.1,14.5-0.1c0.5,0,1,0,1.5,0c0.8,0,1.5-0.7,1.5-1.5c0-0.1,0-0.1,0-0.1C139.2,452.3,138.5,451.7,137.7,451.7"/>
	<path class="st5" d="M84.3,476.5c-0.8,0-1.5,0.6-1.5,1.5c0,0.8,0.6,1.5,1.5,1.5c0.5,0,1,0,1.5,0c18.3,0.5,35.4,1.3,52.3,2.5
		c0.4,0,0.9,0.1,1.3,0.1c0,0,0.1,0,0.1,0c0.8,0,1.4-0.6,1.5-1.4c0.1-0.8-0.6-1.5-1.4-1.6c-0.6,0-1.1-0.1-1.7-0.1
		c-16.8-1.1-33.9-1.9-52.1-2.4C85.3,476.5,84.8,476.5,84.3,476.5"/>
	<path class="st3" d="M678,483c-3.8,0.2-8.3,0.5-12.1,1.4c-0.3-0.5-1.2-0.8-1.5-0.1c-0.1,0.2-0.2,0.5-0.3,0.7
		c-0.9,0.6-1.1,1.8-0.8,2.7c-0.1,0.4-0.2,0.8-0.3,1.2c-0.3,1,0.4,2,1.3,2.3c3.8,1.1,8.6,1.2,12.6,1.2c3,0,6.2-1.5,6.4-4.9
		C683.6,484.3,680.8,482.9,678,483"/>
	<path class="st3" d="M669.9,470.6c2.6,0.1,5.3-0.2,7.8-0.4c1.3-0.1,2.7-1.4,2.1-2.8c-0.7-1.8-1.4-3.6-2.1-5.4
		c-0.6-1.5-1.1-3.3-2.9-3.8c-3.1-0.9-6.4,3.2-7.9,5.4c-1.1,1.5,0,3,1.4,3.4c-0.1,0.2-0.1,0.4-0.2,0.6
		C667.6,469,668.3,470.5,669.9,470.6 M672.4,464.6c0.2-0.2,0.4-0.4,0.6-0.6c0,0,0.2-0.2,0.4-0.4c0.4,0.8,0.7,1.7,1.1,2.5
		c-0.8,0.1-1.6,0.1-2.4,0.2C672.2,465.8,672.3,465.2,672.4,464.6"/>
	<path class="st4" d="M694.4,498.4c-5.6-2.9-13-1.8-19.1-1.2c-6.2,0.6-13.5,0.8-19.1,3.8c-1.2,0.6-0.8,2.3,0.3,2.7
		c5.7,2.1,12.8,1.3,18.8,1.1c6-0.3,12.5,0.4,18.4-0.6C696.4,503.7,696.7,499.6,694.4,498.4"/>
	<path class="st5" d="M693.9,491.7c0-0.8-0.7-1.4-1.5-1.4c-1.4,0-2.7,0-3.9,0.1c0.5,0.2,0.9,0.7,0.9,1.4c0,0.8-0.6,1.5-1.5,1.5
		l-0.4,0c-1,0-2.1,0-3.1,0.1c0.2,0.1,0.5,0.2,0.7,0.2c1.7-0.1,3.6-0.2,5.8-0.2c0.2,1.9,0.5,3.6,0.8,5.3c0.2,1.5,0.5,2.9,0.7,4.3
		c-8.5,0-17,0.2-25.3,0.4c-3.6,0.1-7.1,0.2-10.7,0.3c-0.1-2.6-0.2-5.1-0.2-7.6c0-0.5,0-0.9,0-1.4c1,0,2.1,0,3.1,0.1
		c0.4,0,0.8,0,1.3,0.1c0.5,0,1.1-0.3,1.3-0.7c-2,0.1-4,0.2-5.9,0.3c0,0-0.1,0-0.1,0c-0.8,0-1.4-0.6-1.5-1.4c0-0.6,0.3-1.1,0.7-1.4
		c-0.2,0-0.4,0-0.5,0c-0.8,0.1-1.4,0.7-1.4,1.5c0,0.9,0,1.9,0,2.8c0,3,0.1,6.1,0.3,9.2c0.1,0.8,0.7,1.4,1.5,1.4
		c4.1-0.1,8.2-0.2,12.2-0.3c8.8-0.3,17.9-0.5,26.8-0.4c0.4,0,0.8-0.2,1.1-0.5c0.3-0.3,0.4-0.7,0.4-1.1c-0.2-2.3-0.5-4.3-0.8-6.2
		C694.4,496,694,494,693.9,491.7"/>
	<path class="st5" d="M663.5,487.1c0.2-0.8,0.4-1.7,0.6-2.5c-0.4,0-0.8,0-1.2,0.1c0,0,0,0-0.1,0c-0.8,0-1.5-0.6-1.5-1.4
		c0-0.8,0.6-1.5,1.4-1.6c0.6,0,1.3-0.1,2-0.1c0.7-2.9,1.3-5.8,2-8.8c-0.4,0-0.9-0.1-1.3-0.1c-0.8-0.1-1.4-0.8-1.4-1.6
		c0-0.1,0-0.2,0-0.2c-1.3,5.2-2.5,10.5-3.6,15.6c-0.4,1.6-0.7,3.2-1.1,4.8c1-0.1,2.1-0.1,3.1-0.2C663,489.7,663.3,488.4,663.5,487.1
		"/>
	<path class="st5" d="M665.8,469.7c0.6,0.1,1.2,0.1,1.8,0.1c0.9-3.5,1.8-7.1,2.9-10.5c0.4,0,0.9,0,1.3,0c1.4,0,2.9,0,4.4,0.1
		c0.8,3.5,1.6,7.2,2.3,10.9c0.6,0,1.2,0,1.8,0c0.8,0,1.5,0.7,1.5,1.5c0,0.8-0.7,1.5-1.5,1.5c-0.4,0-0.8,0-1.2,0c0.5,2.3,1,4.7,1.5,7
		c0.6-0.1,1.1-0.1,1.7-0.2c0.8-0.1,1.6,0.5,1.6,1.4c0.1,0.8-0.5,1.6-1.4,1.6c-0.4,0-0.9,0.1-1.3,0.1c0.6,2.4,1.2,4.8,1.8,7.2
		c1,0,2.1-0.1,3.1-0.1c-1.8-6.3-3.2-13.1-4.6-19.7c-0.9-4.3-1.8-8.8-2.8-13c-0.2-0.6-0.7-1.1-1.4-1.1c-1.9-0.1-3.8-0.1-5.6-0.1
		c-0.8,0-1.6,0-2.4,0c-0.7,0-1.3,0.4-1.5,1.1c-1.4,4.4-2.5,8.9-3.6,13.4C664.5,470.1,665.1,469.6,665.8,469.7"/>
	<path class="st5" d="M654.4,493.1c0.1,0.8,0.7,1.4,1.5,1.4c0,0,0.1,0,0.1,0c2-0.1,3.9-0.2,5.9-0.3c7.5-0.4,15.1-0.6,22.6-0.8
		c1,0,2.1-0.1,3.1-0.1l0.4,0c0.8,0,1.5-0.7,1.5-1.5c0-0.6-0.4-1.1-0.9-1.4c-0.2-0.1-0.4-0.1-0.6-0.1l-0.4,0c-0.4,0-0.9,0-1.3,0
		c-1,0-2,0-3.1,0.1c-6.8,0.2-13.6,0.4-20.4,0.7c-1,0.1-2.1,0.1-3.1,0.2c-1.3,0.1-2.5,0.1-3.8,0.2c-0.3,0-0.5,0.1-0.7,0.2
		C654.6,492,654.3,492.5,654.4,493.1"/>
	<path class="st5" d="M681.3,483.2c0.4,0,0.9-0.1,1.3-0.1c0.8-0.1,1.4-0.8,1.4-1.6c-0.1-0.8-0.8-1.4-1.6-1.4
		c-0.6,0.1-1.1,0.1-1.7,0.2c-0.7,0.1-1.5,0.1-2.2,0.2c-4.5,0.4-9.1,0.8-13.6,1.1c-0.7,0-1.3,0.1-2,0.1c-0.8,0-1.5,0.7-1.4,1.6
		c0,0.8,0.7,1.4,1.5,1.4c0,0,0,0,0.1,0c0.4,0,0.8,0,1.2-0.1c4.9-0.2,9.8-0.7,14.6-1.1C679.5,483.4,680.4,483.3,681.3,483.2"/>
	<path class="st5" d="M665.5,472.7c0.4,0,0.9,0.1,1.3,0.1c3.8,0.3,7.8,0.5,11.9,0.5h0.3c0.4,0,0.8,0,1.2,0c0.8,0,1.5-0.7,1.5-1.5
		c0-0.8-0.7-1.5-1.5-1.5c-0.6,0-1.2,0-1.8,0c-3.8,0-7.4-0.1-10.9-0.4c-0.6,0-1.2-0.1-1.8-0.1c-0.7-0.1-1.4,0.4-1.6,1
		c0,0,0,0.1,0,0.1c0,0.1,0,0.2,0,0.2C664.1,471.9,664.7,472.6,665.5,472.7"/>
	<path class="st5" d="M872.6,536.8c0-1.7-0.1-3.5-0.1-5.2c0-0.8-0.6-1.5-1.4-1.5c-1.9-0.1-3.9-0.1-6.1-0.1c-5.2,0-10.5,0.2-15.6,0.4
		c-5.9,0.2-11.9,0.5-17.9,0.4c0-1.5,0.1-2.9,0.2-4.4c0.1-3.3,0.2-6.8,0.2-10.2c0-1.1,0-2.3,0-3.4c0-0.8-0.7-1.5-1.5-1.5
		c-11,0-21.8-0.2-30.3-0.4c0-3.3,0-6.7,0-10c0-18.7-0.3-37.7-0.5-56.1c-0.1-5-0.1-10.1-0.2-15.1c0-0.4-0.2-0.8-0.5-1.1
		c-0.3-0.3-5.4-0.4-5.8-0.4c-3.8,0.1-26.7,0.6-29.4,0.6l-1.7,0c-0.8,0-1.5,0.7-1.5,1.5c-0.2,7.5-0.9,15.1-1.6,22.4
		c-3.4,0-6.9-0.1-10.3-0.2c-7-0.1-14.2-0.3-21.3-0.2c-0.8,0-1.4,0.6-1.5,1.4c-0.4,4.5-0.7,9.1-1,13.7c-0.4,5.2-0.8,10.5-1.2,15.7
		c-3.4-0.1-6.9-0.3-10.3-0.5c-3.8-0.2-15.2-0.6-15.4-0.6c-1.7,0-3.3,0-4.9,0.1c-0.8,0-1.4,0.7-1.4,1.5l0,2.9
		c-0.1,5.6-0.1,11.3-0.7,17c-2.1-0.1-4.2-0.1-6.3-0.2c-7-0.2-14.3-0.5-21.4-0.5c-0.9,0-9.5,0.2-10.7,0.2c-0.8,0-1.4,0.6-1.4,1.4
		c-0.2,3.4-0.3,6.8-0.4,10.1c-0.1,3.6-0.2,7.3-0.5,10.9c-1.4,0-2.8,0-4.2,0c-7,0-14.3,0.1-21.5,1c-0.7,0.1-1.3,0.7-1.3,1.4l0,1.4
		c-0.1,4.5-0.3,9.1-0.5,13.7c-5.4-0.2-10.4-0.3-15.5-0.3c-6,0-11.3,0.2-16.1,0.6c-0.8,0.1-1.3,0.7-1.4,1.4c-0.2,3-0.5,5.9-0.9,8.9
		c-0.2,1.5-0.3,3.4-0.5,4.4h3c0.1-1,0.3-2.6,0.5-4c0.3-2.6,0.6-5.2,0.8-7.8c4.4-0.3,9.2-0.4,14.6-0.4c5.5,0,10.9,0.2,16.9,0.3
		c0.8,0,1.7-0.6,1.8-1.4c0.3-5.1-0.2-10.2,0.8-15.2v-0.1c6-0.7,13.1-0.8,19.6-0.8c1.9,0,3.6,0,5.5-0.1c0.8,0,1.3-0.6,1.4-1.4
		c0.4-4.1,0.5-8.4,0.6-12.5c0.1-2.8,0.1-5.8,0.3-8.7c2.9-0.1,5.9-0.2,9.2-0.2c7.1,0,14.3,0.2,21.3,0.5c2.6,0.1,5.1,0.2,7.7,0.3
		c0.8,0.1,1.4-0.6,1.5-1.3c0.7-6.3,0.8-12.6,0.9-18.7l0-1.4c1.1,0,2.2,0,3.3,0c5.1,0,10.2,0.3,15.2,0.6c3.9,0.2,7.8,0.4,11.8,0.5
		c0.8,0,1.5-0.6,1.5-1.4c0.5-5.7,0.9-11.5,1.3-17.2c0.3-4.1,0.6-8.2,0.9-12.3c6.6-0.1,13.3,0.1,19.8,0.2c3.9,0.1,7.8,0.2,11.7,0.2
		c0.8,0,1.4-0.6,1.5-1.4l0.1-0.6c0.7-7.1,1.3-14.5,1.6-21.8c3.1,0,18.2-0.4,20.5-0.4c4.1-0.1,8.2-0.2,12.4-0.3
		c0.1,4.5,0.1,9.1,0.2,13.6c0.3,18.4,0.5,37.4,0.5,56c0,3.8,0,7.6,0,11.5c0,0.8,0.6,1.5,1.5,1.5c8.3,0.2,19.2,0.4,30.4,0.4
		c0,0.6,0,1.2,0,1.9c0,3.3-0.1,6.7-0.2,10c-0.1,2-0.1,4-0.2,5.9c0,0.4,0.1,0.8,0.4,1.1c0.3,0.3,0.7,0.5,1,0.5
		c6.6,0.2,13.2-0.1,19.6-0.4c5.1-0.2,10.3-0.4,15.5-0.4c1.6,0,3.1,0,4.5,0.1c0,1.3,0,2.5,0.1,3.8c0.1,4.1,0.1,8.1,0.1,12.3
		c0,3.3,0,5.9-0.1,8.9h3c0.1-3,0.1-5.7,0.1-8.9C872.7,545,872.6,540.9,872.6,536.8"/>
	<path class="st5" d="M635.4,316.9c-4.6,4.8-9.2,9.7-14,14.8c1.3,0,2.7,0.1,4,0.1c4.2-4.5,8.3-8.8,12.3-13
		C636.9,318.2,636.2,317.5,635.4,316.9"/>
	<path class="st5" d="M607.6,292.9c0.5,0,1,0,1.6,0c-0.1-0.1-0.3-0.3-0.4-0.4c-0.2-0.2-0.3-0.4-0.4-0.6c-0.1,0.2-0.2,0.4-0.3,0.5
		C607.9,292.6,607.8,292.8,607.6,292.9"/>
	<path class="st5" d="M485.3,324.3c8.2-6.1,16.4-12.5,24.4-18.7c-0.3-0.3-0.6-0.6-0.9-1c-0.6-0.6-0.6-1.5,0-2.1s1.5-0.6,2.1,0
		c0.4,0.4,0.8,0.8,1.2,1.2c4.9-3.8,10-7.7,14.9-11.5c8.3,0,16.7,0.1,25.1,0.1c0.8-0.8,1.6-1.7,2.4-2.5c0.6-0.6,1.5-0.6,2.1,0
		c0.6,0.6,0.6,1.5,0,2.1c-0.1,0.2-0.3,0.3-0.4,0.5c1.7,0,3.5,0,5.2,0c-0.1-0.2-0.3-0.3-0.5-0.5c-0.5-0.6-0.5-1.6,0.2-2.1
		c0.6-0.5,1.6-0.5,2.1,0.2c0.7,0.8,1.5,1.7,2.2,2.5c12.8,0.1,25.5,0.2,38.1,0.4c0.8-0.9,1.6-1.7,2.4-2.5c0.6-0.6,1.5-0.6,2.1,0
		c0.2,0.2,0.3,0.4,0.4,0.6c0.1-0.2,0.2-0.4,0.3-0.6c0.6-0.6,1.5-0.6,2.1,0c0.9,0.9,1.8,1.7,2.7,2.6c14.7,0.1,29.7,0.3,44.5,0.4
		c-6.9,7-13.7,14-20.6,21.3c0.8,0.7,1.5,1.3,2.3,2c7.5-7.9,14.9-15.5,22.4-23.1c-0.2-0.2-0.4-0.4-0.6-0.6c-0.4-0.4-0.5-1.1-0.3-1.6
		c0.2-0.4,0.5-0.7,0.9-0.8c-0.2,0-0.3-0.1-0.5-0.1c-19.1-0.1-38.5-0.3-57.3-0.5c-25.5-0.3-51.9-0.5-77.8-0.6c-0.3,0-0.7,0.1-0.9,0.3
		c-5.8,4.4-11.7,9-17.4,13.4c-8.1,6.3-16.5,12.9-25,19.1C484.1,322.8,484.7,323.5,485.3,324.3"/>
	<path class="st5" d="M708.9,334.7c0.6,0.6,0.6,1.5,0,2.1c-0.3,0.3-0.7,0.5-1.1,0.5c-0.4,0-0.8-0.1-1-0.4c-0.9-0.9-1.8-1.7-2.7-2.6
		c-11.7-0.1-21.3-0.3-29.5-0.5c-0.8,0.8-1.6,1.6-2.5,2.5c-0.3,0.3-0.7,0.4-1.1,0.4c-0.4,0-0.8-0.1-1.1-0.4c-0.6-0.6-0.6-1.5,0-2.1
		c0.2-0.2,0.3-0.3,0.5-0.5c-4.1-0.1-7.7-0.2-11.1-0.3l0.4,0.3c0.6,0.5,0.7,1.5,0.2,2.1c-0.3,0.4-0.7,0.5-1.1,0.5
		c-0.3,0-0.7-0.1-1-0.4l-3.3-2.8c-6.7-0.3-12.3-0.5-17.4-0.8c-4-0.2-7.8-0.4-11.6-0.5c-1.3-0.1-2.6-0.1-4-0.1
		c-5.8-0.2-12.2-0.3-20.4-0.3c0.1,0.2,0.3,0.3,0.4,0.5c0.6,0.6,0.5,1.6-0.1,2.1c-0.3,0.3-0.7,0.4-1,0.4c-0.4,0-0.8-0.2-1.1-0.5
		c-0.8-0.8-1.5-1.7-2.3-2.5c-9.3,0-18.6,0.2-27.9,0.5c-0.9,0.9-1.8,1.8-2.7,2.7c-0.3,0.3-0.7,0.4-1,0.4c-0.4,0-0.8-0.2-1.1-0.5
		c-0.6-0.6-0.6-1.5,0-2.1c0.1-0.1,0.3-0.3,0.4-0.4c-7.6,0.3-15.2,0.6-22.8,0.9c0.2,0.1,0.3,0.3,0.5,0.4c0.6,0.6,0.6,1.5,0,2.1
		c-0.3,0.3-0.7,0.5-1.1,0.5c-0.4,0-0.8-0.1-1-0.4c-0.8-0.8-1.7-1.6-2.5-2.4c-6.9,0.3-13.7,0.7-20.5,1.1c-0.9,0.9-1.8,1.8-2.7,2.8
		c-0.3,0.3-0.7,0.4-1.1,0.4c-0.4,0-0.8-0.1-1.1-0.4c-0.6-0.6-0.6-1.5,0-2.1c0.1-0.1,0.3-0.3,0.4-0.4c-0.8,0-1.5,0.1-2.3,0.1
		c-7.6,0.4-15.3,0.8-22.9,1.2c-0.3,1-0.7,2.1-1.2,3.1c8.1-0.4,16.2-0.8,24.3-1.3c28.8-1.6,58.7-3.2,88-3.2c17,0,26.3,0.4,38.1,1
		c15,0.7,83.8,1.6,125,1.9v-3c-0.9,0-52.5,0-53.4,0C708.6,334.4,708.8,334.5,708.9,334.7"/>
	<path class="st5" d="M525.4,321.2c0.7-0.7,1.4-1.5,2-2.2c-5.1-5-10.3-10.1-15.4-15.3c-0.4-0.4-0.8-0.8-1.2-1.2
		c-0.6-0.6-1.5-0.6-2.1,0c-0.6,0.6-0.6,1.5,0,2.1c0.3,0.3,0.6,0.6,0.9,1C514.9,311,520.2,316.2,525.4,321.2"/>
	<path class="st5" d="M529.6,321.1c-0.7,0.7-1.4,1.5-2,2.2c1.7,1.7,3.5,3.4,5.2,5c1.7,1.6,3.3,3.2,5,4.8c0.8,0.8,1.7,1.6,2.5,2.4
		c0.3,0.3,0.7,0.4,1,0.4c0.4,0,0.8-0.2,1.1-0.5c0.6-0.6,0.6-1.5,0-2.1c-0.2-0.1-0.3-0.3-0.5-0.4c-2.3-2.2-4.6-4.5-7-6.8
		C533.2,324.5,531.4,322.8,529.6,321.1"/>
	<path class="st5" d="M529.6,321.1c2.5-2.8,5.1-5.5,7.6-8.2c6.2-6.8,12.6-13.8,19-20.5c0.1-0.2,0.3-0.3,0.4-0.5
		c0.6-0.6,0.6-1.5,0-2.1c-0.6-0.6-1.5-0.6-2.1,0c-0.8,0.8-1.6,1.7-2.4,2.5c-5.8,6.1-11.6,12.4-17.1,18.5c-2.5,2.7-5,5.4-7.5,8.2
		c-0.7,0.7-1.4,1.5-2,2.2c-4.1,4.4-8.3,8.9-12.5,13.2c-0.1,0.1-0.3,0.3-0.4,0.4c-0.6,0.6-0.6,1.5,0,2.1c0.3,0.3,0.7,0.4,1.1,0.4
		c0.4,0,0.8-0.1,1.1-0.5c0.9-0.9,1.8-1.8,2.7-2.8c3.5-3.6,6.9-7.2,10.3-10.9C528.3,322.6,529,321.9,529.6,321.1"/>
	<path class="st5" d="M586,315.1c-0.7,0.7-1.4,1.4-2.1,2.1c0.9,1,1.9,2,2.8,3c3.4,3.6,6.9,7.4,10.3,11.1c0.8,0.8,1.5,1.7,2.3,2.5
		c0.3,0.3,0.7,0.5,1.1,0.5c0.4,0,0.7-0.1,1-0.4c0.6-0.6,0.7-1.5,0.1-2.1c-0.1-0.2-0.3-0.3-0.4-0.5c-4.1-4.4-8.2-8.9-12.2-13.2
		C587.9,317.2,587,316.2,586,315.1"/>
	<path class="st5" d="M584,313c-6.2-6.7-12.5-13.5-18.5-20.4c-0.7-0.8-1.5-1.7-2.2-2.5c-0.5-0.6-1.5-0.7-2.1-0.2
		c-0.6,0.5-0.7,1.5-0.2,2.1c0.1,0.2,0.3,0.3,0.5,0.5c6.6,7.7,13.5,15.2,20.4,22.6C582.6,314.4,583.3,313.7,584,313"/>
	<path class="st5" d="M530.8,292c-0.3-9.1-0.6-278-0.6-287.1c0-1.1,0-2.2,0-3.3c0-0.8-0.7-1.5-1.5-1.5c-0.8,0-1.5,0.7-1.5,1.5
		c0,0.2,0,0.5,0,0.7c0,10.2,0.3,280,0.6,290C528.8,292.1,529.8,292.1,530.8,292"/>
	<path class="st5" d="M583.9,317.3c0.7-0.7,1.4-1.4,2.1-2.1c8.9-8.9,16-16.3,21.6-22.2c0.1-0.2,0.3-0.3,0.4-0.5
		c0.1-0.2,0.3-0.3,0.3-0.5c-0.1-0.3-0.1-0.7,0-1c-0.1-0.2-0.2-0.4-0.4-0.6c-0.6-0.6-1.5-0.5-2.1,0c-0.8,0.8-1.6,1.6-2.4,2.5
		c-5.3,5.5-11.7,12.2-19.6,20.1c-0.7,0.7-1.4,1.4-2.1,2.1c-5.1,5.1-10.8,10.7-17.1,16.9c-0.1,0.1-0.3,0.3-0.4,0.4
		c-0.6,0.6-0.6,1.5,0,2.1c0.3,0.3,0.7,0.5,1.1,0.5c0.4,0,0.8-0.1,1-0.4c0.9-0.9,1.8-1.8,2.7-2.7
		C574.5,326.6,579.4,321.7,583.9,317.3"/>
	<path class="st5" d="M639.7,316.7c-0.8-0.7-1.5-1.3-2.3-2c-8.1-7-16.2-14.3-23.9-21.7c-0.9-0.9-1.8-1.7-2.7-2.6
		c-0.6-0.6-1.5-0.6-2.1,0c-0.2,0.2-0.3,0.4-0.3,0.6c-0.1,0.3-0.1,0.7,0,1c0.1,0.2,0.2,0.4,0.4,0.6c0.1,0.1,0.3,0.3,0.4,0.4
		c8.4,8.3,17.3,16.2,26.2,23.9c0.8,0.7,1.5,1.3,2.3,2c4.8,4.1,9.6,8.2,14.4,12.3l2.4,2l3.3,2.8c0.3,0.2,0.6,0.4,1,0.4
		c0.4,0,0.8-0.2,1.1-0.5c0.5-0.6,0.5-1.6-0.2-2.1l-0.4-0.3l-5.3-4.5C649.3,324.8,644.5,320.8,639.7,316.7"/>
	<path class="st5" d="M704.1,334.2c0.9,0.9,1.8,1.7,2.7,2.6c0.3,0.3,0.7,0.4,1,0.4c0.4,0,0.8-0.1,1.1-0.5c0.6-0.6,0.6-1.5,0-2.1
		c-0.1-0.1-0.3-0.3-0.4-0.4c-5.6-5.5-11.3-10.9-16.9-16.2c-0.2-0.2-0.4-0.4-0.6-0.6c-0.7,0.7-1.4,1.4-2.1,2.1
		c0.2,0.2,0.4,0.4,0.7,0.6C694.3,324.8,699.3,329.5,704.1,334.2"/>
	<path class="st5" d="M662.6,290.4c-0.2,0-0.3,0-0.5,0.1c-0.4,0.1-0.7,0.4-0.9,0.8c-0.2,0.6-0.1,1.2,0.3,1.6
		c0.2,0.2,0.4,0.4,0.6,0.6c8,8.1,16.4,16.1,24.5,23.9c0.7-0.7,1.4-1.4,2.1-2.1c-7.5-7.2-15.2-14.5-22.6-21.9
		c13.6,0.1,25.9,0.1,37.5,0.1c1.9,0,5.4,0.1,7.3,0.1c0.5,0,49.3,38.6,49.8,38.6c0,0,1.5,0.3,1.5-0.9l-1.4-2.1
		c-0.6,0-49.4-38.6-50.1-38.6c-1.8,0-5.3-0.1-7.1-0.1C691.1,290.6,677.7,290.5,662.6,290.4"/>
	<path class="st5" d="M688.8,315.4c-0.7,0.7-1.4,1.4-2.1,2.1c-5,5-10.4,10.3-16.2,16.1c-0.2,0.1-0.3,0.3-0.5,0.4
		c-0.6,0.6-0.6,1.5,0,2.1c0.3,0.3,0.7,0.4,1.1,0.4c0.4,0,0.8-0.1,1.1-0.4c0.8-0.8,1.7-1.7,2.5-2.5c5.1-5,9.8-9.7,14.3-14.2
		c0.7-0.7,1.4-1.4,2.1-2.1c7.3-7.2,16.6-16.2,22.9-22.4l-2.8-1.7c0,0-0.1,0.1-0.1,0.1C704.1,300.3,696.9,307.4,688.8,315.4"/>
	<path class="st5" d="M209.9,315.5c4.6,4.8,9.2,9.7,14,14.8c-1.3,0-2.7,0.1-4,0.1c-4.2-4.5-8.3-8.8-12.3-13
		C208.4,316.9,209.1,316.2,209.9,315.5"/>
	<path class="st5" d="M237.7,291.6c-0.5,0-1,0-1.6,0c0.1-0.1,0.3-0.3,0.4-0.4c0.2-0.2,0.3-0.4,0.4-0.6c0.1,0.2,0.2,0.4,0.3,0.5
		C237.4,291.3,237.5,291.4,237.7,291.6"/>
	<path class="st5" d="M360,323c-8.2-6.1-16.4-12.5-24.4-18.7c0.3-0.3,0.6-0.6,0.9-1c0.6-0.6,0.6-1.5,0-2.1c-0.6-0.6-1.5-0.6-2.1,0
		c-0.4,0.4-0.8,0.8-1.2,1.2c-4.9-3.8-10-7.7-14.9-11.5c-8.3,0-16.7,0.1-25.1,0.2c-0.8-0.8-1.6-1.7-2.4-2.5c-0.6-0.6-1.5-0.6-2.1,0
		c-0.6,0.6-0.6,1.5,0,2.1c0.1,0.2,0.3,0.3,0.4,0.5c-1.7,0-3.5,0-5.2,0c0.1-0.2,0.3-0.3,0.5-0.5c0.5-0.6,0.5-1.6-0.2-2.1
		c-0.6-0.5-1.6-0.5-2.1,0.2c-0.7,0.8-1.5,1.7-2.2,2.5c-12.8,0.1-25.5,0.2-38.1,0.4c-0.8-0.9-1.6-1.7-2.4-2.5c-0.6-0.6-1.5-0.6-2.1,0
		c-0.2,0.2-0.3,0.4-0.4,0.6c-0.1-0.2-0.2-0.4-0.3-0.6c-0.6-0.6-1.5-0.6-2.1,0c-0.9,0.9-1.8,1.7-2.7,2.6c-14.7,0.1-29.7,0.3-44.5,0.4
		c6.9,7,13.7,14,20.6,21.3c-0.8,0.7-1.5,1.3-2.3,2c-7.5-7.9-14.9-15.5-22.4-23.1c0.2-0.2,0.4-0.4,0.6-0.6c0.4-0.4,0.5-1.1,0.3-1.6
		c-0.2-0.4-0.5-0.7-0.9-0.8c0.2,0,0.3-0.1,0.5-0.1c19.1-0.1,38.5-0.3,57.3-0.5c25.5-0.3,51.9-0.5,77.8-0.6c0.3,0,0.7,0.1,0.9,0.3
		c5.8,4.4,11.7,9,17.4,13.4c8.1,6.3,16.5,12.9,25,19.1C361.2,321.4,360.6,322.2,360,323"/>
	<path class="st5" d="M141.2,332.9c11.7-0.1,21.3-0.3,29.5-0.5c0.8,0.8,1.6,1.6,2.5,2.5c0.3,0.3,0.7,0.4,1.1,0.4
		c0.4,0,0.8-0.1,1.1-0.4c0.6-0.6,0.6-1.5,0-2.1c-0.2-0.2-0.3-0.3-0.5-0.5c4.1-0.1,7.7-0.2,11.1-0.3l-0.4,0.3
		c-0.6,0.5-0.7,1.5-0.2,2.1c0.3,0.3,0.7,0.5,1.1,0.5c0.3,0,0.7-0.1,1-0.4l3.3-2.8c6.7-0.3,12.3-0.5,17.4-0.8c4-0.2,7.8-0.4,11.6-0.5
		c1.3-0.1,2.6-0.1,4-0.1c5.8-0.2,12.2-0.3,20.4-0.3c-0.1,0.2-0.3,0.3-0.4,0.5c-0.6,0.6-0.5,1.6,0.1,2.1c0.3,0.3,0.6,0.4,1,0.4
		c0.4,0,0.8-0.2,1.1-0.5c0.8-0.8,1.5-1.7,2.3-2.5c9.3,0,18.6,0.2,27.9,0.5c0.9,0.9,1.8,1.8,2.7,2.7c0.3,0.3,0.7,0.4,1,0.4
		c0.4,0,0.8-0.2,1.1-0.5c0.6-0.6,0.6-1.5,0-2.1c-0.1-0.1-0.3-0.3-0.4-0.4c7.6,0.3,15.2,0.6,22.8,0.9c-0.2,0.1-0.3,0.3-0.5,0.4
		c-0.6,0.6-0.6,1.5,0,2.1c0.3,0.3,0.7,0.5,1.1,0.5c0.4,0,0.8-0.1,1-0.4c0.8-0.8,1.7-1.6,2.5-2.4c6.9,0.3,13.7,0.7,20.5,1.1
		c0.9,0.9,1.8,1.8,2.7,2.8c0.3,0.3,0.7,0.4,1.1,0.4c0.4,0,0.8-0.1,1-0.4c0.6-0.6,0.6-1.5,0-2.1c-0.1-0.1-0.3-0.3-0.4-0.4
		c0.8,0,1.5,0.1,2.3,0.1c7.6,0.4,15.3,0.8,22.9,1.2c0.3,1,0.7,2.1,1.2,3.1c-8.1-0.4-16.2-0.8-24.3-1.3c-28.8-1.6-58.7-3.2-88-3.2
		c-17,0-26.3,0.4-38.1,1c-15,0.7-33,1.6-74.2,1.9l1.6-3.5c0.9,0,0.2,0.4,1,0.4"/>
	<path class="st5" d="M319.9,319.9c-0.7-0.7-1.4-1.5-2-2.2c5.1-5,10.3-10.1,15.4-15.3c0.4-0.4,0.8-0.8,1.2-1.2
		c0.6-0.6,1.5-0.6,2.1,0s0.6,1.5,0,2.1c-0.3,0.3-0.6,0.6-0.9,1C330.4,309.6,325.1,314.8,319.9,319.9"/>
	<path class="st5" d="M315.7,319.8c0.7,0.7,1.4,1.5,2,2.2c-1.7,1.7-3.5,3.4-5.2,5c-1.7,1.6-3.3,3.2-5,4.8c-0.8,0.8-1.7,1.6-2.5,2.4
		c-0.3,0.3-0.7,0.4-1,0.4c-0.4,0-0.8-0.2-1.1-0.5c-0.6-0.6-0.6-1.5,0-2.1c0.2-0.1,0.3-0.3,0.5-0.4c2.3-2.2,4.6-4.5,7-6.8
		C312.1,323.2,313.9,321.5,315.7,319.8"/>
	<path class="st5" d="M315.7,319.8c-2.5-2.8-5.1-5.5-7.6-8.2c-6.2-6.8-12.6-13.8-19-20.5c-0.1-0.2-0.3-0.3-0.4-0.5
		c-0.6-0.6-0.6-1.5,0-2.1c0.6-0.6,1.5-0.6,2.1,0c0.8,0.8,1.6,1.7,2.4,2.5c5.8,6.1,11.6,12.4,17.1,18.5c2.5,2.7,5,5.4,7.5,8.2
		c0.7,0.7,1.4,1.5,2,2.2c4.1,4.4,8.3,8.9,12.5,13.2c0.1,0.1,0.3,0.3,0.4,0.4c0.6,0.6,0.6,1.5,0,2.1c-0.3,0.3-0.7,0.4-1.1,0.4
		c-0.4,0-0.8-0.1-1.1-0.5c-0.9-0.9-1.8-1.8-2.7-2.8c-3.5-3.6-6.9-7.2-10.3-10.9C317,321.3,316.3,320.5,315.7,319.8"/>
	<path class="st5" d="M259.3,313.8c0.7,0.7,1.4,1.4,2.1,2.1c-0.9,1-1.9,2-2.8,3c-3.4,3.6-6.9,7.4-10.3,11.1
		c-0.8,0.8-1.5,1.7-2.3,2.5c-0.3,0.3-0.7,0.5-1.1,0.5c-0.4,0-0.7-0.1-1-0.4c-0.6-0.6-0.7-1.5-0.1-2.1c0.1-0.2,0.3-0.3,0.4-0.5
		c4.1-4.4,8.2-8.9,12.2-13.2C257.4,315.9,258.3,314.8,259.3,313.8"/>
	<path class="st5" d="M261.3,311.6c6.2-6.7,12.5-13.5,18.5-20.4c0.7-0.8,1.5-1.7,2.2-2.5c0.5-0.6,1.5-0.7,2.1-0.2
		c0.6,0.5,0.7,1.5,0.2,2.1c-0.1,0.2-0.3,0.3-0.5,0.5c-6.6,7.7-13.5,15.2-20.4,22.6C262.7,313,262,312.3,261.3,311.6"/>
	<path class="st5" d="M261.4,315.9c-0.7-0.7-1.4-1.4-2.1-2.1c-8.9-8.9-16-16.3-21.6-22.2c-0.1-0.2-0.3-0.3-0.4-0.5
		c-0.1-0.2-0.3-0.3-0.3-0.5c0.1-0.3,0.1-0.7,0-1c0.1-0.2,0.2-0.4,0.4-0.6c0.6-0.6,1.5-0.5,2.1,0c0.8,0.8,1.6,1.6,2.4,2.5
		c5.3,5.5,11.7,12.2,19.6,20.1c0.7,0.7,1.4,1.4,2.1,2.1c5.1,5.1,10.8,10.7,17.1,16.9c0.1,0.1,0.3,0.3,0.4,0.4c0.6,0.6,0.6,1.5,0,2.1
		c-0.3,0.3-0.7,0.5-1.1,0.5c-0.4,0-0.8-0.1-1-0.4c-0.9-0.9-1.8-1.8-2.7-2.7C270.8,325.3,265.9,320.4,261.4,315.9"/>
	<path class="st5" d="M205.6,315.3c0.8-0.7,1.5-1.3,2.3-2c8.1-7,16.2-14.3,23.9-21.7c0.9-0.9,1.8-1.7,2.7-2.6c0.6-0.6,1.5-0.6,2.1,0
		c0.2,0.2,0.3,0.4,0.3,0.6c0.1,0.3,0.1,0.7,0,1c-0.1,0.2-0.2,0.4-0.4,0.6c-0.1,0.1-0.3,0.3-0.4,0.4c-8.4,8.3-17.3,16.2-26.2,23.9
		c-0.8,0.7-1.5,1.3-2.3,2c-4.8,4.1-9.6,8.2-14.4,12.3l-2.4,2l-3.3,2.8c-0.3,0.2-0.6,0.4-1,0.4c-0.4,0-0.8-0.2-1.1-0.5
		c-0.5-0.6-0.5-1.6,0.2-2.1l0.4-0.3l5.3-4.5C196,323.5,200.8,319.4,205.6,315.3"/>
	<path class="st5" d="M182.7,289.1c0.2,0,0.3,0,0.5,0.1c0.4,0.1,0.7,0.4,0.9,0.8c0.2,0.6,0.1,1.2-0.3,1.6c-0.2,0.2-0.4,0.4-0.6,0.6
		c-8,8.1-16.4,16.1-24.5,23.9c-0.7-0.7-1.4-1.4-2.1-2.1c7.5-7.2,15.2-14.5,22.6-21.9c-13.6,0.1-25.9,0.1-37.5,0.1
		c-2.4,0-4.9,0-7.2,0c0,0-0.1-0.1-0.1-0.1v-2.9c2.4,0,4.9,0,7.4,0C154.2,289.2,167.6,289.2,182.7,289.1"/>
	<path class="st5" d="M156.5,314c0.7,0.7,1.4,1.4,2.1,2.1c5,5,10.4,10.3,16.2,16.1c0.2,0.1,0.3,0.3,0.5,0.4c0.6,0.6,0.6,1.5,0,2.1
		c-0.3,0.3-0.7,0.4-1.1,0.4c-0.4,0-0.8-0.1-1.1-0.4c-0.8-0.8-1.7-1.7-2.5-2.5c-5.1-5-9.8-9.7-14.3-14.2c-0.7-0.7-1.4-1.4-2.1-2.1
		c-7.3-7.2-13.9-13.7-20.2-19.8v-4.2c0,0,0.1,0.1,0.1,0.1C141.2,299,148.4,306.1,156.5,314"/>
	<path class="st4" d="M-118,240.4c8.7-0.4,17.3-0.9,26-0.5c9.4,0.5,18.6,1.8,28,1.8c8.8,0,17.3-0.9,26,0.1
		c7.1,0.8,14.4,3.4,20.8-1.2c4.1-2.9,1.4-9.2-2.8-8.5c-1.7-4.1-6.2-7.2-10.4-7.6c-2.7-0.3-3.2,3.4-1.3,4.7c1.7,1.1,3.5,2,5.1,3.2
		c0.6,0.4,1.1,0.9,1.6,1.4c-2.3,0.3-4.7-0.3-6.9-0.6c-4-0.7-7.8-1.2-11.8-1c-8.2,0.5-16.3,1-24.5,0.6c-15.8-0.9-32.2-2.1-48,0.6
		c-0.3-1-0.4-2-0.2-3c0-0.8-1.2-1.1-1.5-0.4c-0.9,1.9-1.8,3.7-2.9,5.5C-122.2,237.5-120.5,240.5-118,240.4"/>
	<path class="st4" d="M-61.1,205.2c3.5,1.9,7.4,3.4,8.2,7.9c0.1,0.7,1.4,0.7,1.5,0c1.4-8.5-8.5-15.8-15.1-19.1
		c-2.9-1.5-6.1,2.2-3.6,4.6C-67.4,201.3-64.4,203.4-61.1,205.2"/>
	<path class="st4" d="M-43.5,207.7c0.7,0.4,1.4,0.9,1.9,1.5c-0.8,1.1-0.8,2.7,0.8,3.4c1.9,0.9,3.8,2.1,5.1,3.9
		c1.4,1.8,3.1,5.3,2.5,7.6c-0.2,0.8,0.9,1,1.2,0.3c0.7-1.7,2-3.3,2.1-5.3c0.1-1.6-0.3-3.5-1-5c-1.4-2.9-3.9-5-7-5.9
		c-0.2-0.3-0.4-0.5-0.7-0.7c-1.1-1-2.4-1.8-3.8-2.2C-43.9,205-44.8,207-43.5,207.7"/>
	<path class="st5" d="M-27.9,222.3c0-0.2,0-0.4,0-0.7c0-9.9-7.1-16.9-17.2-16.9c-2,0-3.9,0.3-5.6,0.9c-5.6-8.5-13.1-13.1-21.1-13.1
		c-14,0-22.7,8-23.9,21.9c-1.8-0.4-3.5-0.6-5.2-0.6c-14.3,0-21.8,13-21.8,25.9c0,0.4,0,0.8,0,1.1c0,0.7,0.6,1.2,1.3,1.3l104.5,1.6
		c0.6,0,1.1-0.4,1.3-0.9c0.5-1.7,0.7-3.5,0.7-5.2C-15,230.3-20.7,223.7-27.9,222.3 M-18,241.3l-102.2-1.6
		c0.1-11.5,6.7-23.1,19.2-23.1c1.9,0,4,0.3,6,0.9c0.4,0.1,0.8,0,1.1-0.2c0.3-0.2,0.5-0.6,0.5-1c0.8-18.3,13.8-21.1,21.4-21.1
		c10,0,16.5,8,19.5,12.8c0.3,0.5,1,0.8,1.6,0.5c1.7-0.7,3.6-1.1,5.6-1.1c8.6,0,14.6,5.9,14.6,14.3c0,0.6,0,1.1-0.1,1.7
		c-0.1,0.7,0.5,1.3,1.2,1.4c6.5,0.6,11.9,6.5,11.9,13C-17.6,238.9-17.7,240.1-18,241.3"/>
	<path class="st5" d="M588.8,556.2c-4.8,1.5-10.1,0.3-13.4-2.9c-0.6-0.6-1.5-0.6-2-0.1c-2.6,2.3-5.4,3.6-8.8,3.9
		c-4.7,0.4-9-1.2-11.7-4.4c-0.3-0.3-0.7-0.5-1.1-0.5c-0.4,0-0.8,0.2-1.1,0.5c-2.8,3-6.1,4.7-9.8,5.1c-3.9,0.4-8.9-0.8-11.3-4.2
		c-0.3-0.4-0.7-0.6-1.2-0.6c-0.5,0-0.9,0.2-1.2,0.5c-2.2,2.6-4.6,3.9-7.8,4.2c-4.7,0.4-9.7-1.8-12.4-5.6c-0.3-0.4-0.7-0.6-1.1-0.6
		c-0.4,0-0.9,0.1-1.2,0.4c-2.3,2.3-6.1,5.2-11,5.6c-5.8,0.5-11.1-1.9-13.4-6.3c-0.2-0.4-0.6-0.7-1.1-0.8c-0.5-0.1-0.9,0.1-1.3,0.4
		c-3.4,3-7.7,5-12,5.4c-0.8,0.1-1.4,0.1-2.4,0v0.6c-3-0.2-6.1-1.4-8.2-3.5c-0.6-0.6-1.5-0.6-2-0.1c-2.6,2.3-5.4,3.6-8.8,3.9
		c-4.7,0.4-9-1.2-11.7-4.4c-0.3-0.3-0.7-0.5-1.1-0.5c-0.4,0-0.8,0.2-1.1,0.5c-2.8,3-6.1,4.7-9.8,5.1c-3.9,0.4-8.9-0.8-11.3-4.2
		c-0.3-0.4-0.7-0.6-1.2-0.6c-0.5,0-0.9,0.2-1.2,0.5c-2.2,2.6-4.6,3.9-7.8,4.2c-4.7,0.4-9.7-1.8-12.4-5.6c-0.3-0.4-0.7-0.6-1.1-0.6
		c-0.4,0-0.9,0.1-1.2,0.4c-2.3,2.3-6.1,5.2-11,5.6c-5.8,0.5-11.1-1.9-13.4-6.3c-0.2-0.4-0.6-0.7-1.1-0.8c-0.5-0.1-0.9,0.1-1.3,0.4
		c-3.4,3-7.7,5-12,5.4c-0.8,0.1-1.6,0.1-2.4,0c0,1,0,2,0,3c0.9,0,1.7,0,2.6-0.1c4.3-0.4,8.8-2.2,12.4-5c3.2,4.4,9.1,6.9,15.4,6.3
		c5-0.5,8.9-3,11.6-5.3c3.4,3.9,8.8,6,14,5.5c3.4-0.3,6.2-1.6,8.7-4c3,3,7.8,4.5,12.9,4.1c3.9-0.4,7.5-2,10.6-4.9
		c3.3,3.2,8.1,4.8,13.1,4.3c3.6-0.3,6.6-1.5,9.4-3.8c3.2,2.6,7.4,3.9,11.8,3.5c1-0.1,2-0.3,3-0.6c0-0.2,0-0.4-0.1-0.6
		c3.4-0.8,6.7-2.4,9.5-4.6c3.2,4.4,9.1,6.9,15.4,6.3c5-0.5,8.9-3,11.6-5.3c3.4,3.9,8.8,6,14,5.5c3.4-0.3,6.2-1.6,8.7-4
		c3,3,7.8,4.5,12.9,4.1c3.9-0.4,7.5-2,10.6-4.9c3.3,3.2,8.1,4.8,13.1,4.3c3.6-0.3,6.6-1.5,9.4-3.8c3.2,2.6,7.4,3.9,11.8,3.5
		c1-0.1,2-0.3,3-0.6C589,558.2,588.9,557.2,588.8,556.2"/>
	<path class="st4" d="M332.3,554.9c-2.4-2.2-6.6-6.6-10.3-7.6c-2.7,3.1-6.4,5.2-10.8,4.2c-2.4-0.6-3.8-2.3-5.9-3.3
		c-1.5-0.8-0.4-0.7-1.1-0.6c-0.4,0.1-1.8,1.5-2.1,1.7c-3.9,2.3-7.4-0.4-10.6-2.8c-2.3-1.8-4.6-3.7-6.7-5.8c-1.5,1.9-3.2,3.6-5.3,4.8
		c-4.7,2.9-8.5-4.1-4.2-7.2c2.4-1.7,4.2-3.6,5.7-6c1.5-2.4,5.2-2.6,6.6,0c0.9,1.6,2.1,3.1,3.3,4.5c1.3,1.4,3.8,2.8,4.7,4.2
		c0,0,0.7,0.8,0.8,1.5c0.3-0.5,0.7-1.1,0.8-1.2c1.2-1.3,2.8-2.4,4.5-3c3.1-1.2,6.1-0.7,8.7,1.5c1,0.9,1.8,2.3,3.1,2.8
		c2.1,0.9,4.2-0.7,6.2-1.4c1.6-0.6,3.2,0.7,3.7,2.1c0.8,2.2,3.3,3.9,4.9,5.4c1.7,1.7,3.3,3.4,4.8,5.2
		C334,554.6,333,555.6,332.3,554.9"/>
	<path class="st4" d="M151.5,491c0.2-0.1,0.5-0.3,0.7-0.4c1.8-1,4.5-0.8,5.9,0.8c0.3,0.3,0.5,0.6,0.8,0.9c1,1.1,1.4,2.2,1.3,3.3
		c0.8,1,1.7,1.9,2.5,2.2c1.4,0.4,3.8-1.7,5-2.3c3.8-1.9,7.5-2.3,11,0.3c3.8,2.8,5.3,7.3,8.1,10.9c2.6,3.5,10.5,4.2,12.7,0
		c0.6-1.2,1.9-1.4,3.1-1.2c3.8,0.5,6.6,3,9.2,5.6c2.5,2.5,4.7,5,8.4,3.7c6.4-2.3,11.6-8,16.9-12c4.1-3,8.6-4.4,12.9-1.1
		c3,2.3,5.3,5.1,7.5,8.1c1.4,0.7,2.8,1.4,4.3,2c4.4,1.7,2.6,8.9-2,7.2c-3.6-0.8-6.9-3.1-10.3-4.5c0.2,2.8-2.9,4.6-5.4,4.2
		c-1.5-0.2-3-0.7-4.4-1c-2.2,2.3-5.6,2.9-9,2.5c-4.6,3.5-9.8,6.7-15.6,5.5c-6.3-1.3-10.1-7.1-13.3-12.6c-2.8,3-6.4,4.2-11.3,3.7
		c-5.7-0.5-9-3.9-11.9-8.5c-1.1-1.8-3.1-6.2-5.4-6.2c-2.5-0.1-5.6,3.4-8.2,4.1c-6.4,1.8-10.3-3.5-14.3-7.5
		C148.3,496.5,148.8,492.6,151.5,491"/>
	<path class="st4" d="M274.9,536.1c-1.8,3.1-4.6,6-6.6,8c-4.5,4.6-9.7,9.1-15.7,11.6c-2.2,0.9-4.1-0.1-5.3-1.7
		c-0.9,0-1.8-0.5-2.3-1.4c-1.2-2.2-7.7,1.7-9.6,2c-4.9,0.9-5.9-6.6-0.9-6.7c4.5-0.1,9.5-3.2,13.1-0.8c0.3-0.3,0.6-0.5,1-0.7
		c4.8-2.3,9.4-4.8,13.6-8.2c1-0.8,2-1.6,2.9-2.4c-1.1,0-2.1-0.5-2.9-1.5c-1.5-1.9-0.8-4.2,1.1-5.6c1.3-0.9,2.7-1.4,4.2-1.9
		c0-0.1,0-0.2,0-0.3c0-0.6-0.1-1.2-0.2-1.8c-0.2-2.6,3.3-3,4.6-1.2c0.2,0.3,0.4,0.6,0.6,1c0.2,0,0.4,0,0.5,0
		C280.4,524.4,280.9,534.5,274.9,536.1"/>
	<path class="st5" d="M343.5,559.9c-0.4,0-0.7-0.1-1-0.4c-8.1-7.2-14.8-13.6-20.5-19c0.3-0.2,0.7-0.3,1-0.5c0.7-0.4,1-1.3,0.6-2
		s-1.3-1-2-0.6c-0.7,0.4-1.3,0.7-1.9,0.9c-1.2-1.2-2.4-2.4-3.6-3.5c-8.6-8.3-14.8-14.3-17.1-14.3c-0.2,0-0.3,0-0.3,0.1
		c-3.4,2.9-6.9,5.6-10.3,8.3c-0.4-0.4-0.8-0.8-1.3-1.2c-0.6-0.6-1.6-0.5-2.1,0.1c-0.6,0.6-0.5,1.6,0.1,2.1c0.3,0.3,0.6,0.6,0.9,0.9
		c-0.8,0.6-1.5,1.2-2.2,1.7c-5.1,3.9-10.4,8-15.5,12.4c-0.6,0.5-1.6,0.5-2.1-0.2c-0.5-0.6-0.5-1.6,0.2-2.1c4.1-3.5,8.3-6.8,12.5-10
		l1.2,1.2c0.3,0.3,0.7,0.4,1.1,0.4c0.4,0,0.8-0.1,1.1-0.4c0.6-0.6,0.6-1.5,0-2.1l-0.9-0.9c0.3-0.2,0.5-0.4,0.8-0.6
		c4.9-3.8,9.9-7.7,14.9-11.8c0.6-0.5,1.4-0.8,2.2-0.8c3.5,0,8.4,4.8,19.2,15.2c6.8,6.6,15.2,14.7,26.3,24.6c0.6,0.6,0.7,1.5,0.1,2.1
		C344.3,559.7,343.9,559.9,343.5,559.9"/>
	<path class="st5" d="M282.1,533.7c-0.3,0.3-0.7,0.4-1.1,0.4c-0.4,0-0.8-0.1-1.1-0.4l-1.2-1.2l-3.3-3.3
		c-11.5-11.6-23.4-23.6-36.2-35.1c-0.4-0.4-1-1-1.7-1.7c-1.5-1.5-5.9-5.9-7.7-6.5c-5.7,4.1-11.3,7.4-15.9,9.4
		c-0.6,0.3-1.3,0.1-1.7-0.4c-6.4-7.2-11.9-14.3-16.3-20c-6.3-8.2-11.8-15.2-14.5-15.2c-4.2,0-6.6,4.8-9.1,9.9
		c-1.2,2.4-2.4,4.8-3.8,6.7c-3.7,5-7.8,9.5-12.9,13.8c-0.3-0.4-0.6-0.7-0.9-1.1c-0.5-0.6-1.5-0.7-2.1-0.2c-0.6,0.5-0.7,1.5-0.2,2.1
		c0.3,0.4,0.6,0.8,1,1.1c-2.2,1.8-4.6,3.6-7.2,5.4c-0.7,0.5-1.6,0.3-2.1-0.4c-0.5-0.7-0.3-1.6,0.4-2.1c9.4-6.6,16.1-12.8,21.6-20.4
		c1.3-1.7,2.3-3.9,3.5-6.3c2.7-5.4,5.7-11.6,11.8-11.6c4.1,0,8.9,6.2,16.8,16.4c4.2,5.4,9.4,12.1,15.5,19c4.2-2,9.4-5.1,14.6-8.8
		c0.4-0.3,0.7-0.5,1.2-0.5c2.5,0,6.1,3.4,10.2,7.5c0.7,0.7,1.2,1.2,1.6,1.6c4.6,4.2,29.6,28.5,36.3,35.2l3.6,3.6l0.9,0.9
		C282.6,532.1,282.6,533.1,282.1,533.7"/>
	<path class="st5" d="M285,527.7c0.6-0.6,1.5-0.6,2.1-0.1c0.4,0.4,0.9,0.8,1.3,1.2c3.3,3.2,6,6.2,8.3,9.3c0.5-0.4,1.1-0.9,1.6-1.3
		c1.5-1.3,3.1-2.8,5.5-2.8c2.6,0,4.5,1.5,6.2,2.9c1.6,1.3,3.1,2.5,5,2.5c1.4,0,2.9-0.4,4.7-1.2c0.6-0.3,1.2-0.6,1.9-0.9
		c0.7-0.4,1.6-0.1,2,0.6c0.4,0.7,0.1,1.6-0.6,2c-0.3,0.2-0.6,0.3-1,0.5c-2,1-4.4,1.9-7,1.9c-3,0-5.1-1.7-6.9-3.2
		c-1.5-1.2-2.8-2.2-4.3-2.2c-1.2,0-2.1,0.8-3.5,2c-0.9,0.8-2,1.8-3.3,2.4c-0.7,0.3-1.5,0.1-1.9-0.5c-2.4-3.4-5.3-6.7-9.1-10.3
		c-0.3-0.3-0.6-0.6-0.9-0.9C284.4,529.2,284.4,528.3,285,527.7"/>
	<path class="st5" d="M152.5,488.7c0.6-0.5,1.6-0.4,2.1,0.2c0.3,0.4,0.6,0.8,0.9,1.1c2.9,3.4,5.1,5.1,6.4,5.1c0.4,0,1.4-1.1,2-1.7
		c1.2-1.3,2.5-2.6,4.2-2.6c0,0,0.2,0,0.2,0c9,0.6,12.4,6,15.1,10.4c3.7,5.8,6.1,9.7,20.5,1.1c0.5-0.3,1.1-0.3,1.6,0
		c1.7,1.1,3,2.5,4.2,3.8c2.2,2.5,4.2,4.6,8.8,4.6c4.3,0,8.4-2.5,12.7-5.2c3.6-2.2,7.2-4.5,11.2-5.4c0.8-0.2,1.6,0.3,1.8,1.1
		c0.2,0.8-0.3,1.6-1.1,1.8c-3.5,0.8-7,2.9-10.3,5c-4.5,2.8-9.1,5.7-14.3,5.7c-5.9,0-8.6-3-11-5.6c-0.9-1-1.8-2-2.8-2.8
		c-15.1,8.8-19.2,4.7-23.7-2.5c-2.6-4.2-5.3-8.5-12.8-9c-0.4,0-1.4,1.1-2,1.7c-1.2,1.3-2.5,2.6-4.2,2.6c-2.9,0-6-3-8.7-6.2
		c-0.3-0.4-0.6-0.8-1-1.1C151.8,490.2,151.9,489.2,152.5,488.7"/>
	<path class="st5" d="M762.6,408.6c-0.1,1.9,0,4-0.1,6c0.5,0,1.1-0.2,1.7-0.1c0-2,0-4,0-6C763.7,408.6,763.1,408.6,762.6,408.6"/>
	<path class="st5" d="M766.5,414.7c-0.7-1.1-2.2-1.6-3.6-1c-2,0.9-2.5,3.2-1.5,4.9c1,1.7,3.7,2.7,5.4,2.3c2.3-0.6,2-2.7,0.6-4.2
		c-0.3,0.5-0.4,1.1-0.8,1.7c0.1,0.3,0.4,0.6,0.2,0.8c-0.9,0.2-1.6,0.1-2.4-0.2c-1.3-0.6-2.8-2.8-0.9-3.7c0.6-0.3,1.5-0.1,1.7,0.5
		c0.5,1-0.9,1.7-1,2.6c0.5,0.3,1.1,0.5,1.8,0.5C766.8,417.7,767.6,416.3,766.5,414.7"/>
	<path class="st5" d="M764.8,424.1c0-2.7,0-0.4,0-3.1c-0.6-0.2-1.1-0.6-1.7-0.8c0,3,0,0.6,0,3.6"/>
	<path class="st5" d="M762.7,388.7c-0.1,1.9,0,4,0,6c0.5,0,1.1-0.2,1.7-0.1c0-2,0-4-0.1-6C763.8,388.7,763.3,388.7,762.7,388.7"/>
	<path class="st5" d="M766.8,395.1c-0.5-1.2-1.9-2-3.3-1.6c-2.2,0.5-3.1,2.7-2.3,4.6c0.7,1.8,3.1,3.3,4.9,3.2c2.4-0.1,2.4-2.3,1.3-4
		c-0.4,0.5-0.6,1.1-1.1,1.5c0.1,0.3,0.3,0.7,0,0.8c-0.9,0-1.6-0.2-2.3-0.7c-1.2-0.8-2.2-3.3-0.2-3.8c0.6-0.2,1.4,0.2,1.6,0.8
		c0.3,1-1.2,1.5-1.4,2.4c0.5,0.4,1,0.7,1.6,0.9C766.5,398.1,767.6,396.9,766.8,395.1"/>
	<path class="st5" d="M762.5,410c0.6,0,1.1,0,1.7,0c0-2.7,0-5.4,0-8.1c-0.6-0.2-1.1-0.6-1.7-0.8C762.5,404,762.5,407,762.5,410"/>
	<path class="st5" d="M762.3,368.5c-0.2,1.9-0.1,4-0.1,6c0.5,0,1.1-0.2,1.7,0c0-2,0-4,0.1-6C763.4,368.5,762.8,368.5,762.3,368.5"/>
	<path class="st5" d="M766.5,375.8c-0.2-1.3-1.3-2.4-2.8-2.4c-2.2-0.1-3.7,1.8-3.5,3.8c0.2,2,2.1,4.1,3.8,4.4c2.3,0.5,3-1.6,2.3-3.5
		c-0.5,0.4-0.9,0.9-1.4,1.2c0,0.3,0.1,0.7-0.2,0.8c-0.9-0.3-1.5-0.6-2.1-1.2c-0.9-1.1-1.3-3.8,0.8-3.7c0.7,0,1.3,0.6,1.3,1.2
		c0,1.1-1.5,1.2-2,2c0.4,0.5,0.8,0.9,1.3,1.3C765.4,378.6,766.8,377.7,766.5,375.8"/>
	<path class="st5" d="M762.7,390.1c0.6,0,1.1,0,1.7,0c0-2.7-0.1-5.4-0.1-8.1c-0.6-0.2-1.1-0.5-1.7-0.8
		C762.6,384.2,762.7,387.1,762.7,390.1"/>
	<path class="st5" d="M762.7,346.7c-0.1,1.9,0,4-0.1,6c0.5,0,1.1-0.2,1.7-0.1c0-2,0-4,0-6C763.8,346.7,763.3,346.7,762.7,346.7"/>
	<path class="st5" d="M766.3,355.7c-0.2-1.3-1.3-2.4-2.7-2.5c-2.2-0.1-3.7,1.7-3.5,3.7c0.1,2,2,4.1,3.7,4.5c2.3,0.5,3-1.5,2.4-3.5
		c-0.5,0.3-0.9,0.8-1.5,1.1c0,0.3,0.1,0.7-0.2,0.8c-0.9-0.3-1.5-0.6-2-1.3c-0.9-1.1-1.2-3.8,0.9-3.7c0.7,0,1.3,0.6,1.3,1.2
		c0,1.1-1.6,1.1-2.1,1.9c0.3,0.5,0.8,1,1.3,1.3C765.2,358.5,766.6,357.6,766.3,355.7"/>
	<path class="st5" d="M762.2,369.9c0.6,0,1.1,0,1.7,0c0-2.7,0.1-5.4,0.1-8.1c-0.6-0.2-1.1-0.6-1.7-0.9
		C762.3,363.9,762.2,366.9,762.2,369.9"/>
	<path class="st5" d="M765.7,324.5c-0.6,1.8-1,3.9-1.6,5.8c0.5,0.1,1.2,0.1,1.6,0.4c0.5-1.9,1-3.9,1.5-5.8
		C766.7,324.8,766.2,324.7,765.7,324.5"/>
	<path class="st5" d="M767.2,334.1c0.1-1.3-0.6-2.6-2.1-3.1c-2.1-0.7-4,0.7-4.3,2.7c-0.3,1.9,1,4.5,2.5,5.3c2.1,1.1,3.3-0.8,3.2-2.8
		c-0.6,0.2-1.1,0.6-1.7,0.7c-0.1,0.3-0.1,0.7-0.4,0.7c-0.8-0.5-1.3-1-1.7-1.7c-0.6-1.3-0.2-4,1.8-3.4c0.6,0.2,1.2,0.9,1,1.5
		c-0.3,1-1.8,0.7-2.5,1.4c0.2,0.6,0.5,1.1,1,1.6C765.4,336.5,767,336,767.2,334.1"/>
	<path class="st5" d="M762.7,348.1c0.6,0,1.1,0,1.7,0c0-2.7,0-5.4,0-8.1c-0.6-0.2-1.1-0.6-1.7-0.8
		C762.7,342.2,762.7,345.1,762.7,348.1"/>
	<path class="st5" d="M595.2,506.1c5.3,0.5,10.6-1.4,14.8-5.2c4-3.7,6.6-8.8,7.1-14c0.8-8.4-3.4-16.7-10.4-20.6
		c-1.1-0.6-1.9-1-3.2-1.3c-1.8-0.4-3.5-0.7-5-0.8c-6.3-0.6-11.8,0.9-15.8,4.1c-3.7,3-6,7.6-6.5,13C575,494.3,583.2,505,595.2,506.1
		 M579.2,481.8c0.9-9.8,8.4-15.5,19-14.5c1.4,0.1,2.8,0.4,4.4,0.7c1,0.2,1.7,0.5,2.6,1.1c5.9,3.3,9.5,10.4,8.8,17.6
		c-0.8,8.5-8.6,17.3-18.7,16.4C585.2,502,578.2,492.9,579.2,481.8 M597.6,545.1h-3v-39h3V545.1z"/>
	<path class="st6" d="M599.2,478.8c-1.5,0.3-4.1,1.8-7.3,3.5c-1.3,0.7-7,4.3-8.3,6c-0.5,0.6,1.1-2.2,2.1-0.6
		c0.5,0.8,3.6-0.9,4.9,0.2c0.5,0.4,2.4,1.8,3.8,0.8c1.1-0.8,3-0.6,4.1-2.4c1-1.5,2.3,0.6,3.2-3.1c0.9-3.7,0.9-3.5,0.9-3.5
		S600.7,478.4,599.2,478.8"/>
	<path class="st4" d="M600.1,486.3c0.6-0.5,0.5-1.5,0.8-2.2c0.2-0.4,0.4-0.9,0.2-1.3c0-0.1,0-0.2-0.1-0.3c0.1,0,0.2,0.1,0.3,0.1
		c0.1,0,0.3,0.1,0.4,0.1c-0.6-0.4-1.2-0.8-1.9-1c0.1,0.1,0.1,0.1,0.2,0.2c-0.2,0-0.5,0.1-0.7,0.3c-0.6,0.5-0.8,1.3-1,2
		c-0.3,1.2-0.8,1.6-2.2,1.9c-1.1,0.2-2.1-0.4-3,0.1c-0.7,0.4-1.6,0.1-2.3,0.6c-0.7,0.4-0.8,0.2-0.3,0.6c0.1,0.2,0.2,0.3,0.4,0.2
		c0.2,0.1,0.3,0.2,0.5,0.2c1.4,0.6,2.9,0.4,4.2-0.1C597.5,487.1,598.2,487.9,600.1,486.3"/>
	<path class="st7" d="M599,478.7c-1.5,0.3-4.1,1.8-7.3,3.5c-1.3,0.7-7,4.3-8.3,6c-0.5,0.6,4.8-4.4,5.4-0.3c0.2,1,3.1-2.5,4.4-1.4
		c0.5,0.4,1.1,2.2,1.3,2.4c1.4,1.4,0.6,0,4.4-2.6c1.5-1,0.9,9.1,2.7-3.2c0.6-3.8,0.9-3.5,0.9-3.5S600.6,478.3,599,478.7z"/>
	<path class="st6" d="M606.5,481.6c-1.8,1.6-4.6,1.5-6.3-0.4s-1.5-4.6,0.4-6.3c1.8-1.6,4.6-1.5,6.3,0.4
		C608.5,477.2,608.3,480,606.5,481.6"/>
	<path class="st4" d="M600.6,481.6c0.4,0.2,0.8,0.4,1.2,0.6c0,0,0,0,0-0.1c0.1,0,0.2,0.1,0.3,0.1c1.4,0.5,3.5,0.5,4.1-1
		c0.7-1.6-2-1.3-2.7-1.3c-0.8,0-1.6-0.3-2.2-0.9c-0.1-0.2-0.2-0.3-0.3-0.4c-0.6-0.7-0.8-1.7-0.4-2.6c0.2-0.4-0.3-0.6-0.6-0.4
		c-0.1-0.4-0.7-0.4-0.8,0c0,0.2-0.1,0.3-0.1,0.5c-0.2,0.3-0.3,0.7-0.3,1.1c0,0.1,0,0.2,0.1,0.3c-0.1,0.1-0.1,0.1-0.1,0.2
		c0.1,1.5,0.8,2.9,1.9,3.8C600.7,481.6,600.7,481.6,600.6,481.6"/>
	<circle class="st7" cx="603.4" cy="478.2" r="4.4"/>
	<path class="st8" d="M595,482.3c0,0-2-12.6,9.2-10.6"/>
	<path class="st7" d="M600.2,488.2c0,0-0.1,3.5,3.8-0.5c5-5.1-0.3,4.6,5.1,2.6c0.7-0.3,1.7-3,2.7-2.8c1,0.2,0.6,2.9,2.3,3.2"/>
	<path class="st7" d="M580.2,491.2c0,0-0.1,3.5,3.8-0.5c5-5.1-0.3,4.6,5.1,2.6c0.7-0.3,1.7-3,2.7-2.8c1,0.2,0.1,2.2,1.8,2.5"/>
	<path class="st7" d="M593.1,493c0,0,0.6,0.7,2.9-1.3c5.4-4.7-0.3,4.6,5.1,2.6c0.7-0.3,1.7-3,2.7-2.8c1,0.2,0.6,2.9,2.3,3.2"/>
	<path class="st7" d="M604.2,493.2c0,0-0.1,3.5,3.8-0.5c5-5.1-0.3,4.6,5.1,2.6c0.7-0.3,1.7-3,2.7-2.8"/>
	<path class="st7" d="M583.4,488.2c0,0-4,1.5-3.5-1.4"/>
	<line class="st9" x1="583.4" y1="471.4" x2="610.4" y2="499.6"/>
	<pattern  id="SVGID_4_" xlink:href="#SVGID_1_" patternTransform="matrix(1 0 0 1 -4223.3608 -1970.7295)">
	</pattern>
	<path class="st10" d="M142.5,322.6c0,0.1-0.1,0.2-0.1,0.3c0.3,0.4,0.6,0.7,0.8,1.2c0.2,0,0.4,0.1,0.7,0.1c1.1,0.2,2.2,0.4,3.4,0.5
		C145.6,324.2,144,323.5,142.5,322.6"/>
	<pattern  id="SVGID_5_" xlink:href="#SVGID_2_" patternTransform="matrix(1 0 0 1 -4223.3608 -1970.7295)">
	</pattern>
	<path class="st11" d="M583.7,324.1c-0.7,0.6-1.5,1.2-2.2,1.8c1.6,0,3.2,0.1,4.8,0.2C585.4,325.4,584.5,324.8,583.7,324.1"/>
	<pattern  id="SVGID_6_" xlink:href="#SVGID_3_" patternTransform="matrix(1 0 0 1 -4223.3608 -1970.7295)">
	</pattern>
	<path class="st12" d="M581.1,301.5c1.2,1.4,2.3,2.7,3.4,4.1c1.7-1.3,3.3-2.7,4.9-4.1c-0.4,0-0.9,0-1.3,0
		C585.8,301.5,583.4,301.5,581.1,301.5"/>
	<path class="st5" d="M530.8,292c-4.6-126-0.4-160.7-0.6-287.1"/>
	<path class="st5" d="M714.8,292c-0.3-9.1-0.6-278-0.6-287.1c0-1.1,0-2.2,0-3.3c0-0.8-0.7-1.5-1.5-1.5c-0.8,0-1.5,0.7-1.5,1.5
		c0,0.2,0,0.5,0,0.7c0,10.2,0.3,280,0.6,290C712.8,292.1,713.8,292.1,714.8,292"/>
	<path class="st5" d="M714.8,292c-4.6-126-0.4-160.7-0.6-287.1"/>
	<circle class="st13" cx="530" cy="290.7" r="6.3"/>
	<circle class="st13" cx="712" cy="290.7" r="6.3"/>
</g>
<g id="Layer_2">
</g>
<path class="st5" d="M1224.6,553.9c-0.1,0.2-0.1,0.4-0.2,0.6C1224.5,554.2,1224.5,554,1224.6,553.9z"/>
<path class="st5" d="M1225,553.2c-0.1,0.2-0.2,0.4-0.3,0.6C1224.7,553.5,1224.8,553.3,1225,553.2z"/>
<path class="st5" d="M876.3,553.8c-0.3,1.1-0.6,2.1-0.9,3.2C875.7,555.9,876,554.9,876.3,553.8z"/>
<path class="st5" d="M1224.3,554.7c-0.1,0.2-0.1,0.4-0.1,0.7C1224.2,555.1,1224.3,554.9,1224.3,554.7z"/>
<path class="st5" d="M1225.5,552.5c-0.2,0.2-0.3,0.3-0.4,0.5C1225.2,552.8,1225.3,552.6,1225.5,552.5z"/>
<path class="st5" d="M1233,553.4c-0.4-0.3-0.7-0.6-1.1-0.9C1232.2,552.8,1232.6,553.1,1233,553.4z"/>
<path class="st5" d="M1039.2,368.6c-0.3-0.6-0.6-1.2-0.9-1.8c-3-7.2-5.9-14.5-9-21.7c-2.5-5.9-5.1-11.6-7.5-17.5
	c-4.3-10.7-8.5-21.5-12.8-32.3c-3.8-9.6-7.7-19.1-11.6-28.7c-1.5-3.8-3.5-7.4-6.4-10.4c-1.4-1.4-2.8-3.1-5-3.1
	c-4-0.1-7.4,1.1-9.6,4.8c-1.3,2.2-2.6,4.5-3.6,6.9c-1.9,4.6-3.7,9.2-5.5,13.9c-4.8,12.2-9.6,24.4-14.5,36.7
	c-0.1,0.2-0.1,0.4-0.2,0.7c-2.3,6.8-4.3,13.6-7,20.2c-4.6,11.1-70.6,203.5-74.3,215c-1,3.3-2.4,6.6-1.2,10.8
	c0.9,0.4,1.9,0.8,2.8,1.3c0.9-2,1.6-4,2.2-6.1c0.5-4.6,1.6-8.7,3-12.7c2.5-7,67.2-195.1,69.7-202.1c2.4-6.7,4.7-13.5,7-20.2
	c0.3-0.9,0.8-1.7,1.2-2.7c5.5,1.9,8.5-1.2,11.2-5.1c1-1.4,1.8-2.8,2.9-4.6c-0.1,3.3-0.2,6.2-0.3,9.1c0,1.1,0,2.2,0.3,3.2
	c0.9,3.9,4.5,5.9,8.4,4.5c2.8-1,4.7-2.9,5.8-5.6c1-2.4,1.6-5,2.5-7.8c4.4,5,8.5,4.2,12.4-2.4c0.4,0.7,0.8,1.3,1.1,1.9
	c0.4,0.9,0.8,1.8,1.2,2.6c1.9,3.8,4.6,5.4,8.7,5.1c1.2-0.1,2.3-0.3,3.6-0.5c1,2.4,2.1,4.8,3.1,7.3c4.9,11.9,9.8,23.9,14.7,35.8
	c0.8,1.9,1.4,3.8,2,5.7c0.7,2.2,75.6,183.3,73.8,184.6c-0.4,0.3-0.8,0.5-1.3,0.8c-0.1-0.1-0.1-0.1-0.2-0.2c1.1,1.1,2.2,2.2,3.2,3.4
	c1.6-0.3,3-0.7,3.8-1.3C1115.8,554.1,1040.7,371.4,1039.2,368.6z"/>
<path class="st5" d="M1224.2,556.1c0-0.2,0-0.4,0-0.6C1224.2,555.7,1224.2,555.9,1224.2,556.1z"/>
<path class="st6" d="M1224.2,556.2c0,0,0-0.1,0-0.1C1224.2,556.1,1224.2,556.2,1224.2,556.2z"/>
<path class="st6" d="M1225.1,553c0,0-0.1,0.1-0.1,0.2C1225,553.1,1225,553.1,1225.1,553z"/>
<path class="st6" d="M1233.6,554c-0.2-0.2-0.4-0.4-0.6-0.6C1233.2,553.6,1233.4,553.8,1233.6,554z"/>
<path class="st6" d="M883.5,561.5C883.5,561.5,883.5,561.5,883.5,561.5c0.6-1.7,1.1-3.5,1.5-5.3C884.5,558,884,559.7,883.5,561.5z"
	/>
<path class="st6" d="M875.3,557.3c0-0.1,0-0.2,0.1-0.3C875.4,557.1,875.4,557.1,875.3,557.3C875.3,557.2,875.3,557.3,875.3,557.3z"
	/>
<path class="st6" d="M1224.6,553.7c0,0,0,0.1,0,0.1C1224.6,553.8,1224.6,553.8,1224.6,553.7z"/>
<path class="st6" d="M1224.2,555.3c0,0,0,0.1,0,0.1C1224.2,555.4,1224.2,555.4,1224.2,555.3z"/>
<path class="st6" d="M1224.4,554.4c0,0.1,0,0.2-0.1,0.2C1224.4,554.6,1224.4,554.5,1224.4,554.4z"/>
<path class="st6" d="M1107.7,553.4c1.8-1.3-73.2-182.5-73.8-184.6c-0.6-1.9-1.2-3.9-2-5.7c-4.9-11.9-9.8-23.9-14.7-35.8
	c-1-2.5-2.1-4.9-3.1-7.3c-1.3,0.2-2.4,0.4-3.6,0.5c-4.1,0.3-6.9-1.3-8.7-5.1c-0.4-0.9-0.8-1.8-1.2-2.6c-0.3-0.6-0.7-1.2-1.1-1.9
	c-3.9,6.6-7.9,7.4-12.4,2.4c-0.9,2.7-1.5,5.3-2.5,7.8c-1.1,2.7-3,4.6-5.8,5.6c-3.9,1.3-7.5-0.6-8.4-4.5c-0.2-1-0.3-2.1-0.3-3.2
	c0-2.9,0.2-5.8,0.3-9.1c-1.1,1.7-1.9,3.2-2.9,4.6c-2.7,3.9-5.7,7.1-11.2,5.1c-0.5,1-0.9,1.8-1.2,2.7c-2.4,6.7-4.6,13.5-7,20.2
	c-2.5,7-67.2,195.1-69.7,202.1c-1.4,4-2.5,8.1-3,12.7c0-0.1,0-0.2,0.1-0.2c0.3-1.1,0.6-2.1,0.9-3.2c1.4-5.6,10.1-3.2,8.7,2.4
	c-0.5,1.8-1,3.5-1.5,5.3c0.3,0.1,0.6,0.2,1,0.3c3.9,1.1,7.9,1.7,11.9,2.4c3,0.5,6.1,1.1,9.2,1.2c7,0.3,14,0.9,21,0.2
	c4.4-0.4,115-4.3,119.5-4.9c4.1-0.6,30.9-2.5,35-3.1c3.8-0.6,10.1-0.6,15.9-1.3c0-0.1,0-0.1,0-0.2c0,0,0-0.1,0-0.1
	c0-0.2,0-0.4,0-0.6c0,0,0-0.1,0-0.1c0-0.2,0.1-0.5,0.1-0.7c0-0.1,0-0.2,0.1-0.2c0.1-0.2,0.1-0.4,0.2-0.6c0,0,0-0.1,0-0.1
	c0.1-0.2,0.2-0.4,0.3-0.6c0-0.1,0.1-0.1,0.1-0.2c0.1-0.2,0.3-0.4,0.4-0.5c1.9-1.9,4.4-1.5,6.4,0c0.4,0.3,0.8,0.6,1.1,0.9
	c0.2,0.2,0.4,0.4,0.6,0.6c0.1,0.1,0.1,0.1,0.2,0.2C1106.9,553.9,1107.3,553.6,1107.7,553.4z"/>
<path class="st14" d="M958.5,315.6c0.5-2.2,0.9-4.3,1.5-6.4c1.8-6.4,4.1-12.7,6.8-18.8c3.4-7.7,6.4-15.5,9.6-23.2
	c0.7-1.7,1.8-3.4,3-4.9c2.8-3.5,7.7-3.5,10.4,0c2.1,2.7,3.8,5.5,5,8.8c2.2,6.1,4.6,12.1,7,18.1c0.9,2.2,2,4.2,2.9,6.4
	c2.6,6.5,5.2,13,7.9,19.5c-2.7,2.2-5.9,1.9-8-1.3c-1.6-2.5-2.8-5.3-3.7-8.1c-0.8-2.6-1-5.4-1.5-8.1c-0.4-2.2-0.7-4.4-2.1-6.2
	c-1.4,0-1.8,0.8-1.6,1.9c0.2,0.8,0.5,1.6,0.8,2.4c1.3,4.3,1.6,8.6,0.4,12.9c-0.8,2.7-2.3,3.7-4.9,3.6c-1.5,0-2.6-0.8-2.8-2.1
	c-0.5-2.8-0.8-5.6-0.9-8.5c-0.1-3.8,0.2-7.7,0.2-11.5c0-1.4,0-2.8-1.2-3.8c-1.6,0.2-1.3,1.4-1.4,2.4c-0.1,4.8,0.1,9.5-0.3,14.3
	c-0.3,4.9-1,9.7-2.6,14.3c-0.9,2.4-2.4,4.2-4.9,5.1c-2.8,1-5.4-0.1-5.8-3c-0.4-3.1-0.4-6.4-0.2-9.5c0.6-6.6,1.9-13,3.9-19.3
	c0.5-1.6,1.4-3.5-0.1-5.2c-1.4,0.1-1.4,1.2-1.6,2.3c-1.3,5.9-2.6,11.9-5.2,17.3c-1.5,3.1-3.5,6.1-5.5,8.9
	C962.8,315.7,961,316.5,958.5,315.6"/>
<path class="st0" d="M1231.8,552.5c-1.9-1.5-4.5-1.9-6.4,0c-1.5,1.5-1.9,4.9,0,6.4c2.6,2,4.9,4.9,6.6,7.1c1.5,1.9,3.9,2.9,6.2,1.6
	c1.9-1.1,3.1-4.2,1.6-6.2C1237.5,558.2,1235,554.9,1231.8,552.5z"/>
<path class="st5" d="M1027.7,585.1C1027.7,585,1027.7,585,1027.7,585.1C1027.7,585,1027.7,585,1027.7,585.1z"/>
<path class="st5" d="M1027.6,585.6C1027.6,585.6,1027.6,585.6,1027.6,585.6C1027.6,585.6,1027.6,585.6,1027.6,585.6z"/>
<path class="st5" d="M1027.8,583.8c0,0,0-0.1,0-0.1C1027.8,583.7,1027.8,583.8,1027.8,583.8z"/>
<path class="st5" d="M1020.5,580.5c-0.2,0.1-0.4,0.1-0.6,0.2C1020.1,580.6,1020.3,580.5,1020.5,580.5z"/>
<path class="st5" d="M1022.1,580c-0.4,0.1-0.8,0.2-1.2,0.3C1021.3,580.2,1021.7,580.1,1022.1,580z"/>
<path class="st5" d="M1285.5,577.1C1285.4,577,1285.4,577,1285.5,577.1C1285.4,577,1285.4,577,1285.5,577.1z"/>
<path class="st5" d="M1027.1,586.8C1027.1,586.8,1027.1,586.8,1027.1,586.8C1027.1,586.8,1027.1,586.8,1027.1,586.8z"/>
<path class="st5" d="M1126.9,487.5c-0.8-1.6-1.6-3.2-2.3-4.8c-3.4-7.7-6.9-15.5-10.3-23.2c-2.7-6.2-5.3-12.5-7.9-18.8
	c-2.3-5.5-4.4-11.1-8.2-15.8c-4.1-5.2-8.6-6.4-13.1-1.5c-3.3,3.5-5.8,7.9-8,12.2c-2.2,4.2-3.4,9-5.3,13.4
	c-4.5,10.5-9.3,20.9-13.8,31.3c-1.8,4.2-43.7,97.2-45.2,101.5c-0.2,0.5,0.1,1.6,0.5,1.9c0.5,0.5,1,1,1.6,1.5c1-1.4,2.2-2.7,3.6-3.6
	c-0.1,0.1-0.2,0.1-0.3,0.2c-0.2-0.4-0.2-1-0.1-1.4c1.7-5.5,43.5-99.8,47.1-104.8c3.8,3.1,8.1,2.2,10.3-2.2c1.6-3.2,3-6.4,4.7-9.9
	c0.3,1.8,0.5,3.3,0.9,4.8c1,4.2,4.1,5.7,8.1,3.8c1.9-0.9,3.3-2.4,4.2-4.4c0.5-1.2,0.9-2.4,1.6-4c1.3,2.6,3,3.6,5.5,3
	c2.4-0.5,2.8-2.5,3.5-4.2c1.3,1.7,2.3,4,4.1,5.2c1.7,1.1,4.2,1.1,7.1,1.7c2,4.4,4.2,9.4,6.5,14.4c0.6,1.4,40,87.3,40.5,88.7
	c1.1,2.8,0.9,4.1-1.4,6c-0.2,0.2-0.4,0.3-0.6,0.5l0,0c0.6,1-0.9-0.3-1.2,0.8c0,0.1,0-0.1,0,0c-1.6-2.9-2.5,1.7-2.5,1.8
	c0,0.1-6.1,2.7-6.1,2.8c1.5-1,13.1-3.3,14.4-4.5C1166.9,577.7,1128.4,490.4,1126.9,487.5z"/>
<path class="st5" d="M1278.8,580.7c0,0,0,0.1,0,0.1C1278.8,580.8,1278.8,580.8,1278.8,580.7z"/>
<path class="st5" d="M1286.1,577.5C1286.1,577.5,1286.1,577.5,1286.1,577.5C1286.1,577.5,1286.1,577.5,1286.1,577.5z"/>
<path class="st5" d="M1019.3,581c-0.1,0.1-0.3,0.1-0.4,0.2C1019,581.1,1019.2,581,1019.3,581z"/>
<path class="st5" d="M1027.8,584.3C1027.8,584.3,1027.8,584.4,1027.8,584.3C1027.8,584.4,1027.8,584.3,1027.8,584.3z"/>
<path class="st6" d="M1279,579.8c-0.1,0.3-0.2,0.6-0.2,0.9C1278.8,580.4,1278.9,580.1,1279,579.8z"/>
<path class="st6" d="M1027.1,586.8c0.2-0.4,0.4-0.7,0.5-1.1C1027.5,586,1027.3,586.4,1027.1,586.8z"/>
<path class="st6" d="M1278.6,583.7C1278.6,583.7,1278.6,583.7,1278.6,583.7c-0.1-1,0-1.9,0.1-2.8
	C1278.6,581.8,1278.6,582.7,1278.6,583.7z"/>
<path class="st6" d="M1285.4,577c-0.3-0.1-0.5-0.3-0.8-0.3C1284.8,576.7,1285.1,576.9,1285.4,577z"/>
<path class="st6" d="M1286.1,577.5c-0.2-0.2-0.4-0.3-0.6-0.4C1285.7,577.2,1285.9,577.3,1286.1,577.5z"/>
<path class="st6" d="M1019.9,580.7c-0.2,0.1-0.4,0.2-0.5,0.3C1019.5,580.9,1019.7,580.8,1019.9,580.7z"/>
<path class="st6" d="M1286.1,577.5c0.4,0.4,0.8,0.8,1.1,1.3C1287,578.3,1286.6,577.9,1286.1,577.5z"/>
<path class="st6" d="M1018.9,581.2c-0.2,0.1-0.4,0.2-0.5,0.3C1018.5,581.4,1018.7,581.3,1018.9,581.2z"/>
<path class="st6" d="M1020.9,580.3c-0.2,0.1-0.3,0.1-0.5,0.2C1020.6,580.4,1020.8,580.3,1020.9,580.3z"/>
<path class="st6" d="M1027.7,583.7c0-0.2-0.1-0.4-0.1-0.5C1027.7,583.3,1027.7,583.5,1027.7,583.7z"/>
<path class="st6" d="M1027.8,584.3c0-0.2,0-0.3,0-0.5C1027.8,584,1027.8,584.1,1027.8,584.3z"/>
<path class="st6" d="M1027.6,585.6c0.1-0.2,0.1-0.4,0.1-0.5C1027.7,585.2,1027.6,585.4,1027.6,585.6z"/>
<path class="st6" d="M1027.1,586.8c-0.2,0.4-0.5,0.7-0.8,1l0,0C1026.6,587.5,1026.8,587.2,1027.1,586.8z"/>
<path class="st6" d="M1027.8,584.4c0,0.2,0,0.4-0.1,0.6C1027.8,584.8,1027.8,584.6,1027.8,584.4z"/>
<path class="st6" d="M1160.5,578.4c2.2-1.9,2.5-3.3,1.4-6c-0.6-1.4-39.9-87.3-40.5-88.7c-2.3-5-4.5-10-6.5-14.4
	c-2.9-0.6-5.3-0.6-7.1-1.7c-1.8-1.2-2.8-3.4-4.1-5.2c-0.6,1.7-1.1,3.7-3.5,4.2c-2.6,0.6-4.3-0.5-5.5-3c-0.6,1.6-1.1,2.8-1.6,4
	c-0.8,2-2.3,3.4-4.2,4.4c-3.9,1.9-7,0.5-8.1-3.8c-0.3-1.4-0.5-2.9-0.9-4.8c-1.7,3.6-3.1,6.8-4.7,9.9c-2.2,4.3-6.5,5.3-10.3,2.2
	c-3.5,5-45.3,99.3-47.1,104.8c-0.1,0.4-0.1,1,0.1,1.4c0.1-0.1,9,5,9,5c-0.2,0.4,18.4,6.7,28.8,4.7c3.9-0.7,86.7-5.9,90.6-6.5
	c9.2-1.4,13.1-6.7,13.4-6.2l0,0C1160.1,578.7,1160.3,578.5,1160.5,578.4z"/>
<path class="st14" d="M1084.1,448.3c-1.6,0.1-1.4,1.4-1.7,2.2c-2.1,5.5-4.1,11.1-6.3,16.7c-0.6,1.6-1.5,3.2-2.6,4.6
	c-0.9,1.1-2.2,2-3.4,2.5c-1.6,0.7-3-0.2-2.9-2c0-1.4,0.2-2.9,0.6-4.3c1.8-5.5,4.2-10.7,6.6-15.9c1.4-3.1,2.5-6.4,3.8-9.5
	c2.4-5.6,4.9-11.1,9.3-15.4c2.3-2.3,5-2.3,7.2,0.1c1.9,2,3.5,4.2,4.9,6.5c1.6,2.8,2.9,5.8,4.1,8.7c2.8,6.5,5.4,13,8.2,19.4
	c0.1,0.4,0.4,0.7,0.4,1.1c0.1,0.8,0.5,1.9,0.1,2.4c-0.8,1-2,0.4-2.9-0.1c-1.8-1.1-3.2-2.6-3.7-4.7c-0.7-2.5-1.4-5.1-2.1-7.6
	c-0.2-0.8-0.4-1.8-1.4-1.3c-0.4,0.2-0.7,1.3-0.6,1.9c0.1,2,0.4,4.1,0.5,6.1c0,0.8-0.2,1.5-0.5,2.3c-0.4,1.2-1.3,1.7-2.5,1.7
	c-1.2,0-2.1-0.6-2.3-1.8c-0.4-2.6-0.7-5.2-0.9-7.8c-0.2-2,0.2-4.1-0.9-6c-1.9-0.1-1.6,1.2-1.4,2.2c0.9,4.4,0.3,8.8-0.8,13
	c-0.3,1.2-0.7,2.5-1.5,3.5c-0.9,1.1-2.1,2.2-3.3,2.6c-2.4,0.9-4-0.2-4.3-2.7c-0.6-4.1-0.3-8.2,0.7-12.2
	C1084.7,452.4,1085.2,450.3,1084.1,448.3"/>
<path class="st15" d="M898,565.3c0.7-2.8,0.8-5.6,0.5-8.8c-0.5-5,0-8.9,1.9-13.6c2-4.9,66.6-190.6,67.6-195.8
	c0.9-4.8,0.9-9.7,2-14.5c0.2-0.7,1-0.9,1.5-0.6c5.4,2.7,13.9,0.8,17-4.5c2.2-3.8,2.9-6.7,2.8-11c-1.3-0.5-2.4-1.4-3.8-2.9
	c-0.9,2.8-1.7,4-2.7,6.5c-1.1,2.7-3.1,4.7-6,5.7c-4,1.4-7.7-0.6-8.6-4.6c-0.2-1-0.3-2.2-0.3-3.3c0.1-3,0.2-6,0.3-9.3
	c-1.1,1.8-2,3.3-2.9,4.7c-2.7,4-5.9,7.3-11.5,5.3c-0.5,1-0.9,1.9-1.3,2.8c-2.4,6.9-4.7,13.9-7.2,20.8
	c-2.6,7.2-67.3,195.5-69.9,202.7c-1.6,4.4-2.8,9-3.2,14.1c3.2,1.3,6.2,2.8,9.4,3.7c4,1.1,8.1,1.8,12.2,2.5
	C896.6,565,897.3,565.1,898,565.3"/>
<path class="st15" d="M1094.8,463.2c-0.6,1.6-1.1,2.8-1.6,4c-0.9,2-2.3,3.5-4.3,4.5c-4,2-7.1,0.5-8.2-3.8c-0.4-1.5-0.6-3-0.9-4.8
	c-1.7,3.6-3.2,6.9-4.8,10.1c-2.2,4.4-6.6,5.4-10.5,2.2c-3.6,5.1-45.4,99.5-47.2,105.1c-0.1,0.5-0.1,1.2,0.2,1.6
	c6.5,4.7,13.7,6.1,16.7,6.9c-0.6-2.3-0.4-2.4-0.2-4.8c0.2-3.1,42.1-94.6,43.3-97.4c1.6-3.6,3.1-7.2,4.1-11c0.2-0.6,0.9-0.9,1.4-0.6
	c7.9,4.1,13.3-1.7,14.2-9.1C1096.2,465.5,1095.4,464.6,1094.8,463.2z"/>
<path class="st16" d="M986.2,234.1c5.8-2.2,11.5-5.3,16.5-9c0.1,0,0.3,0.1,0.4,0.1c5.9,0.9,8.4-8.1,2.5-9c-5.6-0.8-11-2.3-16.4-4.2
	c-1.9-0.7-3.4-0.1-4.4,1c-0.5-1.2-2.4-0.8-2.9,0.4c-2,5.3,0.3,10.7-0.7,16C980.9,231.8,983.1,235.2,986.2,234.1z M986.9,220.7
	c1.3,0.5,2.6,1,3.9,1.5c-1.5,0.8-3,1.6-4.5,2.5c-0.6-1.5-0.8-3.2-0.8-5C985.8,220.1,986.3,220.5,986.9,220.7z"/>
<path class="st17" d="M984.8,254.5l-1.9-17.5c0,0-3.4-24.6-2.7-25.1c3.9-2.5,29.8,8.9,29.8,10.9c0,1.7-21.3,11.4-25.9,14.6"/>
</svg>
