<?xml version="1.0" encoding="utf-8"?>
<!-- Generator: Adobe Illustrator 19.0.0, SVG Export Plug-In . SVG Version: 6.00 Build 0)  -->
<svg version="1.1" id="Capa_1" xmlns="http://www.w3.org/2000/svg" xmlns:xlink="http://www.w3.org/1999/xlink" x="0px" y="0px"
	 viewBox="-459 260.7 39.7 40.3" style="enable-background:new -459 260.7 39.7 40.3;" xml:space="preserve">
<style type="text/css">
	.st0{fill:#0D004C;}
	.st1{fill:#F7F6F6;}
</style>
<circle id="XMLID_86_" class="st0" cx="-439.1" cy="280.9" r="18"/>
<g>
	<path class="st1" d="M-434.6,280.6l-10.5-7.1c-0.7-0.4-1.1-1.3-1.1-2.1c0-1.3,0.7-2.4,1.6-2.4c0.3,0,1.1,0.4,1.7,0.8l11.7,8.2
		c0.8,0.6,1.5,1.1,1.5,2.6c0,1.5-0.7,2-1.5,2.6l-11.7,8.2c-0.6,0.5-1.5,0.8-1.7,0.8c-0.9,0-1.5-1.1-1.5-2.3c0-0.8,0.5-1.7,1.1-2.1
		L-434.6,280.6z"/>
</g>
</svg>
