<?xml version="1.0" encoding="utf-8"?>
<!-- Generator: Adobe Illustrator 15.1.0, SVG Export Plug-In . SVG Version: 6.00 Build 0)  -->
<!DOCTYPE svg PUBLIC "-//W3C//DTD SVG 1.1//EN" "http://www.w3.org/Graphics/SVG/1.1/DTD/svg11.dtd">
<svg version="1.1" id="Layer_1" xmlns="http://www.w3.org/2000/svg" xmlns:xlink="http://www.w3.org/1999/xlink" x="0px" y="0px"
	 width="178.723px" height="118.44px" viewBox="0 0 178.723 118.44" enable-background="new 0 0 178.723 118.44"
	 xml:space="preserve">
<path fill="#DFDEE4" d="M4.61,48.243c0,24.315,38.036,44.027,84.962,44.027c46.92,0,84.961-19.712,84.961-44.027
	c0-24.315-38.041-44.027-84.961-44.027C42.646,4.216,4.61,23.928,4.61,48.243"/>
<path fill="none" stroke="#1D4B66" stroke-width="4.4896" stroke-linecap="round" stroke-miterlimit="10" d="M4.61,48.243
	c0,24.315,38.036,44.027,84.962,44.027c46.92,0,84.961-19.712,84.961-44.027c0-24.315-38.041-44.027-84.961-44.027
	C42.646,4.216,4.61,23.928,4.61,48.243z"/>
<polyline fill="#DFDEE4" points="154.005,71.052 166.551,110.838 116.373,86.436 "/>
<polyline fill="none" stroke="#1D4B66" stroke-width="4.4896" stroke-linecap="round" stroke-miterlimit="10" points="
	154.005,71.052 166.551,110.838 116.373,86.436 "/>
</svg>
