<?xml version="1.0" encoding="utf-8"?>
<!-- Generator: Adobe Illustrator 16.0.0, SVG Export Plug-In . SVG Version: 6.00 Build 0)  -->
<!DOCTYPE svg PUBLIC "-//W3C//DTD SVG 1.1//EN" "http://www.w3.org/Graphics/SVG/1.1/DTD/svg11.dtd">
<svg version="1.1" id="Capa_1" xmlns="http://www.w3.org/2000/svg" xmlns:xlink="http://www.w3.org/1999/xlink" x="0px" y="0px"
	 width="57.615px" height="106.603px" viewBox="0 0 57.615 106.603" enable-background="new 0 0 57.615 106.603"
	 xml:space="preserve">
<g opacity="0.3">
	<g>
		<defs>
			<rect id="SVGID_1_" x="14.828" y="85.384" width="31" height="8.25"/>
		</defs>
		<clipPath id="SVGID_2_">
			<use xlink:href="#SVGID_1_"  overflow="visible"/>
		</clipPath>
		<path clip-path="url(#SVGID_2_)" fill="#1D4B66" d="M45.828,89.509c0,2.277-6.939,4.125-15.5,4.125s-15.5-1.848-15.5-4.125
			s6.939-4.125,15.5-4.125S45.828,87.232,45.828,89.509"/>
	</g>
</g>
<path fill="#D27D2F" d="M35.547,32.841c1.494,2.646,3.797,3.718,5.52,10.818c0.681,2.799,0.839,5.344,0,9.514
	c-0.296,1.484-3.72,4.094-7.421,4.709c-1.953,0.328-4.263,0.127-7.487-0.322c-1.165-0.164-5.863-1.143-6.188-4.609
	c-0.249-2.637-1.154-5.421,0-9.512c0.976-3.462,2.047-5.078,6.354-11.26c4.282-6.147,3.95-6.039,3.95-6.039
	S34.019,30.132,35.547,32.841"/>
<path fill="#DFDEE4" d="M21.636,41.794c-1.192,2.313,0.961,5.799,4.812,7.785c3.853,1.986,7.942,1.723,9.136-0.592
	c1.192-2.313-0.962-5.798-4.814-7.785C26.918,39.216,22.829,39.482,21.636,41.794"/>
<path fill="#1B98C6" d="M28.29,41.577h1.479v5.135c0,0.817-0.066,1.392-0.196,1.72c-0.129,0.33-0.344,0.592-0.641,0.787
	c-0.299,0.195-0.656,0.293-1.073,0.293c-0.853,0-1.58-0.373-2.179-1.121l1.063-0.994c0.236,0.266,0.436,0.445,0.602,0.535
	c0.164,0.092,0.323,0.138,0.477,0.138c0.158,0,0.277-0.066,0.352-0.2c0.08-0.133,0.118-0.426,0.118-0.878V41.577z"/>
<g opacity="0.3">
	<g>
		<defs>
			<rect id="SVGID_3_" x="20.358" y="30.974" width="9.625" height="26.572"/>
		</defs>
		<clipPath id="SVGID_4_">
			<use xlink:href="#SVGID_3_"  overflow="visible"/>
		</clipPath>
		<path clip-path="url(#SVGID_4_)" fill="#D27D2F" d="M22.836,38.519c0.678-1.464,1.6-2.794,2.241-4.27
			c0.334-0.765,0.816-1.918,1.704-2.187c0.158-0.136,0.336-0.231,0.523-0.293c-0.214-0.104-0.429-0.214-0.643-0.337
			c-0.234-0.137-0.477-0.29-0.713-0.458c1.402,0.383,2.804,0.726,4,1.612c-0.161-0.023-0.323-0.049-0.488-0.084
			c0.316,0.382,0.522,0.873,0.521,1.441c-0.001,1.572-0.815,2.956-1.62,4.249c-1.349,2.166-2.297,3.989-2.603,6.575
			c-0.262,2.208-0.04,4.591,0.46,6.748c0.396,1.682,1.958,2.721,2.265,4.406c0.314,1.742-1.108,1.793-2.455,1.463
			c-0.326,0.092-0.694,0.02-0.879-0.266c-0.387-0.137-0.727-0.287-0.955-0.398c-2.695-1.332-3.614-3.729-3.798-6.607
			C20.142,46.08,21.153,42.148,22.836,38.519"/>
	</g>
</g>
<path fill="none" stroke="#1D4B66" stroke-width="1.317" stroke-miterlimit="10" d="M35.875,32.841
	c1.493,2.646,3.792,3.718,5.519,10.818c0.68,2.799,0.835,5.344,0,9.514c-0.298,1.484-3.72,4.094-7.426,4.709
	c-1.951,0.328-4.261,0.127-7.486-0.322c-1.162-0.164-5.86-1.143-6.187-4.609c-0.245-2.637-1.152-5.421,0-9.512
	c0.976-3.462,2.049-5.078,6.354-11.26c4.282-6.147,3.947-6.039,3.947-6.039S34.345,30.132,35.875,32.841z"/>
<path fill="#FFFFFF" d="M19.638,20.384c-1.655,4.564,0.705,9.605,5.27,11.258c4.563,1.654,9.604-0.704,11.258-5.27
	c1.656-4.563-0.703-9.604-5.269-11.258C26.33,13.461,21.292,15.82,19.638,20.384"/>
<path fill="#DFDEE4" d="M23.948,31.143c-0.684-0.546-1.377-1.083-2.021-1.673c0.046-0.002,0.097-0.008,0.145-0.006
	c-0.169-0.166-0.335-0.34-0.492-0.523c-1.876-2.134-3.466-6.111-1.19-8.331c2.492-2.43,3.806,2.668,4.313,4.065
	c0.563,1.529,1.81,2.729,3.276,3.39c0.396-0.044,0.695,0.091,0.895,0.326c1.755,0.497,3.664,0.228,5.021-1.149
	c0.587-0.595,1.398,0.135,1.271,0.811c0.719-0.076,1.304,0.9,0.638,1.387c-0.264,0.194-0.538,0.385-0.822,0.564
	c-0.387,0.643-1.085,1.045-1.81,1.311c-0.223,0.082-0.431,0.064-0.609-0.006c-0.072,0.143-0.194,0.261-0.37,0.316
	c-2.884,0.906-5.862,0.705-8.329-0.768C23.897,30.951,23.925,31.044,23.948,31.143"/>
<circle fill="none" stroke="#1D4B66" stroke-width="1.317" stroke-miterlimit="10" cx="28.208" cy="23.49" r="8.791"/>
<path fill="none" stroke="#1D4B66" stroke-width="1.317" stroke-linecap="round" stroke-miterlimit="10" d="M26.771,32.291
	c0,0-0.825,3.041,1.953,3.041c2.776,0,4.445-4.018,4.445-4.018"/>
<path fill="#1D4B66" d="M29.381,23.801c0-0.594-0.48-1.076-1.076-1.076c-0.593,0-1.075,0.482-1.075,1.076
	c0,0.595,0.482,1.076,1.075,1.076C28.901,24.877,29.381,24.396,29.381,23.801"/>
<path fill="#1D4B66" d="M24.069,23.801c0-0.595-0.482-1.077-1.075-1.077c-0.596,0-1.079,0.482-1.079,1.077s0.483,1.076,1.079,1.076
	C23.586,24.877,24.069,24.396,24.069,23.801"/>
<path fill="none" stroke="#1D4B66" stroke-width="0.878" stroke-linecap="round" stroke-miterlimit="10" d="M25.095,28.726
	c0,0,1.438-1.02,2.159-0.84c0.724,0.179,0.96,1.799,0.96,1.799"/>
<path fill="#1D4B66" d="M37.138,23.42c0.453-1.451,1.018-2.802,1.136-4.369c0.082-1.069,0.402-2.651-0.252-3.563
	c0.607-0.398,1.39-1.137,1.561-1.84c-0.788,0.199-1.604,0.258-2.421,0.254c0.729-0.311,1.183-0.984,1.546-1.64
	c-0.51,0.32-1.081,0.486-1.643,0.664c-0.289-1.76-4.012-2.22-5.364-2.346c-3.385-0.315-7.219-0.587-10.04-2.683
	c0.221,1.049,1.638,1.707,1.835,2.666c-1.193-0.028-2.75-0.23-3.9-0.5c0.771,0.252,1.734,0.776,2.207,1.461
	c-0.516,0.068-1.007-0.123-1.518-0.062c-0.044,1.671-0.951,3.278-0.973,4.993c-0.012,1.033-0.227,2.426,0.352,3.268
	c0.321-0.462,0.429-1.117,0.698-1.634c0.338-0.646,0.735-0.991,1.223-1.505c0.692-0.729,1.3-1.432,2.103-2.012
	c1.842-1.334,4.789-1.295,6.922-0.764c1.738,0.432,4.45,1.721,5.199,3.491c0.658,1.554,1.326,3.349,1.155,5.071
	c-0.019,0.199-0.025,0.331-0.088,0.523"/>
<path fill="none" stroke="#1D4B66" stroke-width="1.926" stroke-linecap="round" stroke-miterlimit="10" d="M37.138,23.42
	c0.453-1.451,1.018-2.802,1.136-4.369c0.082-1.069,0.402-2.651-0.252-3.563c0.607-0.398,1.39-1.137,1.561-1.84
	c-0.788,0.199-1.604,0.258-2.421,0.254c0.729-0.311,1.183-0.984,1.546-1.64c-0.51,0.32-1.081,0.486-1.643,0.664
	c-0.289-1.76-4.012-2.22-5.364-2.346c-3.385-0.315-7.219-0.587-10.04-2.683c0.221,1.049,1.638,1.707,1.835,2.666
	c-1.193-0.028-2.75-0.23-3.9-0.5c0.771,0.252,1.734,0.776,2.207,1.461c-0.516,0.068-1.007-0.123-1.518-0.062
	c-0.044,1.671-0.951,3.278-0.973,4.993c-0.012,1.033-0.227,2.426,0.352,3.268c0.321-0.462,0.429-1.117,0.698-1.634
	c0.338-0.646,0.735-0.991,1.223-1.505c0.692-0.729,1.3-1.432,2.103-2.012c1.842-1.334,4.789-1.295,6.922-0.764
	c1.738,0.432,4.45,1.721,5.199,3.491c0.658,1.554,1.326,3.349,1.155,5.071c-0.019,0.199-0.025,0.331-0.088,0.523"/>
<path fill="none" stroke="#1D4B66" stroke-width="1.317" stroke-linecap="round" stroke-miterlimit="10" d="M24.615,34.606
	c0,0-12.601,12-9.6,14.28c3,2.281,5.039,2.641,5.039,2.641l-1.199,2.879"/>
<path fill="none" stroke="#1D4B66" stroke-width="1.317" stroke-linecap="round" stroke-miterlimit="10" d="M35.894,32.207
	c0,0,2.521,4.319,1.802,9.359s-3.841,6.24-3.721,3.96s-3.726-16.63-5.103-17.135c-1.378-0.505-3.057-0.625-3.057-0.625"/>
<path fill="none" stroke="#1D4B66" stroke-width="1.317" stroke-linecap="round" stroke-miterlimit="10" d="M27.159,58.076
	c0,0,0.882,8.156,0.771,16.643c-0.109,8.486-1.102,13.666-1.102,13.666"/>
<path fill="none" stroke="#1D4B66" stroke-width="1.317" stroke-linecap="round" stroke-miterlimit="10" d="M34.552,57.966
	c0,0-0.882,8.154-0.771,16.643c0.11,8.484,1.103,13.666,1.103,13.666"/>
</svg>
