<?xml version="1.0" encoding="utf-8"?>
<!-- Generator: Adobe Illustrator 15.1.0, SVG Export Plug-In . SVG Version: 6.00 Build 0)  -->
<!DOCTYPE svg PUBLIC "-//W3C//DTD SVG 1.1//EN" "http://www.w3.org/Graphics/SVG/1.1/DTD/svg11.dtd">
<svg version="1.1" id="Layer_1" xmlns="http://www.w3.org/2000/svg" xmlns:xlink="http://www.w3.org/1999/xlink" x="0px" y="0px"
	 width="144.823px" height="236.171px" viewBox="0 0 144.823 236.171" enable-background="new 0 0 144.823 236.171"
	 xml:space="preserve">
<path fill="#D27D2F" d="M110.83,122.122c6.561,11.616,16.675,16.33,24.241,47.522c2.991,12.288,3.684,23.469,0,41.78
	c-1.303,6.519-16.336,17.986-32.594,20.689c-8.581,1.437-18.726,0.559-32.889-1.427c-5.116-0.716-25.755-5.01-27.181-20.239
	c-1.091-11.584-5.069-23.809,0-41.778c4.289-15.21,8.99-22.303,27.91-49.46C89.128,92.209,87.67,92.689,87.67,92.689
	S104.116,110.221,110.83,122.122"/>
<path fill="#DFDEE4" d="M49.723,161.448c-5.237,10.158,4.223,25.471,21.14,34.195c16.915,8.727,34.88,7.563,40.12-2.599
	c5.241-10.161-4.22-25.471-21.139-34.197C72.923,150.123,54.96,151.287,49.723,161.448"/>
<path fill="#1B98C6" d="M78.947,160.489h6.491v22.555c0,3.592-0.286,6.107-0.86,7.558c-0.566,1.45-1.509,2.597-2.815,3.454
	c-1.31,0.855-2.879,1.283-4.711,1.283c-3.746,0-6.938-1.64-9.573-4.925l4.673-4.364c1.028,1.171,1.909,1.956,2.638,2.356
	c0.722,0.399,1.419,0.602,2.099,0.602c0.691,0,1.213-0.296,1.541-0.879c0.35-0.586,0.518-1.873,0.518-3.858V160.489z"/>
<g opacity="0.3">
	<g>
		<defs>
			<rect id="SVGID_1_" x="44.107" y="113.922" width="42.28" height="116.708"/>
		</defs>
		<clipPath id="SVGID_2_">
			<use xlink:href="#SVGID_1_"  overflow="visible"/>
		</clipPath>
		<path clip-path="url(#SVGID_2_)" fill="#D27D2F" d="M54.993,147.06c2.977-6.432,7.027-12.276,9.848-18.757
			c1.466-3.355,3.585-8.425,7.481-9.601c0.698-0.595,1.478-1.021,2.302-1.285c-0.941-0.462-1.88-0.942-2.823-1.484
			c-1.028-0.598-2.091-1.274-3.134-2.011c6.163,1.684,12.317,3.184,17.572,7.086c-0.709-0.107-1.421-0.222-2.141-0.366
			c1.387,1.67,2.299,3.825,2.287,6.325c-0.009,6.906-3.586,12.983-7.119,18.668c-5.926,9.512-10.09,17.518-11.433,28.877
			c-1.147,9.694-0.178,20.166,2.024,29.639c1.733,7.391,8.594,11.947,9.94,19.358c1.383,7.649-4.867,7.871-10.78,6.421
			c-1.436,0.403-3.051,0.083-3.867-1.162c-1.69-0.608-3.188-1.262-4.193-1.756c-11.835-5.852-15.872-16.376-16.68-29.021
			C43.16,180.265,47.6,163.001,54.993,147.06"/>
	</g>
</g>
<path fill="none" stroke="#1D4B66" stroke-width="5.7856" stroke-miterlimit="10" d="M112.267,122.122
	c6.561,11.616,16.658,16.33,24.244,47.522c2.986,12.288,3.672,23.469,0,41.78c-1.31,6.519-16.343,17.986-32.616,20.689
	c-8.572,1.437-18.72,0.559-32.883-1.427c-5.104-0.716-25.743-5.01-27.176-20.239c-1.082-11.584-5.063-23.809,0-41.778
	c4.287-15.21,8.999-22.303,27.909-49.46c18.811-27.001,17.342-26.521,17.342-26.521S105.546,110.221,112.267,122.122z"/>
<path fill="#FFFFFF" d="M40.948,67.401c-7.273,20.051,3.094,42.192,23.145,49.453c20.046,7.263,42.187-3.093,49.45-23.145
	c7.275-20.045-3.088-42.19-23.146-49.453C70.344,36.993,48.216,47.349,40.948,67.401"/>
<path fill="#DFDEE4" d="M59.879,114.658c-3.005-2.397-6.052-4.754-8.871-7.345c0.197-0.012,0.422-0.035,0.628-0.028
	c-0.742-0.729-1.471-1.488-2.159-2.294c-8.241-9.379-15.223-26.849-5.23-36.596c10.948-10.675,16.712,11.716,18.945,17.856
	c2.466,6.717,7.948,11.987,14.389,14.89c1.742-0.194,3.054,0.396,3.925,1.43c7.707,2.185,16.097,0.997,22.053-5.044
	c2.579-2.612,6.142,0.59,5.584,3.557c3.162-0.334,5.732,3.955,2.807,6.092c-1.16,0.849-2.364,1.69-3.614,2.481
	c-1.701,2.821-4.767,4.587-7.95,5.753c-0.977,0.362-1.891,0.289-2.677-0.027c-0.313,0.63-0.85,1.146-1.621,1.389
	c-12.67,3.987-25.754,3.102-36.588-3.367C59.651,113.814,59.778,114.23,59.879,114.658"/>
<path fill="none" stroke="#1D4B66" stroke-width="5.7856" stroke-miterlimit="10" d="M42.293,67.888
	c-7.271,20.053,3.092,42.198,23.145,49.46c20.046,7.263,42.187-3.097,49.453-23.148c7.275-20.051-3.104-42.195-23.143-49.452
	C71.698,37.477,49.557,47.837,42.293,67.888z"/>
<path fill="none" stroke="#1D4B66" stroke-width="5.7856" stroke-linecap="round" stroke-miterlimit="10" d="M72.277,119.704
	c0,0-3.626,13.356,8.58,13.356c12.199,0,19.528-17.65,19.528-17.65"/>
<path fill="#1D4B66" d="M88.138,63.446c0-2.609-2.112-4.729-4.729-4.729c-2.607,0-4.727,2.12-4.727,4.729
	c0,2.615,2.12,4.729,4.727,4.729C86.026,68.176,88.138,66.061,88.138,63.446"/>
<path fill="#1D4B66" d="M60.405,75.017c0-2.609-2.116-4.732-4.723-4.732c-2.617,0-4.738,2.123-4.738,4.732
	c0,2.614,2.122,4.729,4.738,4.729C58.289,79.746,60.405,77.631,60.405,75.017"/>
<path fill="none" stroke="#1D4B66" stroke-width="3.8555" stroke-linecap="round" stroke-miterlimit="10" d="M64.916,104.042
	c0,0,6.31-4.479,9.488-3.689c3.174,0.791,4.217,7.905,4.217,7.905"/>
<path fill="#1D4B66" d="M117.816,80.74c1.987-6.376,4.466-12.304,4.989-19.188c0.356-4.704,1.769-11.646-1.11-15.654
	c2.67-1.752,6.112-4.996,6.859-8.084c-3.464,0.872-7.045,1.139-10.632,1.118c3.205-1.363,5.188-4.326,6.788-7.202
	c-2.242,1.406-4.75,2.133-7.214,2.917c-1.272-7.733-17.626-9.751-23.559-10.305c-14.875-1.381-31.709-2.581-44.1-11.781
	c0.963,4.604,7.186,7.495,8.058,11.705c-5.248-0.12-12.083-1.01-17.132-2.188c3.389,1.106,7.615,3.409,9.693,6.413
	c-2.266,0.301-4.423-0.541-6.667-0.271c-0.194,7.343-4.182,14.401-4.273,21.931c-0.052,4.542-0.998,10.658,1.542,14.354
	c1.415-2.025,1.881-4.902,3.069-7.174c1.482-2.832,3.228-4.354,5.373-6.61c3.042-3.205,5.706-6.287,9.231-8.837
	c8.093-5.856,21.037-5.69,30.406-3.357c7.637,1.897,19.545,7.559,22.838,15.34c2.89,6.826,5.824,14.71,5.074,22.271
	c-0.084,0.874-0.112,1.458-0.384,2.303"/>
<path fill="none" stroke="#1D4B66" stroke-width="8.4583" stroke-linecap="round" stroke-miterlimit="10" d="M117.816,80.74
	c1.987-6.376,4.466-12.304,4.989-19.188c0.356-4.704,1.769-11.646-1.11-15.654c2.67-1.752,6.112-4.996,6.859-8.084
	c-3.464,0.872-7.045,1.139-10.632,1.118c3.205-1.363,5.188-4.326,6.788-7.202c-2.242,1.406-4.75,2.133-7.214,2.917
	c-1.272-7.733-17.626-9.751-23.559-10.305c-14.875-1.381-31.709-2.581-44.1-11.781c0.963,4.604,7.186,7.495,8.058,11.705
	c-5.248-0.12-12.083-1.01-17.132-2.188c3.389,1.106,7.615,3.409,9.693,6.413c-2.266,0.301-4.423-0.541-6.667-0.271
	c-0.194,7.343-4.182,14.401-4.273,21.931c-0.052,4.542-0.998,10.658,1.542,14.354c1.415-2.025,1.881-4.902,3.069-7.174
	c1.482-2.832,3.228-4.354,5.373-6.61c3.042-3.205,5.706-6.287,9.231-8.837c8.093-5.856,21.037-5.69,30.406-3.357
	c7.637,1.897,19.545,7.559,22.838,15.34c2.89,6.826,5.824,14.71,5.074,22.271c-0.084,0.874-0.112,1.458-0.384,2.303"/>
<path fill="none" stroke="#1D4B66" stroke-width="5.7856" stroke-linecap="round" stroke-miterlimit="10" d="M62.807,129.87
	c0,0-55.345,52.712-42.167,62.727c13.176,10.015,22.137,11.595,22.137,11.595l-5.271,12.652"/>
<path fill="none" stroke="#1D4B66" stroke-width="5.7856" stroke-linecap="round" stroke-miterlimit="10" d="M112.354,119.329
	c0,0,11.07,18.977,7.908,41.115c-3.163,22.136-16.866,27.408-16.34,17.394c0.527-10.015-16.366-73.046-22.414-75.267
	c-6.048-2.219-13.426-2.747-13.426-2.747"/>
</svg>
