<?xml version="1.0" encoding="utf-8"?>
<!-- Generator: Adobe Illustrator 16.0.0, SVG Export Plug-In . SVG Version: 6.00 Build 0)  -->
<!DOCTYPE svg PUBLIC "-//W3C//DTD SVG 1.1//EN" "http://www.w3.org/Graphics/SVG/1.1/DTD/svg11.dtd">
<svg version="1.1" id="Capa_1" xmlns="http://www.w3.org/2000/svg" xmlns:xlink="http://www.w3.org/1999/xlink" x="0px" y="0px"
	 width="132px" height="278px" viewBox="0 0 132 278" enable-background="new 0 0 132 278" xml:space="preserve">
<g opacity="0.2">
	<g>
		<g>
			<defs>
				<rect id="SVGID_1_" x="9.415" y="239.103" width="110.009" height="33.556"/>
			</defs>
			<clipPath id="SVGID_2_">
				<use xlink:href="#SVGID_1_"  overflow="visible"/>
			</clipPath>
			<path clip-path="url(#SVGID_2_)" fill="#1B98C6" d="M119.42,255.882c0,9.263-24.624,16.772-55.002,16.772
				c-30.376,0-55.004-7.511-55.004-16.772c0-9.268,24.628-16.775,55.004-16.775C94.796,239.106,119.42,246.615,119.42,255.882"/>
		</g>
	</g>
</g>
<path fill="#D27D2D" d="M92.245,80.332c4.812,8.527,12.231,11.987,17.8,34.888c2.193,9.021,2.697,17.236,0,30.676
	c-0.961,4.791-12,13.205-23.941,15.193c-6.296,1.051-13.739,0.408-24.146-1.05c-3.744-0.528-18.899-3.676-19.949-14.856
	c-0.796-8.508-3.72-17.481,0-30.677c3.151-11.165,6.606-16.375,20.493-36.313c13.813-19.828,12.733-19.474,12.733-19.474
	S87.316,71.596,92.245,80.332"/>
<path fill="none" stroke="#1E4C67" stroke-width="4" stroke-linecap="round" stroke-miterlimit="10" d="M88.824,254.07
	c0.375,2.108-12.981-40.241-4.223-92.7"/>
<path fill="none" stroke="#1E4C67" stroke-width="4" stroke-linecap="round" stroke-miterlimit="10" d="M53.101,252.19
	c0,0,3.918-47.777,3.271-92.883"/>
<g opacity="0.3">
	<g>
		<g>
			<defs>
				<rect id="SVGID_3_" x="43.258" y="74.31" width="31.04" height="85.69"/>
			</defs>
			<clipPath id="SVGID_4_">
				<use xlink:href="#SVGID_3_"  overflow="visible"/>
			</clipPath>
			<path clip-path="url(#SVGID_4_)" fill="#D27D2D" d="M51.245,98.639c2.188-4.719,5.165-9.011,7.238-13.773
				c1.074-2.459,2.627-6.181,5.484-7.042c0.514-0.441,1.084-0.749,1.692-0.948c-0.691-0.334-1.384-0.693-2.067-1.09
				c-0.762-0.438-1.531-0.931-2.303-1.475c4.521,1.24,9.041,2.343,12.902,5.203c-0.524-0.077-1.049-0.166-1.571-0.268
				c1.021,1.226,1.677,2.81,1.673,4.643c-0.006,5.07-2.627,9.535-5.223,13.707c-4.346,6.983-7.413,12.859-8.395,21.204
				c-0.84,7.116-0.131,14.809,1.487,21.754c1.267,5.428,6.304,8.779,7.291,14.219c1.021,5.617-3.576,5.779-7.911,4.716
				c-1.055,0.295-2.243,0.057-2.833-0.853c-1.253-0.451-2.347-0.929-3.089-1.291c-8.688-4.297-11.656-12.024-12.239-21.312
				C42.556,123.021,45.817,110.349,51.245,98.639"/>
		</g>
	</g>
</g>
<path fill="none" stroke="#1E4C67" stroke-width="4" stroke-miterlimit="10" d="M93.298,80.332
	c4.813,8.527,12.232,11.987,17.796,34.888c2.198,9.021,2.698,17.236,0,30.676c-0.961,4.791-12,13.205-23.942,15.193
	c-6.298,1.051-13.741,0.408-24.145-1.05c-3.749-0.528-18.9-3.676-19.954-14.856c-0.792-8.508-3.712-17.481,0-30.677
	c3.152-11.165,6.615-16.375,20.493-36.313C77.36,58.365,76.279,58.719,76.279,58.719S88.367,71.596,93.298,80.332z"/>
<path fill="#FFFFFF" d="M40.935,40.155c-5.332,14.721,2.273,30.98,16.994,36.313c14.719,5.333,30.977-2.273,36.312-16.995
	c5.332-14.718-2.274-30.977-16.994-36.313C62.521,17.828,46.267,25.433,40.935,40.155"/>
<path fill="#DFDEE4" d="M54.835,74.854c-2.204-1.76-4.443-3.493-6.512-5.395c0.152-0.007,0.309-0.027,0.46-0.02
	c-0.539-0.534-1.083-1.094-1.591-1.684c-6.045-6.887-11.176-19.712-3.832-26.871c8.037-7.834,12.26,8.604,13.91,13.114
	c1.808,4.928,5.838,8.799,10.563,10.927c1.279-0.139,2.24,0.295,2.887,1.054c5.654,1.604,11.814,0.729,16.188-3.705
	c1.893-1.912,4.507,0.435,4.099,2.615c2.324-0.249,4.206,2.9,2.065,4.471c-0.855,0.624-1.739,1.24-2.665,1.823
	c-1.243,2.071-3.496,3.364-5.825,4.223c-0.717,0.265-1.394,0.211-1.963-0.023c-0.238,0.467-0.633,0.845-1.196,1.024
	c-9.303,2.93-18.907,2.274-26.864-2.469C54.669,74.231,54.765,74.539,54.835,74.854"/>
<path fill="none" stroke="#1E4C67" stroke-width="4" stroke-miterlimit="10" d="M41.922,40.513
	c-5.333,14.722,2.272,30.978,16.995,36.313c14.725,5.332,30.974-2.274,36.309-16.995c5.333-14.725-2.271-30.978-16.993-36.31
	C63.515,18.186,47.255,25.791,41.922,40.513z"/>
<path fill="none" stroke="#1E4C67" stroke-width="4" stroke-linecap="round" stroke-miterlimit="10" d="M63.942,78.556
	c0,0-2.666,9.806,6.293,9.806c8.954,0,14.34-12.958,14.34-12.958"/>
<path fill="#DFDEE4" d="M95.855,107.008c3.853,7.46-3.101,18.709-15.528,25.118c-12.426,6.413-25.621,5.555-29.471-1.906
	c-3.854-7.463,3.101-18.714,15.527-25.121C78.812,98.689,92.005,99.544,95.855,107.008"/>
<path fill="#1B98C6" d="M72.585,106.759h4.772v16.567c0,2.634-0.209,4.485-0.625,5.551c-0.418,1.067-1.108,1.912-2.075,2.539
	c-0.961,0.625-2.122,0.94-3.463,0.94c-2.756,0-5.092-1.207-7.023-3.615l3.42-3.209c0.764,0.859,1.405,1.439,1.941,1.734
	c0.531,0.291,1.045,0.438,1.546,0.438c0.507,0,0.882-0.218,1.139-0.646c0.247-0.432,0.368-1.375,0.368-2.838V106.759z"/>
<path fill="#1E4C67" d="M41.127,47.363c0-11.533-1.694-21.2-12.312-27.553c3.187-0.057,7.297,0.056,10.545,1.256
	c-5.071,0.112-12.408-4.955-14.457-9.847c6.072,6.214,11.574-0.042,17.287-1.521c5.527-1.432,10.648-3.808,16.537-3.875
	c7.198-0.076,13.693,0.703,20.495,2.907c2.398,0.772,5.526,2.516,8.02,2.393c3.594-0.179,6.59-3.076,10.463-2.781
	c-1.647,1.256-3.4,2.741-3.741,4.819c1.476,0.083,9.922-0.849,9.843,1.113c-0.05,1.234-5.48,3.301-6.682,4.856
	c5.879-1.2,4.392,14.211,4.567,18.015c0.29,6.277-0.862,13.134-3.892,18.54c-1.349-4.789-0.04-9.574-2.376-14.228
	c-2.059-4.093-4.59-6.86-7.487-10.191c-6.27-7.202-15.579-8.444-24.892-7.48c-3.206,0.332-6.744,0.474-9.618,2.005
	c-2.728,1.458-3.311,3.115-5.001,5.641c-2.516,3.768-7.688,9.468-5.893,14.522"/>
<path fill="none" stroke="#1E4C67" stroke-width="4" stroke-linecap="round" stroke-miterlimit="10" d="M41.127,47.363
	c0-11.533-1.694-21.2-12.312-27.553c3.187-0.057,7.297,0.056,10.545,1.256c-5.071,0.112-12.408-4.955-14.457-9.847
	c6.072,6.214,11.574-0.042,17.287-1.521c5.527-1.432,10.648-3.808,16.537-3.875c7.198-0.076,13.693,0.703,20.495,2.907
	c2.398,0.772,5.526,2.516,8.02,2.393c3.594-0.179,6.59-3.076,10.463-2.781c-1.647,1.256-3.4,2.741-3.741,4.819
	c1.476,0.083,9.922-0.849,9.843,1.113c-0.05,1.234-5.48,3.301-6.682,4.856c5.879-1.2,4.392,14.211,4.567,18.015
	c0.29,6.277-0.862,13.134-3.892,18.54c-1.349-4.789-0.04-9.574-2.376-14.228c-2.059-4.093-4.59-6.86-7.487-10.191
	c-6.27-7.202-15.579-8.444-24.892-7.48c-3.206,0.332-6.744,0.474-9.618,2.005c-2.728,1.458-3.311,3.115-5.001,5.641
	c-2.516,3.768-7.688,9.468-5.893,14.522"/>
</svg>
