<?xml version="1.0" encoding="utf-8"?>
<!-- Generator: Adobe Illustrator 16.0.0, SVG Export Plug-In . SVG Version: 6.00 Build 0)  -->
<!DOCTYPE svg PUBLIC "-//W3C//DTD SVG 1.1//EN" "http://www.w3.org/Graphics/SVG/1.1/DTD/svg11.dtd">
<svg version="1.1" id="Layer_1" xmlns="http://www.w3.org/2000/svg" xmlns:xlink="http://www.w3.org/1999/xlink" x="0px" y="0px"
	 width="504px" height="88.667px" viewBox="0 0 504 88.667" enable-background="new 0 0 504 88.667" xml:space="preserve">
<path fill="#E0DFE6" d="M139.306,80.574c-1.773-1.626-4.878-4.879-7.613-5.618c-1.996,2.292-4.73,3.844-7.982,3.104
	c-1.774-0.443-2.808-1.7-4.361-2.439c-1.109-0.591-0.295-0.517-0.813-0.444c-0.296,0.075-1.331,1.109-1.552,1.257
	c-2.883,1.7-5.47-0.295-7.835-2.069c-1.7-1.33-3.399-2.734-4.952-4.286c-1.108,1.403-2.364,2.66-3.917,3.547
	c-3.474,2.144-6.282-3.03-3.104-5.321c1.774-1.257,3.104-2.66,4.213-4.435c1.109-1.773,3.844-1.922,4.879,0
	c0.665,1.183,1.552,2.291,2.439,3.326c0.96,1.035,2.808,2.069,3.474,3.104c0,0,0.517,0.591,0.591,1.108
	c0.222-0.37,0.518-0.813,0.591-0.888c0.887-0.96,2.069-1.773,3.326-2.217c2.291-0.887,4.508-0.518,6.431,1.108
	c0.739,0.666,1.33,1.7,2.291,2.069c1.552,0.666,3.104-0.517,4.583-1.034c1.182-0.443,2.365,0.518,2.735,1.553
	c0.591,1.626,2.439,2.882,3.621,3.99c1.257,1.257,2.439,2.513,3.548,3.844C140.562,80.352,139.823,81.091,139.306,80.574"/>
<path fill="#E0DFE6" d="M5.675,33.345c0.148-0.074,0.37-0.223,0.518-0.296c1.33-0.739,3.326-0.592,4.36,0.592
	c0.222,0.223,0.37,0.443,0.592,0.665c0.739,0.813,1.035,1.626,0.96,2.438c0.591,0.739,1.257,1.404,1.848,1.626
	c1.035,0.296,2.808-1.257,3.695-1.699c2.809-1.405,5.543-1.701,8.13,0.222c2.808,2.069,3.917,5.395,5.987,8.056
	c1.922,2.587,7.761,3.104,9.386,0c0.444-0.887,1.405-1.034,2.292-0.887c2.809,0.37,4.878,2.218,6.8,4.139
	c1.848,1.848,3.474,3.695,6.208,2.735c4.73-1.7,8.574-5.913,12.491-8.869c3.031-2.218,6.356-3.252,9.535-0.813
	c2.217,1.7,3.917,3.77,5.543,5.986c1.035,0.518,2.069,1.035,3.178,1.479c3.252,1.257,1.922,6.578-1.478,5.322
	c-2.661-0.592-5.1-2.292-7.613-3.326c0.148,2.069-2.143,3.399-3.991,3.104c-1.108-0.147-2.217-0.517-3.252-0.739
	c-1.626,1.7-4.139,2.144-6.652,1.848c-3.4,2.587-7.243,4.952-11.53,4.065c-4.656-0.961-7.465-5.248-9.83-9.313
	c-2.07,2.218-4.73,3.104-8.352,2.735c-4.213-0.37-6.652-2.883-8.795-6.283c-0.813-1.33-2.291-4.582-3.991-4.582
	c-1.848-0.074-4.139,2.513-6.061,3.03c-4.73,1.331-7.613-2.587-10.569-5.543C3.31,37.41,3.679,34.527,5.675,33.345"/>
<path fill="#E0DFE6" d="M96.881,66.678c-1.331,2.293-3.4,4.436-4.879,5.913c-3.326,3.401-7.168,6.728-11.604,8.575
	c-1.626,0.664-3.031-0.075-3.917-1.257c-0.665,0-1.331-0.369-1.7-1.035c-0.887-1.625-5.691,1.257-7.095,1.479
	c-3.622,0.665-4.361-4.878-0.666-4.951c3.326-0.075,7.021-2.366,9.683-0.593c0.222-0.221,0.443-0.369,0.739-0.517
	c3.547-1.7,6.947-3.548,10.051-6.061c0.739-0.591,1.479-1.183,2.144-1.773c-0.813,0-1.553-0.369-2.144-1.108
	c-1.108-1.405-0.591-3.104,0.813-4.14c0.961-0.665,1.996-1.034,3.104-1.404c0-0.074,0-0.147,0-0.222c0-0.443-0.074-0.887-0.148-1.33
	c-0.147-1.923,2.439-2.218,3.4-0.887c0.148,0.222,0.295,0.443,0.443,0.739c0.148,0,0.296,0,0.37,0
	C100.946,58.031,101.316,65.496,96.881,66.678"/>
<path fill="#204E69" d="M147.583,84.27c-0.295,0-0.517-0.074-0.739-0.295c-5.987-5.322-10.939-10.053-15.152-14.043
	c0.222-0.148,0.518-0.222,0.739-0.37c0.518-0.296,0.739-0.961,0.444-1.479c-0.296-0.517-0.961-0.738-1.479-0.443
	s-0.961,0.517-1.404,0.665c-0.887-0.888-1.774-1.773-2.661-2.587c-6.357-6.135-10.939-10.569-12.639-10.569
	c-0.148,0-0.222,0-0.222,0.073c-2.513,2.144-5.1,4.141-7.613,6.136c-0.296-0.296-0.591-0.592-0.96-0.887
	c-0.444-0.444-1.183-0.369-1.553,0.073c-0.443,0.444-0.37,1.184,0.075,1.553c0.221,0.222,0.443,0.444,0.665,0.665
	c-0.591,0.444-1.109,0.887-1.626,1.257c-3.77,2.882-7.687,5.913-11.457,9.164c-0.443,0.37-1.182,0.37-1.552-0.147
	c-0.37-0.444-0.37-1.184,0.148-1.553c3.03-2.587,6.134-5.025,9.239-7.392l0.887,0.888c0.222,0.222,0.517,0.295,0.813,0.295
	c0.296,0,0.591-0.074,0.813-0.295c0.444-0.444,0.444-1.108,0-1.553l-0.665-0.665c0.221-0.147,0.369-0.295,0.591-0.443
	c3.622-2.809,7.317-5.69,11.013-8.722c0.443-0.369,1.034-0.592,1.625-0.592c2.587,0,6.208,3.548,14.191,11.234
	c5.026,4.879,11.235,10.865,19.438,18.183c0.444,0.444,0.518,1.108,0.074,1.553C148.175,84.122,147.88,84.27,147.583,84.27"/>
<path fill="#204E69" d="M102.203,64.905c-0.222,0.222-0.517,0.295-0.813,0.295c-0.295,0-0.591-0.074-0.813-0.295l-0.887-0.887
	l-2.439-2.439c-8.5-8.574-17.295-17.443-26.756-25.943c-0.295-0.295-0.739-0.739-1.256-1.256c-1.109-1.108-4.361-4.36-5.691-4.805
	c-4.213,3.031-8.353,5.469-11.752,6.947c-0.443,0.222-0.961,0.074-1.257-0.295c-4.73-5.322-8.795-10.57-12.047-14.782
	C33.835,15.384,29.77,10.21,27.774,10.21c-3.104,0-4.878,3.548-6.726,7.317c-0.887,1.774-1.774,3.548-2.809,4.952
	c-2.735,3.696-5.765,7.021-9.535,10.199c-0.222-0.295-0.443-0.517-0.665-0.813c-0.37-0.443-1.109-0.518-1.552-0.147
	c-0.443,0.369-0.517,1.108-0.147,1.553c0.222,0.295,0.443,0.591,0.739,0.813c-1.626,1.331-3.4,2.661-5.321,3.991
	c-0.518,0.369-1.183,0.222-1.552-0.295c-0.37-0.518-0.222-1.184,0.295-1.553c6.948-4.879,11.9-9.461,15.965-15.078
	c0.961-1.256,1.7-2.883,2.587-4.657c1.996-3.991,4.213-8.574,8.722-8.574c3.03,0,6.578,4.583,12.417,12.122
	c3.104,3.991,6.947,8.943,11.456,14.043c3.104-1.479,6.948-3.771,10.791-6.505c0.295-0.222,0.517-0.37,0.887-0.37
	c1.848,0,4.509,2.512,7.539,5.543c0.518,0.518,0.887,0.887,1.183,1.183c3.4,3.104,21.878,21.064,26.83,26.017l2.661,2.661
	l0.665,0.665C102.572,63.722,102.572,64.461,102.203,64.905"/>
<path fill="#204E69" d="M104.346,60.471c0.444-0.444,1.109-0.444,1.553-0.075c0.295,0.296,0.665,0.592,0.96,0.888
	c2.439,2.365,4.435,4.582,6.135,6.873c0.37-0.294,0.813-0.664,1.182-0.961c1.109-0.96,2.292-2.069,4.065-2.069
	c1.922,0,3.326,1.109,4.583,2.144c1.183,0.961,2.292,1.848,3.695,1.848c1.035,0,2.144-0.295,3.474-0.887
	c0.443-0.222,0.887-0.444,1.404-0.665c0.517-0.296,1.183-0.074,1.479,0.443c0.295,0.518,0.074,1.184-0.444,1.479
	c-0.222,0.147-0.443,0.223-0.739,0.369c-1.478,0.739-3.251,1.404-5.174,1.404c-2.217,0-3.769-1.257-5.099-2.365
	c-1.109-0.887-2.07-1.626-3.179-1.626c-0.886,0-1.552,0.593-2.586,1.479c-0.665,0.592-1.479,1.331-2.439,1.773
	c-0.518,0.222-1.109,0.074-1.404-0.369c-1.774-2.513-3.917-4.952-6.726-7.613c-0.222-0.222-0.443-0.443-0.665-0.665
	C103.903,61.579,103.903,60.913,104.346,60.471"/>
<path fill="#204E69" d="M6.414,31.646c0.443-0.369,1.183-0.296,1.552,0.147c0.222,0.295,0.444,0.592,0.666,0.813
	c2.144,2.513,3.77,3.769,4.73,3.769c0.295,0,1.035-0.813,1.478-1.256c0.887-0.961,1.848-1.922,3.104-1.922h0.148
	c6.652,0.444,9.165,4.435,11.161,7.688c2.735,4.286,4.508,7.168,15.152,0.813c0.37-0.222,0.813-0.222,1.182,0
	c1.257,0.813,2.217,1.848,3.104,2.809c1.626,1.848,3.104,3.4,6.504,3.4c3.179,0,6.209-1.848,9.387-3.843
	c2.661-1.627,5.322-3.326,8.278-3.992c0.591-0.146,1.183,0.223,1.331,0.814c0.148,0.591-0.222,1.183-0.813,1.33
	c-2.587,0.592-5.174,2.144-7.613,3.696c-3.326,2.069-6.726,4.213-10.57,4.213c-4.36,0-6.356-2.218-8.13-4.141
	c-0.665-0.739-1.331-1.479-2.069-2.069c-11.161,6.504-14.191,3.474-17.517-1.848c-1.921-3.104-3.917-6.282-9.46-6.652
	c-0.295,0-1.035,0.813-1.479,1.257c-0.887,0.961-1.848,1.922-3.104,1.922c-2.144,0-4.435-2.218-6.43-4.582
	c-0.222-0.295-0.443-0.592-0.739-0.813C5.896,32.754,5.971,32.015,6.414,31.646"/>
<path fill="#E0DFE6" d="M366.951,80.574c-0.518,0.517-1.257-0.223-0.592-0.74c1.108-1.331,2.291-2.587,3.548-3.844
	c1.183-1.108,3.03-2.364,3.621-3.99c0.37-1.035,1.553-1.996,2.735-1.553c1.479,0.518,3.029,1.7,4.582,1.034
	c0.961-0.369,1.553-1.403,2.291-2.069c1.922-1.626,4.14-1.995,6.431-1.108c1.257,0.443,2.438,1.257,3.325,2.217
	c0.074,0.074,0.37,0.518,0.592,0.888c0.074-0.518,0.592-1.108,0.592-1.108c0.665-1.035,2.513-2.069,3.473-3.104
	c0.888-1.035,1.775-2.144,2.439-3.326c1.035-1.922,3.77-1.773,4.879,0c1.108,1.774,2.438,3.178,4.213,4.435
	c3.178,2.291,0.369,7.465-3.104,5.321c-1.553-0.887-2.809-2.144-3.917-3.547c-1.553,1.552-3.252,2.956-4.952,4.286
	c-2.365,1.774-4.952,3.77-7.835,2.069c-0.222-0.147-1.256-1.182-1.553-1.257c-0.517-0.072,0.297-0.146-0.813,0.444
	c-1.553,0.739-2.586,1.996-4.36,2.439c-3.253,0.739-5.987-0.813-7.982-3.104C371.828,75.695,368.725,78.948,366.951,80.574"/>
<path fill="#E0DFE6" d="M500.582,33.345c1.995,1.183,2.365,4.065,0.591,5.69c-2.956,2.956-5.839,6.874-10.569,5.543
	c-1.922-0.518-4.213-3.104-6.061-3.03c-1.7,0-3.178,3.252-3.991,4.582c-2.144,3.4-4.583,5.913-8.796,6.283
	c-3.621,0.369-6.281-0.518-8.352-2.735c-2.365,4.065-5.174,8.353-9.83,9.313c-4.287,0.887-8.131-1.479-11.53-4.065
	c-2.513,0.296-5.026-0.147-6.651-1.848c-1.035,0.223-2.145,0.592-3.252,0.739c-1.849,0.296-4.14-1.034-3.992-3.104
	c-2.513,1.034-4.951,2.734-7.612,3.326c-3.4,1.256-4.73-4.065-1.478-5.322c1.107-0.443,2.143-0.961,3.178-1.479
	c1.626-2.217,3.326-4.286,5.543-5.986c3.178-2.438,6.504-1.404,9.535,0.813c3.916,2.956,7.76,7.169,12.49,8.869
	c2.734,0.96,4.361-0.888,6.209-2.735c1.922-1.921,3.99-3.769,6.799-4.139c0.887-0.147,1.848,0,2.292,0.887
	c1.626,3.104,7.464,2.587,9.386,0c2.07-2.661,3.18-5.986,5.987-8.056c2.587-1.923,5.321-1.627,8.13-0.222
	c0.888,0.442,2.661,1.995,3.695,1.699c0.592-0.222,1.258-0.887,1.849-1.626c-0.074-0.813,0.222-1.625,0.96-2.438
	c0.223-0.222,0.37-0.442,0.592-0.665c1.035-1.184,3.031-1.331,4.361-0.592C500.212,33.122,500.434,33.271,500.582,33.345"/>
<path fill="#E0DFE6" d="M409.375,66.678c-4.435-1.182-4.064-8.646,1.404-8.571c0.074,0,0.223,0,0.37,0
	c0.147-0.296,0.296-0.518,0.443-0.739c0.96-1.331,3.548-1.036,3.399,0.887c-0.074,0.443-0.147,0.887-0.147,1.33
	c0,0.074,0,0.147,0,0.222c1.108,0.37,2.144,0.739,3.104,1.404c1.404,1.035,1.922,2.734,0.813,4.14
	c-0.591,0.739-1.33,1.108-2.144,1.108c0.665,0.591,1.405,1.183,2.144,1.773c3.105,2.513,6.504,4.36,10.052,6.061
	c0.296,0.147,0.518,0.296,0.739,0.517c2.661-1.773,6.357,0.518,9.683,0.593c3.696,0.073,2.956,5.616-0.665,4.951
	c-1.404-0.222-6.209-3.104-7.096-1.479c-0.369,0.666-1.035,1.035-1.699,1.035c-0.887,1.182-2.292,1.921-3.918,1.257
	c-4.436-1.848-8.277-5.174-11.604-8.575C412.775,71.113,410.705,68.971,409.375,66.678"/>
<g>
	<path fill="#204E69" d="M403.906,64.979c0.13,0.13,0.288,0.198,0.454,0.241c-0.202-0.155-0.404-0.311-0.606-0.466
		C403.801,64.831,403.839,64.911,403.906,64.979z"/>
	<path fill="#204E69" d="M403.906,63.426l0.664-0.665c-0.221-0.147-0.369-0.295-0.59-0.443c-0.598-0.464-1.207-0.944-1.809-1.412
		c-0.052-0.153-0.131-0.304-0.262-0.435c-0.206-0.206-0.461-0.308-0.718-0.33c-2.726-2.125-5.471-4.285-8.226-6.545
		c-0.443-0.369-1.034-0.592-1.625-0.592c-2.588,0-6.209,3.548-14.191,11.234c-5.025,4.879-11.234,10.865-19.438,18.183
		c-0.444,0.444-0.518,1.108-0.074,1.553c0.444,0.148,0.739,0.296,1.035,0.296c0.295,0,0.517-0.074,0.739-0.295
		c5.986-5.322,10.938-10.053,15.151-14.043c-0.222-0.148-0.518-0.222-0.739-0.37c-0.395-0.226-0.612-0.664-0.565-1.09
		c-0.015,0.401,0.194,0.804,0.565,1.016c0.222,0.147,0.443,0.223,0.739,0.369c1.478,0.739,3.251,1.404,5.174,1.404
		c2.218,0,3.769-1.257,5.099-2.365c1.109-0.887,2.07-1.626,3.18-1.626c0.887,0,1.552,0.593,2.586,1.479
		c0.666,0.592,1.479,1.331,2.439,1.773c0.518,0.222,1.109,0.074,1.404-0.369c1.773-2.513,3.918-4.952,6.727-7.613
		c0.221-0.222,0.443-0.443,0.664-0.665c0.222-0.127,0.33-0.327,0.367-0.543c-0.014,0.293-0.141,0.577-0.367,0.766
		c-0.221,0.222-0.443,0.444-0.664,0.665c0.591,0.444,1.108,0.887,1.625,1.257c0.316,0.242,0.639,0.491,0.957,0.735
		C403.493,64.329,403.53,63.803,403.906,63.426z M393.263,68.156c-0.37-0.294-0.813-0.664-1.183-0.961
		c-1.108-0.96-2.291-2.069-4.064-2.069c-1.922,0-3.326,1.109-4.583,2.144c-1.183,0.961-2.292,1.848-3.695,1.848
		c-1.021,0-2.115-0.29-3.421-0.865c0.869-0.87,1.738-1.737,2.607-2.534c6.357-6.135,10.939-10.569,12.639-10.569
		c0.148,0,0.223,0,0.223,0.073c2.499,2.132,5.071,4.119,7.571,6.103C396.938,63.674,394.953,65.879,393.263,68.156z"/>
	<path fill="#204E69" d="M505.756,36.228c-6.948-4.879-11.9-9.461-15.965-15.078c-0.961-1.256-1.701-2.883-2.588-4.657
		c-1.995-3.991-4.213-8.574-8.721-8.574c-3.03,0-6.578,4.583-12.418,12.122c-3.104,3.991-6.947,8.943-11.455,14.043
		c-3.105-1.479-6.948-3.771-10.791-6.505c-0.296-0.222-0.518-0.37-0.887-0.37c-1.848,0-4.51,2.512-7.539,5.543
		c-0.518,0.518-0.888,0.887-1.184,1.183C430.81,37.04,412.332,55,407.379,59.952l-2.66,2.661l-0.665,0.665
		c-0.37,0.443-0.37,1.183,0,1.627c0.222,0.222,0.517,0.295,0.813,0.295c0.136,0,0.27-0.021,0.398-0.06
		c-0.171,0.082-0.354,0.133-0.547,0.133c-0.122,0-0.242-0.023-0.358-0.054c3.283,2.523,6.641,5.157,9.894,7.963
		c0.443,0.37,1.182,0.37,1.552-0.147c0.37-0.444,0.37-1.184-0.147-1.553c-3.018-2.575-6.106-5.003-9.197-7.358l0.105-0.105
		l2.439-2.439c8.5-8.574,17.295-17.443,26.756-25.943c0.295-0.295,0.738-0.739,1.256-1.256c1.109-1.108,4.361-4.36,5.691-4.805
		c4.213,3.031,8.353,5.469,11.752,6.947c0.443,0.222,0.961,0.074,1.257-0.295c4.729-5.322,8.795-10.57,12.047-14.782
		c4.657-6.061,8.722-11.235,10.718-11.235c3.104,0,4.878,3.548,6.726,7.317c0.888,1.774,1.774,3.548,2.809,4.952
		c2.735,3.696,5.765,7.021,9.534,10.199c0.223-0.295,0.443-0.517,0.666-0.813c0.369-0.443,1.108-0.518,1.552-0.147
		c0.443,0.369,0.517,1.108,0.147,1.553c-0.222,0.295-0.443,0.591-0.738,0.813c1.625,1.331,3.399,2.661,5.32,3.991
		c0.518,0.369,1.184,0.222,1.553-0.295C506.42,37.263,506.272,36.597,505.756,36.228z"/>
</g>
<path fill="#204E69" d="M499.842,31.646c0.443,0.369,0.518,1.108,0.148,1.553c-0.296,0.222-0.518,0.519-0.739,0.813
	c-1.995,2.364-4.286,4.582-6.431,4.582c-1.256,0-2.217-0.961-3.104-1.922c-0.443-0.443-1.184-1.257-1.479-1.257
	c-5.543,0.37-7.539,3.548-9.461,6.652c-3.325,5.321-6.355,8.352-17.517,1.848c-0.739,0.591-1.404,1.33-2.069,2.069
	c-1.773,1.923-3.77,4.141-8.13,4.141c-3.844,0-7.243-2.144-10.569-4.213c-2.439-1.553-5.026-3.104-7.613-3.696
	c-0.592-0.147-0.961-0.739-0.813-1.33c0.147-0.592,0.738-0.961,1.33-0.814c2.956,0.666,5.617,2.365,8.277,3.992
	c3.179,1.995,6.209,3.843,9.388,3.843c3.399,0,4.878-1.553,6.504-3.4c0.888-0.961,1.848-1.995,3.104-2.809
	c0.369-0.222,0.813-0.222,1.182,0c10.645,6.355,12.418,3.474,15.152-0.813c1.996-3.253,4.508-7.243,11.16-7.688h0.148
	c1.256,0,2.217,0.961,3.104,1.922c0.443,0.443,1.184,1.256,1.479,1.256c0.961,0,2.587-1.256,4.73-3.769
	c0.222-0.222,0.443-0.519,0.666-0.813C498.66,31.35,499.398,31.276,499.842,31.646"/>
<path fill="#204E69" d="M160.625,25.314c-2.168-0.064-4.344-0.118-6.492-0.118c-0.474,0-5.003,0.105-5.635,0.105
	c-0.421,0-0.737,0.316-0.737,0.737c-0.105,1.791-0.159,3.581-0.21,5.32c-0.053,1.896-0.106,3.845-0.263,5.74h-2.212
	c-3.687,0-7.531,0.054-11.324,0.526c-0.369,0.054-0.685,0.369-0.685,0.737v0.736c-0.053,2.372-0.158,4.793-0.263,7.217
	c-2.845-0.105-5.478-0.159-8.164-0.159c-3.16,0-5.952,0.106-8.48,0.316c-0.422,0.054-0.685,0.369-0.737,0.736
	c-0.105,1.581-0.264,3.108-0.475,4.688c-0.104,0.79-0.158,1.79-0.263,2.317h1.58c0.053-0.527,0.158-1.37,0.263-2.106
	c0.159-1.37,0.316-2.739,0.422-4.108c2.317-0.158,4.845-0.211,7.69-0.211c2.897,0,5.74,0.105,8.901,0.159
	c0.421,0,0.895-0.317,0.947-0.739c0.159-2.685-0.104-5.37,0.422-8.004v-0.053c3.16-0.369,6.899-0.422,10.323-0.422
	c1,0,1.896,0,2.896-0.053c0.422,0,0.685-0.315,0.737-0.736c0.21-2.16,0.263-4.425,0.316-6.585c0.053-1.475,0.053-3.054,0.158-4.582
	c1.527-0.052,3.107-0.104,4.845-0.104c2.12,0,4.25,0.04,6.375,0.097C160.58,26.283,160.601,25.798,160.625,25.314z"/>
<path fill="#204E69" d="M345.511,25.314c2.169-0.064,4.345-0.118,6.492-0.118c0.475,0,5.004,0.105,5.636,0.105
	c0.421,0,0.737,0.316,0.737,0.737c0.105,1.791,0.158,3.581,0.21,5.32c0.053,1.896,0.106,3.845,0.263,5.74h2.213
	c3.688,0,7.531,0.054,11.324,0.526c0.368,0.054,0.684,0.369,0.684,0.737v0.736c0.054,2.372,0.158,4.793,0.264,7.217
	c2.845-0.105,5.478-0.159,8.164-0.159c3.16,0,5.951,0.106,8.479,0.316c0.422,0.054,0.685,0.369,0.737,0.736
	c0.105,1.581,0.264,3.108,0.475,4.688c0.104,0.79,0.157,1.79,0.263,2.317h-1.58c-0.054-0.527-0.158-1.37-0.263-2.106
	c-0.159-1.37-0.316-2.739-0.422-4.108c-2.317-0.158-4.846-0.211-7.69-0.211c-2.897,0-5.74,0.105-8.901,0.159
	c-0.42,0-0.895-0.317-0.947-0.739c-0.158-2.685,0.105-5.37-0.422-8.004v-0.053c-3.16-0.369-6.898-0.422-10.322-0.422
	c-1.001,0-1.896,0-2.896-0.053c-0.422,0-0.686-0.315-0.738-0.736c-0.21-2.16-0.263-4.425-0.315-6.585
	c-0.054-1.475-0.054-3.054-0.158-4.582c-1.527-0.052-3.106-0.104-4.845-0.104c-2.12,0-4.25,0.04-6.375,0.097
	C345.557,26.283,345.535,25.798,345.511,25.314z"/>
</svg>
