<?xml version="1.0" encoding="utf-8"?>
<!-- Generator: Adobe Illustrator 15.1.0, SVG Export Plug-In . SVG Version: 6.00 Build 0)  -->
<!DOCTYPE svg PUBLIC "-//W3C//DTD SVG 1.1//EN" "http://www.w3.org/Graphics/SVG/1.1/DTD/svg11.dtd">
<svg version="1.1" id="Layer_1" xmlns="http://www.w3.org/2000/svg" xmlns:xlink="http://www.w3.org/1999/xlink" x="0px" y="0px"
	 width="167.376px" height="149.646px" viewBox="0 0 167.376 149.646" enable-background="new 0 0 167.376 149.646"
	 xml:space="preserve">
<path fill="none" stroke="#204E69" stroke-width="5.1954" stroke-linecap="round" stroke-miterlimit="10" d="M128.114,138.389
	c0,4.563-3.708,8.263-8.271,8.263c-4.565,0-8.267-3.699-8.267-8.263c0-4.568,3.701-8.27,8.267-8.27
	C124.406,130.12,128.114,133.821,128.114,138.389z"/>
<path fill="none" stroke="#204E69" stroke-width="5.1954" stroke-linecap="round" stroke-miterlimit="10" d="M119.429,100.51
	c0,7.626-6.186,13.813-13.812,13.813c-7.632,0-13.813-6.187-13.813-13.813c0-7.627,6.181-13.813,13.813-13.813
	C113.244,86.697,119.429,92.883,119.429,100.51z"/>
<path fill="none" stroke="#204E69" stroke-width="5.1954" stroke-linecap="round" stroke-miterlimit="10" d="M125.142,39.782
	c0-7.79-4.917-14.414-11.806-16.994c-0.546-9.539-8.432-17.112-18.106-17.112c-6.756,0-12.63,3.693-15.764,9.164
	c-1.653-0.499-3.406-0.771-5.22-0.771c-10.029,0-18.158,8.131-18.158,18.159c0,3.375,0.937,6.524,2.54,9.232
	c-1.603,2.708-2.54,5.859-2.54,9.232c0,10.032,8.129,18.161,18.158,18.161c2.029,0,3.975-0.348,5.8-0.961
	c3.272,3.187,7.733,5.16,12.663,5.16c9.12,0,16.646-6.724,17.945-15.481C118.92,55.871,125.142,48.554,125.142,39.782z"/>
<g>
	<path fill="#204E69" d="M85.984,49.221l-0.101-1.306c-0.302-2.712,0.603-5.675,3.113-8.688c2.261-2.662,3.517-4.621,3.517-6.88
		c0-2.562-1.607-4.269-4.771-4.319c-1.809,0-3.817,0.603-5.073,1.557l-1.206-3.164c1.658-1.205,4.521-2.009,7.182-2.009
		c5.776,0,8.388,3.566,8.388,7.383c0,3.416-1.908,5.876-4.319,8.739c-2.209,2.611-3.014,4.821-2.862,7.383l0.05,1.306H85.984z
		 M84.879,56.252c0-1.858,1.255-3.164,3.013-3.164s2.964,1.306,2.964,3.164c0,1.758-1.156,3.114-3.014,3.114
		C86.084,59.366,84.879,58.011,84.879,56.252z"/>
</g>
</svg>
