<?xml version="1.0" encoding="utf-8"?>
<!-- Generator: Adobe Illustrator 15.1.0, SVG Export Plug-In . SVG Version: 6.00 Build 0)  -->
<!DOCTYPE svg PUBLIC "-//W3C//DTD SVG 1.1//EN" "http://www.w3.org/Graphics/SVG/1.1/DTD/svg11.dtd">
<svg version="1.1" id="Layer_1" xmlns="http://www.w3.org/2000/svg" xmlns:xlink="http://www.w3.org/1999/xlink" x="0px" y="0px"
	 width="167.376px" height="149.646px" viewBox="0 0 167.376 149.646" enable-background="new 0 0 167.376 149.646"
	 xml:space="preserve">
<path fill="none" stroke="#204E69" stroke-width="5.1954" stroke-linecap="round" stroke-miterlimit="10" d="M21.021,137.68
	c0,4.563-3.708,8.263-8.271,8.263c-4.565,0-8.266-3.699-8.266-8.263c0-4.568,3.701-8.27,8.266-8.27
	C17.313,129.411,21.021,133.112,21.021,137.68z"/>
<path fill="none" stroke="#204E69" stroke-width="5.1954" stroke-linecap="round" stroke-miterlimit="10" d="M56.436,110.404
	c0,7.626-6.186,13.813-13.812,13.813c-7.632,0-13.813-6.187-13.813-13.813c0-7.627,6.181-13.813,13.813-13.813
	C50.25,96.59,56.436,102.777,56.436,110.404z"/>
<path fill="none" stroke="#204E69" stroke-width="5.1954" stroke-linecap="round" stroke-miterlimit="10" d="M162.94,58.451
	c0-12.054-7.608-22.304-18.268-26.296c-0.844-14.761-13.046-26.479-28.017-26.479c-10.454,0-19.544,5.715-24.394,14.18
	c-2.558-0.771-5.271-1.192-8.077-1.192c-15.519,0-28.097,12.581-28.097,28.098c0,5.223,1.45,10.096,3.93,14.286
	c-2.479,4.19-3.93,9.065-3.93,14.286c0,15.523,12.578,28.101,28.097,28.101c3.141,0,6.151-0.538,8.976-1.487
	c5.063,4.931,11.966,7.983,19.595,7.983c14.111,0,25.759-10.404,27.768-23.955C153.314,83.347,162.94,72.024,162.94,58.451z"/>
<g>
	<path fill="#204E69" d="M102.348,73.057l-0.156-2.021c-0.466-4.196,0.933-8.782,4.818-13.444c3.497-4.119,5.44-7.149,5.44-10.646
		c0-3.963-2.487-6.606-7.383-6.684c-2.798,0-5.906,0.933-7.85,2.409l-1.865-4.896c2.565-1.865,6.995-3.108,11.113-3.108
		c8.938,0,12.979,5.518,12.979,11.424c0,5.285-2.953,9.092-6.684,13.522c-3.419,4.041-4.663,7.46-4.43,11.424l0.078,2.021H102.348z
		 M100.638,83.937c0-2.875,1.942-4.896,4.662-4.896c2.721,0,4.586,2.021,4.586,4.896c0,2.721-1.788,4.818-4.663,4.818
		C102.503,88.755,100.638,86.658,100.638,83.937z"/>
</g>
</svg>
