<?xml version="1.0" encoding="utf-8"?>
<!-- Generator: Adobe Illustrator 15.1.0, SVG Export Plug-In . SVG Version: 6.00 Build 0)  -->
<!DOCTYPE svg PUBLIC "-//W3C//DTD SVG 1.1//EN" "http://www.w3.org/Graphics/SVG/1.1/DTD/svg11.dtd">
<svg version="1.1" id="Layer_1" xmlns="http://www.w3.org/2000/svg" xmlns:xlink="http://www.w3.org/1999/xlink" x="0px" y="0px"
	 width="167.376px" height="149.646px" viewBox="0 0 167.376 149.646" enable-background="new 0 0 167.376 149.646"
	 xml:space="preserve">
<path fill="none" stroke="#204E69" stroke-width="5.1954" stroke-linecap="round" stroke-miterlimit="10" d="M152.953,138.389
	c0,4.563-3.708,8.263-8.271,8.263c-4.565,0-8.267-3.699-8.267-8.263c0-4.568,3.701-8.27,8.267-8.27
	C149.245,130.12,152.953,133.821,152.953,138.389z"/>
<path fill="none" stroke="#204E69" stroke-width="5.1954" stroke-linecap="round" stroke-miterlimit="10" d="M119.429,100.51
	c0,7.626-6.186,13.813-13.812,13.813c-7.632,0-13.813-6.187-13.813-13.813c0-7.627,6.181-13.813,13.813-13.813
	C113.244,86.697,119.429,92.883,119.429,100.51z"/>
<path fill="none" stroke="#204E69" stroke-width="6.3985" stroke-linecap="round" stroke-miterlimit="10" d="M89.361,47.68
	c0-9.594-6.056-17.752-14.54-20.93c-0.672-11.748-10.384-21.075-22.3-21.075c-8.32,0-15.555,4.549-19.415,11.286
	c-2.035-0.614-4.195-0.949-6.428-0.949c-12.352,0-22.363,10.014-22.363,22.364c0,4.157,1.154,8.036,3.127,11.371
	c-1.974,3.335-3.127,7.216-3.127,11.371c0,12.354,10.011,22.366,22.363,22.366c2.499,0,4.896-0.428,7.144-1.185
	c4.03,3.925,9.524,6.354,15.596,6.354c11.232,0,20.501-8.281,22.101-19.066C81.698,67.496,89.361,58.483,89.361,47.68z"/>
<g>
	<path fill="#204E69" d="M43.495,56.269l-0.129-1.676c-0.387-3.482,0.774-7.288,3.998-11.157c2.903-3.418,4.516-5.933,4.516-8.835
		c0-3.289-2.064-5.481-6.127-5.546c-2.322,0-4.901,0.773-6.514,1.999l-1.548-4.063c2.128-1.547,5.805-2.58,9.222-2.58
		c7.417,0,10.77,4.579,10.77,9.48c0,4.386-2.45,7.545-5.546,11.221c-2.836,3.353-3.87,6.19-3.675,9.48l0.063,1.676H43.495z
		 M42.076,65.297c0-2.387,1.612-4.063,3.869-4.063c2.257,0,3.806,1.676,3.806,4.063c0,2.257-1.485,3.998-3.87,3.998
		C43.624,69.295,42.076,67.555,42.076,65.297z"/>
</g>
</svg>
