<?xml version="1.0" encoding="utf-8"?>
<!-- Generator: Adobe Illustrator 19.0.0, SVG Export Plug-In . SVG Version: 6.00 Build 0)  -->
<svg version="1.1" id="Capa_1" xmlns="http://www.w3.org/2000/svg" xmlns:xlink="http://www.w3.org/1999/xlink" x="0px" y="0px"
	 viewBox="0 0 556 390.8" style="enable-background:new 0 0 556 390.8;" xml:space="preserve">
<style type="text/css">
	.st0{fill:#1386A5;}
	.st1{opacity:0.2;fill:#1B98C6;}
	.st2{fill:none;stroke:#1C4A65;stroke-width:8.8222;stroke-linecap:round;stroke-miterlimit:10;}
	.st3{fill:#D27D31;}
	.st4{opacity:0.3;fill:#D27D31;}
	.st5{fill:none;stroke:#1C4A65;stroke-width:8.8222;stroke-miterlimit:10;}
	.st6{fill:#FFFFFF;}
	.st7{fill:#DFDEE4;}
	.st8{fill:#1C4A65;}
	.st9{fill:#1B98C6;}
	.st10{fill:#1C4A65;stroke:#1C4A65;stroke-width:8.8222;stroke-linecap:round;stroke-miterlimit:10;}
	.st11{fill:none;stroke:#1C4A65;stroke-width:4.7526;stroke-linecap:round;stroke-miterlimit:10;}
	.st12{fill:#0B2938;}
</style>
<g id="XMLID_65_">
	<rect id="XMLID_22_" x="13" y="74.3" class="st0" width="344.7" height="57.1"/>
	<ellipse id="XMLID_21_" class="st1" cx="455.7" cy="363.3" rx="77" ry="23.5"/>
	<path id="XMLID_20_" class="st2" d="M446.3,129.8c-1.2,0.4-32.9,26.2-34.1,26.6c-1.2,0.4-63.1-100.1-63.1-100.1"/>
	<g id="XMLID_78_">
		<path id="XMLID_19_" class="st3" d="M494.7,117.5c6.7,11.9,17.1,16.8,24.9,48.9c3.1,12.6,3.8,24.1,0,43
			c-1.3,6.7-16.8,18.5-33.5,21.3c-8.8,1.5-19.3,0.6-33.8-1.5c-5.2-0.7-26.5-5.1-27.9-20.8c-1.1-11.9-5.2-24.5,0-43
			c4.4-15.6,9.2-22.9,28.7-50.9c19.3-27.8,17.8-27.3,17.8-27.3S487.8,105.3,494.7,117.5"/>
		<path id="XMLID_18_" class="st2" d="M481.1,356.7c0.5,3-2.4-56.7,2.9-125.7"/>
		<path id="XMLID_17_" class="st2" d="M439.9,358.2c0,0,6.5-80.2,14.7-125.7"/>
		<path id="XMLID_16_" class="st2" d="M492,122.9c-6.8-3.9,99.9,70.1,15.3,76.7c0,0-14.1,13.9,3.8,13.8"/>
		<path id="XMLID_15_" class="st4" d="M437.3,143.1c3.1-6.6,7.2-12.6,10.1-19.3c1.5-3.4,3.7-8.7,7.7-9.9c0.7-0.6,1.5-1.1,2.4-1.3
			c-1-0.5-1.9-1-2.9-1.5c-1.1-0.6-2.1-1.3-3.2-2.1c6.3,1.7,12.7,3.3,18.1,7.3c-0.7-0.1-1.5-0.2-2.2-0.4c1.4,1.7,2.3,3.9,2.3,6.5
			c0,7.1-3.7,13.4-7.3,19.2c-6.1,9.8-10.4,18-11.8,29.7c-1.2,10-0.2,20.7,2.1,30.5c1.8,7.6,8.8,12.3,10.2,19.9
			c1.4,7.9-5,8.1-11.1,6.6c-1.5,0.4-3.1,0.1-4-1.2c-1.8-0.6-3.3-1.3-4.3-1.8c-12.2-6-16.3-16.8-17.1-29.8
			C425.1,177.3,429.7,159.5,437.3,143.1"/>
		<path id="XMLID_14_" class="st5" d="M496.2,117.5c6.7,11.9,17.1,16.8,24.9,48.9c3.1,12.6,3.8,24.1,0,43
			c-1.3,6.7-16.8,18.5-33.5,21.3c-8.8,1.5-19.3,0.6-33.8-1.5c-5.3-0.7-26.5-5.1-27.9-20.8c-1.1-11.9-5.2-24.5,0-43
			c4.4-15.6,9.3-22.9,28.7-50.9c19.3-27.8,17.8-27.3,17.8-27.3S489.3,105.3,496.2,117.5z"/>
		<path id="XMLID_13_" class="st6" d="M422.8,61.2c-7.5,20.6,3.2,43.4,23.8,50.9c20.6,7.5,43.4-3.2,50.8-23.8
			c7.5-20.6-3.2-43.4-23.8-50.9C453.1,30,430.3,40.6,422.8,61.2"/>
		<path id="XMLID_12_" class="st7" d="M442.3,109.8c-3.1-2.5-6.2-4.9-9.1-7.6c0.2,0,0.4,0,0.6,0c-0.8-0.7-1.5-1.5-2.2-2.4
			c-8.5-9.6-15.7-27.6-5.4-37.6c11.3-11,17.2,12,19.5,18.4c2.5,6.9,8.2,12.3,14.8,15.3c1.8-0.2,3.1,0.4,4,1.5
			c7.9,2.2,16.6,1,22.7-5.2c2.7-2.7,6.3,0.6,5.7,3.7c3.3-0.3,5.9,4.1,2.9,6.3c-1.2,0.9-2.4,1.7-3.7,2.6c-1.7,2.9-4.9,4.7-8.2,5.9
			c-1,0.4-1.9,0.3-2.7,0c-0.3,0.7-0.9,1.2-1.7,1.4c-13,4.1-26.5,3.2-37.6-3.5C442.1,109,442.2,109.4,442.3,109.8"/>
		<path id="XMLID_11_" class="st5" d="M424.2,61.7c-7.5,20.6,3.2,43.4,23.8,50.9c20.6,7.5,43.4-3.2,50.8-23.8
			c7.5-20.6-3.2-43.4-23.8-50.8C454.5,30.5,431.7,41.1,424.2,61.7z"/>
		<path id="XMLID_10_" class="st2" d="M455.1,115c0,0-3.7,13.7,8.8,13.7c12.5,0,20.1-18.1,20.1-18.1"/>
		<g id="XMLID_79_">
			<path id="XMLID_9_" class="st8" d="M436.5,75.6c-1.1-0.1-2.1-0.3-3.1-0.5c0.6,2.1,2.4,3.6,4.6,3.6c2.5,0,4.4-1.9,4.7-4.2
				C441.1,75.3,438.9,75.7,436.5,75.6z"/>
			<path id="XMLID_8_" class="st8" d="M465,75.6c-1.1-0.1-2.1-0.3-3.1-0.5c0.6,2.1,2.4,3.6,4.6,3.6c2.5,0,4.4-1.9,4.7-4.2
				C469.6,75.3,467.4,75.7,465,75.6z"/>
		</g>
	</g>
	<g id="XMLID_73_">
		
			<ellipse id="XMLID_7_" transform="matrix(0.8887 -0.4584 0.4584 0.8887 -26.3405 233.7036)" class="st7" cx="468.2" cy="171.1" rx="35.5" ry="21.3"/>
		<g id="XMLID_74_">
			<path id="XMLID_75_" class="st9" d="M467.2,154.5h6.7v23.2c0,3.7-0.3,6.3-0.9,7.8c-0.6,1.5-1.6,2.7-2.9,3.6
				c-1.4,0.9-3,1.3-4.9,1.3c-3.9,0-7.1-1.7-9.8-5.1l4.8-4.5c1.1,1.2,2,2,2.7,2.4c0.7,0.4,1.5,0.6,2.2,0.6c0.7,0,1.2-0.3,1.6-0.9
				c0.3-0.6,0.5-1.9,0.5-4V154.5z"/>
		</g>
	</g>
	<path id="XMLID_5_" class="st10" d="M423.1,71.3c0-16.1-2.4-29.7-17.2-38.6c4.5-0.1,10.2,0.1,14.8,1.8c-7.1,0.2-17.4-6.9-20.2-13.8
		c8.5,8.7,16.2-0.1,24.2-2.1c7.7-2,14.9-5.3,23.2-5.4c10.1-0.1,19.2,1,28.7,4.1c3.4,1.1,7.7,3.5,11.2,3.4c5-0.2,9.2-4.3,14.7-3.9
		c-2.3,1.8-4.8,3.8-5.2,6.8c2.1,0.1,13.9-1.2,13.8,1.6c-0.1,1.7-7.7,4.6-9.4,6.8c8.2-1.7,6.1,19.9,6.4,25.2c0.4,8.8-1.2,18.4-5.4,26
		c-1.9-6.7-0.1-13.4-3.3-19.9c-2.9-5.7-6.4-9.6-10.5-14.3c-8.8-10.1-21.8-11.8-34.9-10.5c-4.5,0.5-9.4,0.7-13.5,2.8
		c-3.8,2-4.6,4.4-7,7.9c-3.5,5.3-10.8,13.3-8.3,20.3"/>
	<path id="XMLID_4_" class="st11" d="M445.4,95.2c0,0,5.2,6.5,14.3,4.8c9.1-1.7,13.3-11.4,13.3-11.4"/>
	<g id="XMLID_64_">
		<path id="XMLID_3_" class="st9" d="M356.6,45.6H13.7v32.2h341.8c0.3,0.2,0.7,0.3,1,0.3c3,0,5.5-7.3,5.5-16.3
			C362,52.9,359.6,45.6,356.6,45.6z"/>
		<g id="XMLID_63_">
			<path id="XMLID_2_" class="st8" d="M19.8,61.9c0,9-2.5,16.3-5.5,16.3c-3,0-5.5-7.3-5.5-16.3c0-9,2.5-16.3,5.5-16.3
				C17.4,45.6,19.8,52.9,19.8,61.9z"/>
			<ellipse id="XMLID_1_" class="st12" cx="14.4" cy="61.3" rx="3.3" ry="9.9"/>
		</g>
	</g>
</g>
</svg>
