<?xml version="1.0" encoding="utf-8"?>
<!-- Generator: Adobe Illustrator 19.0.0, SVG Export Plug-In . SVG Version: 6.00 Build 0)  -->
<svg version="1.1" id="Capa_1" xmlns="http://www.w3.org/2000/svg" xmlns:xlink="http://www.w3.org/1999/xlink" x="0px" y="0px"
	 viewBox="-460 261.7 38 38.3" style="enable-background:new -460 261.7 38 38.3;" xml:space="preserve">
<style type="text/css">
	.st0{fill:#04A7DB;}
	.st1{fill:#F7F6F6;}
</style>
<g id="XMLID_1093_">
	<path id="XMLID_1091_" class="st0" d="M-458.9,282.7c-1.1-11.4,8.4-20.9,19.7-19.7c8.4,0.8,15.2,7.6,16.1,16.1
		c1.1,11.4-8.4,20.9-19.7,19.7C-451.3,297.9-458.1,291.1-458.9,282.7z"/>
	<g id="XMLID_1094_">
		<path id="XMLID_1092_" class="st1" d="M-434.5,280.9l-11-8.2c-0.5-0.4-0.9-1-0.9-1.7c0-1.2,0.8-2.3,1.6-1.7l12.2,9.4
			c0.7,0.6,1.3,1,1.3,2.3c0,1.3-0.6,1.6-1.3,2.2l-12.2,9.4c-0.8,0.6-1.6-0.5-1.6-1.7c0-0.6,0.4-1.3,0.9-1.6L-434.5,280.9z"/>
	</g>
</g>
</svg>
