<?xml version="1.0" encoding="utf-8"?>
<!-- Generator: Adobe Illustrator 19.0.0, SVG Export Plug-In . SVG Version: 6.00 Build 0)  -->
<svg version="1.1" id="Capa_1" xmlns="http://www.w3.org/2000/svg" xmlns:xlink="http://www.w3.org/1999/xlink" x="0px" y="0px"
	 viewBox="-190.5 307 296.2 179" style="enable-background:new -190.5 307 296.2 179;" xml:space="preserve">
<style type="text/css">
	.st0{fill:#1D4B66;}
	.st1{fill:none;stroke:#1D4B66;stroke-width:2;stroke-linecap:round;stroke-linejoin:round;stroke-miterlimit:10;}
</style>
<g>
	<g>
		<path class="st0" d="M97.5,325.2v2.5c-3.5,0.9-5.9,4-5.9,7.8c0,3.7,2.5,6.9,5.9,7.8v1.6c-3.5,0.9-5.9,4-5.9,7.8
			c0,3.7,2.5,6.9,5.9,7.8v3.4c-15.7,1.4-27.8,14.5-27.8,30.5c0,16,12.1,29.1,27.8,30.5v4.4c-3.5,0.9-5.9,4-5.9,7.8
			c0,3.7,2.5,6.9,5.9,7.8v1.6c-3.5,0.9-5.9,4-5.9,7.8c0,3.7,2.5,6.9,5.9,7.8v3.1h-279.9v-3.1c3.5-0.9,6.1-4.1,6.1-7.8
			c0-3.8-2.6-6.9-6.1-7.8v-1.5c3.5-0.9,6.1-4.1,6.1-7.8c0-3.8-2.6-6.9-6.1-7.8V425c16-1,28.6-14.4,28.6-30.6
			c0-16.2-12.7-29.5-28.6-30.6v-3.3c3.5-0.9,6.1-4.1,6.1-7.8c0-3.8-2.6-6.9-6.1-7.8v-1.5c3.5-0.9,6.1-4.1,6.1-7.8
			c0-3.8-2.6-6.9-6.1-7.8v-2.5H97.5 M99.5,323.2h-283.9v6.2c3.4,0,6.1,2.7,6.1,6.1c0,3.4-2.7,6.1-6.1,6.1v5c3.4,0,6.1,2.7,6.1,6.1
			c0,3.4-2.7,6.1-6.1,6.1v7c15.8,0,28.6,12.8,28.6,28.6c0,15.8-12.8,28.6-28.6,28.6v8c3.4,0,6.1,2.7,6.1,6.1c0,3.4-2.7,6.1-6.1,6.1
			v5c3.4,0,6.1,2.7,6.1,6.1c0,3.4-2.7,6.1-6.1,6.1v6.8H99.5v-6.9c-3.3-0.1-5.9-2.8-5.9-6.1c0-3.3,2.7-6,5.9-6.1v-5
			c-3.3-0.1-5.9-2.8-5.9-6.1c0-3.3,2.7-6,5.9-6.1v-8c-15.4-0.4-27.8-13.1-27.8-28.6c0-15.5,12.4-28.2,27.8-28.6v-7
			c-3.3-0.1-5.9-2.8-5.9-6.1c0-3.3,2.7-6,5.9-6.1v-5c-3.3-0.1-5.9-2.8-5.9-6.1c0-3.3,2.7-6,5.9-6.1V323.2L99.5,323.2z"/>
	</g>
	<line class="st1" x1="-148" y1="367" x2="-148" y2="423.5"/>
	<line class="st1" x1="63.7" y1="367" x2="63.7" y2="423.5"/>
</g>
</svg>
