<?xml version="1.0" encoding="utf-8"?>
<!-- Generator: Adobe Illustrator 19.0.0, SVG Export Plug-In . SVG Version: 6.00 Build 0)  -->
<svg version="1.1" id="Capa_1" xmlns="http://www.w3.org/2000/svg" xmlns:xlink="http://www.w3.org/1999/xlink" x="0px" y="0px"
	 viewBox="-144 201.1 321.1 391.9" style="enable-background:new -144 201.1 321.1 391.9;" xml:space="preserve">
<style type="text/css">
	.st0{fill:#E0DFE6;}
	.st1{fill:none;stroke:#1F4D69;stroke-width:3;stroke-linecap:round;stroke-linejoin:round;stroke-miterlimit:10;}
	.st2{fill:none;stroke:#939393;stroke-width:9;stroke-linecap:round;stroke-linejoin:round;stroke-miterlimit:10;}
	.st3{fill:#1F4D69;stroke:#1F4D69;stroke-width:3;stroke-linecap:round;stroke-linejoin:round;stroke-miterlimit:10;}
	.st4{fill:#296684;stroke:#1F4D69;stroke-width:3;stroke-linecap:round;stroke-linejoin:round;stroke-miterlimit:10;}
	.st5{fill:#1F4D69;}
</style>
<g>
	<path class="st0" d="M-107.5,489.4c0,0,17-37.1,39.9-37.1s53.4,39.9,83,20c29.6-20-3.3-53,32.5-52.4c35.9,0.5,61.3-30.9,59.8-84.4
		s14.6-102,30.5-111v298.8h-245.7V489.4L-107.5,489.4z"/>
	<rect x="-107.5" y="224.5" class="st1" width="245.7" height="298.4"/>
	<line class="st2" x1="-51.4" y1="394.9" x2="82" y2="394.9"/>
	<line class="st2" x1="-67.7" y1="415" x2="98.3" y2="415"/>
	<line class="st2" x1="-31.6" y1="437.4" x2="62.3" y2="437.4"/>
	<line class="st2" x1="-44.8" y1="459.9" x2="75.5" y2="459.9"/>
	<line class="st2" x1="-31.6" y1="482.2" x2="62.3" y2="482.2"/>
	<polygon class="st3" points="15.3,523.4 138.2,523.4 76.8,551.4 15.3,579.4 -46.1,551.4 -107.5,523.4 	"/>
	<polygon class="st4" points="15.3,579.4 15.3,523.4 -107.5,523.4 	"/>
</g>
<g>
	<path class="st5" d="M-54.2,281.7h-13.4c-1.8,0-3.2-0.6-4.4-1.7c-1.1-1.1-1.7-2.5-1.7-3.9c0-1.3,0.6-2.5,1.8-3.8
		c1.2-1.3,2.6-1.9,4.3-1.9h39.1c1.6,0,3,0.6,4.3,1.7c1.3,1.1,1.9,2.5,1.9,4.1c0,1.5-0.6,2.8-1.8,3.9c-1.2,1.2-2.7,1.7-4.4,1.7H-42
		v62.1c0,1.5-0.6,2.8-1.8,4c-1.2,1.2-2.6,1.8-4.3,1.8c-1.7,0-3.1-0.6-4.3-1.8c-1.2-1.2-1.8-2.5-1.8-4V281.7z"/>
	<path class="st5" d="M1.5,275.7c-0.1,1.9-0.8,3.4-2.1,4.7c-1.3,1.3-3,1.9-4.9,1.9c-2,0-3.7-0.6-5-1.9c-1.3-1.3-2-2.8-2-4.6
		c0-1.8,0.7-3.4,2-4.7c1.3-1.3,3-1.9,5-1.9c1.9,0,3.6,0.7,4.9,1.9C0.8,272.4,1.5,274,1.5,275.7z M0.5,343.8c0,1.6-0.6,3-1.7,4
		s-2.6,1.6-4.3,1.6s-3.1-0.5-4.3-1.6s-1.7-2.4-1.7-4v-46.3c0-1.5,0.6-2.8,1.7-3.9s2.6-1.7,4.3-1.7s3.1,0.6,4.3,1.7s1.7,2.4,1.7,3.9
		V343.8z"/>
	<path class="st5" d="M40.2,349.3c-1.7,0-3.5-0.2-5.3-0.5c-1.8-0.3-3.7-0.9-5.7-1.7v19.6c0,1.6-0.5,2.9-1.6,3.9
		c-1,1.1-2.5,1.6-4.4,1.6c-1.9,0-3.4-0.6-4.4-1.7c-1-1.1-1.6-2.4-1.6-3.9v-58.5c0-1.6-0.1-2.8-0.3-3.8c-0.2-1-0.6-1.8-1.2-2.7
		c-0.4-0.4-0.6-0.9-0.8-1.3c-0.2-0.4-0.3-1-0.3-1.6c0-1.6,0.6-2.9,1.8-3.9c1.2-1,2.4-1.4,3.8-1.4c1.9,0,3.6,1,5.1,2.9
		c2.6-1.5,5.2-2.7,7.7-3.6c2.6-0.9,5.3-1.3,8.2-1.3c3,0,5.7,0.5,8.1,1.6c2.4,1,4.3,2.5,5.9,4.4c1.6,1.9,2.8,4.1,3.7,6.7
		c0.8,2.6,1.3,5.5,1.3,8.7v13.6c0,3.3-0.3,6.4-1,9.2c-0.7,2.8-1.8,5.2-3.3,7.2c-1.6,2-3.6,3.6-6.1,4.7
		C47.1,348.7,44,349.3,40.2,349.3z M29.2,337.3c1.7,0.7,3.4,1.1,5.2,1.4c1.7,0.3,3.2,0.4,4.5,0.4c3.4,0,5.8-1,7.2-3.1
		c1.4-2,2.1-5.2,2.1-9.6v-13.6c0-7.3-3-11-9-11c-1.6,0-3.2,0.3-4.9,0.8c-1.7,0.5-3.5,1.3-5.4,2.2c0.1,0.6,0.3,1.2,0.3,1.7
		c0.1,0.6,0.1,1.1,0.1,1.6V337.3z"/>
	<path class="st5" d="M70.4,308.3c0-5,1.6-9.1,4.9-12.1c3.3-3,8.2-4.5,14.7-4.5c1.6,0,3.4,0.1,5.3,0.4c1.9,0.3,3.6,0.7,5.2,1.3
		c1.6,0.6,2.9,1.4,3.9,2.4c1,1,1.6,2.4,1.6,4c0,1.5-0.4,2.6-1.3,3.4c-0.9,0.8-2.1,1.2-3.6,1.2c-0.9,0-1.7-0.1-2.4-0.4
		c-0.7-0.3-1.5-0.5-2.3-0.8c-0.8-0.3-1.7-0.6-2.7-0.8c-1-0.3-2.2-0.4-3.7-0.4c-0.7,0-1.5,0.1-2.4,0.2c-0.9,0.1-1.8,0.4-2.6,0.7
		c-0.8,0.4-1.5,0.9-2.1,1.6c-0.6,0.7-0.8,1.6-0.8,2.8c0,1.9,0.6,3.3,1.9,4.3c1.3,1,2.9,1.9,4.8,2.7c1.9,0.8,4,1.6,6.2,2.3
		c2.3,0.8,4.3,1.8,6.2,3.1c1.9,1.3,3.5,2.9,4.8,4.9c1.3,2,1.9,4.7,1.9,8c0,5.2-1.7,9.3-5.1,12.3c-3.4,3-8.4,4.5-15.1,4.5
		c-1.6,0-3.4-0.1-5.5-0.3c-2.1-0.2-4.1-0.6-5.9-1.2c-1.9-0.6-3.4-1.3-4.7-2.2s-1.9-2.1-1.9-3.6c0-0.5,0.1-1.1,0.3-1.9
		c0.2-0.7,0.5-1.4,1-2c0.5-0.6,1.1-1.1,1.9-1.4c0.8-0.3,1.8-0.4,3-0.1c1,0.2,2.6,0.7,4.7,1.4c2.1,0.7,4.3,1.1,6.7,1.1
		c2.5,0,4.6-0.6,6.3-1.7c1.7-1.1,2.6-2.7,2.6-4.7c0-1.7-0.7-3.1-1.9-4.1c-1.3-1-2.9-1.9-4.8-2.6s-4-1.5-6.2-2.2
		c-2.3-0.7-4.3-1.7-6.2-2.9c-1.9-1.3-3.5-2.9-4.8-4.9C71,314.1,70.4,311.5,70.4,308.3z"/>
</g>
</svg>
