<?xml version="1.0" encoding="utf-8"?>
<!-- Generator: Adobe Illustrator 19.0.0, SVG Export Plug-In . SVG Version: 6.00 Build 0)  -->
<svg version="1.1" id="Capa_1" xmlns="http://www.w3.org/2000/svg" xmlns:xlink="http://www.w3.org/1999/xlink" x="0px" y="0px"
	 viewBox="-153 322.9 147.7 50" style="enable-background:new -153 322.9 147.7 50;" xml:space="preserve">
<style type="text/css">
	.st0{fill:none;stroke:#7FFDFF;stroke-width:14.901;stroke-linecap:round;stroke-miterlimit:10;}
</style>
<path class="st0" d="M-137.3,361.3c-1.3-3.5,0.4-7.4,2.3-10.7c2.1-3.6,4.4-7.1,7-10.4c2.6-3.3,5.4-9.5,10-7.1
	c4.7,2.4-7,23.8-2.2,27.7c2.5,3.9,6.8-0.6,6.8-0.6s5-11.2,9-16.7s9-10.9,15.6-12.3c0.8-0.2,1.8-0.3,2.5,0.1c0.7,0.4,1.2,1.1,1.5,1.9
	c1.1,3,0.2,6.3-1.2,9.1c-1.4,2.8-3.2,5.5-4.1,8.5c-0.9,3-0.8,6.7,1.5,8.9c0.7,0.7,1.8,1.3,2.8,1c0.7-0.2,1.2-0.7,1.7-1.2
	c3.5-3.6,6.7-7.6,9.3-11.9c2.9-4.8,5.6-10.2,10.6-12.7c1.3-0.7,3.1-1,4.1,0.1c0.4,0.4,0.6,1,0.7,1.6c0.9,3.2,0.9,6.6,0,9.7
	c-1.4,5.5-5.3,10.2-5.8,15.9c0,0.5,0,1,0.2,1.4c0.5,1,1.9,1.1,3,0.8c6.2-1.3,10-7.5,12.9-13.2c2.9-5.7,6-16,12.3-13.9
	s4.3,5.1,2.6,9.1c-2.8,6.6-2.4,18.2,3,13c2.3-2.3,8.1-11.3,11-12.7"/>
</svg>
