<?xml version="1.0" encoding="utf-8"?>
<!-- Generator: Adobe Illustrator 15.1.0, SVG Export Plug-In . SVG Version: 6.00 Build 0)  -->
<!DOCTYPE svg PUBLIC "-//W3C//DTD SVG 1.1//EN" "http://www.w3.org/Graphics/SVG/1.1/DTD/svg11.dtd">
<svg version="1.1" id="Layer_1" xmlns="http://www.w3.org/2000/svg" xmlns:xlink="http://www.w3.org/1999/xlink" x="0px" y="0px"
	 width="122.826px" height="228.261px" viewBox="0 0 122.826 228.261" enable-background="new 0 0 122.826 228.261"
	 xml:space="preserve">
<g>
	<polygon fill="#FFFFFF" points="115.015,218.952 7.09,222.319 6.154,185.284 115.015,181.917 	"/>
	<polygon fill="#FFFFFF" points="115.015,218.952 7.09,222.319 6.154,185.284 115.015,181.917 	"/>
	<path fill="#1F4D69" d="M103.801,182.081c-0.313,0.537-0.877,0.835-1.455,0.835c-0.289,0-0.581-0.074-0.848-0.23
		c-1.485-0.868-3.259-1.922-5.249-3.134c-26.815,0.103-43.458,1.365-55.741,2.299c-7.167,0.545-13.014,0.988-18.908,1.09
		c-1.364,0.979-2.776,1.987-4.286,3.062c-0.295,0.211-0.635,0.311-0.972,0.311c0.947,0.012,1.87,0.017,2.772,0.017
		c6.894,0,13.405-0.494,21.649-1.121c12.754-0.969,30.221-2.297,58.977-2.297c4.813,0,9.754,0.043,14.713,0.13
		c0.194,5.161,0.222,10.31,0.222,14.737c0,1.612-0.005,3.226-0.008,4.837c-0.004,1.613-0.009,3.227-0.009,4.837
		c0,2.733,0.01,6.211,0.08,9.783c-34.587,0.341-68.527,1.504-105.944,2.884C8.406,207.714,8.025,197,7.492,186.087
		c3.275,0.121,6.165,0.195,8.841,0.225c-0.523-0.001-1.04-0.247-1.367-0.707c-0.538-0.757-0.362-1.809,0.396-2.348
		c0.154-0.109,0.295-0.21,0.447-0.318c-2.983-0.041-6.241-0.134-10.021-0.286c-0.477-0.031-0.931,0.161-1.264,0.497
		c-0.332,0.336-0.51,0.797-0.485,1.27c0.604,12.021,1.015,23.683,1.443,37.496c0.013,0.447,0.207,0.87,0.533,1.177
		c0.312,0.292,0.723,0.454,1.148,0.454c0.021,0,0.042,0,0.063-0.002c38.677-1.427,73.592-2.635,109.249-2.957
		c0.451-0.005,0.882-0.19,1.195-0.516c0.313-0.323,0.483-0.76,0.473-1.214c-0.106-4.116-0.118-8.258-0.118-11.406
		c0-1.608,0.004-3.218,0.008-4.828c0.004-1.614,0.009-3.23,0.009-4.846c0-4.915-0.034-10.719-0.289-16.467
		c-0.04-0.888-0.762-1.593-1.65-1.609c-4.465-0.085-8.903-0.127-13.278-0.144c0.12,0.071,0.255,0.151,0.372,0.221
		C103.999,180.248,104.27,181.278,103.801,182.081"/>
	<path fill="#E0DFE6" d="M55.312,37.071c5.045,2.122,10.884,0.709,14.253-3.619c0.574-0.737,0.847-1.497,0.905-2.223
		c1.679-2.087,2.834-4.627,3.548-7.219c0.499-1.814-2.152-3-3.077-1.296c-0.999,1.839-2.308,3.352-3.754,4.747
		c-0.854-0.041-1.784,0.229-2.681,0.933c-4.897,3.854-9.927,1.182-13.722-2.602c-0.546-0.543-1.574-0.315-1.759,0.465
		C47.926,30.907,51.105,35.301,55.312,37.071"/>
	<path fill="#FFFFFF" d="M16.214,186.671c-2.678-0.03-5.565-0.104-8.841-0.226c0.532,10.912,0.912,21.627,1.301,34.029
		c37.417-1.378,71.357-2.541,105.944-2.882c-0.07-3.572-0.08-7.05-0.08-9.783c0-1.61,0.004-3.224,0.009-4.837
		c0.003-1.611,0.008-3.225,0.008-4.837c0-4.428-0.027-9.576-0.222-14.738c-4.961-0.086-9.901-0.129-14.714-0.129
		c-28.756,0-46.223,1.328-58.977,2.297c-8.243,0.628-14.756,1.121-21.649,1.121C18.092,186.687,17.169,186.682,16.214,186.671
		 M93.801,191.735c0.427-0.07,0.851-0.106,1.264-0.106c3.452,0,8.774,3.664,8.774,8.532c0,5.346-4.177,9.531-9.509,9.531
		c-3.776,0-7.684-3.141-7.684-8.396C86.646,197.239,89.155,192.509,93.801,191.735 M60.604,192.926
		c1.012-0.677,2.314-1.047,3.666-1.047c4.972,0,10.114,3.553,10.114,9.5c0,4.166-3.247,9.936-9.346,9.936
		c-4.455,0-9.189-3.267-9.189-9.322C55.849,198.356,57.671,194.881,60.604,192.926 M24.946,193.791c0.933,0,1.889-0.144,2.813-0.281
		c0.92-0.137,1.87-0.279,2.798-0.279c2.247,0,7.355,3.034,7.355,8.035c0,5.633-4.733,10.215-10.552,10.215
		c-4.404,0-9.72-4.329-9.72-9.703C17.642,198.083,20.832,193.791,24.946,193.791"/>
	<path fill="#1F4D69" d="M27.361,211.48c5.818,0,10.552-4.582,10.552-10.215c0-5.001-5.108-8.035-7.355-8.035
		c-0.928,0-1.878,0.143-2.798,0.279c-0.925,0.138-1.881,0.281-2.813,0.281c-4.114,0-7.305,4.293-7.305,7.986
		C17.642,207.151,22.957,211.48,27.361,211.48 M24.946,197.158c1.184,0,2.313-0.17,3.312-0.319c0.835-0.124,1.622-0.242,2.287-0.243
		c0.676,0.046,4.001,1.747,4.001,4.67c0,4.288-3.652,6.848-7.185,6.848c-2.774,0-6.353-3.073-6.353-6.336
		C21.009,199.741,22.863,197.158,24.946,197.158"/>
	<path fill="#1F4D69" d="M65.038,211.315c6.099,0,9.346-5.77,9.346-9.936c0-5.947-5.143-9.5-10.114-9.5
		c-1.352,0-2.654,0.37-3.666,1.046c-2.933,1.956-4.755,5.431-4.755,9.067C55.849,208.049,60.582,211.315,65.038,211.315
		 M62.472,195.727c0.451-0.301,1.124-0.481,1.798-0.481c2.609,0,6.747,1.665,6.747,6.134c0,2.685-2.129,6.569-5.979,6.569
		c-2.805,0-5.822-1.863-5.822-5.956C59.216,199.505,60.493,197.045,62.472,195.727"/>
	<path fill="#1F4D69" d="M94.33,209.692c5.332,0,9.509-4.187,9.509-9.531c0-4.868-5.322-8.532-8.773-8.532
		c-0.414,0-0.839,0.036-1.264,0.106c-4.646,0.774-7.154,5.504-7.154,9.56C86.647,206.551,90.554,209.692,94.33,209.692
		 M94.356,195.055c0.241-0.039,0.48-0.06,0.709-0.06c1.78,0,5.406,2.391,5.406,5.165c0,3.03-2.297,6.165-6.142,6.165
		c-2.121,0-4.315-1.882-4.315-5.031C90.015,198.584,91.639,195.509,94.356,195.055"/>
	<path fill="#1F4D69" d="M60.252,31.751l-1.081,0.009c-0.597,0-1.178-0.062-1.745-0.162c-0.054,1.35-0.099,2.716-0.135,4.1
		c0.492,0.056,0.985,0.091,1.475,0.091c0.344,0,0.687-0.003,1.028-0.008c0.288-0.003,0.574-0.005,0.862-0.006
		c0.036-1.372,0.08-2.726,0.133-4.063C60.61,31.729,60.431,31.751,60.252,31.751"/>
	<g>
		<path fill="#1F4D69" d="M103.315,179.772c-0.117-0.069-0.252-0.149-0.373-0.221c-7.378-4.325-21.483-12.473-35.286-23.157
			c-0.517,0.947-1.206,1.866-2.063,2.659c11.317,8.762,22.673,16.098,30.537,20.888c1.989,1.212,3.7,2.025,5.186,2.894
			c0.268,0.156,1.148,0.031,1.438,0.031c0.577,0,1.28,0.225,1.594-0.313C104.816,181.75,104.117,180.241,103.315,179.772z"/>
		<path fill="#1F4D69" d="M65.593,159.022c0.857-0.793,1.547-1.712,2.063-2.659c0.784-1.436,1.182-2.921,1.182-4.083
			c0-2.247-1.527-5.134-3.271-6.178c-1.158-0.696-2.414-1.211-3.939-1.608c-0.503-25.016-1.088-89.652-1.088-99.805
			c0-1.905,0.019-3.74,0.048-5.546c-0.251,0-0.502,0.002-0.754,0.006c-0.355,0.003-0.713,0.007-1.068,0.007
			c-0.521,0-1.035-0.03-1.545-0.075c-0.028,1.827-0.047,3.681-0.047,5.608c0,10.084,0.577,73.883,1.078,99.353
			c0.024,1.216,0.048,2.34,0.072,3.37c0.059,2.586,0.115,4.57,0.17,5.773c0.041,0.902,0.786,1.606,1.681,1.606
			c0.024,0,0.051-0.001,0.077-0.002c0.929-0.042,1.647-0.829,1.604-1.758c-0.049-1.081-0.101-2.788-0.152-5.001
			c0.795,0.264,1.494,0.575,2.132,0.958c0.676,0.405,1.635,2.177,1.635,3.291c0,1.581-1.815,5.742-5.905,5.742
			c-2.84,0-4.818-2.551-4.818-4.841c0-1.287,1.12-5.375,3.576-5.77c-0.023-1.03-0.047-2.154-0.071-3.37
			c-4.879,0.369-6.872,6.521-6.872,9.14c0,1.025,0.223,2.068,0.635,3.053c0.167,0.398,0.374,0.782,0.603,1.155
			c-13.538,10.351-30.046,21.362-37.15,25.527c-0.121,0.071-0.256,0.151-0.373,0.221c-0.802,0.469-1.073,1.499-0.604,2.302
			c0.313,0.537,1.467,0.958,2.044,0.958c0.289,0,0.732-0.188,1-0.344c1.485-0.868,2.517-1.932,4.506-3.144
			c7.563-4.606,21.724-14.49,32.864-23.034c1.281,0.929,2.857,1.513,4.661,1.513C62.094,161.388,64.097,160.403,65.593,159.022z"/>
	</g>
	<path fill="#1F4D69" d="M77.569,21.3c0-3.426-1.173-6.696-3.181-9.368c-0.678-0.901-1.448-1.733-2.306-2.479
		c-1.388-1.208-2.988-2.198-4.765-2.88c-2.157-0.831-4.261-1.021-6.294-1.208c-0.642-0.057-1.279-0.116-1.918-0.195
		c-0.597-0.075-1.199-0.112-1.79-0.112c-9.375,0-15.673,9.04-15.673,17.481c0,8.657,6.858,15.78,15.577,16.542
		c0.51,0.045,1.023,0.075,1.545,0.075c0.355,0,0.713-0.004,1.068-0.007c0.252-0.003,0.503-0.006,0.754-0.006
		c0.087-0.001,0.176-0.002,0.264-0.002c5.522,0,11.759-5.037,14.815-10.908c0.588-1.128,1.059-2.283,1.382-3.445
		C77.375,23.617,77.569,22.445,77.569,21.3 M60.852,35.774c-0.064,0-0.13,0-0.195,0.001c-0.287,0.001-0.574,0.003-0.862,0.006
		c-0.342,0.004-0.685,0.008-1.028,0.008c-0.489,0-0.982-0.035-1.475-0.091c-6.158-0.685-12.28-5.581-12.28-13.159
		c0-6.676,5.055-14.114,12.306-14.114c0.452,0,0.914,0.029,1.373,0.085c0.674,0.084,1.352,0.147,2.029,0.208
		c1.889,0.172,3.671,0.334,5.392,0.995c4.84,1.863,8.093,6.519,8.093,11.586C74.203,27.523,66.591,35.774,60.852,35.774"/>
	<path fill="#1F4D69" d="M60.252,31.751c0.179,0,0.358-0.023,0.538-0.04c4.291-0.405,8.942-5.51,8.942-10.023
		c0-3.678-2.346-7.054-5.836-8.395c-1.225-0.47-2.425-0.579-3.481-0.675c-0.324-0.031-0.646-0.059-0.968-0.099
		c-5.875-0.736-9.968,4.741-9.968,9.811c0,4.619,3.433,8.465,7.946,9.268c0.567,0.101,1.148,0.162,1.745,0.162L60.252,31.751z
		 M52.847,22.331c0-3.079,2.288-6.51,5.572-6.51c0.199,0,0.404,0.013,0.61,0.039c0.359,0.044,0.719,0.078,1.08,0.111
		c0.922,0.084,1.792,0.163,2.579,0.466c2.201,0.846,3.677,2.957,3.677,5.252c0,2.816-3.542,6.697-6.113,6.697l-1.081,0.008
		C56.129,28.394,52.847,26.076,52.847,22.331"/>
</g>
</svg>
