<?xml version="1.0" encoding="utf-8"?>
<!-- Generator: Adobe Illustrator 19.0.0, SVG Export Plug-In . SVG Version: 6.00 Build 0)  -->
<svg version="1.1" id="Capa_1" xmlns="http://www.w3.org/2000/svg" xmlns:xlink="http://www.w3.org/1999/xlink" x="0px" y="0px"
	 viewBox="0 0 65.8 44.8" style="enable-background:new 0 0 65.8 44.8;" xml:space="preserve">
<style type="text/css">
	.st0{opacity:0.7;}
	.st1{fill:#D8D4E8;}
	.st2{fill:#1D4B66;stroke:#1D4B66;stroke-width:0.1675;stroke-miterlimit:10;}
	.st3{fill:#F8F7F8;stroke:#1D4B66;stroke-width:0.1675;stroke-miterlimit:10;}
	.st4{fill:#1D4B66;stroke:#1D4B66;stroke-width:0.128;stroke-miterlimit:10;}
	.st5{fill:#D8D8DC;}
</style>
<g>
	<g class="st0">
		
			<ellipse id="XMLID_114_" transform="matrix(0.9824 -0.1869 0.1869 0.9824 -3.6018 6.5367)" class="st1" cx="32.9" cy="22.4" rx="30.7" ry="19.1"/>
	</g>
	<g>
		<g>
			<g>
				<rect id="XMLID_113_" x="3" y="5.6" class="st2" width="36.6" height="27.8"/>
				<rect id="XMLID_112_" x="5.3" y="8" class="st3" width="31.9" height="20.7"/>
				<circle id="XMLID_111_" class="st3" cx="21.3" cy="30.7" r="1"/>
			</g>
			<polygon id="XMLID_110_" class="st4" points="23.7,38 23.7,35.1 18.3,35.1 18.3,38 13.6,38 13.6,39.3 28.9,39.3 28.9,38 			"/>
		</g>
		<path id="XMLID_109_" class="st5" d="M5.6,8.3l0,20.1c0,0,3.9-6.5,10.1-9.9C21.9,15,36.8,8.2,36.8,8.2L5.6,8.3z"/>
	</g>
	<g>
		<g>
			<rect id="XMLID_108_" x="42" y="21.6" class="st2" width="9.3" height="15.1"/>
			<rect id="XMLID_107_" x="42.9" y="22.1" class="st3" width="7.4" height="12.7"/>
			<circle id="XMLID_106_" class="st3" cx="46.7" cy="35.7" r="0.6"/>
		</g>
		<path id="XMLID_105_" class="st5" d="M43.1,22.3v12.3l7,0c0,0-3.8-1.2-3.6-3.4c0.3-2.2,0.2-4.1-0.3-5.4c-0.5-1.3-2.5-3.4-2.5-3.4"
			/>
	</g>
</g>
</svg>
