<?xml version="1.0" encoding="utf-8"?>
<!-- Generator: Adobe Illustrator 19.0.0, SVG Export Plug-In . SVG Version: 6.00 Build 0)  -->
<svg version="1.1" id="Capa_1" xmlns="http://www.w3.org/2000/svg" xmlns:xlink="http://www.w3.org/1999/xlink" x="0px" y="0px"
	 viewBox="0 0 55.1 47.1" style="enable-background:new 0 0 55.1 47.1;" xml:space="preserve">
<style type="text/css">
	.st0{fill:#1F4D69;}
</style>
<path id="XMLID_2_" class="st0" d="M50.2,10.6c2.4-2.5,4-5.2,4.3-7.2c0.1-0.7,0-1.2-0.2-1.6c0,0-0.1-0.2-0.2-0.3
	c-0.1-0.1-0.2-0.2-0.2-0.2c-0.4-0.3-0.9-0.5-1.5-0.6c-2-0.3-5,0.6-8,2.3c-2.4,1.4-4.9,3.4-8.4,6.3c-0.6,0.5-1.2,1-1.9,1.5l-5.7-2.5
	l0,0c0.3-0.2,0.5-0.5,0.5-0.9c0-0.4-0.1-0.7-0.3-1l-0.9-1.2c-0.2-0.3-0.5-0.5-0.9-0.5c-0.4,0-0.7,0.1-1,0.3l-1.8,1.4L23,5.9
	c0.2-0.2,0.3-0.5,0.4-0.8c0-0.4,0-0.7-0.3-1l-0.9-1.2c-0.2-0.3-0.5-0.5-0.9-0.5c-0.4,0-0.7,0-1,0.3l-1.7,1.3l-5.8-2.6
	c-0.1-0.1-0.3-0.1-0.4-0.1c-0.4-0.1-0.9,0.1-1.2,0.3L8.8,3.4C8.5,3.6,8.4,3.9,8.3,4.2C8.3,4.7,8.5,5.2,8.8,5.4l11.8,8.7
	c0.1,0,0.2,0.2,0.3,0.3l3.2,4.1c-3.9,3.1-7.3,6.2-10.1,8.9c-0.3,0.3-0.5,0.5-0.7,0.7L3.6,26c0,0-0.1,0-0.2,0c-0.4,0-0.9,0.1-1.3,0.3
	L1,27.2c-0.3,0.2-0.5,0.5-0.5,0.8c-0.1,0.5,0.2,1,0.6,1.2l6.5,4.2c0.1,0,0.2,0.2,0.2,0.2l0.5,0.6c-0.2,0.5-0.4,0.9-0.4,1.3
	c-0.1,0.5,0,1,0.3,1.3l0,0l0,0c0.3,0.4,0.7,0.6,1.2,0.6c0.4,0,0.8,0,1.4-0.1l0.5,0.7c0,0.1,0.1,0.2,0.1,0.3l2.4,7.3
	c0.1,0.5,0.5,0.8,1,0.9l0,0c0.3,0,0.7-0.1,0.9-0.3l1.1-0.9c0.3-0.3,0.6-0.7,0.6-1.2c0-0.1,0-0.1,0-0.1l0.4-10
	c0.3-0.2,0.6-0.3,0.9-0.5c3.3-2,7.2-4.6,11.2-7.5l3.2,4.1c0,0.1,0.2,0.3,0.2,0.3l5.5,13.6c0.2,0.4,0.5,0.7,1,0.8
	c0.3,0,0.7,0,0.9-0.3l2.4-1.9c0.3-0.3,0.5-0.6,0.6-1.1c0-0.1,0-0.3,0-0.4l-1-6.3l1.7-1.3c0.3-0.2,0.5-0.5,0.5-0.9
	c0-0.4-0.1-0.7-0.3-1l-0.9-1.2c-0.2-0.3-0.5-0.5-0.9-0.5c-0.3,0-0.6,0-0.9,0.2l-0.1-0.9l1.8-1.4c0.3-0.2,0.5-0.5,0.5-0.9
	c0-0.4,0-0.7-0.3-1L43,25c-0.2-0.3-0.5-0.5-0.9-0.5c-0.4,0-0.7,0.1-1,0.3l0,0l-1-6.2c0.7-0.5,1.3-1,2-1.4
	C45.6,14.5,48.2,12.6,50.2,10.6"/>
</svg>
