<?xml version="1.0" encoding="utf-8"?>
<!-- Generator: Adobe Illustrator 19.0.0, SVG Export Plug-In . SVG Version: 6.00 Build 0)  -->
<svg version="1.1" id="Capa_1" xmlns="http://www.w3.org/2000/svg" xmlns:xlink="http://www.w3.org/1999/xlink" x="0px" y="0px"
	 viewBox="-264 399.1 65.8 44.8" style="enable-background:new -264 399.1 65.8 44.8;" xml:space="preserve">
<style type="text/css">
	.st0{opacity:0.7;}
	.st1{fill:#D7D3E8;}
	.st2{fill:#1C4A65;}
	.st3{fill:#DFDEE4;}
</style>
<g>
	<g class="st0">
		
			<ellipse transform="matrix(0.9824 -0.1869 0.1869 0.9824 -83.1103 -35.7313)" class="st1" cx="-231.1" cy="423" rx="30.7" ry="19.1"/>
	</g>
	<g>
		<path class="st2" d="M-229.9,437.9c0,0.9-0.7,1.6-1.6,1.6l0,0c-0.9,0-1.6-0.7-1.6-1.6v-33.9c0-0.9,0.7-1.6,1.6-1.6l0,0
			c0.9,0,1.6,0.7,1.6,1.6V437.9z"/>
		<path class="st2" d="M-222.8,440c0,0.8-0.6,1.4-1.4,1.4h-14.6c-0.8,0-1.4-0.6-1.4-1.4l0,0c0-0.8,0.6-1.4,1.4-1.4h14.6
			C-223.4,438.6-222.8,439.3-222.8,440L-222.8,440z"/>
		<path class="st2" d="M-227,439.6c0-0.1,0-0.2,0-0.3c0-2.5-2-4.5-4.5-4.5c-2.5,0-4.5,2-4.5,4.5c0,0.1,0,0.2,0,0.3H-227z"/>
		<circle class="st2" cx="-231.5" cy="403.6" r="3.3"/>
		<circle class="st3" cx="-231.5" cy="403.6" r="1.7"/>
	</g>
</g>
</svg>
