<?xml version="1.0" encoding="utf-8"?>
<!-- Generator: Adobe Illustrator 19.0.0, SVG Export Plug-In . SVG Version: 6.00 Build 0)  -->
<svg version="1.1" id="Capa_1" xmlns="http://www.w3.org/2000/svg" xmlns:xlink="http://www.w3.org/1999/xlink" x="0px" y="0px"
	 viewBox="-264 399.1 65.8 44.8" style="enable-background:new -264 399.1 65.8 44.8;" xml:space="preserve">
<style type="text/css">
	.st0{fill:#1C4A65;}
	.st1{fill:none;stroke:#1C4A65;stroke-width:0.8805;stroke-linecap:round;stroke-miterlimit:10;}
	.st2{fill:none;stroke:#1C4A65;stroke-width:1.0153;stroke-linecap:round;stroke-miterlimit:10;}
</style>
<g>
	<g>
		<path class="st0" d="M-251.9,427.4c0.4,2.3,2.4,4.1,4.9,4.1c2.4,0,4.5-1.8,4.9-4.1H-251.9z"/>
		<path class="st1" d="M-251.8,427.5c0,0,3.4-16.9,4.7-15.8c1.4,1.1,4.7,15.9,4.7,15.9"/>
		<path class="st0" d="M-241.7,427.7c0,0.3-0.3,0.6-0.6,0.6h-9.8c-0.3,0-0.6-0.3-0.6-0.6l0,0c0-0.3,0.3-0.6,0.6-0.6h9.8
			C-241.9,427.1-241.7,427.3-241.7,427.7L-241.7,427.7z"/>
	</g>
	<g>
		<path class="st0" d="M-219.8,427.4c0.4,2.3,2.4,4.1,4.9,4.1c2.4,0,4.5-1.8,4.9-4.1H-219.8z"/>
		<path class="st1" d="M-219.6,427.5c0,0,3.5-17,4.9-16c1.4,1.1,4.6,16,4.6,16"/>
		<path class="st0" d="M-209.5,427.7c0,0.3-0.3,0.6-0.6,0.6h-9.8c-0.3,0-0.6-0.3-0.6-0.6l0,0c0-0.3,0.3-0.6,0.6-0.6h9.8
			C-209.8,427.1-209.5,427.3-209.5,427.7L-209.5,427.7z"/>
	</g>
	<line class="st2" x1="-246.9" y1="411.5" x2="-214.8" y2="411.5"/>
</g>
</svg>
