<?xml version="1.0" encoding="utf-8"?>
<!-- Generator: Adobe Illustrator 19.0.0, SVG Export Plug-In . SVG Version: 6.00 Build 0)  -->
<svg version="1.1" id="Capa_1" xmlns="http://www.w3.org/2000/svg" xmlns:xlink="http://www.w3.org/1999/xlink" x="0px" y="0px"
	 viewBox="-264 399.1 65.8 44.8" style="enable-background:new -264 399.1 65.8 44.8;" xml:space="preserve">
<style type="text/css">
	.st0{opacity:0.7;}
	.st1{fill:#D7D3E8;}
	.st2{fill:#FFFFFF;stroke:#1C4A65;stroke-width:0.8805;stroke-miterlimit:10;}
	.st3{fill:#FFFFFF;stroke:#1C4A65;stroke-width:0.6815;stroke-miterlimit:10;}
	.st4{fill:#1C4A65;stroke:#1C4A65;stroke-width:0.6815;stroke-miterlimit:10;}
	.st5{fill:#F7F7F8;stroke:#1C4A65;stroke-width:0.2759;stroke-miterlimit:10;}
	.st6{fill:#1C4A65;stroke:#1C4A65;stroke-width:0.2759;stroke-miterlimit:10;}
</style>
<g>
	<g class="st0">
		
			<ellipse transform="matrix(0.9824 -0.1869 0.1869 0.9824 -82.8272 -35.7585)" class="st1" cx="-231.1" cy="421.5" rx="30.7" ry="19.1"/>
	</g>
	<path class="st2" d="M-202.1,427.9c0,3.8-3.1,6.8-6.8,6.8h-45.3c-3.8,0-6.8-3.1-6.8-6.8l0,0c0-3.8,3.1-6.8,6.8-6.8h45.3
		C-205.1,421.1-202.1,424.1-202.1,427.9L-202.1,427.9z"/>
	<path class="st3" d="M-206.2,427.9c0,2.6-2.7,4.7-6,4.7h-39.5c-3.3,0-6-2.1-6-4.7l0,0c0-2.6,2.7-4.7,6-4.7h39.5
		C-208.9,423.2-206.2,425.3-206.2,427.9L-206.2,427.9z"/>
	<circle class="st4" cx="-253.5" cy="427.9" r="4.3"/>
	<circle class="st5" cx="-253.5" cy="427.9" r="1.7"/>
	<circle class="st4" cx="-210.1" cy="427.8" r="4.3"/>
	<circle class="st5" cx="-210.1" cy="427.8" r="1.7"/>
	<g>
		<circle class="st6" cx="-245.5" cy="428" r="2.3"/>
		<circle class="st6" cx="-236.6" cy="428" r="2.3"/>
		<circle class="st6" cx="-227.8" cy="428" r="2.3"/>
		<circle class="st6" cx="-219" cy="428" r="2.3"/>
	</g>
	<rect x="-249.2" y="427.9" class="st6" width="34.9" height="0.9"/>
</g>
</svg>
