<?xml version="1.0" encoding="utf-8"?>
<!-- Generator: Adobe Illustrator 19.0.0, SVG Export Plug-In . SVG Version: 6.00 Build 0)  -->
<svg version="1.1" id="Capa_1" xmlns="http://www.w3.org/2000/svg" xmlns:xlink="http://www.w3.org/1999/xlink" x="0px" y="0px"
	 viewBox="-421 211.8 115.6 138.2" style="enable-background:new -421 211.8 115.6 138.2;" xml:space="preserve">
<style type="text/css">
	.st0{fill:#FA8510;}
	.st1{fill:none;stroke:#1F4D69;stroke-width:3.1345;stroke-linecap:round;stroke-miterlimit:10;}
	.st2{fill:#D2D9DB;}
</style>
<path id="XMLID_861_" class="st0" d="M-261.1,282.5c15.7-6.1,31.6-14.5,45.2-24.7c0.4,0.1,0.8,0.2,1.2,0.2
	c16.1,2.6,17.6-19.8,1.5-22.2c-15.4-2.3-24.8-8.8-39.4-14c-5.3-1.9-13-3.4-15.6-0.3c-1.5-3.3-6.6-2.2-7.8,1
	c-5.4,14.4,4.3,32.1,1.7,46.6C-275.7,276.5-269.6,285.8-261.1,282.5z M-248.7,250.2c-4.1,2.3-8.3,4.5-12.3,6.9
	C-262.6,253-252.3,248.9-248.7,250.2z"/>
<path id="XMLID_858_" class="st1" d="M-264.8,333.4l-5.1-47.8c0,0-9.2-67.2-7.3-68.5c10.5-6.9,81.4,24.3,81.4,29.8
	c0,4.7-58.1,31.2-70.8,40"/>
<path id="XMLID_860_" class="st2" d="M-340.2,330.9c1.2-4.9-0.6-10.7-6.9-12.6c-4.5-1.3-9.3-2.5-14.3-3.2
	c-11.1-4.6-23.7-3.8-33.2,3.1c-2,0.9-4,2-5.8,3.2c-5,1.1-8.9,4.5-8.9,10.1c0,6,2.7,9.6,6.9,12.2c0.4,0.4,0.9,0.7,1.5,1.1
	c0.7,0.4,1.6,0.8,2.4,1c0.1,0,0.2,0.1,0.3,0.1c5.7,2.5,11.5,3.7,17.7,3.9c5.4,0.2,11-0.6,16.2-2.5c5.9-0.5,11.7-1.7,17.2-3.7
	C-340.9,341.5-338.8,335.7-340.2,330.9z"/>
<path id="XMLID_857_" class="st1" d="M-361.3,312c0,0-52.3-13.1-55,17.4c-2.7,30.5,123.2,18.5,81.7-7.1"/>
</svg>
