<?xml version="1.0" encoding="utf-8"?>
<!-- Generator: Adobe Illustrator 16.0.0, SVG Export Plug-In . SVG Version: 6.00 Build 0)  -->
<!DOCTYPE svg PUBLIC "-//W3C//DTD SVG 1.1//EN" "http://www.w3.org/Graphics/SVG/1.1/DTD/svg11.dtd">
<svg version="1.1" id="Capa_1" xmlns="http://www.w3.org/2000/svg" xmlns:xlink="http://www.w3.org/1999/xlink" x="0px" y="0px"
	 width="59px" height="58.25px" viewBox="0 0 59 58.25" enable-background="new 0 0 59 58.25" xml:space="preserve">
<circle fill="none" stroke="#1D4B66" stroke-width="2" stroke-linecap="round" stroke-miterlimit="10" cx="30.292" cy="29.661" r="26.051"/>
<g>
	<path fill="#2BB673" d="M21.36,7.185l0.815,27.877l10.842,0.24l-0.089-6.578c0,0-2.295-4.951-1.163-5.136
		c1.13-0.186,1.556,0.853,1.556,0.853l1.5-16.132"/>
	<path fill="none" stroke="#1D4B66" stroke-width="1.3733" stroke-linecap="round" stroke-miterlimit="10" d="M23.734,35.41
		c0,0,1.95,5.139,5.521,5.388c3.57,0.25,7.157-2.353,7.725-4.928c0.569-2.575,0.215-6.897,0.215-6.897s-4.461-6.696-5.572-5.167
		c-1.111,1.53,1.304,4.918,1.304,4.918l0.089,6.578L23.734,35.41z"/>
	<path fill="none" stroke="#1D4B66" stroke-width="1.3733" stroke-linecap="round" stroke-miterlimit="10" d="M33.364,23.959
		c-0.22-0.049,1.456-15.651,1.456-15.651L20.835,6.991l0.7,28.243l4.723,0.272"/>
	<path fill="none" stroke="#1D4B66" stroke-width="1.3733" stroke-linecap="round" stroke-miterlimit="10" d="M21.295,26.538
		c0,0-4.835,0.937-3.361,2.651c1.471,1.716,2.885,0.562,2.885,0.562l0.156,1.037c0,0-4.021,0.037-3.015,1.417
		c1.008,1.379,3.353,0.896,3.353,0.896"/>
	
		<ellipse transform="matrix(0.9764 0.216 -0.216 0.9764 5.2332 -5.4288)" fill="#1D4B66" cx="27.45" cy="21.224" rx="4.332" ry="4.634"/>
	<polyline fill="#1D4B66" points="34.942,8.799 34.333,11.905 30.953,7.994 24.016,7.617 20.799,10.995 20.835,6.991 	"/>
	<path fill="#1D4B66" d="M21.547,32.38l3.044,2.988l5.705,0.026c0,0,2.464-3.467,2.415-3.247c-0.048,0.22,0.307,3.153,0.307,3.153
		l-11.482-0.068"/>
	
		<text transform="matrix(-0.0995 0.995 -0.995 -0.0995 26.2686 16.8516)" fill="#FFFFFF" font-family="'MyriadPro-Bold'" font-size="5.0603">100</text>
	
		<line fill="none" stroke="#1D4B66" stroke-width="1.3733" stroke-linecap="round" stroke-miterlimit="10" x1="30.932" y1="40.805" x2="31.492" y2="44.989"/>
	<polygon fill="#EE2A7B" stroke="#1D4B66" stroke-width="1.3733" stroke-linecap="round" stroke-miterlimit="10" points="
		27.969,45.382 35.503,44.861 37.246,52.508 28.225,52.699 	"/>
</g>
</svg>
