<svg id="Capa_1" data-name="Capa 1" xmlns="http://www.w3.org/2000/svg" viewBox="0 0 36 36"><defs><style>.cls-1{fill:#fa8510;}.cls-2{fill:#f7f6f6;}</style></defs><title>btn_cerrar</title><circle id="_Trazado_" data-name="&lt;Trazado&gt;" class="cls-1" cx="18" cy="18" r="18"/><g id="_Grupo_" data-name="&lt;Grupo&gt;"><path id="_Trazado_2" data-name="&lt;Trazado&gt;" class="cls-2" d="M-431.3,286.9a1.86,1.86,0,0,1,.4,1.1,2.35,2.35,0,0,1-2.6,2.3,2.36,2.36,0,0,1-2.3-1.3c-1.3-1.8-1.9-2.6-3.3-4.5-1.1,1.6-2.3,3.1-3.4,4.7a2.61,2.61,0,0,1-2.1,1.1,2.4,2.4,0,0,1-2.6-2.3,1.5,1.5,0,0,1,.4-1.1c1.7-2.3,3.1-4.1,4.8-6.4-1.5-2-3-3.8-4.4-5.9a1.75,1.75,0,0,1-.4-1.2,2.44,2.44,0,0,1,2.5-2.3,2.91,2.91,0,0,1,2.5,1.6l2.8,3.8,3-4.1a2.53,2.53,0,0,1,2.3-1.3,2.5,2.5,0,0,1,2.5,2.2,2.13,2.13,0,0,1-.4,1.2l-4.4,5.9Z" transform="translate(457.1 -263)"/></g></svg>