<?xml version="1.0" encoding="utf-8"?>
<!-- Generator: Adobe Illustrator 19.0.0, SVG Export Plug-In . SVG Version: 6.00 Build 0)  -->
<svg version="1.1" id="Capa_1" xmlns="http://www.w3.org/2000/svg" xmlns:xlink="http://www.w3.org/1999/xlink" x="0px" y="0px"
	 viewBox="206 348.3 1024 97.7" style="enable-background:new 206 348.3 1024 97.7;" xml:space="preserve">
<style type="text/css">
	.st0{fill:#FFFFFF;}
	.st1{fill:#0D004C;}
	.st2{fill:#FA8510;}
	.st3{fill:none;stroke:#374D99;stroke-miterlimit:10;}
	.st4{fill:#00478C;}
	.st5{fill:#04A7DB;}
</style>
<rect id="XMLID_7_" x="173.6" y="339.1" class="st0" width="1060.4" height="94.8"/>
<rect id="XMLID_1043_" x="203.9" y="422" class="st1" width="1027.8" height="24"/>
<polygon id="XMLID_1042_" class="st2" points="1234,349.3 1234,417.3 555,417.3 523.7,349.3 "/>
<g id="XMLID_964_">
	<line id="XMLID_1041_" class="st3" x1="270.3" y1="360.6" x2="270.3" y2="408.4"/>
	<path id="XMLID_1038_" class="st4" d="M315.6,360.9h2.3v2h-2.3V360.9z M315.6,363.7h2.3v8.3h-2.3V363.7z"/>
	<path id="XMLID_1037_" class="st4" d="M321.3,363.7v1l0,0c0.2-0.6,0.9-1.3,1.6-1.3c1.1,0,2.1,0.6,2.1,1.7v6.8h-2.3V366
		c0-0.4-0.2-0.7-0.6-0.7s-0.6,0.3-0.6,0.7v5.9h-2.3v-8.3L321.3,363.7L321.3,363.7z"/>
	<path id="XMLID_1034_" class="st4" d="M326.2,360.9h2.3v2h-2.3V360.9z M326.2,363.7h2.3v8.3h-2.3V363.7z"/>
	<path id="XMLID_1033_" class="st4" d="M333.5,366.7L333.5,366.7c0-0.4,0-0.7-0.1-1s-0.3-0.5-0.6-0.5c-0.6,0-0.7,0.5-0.7,1v3.4
		c0,0.5,0.1,1,0.8,1c0.9,0,0.7-1.3,0.7-1.9h2.3c0,0.5-0.1,1.5-0.2,2c-0.3,1-1.2,1.5-2.2,1.6c-0.2,0-0.4,0-0.8,0
		c-1.7,0-2.9-0.7-2.9-2.6v-3.4c0-2.1,1.1-2.8,2.9-2.8c2.3,0,3.2,1,3.1,3.3h-2.3V366.7z"/>
	<path id="XMLID_1030_" class="st4" d="M336.8,360.9h2.3v2h-2.3V360.9z M336.8,363.7h2.3v8.3h-2.3V363.7z"/>
	<path id="XMLID_1027_" class="st4" d="M344.1,371.2c-0.6,0.6-1.1,1-2,1c-1.3,0-2.2-0.9-2.2-2.2c0-1.9,1-2.5,2.1-2.8
		c1-0.3,2-0.4,2-1.3c0-0.5-0.3-0.9-0.7-0.9c-0.9,0-0.9,0.6-0.9,1.3h-2.3c-0.1-2.1,1.3-2.8,3.2-2.8c2.3,0,3.2,0.7,3.2,2.5v5.1
		c0,0.3,0.1,0.6,0.2,0.9h-2.3L344.1,371.2z M344.1,367.9c-0.5,0.3-0.9,0.4-1.2,0.6c-0.3,0.2-0.5,0.5-0.5,1.1c0,0.5,0.3,0.9,0.9,0.9
		c0.7,0,0.8-0.7,0.9-1.3L344.1,367.9L344.1,367.9z"/>
	<path id="XMLID_1026_" class="st4" d="M346.7,365.4v-1.7h0.9v-2.4h2.3v2.4h1.1v1.7h-1v4.4c0,0.5,0.2,0.6,0.5,0.6s0.4,0,0.6,0v1.7
		c-0.5,0.1-1,0.1-1.5,0.1c-1.3,0-2-0.6-2-1.9v-4.8L346.7,365.4L346.7,365.4z"/>
	<path id="XMLID_1023_" class="st4" d="M351.9,360.9h2.3v2h-2.3V360.9z M351.9,363.7h2.3v8.3h-2.3V363.7z"/>
	<polygon id="XMLID_1022_" class="st4" points="358,369 358,369 358.8,363.7 361.1,363.7 359.3,371.9 356.6,371.9 354.8,363.7 
		357.2,363.7 	"/>
	<path id="XMLID_1019_" class="st4" d="M365.3,371.2c-0.6,0.6-1.1,1-2,1c-1.3,0-2.2-0.9-2.2-2.2c0-1.9,1-2.5,2.1-2.8
		c1-0.3,2-0.4,2-1.3c0-0.5-0.3-0.9-0.7-0.9c-0.9,0-0.9,0.6-0.9,1.3h-2.3c-0.1-2.1,1.3-2.8,3.2-2.8c2.3,0,3.2,0.7,3.2,2.5v5.1
		c0,0.3,0.1,0.6,0.2,0.9h-2.3L365.3,371.2z M365.2,367.9c-0.5,0.3-0.9,0.4-1.2,0.6c-0.3,0.2-0.5,0.5-0.5,1.1c0,0.5,0.3,0.9,0.9,0.9
		c0.7,0,0.8-0.7,0.9-1.3L365.2,367.9L365.2,367.9z"/>
	<path id="XMLID_1016_" class="st4" d="M373.8,363.7v1l0,0c0.5-0.8,1.1-1.2,1.9-1.2c1.6,0,2,1.5,2,2.8v2.9c0,1.4-0.3,3-2.1,3.1
		c-0.4,0-1.2-0.2-1.7-1l0,0v3.6h-2.3v-11.2H373.8z M375.4,366.7c0-0.5,0-1.4-0.7-1.4c-0.6,0-0.8,0.7-0.8,1.5v1.9
		c0,0.7,0.1,1.5,0.7,1.5c0.8,0,0.7-0.9,0.7-1.4v-2.1H375.4z"/>
	<path id="XMLID_1013_" class="st4" d="M378.5,366.3c0-2.1,1.3-2.8,3.1-2.8c2.1,0,3.1,1,3.1,2.8v3.4c-0.1,1.9-1.3,2.6-3.1,2.6
		c-1.7,0-3.1-0.7-3.1-2.6V366.3z M380.9,369.8c0,0.5,0.2,0.7,0.7,0.7s0.7-0.3,0.7-0.7v-3.7c0-0.5-0.2-1-0.7-1s-0.7,0.4-0.7,1V369.8z
		"/>
	<path id="XMLID_1012_" class="st4" d="M387.7,363.7v1.3l0,0c0.3-0.9,0.8-1.5,1.8-1.5v2.7c-0.2,0-0.5-0.1-0.7-0.1
		c-0.7,0-0.9,0.1-1,0.8v5.1h-2.3v-8.3H387.7z"/>
	<rect id="XMLID_1011_" x="393.5" y="360.9" class="st4" width="2.3" height="11.1"/>
	<path id="XMLID_1008_" class="st4" d="M396.9,366.3c0-2.1,1.3-2.8,3.1-2.8c2.1,0,3.1,1,3.1,2.8v3.4c-0.1,1.9-1.3,2.6-3.1,2.6
		c-1.7,0-3.1-0.7-3.1-2.6V366.3z M399.2,369.8c0,0.5,0.2,0.7,0.7,0.7s0.7-0.3,0.7-0.7v-3.7c0-0.5-0.2-1-0.7-1s-0.7,0.4-0.7,1V369.8z
		"/>
	<path id="XMLID_1007_" class="st4" d="M407.2,366.1c-0.1-0.6,0-1.1-0.8-1.1c-0.5,0-0.8,0.2-0.8,0.7c0,0.4,0.4,0.7,0.7,0.8
		c1.5,0.7,3.2,1.1,3.2,3.1c0,1.8-1.4,2.6-3.1,2.6c-1.9,0-3.2-0.8-3.1-2.8h2.2c0,0.6,0.1,1.2,0.8,1.2c0.5,0,0.8-0.3,0.8-0.8
		c0-0.3-0.1-0.5-0.3-0.6c-0.9-0.5-2.3-0.9-3-1.7c-0.4-0.5-0.6-0.9-0.6-1.6c0-1.8,1.4-2.6,3.1-2.6c1.7,0,3.1,0.9,3,2.7h-2.1
		L407.2,366.1L407.2,366.1z"/>
	<path id="XMLID_1006_" class="st5" d="M283.6,397.6v3.8c0,1.1,0.5,1.6,1.4,1.5c1,0,1.4-0.2,1.4-1.1v-24.3h7.1v21
		c0,2.1,0.1,4.5-0.9,6.5c-1.5,2.8-4.1,3.4-7.2,3.4c-3.4,0-6.3-1.6-7.1-5c-0.4-1.4-0.3-2.7-0.3-4.1v-1.7
		C278,397.6,283.6,397.6,283.6,397.6z"/>
	<path id="XMLID_1002_" class="st5" d="M315,398c0,6.8-2.4,10.3-9.5,10.3s-9.6-3.5-9.6-10.3v-12.2c0-5.8,3.5-9,9.6-9
		c6.2,0,9.5,3.2,9.5,9V398z M313.7,368.6l-6.9,5.9h-5.5l4-5.9H313.7z M308,386.3c0-1.8-0.2-4.1-2.5-4.1c-2.2,0-2.5,2.2-2.5,4.1v12.4
		c0,1.7,0.3,4.3,2.6,4.3s2.4-2.6,2.4-4.3V386.3z"/>
	<polygon id="XMLID_1001_" class="st5" points="322.4,407.6 315.8,377.5 322.9,377.5 326.5,398.6 326.6,398.6 330.2,377.5 
		337.3,377.5 330.7,407.6 	"/>
	<polygon id="XMLID_1000_" class="st5" points="338.4,407.6 338.4,377.5 354.6,377.5 354.6,383.5 345.4,383.5 345.4,389.1 
		354.3,389.1 354.3,395.1 345.4,395.1 345.4,401.6 355,401.6 355,407.6 	"/>
	<polygon id="XMLID_999_" class="st5" points="363.3,390.8 363.2,390.9 363.8,407.6 357.1,407.6 357.1,377.5 364.4,377.5 
		369.9,394.3 370,394.3 369.3,377.5 376,377.5 376,407.6 368.8,407.6 	"/>
	<polygon id="XMLID_998_" class="st5" points="378.4,407.6 378.4,377.5 394.6,377.5 394.6,383.5 385.4,383.5 385.4,389.1 
		394.3,389.1 394.3,395.1 385.4,395.1 385.4,401.6 395,401.6 395,407.6 	"/>
	<path id="XMLID_997_" class="st5" d="M402.6,397.6v2.1c0,1.7,0.6,3.3,2.8,3.3c1.6,0,2.4-1.5,2.4-3c0-2.5-2.1-3.5-3.9-4.6
		c-2.2-1.2-4-2.4-5.3-3.9s-2-3.4-2-6c0-5.7,3.4-8.6,8.9-8.6c6.1,0,9.3,4.1,9,9.8H408c-0.1-1.8,0-4.2-2.3-4.3c-1.4-0.1-2.3,0.7-2.5,2
		c-0.2,1.8,0.7,2.7,2.1,3.7c2.7,1.7,4.9,2.7,6.6,4.3c1.6,1.5,2.6,3.5,2.6,7.2c0,5.8-3.2,9-9.1,9c-6.5,0-9.2-3.6-9.2-7.6v-3.2h6.4
		V397.6z"/>
	<path id="XMLID_965_" class="st4" d="M224.6,396.8c-0.1,0.1-0.2,0.3-0.2,0.5v7.2l0,0c0,0-4-7.1-4.1-7.4c-0.1-0.2-0.3-0.4-0.5-0.5
		c-0.2-0.1-0.4-0.2-0.8-0.2h-1.3c-0.3,0-0.5,0.1-0.6,0.3c-0.1,0.1-0.2,0.3-0.2,0.5v10.2c0,0.3,0.1,0.4,0.2,0.5
		c0.1,0.2,0.3,0.3,0.6,0.3h0.7c0.3,0,0.5-0.1,0.6-0.3c0.1-0.1,0.2-0.3,0.2-0.5V400l0,0c0,0,4.1,7.3,4.3,7.5c0.2,0.4,0.6,0.7,1.2,0.7
		h1.3c0.3,0,0.5-0.1,0.6-0.3c0.1-0.1,0.2-0.3,0.2-0.5v-9.1h16.6c0.2,0,0.3,0,0.4-0.1c0.1-0.1,0.2-0.2,0.2-0.4v-0.7
		c0-0.2,0-0.3-0.2-0.4c-0.1-0.1-0.2-0.1-0.4-0.1h-18.2C224.9,396.5,224.7,396.6,224.6,396.8 M253.9,372.7c-3-4.4-5.6-5.9-6.3-6.6
		c-0.8-0.8-1.4-1.6-1.8-2.1c-0.9-0.9-2-2.1-3.8-2.1c-1.8,0-3,1.2-3.3,2.2c-0.1,0.3-0.2,0.6-0.3,0.8c-0.2,0.3-1,1.6-1.3,2.2h1.5
		l-0.8,1.2c0.8-0.2,1.4-0.3,2.2-0.3c0.7,0,1.2,0.2,1.4,0.6c0.4,0.8,0.4,3.3,1.1,5.2c0.7,1.8,2.2,3.5,4,4.8c0,0,0,0,0.1,0
		s0.1-0.1,0.1-0.1s0-0.1-0.1-0.1c-1.5-1.5-2.7-3.2-3.4-5c-0.6-1.8-0.5-4.3-1.1-5.4c-0.4-0.7-1.2-0.9-1.9-0.9c-0.6,0-1.1,0.1-1.4,0.2
		l0.6-1.1h-1.1c0.2-0.4,0.5-0.8,0.6-1c0.1-0.2,0.1-0.4,0.3-0.8c0.4-1,1.3-1.7,2.5-1.7c1.5,0,2.4,1,3.2,1.9c0.4,0.4,1.1,1.4,1.8,2.1
		c0.5,0.5,1.5,1,3,2.6c0.9,0.9,1.9,2.1,3,3.7c3.8,5.6,6.4,10.6,7.8,14.5l0,0c-4-2.7-7.5-5.3-10.3-8.5c-2-2.3-3.7-4.9-5.2-8.2
		c-0.1-0.2-0.2-0.4-0.3-0.6c0-0.1-0.1-0.1-0.1-0.1c-0.1,0-0.1,0.1-0.1,0.1c0,0.1,0,0.3,0.1,0.7c0.8,3.5,3,6.6,5.4,9.2
		c2.4,2.6,5.1,4.8,7.3,6.4l1.7,4.9c0,0.1,0.1,0.2,0.1,0.4c0,0.1,0,0.2-0.1,0.2c0,0-0.1,0.1-0.3,0.1h-0.5c-0.2,0-0.3,0-0.4-0.1
		c-0.1-0.1-0.1-0.2-0.2-0.3c-0.2-0.5-1.1-3-1.2-3.6c0-0.1-0.1-0.1-0.2-0.1c-0.1,0-0.1,0.1-0.1,0.1c0,0.1,0,0.1,0.1,0.4
		c0.2,1.2,0.5,2.5,0.6,3c0,0.2,0.1,0.4,0.1,0.6c0,0.1,0,0.2-0.2,0.3l-0.5,0.5c-0.1,0.1-0.2,0.2-0.3,0.2s-0.2-0.1-0.3-0.3
		c-0.6-2.8-1.5-6.3-1.8-7.3c-0.1-0.2-0.1-0.3-0.2-0.3s-0.2,0.1-0.2,0.2c0,0.1,0,0.2,0,0.2c0.1,1,0.7,4.7,1.4,8
		c0.1,0.6,0.3,0.9,0.8,0.9c0.2,0,0.4-0.1,0.6-0.3c0.3-0.3,0.4-0.4,0.8-0.8c0.3-0.3,0.5-0.4,0.9-0.4h1.2c0.3,0,0.4-0.1,0.6-0.2
		c0.1-0.1,0.2-0.3,0.2-0.5s-0.1-0.4-0.2-0.7c-0.3-0.8-1.3-3.6-1.6-4.3l0,0c1,0.8,2.4,1.7,3.1,1.7c0.2,0,0.3-0.1,0.3-0.4
		C261.9,387,259.5,381,253.9,372.7 M231.8,399.5c-2.8,0-4.3,2.2-4.3,4.4c0,2.4,1.7,4.6,4.3,4.6c1.3,0,2.6-0.5,3.4-1.4
		c0.3-0.4,0.6-0.9,0.6-1.2c0-0.1,0-0.2-0.1-0.3c-0.1-0.1-0.2-0.1-0.3-0.1h-1.3c-0.3,0-0.4,0.1-0.6,0.3c-0.4,0.5-0.9,0.8-1.7,0.8
		c-1.2,0-2-0.9-2-1.9h5.5c0.2,0,0.4-0.1,0.5-0.2c0.1-0.1,0.2-0.3,0.2-0.7c0-1-0.3-2.1-1-3C234.4,400.1,233.3,399.5,231.8,399.5
		 M240.4,399.5c-2.2,0-3.6,1-3.6,2.7c0,0.6,0.2,1.1,0.6,1.4c0.4,0.4,1,0.7,1.8,1l1.8,0.5c0.5,0.1,0.9,0.3,0.9,0.7
		c0,0.7-0.7,0.9-1.5,0.9c-0.4,0-0.8-0.1-1.1-0.2c-0.2-0.1-0.4-0.3-0.5-0.5c-0.1-0.2-0.2-0.3-0.3-0.4c-0.1-0.1-0.2-0.1-0.4-0.1h-1
		c-0.2,0-0.3,0.1-0.4,0.2c-0.1,0.1-0.1,0.2-0.1,0.3c0,0.3,0.1,0.7,0.4,1.1c0.6,0.8,1.9,1.5,3.5,1.5c1.6,0,3.8-0.7,3.8-2.8
		c0-0.5-0.2-1-0.5-1.4c-0.4-0.5-0.9-0.8-1.8-1.1l-1.8-0.5c-0.7-0.2-1.1-0.3-1.1-0.8c0-0.4,0.4-0.8,1.3-0.8c0.5,0,1,0.1,1.4,0.5
		c0.3,0.3,0.2,0.4,0.4,0.5c0.1,0.1,0.3,0.1,0.5,0.1h0.9c0.1,0,0.2,0,0.3-0.1c0.1-0.1,0.1-0.2,0.1-0.4c0-0.4-0.3-0.9-0.7-1.4
		C242.6,399.9,241.6,399.5,240.4,399.5 M226.6,363.4c0.2-0.4,0.5-0.6,1-0.6c0.6,0,1.1,0.5,1.1,1.1c0,0.4-0.2,0.7-0.4,0.9
		c0.1,0.2,0.1,0.4,0.1,0.6c0,0.7-0.4,1.1-1.1,1.4c-0.1,0.4-0.3,0.8-0.6,1c-0.5,0.5-1,0.5-1,0.7c0,0.1,0.1,0.2,0.3,0.2
		c0.9,0,1.8-0.5,1.9-1.3c0.8-0.3,1.4-1.1,1.4-1.8c0-0.2,0-0.3-0.1-0.5c0.2-0.2,0.5-0.6,0.5-1.2c0-0.5-0.2-1-0.6-1.4
		c-0.3-0.3-0.8-0.5-1.4-0.5c-0.8,0-1.3,0.4-1.6,0.9c-0.9,0-2,1-2,2.3H224c-0.1-0.5-0.6-0.8-1-0.8c-0.3-1-1.1-1.9-2.3-1.9
		c-0.1,0-0.3,0-0.5,0c-0.4-0.3-0.8-0.5-1.3-0.5c-1.1,0-2,0.9-2,2c0,0.7,0.3,1.2,0.9,1.6v0.1c0,0.9,1,2.2,2.4,2.2
		c0,0.2,0.3,0.5,0.6,0.6v0.1h-0.1c-2,0-2.8,0.9-2.8,1.6c-0.6,0.2-1,0.9-1,1.5c0,1.2,0.9,2,2,2c0.4,0,0.8-0.2,1-0.4
		c0.2,0.1,0.5,0.1,0.7,0.1c0.5,0,1.2-0.2,1.6-0.8c0.1,0,0.1,0,0.2,0c0.7,0,1.3-0.5,1.6-1.1c0.1-0.2,0.1-0.3,0.1-0.4
		c0-0.1,0-0.2-0.1-0.2c-0.1,0-0.1,0.1-0.3,0.3c-0.4,0.4-1.1,0.6-1.8,0.6c-0.3,0.5-0.8,0.8-1.3,0.8c-0.4,0-0.6-0.1-0.9-0.3
		c-0.2,0.3-0.5,0.4-0.8,0.4c-0.6,0-1.1-0.4-1.1-1.1c0-0.4,0.3-0.8,0.7-1c0.1-0.8,0.9-1.3,2-1.3c0.1,0,0.3,0,0.4,0
		c0.2-0.3,0.5-0.5,1.1-0.6c0.1,0,0.2,0,0.3-0.1c0.1,0,0.1-0.1,0.1-0.2c0-0.1,0-0.1-0.1-0.2c-0.1,0-0.2,0-0.3-0.1
		c-0.5-0.1-1.1-0.4-1.4-1.2c-1.2,0-2.1-1-2.1-2v-0.1c-0.4-0.2-0.7-0.5-0.7-1c0-0.6,0.5-1.1,1.1-1.1c0.4,0,0.7,0.2,0.9,0.4
		c0.2,0,0.4-0.1,0.5-0.1c0.9,0,1.8,0.6,2,1.7c1.1,0.1,1.4,1.1,1.5,1.5c0,0.2,0.1,0.4,0.2,0.4c0.1,0,0.2-0.2,0.2-0.4
		c0.1-0.4,0.2-0.7,0.5-1C224.7,364.3,225.5,363.4,226.6,363.4 M245.3,399.8h-0.4c-0.2,0-0.3,0-0.4,0.1c-0.1,0.1-0.2,0.2-0.2,0.4v0.5
		c0,0.2,0,0.3,0.2,0.4c0.1,0.1,0.2,0.1,0.4,0.1h0.4v4c0,1,0.3,1.7,0.8,2.2s1.1,0.8,2.2,0.8h0.7c0.2,0,0.3,0,0.4-0.1
		c0.1-0.1,0.2-0.2,0.2-0.4v-0.7c0-0.2-0.1-0.3-0.2-0.4c-0.1-0.1-0.2-0.1-0.4-0.1h-0.1c-0.4,0-0.7-0.1-0.9-0.3
		c-0.2-0.2-0.4-0.6-0.4-1v-3.8h1.4c0.2,0,0.3,0,0.4-0.1c0.1-0.1,0.2-0.2,0.2-0.4v-0.5c0-0.2,0-0.3-0.2-0.4c-0.1-0.1-0.2-0.1-0.4-0.1
		h-1.4v-2.7c0-0.2-0.1-0.4-0.2-0.5c-0.1-0.1-0.3-0.2-0.5-0.2H246c-0.2,0-0.4,0.1-0.5,0.2c-0.1,0.1-0.2,0.3-0.2,0.5V399.8z
		 M250.2,407.7c0,0.2,0.1,0.4,0.2,0.5c0.1,0.1,0.3,0.2,0.5,0.2h0.9c0.2,0,0.4-0.1,0.5-0.2c0.1-0.1,0.2-0.3,0.2-0.5v-10.4
		c0-0.2-0.1-0.4-0.2-0.5c-0.1-0.1-0.3-0.2-0.5-0.2h-0.9c-0.2,0-0.4,0.1-0.5,0.2c-0.1,0.1-0.2,0.3-0.2,0.5V407.7z M228.9,369.7
		c-0.4,0.5-0.6,0.8-1.5,1.8c-1.1,1.3-1.7,2.4-2.7,4.8c0.2,0,0.4,0,0.6,0c0.1,0,0.2,0,0.4,0l0.1-0.3c0.5-1.2,1.3-2.8,2.3-4l0.4-0.4
		c1.1-1.2,1.7-2,2.1-3.7c0.1-0.6,0.3-1.1,0.7-1.5c0.4-0.4,0.8-0.5,1.3-0.5c0.4,0,0.7,0.1,1.1,0.3c0.4,0.2,0.5,0.2,0.9,0.2
		c0.1,0,0.2,0,0.3,0l-0.6,0.7l0.8,0.5c-0.9,0.3-1.4,1.2-1.6,1.6c0,0.1,0,0.1,0,0.2s0,0.1,0.1,0.1c0.1,0,0.2-0.1,0.3-0.2
		c0.5-0.6,0.8-0.9,2.5-1.5l-1.2-0.9l0.9-1.3h-0.9c-0.5,0-0.9,0-1.4-0.2c-0.6-0.3-1-0.4-1.5-0.4c-0.7,0-1.3,0.2-1.8,0.7
		c-0.6,0.5-0.8,1.3-1,2.1C229.6,368.4,229.4,369,228.9,369.7 M230.8,375.1c-0.5,0.6-1.1,1.4-1.6,2.3c0.2,0.1,0.7,0.3,0.8,0.4
		c0.5-0.8,1.3-1.8,1.8-2.6c0.5-0.7,0.6-1,0.7-1.9c0-0.2,0-0.3,0-0.5c0-0.5,0.2-1,0.6-1.4c0.3-0.3,0.8-0.5,1.3-0.5s0.8,0.1,1.2,0.1
		c0.3,0,0.5-0.1,0.7-0.1l0.2-0.1l-0.4,0.9l0.9,0.3c-0.5,0.3-1.8,1.8-1.8,3.6c0,0.6,0.1,1.2,0.2,1.7c0,0.1,0,0.1,0.1,0.1
		s0.1,0,0.1-0.1v-0.2c0-0.5,0.1-1.4,0.3-2.1c0.4-1.3,1.3-2.5,2.3-3l-1.2-0.7l0.6-1.4L237,370c-0.4,0.1-0.7,0.2-1,0.2
		c-0.2,0-0.5,0-0.8-0.1c-0.2-0.1-0.5-0.1-0.8-0.1c-0.6,0-1.3,0.2-1.8,0.7c-0.8,0.8-0.9,1.7-0.9,2.4
		C231.5,374.1,231.3,374.3,230.8,375.1 M251.2,375.6c-0.1-0.1-0.1-0.1-0.2-0.1s-0.1,0.1-0.1,0.1c0,0.1,0.1,0.2,0.3,0.6
		c0.6,1,1.4,2.1,2.3,3c1,1.1,2.2,2,3.4,2.9l0.4,0.3c0.1,0,0.1,0.1,0.1,0.1c0.1,0,0.1-0.1,0.1-0.1s0-0.1-0.1-0.1
		c-1.2-1.1-2.4-2.3-3.6-3.6C253,377.7,252,376.6,251.2,375.6 M229.8,403c0.1-1,0.9-1.7,2-1.7c1.1,0,1.9,0.7,2,1.7H229.8z M225.6,372
		c0.1-0.2,0.5-0.7,0.6-0.8c-0.6-1.2-1.6-2.4-2.1-2.9l-0.4,0.4C224.2,369.2,224.9,370.4,225.6,372 M219.7,364.8
		c-0.1-0.1-0.1-0.1-0.1-0.2c0-0.1,0-0.1,0.1-0.1h0.1c0.6,0.2,1.1,0.5,1.5,0.9c0.4,0.3,0.7,0.6,1.1,1.1l-0.3,0.4
		C221.8,366.5,220.4,365.4,219.7,364.8 M225.4,367.5l-0.4-0.3c0.3-0.7,0.6-1.3,1-1.7c0.3-0.3,0.6-0.6,0.9-0.9
		c0.1-0.1,0.1-0.1,0.2-0.1c0.1,0,0.1,0.1,0.1,0.1v0.1C226.6,365.5,225.7,367,225.4,367.5 M220,371.1c-0.1,0-0.2,0.1-0.2,0.1
		c-0.1,0-0.1-0.1-0.1-0.1c0-0.1,0-0.1,0.1-0.1c1-0.8,1.8-1.1,3-1.3l0.1,0.5L220,371.1z M240.4,365c0-0.3,0.1-0.8,0.7-0.8
		c0.2,0,0.3,0,0.5,0.1c0.2,0.1,0.3,0.2,0.3,0.4c0,0.1-0.1,0.3-0.4,0.5c-0.2,0.2-0.5,0.4-0.7,0.4C240.5,365.5,240.4,365.2,240.4,365
		 M232.3,367.3c0-0.3,0.2-0.7,0.6-0.7c0.2,0,0.4,0.1,0.5,0.2c0.1,0.1,0.1,0.2,0.1,0.3c0,0.2-0.2,0.4-0.4,0.5
		c-0.2,0.1-0.3,0.2-0.5,0.2C232.4,367.7,232.3,367.6,232.3,367.3 M234.2,372.2c0-0.1,0-0.2,0-0.3c0.1-0.2,0.2-0.4,0.5-0.4
		c0.2,0,0.3,0,0.5,0.1c0.1,0.1,0.2,0.2,0.2,0.3c0,0.3-0.6,0.7-0.9,0.7C234.3,372.7,234.2,372.5,234.2,372.2 M261.2,398.3
		c0.2,0,0.3,0,0.4-0.1c0.1-0.1,0.2-0.2,0.2-0.4v-0.7c0-0.3-0.1-0.4-0.2-0.5c-0.1-0.1-0.2-0.2-0.4-0.2c-0.1,0-0.3,0-0.5,0l-6.4,0.6
		c-0.2,0-0.3,0.1-0.3,0.1c-0.1,0.1-0.1,0.2-0.1,0.3v0.4c0,0.2,0,0.2,0.1,0.3c0.1,0.1,0.2,0.1,0.3,0.1L261.2,398.3L261.2,398.3z
		 M257.6,399.5c-2.8,0-4.3,2.2-4.3,4.4c0,2.4,1.7,4.6,4.3,4.6c1.3,0,2.6-0.5,3.4-1.4c0.3-0.4,0.6-0.9,0.6-1.2c0-0.1,0-0.2-0.1-0.3
		s-0.2-0.1-0.3-0.1h-1.3c-0.3,0-0.4,0.1-0.6,0.3c-0.4,0.5-0.9,0.8-1.7,0.8c-1.2,0-2-0.9-2-1.9h5.6c0.2,0,0.4-0.1,0.5-0.2
		c0.1-0.1,0.2-0.3,0.2-0.7c0-1-0.3-2.1-1-3C260.2,400.1,259.1,399.5,257.6,399.5 M255.7,403c0.1-1,0.9-1.7,2-1.7
		c1.1,0,1.9,0.7,2,1.7H255.7z M231.1,382.3c-1.1,0-1.6-0.5-1.6-1.2c0-1.1,2-2.2,3.8-2.9l0.5,0.6c-1.1,0.4-3.3,1.4-3.3,2.2
		c0,0.3,0.2,0.5,0.8,0.5c1.2,0,2.4-0.6,3.6-1.1c0.1,0,0.2-0.1,0.3-0.1c0.2,0,0.2,0,0.4,0.2l0.2,0.3
		C234.3,381.5,232.6,382.3,231.1,382.3 M234,382.6c-1.1,0.6-2.1,1-3.1,1c-1.1,0-2-0.5-2.8-1.7c-0.3-0.5-0.6-1.1-0.9-1.7
		c-0.4-0.7-0.8-1-1.5-1s-1.3,0.3-2,0.6v0.2c0.1,0.2,0.2,0.4,0.4,0.4c0.1,0,0.2,0,0.3-0.1c0.4-0.1,0.7-0.2,1.1-0.2
		c0.6,0,0.9,0.4,1.3,1.2l0.2,0.3c-0.4,0.1-1.4,0.2-2.1,0.2h-0.3l0.1,0.3c0,0.1,0.1,0.3,0.2,0.3c0.1,0.1,0.4,0.1,0.7,0.1
		c0.9,0,1.6-0.1,2-0.2c1,1.5,2.3,2,3.6,2c1.1,0,2.2-0.4,3.3-1L234,382.6z M235.1,382.9l-0.2-0.7c1.6-0.9,3.1-1.6,5.5-1.8
		c0,0.9,0,2.1,0.7,2.1c0.6,0,2-1.6,3.5-3.6c0.1,0.1,0.4,0.3,0.6,0.4l-0.4,0.5c-1.5,2-2.8,3.6-3.9,3.6c-1,0-1.4-1.2-1.4-2
		C238,381.5,236.6,382,235.1,382.9 M256.2,366.9c-0.6,0-0.8-0.3-0.8-0.8c0-1,0.6-2.4,1-3.3h-1c-0.5,1-2.5,4.1-3.5,5.4l0.6,0.7
		c0.6-0.6,1.2-1.7,1.9-2.8h0.1c0,0.1,0,0.1,0,0.2c0,0.9,0.5,1.6,1.6,1.6c0.7,0,1.8-0.3,2.8-0.7c0.9-0.3,1.6-0.6,2-0.7v-1
		c-0.4,0.1-1.4,0.5-2.3,0.8C257.7,366.6,256.7,366.9,256.2,366.9 M258.3,369.8c1-0.4,2.7-1.1,3.7-1.4v-1c-2,0.7-5.5,2.2-7.8,3.5
		c0.1,0.1,0.5,0.7,0.5,0.7c1-0.4,1.9-0.7,2.7-0.7c1.1,0,2.1,0,3.6-0.4v-0.7c-0.9,0.2-1.8,0.4-2.4,0.4c-0.4,0-0.5,0-0.5-0.2
		C258.1,369.9,258.2,369.9,258.3,369.8 M237.5,375h4.1l-0.3-0.7h-3.4L237.5,375z M223.2,378.7c0.4,0,0.8-0.1,1.1-0.3
		c0.3-0.1,0.6-0.3,1.1-0.3c1,0,2.3,0.5,3.4,1c0.1,0,0.1,0,0.2,0c0.2,0,0.3-0.1,0.4-0.2l0.1-0.3c-1.2-0.7-3.2-1.5-4.2-1.5
		c-0.5,0-0.8,0.1-1.1,0.2c-0.4,0.1-0.7,0.3-1,0.3c-0.8,0-2.9-0.8-2.9-1.6c0-0.9,3.3-1.3,3.6-1.3l0.3-0.7c-2.4,0-5.2,0.8-5.2,1.9
		c0,0.3,0.2,0.5,0.2,0.8c0,0.4-0.2,0.7-0.2,1.1c0,0.3,0.2,0.7,0.4,1c0.2,0.3,0.5,0.6,0.5,0.9c0,0.2-0.1,0.5-0.1,1
		c0,1.1,0.6,1.7,1.8,3l0.2,0.3c-1,0.4-2.8,1.2-3.3,1.4c-1.5,0.6-1.9,1.4-1.9,2.6c0,0.5,0,1,0,1.5h0.3c0.6,0,0.7-0.4,0.7-0.7
		c0-0.2,0-0.5,0-0.8c0-0.7,0-1.2,1.1-1.7c0.4-0.2,2.5-1.1,4.1-1.7c0.5-0.2,0.9-0.4,1.4-0.4s1.1,0.2,1.9,0.7c0.6,0.4,1.3,0.9,1.9,1.5
		l0.7-0.5c-0.6-0.7-1.4-1.3-2.2-1.8s-1.5-0.8-2.1-0.8c-0.3,0-0.5,0-0.7,0.1c-0.2,0.1-0.4,0.1-0.7,0.1s-0.5-0.1-0.9-0.5
		c-0.1-0.2-1-1.1-1.2-1.4c-0.1-0.1-0.2-0.4-0.2-0.7c0-0.1,0-0.3,0.1-0.4c0.7,0.6,1.7,0.9,2.8,1.1l-0.2-0.8c-1.6-0.4-3.3-1.8-3.3-2.7
		c0-0.2,0-0.3,0.1-0.5C221,378.1,222.5,378.7,223.2,378.7 M234.7,378.8c1-0.7,2-0.8,2.9-0.8c0.5,0,1.1,0.1,1.7,0.2
		c0.5,0.1,1,0.1,1.5,0.1c1.1,0,2.2-0.4,2.7-0.6c0.1,0.2,0.4,0.4,0.5,0.5c-0.2,0.1-1.7,0.9-3.2,0.9c-0.7,0-1.3-0.1-1.8-0.2
		c-0.5-0.1-1-0.1-1.5-0.1s-1.7,0.2-2.3,0.5L234.7,378.8z M249.5,381.7c-1.2,2.5-3,4.3-4.9,5.4c-0.9,0.5-1.7,0.8-3.4,0.8h-3.7
		c-1.3,0-2.2,0.2-2.8,0.3c-0.7,0.2-1.1,0.4-1.9,0.4c-1.1,0-2-0.5-2.5-1l0.9-0.7l-0.4-0.6c-0.3,0.2-3.4,2.5-4,3l0,0
		c0-0.2,0-0.3,0-0.4c0-1.8-0.8-2.2-2-2.7l-0.8,0.5c1.7,0.6,2.1,1,2.1,2.3c0,1-0.4,1.4-0.9,1.7c-0.5,0.3-1.2,0.5-1.8,0.5
		c-0.2,0-0.4,0-0.4,0.1c-0.1,0.1-0.1,0.2-0.1,0.4v0.3h0.2c1.1,0,2.1-0.2,3.1-1l3.5-2.8c0.5,0.6,1.8,1.4,3.3,1.4
		c0.8,0,1.4-0.2,2.2-0.4c0.6-0.2,1.2-0.3,2.5-0.3h3.7c1.9,0,2.8-0.4,3.9-1c2.2-1.2,4.1-3.3,5.2-5.8C250,382,249.7,381.8,249.5,381.7
		 M243.5,384.6c1-1.5,1.8-2.9,3.9-4c-0.2-0.1-0.5-0.3-0.7-0.5c-0.8,0.4-1.6,1.1-2.3,1.8c-1.6,1.7-1.4,2.6-3.1,3.3
		c-0.4,0.2-0.9,0.3-1.6,0.5c-0.4-1.2-1.4-2.4-2.4-2.4c-0.7,0-1.5,0.4-2.5,0.8c-1.1,0.5-2.1,1.1-2.5,1.3l0.4,0.6
		c0.3-0.2,1.3-0.7,2.3-1.1c0.8-0.4,1.6-0.7,2.1-0.7c0.8,0,1.4,0.9,1.6,1.7c-1.1,0.3-2.8,0.3-3.4,0.3c-0.2,0-0.3,0-0.4,0.1
		c-0.1,0.1-0.1,0.2-0.2,0.4l-0.1,0.3h0.6c3,0,5.8-0.5,7.6-1.6c0.3,0.1,0.5,0.1,0.8,0.1c1,0,2.1-0.6,2.8-1.1c0.2-0.2,0.3-0.4,0.3-0.5
		c0-0.1,0-0.2,0-0.2v-0.3c-1,0.8-1.8,1.3-2.7,1.3C243.7,384.7,243.6,384.7,243.5,384.6"/>
</g>
</svg>
