<?xml version="1.0" encoding="utf-8"?>
<!-- Generator: Adobe Illustrator 19.0.0, SVG Export Plug-In . SVG Version: 6.00 Build 0)  -->
<svg version="1.1" id="Capa_1" xmlns="http://www.w3.org/2000/svg" xmlns:xlink="http://www.w3.org/1999/xlink" x="0px" y="0px"
	 viewBox="-272 366.3 66.5 60.7" style="enable-background:new -272 366.3 66.5 60.7;" xml:space="preserve">
<style type="text/css">
	.st0{fill:#FFFFFF;}
	.st1{fill:#FFFFFF;stroke:#1F4D69;stroke-width:1.2597;stroke-miterlimit:10;}
	.st2{fill:#D2D9DB;}
	.st3{fill:#04A7DB;}
	.st4{fill:none;stroke:#1F4D69;stroke-width:1.3939;stroke-miterlimit:10;}
	.st5{fill:#FFCC80;}
	.st6{fill:#1F4D69;}
	.st7{fill:none;stroke:#1F4D69;stroke-width:1.2597;stroke-miterlimit:10;}
	.st8{fill:#1B4154;}
	.st9{fill:none;stroke:#1F4D69;stroke-miterlimit:10;}
</style>
<path class="st0" d="M-207.9,417c0,1.1-0.3,2.9-1.5,2.9h-57.3c-1.2,0-2-1.8-2-2.9v-35.7c0-1.1,0.8-2.6,2-2.6h57.3
	c1.2,0,1.5,1.5,1.5,2.6L-207.9,417L-207.9,417z"/>
<g id="Capa_1_1_">
</g>
<g id="Capa_2">
</g>
<g>
	<path class="st1" d="M-265.1,378.8v-2.7c0,0-0.1-1,0.3-1.2c0.6-0.4,10.5-0.4,11.2,0c0.5,0.3-0.2,2.2-0.2,2.2l19.1-0.3
		c0,0-0.6-2.8,0.2-3.3c0.8-0.4,16.9-0.4,17.7,0c0.5,0.3-0.4,1.5-0.4,1.5v1.9c0,0,4.5-0.5,5.3,0c0.9,0.5-0.1,3-0.1,3"/>
	<path class="st2" d="M-211,414.1c-11.5,1-54.7,6.9-53.2-9.9c-0.4-6.4,0.1-14.2,0.3-20.6c0.1-2.1,0.2-4.2-1.8-4.2
		c-2.1,0-3.8,1.7-3.8,3.8c-0.3,7.8,0.1,15.5,0.6,23.3c-0.2,0.5-0.3,1-0.3,1.5c0,1.4,0.3,2.7,0.6,4c0.1,0.2,0.1,0.5,0.2,0.7
		c0,0.1,0.1,0.1,0.1,0.2c0,0,0.1,0.1,0.1,0.2l0,0c-0.6,1-1,2.1-0.7,3.3c0.5,1.8,1.9,2.6,3.7,2.8c5.1,0.7,10,1.1,15.1,0.5
		c12.5,0.4,25.1-0.1,37.5-1.2c2.1-0.2,3.8-1.6,3.8-3.8C-208.9,412.7-208.9,413.9-211,414.1z"/>
	<g>
		<path class="st3" d="M-223.5,399.8c0-0.7,0-1.5-0.2-2.2c-0.1-2.3-0.7-4.7-2.4-6.2l0,0c-0.2-0.2-0.3-0.4-0.5-0.6
			c0.1-0.2,0.1-0.4-0.1-0.5h-0.1l0,0l0,0c-0.2-0.1-0.4-0.3-0.6-0.4c-0.6-0.8-1.3-1.4-2.2-1.8c-0.1,0-0.1,0-0.2,0
			c-0.2-0.2-0.3-0.3-0.5-0.4c-3.8-3-10.2-4.7-14.2-1.2l-0.1,0.1c-0.1-0.1-0.3-0.1-0.5,0c-1.4,0.9-3,1.3-3.9,2.8v0.1
			c-1.1,0.7-1.8,1.9-2.4,3.1c-0.1,0.1-0.1,0.3,0,0.4c-2.3,3.1-2.7,6.9-1.5,10.7c1.3,4,3.7,8.4,7.9,9.9c0.5,0.2,0.9,0.3,1.4,0.4
			c0.7,0.3,1.4,0.4,2,0.4c1.3,0.5,2.6,0.9,3.9,0.7c0.1,0,0.2-0.1,0.2-0.2c0.3-0.1,0.5-0.1,0.8-0.3c0.9,0,1.8-0.1,2.7-0.5
			c0.2-0.1,0.3-0.2,0.3-0.3c0.7-0.2,1.4-0.4,2-0.8c0.1,0,0.2,0,0.2,0c0.4-0.1,0.7-0.2,1.1-0.4c0.1,0,0.1,0,0.2-0.1
			c1.1-0.6,1.8-1.4,2.4-2.3c0.1,0,0.2-0.1,0.3-0.2c0.7-1,1.6-2,2.2-3.1c0.1,0,0.1-0.1,0.1-0.2c0.2-0.4,0.4-0.9,0.5-1.4
			c0.4-1.1,0.6-2.3,0.7-3.4c0-0.2,0.1-0.4,0.1-0.7c0.1-0.1,0.2-0.2,0.2-0.4C-223.5,400.5-223.5,400.2-223.5,399.8z M-240.5,385.4
			c-0.2,0-0.4,0-0.6,0.1c0.3-0.1,0.7-0.2,1-0.2C-240.2,385.4-240.3,385.4-240.5,385.4z M-229.8,407.2c-0.4,1-7.8,3.9-7.8,4.1
			c-1.1-0.2-7.3-2.2-8.2-2.7c-0.5-0.4-3.1-5-3.4-5.5c0-0.2-0.4-5,0.3-6.4c0.6-1,2.7-4.8,3-5.1c0.8-0.9,4-3.2,7.3-3
			c5.6-0.5,10.8,4.3,11.3,9.1C-227.3,398.4-229.7,406.9-229.8,407.2z"/>
		<ellipse class="st4" cx="-238.3" cy="399.5" rx="15.5" ry="15.7"/>
		<circle class="st4" cx="-238.4" cy="399.3" r="11.7"/>
		<path class="st2" d="M-239.5,405.2c-3.7-0.1-5.1-4.2-5-7.4c0.1-1.7-2.6-1.7-2.7,0c-0.1,4.7,2.4,10,7.7,10.1
			C-237.7,408-237.7,405.3-239.5,405.2z"/>
		<path class="st2" d="M-245.2,392.9c-0.7,0-1.3,0.6-1.3,1.3v0.1c0,0.7,0.5,1.3,1.3,1.3c0.7,0,1.3-0.6,1.3-1.3v-0.1
			C-244,393.5-244.5,392.9-245.2,392.9z"/>
	</g>
	<path class="st5" d="M-262.7,388.9c2,0.6,4.5,0.5,6.5,0.3c2.8-0.2,2.2-4.4-0.5-3.8c-1,0.2-2,0.4-3,0.6c-1,0.1-2,0.2-3,0.4
		C-263.9,386.9-263.8,388.5-262.7,388.9z"/>
	<path class="st6" d="M-255,385.4h-7.4c-0.2-0.2-0.4-0.3-0.7-0.3c-0.5,0-0.8,0.4-0.8,0.9c0,0.4,0,0.8,0,1.2c0,0.7,0,1.4,0,2.1v0.3
		c0,0.3,0.1,0.5,0.3,0.7c0.2,0.1,0.4,0.2,0.6,0.2h0.1c1.3-0.2,2.7-0.3,4.1-0.3c0.3,0,0.7,0,1,0s0.7,0,1,0c0.8,0,1.3,0,1.9,0
		c0.5,0,0.8-0.4,0.8-0.9v-3.1C-254.2,385.8-254.6,385.4-255,385.4z M-255.9,388.5c-0.6,0-1.3,0-2,0c-1.4,0-2.8,0-4.3,0.1
		c0-0.5,0-1,0-1.5V387h6.3L-255.9,388.5L-255.9,388.5z"/>
	<path class="st7" d="M-208.1,417.2c0,1.1-0.3,2.9-1.5,2.9h-57.3c-1.2,0-2-1.8-2-2.9v-35.7c0-1.1,0.8-2.6,2-2.6h57.3
		c1.2,0,1.5,1.5,1.5,2.6V417.2L-208.1,417.2z"/>
	<circle class="st4" cx="-238.1" cy="399.8" r="8"/>
</g>
<path class="st8" d="M-243,394.2l9.6,11.1c0,0-5.7,5.4-10.7-0.1C-249.2,399.8-243,394.2-243,394.2z"/>
<path class="st6" d="M-233.5,405.5l-10.6-11.1c0,0,6.3-5.4,11.8,0.1S-233.5,405.5-233.5,405.5z"/>
<path class="st9" d="M-265.1,378"/>
</svg>
