<?xml version="1.0" encoding="utf-8"?>
<!-- Generator: Adobe Illustrator 19.0.0, SVG Export Plug-In . SVG Version: 6.00 Build 0)  -->
<svg version="1.1" id="Capa_1" xmlns="http://www.w3.org/2000/svg" xmlns:xlink="http://www.w3.org/1999/xlink" x="0px" y="0px"
	 viewBox="-459 260.7 39.7 40.3" style="enable-background:new -459 260.7 39.7 40.3;" xml:space="preserve">
<style type="text/css">
	.st0{fill:#87D329;}
	.st1{fill:#F7F6F6;}
</style>
<circle id="XMLID_86_" class="st0" cx="-439.1" cy="281" r="18"/>
<g id="XMLID_80_">
	<path id="XMLID_84_" class="st1" d="M-431.3,286.9c0.3,0.4,0.4,0.8,0.4,1.1c0,1.3-1,2.3-2.6,2.3c-1.2,0-1.7-0.4-2.3-1.3
		c-1.3-1.8-1.9-2.6-3.3-4.5c-1.1,1.6-2.3,3.1-3.4,4.7c-0.6,0.7-1.2,1.1-2.1,1.1c-1.4,0-2.6-0.9-2.6-2.3c0-0.4,0.1-0.8,0.4-1.1
		c1.7-2.3,3.1-4.1,4.8-6.4c-1.5-2-3-3.8-4.4-5.9c-0.3-0.3-0.4-0.8-0.4-1.2c0-1.2,1.1-2.3,2.5-2.3s2,0.9,2.5,1.6l2.8,3.8l3-4.1
		c0.6-0.8,1.1-1.3,2.3-1.3c1.2,0,2.5,1,2.5,2.2c0,0.3-0.1,0.8-0.4,1.2l-4.4,5.9L-431.3,286.9z"/>
</g>
</svg>
