<?xml version="1.0" encoding="utf-8"?>
<!-- Generator: Adobe Illustrator 19.0.0, SVG Export Plug-In . SVG Version: 6.00 Build 0)  -->
<svg version="1.1" id="Capa_1" xmlns="http://www.w3.org/2000/svg" xmlns:xlink="http://www.w3.org/1999/xlink" x="0px" y="0px"
	 viewBox="-585 353 51.8 88" style="enable-background:new -585 353 51.8 88;" xml:space="preserve">
<style type="text/css">
	.st0{fill:#FDCD82;}
	.st1{fill:#E0DFE6;}
	.st2{fill:#224E6B;}
</style>
<g id="XMLID_33_">
	<path id="XMLID_72_" class="st0" d="M-555.9,424.7c-0.1-0.3-0.3-0.5-0.6-0.8c0.5-1.1,0.7-2.5,0.8-3.6c0.1-1.4-0.3-3.1-1.6-3.8
		c-0.4-0.2-1,0.3-0.5,0.7c0.1,0.1,0.1,0.1,0.1,0.1c-0.1,0-0.1,0-0.2,0c-0.1-0.3-0.1-0.5-0.2-0.8c-0.1-0.1-0.3-0.1-0.3,0
		c-0.3,0.5-0.6,1.4-0.8,2.1v0.1c-0.2,1-0.3,2.2-0.2,3.1c0.1,0.7,0.3,1.6,0.7,2.3v0.1c0,0.5,0.4,0.9,0.8,1c0.4,0.3,1,0.6,1.6,0.5
		C-555.9,425.8-555.7,425.3-555.9,424.7z"/>
	<path id="XMLID_71_" class="st1" d="M-568.3,408.5c0.5-1.6,0-3.6-0.2-5.2c-0.2-1.8-0.3-3.6-0.5-5.4c-0.1-0.5-0.9-0.5-1.1-0.1
		c-0.8,1.6-0.9,3.4-1,5.1c-0.1,1.7-0.6,3.8-0.1,5.6C-571,410.2-568.8,409.9-568.3,408.5z"/>
	<path id="XMLID_70_" class="st1" d="M-543.2,408.7c0.2-2.3-0.5-4.7-0.8-6.9c-0.1-0.8-0.2-3.5-1.2-3.7c-0.2-0.1-0.4,0.1-0.5,0.3
		c-0.6,1.5-0.8,2.9-1,4.5c-0.2,1.9-0.5,4-0.4,5.8C-547,411.2-543.5,411.2-543.2,408.7z"/>
	<path id="XMLID_69_" class="st1" d="M-551.7,394.7c0.3-0.4,0.3-1,0-1.3c1-1.4,1.2-3.4,0.8-5.2c-0.1-0.5-0.7-0.3-0.8,0.1
		c-0.3,2.2-1.2,4.5-3.5,5.2c-0.2,0.1-0.3,0.2-0.5,0.3c-1.2,0.5-2.4,1-3.8,0.8c-2.5-0.2-3.8-2.1-4.7-4.2c-0.1-0.3-0.6-0.1-0.6,0.2
		C-565.6,398.1-555.7,400-551.7,394.7z"/>
	<path id="XMLID_68_" class="st1" d="M-559.7,384.2c-1,0.7-3.5,3.2-2.1,4.5c0.1,0.1,0.3,0.1,0.5,0c0.4-0.3,0.6-0.9,1-1.2
		c0.4-0.3,0.9-0.7,1.4-1c0.3-0.1,1-0.4,1.4-0.3c0.5,0.1,0.8,0.6,1.2,0.9c1.1,0.8,2.3-0.5,2.1-1.6
		C-554.6,383-557.9,383.1-559.7,384.2z"/>
	<path id="XMLID_67_" class="st1" d="M-563.2,369.3c1.5,0.4,3.1,0.8,4.7,1c1.4,0.2,3,0.5,4.3-0.2c0.8-0.4,0.8-1.7,0-2.1
		c-0.1,0-0.1-0.1-0.2-0.1c0.3-0.4,0.3-1,0-1.4c-0.5-0.8-1.4-1.3-2-2.1c-0.5-0.7-1-1.4-1.7-2c-0.5-0.3-1,0.2-0.9,0.7
		c0.2,0.9,0.7,1.8,1,2.7c0.3,0.6,0.5,1.2,0.8,1.8c-0.4,0-0.8,0.1-1.2,0.1c-1.6,0.1-3.2,0.1-4.7,0.2
		C-563.8,368-564.1,369.1-563.2,369.3z"/>
	<path id="XMLID_66_" class="st1" d="M-562.7,421.8c-0.2,0.1-0.4,0.3-0.5,0.5c-0.5,0.9-0.3,2,0.1,3.1c0,0.2,0,0.3,0,0.5
		c0,0.4,0.3,0.7,0.6,0.8c0.3,0.7,0.8,1.3,1.1,1.9c1.4,2.3,4,4,4.2,6.7c0,0.3,0.5,0.3,0.5,0c0.1-0.1,0.1-0.3,0.1-0.4
		c0.1-0.1,0-0.3-0.1-0.3c-0.1-1.9-1.4-3.4-2.6-4.9c-0.8-1.1-1.4-2.3-1.7-3.6c-0.2-1.2,0.2-2.5-0.4-3.6c-0.1-0.1-0.1-0.2-0.2-0.3
		c0-1.1,0.1-2.3-0.1-3.4c0-0.3-0.6-0.5-0.7-0.1C-562.3,419.7-562.5,420.8-562.7,421.8z"/>
	<path id="XMLID_65_" class="st1" d="M-552.5,420.4c-0.3-0.6-1.3-0.2-1.1,0.5c1.4,4-1.3,7.6-2.6,11.2c-0.1,0.2,0.3,0.4,0.4,0.1
		C-554.2,428.7-550.5,424.5-552.5,420.4z"/>
	<path id="XMLID_64_" class="st1" d="M-553.8,429.7c-0.9,2.3-1.9,4.9-2.1,7.3c-0.1,0.4,0.6,0.5,0.8,0.1c0.8-2.4,1.9-4.7,2.7-7.1
		C-552.3,429.3-553.5,429-553.8,429.7z"/>
	<path id="XMLID_63_" class="st2" d="M-563.5,367h1c0.1-0.2,0.3-0.4,0.4-0.6l0.9-1.3c0.1-0.2,0.3-0.4,0.5-0.6l0.5-0.6l0.5-0.6
		c0.1-0.2,0.3-0.3,0.5-0.5c0.2-0.2,0.4-0.3,0.5-0.5c-0.1,0-0.1,0-0.1,0c-0.3,0-0.5-0.2-0.5-0.5v-0.1c-0.2,0.2-0.3,0.3-0.5,0.5
		c-0.2,0.2-0.4,0.3-0.5,0.5l-0.7,0.4l-0.5,0.6c-0.2,0.2-0.3,0.4-0.5,0.6l-1,1.3c-0.3,0.4-0.5,0.9-0.9,1.4
		C-563.8,367-563.6,367-563.5,367z"/>
	<path id="XMLID_62_" class="st2" d="M-558.3,361.6c0,0.1-0.1,0.3-0.1,0.4l0.6,0.8l1,1.2l0.9,1.3l0.8,1.3l0.1,0.1h0.8
		c0.1,0,0.2,0.1,0.3,0.1l-0.3-0.7l-0.8-1.4l-0.9-1.3l-1-1.3l-1-1.2v-0.1c-0.1-0.1-0.1-0.1-0.2-0.1
		C-558.3,361.2-558.3,361.6-558.3,361.6z"/>
	<path id="XMLID_61_" class="st2" d="M-554.2,367.7h-0.3l0.1,0.3l0.7,1.4l0.7,1.4c0.2,0.5,0.4,1,0.6,1.4c0.4,1,0.8,2,1.1,3
		s0.6,2,0.9,3c0.3,1,0.5,2.1,0.8,3.1c0.2,1,0.4,2.1,0.6,3.1c0.1,0.5,0.2,1,0.3,1.6c0.1,0.5,0.1,1,0.2,1.6c0.1,1,0.3,2.1,0.4,3.2
		c0.2,2.1,0.4,4.2,0.5,6.3c0.1,2.1,0.2,4.3,0.3,6.3l0.1,3.2c0,0.9,0,1.7,0,2.6c-3.4-0.1-6.9-0.2-10.3-0.3c-1.9-0.1-3.6-0.1-5.5-0.1
		h-2.7h-2.3c0,0.2-0.1,0.4-0.3,0.5l-0.7,0.5c0.1,0.1,0.2,0.1,0.3,0.1h2.7h2.1l-0.1-0.5v-0.1c0-0.3,0.2-0.5,0.5-0.5s0.5,0.2,0.5,0.5
		l0.1,0.7h1.1c0-0.1,0-0.2-0.1-0.3c0-0.1,0-0.2,0-0.2c-0.1-0.3,0.1-0.5,0.4-0.5c0.3-0.1,0.5,0.1,0.5,0.3c0,0,0,0.1,0,0.2
		s0.1,0.3,0.1,0.5h1.7c0-0.1,0-0.1,0-0.1c0-0.1,0.1-0.2,0.1-0.2c0.1-0.3,0.3-0.4,0.6-0.3s0.4,0.3,0.3,0.6v0.1h0.1c0.4,0,0.8,0,1.2,0
		V410c0-0.1-0.1-0.1-0.1-0.1c-0.1-0.3,0-0.5,0.3-0.7c0.3-0.1,0.5,0,0.7,0.3c0,0,0,0.1,0.1,0.2c0.1,0.1,0.1,0.3,0.1,0.4
		c0.3,0,0.6,0,1,0c0-0.1,0-0.1,0-0.1s0-0.1,0.1-0.1v-0.1c0.1-0.3,0.3-0.4,0.6-0.3c0.3,0.1,0.4,0.3,0.3,0.6c0,0,0,0,0,0.1l0,0
		c0.3,0,0.6,0,0.9,0l-0.1-0.5c0-0.3,0.2-0.5,0.5-0.6c0.3,0,0.5,0.2,0.6,0.5l0.1,0.7c1.6,0,3.1,0.1,4.7,0.1l0,0
		c0.2,0,0.3-0.1,0.5-0.3c-0.2-0.1-0.5-0.2-0.7-0.3c-0.3-0.1-0.3-0.4-0.3-0.7c0.1-0.3,0.4-0.3,0.7-0.3c0.1,0.1,0.2,0.1,0.3,0.1
		c0-0.8-0.1-1.6-0.1-2.4c0-1-0.1-2.1-0.1-3.2c-0.1-1.9-0.1-3.8-0.2-5.8c-0.3-0.2-0.6-0.4-0.9-0.6c-0.3-0.2-0.3-0.5-0.1-0.8
		c0.1-0.2,0.5-0.3,0.8-0.1c0.1,0.1,0.1,0.1,0.2,0.1c-0.1-1.9-0.3-3.7-0.5-5.6c-0.1-1-0.3-2.1-0.4-3.2c-0.1-0.5-0.1-1-0.2-1.6
		c-0.1-0.5-0.1-1-0.3-1.6c-0.2-1-0.4-2.1-0.6-3.2c-0.2-1-0.5-2.1-0.8-3.1s-0.6-2.1-1-3.1c-0.3-1-0.7-2-1.1-3c-0.2-0.5-0.4-1-0.6-1.5
		l-0.7-1.4l-0.8-1.4l-0.2-0.3c0,0,0,0,0,0.1C-553.7,367.5-553.9,367.7-554.2,367.7z"/>
	<path id="XMLID_60_" class="st2" d="M-568.7,395c0.2,0.2,0.2,0.5,0,0.7c-0.3,0.3-0.5,0.5-0.9,0.8c0,0.1,0,0.1,0,0.1
		c0.1,4,0.3,8,0.4,11.9l0.2-0.1c0.3-0.2,0.6-0.1,0.8,0.1c0,0.1,0.1,0.1,0.1,0.1c-0.1-4-0.3-8-0.4-12c0-1,0-2.1,0-3.2
		c0-1,0-2.1,0.1-3.2c0-1,0.1-2.1,0.1-3.2l0.1-1.6c0.2-0.4,0.2-0.8,0.2-1.4c0.1-0.5,0.1-1,0.2-1.6l0.2-1.6c0.1-0.5,0.2-1,0.3-1.6
		c0.1-0.5,0.2-1,0.3-1.5l0.3-1.5l0.4-1.5c0.1-0.5,0.3-1,0.5-1.5s0.3-1,0.5-1.4l0.6-1.4c0.2-0.5,0.5-1,0.7-1.4l0.3-0.7l0.2-0.3h-0.3
		c-0.3,0-0.5-0.2-0.5-0.5c0-0.1,0-0.1,0-0.1l-0.3,0.4l-0.3,0.7c-0.3,0.5-0.5,1-0.8,1.4l-0.6,1.5c-0.2,0.5-0.4,1-0.5,1.5
		c-0.2,0.5-0.3,1-0.5,1.5l-0.4,1.6l-0.4,1.6c-0.1,0.5-0.2,1-0.3,1.6c-0.1,0.5-0.2,1-0.3,1.6l-0.3,1.5c-0.1,0.5-0.1,1-0.2,1.6
		c-0.1,0.5-0.1,1-0.1,1.6l-0.2,1.5c-0.1,1.1-0.1,2.1-0.1,3.2c-0.1,1.1-0.1,2.1-0.1,3.2c0,0.5,0,1.2,0,1.7c0.1-0.1,0.1-0.1,0.2-0.2
		C-569.1,394.8-568.9,394.8-568.7,395z"/>
	<path id="XMLID_59_" class="st2" d="M-558.6,414c0,0,0-0.1,0-0.2v-0.1c0,0,0,0,0-0.1c0,0,0,0,0-0.1s0-0.1,0-0.2c0-0.1,0-0.1,0-0.2
		c-0.6,0-1.2,0-1.8,0.1c0,0.3,0,0.5,0,0.5c0,0.3-0.2,0.5-0.5,0.5c-0.3,0-0.5-0.2-0.5-0.5c0,0,0-0.2,0-0.5c-0.3,0-0.6,0-1,0l-0.1-3.2
		l-0.1-0.7c0-0.3-0.3-0.5-0.5-0.5c-0.3,0-0.5,0.3-0.5,0.5v0.1l0.1,0.5l0.3,3.9c0,0.3,0.3,0.5,0.5,0.5c1.4,0,3,0,4.4-0.1
		C-558.5,414.2-558.6,414.1-558.6,414z"/>
	<path id="XMLID_58_" class="st2" d="M-551.5,409.6c0-0.3-0.3-0.5-0.6-0.5c-0.3,0-0.5,0.3-0.5,0.6l0.1,0.5l0.1,1.4
		c0.1,0.5,0.1,0.9,0.1,1.4c-0.3,0-0.5,0-0.8,0c-0.1,0-0.1,0-0.1,0c0,0.1,0,0.1,0,0.3c0,0.1,0,0.2,0,0.3s0,0.1,0,0.2
		c0,0.1,0,0.2,0,0.2c0,0.1-0.1,0.2-0.1,0.3c0.1,0,0.1,0,0.2,0c0.5,0,0.9,0,1.4,0h0.1h0.1c0.3,0,0.5-0.3,0.5-0.6
		c-0.1-0.7-0.1-1.4-0.2-2.1l-0.1-1.4C-551.4,410.2-551.5,409.6-551.5,409.6z"/>
	<path id="XMLID_57_" class="st2" d="M-577.4,405l0.1,3l0.1,3.2c0,1,0.1,2.1,0.1,3.2l0,0c0,0.1,0.1,0.2,0.1,0.3
		c0.2,0.3,0.5,0.3,0.8,0.1c0.7-0.5,1.3-0.9,2-1.4l2-1.4l3.3-2.3l0.7-0.5c0.2-0.1,0.3-0.3,0.3-0.5c0-0.1,0-0.1,0-0.1
		c0-0.1-0.1-0.1-0.1-0.1c-0.2-0.3-0.5-0.3-0.8-0.1l-0.3,0.1l-3.7,2.6l-2,1.4c-0.4,0.3-0.8,0.5-1.2,0.8l-0.2-5.3c-0.1-2-0.1-4-0.3-6
		c1.3-1,2.6-1.9,3.9-3c0.7-0.5,1.4-1.1,2-1.6c0.3-0.3,0.7-0.6,1-1c0.3-0.3,0.6-0.5,0.9-0.8c0.2-0.2,0.2-0.5,0-0.7
		c-0.2-0.2-0.5-0.2-0.7,0c-0.1,0.1-0.1,0.1-0.2,0.2c-0.5,0.5-1.1,1-1.7,1.5c-0.6,0.5-1.3,1.1-2,1.6c-1.3,1-2.7,2.1-4.1,3
		c-0.1,0.1-0.2,0.3-0.2,0.5C-577.5,402.9-577.4,403.9-577.4,405z"/>
	<path id="XMLID_56_" class="st2" d="M-547.6,396.2c-0.1,0.3-0.1,0.5,0.1,0.8c0.3,0.2,0.6,0.4,0.9,0.6c0.3,0.2,0.7,0.4,1,0.6
		c0.6,0.4,1.3,0.8,1.9,1.2l1.9,1.1c0.5,0.3,1.1,0.6,1.7,0.9c0,0.4,0.1,0.8,0.1,1.2c0,0.5,0.1,1,0.1,1.6c0.1,1,0.1,2.1,0.1,3.1
		l0.2,3.1l0.1,2.1c-1-0.5-2.1-1.1-3.2-1.6c-1.2-0.6-2.4-1.3-3.7-1.9c-0.1-0.1-0.2-0.1-0.3-0.1c-0.3-0.1-0.5,0-0.7,0.3
		c-0.1,0.3,0,0.5,0.3,0.7c0.2,0.1,0.5,0.2,0.7,0.3c1.1,0.5,2.2,1.2,3.3,1.7c1.3,0.7,2.7,1.4,4.1,2.1c0.1,0.1,0.2,0.1,0.3,0.1
		c0.3,0,0.5-0.3,0.5-0.5l-0.2-3.1l-0.2-3.1l-0.2-3.1l-0.1-1.6c0-0.5,0-1-0.1-1.6c0-0.1-0.1-0.3-0.3-0.4l0,0
		c-0.6-0.4-1.3-0.8-1.9-1.1l-1.9-1.1c-0.6-0.3-1.3-0.8-1.9-1.1c-0.5-0.3-1.1-0.7-1.6-1c-0.1-0.1-0.1-0.1-0.2-0.1
		C-547.1,395.9-547.4,396-547.6,396.2z"/>
	<path id="XMLID_53_" class="st2" d="M-564.9,388.4c0.1,0.3,0.1,0.6,0.1,0.9c0.1,0.6,0.3,1.2,0.6,1.8c0.3,0.5,0.6,1.1,1.1,1.6
		c0.4,0.5,1,0.9,1.6,1.2c0.5,0.3,1.2,0.5,1.9,0.7c0.3,0.1,0.7,0.1,1,0.1c0.2,0,0.3,0,0.5,0h0.5c0.7-0.1,1.4-0.2,2-0.4
		c0.6-0.2,1.2-0.5,1.8-1c0.5-0.4,1-0.9,1.4-1.4c0.3-0.5,0.7-1.2,0.8-1.8c0.1-0.1,0.1-0.3,0.1-0.5c0-0.1,0.1-0.3,0.1-0.5
		c0-0.1,0-0.3,0-0.5v-0.2c0-0.1,0,0,0-0.1l0,0v-0.1v-0.1c0-0.1,0-0.3,0-0.4v-0.2l-0.1-0.2c-0.1-0.3-0.1-0.6-0.2-0.9
		c-0.3-1.1-0.9-2.1-1.5-2.8c-1.2-1.6-2.7-2.4-3.8-2.8c-0.3-0.1-0.5-0.2-0.8-0.2c-0.1,0-0.2-0.1-0.3-0.1c-0.1,0-0.2,0-0.3,0
		c-0.1,0-0.1,0-0.2,0c-0.1,0-0.1,0-0.1,0c-0.1,0-0.1,0-0.1,0h-0.2c0,0-0.1,0-0.4,0.1c-0.1,0-0.3,0.1-0.5,0.1
		c-0.3,0.1-0.5,0.1-0.8,0.3c-0.5,0.2-1.2,0.6-1.8,1.2c-0.6,0.5-1.2,1.3-1.6,2.3c-0.4,0.9-0.7,2-0.7,3.2v0.2v0.2
		C-564.9,388.1-564.9,388.3-564.9,388.4z M-563.8,387.6c0-1,0.3-1.9,0.6-2.7c0.3-0.8,0.8-1.4,1.3-1.9s1-0.8,1.4-1
		c0.2-0.1,0.4-0.2,0.6-0.2c0.2-0.1,0.3-0.1,0.5-0.1c0.2,0,0.3-0.1,0.4-0.1h0.1h0.1c0.1,0,0.1,0,0.1,0c0.1,0,0.1,0,0.2,0
		s0.1,0,0.3,0.1c0.2,0,0.4,0.1,0.6,0.2c0.5,0.2,1,0.5,1.6,0.9c0.5,0.4,1.2,1,1.7,1.6c0.5,0.7,1,1.5,1.3,2.5c0.1,0.2,0.1,0.5,0.1,0.7
		v0.2v0.2c0,0.1,0,0.3,0,0.4v0.1v0.1v0.2c0,0.1,0,0.3,0,0.4c0,0.1-0.1,0.3-0.1,0.4s-0.1,0.3-0.1,0.4c-0.3,1-0.9,1.9-1.8,2.5
		c-0.9,0.7-2,1-3.1,1.2h-0.5h-0.4c-0.3,0-0.5-0.1-0.8-0.1c-0.5-0.1-1.1-0.3-1.6-0.5c-1-0.5-1.7-1.4-2.2-2.3c-0.2-0.5-0.4-1-0.5-1.5
		c-0.1-0.3-0.1-0.5-0.1-0.8c0-0.1,0-0.3,0-0.4v-0.2L-563.8,387.6z"/>
	<path id="XMLID_50_" class="st2" d="M-563.2,388.2c0,0.2,0.1,0.5,0.1,0.7c0.1,0.4,0.2,0.9,0.4,1.3c0.4,0.8,1.1,1.6,1.9,2.1
		c0.4,0.3,0.9,0.4,1.4,0.5c0.3,0.1,0.5,0.1,0.8,0.1c0.1,0,0.2,0,0.4,0h0.3c0.5-0.1,1-0.1,1.5-0.3c0.5-0.1,0.9-0.4,1.3-0.7
		c0.8-0.6,1.4-1.4,1.6-2.4c0.1-0.2,0.1-0.5,0.1-0.7v-0.3v-0.1v-0.1v-0.1v-0.1v-0.3v-0.1v-0.2c-0.1-0.2-0.1-0.5-0.1-0.7
		c-0.3-0.8-0.7-1.5-1.1-2.1c-0.9-1.1-2-1.7-2.8-2.1c-0.2-0.1-0.4-0.1-0.5-0.1c-0.1,0-0.1,0-0.3-0.1c-0.1,0-0.1,0-0.2,0
		c-0.1,0-0.1,0-0.1,0c-0.1,0-0.1,0-0.1,0c-0.1,0-0.1,0-0.1,0h-0.1c0,0-0.1,0-0.3,0.1c-0.1,0-0.3,0.1-0.4,0.1
		c-0.2,0.1-0.3,0.1-0.5,0.2c-0.4,0.2-0.9,0.4-1.3,0.9c-0.4,0.4-0.8,1-1.2,1.6c-0.3,0.7-0.5,1.4-0.5,2.3v0.1v0.1L-563.2,388.2z
		 M-562.1,387.6c0-0.7,0.1-1.3,0.4-1.9c0.3-0.5,0.5-1,0.9-1.3c0.4-0.3,0.7-0.5,1-0.7c0.1-0.1,0.3-0.1,0.4-0.1c0.1,0,0.2-0.1,0.3-0.1
		c0.1,0,0.3,0,0.3-0.1c0,0,0,0,0.1,0c0,0,0,0,0.1,0l0,0h0.1c0.1,0,0.1,0,0.1,0c0.1,0,0.1,0,0.1,0.1c0.1,0,0.3,0.1,0.4,0.1
		c0.3,0.1,0.7,0.3,1.1,0.6c0.4,0.3,0.8,0.7,1.2,1.1c0.3,0.5,0.7,1,0.9,1.7c0.1,0.1,0.1,0.3,0.1,0.5v0.1v0.1v0.3v0.1l0,0v0.1v0.3
		c0,0.2-0.1,0.3-0.1,0.5c-0.2,0.7-0.6,1.3-1.2,1.7c-0.5,0.5-1.4,0.8-2.1,0.8c-0.8,0.1-1.6-0.1-2.3-0.4c-0.7-0.3-1.2-1-1.5-1.6
		c-0.1-0.3-0.3-0.7-0.3-1c-0.1-0.2-0.1-0.3-0.1-0.5v-0.3v-0.1v0H-562.1z"/>
	<path id="XMLID_49_" class="st2" d="M-549.5,421.4c-0.1-0.5-0.2-1.2-0.4-1.7c-0.2-0.5-0.4-1.1-0.6-1.6c-0.3-0.5-0.5-1-0.9-1.5
		c-0.1-0.3-0.3-0.5-0.5-0.7c-0.2-0.3-0.4-0.4-0.5-0.6c-0.3-0.3-0.6-0.3-0.8-0.2s-0.2,0.5-0.1,0.7c0.2,0.2,0.4,0.5,0.5,0.6
		c0.1,0.2,0.3,0.4,0.5,0.6c0.3,0.5,0.5,0.9,0.8,1.4c0.2,0.5,0.4,1,0.5,1.5s0.3,1,0.3,1.6c0.1,0.5,0.1,1.1,0.2,1.6
		c0,0.5,0.1,1.1,0,1.6c0,0.5,0,1.1-0.1,1.6l-0.1,0.8l-0.1,0.8l-0.1,0.4l-0.1,0.4c-0.1,0.3-0.1,0.5-0.1,0.8c-0.1,0.5-0.3,1-0.4,1.6
		l-0.1,0.4l-0.1,0.3c-0.1,0.3-0.2,0.5-0.3,0.8s-0.2,0.5-0.3,0.8l-0.4,0.7l-0.4,0.9c-0.1,0.2-0.3,0.5-0.5,0.7c-0.3,0.5-0.6,0.9-1,1.4
		c-0.3,0.4-0.7,0.9-1,1.3l-0.6,0.8l-0.8-0.8c-0.4-0.4-0.8-0.8-1.2-1.2c-0.4-0.4-0.8-0.8-1.2-1.2c-0.4-0.4-0.8-0.8-1.1-1.2
		c-0.2-0.2-0.3-0.4-0.5-0.7c-0.1-0.2-0.3-0.4-0.5-0.7l-0.5-0.7c-0.1-0.2-0.3-0.5-0.4-0.7c-0.1-0.2-0.3-0.5-0.4-0.8
		c-0.1-0.3-0.3-0.5-0.3-0.8c-0.2-0.5-0.4-1-0.5-1.6c-0.2-0.5-0.3-1.1-0.4-1.6c-0.1-0.3-0.1-0.5-0.1-0.8c0-0.3-0.1-0.5-0.1-0.8
		l-0.1-0.8v-0.4V424c0-0.5,0.1-1.1,0.1-1.6c0.3-2.2,1.2-4.3,2.5-6.1c0.1-0.2,0.1-0.5-0.1-0.7c-0.2-0.1-0.5-0.1-0.7,0.1
		c-1.4,1.9-2.4,4.2-2.7,6.5c-0.1,0.6-0.1,1.2-0.1,1.8v0.4v0.4v0.9c0,0.3,0.1,0.6,0.1,0.9c0.1,0.3,0.1,0.6,0.1,0.9
		c0.1,0.5,0.2,1.2,0.4,1.7c0.1,0.5,0.4,1.1,0.6,1.7c0.1,0.3,0.3,0.5,0.3,0.8c0.1,0.3,0.3,0.5,0.4,0.8c0.1,0.3,0.3,0.5,0.5,0.8
		l0.5,0.8c0.1,0.3,0.3,0.5,0.5,0.7c0.2,0.2,0.3,0.5,0.5,0.7c0.3,0.5,0.8,0.9,1.2,1.3c0.4,0.4,0.8,0.8,1.2,1.2
		c0.4,0.4,0.8,0.8,1.3,1.2l1.3,1.2l0,0c0.3,0.2,0.6,0.1,0.8-0.1c0.7-0.9,1.4-1.8,2.1-2.7c0.3-0.5,0.7-0.9,1-1.4
		c0.1-0.3,0.3-0.5,0.5-0.8l0.5-0.8l0.4-0.8c0.1-0.3,0.3-0.5,0.3-0.8c0.1-0.3,0.2-0.5,0.3-0.8l0.1-0.4l0.1-0.4
		c0.2-0.5,0.3-1.1,0.5-1.6c0.1-0.3,0.1-0.5,0.1-0.8l0.1-0.4l0.1-0.4l0.1-0.9l0.1-0.9c0.1-0.6,0.1-1.2,0.1-1.7c0-0.6,0-1.2-0.1-1.7
		C-549.4,422.5-549.4,422-549.5,421.4z"/>
	<path id="XMLID_41_" class="st2" d="M-560.2,418.7c0.1-0.9,0.5-1.8,1.2-2.5c0.1-0.2,0.1-0.5,0-0.6c-0.2-0.1-0.5-0.1-0.6,0
		c-0.3,0.4-0.7,0.8-1,1.4c-0.3,0.5-0.5,1-0.5,1.6c0,0.1-0.1,0.3-0.1,0.4s0,0.3,0,0.4c0,0.3,0,0.5,0.1,0.8c0,0.3,0.1,0.5,0.1,0.8
		c0.1,0.3,0.1,0.5,0.2,0.8c0.3,1,0.8,2,1.4,2.9c0.5,0.9,1.2,1.7,1.8,2.6c0.1,0.1,0.1,0.1,0.2,0.1c0.3,0.1,0.6,0.1,0.8-0.2
		c0.5-0.8,0.9-1.7,1.2-2.7c0.3-0.9,0.5-1.9,0.7-2.8c0-0.3,0.1-0.5,0.1-0.8c0-0.3,0-0.5,0-0.8s0-0.5,0-0.8c0-0.3-0.1-0.5-0.1-0.8
		c-0.1-0.5-0.2-1-0.3-1.4c-0.1-0.2-0.1-0.5-0.2-0.7c-0.1-0.2-0.2-0.5-0.3-0.7c-0.1-0.3-0.4-0.3-0.6-0.3c-0.3,0.1-0.3,0.4-0.3,0.6
		c0.1,0.2,0.2,0.4,0.3,0.6c0.1,0.2,0.1,0.4,0.2,0.6c0.1,0.4,0.2,0.9,0.3,1.3c0,0.2,0.1,0.4,0.1,0.7c0,0.2,0,0.5,0,0.7s0,0.5,0,0.7
		c0,0.2-0.1,0.4-0.1,0.7c-0.2,1.5-0.7,3-1.3,4.3c-0.4-0.5-0.8-1.2-1.2-1.8c-0.5-0.8-1-1.7-1.3-2.7c-0.1-0.2-0.1-0.5-0.2-0.7
		c-0.1-0.2-0.1-0.5-0.1-0.7c-0.1-0.2-0.1-0.5-0.1-0.7c0-0.1,0-0.2,0-0.3C-560.2,418.9-560.2,418.8-560.2,418.7z"/>
	<path id="XMLID_40_" class="st2" d="M-561.4,411.6c0,0.5,0,1,0,1.4c0,0.1,0,0.1,0,0.2c0,0.3,0,0.5,0,0.5c0,0.3,0.2,0.5,0.5,0.5
		c0.3,0,0.5-0.2,0.5-0.5c0,0,0-0.2,0-0.5c0-0.1,0-0.1,0-0.1c0-0.4,0-1-0.1-1.5c0-0.5-0.1-1.1-0.1-1.5l0,0c0-0.2-0.1-0.3-0.1-0.5
		c0-0.2,0-0.2,0-0.2c-0.1-0.3-0.3-0.4-0.5-0.3c-0.3,0.1-0.4,0.3-0.4,0.5c0,0,0,0.1,0,0.2c0,0.1,0,0.2,0.1,0.3c0,0.1,0,0.1,0,0.1
		C-561.4,410.6-561.4,411.1-561.4,411.6z"/>
	<path id="XMLID_38_" class="st2" d="M-557.5,413.8L-557.5,413.8L-557.5,413.8v-0.2c0-0.1,0-0.2,0-0.3c0-0.1,0-0.1,0-0.1
		c-0.1-0.4-0.1-0.9-0.2-1.3c-0.1-0.3-0.1-0.5-0.1-0.7c0-0.1,0-0.2,0-0.3c0-0.1,0-0.1,0-0.1c0-0.1,0-0.1,0-0.1c0-0.1,0-0.3,0.1-0.4
		c0,0,0,0,0-0.1s0-0.1,0-0.1c0.1-0.3-0.1-0.5-0.3-0.6c-0.3-0.1-0.5,0.1-0.6,0.3c0,0,0,0.1-0.1,0.2c0,0.1,0,0.1,0,0.1
		c0,0.1-0.1,0.2-0.1,0.4c0,0.1,0,0.1,0,0.2s0,0.1,0,0.2c0,0.1,0,0.3,0,0.4c0,0.3,0.1,0.5,0.1,0.8c0.1,0.4,0.1,0.8,0.2,1.2
		c0,0.1,0,0.1,0,0.2c0,0.1,0,0.1,0,0.2c0,0,0,0,0,0.1c0,0,0,0,0,0.1v0.1c0,0.1,0,0.2,0,0.2c0,0.1,0.1,0.3,0.1,0.4
		c0.1,0.1,0.2,0.1,0.3,0.1c0.1,0,0.3-0.1,0.4-0.1c0.1-0.1,0.1-0.2,0.1-0.3C-557.5,414-557.5,413.9-557.5,413.8z"/>
	<path id="XMLID_37_" class="st2" d="M-556.4,411c0,0.2,0,0.5,0,0.7c0,0.3,0,0.5,0,0.8c0,0.2,0,0.5,0,0.7l0,0
		c0.1,0.4,0.1,0.7,0.1,0.7v0.1c0.1,0.3,0.4,0.4,0.7,0.3c0.3-0.1,0.4-0.4,0.3-0.7c0,0-0.1-0.1-0.1-0.5V413c0-0.1,0-0.3-0.1-0.6
		c0-0.2,0-0.5,0-0.8c0-0.3,0-0.5,0-0.8c0-0.3-0.1-0.5-0.1-0.7V410c-0.1-0.1-0.1-0.3-0.1-0.4c-0.1-0.1-0.1-0.1-0.1-0.2
		c-0.1-0.3-0.4-0.4-0.7-0.3s-0.4,0.4-0.3,0.7c0,0,0,0.1,0.1,0.1v0.1c0,0.1,0.1,0.2,0.1,0.3C-556.4,410.6-556.4,410.8-556.4,411z"/>
	<path id="XMLID_36_" class="st2" d="M-553.3,413.8c0-0.1,0-0.1,0-0.2s0-0.2,0-0.3c0-0.1,0-0.1,0-0.3c-0.1-0.3-0.1-0.8-0.1-1.2
		c-0.1-0.3-0.1-0.5-0.1-0.7c0-0.1,0-0.1,0-0.1c0-0.1,0-0.1,0-0.1c0-0.1,0-0.2,0-0.3s0-0.3,0.1-0.3v-0.1l0,0v-0.1
		c0.1-0.3-0.1-0.5-0.3-0.6c-0.3-0.1-0.5,0.1-0.6,0.3c0,0,0,0,0,0.1c0,0,0,0.1-0.1,0.1c0,0.1,0,0.1,0,0.1c0,0.1-0.1,0.2-0.1,0.4
		c0,0.1,0,0.2,0,0.3c0,0.1,0,0.1,0,0.2s0,0.1,0,0.2c0,0.3,0.1,0.5,0.1,0.8c0.1,0.3,0.1,0.8,0.1,1c0,0.1,0,0.2,0,0.3
		c0,0.1,0,0.1,0,0.2s0,0.1,0,0.1c0,0.1,0,0.2,0,0.2c0,0.1,0.1,0.3,0.1,0.3c0.1,0.1,0.3,0.2,0.4,0.2c0.2,0,0.3-0.1,0.5-0.2
		C-553.2,414-553.2,413.9-553.3,413.8C-553.3,414-553.3,413.9-553.3,413.8z"/>
	<path id="XMLID_35_" class="st2" d="M-563.5,368h0.3l8.7-0.3h0.3c0.3,0,0.5-0.3,0.5-0.5c0,0,0,0,0-0.1s-0.1-0.3-0.2-0.3
		c-0.1-0.1-0.2-0.1-0.3-0.1h-0.8l-7.5,0.3h-1c-0.1,0-0.2,0.1-0.3,0.1c-0.1,0.1-0.1,0.1-0.1,0.3c0,0.1,0,0.1,0,0.1
		C-564,367.7-563.8,368-563.5,368z"/>
	<path id="XMLID_34_" class="st2" d="M-559.4,361.6c0,0.3,0.3,0.5,0.5,0.5c0.1,0,0.1,0,0.1,0c0.1,0,0.1-0.1,0.2-0.1
		c0.1-0.1,0.1-0.2,0.1-0.4c0,0,0-0.3,0-0.8c0-0.1,0-0.2,0-0.3c0-0.7-0.1-1.6-0.1-2.5c0-0.4,0-0.9-0.1-1.3c0-0.2,0-0.4,0-0.6
		c0-0.2,0-0.3,0-0.5c0-0.7,0-1.1,0-1.1c0-0.3-0.2-0.5-0.5-0.5s-0.5,0.2-0.5,0.5c0,0,0,0.4,0,1.1c0,0.1,0,0.3,0,0.5
		c0,0.2,0,0.4,0,0.6c0,0.4,0,0.9,0,1.3c0,0.9,0.1,1.8,0.1,2.5c0,0.5,0,0.8,0,1C-559.4,361.6-559.4,361.6-559.4,361.6z"/>
</g>
</svg>
