<?xml version="1.0" encoding="utf-8"?>
<!-- Generator: Adobe Illustrator 16.0.0, SVG Export Plug-In . SVG Version: 6.00 Build 0)  -->
<!DOCTYPE svg PUBLIC "-//W3C//DTD SVG 1.1//EN" "http://www.w3.org/Graphics/SVG/1.1/DTD/svg11.dtd">
<svg version="1.1" id="Capa_1" xmlns="http://www.w3.org/2000/svg" xmlns:xlink="http://www.w3.org/1999/xlink" x="0px" y="0px"
	 width="59px" height="58.25px" viewBox="0 0 59 58.25" enable-background="new 0 0 59 58.25" xml:space="preserve">
<circle fill="none" stroke="#1D4B66" stroke-width="2" stroke-linecap="round" stroke-miterlimit="10" cx="30.292" cy="29.661" r="26.051"/>
<path fill-rule="evenodd" clip-rule="evenodd" fill="#03A7DB" stroke="#1D4B66" stroke-width="1.3" stroke-miterlimit="10" d="
	M38.28,48.979c-0.249,1.126-0.504,2.25-0.741,3.378c-0.093,0.435-0.06,1.017-0.679,0.958c-0.477-0.045-1.009-0.21-1.383-0.5
	c-0.518-0.398,0.055-0.778,0.206-1.152c0.293-0.73,1.443-1.454,0.851-2.104c-0.673-0.741-1.633-1.325-3.001-1.149
	c-0.958,0.123-1.98-0.063-2.993,0.291c-2.037,0.712-2.455-1.279-3.474-2.277c-1.727-1.695-2.968-3.924-5.58-4.627
	c-1.35-0.361-2.651-0.751-4.023-1.027c-1.979-0.398-4.005-1.583-5.544-3.205c-0.374-0.395,0.618-2.816,1.3-2.976
	c1.649-0.389,2.221-1.819,2.996-3.035c0.648-1.018-0.15-2.123-0.192-3.157c-0.095-2.383,0.767-5.042-1.055-7.19
	c-0.363-0.429-0.336-0.759,0.196-1.076c0.68-0.403,1.039-1.109,1.377-1.808c0.05-0.31,0.161-0.58,0.439-0.75
	c1.348-1.042,2.002-2.982,3.986-3.191c0.72-0.556,0.291-1.257,0.232-1.911c0.174-2.208,0.926-2.726,3.044-2.398
	c0.774,0.12,0.703-0.751,0.763-1.32c0.94-0.881,2.219,0.342,3.16-0.53C29.437,7.665,30.647,6.974,31.642,6
	c0.413-0.404,0.704-0.762,1.236-0.399c0.305,0.207,0.734,0.564,0.721,0.835c-0.022,0.465-0.607,0.548-0.97,0.781
	c-1.938,1.243-3.537,2.785-4.01,5.194c-0.165,0.843-0.548,1.566-0.948,2.303c1.909,0.46,1.875,2.244,2.446,3.606
	c-0.623,0.614-0.507,1.255-0.074,1.912c1.346,1.553,3.085,1.4,4.851,1.182c1.303-0.162,2.316,0.307,2.96,1.526
	c0.548,1.037,1.389,1.178,2.39,0.753c0.636-0.152,1.271-0.3,1.881,0.091c0.207,0.328,0.473,0.435,0.746,0.119
	c0.395-0.458,0.79-0.642,1.262-0.137c0.441,0.467,0.039,0.804-0.181,1.173c-0.722,1.203-0.658,2.563-0.729,3.894
	c-0.381,0.643,0.179,1.038,0.387,1.525c0.578,0.808,1.746,1.466,0.186,2.568c-0.875,0.617,0.303,1.225,0.565,1.408
	c1.036,0.722,1.218,0.974-0.151,1.5c-0.807,0.31-1.519,0.847-2.438,0.81c-1.408-0.329-2.812-0.547-4.192,0.122
	c0.031,0.091,0.013,0.168-0.057,0.234c-0.798,1.685,0.488,1.702,1.49,1.947c0.788,1.649-1.188,0.282-1.155,1.105
	c-0.085,0.241-0.322,0.28-0.501,0.397c-0.12,0.082-0.23,0.176-0.326,0.284c-0.145,0.348-0.143,0.705-0.061,1.065
	c0.043,0.143,0.095,0.28,0.157,0.414c0.026,0.071,0.048,0.141,0.073,0.21c1.747,1.525,1.621,3.477,1.197,5.496
	C38.507,48.289,38.619,48.659,38.28,48.979z"/>
</svg>
