<?xml version="1.0" encoding="utf-8"?>
<!-- Generator: Adobe Illustrator 19.0.0, SVG Export Plug-In . SVG Version: 6.00 Build 0)  -->
<svg version="1.1" id="Capa_1" xmlns="http://www.w3.org/2000/svg" xmlns:xlink="http://www.w3.org/1999/xlink" x="0px" y="0px"
	 viewBox="-597 375.6 29 43.4" style="enable-background:new -597 375.6 29 43.4;" xml:space="preserve">
<style type="text/css">
	.st0{fill:none;stroke:#1C4A65;stroke-width:1.743;stroke-linecap:round;stroke-miterlimit:10;}
</style>
<path class="st0" d="M-574.7,412.6c0,0.7-0.3,1.3-0.8,1.8s-1.1,0.7-1.9,0.7c-0.8,0-1.4-0.3-1.9-0.7c-0.5-0.5-0.8-1-0.8-1.8v-4.9
	h-11.3c-0.9,0-1.4-0.3-2-0.8s-0.8-1.2-0.8-1.9c0-0.1,0-0.3,0.1-0.6c0.1-0.3,0.2-0.6,0.3-0.9l9.3-22.5c0.2-0.4,0.5-0.9,0.9-1.1
	c0.5-0.3,0.9-0.3,1.4-0.3c0.7,0,1.3,0.3,1.8,0.8c0.5,0.5,0.9,1.1,0.9,1.8c0,0.2,0,0.3,0,0.4c0,0.2-0.1,0.3-0.1,0.4
	c-0.3,0.5-0.6,1.4-1,2.4c-0.4,1-0.9,2.2-1.4,3.5c-0.5,1.3-1.1,2.6-1.7,4.1c-0.6,1.4-1.2,2.7-1.7,4.1c-0.5,1.3-1,2.5-1.4,3.5
	c-0.4,1-0.8,1.8-1,2.4h7.8v-8.4c0-0.7,0.3-1.3,0.8-1.8s1.1-0.7,1.9-0.7c0.7,0,1.4,0.3,1.9,0.7c0.5,0.5,0.8,1,0.8,1.8v8.4h1.4
	c0.7,0,1.3,0.3,1.8,0.8s0.8,1,0.8,1.7s-0.3,1.3-0.8,1.7c-0.5,0.5-1.1,0.7-1.8,0.7h-1.4L-574.7,412.6L-574.7,412.6z"/>
</svg>
