<?xml version="1.0" encoding="utf-8"?>
<!-- Generator: Adobe Illustrator 16.0.0, SVG Export Plug-In . SVG Version: 6.00 Build 0)  -->
<!DOCTYPE svg PUBLIC "-//W3C//DTD SVG 1.1//EN" "http://www.w3.org/Graphics/SVG/1.1/DTD/svg11.dtd">
<svg version="1.1" id="Capa_1" xmlns="http://www.w3.org/2000/svg" xmlns:xlink="http://www.w3.org/1999/xlink" x="0px" y="0px"
	 width="59px" height="58.25px" viewBox="0 0 59 58.25" enable-background="new 0 0 59 58.25" xml:space="preserve">
<circle fill="none" stroke="#1D4B66" stroke-width="2" stroke-linecap="round" stroke-miterlimit="10" cx="30.292" cy="29.661" r="26.051"/>
<path fill="#7DAB40" stroke="#1D4B66" stroke-width="1.3" stroke-linecap="round" stroke-miterlimit="10" d="M21.793,8.979
	c-0.308-0.01-3.485,0.719-3.485,0.719l0.733,1.086l-1.5,8.141l-1.027,0.8l0.558,1.763c0,0,0.171,1.826,0.004,2.2
	c-0.167,0.374-0.247,2.797-0.247,2.797s1.13,0.72,0.822,0.71c-0.307-0.01-1.413,0.864-1.413,0.864s0.545,2.141,0.315,2.134
	c-0.232-0.008-1.881,1-1.881,1l0.484,1.684l-0.655,1.192l0.817,0.861l-0.506,1.35l-0.663,1.419l-1.088,2.694l1.926-0.088
	l2.313,2.199l2.432-1.437l1.82,0.819l-0.459,2.26l-0.673,1.722l0.336,1.452l-1.103,3.149l2.062,0.448l3.551-0.338
	c0,0-0.362-0.694-0.59-0.778c-0.228-0.084,1.115-1.177,1.047-1.407c-0.07-0.229,2.063-1.904,2.063-1.904l1.668,0.738l1.222-2.007
	l2.316-0.303l1.972-1.452l2.073,0.145c0,0-0.121-0.989-0.26-1.45c-0.14-0.46-0.26-1.449-0.401-1.833
	c-0.141-0.384-0.304-1.573-0.091-1.898c0.485-0.742,1.728-1.081,1.738-1.383c0.01-0.304,1.36-1.549,1.36-1.549l2.458,0.082
	l-1.379,2.154c0,0,1.251,4.06,1.021,4.052c-0.231-0.007,1.883,1.201,1.893,0.898c0.01-0.303,0.588-1.498,0.588-1.498l4.822,0.767
	l1.472,2.02c0,0,2.306-11.603,2.076-11.61c-0.23-0.008-1.073,2.24-1.299,2.08c-0.226-0.159-3.137-0.559-3.206-0.788
	c-0.069-0.23,0.897-1.563,0.439-1.654c-0.458-0.091-1.784,0.472-1.776,0.245c0.007-0.227-0.194-1.067-0.336-1.452
	c-0.142-0.384-1.124-0.947-1.342-1.333c-0.217-0.387-0.433-0.849-0.968-0.943c-0.535-0.094-2.231,0.002-2.231,0.002l1.417-3.29
	l-0.058-2.884c0,0-1.255-1.634-1.555-1.871c-0.3-0.238-0.968-0.942-0.808-1.164c0.162-0.222,0.889-1.26,0.663-1.419
	s-2.96-1.236-3.261-1.474c-0.299-0.237-1.48-1.716-1.471-2.02c0.01-0.303-1.22-0.344-1.22-0.344l-1.178,0.72l0.772,2.224
	l-2.171,0.536c0,0-0.426,1.198-0.648,0.964c-0.222-0.234-0.501-1.078-0.501-1.078s-1.848,0.015-1.754-0.513
	c0.095-0.527,0.281-1.508,0.281-1.508l-0.888,1.26l-2.355-0.912l0.214-1.813l-1.582-1.039c0,0,1.018-0.573,1.188-1.022
	c0.169-0.449,0.256-0.75,0.256-0.75s-0.791-1.694-1.019-1.778c-0.229-0.083-0.798-1.466-0.798-1.466l-1.042,1.255L21.793,8.979z"/>
</svg>
