<?xml version="1.0" encoding="utf-8"?>
<!-- Generator: Adobe Illustrator 19.0.0, SVG Export Plug-In . SVG Version: 6.00 Build 0)  -->
<svg version="1.1" id="Capa_1" xmlns="http://www.w3.org/2000/svg" xmlns:xlink="http://www.w3.org/1999/xlink" x="0px" y="0px"
	 viewBox="-598 375 26.8 43" style="enable-background:new -598 375 26.8 43;" xml:space="preserve">
<style type="text/css">
	.st0{fill:none;stroke:#1C4A65;stroke-width:1.743;stroke-linecap:round;stroke-miterlimit:10;}
</style>
<path class="st0" d="M-574.4,411c0,0.7-0.2,1.2-0.7,1.6c-0.5,0.5-1.1,0.7-1.8,0.7h-15.2c-0.8,0-1.4-0.2-1.9-0.7
	c-0.5-0.5-0.7-1.1-0.7-1.8c0-0.3,0-0.7,0.1-1c0-0.3,0.2-0.7,0.2-1c0.9-2,2-3.7,3.4-5.2c1.4-1.5,2.9-3.1,4.5-4.6
	c0.7-0.7,1.5-1.4,2.3-2.1s1.5-1.5,2.3-2.3c0.7-0.8,1.2-1.6,1.7-2.5s0.7-1.8,0.7-2.8c0-1.4-0.4-2.6-1.3-3.6c-0.8-1-2.1-1.5-3.7-1.5
	c-0.8,0-1.5,0.1-2.3,0.2c-0.7,0.1-1.3,0.2-1.9,0.5c-0.5,0.2-1.1,0.5-1.5,0.8c-0.5,0.3-1,0.5-1.5,0.5c-0.7,0-1.2-0.2-1.7-0.6
	c-0.5-0.4-0.7-1-0.7-1.6c0-0.7,0.3-1.3,1.1-1.9c0.7-0.6,1.5-1,2.5-1.4c1-0.4,2-0.7,3.2-0.8s2.1-0.2,2.9-0.2c1.5,0,3,0.2,4.2,0.7
	c1.2,0.5,2.3,1.1,3.2,2s1.5,1.8,2,2.9c0.5,1.1,0.7,2.3,0.7,3.6c0,2-0.3,3.6-1,5c-0.7,1.4-1.5,2.6-2.5,3.7c-0.9,0.9-1.8,1.9-2.8,2.8
	c-1,0.9-1.9,1.8-2.8,2.7c-0.9,0.9-1.8,1.8-2.6,2.8c-0.8,0.9-1.5,2-2.1,2.9h11.5c0.7,0,1.3,0.2,1.8,0.7
	C-574.7,409.8-574.4,410.3-574.4,411z"/>
</svg>
