<?xml version="1.0" encoding="utf-8"?>
<!-- Generator: Adobe Illustrator 16.0.0, SVG Export Plug-In . SVG Version: 6.00 Build 0)  -->
<!DOCTYPE svg PUBLIC "-//W3C//DTD SVG 1.1//EN" "http://www.w3.org/Graphics/SVG/1.1/DTD/svg11.dtd">
<svg version="1.1" id="Capa_1" xmlns="http://www.w3.org/2000/svg" xmlns:xlink="http://www.w3.org/1999/xlink" x="0px" y="0px"
	 width="59px" height="58.25px" viewBox="0 0 59 58.25" enable-background="new 0 0 59 58.25" xml:space="preserve">
<circle fill="none" stroke="#1D4B66" stroke-width="2" stroke-linecap="round" stroke-miterlimit="10" cx="30.292" cy="29.661" r="26.051"/>
<rect x="21.087" y="8.234" fill="#7DAB40" stroke="#1D4B66" stroke-width="1.2" stroke-miterlimit="10" width="18.554" height="2.223"/>
<rect x="18.521" y="49.276" fill="#7DAB40" stroke="#1D4B66" stroke-width="1.2" stroke-miterlimit="10" width="23.685" height="1.881"/>
<path fill="#7DAB40" stroke="#1D4B66" stroke-width="1.2" stroke-miterlimit="10" d="M23.591,10.55v38.62h13.546V10.55H23.591z
	 M25.614,12.33h8.784v4.372h-8.784V12.33z M25.222,21.913h2.908v2.394h-2.908V21.913z M25.222,26.102h2.908v2.395h-2.908V26.102z
	 M25.222,30.292h2.908v2.394h-2.908V30.292z M25.222,34.482h2.908v2.394h-2.908V34.482z M25.222,38.671h2.908v2.395h-2.908V38.671z
	 M33.625,49.074h-6.892v-5.897h6.892V49.074z M35.156,40.98h-2.908v-2.394h2.908V40.98z M35.156,36.79h-2.908v-2.394h2.908V36.79z
	 M35.156,32.6h-2.908v-2.394h2.908V32.6z M35.156,28.411h-2.908v-2.394h2.908V28.411z M35.156,24.221h-2.908v-2.395h2.908V24.221z"
	/>
<line fill="none" stroke="#1D4B66" stroke-width="1.2" stroke-miterlimit="10" x1="30.141" y1="49.074" x2="30.141" y2="43.484"/>
<rect x="21.087" y="18.067" fill="#7DAB40" stroke="#1D4B66" stroke-width="1.2" stroke-miterlimit="10" width="18.554" height="2.222"/>
</svg>
