<!-- Generator: Adobe Illustrator 19.0.0, SVG Export Plug-In  -->
<svg version="1.1"
	 xmlns="http://www.w3.org/2000/svg" xmlns:xlink="http://www.w3.org/1999/xlink" xmlns:a="http://ns.adobe.com/AdobeSVGViewerExtensions/3.0/"
	 x="0px" y="0px" width="64.3px" height="43.4px" viewBox="0 0 64.3 43.4" style="enable-background:new 0 0 64.3 43.4;"
	 xml:space="preserve">
<style type="text/css">
	.st0{fill:#D7D3E8;}
	.st1{fill:#F7F7F8;stroke:#1C4A65;stroke-width:0.7786;stroke-miterlimit:10;}
	.st2{fill:#7DAB39;stroke:#1C4A65;stroke-width:0.7786;stroke-miterlimit:10;}
	.st3{fill:url(#SVGID_1_);stroke:#1C4A65;stroke-width:0.7786;stroke-miterlimit:10;}
	.st4{clip-path:url(#SVGID_3_);fill:#ADACB2;}
	.st5{fill:#1C4A65;stroke:#1C4A65;stroke-width:0.7786;stroke-miterlimit:10;}
	.st6{fill:#451613;stroke:#1C4A65;stroke-width:0.7786;stroke-miterlimit:10;}
	.st7{fill:url(#SVGID_4_);stroke:#1C4A65;stroke-width:0.7786;stroke-miterlimit:10;}
	.st8{fill:url(#SVGID_5_);stroke:#1C4A65;stroke-width:0.7786;stroke-miterlimit:10;}
	.st9{fill:#1C4A65;stroke:#1C4A65;stroke-width:1.0125;stroke-miterlimit:10;}
	.st10{fill:#FFFFFF;}
	.st11{fill:url(#SVGID_6_);stroke:#1C4A65;stroke-width:0.7786;stroke-miterlimit:10;}
	.st12{clip-path:url(#SVGID_8_);fill:#ADACB2;}
	.st13{fill:url(#SVGID_9_);stroke:#1C4A65;stroke-width:0.7786;stroke-miterlimit:10;}
	.st14{fill:url(#SVGID_10_);stroke:#1C4A65;stroke-width:0.7786;stroke-miterlimit:10;}
</style>
<defs>
</defs>
<g>
	<g>
		<ellipse transform="matrix(0.9824 -0.1868 0.1868 0.9824 -3.6506 6.405)" class="st0" cx="32.2" cy="22.6" rx="32.5" ry="20.3"/>
	</g>
	<g>
		<g>
			<rect x="10" y="11.9" class="st1" width="40.4" height="28.5"/>
			<rect x="10" y="37.7" class="st2" width="40.5" height="2.8"/>
			<rect x="25.3" y="15.9" class="st2" width="9.7" height="24.6"/>
			<circle class="st0" cx="27.2" cy="27.1" r="0.7"/>
			<linearGradient id="SVGID_1_" gradientUnits="userSpaceOnUse" x1="33.215" y1="17.2918" x2="26.975" y2="23.1112">
				<stop  offset="0" style="stop-color:#8ED4EE"/>
				<stop  offset="0.5054" style="stop-color:#FFFFFF"/>
				<stop  offset="1" style="stop-color:#8ED4EE"/>
			</linearGradient>
			<rect x="26.9" y="17.4" class="st3" width="6.5" height="5.5"/>
			<g>
				<defs>
					<rect id="SVGID_2_" x="10" y="11.9" width="40.4" height="28.5"/>
				</defs>
				<clipPath id="SVGID_3_">
					<use xlink:href="#SVGID_2_"  style="overflow:visible;"/>
				</clipPath>
				<polygon class="st4" points="52,11.6 45,4 30.2,4 15.3,4 8.4,11.7 8.4,14.3 30.2,14.3 52,14.3 				"/>
				<use xlink:href="#SVGID_2_"  style="overflow:visible;fill:none;stroke:#1C4A65;stroke-width:0.7786;stroke-miterlimit:10;"/>
			</g>
			<polygon class="st2" points="52,10.6 45,3.1 30.2,3.1 15.3,3.1 8.4,10.7 8.4,13.4 30.2,13.4 52,13.4 			"/>
			<rect x="24.1" y="0.7" class="st5" width="12.1" height="13.6"/>
			<g>
				<path class="st6" d="M48.5,31.7H36.8v-5.8c0-3.2,2.6-5,5.9-5l0,0c3.2,0,5.9,1.8,5.9,5V31.7z"/>
				<linearGradient id="SVGID_4_" gradientUnits="userSpaceOnUse" x1="48.2139" y1="21.5938" x2="36.8329" y2="34.2522">
					<stop  offset="0" style="stop-color:#8ED4EE"/>
					<stop  offset="0.5054" style="stop-color:#FFFFFF"/>
					<stop  offset="1" style="stop-color:#8ED4EE"/>
				</linearGradient>
				<path class="st7" d="M48.2,31.4h-11v-5.5c0-3,2.5-4.7,5.5-4.7l0,0c3,0,5.5,1.7,5.5,4.7V31.4z"/>
				<g>
					<rect x="42.4" y="21.2" class="st6" width="0.4" height="10.5"/>
					<rect x="37" y="28.1" class="st6" width="11.3" height="0.2"/>
					<rect x="37" y="24.7" class="st6" width="11.3" height="0.2"/>
				</g>
				<path class="st6" d="M23.6,31.7H11.8v-5.8c0-3.2,2.6-5,5.9-5l0,0c3.2,0,5.9,1.8,5.9,5V31.7z"/>
				<linearGradient id="SVGID_5_" gradientUnits="userSpaceOnUse" x1="23.2562" y1="21.5936" x2="11.8754" y2="34.2517">
					<stop  offset="0" style="stop-color:#8ED4EE"/>
					<stop  offset="0.5054" style="stop-color:#FFFFFF"/>
					<stop  offset="1" style="stop-color:#8ED4EE"/>
				</linearGradient>
				<path class="st8" d="M23.2,31.4h-11v-5.5c0-3,2.5-4.7,5.5-4.7l0,0c3,0,5.5,1.7,5.5,4.7V31.4z"/>
				<g>
					<rect x="17.5" y="21.2" class="st6" width="0.4" height="10.5"/>
					<rect x="12.1" y="28.1" class="st6" width="11.3" height="0.2"/>
					<rect x="12.1" y="24.7" class="st6" width="11.3" height="0.2"/>
				</g>
			</g>
		</g>
		<g>
			<rect x="11.6" y="0.5" class="st9" width="36.5" height="15.7"/>
			<g>
				<path class="st10" d="M22.2,6c0,0.1,0,0.2-0.1,0.2c-0.1,0.1-0.2,0.1-0.2,0.1h-1.7c-0.1,0-0.2,0-0.3-0.1
					c-0.1-0.1-0.1-0.2-0.1-0.3V2.3c0-0.1,0-0.2,0.1-0.3C19.9,2,20,1.9,20.1,1.9h1.7c0.1,0,0.2,0,0.2,0.1c0.1,0.1,0.1,0.1,0.1,0.2
					s0,0.2-0.1,0.2s-0.1,0.1-0.2,0.1h-1.4v1.2h1.3c0.1,0,0.2,0,0.2,0.1C22,4,22,4,22,4.1c0,0.1,0,0.2-0.1,0.2s-0.1,0.1-0.2,0.1h-1.3
					v1.3h1.5c0.1,0,0.2,0,0.2,0.1C22.2,5.9,22.2,6,22.2,6z"/>
				<path class="st10" d="M26.3,4.2c0-0.1,0-0.3-0.1-0.4S26,3.7,25.9,3.7c-0.1,0-0.2,0-0.3,0.1S25.4,3.9,25.3,4c0,0,0,0.1,0,0.1
					c0,0,0,0.1,0,0.1v1.9c0,0.1,0,0.2-0.1,0.2c-0.1,0.1-0.1,0.1-0.3,0.1c-0.1,0-0.2,0-0.3-0.1s-0.1-0.1-0.1-0.2V4.4
					c0-0.1,0-0.2,0-0.3s0-0.1-0.1-0.2c0-0.1-0.1-0.1-0.1-0.1c-0.1,0-0.1,0-0.2,0c-0.1,0-0.2,0-0.3,0.1c-0.1,0-0.2,0.1-0.3,0.1
					c0,0,0,0,0,0.1c0,0,0,0,0,0.1v2c0,0.1,0,0.2-0.1,0.2c-0.1,0.1-0.1,0.1-0.3,0.1S23,6.4,23,6.3c-0.1-0.1-0.1-0.1-0.1-0.2v-2
					c0-0.1,0-0.1,0-0.2c0,0,0-0.1,0-0.1c0,0,0,0,0-0.1c0,0,0,0,0,0c0,0,0-0.1-0.1-0.1s0-0.1,0-0.1c0-0.1,0-0.2,0.1-0.2
					c0.1-0.1,0.1-0.1,0.2-0.1c0.1,0,0.1,0,0.2,0c0,0,0.1,0.1,0.1,0.1c0.1-0.1,0.3-0.2,0.4-0.2c0.2,0,0.3-0.1,0.5-0.1s0.3,0,0.4,0.1
					s0.2,0.1,0.3,0.2c0.2-0.1,0.3-0.2,0.5-0.2c0.1-0.1,0.3-0.1,0.5-0.1c0.4,0,0.6,0.1,0.8,0.3C26.9,3.6,27,3.9,27,4.2v1.9
					c0,0.1,0,0.2-0.1,0.2s-0.1,0.1-0.3,0.1c-0.1,0-0.2,0-0.3-0.1c-0.1-0.1-0.1-0.1-0.1-0.2V4.2z"/>
				<path class="st10" d="M29.2,6.4c-0.1,0-0.2,0-0.3,0c-0.1,0-0.2-0.1-0.3-0.1v1.1c0,0.1,0,0.2-0.1,0.2c-0.1,0.1-0.1,0.1-0.3,0.1
					s-0.2,0-0.3-0.1c-0.1-0.1-0.1-0.1-0.1-0.2V4.1c0-0.1,0-0.2,0-0.2c0-0.1,0-0.1-0.1-0.2c0,0,0-0.1,0-0.1c0,0,0-0.1,0-0.1
					c0-0.1,0-0.2,0.1-0.2c0.1-0.1,0.1-0.1,0.2-0.1c0.1,0,0.2,0.1,0.3,0.2c0.1-0.1,0.3-0.2,0.4-0.2s0.3-0.1,0.5-0.1
					c0.2,0,0.3,0,0.5,0.1c0.1,0.1,0.2,0.1,0.3,0.3c0.1,0.1,0.2,0.2,0.2,0.4c0,0.1,0.1,0.3,0.1,0.5v0.8c0,0.2,0,0.4-0.1,0.5
					s-0.1,0.3-0.2,0.4c-0.1,0.1-0.2,0.2-0.3,0.3S29.5,6.4,29.2,6.4z M28.6,5.7c0.1,0,0.2,0.1,0.3,0.1c0.1,0,0.2,0,0.3,0
					c0.2,0,0.3-0.1,0.4-0.2s0.1-0.3,0.1-0.5V4.3c0-0.4-0.2-0.6-0.5-0.6c-0.1,0-0.2,0-0.3,0c-0.1,0-0.2,0.1-0.3,0.1c0,0,0,0.1,0,0.1
					c0,0,0,0.1,0,0.1V5.7z"/>
				<path class="st10" d="M31.6,6.4c-0.1,0-0.1,0-0.2,0c-0.1,0-0.1,0-0.2-0.1c0,0-0.1-0.1-0.1-0.2c0-0.1-0.1-0.2-0.1-0.4V2.1
					c0-0.1,0-0.2,0.1-0.2c0.1-0.1,0.1-0.1,0.2-0.1c0.1,0,0.2,0,0.2,0.1s0.1,0.1,0.1,0.2v3.6c0,0.1,0,0.1,0,0.2c0,0,0,0.1,0.1,0.1
					c0,0,0,0,0.1,0.1c0,0,0,0.1,0,0.1c0,0.1,0,0.2-0.1,0.2C31.8,6.4,31.7,6.4,31.6,6.4z"/>
				<path class="st10" d="M33.8,5.1c-0.1,0-0.2,0-0.3,0s-0.2,0-0.3,0v0.3c0,0.1,0,0.3,0.1,0.3c0.1,0.1,0.2,0.1,0.5,0.1
					c0.1,0,0.2,0,0.3,0s0.2-0.1,0.3-0.1c0,0,0,0,0,0s0.1,0,0.1,0c0.1,0,0.2,0,0.2,0.1c0,0.1,0.1,0.1,0.1,0.2c0,0.1,0,0.2-0.1,0.2
					c-0.1,0.1-0.2,0.1-0.3,0.1s-0.2,0.1-0.4,0.1c-0.1,0-0.2,0-0.3,0c-0.2,0-0.4,0-0.5-0.1c-0.2-0.1-0.3-0.1-0.4-0.2
					c-0.1-0.1-0.2-0.2-0.2-0.3c-0.1-0.1-0.1-0.3-0.1-0.4V4.2c0-0.2,0-0.3,0.1-0.4c0.1-0.1,0.1-0.2,0.2-0.3s0.2-0.2,0.4-0.2
					c0.2-0.1,0.3-0.1,0.5-0.1c0.4,0,0.7,0.1,0.9,0.3c0.2,0.2,0.3,0.4,0.3,0.8c0,0.3-0.1,0.5-0.3,0.7C34.5,5,34.2,5.1,33.8,5.1z
					 M34.2,4.2c0-0.2,0-0.3-0.1-0.4s-0.2-0.1-0.4-0.1c-0.2,0-0.3,0-0.4,0.1c-0.1,0.1-0.1,0.2-0.1,0.4v0.4c0.1,0,0.2,0,0.3,0
					s0.2,0,0.2,0c0.2,0,0.3,0,0.4-0.1C34.2,4.4,34.2,4.3,34.2,4.2z"/>
				<path class="st10" d="M36.7,6.4c-0.2,0-0.4,0-0.6-0.1s-0.3-0.1-0.4-0.2c-0.1-0.1-0.2-0.2-0.2-0.4s-0.1-0.3-0.1-0.5v-1
					c0-0.2,0-0.3,0.1-0.5s0.1-0.3,0.2-0.4c0.1-0.1,0.2-0.2,0.4-0.2s0.3-0.1,0.6-0.1c0.2,0,0.4,0,0.6,0.1c0.2,0.1,0.3,0.1,0.4,0.2
					c0.1,0.1,0.2,0.2,0.2,0.4S38,4.1,38,4.3v1c0,0.2,0,0.3-0.1,0.5S37.8,6,37.7,6.1c-0.1,0.1-0.2,0.2-0.4,0.2
					C37.1,6.4,36.9,6.4,36.7,6.4z M36.7,5.8c0.2,0,0.3,0,0.4-0.1c0.1-0.1,0.1-0.2,0.1-0.4v-1c0-0.2,0-0.3-0.1-0.4
					c-0.1-0.1-0.2-0.1-0.4-0.1c-0.2,0-0.3,0-0.4,0.1c-0.1,0.1-0.1,0.2-0.1,0.4v1c0,0.2,0,0.3,0.1,0.4C36.4,5.8,36.5,5.8,36.7,5.8z"
					/>
				<path class="st10" d="M18,10.2h-0.8c-0.1,0-0.2,0-0.3-0.1s-0.1-0.1-0.1-0.2c0-0.1,0-0.1,0.1-0.2c0.1-0.1,0.2-0.1,0.2-0.1h2.2
					c0.1,0,0.2,0,0.2,0.1c0.1,0.1,0.1,0.1,0.1,0.2c0,0.1,0,0.2-0.1,0.2s-0.2,0.1-0.3,0.1h-0.8v3.5c0,0.1,0,0.2-0.1,0.2
					S18.5,14,18.4,14c-0.1,0-0.2,0-0.2-0.1c-0.1-0.1-0.1-0.1-0.1-0.2V10.2z"/>
				<path class="st10" d="M21,12.7c-0.1,0-0.2,0-0.3,0s-0.2,0-0.3,0V13c0,0.1,0,0.3,0.1,0.3c0.1,0.1,0.2,0.1,0.5,0.1
					c0.1,0,0.2,0,0.3,0s0.2-0.1,0.3-0.1c0,0,0,0,0,0s0.1,0,0.1,0c0.1,0,0.2,0,0.2,0.1c0,0.1,0.1,0.1,0.1,0.2c0,0.1,0,0.2-0.1,0.2
					c-0.1,0.1-0.2,0.1-0.3,0.1S21.5,14,21.3,14c-0.1,0-0.2,0-0.3,0c-0.2,0-0.4,0-0.5-0.1c-0.2-0.1-0.3-0.1-0.4-0.2
					c-0.1-0.1-0.2-0.2-0.2-0.3c-0.1-0.1-0.1-0.3-0.1-0.4v-1.1c0-0.2,0-0.3,0.1-0.4c0.1-0.1,0.1-0.2,0.2-0.3s0.2-0.2,0.4-0.2
					c0.2-0.1,0.3-0.1,0.5-0.1c0.4,0,0.7,0.1,0.9,0.3c0.2,0.2,0.3,0.4,0.3,0.8c0,0.3-0.1,0.5-0.3,0.7C21.7,12.6,21.4,12.7,21,12.7z
					 M21.5,11.8c0-0.2,0-0.3-0.1-0.4s-0.2-0.1-0.4-0.1c-0.2,0-0.3,0-0.4,0.1c-0.1,0.1-0.1,0.2-0.1,0.4v0.4c0.1,0,0.2,0,0.3,0
					s0.2,0,0.2,0c0.2,0,0.3,0,0.4-0.1C21.5,12,21.5,11.9,21.5,11.8z"/>
				<path class="st10" d="M26.3,11.8c0-0.1,0-0.3-0.1-0.4s-0.2-0.1-0.4-0.1c-0.1,0-0.2,0-0.3,0.1s-0.2,0.1-0.3,0.2c0,0,0,0.1,0,0.1
					c0,0,0,0.1,0,0.1v1.9c0,0.1,0,0.2-0.1,0.2C25.1,14,25,14,24.9,14c-0.1,0-0.2,0-0.3-0.1s-0.1-0.1-0.1-0.2V12c0-0.1,0-0.2,0-0.3
					s0-0.1-0.1-0.2c0-0.1-0.1-0.1-0.1-0.1c-0.1,0-0.1,0-0.2,0c-0.1,0-0.2,0-0.3,0.1c-0.1,0-0.2,0.1-0.3,0.1c0,0,0,0,0,0.1
					c0,0,0,0,0,0.1v2c0,0.1,0,0.2-0.1,0.2C23.4,14,23.3,14,23.2,14s-0.2,0-0.3-0.1c-0.1-0.1-0.1-0.1-0.1-0.2v-2c0-0.1,0-0.1,0-0.2
					c0,0,0-0.1,0-0.1c0,0,0,0,0-0.1c0,0,0,0,0,0c0,0,0-0.1-0.1-0.1s0-0.1,0-0.1c0-0.1,0-0.2,0.1-0.2c0.1-0.1,0.1-0.1,0.2-0.1
					c0.1,0,0.1,0,0.2,0c0,0,0.1,0.1,0.1,0.1c0.1-0.1,0.3-0.2,0.4-0.2c0.2,0,0.3-0.1,0.5-0.1s0.3,0,0.4,0.1s0.2,0.1,0.3,0.2
					c0.2-0.1,0.3-0.2,0.5-0.2c0.1-0.1,0.3-0.1,0.5-0.1c0.4,0,0.6,0.1,0.8,0.3c0.2,0.2,0.3,0.5,0.3,0.8v1.9c0,0.1,0,0.2-0.1,0.2
					S26.8,14,26.7,14c-0.1,0-0.2,0-0.3-0.1c-0.1-0.1-0.1-0.1-0.1-0.2V11.8z"/>
				<path class="st10" d="M29.2,14c-0.1,0-0.2,0-0.3,0c-0.1,0-0.2-0.1-0.3-0.1V15c0,0.1,0,0.2-0.1,0.2c-0.1,0.1-0.1,0.1-0.3,0.1
					s-0.2,0-0.3-0.1c-0.1-0.1-0.1-0.1-0.1-0.2v-3.3c0-0.1,0-0.2,0-0.2c0-0.1,0-0.1-0.1-0.2c0,0,0-0.1,0-0.1c0,0,0-0.1,0-0.1
					c0-0.1,0-0.2,0.1-0.2c0.1-0.1,0.1-0.1,0.2-0.1c0.1,0,0.2,0.1,0.3,0.2c0.1-0.1,0.3-0.2,0.4-0.2s0.3-0.1,0.5-0.1
					c0.2,0,0.3,0,0.5,0.1c0.1,0.1,0.2,0.1,0.3,0.3c0.1,0.1,0.2,0.2,0.2,0.4c0,0.1,0.1,0.3,0.1,0.5v0.8c0,0.2,0,0.4-0.1,0.5
					s-0.1,0.3-0.2,0.4c-0.1,0.1-0.2,0.2-0.3,0.3S29.4,14,29.2,14z M28.6,13.3c0.1,0,0.2,0.1,0.3,0.1c0.1,0,0.2,0,0.3,0
					c0.2,0,0.3-0.1,0.4-0.2s0.1-0.3,0.1-0.5v-0.8c0-0.4-0.2-0.6-0.5-0.6c-0.1,0-0.2,0-0.3,0c-0.1,0-0.2,0.1-0.3,0.1c0,0,0,0.1,0,0.1
					c0,0,0,0.1,0,0.1V13.3z"/>
				<path class="st10" d="M32.2,14c-0.2,0-0.4,0-0.6-0.1s-0.3-0.1-0.4-0.2c-0.1-0.1-0.2-0.2-0.2-0.4s-0.1-0.3-0.1-0.5v-1
					c0-0.2,0-0.3,0.1-0.5s0.1-0.3,0.2-0.4c0.1-0.1,0.2-0.2,0.4-0.2s0.3-0.1,0.6-0.1c0.2,0,0.4,0,0.6,0.1c0.2,0.1,0.3,0.1,0.4,0.2
					c0.1,0.1,0.2,0.2,0.2,0.4s0.1,0.3,0.1,0.5v1c0,0.2,0,0.3-0.1,0.5s-0.1,0.3-0.2,0.4c-0.1,0.1-0.2,0.2-0.4,0.2
					C32.6,14,32.4,14,32.2,14z M32.2,13.4c0.2,0,0.3,0,0.4-0.1c0.1-0.1,0.1-0.2,0.1-0.4v-1c0-0.2,0-0.3-0.1-0.4
					c-0.1-0.1-0.2-0.1-0.4-0.1c-0.2,0-0.3,0-0.4,0.1c-0.1,0.1-0.1,0.2-0.1,0.4v1c0,0.2,0,0.3,0.1,0.4C31.9,13.4,32,13.4,32.2,13.4z"
					/>
				<path class="st10" d="M35.6,11.4c-0.1,0-0.1,0-0.2,0c-0.1,0-0.1,0-0.2,0s-0.1,0-0.2,0c-0.1,0-0.1,0.1-0.2,0.1c0,0,0,0.1,0,0.1
					c0,0,0,0,0,0.1v2c0,0.1,0,0.2-0.1,0.2C34.7,14,34.7,14,34.6,14s-0.2,0-0.2-0.1c-0.1-0.1-0.1-0.1-0.1-0.2v-2c0-0.1,0-0.2,0-0.2
					c0-0.1,0-0.1-0.1-0.2c0,0,0-0.1,0-0.1c0,0,0-0.1,0-0.1c0-0.1,0-0.2,0.1-0.2c0.1-0.1,0.1-0.1,0.2-0.1c0.1,0,0.1,0,0.2,0.1
					c0,0,0.1,0.1,0.1,0.1c0.1-0.1,0.3-0.2,0.4-0.2c0.2,0,0.3-0.1,0.4-0.1c0.2,0,0.3,0,0.3,0.1c0.1,0.1,0.1,0.1,0.1,0.2
					c0,0.1,0,0.2-0.1,0.2S35.7,11.4,35.6,11.4z"/>
				<path class="st10" d="M38,11.9c0-0.4-0.2-0.6-0.6-0.6c-0.1,0-0.2,0-0.2,0c-0.1,0-0.1,0-0.2,0.1l-0.1,0.1c0,0-0.1,0-0.2,0
					c-0.1,0-0.2,0-0.2-0.1s-0.1-0.1-0.1-0.2c0-0.1,0-0.2,0.1-0.2s0.1-0.1,0.2-0.1s0.2-0.1,0.3-0.1c0.1,0,0.2,0,0.4,0
					c0.4,0,0.7,0.1,0.9,0.3c0.2,0.2,0.3,0.5,0.3,1v1.3c0,0.1,0,0.1,0,0.2c0,0,0.1,0,0.1,0c0.1,0,0.2,0.1,0.2,0.2
					c0,0.2-0.1,0.3-0.4,0.3c-0.2,0-0.4-0.1-0.5-0.3c-0.2,0.2-0.5,0.3-0.9,0.3c-0.3,0-0.6-0.1-0.8-0.3c-0.2-0.2-0.3-0.4-0.3-0.7v0
					c0-0.6,0.4-1,1.2-1c0.2,0,0.4,0,0.6,0.1V11.9z M37.5,12.6c-0.1,0-0.2,0-0.3,0c-0.1,0-0.1,0.1-0.2,0.1c0,0-0.1,0.1-0.1,0.1
					c0,0.1,0,0.1,0,0.2v0c0,0.1,0,0.2,0.1,0.3c0.1,0.1,0.2,0.1,0.4,0.1c0.1,0,0.2,0,0.3-0.1c0.1,0,0.2-0.1,0.3-0.2v-0.6
					c-0.1,0-0.2,0-0.3-0.1C37.6,12.6,37.5,12.6,37.5,12.6z"/>
				<path class="st10" d="M40.1,14c-0.1,0-0.1,0-0.2,0c-0.1,0-0.1,0-0.2-0.1c0,0-0.1-0.1-0.1-0.2c0-0.1-0.1-0.2-0.1-0.4V9.7
					c0-0.1,0-0.2,0.1-0.2c0.1-0.1,0.1-0.1,0.2-0.1c0.1,0,0.2,0,0.2,0.1s0.1,0.1,0.1,0.2v3.6c0,0.1,0,0.1,0,0.2c0,0,0,0.1,0.1,0.1
					c0,0,0,0,0.1,0.1c0,0,0,0.1,0,0.1c0,0.1,0,0.2-0.1,0.2C40.3,14,40.2,14,40.1,14z"/>
			</g>
		</g>
	</g>
</g>
</svg>
