<?xml version="1.0" encoding="utf-8"?>
<!-- Generator: Adobe Illustrator 16.0.0, SVG Export Plug-In . SVG Version: 6.00 Build 0)  -->
<!DOCTYPE svg PUBLIC "-//W3C//DTD SVG 1.1//EN" "http://www.w3.org/Graphics/SVG/1.1/DTD/svg11.dtd">
<svg version="1.1" id="Capa_1" xmlns="http://www.w3.org/2000/svg" xmlns:xlink="http://www.w3.org/1999/xlink" x="0px" y="0px"
	 width="59px" height="58.25px" viewBox="0 0 59 58.25" enable-background="new 0 0 59 58.25" xml:space="preserve">
<circle fill="none" stroke="#1D4B66" stroke-width="2" stroke-linecap="round" stroke-miterlimit="10" cx="30.292" cy="29.661" r="26.051"/>
<rect x="18.326" y="48.084" fill="#7DAB40" stroke="#1D4B66" stroke-width="0.6167" stroke-miterlimit="10" width="24.056" height="1.91"/>
<path fill="#BA9D6B" stroke="#1D4B66" stroke-width="0.6213" stroke-miterlimit="10" d="M39.004,14.274h-17.11l-2.926,5.284
	l0.378,0.002v28.433h22.017V19.682l0.377,0.002L39.004,14.274z M25.181,20.293h2.953v2.431h-2.953V20.293z M25.181,24.548h2.953
	v2.432h-2.953V24.548z M25.181,28.804h2.953v2.43h-2.953V28.804z M25.181,33.059h2.953v2.433h-2.953V33.059z M25.181,37.313h2.953
	v2.434h-2.953V37.313z M33.715,47.878h-6.999v-5.989h6.999V47.878z M35.27,39.658h-2.953v-2.432h2.953V39.658z M35.27,35.402h-2.953
	v-2.43h2.953V35.402z M35.27,31.146h-2.953v-2.433h2.953V31.146z M35.27,26.893h-2.953v-2.431h2.953V26.893z M35.27,22.638h-2.953
	v-2.432h2.953V22.638z"/>
<line fill="none" stroke="#1D4B66" stroke-width="0.7122" stroke-miterlimit="10" x1="30.177" y1="47.878" x2="30.177" y2="42.201"/>
<rect x="16.326" y="9.367" fill="#AEADB3" stroke="#1D4B66" stroke-width="0.6167" stroke-miterlimit="10" width="28.057" height="8.681"/>
<g enable-background="new    ">
	<path fill="#FFFFFF" d="M27.737,12.32c0-0.052,0.019-0.098,0.056-0.137c0.037-0.039,0.083-0.059,0.139-0.059
		s0.101,0.02,0.139,0.059c0.037,0.039,0.056,0.085,0.056,0.137v3.14c0,0.053-0.019,0.098-0.056,0.137
		c-0.038,0.039-0.083,0.059-0.139,0.059s-0.102-0.02-0.139-0.059c-0.038-0.039-0.056-0.084-0.056-0.137V12.32z"/>
	<path fill="#FFFFFF" d="M30.833,15.655c-0.039,0-0.077-0.01-0.114-0.029s-0.066-0.047-0.086-0.083l-1.401-2.595v2.507
		c0,0.056-0.02,0.103-0.059,0.142s-0.086,0.059-0.141,0.059s-0.101-0.02-0.136-0.059c-0.036-0.039-0.054-0.086-0.054-0.142V12.34
		c0-0.062,0.02-0.113,0.059-0.153c0.039-0.041,0.089-0.062,0.151-0.062c0.042,0,0.082,0.011,0.119,0.032
		c0.037,0.021,0.066,0.05,0.085,0.085l1.403,2.59v-2.507c0-0.056,0.02-0.103,0.059-0.142c0.038-0.039,0.086-0.059,0.141-0.059
		s0.101,0.02,0.137,0.059c0.035,0.039,0.053,0.086,0.053,0.142v3.115c0,0.059-0.02,0.109-0.059,0.151S30.898,15.655,30.833,15.655z"
		/>
	<path fill="#FFFFFF" d="M31.627,13.367c0-0.188,0.021-0.359,0.065-0.512s0.11-0.283,0.2-0.392c0.089-0.108,0.202-0.192,0.34-0.251
		c0.139-0.059,0.302-0.088,0.49-0.088c0.109,0,0.217,0.012,0.32,0.034c0.104,0.023,0.196,0.053,0.275,0.091
		c0.08,0.037,0.145,0.081,0.192,0.131c0.049,0.051,0.073,0.104,0.073,0.163c0,0.046-0.016,0.085-0.049,0.119
		c-0.032,0.034-0.074,0.052-0.127,0.052c-0.035,0-0.063-0.008-0.084-0.022c-0.021-0.015-0.052-0.034-0.091-0.061
		c-0.143-0.101-0.306-0.151-0.487-0.151c-0.136,0-0.251,0.021-0.346,0.062c-0.094,0.04-0.169,0.1-0.227,0.178
		c-0.057,0.077-0.097,0.171-0.121,0.279c-0.024,0.109-0.037,0.231-0.037,0.368v1.042c0,0.136,0.013,0.259,0.037,0.367
		s0.064,0.202,0.121,0.28c0.058,0.077,0.133,0.137,0.227,0.178c0.095,0.04,0.21,0.061,0.346,0.061c0.182,0,0.345-0.051,0.487-0.151
		c0.042-0.025,0.073-0.046,0.093-0.061s0.047-0.021,0.082-0.021c0.053,0,0.095,0.017,0.127,0.051
		c0.033,0.034,0.049,0.074,0.049,0.119c0,0.059-0.024,0.113-0.073,0.163c-0.048,0.051-0.112,0.095-0.192,0.132
		c-0.079,0.037-0.171,0.067-0.275,0.09c-0.104,0.022-0.211,0.034-0.32,0.034c-0.188,0-0.352-0.029-0.49-0.088
		c-0.138-0.059-0.251-0.142-0.34-0.251c-0.09-0.108-0.156-0.239-0.2-0.392s-0.065-0.323-0.065-0.511V13.367z"/>
</g>
</svg>
