<!-- Generator: Adobe Illustrator 19.0.0, SVG Export Plug-In  -->
<svg version="1.1"
	 xmlns="http://www.w3.org/2000/svg" xmlns:xlink="http://www.w3.org/1999/xlink" xmlns:a="http://ns.adobe.com/AdobeSVGViewerExtensions/3.0/"
	 x="0px" y="0px" width="64.3px" height="44.4px" viewBox="0 0 64.3 44.4" style="enable-background:new 0 0 64.3 44.4;"
	 xml:space="preserve">
<style type="text/css">
	.st0{fill:#D7D3E8;}
	.st1{fill:#7DAB39;stroke:#1C4A65;stroke-width:0.6862;stroke-miterlimit:10;}
	.st2{fill:#BB9D6C;stroke:#1C4A65;stroke-width:0.6914;stroke-miterlimit:10;}
	.st3{fill:#D7D3E8;stroke:#1C4A65;stroke-width:0.7925;stroke-miterlimit:10;}
	.st4{fill:none;stroke:#1C4A65;stroke-width:0.7925;stroke-miterlimit:10;}
	.st5{fill:#ADACB2;stroke:#1C4A65;stroke-width:0.6862;stroke-miterlimit:10;}
	.st6{fill:#FFFFFF;}
</style>
<defs>
</defs>
<g>
	<g>
		<ellipse transform="matrix(0.9824 -0.1868 0.1868 0.9824 -3.8456 6.4232)" class="st0" cx="32.2" cy="23.6" rx="32.5" ry="20.3"/>
	</g>
	<g>
		<rect x="19" y="40.5" class="st1" width="25" height="2"/>
		<polygon class="st2" points="43.3,11.1 40.5,5.4 22.7,5.4 19.7,10.9 20.1,10.9 20.1,40.4 43,40.4 43,11.1 		"/>
		<g>
			<rect x="26.2" y="11.7" class="st3" width="3.1" height="2.5"/>
			<rect x="26.2" y="16.1" class="st3" width="3.1" height="2.5"/>
			<rect x="26.2" y="20.5" class="st3" width="3.1" height="2.5"/>
			<rect x="26.2" y="24.9" class="st3" width="3.1" height="2.5"/>
			<rect x="26.2" y="29.4" class="st3" width="3.1" height="2.5"/>
		</g>
		<g>
			<rect x="33.6" y="11.6" class="st3" width="3.1" height="2.5"/>
			<rect x="33.6" y="16" class="st3" width="3.1" height="2.5"/>
			<rect x="33.6" y="20.4" class="st3" width="3.1" height="2.5"/>
			<rect x="33.6" y="24.8" class="st3" width="3.1" height="2.5"/>
			<rect x="33.6" y="29.3" class="st3" width="3.1" height="2.5"/>
		</g>
		<rect x="27.7" y="34.1" class="st3" width="7.3" height="6.2"/>
		<line class="st4" x1="31.3" y1="40.3" x2="31.3" y2="34.4"/>
		<rect x="17" y="0.3" class="st5" width="29.1" height="9"/>
		<g>
			<path class="st6" d="M23.5,6.6c0,0.1,0,0.1-0.1,0.2c-0.1,0.1-0.1,0.1-0.2,0.1h-1.3c-0.1,0-0.2,0-0.3-0.1c-0.1,0-0.1-0.1-0.1-0.2
				v-3c0-0.1,0-0.1,0.1-0.2c0.1-0.1,0.1-0.1,0.2-0.1h1.4c0.1,0,0.1,0,0.2,0.1c0.1,0.1,0.1,0.1,0.1,0.2c0,0.1,0,0.1-0.1,0.2
				c-0.1,0-0.1,0.1-0.2,0.1h-1.1v1h1c0.1,0,0.1,0,0.2,0.1c0.1,0,0.1,0.1,0.1,0.2s0,0.1-0.1,0.2c-0.1,0.1-0.1,0.1-0.2,0.1h-1v1h1.2
				c0.1,0,0.1,0,0.2,0.1C23.5,6.4,23.5,6.5,23.5,6.6z"/>
			<path class="st6" d="M27,6.6c0,0.1,0,0.1-0.1,0.2c-0.1,0.1-0.1,0.1-0.2,0.1c-0.1,0-0.1,0-0.2-0.1c-0.1-0.1-0.1-0.1-0.1-0.2V4.5
				l-0.7,1.4c0,0.1-0.1,0.1-0.1,0.1c0,0-0.1,0-0.2,0s-0.1,0-0.2,0c0,0-0.1-0.1-0.1-0.1l-0.7-1.4v2.1c0,0.1,0,0.1-0.1,0.2
				s-0.1,0.1-0.2,0.1s-0.1,0-0.2-0.1C24,6.7,24,6.7,24,6.6V3.5c0-0.1,0-0.1,0.1-0.2s0.1-0.1,0.2-0.1c0.1,0,0.2,0.1,0.3,0.2l0.9,2
				l0.9-2c0-0.1,0.1-0.1,0.1-0.1c0.1,0,0.1,0,0.2,0c0.1,0,0.1,0,0.2,0.1C27,3.3,27,3.4,27,3.5V6.6z"/>
			<path class="st6" d="M28.3,5.6v1c0,0.1,0,0.1-0.1,0.2c-0.1,0.1-0.1,0.1-0.2,0.1c-0.1,0-0.1,0-0.2-0.1c-0.1-0.1-0.1-0.1-0.1-0.2
				v-3c0-0.1,0-0.2,0.1-0.2c0.1-0.1,0.1-0.1,0.2-0.1h0.7c0.2,0,0.4,0,0.6,0.1c0.2,0.1,0.3,0.1,0.4,0.3c0.1,0.1,0.2,0.2,0.2,0.4
				C30,4.1,30,4.3,30,4.4c0,0.2,0,0.3-0.1,0.5c-0.1,0.1-0.1,0.3-0.2,0.4c-0.1,0.1-0.2,0.2-0.4,0.2c-0.1,0.1-0.3,0.1-0.5,0.1H28.3z
				 M28.3,5h0.5c0.4,0,0.7-0.2,0.7-0.6c0-0.1,0-0.2,0-0.2S29.3,4,29.3,4c0-0.1-0.1-0.1-0.2-0.1c-0.1,0-0.2-0.1-0.3-0.1h-0.5V5z"/>
			<path class="st6" d="M32.8,4.3c0,0.3-0.1,0.5-0.2,0.6c-0.1,0.2-0.3,0.3-0.5,0.3c0.1,0.2,0.2,0.4,0.4,0.6c0.1,0.2,0.2,0.4,0.4,0.6
				c0,0,0,0,0,0.1s0,0.1,0,0.1c0,0.1,0,0.1-0.1,0.2c-0.1,0.1-0.1,0.1-0.2,0.1c-0.1,0-0.2,0-0.2-0.1l-0.9-1.4H31v1.3
				c0,0.1,0,0.1-0.1,0.2c-0.1,0.1-0.1,0.1-0.2,0.1c-0.1,0-0.1,0-0.2-0.1c-0.1-0.1-0.1-0.1-0.1-0.2v-3c0-0.1,0-0.2,0.1-0.2
				c0.1-0.1,0.1-0.1,0.2-0.1h0.9c0.2,0,0.4,0,0.6,0.1c0.1,0.1,0.3,0.1,0.4,0.2s0.2,0.2,0.2,0.3C32.8,4,32.8,4.2,32.8,4.3z M32.3,4.3
				c0-0.1,0-0.1,0-0.2S32.2,4,32.2,3.9c0,0-0.1-0.1-0.2-0.1c-0.1,0-0.2,0-0.3,0H31v1h0.6c0.2,0,0.4,0,0.5-0.1S32.3,4.5,32.3,4.3z"/>
			<path class="st6" d="M35.4,6.6c0,0.1,0,0.1-0.1,0.2c-0.1,0.1-0.1,0.1-0.2,0.1h-1.3c-0.1,0-0.2,0-0.3-0.1c-0.1,0-0.1-0.1-0.1-0.2
				v-3c0-0.1,0-0.1,0.1-0.2c0.1-0.1,0.1-0.1,0.2-0.1h1.4c0.1,0,0.1,0,0.2,0.1c0.1,0.1,0.1,0.1,0.1,0.2c0,0.1,0,0.1-0.1,0.2
				c-0.1,0-0.1,0.1-0.2,0.1H34v1h1c0.1,0,0.1,0,0.2,0.1c0.1,0,0.1,0.1,0.1,0.2s0,0.1-0.1,0.2c-0.1,0.1-0.1,0.1-0.2,0.1h-1v1h1.2
				c0.1,0,0.1,0,0.2,0.1C35.4,6.4,35.4,6.5,35.4,6.6z"/>
			<path class="st6" d="M37.4,5.8c0-0.1,0-0.2-0.1-0.3c-0.1-0.1-0.1-0.1-0.2-0.1c-0.1,0-0.2-0.1-0.3-0.1c-0.1,0-0.2-0.1-0.3-0.1
				c-0.1,0-0.2-0.1-0.3-0.1c-0.1,0-0.2-0.1-0.3-0.2c-0.1-0.1-0.1-0.2-0.2-0.3c0-0.1-0.1-0.2-0.1-0.4c0-0.3,0.1-0.6,0.3-0.7
				c0.2-0.2,0.5-0.3,0.8-0.3c0.1,0,0.2,0,0.3,0s0.2,0,0.3,0.1s0.2,0.1,0.3,0.1c0.1,0.1,0.1,0.1,0.1,0.2c0,0.1,0,0.1-0.1,0.2
				c0,0.1-0.1,0.1-0.2,0.1c0,0-0.1,0-0.1,0c0,0-0.1,0-0.1,0c0,0-0.1,0-0.2,0c-0.1,0-0.1,0-0.2,0c-0.1,0-0.1,0-0.2,0s-0.1,0-0.2,0.1
				c-0.1,0-0.1,0.1-0.1,0.1c0,0.1,0,0.1,0,0.2c0,0.1,0,0.1,0,0.2c0,0,0,0.1,0.1,0.1c0,0,0.1,0.1,0.1,0.1c0,0,0.1,0,0.1,0
				c0.1,0,0.2,0.1,0.3,0.1s0.2,0.1,0.3,0.1s0.2,0.1,0.3,0.1c0.1,0,0.2,0.1,0.2,0.2c0.1,0.1,0.1,0.2,0.2,0.3C38,5.5,38,5.6,38,5.8
				c0,0.2,0,0.3-0.1,0.5c-0.1,0.1-0.1,0.2-0.2,0.3s-0.2,0.2-0.4,0.2c-0.1,0-0.3,0.1-0.5,0.1c-0.1,0-0.2,0-0.3,0s-0.2,0-0.3-0.1
				c-0.1,0-0.2-0.1-0.3-0.1c-0.1-0.1-0.1-0.1-0.1-0.2c0-0.1,0-0.1,0.1-0.2s0.1-0.1,0.2-0.1c0,0,0.1,0,0.1,0c0,0,0.1,0,0.2,0.1
				s0.1,0,0.2,0.1c0.1,0,0.2,0,0.3,0c0.2,0,0.4,0,0.5-0.1C37.4,6.1,37.4,6,37.4,5.8z"/>
			<path class="st6" d="M38.8,6.7c0,0.1-0.1,0.1-0.1,0.1s-0.1,0.1-0.2,0.1c-0.1,0-0.1,0-0.2-0.1c-0.1,0-0.1-0.1-0.1-0.2
				c0,0,0,0,0-0.1c0,0,0,0,0,0l1-3c0-0.1,0.1-0.2,0.1-0.2c0.1-0.1,0.1-0.1,0.2-0.1c0.1,0,0.2,0,0.2,0.1s0.1,0.1,0.1,0.2l1,3
				c0,0,0,0,0,0c0,0,0,0,0,0.1c0,0.1,0,0.1-0.1,0.2c-0.1,0-0.1,0.1-0.2,0.1c-0.1,0-0.2,0-0.2-0.1c0-0.1-0.1-0.1-0.1-0.2l-0.2-0.5H39
				L38.8,6.7z M39.6,4c-0.1,0.3-0.1,0.5-0.2,0.8c-0.1,0.2-0.2,0.5-0.2,0.8h0.9c-0.1-0.3-0.2-0.5-0.2-0.8C39.7,4.6,39.7,4.3,39.6,4z"
				/>
		</g>
	</g>
</g>
</svg>
