<?xml version="1.0" encoding="utf-8"?>
<!-- Generator: Adobe Illustrator 19.0.0, SVG Export Plug-In . SVG Version: 6.00 Build 0)  -->
<svg version="1.1" id="Capa_1" xmlns="http://www.w3.org/2000/svg" xmlns:xlink="http://www.w3.org/1999/xlink" x="0px" y="0px"
	 viewBox="91 359.9 794.9 75.1" style="enable-background:new 91 359.9 794.9 75.1;" xml:space="preserve">
<style type="text/css">
	.st0{fill:#0D004C;}
	.st1{fill:#FA8510;}
	.st2{fill:none;stroke:#384E9A;stroke-miterlimit:10;}
	.st3{fill:#00478C;}
	.st4{fill:#04A7DB;}
</style>
<g id="Capa_1_1_">
</g>
<g id="Capa_2">
</g>
<rect id="XMLID_434_" x="91" y="416.4" class="st0" width="794.9" height="18.6"/>
<polygon id="XMLID_513_" class="st1" points="719.1,359.9 719.1,412.6 362.6,412.6 338.3,359.9 "/>
<g id="XMLID_800_">
	<line id="XMLID_721_" class="st2" x1="142.6" y1="370.9" x2="142.6" y2="407.8"/>
	<path id="XMLID_796_" class="st3" d="M177.6,370.9h1.8v1.5h-1.8V370.9z M177.6,373.2h1.8v6.4h-1.8V373.2z"/>
	<path id="XMLID_718_" class="st3" d="M182,373.2v0.8l0,0c0.2-0.5,0.7-1,1.2-1c0.9,0,1.6,0.5,1.6,1.3v5.3h-1.8V375
		c0-0.3-0.2-0.5-0.5-0.5c-0.3,0-0.5,0.2-0.5,0.5v4.6h-1.8v-6.4L182,373.2L182,373.2z"/>
	<path id="XMLID_792_" class="st3" d="M185.8,370.9h1.8v1.5h-1.8V370.9z M185.8,373.2h1.8v6.4h-1.8V373.2z"/>
	<path id="XMLID_715_" class="st3" d="M191.5,375.5L191.5,375.5c0-0.3,0-0.5-0.1-0.8s-0.2-0.4-0.5-0.4c-0.5,0-0.5,0.4-0.5,0.8v2.6
		c0,0.4,0.1,0.8,0.6,0.8c0.7,0,0.5-1,0.5-1.5h1.8c0,0.4-0.1,1.2-0.2,1.5c-0.2,0.8-0.9,1.2-1.7,1.2c-0.2,0-0.3,0-0.6,0
		c-1.3,0-2.2-0.5-2.2-2v-2.6c0-1.6,0.9-2.2,2.2-2.2c1.8,0,2.5,0.8,2.4,2.6L191.5,375.5L191.5,375.5z"/>
	<path id="XMLID_788_" class="st3" d="M194,370.9h1.8v1.5H194V370.9z M194,373.2h1.8v6.4H194V373.2z"/>
	<path id="XMLID_785_" class="st3" d="M199.7,379c-0.5,0.5-0.9,0.8-1.5,0.8c-1,0-1.7-0.7-1.7-1.7c0-1.5,0.8-1.9,1.6-2.2
		c0.8-0.2,1.5-0.3,1.5-1c0-0.4-0.2-0.7-0.5-0.7c-0.7,0-0.7,0.5-0.7,1h-1.8c-0.1-1.6,1-2.2,2.5-2.2c1.8,0,2.5,0.5,2.5,1.9v3.9
		c0,0.2,0.1,0.5,0.2,0.7h-1.8L199.7,379z M199.6,376.3c-0.4,0.2-0.7,0.3-0.9,0.5c-0.2,0.2-0.4,0.4-0.4,0.9c0,0.4,0.2,0.7,0.7,0.7
		c0.5,0,0.6-0.5,0.7-1L199.6,376.3L199.6,376.3z"/>
	<path id="XMLID_710_" class="st3" d="M201.7,374.4V373h0.7v-1.9h1.8v1.9h0.9v1.3h-0.9v3.4c0,0.4,0.2,0.5,0.4,0.5s0.3,0,0.5,0v1.3
		c-0.4,0.1-0.8,0.1-1.2,0.1c-1,0-1.5-0.5-1.5-1.5v-3.6h-0.6V374.4z"/>
	<path id="XMLID_781_" class="st3" d="M205.7,370.9h1.8v1.5h-1.8V370.9z M205.7,373.2h1.8v6.4h-1.8V373.2z"/>
	<polygon id="XMLID_707_" class="st3" points="210.3,377.3 210.4,377.3 211,373.2 212.8,373.2 211.4,379.5 209.3,379.5 207.9,373.2 
		209.8,373.2 	"/>
	<path id="XMLID_777_" class="st3" d="M216.1,379c-0.5,0.5-0.9,0.8-1.5,0.8c-1,0-1.7-0.7-1.7-1.7c0-1.5,0.8-1.9,1.6-2.2
		c0.8-0.2,1.5-0.3,1.5-1c0-0.4-0.2-0.7-0.5-0.7c-0.7,0-0.7,0.5-0.7,1H213c-0.1-1.6,1-2.2,2.5-2.2c1.8,0,2.5,0.5,2.5,1.9v3.9
		c0,0.2,0.1,0.5,0.2,0.7h-1.8L216.1,379z M216,376.3c-0.4,0.2-0.7,0.3-0.9,0.5c-0.2,0.2-0.4,0.4-0.4,0.9c0,0.4,0.2,0.7,0.7,0.7
		c0.5,0,0.6-0.5,0.7-1L216,376.3L216,376.3z"/>
	<path id="XMLID_774_" class="st3" d="M222.6,373.2v0.8l0,0c0.4-0.6,0.9-0.9,1.5-0.9c1.2,0,1.5,1.2,1.5,2.2v2.2
		c0,1.1-0.2,2.3-1.6,2.4c-0.3,0-0.9-0.2-1.3-0.8l0,0v2.8h-1.8v-8.6L222.6,373.2L222.6,373.2z M223.9,375.5c0-0.4,0-1.1-0.5-1.1
		c-0.5,0-0.6,0.5-0.6,1.2v1.5c0,0.5,0.1,1.2,0.5,1.2c0.6,0,0.5-0.7,0.5-1.1L223.9,375.5L223.9,375.5L223.9,375.5z"/>
	<path id="XMLID_771_" class="st3" d="M226.3,375.1c0-1.6,1-2.2,2.4-2.2c1.6,0,2.4,0.8,2.4,2.2v2.6c-0.1,1.5-1,2-2.4,2
		c-1.3,0-2.4-0.5-2.4-2V375.1z M228.1,377.8c0,0.4,0.2,0.5,0.5,0.5s0.5-0.2,0.5-0.5V375c0-0.4-0.2-0.8-0.5-0.8s-0.5,0.3-0.5,0.8
		V377.8z"/>
	<path id="XMLID_700_" class="st3" d="M233.3,373.2v1l0,0c0.2-0.7,0.6-1.2,1.4-1.2v2.1c-0.2,0-0.4-0.1-0.5-0.1
		c-0.5,0-0.7,0.1-0.8,0.6v3.9h-1.8v-6.4L233.3,373.2L233.3,373.2z"/>
	<rect id="XMLID_699_" x="237.8" y="370.9" class="st3" width="1.8" height="8.6"/>
	<path id="XMLID_766_" class="st3" d="M240.4,375.1c0-1.6,1-2.2,2.4-2.2c1.6,0,2.4,0.8,2.4,2.2v2.6c-0.1,1.5-1,2-2.4,2
		c-1.3,0-2.4-0.5-2.4-2V375.1z M242.3,377.8c0,0.4,0.2,0.5,0.5,0.5s0.5-0.2,0.5-0.5V375c0-0.4-0.2-0.8-0.5-0.8s-0.5,0.3-0.5,0.8
		V377.8z"/>
	<path id="XMLID_696_" class="st3" d="M248.5,375c-0.1-0.5,0-0.9-0.6-0.9c-0.4,0-0.6,0.2-0.6,0.5c0,0.3,0.3,0.5,0.5,0.6
		c1.2,0.5,2.5,0.9,2.5,2.4c0,1.4-1.1,2-2.4,2c-1.5,0-2.5-0.6-2.4-2.2h1.7c0,0.5,0.1,0.9,0.6,0.9c0.4,0,0.6-0.2,0.6-0.6
		c0-0.2-0.1-0.4-0.2-0.5c-0.7-0.4-1.8-0.7-2.3-1.3c-0.3-0.4-0.5-0.7-0.5-1.2c0-1.4,1.1-2,2.4-2s2.4,0.7,2.3,2.1L248.5,375L248.5,375
		z"/>
	<path id="XMLID_695_" class="st4" d="M152.9,399.4v2.9c0,0.9,0.4,1.2,1.1,1.2c0.8,0,1.1-0.2,1.1-0.9v-18.9h5.5V400
		c0,1.6,0.1,3.5-0.7,5c-1.2,2.2-3.2,2.6-5.6,2.6c-2.6,0-4.9-1.2-5.5-3.9c-0.3-1.1-0.2-2.1-0.2-3.2v-1.4h4.3V399.4z"/>
	<path id="XMLID_760_" class="st4" d="M177.2,399.7c0,5.3-1.9,8-7.3,8c-5.5,0-7.4-2.7-7.4-8v-9.5c0-4.5,2.7-7,7.4-7
		c4.8,0,7.3,2.5,7.3,7V399.7z M176.2,376.9l-5.3,4.6h-4.3l3.1-4.6H176.2L176.2,376.9z M171.7,390.6c0-1.4-0.2-3.2-1.9-3.2
		c-1.7,0-1.9,1.7-1.9,3.2v9.5c0,1.3,0.2,3.3,2,3.3c1.8,0,1.9-2,1.9-3.3L171.7,390.6L171.7,390.6z"/>
	<polygon id="XMLID_691_" class="st4" points="182.9,407.2 177.8,383.8 183.3,383.8 186.1,400.2 186.1,400.2 188.9,383.8 
		194.4,383.8 189.3,407.2 	"/>
	<polygon id="XMLID_690_" class="st4" points="195.3,407.2 195.3,383.8 207.7,383.8 207.7,388.4 200.7,388.4 200.7,392.8 
		207.6,392.8 207.6,397.5 200.7,397.5 200.7,402.5 208.1,402.5 208.1,407.2 	"/>
	<polygon id="XMLID_689_" class="st4" points="214.5,394.1 214.4,394.2 214.9,407.2 209.7,407.2 209.7,383.8 215.4,383.8 
		219.5,396.9 219.7,396.9 219.2,383.8 224.3,383.8 224.3,407.2 218.8,407.2 	"/>
	<polygon id="XMLID_688_" class="st4" points="226.2,407.2 226.2,383.8 238.6,383.8 238.6,388.4 231.6,388.4 231.6,392.8 
		238.5,392.8 238.5,397.5 231.6,397.5 231.6,402.5 239,402.5 239,407.2 	"/>
	<path id="XMLID_687_" class="st4" d="M244.9,399.4v1.6c0,1.3,0.5,2.6,2.2,2.6c1.2,0,1.9-1.2,1.9-2.3c0-1.9-1.6-2.7-3-3.6
		c-1.7-0.9-3.1-1.9-4.1-3s-1.5-2.6-1.5-4.6c0-4.4,2.6-6.7,6.9-6.7c4.7,0,7.2,3.2,7,7.6h-5c-0.1-1.4,0-3.2-1.8-3.3
		c-1.1-0.1-1.8,0.5-1.9,1.5c-0.2,1.4,0.5,2.1,1.6,2.9c2.1,1.3,3.8,2.1,5.1,3.3c1.2,1.2,2,2.7,2,5.6c0,4.5-2.5,7-7,7
		c-5,0-7.1-2.8-7.1-5.9v-2.6L244.9,399.4L244.9,399.4z"/>
	<path id="XMLID_723_" class="st3" d="M107.2,398.7c-0.1,0.1-0.2,0.2-0.2,0.4v5.6l0,0c0,0-3.1-5.5-3.2-5.7c-0.1-0.2-0.2-0.3-0.4-0.4
		c-0.2-0.1-0.3-0.2-0.6-0.2h-1c-0.2,0-0.4,0.1-0.5,0.2c-0.1,0.1-0.2,0.2-0.2,0.4v8c0,0.2,0.1,0.3,0.2,0.4c0.1,0.2,0.2,0.2,0.5,0.2
		h0.5c0.2,0,0.4-0.1,0.5-0.2c0.1-0.1,0.2-0.2,0.2-0.4v-5.7l0,0c0,0,3.2,5.6,3.3,5.8c0.2,0.3,0.5,0.5,0.9,0.5h1
		c0.2,0,0.4-0.1,0.5-0.2c0.1-0.1,0.2-0.2,0.2-0.4v-7h12.8c0.2,0,0.2,0,0.3-0.1c0.1-0.1,0.2-0.2,0.2-0.3v-0.5c0-0.2,0-0.2-0.2-0.3
		c-0.1-0.1-0.2-0.1-0.3-0.1h-14C107.5,398.5,107.3,398.7,107.2,398.7 M129.9,380.2c-2.3-3.4-4.3-4.6-4.9-5.1
		c-0.6-0.6-1.1-1.2-1.4-1.6c-0.7-0.7-1.5-1.6-2.9-1.6s-2.3,0.9-2.6,1.7c-0.1,0.2-0.2,0.5-0.2,0.6c-0.2,0.2-0.8,1.2-1,1.7h1.2
		l-0.5,1.1c0.6-0.2,1.1-0.2,1.7-0.2c0.5,0,0.9,0.2,1.1,0.5c0.3,0.6,0.3,2.6,0.9,4c0.5,1.4,1.7,2.7,3.1,3.7c0,0,0,0,0.1,0
		s0.1-0.1,0.1-0.1s0-0.1-0.1-0.1c-1.2-1.2-2.1-2.5-2.6-3.9c-0.5-1.4-0.4-3.3-0.9-4.2c-0.3-0.5-0.9-0.7-1.5-0.7
		c-0.5,0-0.9,0.1-1.1,0.2l0.5-0.9h-0.9c0.2-0.3,0.4-0.6,0.5-0.8c0.1-0.2,0.1-0.3,0.2-0.6c0.3-0.8,1-1.3,1.9-1.3
		c1.2,0,1.9,0.8,2.5,1.5c0.3,0.3,0.9,1.1,1.4,1.6c0.4,0.4,1.2,0.8,2.3,2c0.7,0.7,1.5,1.6,2.3,2.9c2.9,4.3,4.9,8.2,6,11.2l0,0
		c-3.1-2.1-5.8-4.1-8-6.6c-1.5-1.8-2.9-3.8-4-6.3c-0.1-0.2-0.2-0.3-0.2-0.5c0-0.1-0.1-0.1-0.1-0.1c-0.1,0-0.1,0.1-0.1,0.1
		c0,0.1,0,0.2,0.1,0.5c0.6,2.7,2.3,5.1,4.2,7.1c1.9,2,3.9,3.7,5.6,5l1.3,3.8c0,0.1,0.1,0.2,0.1,0.3c0,0.1,0,0.2-0.1,0.2
		c0,0-0.1,0.1-0.2,0.1h-0.4c-0.2,0-0.2,0-0.3-0.1s-0.1-0.2-0.2-0.2c-0.2-0.4-0.9-2.3-0.9-2.8c0-0.1-0.1-0.1-0.2-0.1
		c-0.1,0-0.1,0.1-0.1,0.1c0,0.1,0,0.1,0.1,0.3c0.2,0.9,0.4,1.9,0.5,2.3c0,0.2,0.1,0.3,0.1,0.5c0,0.1,0,0.2-0.2,0.2l-0.4,0.4
		c-0.1,0.1-0.2,0.2-0.2,0.2c-0.1,0-0.2-0.1-0.2-0.2c-0.5-2.2-1.2-4.9-1.4-5.6c-0.1-0.2-0.1-0.2-0.2-0.2c-0.1,0-0.2,0.1-0.2,0.2
		s0,0.2,0,0.2c0.1,0.8,0.5,3.6,1.1,6.2c0.1,0.5,0.2,0.7,0.6,0.7c0.2,0,0.3-0.1,0.5-0.2c0.2-0.2,0.3-0.3,0.6-0.6
		c0.2-0.2,0.4-0.3,0.7-0.3h0.9c0.2,0,0.3-0.1,0.5-0.2c0.1-0.1,0.2-0.2,0.2-0.4s-0.1-0.3-0.2-0.5c-0.2-0.6-1-2.8-1.2-3.3l0,0
		c0.8,0.6,1.9,1.3,2.4,1.3c0.2,0,0.2-0.1,0.2-0.3C136.1,391.1,134.2,386.5,129.9,380.2 M112.8,400.8c-2.2,0-3.3,1.7-3.3,3.4
		c0,1.9,1.3,3.6,3.3,3.6c1,0,2-0.4,2.6-1.1c0.2-0.3,0.5-0.7,0.5-0.9c0-0.1,0-0.2-0.1-0.2c-0.1-0.1-0.2-0.1-0.2-0.1h-1
		c-0.2,0-0.3,0.1-0.5,0.2c-0.3,0.4-0.7,0.6-1.3,0.6c-0.9,0-1.5-0.7-1.5-1.5h4.3c0.2,0,0.3-0.1,0.4-0.2s0.2-0.2,0.2-0.5
		c0-0.8-0.2-1.6-0.8-2.3C114.8,401.4,114,400.8,112.8,400.8 M119.4,400.8c-1.7,0-2.8,0.8-2.8,2.1c0,0.5,0.2,0.9,0.5,1.1
		c0.3,0.3,0.8,0.5,1.4,0.8l1.4,0.4c0.4,0.1,0.7,0.2,0.7,0.5c0,0.5-0.5,0.7-1.2,0.7c-0.3,0-0.6-0.1-0.9-0.2c-0.2-0.1-0.3-0.2-0.4-0.4
		c-0.1-0.2-0.2-0.2-0.2-0.3c-0.1-0.1-0.2-0.1-0.3-0.1h-0.8c-0.2,0-0.2,0.1-0.3,0.2c-0.1,0.1-0.1,0.2-0.1,0.2c0,0.2,0.1,0.5,0.3,0.9
		c0.5,0.6,1.5,1.2,2.7,1.2s2.9-0.5,2.9-2.2c0-0.4-0.2-0.8-0.4-1.1c-0.3-0.4-0.7-0.6-1.4-0.9l-1.4-0.4c-0.5-0.2-0.9-0.2-0.9-0.6
		c0-0.3,0.3-0.6,1-0.6c0.4,0,0.8,0.1,1.1,0.4c0.2,0.2,0.2,0.3,0.3,0.4c0.1,0.1,0.2,0.1,0.4,0.1h0.7c0.1,0,0.2,0,0.2-0.1
		c0.1-0.1,0.1-0.2,0.1-0.3c0-0.3-0.2-0.7-0.5-1.1C121.2,401.2,120.4,400.8,119.4,400.8 M108.8,372.8c0.2-0.3,0.4-0.5,0.8-0.5
		c0.5,0,0.9,0.4,0.9,0.9c0,0.3-0.2,0.5-0.3,0.7c0.1,0.2,0.1,0.3,0.1,0.5c0,0.5-0.3,0.9-0.9,1.1c-0.1,0.3-0.2,0.6-0.5,0.8
		c-0.4,0.4-0.8,0.4-0.8,0.5c0,0.1,0.1,0.2,0.2,0.2c0.7,0,1.4-0.4,1.5-1c0.6-0.2,1.1-0.9,1.1-1.4c0-0.2,0-0.2-0.1-0.4
		c0.2-0.2,0.4-0.5,0.4-0.9c0-0.4-0.2-0.8-0.5-1.1c-0.2-0.2-0.6-0.4-1.1-0.4c-0.6,0-1,0.3-1.2,0.7c-0.7,0-1.5,0.8-1.5,1.8h-0.1
		c-0.1-0.4-0.5-0.6-0.8-0.6c-0.2-0.8-0.9-1.5-1.8-1.5c-0.1,0-0.2,0-0.4,0c-0.3-0.2-0.6-0.4-1-0.4c-0.9,0-1.5,0.7-1.5,1.5
		c0,0.5,0.2,0.9,0.7,1.2v0.1c0,0.7,0.8,1.7,1.9,1.7c0,0.2,0.2,0.4,0.5,0.5v0.1h-0.1c-1.5,0-2.2,0.7-2.2,1.2
		c-0.5,0.2-0.8,0.7-0.8,1.2c0,0.9,0.7,1.5,1.5,1.5c0.3,0,0.6-0.2,0.8-0.3c0.2,0.1,0.4,0.1,0.5,0.1c0.4,0,0.9-0.2,1.2-0.6
		c0.1,0,0.1,0,0.2,0c0.5,0,1-0.4,1.2-0.9c0.1-0.2,0.1-0.2,0.1-0.3s0-0.2-0.1-0.2c-0.1,0-0.1,0.1-0.2,0.2c-0.3,0.3-0.9,0.5-1.4,0.5
		c-0.2,0.4-0.6,0.6-1,0.6c-0.3,0-0.5-0.1-0.7-0.2c-0.2,0.2-0.4,0.3-0.6,0.3c-0.5,0-0.9-0.3-0.9-0.9c0-0.3,0.2-0.6,0.5-0.8
		c0.1-0.6,0.7-1,1.5-1c0.1,0,0.2,0,0.3,0c0.2-0.2,0.4-0.4,0.9-0.5c0.1,0,0.2,0,0.2-0.1c0.1,0,0.1-0.1,0.1-0.2s0-0.1-0.1-0.2
		c-0.1,0-0.2,0-0.2-0.1c-0.4-0.1-0.9-0.3-1.1-0.9c-0.9,0-1.6-0.8-1.6-1.5v-0.1c-0.3-0.2-0.5-0.4-0.5-0.8c0-0.5,0.4-0.9,0.9-0.9
		c0.3,0,0.5,0.2,0.7,0.3c0.2,0,0.3-0.1,0.4-0.1c0.7,0,1.4,0.5,1.5,1.3c0.9,0.1,1.1,0.9,1.2,1.2c0,0.2,0.1,0.3,0.2,0.3
		c0.1,0,0.2-0.2,0.2-0.3c0.1-0.3,0.2-0.5,0.4-0.8C107.3,373.6,107.9,372.8,108.8,372.8 M123.3,401.2h-0.3c-0.2,0-0.2,0-0.3,0.1
		c-0.1,0.1-0.2,0.2-0.2,0.3v0.4c0,0.2,0,0.2,0.2,0.3c0.1,0.1,0.2,0.1,0.3,0.1h0.3v3.1c0,0.8,0.2,1.3,0.6,1.7s0.9,0.6,1.7,0.6h0.5
		c0.2,0,0.2,0,0.3-0.1c0.1-0.1,0.2-0.2,0.2-0.3v-0.5c0-0.2-0.1-0.2-0.2-0.3c-0.1-0.1-0.2-0.1-0.3-0.1H126c-0.3,0-0.5-0.1-0.7-0.2
		s-0.3-0.5-0.3-0.8v-2.9h1.1c0.2,0,0.2,0,0.3-0.1c0.1-0.1,0.2-0.2,0.2-0.3v-0.4c0-0.2,0-0.2-0.2-0.3c-0.1-0.1-0.2-0.1-0.3-0.1H125
		v-2.1c0-0.2-0.1-0.3-0.2-0.4c-0.1-0.1-0.2-0.2-0.4-0.2h-0.7c-0.2,0-0.3,0.1-0.4,0.2c-0.1,0.1-0.2,0.2-0.2,0.4
		C123.3,399.3,123.3,401.2,123.3,401.2z M127,407.2c0,0.2,0.1,0.3,0.2,0.4c0.1,0.1,0.2,0.2,0.4,0.2h0.7c0.2,0,0.3-0.1,0.4-0.2
		c0.1-0.1,0.2-0.2,0.2-0.4v-8c0-0.2-0.1-0.3-0.2-0.4c-0.1-0.1-0.2-0.2-0.4-0.2h-0.7c-0.2,0-0.3,0.1-0.4,0.2
		c-0.1,0.1-0.2,0.2-0.2,0.4L127,407.2L127,407.2z M110.6,377.8c-0.3,0.4-0.5,0.6-1.2,1.4c-0.9,1-1.3,1.9-2.1,3.7c0.2,0,0.3,0,0.5,0
		c0.1,0,0.2,0,0.3,0l0.1-0.2c0.4-0.9,1-2.2,1.8-3.1l0.3-0.3c0.9-0.9,1.3-1.5,1.6-2.9c0.1-0.5,0.2-0.9,0.5-1.2c0.3-0.3,0.6-0.4,1-0.4
		c0.3,0,0.5,0.1,0.9,0.2c0.3,0.2,0.4,0.2,0.7,0.2c0.1,0,0.2,0,0.2,0l-0.5,0.5l0.6,0.4c-0.7,0.2-1.1,0.9-1.2,1.2c0,0.1,0,0.1,0,0.2
		c0,0.1,0,0.1,0.1,0.1c0.1,0,0.2-0.1,0.2-0.2c0.4-0.5,0.6-0.7,1.9-1.2l-0.9-0.7l0.7-1h-0.7c-0.4,0-0.7,0-1.1-0.2
		c-0.5-0.2-0.8-0.3-1.2-0.3c-0.5,0-1,0.2-1.4,0.5c-0.5,0.4-0.6,1-0.8,1.6C111.1,376.7,111,377.3,110.6,377.8 M112,382
		c-0.4,0.5-0.9,1.1-1.2,1.8c0.2,0.1,0.5,0.2,0.6,0.3c0.4-0.6,1-1.4,1.4-2c0.4-0.5,0.5-0.8,0.5-1.5c0-0.2,0-0.2,0-0.4
		c0-0.4,0.2-0.8,0.5-1.1c0.2-0.2,0.6-0.4,1-0.4s0.6,0.1,0.9,0.1c0.2,0,0.4-0.1,0.5-0.1l0.2-0.1l-0.3,0.7l0.7,0.2
		c-0.4,0.2-1.4,1.4-1.4,2.8c0,0.5,0.1,0.9,0.2,1.3c0,0.1,0,0.1,0.1,0.1c0.1,0,0.1,0,0.1-0.1v-0.2c0-0.4,0.1-1.1,0.2-1.6
		c0.3-1,1-1.9,1.8-2.3l-1.1-0.5l0.5-1.1l-0.5,0.1c-0.3,0.1-0.5,0.2-0.8,0.2c-0.2,0-0.4,0-0.6-0.1c-0.2-0.1-0.4-0.1-0.6-0.1
		c-0.5,0-1,0.2-1.4,0.5c-0.6,0.6-0.7,1.3-0.7,1.9C112.6,381.2,112.4,381.5,112,382 M127.8,382.4c-0.1-0.1-0.1-0.1-0.2-0.1
		c-0.1,0-0.1,0.1-0.1,0.1c0,0.1,0.1,0.2,0.2,0.5c0.5,0.8,1.1,1.6,1.8,2.3c0.8,0.9,1.7,1.5,2.6,2.2l0.3,0.2c0.1,0,0.1,0.1,0.1,0.1
		c0.1,0,0.1-0.1,0.1-0.1s0-0.1-0.1-0.1c-0.9-0.9-1.9-1.8-2.8-2.8C129.1,384,128.4,383.2,127.8,382.4 M111.3,403.5
		c0.1-0.8,0.7-1.3,1.5-1.3c0.9,0,1.5,0.5,1.5,1.3H111.3z M108,379.5c0.1-0.2,0.4-0.5,0.5-0.6c-0.5-0.9-1.2-1.9-1.6-2.2l-0.3,0.3
		C106.9,377.5,107.5,378.2,108,379.5 M103.5,374c-0.1-0.1-0.1-0.1-0.1-0.2c0-0.1,0-0.1,0.1-0.1h0.1c0.5,0.2,0.9,0.4,1.2,0.7
		c0.3,0.2,0.5,0.5,0.9,0.9l-0.2,0.3C105,375.4,104,374.4,103.5,374 M107.9,376.1l-0.3-0.2c0.2-0.5,0.5-1,0.8-1.3
		c0.2-0.2,0.5-0.5,0.7-0.7c0.1-0.1,0.1-0.1,0.2-0.1c0.1,0,0.1,0.1,0.1,0.1v0.1C108.8,374.6,108.1,375.8,107.9,376.1 M103.7,379
		c-0.1,0-0.2,0.1-0.2,0.1c-0.1,0-0.1-0.1-0.1-0.1c0-0.1,0-0.1,0.1-0.1c0.8-0.6,1.4-0.9,2.3-1l0.1,0.4L103.7,379z M119.5,374.2
		c0-0.2,0.1-0.6,0.5-0.6c0.2,0,0.2,0,0.4,0.1c0.2,0.1,0.2,0.2,0.2,0.3c0,0.1-0.1,0.2-0.3,0.4c-0.2,0.2-0.4,0.3-0.5,0.3
		C119.5,374.6,119.5,374.4,119.5,374.2 M113.2,375.9c0-0.2,0.2-0.5,0.5-0.5c0.2,0,0.3,0.1,0.4,0.2c0.1,0.1,0.1,0.2,0.1,0.2
		c0,0.2-0.2,0.3-0.3,0.4c-0.2,0.1-0.2,0.2-0.4,0.2C113.3,376.3,113.2,376.1,113.2,375.9 M114.7,379.8c0-0.1,0-0.2,0-0.2
		c0.1-0.2,0.2-0.3,0.4-0.3c0.2,0,0.2,0,0.4,0.1c0.1,0.1,0.2,0.2,0.2,0.2c0,0.2-0.5,0.5-0.7,0.5C114.7,380.2,114.7,379.9,114.7,379.8
		 M135.5,399.9c0.2,0,0.2,0,0.3-0.1s0.2-0.2,0.2-0.3V399c0-0.2-0.1-0.3-0.2-0.4c-0.1-0.1-0.2-0.2-0.3-0.2c-0.1,0-0.2,0-0.4,0
		l-4.9,0.5c-0.2,0-0.2,0.1-0.2,0.1c-0.1,0.1-0.1,0.2-0.1,0.2v0.3c0,0.2,0,0.2,0.1,0.2c0.1,0.1,0.2,0.1,0.2,0.1L135.5,399.9
		L135.5,399.9z M132.8,400.8c-2.2,0-3.3,1.7-3.3,3.4c0,1.9,1.3,3.6,3.3,3.6c1,0,2-0.4,2.6-1.1c0.2-0.3,0.5-0.7,0.5-0.9
		c0-0.1,0-0.2-0.1-0.2c-0.1-0.1-0.2-0.1-0.2-0.1h-1c-0.2,0-0.3,0.1-0.5,0.2c-0.3,0.4-0.7,0.6-1.3,0.6c-0.9,0-1.5-0.7-1.5-1.5h4.3
		c0.2,0,0.3-0.1,0.4-0.2c0.1-0.1,0.2-0.2,0.2-0.5c0-0.8-0.2-1.6-0.8-2.3C134.8,401.4,133.9,400.8,132.8,400.8 M131.2,403.5
		c0.1-0.8,0.7-1.3,1.5-1.3s1.5,0.5,1.5,1.3H131.2z M112.2,387.5c-0.9,0-1.2-0.4-1.2-0.9c0-0.9,1.5-1.7,2.9-2.2l0.4,0.5
		c-0.9,0.3-2.6,1.1-2.6,1.7c0,0.2,0.2,0.4,0.6,0.4c0.9,0,1.9-0.5,2.8-0.9c0.1,0,0.2-0.1,0.2-0.1c0.2,0,0.2,0,0.3,0.2l0.2,0.2
		C114.7,386.9,113.4,387.5,112.2,387.5 M114.5,387.8c-0.9,0.5-1.6,0.8-2.4,0.8c-0.9,0-1.5-0.4-2.2-1.3c-0.2-0.4-0.5-0.9-0.7-1.3
		c-0.3-0.5-0.6-0.8-1.2-0.8s-1,0.2-1.5,0.5v0.2c0.1,0.2,0.2,0.3,0.3,0.3c0.1,0,0.2,0,0.2-0.1c0.3-0.1,0.5-0.2,0.9-0.2
		c0.5,0,0.7,0.3,1,0.9l0.2,0.2c-0.3,0.1-1.1,0.2-1.6,0.2h-0.2l0.1,0.2c0,0.1,0.1,0.2,0.2,0.2c0.1,0.1,0.3,0.1,0.5,0.1
		c0.7,0,1.2-0.1,1.5-0.2c0.8,1.2,1.8,1.5,2.8,1.5c0.9,0,1.7-0.3,2.6-0.8L114.5,387.8z M115.4,388.1l-0.2-0.5
		c1.2-0.7,2.4-1.2,4.3-1.4c0,0.7,0,1.6,0.5,1.6c0.5,0,1.5-1.2,2.7-2.8c0.1,0.1,0.3,0.2,0.5,0.3l-0.3,0.4c-1.2,1.5-2.2,2.8-3,2.8
		c-0.8,0-1.1-0.9-1.1-1.5C117.6,386.9,116.5,387.3,115.4,388.1 M131.6,375.5c-0.5,0-0.6-0.2-0.6-0.6c0-0.8,0.5-1.9,0.8-2.6H131
		c-0.4,0.8-1.9,3.2-2.7,4.2l0.5,0.5c0.5-0.5,0.9-1.3,1.5-2.2h0.1c0,0.1,0,0.1,0,0.2c0,0.7,0.4,1.2,1.2,1.2c0.5,0,1.4-0.2,2.2-0.5
		c0.7-0.2,1.2-0.5,1.5-0.5v-0.8c-0.3,0.1-1.1,0.4-1.8,0.6C132.8,375.4,132.1,375.5,131.6,375.5 M133.3,377.8
		c0.8-0.3,2.1-0.9,2.9-1.1V376c-1.5,0.5-4.3,1.7-6,2.7c0.1,0.1,0.4,0.5,0.4,0.5c0.8-0.3,1.5-0.5,2.1-0.5c0.9,0,1.6,0,2.8-0.3v-0.5
		c-0.7,0.2-1.4,0.3-1.9,0.3c-0.3,0-0.4,0-0.4-0.2C133.2,377.8,133.2,377.8,133.3,377.8 M117.2,381.9h3.2l-0.2-0.5h-2.6L117.2,381.9z
		 M106.2,384.8c0.3,0,0.6-0.1,0.9-0.2c0.2-0.1,0.5-0.2,0.9-0.2c0.8,0,1.8,0.4,2.6,0.8c0.1,0,0.1,0,0.2,0c0.2,0,0.2-0.1,0.3-0.2
		l0.1-0.2c-0.9-0.5-2.5-1.2-3.2-1.2c-0.4,0-0.6,0.1-0.9,0.2c-0.3,0.1-0.5,0.2-0.8,0.2c-0.6,0-2.2-0.6-2.2-1.2c0-0.7,2.6-1,2.8-1
		l0.2-0.5c-1.9,0-4,0.6-4,1.5c0,0.2,0.2,0.4,0.2,0.6c0,0.3-0.2,0.5-0.2,0.9c0,0.2,0.2,0.5,0.3,0.8c0.2,0.2,0.4,0.5,0.4,0.7
		c0,0.2-0.1,0.4-0.1,0.8c0,0.9,0.5,1.3,1.4,2.3l0.2,0.2c-0.8,0.3-2.2,0.9-2.6,1.1c-1.2,0.5-1.5,1.1-1.5,2c0,0.4,0,0.8,0,1.2h0.2
		c0.5,0,0.5-0.3,0.5-0.5c0-0.2,0-0.4,0-0.6c0-0.5,0-0.9,0.9-1.3c0.3-0.2,1.9-0.9,3.2-1.3c0.4-0.2,0.7-0.3,1.1-0.3s0.9,0.2,1.5,0.5
		c0.5,0.3,1,0.7,1.5,1.2l0.5-0.4c-0.5-0.5-1.1-1-1.7-1.4c-0.6-0.4-1.2-0.6-1.6-0.6c-0.2,0-0.4,0-0.5,0.1c-0.2,0.1-0.3,0.1-0.5,0.1
		c-0.2,0-0.4-0.1-0.7-0.4c-0.1-0.2-0.8-0.9-0.9-1.1c-0.1-0.1-0.2-0.3-0.2-0.5c0-0.1,0-0.2,0.1-0.3c0.5,0.5,1.3,0.7,2.2,0.9l-0.2-0.6
		c-1.2-0.3-2.6-1.4-2.6-2.1c0-0.2,0-0.2,0.1-0.4C104.5,384.3,105.5,384.8,106.2,384.8 M115.1,384.8c0.8-0.5,1.5-0.6,2.2-0.6
		c0.4,0,0.9,0.1,1.3,0.2c0.4,0.1,0.8,0.1,1.2,0.1c0.9,0,1.7-0.3,2.1-0.5c0.1,0.2,0.3,0.3,0.4,0.4c-0.2,0.1-1.3,0.7-2.5,0.7
		c-0.5,0-1-0.1-1.4-0.2c-0.4-0.1-0.8-0.1-1.2-0.1s-1.3,0.2-1.8,0.4L115.1,384.8z M126.5,387.1c-0.9,1.9-2.3,3.3-3.8,4.2
		c-0.7,0.4-1.3,0.6-2.6,0.6h-2.9c-1,0-1.7,0.2-2.2,0.2c-0.5,0.2-0.9,0.3-1.5,0.3c-0.9,0-1.5-0.4-1.9-0.8l0.7-0.5l-0.3-0.5
		c-0.2,0.2-2.6,1.9-3.1,2.3l0,0c0-0.2,0-0.2,0-0.3c0-1.4-0.6-1.7-1.5-2.1l-0.6,0.4c1.3,0.5,1.6,0.8,1.6,1.8c0,0.8-0.3,1.1-0.7,1.3
		s-0.9,0.4-1.4,0.4c-0.2,0-0.3,0-0.3,0.1c-0.1,0.1-0.1,0.2-0.1,0.3v0.2h0.2c0.9,0,1.6-0.2,2.4-0.8l2.7-2.2c0.4,0.5,1.4,1.1,2.6,1.1
		c0.6,0,1.1-0.2,1.7-0.3c0.5-0.2,0.9-0.2,1.9-0.2h2.9c1.5,0,2.2-0.3,3-0.8c1.7-0.9,3.2-2.6,4-4.5
		C126.8,387.3,126.7,387.1,126.5,387.1 M121.9,389.4c0.8-1.2,1.4-2.2,3-3.1c-0.2-0.1-0.4-0.2-0.5-0.4c-0.6,0.3-1.2,0.9-1.8,1.4
		c-1.2,1.3-1.1,2-2.4,2.6c-0.3,0.2-0.7,0.2-1.2,0.4c-0.3-0.9-1.1-1.9-1.9-1.9c-0.5,0-1.2,0.3-1.9,0.6c-0.9,0.4-1.6,0.9-1.9,1
		l0.3,0.5c0.2-0.2,1-0.5,1.8-0.9c0.6-0.3,1.2-0.5,1.6-0.5c0.6,0,1.1,0.7,1.2,1.3c-0.9,0.2-2.2,0.2-2.6,0.2c-0.2,0-0.2,0-0.3,0.1
		c-0.1,0.1-0.1,0.2-0.2,0.3l-0.1,0.2h0.5c2.3,0,4.5-0.4,5.9-1.2c0.2,0.1,0.4,0.1,0.6,0.1c0.8,0,1.6-0.5,2.2-0.9
		c0.2-0.2,0.2-0.3,0.2-0.4c0-0.1,0-0.2,0-0.2v-0.3c-0.8,0.6-1.4,1-2.1,1C122,389.4,121.9,389.4,121.9,389.4"/>
</g>
<rect x="414.3" y="359.9" class="st1" width="471.7" height="52.7"/>
</svg>
