<?xml version="1.0" encoding="utf-8"?>
<!-- Generator: Adobe Illustrator 16.0.0, SVG Export Plug-In . SVG Version: 6.00 Build 0)  -->
<!DOCTYPE svg PUBLIC "-//W3C//DTD SVG 1.1//EN" "http://www.w3.org/Graphics/SVG/1.1/DTD/svg11.dtd">
<svg version="1.1" id="Capa_1" xmlns="http://www.w3.org/2000/svg" xmlns:xlink="http://www.w3.org/1999/xlink" x="0px" y="0px"
	 width="59px" height="58.25px" viewBox="0 0 59 58.25" enable-background="new 0 0 59 58.25" xml:space="preserve">
<polygon fill="#5C5C60" stroke="#1D4B66" stroke-linecap="round" stroke-miterlimit="10" points="42.307,19.862 38.583,19.862 
	35.651,41.051 35.651,25.342 28.908,29.153 28.908,25.342 21.942,29.28 21.942,25.342 14.483,29.558 14.483,46.771 21.449,46.771 
	21.942,46.771 28.192,46.771 28.908,46.771 34.86,46.771 35.651,46.771 46.1,46.771 "/>
<rect x="15.467" y="34.758" fill="#FFFFFF" stroke="#1D4B66" stroke-linecap="round" stroke-miterlimit="10" width="5.5" height="2.88"/>
<rect x="22.062" y="34.758" fill="#FFFFFF" stroke="#1D4B66" stroke-linecap="round" stroke-miterlimit="10" width="5.501" height="2.88"/>
<rect x="28.656" y="34.758" fill="#FFFFFF" stroke="#1D4B66" stroke-linecap="round" stroke-miterlimit="10" width="5.501" height="2.88"/>
<path fill="#1D4B66" d="M40.579,18.518c0.264-0.373,0.359-1.175-0.165-1.45c-0.514-0.269-1.121-0.002-1.161-0.807
	c-0.013-0.25,0.168-0.482,0.102-0.722c-0.082-0.293-0.463-0.42-0.723-0.475c-0.292-0.062-0.563,0.077-0.848,0.021
	c-0.295-0.058-0.582-0.285-0.775-0.497c-0.032,0.346,0.125,0.86,0.337,1.13c0.16,0.202,0.396,0.356,0.649,0.409
	c0.109,0.022,0.229-0.005,0.334,0.05c0.562,0.295-0.004,0.778,0.19,1.18c0.252,0.519,0.935,0.497,1.414,0.479
	c0.509-0.019,0.821,0.213,0.667,0.709c0,0.015,0.001,0.029,0.001,0.043"/>
<circle fill="none" stroke="#1D4B66" stroke-width="2" stroke-linecap="round" stroke-miterlimit="10" cx="30.292" cy="29.661" r="26.051"/>
</svg>
