<?xml version="1.0" encoding="utf-8"?>
<!-- Generator: Adobe Illustrator 16.0.0, SVG Export Plug-In . SVG Version: 6.00 Build 0)  -->
<!DOCTYPE svg PUBLIC "-//W3C//DTD SVG 1.1//EN" "http://www.w3.org/Graphics/SVG/1.1/DTD/svg11.dtd">
<svg version="1.1" id="Capa_1" xmlns="http://www.w3.org/2000/svg" xmlns:xlink="http://www.w3.org/1999/xlink" x="0px" y="0px"
	 width="59px" height="58.25px" viewBox="0 0 59 58.25" enable-background="new 0 0 59 58.25" xml:space="preserve">
<polygon fill="#5C5C60" stroke="#1D4B66" stroke-linecap="round" stroke-miterlimit="10" points="42.307,19.862 38.583,19.862 
	35.651,41.051 35.651,25.342 28.908,29.153 28.908,25.342 21.942,29.28 21.942,25.342 14.483,29.558 14.483,46.771 21.449,46.771 
	21.942,46.771 28.192,46.771 28.908,46.771 34.86,46.771 35.651,46.771 46.1,46.771 "/>
<rect x="15.467" y="34.758" fill="#FFFFFF" stroke="#1D4B66" stroke-linecap="round" stroke-miterlimit="10" width="5.5" height="2.88"/>
<rect x="22.062" y="34.758" fill="#FFFFFF" stroke="#1D4B66" stroke-linecap="round" stroke-miterlimit="10" width="5.501" height="2.88"/>
<rect x="28.656" y="34.758" fill="#FFFFFF" stroke="#1D4B66" stroke-linecap="round" stroke-miterlimit="10" width="5.501" height="2.88"/>
<path fill="#1D4B66" d="M40.085,18.354c0.873-1.236,1.188-3.891-0.547-4.801c-1.7-0.891-3.71-0.006-3.843-2.67
	c-0.042-0.828,0.557-1.598,0.336-2.389c-0.271-0.973-1.535-1.391-2.394-1.572c-0.966-0.204-1.867,0.252-2.808,0.069
	c-0.978-0.192-1.925-0.943-2.567-1.646c-0.105,1.146,0.413,2.849,1.118,3.742c0.529,0.668,1.313,1.18,2.148,1.354
	c0.363,0.076,0.76-0.017,1.109,0.167c1.858,0.977-0.015,2.576,0.63,3.905c0.835,1.72,3.097,1.646,4.682,1.585
	c1.686-0.064,2.718,0.705,2.21,2.348c0.002,0.048,0.003,0.096,0.005,0.143"/>
<circle fill="none" stroke="#1D4B66" stroke-width="2" stroke-linecap="round" stroke-miterlimit="10" cx="30.292" cy="29.661" r="26.051"/>
</svg>
