<?xml version="1.0" encoding="utf-8"?>
<!-- Generator: Adobe Illustrator 16.0.0, SVG Export Plug-In . SVG Version: 6.00 Build 0)  -->
<!DOCTYPE svg PUBLIC "-//W3C//DTD SVG 1.1//EN" "http://www.w3.org/Graphics/SVG/1.1/DTD/svg11.dtd">
<svg version="1.1" id="Capa_1" xmlns="http://www.w3.org/2000/svg" xmlns:xlink="http://www.w3.org/1999/xlink" x="0px" y="0px"
	 width="59px" height="58.25px" viewBox="0 0 59 58.25" enable-background="new 0 0 59 58.25" xml:space="preserve">
<polygon fill="#5C5C60" stroke="#1D4B66" stroke-linecap="round" stroke-miterlimit="10" points="42.307,19.862 38.583,19.862 
	35.651,41.051 35.651,25.342 28.908,29.153 28.908,25.342 21.942,29.28 21.942,25.342 14.483,29.558 14.483,46.771 21.449,46.771 
	21.942,46.771 28.192,46.771 28.908,46.771 34.86,46.771 35.651,46.771 46.1,46.771 "/>
<rect x="15.467" y="34.758" fill="#FFFFFF" stroke="#1D4B66" stroke-linecap="round" stroke-miterlimit="10" width="5.5" height="2.88"/>
<rect x="22.062" y="34.758" fill="#FFFFFF" stroke="#1D4B66" stroke-linecap="round" stroke-miterlimit="10" width="5.501" height="2.88"/>
<rect x="28.656" y="34.758" fill="#FFFFFF" stroke="#1D4B66" stroke-linecap="round" stroke-miterlimit="10" width="5.501" height="2.88"/>
<path fill="#1D4B66" d="M40.366,18.447c0.526-0.745,0.716-2.345-0.33-2.893c-1.025-0.537-2.236-0.004-2.316-1.609
	c-0.025-0.499,0.335-0.963,0.203-1.44c-0.164-0.586-0.925-0.838-1.443-0.947c-0.582-0.123-1.125,0.152-1.692,0.042
	c-0.589-0.116-1.161-0.568-1.547-0.992c-0.063,0.69,0.249,1.717,0.673,2.255c0.319,0.403,0.792,0.711,1.295,0.816
	c0.219,0.045,0.458-0.011,0.668,0.1c1.12,0.588-0.009,1.553,0.38,2.354c0.503,1.037,1.866,0.992,2.822,0.956
	c1.016-0.039,1.638,0.425,1.332,1.415c0.001,0.029,0.002,0.058,0.003,0.086"/>
<circle fill="none" stroke="#1D4B66" stroke-width="2" stroke-linecap="round" stroke-miterlimit="10" cx="30.292" cy="29.661" r="26.051"/>
</svg>
