<?xml version="1.0" encoding="utf-8"?>
<!-- Generator: Adobe Illustrator 19.0.0, SVG Export Plug-In . SVG Version: 6.00 Build 0)  -->
<svg version="1.1" id="Capa_1" xmlns="http://www.w3.org/2000/svg" xmlns:xlink="http://www.w3.org/1999/xlink" x="0px" y="0px"
	 viewBox="0 0 65.8 44.8" style="enable-background:new 0 0 65.8 44.8;" xml:space="preserve">
<style type="text/css">
	.st0{opacity:0.7;}
	.st1{fill:#D8D4E8;}
	.st2{fill:#1D4B66;}
	.st3{fill:#D27D32;}
	.st4{fill:#F8F7F8;}
	.st5{fill:#7EAB39;}
</style>
<g>
	<g class="st0">
		<ellipse transform="matrix(0.9824 -0.1868 0.1868 0.9824 -3.5731 6.4281)" class="st1" cx="32.3" cy="22.2" rx="30.7" ry="19.1"/>
	</g>
	<g>
		<rect x="18.2" y="3.3" class="st2" width="28.4" height="37.7"/>
		<path class="st3" d="M44.7,10c0,2.3-1.9,4.3-4.3,4.3H24.3c-2.3,0-4.3-1.9-4.3-4.3l0,0c0-2.3,1.9-4.3,4.3-4.3h16.1
			C42.8,5.7,44.7,7.7,44.7,10L44.7,10z"/>
		<g>
			<path class="st4" d="M26.4,20.1c0-1.1-1.1-1.9-2.4-1.9l0,0c-1.3,0-2.4,0.9-2.4,1.9l0,0c0,1.1,1.1,1.9,2.4,1.9l0,0
				C25.3,22,26.4,21.2,26.4,20.1L26.4,20.1z"/>
			<path class="st4" d="M26.4,26.1c0-1.1-1.1-1.9-2.4-1.9l0,0c-1.3,0-2.4,0.9-2.4,1.9l0,0c0,1.1,1.1,1.9,2.4,1.9l0,0
				C25.3,28.1,26.4,27.2,26.4,26.1L26.4,26.1z"/>
			<path class="st4" d="M26.4,31.9c0-1.1-1.1-1.9-2.4-1.9l0,0c-1.3,0-2.4,0.9-2.4,1.9l0,0c0,1.1,1.1,1.9,2.4,1.9l0,0
				C25.3,33.9,26.4,33,26.4,31.9L26.4,31.9z"/>
		</g>
		<g>
			<path class="st4" d="M34.7,20.1c0-1.1-1.1-1.9-2.4-1.9l0,0c-1.4,0-2.4,0.9-2.4,1.9l0,0c0,1.1,1.1,1.9,2.4,1.9l0,0
				C33.6,22,34.7,21.2,34.7,20.1L34.7,20.1z"/>
			<path class="st4" d="M34.7,26.1c0-1.1-1.1-1.9-2.4-1.9l0,0c-1.4,0-2.4,0.9-2.4,1.9l0,0c0,1.1,1.1,1.9,2.4,1.9l0,0
				C33.6,28.1,34.7,27.2,34.7,26.1L34.7,26.1z"/>
			<path class="st4" d="M34.7,31.9c0-1.1-1.1-1.9-2.4-1.9l0,0c-1.4,0-2.4,0.9-2.4,1.9l0,0c0,1.1,1.1,1.9,2.4,1.9l0,0
				C33.6,33.9,34.7,33,34.7,31.9L34.7,31.9z"/>
		</g>
		<g>
			<path class="st4" d="M42.9,20.1c0-1.1-1.1-1.9-2.4-1.9l0,0c-1.3,0-2.4,0.9-2.4,1.9l0,0c0,1.1,1.1,1.9,2.4,1.9l0,0
				C41.8,22,42.9,21.2,42.9,20.1L42.9,20.1z"/>
			<path class="st4" d="M42.9,26.1c0-1.1-1.1-1.9-2.4-1.9l0,0c-1.3,0-2.4,0.9-2.4,1.9l0,0c0,1.1,1.1,1.9,2.4,1.9l0,0
				C41.8,28.1,42.9,27.2,42.9,26.1L42.9,26.1z"/>
			<path class="st4" d="M42.9,31.9c0-1.1-1.1-1.9-2.4-1.9l0,0c-1.3,0-2.4,0.9-2.4,1.9l0,0c0,1.1,1.1,1.9,2.4,1.9l0,0
				C41.8,33.9,42.9,33,42.9,31.9L42.9,31.9z"/>
			<path class="st5" d="M43.2,31.5c0,1.3-1.2,2.4-2.6,2.4l0,0c-1.4,0-2.6-1.1-2.6-2.4v-5c0-1.3,1.2-2.4,2.6-2.4l0,0
				c1.4,0,2.6,1.1,2.6,2.4V31.5z"/>
		</g>
	</g>
</g>
</svg>
