<?xml version="1.0" encoding="utf-8"?>
<!-- Generator: Adobe Illustrator 19.0.0, SVG Export Plug-In . SVG Version: 6.00 Build 0)  -->
<svg version="1.1" id="Capa_1" xmlns="http://www.w3.org/2000/svg" xmlns:xlink="http://www.w3.org/1999/xlink" x="0px" y="0px"
	 viewBox="0 0 65.8 44.8" style="enable-background:new 0 0 65.8 44.8;" xml:space="preserve">
<style type="text/css">
	.st0{opacity:0.7;}
	.st1{fill:#D8D4E8;}
	.st2{fill:#1D4B66;}
	.st3{fill:none;stroke:#1D4B66;stroke-width:0.8805;stroke-linecap:round;stroke-miterlimit:10;}
	.st4{fill:#DFDEE4;}
	.st5{fill:none;stroke:#1D4B66;stroke-width:1.0153;stroke-linecap:round;stroke-miterlimit:10;}
</style>
<g>
	<g class="st0">
		
			<ellipse id="XMLID_117_" transform="matrix(0.9824 -0.1869 0.1869 0.9824 -3.8863 6.5635)" class="st1" cx="32.9" cy="23.9" rx="30.7" ry="19.1"/>
	</g>
	<g>
		<g>
			<path id="XMLID_116_" class="st2" d="M11.4,23.2c0.4,2.3,2.4,4.1,4.9,4.1c2.4,0,4.5-1.8,4.9-4.1H11.4z"/>
			<path id="XMLID_115_" class="st3" d="M11.5,23.3c0,0,3.4-16.9,4.7-15.8C17.6,8.5,21,23.3,21,23.3"/>
			<path id="XMLID_114_" class="st2" d="M21.6,23.5c0,0.3-0.3,0.6-0.6,0.6h-9.8c-0.3,0-0.6-0.3-0.6-0.6l0,0c0-0.3,0.3-0.6,0.6-0.6
				H21C21.4,22.9,21.6,23.1,21.6,23.5L21.6,23.5z"/>
		</g>
		<g>
			<path id="XMLID_113_" class="st2" d="M43.5,23.2c0.4,2.3,2.4,4.1,4.9,4.1c2.4,0,4.5-1.8,4.9-4.1H43.5z"/>
			<path id="XMLID_112_" class="st3" d="M43.7,23.3c0,0,3.5-17,4.9-16c1.4,1.1,4.6,16,4.6,16"/>
			<path id="XMLID_111_" class="st2" d="M53.8,23.5c0,0.3-0.3,0.6-0.6,0.6h-9.8c-0.3,0-0.6-0.3-0.6-0.6l0,0c0-0.3,0.3-0.6,0.6-0.6
				h9.8C53.5,22.9,53.8,23.1,53.8,23.5L53.8,23.5z"/>
		</g>
		<path id="XMLID_110_" class="st2" d="M34.1,38.8c0,0.9-0.7,1.6-1.6,1.6l0,0c-0.9,0-1.6-0.7-1.6-1.6V4.8c0-0.9,0.7-1.6,1.6-1.6l0,0
			c0.9,0,1.6,0.7,1.6,1.6V38.8z"/>
		<path id="XMLID_109_" class="st2" d="M41.2,40.9c0,0.8-0.6,1.4-1.4,1.4H25.2c-0.8,0-1.4-0.6-1.4-1.4l0,0c0-0.8,0.6-1.4,1.4-1.4
			h14.6C40.5,39.5,41.2,40.1,41.2,40.9L41.2,40.9z"/>
		<path id="XMLID_108_" class="st2" d="M37,40.5c0-0.1,0-0.2,0-0.3c0-2.5-2-4.5-4.5-4.5c-2.5,0-4.5,2-4.5,4.5c0,0.1,0,0.2,0,0.3H37z
			"/>
		<circle id="XMLID_107_" class="st2" cx="32.5" cy="4.4" r="3.3"/>
		<circle id="XMLID_106_" class="st4" cx="32.5" cy="4.4" r="1.7"/>
		<line id="XMLID_105_" class="st5" x1="16.4" y1="7.3" x2="48.6" y2="7.3"/>
	</g>
</g>
</svg>
