<?xml version="1.0" encoding="utf-8"?>
<!-- Generator: Adobe Illustrator 16.0.0, SVG Export Plug-In . SVG Version: 6.00 Build 0)  -->
<!DOCTYPE svg PUBLIC "-//W3C//DTD SVG 1.1//EN" "http://www.w3.org/Graphics/SVG/1.1/DTD/svg11.dtd">
<svg version="1.1" id="Capa_1" xmlns="http://www.w3.org/2000/svg" xmlns:xlink="http://www.w3.org/1999/xlink" x="0px" y="0px"
	 width="563px" height="330px" viewBox="0 0 563 330" enable-background="new 0 0 563 330" xml:space="preserve">
<path fill="none" stroke="#1D506A" stroke-width="6" stroke-linecap="round" stroke-miterlimit="10" d="M140.494,313.436
	c-79.204,1.789-63.583-81.337-72.047-143.475c-9.221-67.506-4.129-59.455-13.006-76.451c-5.78-11.079-43.008,7.707-43.008,7.707
	C18.97,83.6,29.567,71.008,54.478,71.627c2.339-0.826,6.537-41.425,13.762-42.182c51.335-5.093,224.056-13.557,243.529-12.18
	c61.382,4.129,207.196-10.804,216.279,50.715c11.079,74.662,21.951,209.604-8.533,233.758
	C494.537,321.625,208.894,311.991,140.494,313.436z"/>
</svg>
