<!-- Generator: Adobe Illustrator 19.0.0, SVG Export Plug-In  -->
<svg version="1.1"
	 xmlns="http://www.w3.org/2000/svg" xmlns:xlink="http://www.w3.org/1999/xlink" xmlns:a="http://ns.adobe.com/AdobeSVGViewerExtensions/3.0/"
	 x="0px" y="0px" width="64.3px" height="43.2px" viewBox="0 0 64.3 43.2" style="enable-background:new 0 0 64.3 43.2;"
	 xml:space="preserve">
<style type="text/css">
	.st0{fill:#D7D3E8;}
	.st1{fill:#1C4A65;stroke:#1C4A65;stroke-width:0.2086;stroke-miterlimit:10;}
	.st2{fill:#F7F7F8;stroke:#1C4A65;stroke-width:0.2086;stroke-miterlimit:10;}
	.st3{fill:#1C4A65;stroke:#1C4A65;stroke-width:0.1593;stroke-miterlimit:10;}
	.st4{fill:#D7D8DC;}
	.st5{fill:#1B98C6;}
	.st6{fill:#FFFFFF;}
	.st7{fill:#DFDEE4;}
	.st8{fill:none;stroke:#1C4A65;stroke-width:0.8057;stroke-miterlimit:10;}
	.st9{fill:none;stroke:#1C4A65;stroke-width:0.8057;stroke-linecap:round;stroke-miterlimit:10;}
	.st10{fill:none;stroke:#1C4A65;stroke-width:0.1612;stroke-linecap:round;stroke-miterlimit:10;}
	.st11{fill:#1C4A65;}
</style>
<defs>
</defs>
<g>
	<g>
		<ellipse transform="matrix(0.9824 -0.1868 0.1868 0.9824 -3.6237 6.4023)" class="st0" cx="32.2" cy="22.4" rx="32.5" ry="20.3"/>
	</g>
	<g>
		<g>
			<g>
				<g>
					<rect x="5.4" y="0.1" class="st1" width="45.5" height="34.6"/>
					<rect x="8.3" y="3.1" class="st2" width="39.8" height="25.8"/>
					<circle class="st2" cx="28.1" cy="31.4" r="1.2"/>
				</g>
				<polygon class="st3" points="31.2,40.5 31.2,36.9 24.5,36.9 24.5,40.5 18.6,40.5 18.6,42.1 37.7,42.1 37.7,40.5 				"/>
			</g>
			<path class="st4" d="M8.7,3.4l-0.1,25c0,0,4.9-8.1,12.6-12.4C29,11.8,47.5,3.4,47.5,3.4L8.7,3.4z"/>
		</g>
		<rect x="9.4" y="4" class="st5" width="37.8" height="24"/>
		<rect x="12" y="6.1" class="st6" width="9.4" height="11.1"/>
		<rect x="23.7" y="10.2" class="st6" width="13.2" height="1"/>
		<rect x="23.7" y="12.1" class="st6" width="9.6" height="1"/>
		<rect x="23.8" y="14" class="st6" width="15.6" height="1"/>
		<rect x="23.8" y="15.9" class="st6" width="17.5" height="1"/>
		<rect x="11.8" y="18.9" class="st6" width="21.2" height="1"/>
		<rect x="23" y="20.8" class="st6" width="21.2" height="1"/>
		<rect x="23" y="22.6" class="st6" width="21.2" height="1"/>
		<rect x="23" y="24.5" class="st6" width="21.2" height="1"/>
		<g>
			<path class="st6" d="M20.8,11.9c0,2-1.6,3.6-3.6,3.6c-2,0-3.6-1.6-3.6-3.6s1.6-3.6,3.6-3.6C19.2,8.3,20.8,9.9,20.8,11.9"/>
			<path class="st7" d="M17.6,15.4c0.3-0.1,0.7-0.2,1-0.4c0,0,0,0-0.1,0c0.1,0,0.2-0.1,0.3-0.1c1-0.6,2.2-1.9,1.6-3.1
				c-0.6-1.3-1.8,0.5-2.2,1c-0.4,0.5-1.1,0.8-1.7,0.9c-0.1-0.1-0.3-0.1-0.4,0c-0.7-0.1-1.5-0.4-1.8-1.2c-0.1-0.3-0.6-0.1-0.6,0.1
				c-0.3-0.1-0.6,0.2-0.4,0.4c0.1,0.1,0.2,0.2,0.2,0.3c0.1,0.3,0.3,0.6,0.5,0.8c0.1,0.1,0.2,0.1,0.2,0.1c0,0.1,0,0.1,0.1,0.2
				C15.3,15.2,16.5,15.6,17.6,15.4C17.6,15.4,17.6,15.4,17.6,15.4"/>
			<circle class="st8" cx="17" cy="11.9" r="3.6"/>
			<path class="st9" d="M15.4,15.9c0,0,0.5,0.9,1.7,0.9c1.1,0,1.5-0.9,1.5-0.9"/>
			<path class="st9" d="M14.3,8.2c0,0,0.1,0.8,2.4,1.7c2.3,0.9,4.4,1,4.4,1.1"/>
			<path class="st9" d="M16,7.5c0,0,0.1,1.6-1,2.9c-1.1,1.3-2.5,2.1-2.5,2.1"/>
			<path class="st10" d="M16.1,13.9c0,0,0.5,0.5,1.4,0.4c0.9-0.1,1.2-0.4,1.2-0.4"/>
			<circle class="st11" cx="16.4" cy="11.8" r="0.5"/>
			<circle class="st11" cx="18.6" cy="11.7" r="0.5"/>
		</g>
	</g>
</g>
</svg>
