<?xml version="1.0" encoding="utf-8"?>
<!-- Generator: Adobe Illustrator 19.0.0, SVG Export Plug-In . SVG Version: 6.00 Build 0)  -->
<svg version="1.1" id="Capa_1" xmlns="http://www.w3.org/2000/svg" xmlns:xlink="http://www.w3.org/1999/xlink" x="0px" y="0px"
	 viewBox="-264 399.1 65.8 44.8" style="enable-background:new -264 399.1 65.8 44.8;" xml:space="preserve">
<style type="text/css">
	.st0{opacity:0.7;}
	.st1{fill:#D7D3E8;}
	.st2{fill:#FFFFFF;}
	.st3{fill:#DFDEE4;}
	.st4{fill:none;stroke:#1C4A65;stroke-width:3.0362;stroke-miterlimit:10;}
	.st5{fill:none;stroke:#1C4A65;stroke-width:1.0147;stroke-linecap:round;stroke-miterlimit:10;}
	.st6{fill:#1C4A65;}
</style>
<g>
	<g class="st0">
		
			<ellipse transform="matrix(0.9824 -0.1869 0.1869 0.9824 -83.2336 -35.7196)" class="st1" cx="-231.1" cy="423.7" rx="30.7" ry="19.1"/>
	</g>
	<g>
		<path class="st2" d="M-215.1,425.6c0,7.5-6.1,13.7-13.7,13.7c-7.5,0-13.7-6.1-13.7-13.7c0-7.5,6.1-13.7,13.7-13.7
			C-221.2,412-215.1,418.1-215.1,425.6"/>
		<path class="st3" d="M-217.6,418.3c-0.9-1-1.8-2.1-2.7-3.1c0,0.1,0,0.1,0,0.2c-0.3-0.3-0.6-0.5-0.8-0.7c-3.5-2.8-9.9-5.1-13.5-1.4
			c-3.9,4,4.3,5.8,6.6,6.5c2.5,0.8,4.4,2.7,5.5,4.9c-0.1,0.6,0.1,1.1,0.5,1.4c0.8,2.7,0.4,5.7-1.9,7.9c-1,0.9,0.2,2.2,1.3,1.9
			c-0.1,1.1,1.5,2,2.3,0.9c0.3-0.4,0.6-0.9,0.9-1.3c1-0.6,1.7-1.8,2.1-2.9c0.1-0.4,0.1-0.7,0-1c0.2-0.1,0.4-0.3,0.5-0.6
			c1.5-4.6,1.1-9.2-1.3-13C-217.9,418.2-217.8,418.3-217.6,418.3"/>
		<circle class="st4" cx="-229.3" cy="425.6" r="13.7"/>
		<path class="st5" d="M-222.9,432.4c0,0-1.4,3.6-4.6,4.5c-3.2,0.9-5.3-4.1-5.3-4.1L-222.9,432.4z"/>
		<circle class="st6" cx="-231.6" cy="425.3" r="1.8"/>
		<circle class="st6" cx="-223.2" cy="425" r="1.8"/>
		<ellipse class="st6" cx="-244.5" cy="406.9" rx="6.5" ry="7.2"/>
		<path class="st6" d="M-242.7,424c0-6.8,5.8-12.3,12.9-12.3c1.7,0,3.3,0.3,4.7,0.9c-1.9-3.2-5.3-5.4-9-5.4c-6,0-10.8,5.4-10.8,12.1
			c0,3.1,1,5.9,2.7,8C-242.5,426.2-242.7,425.1-242.7,424z"/>
	</g>
</g>
</svg>
