<?xml version="1.0" encoding="utf-8"?>
<!-- Generator: Adobe Illustrator 19.0.0, SVG Export Plug-In . SVG Version: 6.00 Build 0)  -->
<svg version="1.1" id="Capa_1" xmlns="http://www.w3.org/2000/svg" xmlns:xlink="http://www.w3.org/1999/xlink" x="0px" y="0px"
	 viewBox="0 0 65.8 44.8" style="enable-background:new 0 0 65.8 44.8;" xml:space="preserve">
<style type="text/css">
	.st0{opacity:0.7;}
	.st1{fill:#D8D4E8;}
	.st2{fill:#FFFFFF;}
	.st3{fill:#DFDEE4;}
	.st4{fill:none;stroke:#1D4B66;stroke-width:3.0362;stroke-miterlimit:10;}
	.st5{fill:none;stroke:#1D4B66;stroke-width:0.6076;stroke-linecap:round;stroke-miterlimit:10;}
	.st6{fill:#1D4B66;}
</style>
<g id="XMLID_105_">
	<g class="st0">
		
			<ellipse id="XMLID_114_" transform="matrix(0.9824 -0.1869 0.1869 0.9824 -4.0097 6.5752)" class="st1" cx="32.9" cy="24.6" rx="30.7" ry="19.1"/>
	</g>
	<g>
		<path id="XMLID_113_" class="st2" d="M48.8,26.5c0,7.5-6.1,13.7-13.7,13.7c-7.5,0-13.7-6.1-13.7-13.7c0-7.5,6.1-13.7,13.7-13.7
			C42.7,12.9,48.8,19,48.8,26.5"/>
		<path id="XMLID_112_" class="st3" d="M46.3,19.2c-0.9-1-1.8-2.1-2.7-3.1c0,0.1,0,0.1,0,0.2c-0.3-0.3-0.6-0.5-0.8-0.7
			c-3.5-2.8-9.9-5.1-13.5-1.4c-3.9,4,4.3,5.8,6.6,6.5c2.5,0.8,4.4,2.7,5.5,4.9c-0.1,0.6,0.1,1.1,0.5,1.4c0.8,2.7,0.4,5.7-1.9,7.9
			c-1,0.9,0.2,2.2,1.3,1.9c-0.1,1.1,1.5,2,2.3,0.9c0.3-0.4,0.6-0.9,0.9-1.3c1-0.6,1.7-1.8,2.1-2.9c0.1-0.4,0.1-0.7,0-1
			c0.2-0.1,0.4-0.3,0.5-0.6c1.5-4.6,1.1-9.2-1.3-13C46,19.1,46.2,19.2,46.3,19.2"/>
		<circle id="XMLID_111_" class="st4" cx="34.7" cy="26.5" r="13.7"/>
		<path id="XMLID_110_" class="st5" d="M31.2,34.3c0,0,2,1.8,5.3,1.5c3.2-0.3,4.6-1.6,4.6-1.6"/>
		<circle id="XMLID_109_" class="st6" cx="32.4" cy="26.2" r="1.8"/>
		<circle id="XMLID_108_" class="st6" cx="40.8" cy="25.9" r="1.8"/>
		<ellipse id="XMLID_107_" class="st6" cx="19.4" cy="7.7" rx="6.5" ry="7.2"/>
		<path id="XMLID_106_" class="st6" d="M21.3,24.9c0-6.8,5.8-12.3,12.9-12.3c1.7,0,3.3,0.3,4.7,0.9c-1.9-3.2-5.3-5.4-9-5.4
			C23.8,8,19,13.5,19,20.1c0,3.1,1,5.9,2.7,8C21.4,27.1,21.3,26,21.3,24.9z"/>
	</g>
</g>
</svg>
