<?xml version="1.0" encoding="utf-8"?>
<!-- Generator: Adobe Illustrator 19.0.0, SVG Export Plug-In . SVG Version: 6.00 Build 0)  -->
<svg version="1.1" id="Capa_1" xmlns="http://www.w3.org/2000/svg" xmlns:xlink="http://www.w3.org/1999/xlink" x="0px" y="0px"
	 viewBox="-164 203.1 282.7 387.9" style="enable-background:new -164 203.1 282.7 387.9;" xml:space="preserve">
<style type="text/css">
	.st0{fill:#666666;}
	.st1{fill:#FFFFFF;}
	.st2{fill:#FA8510;}
	.st3{fill:#FFFFFF;stroke:#1F4D69;stroke-width:1.9071;stroke-miterlimit:10;}
	.st4{fill:#D7D7D8;}
	.st5{fill:#1F1E43;}
	.st6{fill:#FFFFFF;stroke:#1F1E43;stroke-width:1.3702;stroke-miterlimit:10;}
	.st7{fill:#FFFFFF;stroke:#1F1E43;stroke-width:1.5942;stroke-miterlimit:10;}
	.st8{fill:#D2D9DB;}
	.st9{fill:#FFB872;}
	.st10{fill:#87D329;}
	.st11{fill:none;stroke:#1F4D69;stroke-width:3;stroke-miterlimit:10;}
	.st12{fill:none;stroke:#1F4D69;stroke-width:3;stroke-linecap:round;stroke-miterlimit:10;}
</style>
<g id="Capa_1_1_">
	<g>
		<g>
			<rect x="-142.5" y="223.3" class="st0" width="251.7" height="357.4"/>
			<rect x="-154.5" y="213.4" class="st1" width="251.7" height="357.4"/>
			<rect x="-154.5" y="213.4" class="st2" width="251.7" height="33.5"/>
			<circle class="st3" cx="-28.5" cy="394.1" r="63.5"/>
			<rect x="-154.5" y="477.2" class="st4" width="251.7" height="93.6"/>
			<rect x="-154.5" y="477.2" class="st5" width="251.7" height="25.8"/>
			<g>
				<g>
					<path class="st1" d="M-55.8,486.9c0-2.4,1.1-3.9,3.5-3.9c1.4,0,2.7,0.6,2.7,1.3c0,0.3-0.3,0.6-0.6,0.6c-0.2,0-0.3-0.1-0.6-0.3
						c-0.4-0.3-1-0.5-1.5-0.5c-1.8,0-2.3,1.1-2.3,2.8v3.3c0,1.7,0.6,2.8,2.3,2.8c0.6,0,1.1-0.1,1.5-0.5c0.3-0.1,0.3-0.3,0.6-0.3
						s0.6,0.3,0.6,0.6c0,0.7-1.3,1.3-2.7,1.3c-2.4,0-3.5-1.6-3.5-3.9V486.9z"/>
					<path class="st1" d="M-48.5,491.4v-2.6c0-1.5,1-2.7,2.9-2.7s2.9,1.2,2.9,2.7v2.6c0,1.5-1,2.7-2.9,2.7
						C-47.5,494-48.5,492.9-48.5,491.4z M-43.8,491.4v-2.6c0-1-0.6-1.6-1.7-1.6s-1.7,0.6-1.7,1.6v2.6c0,1,0.6,1.6,1.7,1.6
						S-43.8,492.4-43.8,491.4z"/>
					<path class="st1" d="M-32.3,488.7c0-0.9-0.4-1.5-1.4-1.5c-0.6,0-1.3,0.4-1.7,0.8c0.1,0.2,0.1,0.4,0.1,0.7v4.8
						c0,0.3-0.2,0.6-0.6,0.6s-0.6-0.3-0.6-0.6V489c0-1.1-0.2-1.9-1.3-1.9c-0.7,0-1.3,0.3-1.8,0.6c0,0.2,0.1,0.3,0.1,0.5v5.3
						c0,0.3-0.2,0.6-0.6,0.6s-0.6-0.3-0.6-0.6v-5.3c0-0.8-0.1-0.8-0.3-1.1c0-0.1-0.1-0.1-0.1-0.3c0-0.3,0.3-0.6,0.6-0.6
						s0.4,0.2,0.6,0.4c0.7-0.4,1.5-0.7,2.3-0.7s1.4,0.3,1.8,0.8c0.6-0.5,1.4-0.8,2.2-0.8c1.6,0,2.6,1.1,2.6,2.6v4.8
						c0,0.3-0.2,0.6-0.6,0.6s-0.6-0.3-0.6-0.6L-32.3,488.7L-32.3,488.7z"/>
					<path class="st1" d="M-27.5,493.9v2.9c0,0.3-0.2,0.6-0.6,0.6s-0.6-0.3-0.6-0.6v-8.4c0-0.5-0.1-0.8-0.3-1.1
						c-0.1-0.1-0.1-0.2-0.1-0.3c0-0.3,0.3-0.6,0.6-0.6s0.4,0.1,0.6,0.4c0.7-0.4,1.5-0.7,2.3-0.7c1.6,0,2.5,1.2,2.5,2.9v2
						c0,1.8-0.6,3.1-2.6,3.1C-26.3,494-27,494-27.5,493.9z M-27.5,492.7c0.5,0.3,1.2,0.3,1.6,0.3c1.1,0,1.5-0.6,1.5-2.1v-2
						c0-1.2-0.5-1.8-1.5-1.8c-0.5,0-1.1,0.2-1.6,0.5c0.1,0.3,0.1,0.4,0.1,0.6v4.5H-27.5z"/>
					<path class="st1" d="M-17.5,488.7c0-1.1-0.6-1.6-1.6-1.6c-0.6,0-0.8,0.1-1.2,0.3c-0.1,0-0.3,0.1-0.4,0.1
						c-0.3,0-0.4-0.3-0.4-0.5c-0.1-0.7,1.1-1,2.2-1c1.9,0,2.7,1.1,2.7,3.1v3.4c0,0.3,0.1,0.4,0.3,0.4c0.1,0,0.1,0,0.1,0
						c0.3,0,0.4,0.3,0.4,0.5c0,0.4-0.4,0.5-0.7,0.5c-0.5,0-1-0.3-1.1-0.8c-0.6,0.6-1.3,0.8-2.1,0.8c-1.6,0-2.3-1-2.3-2.3v-0.1
						c0-1.5,0.9-2.3,2.7-2.3c0.6,0,1.1,0.1,1.6,0.2L-17.5,488.7L-17.5,488.7z M-20.6,491.7L-20.6,491.7c0,0.8,0.3,1.3,1.3,1.3
						c0.6,0,1.2-0.2,1.7-0.7v-1.6c-0.5-0.1-1.1-0.3-1.6-0.3C-20.4,490.4-20.6,491-20.6,491.7z"/>
					<path class="st1" d="M-12.6,493.5c0,0.3-0.3,0.6-0.6,0.6c-0.3,0-0.6-0.3-0.6-0.6v-5.2c0-0.5-0.1-0.8-0.3-1.1
						c-0.1-0.1-0.1-0.2-0.1-0.3c0-0.3,0.3-0.6,0.6-0.6c0.3,0,0.4,0.2,0.6,0.4c0.6-0.4,1.5-0.6,2.1-0.6s0.8,0.3,0.8,0.6
						c0,0.4-0.3,0.6-0.6,0.6c-0.6,0-1.2,0-2,0.6c0,0.1,0,0.3,0,0.4L-12.6,493.5L-12.6,493.5z"/>
					<path class="st1" d="M-8.8,484.4c0-0.3,0.2-0.6,0.6-0.6s0.6,0.3,0.6,0.6v2.2H-6c0.3,0,0.6,0.3,0.6,0.6s-0.3,0.6-0.6,0.6h-1.6
						v3.1c0,1.6,0.1,2.2,1.3,2.2c0.1,0,0.2,0,0.3,0c0.4,0,0.8,0.1,0.8,0.6s-0.4,0.6-0.9,0.6c-2.2,0-2.7-1.1-2.7-3.2v-6.5L-8.8,484.4
						L-8.8,484.4z"/>
					<path class="st1" d="M-3.1,484.4c-0.4,0-0.8-0.3-0.8-0.8c0-0.4,0.3-0.8,0.8-0.8c0.4,0,0.8,0.3,0.8,0.8S-2.8,484.4-3.1,484.4z
						 M-3.1,494c-0.3,0-0.6-0.3-0.6-0.6v-6.9c0-0.3,0.3-0.6,0.6-0.6c0.3,0,0.6,0.3,0.6,0.6v6.9C-2.5,493.9-2.8,494-3.1,494z"/>
					<path class="st1" d="M1.2,493.5c0,0.3-0.3,0.6-0.6,0.6c-0.3,0-0.6-0.3-0.6-0.6v-5.2c0-0.5-0.1-0.8-0.3-1.1
						c-0.1-0.1-0.1-0.2-0.1-0.3c0-0.3,0.3-0.6,0.6-0.6c0.3,0,0.4,0.2,0.6,0.4c0.6-0.4,1.5-0.6,2.1-0.6s0.8,0.3,0.8,0.6
						c0,0.4-0.3,0.6-0.6,0.6c-0.6,0-1.2,0-2,0.6c0,0.1,0,0.3,0,0.4L1.2,493.5L1.2,493.5z"/>
				</g>
			</g>
			<circle class="st5" cx="-103.6" cy="537.8" r="22.8"/>
			<circle class="st5" cx="-32.3" cy="537.8" r="22.8"/>
			<circle class="st5" cx="41.6" cy="537.8" r="22.8"/>
			<path class="st6" d="M-96.1,537.8h-4.5v16.4h-6.7v-16.4h-3.4V532h3.4v-3.4c0-4.6,1.9-7.4,7.4-7.4h4.5v5.6h-2.8
				c-2.1,0-2.2,0.8-2.2,2.3v2.8h5.1L-96.1,537.8z"/>
			<path class="st7" d="M-18.4,532.8c0,0.3,0,0.6,0,0.8c0,8.6-6.5,18.5-18.5,18.5c-3.7,0-7.1-1.1-10-2.9c0.5,0.1,1,0.1,1.5,0.1
				c3,0,5.8-1,8.1-2.8c-2.9-0.1-5.3-1.9-6.1-4.5c0.4,0.1,0.8,0.1,1.2,0.1c0.6,0,1.1-0.1,1.7-0.3c-3-0.6-5.2-3.2-5.2-6.3v-0.1
				c0.9,0.5,1.9,0.8,2.9,0.8c-1.8-1.1-2.9-3.2-2.9-5.4c0-1.2,0.3-2.3,0.9-3.3c3.2,3.9,8,6.5,13.4,6.8c-0.1-0.5-0.2-1-0.2-1.5
				c0-3.6,2.9-6.5,6.5-6.5c1.9,0,3.6,0.8,4.8,2c1.5-0.3,2.9-0.8,4.1-1.6c-0.5,1.5-1.5,2.8-2.9,3.6c1.3-0.1,2.6-0.5,3.7-1
				C-16,530.8-17.3,531.9-18.4,532.8L-18.4,532.8z"/>
			<g>
				<rect x="29.2" y="530.8" class="st6" width="5.4" height="17.1"/>
				<path class="st6" d="M31.9,528.7L31.9,528.7c-2,0-3.2-1.3-3.2-3s1.3-3,3.3-3s3.2,1.3,3.2,3C35.1,527.3,33.9,528.7,31.9,528.7z"
					/>
				<path class="st6" d="M56.1,547.8H50V539c0-2.3-0.9-3.9-3-3.9c-1.6,0-2.5,1.1-2.9,2.1c-0.2,0.4-0.1,0.9-0.1,1.4v9.3h-6
					c0,0,0.1-15.7,0-17.1h6v2.7c0.4-1.2,2.3-2.9,5.3-2.9c3.8,0,6.8,2.5,6.8,7.8L56.1,547.8L56.1,547.8z"/>
			</g>
			<g>
				<path class="st5" d="M-116,291.7c-0.2,0-0.3-0.1-0.5-0.2c-0.1-0.1-0.2-0.3-0.2-0.5v-2.8l-2.1-4.3v-0.1c0-0.1,0-0.1,0-0.1
					c0-0.2,0.1-0.3,0.2-0.4s0.3-0.2,0.5-0.2c0.1,0,0.2,0,0.3,0.1c0.1,0,0.2,0.1,0.2,0.2l1.7,3.5l1.7-3.5c0.1-0.1,0.1-0.2,0.2-0.2
					s0.2-0.1,0.3-0.1c0.2,0,0.3,0.1,0.5,0.2c0.1,0.1,0.2,0.3,0.2,0.4v0.1c0,0.1,0,0.1,0,0.1l-2.1,4.3v2.8c0,0.2-0.1,0.3-0.2,0.4
					C-115.5,291.6-115.8,291.7-116,291.7z"/>
				<path class="st5" d="M-109.8,287.6c0-0.7-0.4-1.1-1.1-1.1c-0.2,0-0.3,0-0.4,0s-0.2,0.1-0.3,0.1l-0.2,0.1c-0.1,0-0.2,0.1-0.3,0.1
					c-0.2,0-0.3-0.1-0.4-0.2c-0.1-0.1-0.1-0.2-0.1-0.4c0-0.2,0.1-0.3,0.2-0.4s0.2-0.2,0.4-0.3c0.2-0.1,0.4-0.1,0.6-0.2
					c0.2,0,0.5,0,0.7,0c0.8,0,1.4,0.2,1.8,0.6s0.5,1,0.5,1.8v2.4c0,0.2,0,0.3,0.1,0.3s0.1,0.1,0.2,0.1c0.2,0,0.4,0.2,0.4,0.4
					c0,0.3-0.2,0.5-0.7,0.5c-0.4,0-0.7-0.2-1-0.5c-0.4,0.4-1,0.6-1.6,0.6c-0.7,0-1.1-0.2-1.5-0.5s-0.5-0.8-0.5-1.3l0,0
					c0-1.2,0.7-1.8,2.2-1.8c0.4,0,0.7,0,1.1,0.1v-0.4L-109.8,287.6L-109.8,287.6z M-110.8,288.9c-0.2,0-0.4,0-0.5,0.1
					s-0.2,0.1-0.3,0.2s-0.1,0.2-0.1,0.3c0,0.1,0,0.2,0,0.3l0,0c0,0.2,0.1,0.4,0.2,0.6c0.1,0.1,0.4,0.2,0.7,0.2c0.2,0,0.4,0,0.6-0.1
					s0.4-0.2,0.6-0.3v-1.1c-0.2,0-0.4-0.1-0.5-0.1C-110.5,288.9-110.6,288.9-110.8,288.9z"/>
				<path class="st5" d="M-103,284.3c0-0.2,0.1-0.3,0.2-0.4s0.3-0.2,0.5-0.2s0.4,0.1,0.5,0.2s0.2,0.3,0.2,0.4v1.5h1.1
					c0.2,0,0.3,0.1,0.4,0.2s0.2,0.3,0.2,0.4c0,0.2-0.1,0.3-0.2,0.4s-0.3,0.2-0.4,0.2h-1.1v2.1c0,0.3,0,0.5,0,0.7s0.1,0.3,0.1,0.4
					c0.1,0.1,0.1,0.2,0.2,0.2c0.1,0.1,0.2,0.1,0.4,0.1h0.1h0.1c0.3,0,0.5,0,0.6,0.1s0.2,0.2,0.2,0.4c0,0.1,0,0.2-0.1,0.3
					c-0.1,0.1-0.1,0.1-0.2,0.2c-0.1,0-0.2,0.1-0.3,0.1s-0.2,0-0.3,0c-0.4,0-0.8-0.1-1.1-0.2s-0.5-0.3-0.7-0.5s-0.3-0.5-0.3-0.8
					s-0.1-0.7-0.1-1.1L-103,284.3L-103,284.3z"/>
				<path class="st5" d="M-97.5,283.7c0,0.2-0.1,0.4-0.2,0.5c-0.1,0.1-0.3,0.2-0.5,0.2s-0.4-0.1-0.5-0.2s-0.2-0.3-0.2-0.5
					s0.1-0.4,0.2-0.5c0.1-0.1,0.3-0.2,0.5-0.2s0.4,0.1,0.5,0.2C-97.5,283.3-97.5,283.5-97.5,283.7z M-97.5,291
					c0,0.2-0.1,0.3-0.2,0.4s-0.3,0.2-0.5,0.2s-0.3-0.1-0.5-0.2s-0.2-0.3-0.2-0.4v-5c0-0.2,0.1-0.3,0.2-0.4s0.3-0.2,0.5-0.2
					s0.3,0.1,0.5,0.2s0.2,0.3,0.2,0.4V291z"/>
				<path class="st5" d="M-93.8,289.2c-0.2,0-0.3,0-0.5,0s-0.4,0-0.6-0.1v0.6c0,0.3,0.1,0.5,0.3,0.6c0.2,0.2,0.5,0.2,0.9,0.2
					c0.2,0,0.4,0,0.6-0.1c0.2-0.1,0.4-0.1,0.6-0.2c0,0,0,0,0.1,0c0,0,0.1,0,0.2,0c0.2,0,0.4,0.1,0.4,0.2c0.1,0.1,0.1,0.2,0.1,0.4
					c0,0.2-0.1,0.3-0.2,0.5c-0.2,0.1-0.3,0.2-0.6,0.3c-0.2,0.1-0.5,0.1-0.7,0.2c-0.2,0-0.5,0-0.6,0c-0.4,0-0.7-0.1-1-0.2
					s-0.5-0.2-0.7-0.4c-0.2-0.2-0.3-0.4-0.5-0.7c-0.2-0.3-0.2-0.5-0.2-0.8v-2.1c0-0.3,0.1-0.6,0.2-0.8c0.1-0.2,0.3-0.5,0.5-0.7
					s0.4-0.3,0.7-0.4s0.6-0.2,1-0.2c0.7,0,1.3,0.2,1.6,0.5c0.4,0.4,0.5,0.8,0.5,1.4s-0.2,1-0.5,1.3C-92.5,289-93,289.2-93.8,289.2z
					 M-92.8,287.3c0-0.3-0.1-0.5-0.2-0.7c-0.2-0.1-0.4-0.2-0.7-0.2s-0.6,0.1-0.8,0.3s-0.3,0.4-0.3,0.7v0.7c0.2,0,0.4,0,0.6,0.1
					c0.2,0,0.3,0,0.4,0c0.3,0,0.6-0.1,0.7-0.2C-93,287.8-92.8,287.6-92.8,287.3z"/>
				<path class="st5" d="M-89,291c0,0.2-0.1,0.3-0.2,0.4c-0.1,0.1-0.3,0.2-0.5,0.2s-0.4-0.1-0.5-0.2s-0.2-0.3-0.2-0.4v-3.9
					c0-0.1,0-0.2,0-0.3c0-0.1,0-0.1,0-0.2s0-0.1-0.1-0.1c0,0,0-0.1-0.1-0.1c0-0.1-0.1-0.1-0.1-0.2c0,0,0-0.1,0-0.2
					c0-0.2,0.1-0.3,0.2-0.4s0.3-0.2,0.5-0.2s0.4,0.1,0.6,0.3c0.3-0.2,0.5-0.3,0.8-0.4s0.6-0.1,0.8-0.1c0.7,0,1.2,0.2,1.6,0.6
					c0.3,0.4,0.5,1,0.5,1.7v3.3c0,0.2-0.1,0.3-0.2,0.4s-0.3,0.2-0.5,0.2s-0.4-0.1-0.5-0.2s-0.2-0.3-0.2-0.4v-3.3
					c0-0.4-0.1-0.7-0.2-0.9c-0.2-0.2-0.4-0.3-0.7-0.3s-0.7,0.1-1.1,0.4c0,0.1,0,0.2,0,0.3v4L-89,291L-89,291z"/>
				<path class="st5" d="M-81.8,289.2c-0.2,0-0.3,0-0.5,0s-0.4,0-0.6-0.1v0.6c0,0.3,0.1,0.5,0.3,0.6c0.2,0.2,0.5,0.2,0.9,0.2
					c0.2,0,0.4,0,0.6-0.1c0.2-0.1,0.4-0.1,0.6-0.2c0,0,0,0,0.1,0c0,0,0.1,0,0.2,0c0.2,0,0.4,0.1,0.4,0.2c0.1,0.1,0.1,0.2,0.1,0.4
					c0,0.2-0.1,0.3-0.2,0.5c-0.2,0.1-0.3,0.2-0.6,0.3c-0.2,0.1-0.5,0.1-0.7,0.2c-0.2,0-0.5,0-0.6,0c-0.4,0-0.7-0.1-1-0.2
					s-0.5-0.2-0.7-0.4c-0.2-0.2-0.3-0.4-0.5-0.7c-0.2-0.3-0.2-0.5-0.2-0.8v-2.1c0-0.3,0.1-0.6,0.2-0.8c0.1-0.2,0.3-0.5,0.5-0.7
					s0.4-0.3,0.7-0.4s0.6-0.2,1-0.2c0.7,0,1.3,0.2,1.6,0.5c0.4,0.4,0.5,0.8,0.5,1.4s-0.2,1-0.5,1.3C-80.5,289-81.1,289.2-81.8,289.2
					z M-81,287.3c0-0.3-0.1-0.5-0.2-0.7c-0.2-0.1-0.4-0.2-0.7-0.2s-0.6,0.1-0.8,0.3c-0.2,0.2-0.3,0.4-0.3,0.7v0.7
					c0.2,0,0.4,0,0.6,0.1c0.2,0,0.3,0,0.4,0c0.3,0,0.6-0.1,0.7-0.2C-81,287.8-81,287.6-81,287.3z"/>
				<path class="st5" d="M-78.6,287.2c0-0.5,0.2-1,0.5-1.3c0.4-0.3,0.9-0.5,1.6-0.5c0.2,0,0.4,0,0.6,0c0.2,0,0.4,0.1,0.6,0.1
					s0.3,0.2,0.4,0.3c0.1,0.1,0.2,0.3,0.2,0.4c0,0.2,0,0.3-0.1,0.4s-0.2,0.1-0.4,0.1c-0.1,0-0.2,0-0.3,0s-0.2-0.1-0.2-0.1
					c-0.1,0-0.2-0.1-0.3-0.1s-0.2,0-0.4,0c-0.1,0-0.2,0-0.3,0s-0.2,0-0.3,0.1c-0.1,0-0.2,0.1-0.2,0.2c-0.1,0.1-0.1,0.2-0.1,0.3
					c0,0.2,0.1,0.4,0.2,0.5c0.1,0.1,0.3,0.2,0.5,0.3c0.2,0.1,0.4,0.2,0.7,0.3c0.2,0.1,0.5,0.2,0.7,0.3c0.2,0.1,0.4,0.3,0.5,0.5
					s0.2,0.5,0.2,0.9c0,0.6-0.2,1-0.6,1.3s-0.9,0.5-1.6,0.5c-0.2,0-0.4,0-0.6,0s-0.4-0.1-0.6-0.1c-0.2-0.1-0.4-0.1-0.5-0.2
					s-0.2-0.2-0.2-0.4c0-0.1,0-0.1,0-0.2s0.1-0.2,0.1-0.2c0.1-0.1,0.1-0.1,0.2-0.1s0.2,0,0.3,0s0.3,0.1,0.5,0.2s0.5,0.1,0.7,0.1
					c0.3,0,0.5-0.1,0.7-0.2s0.3-0.3,0.3-0.5s-0.1-0.3-0.2-0.4s-0.3-0.2-0.5-0.3s-0.4-0.2-0.7-0.2c-0.2-0.1-0.5-0.2-0.7-0.3
					c-0.2-0.1-0.4-0.3-0.5-0.5C-78.5,287.8-78.6,287.5-78.6,287.2z"/>
				<path class="st5" d="M-69.6,284.3c0-0.2,0.1-0.3,0.2-0.4c0.1-0.1,0.3-0.2,0.5-0.2s0.4,0.1,0.5,0.2s0.2,0.3,0.2,0.4v1.5h1.1
					c0.2,0,0.3,0.1,0.4,0.2c0.1,0.1,0.2,0.3,0.2,0.4c0,0.2-0.1,0.3-0.2,0.4c-0.1,0.1-0.3,0.2-0.4,0.2h-1.1v2.1c0,0.3,0,0.5,0,0.7
					s0.1,0.3,0.1,0.4c0.1,0.1,0.1,0.2,0.2,0.2c0.1,0.1,0.2,0.1,0.4,0.1h0.1h0.1c0.3,0,0.5,0,0.6,0.1s0.2,0.2,0.2,0.4
					c0,0.1,0,0.2-0.1,0.3c-0.1,0.1-0.1,0.1-0.2,0.2c-0.1,0-0.2,0.1-0.3,0.1s-0.2,0-0.3,0c-0.4,0-0.8-0.1-1.1-0.2s-0.5-0.3-0.7-0.5
					s-0.3-0.5-0.3-0.8s-0.1-0.7-0.1-1.1L-69.6,284.3L-69.6,284.3z"/>
				<path class="st5" d="M-61.8,291.2c-0.3,0.2-0.5,0.3-0.8,0.4s-0.6,0.1-0.8,0.1c-0.3,0-0.6-0.1-0.9-0.2c-0.3-0.1-0.5-0.3-0.6-0.5
					c-0.2-0.2-0.3-0.4-0.4-0.7c-0.1-0.3-0.1-0.6-0.1-0.9V286c0-0.2,0.1-0.3,0.2-0.4s0.3-0.2,0.5-0.2s0.4,0.1,0.5,0.2
					s0.2,0.3,0.2,0.4v3.3c0,0.4,0.1,0.7,0.2,0.9c0.2,0.2,0.4,0.3,0.7,0.3c0.2,0,0.4,0,0.6-0.1c0.2-0.1,0.4-0.1,0.6-0.2
					c0-0.1,0-0.1,0-0.2s0-0.1,0-0.1V286c0-0.2,0.1-0.3,0.2-0.4s0.3-0.2,0.5-0.2s0.4,0.1,0.5,0.2s0.2,0.3,0.2,0.4v4
					c0,0.2,0,0.3,0.1,0.4c0,0.1,0.1,0.1,0.2,0.2l0.1,0.1c0,0.1,0,0.1,0,0.2c0,0.2-0.1,0.3-0.2,0.4s-0.3,0.2-0.4,0.2
					c-0.1,0-0.3,0-0.4-0.1S-61.8,291.3-61.8,291.2z"/>
				<path class="st5" d="M-55.6,284.3c0-0.2,0.1-0.3,0.2-0.4c0.1-0.1,0.3-0.2,0.5-0.2s0.4,0.1,0.5,0.2s0.2,0.3,0.2,0.4v1.5h1.1
					c0.2,0,0.3,0.1,0.4,0.2c0.1,0.1,0.2,0.3,0.2,0.4c0,0.2-0.1,0.3-0.2,0.4c-0.1,0.1-0.3,0.2-0.4,0.2h-1.1v2.1c0,0.3,0,0.5,0,0.7
					s0.1,0.3,0.1,0.4c0.1,0.1,0.1,0.2,0.2,0.2c0.1,0.1,0.2,0.1,0.4,0.1h0.1h0.1c0.3,0,0.5,0,0.6,0.1s0.2,0.2,0.2,0.4
					c0,0.1,0,0.2-0.1,0.3c-0.1,0.1-0.1,0.1-0.2,0.2c-0.1,0-0.2,0.1-0.3,0.1s-0.2,0-0.3,0c-0.4,0-0.8-0.1-1.1-0.2s-0.5-0.3-0.7-0.5
					s-0.3-0.5-0.3-0.8s-0.1-0.7-0.1-1.1L-55.6,284.3L-55.6,284.3z"/>
				<path class="st5" d="M-50,283.7c0,0.2-0.1,0.4-0.2,0.5s-0.3,0.2-0.5,0.2s-0.4-0.1-0.5-0.2s-0.2-0.3-0.2-0.5s0.1-0.4,0.2-0.5
					s0.3-0.2,0.5-0.2s0.4,0.1,0.5,0.2C-50.1,283.3-50,283.5-50,283.7z M-50.1,291c0,0.2-0.1,0.3-0.2,0.4c-0.1,0.1-0.3,0.2-0.5,0.2
					s-0.3-0.1-0.5-0.2s-0.2-0.3-0.2-0.4v-5c0-0.2,0.1-0.3,0.2-0.4c0.1-0.1,0.3-0.2,0.5-0.2s0.3,0.1,0.5,0.2s0.2,0.3,0.2,0.4V291z"/>
				<path class="st5" d="M-44,293.4c0,0.2-0.1,0.3-0.2,0.4c-0.1,0.1-0.3,0.2-0.5,0.2s-0.4-0.1-0.5-0.2s-0.2-0.3-0.2-0.4v-2.1
					c-0.2,0.1-0.4,0.2-0.6,0.3c-0.2,0.1-0.5,0.1-0.8,0.1c-0.4,0-0.7-0.1-1-0.2s-0.5-0.3-0.6-0.5c-0.2-0.2-0.3-0.4-0.3-0.7
					c-0.1-0.3-0.1-0.6-0.1-0.9v-1.8c0-0.3,0-0.6,0.1-0.9s0.2-0.5,0.4-0.7s0.4-0.4,0.7-0.5s0.6-0.2,1-0.2s0.7,0.1,1,0.2
					s0.5,0.2,0.7,0.4c0.2,0.2,0.4,0.4,0.5,0.6s0.2,0.5,0.2,0.8v6.1L-44,293.4L-44,293.4z M-45.3,287.4c0-0.3-0.1-0.5-0.3-0.6
					s-0.5-0.2-0.8-0.2c-0.4,0-0.6,0.1-0.8,0.3c-0.2,0.2-0.3,0.5-0.3,0.8v1.8c0,0.4,0.1,0.6,0.2,0.8c0.2,0.2,0.4,0.3,0.8,0.3
					c0.2,0,0.4,0,0.6-0.1c0.2-0.1,0.4-0.2,0.5-0.3L-45.3,287.4L-45.3,287.4z"/>
				<path class="st5" d="M-38.5,291.2c-0.3,0.2-0.5,0.3-0.8,0.4s-0.6,0.1-0.8,0.1c-0.3,0-0.6-0.1-0.9-0.2s-0.5-0.3-0.6-0.5
					c-0.2-0.2-0.3-0.4-0.4-0.7c-0.1-0.3-0.1-0.6-0.1-0.9V286c0-0.2,0.1-0.3,0.2-0.4s0.3-0.2,0.5-0.2s0.4,0.1,0.5,0.2
					s0.2,0.3,0.2,0.4v3.3c0,0.4,0.1,0.7,0.2,0.9c0.2,0.2,0.4,0.3,0.7,0.3c0.2,0,0.4,0,0.6-0.1s0.4-0.1,0.6-0.2c0-0.1,0-0.1,0-0.2
					s0-0.1,0-0.1V286c0-0.2,0.1-0.3,0.2-0.4s0.3-0.2,0.5-0.2s0.4,0.1,0.5,0.2s0.2,0.3,0.2,0.4v4c0,0.2,0,0.3,0.1,0.4
					c0,0.1,0.1,0.1,0.2,0.2l0.1,0.1c0,0.1,0,0.1,0,0.2c0,0.2-0.1,0.3-0.2,0.4s-0.3,0.2-0.4,0.2s-0.3,0-0.4-0.1
					S-38.4,291.3-38.5,291.2z"/>
				<path class="st5" d="M-33.8,289.2c-0.2,0-0.3,0-0.5,0s-0.4,0-0.6-0.1v0.6c0,0.3,0.1,0.5,0.3,0.6c0.2,0.2,0.5,0.2,0.9,0.2
					c0.2,0,0.4,0,0.6-0.1s0.4-0.1,0.6-0.2c0,0,0,0,0.1,0c0,0,0.1,0,0.2,0c0.2,0,0.4,0.1,0.4,0.2c0.1,0.1,0.1,0.2,0.1,0.4
					c0,0.2-0.1,0.3-0.2,0.5c-0.2,0.1-0.3,0.2-0.6,0.3c-0.2,0.1-0.5,0.1-0.7,0.2c-0.2,0-0.5,0-0.6,0c-0.4,0-0.7-0.1-1-0.2
					s-0.5-0.2-0.7-0.4c-0.2-0.2-0.3-0.4-0.5-0.7s-0.2-0.5-0.2-0.8v-2.1c0-0.3,0.1-0.6,0.2-0.8s0.3-0.5,0.5-0.7s0.4-0.3,0.7-0.4
					s0.6-0.2,1-0.2c0.7,0,1.3,0.2,1.6,0.5c0.4,0.4,0.5,0.8,0.5,1.4s-0.2,1-0.5,1.3C-32.5,289-33,289.2-33.8,289.2z M-32.9,287.3
					c0-0.3-0.1-0.5-0.2-0.7c-0.2-0.1-0.4-0.2-0.7-0.2c-0.3,0-0.6,0.1-0.8,0.3s-0.3,0.4-0.3,0.7v0.7c0.2,0,0.4,0,0.6,0.1
					c0.2,0,0.3,0,0.4,0c0.3,0,0.6-0.1,0.7-0.2C-33,287.8-32.9,287.6-32.9,287.3z"/>
				<path class="st5" d="M-30.5,284.3c0-0.2,0.1-0.3,0.2-0.4s0.3-0.2,0.5-0.2s0.4,0.1,0.5,0.2s0.2,0.3,0.2,0.4v1.5h1.1
					c0.2,0,0.3,0.1,0.4,0.2s0.2,0.3,0.2,0.4c0,0.2-0.1,0.3-0.2,0.4s-0.3,0.2-0.4,0.2h-1.1v2.1c0,0.3,0,0.5,0,0.7s0.1,0.3,0.1,0.4
					c0.1,0.1,0.1,0.2,0.2,0.2c0.1,0.1,0.2,0.1,0.4,0.1h0.1h0.1c0.3,0,0.5,0,0.6,0.1s0.2,0.2,0.2,0.4c0,0.1,0,0.2-0.1,0.3
					c-0.1,0.1-0.1,0.1-0.2,0.2c-0.1,0-0.2,0.1-0.3,0.1c-0.1,0-0.2,0-0.3,0c-0.4,0-0.8-0.1-1.1-0.2c-0.3-0.1-0.5-0.3-0.7-0.5
					s-0.3-0.5-0.3-0.8s-0.1-0.7-0.1-1.1L-30.5,284.3L-30.5,284.3z"/>
				<path class="st5" d="M-24.3,289.2c-0.2,0-0.3,0-0.5,0s-0.4,0-0.6-0.1v0.6c0,0.3,0.1,0.5,0.3,0.6c0.2,0.2,0.5,0.2,0.9,0.2
					c0.2,0,0.4,0,0.6-0.1s0.4-0.1,0.6-0.2c0,0,0,0,0.1,0c0,0,0.1,0,0.2,0c0.2,0,0.4,0.1,0.4,0.2c0.1,0.1,0.1,0.2,0.1,0.4
					c0,0.2-0.1,0.3-0.2,0.5c-0.2,0.1-0.3,0.2-0.6,0.3c-0.2,0.1-0.5,0.1-0.7,0.2c-0.2,0-0.5,0-0.6,0c-0.4,0-0.7-0.1-1-0.2
					s-0.5-0.2-0.7-0.4c-0.2-0.2-0.3-0.4-0.5-0.7s-0.2-0.5-0.2-0.8v-2.1c0-0.3,0.1-0.6,0.2-0.8s0.3-0.5,0.5-0.7s0.4-0.3,0.7-0.4
					s0.6-0.2,1-0.2c0.7,0,1.3,0.2,1.6,0.5c0.4,0.4,0.5,0.8,0.5,1.4s-0.2,1-0.5,1.3C-22.9,289-23.5,289.2-24.3,289.2z M-23.4,287.3
					c0-0.3-0.1-0.5-0.2-0.7c-0.2-0.1-0.4-0.2-0.7-0.2c-0.3,0-0.6,0.1-0.8,0.3s-0.3,0.4-0.3,0.7v0.7c0.2,0,0.4,0,0.6,0.1
					c0.2,0,0.3,0,0.4,0c0.3,0,0.6-0.1,0.7-0.2C-23.4,287.8-23.4,287.6-23.4,287.3z"/>
				<path class="st5" d="M-14.8,291.6c-0.2,0-0.4,0-0.6-0.1c-0.2,0-0.4-0.1-0.6-0.2v2.1c0,0.2-0.1,0.3-0.2,0.4s-0.3,0.2-0.5,0.2
					s-0.4-0.1-0.5-0.2s-0.2-0.3-0.2-0.4v-6.3c0-0.2,0-0.3,0-0.4s-0.1-0.2-0.1-0.3l-0.1-0.1c0,0,0-0.1,0-0.2c0-0.2,0.1-0.3,0.2-0.4
					s0.3-0.2,0.4-0.2c0.2,0,0.4,0.1,0.6,0.3c0.3-0.2,0.6-0.3,0.8-0.4c0.3-0.1,0.6-0.1,0.9-0.1s0.6,0.1,0.9,0.2s0.5,0.3,0.6,0.5
					c0.2,0.2,0.3,0.4,0.4,0.7c0.1,0.3,0.1,0.6,0.1,0.9v1.5c0,0.4,0,0.7-0.1,1s-0.2,0.6-0.4,0.8c-0.2,0.2-0.4,0.4-0.7,0.5
					C-14,291.6-14.3,291.6-14.8,291.6z M-15.9,290.3c0.2,0.1,0.4,0.1,0.6,0.2c0.2,0,0.3,0,0.5,0c0.4,0,0.6-0.1,0.8-0.3
					c0.1-0.2,0.2-0.6,0.2-1v-1.5c0-0.8-0.3-1.2-1-1.2c-0.2,0-0.3,0-0.5,0.1s-0.4,0.1-0.6,0.2c0,0.1,0,0.1,0,0.2s0,0.1,0,0.2V290.3z"
					/>
				<path class="st5" d="M-8.3,287.6c0-0.7-0.4-1.1-1.1-1.1c-0.2,0-0.3,0-0.4,0s-0.2,0.1-0.3,0.1l-0.2,0.1c-0.1,0-0.2,0.1-0.3,0.1
					c-0.2,0-0.3-0.1-0.4-0.2s-0.1-0.2-0.1-0.4c0-0.2,0.1-0.3,0.2-0.4s0.2-0.2,0.4-0.3c0.2-0.1,0.4-0.1,0.6-0.2c0.2,0,0.5,0,0.7,0
					c0.8,0,1.4,0.2,1.8,0.6s0.5,1,0.5,1.8v2.4c0,0.2,0,0.3,0.1,0.3s0.1,0.1,0.2,0.1c0.2,0,0.4,0.2,0.4,0.4c0,0.3-0.2,0.5-0.7,0.5
					c-0.4,0-0.7-0.2-1-0.5c-0.4,0.4-1,0.6-1.6,0.6c-0.7,0-1.2-0.2-1.5-0.5s-0.5-0.8-0.5-1.3l0,0c0-1.2,0.7-1.8,2.2-1.8
					c0.4,0,0.7,0,1.1,0.1v-0.4L-8.3,287.6L-8.3,287.6z M-9.3,288.9c-0.2,0-0.4,0-0.5,0.1s-0.2,0.1-0.3,0.2c-0.1,0.1-0.1,0.2-0.1,0.3
					c0,0.1,0,0.2,0,0.3l0,0c0,0.2,0.1,0.4,0.2,0.6c0.1,0.1,0.4,0.2,0.7,0.2c0.2,0,0.4,0,0.6-0.1s0.4-0.2,0.6-0.3v-1.1
					c-0.2,0-0.4-0.1-0.5-0.1C-8.9,288.9-9.1,288.9-9.3,288.9z"/>
				<path class="st5" d="M-2.5,286.6c-0.1,0-0.2,0-0.4,0c-0.1,0-0.2,0-0.3,0c-0.1,0-0.2,0-0.3,0.1c-0.1,0-0.2,0.1-0.4,0.2
					c0,0.1,0,0.1,0,0.1v0.1v3.8c0,0.2-0.1,0.3-0.2,0.4s-0.3,0.2-0.5,0.2s-0.3-0.1-0.5-0.2c-0.1-0.1-0.2-0.3-0.2-0.4v-3.8
					c0-0.2,0-0.3,0-0.4s-0.1-0.2-0.1-0.3l-0.1-0.1c0,0,0-0.1,0-0.2c0-0.2,0.1-0.3,0.2-0.4s0.3-0.2,0.4-0.2s0.2,0,0.3,0.1
					c0.1,0.1,0.2,0.1,0.2,0.3c0.3-0.2,0.5-0.3,0.8-0.4s0.5-0.1,0.7-0.1c0.3,0,0.5,0.1,0.6,0.2s0.2,0.3,0.2,0.4
					c0,0.2-0.1,0.3-0.2,0.5C-2.3,286.6-2.3,286.7-2.5,286.6z"/>
				<path class="st5" d="M2.1,287.6c0-0.7-0.4-1.1-1.1-1.1c-0.2,0-0.3,0-0.4,0s-0.2,0.1-0.3,0.1l-0.2,0.1c-0.1,0-0.2,0.1-0.3,0.1
					c-0.2,0-0.3-0.1-0.4-0.2s-0.1-0.2-0.1-0.4c0-0.2,0.1-0.3,0.2-0.4s0.2-0.2,0.4-0.3c0.2-0.1,0.4-0.1,0.6-0.2c0.2,0,0.5,0,0.7,0
					c0.8,0,1.4,0.2,1.8,0.6s0.5,1,0.5,1.8v2.4c0,0.2,0,0.3,0.1,0.3s0.1,0.1,0.2,0.1c0.2,0,0.4,0.2,0.4,0.4c0,0.3-0.2,0.5-0.7,0.5
					c-0.4,0-0.7-0.2-1-0.5c-0.4,0.4-1,0.6-1.6,0.6c-0.7,0-1.2-0.2-1.5-0.5s-0.5-0.8-0.5-1.3l0,0c0-1.2,0.7-1.8,2.2-1.8
					c0.4,0,0.7,0,1.1,0.1v-0.4L2.1,287.6L2.1,287.6z M1,288.9c-0.2,0-0.4,0-0.5,0.1s-0.2,0.1-0.3,0.2c-0.1,0.1-0.1,0.2-0.1,0.3
					c0,0.1,0,0.2,0,0.3l0,0c0,0.2,0.1,0.4,0.2,0.6c0.1,0.1,0.4,0.2,0.7,0.2c0.2,0,0.4,0,0.6-0.1s0.4-0.2,0.6-0.3v-1.1
					c-0.2,0-0.4-0.1-0.5-0.1C1.3,288.9,1.2,288.9,1,288.9z"/>
				<path class="st5" d="M10.8,289.2c-0.2,0-0.3,0-0.5,0s-0.4,0-0.6-0.1v0.6c0,0.3,0.1,0.5,0.3,0.6c0.2,0.2,0.5,0.2,0.9,0.2
					c0.2,0,0.4,0,0.6-0.1s0.4-0.1,0.6-0.2c0,0,0,0,0.1,0c0,0,0.1,0,0.2,0c0.2,0,0.4,0.1,0.5,0.2s0.1,0.2,0.1,0.4
					c0,0.2-0.1,0.3-0.2,0.5c-0.2,0.1-0.3,0.2-0.6,0.3c-0.2,0.1-0.5,0.1-0.7,0.2c-0.2,0-0.5,0-0.6,0c-0.4,0-0.7-0.1-1-0.2
					s-0.5-0.2-0.7-0.4c-0.2-0.2-0.3-0.4-0.5-0.7c-0.1-0.3-0.2-0.5-0.2-0.8v-2.1c0-0.3,0.1-0.6,0.2-0.8c0.1-0.3,0.3-0.5,0.5-0.7
					s0.4-0.3,0.7-0.4c0.3-0.1,0.6-0.2,1-0.2c0.7,0,1.3,0.2,1.6,0.5c0.4,0.4,0.5,0.8,0.5,1.4s-0.2,1-0.5,1.3
					C12.1,289,11.6,289.2,10.8,289.2z M11.7,287.3c0-0.3-0.1-0.5-0.2-0.7c-0.2-0.1-0.4-0.2-0.7-0.2c-0.3,0-0.6,0.1-0.8,0.3
					c-0.2,0.2-0.3,0.4-0.3,0.7v0.7c0.2,0,0.4,0,0.6,0.1c0.2,0,0.3,0,0.4,0c0.3,0,0.6-0.1,0.7-0.2C11.6,287.8,11.7,287.6,11.7,287.3z
					"/>
				<path class="st5" d="M15.1,291.6c-0.1,0-0.2,0-0.3,0c-0.1,0-0.2-0.1-0.3-0.2s-0.2-0.2-0.2-0.4c-0.1-0.2-0.1-0.4-0.1-0.7v-6.9
					c0-0.2,0.1-0.3,0.2-0.4s0.3-0.2,0.5-0.2s0.3,0.1,0.5,0.2c0.1,0.1,0.2,0.3,0.2,0.4v6.8c0,0.1,0,0.2,0,0.3c0,0.1,0.1,0.1,0.1,0.2
					l0.1,0.1c0,0,0,0.1,0,0.2c0,0.2-0.1,0.3-0.2,0.4C15.5,291.6,15.3,291.6,15.1,291.6z"/>
				<path class="st5" d="M23.2,291.6c-0.2,0-0.4,0-0.6-0.1c-0.2,0-0.4-0.1-0.6-0.2v2.1c0,0.2-0.1,0.3-0.2,0.4s-0.3,0.2-0.5,0.2
					s-0.4-0.1-0.5-0.2s-0.2-0.3-0.2-0.4v-6.3c0-0.2,0-0.3,0-0.4s-0.1-0.2-0.1-0.3l-0.1-0.1c0,0,0-0.1,0-0.2c0-0.2,0.1-0.3,0.2-0.4
					s0.3-0.2,0.4-0.2c0.2,0,0.4,0.1,0.6,0.3c0.3-0.2,0.6-0.3,0.8-0.4c0.3-0.1,0.6-0.1,0.9-0.1s0.6,0.1,0.9,0.2s0.5,0.3,0.6,0.5
					c0.2,0.2,0.3,0.4,0.4,0.7c0.1,0.3,0.1,0.6,0.1,0.9v1.5c0,0.4,0,0.7-0.1,1s-0.2,0.6-0.4,0.8c-0.2,0.2-0.4,0.4-0.7,0.5
					C24,291.6,23.6,291.6,23.2,291.6z M22,290.3c0.2,0.1,0.4,0.1,0.6,0.2c0.2,0,0.4,0,0.5,0c0.4,0,0.6-0.1,0.8-0.3
					c0.1-0.2,0.2-0.6,0.2-1v-1.5c0-0.8-0.3-1.2-1-1.2c-0.2,0-0.3,0-0.5,0.1s-0.4,0.1-0.6,0.2c0,0.1,0,0.1,0,0.2s0,0.1,0,0.2V290.3z"
					/>
				<path class="st5" d="M29.4,286.6c-0.1,0-0.2,0-0.4,0c-0.1,0-0.2,0-0.3,0c-0.1,0-0.2,0-0.3,0.1c-0.1,0-0.2,0.1-0.4,0.2
					c0,0.1,0,0.1,0,0.1v0.1v3.8c0,0.2-0.1,0.3-0.2,0.4s-0.3,0.2-0.5,0.2s-0.3-0.1-0.5-0.2c-0.1-0.1-0.2-0.3-0.2-0.4v-3.8
					c0-0.2,0-0.3,0-0.4s-0.1-0.2-0.1-0.3l-0.1-0.1c0,0,0-0.1,0-0.2c0-0.2,0.1-0.3,0.2-0.4s0.3-0.2,0.4-0.2s0.2,0,0.3,0.1
					c0.1,0.1,0.2,0.1,0.2,0.3c0.3-0.2,0.5-0.3,0.8-0.4s0.5-0.1,0.7-0.1c0.3,0,0.5,0.1,0.6,0.2s0.2,0.3,0.2,0.4
					c0,0.2-0.1,0.3-0.2,0.5C29.7,286.6,29.6,286.7,29.4,286.6z"/>
				<path class="st5" d="M33.2,291.6c-0.4,0-0.8-0.1-1-0.2c-0.3-0.1-0.6-0.3-0.8-0.5c-0.2-0.2-0.4-0.4-0.5-0.7
					c-0.1-0.3-0.2-0.6-0.2-0.9v-1.9c0-0.3,0.1-0.6,0.2-0.9s0.3-0.5,0.5-0.7s0.5-0.3,0.8-0.5c0.3-0.1,0.6-0.2,1-0.2s0.7,0.1,1,0.2
					s0.6,0.3,0.8,0.5c0.2,0.2,0.4,0.4,0.5,0.7c0.1,0.3,0.2,0.6,0.2,0.9v1.9c0,0.3-0.1,0.6-0.2,0.9s-0.3,0.5-0.5,0.7
					s-0.5,0.4-0.8,0.5C33.9,291.6,33.6,291.6,33.2,291.6z M33.2,290.5c0.4,0,0.7-0.1,0.8-0.3c0.2-0.2,0.3-0.4,0.3-0.8v-1.9
					c0-0.3-0.1-0.6-0.3-0.8c-0.2-0.2-0.5-0.3-0.8-0.3s-0.7,0.1-0.8,0.3c-0.2,0.2-0.3,0.4-0.3,0.8v1.9c0,0.3,0.1,0.6,0.3,0.8
					C32.5,290.4,32.8,290.5,33.2,290.5z M33.5,282.9c0.1-0.1,0.1-0.1,0.2-0.1c0,0,0.1,0,0.2,0s0.2,0,0.3,0.1
					c0.1,0.1,0.2,0.2,0.2,0.4c0,0.1-0.1,0.2-0.2,0.3l-0.9,0.9c-0.1,0.1-0.1,0.1-0.2,0.2c-0.1,0-0.2,0.1-0.3,0.1
					c-0.1,0-0.3,0-0.4-0.1s-0.2-0.2-0.2-0.4c0-0.1,0-0.2,0.1-0.3s0.2-0.2,0.3-0.3c0.1-0.1,0.2-0.2,0.3-0.3c0.1-0.1,0.2-0.2,0.3-0.3
					L33.5,282.9z"/>
				<path class="st5" d="M41.2,290.7c0.1,0.1,0.1,0.2,0.1,0.3c0,0.2-0.1,0.3-0.2,0.4s-0.3,0.2-0.5,0.2s-0.3,0-0.4-0.1
					s-0.2-0.2-0.3-0.3l-1.2-1.8l-1.3,1.8c-0.1,0.2-0.3,0.3-0.5,0.3s-0.3-0.1-0.5-0.2c-0.1-0.1-0.2-0.3-0.2-0.4s0-0.2,0.1-0.3
					l1.6-2.3l-1.5-2.1c-0.1-0.1-0.1-0.2-0.1-0.3c0-0.2,0.1-0.3,0.2-0.4s0.3-0.2,0.5-0.2s0.3,0.1,0.4,0.1c0.1,0.1,0.2,0.2,0.3,0.3
					l1.1,1.5l1.1-1.6c0.1-0.1,0.2-0.2,0.2-0.3c0.1-0.1,0.2-0.1,0.4-0.1c0.2,0,0.3,0.1,0.4,0.2s0.2,0.2,0.2,0.4c0,0,0,0.1,0,0.2
					s0,0.1-0.1,0.2l-1.5,2.1L41.2,290.7z"/>
				<path class="st5" d="M43.9,283.7c0,0.2-0.1,0.4-0.2,0.5s-0.3,0.2-0.5,0.2s-0.4-0.1-0.5-0.2s-0.2-0.3-0.2-0.5s0.1-0.4,0.2-0.5
					s0.3-0.2,0.5-0.2s0.4,0.1,0.5,0.2S43.9,283.5,43.9,283.7z M43.8,291c0,0.2-0.1,0.3-0.2,0.4s-0.3,0.2-0.5,0.2s-0.3-0.1-0.5-0.2
					s-0.2-0.3-0.2-0.4v-5c0-0.2,0.1-0.3,0.2-0.4s0.3-0.2,0.5-0.2s0.3,0.1,0.5,0.2s0.2,0.3,0.2,0.4V291z"/>
				<path class="st5" d="M52.2,287.5c0-0.3-0.1-0.5-0.2-0.7s-0.4-0.3-0.7-0.3c-0.2,0-0.4,0-0.6,0.1s-0.4,0.2-0.5,0.4
					c0,0.1,0,0.1,0,0.2s0,0.1,0,0.2v3.6c0,0.2-0.1,0.3-0.2,0.4s-0.3,0.2-0.5,0.2s-0.4-0.1-0.5-0.2s-0.2-0.3-0.2-0.4v-3.3
					c0-0.2,0-0.3,0-0.5c0-0.1-0.1-0.3-0.1-0.4c-0.1-0.1-0.1-0.2-0.2-0.3c-0.1-0.1-0.2-0.1-0.4-0.1c-0.2,0-0.4,0-0.6,0.1
					s-0.4,0.2-0.6,0.3v0.1v0.1v3.9c0,0.2-0.1,0.3-0.2,0.4s-0.3,0.2-0.5,0.2s-0.4-0.1-0.5-0.2s-0.2-0.3-0.2-0.4V287
					c0-0.1,0-0.2,0-0.3c0-0.1,0-0.1,0-0.2c0,0,0-0.1-0.1-0.1c0,0,0-0.1-0.1-0.1c0-0.1-0.1-0.1-0.1-0.2c0,0,0-0.1,0-0.2
					c0-0.2,0.1-0.3,0.2-0.4s0.3-0.2,0.4-0.2s0.2,0,0.3,0.1s0.2,0.1,0.2,0.2c0.3-0.2,0.6-0.3,0.8-0.4c0.3-0.1,0.6-0.1,0.9-0.1
					s0.5,0,0.8,0.1c0.2,0.1,0.4,0.2,0.6,0.4c0.3-0.2,0.6-0.3,0.9-0.4s0.6-0.1,0.9-0.1c0.7,0,1.2,0.2,1.6,0.6s0.6,0.9,0.6,1.5v3.6
					c0,0.2-0.1,0.3-0.2,0.4s-0.3,0.2-0.5,0.2s-0.4-0.1-0.5-0.2s-0.2-0.3-0.2-0.4v-3.3L52.2,287.5L52.2,287.5z"/>
				<path class="st5" d="M57.3,291.6c-0.4,0-0.8-0.1-1-0.2c-0.3-0.1-0.6-0.3-0.8-0.5s-0.4-0.4-0.5-0.7c-0.1-0.3-0.2-0.6-0.2-0.9
					v-1.9c0-0.3,0.1-0.6,0.2-0.9s0.3-0.5,0.5-0.7s0.5-0.3,0.8-0.5c0.3-0.1,0.6-0.2,1-0.2s0.7,0.1,1,0.2s0.6,0.3,0.8,0.5
					s0.4,0.4,0.5,0.7c0.1,0.3,0.2,0.6,0.2,0.9v1.9c0,0.3-0.1,0.6-0.2,0.9s-0.3,0.5-0.5,0.7s-0.5,0.4-0.8,0.5
					C58,291.6,57.7,291.6,57.3,291.6z M57.3,290.5c0.4,0,0.7-0.1,0.8-0.3c0.2-0.2,0.3-0.4,0.3-0.8v-1.9c0-0.3-0.1-0.6-0.3-0.8
					c-0.2-0.2-0.5-0.3-0.8-0.3s-0.7,0.1-0.8,0.3c-0.2,0.2-0.3,0.4-0.3,0.8v1.9c0,0.3,0.1,0.6,0.3,0.8
					C56.6,290.4,56.9,290.5,57.3,290.5z"/>
				<path class="st5" d="M-112.5,299.8c0.2,0,0.4,0,0.6,0s0.4,0.1,0.6,0.2v-2.2c0-0.2,0.1-0.3,0.2-0.4c0.1-0.1,0.3-0.2,0.5-0.2
					s0.4,0.1,0.5,0.2s0.2,0.3,0.2,0.4v6.6c0,0.1,0,0.2,0.1,0.3c0,0.1,0.1,0.2,0.2,0.3c0.1,0.1,0.1,0.2,0.1,0.3
					c0,0.2-0.1,0.3-0.2,0.4c-0.1,0.1-0.3,0.2-0.4,0.2s-0.3,0-0.4-0.1c-0.1-0.1-0.2-0.2-0.3-0.3c-0.3,0.2-0.6,0.3-0.8,0.4
					s-0.6,0.1-0.9,0.1s-0.6-0.1-0.9-0.2c-0.3-0.1-0.5-0.3-0.6-0.5s-0.3-0.4-0.4-0.7c-0.1-0.3-0.1-0.6-0.1-0.9v-1.4
					c0-0.4,0-0.7,0.1-1s0.2-0.6,0.4-0.8c0.2-0.2,0.4-0.4,0.7-0.5C-113.1,299.9-112.8,299.8-112.5,299.8z M-111.3,301.1
					c-0.2-0.1-0.4-0.1-0.6-0.2c-0.2,0-0.3,0-0.5,0c-0.4,0-0.6,0.1-0.8,0.3c-0.1,0.2-0.2,0.6-0.2,1v1.4c0,0.8,0.3,1.2,1,1.2
					c0.3,0,0.7-0.1,1.1-0.3v-0.1v-0.1V301.1z"/>
				<path class="st5" d="M-106,303.6c-0.2,0-0.3,0-0.5,0s-0.4,0-0.6-0.1v0.6c0,0.3,0.1,0.5,0.3,0.6c0.2,0.2,0.5,0.2,0.9,0.2
					c0.2,0,0.4,0,0.6-0.1c0.2-0.1,0.4-0.1,0.6-0.2c0,0,0,0,0.1,0c0,0,0.1,0,0.2,0c0.2,0,0.4,0.1,0.4,0.2c0.1,0.1,0.1,0.2,0.1,0.4
					c0,0.2-0.1,0.3-0.2,0.5c-0.2,0.1-0.3,0.2-0.6,0.3c-0.2,0.1-0.5,0.1-0.7,0.2c-0.2,0-0.5,0-0.6,0c-0.4,0-0.7-0.1-1-0.2
					s-0.5-0.2-0.7-0.4c-0.2-0.2-0.3-0.4-0.5-0.7c-0.2-0.3-0.2-0.5-0.2-0.8V302c0-0.3,0.1-0.6,0.2-0.8c0.1-0.2,0.3-0.5,0.5-0.7
					s0.4-0.3,0.7-0.4s0.6-0.2,1-0.2c0.7,0,1.3,0.2,1.6,0.5c0.4,0.4,0.5,0.8,0.5,1.4s-0.2,1-0.5,1.3
					C-104.8,303.4-105.3,303.6-106,303.6z M-105.1,301.7c0-0.3-0.1-0.5-0.2-0.7c-0.2-0.1-0.4-0.2-0.7-0.2s-0.6,0.1-0.8,0.3
					c-0.2,0.2-0.3,0.4-0.3,0.7v0.7c0.2,0,0.4,0,0.6,0.1c0.2,0,0.3,0,0.4,0c0.3,0,0.6-0.1,0.7-0.2
					C-105.3,302.2-105.1,302-105.1,301.7z"/>
				<path class="st5" d="M-102.8,301.6c0-0.5,0.2-1,0.5-1.3c0.4-0.3,0.9-0.5,1.6-0.5c0.2,0,0.4,0,0.6,0s0.4,0.1,0.6,0.1
					c0.2,0,0.3,0.2,0.4,0.3c0.1,0.1,0.2,0.3,0.2,0.4c0,0.2,0,0.3-0.1,0.4s-0.2,0.1-0.4,0.1c-0.1,0-0.2,0-0.3,0s-0.2-0.1-0.2-0.1
					c-0.1,0-0.2-0.1-0.3-0.1s-0.2,0-0.4,0c-0.1,0-0.2,0-0.3,0s-0.2,0-0.3,0.1c-0.1,0-0.2,0.1-0.2,0.2c-0.1,0.1-0.1,0.2-0.1,0.3
					c0,0.2,0.1,0.4,0.2,0.5s0.3,0.2,0.5,0.3c0.2,0.1,0.4,0.2,0.7,0.3c0.2,0.1,0.5,0.2,0.7,0.3c0.2,0.1,0.4,0.3,0.5,0.5
					s0.2,0.5,0.2,0.9c0,0.6-0.2,1-0.6,1.3c-0.4,0.3-0.9,0.5-1.6,0.5c-0.2,0-0.4,0-0.6,0c-0.2,0-0.4-0.1-0.6-0.1
					c-0.2-0.1-0.4-0.1-0.5-0.2s-0.2-0.2-0.2-0.4c0-0.1,0-0.1,0-0.2s0.1-0.2,0.1-0.2c0.1-0.1,0.1-0.1,0.2-0.1c0.1,0,0.2,0,0.3,0
					s0.3,0.1,0.5,0.2s0.5,0.1,0.7,0.1c0.3,0,0.5-0.1,0.7-0.2s0.3-0.3,0.3-0.5s-0.1-0.3-0.2-0.4c-0.1-0.1-0.3-0.2-0.5-0.3
					c-0.2-0.1-0.4-0.2-0.7-0.2c-0.2-0.1-0.5-0.2-0.7-0.3c-0.2-0.1-0.4-0.3-0.5-0.5C-102.8,302.2-102.8,301.9-102.8,301.6z"/>
				<path class="st5" d="M-97.5,298.7c0-0.2,0.1-0.3,0.2-0.4s0.3-0.2,0.5-0.2s0.4,0.1,0.5,0.2s0.2,0.3,0.2,0.4v1.5h1.1
					c0.2,0,0.3,0.1,0.4,0.2s0.2,0.3,0.2,0.4c0,0.2-0.1,0.3-0.2,0.4s-0.3,0.2-0.4,0.2h-1.1v2.1c0,0.3,0,0.5,0,0.7s0.1,0.3,0.1,0.4
					c0.1,0.1,0.1,0.2,0.2,0.2c0.1,0.1,0.2,0.1,0.4,0.1h0.1h0.1c0.3,0,0.5,0,0.6,0.1s0.2,0.2,0.2,0.4c0,0.1,0,0.2-0.1,0.3
					c-0.1,0.1-0.1,0.1-0.2,0.2c-0.1,0-0.2,0.1-0.3,0.1s-0.2,0-0.3,0c-0.4,0-0.8-0.1-1.1-0.2s-0.5-0.3-0.7-0.5s-0.3-0.5-0.3-0.8
					s-0.1-0.7-0.1-1.1L-97.5,298.7L-97.5,298.7z"/>
				<path class="st5" d="M-92,298.1c0,0.2-0.1,0.4-0.2,0.5c-0.1,0.1-0.3,0.2-0.5,0.2s-0.4-0.1-0.5-0.2s-0.2-0.3-0.2-0.5
					s0.1-0.4,0.2-0.5c0.1-0.1,0.3-0.2,0.5-0.2s0.4,0.1,0.5,0.2C-92,297.7-92,297.9-92,298.1z M-92,305.4c0,0.2-0.1,0.3-0.2,0.4
					s-0.3,0.2-0.5,0.2s-0.3-0.1-0.5-0.2s-0.2-0.3-0.2-0.4v-5c0-0.2,0.1-0.3,0.2-0.4s0.3-0.2,0.5-0.2s0.3,0.1,0.5,0.2
					s0.2,0.3,0.2,0.4V305.4z"/>
				<path class="st5" d="M-89,305.4c0,0.2-0.1,0.3-0.2,0.4c-0.1,0.1-0.3,0.2-0.5,0.2s-0.4-0.1-0.5-0.2s-0.2-0.3-0.2-0.4v-3.9
					c0-0.1,0-0.2,0-0.3c0-0.1,0-0.1,0-0.2s0-0.1-0.1-0.1c0,0,0-0.1-0.1-0.1c0-0.1-0.1-0.1-0.1-0.2c0,0,0-0.1,0-0.2
					c0-0.2,0.1-0.3,0.2-0.4s0.3-0.2,0.5-0.2s0.4,0.1,0.6,0.3c0.3-0.2,0.5-0.3,0.8-0.4s0.6-0.1,0.8-0.1c0.7,0,1.2,0.2,1.6,0.6
					c0.3,0.4,0.5,1,0.5,1.7v3.3c0,0.2-0.1,0.3-0.2,0.4s-0.3,0.2-0.5,0.2s-0.4-0.1-0.5-0.2s-0.2-0.3-0.2-0.4v-3.3
					c0-0.4-0.1-0.7-0.2-0.9c-0.2-0.2-0.4-0.3-0.7-0.3s-0.7,0.1-1.1,0.4c0,0.1,0,0.2,0,0.3v4H-89z"/>
				<path class="st5" d="M-81.8,306c-0.4,0-0.8-0.1-1-0.2c-0.3-0.1-0.6-0.3-0.8-0.5s-0.4-0.4-0.5-0.7s-0.2-0.6-0.2-0.9V302
					c0-0.3,0.1-0.6,0.2-0.9s0.3-0.5,0.5-0.7s0.5-0.3,0.8-0.5c0.3-0.1,0.6-0.2,1-0.2s0.7,0.1,1,0.2s0.6,0.3,0.8,0.5s0.4,0.4,0.5,0.7
					c0.1,0.3,0.2,0.6,0.2,0.9v1.9c0,0.3-0.1,0.6-0.2,0.9s-0.3,0.5-0.5,0.7s-0.5,0.4-0.8,0.5C-81,306-81.5,306-81.8,306z
					 M-81.8,304.9c0.4,0,0.7-0.1,0.8-0.3s0.3-0.4,0.3-0.8V302c0-0.3-0.1-0.6-0.3-0.8s-0.5-0.3-0.8-0.3s-0.7,0.1-0.8,0.3
					c-0.2,0.2-0.3,0.4-0.3,0.8v1.9c0,0.3,0.1,0.6,0.3,0.8C-82.5,304.8-82.3,304.9-81.8,304.9z"/>
				<path class="st5" d="M-72.3,303.6c-0.2,0-0.3,0-0.5,0s-0.4,0-0.6-0.1v0.6c0,0.3,0.1,0.5,0.3,0.6c0.2,0.2,0.5,0.2,0.9,0.2
					c0.2,0,0.4,0,0.6-0.1c0.2-0.1,0.4-0.1,0.6-0.2c0,0,0,0,0.1,0c0,0,0.1,0,0.2,0c0.2,0,0.4,0.1,0.4,0.2c0.1,0.1,0.1,0.2,0.1,0.4
					c0,0.2-0.1,0.3-0.2,0.5c-0.2,0.1-0.3,0.2-0.6,0.3c-0.2,0.1-0.5,0.1-0.7,0.2c-0.2,0-0.5,0-0.6,0c-0.4,0-0.7-0.1-1-0.2
					s-0.5-0.2-0.7-0.4c-0.2-0.2-0.3-0.4-0.5-0.7c-0.2-0.3-0.2-0.5-0.2-0.8V302c0-0.3,0.1-0.6,0.2-0.8c0.1-0.2,0.3-0.5,0.5-0.7
					s0.4-0.3,0.7-0.4s0.6-0.2,1-0.2c0.7,0,1.3,0.2,1.6,0.5c0.4,0.4,0.5,0.8,0.5,1.4s-0.2,1-0.5,1.3C-71,303.4-71.6,303.6-72.3,303.6
					z M-71.5,301.7c0-0.3-0.1-0.5-0.2-0.7c-0.2-0.1-0.4-0.2-0.7-0.2s-0.6,0.1-0.8,0.3c-0.2,0.2-0.3,0.4-0.3,0.7v0.7
					c0.2,0,0.4,0,0.6,0.1c0.2,0,0.3,0,0.4,0c0.3,0,0.6-0.1,0.7-0.2C-71.5,302.2-71.5,302-71.5,301.7z"/>
				<path class="st5" d="M-67.5,305.4c0,0.2-0.1,0.3-0.2,0.4s-0.3,0.2-0.5,0.2s-0.4-0.1-0.5-0.2s-0.2-0.3-0.2-0.4v-3.9
					c0-0.1,0-0.2,0-0.3c0-0.1,0-0.1,0-0.2s0-0.1-0.1-0.1c0,0,0-0.1-0.1-0.1c0-0.1-0.1-0.1-0.1-0.2c0,0,0-0.1,0-0.2
					c0-0.2,0.1-0.3,0.2-0.4c0.1-0.1,0.3-0.2,0.5-0.2s0.4,0.1,0.6,0.3c0.3-0.2,0.5-0.3,0.8-0.4s0.6-0.1,0.8-0.1
					c0.7,0,1.2,0.2,1.6,0.6c0.3,0.4,0.5,1,0.5,1.7v3.3c0,0.2-0.1,0.3-0.2,0.4c-0.1,0.1-0.3,0.2-0.5,0.2s-0.4-0.1-0.5-0.2
					s-0.2-0.3-0.2-0.4v-3.3c0-0.4-0.1-0.7-0.2-0.9c-0.2-0.2-0.4-0.3-0.7-0.3s-0.7,0.1-1.1,0.4c0,0.1,0,0.2,0,0.3v4H-67.5z"/>
				<path class="st5" d="M-59,298.7c0-0.2,0.1-0.3,0.2-0.4c0.1-0.1,0.3-0.2,0.5-0.2s0.4,0.1,0.5,0.2s0.2,0.3,0.2,0.4v1.5h1.1
					c0.2,0,0.3,0.1,0.4,0.2c0.1,0.1,0.2,0.3,0.2,0.4c0,0.2-0.1,0.3-0.2,0.4c-0.1,0.1-0.3,0.2-0.4,0.2h-1.1v2.1c0,0.3,0,0.5,0,0.7
					s0.1,0.3,0.1,0.4c0.1,0.1,0.1,0.2,0.2,0.2c0.1,0.1,0.2,0.1,0.4,0.1h0.1h0.1c0.3,0,0.5,0,0.6,0.1s0.2,0.2,0.2,0.4
					c0,0.1,0,0.2-0.1,0.3c-0.1,0.1-0.1,0.1-0.2,0.2c-0.1,0-0.2,0.1-0.3,0.1s-0.2,0-0.3,0c-0.4,0-0.8-0.1-1.1-0.2s-0.5-0.3-0.7-0.5
					s-0.3-0.5-0.3-0.8s-0.1-0.7-0.1-1.1L-59,298.7L-59,298.7z"/>
				<path class="st5" d="M-51.1,305.6c-0.3,0.2-0.5,0.3-0.8,0.4s-0.6,0.1-0.8,0.1c-0.3,0-0.6-0.1-0.9-0.2s-0.5-0.3-0.6-0.5
					c-0.2-0.2-0.3-0.4-0.4-0.7c-0.1-0.3-0.1-0.6-0.1-0.9v-3.3c0-0.2,0.1-0.3,0.2-0.4c0.1-0.1,0.3-0.2,0.5-0.2s0.4,0.1,0.5,0.2
					s0.2,0.3,0.2,0.4v3.3c0,0.4,0.1,0.7,0.2,0.9c0.2,0.2,0.4,0.3,0.7,0.3c0.2,0,0.4,0,0.6-0.1s0.4-0.1,0.6-0.2c0-0.1,0-0.1,0-0.2
					s0-0.1,0-0.1v-3.9c0-0.2,0.1-0.3,0.2-0.4c0.1-0.1,0.3-0.2,0.5-0.2s0.4,0.1,0.5,0.2s0.2,0.3,0.2,0.4v4c0,0.2,0,0.3,0.1,0.4
					c0,0.1,0.1,0.1,0.2,0.2l0.1,0.1c0,0.1,0,0.1,0,0.2c0,0.2-0.1,0.3-0.2,0.4c-0.1,0.1-0.3,0.2-0.4,0.2s-0.3,0-0.4-0.1
					C-50.5,305.8-51,305.7-51.1,305.6z"/>
				<path class="st5" d="M-42.3,301c-0.1,0-0.2,0-0.4,0c-0.1,0-0.2,0-0.3,0s-0.2,0-0.3,0.1c-0.1,0-0.2,0.1-0.4,0.2
					c0,0.1,0,0.1,0,0.1v0.1v3.8c0,0.2-0.1,0.3-0.2,0.4s-0.3,0.2-0.5,0.2s-0.3-0.1-0.5-0.2c-0.1-0.1-0.2-0.3-0.2-0.4v-3.8
					c0-0.2,0-0.3,0-0.4s-0.1-0.2-0.1-0.3l-0.1-0.1c0,0,0-0.1,0-0.2c0-0.2,0.1-0.3,0.2-0.4s0.3-0.2,0.4-0.2c0.1,0,0.2,0,0.3,0.1
					s0.2,0.1,0.2,0.3c0.3-0.2,0.5-0.3,0.8-0.4s0.5-0.1,0.7-0.1c0.3,0,0.5,0.1,0.6,0.2c0.1,0.1,0.2,0.3,0.2,0.4
					c0,0.2-0.1,0.3-0.2,0.5C-41.9,301-42.1,301.1-42.3,301z"/>
				<path class="st5" d="M-36.8,305.6c-0.3,0.2-0.5,0.3-0.8,0.4s-0.6,0.1-0.8,0.1c-0.3,0-0.6-0.1-0.9-0.2s-0.5-0.3-0.6-0.5
					c-0.2-0.2-0.3-0.4-0.4-0.7c-0.1-0.3-0.1-0.6-0.1-0.9v-3.3c0-0.2,0.1-0.3,0.2-0.4s0.3-0.2,0.5-0.2s0.4,0.1,0.5,0.2
					s0.2,0.3,0.2,0.4v3.3c0,0.4,0.1,0.7,0.2,0.9c0.2,0.2,0.4,0.3,0.7,0.3c0.2,0,0.4,0,0.6-0.1s0.4-0.1,0.6-0.2c0-0.1,0-0.1,0-0.2
					s0-0.1,0-0.1v-3.9c0-0.2,0.1-0.3,0.2-0.4s0.3-0.2,0.5-0.2s0.4,0.1,0.5,0.2s0.2,0.3,0.2,0.4v4c0,0.2,0,0.3,0.1,0.4
					c0,0.1,0.1,0.1,0.2,0.2l0.1,0.1c0,0.1,0,0.1,0,0.2c0,0.2-0.1,0.3-0.2,0.4s-0.3,0.2-0.4,0.2s-0.3,0-0.4-0.1
					S-36.8,305.7-36.8,305.6z"/>
				<path class="st5" d="M-34.3,298.7c0-0.2,0.1-0.3,0.2-0.4s0.3-0.2,0.5-0.2s0.4,0.1,0.5,0.2s0.2,0.3,0.2,0.4v1.5h1.1
					c0.2,0,0.3,0.1,0.4,0.2s0.2,0.3,0.2,0.4c0,0.2-0.1,0.3-0.2,0.4s-0.3,0.2-0.4,0.2h-1.1v2.1c0,0.3,0,0.5,0,0.7s0.1,0.3,0.1,0.4
					c0.1,0.1,0.1,0.2,0.2,0.2c0.1,0.1,0.2,0.1,0.4,0.1h0.1h0.1c0.3,0,0.5,0,0.6,0.1s0.2,0.2,0.2,0.4c0,0.1,0,0.2-0.1,0.3
					c-0.1,0.1-0.1,0.1-0.2,0.2c-0.1,0-0.2,0.1-0.3,0.1c-0.1,0-0.2,0-0.3,0c-0.4,0-0.8-0.1-1.1-0.2c-0.3-0.1-0.5-0.3-0.7-0.5
					s-0.3-0.5-0.3-0.8s-0.1-0.7-0.1-1.1L-34.3,298.7L-34.3,298.7z"/>
				<path class="st5" d="M-27.3,302c0-0.7-0.4-1.1-1.1-1.1c-0.2,0-0.3,0-0.4,0S-29,301-29,301l-0.2,0.1c-0.1,0-0.2,0.1-0.3,0.1
					c-0.2,0-0.3-0.1-0.4-0.2s-0.1-0.2-0.1-0.4c0-0.2,0.1-0.3,0.2-0.4s0.2-0.2,0.4-0.3c0.2-0.1,0.4-0.1,0.6-0.2c0.2,0,0.5,0,0.7,0
					c0.8,0,1.4,0.2,1.8,0.6s0.5,1,0.5,1.8v2.4c0,0.2,0,0.3,0.1,0.3s0.1,0.1,0.2,0.1c0.2,0,0.4,0.2,0.4,0.4c0,0.3-0.2,0.5-0.7,0.5
					c-0.4,0-0.7-0.2-1-0.5c-0.4,0.4-1,0.6-1.6,0.6c-0.7,0-1.1-0.2-1.5-0.5s-0.5-0.8-0.5-1.3l0,0c0-1.2,0.7-1.8,2.2-1.8
					c0.4,0,0.7,0,1.1,0.1V302L-27.3,302L-27.3,302z M-28.3,303.3c-0.2,0-0.4,0-0.5,0.1s-0.2,0.1-0.3,0.2c-0.1,0.1-0.1,0.2-0.1,0.3
					c0,0.1,0,0.2,0,0.3l0,0c0,0.2,0.1,0.4,0.2,0.6c0.1,0.1,0.4,0.2,0.7,0.2c0.2,0,0.4,0,0.6-0.1s0.4-0.2,0.6-0.3v-1.1
					c-0.2,0-0.4-0.1-0.5-0.1C-27.9,303.3-28.1,303.3-28.3,303.3z"/>
				<path class="st5" d="M-17.5,302c0-0.7-0.4-1.1-1.1-1.1c-0.2,0-0.3,0-0.4,0s-0.2,0.1-0.3,0.1l-0.2,0.1c-0.1,0-0.2,0.1-0.3,0.1
					c-0.2,0-0.3-0.1-0.4-0.2s-0.1-0.2-0.1-0.4c0-0.2,0.1-0.3,0.2-0.4s0.2-0.2,0.4-0.3c0.2-0.1,0.4-0.1,0.6-0.2s0.5,0,0.7,0
					c0.8,0,1.4,0.2,1.8,0.6s0.5,1,0.5,1.8v2.4c0,0.2,0,0.3,0.1,0.3s0.1,0.1,0.2,0.1c0.2,0,0.4,0.2,0.4,0.4c0,0.3-0.2,0.5-0.7,0.5
					c-0.4,0-0.7-0.2-1-0.5c-0.4,0.4-1,0.6-1.6,0.6c-0.7,0-1.2-0.2-1.5-0.5s-0.5-0.8-0.5-1.3l0,0c0-1.2,0.7-1.8,2.2-1.8
					c0.4,0,0.7,0,1.1,0.1V302L-17.5,302L-17.5,302z M-18.6,303.3c-0.2,0-0.4,0-0.5,0.1s-0.2,0.1-0.3,0.2c-0.1,0.1-0.1,0.2-0.1,0.3
					s0,0.2,0,0.3l0,0c0,0.2,0.1,0.4,0.2,0.6c0.1,0.1,0.4,0.2,0.7,0.2c0.2,0,0.4,0,0.6-0.1s0.4-0.2,0.6-0.3v-1.1
					c-0.2,0-0.4-0.1-0.5-0.1C-18.3,303.3-18.4,303.3-18.6,303.3z"/>
				<path class="st5" d="M-13.5,306c-0.1,0-0.2,0-0.3,0c-0.1,0-0.2-0.1-0.3-0.2s-0.2-0.2-0.2-0.4c-0.1-0.2-0.1-0.4-0.1-0.7v-6.9
					c0-0.2,0.1-0.3,0.2-0.4s0.3-0.2,0.5-0.2s0.3,0.1,0.5,0.2c0.1,0.1,0.2,0.3,0.2,0.4v6.8c0,0.1,0,0.2,0,0.3c0,0.1,0.1,0.1,0.1,0.2
					l0.1,0.1c0,0,0,0.1,0,0.2c0,0.2-0.1,0.3-0.2,0.4C-13.3,306-13.3,306-13.5,306z"/>
				<path class="st5" d="M-5.8,303.6c-0.2,0-0.3,0-0.5,0s-0.4,0-0.6-0.1v0.6c0,0.3,0.1,0.5,0.3,0.6c0.2,0.2,0.5,0.2,0.9,0.2
					c0.2,0,0.4,0,0.6-0.1s0.4-0.1,0.6-0.2c0,0,0,0,0.1,0c0,0,0.1,0,0.2,0c0.2,0,0.4,0.1,0.5,0.2s0.1,0.2,0.1,0.4
					c0,0.2-0.1,0.3-0.2,0.5c-0.2,0.1-0.3,0.2-0.6,0.3c-0.2,0.1-0.5,0.1-0.7,0.2c-0.2,0-0.5,0-0.6,0c-0.4,0-0.7-0.1-1-0.2
					s-0.5-0.2-0.7-0.4c-0.2-0.2-0.3-0.4-0.5-0.7c-0.1-0.3-0.2-0.5-0.2-0.8V302c0-0.3,0.1-0.6,0.2-0.8c0.1-0.3,0.3-0.5,0.5-0.7
					s0.4-0.3,0.7-0.4c0.3-0.1,0.6-0.2,1-0.2c0.7,0,1.3,0.2,1.6,0.5c0.4,0.4,0.5,0.8,0.5,1.4s-0.2,1-0.5,1.3
					C-4.5,303.4-5.1,303.6-5.8,303.6z M-4.9,301.7c0-0.3-0.1-0.5-0.2-0.7c-0.2-0.1-0.4-0.2-0.7-0.2c-0.3,0-0.6,0.1-0.8,0.3
					c-0.2,0.2-0.3,0.4-0.3,0.7v0.7c0.2,0,0.4,0,0.6,0.1c0.2,0,0.3,0,0.4,0c0.3,0,0.6-0.1,0.7-0.2C-5,302.2-4.9,302-4.9,301.7z
					 M-5.4,297.3c0.1-0.1,0.1-0.1,0.2-0.1c0,0,0.1,0,0.2,0s0.2,0,0.3,0.1c0.1,0.1,0.2,0.2,0.2,0.4c0,0.1-0.1,0.2-0.2,0.3l-0.9,0.9
					c-0.1,0.1-0.1,0.1-0.2,0.2c-0.1,0-0.2,0.1-0.3,0.1c-0.1,0-0.3,0-0.4-0.1s-0.1-0.2-0.1-0.4c0-0.1,0-0.2,0.1-0.3s0.2-0.2,0.3-0.3
					c0.1-0.1,0.2-0.2,0.3-0.3s0.2-0.2,0.3-0.3L-5.4,297.3z"/>
				<path class="st5" d="M2,305.1c0.1,0.1,0.1,0.2,0.1,0.3c0,0.2-0.1,0.3-0.2,0.4S1.6,306,1.4,306s-0.3,0-0.4-0.1s-0.2-0.2-0.3-0.3
					l-1.2-1.8l-1.3,1.8c-0.1,0.2-0.3,0.3-0.5,0.3s-0.3-0.1-0.5-0.2c-0.1-0.1-0.2-0.3-0.2-0.4s0-0.2,0.1-0.3l1.6-2.3l-1.5-2.1
					c-0.1-0.1-0.1-0.2-0.1-0.3c0-0.2,0.1-0.3,0.2-0.4s0.3-0.2,0.5-0.2s0.3,0.1,0.4,0.1c0.1,0.1,0.2,0.2,0.3,0.3l1.1,1.5l1.1-1.6
					c0.1-0.1,0.2-0.2,0.2-0.3c0.1-0.1,0.2-0.1,0.4-0.1c0.2,0,0.3,0.1,0.4,0.2s0.2,0.2,0.2,0.4c0,0,0,0.1,0,0.2s0,0.1-0.1,0.2
					l-1.5,2.1L2,305.1z"/>
				<path class="st5" d="M4.7,298.1c0,0.2-0.1,0.4-0.2,0.5s-0.3,0.2-0.5,0.2s-0.4-0.1-0.5-0.2s-0.2-0.3-0.2-0.5s0.1-0.4,0.2-0.5
					s0.3-0.2,0.5-0.2s0.4,0.1,0.5,0.2S4.7,297.9,4.7,298.1z M4.6,305.4c0,0.2-0.1,0.3-0.2,0.4S4.1,306,3.9,306s-0.3-0.1-0.5-0.2
					s-0.2-0.3-0.2-0.4v-5c0-0.2,0.1-0.3,0.2-0.4s0.3-0.2,0.5-0.2s0.3,0.1,0.5,0.2s0.2,0.3,0.2,0.4V305.4z"/>
				<path class="st5" d="M6.3,298.7c0-0.2,0.1-0.3,0.2-0.4s0.3-0.2,0.5-0.2s0.4,0.1,0.5,0.2s0.2,0.3,0.2,0.4v1.5h1.1
					c0.2,0,0.3,0.1,0.4,0.2s0.2,0.3,0.2,0.4c0,0.2-0.1,0.3-0.2,0.4s-0.3,0.2-0.4,0.2H7.7v2.1c0,0.3,0,0.5,0,0.7s0.1,0.3,0.1,0.4
					c0.1,0.1,0.1,0.2,0.2,0.2c0.1,0.1,0.2,0.1,0.4,0.1h0.1h0.1c0.3,0,0.5,0,0.6,0.1s0.2,0.2,0.2,0.4c0,0.1,0,0.2-0.1,0.3
					s-0.1,0.1-0.2,0.2c-0.1,0-0.2,0.1-0.3,0.1c-0.1,0-0.2,0-0.3,0c-0.4,0-0.8-0.1-1.1-0.2c-0.3-0.1-0.5-0.3-0.7-0.5
					s-0.3-0.5-0.3-0.8c-0.1-0.3-0.1-0.7-0.1-1.1L6.3,298.7L6.3,298.7z"/>
				<path class="st5" d="M12.6,306c-0.4,0-0.8-0.1-1-0.2c-0.3-0.1-0.6-0.3-0.8-0.5c-0.2-0.2-0.4-0.4-0.5-0.7
					c-0.1-0.3-0.2-0.6-0.2-0.9V302c0-0.3,0.1-0.6,0.2-0.9s0.3-0.5,0.5-0.7s0.5-0.3,0.8-0.5c0.3-0.1,0.6-0.2,1-0.2s0.7,0.1,1,0.2
					s0.6,0.3,0.8,0.5c0.2,0.2,0.4,0.4,0.5,0.7c0.1,0.3,0.2,0.6,0.2,0.9v1.9c0,0.3-0.1,0.6-0.2,0.9s-0.3,0.5-0.5,0.7
					s-0.5,0.4-0.8,0.5C13.3,306,13,306,12.6,306z M12.6,304.9c0.4,0,0.7-0.1,0.8-0.3c0.2-0.2,0.3-0.4,0.3-0.8V302
					c0-0.3-0.1-0.6-0.3-0.8c-0.2-0.2-0.5-0.3-0.8-0.3s-0.7,0.1-0.8,0.3c-0.2,0.2-0.3,0.4-0.3,0.8v1.9c0,0.3,0.1,0.6,0.3,0.8
					C11.9,304.8,12.2,304.9,12.6,304.9z"/>
				<path class="st5" d="M20.9,306c-0.1,0-0.2,0-0.3,0c-0.1,0-0.2-0.1-0.3-0.2s-0.2-0.2-0.2-0.4c-0.1-0.2-0.1-0.4-0.1-0.7v-6.9
					c0-0.2,0.1-0.3,0.2-0.4s0.3-0.2,0.5-0.2s0.3,0.1,0.5,0.2c0.1,0.1,0.2,0.3,0.2,0.4v6.8c0,0.1,0,0.2,0,0.3c0,0.1,0.1,0.1,0.1,0.2
					l0.1,0.1c0,0,0,0.1,0,0.2c0,0.2-0.1,0.3-0.2,0.4C21.3,306,21.1,306,20.9,306z"/>
				<path class="st5" d="M25.9,302c0-0.7-0.4-1.1-1.1-1.1c-0.2,0-0.3,0-0.4,0s-0.2,0.1-0.3,0.1l-0.2,0.1c-0.1,0-0.2,0.1-0.3,0.1
					c-0.2,0-0.3-0.1-0.4-0.2s-0.1-0.2-0.1-0.4c0-0.2,0.1-0.3,0.2-0.4s0.2-0.2,0.4-0.3c0.2-0.1,0.4-0.1,0.6-0.2c0.2,0,0.5,0,0.7,0
					c0.8,0,1.4,0.2,1.8,0.6s0.5,1,0.5,1.8v2.4c0,0.2,0,0.3,0.1,0.3s0.1,0.1,0.2,0.1c0.2,0,0.4,0.2,0.4,0.4c0,0.3-0.2,0.5-0.7,0.5
					c-0.4,0-0.7-0.2-1-0.5c-0.4,0.4-1,0.6-1.6,0.6c-0.7,0-1.2-0.2-1.5-0.5s-0.5-0.8-0.5-1.3l0,0c0-1.2,0.7-1.8,2.2-1.8
					c0.4,0,0.7,0,1.1,0.1V302L25.9,302L25.9,302z M24.9,303.3c-0.2,0-0.4,0-0.5,0.1s-0.2,0.1-0.3,0.2c-0.1,0.1-0.1,0.2-0.1,0.3
					c0,0.1,0,0.2,0,0.3l0,0c0,0.2,0.1,0.4,0.2,0.6c0.1,0.1,0.4,0.2,0.7,0.2c0.2,0,0.4,0,0.6-0.1s0.4-0.2,0.6-0.3v-1.1
					c-0.2,0-0.4-0.1-0.5-0.1C25.2,303.3,25,303.3,24.9,303.3z"/>
				<path class="st5" d="M29,297.9c0-0.2,0.1-0.3,0.2-0.4s0.3-0.2,0.5-0.2s0.4,0.1,0.5,0.2s0.2,0.3,0.2,0.4v2.3
					c0.2-0.1,0.4-0.2,0.7-0.3c0.2-0.1,0.5-0.1,0.8-0.1c0.4,0,0.7,0,0.9,0.1s0.5,0.2,0.6,0.4c0.2,0.2,0.3,0.4,0.4,0.6
					s0.1,0.5,0.1,0.8v2.1c0,0.3,0,0.6-0.2,0.9c-0.1,0.3-0.2,0.5-0.4,0.7c-0.2,0.2-0.4,0.4-0.7,0.5c-0.3,0.1-0.6,0.2-1,0.2
					s-0.7-0.1-1-0.2s-0.5-0.2-0.8-0.4c-0.2-0.2-0.4-0.4-0.5-0.6s-0.2-0.5-0.2-0.8v-6.2H29z M30.3,304.1c0,0.3,0.1,0.5,0.3,0.6
					c0.2,0.2,0.5,0.2,0.8,0.2c0.4,0,0.6-0.1,0.8-0.3c0.2-0.2,0.3-0.4,0.3-0.8v-2.2c0-0.3-0.1-0.5-0.2-0.6s-0.4-0.2-0.8-0.2
					c-0.5,0-0.9,0.2-1.2,0.5L30.3,304.1L30.3,304.1z"/>
				<path class="st5" d="M37.2,306c-0.4,0-0.8-0.1-1-0.2c-0.3-0.1-0.6-0.3-0.8-0.5c-0.2-0.2-0.4-0.4-0.5-0.7
					c-0.1-0.3-0.2-0.6-0.2-0.9V302c0-0.3,0.1-0.6,0.2-0.9s0.3-0.5,0.5-0.7s0.5-0.3,0.8-0.5c0.3-0.1,0.6-0.2,1-0.2s0.7,0.1,1,0.2
					s0.6,0.3,0.8,0.5c0.2,0.2,0.4,0.4,0.5,0.7c0.1,0.3,0.2,0.6,0.2,0.9v1.9c0,0.3-0.1,0.6-0.2,0.9s-0.3,0.5-0.5,0.7
					s-0.5,0.4-0.8,0.5C38,306,37.6,306,37.2,306z M37.2,304.9c0.4,0,0.7-0.1,0.8-0.3c0.2-0.2,0.3-0.4,0.3-0.8V302
					c0-0.3-0.1-0.6-0.3-0.8c-0.2-0.2-0.5-0.3-0.8-0.3s-0.7,0.1-0.8,0.3c-0.2,0.2-0.3,0.4-0.3,0.8v1.9c0,0.3,0.1,0.6,0.3,0.8
					C36.6,304.8,36.9,304.9,37.2,304.9z"/>
				<path class="st5" d="M43.7,301c-0.1,0-0.2,0-0.4,0c-0.1,0-0.2,0-0.3,0c-0.1,0-0.2,0-0.3,0.1c-0.1,0-0.2,0.1-0.4,0.2
					c0,0.1,0,0.1,0,0.1v0.1v3.8c0,0.2-0.1,0.3-0.2,0.4s-0.3,0.2-0.5,0.2s-0.3-0.1-0.5-0.2c-0.1-0.1-0.2-0.3-0.2-0.4v-3.8
					c0-0.2,0-0.3,0-0.4s-0.1-0.2-0.1-0.3l-0.1-0.1c0,0,0-0.1,0-0.2c0-0.2,0.1-0.3,0.2-0.4s0.3-0.2,0.4-0.2s0.2,0,0.3,0.1
					c0.1,0.1,0.2,0.1,0.2,0.3c0.3-0.2,0.5-0.3,0.8-0.4s0.5-0.1,0.7-0.1c0.3,0,0.5,0.1,0.6,0.2s0.2,0.3,0.2,0.4
					c0,0.2-0.1,0.3-0.2,0.5C44,301,43.8,301.1,43.7,301z"/>
				<path class="st5" d="M48.3,302c0-0.7-0.4-1.1-1.1-1.1c-0.2,0-0.3,0-0.4,0s-0.2,0.1-0.3,0.1l-0.2,0.1c-0.1,0-0.2,0.1-0.3,0.1
					c-0.2,0-0.3-0.1-0.4-0.2s-0.1-0.2-0.1-0.4c0-0.2,0.1-0.3,0.2-0.4s0.2-0.2,0.4-0.3c0.2-0.1,0.4-0.1,0.6-0.2c0.2,0,0.5,0,0.7,0
					c0.8,0,1.4,0.2,1.8,0.6s0.5,1,0.5,1.8v2.4c0,0.2,0,0.3,0.1,0.3s0.1,0.1,0.2,0.1c0.2,0,0.4,0.2,0.4,0.4c0,0.3-0.2,0.5-0.7,0.5
					c-0.4,0-0.7-0.2-1-0.5c-0.4,0.4-1,0.6-1.6,0.6c-0.7,0-1.2-0.2-1.5-0.5s-0.5-0.8-0.5-1.3l0,0c0-1.2,0.7-1.8,2.2-1.8
					c0.4,0,0.7,0,1.1,0.1V302L48.3,302L48.3,302z M47.2,303.3c-0.2,0-0.4,0-0.5,0.1s-0.2,0.1-0.3,0.2c-0.1,0.1-0.1,0.2-0.1,0.3
					c0,0.1,0,0.2,0,0.3l0,0c0,0.2,0.1,0.4,0.2,0.6c0.1,0.1,0.4,0.2,0.7,0.2c0.2,0,0.4,0,0.6-0.1s0.4-0.2,0.6-0.3v-1.1
					c-0.2,0-0.4-0.1-0.5-0.1C47.5,303.3,47.4,303.3,47.2,303.3z"/>
				<path class="st5" d="M52.3,306c-0.1,0-0.2,0-0.3,0s-0.2-0.1-0.3-0.2c-0.1-0.1-0.2-0.2-0.2-0.4c-0.1-0.2-0.1-0.4-0.1-0.7v-6.9
					c0-0.2,0.1-0.3,0.2-0.4s0.3-0.2,0.5-0.2s0.3,0.1,0.5,0.2c0.1,0.1,0.2,0.3,0.2,0.4v6.8c0,0.1,0,0.2,0,0.3c0,0.1,0.1,0.1,0.1,0.2
					l0.1,0.1c0,0,0,0.1,0,0.2c0,0.2-0.1,0.3-0.2,0.4C52.6,306,52.5,306,52.3,306z"/>
				<path class="st5" d="M55.7,305.3c0,0.2-0.1,0.4-0.2,0.6c-0.2,0.2-0.4,0.2-0.6,0.2s-0.4-0.1-0.6-0.2c-0.2-0.2-0.2-0.3-0.2-0.6
					c0-0.2,0.1-0.4,0.2-0.5c0.2-0.2,0.4-0.2,0.6-0.2s0.4,0.1,0.6,0.2C55.6,304.9,55.7,305.1,55.7,305.3z"/>
			</g>
		</g>
		<g id="Capa_1_2_">
			<g id="Capa_1_3_">
			</g>
			<g id="Capa_2_1_">
			</g>
		</g>
		<g>
			<path class="st8" d="M-36.6,438.7c-0.7-0.4-1.3-1-1.9-1.5c-0.1-0.2-0.2-0.4-0.4-0.5c-0.2-0.1-0.3-0.3-0.4-0.4
				c-0.1-0.1-0.1-0.2-0.2-0.3c-1.7-1.7-3.3-3.3-5.1-4.8c5.6-4.1,5.6-10.2,2.8-15.2c-0.4-1.9-1.5-3.7-3.4-5c-0.4-0.3-0.7-0.3-1-0.2
				c-4.3-3.6-10-5.1-14.6-1.8c-1,0.3-1.8,0.6-2.5,1c-1.5-1.4-2.9-2.9-4.5-4.2l-0.1-0.1c-0.3-0.2-0.5-0.4-0.8-0.6
				c-0.6-0.7-1.2-1.4-1.7-2.1c-0.7-1.1-2.1-0.7-2.6,0.1c-0.6,0.4-1,1.2-0.5,1.9c0.3,0.4,0.5,0.8,0.8,1.2c1,1.7,2.4,3,4,4.1
				c0,0.8,0.6,1.4,1.1,2c0.3,0.3,0.6,0.4,1,0.4c0.1,0.1,0.2,0.2,0.3,0.2c0,0.4,0.2,0.9,0.7,1.2c0,0,0,0,0.1,0.1
				c0.3,0.5,1,0.9,1.5,0.8c0.4,0.1,0.9,0.2,1.3,0.1c0.5,0,1-0.4,1.2-0.8c0.3,0,0.6-0.1,0.8-0.4c1.1-1.3,2.5-2.1,4-2.6
				c0.9,0,1.9,0,2.8,0.1c1.6,0.1,3.3,0.4,4.7,1.1c1.9,1.2,3.3,3.2,3.5,5.8c0.1,1,0.8,1.4,1.4,1.4c-0.3,2.9-1.5,6.1-2.4,8.6
				c-0.2-0.2-0.5-0.3-0.8-0.3c-0.6,0-1.1,0.3-1.4,0.6c-0.5,0.3-0.8,0.9-0.6,1.5c0,0.6,0.4,1.1,0.9,1.3c1.3,1.6,2.9,3,4.5,4.3
				c0,0.3,0.2,0.5,0.4,0.8c0.5,0.5,1.1,1,1.6,1.4c1.3,1.1,2.6,2.3,4.1,3.3C-36.5,442.2-35.1,439.7-36.6,438.7z"/>
			<path class="st8" d="M-0.5,392.7c-0.2-1.3-0.8-2.6-1.5-3.8c0-0.4-0.1-0.7-0.4-1s-0.6-0.6-0.9-0.9c-0.2-0.3-0.4-0.5-0.5-0.7
				c-2.2-3-4.6-5.8-7.2-8.5s-5.2-5.3-8.1-7.7c-1.9-1.6-4.1-3.5-6.6-4.1c-0.8-0.2-1.9,0.4-1.8,1.4c0.1,0.8,0.2,1.5,0.4,2.2
				c-0.6,0.7-0.5,2,0.6,2.4c0.1,0,0.3,0.1,0.4,0.2c1.6,3.1,4.4,5.6,7.1,7.8c0.9,1.2,1.8,2.5,2.6,3.7c2.8,3.9,6.4,8.6,11.3,9.8
				c0.9,0.5,1.8,0.9,2.7,1.2C-1.1,394.8-0.4,393.7-0.5,392.7z"/>
			<path class="st8" d="M-21,393.1c-1.4-1.2-3-2.5-3.6-4.3c-0.7-2.1-0.7-3.9-2.7-5.2c-1.6-1-3,1.5-1.4,2.5c1.4,0.9,1.1,3.3,1.9,4.7
				c0.7,1.4,1.9,2.6,3.1,3.7c1,0.9,2,1.6,2.8,2.5c0.7,0.8,1,1.8,1.1,2.9c-1.8-0.5-3.6-1.3-5.5-1.8c-1-0.3-1.7,0.5-1.8,1.4
				c-0.3,2.4-0.4,4.9-0.9,7.3c-0.2,0.7,0.2,1.7,1,1.8c1.4,0.2,3.5,0.6,2.8,2.4c-0.6,1.8,2.1,2.5,2.8,0.8c1.1-2.9-1.1-4.8-3.5-5.6
				c0.3-1.6,0.4-3.1,0.5-4.7c1.9,0.6,3.7,1.4,5.7,1.7c0.9,0.1,1.8-0.4,1.8-1.4C-16.9,397.9-18.3,395.4-21,393.1z"/>
			<path class="st8" d="M-59.1,396.9c0-0.8-0.6-1.4-1.4-1.4c-0.5,0-1.1,0.1-1.5,0.4c-0.4,0.3-0.8,0.7-1.1,1.2
				c-0.4,0.7-0.2,1.6,0.5,2c0.6,0.4,1.6,0.2,2-0.5c0-0.1,0.1-0.2,0.2-0.3C-59.8,398.2-59.1,397.6-59.1,396.9z"/>
			<path class="st8" d="M-54.8,389.6c-0.7-0.4-1.6-0.2-2,0.5c0,0-0.1,0.1-0.1,0.2l0,0l0,0l0,0c0,0,0,0-0.1,0H-57
				c-0.8,0-1.4,0.6-1.4,1.4s0.6,1.5,1.4,1.4c1.2,0,2.3-0.6,2.8-1.7C-54,390.9-54.1,390-54.8,389.6z"/>
			<path class="st8" d="M-48,383.8c-0.6-0.4-1.6-0.2-2,0.5c-0.1,0.1-0.1,0.2-0.2,0.3c0,0-0.2,0.3-0.3,0.3l0,0
				c-0.1,0.1-0.2,0.1-0.2,0.2c-0.1,0-0.1,0.1-0.2,0.1l0,0H-51c-0.7,0.3-1.2,1-1,1.8c0.2,0.7,1,1.3,1.8,1c1.1-0.4,2.2-1.1,2.8-2.3
				C-47.3,385.1-47.3,384.3-48,383.8z"/>
			<path class="st8" d="M-42,378.1c-0.7-0.4-1.5-0.1-2,0.5c-0.5,0.7-1.1,1.3-2,1.6c-1.8,0.5-1,3.3,0.8,2.8c1.6-0.4,2.8-1.5,3.7-2.9
				C-41,379.4-41.3,378.5-42,378.1z"/>
			<path class="st8" d="M-37,372c-0.4,0.4-0.9,0.8-1.4,1.1c-0.2,0.1-0.3,0.1-0.5,0.2H-39h-0.1c-1.8-0.5-2.5,2.3-0.8,2.8
				c1.9,0.5,3.6-0.7,4.9-2C-33.8,372.7-35.8,370.6-37,372z"/>
			<path class="st8" d="M-31.6,366.5c-0.3,0.3-0.6,0.5-1,0.7c-0.3,0.1-0.6,0.2-0.9,0.2c-1.8,0-1.8,2.9,0,2.9c1.5,0,2.8-0.6,3.9-1.7
				C-28.3,367.3-30.3,365.3-31.6,366.5z"/>
			<path class="st8" d="M-23.8,360.8c-0.5-0.5-1.5-0.5-2,0c-0.1,0.1-0.2,0.2-0.3,0.3c0,0-0.1,0-0.1,0.1c-0.4-0.2-0.9-0.1-1.2,0.1
				c-0.7,0.4-0.9,1.3-0.5,2c0.5,0.8,1.4,1.1,2.3,0.9c0.7-0.2,1.3-0.7,1.8-1.2C-23.3,362.3-23.3,361.3-23.8,360.8z"/>
			<path class="st8" d="M-19.5,356.9c-0.4-0.7-1.3-0.9-2-0.5h-0.1c-0.1,0-0.1,0-0.2,0.1c-0.1,0-0.2,0-0.2,0c-0.1,0-0.3,0-0.4,0
				c-0.8,0-1.4,0.6-1.4,1.4c0,0.8,0.6,1.4,1.4,1.4c0.4,0,0.8,0,1.1-0.1c0.4-0.1,0.8-0.3,1.2-0.4C-19.3,358.6-19.1,357.6-19.5,356.9z
				"/>
			<path class="st8" d="M-34.3,432.6c0-0.8-0.6-1.5-1.4-1.4c-1.1,0.1-2,0.9-2.1,2.1c0,0.8,0.7,1.4,1.4,1.4c0.6,0,1-0.3,1.3-0.8
				C-34.6,433.6-34.3,433.2-34.3,432.6z"/>
			<path class="st8" d="M-28,426.8c-0.2-0.7-1-1.3-1.8-1c-1.3,0.5-2.4,1.6-3.1,2.9c-0.4,0.7-0.2,1.6,0.5,2c0.6,0.4,1.6,0.2,2-0.5
				c0.1-0.2,0.2-0.4,0.3-0.5c0,0,0.1-0.1,0.1-0.2c0.1-0.1,0.1-0.2,0.2-0.2c0.2-0.2,0.3-0.3,0.5-0.5c0,0,0.2-0.1,0.2-0.2
				c0.1,0,0.4-0.2,0.1-0.1C-28.3,428.3-27.8,427.6-28,426.8z"/>
			<path class="st8" d="M-21.8,420.5c-1.5,0.8-2.6,1.9-3.8,3.1c-1.3,1.3,0.7,3.3,2,2c1-1,2-2,3.2-2.6
				C-18.8,422.1-20.1,419.6-21.8,420.5z"/>
			<path class="st8" d="M-15,416.2c-0.4-0.7-1.3-0.9-2-0.5c-0.4,0.2-0.8,0.6-1.2,0.9c-0.1,0.1-0.2,0.2-0.3,0.2l0,0
				c-0.6,0.2-1.2,0.7-1.1,1.4c0.1,1.1,0.8,1.6,1.8,1.4c0.3,0,0.5-0.2,0.8-0.4s0.6-0.5,0.9-0.7c0.1,0,0.1-0.1,0.2-0.1
				c0.1-0.1,0.2-0.2,0.4-0.2C-14.9,417.8-14.6,416.9-15,416.2z"/>
			<path class="st8" d="M-9.3,410.5c-0.4-0.6-1.3-1-2-0.5c-1.2,0.8-2.4,1.7-2.9,3.1c-0.3,0.7,0.3,1.6,1,1.8c0.8,0.2,1.5-0.3,1.8-1
				c-0.1,0.3,0.2-0.3,0.1-0.2c0.1-0.2,0.3-0.3,0.4-0.4s0.1-0.1,0.2-0.1c-0.1,0.1,0.2-0.2,0.2-0.2c0.2-0.2,0.4-0.3,0.6-0.4
				C-9.1,412-8.9,411.2-9.3,410.5z"/>
			<path class="st8" d="M-3.5,405.1c-0.4-0.6-1.3-1-2-0.5c-1.2,0.8-2.3,1.6-3.1,2.7c-0.4,0.6-0.1,1.6,0.5,2c0.7,0.4,1.5,0.1,2-0.5
				c0.5-0.7,1.3-1.2,2-1.7S-3.1,405.8-3.5,405.1z"/>
			<path class="st8" d="M1.8,397.5c-1.4,0.7-2.8,1.7-3.7,3.1c-0.4,0.6-0.1,1.6,0.5,2c0.7,0.4,1.5,0.1,2-0.5c0.6-0.9,1.7-1.5,2.7-2
				C4.9,399.2,3.5,396.7,1.8,397.5z"/>
			<path class="st8" d="M9,393.3c-0.2-0.7-1-1.3-1.8-1c-1.1,0.4-2.2,1.1-2.8,2.3c-0.4,0.7-0.2,1.6,0.5,2c0.6,0.4,1.6,0.2,2-0.5
				c0.1-0.1,0.1-0.2,0.2-0.3c0,0,0.2-0.3,0.3-0.3l0,0c0.1-0.1,0.2-0.1,0.2-0.2c0.1,0,0.1-0.1,0.2-0.1l0,0h0.1
				C8.8,394.8,9.2,394.1,9,393.3z"/>
			<path class="st8" d="M12.4,387.9c-0.4-0.7-1.3-0.9-2-0.5c-1.1,0.6-1.6,1.7-1.7,2.8c0,0.8,0.7,1.4,1.4,1.4c0.8,0,1.4-0.6,1.4-1.4
				c0,0,0,0,0-0.1V390l0,0c0,0,0,0,0-0.1l0,0l0,0l0.1-0.1C12.6,389.5,12.8,388.5,12.4,387.9z"/>
			<path class="st9" d="M-22.5,396.8c-1.4-0.8-2.9-1.5-4.5-1.9c-1.8-0.5-2.5,2.3-0.8,2.8c0.6,0.2,1.3,0.4,1.9,0.7
				c0.1,0.4,0.4,0.8,1,0.9c0.5,0.1,1,0.2,1.5,0.3c0.9,0.5,1.8,1,2.6,1.4c1,0.5,2.2-0.1,2.2-1.2C-18.6,398-20.8,397.2-22.5,396.8z"/>
			<path class="st10" d="M-18.8,398.4l-1.9-1.1v-0.9c0-0.6-0.5-1.1-1.1-1.1c-0.5,0-0.9,0.3-1.1,0.8l-1.7-0.9v-0.8
				c0-0.6-0.4-1.1-1.1-1.1c-0.5,0-0.9,0.3-1,0.7l-1.4-0.8c-0.1-2.1-0.3-4-0.6-5.6c-0.2-1.2-0.5-2.3-0.8-3c-0.2-0.4-0.6-1.5-1.5-1.5
				s-1.4,1.1-1.5,1.5c-0.3,0.7-0.5,1.7-0.8,3c-0.3,1.6-0.5,3.5-0.6,5.6l-1.5,0.8c-0.2-0.4-0.5-0.7-1-0.7c-0.6,0-1.1,0.5-1.1,1.1v0.8
				l-1.6,0.9c-0.1-0.4-0.6-0.8-1.1-0.8c-0.6,0-1.1,0.5-1.1,1.1v0.9l-1.9,1.1c-0.2,0.1-0.3,0.4-0.3,0.6v2.8c0,0.2,0.1,0.4,0.3,0.5
				s0.4,0.2,0.6,0.1l8.6-3c0,1.3,0.1,2.5,0.2,3.7l0.6,4.5l-4.5,2.5c-0.1,0.1-0.2,0.2-0.2,0.3v1.5c0,0.1,0,0.2,0.1,0.3s0.2,0.1,0.3,0
				l5.3-1.8c0.3,0.3,0.6,0.6,1,0.6s0.8-0.3,1-0.6l5.3,1.8h0.1c0.1,0,0.1,0,0.2-0.1s0.1-0.2,0.1-0.3v-1.6c0-0.1,0-0.3-0.1-0.3
				l-4.5-2.5c0.1-0.3,0.2-0.6,0.2-1c0.4-2,0.6-4.5,0.6-7.1l8.6,3c0.1,0,0.2,0,0.2,0c0.1,0,0.3,0,0.4-0.1c0.2-0.1,0.3-0.3,0.3-0.5
				V399C-18.5,398.8-18.6,398.5-18.8,398.4z"/>
			<path class="st11" d="M17.3,383.8l-8.4-8.4c-1-1-2.6-1.1-3.7-0.2c-3.8,3.1-9.3,2.8-12.8-0.7s-3.8-9-0.7-12.8
				c0.9-1.1,0.8-2.7-0.2-3.7l-8.4-8.4c-1.1-1.1-2.8-1.1-3.9,0l-52.9,52.9c-1.1,1.1-1.1,2.8,0,3.9l8.4,8.4l0,0c1.1,1.1,2.8,1.1,3.9,0
				c0.1-0.1,0.2-0.2,0.3-0.3c0.2-0.2,0.4-0.4,0.6-0.6c3.7-3.7,9.8-3.7,13.6,0c3.7,3.7,3.7,9.8,0,13.6c-0.2,0.2-0.5,0.5-0.8,0.7
				c-0.6,0.5-1,1.2-1,2s0.3,1.6,0.8,2.1l8.4,8.4c1.1,1.1,2.8,1.1,3.9,0l52.9-52.9C18.4,386.7,18.4,384.9,17.3,383.8L17.3,383.8z"/>
			<path class="st12" d="M-33.6,402.8c-0.1-1.2-0.2-2.4-0.2-3.7l-8.6,3c-0.2,0.1-0.4,0-0.6-0.1c-0.2-0.1-0.3-0.3-0.3-0.5v-2.8
				c0-0.3,0.1-0.5,0.4-0.6l1.9-1.1v-0.9c0-0.6,0.5-1.1,1.1-1.1c0.5,0,0.9,0.3,1,0.8l1.6-0.9V394c0-0.6,0.5-1.1,1.1-1.1
				c0.5,0,0.9,0.3,1,0.7l1.5-0.8c0.1-2.1,0.3-4,0.6-5.6c0.2-1.2,0.5-2.3,0.8-3c0.2-0.4,0.6-1.5,1.5-1.5s1.4,1.1,1.5,1.5
				c0.3,0.7,0.5,1.7,0.8,3c0.3,1.6,0.5,3.5,0.6,5.6l1.5,0.8c0.2-0.4,0.5-0.7,1-0.7c0.6,0,1.1,0.5,1.1,1.1v0.8l1.7,0.9
				c0.1-0.4,0.5-0.8,1-0.8c0.6,0,1.1,0.5,1.1,1.1v0.9l1.9,1.1c0.2,0.1,0.4,0.4,0.4,0.6v2.8c0,0.2-0.1,0.4-0.3,0.5
				c-0.1,0.1-0.3,0.1-0.4,0.1s-0.2,0-0.2,0l-8.6-3c-0.1,2.7-0.3,5.2-0.6,7.1c-0.1,0.4-0.1,0.7-0.2,1l4.5,2.5
				c0.1,0.1,0.2,0.2,0.2,0.3v1.5c0,0.1-0.1,0.2-0.2,0.3c-0.1,0-0.1,0.1-0.2,0.1h-0.1l-5.3-1.8c-0.3,0.3-0.6,0.6-1,0.6
				s-0.8-0.3-1-0.6l-5.3,1.8c-0.1,0-0.2,0-0.3,0c-0.1-0.1-0.2-0.2-0.2-0.3V410c0-0.1,0.1-0.3,0.2-0.3l4.5-2.5"/>
			<path class="st11" d="M-0.3,394c-1.1,1.1-3,1.1-4.1,0l-22.9-22.9c-1.1-1.1-1.1-3,0-4.1s3-1.1,4.1,0l22.9,22.9
				C0.9,391,0.9,392.9-0.3,394L-0.3,394z"/>
			<path d="M-0.3,394"/>
		</g>
	</g>
</g>
<g id="Capa_2">
</g>
</svg>
