<!-- Generator: Adobe Illustrator 19.1.0, SVG Export Plug-In  -->
<svg version="1.1"
	 xmlns="http://www.w3.org/2000/svg" xmlns:xlink="http://www.w3.org/1999/xlink" xmlns:a="http://ns.adobe.com/AdobeSVGViewerExtensions/3.0/"
	 x="0px" y="0px" width="148.9px" height="269.6px" viewBox="0 0 148.9 269.6" style="enable-background:new 0 0 148.9 269.6;"
	 xml:space="preserve">
<style type="text/css">
	.st0{fill:#FFFFFF;stroke:#214D6A;stroke-width:6.1592;stroke-linecap:round;stroke-miterlimit:10;}
	.st1{fill:#FDFDFD;stroke:#214D6A;stroke-width:6.1592;stroke-linecap:round;stroke-miterlimit:10;}
	.st2{fill:none;stroke:#214D6A;stroke-width:6.1592;stroke-linecap:round;stroke-miterlimit:10;}
	.st3{fill:#E0DFE6;}
	.st4{fill:#214D6A;}
</style>
<defs>
</defs>
<g>
	<path id="XMLID_12_" class="st0" d="M85.1,69.8c5.9,9.3,14.4,12.9,21.8,38.3c2.9,10,3.9,19.2,1.6,34.5
		c-0.8,5.4-12.8,15.5-26.1,18.3c-7,1.5-15.4,1.2-27.2,0.1c-4.2-0.4-21.4-3.2-23.2-15.7c-1.3-9.5-5.1-19.5-1.6-34.5
		c3-12.7,6.6-18.8,21.2-41.9c14.4-11.7,14.4-13.3,14.4-13.3S79.1,60.2,85.1,69.8z"/>
	<circle id="XMLID_11_" class="st1" cx="65.9" cy="35.1" r="31.9"/>
	<path id="XMLID_10_" class="st2" d="M88.5,266.6c0,0,0-102.5,0.3-107.7"/>
	<path id="XMLID_9_" class="st2" d="M53.8,266.6c0,0,0-96.3,2-105"/>
	<path id="XMLID_8_" class="st2" d="M41.1,83.9c4.5-1.5-37.9-5.3-38-15.4C2.8,49.9,18,36.6,31.3,19.9"/>
	<path id="XMLID_7_" class="st2" d="M94,77.1c-4,1.7,44.4,4.9,51.6-13.6c3.8-9.7-35.2-19.6-47.5-36.9"/>
	<path id="XMLID_6_" class="st2" d="M83.9,69.8c5.9,9.3,14.4,12.9,21.8,38.3c2.9,10,3.9,19.2,1.6,34.5c-0.8,5.4-12.8,15.5-26.1,18.3
		c-7,1.5-15.4,1.2-27.2,0.1c-4.2-0.4-21.4-3.2-23.2-15.7c-1.3-9.5-5.1-19.5-1.6-34.5c3-12.7,6.6-18.8,21.2-41.9
		c14.5-23,13.5-15.1,13.5-15.1S77.9,60.3,83.9,69.8z"/>
	<path id="XMLID_5_" class="st3" d="M38.7,91.2c2.2-5.2,5.4-9.9,7.5-15.1c1.1-2.7,2.7-6.8,5.8-7.8c0.6-0.5,1.2-0.9,1.9-1.1
		c-0.8-0.3-1.6-0.7-2.4-1.1c-0.9-0.4-1.8-0.9-2.7-1.5c5.1,1.1,10.3,2,14.8,4.9c-0.6-0.1-1.2-0.1-1.8-0.2c1.2,1.3,2,2.9,2.1,4.9
		c0.2,5.4-2.5,10.3-5.2,14.9c-4.5,7.7-7.7,14.2-8.4,23.1c-0.6,7.7,0.6,15.9,2.7,23.2c1.7,5.7,7.5,9.1,8.9,14.9
		c1.4,6-3.7,6.4-8.7,5.5c-1.2,0.4-2.5,0.2-3.2-0.8c-1.4-0.4-2.7-0.9-3.5-1.2c-10-4.2-13.7-12.3-14.8-22.2
		C30.1,117.8,33.2,104,38.7,91.2z"/>
	<path id="XMLID_4_" class="st3" d="M63.5,66.6c-3.1-0.9-6.1-1.7-9.1-2.8c0.2-0.1,0.3-0.2,0.5-0.2c-0.8-0.3-1.6-0.7-2.4-1.1
		C43.2,58,32.4,46.8,36.9,36.2c5-11.6,16.5,3.7,20.1,7.6c4,4.3,9.9,6.6,15.7,6.8c1.3-0.7,2.5-0.7,3.5-0.1
		c6.6-0.8,12.6-4.3,15.2-10.8c1.1-2.8,4.9-1.5,5.4,0.9c2.3-1.3,5.6,1.2,4.1,3.8c-0.6,1-1.3,2-2,3c-0.4,2.7-2.2,5-4.2,6.9
		c-0.6,0.6-1.4,0.8-2.1,0.8c0,0.6-0.3,1.1-0.8,1.6c-8.4,7.1-18.7,10.5-29,9C63.1,66,63.3,66.3,63.5,66.6z"/>
	<circle id="XMLID_3_" class="st2" cx="67.1" cy="35" r="31.9"/>
	<ellipse id="XMLID_2_" class="st4" cx="58.3" cy="33.3" rx="2.3" ry="3.7"/>
	<ellipse id="XMLID_1_" class="st4" cx="76.2" cy="33.3" rx="2.3" ry="3.7"/>
</g>
</svg>
