<?xml version="1.0" encoding="utf-8"?>
<!-- Generator: Adobe Illustrator 16.0.0, SVG Export Plug-In . SVG Version: 6.00 Build 0)  -->
<!DOCTYPE svg PUBLIC "-//W3C//DTD SVG 1.1//EN" "http://www.w3.org/Graphics/SVG/1.1/DTD/svg11.dtd">
<svg version="1.1" id="Capa_1" xmlns="http://www.w3.org/2000/svg" xmlns:xlink="http://www.w3.org/1999/xlink" x="0px" y="0px"
	 width="59px" height="58.25px" viewBox="0 0 59 58.25" enable-background="new 0 0 59 58.25" xml:space="preserve">
<circle fill="none" stroke="#1D4B66" stroke-width="2" stroke-linecap="round" stroke-miterlimit="10" cx="30.292" cy="29.661" r="26.051"/>
<path fill="#1B98C6" d="M22.061,23.384c-0.238,0-3.667-1.022-3.667-1.022s-2.165,2.466-3.308,4.931
	c-1.142,2.466-1.442,5.354-1.442,5.354l1.623,0.119l3.909,3.248c0,0,1.443-2.285,2.947-1.563c1.502,0.721,0.84,2.404,0.84,2.404
	s1.384-1.563,2.527-1.201c1.143,0.361,0.782,2.945,0.782,2.945s1.443-2.525,2.585-1.744c1.144,0.783,0.121,3.97,0.121,3.97
	s1.684-1.082,2.286-0.3c0.602,0.781-0.302,2.945-0.302,2.945s2.524,2.527,3.909,1.625c1.383-0.902,1.383-2.226,1.383-2.226
	s1.264,0.722,2.044,0c0.783-0.722,1.022-2.345,1.022-2.345s2.225,1.203,2.945-0.241c0.723-1.443,0.361-2.646,0.361-2.646
	s2.887-0.121,2.768-1.084c-0.121-0.961-0.422-1.262-0.422-1.262s-13.41-10.944-16.055-10.042c-2.646,0.902-4.09,3.007-5.472,3.067
	c-1.385,0.06-3.549-1.142-3.247-2.104C20.499,25.248,22.061,23.384,22.061,23.384z"/>
<path fill="#1B98C6" d="M26.271,21.279l-4.991,4.33c0,0-0.361,2.225,1.803,1.744c2.165-0.48,3.609-2.285,4.931-2.646
	c1.323-0.36,3.368,0.241,4.089,0.542c0.722,0.301,12.147,8.179,12.147,8.179s0.66-1.143,1.683-1.324
	c1.021-0.181,2.104-0.42,2.104-0.42s0.481-2.465-1.022-5.292s-3.548-3.608-3.548-3.608s-1.685,1.684-3.428,1.262
	c-1.744-0.42-6.192-3.066-7.698-3.007C30.841,21.099,26.271,21.279,26.271,21.279z"/>
<ellipse transform="matrix(0.4531 -0.8915 0.8915 0.4531 -21.6914 39.0752)" fill="#1B98C6" cx="21.001" cy="37.216" rx="1.955" ry="1.323"/>
<ellipse transform="matrix(0.453 -0.8915 0.8915 0.453 -21.8959 49.6896)" fill="#1B98C6" cx="29.545" cy="42.688" rx="1.954" ry="1.188"/>
<ellipse transform="matrix(0.4531 -0.8915 0.8915 0.4531 -21.5158 42.6701)" fill="#1B98C6" cx="24.018" cy="38.87" rx="2.729" ry="1.323"/>
<ellipse transform="matrix(0.4533 -0.8914 0.8914 0.4533 -21.28 46.2234)" fill="#1B98C6" cx="27.041" cy="40.459" rx="2.958" ry="1.322"/>
<path fill="#E41E5D" d="M13.163,18.453l0.208,0.118l4.061,2.288c0,0-2.886,3.729-3.848,5.893c-0.963,2.165-1.504,6.555-1.504,6.555
	l-4.872-1.744c0,0-0.842-4.27,1.084-7.578c1.923-3.307,4.689-5.471,4.689-5.471"/>
<path fill="#E41E5D" d="M44.313,21.099c0,0,3.006,1.623,4.028,4.871c1.022,3.247,0.962,7.697,0.962,7.697l4.991-2.586
	c0,0,0.179-4.57-1.862-8.298c-2.045-3.729-3.851-4.51-3.851-4.51L44.313,21.099z"/>
</svg>
