<?xml version="1.0" encoding="utf-8"?>
<!-- Generator: Adobe Illustrator 16.0.0, SVG Export Plug-In . SVG Version: 6.00 Build 0)  -->
<!DOCTYPE svg PUBLIC "-//W3C//DTD SVG 1.1//EN" "http://www.w3.org/Graphics/SVG/1.1/DTD/svg11.dtd">
<svg version="1.1" id="Capa_1" xmlns="http://www.w3.org/2000/svg" xmlns:xlink="http://www.w3.org/1999/xlink" x="0px" y="0px"
	 width="59px" height="58.25px" viewBox="0 0 59 58.25" enable-background="new 0 0 59 58.25" xml:space="preserve">
<circle fill="none" stroke="#1D4B66" stroke-width="2" stroke-linecap="round" stroke-miterlimit="10" cx="30.292" cy="29.661" r="26.051"/>
<g>
	<g>
		<path fill-rule="evenodd" clip-rule="evenodd" fill="#1B98C6" d="M22.061,23.384c-0.238,0-3.667-1.022-3.667-1.022
			s-2.165,2.466-3.308,4.931c-1.142,2.466-1.442,5.353-1.442,5.353l1.623,0.12l3.909,3.248c0,0,1.443-2.286,2.947-1.563
			c1.502,0.721,0.84,2.405,0.84,2.405s1.384-1.563,2.527-1.202c1.143,0.361,0.782,2.946,0.782,2.946s1.443-2.526,2.585-1.744
			c1.144,0.782,0.121,3.969,0.121,3.969s1.684-1.082,2.285-0.3c0.602,0.782-0.301,2.946-0.301,2.946s2.525,2.527,3.909,1.624
			c1.383-0.901,1.383-2.225,1.383-2.225s1.263,0.722,2.044,0c0.783-0.722,1.022-2.345,1.022-2.345s2.225,1.203,2.946-0.241
			c0.722-1.443,0.361-2.646,0.361-2.646s2.886-0.12,2.767-1.083c-0.121-0.961-0.421-1.262-0.421-1.262s-13.41-10.944-16.055-10.042
			c-2.646,0.902-4.09,3.007-5.472,3.067c-1.385,0.06-3.549-1.142-3.247-2.104C20.499,25.248,22.061,23.384,22.061,23.384z"/>
		<path fill-rule="evenodd" clip-rule="evenodd" fill="#1B98C6" d="M26.271,21.279l-4.991,4.33c0,0-0.361,2.225,1.803,1.744
			c2.165-0.48,3.609-2.285,4.931-2.646c1.323-0.36,3.368,0.241,4.09,0.542c0.721,0.301,12.147,8.178,12.147,8.178
			s0.66-1.142,1.682-1.323s2.105-0.42,2.105-0.42s0.481-2.466-1.022-5.292c-1.504-2.826-3.548-3.608-3.548-3.608
			s-1.685,1.684-3.428,1.262c-1.744-0.42-6.193-3.066-7.698-3.007C30.841,21.099,26.271,21.279,26.271,21.279z"/>
		
			<ellipse transform="matrix(0.8915 0.453 -0.453 0.8915 19.136 -5.4766)" fill-rule="evenodd" clip-rule="evenodd" fill="#1B98C6" cx="21.003" cy="37.217" rx="1.323" ry="1.955"/>
		
			<ellipse transform="matrix(0.8915 0.453 -0.453 0.8915 22.5453 -8.7519)" fill-rule="evenodd" clip-rule="evenodd" fill="#1B98C6" cx="29.543" cy="42.689" rx="1.188" ry="1.954"/>
		
			<ellipse transform="matrix(0.8915 0.453 -0.453 0.8915 20.2119 -6.6637)" fill-rule="evenodd" clip-rule="evenodd" fill="#1B98C6" cx="24.02" cy="38.87" rx="1.323" ry="2.729"/>
		
			<ellipse transform="matrix(0.8914 0.4533 -0.4533 0.8914 21.2748 -7.8628)" fill-rule="evenodd" clip-rule="evenodd" fill="#1B98C6" cx="27.042" cy="40.457" rx="1.322" ry="2.958"/>
		<path fill-rule="evenodd" clip-rule="evenodd" fill="#1D4B66" d="M13.163,18.453l0.208,0.118l4.061,2.288
			c0,0-2.886,3.729-3.848,5.893c-0.963,2.165-1.504,6.555-1.504,6.555l-4.872-1.744c0,0-0.842-4.27,1.084-7.578
			c1.923-3.307,4.689-5.471,4.689-5.471"/>
		<path fill-rule="evenodd" clip-rule="evenodd" fill="#1D4B66" d="M44.312,21.099c0,0,3.007,1.623,4.029,4.871
			c1.022,3.247,0.962,7.697,0.962,7.697l4.991-2.586c0,0,0.179-4.57-1.863-8.298c-2.045-3.729-3.85-4.51-3.85-4.51L44.312,21.099z"
			/>
	</g>
</g>
</svg>
