<!-- Generator: Adobe Illustrator 19.0.0, SVG Export Plug-In  -->
<svg version="1.1"
	 xmlns="http://www.w3.org/2000/svg" xmlns:xlink="http://www.w3.org/1999/xlink" xmlns:a="http://ns.adobe.com/AdobeSVGViewerExtensions/3.0/"
	 x="0px" y="0px" width="64.3px" height="59.1px" viewBox="0 0 64.3 59.1" style="enable-background:new 0 0 64.3 59.1;"
	 xml:space="preserve">
<style type="text/css">
	.st0{fill:#D7D3E8;}
	.st1{fill-rule:evenodd;clip-rule:evenodd;fill:#BF315B;stroke:#1C4A65;stroke-width:1.2428;stroke-miterlimit:10;}
	.st2{fill:#F7EB45;}
	.st3{fill:#A1BC31;}
	.st4{fill:#F7F7F8;}
</style>
<defs>
</defs>
<g>
	<g>
		<g>
			<ellipse transform="matrix(0.9824 -0.1869 0.1869 0.9824 -5.0913 6.541)" class="st0" cx="32.2" cy="30.3" rx="32.5" ry="20.3"/>
		</g>
		<path class="st1" d="M45,53.3c-0.3,1.4-0.6,2.7-0.9,4.1c-0.1,0.5-0.1,1.2-0.8,1.2c-0.6-0.1-1.2-0.3-1.7-0.6
			c-0.6-0.5,0.1-0.9,0.3-1.4c0.4-0.9,1.8-1.8,1.1-2.5c-0.8-0.9-2-1.6-3.7-1.4c-1.2,0.1-2.4-0.1-3.7,0.4c-2.5,0.9-3-1.5-4.3-2.8
			c-2.1-2-3.7-4.7-6.9-5.6c-1.7-0.4-3.3-0.9-5-1.2c-2.4-0.5-4.9-1.9-6.8-3.9c-0.5-0.5,0.8-3.4,1.6-3.6c2-0.5,2.7-2.2,3.7-3.7
			c0.8-1.2-0.2-2.6-0.2-3.8c-0.1-2.9,0.9-6.1-1.3-8.7c-0.4-0.5-0.4-0.9,0.2-1.3c0.8-0.5,1.3-1.3,1.7-2.2c0.1-0.4,0.2-0.7,0.5-0.9
			c1.7-1.3,2.5-3.6,4.9-3.9c0.9-0.7,0.4-1.5,0.3-2.3c0.2-2.7,1.1-3.3,3.8-2.9c1,0.1,0.9-0.9,0.9-1.6C29.8,3.6,31.4,5,32.5,4
			c1.6-0.7,3.1-1.5,4.3-2.7c0.5-0.5,0.9-0.9,1.5-0.5c0.4,0.3,0.9,0.7,0.9,1c0,0.6-0.8,0.7-1.2,0.9c-2.4,1.5-4.4,3.4-5,6.3
			c-0.2,1-0.7,1.9-1.2,2.8c2.4,0.6,2.3,2.7,3,4.4c-0.8,0.7-0.6,1.5-0.1,2.3c1.7,1.9,3.8,1.7,6,1.4c1.6-0.2,2.9,0.4,3.7,1.8
			c0.7,1.3,1.7,1.4,3,0.9c0.8-0.2,1.6-0.4,2.3,0.1c0.3,0.4,0.6,0.5,0.9,0.1c0.5-0.6,1-0.8,1.6-0.2c0.5,0.6,0,1-0.2,1.4
			c-0.9,1.5-0.8,3.1-0.9,4.7c-0.5,0.8,0.2,1.3,0.5,1.8c0.7,1,2.2,1.8,0.2,3.1c-1.1,0.7,0.4,1.5,0.7,1.7c1.3,0.9,1.5,1.2-0.2,1.8
			c-1,0.4-1.9,1-3,1c-1.7-0.4-3.5-0.7-5.2,0.1c0,0.1,0,0.2-0.1,0.3c-1,2,0.6,2.1,1.8,2.4c1,2-1.5,0.3-1.4,1.3
			c-0.1,0.3-0.4,0.3-0.6,0.5c-0.1,0.1-0.3,0.2-0.4,0.3c-0.2,0.4-0.2,0.9-0.1,1.3c0.1,0.2,0.1,0.3,0.2,0.5c0,0.1,0.1,0.2,0.1,0.3
			c2.2,1.8,2,4.2,1.5,6.6C45.3,52.4,45.5,52.9,45,53.3z"/>
	</g>
	<circle class="st2" cx="24.1" cy="20.8" r="3.2"/>
	<circle class="st3" cx="32.7" cy="31.5" r="3.2"/>
	<g>
		<path class="st4" d="M37.2,31.6c0.1,0,0.3,0,0.6,0c0.3,0,0.5,0.1,0.7,0.2c0.1,0.1,0.2,0.2,0.2,0.4c0,0.2-0.2,0.4-0.4,0.5v0
			c0.2,0.1,0.5,0.2,0.5,0.6c0,0.2-0.1,0.4-0.2,0.5c-0.2,0.2-0.4,0.2-0.8,0.2c-0.2,0-0.4,0-0.5,0V31.6z M37.5,32.5h0.3
			c0.3,0,0.5-0.2,0.5-0.4c0-0.3-0.2-0.4-0.5-0.4c-0.1,0-0.2,0-0.3,0V32.5z M37.5,33.7c0.1,0,0.1,0,0.3,0c0.3,0,0.6-0.1,0.6-0.5
			c0-0.3-0.3-0.5-0.6-0.5h-0.3V33.7z"/>
		<path class="st4" d="M40.7,33c0,0.6-0.4,0.9-0.9,0.9c-0.5,0-0.8-0.3-0.8-0.9c0-0.6,0.4-0.9,0.8-0.9C40.4,32.2,40.7,32.5,40.7,33z
			 M39.3,33.1c0,0.4,0.2,0.7,0.5,0.7c0.3,0,0.5-0.3,0.5-0.7c0-0.3-0.1-0.7-0.5-0.7S39.3,32.7,39.3,33.1z"/>
		<path class="st4" d="M42.6,32.2c0,0.1,0,0.3,0,0.5v1c0,0.4-0.1,0.6-0.2,0.8c-0.2,0.2-0.4,0.2-0.6,0.2c-0.2,0-0.4,0-0.6-0.1
			l0.1-0.2c0.1,0.1,0.3,0.1,0.5,0.1c0.3,0,0.6-0.2,0.6-0.6v-0.2h0c-0.1,0.2-0.3,0.3-0.5,0.3c-0.4,0-0.7-0.4-0.7-0.8
			c0-0.6,0.4-0.9,0.8-0.9c0.3,0,0.5,0.2,0.5,0.3h0l0-0.3H42.6z M42.3,32.9c0-0.1,0-0.1,0-0.1c-0.1-0.2-0.2-0.3-0.4-0.3
			c-0.3,0-0.5,0.3-0.5,0.6c0,0.3,0.2,0.6,0.5,0.6c0.2,0,0.4-0.1,0.4-0.3c0-0.1,0-0.1,0-0.2V32.9z"/>
		<path class="st4" d="M44.6,33c0,0.6-0.4,0.9-0.9,0.9c-0.5,0-0.8-0.3-0.8-0.9c0-0.6,0.4-0.9,0.8-0.9C44.3,32.2,44.6,32.5,44.6,33z
			 M43.3,33.1c0,0.4,0.2,0.7,0.5,0.7c0.3,0,0.5-0.3,0.5-0.7c0-0.3-0.1-0.7-0.5-0.7S43.3,32.7,43.3,33.1z"/>
		<path class="st4" d="M45.4,31.7v0.5h0.4v0.2h-0.4v0.9c0,0.2,0.1,0.3,0.2,0.3c0.1,0,0.1,0,0.2,0l0,0.2c-0.1,0-0.2,0-0.3,0
			c-0.1,0-0.3,0-0.3-0.1c-0.1-0.1-0.1-0.2-0.1-0.4v-0.9h-0.3v-0.2h0.3v-0.4L45.4,31.7z"/>
		<path class="st4" d="M47.1,33.9l0-0.2h0c-0.1,0.1-0.3,0.3-0.5,0.3c-0.3,0-0.5-0.2-0.5-0.5c0-0.4,0.4-0.6,1-0.6v0
			c0-0.1,0-0.4-0.4-0.4c-0.2,0-0.3,0-0.4,0.1l-0.1-0.2c0.1-0.1,0.3-0.2,0.6-0.2c0.5,0,0.7,0.4,0.7,0.7v0.6c0,0.1,0,0.3,0,0.4H47.1z
			 M47.1,33c-0.3,0-0.7,0.1-0.7,0.4c0,0.2,0.1,0.3,0.3,0.3c0.2,0,0.4-0.1,0.4-0.3c0,0,0-0.1,0-0.1V33z M47.3,31.5L46.8,32h-0.2
			l0.3-0.5H47.3z"/>
	</g>
	<g>
		<path class="st4" d="M22.2,15.7c0-0.3,0-0.7,0-1h0c-0.1,0.3-0.2,0.6-0.3,0.9l-0.4,1.2h-0.2l-0.4-1.1c-0.1-0.3-0.2-0.6-0.3-0.9h0
			c0,0.3,0,0.7,0,1.1l-0.1,1h-0.3l0.2-2.4h0.4l0.4,1.2c0.1,0.3,0.2,0.6,0.2,0.8h0c0.1-0.2,0.1-0.5,0.3-0.8l0.4-1.2h0.4l0.1,2.4h-0.3
			L22.2,15.7z"/>
		<path class="st4" d="M23.2,15.9c0,0.4,0.3,0.6,0.6,0.6c0.2,0,0.4,0,0.5-0.1l0.1,0.2c-0.1,0-0.3,0.1-0.6,0.1
			c-0.5,0-0.8-0.3-0.8-0.9c0-0.5,0.3-0.9,0.8-0.9c0.6,0,0.7,0.5,0.7,0.8c0,0.1,0,0.1,0,0.1H23.2z M24.1,15.7c0-0.2-0.1-0.5-0.4-0.5
			c-0.3,0-0.5,0.3-0.5,0.5H24.1z"/>
		<path class="st4" d="M26.3,14.2v2.1c0,0.2,0,0.3,0,0.4H26l0-0.3h0c-0.1,0.2-0.3,0.3-0.6,0.3c-0.4,0-0.7-0.4-0.7-0.9
			c0-0.6,0.4-0.9,0.8-0.9c0.3,0,0.4,0.1,0.5,0.3h0v-1H26.3z M26,15.7c0,0,0-0.1,0-0.1c0-0.2-0.2-0.4-0.4-0.4c-0.3,0-0.5,0.3-0.5,0.7
			c0,0.3,0.2,0.6,0.5,0.6c0.2,0,0.4-0.1,0.5-0.4c0,0,0-0.1,0-0.1V15.7z"/>
		<path class="st4" d="M27,15.9c0,0.4,0.3,0.6,0.6,0.6c0.2,0,0.4,0,0.5-0.1l0.1,0.2c-0.1,0-0.3,0.1-0.6,0.1c-0.5,0-0.8-0.3-0.8-0.9
			c0-0.5,0.3-0.9,0.8-0.9c0.6,0,0.7,0.5,0.7,0.8c0,0.1,0,0.1,0,0.1H27z M27.9,15.7c0-0.2-0.1-0.5-0.4-0.5c-0.3,0-0.5,0.3-0.5,0.5
			H27.9z"/>
		<path class="st4" d="M28.6,14.2h0.3v2.5h-0.3V14.2z"/>
		<path class="st4" d="M29.4,14.2h0.3v2.5h-0.3V14.2z"/>
		<path class="st4" d="M30.6,14.5c0,0.1-0.1,0.2-0.2,0.2c-0.1,0-0.2-0.1-0.2-0.2c0-0.1,0.1-0.2,0.2-0.2
			C30.5,14.3,30.6,14.4,30.6,14.5z M30.2,16.7V15h0.3v1.7H30.2z"/>
		<path class="st4" d="M31.1,15.5c0-0.2,0-0.3,0-0.5h0.3l0,0.3h0c0.1-0.2,0.3-0.3,0.6-0.3c0.2,0,0.6,0.1,0.6,0.7v1h-0.3v-1
			c0-0.3-0.1-0.5-0.4-0.5c-0.2,0-0.4,0.1-0.4,0.3c0,0,0,0.1,0,0.1v1h-0.3V15.5z"/>
	</g>
</g>
</svg>
