<?xml version="1.0" encoding="utf-8"?>
<!-- Generator: Adobe Illustrator 19.0.0, SVG Export Plug-In . SVG Version: 6.00 Build 0)  -->
<svg version="1.1" xmlns="http://www.w3.org/2000/svg" xmlns:xlink="http://www.w3.org/1999/xlink" x="0px" y="0px"
	 viewBox="0 0 1024 198" style="enable-background:new 0 0 1024 198;" xml:space="preserve">
<style type="text/css">
	.st0{fill:none;}
	.st1{fill:#C9C9C9;}
	.st2{fill:none;stroke:#0D004C;stroke-width:4;stroke-miterlimit:10;}
	.st3{clip-path:url(#XMLID_119_);fill:#FFFFFF;}
	.st4{clip-path:url(#XMLID_119_);}
	.st5{opacity:0.4;fill:url(#XMLID_120_);enable-background:new    ;}
	.st6{fill:#FFFFFF;}
</style>
<pattern  y="-46.6" width="35.5" height="19.5" patternUnits="userSpaceOnUse" id="XMLID_117_" viewBox="0 -19.6 35.5 19.5" style="overflow:visible;">
	<g>
		<polygon class="st0" points="0,-0.1 35.5,-0.1 35.5,-19.6 0,-19.6 		"/>
		<g id="XMLID_21_">
			<polygon id="XMLID_31_" class="st0" points="0,-19.6 35.5,-19.6 35.5,-0.1 0,-0.1 			"/>
			<path id="XMLID_30_" class="st1" d="M31.8-6.8c-1.2,4.2-6.7,8.1-11,6.3c-3.9-1.6-6.1-6.2-8-9.6c-2.1-3.9-4.6-8.2-9.5-8.8
				c-3.9-0.5-2.5,4.6-1.5,6.5c2,3.8,6,6.3,10.3,5.5c0.4-0.1,0.5,0.5,0.2,0.6c-3.9,0.7-7.5-1-9.9-4.1c-1.6-2-3.4-5.7-1.8-8.1
				c1.9-2.8,6.9,0.3,8.6,1.8c1.4,1.3,2.4,3.1,3.3,4.7c1.2,2.1,2.3,4.2,3.6,6.1c1.2,1.8,2.6,3.5,4.5,4.5c2.3,1.2,4.7,0.4,6.7-0.9
				c3.1-2,4.8-5.4,4.1-9.1c-0.5-2.6-2.6-5.5-5.5-5.2c-0.4,0-0.4-0.6,0-0.6C31.1-17.6,33-10.7,31.8-6.8z"/>
			<path id="XMLID_22_" class="st1" d="M35.4-10.7c-1.3,3.9-1.2,8-4.9,10.6c-0.3,0.2-0.6-0.3-0.3-0.5c3.6-2.5,3.4-6.5,4.7-10.2
				C35-11.3,35.6-11.1,35.4-10.7z"/>
		</g>
	</g>
</pattern>
<g id="Capa_1">
	<polyline id="XMLID_3_" class="st2" points="-45.3,154.5 508.2,192 1069.3,153 	"/>
</g>
<g id="Capa_2">
	<g id="XMLID_41_">
		<defs>
			<polygon id="XMLID_40_" points="-12.9,154.9 512,192 1038,155.4 1038,82.4 -14,82.5 			"/>
		</defs>
		<clipPath id="XMLID_119_">
			<use xlink:href="#XMLID_40_"  style="overflow:visible;"/>
		</clipPath>
		<rect id="XMLID_89_" x="-38" y="97.4" class="st3" width="1076" height="110"/>
		<g id="XMLID_36_" class="st4">
			<pattern  id="XMLID_120_" xlink:href="#XMLID_117_" patternTransform="matrix(1.0898 0 0 -1.0898 1445.9771 -16617.5313)">
			</pattern>
			<rect id="XMLID_37_" x="1.5" y="75.2" class="st5" width="1021.1" height="616.4"/>
		</g>
	</g>
	<rect id="XMLID_103_" x="-21.9" y="-10.5" class="st6" width="1066.4" height="129"/>
</g>
</svg>
