<?xml version="1.0" encoding="utf-8"?>
<!-- Generator: Adobe Illustrator 19.0.0, SVG Export Plug-In . SVG Version: 6.00 Build 0)  -->
<svg version="1.1" id="Capa_1" xmlns="http://www.w3.org/2000/svg" xmlns:xlink="http://www.w3.org/1999/xlink" x="0px" y="0px"
	 viewBox="563.1 228.9 481.5 537" style="enable-background:new 563.1 228.9 481.5 537;" xml:space="preserve">
<style type="text/css">
	.st0{fill:#1F4D69;}
	.st1{fill:#FFFFFF;}
	.st2{fill:#D2D9DB;}
</style>
<g id="Layer_2">
</g>
<path class="st0" d="M597.3,696.3c-0.4,1.6-0.9,3.1-1.3,4.7C596.4,699.4,596.8,697.9,597.3,696.3z"/>
<path class="st0" d="M838.3,422.3c-0.4-0.9-0.9-1.8-1.3-2.7c-4.4-10.7-8.7-21.5-13.3-32.1c-3.7-8.7-7.5-17.2-11.1-25.9
	c-6.4-15.8-12.6-31.8-18.9-47.8c-5.6-14.2-11.4-28.3-17.2-42.5c-2.2-5.6-5.2-10.9-9.5-15.4c-2.1-2.1-4.1-4.6-7.4-4.6
	c-5.9-0.1-10.9,1.6-14.2,7.1c-1.9,3.3-3.8,6.7-5.3,10.2c-2.8,6.8-5.5,13.6-8.1,20.6c-7.1,18.1-14.2,36.1-21.5,54.3
	c-0.1,0.3-0.1,0.6-0.3,1c-3.4,10.1-6.4,20.1-10.4,29.9c-6.8,16.4-104.5,301.1-109.9,318.1c-1.5,4.9-3.6,9.8-1.8,16
	c1.3,0.6,2.8,1.2,4.1,1.9c1.3-3,2.4-5.9,3.3-9c0.7-6.8,2.4-12.9,4.4-18.8c3.7-10.4,99.4-288.7,103.1-299c3.6-9.9,7-20,10.4-29.9
	c0.4-1.3,1.2-2.5,1.8-4c8.1,2.8,12.6-1.8,16.6-7.5c1.5-2.1,2.7-4.1,4.3-6.8c-0.1,4.9-0.3,9.2-0.4,13.5c0,1.6,0,3.3,0.4,4.7
	c1.3,5.8,6.7,8.7,12.4,6.7c4.1-1.5,7-4.3,8.6-8.3c1.5-3.6,2.4-7.4,3.7-11.5c6.5,7.4,12.6,6.2,18.3-3.6c0.6,1,1.2,1.9,1.6,2.8
	c0.6,1.3,1.2,2.7,1.8,3.8c2.8,5.6,6.8,8,12.9,7.5c1.8-0.1,3.4-0.4,5.3-0.7c1.5,3.6,3.1,7.1,4.6,10.8c7.2,17.6,14.5,35.4,21.7,53
	c1.2,2.8,2.1,5.6,3,8.4c1,3.3,111.9,271.2,109.2,273.1c-0.6,0.4-1.2,0.7-1.9,1.2c-0.1-0.1-0.1-0.1-0.3-0.3c1.6,1.6,3.3,3.3,4.7,5
	c2.4-0.4,4.4-1,5.6-1.9C951.6,696.7,840.5,426.4,838.3,422.3z"/>
<path class="st1" d="M1653.6,681.9c-0.2-0.2-0.4-0.4-0.6-0.6C1653.2,681.5,1653.4,681.7,1653.6,681.9z"/>
<path class="st1" d="M607.9,707.7L607.9,707.7c0.9-2.5,1.6-5.2,2.2-7.8C609.4,702.5,608.7,705,607.9,707.7z"/>
<path class="st1" d="M595.8,701.5c0-0.1,0-0.3,0.1-0.4C596,701.2,596,701.2,595.8,701.5C595.8,701.3,595.8,701.5,595.8,701.5z"/>
<path class="st1" d="M939.6,695.7c2.7-1.9-108.3-270-109.2-273.1c-0.9-2.8-1.8-5.8-3-8.4c-7.2-17.6-14.5-35.4-21.7-53
	c-1.5-3.7-3.1-7.2-4.6-10.8c-1.9,0.3-3.6,0.6-5.3,0.7c-6.1,0.4-10.2-1.9-12.9-7.5c-0.6-1.3-1.2-2.7-1.8-3.8c-0.4-0.9-1-1.8-1.6-2.8
	c-5.8,9.8-11.7,10.9-18.3,3.6c-1.3,4-2.2,7.8-3.7,11.5c-1.6,4-4.4,6.8-8.6,8.3c-5.8,1.9-11.1-0.9-12.4-6.7c-0.3-1.5-0.4-3.1-0.4-4.7
	c0-4.3,0.3-8.6,0.4-13.5c-1.6,2.5-2.8,4.7-4.3,6.8c-4,5.8-8.4,10.5-16.6,7.5c-0.7,1.5-1.3,2.7-1.8,4c-3.6,9.9-6.8,20-10.4,29.9
	c-3.7,10.4-99.4,288.7-103.1,299c-2.1,5.9-3.7,12-4.4,18.8c0-0.1,0-0.3,0.1-0.3c0.4-1.6,0.9-3.1,1.3-4.7c2.1-8.3,14.9-4.7,12.9,3.6
	c-0.7,2.7-1.5,5.2-2.2,7.8c0.4,0.1,0.9,0.3,1.5,0.4c5.8,1.6,11.7,2.5,17.6,3.6c4.4,0.7,9,1.6,13.6,1.8c10.4,0.4,20.7,1.3,31.1,0.3
	c6.5-0.6,170.1-6.4,176.8-7.2c6.1-0.9,45.7-3.7,51.8-4.6c5.6-0.9,14.9-0.9,23.5-1.9c0-0.1,0-0.1,0-0.3v-0.1c0-0.3,0-0.6,0-0.9v-0.1
	c0-0.3,0.1-0.7,0.1-1c0-0.1,0-0.3,0.1-0.3c0.1-0.3,0.1-0.6,0.3-0.9v-0.1c0.1-0.3,0.3-0.6,0.4-0.9c0-0.1,0.1-0.1,0.1-0.3
	c0.1-0.3,0.4-0.6,0.6-0.7c2.8-2.8,6.5-2.2,9.5,0c0.6,0.4,1.2,0.9,1.6,1.3c0.3,0.3,0.6,0.6,0.9,0.9c0.1,0.1,0.1,0.1,0.3,0.3
	C938.5,696.4,939.1,696,939.6,695.7z"/>
<path class="st1" d="M718.9,343.9c0.7-3.3,1.3-6.4,2.2-9.5c2.7-9.5,6.1-18.8,10.1-27.8c5-11.4,9.5-22.9,14.2-34.3
	c1-2.5,2.7-5,4.4-7.2c4.1-5.2,11.4-5.2,15.4,0c3.1,4,5.6,8.1,7.4,13c3.3,9,6.8,17.9,10.4,26.8c1.3,3.3,3,6.2,4.3,9.5
	c3.8,9.6,7.7,19.2,11.7,28.9c-4,3.3-8.7,2.8-11.8-1.9c-2.4-3.7-4.1-7.8-5.5-12c-1.2-3.8-1.5-8-2.2-12c-0.6-3.3-1-6.5-3.1-9.2
	c-2.1,0-2.7,1.2-2.4,2.8c0.3,1.2,0.7,2.4,1.2,3.6c1.9,6.4,2.4,12.7,0.6,19.1c-1.2,4-3.4,5.5-7.2,5.3c-2.2,0-3.8-1.2-4.1-3.1
	c-0.7-4.1-1.2-8.3-1.3-12.6c-0.1-5.6,0.3-11.4,0.3-17c0-2.1,0-4.1-1.8-5.6c-2.4,0.3-1.9,2.1-2.1,3.6c-0.1,7.1,0.1,14.1-0.4,21.2
	c-0.4,7.2-1.5,14.4-3.8,21.2c-1.3,3.6-3.6,6.2-7.2,7.5c-4.1,1.5-8-0.1-8.6-4.4c-0.6-4.6-0.6-9.5-0.3-14.1c0.9-9.8,2.8-19.2,5.8-28.6
	c0.7-2.4,2.1-5.2-0.1-7.7c-2.1,0.1-2.1,1.8-2.4,3.4c-1.9,8.7-3.8,17.6-7.7,25.6c-2.2,4.6-5.2,9-8.1,13.2
	C725.3,344,722.6,345.2,718.9,343.9"/>
<path class="st0" d="M821.3,742.6C821.3,742.4,821.3,742.4,821.3,742.6C821.3,742.4,821.3,742.4,821.3,742.6z"/>
<path class="st0" d="M821.1,743.3L821.1,743.3L821.1,743.3z"/>
<path class="st0" d="M821.4,740.7L821.4,740.7L821.4,740.7z"/>
<path class="st0" d="M810.6,735.8c-0.3,0.1-0.6,0.1-0.9,0.3C810,735.9,810.3,735.8,810.6,735.8z"/>
<path class="st0" d="M813,735c-0.6,0.1-1.2,0.3-1.8,0.4C811.8,735.3,812.4,735.2,813,735z"/>
<path class="st0" d="M1705.5,705C1705.4,704.9,1705.4,704.9,1705.5,705C1705.4,704.9,1705.4,704.9,1705.5,705z"/>
<path class="st0" d="M820.4,745.1L820.4,745.1L820.4,745.1z"/>
<path class="st0" d="M968.1,598.2c-1.2-2.4-2.4-4.7-3.4-7.1c-5-11.4-10.2-22.9-15.2-34.3c-4-9.2-7.8-18.5-11.7-27.8
	c-3.4-8.1-6.5-16.4-12.1-23.4c-6.1-7.7-12.7-9.5-19.4-2.2c-4.9,5.2-8.6,11.7-11.8,18.1c-3.3,6.2-5,13.3-7.8,19.8
	c-6.7,15.5-13.8,30.9-20.4,46.3c-2.7,6.2-64.7,143.8-66.9,150.2c-0.3,0.7,0.1,2.4,0.7,2.8c0.7,0.7,1.5,1.5,2.4,2.2
	c1.5-2.1,3.3-4,5.3-5.3c-0.1,0.1-0.3,0.1-0.4,0.3c-0.3-0.6-0.3-1.5-0.1-2.1c2.5-8.1,64.4-147.7,69.7-155.1c5.6,4.6,12,3.3,15.2-3.3
	c2.4-4.7,4.4-9.5,7-14.6c0.4,2.7,0.7,4.9,1.3,7.1c1.5,6.2,6.1,8.4,12,5.6c2.8-1.3,4.9-3.6,6.2-6.5c0.7-1.8,1.3-3.6,2.4-5.9
	c1.9,3.8,4.4,5.3,8.1,4.4c3.6-0.7,4.1-3.7,5.2-6.2c1.9,2.5,3.4,5.9,6.1,7.7c2.5,1.6,6.2,1.6,10.5,2.5c3,6.5,6.2,13.9,9.6,21.3
	c0.9,2.1,59.2,129.2,59.9,131.2c1.6,4.1,1.3,6.1-2.1,8.9c-0.3,0.3-0.6,0.4-0.9,0.7l0,0c0.9,1.5-1.3-0.4-1.8,1.2c0,0.1,0-0.1,0,0
	c-2.4-4.3-3.7,2.5-3.7,2.7c0,0.1-9,4-9,4.1c2.2-1.5,19.4-4.9,21.3-6.7C1027.2,731.6,970.3,602.5,968.1,598.2z"/>
<path class="st0" d="M1698.8,708.6L1698.8,708.6C1698.8,708.7,1698.8,708.7,1698.8,708.6z"/>
<path class="st0" d="M1706.1,705.4L1706.1,705.4L1706.1,705.4z"/>
<path class="st0" d="M808.9,736.5c-0.1,0.1-0.4,0.1-0.6,0.3C808.4,736.7,808.7,736.5,808.9,736.5z"/>
<path class="st0" d="M821.4,741.4C821.4,741.4,821.4,741.6,821.4,741.4C821.4,741.6,821.4,741.4,821.4,741.4z"/>
<path class="st1" d="M1699,707.7c-0.1,0.3-0.2,0.6-0.2,0.9C1698.8,708.3,1698.9,708,1699,707.7z"/>
<path class="st1" d="M820.4,745.1c0.3-0.6,0.6-1,0.7-1.6C821,743.9,820.7,744.5,820.4,745.1z"/>
<path class="st1" d="M1698.6,711.6L1698.6,711.6c-0.1-1,0-1.9,0.1-2.8C1698.6,709.7,1698.6,710.6,1698.6,711.6z"/>
<path class="st1" d="M1705.4,704.9c-0.3-0.1-0.5-0.3-0.8-0.3C1704.8,704.6,1705.1,704.8,1705.4,704.9z"/>
<path class="st1" d="M1706.1,705.4c-0.2-0.2-0.4-0.3-0.6-0.4C1705.7,705.1,1705.9,705.2,1706.1,705.4z"/>
<path class="st1" d="M809.7,736.1c-0.3,0.1-0.6,0.3-0.7,0.4C809.2,736.4,809.4,736.2,809.7,736.1z"/>
<path class="st1" d="M1706.1,705.4c0.4,0.4,0.8,0.8,1.1,1.3C1707,706.2,1706.6,705.8,1706.1,705.4z"/>
<path class="st1" d="M808.3,736.8c-0.3,0.1-0.6,0.3-0.7,0.4C807.7,737.1,808,737,808.3,736.8z"/>
<path class="st1" d="M811.2,735.5c-0.3,0.1-0.4,0.1-0.7,0.3C810.8,735.6,811.1,735.5,811.2,735.5z"/>
<path class="st1" d="M821.3,740.5c0-0.3-0.1-0.6-0.1-0.7C821.3,739.9,821.3,740.2,821.3,740.5z"/>
<path class="st1" d="M821.4,741.4c0-0.3,0-0.4,0-0.7C821.4,741,821.4,741.1,821.4,741.4z"/>
<path class="st1" d="M821.1,743.3c0.1-0.3,0.1-0.6,0.1-0.7C821.3,742.7,821.1,743,821.1,743.3z"/>
<path class="st1" d="M820.4,745.1c-0.3,0.6-0.7,1-1.2,1.5l0,0C819.7,746.1,820,745.7,820.4,745.1z"/>
<path class="st1" d="M821.4,741.6c0,0.3,0,0.6-0.1,0.9C821.4,742.1,821.4,741.8,821.4,741.6z"/>
<path class="st1" d="M1017.8,732.7c3.3-2.8,3.7-4.9,2.1-8.9c-0.9-2.1-59-129.2-59.9-131.2c-3.4-7.4-6.7-14.8-9.6-21.3
	c-4.3-0.9-7.8-0.9-10.5-2.5c-2.7-1.8-4.1-5-6.1-7.7c-0.9,2.5-1.6,5.5-5.2,6.2c-3.8,0.9-6.4-0.7-8.1-4.4c-0.9,2.4-1.6,4.1-2.4,5.9
	c-1.2,3-3.4,5-6.2,6.5c-5.8,2.8-10.4,0.7-12-5.6c-0.4-2.1-0.7-4.3-1.3-7.1c-2.5,5.3-4.6,10.1-7,14.6c-3.3,6.4-9.6,7.8-15.2,3.3
	c-5.2,7.4-67,146.9-69.7,155.1c-0.1,0.6-0.1,1.5,0.1,2.1c0.1-0.1,13.3,7.4,13.3,7.4c-0.3,0.6,27.2,9.9,42.6,7
	c5.8-1,128.3-8.7,134-9.6c13.6-2.1,19.4-9.9,19.8-9.2l0,0C1017.2,733.1,1017.5,732.8,1017.8,732.7z"/>
<path class="st1" d="M904.7,540.2c-2.4,0.1-2.1,2.1-2.5,3.3c-3.1,8.1-6.1,16.4-9.3,24.7c-0.9,2.4-2.2,4.7-3.8,6.8
	c-1.3,1.6-3.3,3-5,3.7c-2.4,1-4.4-0.3-4.3-3c0-2.1,0.3-4.3,0.9-6.4c2.7-8.1,6.2-15.8,9.8-23.5c2.1-4.6,3.7-9.5,5.6-14.1
	c3.6-8.3,7.2-16.4,13.8-22.8c3.4-3.4,7.4-3.4,10.7,0.1c2.8,3,5.2,6.2,7.2,9.6c2.4,4.1,4.3,8.6,6.1,12.9c4.1,9.6,8,19.2,12.1,28.7
	c0.1,0.6,0.6,1,0.6,1.6c0.1,1.2,0.7,2.8,0.1,3.6c-1.2,1.5-3,0.6-4.3-0.1c-2.7-1.6-4.7-3.8-5.5-7c-1-3.7-2.1-7.5-3.1-11.2
	c-0.3-1.2-0.6-2.7-2.1-1.9c-0.6,0.3-1,1.9-0.9,2.8c0.1,3,0.6,6.1,0.7,9c0,1.2-0.3,2.2-0.7,3.4c-0.6,1.8-1.9,2.5-3.7,2.5
	s-3.1-0.9-3.4-2.7c-0.6-3.8-1-7.7-1.3-11.5c-0.3-3,0.3-6.1-1.3-8.9c-2.8-0.1-2.4,1.8-2.1,3.3c1.3,6.5,0.4,13-1.2,19.2
	c-0.4,1.8-1,3.7-2.2,5.2c-1.3,1.6-3.1,3.3-4.9,3.8c-3.6,1.3-5.9-0.3-6.4-4c-0.9-6.1-0.4-12.1,1-18.1
	C905.6,546.3,906.4,543.1,904.7,540.2"/>
<path class="st2" d="M629.4,713.3c1-4.1,1.2-8.3,0.7-13c-0.7-7.4,0-13.2,2.8-20.1c3-7.2,98.5-282,100-289.7c1.3-7.1,1.3-14.4,3-21.5
	c0.3-1,1.5-1.3,2.2-0.9c8,4,20.6,1.2,25.2-6.7c3.3-5.6,4.3-9.9,4.1-16.3c-1.9-0.7-3.6-2.1-5.6-4.3c-1.3,4.1-2.5,5.9-4,9.6
	c-1.6,4-4.6,7-8.9,8.4c-5.9,2.1-11.4-0.9-12.7-6.8c-0.3-1.5-0.4-3.3-0.4-4.9c0.1-4.4,0.3-8.9,0.4-13.8c-1.6,2.7-3,4.9-4.3,7
	c-4,5.9-8.7,10.8-17,7.8c-0.7,1.5-1.3,2.8-1.9,4.1c-3.6,10.2-7,20.6-10.7,30.8c-3.8,10.7-99.6,289.2-103.4,299.9
	c-2.4,6.5-4.1,13.3-4.7,20.9c4.7,1.9,9.2,4.1,13.9,5.5c5.9,1.6,12,2.7,18.1,3.7C627.3,712.8,628.4,713,629.4,713.3"/>
<path class="st2" d="M920.6,562.2c-0.9,2.4-1.6,4.1-2.4,5.9c-1.3,3-3.4,5.2-6.4,6.7c-5.9,3-10.5,0.7-12.1-5.6
	c-0.6-2.2-0.9-4.4-1.3-7.1c-2.5,5.3-4.7,10.2-7.1,14.9c-3.3,6.5-9.8,8-15.5,3.3c-5.3,7.5-67.2,147.2-69.8,155.5
	c-0.1,0.7-0.1,1.8,0.3,2.4c9.6,7,20.3,9,24.7,10.2c-0.9-3.4-0.6-3.6-0.3-7.1c0.3-4.6,62.3-140,64.1-144.1c2.4-5.3,4.6-10.7,6.1-16.3
	c0.3-0.9,1.3-1.3,2.1-0.9c11.7,6.1,19.7-2.5,21-13.5C922.6,565.6,921.4,564.3,920.6,562.2z"/>
</svg>
