<?xml version="1.0" encoding="utf-8"?>
<!-- Generator: Adobe Illustrator 16.0.0, SVG Export Plug-In . SVG Version: 6.00 Build 0)  -->
<!DOCTYPE svg PUBLIC "-//W3C//DTD SVG 1.1//EN" "http://www.w3.org/Graphics/SVG/1.1/DTD/svg11.dtd">
<svg version="1.1" id="Capa_1" xmlns="http://www.w3.org/2000/svg" xmlns:xlink="http://www.w3.org/1999/xlink" x="0px" y="0px"
	 width="59px" height="58.25px" viewBox="0 0 59 58.25" enable-background="new 0 0 59 58.25" xml:space="preserve">
<circle fill="none" stroke="#1D4B66" stroke-width="2" stroke-linecap="round" stroke-miterlimit="10" cx="30.292" cy="29.661" r="26.051"/>
<line fill="none" stroke="#1D4B66" stroke-width="0.8149" stroke-miterlimit="10" x1="25.896" y1="20.2" x2="25.896" y2="8.275"/>
<g>
	<g>
		<defs>
			<path id="SVGID_1_" d="M25.896,8.618L19.33,9.297l-1.812,2.113l-3.924-0.679c0,0-0.378,7.624-0.151,7.473
				c0.226-0.152,6.038-0.755,6.038-1.057s-0.226-2.038,1.057-2.265c1.283-0.226,5.285,0.076,5.285,0.076L25.896,8.618z"/>
		</defs>
		<clipPath id="SVGID_2_">
			<use xlink:href="#SVGID_1_"  overflow="visible"/>
		</clipPath>
		<g clip-path="url(#SVGID_2_)">
			<rect x="11.106" y="7.638" fill="#F6EA47" width="18.075" height="3.873"/>
			<rect x="11.077" y="10.651" fill="#4C73B1" width="18.073" height="3.873"/>
			<rect x="11.199" y="14.37" fill="#BE2026" width="18.073" height="3.873"/>
		</g>
	</g>
</g>
<g>
	
		<rect x="18.449" y="24.377" fill="#F7F8F9" stroke="#1D4B66" stroke-width="0.5354" stroke-miterlimit="10" width="28.908" height="20.396"/>
	
		<rect x="18.445" y="42.77" fill="#7DAB40" stroke="#1D4B66" stroke-width="0.5354" stroke-miterlimit="10" width="28.909" height="2.03"/>
	
		<rect x="29.448" y="27.189" fill="#7DAB40" stroke="#1D4B66" stroke-width="0.5354" stroke-miterlimit="10" width="6.911" height="17.61"/>
	<circle fill="#D8D3E8" cx="30.743" cy="35.22" r="0.532"/>
	
		<linearGradient id="SVGID_3_" gradientUnits="userSpaceOnUse" x1="-80.9272" y1="70.0449" x2="-85.3882" y2="65.8848" gradientTransform="matrix(1 0 0 -1 116 98.25)">
		<stop  offset="0" style="stop-color:#8FD3ED"/>
		<stop  offset="0.5054" style="stop-color:#FFFFFF"/>
		<stop  offset="1" style="stop-color:#8FD3ED"/>
	</linearGradient>
	
		<rect x="30.586" y="28.25" fill="url(#SVGID_3_)" stroke="#1D4B66" stroke-width="0.5354" stroke-miterlimit="10" width="4.633" height="3.958"/>
	<g>
		<g>
			<defs>
				<rect id="SVGID_5_" x="18.449" y="24.377" width="28.908" height="20.396"/>
			</defs>
			<clipPath id="SVGID_6_">
				<use xlink:href="#SVGID_5_"  overflow="visible"/>
			</clipPath>
			<polygon clip-path="url(#SVGID_6_)" fill="#AEADB3" points="48.477,24.138 43.525,18.74 32.9,18.74 22.281,18.74 17.331,24.191 
				17.331,26.085 32.9,26.085 48.477,26.085 			"/>
		</g>
		<g>
			
				<rect id="SVGID_4_" x="18.449" y="24.377" fill="none" stroke="#1D4B66" stroke-width="0.5354" stroke-miterlimit="10" width="28.908" height="20.396"/>
		</g>
	</g>
	<polygon fill="#7DAB40" stroke="#1D4B66" stroke-width="0.5354" stroke-miterlimit="10" points="48.477,23.45 43.525,18.051 
		32.9,18.051 22.281,18.051 17.331,23.502 17.331,25.395 32.9,25.395 48.477,25.395 	"/>
	
		<rect x="28.57" y="16.351" fill="#1D4B66" stroke="#1D4B66" stroke-width="0.5354" stroke-miterlimit="10" width="8.663" height="9.734"/>
	<g>
		<path fill="#441815" stroke="#1D4B66" stroke-width="0.5354" stroke-miterlimit="10" d="M46.012,38.514h-8.38v-4.136
			c0-2.313,1.874-3.595,4.19-3.595l0,0c2.312,0,4.189,1.281,4.189,3.595V38.514z"/>
		
			<linearGradient id="SVGID_7_" gradientUnits="userSpaceOnUse" x1="-70.208" y1="66.9688" x2="-78.3425" y2="57.9212" gradientTransform="matrix(1 0 0 -1 116 98.25)">
			<stop  offset="0" style="stop-color:#8FD3ED"/>
			<stop  offset="0.5054" style="stop-color:#FFFFFF"/>
			<stop  offset="1" style="stop-color:#8FD3ED"/>
		</linearGradient>
		<path fill="url(#SVGID_7_)" stroke="#1D4B66" stroke-width="0.5354" stroke-miterlimit="10" d="M45.768,38.289h-7.893v-3.896
			c0-2.178,1.766-3.386,3.947-3.386l0,0c2.178,0,3.945,1.208,3.945,3.386V38.289z"/>
		<g>
			
				<rect x="41.654" y="30.984" fill="#441815" stroke="#1D4B66" stroke-width="0.5354" stroke-miterlimit="10" width="0.31" height="7.529"/>
			
				<rect x="37.793" y="35.962" fill="#441815" stroke="#1D4B66" stroke-width="0.5354" stroke-miterlimit="10" width="8.053" height="0.158"/>
			
				<rect x="37.793" y="33.486" fill="#441815" stroke="#1D4B66" stroke-width="0.5354" stroke-miterlimit="10" width="8.053" height="0.158"/>
		</g>
		<path fill="#441815" stroke="#1D4B66" stroke-width="0.5354" stroke-miterlimit="10" d="M28.173,38.514h-8.377v-4.136
			c0-2.313,1.874-3.595,4.189-3.595l0,0c2.313,0,4.188,1.281,4.188,3.595V38.514z"/>
		
			<linearGradient id="SVGID_8_" gradientUnits="userSpaceOnUse" x1="-88.0459" y1="66.9688" x2="-96.1797" y2="57.9221" gradientTransform="matrix(1 0 0 -1 116 98.25)">
			<stop  offset="0" style="stop-color:#8FD3ED"/>
			<stop  offset="0.5054" style="stop-color:#FFFFFF"/>
			<stop  offset="1" style="stop-color:#8FD3ED"/>
		</linearGradient>
		<path fill="url(#SVGID_8_)" stroke="#1D4B66" stroke-width="0.5354" stroke-miterlimit="10" d="M27.929,38.289h-7.891v-3.896
			c0-2.178,1.765-3.386,3.947-3.386l0,0c2.178,0,3.944,1.208,3.944,3.386V38.289z"/>
		<g>
			
				<rect x="23.818" y="30.984" fill="#441815" stroke="#1D4B66" stroke-width="0.5354" stroke-miterlimit="10" width="0.312" height="7.529"/>
			
				<rect x="19.959" y="35.962" fill="#441815" stroke="#1D4B66" stroke-width="0.5354" stroke-miterlimit="10" width="8.053" height="0.158"/>
			
				<rect x="19.959" y="33.486" fill="#441815" stroke="#1D4B66" stroke-width="0.5354" stroke-miterlimit="10" width="8.053" height="0.158"/>
		</g>
	</g>
</g>
<g>
	
		<rect x="19.659" y="19.332" fill="#1D4B66" stroke="#1D4B66" stroke-width="0.5913" stroke-miterlimit="10" width="26.081" height="8.07"/>
	<g enable-background="new    ">
		<path fill="#FFFFFF" d="M32.057,24.267c0-0.072-0.008-0.135-0.024-0.186c-0.017-0.052-0.037-0.095-0.062-0.132
			c-0.023-0.036-0.052-0.064-0.084-0.086c-0.031-0.021-0.061-0.039-0.088-0.054c-0.072-0.036-0.151-0.068-0.237-0.098
			c-0.086-0.028-0.173-0.06-0.261-0.093c-0.087-0.033-0.172-0.07-0.253-0.11c-0.081-0.041-0.155-0.094-0.22-0.159
			c-0.064-0.064-0.116-0.143-0.154-0.235c-0.037-0.092-0.057-0.204-0.057-0.337c0-0.274,0.082-0.49,0.245-0.646
			c0.163-0.157,0.386-0.235,0.669-0.235c0.059,0,0.131,0.004,0.218,0.013c0.088,0.01,0.173,0.025,0.256,0.048
			s0.153,0.054,0.213,0.093c0.059,0.039,0.088,0.091,0.088,0.154c0,0.045-0.016,0.085-0.048,0.119
			c-0.031,0.035-0.076,0.053-0.133,0.053c-0.036,0-0.071-0.007-0.104-0.021s-0.071-0.028-0.115-0.043
			c-0.044-0.016-0.093-0.029-0.149-0.043c-0.056-0.014-0.121-0.021-0.197-0.021c-0.072,0-0.143,0.009-0.21,0.024
			c-0.067,0.018-0.128,0.044-0.181,0.082s-0.096,0.089-0.127,0.153c-0.031,0.065-0.047,0.147-0.047,0.247
			c0,0.075,0.008,0.139,0.026,0.19c0.019,0.051,0.04,0.094,0.065,0.129c0.025,0.034,0.054,0.063,0.084,0.083
			c0.03,0.021,0.059,0.038,0.086,0.05c0.072,0.037,0.152,0.07,0.238,0.1c0.086,0.03,0.172,0.062,0.26,0.093
			c0.088,0.032,0.172,0.068,0.256,0.109c0.082,0.04,0.156,0.093,0.219,0.158c0.064,0.064,0.114,0.143,0.152,0.232
			c0.037,0.091,0.057,0.203,0.057,0.335c0,0.151-0.025,0.285-0.075,0.401s-0.119,0.214-0.208,0.294s-0.193,0.141-0.314,0.183
			c-0.121,0.043-0.252,0.063-0.395,0.063c-0.072,0-0.156-0.006-0.253-0.018c-0.097-0.013-0.188-0.032-0.273-0.059
			c-0.086-0.027-0.159-0.063-0.218-0.104s-0.088-0.094-0.088-0.154c0-0.045,0.016-0.086,0.047-0.122
			c0.032-0.036,0.07-0.054,0.116-0.054c0.03,0,0.066,0.008,0.108,0.024c0.043,0.017,0.09,0.035,0.145,0.055s0.116,0.037,0.186,0.054
			c0.07,0.017,0.148,0.025,0.236,0.025c0.201,0,0.354-0.049,0.454-0.145C32.006,24.582,32.057,24.444,32.057,24.267z"/>
		<path fill="#FFFFFF" d="M33.387,24.927c0,0.07-0.023,0.129-0.07,0.177c-0.046,0.049-0.103,0.072-0.169,0.072
			c-0.069,0-0.128-0.023-0.175-0.072c-0.047-0.048-0.07-0.106-0.07-0.177c0-0.065,0.023-0.122,0.07-0.169s0.105-0.07,0.175-0.07
			c0.066,0,0.123,0.023,0.169,0.07C33.363,24.805,33.387,24.861,33.387,24.927z"/>
		<path fill="#FFFFFF" d="M34.143,25.04c-0.015,0.043-0.039,0.076-0.072,0.1c-0.033,0.024-0.066,0.036-0.1,0.036
			c-0.051,0-0.096-0.017-0.133-0.05c-0.038-0.033-0.057-0.076-0.057-0.131c0-0.009,0-0.021,0.002-0.036
			c0.002-0.016,0.004-0.025,0.007-0.032l0.883-2.792c0.021-0.069,0.049-0.127,0.083-0.172c0.035-0.045,0.086-0.067,0.152-0.067
			c0.069,0,0.121,0.022,0.154,0.067s0.061,0.103,0.086,0.172l0.882,2.792c0.003,0.007,0.005,0.017,0.007,0.032
			c0.002,0.015,0.002,0.027,0.002,0.036c0,0.055-0.018,0.098-0.055,0.131c-0.035,0.033-0.08,0.05-0.135,0.05
			c-0.033,0-0.068-0.012-0.104-0.036c-0.036-0.023-0.06-0.057-0.072-0.1l-0.194-0.629h-1.146L34.143,25.04z M34.441,24.059h0.933
			l-0.466-1.534L34.441,24.059z"/>
	</g>
</g>
<g>
	<path fill="#1D4B66" d="M16.1,35.506l0.242-0.295l-0.565-0.661c0.314-0.332,0.509-0.778,0.509-1.271
		c0-0.09-0.009-0.176-0.021-0.264c0.012,0.002,0.026,0.004,0.034,0.006c0.023,0.01,0.047,0.014,0.071,0.014
		c0.019,0,0.041-0.003,0.06-0.01c0.097-0.032,0.147-0.137,0.116-0.233c-0.039-0.116-0.119-0.127-0.315-0.153
		c-0.019-0.003-0.043-0.007-0.062-0.01c-0.265-0.699-0.94-1.197-1.729-1.197c-0.088,0-0.175,0.008-0.263,0.021
		c0.006-0.114,0.005-0.191,0.003-0.201c-0.006-0.103-0.094-0.177-0.196-0.172c-0.102,0.007-0.179,0.096-0.173,0.196
		c0,0.004,0.006,0.113-0.013,0.272c-0.106,0.04-0.208,0.088-0.303,0.146c-0.077-0.076-0.103-0.125-0.106-0.135
		c-0.021-0.094-0.109-0.156-0.205-0.144c-0.102,0.015-0.173,0.106-0.157,0.208c0.006,0.049,0.039,0.154,0.168,0.293
		c-0.354,0.322-0.58,0.779-0.599,1.29c-0.159,0.114-0.268,0.183-0.271,0.185c-0.086,0.051-0.116,0.166-0.063,0.252
		c0.034,0.059,0.095,0.09,0.159,0.09c0.032,0,0.064-0.008,0.093-0.025c0.008-0.004,0.05-0.03,0.113-0.072
		c0.073,0.383,0.269,0.721,0.538,0.979l-0.392,0.589l0.036,0.043c0.098,0.113,0.18,0.211,0.254,0.296
		c-0.034,0.045-0.067,0.093-0.103,0.144c-0.655,0.637-1.455,1.866-1.455,4.09c0,0.102,0.084,0.186,0.185,0.186
		c0.103,0,0.185-0.083,0.185-0.186c0-1.062,0.19-1.877,0.456-2.502c-0.1,0.47-0.126,0.965,0.028,1.738
		c0.065,0.313,0.537,0.688,1.071,0.897c0.153,2.922,0.117,5.106,0.117,5.128c-0.004,0.102,0.079,0.186,0.18,0.188
		c0.002,0,0.004,0,0.004,0c0.101,0,0.183-0.08,0.185-0.181c0.002-0.021,0.037-2.151-0.109-5.021
		c0.037,0.008,0.074,0.019,0.112,0.024c0.131,0.022,0.274,0.033,0.435,0.033c0.212,0,0.457-0.019,0.796-0.062
		c0.01,2.515,0.122,5.063,0.122,5.09c0.005,0.1,0.087,0.177,0.185,0.177c0.004,0,0.005,0,0.008,0
		c0.104-0.005,0.181-0.091,0.177-0.193c-0.001-0.026-0.113-2.604-0.122-5.129c0.329-0.069,1.134-0.308,1.199-1.014
		c0.009-0.107,0.025-0.216,0.043-0.327c0.062-0.421,0.131-0.898-0.049-1.54c-0.067-0.235-0.135-0.427-0.23-0.625
		c0.473,0.665,0.907,1.709,0.907,3.315c0,0.103,0.083,0.187,0.185,0.187c0.103,0,0.187-0.083,0.187-0.187
		C17.759,37.334,16.793,36.09,16.1,35.506z"/>
	<polygon fill="#DFDEE4" points="14.145,35.246 14.372,35.592 14.201,39.24 14.682,39.936 15.082,39.133 14.64,35.564 
		14.896,35.246 14.44,34.871 	"/>
</g>
</svg>
