<?xml version="1.0" encoding="utf-8"?>
<!-- Generator: Adobe Illustrator 19.0.0, SVG Export Plug-In . SVG Version: 6.00 Build 0)  -->
<svg version="1.1" id="Capa_1" xmlns="http://www.w3.org/2000/svg" xmlns:xlink="http://www.w3.org/1999/xlink" x="0px" y="0px"
	 viewBox="-144 201.1 321.1 391.9" style="enable-background:new -144 201.1 321.1 391.9;" xml:space="preserve">
<style type="text/css">
	.st0{fill:#E0DFE6;}
	.st1{fill:none;stroke:#1F4D69;stroke-width:3;stroke-linecap:round;stroke-linejoin:round;stroke-miterlimit:10;}
	.st2{fill:none;stroke:#939393;stroke-width:9;stroke-linecap:round;stroke-linejoin:round;stroke-miterlimit:10;}
	.st3{fill:#1F4D69;stroke:#1F4D69;stroke-width:3;stroke-linecap:round;stroke-linejoin:round;stroke-miterlimit:10;}
	.st4{fill:#296684;stroke:#1F4D69;stroke-width:3;stroke-linecap:round;stroke-linejoin:round;stroke-miterlimit:10;}
	.st5{fill:#1F4D69;stroke:#1F4E69;stroke-width:2;stroke-miterlimit:10;}
</style>
<path class="st0" d="M-102.2,484.6c0,0,17-37.1,39.9-37.1s53.4,39.9,83,20c29.6-20-3.3-53,32.5-52.4c35.9,0.5,61.3-30.9,59.8-84.4
	s14.6-102,30.5-111v298.8h-245.7V484.6L-102.2,484.6z"/>
<rect x="-102.2" y="219.6" class="st1" width="245.7" height="298.4"/>
<line class="st2" x1="-46.1" y1="390.1" x2="87.3" y2="390.1"/>
<line class="st2" x1="-62.4" y1="410.2" x2="103.6" y2="410.2"/>
<line class="st2" x1="-26.3" y1="432.6" x2="67.6" y2="432.6"/>
<line class="st2" x1="-39.5" y1="455" x2="80.8" y2="455"/>
<line class="st2" x1="-26.3" y1="477.3" x2="67.6" y2="477.3"/>
<polygon class="st3" points="20.6,518.5 143.5,518.5 82.1,546.5 20.6,574.5 -40.8,546.5 -102.2,518.5 "/>
<polygon class="st4" points="20.6,574.5 20.6,518.5 -102.2,518.5 "/>
<g>
	<path class="st5" d="M-82.8,296.8c0.1-0.2,0.2-0.4,0.2-0.6c0-0.2,0.1-0.5,0.1-0.6c0-0.5,0.2-0.9,0.6-1.3c0.4-0.4,0.9-0.6,1.4-0.6
		c0.5,0,1,0.2,1.4,0.6c0.4,0.4,0.6,0.9,0.6,1.5c0,0.5-0.1,1-0.3,1.4c-0.2,0.5-0.4,0.9-0.7,1.4c-0.3,0.4-0.6,0.9-1,1.3
		c-0.3,0.4-0.7,0.8-1,1.2l-0.8,0.8c-0.5,0.6-1,1.2-1.4,2c-0.4,0.7-0.6,1.5-0.6,2.4c0,1.1,0.3,2,1,2.8c0.6,0.8,1.6,1.1,3,1.1
		c0.6,0,1.1,0,1.6-0.1c0.5-0.1,1-0.3,1.5-0.5c0.4-0.2,0.8-0.4,1.1-0.6c0.3-0.2,0.7-0.4,1.1-0.4c0.5,0,0.9,0.2,1.3,0.5
		s0.6,0.8,0.6,1.3c0,0.6-0.3,1.1-0.8,1.5c-0.5,0.4-1.2,0.8-1.9,1.1c-0.8,0.3-1.6,0.5-2.4,0.6c-0.9,0.1-1.6,0.2-2.3,0.2
		c-1.2,0-2.3-0.2-3.2-0.5s-1.8-0.9-2.4-1.5c-0.7-0.6-1.2-1.4-1.5-2.3c-0.4-0.9-0.5-1.8-0.5-2.9c0-1.3,0.2-2.4,0.7-3.3
		c0.4-0.9,1-1.8,1.5-2.5c0.6-0.7,1.2-1.4,1.8-2C-83.6,298-83.1,297.4-82.8,296.8z M-83,289.6c0-0.6,0.2-1.2,0.7-1.7
		c0.5-0.5,1.1-0.7,1.8-0.7c0.7,0,1.3,0.2,1.7,0.7c0.5,0.5,0.7,1,0.7,1.7c0,0.6-0.2,1.2-0.7,1.6c-0.5,0.5-1.1,0.7-1.7,0.7
		c-0.7,0-1.3-0.2-1.8-0.7C-82.8,290.8-83,290.2-83,289.6z"/>
	<path class="st5" d="M-52.9,295.9c0,1.2-0.2,2.5-0.5,3.6c-0.4,1.2-0.9,2.2-1.7,3.1c-0.8,0.9-1.9,1.6-3.2,2.1
		c-1.3,0.5-3,0.8-4.9,0.8h-4.1c-0.6,0-1.2-0.2-1.6-0.6c-0.4-0.4-0.7-0.9-0.7-1.5v-21.1c0-0.6,0.2-1.1,0.7-1.5c0.4-0.4,1-0.6,1.6-0.6
		h4.1c1.9,0,3.6,0.3,4.9,0.8c1.3,0.5,2.4,1.2,3.2,2.1c0.8,0.9,1.4,1.8,1.8,3c0.4,1.1,0.5,2.3,0.5,3.5V295.9z M-56.9,289.5
		c0-0.8-0.1-1.5-0.3-2.2c-0.2-0.7-0.5-1.3-1-1.8c-0.5-0.5-1.1-0.9-1.8-1.2s-1.6-0.4-2.7-0.4h-3v18h3c1.1,0,2-0.2,2.7-0.5
		c0.7-0.3,1.3-0.7,1.8-1.3c0.5-0.5,0.8-1.2,1-1.9c0.2-0.7,0.3-1.5,0.3-2.3V289.5z"/>
	<path class="st5" d="M-42.5,305.8c-1.2,0-2.3-0.2-3.1-0.5c-0.9-0.3-1.7-0.8-2.3-1.4c-0.6-0.6-1.1-1.3-1.4-2.1
		c-0.3-0.8-0.5-1.7-0.5-2.6v-5.7c0-0.9,0.2-1.8,0.5-2.6c0.3-0.8,0.8-1.5,1.4-2.1c0.6-0.6,1.4-1,2.3-1.4c0.9-0.3,1.9-0.5,3.1-0.5
		c1.2,0,2.2,0.2,3.1,0.5c0.9,0.3,1.7,0.8,2.3,1.4c0.6,0.6,1.1,1.3,1.4,2.1s0.5,1.7,0.5,2.6v5.7c0,0.9-0.2,1.8-0.5,2.6
		c-0.3,0.8-0.8,1.5-1.4,2.1c-0.6,0.6-1.4,1.1-2.3,1.4C-40.3,305.7-41.3,305.8-42.5,305.8z M-42.5,302.4c1.1,0,2-0.3,2.5-0.8
		c0.6-0.6,0.8-1.3,0.8-2.3v-5.7c0-1-0.3-1.7-0.8-2.3c-0.6-0.6-1.4-0.8-2.5-0.8c-1.1,0-2,0.3-2.5,0.8c-0.6,0.6-0.8,1.3-0.8,2.3v5.7
		c0,1,0.3,1.8,0.8,2.3C-44.5,302.2-43.7,302.4-42.5,302.4z M-41.4,279.7c0.2-0.2,0.4-0.3,0.5-0.4c0.1-0.1,0.4-0.1,0.7-0.1
		c0.3,0,0.7,0.1,1,0.4c0.3,0.3,0.5,0.6,0.5,1.1c0,0.4-0.2,0.7-0.5,1l-2.7,2.8c-0.2,0.2-0.4,0.4-0.6,0.5c-0.2,0.1-0.5,0.2-0.8,0.2
		c-0.4,0-0.8-0.1-1.1-0.4c-0.3-0.3-0.4-0.6-0.4-1.1c0-0.2,0.1-0.5,0.3-0.8c0.2-0.3,0.5-0.6,0.8-1c0.3-0.3,0.7-0.7,1-1
		c0.3-0.3,0.7-0.6,0.9-0.9L-41.4,279.7z"/>
	<path class="st5" d="M-27.2,304c0,0.5-0.2,0.9-0.5,1.3c-0.3,0.3-0.8,0.5-1.5,0.5s-1.1-0.2-1.5-0.5c-0.3-0.3-0.5-0.8-0.5-1.3v-11.6
		c0-0.4,0-0.7,0-0.9c0-0.2-0.1-0.4-0.1-0.5c0-0.1-0.1-0.2-0.2-0.3c-0.1-0.1-0.1-0.2-0.2-0.3c-0.1-0.2-0.3-0.4-0.3-0.5
		c-0.1-0.1-0.1-0.3-0.1-0.5c0-0.5,0.2-0.9,0.5-1.2c0.3-0.3,0.8-0.5,1.4-0.5c0.7,0,1.2,0.3,1.7,1c0.8-0.6,1.6-1,2.5-1.2
		s1.7-0.4,2.5-0.4c2.1,0,3.7,0.6,4.7,1.9s1.6,2.9,1.6,5v9.9c0,0.5-0.2,0.9-0.5,1.3c-0.3,0.3-0.8,0.5-1.4,0.5c-0.6,0-1.1-0.2-1.4-0.5
		c-0.3-0.3-0.5-0.8-0.5-1.3v-9.9c0-1.2-0.2-2-0.7-2.7c-0.5-0.6-1.2-0.9-2.1-0.9c-1,0-2.2,0.4-3.4,1.1c0.1,0.3,0.1,0.6,0.1,0.9V304z"
		/>
	<path class="st5" d="M-6.6,287.2c0.6,0,1.2,0,1.7,0.1c0.6,0.1,1.2,0.3,1.9,0.5v-6.6c0-0.5,0.2-0.9,0.5-1.2c0.3-0.3,0.8-0.5,1.4-0.5
		s1.1,0.2,1.4,0.5c0.3,0.3,0.5,0.8,0.5,1.2v19.9c0,0.4,0.1,0.7,0.2,0.9c0.1,0.2,0.3,0.5,0.6,0.8c0.3,0.3,0.4,0.6,0.4,1
		c0,0.6-0.2,1-0.6,1.3c-0.4,0.3-0.8,0.5-1.2,0.5c-0.4,0-0.8-0.1-1.2-0.3c-0.3-0.2-0.6-0.5-0.9-0.9c-0.8,0.5-1.7,0.8-2.5,1.1
		c-0.8,0.3-1.7,0.4-2.6,0.4c-1,0-1.9-0.2-2.6-0.5c-0.8-0.3-1.4-0.8-1.9-1.4c-0.5-0.6-0.9-1.3-1.2-2.2c-0.3-0.9-0.4-1.8-0.4-2.8v-4.3
		c0-1.1,0.1-2.1,0.3-3c0.2-0.9,0.6-1.7,1.1-2.3c0.5-0.6,1.1-1.2,2-1.5C-8.8,287.4-7.8,287.2-6.6,287.2z M-3,291.1
		c-0.6-0.2-1.2-0.4-1.7-0.5c-0.6-0.1-1-0.1-1.4-0.1c-1.1,0-1.9,0.3-2.3,1c-0.4,0.7-0.7,1.7-0.7,3.1v4.3c0,2.4,1,3.6,2.9,3.6
		c0.9,0,2-0.3,3.3-0.9c0-0.1-0.1-0.3-0.1-0.4c0-0.1,0-0.2,0-0.4V291.1z"/>
	<path class="st5" d="M12.6,298.5c-0.5,0-1,0-1.5-0.1c-0.5,0-1.1-0.1-1.7-0.2v1.7c0,0.8,0.3,1.5,0.8,1.9c0.6,0.5,1.4,0.7,2.6,0.7
		c0.7,0,1.3-0.1,1.8-0.3c0.5-0.2,1.1-0.4,1.7-0.6c0,0,0.1-0.1,0.3-0.1c0.1,0,0.3-0.1,0.5-0.1c0.6,0,1.1,0.2,1.4,0.5s0.4,0.7,0.4,1.1
		c0,0.6-0.2,1-0.7,1.4c-0.5,0.3-1,0.6-1.7,0.8c-0.7,0.2-1.4,0.4-2.1,0.5c-0.7,0.1-1.4,0.1-1.9,0.1c-1.1,0-2.1-0.2-3-0.5
		c-0.9-0.3-1.6-0.7-2.2-1.3c-0.6-0.6-1-1.2-1.4-2c-0.3-0.8-0.5-1.6-0.5-2.4v-6.4c0-0.9,0.2-1.7,0.5-2.5c0.3-0.8,0.8-1.4,1.4-2
		c0.6-0.6,1.3-1,2.2-1.3c0.9-0.3,1.9-0.5,3.1-0.5c2.2,0,3.8,0.5,4.9,1.6c1.1,1.1,1.6,2.5,1.6,4.3c0,1.7-0.5,3-1.5,4
		C16.6,298,14.9,298.5,12.6,298.5z M15.3,293c0-1-0.2-1.6-0.7-2.1c-0.5-0.4-1.1-0.6-2-0.6c-1,0-1.8,0.3-2.3,0.8
		c-0.6,0.5-0.8,1.2-0.8,2.1v2.1c0.6,0.1,1.2,0.1,1.9,0.2c0.6,0,1,0.1,1.3,0.1c1,0,1.7-0.2,2.1-0.7C15.1,294.3,15.3,293.7,15.3,293z"
		/>
	<path class="st5" d="M33.7,281.3c0-0.5,0.2-0.9,0.5-1.2c0.3-0.3,0.8-0.5,1.4-0.5c0.6,0,1.1,0.2,1.4,0.5c0.3,0.3,0.5,0.8,0.5,1.2v7
		c0.6-0.4,1.3-0.7,2-0.9c0.7-0.2,1.5-0.3,2.4-0.3c1.1,0,2,0.1,2.8,0.4c0.8,0.3,1.4,0.7,1.9,1.2c0.5,0.5,0.8,1.1,1.1,1.8
		c0.2,0.7,0.3,1.5,0.3,2.3v6.4c0,0.9-0.2,1.8-0.5,2.6c-0.3,0.8-0.7,1.5-1.3,2.1c-0.6,0.6-1.3,1.1-2.2,1.4c-0.9,0.3-1.9,0.5-3.1,0.5
		c-1.1,0-2.1-0.2-3-0.5c-0.9-0.3-1.6-0.7-2.3-1.2c-0.6-0.5-1.1-1.2-1.4-1.9c-0.3-0.7-0.5-1.5-0.5-2.3V281.3z M37.6,300
		c0,0.8,0.3,1.5,0.9,1.9c0.6,0.5,1.4,0.7,2.4,0.7c1.1,0,1.9-0.3,2.4-0.8c0.5-0.6,0.8-1.3,0.8-2.3v-6.7c0-0.8-0.2-1.5-0.7-1.9
		c-0.5-0.5-1.2-0.7-2.3-0.7c-1.4,0-2.6,0.5-3.5,1.4V300z"/>
	<path class="st5" d="M63.3,304.4c-0.8,0.5-1.7,0.9-2.5,1.1c-0.9,0.2-1.7,0.3-2.5,0.3c-1,0-1.9-0.2-2.7-0.5
		c-0.8-0.3-1.4-0.8-1.9-1.4c-0.5-0.6-0.9-1.3-1.2-2.2c-0.3-0.9-0.4-1.8-0.4-2.8V289c0-0.5,0.2-0.9,0.5-1.3c0.3-0.3,0.8-0.5,1.4-0.5
		c0.6,0,1.1,0.2,1.4,0.5c0.3,0.3,0.5,0.8,0.5,1.3v9.9c0,1.2,0.2,2,0.7,2.7c0.5,0.6,1.2,0.9,2.1,0.9c0.6,0,1.1-0.1,1.7-0.3
		c0.6-0.2,1.1-0.4,1.7-0.7c0-0.2,0-0.3-0.1-0.5s0-0.3,0-0.4V289c0-0.5,0.2-0.9,0.5-1.3c0.3-0.3,0.8-0.5,1.5-0.5s1.1,0.2,1.5,0.5
		c0.3,0.3,0.5,0.8,0.5,1.3V301c0,0.6,0.1,1,0.2,1.2c0.1,0.2,0.3,0.4,0.5,0.7c0.1,0.1,0.2,0.3,0.3,0.4c0.1,0.2,0.1,0.3,0.1,0.6
		c0,0.5-0.2,0.9-0.6,1.3c-0.4,0.3-0.8,0.5-1.3,0.5c-0.4,0-0.8-0.1-1.1-0.3C63.8,305.1,63.6,304.8,63.3,304.4z"/>
	<path class="st5" d="M70.4,292.5c0-1.6,0.5-2.9,1.6-3.9c1.1-1,2.7-1.5,4.8-1.5c0.5,0,1.1,0,1.7,0.1s1.2,0.2,1.7,0.4
		c0.5,0.2,0.9,0.5,1.3,0.8c0.3,0.3,0.5,0.8,0.5,1.3c0,0.5-0.1,0.8-0.4,1.1s-0.7,0.4-1.2,0.4c-0.3,0-0.5,0-0.8-0.1
		c-0.2-0.1-0.5-0.2-0.7-0.3c-0.3-0.1-0.6-0.2-0.9-0.3c-0.3-0.1-0.7-0.1-1.2-0.1c-0.2,0-0.5,0-0.8,0.1c-0.3,0-0.6,0.1-0.8,0.2
		c-0.3,0.1-0.5,0.3-0.7,0.5c-0.2,0.2-0.3,0.5-0.3,0.9c0,0.6,0.2,1.1,0.6,1.4c0.4,0.3,0.9,0.6,1.5,0.9c0.6,0.3,1.3,0.5,2,0.8
		c0.7,0.3,1.4,0.6,2,1c0.6,0.4,1.1,0.9,1.5,1.6c0.4,0.7,0.6,1.5,0.6,2.6c0,1.7-0.6,3-1.7,4c-1.1,1-2.7,1.5-4.9,1.5
		c-0.5,0-1.1,0-1.8-0.1c-0.7-0.1-1.3-0.2-1.9-0.4c-0.6-0.2-1.1-0.4-1.5-0.7c-0.4-0.3-0.6-0.7-0.6-1.2c0-0.2,0-0.4,0.1-0.6
		c0.1-0.2,0.2-0.5,0.3-0.6c0.2-0.2,0.4-0.3,0.6-0.5s0.6-0.1,1,0c0.3,0.1,0.8,0.2,1.5,0.5s1.4,0.4,2.2,0.4c0.8,0,1.5-0.2,2.1-0.6
		c0.6-0.4,0.8-0.9,0.8-1.5c0-0.6-0.2-1-0.6-1.3c-0.4-0.3-0.9-0.6-1.5-0.8c-0.6-0.2-1.3-0.5-2-0.7c-0.7-0.2-1.4-0.5-2-1
		c-0.6-0.4-1.1-0.9-1.5-1.6C70.6,294.4,70.4,293.5,70.4,292.5z"/>
	<path class="st5" d="M85.6,293.9c0-0.9,0.1-1.8,0.4-2.6c0.3-0.8,0.7-1.5,1.3-2.1c0.6-0.6,1.3-1.1,2.2-1.4c0.9-0.3,1.9-0.5,3.1-0.5
		c0.5,0,1,0,1.7,0.1c0.6,0.1,1.2,0.2,1.8,0.4c0.6,0.2,1.1,0.5,1.5,0.8c0.4,0.3,0.6,0.8,0.6,1.3c0,0.4-0.1,0.7-0.4,1
		c-0.3,0.3-0.7,0.5-1.3,0.5c-0.3,0-0.6,0-0.9-0.1c-0.4-0.2-0.8-0.4-1.2-0.5c-0.4-0.1-0.9-0.2-1.5-0.2c-1.2,0-2.1,0.3-2.6,0.9
		c-0.5,0.6-0.8,1.4-0.8,2.5v5.1c0,1.1,0.3,1.9,0.8,2.5c0.5,0.6,1.4,0.9,2.6,0.9c0.6,0,1.1-0.1,1.5-0.2c0.4-0.1,0.8-0.3,1.2-0.5
		c0.1,0,0.3-0.1,0.4-0.1c0.1,0,0.3-0.1,0.5-0.1c0.6,0,1.1,0.2,1.4,0.5s0.4,0.7,0.4,1.1c0,0.5-0.2,1-0.6,1.3
		c-0.4,0.3-0.9,0.6-1.5,0.8c-0.6,0.2-1.2,0.3-1.8,0.4c-0.6,0.1-1.2,0.1-1.7,0.1c-1.2,0-2.2-0.2-3.1-0.5c-0.9-0.3-1.6-0.8-2.1-1.4
		c-0.6-0.6-1-1.3-1.3-2.2c-0.3-0.8-0.4-1.7-0.4-2.6V293.9z"/>
	<path class="st5" d="M110.4,293.6c0-2.1-1.1-3.2-3.3-3.2c-0.5,0-0.9,0-1.2,0.1c-0.3,0.1-0.6,0.2-0.9,0.3l-0.7,0.3
		c-0.2,0.1-0.6,0.2-0.9,0.2c-0.5,0-0.9-0.2-1.1-0.5c-0.2-0.3-0.3-0.7-0.3-1.1c0-0.5,0.2-0.9,0.5-1.2c0.3-0.3,0.7-0.6,1.3-0.8
		c0.5-0.2,1.1-0.4,1.8-0.5c0.7-0.1,1.4-0.1,2.1-0.1c2.4,0,4.2,0.6,5.3,1.9c1.1,1.2,1.6,3.1,1.6,5.5v7.3c0,0.5,0.1,0.8,0.3,0.9
		c0.2,0.1,0.4,0.2,0.6,0.3c0.7,0.1,1.1,0.6,1.1,1.3c0,1-0.7,1.5-2.1,1.5c-1.2,0-2.2-0.5-2.9-1.6c-1.3,1.2-3,1.7-4.9,1.7
		c-2,0-3.5-0.5-4.4-1.5c-1-1-1.5-2.4-1.5-4v-0.1c0-3.6,2.2-5.4,6.7-5.4c1.1,0,2.2,0.1,3.2,0.4V293.6z M107.3,297.7
		c-0.6,0-1.1,0.1-1.5,0.2c-0.4,0.1-0.7,0.3-0.9,0.5c-0.2,0.2-0.4,0.5-0.4,0.8c-0.1,0.3-0.1,0.6-0.1,1v0.1c0,0.7,0.2,1.3,0.6,1.7
		s1.1,0.6,2.1,0.6c0.6,0,1.2-0.1,1.8-0.3c0.6-0.2,1.1-0.5,1.7-1v-3.2c-0.5-0.1-1.1-0.2-1.6-0.3C108.3,297.7,107.8,297.7,107.3,297.7
		z"/>
	<path class="st5" d="M127.5,290.8c-0.4,0-0.7,0-1.1,0c-0.3,0-0.6,0-0.9,0.1c-0.3,0-0.6,0.1-0.9,0.3c-0.3,0.1-0.7,0.3-1.1,0.5
		c0,0.2,0,0.3,0.1,0.5c0,0.1,0,0.3,0,0.4V304c0,0.5-0.2,1-0.6,1.3s-0.8,0.5-1.4,0.5c-0.6,0-1-0.2-1.4-0.5s-0.6-0.8-0.6-1.3v-11.5
		c0-0.5,0-0.9-0.1-1.2c-0.1-0.3-0.2-0.6-0.4-0.9c-0.1-0.1-0.2-0.3-0.3-0.4c-0.1-0.1-0.1-0.3-0.1-0.5c0-0.5,0.2-0.9,0.6-1.2
		c0.4-0.3,0.8-0.5,1.3-0.5c0.3,0,0.6,0.1,0.9,0.3c0.3,0.2,0.5,0.4,0.7,0.8c0.8-0.5,1.6-0.9,2.5-1.1c0.9-0.3,1.6-0.4,2.2-0.4
		c0.9,0,1.5,0.2,1.9,0.5c0.3,0.3,0.5,0.8,0.5,1.3c0,0.6-0.2,1-0.6,1.4C128.5,290.7,128.1,290.9,127.5,290.8z"/>
	<path class="st5" d="M-39.5,326.9c0-0.5,0.2-0.9,0.5-1.3c0.3-0.3,0.8-0.5,1.4-0.5c0.6,0,1.1,0.2,1.4,0.5c0.3,0.4,0.5,0.8,0.5,1.3
		v4.5h3.2c0.5,0,0.9,0.2,1.3,0.5c0.4,0.3,0.5,0.8,0.5,1.3c0,0.5-0.2,0.9-0.5,1.2c-0.4,0.3-0.8,0.5-1.3,0.5h-3.2v6.3
		c0,0.8,0,1.5,0.1,2c0,0.6,0.2,1,0.3,1.3c0.2,0.3,0.4,0.6,0.7,0.7c0.3,0.2,0.7,0.2,1.3,0.2c0.1,0,0.2,0,0.4,0c0.1,0,0.2,0,0.3,0
		c0.8,0,1.4,0.1,1.8,0.3c0.4,0.2,0.6,0.7,0.6,1.3c0,0.4-0.1,0.7-0.2,1c-0.2,0.3-0.4,0.4-0.6,0.6c-0.3,0.1-0.6,0.2-0.9,0.3
		c-0.3,0-0.7,0.1-1,0.1c-1.3,0-2.4-0.2-3.3-0.5c-0.9-0.3-1.5-0.8-2-1.4c-0.5-0.6-0.9-1.4-1-2.4c-0.2-0.9-0.3-2-0.3-3.3V326.9z"/>
	<path class="st5" d="M-19,334c-0.4,0-0.7,0-1.1,0c-0.3,0-0.6,0-0.9,0.1c-0.3,0-0.6,0.1-0.9,0.3c-0.3,0.1-0.7,0.3-1.1,0.5
		c0,0.2,0,0.3,0.1,0.5c0,0.1,0,0.3,0,0.4v11.5c0,0.5-0.2,1-0.6,1.3s-0.8,0.5-1.4,0.5c-0.6,0-1-0.2-1.4-0.5s-0.6-0.8-0.6-1.3v-11.5
		c0-0.5,0-0.9-0.1-1.2c-0.1-0.3-0.2-0.6-0.4-0.9c-0.1-0.1-0.2-0.3-0.3-0.4c-0.1-0.1-0.1-0.3-0.1-0.5c0-0.5,0.2-0.9,0.6-1.2
		c0.4-0.3,0.8-0.5,1.3-0.5c0.3,0,0.6,0.1,0.9,0.3c0.3,0.2,0.5,0.4,0.7,0.8c0.8-0.5,1.6-0.9,2.5-1.1c0.9-0.3,1.6-0.4,2.2-0.4
		c0.9,0,1.5,0.2,1.9,0.5c0.3,0.3,0.5,0.8,0.5,1.3c0,0.6-0.2,1-0.6,1.4C-18,333.9-18.5,334.1-19,334z"/>
	<path class="st5" d="M-5.2,336.8c0-2.1-1.1-3.2-3.3-3.2c-0.5,0-0.9,0-1.2,0.1c-0.3,0.1-0.6,0.2-0.9,0.3l-0.7,0.3
		c-0.2,0.1-0.6,0.2-0.9,0.2c-0.5,0-0.9-0.2-1.1-0.5c-0.2-0.3-0.3-0.7-0.3-1.1c0-0.5,0.2-0.9,0.5-1.2c0.3-0.3,0.7-0.6,1.3-0.8
		c0.5-0.2,1.1-0.4,1.8-0.5c0.7-0.1,1.4-0.1,2.1-0.1c2.4,0,4.2,0.6,5.3,1.9c1.1,1.2,1.6,3.1,1.6,5.5v7.3c0,0.5,0.1,0.8,0.3,0.9
		c0.2,0.1,0.4,0.2,0.6,0.3c0.7,0.1,1.1,0.6,1.1,1.3c0,1-0.7,1.5-2.1,1.5c-1.2,0-2.2-0.5-2.9-1.6c-1.3,1.2-3,1.7-4.9,1.7
		c-2,0-3.5-0.5-4.4-1.5c-1-1-1.5-2.4-1.5-4v-0.1c0-3.6,2.2-5.4,6.7-5.4c1.1,0,2.2,0.1,3.2,0.4V336.8z M-8.4,340.9
		c-0.6,0-1.1,0.1-1.5,0.2c-0.4,0.1-0.7,0.3-0.9,0.5c-0.2,0.2-0.4,0.5-0.4,0.8c-0.1,0.3-0.1,0.6-0.1,1v0.1c0,0.7,0.2,1.3,0.6,1.7
		s1.1,0.6,2.1,0.6c0.6,0,1.2-0.1,1.8-0.3c0.6-0.2,1.1-0.5,1.7-1v-3.2c-0.5-0.1-1.1-0.2-1.6-0.3C-7.4,340.9-7.9,340.9-8.4,340.9z"/>
	<path class="st5" d="M3.9,324.5c0-0.5,0.2-0.9,0.5-1.2c0.3-0.3,0.8-0.5,1.4-0.5c0.6,0,1.1,0.2,1.4,0.5c0.3,0.3,0.5,0.8,0.5,1.2v7
		c0.6-0.4,1.3-0.7,2-0.9c0.7-0.2,1.5-0.3,2.4-0.3c1.1,0,2,0.1,2.8,0.4c0.8,0.3,1.4,0.7,1.9,1.2c0.5,0.5,0.8,1.1,1.1,1.8
		c0.2,0.7,0.3,1.5,0.3,2.3v6.4c0,0.9-0.2,1.8-0.5,2.6c-0.3,0.8-0.7,1.5-1.3,2.1c-0.6,0.6-1.3,1.1-2.2,1.4c-0.9,0.3-1.9,0.5-3.1,0.5
		c-1.1,0-2.1-0.2-3-0.5c-0.9-0.3-1.6-0.7-2.3-1.2c-0.6-0.5-1.1-1.2-1.4-1.9c-0.3-0.7-0.5-1.5-0.5-2.3V324.5z M7.8,343.2
		c0,0.8,0.3,1.5,0.9,1.9c0.6,0.5,1.4,0.7,2.4,0.7c1.1,0,1.9-0.3,2.4-0.8c0.5-0.6,0.8-1.3,0.8-2.3V336c0-0.8-0.2-1.5-0.7-1.9
		c-0.5-0.5-1.2-0.7-2.3-0.7c-1.4,0-2.6,0.5-3.5,1.4V343.2z"/>
	<path class="st5" d="M31.2,336.8c0-2.1-1.1-3.2-3.3-3.2c-0.5,0-0.9,0-1.2,0.1c-0.3,0.1-0.6,0.2-0.9,0.3l-0.7,0.3
		c-0.2,0.1-0.6,0.2-0.9,0.2c-0.5,0-0.9-0.2-1.1-0.5c-0.2-0.3-0.3-0.7-0.3-1.1c0-0.5,0.2-0.9,0.5-1.2c0.3-0.3,0.7-0.6,1.3-0.8
		c0.5-0.2,1.1-0.4,1.8-0.5c0.7-0.1,1.4-0.1,2.1-0.1c2.4,0,4.2,0.6,5.3,1.9c1.1,1.2,1.6,3.1,1.6,5.5v7.3c0,0.5,0.1,0.8,0.3,0.9
		c0.2,0.1,0.4,0.2,0.6,0.3c0.7,0.1,1.1,0.6,1.1,1.3c0,1-0.7,1.5-2.1,1.5c-1.2,0-2.2-0.5-2.9-1.6c-1.3,1.2-3,1.7-4.9,1.7
		c-2,0-3.5-0.5-4.4-1.5c-1-1-1.5-2.4-1.5-4v-0.1c0-3.6,2.2-5.4,6.7-5.4c1.1,0,2.2,0.1,3.2,0.4V336.8z M28.1,340.9
		c-0.6,0-1.1,0.1-1.5,0.2c-0.4,0.1-0.7,0.3-0.9,0.5c-0.2,0.2-0.4,0.5-0.4,0.8c-0.1,0.3-0.1,0.6-0.1,1v0.1c0,0.7,0.2,1.3,0.6,1.7
		s1.1,0.6,2.1,0.6c0.6,0,1.2-0.1,1.8-0.3c0.6-0.2,1.1-0.5,1.7-1v-3.2c-0.5-0.1-1.1-0.2-1.6-0.3C29,340.9,28.5,340.9,28.1,340.9z"/>
	<path class="st5" d="M44.5,349.2c0,1-0.1,1.9-0.4,2.8c-0.3,0.8-0.7,1.6-1.2,2.2c-0.5,0.6-1.2,1.1-2,1.4c-0.8,0.3-1.7,0.5-2.6,0.5
		c-0.5,0-1-0.2-1.3-0.5c-0.3-0.3-0.5-0.7-0.5-1.2c0-0.5,0.2-0.8,0.5-1.1c0.3-0.3,0.7-0.4,1-0.5c0.8-0.2,1.5-0.5,1.9-1
		c0.5-0.5,0.7-1.3,0.7-2.4v-17.1c0-0.5,0.2-0.9,0.6-1.3c0.4-0.4,0.8-0.5,1.4-0.5c0.6,0,1,0.2,1.4,0.5c0.4,0.4,0.6,0.8,0.6,1.3V349.2
		z M44.9,325.1c0,0.6-0.2,1.1-0.7,1.5c-0.4,0.4-1,0.6-1.6,0.6c-0.6,0-1.2-0.2-1.6-0.6c-0.4-0.4-0.6-0.9-0.6-1.5
		c0-0.6,0.2-1.1,0.6-1.5c0.4-0.4,1-0.6,1.6-0.6c0.6,0,1.2,0.2,1.6,0.6C44.6,324.1,44.9,324.6,44.9,325.1z"/>
	<path class="st5" d="M56.3,349c-1.2,0-2.3-0.2-3.1-0.5c-0.9-0.3-1.7-0.8-2.3-1.4c-0.6-0.6-1.1-1.3-1.4-2.1
		c-0.3-0.8-0.5-1.7-0.5-2.6v-5.7c0-0.9,0.2-1.8,0.5-2.6c0.3-0.8,0.8-1.5,1.4-2.1c0.6-0.6,1.4-1,2.3-1.4c0.9-0.3,1.9-0.5,3.1-0.5
		c1.2,0,2.2,0.2,3.1,0.5c0.9,0.3,1.7,0.8,2.3,1.4c0.6,0.6,1.1,1.3,1.4,2.1s0.5,1.7,0.5,2.6v5.7c0,0.9-0.2,1.8-0.5,2.6
		c-0.3,0.8-0.8,1.5-1.4,2.1c-0.6,0.6-1.4,1.1-2.3,1.4C58.5,348.9,57.5,349,56.3,349z M56.3,345.6c1.1,0,2-0.3,2.5-0.8
		c0.6-0.6,0.8-1.3,0.8-2.3v-5.7c0-1-0.3-1.7-0.8-2.3c-0.6-0.6-1.4-0.8-2.5-0.8c-1.1,0-2,0.3-2.5,0.8c-0.6,0.6-0.8,1.3-0.8,2.3v5.7
		c0,1,0.3,1.8,0.8,2.3C54.3,345.4,55.1,345.6,56.3,345.6z"/>
	<path class="st5" d="M75.9,339.5c-0.1,0.1-0.2,0.3-0.2,0.6s0,0.5,0,0.7c-0.1,0.5-0.3,0.9-0.6,1.3c-0.3,0.4-0.8,0.6-1.3,0.6
		c-0.6,0-1.1-0.2-1.5-0.6c-0.3-0.4-0.5-1-0.5-1.7c0-0.5,0.2-1,0.4-1.4c0.2-0.4,0.4-0.9,0.7-1.3c0.3-0.4,0.6-0.8,0.9-1.2
		c0.3-0.4,0.6-0.7,1-1.1l0.8-0.9c0.5-0.6,1-1.2,1.4-1.9c0.5-0.7,0.7-1.5,0.6-2.4c0-1.1-0.3-2-1-2.7c-0.7-0.8-1.7-1.2-3-1.2
		c-0.6,0-1.1,0-1.6,0.1c-0.5,0.1-1,0.3-1.5,0.5c-0.4,0.2-0.8,0.4-1.1,0.6c-0.3,0.2-0.7,0.4-1.1,0.4c-0.5,0-0.9-0.2-1.3-0.5
		s-0.6-0.8-0.6-1.3c0-0.6,0.3-1.1,0.8-1.5s1.2-0.8,1.9-1.1c0.8-0.3,1.6-0.5,2.4-0.6c0.9-0.1,1.6-0.2,2.3-0.2c1.2,0,2.2,0.2,3.2,0.5
		c1,0.4,1.8,0.9,2.4,1.5c0.7,0.6,1.2,1.4,1.5,2.3c0.4,0.9,0.5,1.8,0.5,2.9c0,1.3-0.2,2.4-0.6,3.3s-0.9,1.8-1.5,2.5
		c-0.6,0.7-1.2,1.4-1.8,2C76.8,338.3,76.3,338.9,75.9,339.5z M76.1,346.7c0,0.6-0.2,1.2-0.7,1.7c-0.5,0.5-1.1,0.7-1.7,0.7
		c-0.7,0-1.3-0.2-1.8-0.7c-0.5-0.5-0.7-1-0.7-1.7s0.2-1.2,0.7-1.7c0.5-0.5,1.1-0.7,1.8-0.7c0.7,0,1.2,0.2,1.7,0.7
		C75.9,345.5,76.1,346.1,76.1,346.7z"/>
</g>
</svg>
