<?xml version="1.0" encoding="utf-8"?>
<!-- Generator: Adobe Illustrator 16.0.0, SVG Export Plug-In . SVG Version: 6.00 Build 0)  -->
<!DOCTYPE svg PUBLIC "-//W3C//DTD SVG 1.1//EN" "http://www.w3.org/Graphics/SVG/1.1/DTD/svg11.dtd">
<svg version="1.1" id="Capa_1" xmlns="http://www.w3.org/2000/svg" xmlns:xlink="http://www.w3.org/1999/xlink" x="0px" y="0px"
	 width="59px" height="58.25px" viewBox="0 0 59 58.25" enable-background="new 0 0 59 58.25" xml:space="preserve">
<circle fill="none" stroke="#1D4B66" stroke-width="2" stroke-linecap="round" stroke-miterlimit="10" cx="30.292" cy="29.661" r="26.051"/>
<g>
	<path fill="#1B98C6" stroke="#1D4B66" stroke-width="0.85" stroke-miterlimit="10" d="M22.85,35.475
		c-0.044-0.037-0.884-0.791-1.093-1.055c-0.201-0.268-0.589-0.339-0.797-0.445c-0.208-0.11-1.566-0.554-1.89-0.324
		c-0.324,0.236-0.769,0.372-0.942,0c-0.165-0.374-0.251-0.426-0.495-0.484c-0.238-0.048-0.116-0.337-0.13-0.587
		c-0.021-0.253-0.157-0.52-0.33-0.34c-0.166,0.182-0.747,0.649-0.834,0.412c-0.086-0.23-0.496-1.195,0.123-1.374
		c0.61-0.179,1.121-0.072,1.278,0.087c0.151,0.156,0.267,0.611,0.461,0.552c0.187-0.058,0.085-0.396,0.15-0.675
		c0.072-0.287,0.517-0.661,0.719-1.056c0.201-0.396,0.237-0.626,0.488-0.733c0.258-0.107,0.396-0.25,0.632-0.432
		c0.245-0.179,0.619-0.335,0.755-0.423c0.137-0.094,0.748-0.396,0.956-0.346c0.202,0.058,0.338-0.014,0.167-0.315
		c-0.167-0.31-0.39-1.222-0.712-1.63c-0.324-0.411-0.36-0.52-0.511-0.908c-0.158-0.394-0.331-0.732-0.445-0.467
		c-0.123,0.267-0.375,0.625-0.511,0.288c-0.137-0.346-0.122-0.324-0.295-0.481c-0.164-0.166-0.308-0.201-0.546-0.272
		c-0.236-0.074-0.474,0.02-0.459,0.25c0.021,0.23-0.223,0.648-0.064,0.95c0.15,0.309,0.287,0.625,0.085,0.732
		c-0.208,0.109,0,0.754-0.208,0.734c-0.201-0.015-0.302,0.021-0.302-0.215c0-0.231,0.101-0.591-0.28-0.591
		c-0.374,0-0.59-0.193-0.863-0.396c-0.273-0.193-0.496-0.084-0.431-0.532c0.071-0.445-0.03-0.61,0.273-0.854
		c0.309-0.252,0.38-0.396,0.596-0.29c0.223,0.109,0.374,0.109,0.519-0.019c0.136-0.124,0.388-0.074,0.388-0.23
		c0-0.159-0.288-0.159-0.251-0.426c0.028-0.272,0.165-0.128,0.215-0.573c0.05-0.447-0.324-1.13-0.696-1.037
		c-0.375,0.087-0.956,0.604-1.072,0.374c-0.122-0.23-0.359-0.128-0.819,0.037c-0.46,0.158-2.372-0.159-2.508-0.324
		c0,0-0.324-0.229-0.496-0.109c-0.166,0.131-0.848,0.072-1.057,0.037c-0.208-0.037-0.395,0.237-0.647,0.144
		c-0.258-0.087-1.157-0.267-1.365-0.411c-0.209-0.144-0.511-0.144-0.647-0.215c-0.136-0.072-0.633-0.107-0.733,0.037
		c-0.101,0.144-0.474,0.396-0.668,0.574c-0.187,0.18-0.402,0.144-0.215,0.518c0.187,0.375-0.482,0.604-0.31,1.013
		c0.166,0.411-0.036,1.524,0.647,1.733c0.683,0.215,1.243,0.344,1.639,0.021c0.395-0.321,0.991-0.321,1.178,0.037
		c0.187,0.358,0.288,0.89,0.898,1.199c0.611,0.302,1.143,1.179,1.106,1.567c-0.029,0.396,0.021,1.696,0.647,2.451
		c0.632,0.747,1.278,2.105,1.329,1.783c0.05-0.316,0.05-0.641,0.194-0.411c0.129,0.237,0.488,0.95,1.072,1.071
		c0.582,0.129,0.869,0.167,1.091,0.381c0.216,0.215,0.41,0.339,0.647,0.445c0.238,0.109,0.82,0.433,0.934,0.64
		c0.123,0.215,0.072,0.503-0.05,0.826c-0.115,0.324-0.251,0.642-0.085,0.951c0.171,0.302,0.531,1.177,0.819,1.373
		c0.294,0.2,0.582,0.515,0.51,0.96c-0.065,0.446-0.389,2.365-0.353,2.789c0.029,0.431-0.395,1.839-0.05,2.415
		c0.337,0.568,0.919,0.749,1.171,0.677c0.259-0.074,0.057-0.086-0.064-0.361c-0.123-0.264-0.108-0.604,0.036-0.855
		c0.136-0.25,0.136-0.394,0.064-0.675c-0.064-0.289-0.036-0.454,0.137-0.66c0.173-0.216,0.883-0.792,1.106-1.045
		c0.223-0.242,1.625-1.961,1.811-2.105c0.187-0.142,0.611-0.481,0.748-1.021c0.137-0.532,0.632-1.588,0.295-1.854
		C24.164,35.705,22.907,35.511,22.85,35.475L22.85,35.475z M22.85,35.475"/>
	<path fill="#1B98C6" stroke="#1D4B66" stroke-width="0.85" stroke-miterlimit="10" d="M26.263,20.398
		c0.093-0.194,0.33-0.669,0.459-0.927h-5.404c0.064,0.287,0.301,1.35,0.258,1.782c-0.058,0.503,0.1,0.323,0.237,0.525
		c0.137,0.192,0.101,0.495,0.016,0.724c-0.086,0.237-0.137,0.755,0.136,1.359c0.273,0.611,0.597,1.38,0.869,1.416
		c0.273,0.036,0.208,0.423,0.396,0.28c0.187-0.144,0.215-0.46,0.373-0.927c0.151-0.46,0.151-0.803,0.546-1.034
		c0.396-0.23,1.48-0.985,1.725-1.251c0.237-0.265,0.511-0.374,0.424-0.841C26.213,21.044,26.126,20.663,26.263,20.398L26.263,20.398
		z M26.263,20.398"/>
	<path fill="#1B98C6" stroke="#1D4B66" stroke-width="0.85" stroke-miterlimit="10" d="M52.86,22.502
		c-0.21-0.143-1.437-1.12-1.961-0.999c-0.533,0.129-1.469-0.287-1.625-0.374c-0.15-0.086-1.409-0.475-2.077-0.502
		c-0.331-0.007-1.718-0.316-2.3-0.568c-0.582-0.252-1.078-1.481-2.184-1.286c-0.144,0.027-1.481,0.215-1.818,0.516
		c-0.345,0.31-0.497,0.661-0.684,0.733c-0.187,0.074-0.733,0.037-0.733,0.304c0,0.272,0.188,1.09-0.035,0.933
		c-0.222-0.164-0.445-0.54-0.546-0.25c-0.101,0.287-0.274,0.445-0.375,0.336c-0.101-0.107-0.618,0-0.682,0.181
		s-0.732,0.588-1.02,0.646c-0.295,0.051-0.41,0.194-0.568,0.267c-0.152,0.071-1.308,0.611-1.531,0.41
		c-0.223-0.195-0.288-0.071-0.424-0.037c0,0-0.409-0.072-0.668-0.388c-0.258-0.323-0.308-0.214-0.596-0.517
		c-0.288-0.309-0.36-0.611-0.647-0.483c-0.288,0.124-1.516,1.388-1.998,1.964c-0.475,0.566-1.322,1.157-0.897,1.565
		c0.423,0.417,0.646,0.359,0.697,0.589c0.057,0.237,0.107,0.488,0.172,0.576c0.064,0.093,0.475,0.41,0.683-0.016
		c0.208-0.43,0.237-0.732,0.474-0.66c0.244,0.065,0.288,0.23,0.172,0.554c-0.122,0.323-0.208,0.819-0.618,0.797
		c-0.402-0.015-0.848-0.265-0.985-0.208c-0.136,0.049-0.223,0.181-0.373,0.301c-0.159,0.122-0.632,0.712-0.956,0.805
		c-0.323,0.086-0.718,0.014-0.496,0.281c0.222,0.272,0.546,0.863,0.237,0.841c-0.302-0.015-0.819-0.072-0.847,0.237
		c-0.037,0.302-0.174,0.48-0.101,0.689c0.064,0.216,0.286,0.632,0.56,0.488s0.797-0.287,0.934-0.611
		c0.137-0.322,0.294-0.675,0.632-0.66c0.337,0.021,1.164,0.467,1.106,0.625c-0.049,0.158-0.216,0.539-0.014,0.409
		c0.201-0.122,0.374-0.265,0.495-0.314c0.116-0.06,0.273,0.178,0.324,0.264c0.05,0.094,0.388,0.266,0.46-0.022
		c0.064-0.28,0.136-0.064,0.337,0.022c0.208,0.094,0.818,0.158,0.906,0.229c0.086,0.072,0.272,0.288,0.035,0.576
		c-0.244,0.281-0.517,0.394-0.905,0.179c-0.395-0.215-0.818,0.181-1.258-0.035c-0.445-0.214-0.243-0.519-0.769-0.734
		c-0.524-0.215-1.725,0.051-2.098,0.158c-0.374,0.109-0.396,0.144-0.546,0.325c-0.151,0.18-1.157,1.337-1.157,1.997
		c0,0.662,0.374,2.451,1.581,2.271c1.214-0.178,1.947-0.072,1.811,0.282c-0.136,0.357-0.065,0.453,0.151,0.86
		c0.223,0.41,0.733,3.141,0.82,3.588c0.086,0.453-0.065,1.019,0.495,0.932c0.568-0.091,1.164-0.235,1.395-0.754
		c0.244-0.518,0.28-1.105,0.581-1.407c0.31-0.302,0.684-0.302,0.72-0.735c0.028-0.431-0.087-1.445,0.122-1.681
		c0.201-0.23,1.157-1.301,1.257-1.731c0.101-0.425,0.237-0.531-0.15-0.531c-0.396,0-1.064-0.06-1.25-0.412
		c-0.188-0.357-0.633-1.041-0.633-1.198c0-0.158,0.273-0.144,0.411,0.192c0.136,0.34,0.618,1.358,1.164,1.143
		c0.538-0.216,1.307-0.46,1.329-0.803c0.015-0.34-0.245-0.728-0.517-0.713c-0.274,0.023-0.562-0.18-0.562-0.373
		c0-0.195,0.051-0.122,0.374,0c0.324,0.121,0.433,0.338,0.92,0.373c0.497,0.038,1.056,0.518,1.329,0.733
		c0.274,0.217,0.755,1.683,0.871,1.827c0.122,0.144,0.258,0.144,0.38-0.144c0.116-0.29,0.626-1.202,0.92-1.453
		c0.288-0.243,0.303-0.59,0.475-0.374c0.172,0.217,0.905,0.756,0.956,1.071c0.05,0.323-0.037,1.02,0.115,0.805
		c0.158-0.214,0.28-0.66,0.41-0.46c0.137,0.194,0.137,0.496,0.46,0.266c0.33-0.23,0.892-0.322,0.582-0.82
		c-0.302-0.5-0.1-0.803,0.087-0.817c0.186-0.023,1.465-0.253,1.501-0.95c0.035-0.698-0.445-1.071-0.223-1.429
		c0.223-0.358,0.545-0.683,0.618-0.467c0.064,0.215-0.173,0.913,0.129,0.804c0.309-0.107,0.668-0.107,0.668-0.323
		s-0.071-0.755,0.073-0.892c0.136-0.144,1.134-1.091,1.256-1.466c0.123-0.374,0.346-0.697,0.152-0.984
		c-0.188-0.279-0.511-0.193-0.252-0.554c0.252-0.352,0.683-0.683,1.006-0.71c1.035-0.093,0.74,1.186,0.761,1.474
		c0.015,0.287,0.015,0.998,0.174,0.639c0.15-0.352,0.323-0.791,0.632-1.093c0.309-0.31,0.48-0.502,0.496-0.77
		c0.022-0.271,0.036-0.359,0.324-0.502c0.294-0.144,1.567-0.648,1.688-0.985c0.123-0.338-0.151-0.641,0.15-0.618
		c0.31,0.014,0.597,0.351,0.755,0.172c0.151-0.172,0.496-0.497,0.475-0.677C53.557,23.057,53.062,22.646,52.86,22.502L52.86,22.502z
		 M52.86,22.502"/>
	<path fill="#1B98C6" stroke="#1D4B66" stroke-width="0.85" stroke-miterlimit="10" d="M47.355,28.504
		c-0.106,0.237-0.158,0.272-0.308,0.754c-0.159,0.481-0.108,0.352-0.259,0.661c-0.15,0.302-0.409,0.338-0.661,0.532
		c-0.259,0.202-0.324,0.59-0.324,0.59c-0.223,0.309,0.899-0.424,1.293-0.662c0.389-0.23,0.288-0.496,0.324-0.869
		c0.035-0.381,0.136-0.433,0.301-0.596c0.173-0.159,0.037-0.482-0.043-0.712C47.592,27.973,47.456,28.275,47.355,28.504
		L47.355,28.504z M47.355,28.504"/>
	<path fill="#1B98C6" stroke="#1D4B66" stroke-width="0.85" stroke-miterlimit="10" d="M43.855,36.618
		c0.123-0.086,0.036-0.286,0.224-0.252c0.186,0.037,0.359,0.144,0.582,0.022c0.223-0.128,0.41-0.072,0.374-0.286
		c-0.036-0.216,0-0.498-0.05-0.676c-0.051-0.182-0.359-0.237-0.583-0.038c-0.223,0.196-0.524,0.503-0.524,0.389
		c0-0.101,0.129-0.389,0.064-0.568c-0.064-0.178,0.037-0.336-0.309-0.194c-0.337,0.144-0.524,0.11-0.647,0.301
		c-0.114,0.201-0.251,0.54-0.459,0.325c-0.201-0.215-0.798-0.663-0.798-0.663c-0.05-0.058-0.732-0.611-0.496-0.229
		c0.237,0.375,0.596,1.013,0.77,1.243c0.165,0.236,0.351,0.504,0.56,0.38c0.202-0.129,0.236-0.165,0.511,0
		C43.345,36.531,43.742,36.712,43.855,36.618L43.855,36.618z M43.855,36.618"/>
	<path fill="#1B98C6" stroke="#1D4B66" stroke-width="0.85" stroke-miterlimit="10" d="M48.031,36.116
		c-0.323-0.146-0.187-0.267-0.576-0.339c-0.395-0.072-0.718,0-0.826-0.072c-0.101-0.072-0.612-0.244-0.539,0
		c0.064,0.253,0.524,0.326,0.647,0.397c0.114,0.072-0.172,0.229,0.05,0.357c0.216,0.122,0.374,0.352,0.662,0.28
		c0.294-0.072,0.395,0.093,0.632,0.131c0.237,0.034,0.474-0.038,0.374-0.144c-0.101-0.109-0.166-0.253-0.151-0.375
		C48.325,36.222,48.355,36.26,48.031,36.116L48.031,36.116z M48.031,36.116"/>
	<path fill="#1B98C6" stroke="#1D4B66" stroke-width="0.85" stroke-miterlimit="10" d="M47.866,37.712
		c-0.122-0.361-0.41-1.022-0.481-0.699c-0.065,0.318-0.524,0.555-0.698,0.532c-0.158-0.014-0.071-0.18-0.071-0.324
		c0-0.143-0.087-0.278-0.475-0.172c-0.395,0.101-0.474,0.482-0.582,0.448c-0.1-0.038-0.373-0.109-0.546,0.085
		c-0.165,0.201-0.324,0.575-0.524,0.646c-0.208,0.072-0.891,0.159-0.891,0.445c0,0.288,0.172,0.712,0.158,0.951
		c-0.022,0.228-0.331,0.76,0.086,0.928c0.238,0.093,0.402,0.105,0.683-0.038c0.266-0.145,1.444-0.518,1.603-0.396
		c0.151,0.131,0.395,0.424,0.51,0.481c0.215,0.129,0.272,0.431,0.56,0.505c0.288,0.071,0.511,0.106,0.632,0.106
		c0.123,0,0.546-0.144,0.647-0.396c0.101-0.25,0.287-0.841,0.373-1.128c0.087-0.278,0.173-0.604-0.086-0.855
		C48.511,38.586,47.981,38.062,47.866,37.712L47.866,37.712z M47.866,37.712"/>
</g>
</svg>
