<!-- Generator: Adobe Illustrator 19.0.0, SVG Export Plug-In  -->
<svg version="1.1"
	 xmlns="http://www.w3.org/2000/svg" xmlns:xlink="http://www.w3.org/1999/xlink" xmlns:a="http://ns.adobe.com/AdobeSVGViewerExtensions/3.0/"
	 x="0px" y="0px" width="64.3px" height="45px" viewBox="0 0 64.3 45" style="enable-background:new 0 0 64.3 45;"
	 xml:space="preserve">
<style type="text/css">
	.st0{fill:#D7D3E8;}
	.st1{fill:#DFDEE4;}
	.st2{fill:#F7F7F8;stroke:#1C4A65;stroke-width:3.4571;stroke-miterlimit:10;}
	.st3{fill:none;stroke:#1C4A65;stroke-width:3.4571;stroke-linecap:round;stroke-miterlimit:10;}
	.st4{fill:#1C4A65;}
	.st5{fill:none;stroke:#1C4A65;stroke-width:1.8623;stroke-linecap:round;stroke-miterlimit:10;}
</style>
<defs>
</defs>
<g>
	<g>
		<ellipse transform="matrix(0.9824 -0.1868 0.1868 0.9824 -3.9529 6.4333)" class="st0" cx="32.2" cy="24.2" rx="32.5" ry="20.3"/>
	</g>
	<g>
		<path class="st1" d="M35.4,39.6c1.5-0.5,2.9-1,4.4-1.6c-0.1,0-0.2-0.1-0.2-0.1c0.4-0.2,0.8-0.4,1.1-0.6c4.4-2.4,9.5-8.1,7-13.1
			c-2.7-5.5-7.9,2.1-9.6,4.2c-1.9,2.2-4.7,3.5-7.5,3.7c-0.6-0.3-1.2-0.3-1.7,0c-3.2-0.2-6.2-1.8-7.7-4.9c-0.6-1.3-2.4-0.6-2.6,0.6
			c-1.2-0.6-2.7,0.7-1.9,1.9c0.3,0.5,0.7,1,1,1.4c0.3,1.3,1.2,2.4,2.2,3.3c0.3,0.3,0.7,0.4,1,0.4c0,0.3,0.2,0.6,0.4,0.8
			c4.3,3.3,9.3,4.7,14.3,3.7C35.6,39.3,35.5,39.5,35.4,39.6"/>
		<circle class="st2" cx="32.9" cy="24.3" r="15.6"/>
		<path class="st3" d="M26.3,10.3c0,0,13.4,1.5,18.3-8.5"/>
		<g>
			<circle class="st4" cx="28.4" cy="20.7" r="1.9"/>
			<circle class="st4" cx="37.7" cy="20.7" r="1.9"/>
			<path class="st5" d="M27.8,32c1-4.4,3.4,1.1,5.9-0.8c1-0.7,1-2.2,2.2-2.8c1.2-0.6,2.3,0.3,2.7,1.5"/>
		</g>
	</g>
</g>
</svg>
