<?xml version="1.0" encoding="utf-8"?>
<!-- Generator: Adobe Illustrator 19.0.0, SVG Export Plug-In . SVG Version: 6.00 Build 0)  -->
<svg version="1.1" id="Capa_1" xmlns="http://www.w3.org/2000/svg" xmlns:xlink="http://www.w3.org/1999/xlink" x="0px" y="0px"
	 viewBox="0 0 50.7 29.2" style="enable-background:new 0 0 50.7 29.2;" xml:space="preserve">
<style type="text/css">
	.st0{fill:#FFFFFF;}
	.st1{fill:#E0DFE6;}
	.st2{fill:#1F4D69;}
</style>
<path id="XMLID_200_" class="st0" d="M46.7,12.2c-0.5-1.1-1.3-2.1-2.3-2.8C44.2,9.2,44,9.1,43.7,9c-0.5-0.5-1-1-1.6-1.4
	c-1.3-0.8-3.3-0.9-4.7-0.2c-0.2,0-0.5,0.1-0.7,0.2c-1-0.2-2.1,0-3,0.5c-0.2-0.6-0.4-1.1-0.8-1.7c-1.8-2.7-4.7-3.4-7.4-2.8
	c-1.1,0.1-2.2,0.5-2.9,1.3c-1.2,0.9-2.3,2.1-2.9,3.5c-0.2,0.5-0.4,1.1-0.5,1.8c-0.6,0.3-1.2,0.6-1.8,1.2c-0.1,0.1-0.2,0.3-0.4,0.4
	c-0.4,0.1-0.9,0.2-1.3,0.3c-6.5-5-17,2.9-11.3,10.2c2.4,3,5.6,2.9,8,1.4c0.4-0.1,0.8-0.2,1.1-0.4c1.8,0.5,3.6,0.4,5.2-0.4
	c1.5,0.3,3,0.2,4.4-0.4c0.3,0,0.6-0.1,0.8-0.2c2.4,1.5,5.5,1.5,7.8-0.5c0.7-0.1,1.3-0.4,1.9-0.7c0.6,0.1,1.2,0.1,1.9,0
	c0.6,0.2,1.3,0.3,2,0.3c0.5,0.2,1,0.3,1.5,0.3c0.7,0,1.4,0,2-0.1c3.2,1.7,7.1-1.1,7.2-4.5c0-0.4,0-0.9,0-1.3
	C48.3,14.3,47.7,13,46.7,12.2z"/>
<path id="XMLID_29_" class="st1" d="M6.1,21.9c3.7-0.4,7.3-0.3,10.9-0.1c-2.9,0.2-5.8,0.6-8.7,1.2c-1.3,0.3-1.3,2.3,0,2.5
	c6.8,1.5,13.9,1.4,20.9,1.7c5.2,0.2,11.9,2.1,16.6-0.9c1.9-1.2,2-3.8,0.7-5.3c3.6-0.9,3.5-6.4-0.7-6.6c-7.5-0.4-15,1.4-22.4,2
	c-6,0.5-12.3,0.7-17.8,3.5C4.7,20.4,5.1,22,6.1,21.9z"/>
<path id="XMLID_28_" class="st2" d="M1.9,22.2c0.7,0,1.2-0.6,1.2-1.2c0-6.7,4.1-10.6,8.2-10.6c2.8,0,4.8,1.6,5.8,4.8
	c0.4,1.1,1.1,1.2,1.5,1.1c1.1-0.2,1-1.2,1-1.8c0-0.6-0.1-1.6-0.1-3.3c0-5.3,2-8.1,6-8.1c4.2,0,6.9,2.4,7.5,6.6c0,0.2,0,0.5,0,0.7
	c0,0.9,0,1.5,0,1.8c0,1.1,0.5,1.7,1.3,1.7c1.3,0,1.3-1.4,1.3-2.2c0-0.7,0-1.4-0.1-2.1c0.1-1.7,0.7-2.7,3.9-2.7
	c7.2,0,7.4,10.6,7.4,11.8c0,0.4,0,0.7,0,1.1c-1.7,0-3.5,0-5.3,0c-11,0-23.8,0.1-36.3,1.4c-0.7,0.1-1.2,0.7-1.1,1.4
	c0.1,0.6,0.6,1.1,1.2,1.1c0,0,0.1,0,0.1,0c12.4-1.3,25.1-1.4,36.1-1.4c2.1,0,4.3,0,6.4,0c0.6,0,1.2-0.5,1.2-1.1
	c0.1-0.8,0.2-1.6,0.2-2.5c0-10.5-5.3-14.2-9.9-14.2c-2.5,0-4,0.6-5,1.5c-1.6-3.3-4.7-5.2-8.9-5.2c-5.2,0-8.2,3.5-8.5,9.6
	c-1.9-2-4.3-2.4-5.8-2.4C6.1,7.9,0.7,12.8,0.7,21C0.7,21.7,1.2,22.2,1.9,22.2z"/>
</svg>
