<!-- Generator: Adobe Illustrator 19.1.0, SVG Export Plug-In  -->
<svg version="1.1"
	 xmlns="http://www.w3.org/2000/svg" xmlns:xlink="http://www.w3.org/1999/xlink" xmlns:a="http://ns.adobe.com/AdobeSVGViewerExtensions/3.0/"
	 x="0px" y="0px" width="69.5px" height="49.2px" viewBox="0 0 69.5 49.2" style="enable-background:new 0 0 69.5 49.2;"
	 xml:space="preserve">
<style type="text/css">
	.st0{opacity:0.6;}
	.st1{fill:#A6A1C9;}
	.st2{fill:#1C4A65;stroke:#1C4A65;stroke-width:0.4603;stroke-miterlimit:10;}
	.st3{fill:#1B98C6;stroke:#1C4A65;stroke-width:1.2204;stroke-miterlimit:10;}
	.st4{fill:#1C4A65;stroke:#1C4A65;stroke-width:0.2322;stroke-miterlimit:10;}
	.st5{fill:#F7F7F8;stroke:#1C4A65;stroke-width:0.2322;stroke-miterlimit:10;}
	.st6{fill:#D7D8DC;}
</style>
<defs>
</defs>
<g class="st0">
	<ellipse transform="matrix(0.9824 -0.1868 0.1868 0.9824 -4.3756 6.9612)" class="st1" cx="34.7" cy="26.7" rx="35.1" ry="21.9"/>
</g>
<g>
	<polygon class="st2" points="24.7,0.2 24.7,8.5 28.2,8.5 28.2,2.3 36.3,2.3 36.3,8.5 39.8,8.5 39.8,0.2 	"/>
	<rect x="6.6" y="6.6" class="st3" width="51.3" height="37.3"/>
	<rect x="13" y="4.7" class="st2" width="3.2" height="6.1"/>
	<rect x="47.2" y="4.7" class="st2" width="3.2" height="6.1"/>
</g>
<g>
	<g>
		
			<rect x="51.5" y="25.1" transform="matrix(0.9215 0.3884 -0.3884 0.9215 18.3557 -19.69)" class="st4" width="12.8" height="20.9"/>
		
			<rect x="53.1" y="25.9" transform="matrix(0.9215 0.3884 -0.3884 0.9215 18.0605 -19.8919)" class="st5" width="10.3" height="17.6"/>
		<circle class="st5" cx="54.4" cy="43.9" r="0.8"/>
	</g>
	<path class="st6" d="M57,25l-6.6,15.7l9,3.7c0,0-4.2-3.6-2.7-6.3c1.5-2.6,2.5-5.1,2.5-7.1c0-2-1.4-5.7-1.4-5.7"/>
</g>
</svg>
