<!-- Generator: Adobe Illustrator 19.1.0, SVG Export Plug-In  -->
<svg version="1.1"
	 xmlns="http://www.w3.org/2000/svg" xmlns:xlink="http://www.w3.org/1999/xlink" xmlns:a="http://ns.adobe.com/AdobeSVGViewerExtensions/3.0/"
	 x="0px" y="0px" width="69.5px" height="58.8px" viewBox="0 0 69.5 58.8" style="enable-background:new 0 0 69.5 58.8;"
	 xml:space="preserve">
<style type="text/css">
	.st0{opacity:0.6;}
	.st1{fill:#A6A1C9;}
	.st2{fill:#7DAB39;stroke:#1C4A65;stroke-width:0.3304;stroke-miterlimit:10;}
	.st3{clip-path:url(#SVGID_2_);fill:#99989D;}
	.st4{fill:#DF9A4B;stroke:#1C4A65;stroke-width:0.4819;stroke-miterlimit:10;}
	.st5{fill:#FFFFFF;stroke:#1C4A65;stroke-width:0.4819;stroke-miterlimit:10;}
	.st6{fill:#666666;stroke:#1C4A65;stroke-width:0.4819;stroke-miterlimit:10;}
	.st7{fill:#76A9DA;stroke:#1C4A65;stroke-width:0.4819;stroke-miterlimit:10;}
	.st8{fill:#7DAB39;stroke:#1C4A65;stroke-width:0.5869;stroke-miterlimit:10;}
	.st9{fill:#1C4A65;stroke:#1C4A65;stroke-width:0.4819;stroke-miterlimit:10;}
	.st10{fill:#9F5E1A;stroke:#1C4A65;stroke-width:0.4819;stroke-miterlimit:10;}
	.st11{fill:url(#SVGID_3_);stroke:#1C4A65;stroke-width:0.4819;stroke-miterlimit:10;}
	.st12{clip-path:url(#SVGID_5_);fill:#99989D;}
	.st13{fill:url(#SVGID_6_);stroke:#1C4A65;stroke-width:0.4819;stroke-miterlimit:10;}
</style>
<defs>
</defs>
<g class="st0">
	<ellipse transform="matrix(0.9824 -0.1868 0.1868 0.9824 -6.0426 7.1183)" class="st1" cx="34.7" cy="35.6" rx="35.1" ry="21.9"/>
</g>
<g>
	<ellipse class="st2" cx="34.1" cy="55.7" rx="29.1" ry="3"/>
	<g>
		<defs>
			<polygon id="SVGID_1_" points="41.1,27.7 41.1,12.1 9.5,12.1 9.5,27.7 9.5,54.9 41.1,54.9 58.8,54.9 58.8,34.7 			"/>
		</defs>
		<use xlink:href="#SVGID_1_"  style="overflow:visible;fill:#FFFFFF;"/>
		<clipPath id="SVGID_2_">
			<use xlink:href="#SVGID_1_"  style="overflow:visible;"/>
		</clipPath>
		<rect x="8.2" y="12.1" class="st3" width="34.2" height="11.6"/>
		<use xlink:href="#SVGID_1_"  style="overflow:visible;fill:none;stroke:#1C4A65;stroke-width:0.4615;stroke-miterlimit:10;"/>
	</g>
	<path class="st4" d="M53.8,40.9C53.8,40.9,53.8,40.9,53.8,40.9c0-2.2-2.2-3.8-5-3.8c-2.8,0-5,1.7-5,3.7c0,0,0,0.1,0,0.1h0v13.9h10
		L53.8,40.9L53.8,40.9z"/>
	<path class="st5" d="M13.6,30.6H17v-3h-3.4V30.6z M23.6,30.6H27v-3h-3.4V30.6z M33.7,27.6v3H37v-3H33.7z M13.6,35.5H17v-3h-3.4
		V35.5z M23.6,35.5H27v-3h-3.4V35.5z M33.7,35.5H37v-3h-3.4V35.5z M13.6,40.3H17v-3h-3.4V40.3z M23.6,40.3H27v-3h-3.4V40.3z
		 M33.7,40.3H37v-3h-3.4V40.3z"/>
	<g>
		<polygon class="st6" points="24,32.8 27,32.8 27,32.5 23.6,32.5 23.6,35.5 24,35.5 		"/>
		<polygon class="st6" points="24,28 27,28 27,27.6 23.6,27.6 23.6,30.6 24,30.6 		"/>
		<polygon class="st6" points="34,28 37,28 37,27.6 33.7,27.6 33.7,30.6 34,30.6 		"/>
		<polygon class="st6" points="34,32.8 37,32.8 37,32.5 33.7,32.5 33.7,35.5 34,35.5 		"/>
		<polygon class="st6" points="14,28 17,28 17,27.6 13.6,27.6 13.6,30.6 14,30.6 		"/>
		<polygon class="st6" points="34,37.6 37,37.6 37,37.3 33.7,37.3 33.7,40.3 34,40.3 		"/>
		<polygon class="st6" points="24,37.6 27,37.6 27,37.3 23.6,37.3 23.6,40.3 24,40.3 		"/>
		<polygon class="st6" points="14,32.8 17,32.8 17,32.5 13.6,32.5 13.6,35.5 14,35.5 		"/>
		<polygon class="st6" points="14,37.6 17,37.6 17,37.3 13.6,37.3 13.6,40.3 14,40.3 		"/>
	</g>
	<g>
		<g>
			<rect x="13.2" y="43" class="st7" width="4.8" height="2.4"/>
			<rect x="19.7" y="43" class="st7" width="4.8" height="2.4"/>
			<rect x="26.1" y="43" class="st7" width="4.8" height="2.4"/>
			<rect x="32.6" y="43" class="st7" width="4.8" height="2.4"/>
		</g>
		<g>
			<rect x="13.2" y="47.7" class="st7" width="4.8" height="2.4"/>
			<rect x="19.7" y="47.7" class="st7" width="4.8" height="2.4"/>
			<rect x="26.1" y="47.7" class="st7" width="4.8" height="2.4"/>
			<rect x="32.6" y="47.7" class="st7" width="4.8" height="2.4"/>
		</g>
	</g>
	<rect x="8.7" y="0.3" class="st8" width="32.8" height="13.7"/>
	<rect x="8.2" y="11.6" class="st9" width="34.2" height="12.7"/>
	<path class="st4" d="M14.8,16.5c0-0.7-0.8-1.3-1.8-1.3c-1,0-1.8,0.6-1.8,1.3c0,0,0,0,0,0h0v4.2h3.6L14.8,16.5L14.8,16.5
		C14.8,16.6,14.8,16.5,14.8,16.5z M23,16.5c0-0.7-0.8-1.3-1.8-1.3c-1,0-1.8,0.6-1.8,1.3c0,0,0,0,0,0h0v4.2H23L23,16.5L23,16.5
		C23,16.6,23,16.5,23,16.5z M31.2,16.5c0-0.7-0.8-1.3-1.8-1.3c-1,0-1.8,0.6-1.8,1.3c0,0,0,0,0,0h0v4.2h3.6L31.2,16.5L31.2,16.5
		C31.2,16.6,31.2,16.5,31.2,16.5z M39.4,16.6C39.4,16.6,39.4,16.5,39.4,16.6c0-0.8-0.8-1.4-1.8-1.4c-1,0-1.8,0.6-1.8,1.3
		c0,0,0,0,0,0h0v4.2h3.6L39.4,16.6L39.4,16.6z"/>
	<g>
		<g>
			<path class="st10" d="M11.5,16.9L11.5,16.9C11.5,16.9,11.5,16.8,11.5,16.9c0-0.8,0.8-1.4,1.8-1.4c0.5,0,0.9,0.2,1.3,0.4
				c-0.3-0.4-0.9-0.7-1.6-0.7c-1,0-1.8,0.6-1.8,1.3c0,0,0,0,0,0h0v4.2h0.3V16.9z"/>
			<path class="st10" d="M19.7,16.9L19.7,16.9C19.7,16.9,19.7,16.8,19.7,16.9c0-0.8,0.8-1.4,1.8-1.4c0.5,0,0.9,0.2,1.3,0.4
				c-0.3-0.4-0.9-0.7-1.6-0.7c-1,0-1.8,0.6-1.8,1.3c0,0,0,0,0,0h0v4.2h0.3V16.9z"/>
			<path class="st10" d="M36.2,16.9L36.2,16.9C36.2,16.9,36.2,16.8,36.2,16.9c0-0.8,0.8-1.4,1.8-1.4c0.5,0,0.9,0.2,1.3,0.4
				c-0.3-0.4-0.9-0.7-1.6-0.7c-1,0-1.8,0.6-1.8,1.3c0,0,0,0,0,0h0v4.2h0.3V16.9z"/>
			<path class="st10" d="M27.9,16.9L27.9,16.9C27.9,16.9,27.9,16.8,27.9,16.9c0-0.8,0.8-1.4,1.8-1.4c0.5,0,0.9,0.2,1.3,0.4
				c-0.3-0.4-0.9-0.7-1.6-0.7c-1,0-1.8,0.6-1.8,1.3c0,0,0,0,0,0h0v4.2h0.3V16.9z"/>
		</g>
	</g>
	<linearGradient id="SVGID_3_" gradientUnits="userSpaceOnUse" x1="51.2675" y1="38.2507" x2="46.384" y2="45.2887">
		<stop  offset="0" style="stop-color:#8ED4EE"/>
		<stop  offset="0.5054" style="stop-color:#FFFFFF"/>
		<stop  offset="1" style="stop-color:#8ED4EE"/>
	</linearGradient>
	<path class="st11" d="M44.5,41.2v2.2h3.8v-5.7C46.4,37.9,44.5,39,44.5,41.2z M49.4,37.7v5.7h3.8v-2.2C53.2,39,51.3,37.9,49.4,37.7z
		"/>
	<text transform="matrix(1 0 0 1 11.1364 3.2784)" style="fill:#F7F7F8; font-family:'MyriadPro-Bold'; font-size:2.487px;">FUNDACIÓN</text>
	<text transform="matrix(1 0 0 1 21.6042 9.921)" style="fill:#F7F7F8; font-family:'MyriadPro-Bold'; font-size:7.8225px;">DAR</text>
</g>
</svg>
