<!-- Generator: Adobe Illustrator 19.1.0, SVG Export Plug-In  -->
<svg version="1.1"
	 xmlns="http://www.w3.org/2000/svg" xmlns:xlink="http://www.w3.org/1999/xlink" xmlns:a="http://ns.adobe.com/AdobeSVGViewerExtensions/3.0/"
	 x="0px" y="0px" width="69.5px" height="52.8px" viewBox="0 0 69.5 52.8" style="enable-background:new 0 0 69.5 52.8;"
	 xml:space="preserve">
<style type="text/css">
	.st0{opacity:0.6;}
	.st1{fill:#A6A1C9;}
	.st2{fill:#434142;stroke:#1C4A65;stroke-width:0.2586;stroke-miterlimit:10;}
	.st3{fill:#B3B3B3;stroke:#1C4A65;stroke-width:0.3566;stroke-miterlimit:10;}
	.st4{fill:none;stroke:#1C4A65;stroke-width:0.3566;stroke-miterlimit:10;}
	.st5{fill:#999999;stroke:#1C4A65;stroke-width:0.3566;stroke-miterlimit:10;}
	.st6{fill:#CCCCCC;stroke:#1C4A65;stroke-width:0.3566;stroke-miterlimit:10;}
	.st7{fill:url(#SVGID_1_);stroke:#1C4A65;stroke-width:0.3566;stroke-miterlimit:10;}
	.st8{fill:#FF4612;stroke:#1C4A65;stroke-width:0.3566;stroke-miterlimit:10;}
	.st9{fill:url(#SVGID_2_);stroke:#1C4A65;stroke-width:0.3566;stroke-miterlimit:10;}
	.st10{fill:#76A9DA;stroke:#1C4A65;stroke-width:0.3566;stroke-miterlimit:10;}
	.st11{fill:#CCCCCC;stroke:#1C4A65;stroke-width:0.4756;stroke-miterlimit:10;}
	.st12{fill:url(#SVGID_3_);stroke:#1C4A65;stroke-width:0.3566;stroke-miterlimit:10;}
	.st13{fill:url(#SVGID_4_);stroke:#1C4A65;stroke-width:0.3566;stroke-miterlimit:10;}
</style>
<defs>
</defs>
<g class="st0">
	<ellipse transform="matrix(0.9824 -0.1868 0.1868 0.9824 -5.0518 7.025)" class="st1" cx="34.7" cy="30.3" rx="35.1" ry="21.9"/>
</g>
<g>
	<ellipse class="st2" cx="35" cy="47.7" rx="32.1" ry="4.2"/>
	<g>
		<rect x="41.1" y="12.2" class="st3" width="19.4" height="8.6"/>
		<polyline class="st4" points="27.5,11.5 27.5,9.8 38.4,9.8 38.4,21.1 		"/>
		<rect x="9.7" y="20.7" class="st5" width="50.7" height="25.9"/>
		<rect x="6.9" y="28.3" class="st6" width="56.4" height="2.4"/>
		<rect x="6.9" y="35.6" class="st6" width="56.4" height="2.4"/>
		<linearGradient id="SVGID_1_" gradientUnits="userSpaceOnUse" x1="12.4648" y1="10.4273" x2="20.9751" y2="10.4273">
			<stop  offset="0" style="stop-color:#CCCCCC"/>
			<stop  offset="0.5054" style="stop-color:#FFFFFF"/>
			<stop  offset="1" style="stop-color:#CCCCCC"/>
		</linearGradient>
		<rect x="12.5" y="0.2" class="st7" width="8.5" height="20.5"/>
		<rect x="12.5" y="1.6" class="st8" width="8.5" height="2.2"/>
		<rect x="12.5" y="5.8" class="st8" width="8.5" height="2.2"/>
		<rect x="12.5" y="10" class="st8" width="8.5" height="2.2"/>
		<rect x="12.5" y="14.2" class="st8" width="8.5" height="2.2"/>
		<rect x="12.5" y="18.4" class="st8" width="8.5" height="2.2"/>
		<linearGradient id="SVGID_2_" gradientUnits="userSpaceOnUse" x1="22.8483" y1="16.0759" x2="31.3613" y2="16.0759">
			<stop  offset="0" style="stop-color:#CCCCCC"/>
			<stop  offset="0.5054" style="stop-color:#FFFFFF"/>
			<stop  offset="1" style="stop-color:#CCCCCC"/>
		</linearGradient>
		<rect x="22.8" y="11.5" class="st9" width="8.5" height="9.2"/>
		<rect x="22.8" y="12.7" class="st8" width="8.5" height="1.7"/>
		<rect x="22.8" y="15.8" class="st8" width="8.5" height="1.7"/>
		<rect x="22.8" y="19" class="st8" width="8.5" height="1.7"/>
		<g>
			<rect x="12.1" y="31.8" class="st10" width="6.4" height="2.9"/>
			<rect x="20" y="31.8" class="st10" width="6.4" height="2.9"/>
			<rect x="27.9" y="31.8" class="st10" width="6.4" height="2.9"/>
			<rect x="35.8" y="31.8" class="st10" width="6.4" height="2.9"/>
			<rect x="43.8" y="31.8" class="st10" width="6.4" height="2.9"/>
			<rect x="51.7" y="31.8" class="st10" width="6.4" height="2.9"/>
		</g>
		<g>
			<rect x="42.9" y="13.8" class="st10" width="4.6" height="2.1"/>
			<rect x="48.5" y="13.8" class="st10" width="4.6" height="2.1"/>
			<rect x="54.1" y="13.8" class="st10" width="4.6" height="2.1"/>
		</g>
		<g>
			<rect x="42.9" y="17.2" class="st10" width="4.6" height="2.1"/>
			<rect x="48.5" y="17.2" class="st10" width="4.6" height="2.1"/>
			<rect x="54.1" y="17.2" class="st10" width="4.6" height="2.1"/>
		</g>
		<rect x="6.9" y="16.9" class="st11" width="56.4" height="8.7"/>
		<text transform="matrix(1 0 0 1 9.5054 23.2284)"><tspan x="0" y="0" style="fill:#FF4612; font-family:'MyriadPro-Bold'; font-size:3.8027px;">COMESTIBLES    </tspan><tspan x="26.9" y="0" style="fill:#FF4612; font-family:'MyriadPro-Bold'; font-size:4.992px;">PAQUITA</tspan></text>
	</g>
</g>
</svg>
