<!-- Generator: Adobe Illustrator 19.1.0, SVG Export Plug-In  -->
<svg version="1.1"
	 xmlns="http://www.w3.org/2000/svg" xmlns:xlink="http://www.w3.org/1999/xlink" xmlns:a="http://ns.adobe.com/AdobeSVGViewerExtensions/3.0/"
	 x="0px" y="0px" width="88.7px" height="45px" viewBox="0 0 88.7 45" style="enable-background:new 0 0 88.7 45;"
	 xml:space="preserve">
<style type="text/css">
	.st0{opacity:0.6;}
	.st1{fill:#A6A1C9;}
	.st2{fill:#ADACB2;stroke:#1C4A65;stroke-width:0.3276;stroke-linecap:round;stroke-miterlimit:10;}
	.st3{fill:#BB9D6C;stroke:#1C4A65;stroke-width:0.3276;stroke-linecap:round;stroke-miterlimit:10;}
	.st4{fill:#C6C5CF;stroke:#1C4A65;stroke-width:0.2855;stroke-linecap:round;stroke-miterlimit:10;}
	.st5{fill:#9A95B0;stroke:#1C4A65;stroke-width:0.2855;stroke-linecap:round;stroke-miterlimit:10;}
	.st6{fill:none;stroke:#1C4A65;stroke-width:0.2855;stroke-linecap:round;stroke-miterlimit:10;}
	.st7{fill:#1B98C6;stroke:#1C4A65;stroke-width:0.2855;stroke-linecap:round;stroke-miterlimit:10;}
	.st8{fill:#C6C5CF;}
	.st9{fill:none;stroke:#1C4A65;stroke-width:0.5992;stroke-linecap:round;stroke-miterlimit:10;}
	.st10{fill:#F7F7F8;stroke:#1C4A65;stroke-width:0.5992;stroke-linecap:round;stroke-miterlimit:10;}
	.st11{fill:#FFFFFF;}
	.st12{fill:#DFDEE4;}
	.st13{fill:none;stroke:#1C4A65;stroke-width:0.5992;stroke-miterlimit:10;}
	.st14{fill:#1C4A65;}
	.st15{fill:none;stroke:#1C4A65;stroke-width:0.2174;stroke-linecap:round;stroke-miterlimit:10;}
	.st16{fill:#76A9DA;stroke:#1C4A65;stroke-width:0.5992;stroke-linecap:round;stroke-miterlimit:10;}
	.st17{fill:#7DAB39;}
	.st18{fill:#1B98C6;}
	.st19{fill:none;stroke:#FFFFFF;stroke-width:0.4347;stroke-miterlimit:10;}
	.st20{fill:#1B98C6;stroke:#FFFFFF;stroke-width:0.4347;stroke-miterlimit:10;}
	.st21{fill:#99989D;stroke:#1C4A65;stroke-width:0.3276;stroke-linecap:round;stroke-miterlimit:10;}
	.st22{fill:#C2C3C8;stroke:#1C4A65;stroke-width:0.3276;stroke-linecap:round;stroke-miterlimit:10;}
</style>
<defs>
</defs>
<g class="st0">
	<ellipse transform="matrix(0.9824 -0.1868 0.1868 0.9824 -3.4223 8.6805)" class="st1" cx="44.3" cy="22.5" rx="35.1" ry="21.9"/>
</g>
<g>
	<rect x="78.2" y="23.7" class="st2" width="8.6" height="4.6"/>
	<g>
		<rect x="27.1" y="4.2" class="st3" width="47.2" height="27.4"/>
		<rect x="31" y="8.1" class="st4" width="21" height="23.6"/>
		<rect x="32" y="9.1" class="st5" width="19" height="22.5"/>
		<rect x="54.1" y="8.3" class="st6" width="18.8" height="17.4"/>
		<rect x="53.3" y="25.8" class="st4" width="20.4" height="1.3"/>
		<g>
			<rect x="55.2" y="9.3" class="st7" width="7.5" height="15.7"/>
			<rect x="65" y="9.3" class="st7" width="6.8" height="15.7"/>
		</g>
		<line class="st6" x1="3.5" y1="31.6" x2="71.4" y2="31.6"/>
		<line class="st6" x1="27" y1="31.4" x2="16.9" y2="34"/>
		<line class="st6" x1="43.8" y1="31.5" x2="39.8" y2="36.3"/>
		<line class="st6" x1="61.6" y1="31.8" x2="64.1" y2="37.5"/>
		<line class="st6" x1="6.9" y1="32.4" x2="72.7" y2="32.4"/>
	</g>
	<g>
		<g>
			<ellipse class="st8" cx="22" cy="34.3" rx="4.2" ry="1"/>
			<g>
				<path class="st9" d="M23.5,34c0,0-1.4-4.1,0.2-8.5"/>
				<path class="st9" d="M20.7,34.1c0,0,0.3-3.7,0.2-8.5"/>
				<path class="st10" d="M22,17.7c0,0-1.6-0.3-1.9,0.5c-0.3,0.7-0.5,10.7-0.6,10.7c-0.1,0,0.9,0.6,3.1,0.6s3-0.3,3-0.4
					s-0.3-11-1.1-11.4C23.7,17.4,22,17.7,22,17.7z"/>
				<g>
					<path class="st11" d="M19.5,15c0,1.5,1.2,2.7,2.7,2.7c1.5,0,2.7-1.2,2.7-2.7c0-1.5-1.2-2.7-2.7-2.7
						C20.7,12.3,19.5,13.5,19.5,15"/>
					<path class="st12" d="M21.9,17.6c-0.3-0.1-0.5-0.2-0.8-0.3c0,0,0,0,0,0c-0.1,0-0.1-0.1-0.2-0.1c-0.8-0.4-1.6-1.4-1.2-2.3
						c0.5-1,1.4,0.4,1.7,0.7c0.3,0.4,0.8,0.6,1.3,0.6c0.1-0.1,0.2,0,0.3,0c0.6,0,1.1-0.3,1.3-0.9c0.1-0.2,0.4-0.1,0.5,0.1
						c0.2-0.1,0.5,0.1,0.3,0.3C25.1,16,25,16,24.9,16.1c0,0.2-0.2,0.4-0.4,0.6c-0.1,0-0.1,0.1-0.2,0.1c0,0,0,0.1-0.1,0.1
						C23.6,17.4,22.7,17.7,21.9,17.6C21.8,17.6,21.9,17.6,21.9,17.6"/>
					<circle class="st13" cx="22.3" cy="15" r="2.7"/>
				</g>
			</g>
			<circle class="st14" cx="20.9" cy="14.7" r="0.3"/>
			<circle class="st14" cx="22.4" cy="14.7" r="0.3"/>
			<path class="st15" d="M21.4,16.2c0,0,0.3,0.3,0.7,0.2c0.3-0.1,0.5-0.2,0.5-0.2"/>
			<path class="st14" d="M23,12.2c-0.1-0.3,0.1-0.6,0.3-0.7c0.3-0.2,0.6-0.3,0.9-0.1c0.2-0.7,1.4-0.8,2-0.7c0.5,0.1,0.9,0.5,1.1,1
				c0.2,0.4,0.2,0.8-0.1,1.1c-0.2,0.2-0.4,0.4-0.5,0.7c-0.1,0.3-0.2,0.7,0,1c0.1,0.2,0.3,0.3,0.6,0.3c-0.4,0-0.7-0.2-1-0.4
				c-0.2-0.1-0.4-0.2-0.5-0.4c-0.1-0.1-0.1-0.3-0.2-0.4c-0.2,0.4,0.2,0.6,0.4,0.9c-0.3-0.1-0.6-0.5-0.8-0.8
				c-0.1-0.2-0.2-0.5-0.1-0.7c0,0.3-0.1,0.4-0.4,0.4c-0.4,0-0.7-0.1-0.9-0.5c-0.2-0.4-0.3-0.8-0.9-0.7"/>
			<path class="st9" d="M19.7,12.1c0,0,0.7,0.5,1.8,0.6c1,0.1,1.8-0.2,1.8-0.2"/>
			<path class="st9" d="M19.2,12.7c0,0,1,0.5,2,0.4c1.1-0.2,1.8-0.6,1.8-0.6"/>
		</g>
		<rect x="20.6" y="21.6" class="st16" width="3.2" height="4.4"/>
		<path class="st9" d="M24.5,17.9c0,0,2.3,2.3,1.7,3.6s-2.5,2-2.5,2"/>
		<path class="st9" d="M20.1,18.2c-0.1,0-2.7,3.2-2,4.2c0.7,1,2.4,1.7,2.4,1.7"/>
		<rect x="21.2" y="22.1" class="st17" width="1.3" height="2.9"/>
	</g>
	<g>
		<g>
			<ellipse class="st8" cx="37" cy="34.3" rx="4.2" ry="1"/>
			<g>
				<path class="st9" d="M38.5,34c0,0-1.4-4.1,0.2-8.5"/>
				<path class="st9" d="M35.7,34.1c0,0,0.3-3.7,0.2-8.5"/>
				<path class="st10" d="M37,17.7c0,0-1.6-0.3-1.9,0.5c-0.3,0.7-0.5,10.7-0.6,10.7c-0.1,0,0.9,0.6,3.1,0.6c2.2,0,3-0.3,3-0.4
					s-0.3-11-1.1-11.4C38.7,17.4,37,17.7,37,17.7z"/>
				<g>
					<path class="st11" d="M34.6,15c0,1.5,1.2,2.7,2.7,2.7c1.5,0,2.7-1.2,2.7-2.7c0-1.5-1.2-2.7-2.7-2.7
						C35.8,12.3,34.6,13.5,34.6,15"/>
					<path class="st12" d="M36.9,17.6c-0.3-0.1-0.5-0.2-0.8-0.3c0,0,0,0,0,0c-0.1,0-0.1-0.1-0.2-0.1c-0.8-0.4-1.6-1.4-1.2-2.3
						c0.5-1,1.4,0.4,1.7,0.7c0.3,0.4,0.8,0.6,1.3,0.6c0.1-0.1,0.2,0,0.3,0c0.6,0,1.1-0.3,1.3-0.9c0.1-0.2,0.4-0.1,0.5,0.1
						c0.2-0.1,0.5,0.1,0.3,0.3C40.1,16,40.1,16,40,16.1c0,0.2-0.2,0.4-0.4,0.6c-0.1,0-0.1,0.1-0.2,0.1c0,0,0,0.1-0.1,0.1
						C38.6,17.4,37.7,17.7,36.9,17.6C36.9,17.6,36.9,17.6,36.9,17.6"/>
					<circle class="st13" cx="37.4" cy="15" r="2.7"/>
				</g>
			</g>
			<circle class="st14" cx="36" cy="14.7" r="0.3"/>
			<circle class="st14" cx="37.5" cy="14.7" r="0.3"/>
			<path class="st15" d="M36.4,16.2c0,0,0.3,0.3,0.7,0.2c0.3-0.1,0.5-0.2,0.5-0.2"/>
			<path class="st9" d="M34.8,12.1c0,0,0.7,0.5,1.8,0.6c1,0.1,1.8-0.2,1.8-0.2"/>
			<path class="st9" d="M34.3,12.7c0,0,1,0.5,2,0.4c1.1-0.2,1.8-0.6,1.8-0.6"/>
		</g>
		<rect x="35.7" y="21.6" class="st16" width="3.2" height="4.4"/>
		<path class="st9" d="M39.6,17.9c0,0,2.3,2.3,1.7,3.6c-0.6,1.3-2.5,2-2.5,2"/>
		<path class="st9" d="M35.2,18.2c-0.1,0-2.7,3.2-2,4.2c0.7,1,2.4,1.7,2.4,1.7"/>
		<rect x="36.2" y="22.1" class="st17" width="1.3" height="2.9"/>
	</g>
	<g>
		<path class="st14" d="M49.9,18c-0.4,0-0.8,0.1-1.2,0c-0.4-0.1-0.7-0.3-1-0.4c0.4,0.1,0.9-0.1,0.9-0.4c0-0.2-0.1-0.3-0.2-0.5
			c-0.1-0.2-0.2-0.5-0.3-0.7c-0.2-0.5-0.3-1-0.4-1.6c0-0.6,0.3-1.1,0.6-1.6c0.7-1,2.1-1.6,3.4-1.7c1.3-0.1,2.7,0.2,3.7,1.1
			c0.4,0.4,0.7,0.9,0.8,1.5c0.1,0.7-0.2,1.2-0.4,1.8c-0.3,0.9-1,2.1,0.1,2.7c-0.5,0.1-1.2,0-1.8-0.1c-0.5-0.1-1-0.2-1.6-0.3
			c-0.4-0.1-0.9-0.1-1.3-0.1c-0.3,0-0.8,0-1,0.1"/>
		<g>
			<ellipse class="st8" cx="51.5" cy="34.3" rx="4.2" ry="1"/>
			<g>
				<path class="st9" d="M53,34c0,0-1.4-4.1,0.2-8.5"/>
				<path class="st9" d="M50.2,34.1c0,0,0.3-3.7,0.2-8.5"/>
				<path class="st10" d="M51.5,17.7c0,0-1.6-0.3-1.9,0.5c-0.3,0.7-0.5,10.7-0.6,10.7c-0.1,0,0.9,0.6,3.1,0.6c2.2,0,3-0.3,3-0.4
					s-0.3-11-1.1-11.4C53.2,17.4,51.5,17.7,51.5,17.7z"/>
				<g>
					<path class="st11" d="M49,15c0,1.5,1.2,2.7,2.7,2.7c1.5,0,2.7-1.2,2.7-2.7c0-1.5-1.2-2.7-2.7-2.7C50.2,12.3,49,13.5,49,15"/>
					<path class="st12" d="M51.4,17.6c-0.3-0.1-0.5-0.2-0.8-0.3c0,0,0,0,0,0c-0.1,0-0.1-0.1-0.2-0.1c-0.8-0.4-1.6-1.4-1.2-2.3
						c0.5-1,1.4,0.4,1.7,0.7c0.3,0.4,0.8,0.6,1.3,0.6c0.1-0.1,0.2,0,0.3,0c0.6,0,1.1-0.3,1.3-0.9c0.1-0.2,0.4-0.1,0.5,0.1
						c0.2-0.1,0.5,0.1,0.3,0.3c-0.1,0.1-0.1,0.2-0.2,0.2c0,0.2-0.2,0.4-0.4,0.6c-0.1,0-0.1,0.1-0.2,0.1c0,0,0,0.1-0.1,0.1
						C53.1,17.4,52.2,17.7,51.4,17.6C51.4,17.6,51.4,17.6,51.4,17.6"/>
					<circle class="st13" cx="51.8" cy="15" r="2.7"/>
				</g>
			</g>
			<circle class="st14" cx="50.5" cy="14.7" r="0.3"/>
			<circle class="st14" cx="52" cy="14.7" r="0.3"/>
			<path class="st15" d="M50.9,16.2c0,0,0.3,0.3,0.7,0.2c0.3-0.1,0.5-0.2,0.5-0.2"/>
		</g>
		<rect x="50.1" y="21.6" class="st16" width="3.2" height="4.4"/>
		<path class="st9" d="M54.1,17.9c0,0,2.3,2.3,1.7,3.6s-2.5,2-2.5,2"/>
		<path class="st9" d="M49.6,18.2c-0.1,0-2.7,3.2-2,4.2c0.7,1,2.4,1.7,2.4,1.7"/>
		<rect x="50.7" y="22.1" class="st17" width="1.3" height="2.9"/>
	</g>
	<g>
		<ellipse class="st14" cx="67.4" cy="14.1" rx="2.5" ry="2.6"/>
		<ellipse class="st14" cx="69.5" cy="12.1" rx="1.3" ry="1.2"/>
		<g>
			<ellipse class="st8" cx="65.9" cy="34.3" rx="4.2" ry="1"/>
			<g>
				<path class="st9" d="M67.4,34c0,0-1.4-4.1,0.2-8.5"/>
				<path class="st9" d="M64.6,34.1c0,0,0.3-3.7,0.2-8.5"/>
				<path class="st10" d="M66,17.7c0,0-1.6-0.3-1.9,0.5c-0.3,0.7-0.5,10.7-0.6,10.7c-0.1,0,0.9,0.6,3.1,0.6s3-0.3,3-0.4
					s-0.3-11-1.1-11.4C67.6,17.4,66,17.7,66,17.7z"/>
				<g>
					<path class="st11" d="M63.5,15c0,1.5,1.2,2.7,2.7,2.7s2.7-1.2,2.7-2.7c0-1.5-1.2-2.7-2.7-2.7S63.5,13.5,63.5,15"/>
					<path class="st12" d="M65.9,17.6c-0.3-0.1-0.5-0.2-0.8-0.3c0,0,0,0,0,0c-0.1,0-0.1-0.1-0.2-0.1c-0.8-0.4-1.6-1.4-1.2-2.3
						c0.5-1,1.4,0.4,1.7,0.7c0.3,0.4,0.8,0.6,1.3,0.6c0.1-0.1,0.2,0,0.3,0c0.6,0,1.1-0.3,1.3-0.9c0.1-0.2,0.4-0.1,0.5,0.1
						c0.2-0.1,0.5,0.1,0.3,0.3C69.1,16,69,16,68.9,16.1c0,0.2-0.2,0.4-0.4,0.6c-0.1,0-0.1,0.1-0.2,0.1c0,0,0,0.1-0.1,0.1
						C67.6,17.4,66.7,17.7,65.9,17.6C65.8,17.6,65.8,17.6,65.9,17.6"/>
					<circle class="st13" cx="66.3" cy="15" r="2.7"/>
				</g>
			</g>
			<circle class="st14" cx="64.9" cy="14.7" r="0.3"/>
			<circle class="st14" cx="66.4" cy="14.7" r="0.3"/>
			<path class="st15" d="M65.4,16.2c0,0,0.3,0.3,0.7,0.2c0.3-0.1,0.5-0.2,0.5-0.2"/>
		</g>
		<rect x="64.6" y="21.6" class="st16" width="3.2" height="4.4"/>
		<path class="st9" d="M68.5,17.9c0,0,2.3,2.3,1.7,3.6s-2.5,2-2.5,2"/>
		<path class="st9" d="M64.1,18.2c-0.1,0-2.7,3.2-2,4.2s2.4,1.7,2.4,1.7"/>
		<rect x="65.1" y="22.1" class="st17" width="1.3" height="2.9"/>
	</g>
	<path class="st14" d="M77.8,32c0,2.4-2,4.4-4.4,4.4H8.4C6,36.3,4,34.4,4,32l0,0c0-2.4,2-4.4,4.4-4.4h65.1
		C75.9,27.6,77.8,29.6,77.8,32L77.8,32z"/>
	<g>
		<g>
			<circle class="st18" cx="10" cy="31.8" r="2.6"/>
			<circle class="st14" cx="10" cy="31.8" r="1.2"/>
		</g>
		<g>
			<circle class="st18" cx="71.4" cy="31.8" r="2.6"/>
			<circle class="st14" cx="71.4" cy="31.8" r="1.2"/>
		</g>
		<line class="st19" x1="12.6" y1="31.8" x2="68.8" y2="31.8"/>
		<g>
			<circle class="st20" cx="16.4" cy="31.8" r="1.2"/>
			<circle class="st20" cx="25.9" cy="31.8" r="1.2"/>
			<circle class="st20" cx="35.5" cy="31.7" r="1.2"/>
			<circle class="st20" cx="45" cy="31.8" r="1.2"/>
			<circle class="st20" cx="54.6" cy="31.7" r="1.2"/>
			<circle class="st20" cx="64.1" cy="31.8" r="1.2"/>
		</g>
	</g>
	<rect x="0.2" y="13.7" class="st21" width="6.8" height="22.6"/>
	<rect x="1.7" y="15.7" class="st2" width="3.9" height="7.2"/>
	<rect x="2" y="24.6" class="st2" width="3.3" height="1.8"/>
	<rect x="2" y="27.8" class="st2" width="3.3" height="1.8"/>
	<rect x="75.1" y="25.3" class="st2" width="13.4" height="10.9"/>
	<rect x="76.6" y="30.1" class="st22" width="10.4" height="2"/>
</g>
</svg>
