<svg xmlns="http://www.w3.org/2000/svg" viewBox="0 0 38.07 72.41"><defs><style>.cls-1{isolation:isolate;}.cls-2{fill:#7dab39;}.cls-10,.cls-12,.cls-2,.cls-3,.cls-4,.cls-7{stroke:#1c4a65;stroke-miterlimit:10;}.cls-2,.cls-3{stroke-width:0.48px;}.cls-3{fill:#6e9629;}.cls-10,.cls-12,.cls-4,.cls-7{fill:none;}.cls-10,.cls-12,.cls-4{stroke-linecap:round;}.cls-4,.cls-7{stroke-width:1.55px;}.cls-5{fill:#f7e02c;}.cls-6{fill:#cd6a01;opacity:0.5;}.cls-13,.cls-6{mix-blend-mode:multiply;}.cls-8{fill:#fff;}.cls-9{fill:#dfdee4;}.cls-10{stroke-width:1.76px;}.cls-11{fill:#1c4a65;}.cls-12{stroke-width:0.47px;}.cls-13{fill:#bf315b;opacity:0.4;}</style></defs><title>p2_alicia_2</title><g class="cls-1"><g id="Layer_1" data-name="Layer 1"><path class="cls-2" d="M1691.5,577.26a8.38,8.38,0,0,1-8.38,8.38h0a8.38,8.38,0,0,1-8.38-8.38v-7.92a8.38,8.38,0,0,1,8.38-8.38h0a8.38,8.38,0,0,1,8.38,8.38v7.92Z" transform="translate(-1653.67 -548.52)"/><path class="cls-2" d="M1690.76,560.88c0,1.93-3.75,3.5-8.38,3.5h0c-4.63,0-8.38-1.57-8.38-3.5v-3.31c0-1.93,3.75-3.5,8.38-3.5h0c4.63,0,8.38,1.57,8.38,3.5v3.31Z" transform="translate(-1653.67 -548.52)"/><path class="cls-3" d="M1689.38,560.64c0,1.66-3.22,3-7.18,3h0c-4,0-7.18-1.34-7.18-3V557.8c0-1.66,3.21-3,7.18-3h0c4,0,7.18,1.34,7.18,3v2.83Z" transform="translate(-1653.67 -548.52)"/><path class="cls-3" d="M1689.2,577.58a8.14,8.14,0,0,1-8.38,7.88h0a8.14,8.14,0,0,1-8.38-7.88v-7.44a8.14,8.14,0,0,1,8.38-7.88h0a8.14,8.14,0,0,1,8.38,7.88v7.44Z" transform="translate(-1653.67 -548.52)"/><path class="cls-4" d="M1671.88,572.44c1.4-.38-7.74,8.7-17.44,6.37" transform="translate(-1653.67 -548.52)"/><path class="cls-4" d="M1680.25,572.44c-1.4-.38,8.18,2.14,8.18,18.54" transform="translate(-1653.67 -548.52)"/><path class="cls-5" d="M1680.21,571.44c1.19,2.1,3,3,4.39,8.61a15.89,15.89,0,0,1,0,7.57c-0.24,1.18-3,3.26-5.91,3.75a20.41,20.41,0,0,1-6-.26c-0.93-.13-4.66-0.91-4.92-3.66-0.2-2.1-.92-4.31,0-7.57,0.78-2.76,1.63-4,5.06-9s3.14-4.8,3.14-4.8a37.89,37.89,0,0,1,4.2,5.33" transform="translate(-1653.67 -548.52)"/><path class="cls-6" d="M1670.09,575.67c0.54-1.11,1.27-2.12,1.79-3.24a2.76,2.76,0,0,1,1.35-1.66,1.21,1.21,0,0,1,.42-0.22l-0.51-.26c-0.19-.1-0.38-0.22-0.57-0.35a9.46,9.46,0,0,1,3.18,1.22l-0.39-.06a1.65,1.65,0,0,1,.41,1.09,6.09,6.09,0,0,1-1.29,3.22,11.07,11.07,0,0,0-2.07,5,14.55,14.55,0,0,0,.37,5.11c0.31,1.27,1.56,2.06,1.8,3.34s-0.62,2.4-1.7,2.15a1.46,1.46,0,0,1-1-.45c-0.31-.11-1.23-0.15-1.41-0.24-2.14-1-2.14-3.68-2.29-5.86a17.51,17.51,0,0,1,1.94-8.79" transform="translate(-1653.67 -548.52)"/><path class="cls-7" d="M1680.47,571.44c1.19,2.1,3,3,4.39,8.61a15.86,15.86,0,0,1,0,7.57c-0.24,1.18-3,3.26-5.91,3.75a20.41,20.41,0,0,1-6-.26c-0.92-.13-4.66-0.91-4.92-3.66-0.2-2.1-.92-4.31,0-7.57,0.78-2.76,1.63-4,5.05-9s3.14-4.8,3.14-4.8A37.81,37.81,0,0,1,1680.47,571.44Z" transform="translate(-1653.67 -548.52)"/><path class="cls-8" d="M1669.63,563.65a7,7,0,1,0,7-7,7,7,0,0,0-7,7" transform="translate(-1653.67 -548.52)"/><path class="cls-9" d="M1678.47,570.53c0.66-.22,1.33-0.44,2-0.7l-0.11,0,0.51-.26c2-1.09,4.25-3.63,3.15-5.91-1.21-2.49-3.57,1-4.33,1.87a4.88,4.88,0,0,1-3.37,1.65,0.78,0.78,0,0,0-.76,0,4,4,0,0,1-3.45-2.22c-0.27-.6-1.08-0.28-1.17.26a0.64,0.64,0,0,0-.86.86c0.14,0.22.3,0.43,0.46,0.64a2.72,2.72,0,0,0,1,1.47,0.66,0.66,0,0,0,.46.16,0.47,0.47,0,0,0,.19.34,8.06,8.06,0,0,0,6.44,1.68l-0.14.19" transform="translate(-1653.67 -548.52)"/><circle class="cls-7" cx="23.21" cy="15.14" r="6.99"/><path class="cls-10" d="M1672.15,591.41a55.26,55.26,0,0,1,1.53,14.38,53.59,53.59,0,0,1-2.26,13.29" transform="translate(-1653.67 -548.52)"/><path class="cls-10" d="M1678.1,591.6s-0.34,10.58,1.32,17.67a62.15,62.15,0,0,0,3,10.12" transform="translate(-1653.67 -548.52)"/><circle class="cls-11" cx="27.46" cy="14.25" r="0.65"/><circle class="cls-11" cx="23.37" cy="14.67" r="0.65"/><path class="cls-12" d="M1679.92,567.14a2.34,2.34,0,0,1-2,.7,7.62,7.62,0,0,1-2.18-1" transform="translate(-1653.67 -548.52)"/><ellipse class="cls-13" cx="21.95" cy="16.37" rx="1.33" ry="0.81"/><ellipse class="cls-13" cx="28.09" cy="16.32" rx="1.14" ry="0.81"/><path class="cls-11" d="M1675.11,606.22s-3.95-.59-4.07.29a5.45,5.45,0,0,0,.41,2.18l-0.88,9s-2.59,2.12-1.18,2.71,3.77,0.47,4.48-1.47,1.06-10.25,1.06-10.25a1.11,1.11,0,0,0,.65-0.88A9.35,9.35,0,0,0,1675.11,606.22Z" transform="translate(-1653.67 -548.52)"/><path class="cls-11" d="M1681,606s-3.42-.06-3.77.24a2.1,2.1,0,0,0-.18,1.94,6.72,6.72,0,0,0,.71.47,29.06,29.06,0,0,0,1.77,7.66c1.36,3,1.83,4.48,2.95,4.6s2.24-.12,2.18-0.83a11.7,11.7,0,0,0-1.18-2.65l-0.89-2.12-1.36-7.19a1.27,1.27,0,0,0,.71-0.82A3,3,0,0,0,1681,606Z" transform="translate(-1653.67 -548.52)"/><path class="cls-3" d="M1681.75,570.93s-3.19,4.53-.87,8.64,5.3,4.17,5.3,4.17a3.8,3.8,0,0,0,.1-1.29,8.74,8.74,0,0,1-4.47-5.45,5.46,5.46,0,0,1,.77-4.48" transform="translate(-1653.67 -548.52)"/><path class="cls-3" d="M1671.21,571.44l-1.39.57a8.3,8.3,0,0,1-.46,5.35,9.89,9.89,0,0,1-2.52,4l-0.1,1.39s3.45-1.7,4.17-5A20.05,20.05,0,0,0,1671.21,571.44Z" transform="translate(-1653.67 -548.52)"/><path class="cls-3" d="M1691.3,551.94a3.19,3.19,0,0,1-3.19,3.19h-11.16a3.19,3.19,0,0,1-3.19-3.19h0a3.19,3.19,0,0,1,3.19-3.19h11.16a3.19,3.19,0,0,1,3.19,3.19h0Z" transform="translate(-1653.67 -548.52)"/><path class="cls-2" d="M1689.75,552a1.83,1.83,0,0,1-1.83,1.83h-11a1.83,1.83,0,0,1-1.83-1.83h0a1.83,1.83,0,0,1,1.83-1.83h11a1.83,1.83,0,0,1,1.83,1.83h0Z" transform="translate(-1653.67 -548.52)"/><path class="cls-11" d="M1674.72,554.77c-1.32-.72-3,0.12-4.15.86a3.71,3.71,0,0,0-1.09,1c-0.11.19-.11,0.42-0.2,0.61-0.18.36,0,.14-0.34,0.38a3.15,3.15,0,0,0-1.66,1.61,5.41,5.41,0,0,0-.43,1.28c0,0.29,0,.68,0,0.93-0.1.49-.7,0.69-0.87,1.24a1.49,1.49,0,0,0,.87,1.85c-1.06.95,0.47,2.66,0.72,3.67a3.41,3.41,0,0,1-3.41,4.27c1.89,1.26,5,.5,6.9-0.49,0.38-.2,2.07-1.19,1.85-1.66-0.14-.31-1-0.59-1.29-0.93s-0.44-.84-0.71-1.23c-0.89-1.28-.54-3.26-0.54-4.8a6.24,6.24,0,0,1,1.3-4.28c1.8-2,3.95-2.25,6.52-1.88,0.06,0.48-.31,1-0.32,1.52a3.32,3.32,0,0,0,1.12,2.14c0-.82-0.56-1.49.29-2.08a3,3,0,0,0,.9,1.44,2.78,2.78,0,0,1,.5,1.87,11.67,11.67,0,0,0,.44-2.95c2.71,1.7,3.35,6.51,1.34,9a7,7,0,0,1-.87,1,3.88,3.88,0,0,0-1,.73,1,1,0,0,0,0,1.28,5.8,5.8,0,0,0,5.09,2.7c0.47,0,.93,0,1.39-0.05-0.89-.14-2.28-0.38-2.84-1.15s-0.21-1,.48-1.23c0.87-.32,2.27-0.92,2.11-2.05a1.73,1.73,0,0,0-1.28-1.24,1.61,1.61,0,0,0,1.43-1.35,5.4,5.4,0,0,0,.13-1.13,4,4,0,0,0-.48-1c-0.08-.36.4-1,0.42-1.57a2.53,2.53,0,0,0-.91-2,1.73,1.73,0,0,0,.33-1.78,2.74,2.74,0,0,0-1.35-1.36,2.07,2.07,0,0,0-1.36-1.84c-0.46-.25-1.39-0.75-1.83-0.22a2.68,2.68,0,0,0-3.18-.9c-0.47-2.75-5.15-1.28-4.44-.1" transform="translate(-1653.67 -548.52)"/></g></g></svg>