<?xml version="1.0" encoding="utf-8"?>
<!-- Generator: Adobe Illustrator 19.2.1, SVG Export Plug-In . SVG Version: 6.00 Build 0)  -->
<svg version="1.1" id="Capa_1" xmlns="http://www.w3.org/2000/svg" xmlns:xlink="http://www.w3.org/1999/xlink" x="0px" y="0px"
	 viewBox="0 0 69 54.8" style="enable-background:new 0 0 69 54.8;" xml:space="preserve">
<style type="text/css">
	.st0{fill:#CBCBCB;stroke:#1C4A65;stroke-linecap:round;stroke-miterlimit:10;}
	.st1{fill:#FFFFFF;stroke:#1C4A65;stroke-linecap:round;stroke-miterlimit:10;}
	.st2{fill:#FFFFFF;stroke:#1C4A65;stroke-width:0.77;stroke-linecap:round;stroke-miterlimit:10;}
	.st3{fill:#FFFFFF;stroke:#1C4A65;stroke-width:0.41;stroke-linecap:round;stroke-miterlimit:10;}
	.st4{fill:#FFFFFF;stroke:#1C4A65;stroke-width:0.62;stroke-linecap:round;stroke-miterlimit:10;}
	.st5{fill:#656565;stroke:#1C4A65;stroke-width:0.72;stroke-linecap:round;stroke-linejoin:round;stroke-miterlimit:10;}
	.st6{fill:#FFFFFF;stroke:#1C4A65;stroke-width:0.71;stroke-linecap:round;stroke-linejoin:round;stroke-miterlimit:10;}
	.st7{fill:#04A7DB;}
	.st8{opacity:0.2;fill:#F1F1F0;enable-background:new    ;}
	.st9{fill:none;stroke:#1C4A65;stroke-width:0.21;stroke-linecap:round;stroke-miterlimit:10;}
	.st10{fill:none;stroke:#1C4A65;stroke-width:0.82;stroke-linecap:round;stroke-miterlimit:10;}
	.st11{fill:none;stroke:#1C4A65;stroke-width:1.65;stroke-linecap:round;stroke-miterlimit:10;}
	.st12{fill:#F1F1F0;stroke:#1C4A65;stroke-width:0.82;stroke-linecap:round;stroke-miterlimit:10;}
	.st13{fill:#99989D;}
	.st14{fill:#FFFFFF;}
	.st15{fill:none;stroke:#1C4A65;stroke-width:1.65;stroke-miterlimit:10;}
	.st16{fill:#DFDEE4;}
	.st17{fill:none;stroke:#1C4A65;stroke-width:1.6;stroke-linecap:round;stroke-miterlimit:10;}
	.st18{fill:#F1F1F0;}
	.st19{fill:#CBCBCB;}
	.st20{fill:#1C4A65;}
	.st21{fill-rule:evenodd;clip-rule:evenodd;fill:#FFFFFF;}
	.st22{fill-rule:evenodd;clip-rule:evenodd;fill:#04A7DB;}
</style>
<title>p2_compu_web</title>
<g>
	<g id="Layer_1">
		<polyline class="st0" points="21.5,31.3 21.5,44.3 54.7,49.8 66.6,41.2 66.6,28.7 		"/>
		<polygon class="st1" points="18.6,29.5 18.7,32.2 55.2,37.7 68.5,30.4 68.5,27.5 33.3,24.8 		"/>
		<path class="st2" d="M18.6,29.5c0.4,0,14.1-5,14.1-5l34.2,3.1l-12.4,7L18.6,29.5z"/>
		<path class="st3" d="M35,27c0.1,0,3.3-1.2,3.3-1.2l7.9,0.7l-2.9,1.6L35,27z"/>
		<path class="st4" d="M27.4,29.6c0.1,0,4.9-2.2,4.9-2.2l14.8,2l-4.4,2.5L27.4,29.6z"/>
		<polygon class="st0" points="43.5,26.1 42.2,26.4 40.7,19.8 43.6,19.8 		"/>
		<polygon class="st1" points="42.2,26.4 39.5,26.2 39.5,19.8 42.2,19.8 		"/>
		<polygon class="st5" points="31.5,2 50.4,22.3 52.2,21.5 51.7,2.3 		"/>
		<polygon class="st6" points="30.1,2 29.5,20.4 50.4,22.3 50,2.3 		"/>
		<polygon class="st7" points="31,3.6 48.7,3.6 49.1,20.6 30.5,18.8 		"/>
		<path class="st8" d="M47.3,4.7l-15.2,9.5l8.4-3.2c0,0-7.4,5.1-7.2,5s13.3-7,13.3-7l-4,0.2"/>
		<line class="st9" x1="32.9" y1="28.2" x2="43.9" y2="29.6"/>
		<line class="st9" x1="32.1" y1="28.6" x2="43.1" y2="30"/>
		<line class="st9" x1="31" y1="28.9" x2="42.7" y2="30.5"/>
		<line class="st9" x1="29.9" y1="29.3" x2="42.2" y2="31"/>
		<line class="st10" x1="53.8" y1="37.5" x2="54.1" y2="49.4"/>
		<path class="st11" d="M18.2,45.9c-0.1,0.3-0.9,8.1-0.9,8.1"/>
		<ellipse class="st12" cx="16.4" cy="42.3" rx="13.1" ry="6.9"/>
		<path class="st13" d="M11.4,17.4c-1.3,2.2-2.2,3.3-3.6,9.3c-0.6,3.4-0.5,6.8,0.2,10.1c0.3,1.3,1.9,1.3,5.1,1.8
			c2.1,0.2,4.3,0.1,6.3-0.3c1-0.1,5-1,5.2-3.9c0.2-2.2,1-4.6,0-8c-0.8-2.9-1.7-4.3-5.4-9.5s-3.3-5.1-3.3-5.1
			C14.2,13.5,12.7,15.4,11.4,17.4"/>
		<path class="st13" d="M21.8,38.1c4.8-1.8-1.1-5.9-2.1-9.8c-0.8-2.9,1-2.9-0.7-5.4c-0.7-1,0.5-2.8-0.1-3.9
			c-0.5-0.9-1.2-0.4-1.9-1.2c-1.9-2.1-4.1-2.4-5.1-0.9c-1.7,2.4-3.1,2.4-3.1,5.4c0,3.6-2.4,13.3-1.6,14.8c1.3,1,2.9,1.7,4.5,1.9
			C15.1,39.5,18.6,39.2,21.8,38.1"/>
		<path class="st14" d="M24.2,27.9l-0.7-1.6c-5.2,2.3-11.1,1.1-14.7-0.1l-1.3,3.7c3.5,1.4,10.3,3.3,17-0.2L24.2,27.9z"/>
		<path class="st15" d="M11.1,17.4c-1.3,2.2-1.7,1.9-3.2,7.9c-0.6,3.8-0.6,7.7,0,11.5c0.3,1.3,1.7,1.3,4.8,1.8
			c2.1,0.2,4.2,0.1,6.3-0.3c1-0.1,5-1,5.2-3.9c0.2-2.2,1-4.6,0-8c-0.8-2.9-1.7-4.3-5.4-9.5s-3.3-5.1-3.3-5.1
			C13.9,13.5,12.4,15.4,11.1,17.4z"/>
		<path class="st14" d="M22.6,9.1c0,4.1-3.3,7.4-7.4,7.4c-4.1,0-7.4-3.3-7.4-7.4c0-4.1,3.3-7.4,7.4-7.4S22.6,5,22.6,9.1
			C22.6,9.1,22.6,9.1,22.6,9.1"/>
		<path class="st16" d="M10.3,15.7c0.7,0.3,1.3,0.7,2,0.9c0,0,0-0.1,0-0.1l0.6,0.2c2.3,0.7,5.9,0.5,6.8-2.1c1-2.8-3.4-2-4.7-1.8
			c-1.4,0.1-2.7-0.4-3.8-1.3c-0.1-0.3-0.3-0.5-0.6-0.6C9.6,9.8,9.3,8.1,9.8,6.6C10,6,9.2,5.6,8.7,6C8.6,5.6,8.2,5.4,7.8,5.5
			C7.6,5.6,7.5,5.8,7.4,6c0,0.3-0.1,0.6-0.1,0.8C6.9,7.4,6.8,8,6.9,8.6C6.9,8.8,7,9,7.1,9.1C7,9.2,7,9.4,7,9.5
			c0.3,2.5,1.6,4.7,3.6,6.1L10.3,15.7"/>
		<circle class="st15" cx="14.9" cy="9.1" r="7.4"/>
		<path class="st11" d="M18.9,20.3c-0.5,2.8,2.3,7.5,17.2,2.2"/>
		<path class="st17" d="M11.9,16.8c0.7,1.2,2,1.9,3.4,1.9c1.3,0,2.5-0.7,3-1.9"/>
		<path class="st11" d="M18,39.1c0,0,0.2,3.5,2.6,2.6s6.9-4.7,7.5-3.5c0.3,0.6,0.6,1.2,0.8,1.9"/>
		<path class="st11" d="M28.1,45.9C28,46.2,27.1,54,27.1,54"/>
		<path class="st18" d="M11.2,19.3h0.7c6.2,0,11.2,5,11.2,11.2v5.7c0,6.2-5,11.2-11.2,11.2h-0.7C5,47.3,0,42.3,0,36.1v-5.7
			C0,24.3,5,19.3,11.2,19.3z"/>
		<path class="st19" d="M5,35.7v-6.3c-0.1-4.7,2.7-9,7.1-10.7c-0.1,0-0.6,0.5-0.7,0.5h-0.7C4.6,19.3,0,23.2,0,29.4v5.5
			C0.1,40.7,4.6,45.6,10.5,46C7,43.7,5,39.8,5,35.7z"/>
		<path class="st20" d="M24,34.4c0,6.6-5.3,11.9-11.9,11.9h-0.3C5.3,46.3,0,40.9,0,34.4v-5.3c0-6.6,5.3-11.9,11.9-11.9h0.3
			c6.6,0,11.9,5.3,11.9,11.9V34.4z M23,30.1c0-6-4.9-10.9-10.9-10.9l0,0h-0.2C5.9,19.3,1,24.1,1,30.1l0,0v6.2
			c0,6,4.9,10.9,10.9,10.9l0,0h0.2c6,0,10.9-4.9,10.9-10.9c0,0,0,0,0,0S23,30.1,23,30.1z"/>
		<path class="st20" d="M20.5,0.6C18.7,0.2,16.9,0,15,0c-1.4,0-2.8,0.2-4.2,0.5c-0.2,0-2.4-0.2-2.4-0.2L9,1.2C8.4,1.4,7.7,1.6,7,1.9
			c0.3,0.2,0.6,0.5,0.8,0.7c0,0-1.1,0.5-1.5,3.6S5.8,12.5,7.1,14c0.7,0.8,1.4,1.6,2.2,2.3l3.9,0.3l3.1-0.1c0,0,0.6-2,0.6-2.2
			s0.6-2.5,0.5-2.5s-3.8-2.6-2.4-3.4s3.1,1,3.1,1s1.6-0.8,1.3-2.1c-0.1-0.7-0.4-1.3-0.8-1.8c0,0,1.8-0.9,2.1-1.1s1.4,1.1,2-0.6
			s0.9-2,0.7-2.1c-0.2-0.1-0.4-0.1-0.6-0.2c-0.3,0.1-0.7,0.2-1,0.3L20.5,0.6z"/>
	</g>
</g>
<g>
	<polygon class="st14" points="42.7,8.2 42.9,8.6 43.2,8.7 43,8.9 43,9.4 42.7,9.2 42.4,9.3 42.5,8.9 42.2,8.6 42.6,8.6 	"/>
	<polygon class="st14" points="43.7,8.3 43.9,8.6 44.2,8.7 44,9 44,9.4 43.7,9.2 43.4,9.4 43.5,9 43.2,8.7 43.6,8.6 	"/>
	<polygon class="st14" points="44.8,8.3 44.9,8.7 45.3,8.8 45,9 45.1,9.4 44.8,9.2 44.4,9.4 44.5,9 44.2,8.7 44.6,8.7 	"/>
	<polygon class="st14" points="42.7,6.2 42.9,6.5 43.2,6.6 43,6.9 43,7.3 42.7,7.1 42.4,7.3 42.5,6.9 42.2,6.6 42.6,6.5 	"/>
	<polygon class="st14" points="43.7,6.2 43.9,6.6 44.2,6.6 44,6.9 44,7.3 43.7,7.1 43.4,7.3 43.5,6.9 43.2,6.6 43.6,6.5 	"/>
	<polygon class="st14" points="42.7,10.3 42.9,10.7 43.2,10.8 43,11 43,11.5 42.7,11.2 42.4,11.4 42.5,11 42.2,10.7 42.6,10.7 	"/>
	<polygon class="st14" points="43.7,10.4 43.9,10.8 44.2,10.8 44,11.1 44,11.5 43.7,11.3 43.4,11.5 43.5,11.1 43.2,10.8 43.6,10.7 	
		"/>
	<polygon class="st14" points="44.8,10.4 44.9,10.8 45.3,10.9 45,11.2 45.1,11.6 44.8,11.4 44.4,11.6 44.5,11.1 44.2,10.8 
		44.6,10.8 	"/>
	<polygon class="st14" points="46,10.5 46.2,10.9 46.5,11 46.3,11.3 46.3,11.7 46,11.5 45.7,11.6 45.7,11.2 45.5,10.9 45.8,10.9 	
		"/>
	<polygon class="st14" points="47,10.6 47.2,11 47.5,11 47.3,11.3 47.3,11.7 47,11.5 46.7,11.7 46.8,11.3 46.5,11 46.9,10.9 	"/>
	<polygon class="st14" points="40.5,7 32.6,6.8 32.6,6.2 40.5,6.3 	"/>
	<polygon class="st14" points="40.5,9 32.6,8.7 32.6,8.1 40.5,8.3 	"/>
	<polygon class="st14" points="40.5,11.4 32.6,10.9 32.6,10.3 40.5,10.7 	"/>
	<polygon class="st14" points="40.5,14.3 32.6,13.5 32.6,12.8 40.5,13.5 	"/>
	<g>
		<path class="st21" d="M46,14.7c-1.3-0.6-1.7-1.9-1.7-1.9s-0.5,1.4-1.7,1.6l0.8,0.1v0.4l1.7,0.2v-0.4L46,14.7z"/>
		<g>
			<path class="st21" d="M44.4,13c-0.1-0.1-0.1-0.2-0.1-0.2s-0.5,1.3-1.6,1.6l0.3,0C43.9,14.1,44.3,13.3,44.4,13z"/>
		</g>
		<g>
			<path class="st21" d="M44.2,13c0.1-0.1,0.1-0.2,0.1-0.2s0.5,1.4,1.6,1.9l-0.3,0C44.8,14.2,44.4,13.3,44.2,13z"/>
		</g>
		<polygon class="st22" points="45.2,14.9 43.5,14.8 43.5,14.9 45.2,15.1 		"/>
		<g>
			<polygon class="st22" points="44.3,13.3 44.3,14.9 44.6,14.9 			"/>
			<polygon class="st22" points="44.3,13.2 44,14.9 44.3,14.9 			"/>
		</g>
	</g>
</g>
</svg>
