<?xml version="1.0" encoding="utf-8"?>
<!-- Generator: Adobe Illustrator 19.2.1, SVG Export Plug-In . SVG Version: 6.00 Build 0)  -->
<svg version="1.1" id="Capa_1" xmlns="http://www.w3.org/2000/svg" xmlns:xlink="http://www.w3.org/1999/xlink" x="0px" y="0px"
	 viewBox="0 0 69 57.6" style="enable-background:new 0 0 69 57.6;" xml:space="preserve">
<style type="text/css">
	.st0{fill:#CBCBCB;stroke:#1C4A65;stroke-linecap:round;stroke-miterlimit:10;}
	.st1{fill:#FFFFFF;stroke:#1C4A65;stroke-linecap:round;stroke-miterlimit:10;}
	.st2{fill:#FFFFFF;stroke:#1C4A65;stroke-width:0.77;stroke-linecap:round;stroke-miterlimit:10;}
	.st3{fill:#FFFFFF;stroke:#1C4A65;stroke-width:0.41;stroke-linecap:round;stroke-miterlimit:10;}
	.st4{fill:#FFFFFF;stroke:#1C4A65;stroke-width:0.62;stroke-linecap:round;stroke-miterlimit:10;}
	.st5{fill:#656565;stroke:#1C4A65;stroke-width:0.72;stroke-linecap:round;stroke-miterlimit:10;}
	.st6{fill:#FFFFFF;stroke:#1C4A65;stroke-width:0.71;stroke-linecap:round;stroke-miterlimit:10;}
	.st7{fill:#1C4A65;}
	.st8{opacity:0.2;fill:#F1F1F0;enable-background:new    ;}
	.st9{fill:none;stroke:#1C4A65;stroke-width:0.21;stroke-linecap:round;stroke-miterlimit:10;}
	.st10{fill:none;stroke:#1C4A65;stroke-width:0.82;stroke-linecap:round;stroke-miterlimit:10;}
	.st11{fill:none;stroke:#1C4A65;stroke-width:1.65;stroke-linecap:round;stroke-miterlimit:10;}
	.st12{fill:#F1F1F0;stroke:#1C4A65;stroke-width:0.82;stroke-linecap:round;stroke-miterlimit:10;}
	.st13{fill:#F7EB45;}
	.st14{fill:#FFFFFF;}
	.st15{fill:none;stroke:#1C4A65;stroke-width:1.65;stroke-miterlimit:10;}
	.st16{fill:#DFDEE4;}
	.st17{fill:none;stroke:#1C4A65;stroke-width:1.6;stroke-linecap:round;stroke-miterlimit:10;}
	.st18{fill:#F1F1F0;}
	.st19{fill:#CBCBCB;}
</style>
<title>p2_compu_web2</title>
<g>
	<g id="Layer_1">
		<polyline class="st0" points="22.5,34 22.5,47.1 55,52.6 66.6,44 67.1,31.5 		"/>
		<polygon class="st1" points="18.3,32.3 18.4,35 55,40.5 68.5,33.2 68.5,30.3 33.1,27.6 		"/>
		<path class="st2" d="M18.3,32.3c0.4,0,14.1-5,14.1-5l34.2,3.1l-12.4,7L18.3,32.3z"/>
		<path class="st3" d="M34.7,29.8c0.1,0,3.3-1.2,3.3-1.2l7.9,0.7L43,31L34.7,29.8z"/>
		<path class="st4" d="M27.1,32.4c0.1,0,4.9-2.2,4.9-2.2l14.8,2l-4.4,2.5L27.1,32.4z"/>
		<polygon class="st0" points="43.2,28.9 41.9,29.2 40.4,22.5 43.2,22.5 		"/>
		<polygon class="st1" points="41.5,29.2 38.5,29 38.5,22.5 41.8,22.5 		"/>
		<polygon class="st5" points="31.2,4.8 49.9,25.2 51.9,24.3 51.3,5.1 		"/>
		<polygon class="st6" points="29.7,4.8 29.2,23.2 50.1,25.1 49.6,5.1 		"/>
		<polygon class="st7" points="30.7,6.4 48.4,6.4 48.7,23.4 30.2,21.6 		"/>
		<path class="st8" d="M47,7.5L31.8,17l8.4-3.2c0,0-7.4,5.1-7.2,5s13.3-7,13.3-7l-4,0.2"/>
		<line class="st9" x1="32.5" y1="31" x2="43.6" y2="32.4"/>
		<line class="st9" x1="31.8" y1="31.4" x2="42.8" y2="32.8"/>
		<line class="st9" x1="30.7" y1="31.7" x2="42.3" y2="33.3"/>
		<line class="st9" x1="29.6" y1="32.1" x2="41.9" y2="33.8"/>
		<line class="st10" x1="53.4" y1="40.3" x2="53.8" y2="52.2"/>
		<path class="st11" d="M17.9,48.7C17.8,49,17,56.7,17,56.7"/>
		<ellipse class="st12" cx="16" cy="45.1" rx="13.1" ry="6.9"/>
		<path class="st13" d="M11,20.2c-1.3,2.2-2.2,3.3-3.6,9.3c-0.6,3.4-0.5,6.8,0.2,10.1c0.3,1.3,1.9,1.3,5.1,1.8
			c2.1,0.2,4.3,0.1,6.3-0.3c1-0.1,5-1,5.2-3.9c0.2-2.2,1-4.6,0-8c-0.8-2.9-1.7-4.3-5.4-9.5s-3.3-5.1-3.3-5.1
			C13.8,16.3,12.3,18.2,11,20.2"/>
		<path class="st13" d="M21.5,40.8c4.8-1.8-1.1-5.9-2.2-9.8c-0.7-2.9,1-2.9-0.7-5.4c-0.7-1,0.5-2.8-0.1-3.9
			c-0.5-0.9-1.2-0.4-1.9-1.2c-1.9-2.1-4.1-2.4-5.1-0.9C9.8,22,8.4,22.1,8.4,25c0,3.6-2.4,13.3-1.7,14.8c1.3,1,2.9,1.7,4.5,1.9
			C14.7,42.3,18.2,42,21.5,40.8"/>
		<path class="st14" d="M23.9,30.7L23.2,29c-5.2,2.3-11.1,1.1-14.7-0.1l-1.3,3.7c3.5,1.4,10.3,3.3,17-0.2L23.9,30.7z"/>
		<path class="st15" d="M10.8,20.2c-1.3,2.2-1.7,1.9-3.2,7.9c-0.6,3.8-0.6,7.7,0,11.5c0.3,1.3,1.7,1.3,4.8,1.8
			c2.1,0.2,4.3,0.1,6.3-0.3c1-0.1,5-1,5.2-3.9c0.2-2.2,1-4.6,0-8c-0.8-2.9-1.7-4.3-5.4-9.5s-3.3-5.1-3.3-5.1
			C13.6,16.3,12.1,18.2,10.8,20.2z"/>
		<path class="st14" d="M22.3,11.9c0,4.1-3.3,7.4-7.4,7.4c-4.1,0-7.4-3.3-7.4-7.4c0-4.1,3.3-7.4,7.4-7.4S22.3,7.8,22.3,11.9
			C22.3,11.9,22.3,11.9,22.3,11.9"/>
		<path class="st16" d="M10,18.4c0.7,0.3,1.3,0.7,2,0.9c0,0,0-0.1,0-0.1l0.6,0.2c2.3,0.7,5.9,0.5,6.8-2.1c1-2.8-3.4-2-4.7-1.8
			c-1.4,0.1-2.7-0.4-3.8-1.3c-0.1-0.3-0.3-0.5-0.6-0.6C9.3,12.5,9,10.9,9.5,9.4c0.3-0.7-0.6-1-1.1-0.7C8.3,8.4,7.9,8.2,7.5,8.3
			C7.3,8.4,7.2,8.5,7.1,8.7C7.1,9,7,9.3,7,9.6c-0.3,0.6-0.4,1.2-0.3,1.8c0,0.2,0.1,0.3,0.2,0.5c-0.1,0.1-0.1,0.3-0.1,0.4
			c0.3,2.5,1.6,4.7,3.6,6.1L10,18.4"/>
		<circle class="st15" cx="14.6" cy="11.9" r="7.4"/>
		<path class="st11" d="M18.6,23c-0.5,2.8,0.9,11.7,15.7,6.4"/>
		<path class="st17" d="M11.5,19.6c0.7,1.2,2,1.9,3.4,1.9c1.3,0,2.5-0.7,3-1.9"/>
		<path class="st11" d="M17.7,41.9c0,0,0.2,3.5,2.6,2.6s6.8-4.7,7.5-3.5c0.3,0.6,0.6,1.2,0.8,1.9"/>
		<path class="st11" d="M27.7,48.7c-0.1,0.3-0.9,8.1-0.9,8.1"/>
		<path class="st18" d="M11.2,22h0.7C18,22,23,27,23,33.2v5.7C23,45,18,50,11.8,50h-0.7C5,50,0,45,0,38.9v-5.7C0,27,5,22,11.2,22z"
			/>
		<path class="st19" d="M5,38.5v-6.3c-0.2-4.7,2.6-9,6.9-10.7c-0.1,0-0.7,0.5-0.9,0.5h-0.6C4.2,22,0,26,0,32.2v5.5
			c0.1,5.9,4.6,10.7,10.5,11.1C7,46.5,5,42.6,5,38.5z"/>
		<path class="st7" d="M24,37.2C24,43.7,18.7,49,12.1,49h-0.3C5.3,49,0,43.7,0,37.2v-5.3C0,25.4,5.3,20,11.9,20h0.3
			C18.7,20,24,25.4,24,31.9V37.2z M22,32.9c0-6-4.9-10.9-10.9-10.9l0,0h-0.2C4.9,22,0,26.9,0,32.9l0,0v6.2C0,45.2,4.9,50,10.9,50
			l0,0h0.2c6,0,10.9-4.9,10.9-10.9c0,0,0,0,0,0S22,32.9,22,32.9z"/>
		<path class="st7" d="M21.4,3.3c-0.1-0.6-0.3-1.1-0.6-1.6c-0.2-0.7-0.9-1.1-1.6-1.1c-0.2,0-0.4,0-0.6-0.1C18.3,0.3,18,0.1,17.7,0
			c-0.7-0.1-1.3,0.6-1.8,0.6C15.6,0.4,15.3,0.2,15,0c-0.8-0.1-1.6,0.1-2.4,0.4c-0.5-0.2-1.1-0.3-1.7-0.3c-0.3,0-0.6,0.1-0.8,0.2
			c-0.6-0.1-1.3,0-1.9,0.2h0.5C8,0.4,2.6,1.5,4.3,3C3.6,3,3,3.5,3,4.2c0,0.3,0,0.5,0.2,0.7C1.4,5.2,1.1,7,2,8.5
			c-0.9,0-1.1,1.2-1.1,2c0.1,1,0.6,2,1.6,2.5c-0.6-0.1-0.8,0.8-0.8,1.3c0.1,0.9,0.7,1.6,1.6,1.8c-0.2,0-0.3,0-0.5,0
			c0,0.5,0.2,0.9,0.6,1.2c0.5,0.5,0.7,1.3,0.6,2c-0.2,1.3-1.4,1.6-2.5,1.9c1,0.2,4.5,0.3,4.3-1.4c0.2,0.7,0.3,1.5,0.3,2.2
			c-0.2,1.2-1,1.6-1.8,2c1.8,0.3,4.2,1,5.8,0.1c1.5-0.8,1.6-1.8,1.7-3.4c0.8,0,1.7,0.1,2.5,0.2c0.6,0.2,1.2-0.1,1.5-0.6
			c0.3-0.2,0.5-0.5,0.7-0.8c0-0.5-0.4-1-0.9-1.1c1.3,0.1,1.8,0.3,2.6-1c0.5-0.9,0.6-2,0.1-2.9c0.9-0.3,1.6-1.1,1.7-2.1
			c0.1-0.5,0-0.9,0-1.4c0-0.2,0.1-0.4,0.1-0.6c0.4-0.7,0.5-1.6,0.3-2.3c-0.1-0.4-0.4-0.7-0.6-1C19.9,7,20,6.9,20,6.8
			c0.5-0.9,0.6-1.5-0.2-2.3C20.5,4.2,21.3,4,21.4,3.3z"/>
	</g>
</g>
</svg>
