<svg id="Capa_1" data-name="Capa 1" xmlns="http://www.w3.org/2000/svg" viewBox="0 0 349.57 200.89"><defs><style>.cls-1{fill:none;stroke:#214d6a;stroke-linecap:round;stroke-linejoin:round;stroke-width:4px;}</style></defs><title>p2_cuadro</title><path class="cls-1" d="M1161.53,1117.06c-1.6-6.08-8.45-11.66-15-12.33a1411.55,1411.55,0,0,0-275.1,0c-6.53.67-13.39,6.25-15,12.33a350.56,350.56,0,0,0-7.71,43.74,33.67,33.67,0,0,1-23.08-2.92s8.38,11.31,21.86,16.66h0a331.61,331.61,0,0,0,8.94,101.33c1.6,6.08,8.45,11.66,15,12.33a1411.5,1411.5,0,0,0,275.1,0c6.53-.67,13.39-6.25,15-12.33C1174.46,1222.27,1174.47,1170.69,1161.53,1117.06Z" transform="translate(-823.67 -1096.02)"/></svg>