<svg xmlns="http://www.w3.org/2000/svg" viewBox="0 0 69 54.79"><defs><style>.cls-1{isolation:isolate;}.cls-2,.cls-22{fill:#cbcbcb;}.cls-11,.cls-12,.cls-13,.cls-14,.cls-18,.cls-2,.cls-20,.cls-3,.cls-4,.cls-5,.cls-6,.cls-7,.cls-8{stroke:#1c4a65;stroke-miterlimit:10;}.cls-11,.cls-12,.cls-13,.cls-14,.cls-2,.cls-20,.cls-3,.cls-4,.cls-5,.cls-6,.cls-7,.cls-8{stroke-linecap:round;}.cls-17,.cls-3,.cls-4,.cls-5,.cls-6,.cls-8{fill:#fff;}.cls-4{stroke-width:0.77px;}.cls-5{stroke-width:0.41px;}.cls-6{stroke-width:0.62px;}.cls-7{fill:#656565;stroke-width:0.72px;}.cls-8{stroke-width:0.71px;}.cls-9{fill:#1c4a65;}.cls-10,.cls-14,.cls-21{fill:#f1f1f0;}.cls-10{opacity:0.2;}.cls-11,.cls-12,.cls-13,.cls-18,.cls-20{fill:none;}.cls-11{stroke-width:0.21px;}.cls-12,.cls-14{stroke-width:0.82px;}.cls-13,.cls-18{stroke-width:1.65px;}.cls-15,.cls-16{fill:#99989d;}.cls-16{mix-blend-mode:multiply;}.cls-19{fill:#dfdee4;}.cls-20{stroke-width:1.6px;}</style></defs><title>p2_compu_web</title><g class="cls-1"><g id="Layer_1" data-name="Layer 1"><polyline class="cls-2" points="21.5 31.26 21.5 44.31 54.67 49.8 66.59 41.2 66.59 28.69"/><polygon class="cls-3" points="18.6 29.52 18.73 32.18 55.2 37.72 68.5 30.37 68.5 27.54 33.29 24.77 18.6 29.52"/><path class="cls-4" d="M441.6,124.27c0.38,0,14.13-5,14.13-5l34.18,3.11-12.43,7Z" transform="translate(-423 -94.74)"/><path class="cls-5" d="M458,121.76c0.09,0,3.27-1.16,3.27-1.16l7.91,0.72-2.88,1.61Z" transform="translate(-423 -94.74)"/><path class="cls-6" d="M450.41,124.35c0.13,0,4.87-2.2,4.87-2.2l14.83,2-4.38,2.46Z" transform="translate(-423 -94.74)"/><polygon class="cls-2" points="43.51 26.15 42.22 26.39 40.73 19.76 43.56 19.76 43.51 26.15"/><polygon class="cls-3" points="42.18 26.43 39.5 26.18 39.5 19.76 42.15 19.76 42.18 26.43"/><polygon class="cls-7" points="31.5 2.01 50.27 22.42 52.19 21.51 51.65 2.35 31.5 2.01"/><polygon class="cls-8" points="30.08 2.01 29.52 20.42 50.4 22.33 49.95 2.34 30.08 2.01"/><polygon class="cls-9" points="31.03 3.58 48.72 3.58 49.08 20.65 30.54 18.81 31.03 3.58"/><path class="cls-10" d="M470.33,99.48L455.17,109l8.44-3.19s-7.43,5.07-7.2,5,13.28-7,13.28-7l-4,.24" transform="translate(-423 -94.74)"/><line class="cls-11" x1="32.87" y1="28.17" x2="43.94" y2="29.61"/><line class="cls-11" x1="32.11" y1="28.56" x2="43.1" y2="29.97"/><line class="cls-11" x1="31.01" y1="28.93" x2="42.67" y2="30.48"/><line class="cls-11" x1="29.94" y1="29.32" x2="42.2" y2="30.99"/><line class="cls-12" x1="53.76" y1="37.5" x2="54.08" y2="49.39"/><path class="cls-13" d="M441.22,140.62c-0.08.31-.93,8.09-0.93,8.09" transform="translate(-423 -94.74)"/><ellipse class="cls-14" cx="16.35" cy="42.29" rx="13.07" ry="6.91"/><path class="cls-15" d="M434.38,112.16c-1.26,2.24-2.16,3.26-3.62,9.27a27.2,27.2,0,0,0,.16,10.15c0.25,1.26,1.94,1.25,5.07,1.77a21.71,21.71,0,0,0,6.34-.28c1-.14,5-1,5.23-3.9,0.21-2.23,1-4.59,0-8-0.83-2.93-1.73-4.3-5.38-9.53s-3.34-5.11-3.34-5.11a40.26,40.26,0,0,0-4.46,5.67" transform="translate(-423 -94.74)"/><path class="cls-16" d="M444.83,132.8c4.8-1.8-1.14-5.88-2.15-9.84-0.75-2.91,1-2.92-.68-5.37-0.71-1,.47-2.82-0.11-3.91-0.48-.91-1.2-0.39-1.9-1.16-1.93-2.11-4.06-2.43-5.13-.94-1.74,2.41-3.08,2.44-3.12,5.42-0.05,3.59-2.39,13.28-1.65,14.85a10,10,0,0,0,4.55,1.95,22.13,22.13,0,0,0,10.2-1" transform="translate(-423 -94.74)"/><path class="cls-17" d="M447.2,122.64L446.53,121c-5.23,2.35-11.07,1.14-14.71-.1l-1.25,3.72c3.46,1.41,10.3,3.28,17.05-.19Z" transform="translate(-423 -94.74)"/><path class="cls-18" d="M434.1,112.16c-1.26,2.24-1.73,1.89-3.19,7.9a34.61,34.61,0,0,0,0,11.52c0.25,1.26,1.67,1.25,4.8,1.77a21.68,21.68,0,0,0,6.33-.28c1-.14,5-1,5.24-3.9,0.21-2.23,1-4.59,0-8-0.83-2.93-1.73-4.3-5.38-9.53s-3.34-5.11-3.34-5.11A40.36,40.36,0,0,0,434.1,112.16Z" transform="translate(-423 -94.74)"/><path class="cls-17" d="M445.63,103.88a7.44,7.44,0,1,1-7.44-7.44,7.44,7.44,0,0,1,7.44,7.44" transform="translate(-423 -94.74)"/><path class="cls-19" d="M433.3,110.4c0.67,0.33,1.32.67,2,.95,0,0,0-.08,0-0.11l0.58,0.19c2.31,0.67,5.93.46,6.81-2.08,1-2.78-3.41-2-4.66-1.85a5.19,5.19,0,0,1-3.77-1.29,0.83,0.83,0,0,0-.57-0.57,4.21,4.21,0,0,1-.92-4.26c0.25-.66-0.6-1-1.08-0.68a0.68,0.68,0,0,0-1.29,0c-0.05.27-.1,0.55-0.14,0.84a2.87,2.87,0,0,0-.35,1.85,0.69,0.69,0,0,0,.22.46,0.51,0.51,0,0,0-.11.4,8.57,8.57,0,0,0,3.58,6.11l-0.25,0" transform="translate(-423 -94.74)"/><circle class="cls-18" cx="14.92" cy="9.13" r="7.44"/><path class="cls-13" d="M441.91,115c-0.48,2.78.87,11.72,15.71,6.39" transform="translate(-423 -94.74)"/><path class="cls-20" d="M434.86,111.58a4,4,0,0,0,3.36,1.88,3.21,3.21,0,0,0,3-1.88" transform="translate(-423 -94.74)"/><path class="cls-13" d="M441.05,133.85s0.23,3.47,2.62,2.62,6.85-4.7,7.47-3.47a10.4,10.4,0,0,1,.77,1.85" transform="translate(-423 -94.74)"/><path class="cls-13" d="M451.06,140.62c-0.08.31-.92,8.09-0.92,8.09" transform="translate(-423 -94.74)"/><rect class="cls-21" y="19.26" width="23" height="28" rx="11.17" ry="11.17"/><path class="cls-22" d="M428,130.45v-6.26a11.2,11.2,0,0,1,7.09-10.7c-0.13,0-.57.51-0.7,0.51h-0.66c-6.17,0-10.73,3.95-10.73,10.12v5.45a11.26,11.26,0,0,0,10.49,11.13A12.09,12.09,0,0,1,428,130.45Z" transform="translate(-423 -94.74)"/><path class="cls-9" d="M447,129.13A11.87,11.87,0,0,1,435.13,141h-0.26A11.87,11.87,0,0,1,423,129.13v-5.26A11.87,11.87,0,0,1,434.87,112h0.26A11.87,11.87,0,0,1,447,123.87v5.26Zm-1-4.25A10.88,10.88,0,0,0,435.12,114h-0.24A10.88,10.88,0,0,0,424,124.88v6.24A10.88,10.88,0,0,0,434.88,142h0.24A10.88,10.88,0,0,0,446,131.12v-6.24Z" transform="translate(-423 -94.74)"/><path class="cls-9" d="M443.47,95.29a22.36,22.36,0,0,0-5.45-.53,22.08,22.08,0,0,0-4.2.53c-0.19,0-2.39-.15-2.39-0.15l0.61,0.8a21.31,21.31,0,0,0-2,.72,8.72,8.72,0,0,1,.83.72s-1.14.53-1.55,3.56-0.53,6.29.76,7.84a22.16,22.16,0,0,0,2.2,2.35l3.9,0.3,3.15-.08s0.64-2,.61-2.16,0.61-2.46.49-2.46-3.75-2.57-2.35-3.45,3.14,1,3.14,1,1.59-.8,1.33-2.12a3.34,3.34,0,0,0-.83-1.82s1.82-.91,2.08-1.1,1.36,1.14,2-.61,0.91-2,.72-2.12a1.61,1.61,0,0,0-.64-0.15,4.5,4.5,0,0,0-1,.34Z" transform="translate(-423 -94.74)"/></g></g></svg>