<svg id="Layer_1" data-name="Layer 1" xmlns="http://www.w3.org/2000/svg" viewBox="0 0 142.87 72.01"><defs><style>.cls-1{fill:#7dab39;}.cls-2{fill:#d1b46b;}.cls-2,.cls-3,.cls-4,.cls-7{stroke:#1c4a65;stroke-linecap:round;stroke-linejoin:round;stroke-width:2px;}.cls-2,.cls-3,.cls-4,.cls-5{fill-rule:evenodd;}.cls-3{fill:#c8c84a;}.cls-4{fill:#f7eb45;}.cls-5,.cls-6{fill:#e5b449;}.cls-7{fill:none;}.cls-8{fill:#1c4a65;}</style></defs><title>p2_camping</title><ellipse class="cls-1" cx="71.43" cy="58.91" rx="71.43" ry="13.11"/><path class="cls-2" d="M2258.21,582.4h4.28V591a5,5,0,0,1-4.28,0V582.4Z" transform="translate(-2240.55 -539.06)"/><path class="cls-3" d="M2260.35,540.06a79.38,79.38,0,0,1,12.4,42.77,38.64,38.64,0,0,1-24.81,0C2248.72,568.57,2253.48,554.31,2260.35,540.06Z" transform="translate(-2240.55 -539.06)"/><path class="cls-4" d="M2350.13,592a66.18,66.18,0,0,1-40.39-36.63s-12,28.94-40.05,36.63H2289v9h41.8v-9h19.32Z" transform="translate(-2240.55 -539.06)"/><path class="cls-5" d="M2311.42,561.72a37.62,37.62,0,0,1-1.7-3.82s-10.64,23.75-33.35,33h7C2300.74,583.59,2308.63,567.54,2311.42,561.72Z" transform="translate(-2240.55 -539.06)"/><path class="cls-5" d="M2308,561.13a37.32,37.32,0,0,0,1.75-3.82s8,22.23,34,33.54h-5.59C2320.38,583.6,2310.88,566.95,2308,561.13Z" transform="translate(-2240.55 -539.06)"/><rect class="cls-6" x="49.58" y="57.68" width="39.51" height="3.11"/><polygon class="cls-5" points="69.71 26.06 69.71 59.67 76.31 59.72 69.71 26.06"/><polygon class="cls-5" points="69.3 25.54 62.71 59.62 69.3 59.67 69.3 25.54"/><line class="cls-7" x1="31.72" y1="53.56" x2="15.31" y2="62.08"/><rect class="cls-8" x="14.35" y="57.29" width="1.6" height="6.39"/><line class="cls-7" x1="103.21" y1="53.56" x2="119.62" y2="62.08"/><rect class="cls-8" x="118.98" y="57.29" width="1.6" height="6.39"/></svg>