<svg id="Capa_1" data-name="Capa 1" xmlns="http://www.w3.org/2000/svg" viewBox="0 0 213.93 119.06"><defs><style>.cls-1{fill:#014a67;}.cls-2{fill:#d1d3d4;}</style></defs><title>p2_dialogo</title><path class="cls-1" d="M962.73,494.58c7.35-4.4,12.61-11.3,13.82-19.88,0.14-1,.17-1.95.26-2.92s-0.12.66-.05,0c0.21-1.86.58-3.7,0.79-5.56,1.58-14,1-31-8.69-42.16-7.08-8.12-17.86-9.3-28-10.45-14.87-1.69-29.91-2-44.87-2.15a952.8,952.8,0,0,0-97.42,3.74c-7.88.75-19.47,0.43-25.84,6-5.33,4.62-7.12,12.09-7.93,18.79-1.11,9.16-.4,18.51.82,27.62,1.1,8.18,1.81,17.39,8,23.49,5.16,5.09,12.67,7.7,19.77,8.47,10.47,1.13,21.43.16,32,.16L823,497.87c3.68,13.36-4.87,25.83-18.46,27.71-2.86.4-2.06,4.87,0.66,4.91,21,0.33,41.2-12.18,47.1-32.79l-2.41,1.84c31.63,0.3,63.54.62,95.09-1.9,5.59-.45,12.65-0.37,17.75-3.05,2.85-1.5.32-5.82-2.52-4.32-3.72,2-10.37,2-14.84,2.34-9.06.74-18.16,1.08-27.25,1.35-18.54.55-37.09,0.68-55.63,0.64q-6.3,0-12.59-.06a2.55,2.55,0,0,0-2.41,1.84c-5.29,18.5-23.48,29.41-42.28,29.12l0.66,4.91c16.3-2.26,26.29-18.14,22-33.86a2.55,2.55,0,0,0-2.41-1.84c-9.95,0-20,.39-29.92,0a32.66,32.66,0,0,1-10.41-2.29c-7.8-3-11.52-8.47-13-16.5A148.49,148.49,0,0,1,769.35,452c-0.19-7.6-.05-16.35,3.7-23.2,4.25-7.75,14.54-7.48,22.3-8.28,28.62-2.95,57.55-3.86,86.3-4.07,14.8-.11,29.63,0,44.41.92,10,0.59,20.77,1,30.38,4.15,15.22,5,17.24,24.7,16.62,38.27-0.53,11.74-1.72,23.78-12.85,30.45C957.45,491.92,960,496.24,962.73,494.58Z" transform="translate(-764.29 -411.44)"/><path class="cls-2" d="M959.65,422.33c-3.36-1.84-10.28-3.31-20.32-4.38,0.66,0.26,1.32.5,2,.78,7.29,3.11,14,7.92,18,14.88,4.54,7.83,4.9,17,4.21,25.82-0.59,7.59-2.25,15.53-7.77,21.15-6.48,6.59-16.09,8-24.82,9.11-15,1.88-29.92.64-44.94-.18-11.41-.62-24.29-2.06-34.94,3A41.31,41.31,0,0,0,839,501.91c-0.29,1.09-.6,2.18-0.94,3.26-1.54,4.88-4.85,9.29-7.33,13.28,6.83-4.34,14.32-11.17,17.23-21.93l0.4-1.49h1.55c0.07,0,6.87.06,16.95,0.06h0c53.71,0,88.72-1.65,93.63-4.42,12.17-6.85,11.84-18.73,11.82-19.22v-0.24l0-.24C972.41,470.6,979.5,433.24,959.65,422.33Z" transform="translate(-764.29 -411.44)"/></svg>