<?xml version="1.0" encoding="utf-8"?>
<!-- Generator: Adobe Illustrator 19.2.1, SVG Export Plug-In . SVG Version: 6.00 Build 0)  -->
<svg version="1.1" id="Capa_1" xmlns="http://www.w3.org/2000/svg" xmlns:xlink="http://www.w3.org/1999/xlink" x="0px" y="0px"
	 viewBox="0 0 42.6 40.3" style="enable-background:new 0 0 42.6 40.3;" xml:space="preserve">
<style type="text/css">
	.st0{fill:#04A7DB;}
	.st1{fill:#1D4B66;}
</style>
<title>p2_estrella</title>
<polygon class="st0" points="21.3,0.7 27.6,13.5 41.8,15.6 31.5,25.5 34,39.6 21.3,33 8.7,39.6 11.1,25.5 0.9,15.6 15,13.5 "/>
<path class="st1" d="M20.5,1.1l3.6,7.3c0.7,1.4,1.6,4.8,2.9,5.7s4.8,0.8,6.4,1l8,1.2l-0.3-1.1l-5.8,5.7c-1.2,1.1-4.1,3-4.7,4.6
	s0.7,4.8,1,6.4l1.4,8l1.4-0.8l-7.2-3.8c-1.5-0.8-4.1-3-5.9-2.9s-4.4,2.2-5.9,3l-7.2,3.8l1.3,0.5l1.4-8c0.3-1.5,1.5-4.8,1-6.3
	s-3.5-3.4-4.6-4.5l-5.8-5.7l-0.7,1.2l8-1.2c1.7-0.3,5.2,0,6.7-1.1c1.3-0.9,2.2-4.1,2.9-5.5l3.8-7.7c0.5-0.9-1.3-1-1.7-0.2L17.3,7
	l-2,4.1c-0.2,0.4-1.5,2.6-0.7,2s-1.2,0-1.7,0.1l-4.8,0.7l-7.1,1c-0.6,0.1-1.3,0.6-0.7,1.2l5.1,5c1.1,1,4.7,3.9,5,4.8s-1,5.2-1.3,6.8
	l-1.2,7c-0.1,0.7,0.9,0.7,1.3,0.5l6.3-3.3l4-2.1c0.5-0.3,2.5-1.1,1.9-1.1c-0.9,0,1.3,0.9,1.5,1l4.3,2.3l6.3,3.3
	c0.5,0.2,1.1-0.1,1.3-0.6c0-0.1,0.1-0.2,0.1-0.3l-1.2-7l-0.8-4.5c-0.1-0.4-0.4-2.7-0.5-2.2s1.1-1,1.4-1.3l3.5-3.4l5.1-5
	c0.4-0.4,0.4-1-0.3-1.1l-7.1-1c-1.5-0.2-6.2-0.4-6.8-0.9S25.9,8,25.2,6.7l-3.2-6.4C21.8-0.4,20.1,0.3,20.5,1.1z"/>
</svg>
