<?xml version="1.0" encoding="utf-8"?>
<!-- Generator: Adobe Illustrator 19.2.1, SVG Export Plug-In . SVG Version: 6.00 Build 0)  -->
<svg version="1.1" id="Capa_1" xmlns="http://www.w3.org/2000/svg" xmlns:xlink="http://www.w3.org/1999/xlink" x="0px" y="0px"
	 viewBox="0 0 54.7 67.1" style="enable-background:new 0 0 54.7 67.1;" xml:space="preserve">
<style type="text/css">
	.st0{fill:none;stroke:#1C4A65;stroke-width:1.743;stroke-linecap:round;stroke-miterlimit:10;}
	.st1{fill:#ADACB2;}
	.st2{opacity:0.3;fill:#ADACB2;}
	.st3{fill:none;stroke:#1C4A65;stroke-width:1.743;stroke-miterlimit:10;}
	.st4{fill:#FFFFFF;}
	.st5{fill:#DFDEE4;}
	.st6{fill:none;stroke:#1C4A65;stroke-width:0.939;stroke-linecap:round;stroke-miterlimit:10;}
	.st7{fill:#1C4A65;}
	.st8{fill:#F7F7F8;stroke:#1B98C6;stroke-width:0.4814;stroke-linecap:round;stroke-miterlimit:10;}
	.st9{fill:none;stroke:#1B98C6;stroke-width:0.4814;stroke-linecap:round;stroke-miterlimit:10;}
	.st10{fill:none;stroke:#1B98C6;stroke-linecap:round;stroke-miterlimit:10;}
	.st11{fill:#1B98C6;stroke:#1C4A65;stroke-width:0.9628;stroke-linecap:round;stroke-miterlimit:10;}
	.st12{fill:none;stroke:#1C4A65;stroke-width:0.9628;stroke-linecap:round;stroke-miterlimit:10;}
</style>
<title>p2_fernando</title>
<g>
	<g>
		<g>
			<g>
				<g>
					<path class="st0" d="M35,66.1c0,0-0.2-10.8-0.6-24.8"/>
					<path class="st0" d="M43.1,66.4c0,0,0-12.1-0.6-24.8"/>
					<path class="st1" d="M34.6,19.3c-1.3,2.4-3.4,3.3-4.9,9.7c-0.6,2.5-0.7,4.8,0,8.5c0.3,1.3,3.3,3.7,6.6,4.2
						c1.7,0.3,3.8,0.1,6.7-0.3c1-0.1,5.2-1,5.5-4.1c0.2-2.4,1-4.8,0-8.5c-0.9-3.1-1.8-4.5-5.7-10c-3.8-5.5-3.5-5.4-3.5-5.4
						S35.9,16.9,34.6,19.3"/>
					<path class="st2" d="M45.9,24.5c-0.6-1.3-1.4-2.5-2-3.8c-0.3-0.7-0.7-1.7-1.5-2c-0.1-0.1-0.3-0.2-0.5-0.3
						c0.2-0.1,0.4-0.2,0.6-0.3c0.2-0.1,0.4-0.3,0.6-0.4c-1.2,0.3-2.5,0.7-3.6,1.4c0.1,0,0.3,0,0.4-0.1c-0.3,0.3-0.5,0.8-0.5,1.3
						c0,1.4,0.7,2.7,1.4,3.8c1.2,1.9,2,3.6,2.3,5.9c0.2,2,0,4.1-0.4,6.1c-0.4,1.5-1.7,2.4-2,4c-0.3,1.6,1,1.6,2.2,1.3
						c0.3,0.1,0.6,0,0.8-0.2c0.3-0.1,0.6-0.3,0.9-0.4c2.4-1.2,3.2-3.3,3.4-5.9C48.3,31.2,47.4,27.7,45.9,24.5"/>
					<path class="st3" d="M34.3,19.3c-1.3,2.4-3.4,3.3-4.9,9.7c-0.6,2.5-0.7,4.8,0,8.5c0.3,1.3,3.3,3.7,6.6,4.2
						c1.7,0.3,3.8,0.1,6.7-0.3c1-0.1,5.2-1,5.5-4.1c0.2-2.4,1-4.8,0-8.5c-0.9-3.1-1.8-4.5-5.7-10c-3.8-5.5-3.5-5.4-3.5-5.4
						S35.7,16.9,34.3,19.3z"/>
					<path class="st4" d="M46.5,10.6c0,4.3-3.5,7.8-7.8,7.8c-4.3,0-7.8-3.5-7.8-7.8c0-4.3,3.5-7.8,7.8-7.8
						C42.9,2.8,46.5,6.3,46.5,10.6"/>
					<path class="st5" d="M39.6,18.3c0.7-0.3,1.5-0.5,2.2-0.8c0,0-0.1,0-0.1,0c0.2-0.1,0.4-0.2,0.6-0.3c2.2-1.2,4.8-4.1,3.5-6.6
						c-1.4-2.8-4,1.1-4.9,2.1c-0.9,1.1-2.3,1.7-3.8,1.8c-0.3-0.2-0.6-0.1-0.8,0c-1.6-0.1-3.1-0.9-3.9-2.5c-0.3-0.7-1.2-0.3-1.3,0.3
						c-0.6-0.3-1.4,0.4-1,1c0.2,0.2,0.3,0.5,0.5,0.7c0.1,0.7,0.6,1.2,1.1,1.6c0.2,0.1,0.3,0.2,0.5,0.2c0,0.1,0.1,0.3,0.2,0.4
						c2.1,1.6,4.7,2.4,7.2,1.9C39.7,18.2,39.6,18.2,39.6,18.3"/>
					<circle class="st3" cx="38.3" cy="10.6" r="7.8"/>
					<path class="st0" d="M34.9,19.3c0,0,1.2,2,3.6,2c2.5,0,3.3-2,3.3-2"/>
					<g>
						<path class="st6" d="M35.5,13.8c0,0,1,1.3,2.8,0.9c1.8-0.3,2.6-2.3,2.6-2.3"/>
						<circle class="st7" cx="35.9" cy="9.5" r="1"/>
						<circle class="st7" cx="40.6" cy="9.5" r="1"/>
					</g>
				</g>
			</g>
			<path class="st0" d="M33.3,20.4c0,0-10.7,3.1-10,19.5"/>
			<path class="st0" d="M43.7,20c0,0,10.7,3.1,10,19.5"/>
			<path class="st7" d="M30.3,11.4c0,0-0.9-2.4-0.7-5c0.2-2.6,1.6-3.7,1.6-3.7l-0.6-1.2l1.5,0.6L32,0.4l1.2,0.9c0,0,0.3-0.9,4-1.2
				c3.7-0.3,8.1,2.3,8.1,2.3L47,2.1c0,0-0.9,1.2-0.6,1c0.4-0.2,1.3-0.2,1.3-0.2L47,3.6c0,0,1,1.7,0.8,4.2c-0.2,2.5-1.8,4.3-1.8,4.3
				s0.7-5.2-1.8-7.3c-2.5-2-5.7-2.5-8.8-1.6c-3,0.9,2.8,2.5,2.8,2.5l-2.9-0.3c0,0-1.9-0.4-2.6,0.1c-0.7,0.5-1.9,2.5-1.9,2.5"/>
		</g>
		<g>
			<ellipse transform="matrix(0.9669 -0.2552 0.2552 0.9669 0.1963 8.9008)" class="st8" cx="34.4" cy="3.7" rx="2.7" ry="2.1"/>
			<line class="st9" x1="31.7" y1="4.6" x2="30" y2="9.1"/>
			<g>
				<ellipse transform="matrix(0.2553 -0.9669 0.9669 0.2553 28.0191 43.7125)" class="st8" cx="42.4" cy="3.7" rx="2.1" ry="2.7"/>
				<line class="st10" x1="36.9" y1="3.8" x2="39.9" y2="3.8"/>
				<line class="st9" x1="45.1" y1="4.3" x2="46.9" y2="8.8"/>
			</g>
		</g>
	</g>
	<g>
		<g>
			<path class="st11" d="M11.6,58.8c-1.6,2.7-5.1,3.5-7.8,1.9l0,0c-2.7-1.6-3.5-5.1-1.9-7.8l5.3-8.7c1.6-2.7,5.1-3.5,7.8-1.9l0,0
				c2.7,1.6,3.5,5.1,1.9,7.8L11.6,58.8z"/>
			<line class="st12" x1="11.4" y1="43.8" x2="3.4" y2="57.1"/>
			<line class="st12" x1="13.2" y1="44.9" x2="5.2" y2="58.2"/>
			<line class="st12" x1="15.1" y1="46" x2="7" y2="59.3"/>
		</g>
		<g>
			<ellipse transform="matrix(0.5177 -0.8555 0.8555 0.5177 -52.1263 38.1806)" class="st7" cx="7.8" cy="65.3" rx="1.6" ry="1.6"/>
			<ellipse transform="matrix(0.5178 -0.8555 0.8555 0.5178 -52.1248 38.177)" class="st4" cx="7.8" cy="65.3" rx="0.6" ry="0.6"/>
		</g>
		<rect x="2" y="51.9" transform="matrix(0.5183 -0.8552 0.8552 0.5183 -37.2217 39.0518)" class="st7" width="28.1" height="1.3"/>
		<rect x="4" y="56.5" transform="matrix(0.4599 -0.888 0.888 0.4599 -52.068 37.3272)" class="st7" width="1.2" height="9.8"/>
	</g>
</g>
</svg>
