<?xml version="1.0" encoding="utf-8"?>
<!-- Generator: Adobe Illustrator 19.2.1, SVG Export Plug-In . SVG Version: 6.00 Build 0)  -->
<svg version="1.1" id="Layer_1" xmlns="http://www.w3.org/2000/svg" xmlns:xlink="http://www.w3.org/1999/xlink" x="0px" y="0px"
	 viewBox="0 0 149.2 132.7" style="enable-background:new 0 0 149.2 132.7;" xml:space="preserve">
<style type="text/css">
	.st0{fill:#E9C29C;stroke:#1C4A65;stroke-width:2;stroke-miterlimit:22.93;}
	.st1{fill:#FFFFFF;stroke:#1C4A65;stroke-miterlimit:22.93;}
	.st2{fill:#A6C9E3;stroke:#1C4A65;stroke-miterlimit:22.93;}
	.st3{fill:#905C53;stroke:#1C4A65;stroke-width:2;stroke-linecap:round;stroke-linejoin:round;}
	.st4{fill:none;stroke:#1C4A65;stroke-miterlimit:22.93;}
	.st5{fill:#CECBC3;stroke:#1C4A65;stroke-miterlimit:22.93;}
	.st6{fill:#6D3129;stroke:#1C4A65;stroke-linecap:round;stroke-linejoin:round;}
	.st7{fill:#D1D1D1;}
	.st8{fill:#6D3129;stroke:#1C4A65;stroke-width:2;stroke-linecap:round;stroke-linejoin:round;}
</style>
<rect x="3.5" y="50.3" class="st0" width="142.3" height="36.4"/>
<rect x="1.2" y="88.8" class="st0" width="146.9" height="43.9"/>
<title>p2_hotel_5e</title>
<g>
	<rect x="115.4" y="53.7" class="st1" width="17.1" height="30.2"/>
	<rect x="118.3" y="56.5" class="st2" width="5.1" height="5.1"/>
	<rect x="125" y="56.5" class="st2" width="5.1" height="5.1"/>
	<rect x="118.3" y="62.8" class="st2" width="5.1" height="5.1"/>
	<rect x="125" y="62.8" class="st2" width="5.1" height="5.1"/>
	<rect x="118.3" y="69.1" class="st2" width="5.1" height="5.1"/>
	<rect x="125" y="69.1" class="st2" width="5.1" height="5.1"/>
	<rect x="118.3" y="75.8" class="st2" width="11.7" height="6.2"/>
</g>
<g>
	<rect x="94.7" y="53.4" class="st1" width="17.1" height="30.2"/>
	<rect x="97.5" y="56.2" class="st2" width="5.1" height="5.1"/>
	<rect x="104.2" y="56.2" class="st2" width="5.1" height="5.1"/>
	<rect x="97.5" y="62.5" class="st2" width="5.1" height="5.1"/>
	<rect x="104.2" y="62.5" class="st2" width="5.1" height="5.1"/>
	<rect x="97.5" y="68.8" class="st2" width="5.1" height="5.1"/>
	<rect x="104.2" y="68.8" class="st2" width="5.1" height="5.1"/>
	<rect x="97.5" y="75.5" class="st2" width="11.7" height="6.2"/>
</g>
<g>
	<rect x="36.4" y="53.7" class="st1" width="17.1" height="30.2"/>
	<rect x="39.2" y="56.5" class="st2" width="5.1" height="5.1"/>
	<rect x="45.9" y="56.5" class="st2" width="5.1" height="5.1"/>
	<rect x="39.2" y="62.8" class="st2" width="5.1" height="5.1"/>
	<rect x="45.9" y="62.8" class="st2" width="5.1" height="5.1"/>
	<rect x="39.2" y="69.1" class="st2" width="5.1" height="5.1"/>
	<rect x="45.9" y="69.1" class="st2" width="5.1" height="5.1"/>
	<rect x="39.2" y="75.8" class="st2" width="11.7" height="6.2"/>
</g>
<g>
	<rect x="64.9" y="53.7" class="st1" width="17.1" height="30.2"/>
	<rect x="67.7" y="56.5" class="st2" width="5.1" height="5.1"/>
	<rect x="74.4" y="56.5" class="st2" width="5.1" height="5.1"/>
	<rect x="67.7" y="62.8" class="st2" width="5.1" height="5.1"/>
	<rect x="74.4" y="62.8" class="st2" width="5.1" height="5.1"/>
	<rect x="67.7" y="69.1" class="st2" width="5.1" height="5.1"/>
	<rect x="74.4" y="69.1" class="st2" width="5.1" height="5.1"/>
	<rect x="67.7" y="75.8" class="st2" width="11.7" height="6.2"/>
</g>
<g>
	<rect x="15.6" y="53.4" class="st1" width="17.1" height="30.2"/>
	<rect x="18.5" y="56.2" class="st2" width="5.1" height="5.1"/>
	<rect x="25.2" y="56.2" class="st2" width="5.1" height="5.1"/>
	<rect x="18.5" y="62.5" class="st2" width="5.1" height="5.1"/>
	<rect x="25.2" y="62.5" class="st2" width="5.1" height="5.1"/>
	<rect x="18.5" y="68.8" class="st2" width="5.1" height="5.1"/>
	<rect x="25.2" y="68.8" class="st2" width="5.1" height="5.1"/>
	<rect x="18.5" y="75.5" class="st2" width="11.7" height="6.2"/>
</g>
<rect y="87.2" class="st3" width="149.2" height="3.2"/>
<rect y="47.1" class="st3" width="149.2" height="3.2"/>
<g>
	<g>
		<rect x="65.2" y="100" class="st1" width="18.6" height="32.7"/>
		<rect x="68.3" y="103" class="st2" width="5.5" height="5.5"/>
		<rect x="75.5" y="103" class="st2" width="5.5" height="5.5"/>
		<rect x="68.3" y="109.9" class="st2" width="5.5" height="5.5"/>
		<rect x="75.5" y="109.9" class="st2" width="5.5" height="5.5"/>
		<rect x="68.3" y="116.7" class="st2" width="5.5" height="5.5"/>
		<rect x="75.5" y="116.7" class="st2" width="5.5" height="5.5"/>
		<rect x="68.3" y="123.9" class="st2" width="12.7" height="6.8"/>
	</g>
	<line class="st4" x1="60" y1="101.8" x2="60" y2="132.4"/>
	<line class="st4" x1="89.2" y1="101.8" x2="89.2" y2="132.4"/>
	<path class="st5" d="M60,102c0-8.1,6.5-14.6,14.6-14.6s14.6,6.5,14.6,14.6H60z"/>
</g>
<g>
	<rect x="118.7" y="128.4" class="st6" width="23" height="3.8"/>
	<rect x="118.7" y="90.9" class="st6" width="23" height="3.8"/>
	<rect x="118.7" y="94.7" class="st2" width="23" height="33.7"/>
</g>
<g>
	<rect x="8.6" y="128.4" class="st6" width="23" height="3.8"/>
	<rect x="8.6" y="90.9" class="st6" width="23" height="3.8"/>
	<rect x="8.6" y="94.7" class="st2" width="23" height="33.7"/>
</g>
<g>
	<rect x="134.6" y="83.2" class="st1" width="5.2" height="4.2"/>
	<rect x="135.5" y="50.3" class="st1" width="3.4" height="32.9"/>
</g>
<g>
	<rect x="85.7" y="83.2" class="st1" width="5.2" height="4.2"/>
	<rect x="86.6" y="50.3" class="st1" width="3.4" height="32.9"/>
</g>
<g>
	<rect x="57.4" y="83.2" class="st1" width="5.2" height="4.2"/>
	<rect x="58.3" y="50.3" class="st1" width="3.4" height="32.9"/>
</g>
<g>
	<rect x="8.6" y="83.2" class="st1" width="5.2" height="4.2"/>
	<rect x="9.5" y="50.3" class="st1" width="3.4" height="32.9"/>
</g>
<rect x="3.5" y="10.7" class="st0" width="142.3" height="36.4"/>
<g>
	<rect x="115.4" y="14.1" class="st1" width="17.1" height="30.2"/>
	<rect x="118.3" y="16.9" class="st2" width="5.1" height="5.1"/>
	<rect x="125" y="16.9" class="st2" width="5.1" height="5.1"/>
	<rect x="118.3" y="23.2" class="st2" width="5.1" height="5.1"/>
	<rect x="125" y="23.2" class="st2" width="5.1" height="5.1"/>
	<rect x="118.3" y="29.5" class="st2" width="5.1" height="5.1"/>
	<rect x="125" y="29.5" class="st2" width="5.1" height="5.1"/>
	<rect x="118.3" y="36.2" class="st2" width="11.7" height="6.2"/>
</g>
<g>
	<rect x="94.7" y="13.8" class="st1" width="17.1" height="30.2"/>
	<rect x="97.5" y="16.6" class="st2" width="5.1" height="5.1"/>
	<rect x="104.2" y="16.6" class="st2" width="5.1" height="5.1"/>
	<rect x="97.5" y="22.9" class="st2" width="5.1" height="5.1"/>
	<rect x="104.2" y="22.9" class="st2" width="5.1" height="5.1"/>
	<rect x="97.5" y="29.2" class="st2" width="5.1" height="5.1"/>
	<rect x="104.2" y="29.2" class="st2" width="5.1" height="5.1"/>
	<rect x="97.5" y="35.9" class="st2" width="11.7" height="6.2"/>
</g>
<g>
	<rect x="36.4" y="14.1" class="st1" width="17.1" height="30.2"/>
	<rect x="39.2" y="16.9" class="st2" width="5.1" height="5.1"/>
	<rect x="45.9" y="16.9" class="st2" width="5.1" height="5.1"/>
	<rect x="39.2" y="23.2" class="st2" width="5.1" height="5.1"/>
	<rect x="45.9" y="23.2" class="st2" width="5.1" height="5.1"/>
	<rect x="39.2" y="29.5" class="st2" width="5.1" height="5.1"/>
	<rect x="45.9" y="29.5" class="st2" width="5.1" height="5.1"/>
	<rect x="39.2" y="36.2" class="st2" width="11.7" height="6.2"/>
</g>
<g>
	<rect x="64.9" y="14.1" class="st1" width="17.1" height="30.2"/>
	<rect x="67.7" y="16.9" class="st2" width="5.1" height="5.1"/>
	<rect x="74.4" y="16.9" class="st2" width="5.1" height="5.1"/>
	<rect x="67.7" y="23.2" class="st2" width="5.1" height="5.1"/>
	<rect x="74.4" y="23.2" class="st2" width="5.1" height="5.1"/>
	<rect x="67.7" y="29.5" class="st2" width="5.1" height="5.1"/>
	<rect x="74.4" y="29.5" class="st2" width="5.1" height="5.1"/>
	<rect x="67.7" y="36.2" class="st2" width="11.7" height="6.2"/>
</g>
<g>
	<rect x="15.6" y="13.8" class="st1" width="17.1" height="30.2"/>
	<rect x="18.5" y="16.6" class="st2" width="5.1" height="5.1"/>
	<rect x="25.2" y="16.6" class="st2" width="5.1" height="5.1"/>
	<rect x="18.5" y="22.9" class="st2" width="5.1" height="5.1"/>
	<rect x="25.2" y="22.9" class="st2" width="5.1" height="5.1"/>
	<rect x="18.5" y="29.2" class="st2" width="5.1" height="5.1"/>
	<rect x="25.2" y="29.2" class="st2" width="5.1" height="5.1"/>
	<rect x="18.5" y="35.9" class="st2" width="11.7" height="6.2"/>
</g>
<rect y="7.5" class="st3" width="149.2" height="3.2"/>
<g>
	<rect x="134.6" y="43.6" class="st1" width="5.2" height="4.2"/>
	<rect x="135.5" y="10.7" class="st1" width="3.4" height="32.9"/>
</g>
<g>
	<rect x="85.7" y="43.6" class="st1" width="5.2" height="4.2"/>
	<rect x="86.6" y="10.7" class="st1" width="3.4" height="32.9"/>
</g>
<g>
	<rect x="57.4" y="43.6" class="st1" width="5.2" height="4.2"/>
	<rect x="58.3" y="10.7" class="st1" width="3.4" height="32.9"/>
</g>
<g>
	<rect x="8.6" y="43.6" class="st1" width="5.2" height="4.2"/>
	<rect x="9.5" y="10.7" class="st1" width="3.4" height="32.9"/>
</g>
<g>
	<rect x="45.8" y="128" class="st1" width="9.4" height="4.7"/>
	<rect x="47.4" y="90.9" class="st1" width="6.2" height="37.1"/>
	<rect x="50.3" y="91.9" class="st7" width="2.2" height="35.5"/>
	<path class="st7" d="M52.9,129.3v-0.6h-2.2v1c0,0.3-0.2,0.4-0.4,0.5c-0.2,0.4-0.4,0.7-0.6,1c-0.7,0.9-1.7,0.9-2.5,0.4v0.4h7.4v-2.7
		L52.9,129.3L52.9,129.3z"/>
</g>
<g>
	<rect x="99.5" y="128" class="st1" width="9.4" height="4.7"/>
	<rect x="101.1" y="90.9" class="st1" width="6.2" height="37.1"/>
	<rect x="104.1" y="91.9" class="st7" width="2.2" height="35.5"/>
	<path class="st7" d="M106.7,129.3v-0.6h-2.2v1c0,0.3-0.2,0.4-0.4,0.5c-0.2,0.4-0.4,0.7-0.6,1c-0.7,0.9-1.7,0.9-2.5,0.4v0.4h7.4
		v-2.7L106.7,129.3L106.7,129.3z"/>
</g>
<polygon class="st8" points="143.4,1.3 5.8,1.3 -0.3,7.5 150.5,7.5 "/>
</svg>
