<?xml version="1.0" encoding="utf-8"?>
<!-- Generator: Adobe Illustrator 19.2.1, SVG Export Plug-In . SVG Version: 6.00 Build 0)  -->
<svg version="1.1" id="Layer_1" xmlns="http://www.w3.org/2000/svg" xmlns:xlink="http://www.w3.org/1999/xlink" x="0px" y="0px"
	 viewBox="0 0 183.8 157.6" style="enable-background:new 0 0 183.8 157.6;" xml:space="preserve">
<style type="text/css">
	.st0{fill:#D2D6D8;stroke:#1C4A65;stroke-width:2;stroke-miterlimit:22.93;}
	.st1{fill:#D2D6D8;stroke:#1C4A65;stroke-width:1.0347;stroke-miterlimit:22.93;}
	.st2{fill:#A6C9E3;stroke:#1C4A65;stroke-width:0.9792;stroke-miterlimit:22.93;}
	.st3{fill:#D2D6D8;stroke:#1C4A65;stroke-width:1.0821;stroke-miterlimit:22.93;}
	.st4{fill:#A6C9E3;stroke:#1C4A65;stroke-width:2;stroke-miterlimit:22.93;}
	.st5{fill:#FFFFFF;stroke:#1C4A65;stroke-width:2;stroke-miterlimit:22.93;}
	.st6{fill:#FFFFFF;stroke:#1C4A65;stroke-width:1.0821;stroke-miterlimit:22.93;}
	.st7{fill:#FFFFFF;stroke:#1C4A65;stroke-miterlimit:22.93;}
	.st8{fill:#D1D1D1;}
	.st9{fill:#1C4A65;}
</style>
<title>p2_hotel_5e</title>
<g>
	<rect x="2.7" y="108.4" class="st0" width="176.5" height="38.4"/>
	<g>
		<rect x="5.7" y="8.4" class="st0" width="57.9" height="99.8"/>
	</g>
	<g>
		<rect x="8.5" y="95.1" class="st1" width="53.1" height="10.6"/>
		<rect x="11" y="97.7" class="st2" width="23" height="5.5"/>
		<rect x="36.2" y="97.7" class="st2" width="23" height="5.5"/>
	</g>
	<g>
		<rect x="8.5" y="81.3" class="st1" width="53.1" height="10.6"/>
		<rect x="11" y="83.9" class="st2" width="23" height="5.5"/>
		<rect x="36.2" y="83.9" class="st2" width="23" height="5.5"/>
	</g>
	<g>
		<rect x="8.5" y="67.6" class="st1" width="53.1" height="10.6"/>
		<rect x="11" y="70.1" class="st2" width="23" height="5.5"/>
		<rect x="36.2" y="70.1" class="st2" width="23" height="5.5"/>
	</g>
	<g>
		<rect x="8.5" y="53.8" class="st1" width="53.1" height="10.6"/>
		<rect x="11" y="56.4" class="st2" width="23" height="5.5"/>
		<rect x="36.2" y="56.4" class="st2" width="23" height="5.5"/>
	</g>
	<g>
		<rect x="8.5" y="40" class="st1" width="53.1" height="10.6"/>
		<rect x="11" y="42.6" class="st2" width="23" height="5.5"/>
		<rect x="36.2" y="42.6" class="st2" width="23" height="5.5"/>
	</g>
	<g>
		<rect x="8.5" y="26.3" class="st1" width="53.1" height="10.6"/>
		<rect x="11" y="28.8" class="st2" width="23" height="5.5"/>
		<rect x="36.2" y="28.8" class="st2" width="23" height="5.5"/>
	</g>
	<g>
		<rect x="8.5" y="12.5" class="st1" width="53.1" height="10.6"/>
		<rect x="11" y="15.1" class="st2" width="23" height="5.5"/>
		<rect x="36.2" y="15.1" class="st2" width="23" height="5.5"/>
	</g>
	<g>
		<rect x="119.3" y="8.4" class="st0" width="57.9" height="99.8"/>
	</g>
	<g>
		<rect x="122.1" y="95.1" class="st1" width="53.1" height="10.6"/>
		<rect x="124.7" y="97.7" class="st2" width="23" height="5.5"/>
		<rect x="149.8" y="97.7" class="st2" width="23" height="5.5"/>
	</g>
	<g>
		<rect x="122.1" y="81.3" class="st1" width="53.1" height="10.6"/>
		<rect x="124.7" y="83.9" class="st2" width="23" height="5.5"/>
		<rect x="149.8" y="83.9" class="st2" width="23" height="5.5"/>
	</g>
	<g>
		<rect x="122.1" y="67.6" class="st1" width="53.1" height="10.6"/>
		<rect x="124.7" y="70.1" class="st2" width="23" height="5.5"/>
		<rect x="149.8" y="70.1" class="st2" width="23" height="5.5"/>
	</g>
	<g>
		<rect x="122.1" y="53.8" class="st1" width="53.1" height="10.6"/>
		<rect x="124.7" y="56.4" class="st2" width="23" height="5.5"/>
		<rect x="149.8" y="56.4" class="st2" width="23" height="5.5"/>
	</g>
	<g>
		<rect x="122.1" y="40" class="st1" width="53.1" height="10.6"/>
		<rect x="124.7" y="42.6" class="st2" width="23" height="5.5"/>
		<rect x="149.8" y="42.6" class="st2" width="23" height="5.5"/>
	</g>
	<g>
		<rect x="122.1" y="26.3" class="st1" width="53.1" height="10.6"/>
		<rect x="124.7" y="28.8" class="st2" width="23" height="5.5"/>
		<rect x="149.8" y="28.8" class="st2" width="23" height="5.5"/>
	</g>
	<g>
		<rect x="122.1" y="12.5" class="st1" width="53.1" height="10.6"/>
		<rect x="124.7" y="15.1" class="st2" width="23" height="5.5"/>
		<rect x="149.8" y="15.1" class="st2" width="23" height="5.5"/>
	</g>
	<g>
		<rect x="0.6" y="146.8" class="st0" width="182.6" height="7.5"/>
	</g>
	<rect x="64.1" y="3.5" class="st3" width="55.6" height="150.9"/>
	<rect x="42" y="3.5" class="st4" width="99.9" height="5"/>
	<path class="st5" d="M60.7,25c0-3.3,13.7-6,30.5-6s30.5,2.7,30.5,6V11.8c0-3.3-13.7-6-30.5-6s-30.5,2.7-30.5,6V25z"/>
	<path class="st5" d="M60.7,59.2c0-3.3,13.7-6,30.5-6s30.5,2.7,30.5,6v-8.6c0-3.3-13.7-6-30.5-6s-30.5,2.7-30.5,6V59.2z"/>
	<g>
		<rect x="76.1" y="116.4" class="st2" width="14.7" height="34.2"/>
		<rect x="90.8" y="116.4" class="st2" width="14.7" height="34.2"/>
	</g>
	<g>
		<rect x="72.2" y="60.9" class="st2" width="5.5" height="5.5"/>
		<rect x="80.7" y="60.9" class="st2" width="5.5" height="5.5"/>
		<rect x="89.2" y="60.9" class="st2" width="5.5" height="5.5"/>
		<rect x="97.7" y="60.9" class="st2" width="5.5" height="5.5"/>
		<rect x="106.2" y="60.9" class="st2" width="5.5" height="5.5"/>
		<rect x="72.2" y="68.3" class="st2" width="5.5" height="5.5"/>
		<rect x="80.7" y="68.3" class="st2" width="5.5" height="5.5"/>
		<rect x="89.2" y="68.3" class="st2" width="5.5" height="5.5"/>
		<rect x="97.7" y="68.3" class="st2" width="5.5" height="5.5"/>
		<rect x="106.2" y="68.3" class="st2" width="5.5" height="5.5"/>
		<rect x="72.2" y="75.8" class="st2" width="5.5" height="5.5"/>
		<rect x="80.7" y="75.8" class="st2" width="5.5" height="5.5"/>
		<rect x="89.2" y="75.8" class="st2" width="5.5" height="5.5"/>
		<rect x="97.7" y="75.8" class="st2" width="5.5" height="5.5"/>
		<rect x="106.2" y="75.8" class="st2" width="5.5" height="5.5"/>
		<rect x="72.2" y="83.3" class="st2" width="5.5" height="5.5"/>
		<rect x="80.7" y="83.3" class="st2" width="5.5" height="5.5"/>
		<rect x="89.2" y="83.3" class="st2" width="5.5" height="5.5"/>
		<rect x="97.7" y="83.3" class="st2" width="5.5" height="5.5"/>
		<rect x="106.2" y="83.3" class="st2" width="5.5" height="5.5"/>
	</g>
	<g>
		<rect x="72.2" y="27" class="st2" width="5.5" height="5.5"/>
		<rect x="80.7" y="27" class="st2" width="5.5" height="5.5"/>
		<rect x="89.2" y="27" class="st2" width="5.5" height="5.5"/>
		<rect x="97.7" y="27" class="st2" width="5.5" height="5.5"/>
		<rect x="106.2" y="27" class="st2" width="5.5" height="5.5"/>
		<rect x="72.2" y="34.5" class="st2" width="5.5" height="5.5"/>
		<rect x="80.7" y="34.5" class="st2" width="5.5" height="5.5"/>
		<rect x="89.2" y="34.5" class="st2" width="5.5" height="5.5"/>
		<rect x="97.7" y="34.5" class="st2" width="5.5" height="5.5"/>
		<rect x="106.2" y="34.5" class="st2" width="5.5" height="5.5"/>
	</g>
	<g>
		<polygon class="st6" points="53.1,122.7 7.9,122.7 10.2,115.5 50.8,115.5 		"/>
		<rect x="9.9" y="114.3" class="st2" width="40.9" height="1.2"/>
	</g>
	<g>
		<polygon class="st6" points="174.8,122.7 129.6,122.7 131.9,115.5 172.5,115.5 		"/>
		<rect x="131.7" y="114.3" class="st2" width="40.9" height="1.2"/>
	</g>
	<rect x="11" y="124.7" class="st2" width="10.7" height="22.2"/>
	<rect x="24.8" y="124.7" class="st2" width="10.7" height="22.2"/>
	<rect x="38.6" y="124.7" class="st2" width="10.7" height="22.2"/>
	<rect x="133.1" y="124.7" class="st2" width="10.7" height="22.2"/>
	<rect x="146.9" y="124.7" class="st2" width="10.7" height="22.2"/>
	<rect x="160.7" y="124.7" class="st2" width="10.7" height="22.2"/>
	<polygon class="st3" points="115,157 68.4,157 76.1,150.6 106.2,150.6 	"/>
	<g>
		<rect x="62.5" y="152.4" class="st7" width="9.3" height="4.7"/>
		<rect x="64.1" y="115.5" class="st7" width="6.2" height="36.9"/>
		<rect x="67.1" y="116.5" class="st8" width="2.2" height="35.3"/>
		<path class="st8" d="M69.7,153.7v-0.6h-2.2v1c0,0.3-0.2,0.4-0.4,0.5c-0.2,0.4-0.4,0.7-0.6,1c-0.7,0.9-1.7,0.9-2.5,0.4v0.4h7.4
			v-2.7L69.7,153.7L69.7,153.7z"/>
		<rect x="62.5" y="110.8" class="st7" width="9.3" height="4.7"/>
		<path class="st8" d="M69.7,112.1v-0.6h-2.2v1c0,0.3-0.2,0.4-0.4,0.5c-0.2,0.4-0.4,0.7-0.6,1c-0.7,0.9-1.7,0.9-2.5,0.4v0.4h7.4
			v-2.7L69.7,112.1L69.7,112.1z"/>
	</g>
	<g>
		<rect x="111.6" y="152.4" class="st7" width="9.3" height="4.7"/>
		<rect x="113.2" y="115.5" class="st7" width="6.2" height="36.9"/>
		<rect x="116.1" y="116.5" class="st8" width="2.2" height="35.3"/>
		<path class="st8" d="M118.7,153.7v-0.6h-2.2v1c0,0.3-0.2,0.4-0.4,0.5c-0.2,0.4-0.4,0.7-0.6,1c-0.7,0.9-1.7,0.9-2.5,0.4v0.4h7.4
			v-2.7L118.7,153.7L118.7,153.7z"/>
		<rect x="111.6" y="110.8" class="st7" width="9.3" height="4.7"/>
		<path class="st8" d="M118.7,112.1v-0.6h-2.2v1c0,0.3-0.2,0.4-0.4,0.5c-0.2,0.4-0.4,0.7-0.6,1c-0.7,0.9-1.7,0.9-2.5,0.4v0.4h7.4
			v-2.7L118.7,112.1L118.7,112.1z"/>
	</g>
	<path class="st5" d="M60.7,108.8c0-3.3,13.7-6,30.5-6s30.5,2.7,30.5,6v-8.6c0-3.3-13.7-6-30.5-6s-30.5,2.7-30.5,6V108.8z"/>
	<g>
		<polygon class="st9" points="74.4,97.7 75,99.4 76.7,99.4 75.3,100.4 75.8,102 74.4,101 73.1,102 73.6,100.4 72.2,99.4 73.9,99.4 
					"/>
		<polygon class="st9" points="82,96.4 82.5,98 84.2,98 82.8,99 83.3,100.6 82,99.6 80.6,100.6 81.1,99 79.7,98 81.4,98 		"/>
		<polygon class="st9" points="89.2,95.6 89.7,97.2 91.5,97.2 90.1,98.3 90.6,99.9 89.2,98.9 87.8,99.9 88.4,98.3 87,97.2 
			88.7,97.2 		"/>
		<polygon class="st9" points="96.8,96.4 97.3,98 99,98 97.6,99 98.2,100.6 96.8,99.6 95.4,100.6 95.9,99 94.5,98 96.3,98 		"/>
		<polygon class="st9" points="105.5,97.4 106.1,99 107.8,99 106.4,100.1 106.9,101.7 105.5,100.7 104.1,101.7 104.7,100.1 
			103.3,99 105,99 		"/>
	</g>
</g>
</svg>
