<svg id="Layer_1" data-name="Layer 1" xmlns="http://www.w3.org/2000/svg" viewBox="0 0 22.51 48.83"><defs><style>.cls-1{fill:#bdd086;}.cls-2{fill:none;}.cls-2,.cls-5{stroke:#1c4a65;stroke-linecap:round;stroke-miterlimit:10;stroke-width:1.62px;}.cls-3{fill:#1c4a65;}.cls-4{font-size:5.23px;fill:#fff;font-family:Myriad Pro;font-weight:700;}.cls-5{fill:#868589;}</style></defs><title>p2_oferta4</title><path class="cls-1" d="M165,110.08l-1.33,28.8-11.21.06,0.21-6.8s2.46-5.08,1.29-5.29a1.49,1.49,0,0,0-1.62.85L151.1,111" transform="translate(-146.78 -109.01)"/><path class="cls-2" d="M162.08,139.21s-2.11,5.28-5.8,5.47-7.35-2.56-7.9-5.23a31,31,0,0,1-.1-7.13s4.73-6.84,5.85-5.24-1.44,5.06-1.44,5.06l-0.21,6.8Z" transform="translate(-146.78 -109.01)"/><path class="cls-2" d="M152.33,127.21c0.23,0-1.23-16.2-1.23-16.2l14.48-1.11-1.22,29.18-4.89.2" transform="translate(-146.78 -109.01)"/><path class="cls-2" d="M164.75,130.09s5,1.05,3.43,2.8-3,.53-3,0.53L165,134.48s4.16,0.11,3.09,1.52-3.48.87-3.48,0.87" transform="translate(-146.78 -109.01)"/><ellipse class="cls-3" cx="158.49" cy="124.48" rx="4.48" ry="4.79" transform="translate(-168.4 -74.96) rotate(-11.49)"/><polyline class="cls-3" points="4.18 2.5 4.75 5.72 8.32 1.73 15.49 1.47 18.76 5.02 18.79 0.88"/><path class="cls-3" d="M164.39,136.12l-3.2,3-5.9-.07s-2.49-3.63-2.44-3.4-0.37,3.25-.37,3.25l11.87,0.13" transform="translate(-146.78 -109.01)"/><text class="cls-4" transform="matrix(0.07, -1, 1, 0.07, 12.76, 18.25)">20</text><line class="cls-2" x1="7.76" y1="35.65" x2="7.1" y2="39.96"/><polygon class="cls-5" points="10.74 40.43 2.96 39.76 1.02 47.63 10.34 47.99 10.74 40.43"/></svg>