<svg id="Layer_1" data-name="Layer 1" xmlns="http://www.w3.org/2000/svg" viewBox="0 0 22.01 48.99"><defs><style>.cls-1{fill:#bdd086;}.cls-2{fill:none;}.cls-2,.cls-5{stroke:#1c4a65;stroke-linecap:round;stroke-miterlimit:10;stroke-width:1.62px;}.cls-3{fill:#1c4a65;}.cls-4{font-size:5.23px;fill:#fff;font-family:Myriad Pro;font-weight:700;}.cls-5{fill:#7dab39;}</style></defs><title>p2_oferta5</title><path class="cls-1" d="M172.23,110.23L173,139l11.21,0.28-0.07-6.8s-2.36-5.12-1.19-5.31a1.49,1.49,0,0,1,1.61.89l1.59-16.67" transform="translate(-167.53 -109.13)"/><path class="cls-2" d="M174.61,139.41s2,5.32,5.69,5.58,7.4-2.41,8-5.07a31,31,0,0,0,.24-7.13s-4.59-6.93-5.74-5.36,1.34,5.09,1.34,5.09l0.07,6.8Z" transform="translate(-167.53 -109.13)"/><path class="cls-2" d="M184.6,127.6c-0.23-.05,1.54-16.17,1.54-16.17L171.69,110l0.65,29.2,4.88,0.29" transform="translate(-167.53 -109.13)"/><path class="cls-2" d="M172.11,130.23s-5,1-3.48,2.73,3,0.59,3,.59l0.16,1.07s-4.16,0-3.12,1.46,3.46,0.93,3.46.93" transform="translate(-167.53 -109.13)"/><ellipse class="cls-3" cx="178.49" cy="124.76" rx="4.79" ry="4.48" transform="translate(-149.76 162.56) rotate(-77.39)"/><polyline class="cls-3" points="18.73 2.8 18.09 6.01 14.61 1.96 7.44 1.55 4.11 5.03 4.15 0.89"/><path class="cls-3" d="M172.36,136.27l3.14,3.1,5.9,0s2.56-3.58,2.5-3.35,0.31,3.26.31,3.26l-11.87-.1" transform="translate(-167.53 -109.13)"/><text class="cls-4" transform="translate(9.98 12.4) rotate(95.85)">20</text><line class="cls-2" x1="14.5" y1="35.87" x2="15.07" y2="40.2"/><polygon class="cls-5" points="11.43 40.6 19.22 40.08 21 47.99 11.67 48.16 11.43 40.6"/></svg>