<svg id="Layer_1" data-name="Layer 1" xmlns="http://www.w3.org/2000/svg" viewBox="0 0 39.83 45.72"><defs><style>.cls-1{fill:#bdd086;}.cls-2{fill:none;}.cls-2,.cls-5{stroke:#1c4a65;stroke-linecap:round;stroke-miterlimit:10;stroke-width:1.62px;}.cls-3{fill:#1c4a65;}.cls-4{font-size:5.23px;fill:#fff;font-family:Myriad Pro;font-weight:700;}.cls-5{fill:#868589;}</style></defs><title>p2_oferta1</title><path class="cls-1" d="M67.72,115.86l-14.53,24.9-10-5.14,3.33-5.93s4.53-3.36,3.6-4.09a1.49,1.49,0,0,0-1.83,0l6.62-15.39" transform="translate(-29.62 -109.15)"/><path class="cls-2" d="M51.61,140.3s-4.31,3.7-7.68,2.16-5.33-5.67-4.58-8.29a31,31,0,0,1,3.22-6.37s7.36-3.87,7.61-1.94-3.62,3.82-3.62,3.82l-3.33,5.93Z" transform="translate(-29.62 -109.15)"/><path class="cls-2" d="M48.53,125.15c0.22,0.06,6.42-14.93,6.42-14.93l13.34,5.72-14.6,25.29-4.42-2.09" transform="translate(-29.62 -109.15)"/><path class="cls-2" d="M58.21,133.45s3.93,3.24,1.74,4.07-2.9-.92-2.9-0.92l-0.66.86s3.63,2,2,2.78-3.48-.84-3.48-0.84" transform="translate(-29.62 -109.15)"/><ellipse class="cls-3" cx="55.25" cy="125.59" rx="4.79" ry="4.48" transform="translate(-110.36 34.66) rotate(-73.89)"/><polyline class="cls-3" points="24.97 1.45 23.99 4.57 28.99 2.69 35.48 5.78 36.73 10.44 38.67 6.79"/><path class="cls-3" d="M55.09,138.63l-4.24,1.21L45.66,137s-0.52-4.37-.59-4.14-1.84,2.71-1.84,2.71l10.46,5.62" transform="translate(-29.62 -109.15)"/><text class="cls-4" transform="translate(25.22 19.41) rotate(-58.36)">50</text><line class="cls-2" x1="12.78" y1="32.49" x2="10.21" y2="36.01"/><polygon class="cls-5" points="13.21 38.11 6.63 33.91 1.26 39.99 9.36 44.62 13.21 38.11"/></svg>