<svg id="Layer_1" data-name="Layer 1" xmlns="http://www.w3.org/2000/svg" viewBox="0 0 22.07 48.97"><defs><style>.cls-1{fill:#bdd086;}.cls-2{fill:none;}.cls-2,.cls-5{stroke:#1c4a65;stroke-linecap:round;stroke-miterlimit:10;stroke-width:1.62px;}.cls-3{fill:#1c4a65;}.cls-4{font-size:5.23px;fill:#fff;font-family:Myriad Pro;font-weight:700;}.cls-5{fill:#bf315b;}</style></defs><title>p2_oferta3</title><path class="cls-1" d="M112.93,110.31l0.84,28.82L125,139.37l-0.09-6.8s-2.37-5.12-1.2-5.31a1.49,1.49,0,0,1,1.61.88l1.55-16.68" transform="translate(-108.29 -109.22)"/><path class="cls-2" d="M115.38,139.49s2,5.31,5.71,5.57,7.4-2.43,8-5.09a31,31,0,0,0,.22-7.13s-4.61-6.92-5.76-5.34,1.35,5.08,1.35,5.08l0.09,6.8Z" transform="translate(-108.29 -109.22)"/><path class="cls-2" d="M125.34,127.65c-0.23-.05,1.5-16.18,1.5-16.18l-14.46-1.36,0.72,29.19,4.88,0.28" transform="translate(-108.29 -109.22)"/><path class="cls-2" d="M112.86,130.31s-5,1-3.48,2.74,3,0.58,3,.58l0.16,1.07s-4.16,0-3.12,1.46,3.46,0.93,3.46.93" transform="translate(-108.29 -109.22)"/><ellipse class="cls-3" cx="119.22" cy="124.82" rx="4.79" ry="4.48" transform="matrix(0.22, -0.98, 0.98, 0.22, -136.69, 105.06)"/><polyline class="cls-3" points="18.68 2.76 18.05 5.97 14.56 1.93 7.38 1.54 4.06 5.03 4.1 0.89"/><path class="cls-3" d="M113.12,136.35l3.15,3.09,5.9,0s2.55-3.58,2.5-3.36,0.32,3.26.32,3.26l-11.87-.07" transform="translate(-108.29 -109.22)"/><text class="cls-4" transform="translate(9.72 11.08) rotate(95.71)">100</text><line class="cls-2" x1="14.54" y1="35.85" x2="15.11" y2="40.17"/><polygon class="cls-5" points="11.47 40.58 19.26 40.04 21.06 47.94 11.74 48.14 11.47 40.58"/></svg>