<svg id="Layer_1" data-name="Layer 1" xmlns="http://www.w3.org/2000/svg" viewBox="0 0 24.32 48.06"><defs><style>.cls-1{fill:#bdd086;}.cls-2{fill:none;}.cls-2,.cls-5{stroke:#1c4a65;stroke-linecap:round;stroke-miterlimit:10;stroke-width:1.62px;}.cls-3{fill:#1c4a65;}.cls-4{font-size:5.23px;fill:#fff;font-family:Myriad Pro;font-weight:700;}.cls-5{fill:#7dab39;}</style></defs><title>p2_oferta2</title><path class="cls-1" d="M75.9,111.6l3.47,28.62,11.18-.78-0.71-6.76S87,127.8,88.16,127.5a1.49,1.49,0,0,1,1.68.73l0-16.75" transform="translate(-73.29 -110.64)"/><path class="cls-2" d="M81,140.43s2.49,5.11,6.19,5,7.14-3.1,7.49-5.8a31,31,0,0,0-.43-7.12S89,126.06,88,127.74s1.81,4.94,1.81,4.94l0.71,6.76Z" transform="translate(-73.29 -110.64)"/><path class="cls-2" d="M89.84,127.73c-0.23,0,0-16.25,0-16.25l-14.52,0,3.39,29,4.89-.17" transform="translate(-73.29 -110.64)"/><path class="cls-2" d="M77.66,131.53s-4.89,1.42-3.21,3,3,0.3,3,.3l0.26,1.05s-4.14.42-3,1.74,3.53,0.61,3.53.61" transform="translate(-73.29 -110.64)"/><ellipse class="cls-3" cx="83.49" cy="125.48" rx="4.79" ry="4.48" transform="translate(-124.78 81.89) rotate(-82.77)"/><polyline class="cls-3" points="16.74 1.34 16.41 4.59 12.56 0.89 5.38 1.16 2.39 4.94 2.05 0.81"/><path class="cls-3" d="M78.47,137.52l3.41,2.79,5.87-.51s2.21-3.8,2.18-3.57,0.61,3.22.61,3.22l-11.83,1" transform="translate(-73.29 -110.64)"/><text class="cls-4" transform="translate(8.96 11.75) rotate(90.46)">50</text><line class="cls-2" x1="15.64" y1="34.67" x2="16.61" y2="38.92"/><polygon class="cls-5" points="13.02 39.66 20.73 38.41 23.25 46.12 13.98 47.17 13.02 39.66"/></svg>