<svg id="Layer_1" data-name="Layer 1" xmlns="http://www.w3.org/2000/svg" viewBox="0 0 31.21 47.98"><defs><style>.cls-1{fill:#bdd086;}.cls-2{fill:none;}.cls-2,.cls-5{stroke:#1c4a65;stroke-linecap:round;stroke-miterlimit:10;stroke-width:1.62px;}.cls-3{fill:#1c4a65;}.cls-4{font-size:5.23px;fill:#fff;font-family:Myriad Pro;font-weight:700;}.cls-5{fill:#7dab39;}</style></defs><title>p2_oferta6</title><path class="cls-1" d="M188.83,112.21l8.55,27.53L208.24,137l-1.92-6.53s-3.66-4.29-2.59-4.79a1.49,1.49,0,0,1,1.79.42l-3-16.48" transform="translate(-187.21 -108.65)"/><path class="cls-2" d="M199,139.66s3.37,4.57,7,3.83,6.47-4.33,6.32-7.05a31,31,0,0,0-1.7-6.93s-6.3-5.43-7-3.6,2.66,4.53,2.66,4.53l1.92,6.53Z" transform="translate(-187.21 -108.65)"/><path class="cls-2" d="M205.44,125.58c-0.23,0-2.9-16-2.9-16l-14.29,2.57,8.54,27.93,4.78-1" transform="translate(-187.21 -108.65)"/><path class="cls-2" d="M194.14,131.5s-4.56,2.28-2.61,3.57,3-.24,3-0.24l0.44,1s-4,1.15-2.61,2.25,3.59,0,3.59,0" transform="translate(-187.21 -108.65)"/><ellipse class="cls-3" cx="198.79" cy="124.5" rx="4.48" ry="4.79" transform="translate(-193.69 -97.64) rotate(-3.12)"/><polyline class="cls-3" points="15.59 1.4 15.84 4.66 11.39 1.7 4.38 3.25 2.12 7.51 1.04 3.51"/><path class="cls-3" d="M196,137.25l3.86,2.13,5.69-1.56s1.49-4.14,1.5-3.9,1.18,3.06,1.18,3.06l-11.45,3.12" transform="translate(-187.21 -108.65)"/><text class="cls-4" transform="matrix(0.17, 0.99, -0.99, 0.17, 9.79, 12.99)">20</text><line class="cls-2" x1="20.49" y1="34.38" x2="22.21" y2="38.39"/><polygon class="cls-5" points="18.81 39.76 26.16 37.15 30.02 44.28 21.09 46.97 18.81 39.76"/></svg>