<svg id="Layer_1" data-name="Layer 1" xmlns="http://www.w3.org/2000/svg" viewBox="0 0 43.72 39.37"><defs><style>.cls-1{fill:#c2c3c8;}.cls-1,.cls-2,.cls-6{stroke:#1c4a65;stroke-linecap:round;stroke-miterlimit:10;}.cls-1,.cls-2{stroke-width:1.62px;}.cls-2,.cls-6{fill:none;}.cls-3{fill:#fff;}.cls-4{fill:#1c4a65;}.cls-5{fill:#1b98c6;}.cls-6{stroke-width:0.87px;}.cls-7{font-size:4.44px;}.cls-7,.cls-8{font-family:Blogger Sans;}.cls-8{font-size:6px;}</style></defs><title>precio_1</title><polygon class="cls-1" points="26.29 0.93 28.44 15.74 6.84 22.3 4.35 21.73 0.85 8.62 2.32 4.77 26.29 0.93"/><polygon class="cls-1" points="16.34 19.59 17.92 31.91 20.02 31.81 19.5 18.45 16.34 19.59"/><line class="cls-2" x1="2.32" y1="4.77" x2="6.84" y2="22.3"/><g id="_Grupo_" data-name="&lt;Grupo&gt;"><path class="cls-3" d="M80.45,103.11c1.57-.13,2.83-0.31,3.42-0.39-0.24.62-.86,2.23-0.66,2.28-0.37.12-9,.89-9,0.89l-2.73-1.26a66.65,66.65,0,0,1-15.13,2.28c-8.29.25-9.11-4.49-9.11-4.49s0.28-1.22.7-2.65l0.37,0.11A6.69,6.69,0,0,0,55,104.12l1.21-.07c3.48-.26,8.59-0.92,12-1.4l2.85-.41,0.68-.1s1.71,1.21,5.38,1.14C78.29,103.28,79.44,103.21,80.45,103.11Z" transform="translate(-42.73 -68.36)"/><path class="cls-3" d="M85.61,98.29A14.08,14.08,0,0,1,84,102.47l-0.1.24c-0.58.09-1.85,0.26-3.42,0.39l0-.26a5.43,5.43,0,0,1,1.46-3.16,8.63,8.63,0,0,1,3.75-2.15A4.22,4.22,0,0,1,85.61,98.29Z" transform="translate(-42.73 -68.36)"/><path class="cls-3" d="M73,92.21s-0.58,2.41,4.81,1.84c4.17-.44,6.13-1.34,6.8-1.72,0.11,0.39.24,0.89,0.37,1.42l0,0.8s-5.57,2.6-10.13,1.71-4.31-2.79-4.31-2.79l0-.05c0.94-.47,1.73-0.92,2.37-1.32Z" transform="translate(-42.73 -68.36)"/><path class="cls-3" d="M69.21,94.24a7.66,7.66,0,0,1,1.77,4,18.73,18.73,0,0,1,.07,3.92l0,0.1-2.85.41,0-.12a13.48,13.48,0,0,0-.06-4,8.3,8.3,0,0,0-1.46-3.23l1.19-.51Z" transform="translate(-42.73 -68.36)"/><path class="cls-3" d="M66.43,102.73l1.77-.19,0,0.12c-3.39.47-8.5,1.13-12,1.4v-0.12l6.77-.76a5.89,5.89,0,0,0,.19-3.23,11.35,11.35,0,0,0-1.58-3l3.23-.83a4.72,4.72,0,0,1,1.39,2.66A20.73,20.73,0,0,1,66.43,102.73Z" transform="translate(-42.73 -68.36)"/><path class="cls-3" d="M55.16,98.48a36.23,36.23,0,0,1,1.07,5.45v0.12l-1.21.07a6.69,6.69,0,0,1-6.77-4.25l-0.37-.11c0.49-1.68,1.18-3.64,1.83-4.19a4.32,4.32,0,0,1,1.81-.74l0.09,0.42C52.18,95.48,54.55,96.54,55.16,98.48Z" transform="translate(-42.73 -68.36)"/><path class="cls-4" d="M79.47,90.31a10.16,10.16,0,0,1,4.81,1.08s0.11,0.37.28,0.94c-0.67.37-2.63,1.27-6.8,1.72-5.39.57-4.81-1.84-4.81-1.84l-0.06-.1a16.9,16.9,0,0,0,2.37-1.64h0A24.23,24.23,0,0,1,79.47,90.31Z" transform="translate(-42.73 -68.36)"/><path class="cls-5" d="M70.54,87.59l5.63,1.14-1.46,1.83s0.17,0,.54-0.1a16.9,16.9,0,0,1-2.37,1.64c-0.65.4-1.43,0.85-2.37,1.32s-1.69.82-2.7,1.26a42.58,42.58,0,0,1-6.22,2.12,34.22,34.22,0,0,1-3.78.8l-3.1-2.85,0-.39c1.32-.15,2.85-0.3,4.54-0.5C64,93.29,70.54,87.59,70.54,87.59Z" transform="translate(-42.73 -68.36)"/><path class="cls-5" d="M61.62,96.9a11.35,11.35,0,0,1,1.58,3,5.89,5.89,0,0,1-.19,3.23l-6.77.76a36.23,36.23,0,0,0-1.07-5.45c-0.61-1.94-3-3-3.55-3.23l-0.09-.42a30.18,30.18,0,0,1,3.15-.47l0,0.39,3.1,2.85a34.22,34.22,0,0,0,3.78-.8Z" transform="translate(-42.73 -68.36)"/><path class="cls-5" d="M68.14,98.54a13.48,13.48,0,0,1,.06,4l-1.77.19a20.73,20.73,0,0,0-.19-4,4.72,4.72,0,0,0-1.39-2.66l-3.23.83,0-.1a42.58,42.58,0,0,0,6.22-2.12l0.05,0.13-1.19.51A8.3,8.3,0,0,1,68.14,98.54Z" transform="translate(-42.73 -68.36)"/><path class="cls-5" d="M70.54,93.48s-0.25,1.9,4.31,2.79S85,94.56,85,94.56l0-.8a21.69,21.69,0,0,1,.69,3.77,8.63,8.63,0,0,0-3.75,2.15,5.43,5.43,0,0,0-1.46,3.16l0,0.26c-1,.1-2.15.17-3.32,0.18-3.67.07-5.38-1.14-5.38-1.14l-0.68.1,0-.1A18.73,18.73,0,0,0,71,98.23a7.66,7.66,0,0,0-1.77-4l-1.34.57-0.05-.13c1-.44,1.91-0.85,2.7-1.26Z" transform="translate(-42.73 -68.36)"/><path class="cls-2" d="M83.2,105c-0.2-.05.42-1.67,0.66-2.28l0.1-.24a14.08,14.08,0,0,0,1.65-4.18,4.22,4.22,0,0,0,0-.76,21.69,21.69,0,0,0-.69-3.77c-0.13-.53-0.26-1-0.37-1.42-0.17-.58-0.28-0.94-0.28-0.94a10.16,10.16,0,0,0-4.81-1.08,24.23,24.23,0,0,0-4.2.15" transform="translate(-42.73 -68.36)"/><path class="cls-2" d="M75.26,90.47c-0.37.05-.54,0.1-0.54,0.1l1.46-1.83-5.63-1.14S64,93.29,59.21,93.86c-1.69.2-3.23,0.35-4.54,0.5a30.18,30.18,0,0,0-3.15.47,4.32,4.32,0,0,0-1.81.74c-0.65.55-1.34,2.51-1.83,4.19-0.42,1.43-.7,2.65-0.7,2.65s0.82,4.74,9.11,4.49a66.65,66.65,0,0,0,15.13-2.28l2.73,1.26s8.68-.77,9-0.89h0" transform="translate(-42.73 -68.36)"/><path class="cls-6" d="M48.25,99.88A6.69,6.69,0,0,0,55,104.12l1.21-.07c3.48-.26,8.59-0.92,12-1.4l2.85-.41,0.68-.1s1.71,1.21,5.38,1.14c1.17,0,2.31-.09,3.32-0.18,1.57-.13,2.83-0.31,3.42-0.39l0.36-.05" transform="translate(-42.73 -68.36)"/><path class="cls-6" d="M54.71,94.75l3.1,2.85a34.22,34.22,0,0,0,3.78-.8,42.58,42.58,0,0,0,6.22-2.12c1-.44,1.91-0.85,2.7-1.26s1.73-.92,2.37-1.32a16.9,16.9,0,0,0,2.37-1.64h0l0,0" transform="translate(-42.73 -68.36)"/><path class="cls-6" d="M73,92.21s-0.58,2.41,4.81,1.84c4.17-.44,6.13-1.34,6.8-1.72a2.46,2.46,0,0,0,.29-0.18l0.09,1.6,0,0.8s-5.57,2.6-10.13,1.71-4.31-2.79-4.31-2.79" transform="translate(-42.73 -68.36)"/><path class="cls-6" d="M85.86,97.47a1,1,0,0,0-.24.06,8.63,8.63,0,0,0-3.75,2.15,5.43,5.43,0,0,0-1.46,3.16" transform="translate(-42.73 -68.36)"/><path class="cls-6" d="M51.48,95.19l0.13,0.05c0.58,0.24,2.94,1.3,3.55,3.23a36.23,36.23,0,0,1,1.07,5.45l6.77-.76a5.89,5.89,0,0,0,.19-3.23,11.35,11.35,0,0,0-1.58-3l3.23-.83a4.72,4.72,0,0,1,1.39,2.66,20.73,20.73,0,0,1,.19,4l1.77-.19a13.48,13.48,0,0,0-.06-4,8.3,8.3,0,0,0-1.46-3.23l1.19-.51,1.34-.57a7.66,7.66,0,0,1,1.77,4,18.73,18.73,0,0,1,.07,3.92" transform="translate(-42.73 -68.36)"/><path class="cls-6" d="M59.46,94.11l1,1.52L62.69,95l-1.14-1.39,1.71-.76,1,1.52,1.64-.82-1.07-1.46,1.52-.83,1.46,1.08,1.78-1S68.2,90.19,68,90.12" transform="translate(-42.73 -68.36)"/></g><text class="cls-7" transform="matrix(0.98, -0.2, 0.2, 0.98, 9.84, 9.22)">P<tspan x="2.35" y="0">r</tspan><tspan x="3.84" y="0">ecio</tspan></text><text class="cls-8" transform="matrix(0.98, -0.2, 0.2, 0.98, 11.76, 15.78)">$ 50</text></svg>