<!-- Generator: Adobe Illustrator 19.1.0, SVG Export Plug-In  -->
<svg version="1.1"
	 xmlns="http://www.w3.org/2000/svg" xmlns:xlink="http://www.w3.org/1999/xlink" xmlns:a="http://ns.adobe.com/AdobeSVGViewerExtensions/3.0/"
	 x="0px" y="0px" width="459.4px" height="363.4px" viewBox="0 0 459.4 363.4" style="enable-background:new 0 0 459.4 363.4;"
	 xml:space="preserve">
<style type="text/css">
	.st0{fill:#FFFFFF;}
	.st1{fill:none;stroke:#214D6A;stroke-width:6;stroke-linecap:round;stroke-miterlimit:10;}
</style>
<defs>
</defs>
<g>
	<path id="XMLID_3_" class="st0" d="M78.8,4.2c-75-2-60.2,94.3-68.2,166.2C-11.6,369.1,22,360.3,22,360.3
		c0.7,0.7-14.2-25.7,9.5-26.4c17.8,7.7,188.5,15.2,209.5,13.5c58.1-4.7,196.1,12.5,204.7-58.8c10.5-86.5,20.8-242.8-8.1-270.9
		C413.9-5.2,143.5,6,78.8,4.2z"/>
	<path id="XMLID_2_" class="st1" d="M78.8,4.2c-75-2-60.2,94.3-68.2,166.2C-11.6,369.1,22,360.3,22,360.3
		c0.7,0.7-14.2-25.7,9.5-26.4c17.8,7.7,188.5,15.2,209.5,13.5c58.1-4.7,196.1,12.5,204.7-58.8c10.5-86.5,20.8-242.8-8.1-270.9
		C413.9-5.2,143.5,6,78.8,4.2z"/>
</g>
</svg>
