<?xml version="1.0" encoding="utf-8"?>
<!-- Generator: Adobe Illustrator 19.1.0, SVG Export Plug-In . SVG Version: 6.00 Build 0)  -->
<svg version="1.1" id="Capa_1" xmlns="http://www.w3.org/2000/svg" xmlns:xlink="http://www.w3.org/1999/xlink" x="0px" y="0px"
	 viewBox="-263 337.4 69.5 167.5" style="enable-background:new -263 337.4 69.5 167.5;" xml:space="preserve">
<style type="text/css">
	.st0{fill:none;stroke:#1C4A65;stroke-width:2;stroke-linecap:round;stroke-miterlimit:10;}
	.st1{fill:none;stroke:#1F4D69;stroke-width:2;stroke-linecap:round;stroke-miterlimit:10;}
	.st2{fill:#71408B;}
	.st3{fill:#491A68;}
	.st4{opacity:0.62;fill:#0D1D7C;enable-background:new    ;}
	.st5{fill:none;stroke:#1F4D69;stroke-width:2;stroke-miterlimit:10;}
	.st6{fill:#FFFFFF;}
	.st7{fill:#E0DFE6;}
	.st8{fill:#1F4D69;}
</style>
<g>
	<path class="st0" d="M-218.2,387.3c-4-1.1,23.4,8.1,23.4,53"/>
	<path class="st0" d="M-238.3,387.3c4-1.1-23.4,8.1-23.4,53"/>
	<g>
		<path class="st1" d="M-238,503.6c0,0-0.5-26.8-1.4-61.5"/>
		<path class="st1" d="M-217.9,504.3c0,0,0.1-30-1.4-61.5"/>
		<path class="st2" d="M-239,387.8c-3.3,5.8-8.4,8.2-12.2,23.9c-1.5,6.2-1.8,11.8,0,21c0.7,3.3,8.2,9,16.4,10.4
			c4.3,0.7,9.4,0.3,16.5-0.7c2.6-0.4,12.9-2.5,13.7-10.2c0.6-5.8,2.6-12,0-21c-2.2-7.6-4.5-11.2-14-24.9
			c-9.5-13.6-8.7-13.3-8.7-13.3S-235.6,381.9-239,387.8"/>
		<path class="st3" d="M-205.7,421.4l1.5-5.8c-14.5,6.7-37,3.5-47.1,0l-0.5,11.3c9.6,4,28.6,9.3,47.3-0.5L-205.7,421.4z"/>
		<path class="st4" d="M-210.9,400.5c-1.5-3.3-3.5-6.2-5-9.5c-0.7-1.7-1.8-4.3-3.8-4.9c-0.4-0.3-0.7-0.5-1.2-0.6
			c0.5-0.2,0.9-0.5,1.4-0.8s1-0.6,1.6-1c-3.1,0.9-6.2,1.6-8.8,3.6c0.4-0.1,0.7-0.1,1.1-0.2c-0.7,0.8-1.1,1.9-1.1,3.2
			c0,3.5,1.8,6.6,3.6,9.5c3,4.8,5.1,8.9,5.8,14.6c0.6,4.9,0.1,10.2-1,15c-0.9,3.7-4.3,6.1-5,9.8c-0.7,3.9,2.4,4,5.4,3.3
			c0.7,0.2,1.5,0,1.9-0.6c0.9-0.3,1.6-0.6,2.1-0.9c5.9-3,8-8.3,8.4-14.7C-205,417.3-207.2,408.6-210.9,400.5"/>
		<path class="st5" d="M-239.7,387.8c-3.3,5.8-8.4,8.2-12.2,23.9c-1.5,6.2-1.8,11.8,0,21c0.7,3.3,8.2,9,16.4,10.4
			c4.3,0.7,9.4,0.3,16.5-0.7c2.6-0.4,12.9-2.5,13.7-10.2c0.5-5.8,2.5-12,0-21c-2.2-7.6-4.5-11.2-14-24.9
			c-9.5-13.6-8.7-13.3-8.7-13.3S-236.4,381.9-239.7,387.8z"/>
		<path class="st6" d="M-209.6,366.2c0,10.7-8.7,19.4-19.4,19.4s-19.4-8.7-19.4-19.4c0-10.7,8.7-19.4,19.4-19.4
			S-209.6,355.5-209.6,366.2"/>
		<path class="st7" d="M-226.7,385.3c1.8-0.6,3.7-1.2,5.5-2c-0.1,0-0.2-0.1-0.3-0.1c0.5-0.2,0.9-0.5,1.4-0.7
			c5.5-3,11.8-10.1,8.7-16.4c-3.3-6.9-9.9,2.7-12,5.2c-2.3,2.8-5.8,4.3-9.4,4.6c-0.8-0.4-1.5-0.3-2.1,0c-4-0.3-7.8-2.3-9.6-6.2
			c-0.8-1.7-3-0.8-3.2,0.7c-1.4-0.7-3.4,0.9-2.4,2.4c0.4,0.6,0.8,1.2,1.3,1.8c0.3,1.6,1.5,3,2.8,4.1c0.4,0.3,0.8,0.5,1.3,0.4
			c0,0.4,0.2,0.7,0.5,0.9c5.3,4.1,11.7,5.9,17.9,4.7C-226.4,384.9-226.6,385.1-226.7,385.3"/>
		<circle class="st5" cx="-229.8" cy="366.2" r="19.4"/>
		<path class="st1" d="M-238,348.7c0,0,16.8,1.8,22.9-10.6"/>
		<path class="st1" d="M-238.3,387.7c0,0,2.9,5.1,9,5.1c6.1,0,8.1-5.1,8.1-5.1"/>
		<g>
			<path class="st1" d="M-236.7,374.3c0,0,2.6,3.2,7,2.3c4.4-0.9,6.5-5.6,6.5-5.6"/>
			<circle class="st8" cx="-235.7" cy="363.9" r="2.4"/>
			<circle class="st8" cx="-224.1" cy="363.9" r="2.4"/>
		</g>
	</g>
</g>
</svg>
