<?xml version="1.0" encoding="utf-8"?>
<!-- Generator: Adobe Illustrator 19.1.0, SVG Export Plug-In . SVG Version: 6.00 Build 0)  -->
<svg version="1.1" id="Capa_1" xmlns="http://www.w3.org/2000/svg" xmlns:xlink="http://www.w3.org/1999/xlink" x="0px" y="0px"
	 viewBox="-268 342 57.9 157.9" style="enable-background:new -268 342 57.9 157.9;" xml:space="preserve">
<style type="text/css">
	.st0{fill:none;stroke:#1C4A65;stroke-width:2;stroke-linecap:round;stroke-miterlimit:10;}
	.st1{fill:#7DAB39;stroke:#1C4A65;stroke-width:2;stroke-linecap:round;stroke-miterlimit:10;}
	.st2{fill:#FFFFFF;}
	.st3{fill:#DFDEE4;}
	.st4{fill:none;stroke:#1C4A65;stroke-width:2;stroke-miterlimit:10;}
	.st5{fill:#1C4A65;}
	.st6{fill:none;stroke:#1B98C6;stroke-miterlimit:10;}
	.st7{fill:#F7F7F8;stroke:#1C4A65;stroke-width:2;stroke-linecap:round;stroke-miterlimit:10;}
</style>
<g>
	<g>
		<path class="st0" d="M-239,499.3c0,0,1.7-8.3,1.5-20.7c-0.1-9.7-10.1-18.2-10.9-32.5"/>
		<path class="st0" d="M-246.8,497.8c0,0,16.7-16.6,16.7-26.7c0-9.5,0.2-13.3,0.2-24.3"/>
		<path class="st0" d="M-247.3,395.9c0,0,2.7,4.7,8.3,4.7c5.7,0,7.5-4.7,7.5-4.7"/>
		<path class="st1" d="M-246.7,397.2l-4.6,3.6c0,0,4.6,11.4,3.1,18s-8,25.3,0.5,29.7c8.5,4.4,19,1.4,21.6-1.4
			c2.5-2.7-5.3-22.8-4.2-28.5c1-5.8,3.7-19,1-20.7c-2.7-1.7-7.5,3.6-10.5,3.1C-242.9,400.4-246.7,397.2-246.7,397.2z"/>
		<path class="st1" d="M-251.8,435.5l-15.1,20.4l9,0.6c0,0,5.1,4.1,10.2,4.7c5.1,0.6,7.7-1.4,7.7-1.4s6.1,2.4,11.2,0.8
			c5.1-1.6,6.5-4.3,6.5-4.3l11.2-2.9l-15.6-18.3c0,0-6.9,2-14.7,2c-7.8,0-11.2-1.8-11.2-1.8"/>
		<g>
			<path class="st2" d="M-220.9,376.1c0,9.9-8,17.9-17.9,17.9c-9.9,0-17.9-8-17.9-17.9c0-9.9,8-17.9,17.9-17.9
				C-228.9,358.2-220.9,366.2-220.9,376.1"/>
			<path class="st3" d="M-236.6,393.7c1.7-0.6,3.4-1.1,5-1.8c-0.1,0-0.2-0.1-0.3-0.1c0.4-0.2,0.9-0.4,1.3-0.7
				c5.1-2.8,10.9-9.3,8.1-15.1c-3.1-6.4-9.1,2.5-11.1,4.8c-2.1,2.5-5.4,4-8.6,4.2c-0.7-0.4-1.4-0.3-1.9,0c-3.7-0.3-7.2-2.1-8.8-5.7
				c-0.7-1.5-2.8-0.7-3,0.7c-1.3-0.6-3.1,0.8-2.2,2.2c0.4,0.6,0.8,1.1,1.2,1.7c0.3,1.5,1.4,2.8,2.6,3.8c0.4,0.3,0.8,0.4,1.2,0.4
				c0,0.3,0.2,0.6,0.5,0.9c4.9,3.7,10.8,5.4,16.5,4.3C-236.4,393.4-236.5,393.5-236.6,393.7"/>
			<circle class="st4" cx="-239.5" cy="376.1" r="17.9"/>
			<path class="st0" d="M-244,386.3c0,0,2.7,2.3,6.9,1.9c4.2-0.4,6-2.1,6-2.1"/>
			<circle class="st5" cx="-242.5" cy="375.7" r="2.4"/>
			<circle class="st5" cx="-231.4" cy="375.2" r="2.4"/>
			<ellipse class="st5" cx="-259.4" cy="351.5" rx="8.5" ry="9.5"/>
			<path class="st5" d="M-257.1,373.9c0-8.9,7.6-16.2,16.9-16.2c2.2,0,4.3,0.4,6.2,1.1c-2.5-4.3-6.9-7.1-11.8-7.1
				c-7.9,0.2-14.2,7.3-14.2,16c0,4,1.4,7.7,3.6,10.5C-256.8,376.9-257.1,375.4-257.1,373.9z"/>
		</g>
	</g>
	<g>
		<path class="st6" d="M-240.1,378c0,1.6-1.3,2.9-2.9,2.9h-3.7c-1.6,0-2.9-1.3-2.9-2.9l0,0c0-1.6,1.3-2.9,2.9-2.9h3.7
			C-241.5,375-240.1,376.4-240.1,378L-240.1,378z"/>
		<path class="st6" d="M-225.3,378c0,1.6-1.3,2.9-2.9,2.9h-3.7c-1.6,0-2.9-1.3-2.9-2.9l0,0c0-1.6,1.3-2.9,2.9-2.9h3.7
			C-226.6,375-225.3,376.4-225.3,378L-225.3,378z"/>
		<line class="st6" x1="-240.1" y1="378" x2="-234.9" y2="378"/>
		<line class="st6" x1="-249.8" y1="377.8" x2="-256.5" y2="374.6"/>
		<line class="st6" x1="-225.3" y1="377.3" x2="-219.8" y2="373.9"/>
	</g>
	<path class="st0" d="M-251.3,400.7c-1-0.2-14,21.8-7.4,23.3c6.7,1.4,19.7-6.2,19.7-6.2"/>
	<path class="st0" d="M-228.6,399.8c0,0,12.5,9.2,13.4,31.4"/>
	<polygon class="st7" points="-212.5,432.6 -212.5,448.2 -218.4,442.8 -218.4,427.6 	"/>
</g>
</svg>
