<?xml version="1.0" encoding="utf-8"?>
<!-- Generator: Adobe Illustrator 19.1.0, SVG Export Plug-In . SVG Version: 6.00 Build 0)  -->
<svg version="1.1" id="Capa_1" xmlns="http://www.w3.org/2000/svg" xmlns:xlink="http://www.w3.org/1999/xlink" x="0px" y="0px"
	 viewBox="-265 337.2 65.9 167.7" style="enable-background:new -265 337.2 65.9 167.7;" xml:space="preserve">
<style type="text/css">
	.st0{fill:none;stroke:#1C4A65;stroke-width:2;stroke-linecap:round;stroke-miterlimit:10;}
	.st1{fill:#C6C5CF;}
	.st2{fill:#DFDEE4;}
	.st3{fill:none;stroke:#1C4A65;stroke-width:2;stroke-miterlimit:10;}
	.st4{fill:#FFFFFF;}
	.st5{fill:#1C4A65;}
	.st6{fill:none;stroke:#1B98C6;stroke-miterlimit:10;}
</style>
<g>
	<g>
		<path class="st0" d="M-241.6,503.5c0,0,0.5-26.9-1.5-63.3"/>
		<path class="st0" d="M-220.9,504.2c0,0-1.4-32.1-1.5-63.3"/>
		<path class="st0" d="M-242.8,387.2c3.2-0.9-13.1,4.6-20.2,28.8c-1.9,6.6,3.4,6.9,23.4,19.5"/>
		<path class="st1" d="M-242.6,384.3c-3.4,6-8.6,8.5-12.6,24.6c-1.5,6.4-1.9,12.2,0,21.6c0.7,3.4,8.5,9.3,16.9,10.7
			c4.4,0.7,9.7,0.3,17-0.7c2.6-0.4,13.3-2.6,14.1-10.5c0.6-6,2.6-12.3,0-21.6c-2.2-7.9-4.7-11.5-14.5-25.6c-9.7-14-9-13.7-9-13.7
			S-239.2,378.2-242.6,384.3"/>
		<path class="st2" d="M-213.7,396.4c-1.5-3.2-3.6-6.1-5.1-9.3c-0.8-1.6-1.9-4.2-3.9-4.7c-0.4-0.3-0.8-0.5-1.2-0.6
			c0.5-0.2,1-0.5,1.5-0.7c0.5-0.3,1.1-0.6,1.6-1c-3.2,0.8-6.4,1.6-9.1,3.5c0.4-0.1,0.7-0.1,1.1-0.2c-0.7,0.8-1.2,1.9-1.2,3.1
			c0,3.4,1.9,6.4,3.7,9.2c3.1,4.7,5.2,8.6,5.9,14.2c0.6,4.8,0.1,9.9-1.1,14.6c-0.9,3.6-4.4,5.9-5.1,9.5c-0.7,3.8,2.5,3.9,5.6,3.2
			c0.7,0.2,1.6,0,2-0.6c0.9-0.3,1.7-0.6,2.2-0.9c6.1-2.9,8.2-8.1,8.6-14.3C-207.6,412.8-209.9,404.3-213.7,396.4"/>
		<path class="st3" d="M-243.4,384.3c-3.4,6-8.6,8.5-12.6,24.6c-1.5,6.4-1.9,12.2,0,21.6c0.7,3.4,8.5,9.3,16.9,10.7
			c4.4,0.7,9.7,0.3,17-0.7c2.6-0.4,13.3-2.6,14.1-10.5c0.6-6,2.6-12.3,0-21.6c-2.2-7.9-4.7-11.5-14.4-25.6c-9.7-14-9-13.7-9-13.7
			S-239.9,378.2-243.4,384.3z"/>
		<path class="st4" d="M-212.4,362.1c0,11-8.9,20-20,20c-11,0-20-9-20-20s8.9-20,20-20C-221.4,342.1-212.4,351-212.4,362.1"/>
		<path class="st2" d="M-230,381.7c1.9-0.6,3.8-1.2,5.6-2c-0.1,0-0.2-0.1-0.3-0.1c0.5-0.2,1-0.5,1.5-0.7c5.7-3.1,12.1-10.4,9-16.9
			c-3.5-7.1-10.2,2.8-12.4,5.4c-2.4,2.8-6,4.4-9.6,4.7c-0.8-0.4-1.6-0.3-2.2,0c-4.1-0.3-8-2.4-9.8-6.3c-0.8-1.7-3.1-0.8-3.3,0.7
			c-1.5-0.8-3.5,0.8-2.5,2.4c0.4,0.6,0.9,1.2,1.3,1.8c0.3,1.7,1.5,3.1,2.9,4.2c0.4,0.3,0.9,0.5,1.3,0.5c0,0.4,0.2,0.7,0.5,1
			c5.5,4.2,12,6.1,18.4,4.8C-229.7,381.4-229.8,381.5-230,381.7"/>
		<path class="st3" d="M-213.1,362.1c0,11-8.9,20-20,20c-11,0-20-9-20-20s9-20,20-20S-213.1,351-213.1,362.1z"/>
		<path class="st0" d="M-241.9,384.2c0,0,3,5.2,9.3,5.2c6.3,0,8.3-5.2,8.3-5.2"/>
		<path class="st0" d="M-247.9,341.9c0,0,0.6,4.3,13.5,9.2c12.9,5,24.4,5.4,24.5,5.8"/>
		<path class="st0" d="M-238.5,337.8c0,0,0.6,8.9-5.3,15.9c-5.9,7-13.6,11.6-13.6,11.6"/>
		<path class="st0" d="M-238.2,373.5c0,0,3,2.6,7.7,2.1s6.7-2.4,6.7-2.4"/>
		<circle class="st5" cx="-236.5" cy="361.6" r="2.7"/>
		<circle class="st5" cx="-224.2" cy="361.1" r="2.7"/>
		<path class="st0" d="M-218.8,387.2c-2.8-0.8,7.7,4.2,17.2,20.6c2.2,3.9-3.7,14.6-12.8,24.1"/>
	</g>
	<polyline class="st5" points="-235.1,387.8 -235.3,392.3 -233.7,394.6 -236.9,431.1 -231.6,440.4 -226.3,430.4 -231.4,395.2 
		-229.7,392.3 -229.3,387.2 	"/>
	<g>
		<path class="st6" d="M-234.6,362.1c0,1.6-1.3,2.9-2.9,2.9h-3.7c-1.6,0-2.9-1.3-2.9-2.9l0,0c0-1.6,1.3-2.9,2.9-2.9h3.7
			C-235.9,359.2-234.6,360.5-234.6,362.1L-234.6,362.1z"/>
		<path class="st6" d="M-219.7,362.1c0,1.6-1.3,2.9-2.9,2.9h-3.7c-1.6,0-2.9-1.3-2.9-2.9l0,0c0-1.6,1.3-2.9,2.9-2.9h3.7
			C-221,359.2-219.7,360.5-219.7,362.1L-219.7,362.1z"/>
		<line class="st6" x1="-234.6" y1="362.1" x2="-229.3" y2="362.1"/>
		<line class="st6" x1="-244.2" y1="361.9" x2="-252.4" y2="361.1"/>
		<line class="st6" x1="-219.7" y1="361.4" x2="-213.4" y2="360.5"/>
	</g>
</g>
</svg>
