<!-- Generator: Adobe Illustrator 19.1.0, SVG Export Plug-In  -->
<svg version="1.1"
	 xmlns="http://www.w3.org/2000/svg" xmlns:xlink="http://www.w3.org/1999/xlink" xmlns:a="http://ns.adobe.com/AdobeSVGViewerExtensions/3.0/"
	 x="0px" y="0px" width="129.4px" height="252.4px" viewBox="0 0 129.4 252.4" style="enable-background:new 0 0 129.4 252.4;"
	 xml:space="preserve">
<style type="text/css">
	.st0{fill:none;stroke:#204D69;stroke-width:6;stroke-linecap:round;stroke-miterlimit:10;}
	.st1{fill:#FFFFFF;stroke:#204D69;stroke-width:6;stroke-linecap:round;stroke-miterlimit:10;}
	.st2{fill:#FDFDFC;stroke:#204D69;stroke-width:6;stroke-linecap:round;stroke-miterlimit:10;}
	.st3{fill:#D7D7DE;}
	.st4{fill:#204D69;}
</style>
<defs>
</defs>
<g>
	<path id="XMLID_12_" class="st0" d="M55,249.4c0,0,31.5-23.5,31.6-45.8c0-23.1-9.5-45.2-9.3-47.4"/>
	<path id="XMLID_11_" class="st0" d="M21.2,249.4c0,0,26-22.7,26.3-45.5c0.2-20.9-3.4-41.8-2.5-45.5"/>
	<g>
		<path id="XMLID_10_" class="st1" d="M73.7,68c5.7,9.1,14,12.5,21.2,37.3c2.9,9.8,3.8,18.8,1.5,33.6C95.7,144.2,84,154,71,156.8
			c-6.8,1.5-15,1.1-26.5,0.1c-4.1-0.4-20.9-3.1-22.6-15.3c-1.3-9.3-5-19-1.5-33.6c2.9-12.4,6.4-18.3,20.6-40.8
			c14-11.4,14-12.9,14-12.9S67.8,58.6,73.7,68z"/>
		<circle id="XMLID_9_" class="st2" cx="55" cy="34.1" r="31.1"/>
		<path id="XMLID_8_" class="st0" d="M35.7,74.1c6.1-2-35.8,14.2-32.6,84"/>
		<path id="XMLID_7_" class="st0" d="M74.9,71.3c-4.1-0.9,39.2,7.9,48.6,18.2c10.2,9.4-9,37.2-27.1,49.4"/>
		<path id="XMLID_6_" class="st0" d="M72.5,68c5.7,9.1,14,12.5,21.2,37.3c2.9,9.8,3.8,18.8,1.5,33.6c-0.8,5.3-12.5,15.1-25.5,17.8
			c-6.8,1.5-15,1.1-26.5,0.1c-4.1-0.4-20.9-3.1-22.6-15.3c-1.3-9.3-5-19-1.5-33.6c2.9-12.4,6.4-18.3,20.6-40.8
			C54,44.8,53,52.4,53,52.4S66.7,58.7,72.5,68z"/>
		<path id="XMLID_5_" class="st3" d="M28.5,88.9c2.2-5,5.2-9.7,7.3-14.7c1.1-2.6,2.6-6.6,5.7-7.6c0.5-0.5,1.2-0.8,1.8-1.1
			c-0.8-0.3-1.5-0.7-2.3-1c-0.9-0.4-1.7-0.9-2.6-1.4c5,1.1,10,2,14.4,4.8c-0.6-0.1-1.2-0.1-1.7-0.2c1.2,1.2,2,2.9,2.1,4.8
			c0.2,5.3-2.4,10.1-5.1,14.6c-4.4,7.5-7.5,13.8-8.2,22.5c-0.6,7.5,0.6,15.5,2.7,22.6c1.6,5.6,7.3,8.8,8.7,14.5
			c1.4,5.8-3.6,6.2-8.4,5.3c-1.1,0.4-2.5,0.2-3.1-0.8c-1.4-0.4-2.6-0.8-3.4-1.2c-9.7-4-13.3-12-14.4-21.6
			C20.1,114.7,23.1,101.4,28.5,88.9z"/>
		<path id="XMLID_4_" class="st3" d="M52.6,64.9c-3-0.9-6-1.7-8.9-2.7c0.2-0.1,0.3-0.2,0.5-0.2c-0.8-0.3-1.5-0.7-2.3-1
			c-9-4.4-19.6-15.3-15.2-25.6c4.8-11.3,16,3.6,19.6,7.4c3.9,4.2,9.6,6.5,15.3,6.6c1.2-0.7,2.4-0.6,3.4-0.1
			c6.4-0.8,12.3-4.2,14.8-10.6c1.1-2.7,4.8-1.5,5.3,0.9c2.3-1.2,5.5,1.2,4,3.7c-0.6,1-1.2,2-1.9,3c-0.4,2.6-2.1,4.9-4.1,6.7
			c-0.6,0.6-1.3,0.8-2,0.8c0,0.6-0.3,1.1-0.8,1.5C72,62.1,62,65.5,52,64.1C52.2,64.3,52.4,64.6,52.6,64.9z"/>
		<circle id="XMLID_3_" class="st0" cx="56.2" cy="34.1" r="31.1"/>
		<ellipse id="XMLID_2_" class="st4" cx="47.6" cy="32.4" rx="2.3" ry="3.6"/>
		<ellipse id="XMLID_1_" class="st4" cx="65.1" cy="32.4" rx="2.3" ry="3.6"/>
	</g>
</g>
</svg>
