<?xml version="1.0" encoding="utf-8"?>
<!-- Generator: Adobe Illustrator 19.0.0, SVG Export Plug-In . SVG Version: 6.00 Build 0)  -->
<svg version="1.1" id="Capa_1" xmlns="http://www.w3.org/2000/svg" xmlns:xlink="http://www.w3.org/1999/xlink" x="0px" y="0px"
	 viewBox="-268 391.6 59 58.3" style="enable-background:new -268 391.6 59 58.3;" xml:space="preserve">
<style type="text/css">
	.st0{fill:#1B98C6;stroke:#1D4B66;stroke-width:1.2;stroke-miterlimit:10;}
	.st1{fill:#1D4B66;stroke:#1D4B66;stroke-width:1.2;stroke-miterlimit:10;}
	.st2{fill:#878689;stroke:#1D4B66;stroke-width:1.2;stroke-miterlimit:10;}
	.st3{fill:#E41E5D;stroke:#1D4B66;stroke-width:1.2;stroke-miterlimit:10;}
	.st4{fill:#FCBB1A;stroke:#1D4B66;stroke-width:1.2;stroke-miterlimit:10;}
	.st5{fill:#FDC01A;stroke:#1D4B66;stroke-width:1.2;stroke-miterlimit:10;}
	.st6{fill:#889298;}
	.st7{clip-path:url(#SVGID_3_);fill:#1B98C6;}
	.st8{fill:none;stroke:#1D4B66;stroke-width:1.2;stroke-miterlimit:10;}
	.st9{fill:#727276;stroke:#1D4B66;stroke-width:1.2;stroke-miterlimit:10;}
</style>
<g>
	<g>
		<rect x="-254.8" y="413.7" class="st0" width="34.5" height="21.1"/>
		<polygon class="st1" points="-224.9,402.7 -250.5,402.7 -256.6,413.7 -218.8,413.7 		"/>
		<rect x="-247.9" y="400.9" class="st0" width="4" height="6.7"/>
		<rect x="-252" y="417.4" class="st2" width="10.2" height="18.6"/>
		<rect x="-250.3" y="418.5" class="st3" width="6.8" height="4.2"/>
		<circle class="st4" cx="-249.9" cy="426.7" r="0.6"/>
		<g>
			<rect x="-238.4" y="418.9" class="st5" width="15.6" height="15"/>
			<rect x="-238.4" y="419.9" class="st6" width="15.6" height="1.1"/>
			<rect x="-238.4" y="422.1" class="st6" width="15.6" height="1.1"/>
			<rect x="-238.4" y="424.2" class="st6" width="15.6" height="1.1"/>
			<rect x="-238.4" y="426.4" class="st6" width="15.6" height="1.1"/>
			<rect x="-238.4" y="428.5" class="st6" width="15.6" height="1.1"/>
			<rect x="-238.4" y="430.6" class="st6" width="15.6" height="1.1"/>
			<rect x="-238.4" y="432.8" class="st6" width="15.6" height="1.1"/>
		</g>
		<g>
			<g>
				<defs>
					<rect id="SVGID_2_" x="-254.8" y="413.7" width="34.5" height="21.1"/>
				</defs>
				<clipPath id="SVGID_3_">
					<use xlink:href="#SVGID_2_"  style="overflow:visible;"/>
				</clipPath>
				<polygon class="st7" points="-224.9,403.8 -250.5,403.8 -256.6,414.9 -218.8,414.9 				"/>
			</g>
			<g>
				<rect id="SVGID_1_" x="-254.8" y="413.7" class="st8" width="34.5" height="21.1"/>
			</g>
		</g>
		<rect x="-256.6" y="433.9" class="st9" width="37.7" height="2.5"/>
	</g>
</g>
</svg>
