<?xml version="1.0" encoding="utf-8"?>
<!-- Generator: Adobe Illustrator 16.0.0, SVG Export Plug-In . SVG Version: 6.00 Build 0)  -->
<!DOCTYPE svg PUBLIC "-//W3C//DTD SVG 1.1//EN" "http://www.w3.org/Graphics/SVG/1.1/DTD/svg11.dtd">
<svg version="1.1" id="Capa_1" xmlns="http://www.w3.org/2000/svg" xmlns:xlink="http://www.w3.org/1999/xlink" x="0px" y="0px"
	 width="164.947px" height="297.64px" viewBox="0 0 164.947 297.64" enable-background="new 0 0 164.947 297.64"
	 xml:space="preserve">
<path fill="#D7D7DE" d="M83.607,252.65c36.939,0,66.887,7.425,66.887,16.584c0,9.158-29.947,16.584-66.887,16.584
	c-36.94,0-66.886-7.426-66.886-16.584C16.722,260.075,46.667,252.65,83.607,252.65"/>
<path fill="none" stroke="#1D506A" stroke-width="6" stroke-linecap="round" stroke-miterlimit="10" d="M97.773,269.233
	c0,0,0-99.894,0.279-104.929"/>
<path fill="none" stroke="#1D506A" stroke-width="6" stroke-linecap="round" stroke-miterlimit="10" d="M63.989,269.233
	c0,0,0-93.812,1.907-102.306"/>
<path fill="none" stroke="#1D506A" stroke-width="6" stroke-linecap="round" stroke-miterlimit="10" d="M56.549,83.693
	c6.139-1.987-30.776,8.31-27.587,78.08"/>
<path fill="none" stroke="#1D506A" stroke-width="6" stroke-linecap="round" stroke-miterlimit="10" d="M94.488,77.533
	c-4.135-0.934,33.128,50.288,49.292,39.624c8.447-5.572,13.426-30.005,13.426-50.644"/>
<path fill="none" stroke="#1D506A" stroke-width="6" stroke-linecap="round" stroke-miterlimit="10" d="M93.338,77.586
	c5.699,9.104,14.002,12.52,21.248,37.332c2.854,9.772,3.818,18.75,1.537,33.606c-0.813,5.299-12.488,15.068-25.47,17.849
	c-6.849,1.465-15.042,1.133-26.51,0.059c-4.133-0.389-20.889-3.08-22.6-15.275c-1.301-9.28-4.952-18.971-1.536-33.608
	c2.892-12.392,6.418-18.271,20.632-40.812c14.137-22.418,13.198-14.728,13.198-14.728S87.498,68.261,93.338,77.586z"/>
<path fill="#D7D7DE" d="M49.276,98.429c2.172-5.035,5.226-9.662,7.273-14.734c1.057-2.616,2.584-6.579,5.668-7.625
	c0.547-0.483,1.16-0.838,1.814-1.071c-0.776-0.314-1.55-0.654-2.321-1.033c-0.854-0.418-1.721-0.896-2.587-1.426
	c5.006,1.065,10.014,1.987,14.379,4.785c-0.578-0.056-1.155-0.119-1.733-0.203c1.17,1.225,1.969,2.852,2.053,4.766
	c0.236,5.291-2.426,10.078-5.071,14.563c-4.426,7.502-7.504,13.786-8.183,22.545c-0.579,7.469,0.568,15.457,2.671,22.627
	c1.642,5.6,7.32,8.842,8.664,14.471c1.385,5.807-3.64,6.209-8.446,5.318c-1.138,0.356-2.453,0.166-3.14-0.752
	c-1.396-0.404-2.618-0.849-3.446-1.191c-9.719-4.047-13.341-11.961-14.428-21.625C40.921,124.306,43.889,110.917,49.276,98.429"/>
<path fill="none" stroke="#1D506A" stroke-width="6" stroke-linecap="round" stroke-miterlimit="10" d="M94.488,77.533
	c5.701,9.103,14.002,12.521,21.248,37.332c2.854,9.773,3.819,18.75,1.537,33.607c-0.813,5.297-12.488,15.068-25.469,17.846
	c-6.849,1.468-15.042,1.136-26.51,0.062c-4.133-0.39-20.889-3.08-22.6-15.277c-1.301-9.281-4.952-18.971-1.537-33.604
	c2.893-12.394,6.418-18.273,20.632-40.813c14.036-11.425,14.036-12.925,14.036-12.925S88.647,68.209,94.488,77.533z"/>
<path fill="#D7D7DE" d="M73.435,74.431c-2.977-0.854-5.971-1.664-8.866-2.725c0.153-0.07,0.299-0.156,0.457-0.213
	c-0.776-0.314-1.55-0.654-2.321-1.035c-9.016-4.437-19.606-15.271-15.175-25.611c4.85-11.316,16.039,3.563,19.604,7.432
	c3.902,4.236,9.614,6.468,15.292,6.638c1.237-0.687,2.393-0.646,3.366-0.146c6.402-0.754,12.277-4.229,14.842-10.559
	c1.111-2.74,4.752-1.457,5.25,0.924c2.252-1.228,5.486,1.17,3.971,3.662c-0.602,0.985-1.243,1.983-1.928,2.963
	c-0.391,2.621-2.133,4.879-4.131,6.729c-0.617,0.57-1.318,0.802-2.002,0.806c-0.041,0.567-0.274,1.117-0.773,1.537
	c-8.191,6.879-18.204,10.252-28.254,8.787C73.005,73.87,73.227,74.144,73.435,74.431"/>
<circle fill="none" stroke="#1D506A" stroke-width="6" stroke-linecap="round" stroke-miterlimit="10" cx="76.976" cy="43.656" r="31.092"/>
<path fill="#1D506A" d="M68.357,38.367c1.243,0,2.25,1.623,2.25,3.625c0,2.003-1.007,3.625-2.25,3.625s-2.25-1.622-2.25-3.625
	C66.107,39.99,67.114,38.367,68.357,38.367"/>
<path fill="#1D506A" d="M85.857,38.367c1.243,0,2.25,1.623,2.25,3.625c0,2.003-1.007,3.625-2.25,3.625s-2.25-1.622-2.25-3.625
	C83.607,39.99,84.614,38.367,85.857,38.367"/>
<circle fill="none" stroke="#1D506A" stroke-width="6" stroke-linecap="round" stroke-miterlimit="10" cx="75.825" cy="43.71" r="31.091"/>
</svg>
