<?xml version="1.0" encoding="utf-8"?>
<!-- Generator: Adobe Illustrator 16.0.0, SVG Export Plug-In . SVG Version: 6.00 Build 0)  -->
<!DOCTYPE svg PUBLIC "-//W3C//DTD SVG 1.1//EN" "http://www.w3.org/Graphics/SVG/1.1/DTD/svg11.dtd">
<svg version="1.1" id="Capa_1" xmlns="http://www.w3.org/2000/svg" xmlns:xlink="http://www.w3.org/1999/xlink" x="0px" y="0px"
	 width="164.947px" height="297.64px" viewBox="0 0 164.947 297.64" enable-background="new 0 0 164.947 297.64"
	 xml:space="preserve">
<path fill="#D7D7DE" d="M69.681,262.121c36.94,0,66.886,7.425,66.886,16.584c0,9.159-29.946,16.584-66.886,16.584
	s-66.886-7.426-66.886-16.584C2.794,269.545,32.741,262.121,69.681,262.121"/>
<path fill="none" stroke="#1D506A" stroke-width="6" stroke-linecap="round" stroke-miterlimit="10" d="M79.727,284.623
	c0,0,12.386-38.054,2.959-114.643"/>
<path fill="none" stroke="#1D506A" stroke-width="6" stroke-linecap="round" stroke-miterlimit="10" d="M44.013,284.623
	c0,0,10.116-53.744,4.679-111.891"/>
<path fill="none" stroke="#1D506A" stroke-width="6" stroke-linecap="round" stroke-miterlimit="10" d="M83.995,81.895
	c3.956,1.484,44.144,15.519,52.111,11.12c4.833-2.657-2.284-24.545-3.355-37.8c-0.159-2.179-3.268-13.571-3.268-13.571"/>
<path fill="#FFFFFF" d="M77.732,78.39c6.056,9.634,14.795,13.212,22.364,39.43c3.097,10.322,3.991,19.887,1.583,35.507
	c-0.826,5.574-13.212,15.965-26.906,18.786c-7.157,1.583-15.827,1.17-28.007,0.138c-4.335-0.413-22.089-3.303-23.878-16.171
	c-1.376-9.84-5.299-20.094-1.583-35.508c3.097-13.074,6.744-19.336,21.745-43.077c14.864-23.671,13.763-23.258,13.763-23.258
	S71.47,68.55,77.732,78.39"/>
<path fill="#D7D7DE" d="M31.145,102.062c2.34-5.574,5.505-10.872,7.707-16.446c1.17-2.959,2.753-7.363,6.056-8.533
	c0.55-0.551,1.238-0.964,1.926-1.17c-0.825-0.344-1.72-0.757-2.408-1.17c-0.963-0.413-1.789-1.032-2.753-1.582
	c5.299,1.169,10.598,2.202,15.208,5.367c-0.619-0.138-1.239-0.138-1.789-0.206c1.239,1.376,2.133,3.165,2.202,5.367
	c0.206,5.918-2.546,11.285-5.367,16.377c-4.68,8.464-7.914,15.415-8.671,25.255c-0.619,8.326,0.619,17.341,2.821,25.323
	c1.721,6.262,7.707,9.909,9.221,16.24c1.445,6.537-3.784,6.95-8.877,5.918c-1.169,0.413-2.614,0.206-3.303-0.826
	c-1.445-0.413-2.752-0.963-3.578-1.376c-10.253-4.542-14.038-13.419-15.207-24.291C22.268,131.101,25.434,116.1,31.145,102.062"/>
<path fill="none" stroke="#1D506A" stroke-width="6" stroke-linecap="round" stroke-miterlimit="10" d="M78.901,78.39
	c6.056,9.634,14.795,13.212,22.364,39.43c3.097,10.322,3.991,19.887,1.583,35.507c-0.826,5.574-13.212,15.965-26.906,18.786
	c-7.157,1.583-15.827,1.17-28.007,0.138c-4.335-0.413-22.089-3.303-23.878-16.171c-1.376-9.84-5.299-20.094-1.583-35.508
	c3.097-13.074,6.744-19.336,21.745-43.077c14.864-23.671,13.763-23.258,13.763-23.258S72.777,68.481,78.901,78.39z"/>
<path fill="#FFFFFF" d="M59.083,9.783c18.128,0,32.824,14.696,32.824,32.824c0,18.128-14.696,32.824-32.824,32.824
	c-18.128,0-32.824-14.696-32.824-32.824C26.259,24.479,40.955,9.783,59.083,9.783"/>
<path fill="#D7D7DE" d="M32.177,60.017c-1.032-3.097-2.202-6.124-3.165-9.29c0.137,0.138,0.344,0.207,0.412,0.207
	c-0.206-0.826-0.412-1.721-0.55-2.615c-1.789-10.529,0.963-26.218,12.593-28.902c12.661-2.821,6.881,15.965,5.711,21.47
	c-1.238,5.918,0.413,12.249,3.716,17.203c1.376,0.62,1.996,1.721,2.202,2.753c4.679,5.092,11.217,7.913,18.167,6.262
	c3.096-0.757,4.197,3.165,2.408,5.092c2.409,1.17,2.409,5.367-0.757,5.711c-1.238,0.138-2.408,0.207-3.716,0.207
	c-2.546,1.238-5.505,1.17-8.326,0.619c-0.826-0.206-1.445-0.619-1.927-1.238c-0.55,0.344-1.17,0.412-1.789,0.344
	c-11.01-2.753-20.093-9.29-24.91-18.786C32.383,59.26,32.315,59.672,32.177,60.017"/>
<circle fill="none" stroke="#1D506A" stroke-width="6" stroke-linecap="round" stroke-miterlimit="10" cx="60.391" cy="42.607" r="32.824"/>
<path fill="none" stroke="#1D506A" stroke-width="6" stroke-linecap="round" stroke-miterlimit="10" d="M50.759,88.582
	c-2.116,7.616-7.044,49.673,37.075,64.313"/>
<path fill="none" stroke="#1D506A" stroke-width="1.069" stroke-linecap="round" stroke-linejoin="round" stroke-miterlimit="10" d="
	M42.431,43.983c0,0-9.29-41.632,25.461-41.632c6.95,0,8.257,11.423,8.257,11.423"/>
<path fill="#1D506A" d="M44.357,39.373c4.561,0,8.258,3.975,8.258,8.877c0,4.902-3.697,8.877-8.258,8.877s-8.258-3.975-8.258-8.877
	C36.099,43.347,39.796,39.373,44.357,39.373"/>
<path fill="none" stroke="#1D506A" stroke-width="0.688" stroke-miterlimit="10" d="M47.179,53.066c0,0,3.785,11.285,17.823,8.326
	c10.597-2.202,17.822-7.087,17.822-7.087"/>
<path fill="#1D506A" d="M80.563,59.225c-3.486,1.198-6.693,1.063-7.163-0.303c-0.469-1.366,1.977-3.444,5.463-4.643
	c3.486-1.198,6.693-1.063,7.162,0.303C86.495,55.948,84.049,58.027,80.563,59.225"/>
<path fill="#1D506A" d="M72.708,37.82c0.646,0,1.17,0.856,1.17,1.912s-0.524,1.912-1.17,1.912s-1.17-0.856-1.17-1.912
	S72.063,37.82,72.708,37.82"/>
<path fill="#1D506A" d="M85.783,34.841c0.646,0,1.17,0.856,1.17,1.912s-0.524,1.912-1.17,1.912s-1.17-0.856-1.17-1.912
	S85.137,34.841,85.783,34.841"/>
</svg>
