<!-- Generator: Adobe Illustrator 19.0.0, SVG Export Plug-In  -->
<svg version="1.1"
	 xmlns="http://www.w3.org/2000/svg" xmlns:xlink="http://www.w3.org/1999/xlink" xmlns:a="http://ns.adobe.com/AdobeSVGViewerExtensions/3.0/"
	 x="0px" y="0px" width="192.8px" height="266px" viewBox="0 0 192.8 266" style="enable-background:new 0 0 192.8 266;"
	 xml:space="preserve">
<style type="text/css">
	.st0{fill:none;stroke:#214D6A;stroke-width:6;stroke-linecap:round;stroke-miterlimit:10;}
	.st1{fill:#FFFFFF;}
	.st2{fill:#E0DFE6;}
	.st3{fill:none;stroke:#214D6A;stroke-width:6;stroke-miterlimit:10;}
	.st4{fill:none;stroke:#214D6A;stroke-width:3;stroke-linecap:round;stroke-miterlimit:10;}
</style>
<defs>
</defs>
<path id="XMLID_53_" class="st0" d="M58.9,226.4c10.6,4.8,29.7,48.3,30.9,30.5c1.1-15.4,0.1-35.2-7.3-55.8"/>
<path id="XMLID_52_" class="st0" d="M82.8,233.7c0,0,33.6,42.5,35,25.2c1.2-15.5,0.3-35.8-7.2-56.9"/>
<path id="XMLID_51_" class="st0" d="M121.1,138c0,0,25.3-19.9,9.5-91.4"/>
<path id="XMLID_50_" class="st0" d="M74.3,138c0,0-22.5-31-15.4-98.1"/>
<g id="XMLID_46_">
	<path id="XMLID_49_" class="st1" d="M83.2,125.6c-4.6,8.1-11.7,11.4-17,33.2c-2.1,8.6-2.6,16.4,0,29.2c0.9,4.6,11.4,12.6,22.8,14.5
		c6,1,13.1,0.4,23-1c3.6-0.5,18-3.5,19-14.1c0.8-8.1,3.5-16.7,0-29.2c-3-10.6-6.3-15.6-19.5-34.6C98.4,104.7,99.4,105,99.4,105
		S87.9,117.3,83.2,125.6z"/>
	<path id="XMLID_48_" class="st2" d="M122.3,142c-2.1-4.3-4.9-8.2-6.9-12.5c-1-2.2-2.5-5.6-5.2-6.4c-0.5-0.4-1-0.7-1.6-0.9
		c0.7-0.3,1.3-0.6,2-1c0.7-0.4,1.5-0.8,2.2-1.3c-4.3,1.1-8.6,2.1-12.3,4.7c0.5-0.1,1-0.1,1.5-0.2c-1,1.1-1.6,2.6-1.6,4.2
		c0,4.6,2.5,8.6,5,12.4c4.1,6.3,7.1,11.7,8,19.2c0.8,6.5,0.1,13.4-1.4,19.7c-1.2,4.9-6,8-6.9,12.9c-1,5.1,3.4,5.2,7.5,4.3
		c1,0.3,2.1,0,2.7-0.8c1.2-0.4,2.2-0.8,2.9-1.2c8.3-3.9,11.1-10.9,11.7-19.3C130.5,164.1,127.4,152.6,122.3,142z"/>
	<path id="XMLID_47_" class="st3" d="M82.2,125.6c-4.6,8.1-11.7,11.4-17,33.2c-2.1,8.6-2.6,16.4,0,29.2c0.9,4.6,11.4,12.6,22.8,14.5
		c6,1,13.1,0.4,23-1c3.6-0.5,18-3.5,19-14.1c0.8-8.1,3.5-16.7,0-29.2c-3-10.6-6.3-15.6-19.5-34.6C97.4,104.7,98.4,105,98.4,105
		S86.9,117.3,82.2,125.6z"/>
</g>
<circle id="XMLID_45_" class="st1" cx="97.1" cy="95.5" r="27"/>
<path id="XMLID_44_" class="st2" d="M100.4,122.1c2.5-0.9,5.1-1.7,7.6-2.7c-0.1-0.1-0.3-0.1-0.4-0.2c0.7-0.3,1.3-0.6,2-1
	c7.6-4.2,16.4-14,12.1-22.8c-4.7-9.6-13.8,3.7-16.7,7.2c-3.2,3.8-8.1,6-13,6.4c-1.1-0.5-2.1-0.5-2.9,0c-5.6-0.4-10.8-3.2-13.3-8.6
	c-1.1-2.3-4.2-1.1-4.5,1c-2-1-4.7,1.2-3.3,3.3c0.6,0.8,1.2,1.7,1.8,2.5c0.4,2.3,2,4.1,3.9,5.7c0.6,0.5,1.2,0.6,1.8,0.6
	c0.1,0.5,0.3,1,0.7,1.3c7.4,5.6,16.2,8.2,24.9,6.5C100.7,121.6,100.5,121.8,100.4,122.1z"/>
<circle id="XMLID_43_" class="st3" cx="96.1" cy="95.5" r="27"/>
<line id="XMLID_42_" class="st4" x1="25.1" y1="31.9" x2="46.3" y2="46.7"/>
<line id="XMLID_41_" class="st4" x1="50.4" y1="11.9" x2="67.5" y2="34.7"/>
<line id="XMLID_40_" class="st4" x1="80.8" y1="1.5" x2="90.2" y2="31.9"/>
<line id="XMLID_39_" class="st4" x1="113" y1="1.8" x2="113" y2="33.2"/>
<line id="XMLID_38_" class="st4" x1="143.2" y1="12.8" x2="129.9" y2="39.9"/>
<line id="XMLID_37_" class="st4" x1="168.1" y1="33.2" x2="145.3" y2="54.9"/>
<line id="XMLID_36_" class="st4" x1="184.7" y1="60.7" x2="156.7" y2="72.3"/>
<line id="XMLID_35_" class="st4" x1="191.3" y1="92.2" x2="159" y2="94.1"/>
<line id="XMLID_34_" class="st4" x1="187" y1="124.1" x2="156.7" y2="116.9"/>
<line id="XMLID_33_" class="st4" x1="172.3" y1="152.7" x2="145.3" y2="135.6"/>
<line id="XMLID_32_" class="st4" x1="29.7" y1="150.9" x2="43" y2="129.3"/>
<line id="XMLID_31_" class="st4" x1="10.8" y1="125" x2="33.3" y2="111.4"/>
<line id="XMLID_30_" class="st4" x1="1.5" y1="94.1" x2="29.7" y2="87.3"/>
<line id="XMLID_29_" class="st4" x1="3" y1="62" x2="36.4" y2="64.7"/>
</svg>
