<?xml version="1.0" encoding="utf-8"?>
<!-- Generator: Adobe Illustrator 19.0.0, SVG Export Plug-In . SVG Version: 6.00 Build 0)  -->
<svg version="1.1" id="Capa_1" xmlns="http://www.w3.org/2000/svg" xmlns:xlink="http://www.w3.org/1999/xlink" x="0px" y="0px"
	 viewBox="0 0 65.8 44.8" style="enable-background:new 0 0 65.8 44.8;" xml:space="preserve">
<style type="text/css">
	.st0{opacity:0.7;}
	.st1{fill:#D8D4E8;}
	.st2{fill:#FFFFFF;stroke:#1D4B66;stroke-width:0.8805;stroke-miterlimit:10;}
	.st3{fill:#FFFFFF;stroke:#1D4B66;stroke-width:0.6815;stroke-miterlimit:10;}
	.st4{fill:#1D4B66;stroke:#1D4B66;stroke-width:0.6815;stroke-miterlimit:10;}
	.st5{fill:#F8F7F8;stroke:#1D4B66;stroke-width:0.2759;stroke-miterlimit:10;}
	.st6{fill:#1D4B66;stroke:#1D4B66;stroke-width:0.2759;stroke-miterlimit:10;}
	.st7{fill:#C0335D;stroke:#1D4B66;stroke-width:0.587;stroke-miterlimit:10;}
	.st8{fill:#7EAB39;stroke:#1D4B66;stroke-width:0.587;stroke-miterlimit:10;}
	.st9{fill:#1D4B66;stroke:#1D4B66;stroke-width:0.1675;stroke-miterlimit:10;}
	.st10{fill:#1D4B66;stroke:#1D4B66;stroke-width:0.1129;stroke-miterlimit:10;}
</style>
<g>
	<g class="st0">
		
			<ellipse id="XMLID_122_" transform="matrix(0.9824 -0.1869 0.1869 0.9824 -3.6019 6.5368)" class="st1" cx="32.9" cy="22.4" rx="30.7" ry="19.1"/>
	</g>
	<path id="XMLID_121_" class="st2" d="M61.9,28.8c0,3.8-3.1,6.8-6.8,6.8H9.8c-3.8,0-6.8-3.1-6.8-6.8l0,0C3,25,6.1,22,9.8,22h45.3
		C58.9,22,61.9,25,61.9,28.8L61.9,28.8z"/>
	<path id="XMLID_120_" class="st3" d="M57.8,28.8c0,2.6-2.7,4.7-6,4.7H12.3c-3.3,0-6-2.1-6-4.7l0,0c0-2.6,2.7-4.7,6-4.7h39.5
		C55.1,24.1,57.8,26.2,57.8,28.8L57.8,28.8z"/>
	<circle id="XMLID_119_" class="st4" cx="10.5" cy="28.8" r="4.3"/>
	<circle id="XMLID_118_" class="st5" cx="10.5" cy="28.8" r="1.7"/>
	<circle id="XMLID_117_" class="st4" cx="53.9" cy="28.7" r="4.3"/>
	<circle id="XMLID_116_" class="st5" cx="53.9" cy="28.7" r="1.7"/>
	<g>
		<circle id="XMLID_115_" class="st6" cx="18.5" cy="28.9" r="2.3"/>
		<circle id="XMLID_114_" class="st6" cx="27.3" cy="28.9" r="2.3"/>
		<circle id="XMLID_113_" class="st6" cx="36.1" cy="28.9" r="2.3"/>
		<circle id="XMLID_112_" class="st6" cx="45" cy="28.9" r="2.3"/>
	</g>
	<rect id="XMLID_111_" x="14.7" y="28.8" class="st6" width="34.9" height="0.9"/>
	<rect id="XMLID_110_" x="10.1" y="11" class="st7" width="8.1" height="10.9"/>
	<rect id="XMLID_109_" x="25.8" y="14" class="st8" width="4.3" height="7.6"/>
	<rect id="XMLID_108_" x="38.1" y="14.1" class="st9" width="4.3" height="7.6"/>
	<rect id="XMLID_107_" x="39.2" y="10.3" class="st10" width="2.1" height="7"/>
	<rect id="XMLID_106_" x="50" y="14.2" class="st9" width="4.3" height="7.6"/>
	<rect id="XMLID_105_" x="51.1" y="10.3" class="st10" width="2.1" height="7"/>
</g>
</svg>
