<!-- Generator: Adobe Illustrator 19.0.0, SVG Export Plug-In  -->
<svg version="1.1"
	 xmlns="http://www.w3.org/2000/svg" xmlns:xlink="http://www.w3.org/1999/xlink" xmlns:a="http://ns.adobe.com/AdobeSVGViewerExtensions/3.0/"
	 x="0px" y="0px" width="64.3px" height="47.4px" viewBox="0 0 64.3 47.4" style="enable-background:new 0 0 64.3 47.4;"
	 xml:space="preserve">
<style type="text/css">
	.st0{fill:#D7D3E8;}
	.st1{fill:none;stroke:#1C4A65;stroke-width:0.6109;stroke-linecap:round;stroke-miterlimit:10;}
	.st2{fill:#F7F7F8;}
	.st3{opacity:0.3;fill:#C2C3C8;}
	.st4{fill:none;stroke:#1C4A65;stroke-width:0.6109;stroke-miterlimit:10;}
	.st5{fill:#FFFFFF;}
	.st6{fill:#DFDEE4;}
	.st7{fill:none;stroke:#1C4A65;stroke-width:0.3291;stroke-linecap:round;stroke-miterlimit:10;}
	.st8{fill:#1C4A65;}
</style>
<defs>
</defs>
<g>
	<g>
		<ellipse transform="matrix(0.9824 -0.1868 0.1868 0.9824 -4.4071 6.4762)" class="st0" cx="32.2" cy="26.6" rx="32.5" ry="20.3"/>
	</g>
	<g>
		<g>
			<g>
				<g>
					<path class="st1" d="M9.3,22.5c0,0-0.1-3.8-0.2-8.7"/>
					<path class="st1" d="M12.2,22.6c0,0,0-4.2-0.2-8.7"/>
					<path class="st2" d="M9.2,6.1C8.7,6.9,8,7.3,7.5,9.5c-0.2,0.9-0.3,1.7,0,3c0.1,0.5,1.2,1.3,2.3,1.5c0.6,0.1,1.3,0,2.3-0.1
						c0.4-0.1,1.8-0.4,1.9-1.4c0.1-0.8,0.4-1.7,0-3c-0.3-1.1-0.6-1.6-2-3.5C10.7,4,10.8,4,10.8,4S9.7,5.3,9.2,6.1"/>
					<path class="st3" d="M13.2,7.9C13,7.4,12.7,7,12.5,6.6c-0.1-0.2-0.3-0.6-0.5-0.7c0,0-0.1-0.1-0.2-0.1c0.1,0,0.1-0.1,0.2-0.1
						c0.1,0,0.1-0.1,0.2-0.1c-0.4,0.1-0.9,0.2-1.3,0.5C11,6,11,6,11.1,6c-0.1,0.1-0.2,0.3-0.2,0.5c0,0.5,0.3,0.9,0.5,1.3
						c0.4,0.7,0.7,1.3,0.8,2.1c0.1,0.7,0,1.4-0.1,2.1c-0.1,0.5-0.6,0.9-0.7,1.4c-0.1,0.5,0.3,0.6,0.8,0.5c0.1,0,0.2,0,0.3-0.1
						c0.1,0,0.2-0.1,0.3-0.1c0.8-0.4,1.1-1.2,1.2-2.1C14,10.3,13.7,9.1,13.2,7.9"/>
					<path class="st4" d="M9.1,6.1C8.6,6.9,7.9,7.3,7.4,9.5c-0.2,0.9-0.3,1.7,0,3c0.1,0.5,1.2,1.3,2.3,1.5c0.6,0.1,1.3,0,2.3-0.1
						c0.4-0.1,1.8-0.4,1.9-1.4c0.1-0.8,0.4-1.7,0-3c-0.3-1.1-0.6-1.6-2-3.5C10.6,4,10.7,4,10.7,4S9.6,5.3,9.1,6.1z"/>
					<path class="st5" d="M13.4,3.1c0,1.5-1.2,2.7-2.7,2.7c-1.5,0-2.7-1.2-2.7-2.7c0-1.5,1.2-2.7,2.7-2.7
						C12.1,0.3,13.4,1.5,13.4,3.1"/>
					<path class="st6" d="M10.9,5.8c0.3-0.1,0.5-0.2,0.8-0.3c0,0,0,0,0,0c0.1,0,0.1-0.1,0.2-0.1c0.8-0.4,1.7-1.4,1.2-2.3
						c-0.5-1-1.4,0.4-1.7,0.7c-0.3,0.4-0.8,0.6-1.3,0.6c-0.1-0.1-0.2,0-0.3,0c-0.6,0-1.1-0.3-1.4-0.9C8.3,3.3,8,3.4,8,3.7
						C7.8,3.6,7.5,3.8,7.6,4c0.1,0.1,0.1,0.2,0.2,0.3c0,0.2,0.2,0.4,0.4,0.6c0.1,0,0.1,0.1,0.2,0.1c0,0.1,0,0.1,0.1,0.1
						C9.2,5.6,10.1,5.9,10.9,5.8C11,5.7,11,5.7,10.9,5.8"/>
					<circle class="st4" cx="10.5" cy="3.1" r="2.7"/>
					<path class="st1" d="M9.3,6.1c0,0,0.4,0.7,1.3,0.7c0.9,0,1.1-0.7,1.1-0.7"/>
					<g>
						<path class="st7" d="M9.5,4.2c0,0,0.4,0.5,1,0.3c0.6-0.1,0.9-0.8,0.9-0.8"/>
						<circle class="st8" cx="9.7" cy="2.7" r="0.3"/>
						<circle class="st8" cx="11.3" cy="2.7" r="0.3"/>
					</g>
				</g>
			</g>
			<path class="st1" d="M8.7,6.5c0,0-3.8,1.1-3.5,6.8"/>
			<path class="st1" d="M12.4,6.4c0,0,3.8,1.1,3.5,6.8"/>
		</g>
		<g>
			<g>
				<g>
					<path class="st1" d="M20.5,22.5c0,0-0.1-3.8-0.2-8.7"/>
					<path class="st1" d="M23.4,22.6c0,0,0-4.2-0.2-8.7"/>
					<path class="st2" d="M20.4,6.1c-0.5,0.8-1.2,1.2-1.7,3.4c-0.2,0.9-0.3,1.7,0,3c0.1,0.5,1.2,1.3,2.3,1.5c0.6,0.1,1.3,0,2.3-0.1
						c0.4-0.1,1.8-0.4,1.9-1.4c0.1-0.8,0.4-1.7,0-3c-0.3-1.1-0.6-1.6-2-3.5C21.9,4,22,4,22,4S20.9,5.3,20.4,6.1"/>
					<path class="st3" d="M24.4,7.9c-0.2-0.5-0.5-0.9-0.7-1.3c-0.1-0.2-0.3-0.6-0.5-0.7c0,0-0.1-0.1-0.2-0.1c0.1,0,0.1-0.1,0.2-0.1
						c0.1,0,0.1-0.1,0.2-0.1c-0.4,0.1-0.9,0.2-1.3,0.5c0.1,0,0.1,0,0.2,0c-0.1,0.1-0.2,0.3-0.2,0.5c0,0.5,0.3,0.9,0.5,1.3
						c0.4,0.7,0.7,1.3,0.8,2.1c0.1,0.7,0,1.4-0.1,2.1c-0.1,0.5-0.6,0.9-0.7,1.4c-0.1,0.5,0.3,0.6,0.8,0.5c0.1,0,0.2,0,0.3-0.1
						c0.1,0,0.2-0.1,0.3-0.1c0.8-0.4,1.1-1.2,1.2-2.1C25.2,10.3,24.9,9.1,24.4,7.9"/>
					<path class="st4" d="M20.3,6.1c-0.5,0.8-1.2,1.2-1.7,3.4c-0.2,0.9-0.3,1.7,0,3c0.1,0.5,1.2,1.3,2.3,1.5c0.6,0.1,1.3,0,2.3-0.1
						c0.4-0.1,1.8-0.4,1.9-1.4c0.1-0.8,0.4-1.7,0-3c-0.3-1.1-0.6-1.6-2-3.5C21.8,4,21.9,4,21.9,4S20.8,5.3,20.3,6.1z"/>
					<path class="st5" d="M24.5,3.1c0,1.5-1.2,2.7-2.7,2.7c-1.5,0-2.8-1.2-2.8-2.7c0-1.5,1.2-2.7,2.8-2.7
						C23.3,0.3,24.5,1.5,24.5,3.1"/>
					<path class="st6" d="M22.1,5.8c0.3-0.1,0.5-0.2,0.8-0.3c0,0,0,0,0,0c0.1,0,0.1-0.1,0.2-0.1c0.8-0.4,1.7-1.4,1.2-2.3
						c-0.5-1-1.4,0.4-1.7,0.7c-0.3,0.4-0.8,0.6-1.3,0.6c-0.1-0.1-0.2,0-0.3,0c-0.6,0-1.1-0.3-1.4-0.9c-0.1-0.2-0.4-0.1-0.5,0.1
						C19,3.6,18.7,3.8,18.8,4c0.1,0.1,0.1,0.2,0.2,0.3c0,0.2,0.2,0.4,0.4,0.6c0.1,0,0.1,0.1,0.2,0.1c0,0.1,0,0.1,0.1,0.1
						C20.4,5.6,21.3,5.9,22.1,5.8C22.2,5.7,22.1,5.7,22.1,5.8"/>
					<circle class="st4" cx="21.7" cy="3.1" r="2.7"/>
					<path class="st1" d="M20.5,6.1c0,0,0.4,0.7,1.3,0.7c0.9,0,1.1-0.7,1.1-0.7"/>
					<g>
						<path class="st7" d="M20.7,4.2c0,0,0.4,0.5,1,0.3c0.6-0.1,0.9-0.8,0.9-0.8"/>
						<circle class="st8" cx="20.8" cy="2.7" r="0.3"/>
						<circle class="st8" cx="22.5" cy="2.7" r="0.3"/>
					</g>
				</g>
			</g>
			<path class="st1" d="M19.9,6.5c0,0-3.8,1.1-3.5,6.8"/>
			<path class="st1" d="M23.6,6.4c0,0,3.8,1.1,3.5,6.8"/>
		</g>
	</g>
	<g>
		<g>
			<g>
				<g>
					<path class="st1" d="M31.7,22.5c0,0-0.1-3.8-0.2-8.7"/>
					<path class="st1" d="M34.6,22.6c0,0,0-4.2-0.2-8.7"/>
					<path class="st2" d="M31.6,6.1c-0.5,0.8-1.2,1.2-1.7,3.4c-0.2,0.9-0.3,1.7,0,3c0.1,0.5,1.2,1.3,2.3,1.5c0.6,0.1,1.3,0,2.3-0.1
						c0.4-0.1,1.8-0.4,1.9-1.4c0.1-0.8,0.4-1.7,0-3c-0.3-1.1-0.6-1.6-2-3.5C33.1,4,33.2,4,33.2,4S32,5.3,31.6,6.1"/>
					<path class="st3" d="M35.5,7.9C35.3,7.4,35,7,34.8,6.6c-0.1-0.2-0.3-0.6-0.5-0.7c0,0-0.1-0.1-0.2-0.1c0.1,0,0.1-0.1,0.2-0.1
						c0.1,0,0.1-0.1,0.2-0.1c-0.4,0.1-0.9,0.2-1.3,0.5c0.1,0,0.1,0,0.2,0c-0.1,0.1-0.2,0.3-0.2,0.5c0,0.5,0.3,0.9,0.5,1.3
						c0.4,0.7,0.7,1.3,0.8,2.1c0.1,0.7,0,1.4-0.1,2.1c-0.1,0.5-0.6,0.9-0.7,1.4c-0.1,0.5,0.3,0.6,0.8,0.5c0.1,0,0.2,0,0.3-0.1
						c0.1,0,0.2-0.1,0.3-0.1c0.8-0.4,1.1-1.2,1.2-2.1C36.4,10.3,36.1,9.1,35.5,7.9"/>
					<path class="st4" d="M31.5,6.1c-0.5,0.8-1.2,1.2-1.7,3.4c-0.2,0.9-0.3,1.7,0,3c0.1,0.5,1.2,1.3,2.3,1.5c0.6,0.1,1.3,0,2.3-0.1
						c0.4-0.1,1.8-0.4,1.9-1.4c0.1-0.8,0.4-1.7,0-3c-0.3-1.1-0.6-1.6-2-3.5C33,4,33.1,4,33.1,4S31.9,5.3,31.5,6.1z"/>
					<path class="st5" d="M35.7,3.1c0,1.5-1.2,2.7-2.7,2.7c-1.5,0-2.7-1.2-2.7-2.7c0-1.5,1.2-2.7,2.7-2.7
						C34.5,0.3,35.7,1.5,35.7,3.1"/>
					<path class="st6" d="M33.3,5.8c0.3-0.1,0.5-0.2,0.8-0.3c0,0,0,0,0,0c0.1,0,0.1-0.1,0.2-0.1C35,4.9,35.9,3.9,35.5,3
						c-0.5-1-1.4,0.4-1.7,0.7c-0.3,0.4-0.8,0.6-1.3,0.6c-0.1-0.1-0.2,0-0.3,0c-0.6,0-1.1-0.3-1.4-0.9c-0.1-0.2-0.4-0.1-0.5,0.1
						C30.1,3.6,29.9,3.8,30,4c0.1,0.1,0.1,0.2,0.2,0.3c0,0.2,0.2,0.4,0.4,0.6c0.1,0,0.1,0.1,0.2,0.1c0,0.1,0,0.1,0.1,0.1
						C31.6,5.6,32.5,5.9,33.3,5.8C33.3,5.7,33.3,5.7,33.3,5.8"/>
					<circle class="st4" cx="32.9" cy="3.1" r="2.7"/>
					<path class="st1" d="M31.7,6.1c0,0,0.4,0.7,1.3,0.7c0.9,0,1.1-0.7,1.1-0.7"/>
					<g>
						<path class="st7" d="M31.9,4.2c0,0,0.4,0.5,1,0.3c0.6-0.1,0.9-0.8,0.9-0.8"/>
						<circle class="st8" cx="32" cy="2.7" r="0.3"/>
						<circle class="st8" cx="33.7" cy="2.7" r="0.3"/>
					</g>
				</g>
			</g>
			<path class="st1" d="M31.1,6.5c0,0-3.8,1.1-3.5,6.8"/>
			<path class="st1" d="M34.8,6.4c0,0,3.8,1.1,3.5,6.8"/>
		</g>
		<g>
			<g>
				<g>
					<path class="st1" d="M42.9,22.5c0,0-0.1-3.8-0.2-8.7"/>
					<path class="st1" d="M45.7,22.6c0,0,0-4.2-0.2-8.7"/>
					<path class="st2" d="M42.8,6.1c-0.5,0.8-1.2,1.2-1.7,3.4c-0.2,0.9-0.3,1.7,0,3c0.1,0.5,1.2,1.3,2.3,1.5c0.6,0.1,1.3,0,2.3-0.1
						c0.4-0.1,1.8-0.4,1.9-1.4c0.1-0.8,0.4-1.7,0-3c-0.3-1.1-0.6-1.6-2-3.5C44.3,4,44.4,4,44.4,4S43.2,5.3,42.8,6.1"/>
					<path class="st3" d="M46.7,7.9C46.5,7.4,46.2,7,46,6.6c-0.1-0.2-0.3-0.6-0.5-0.7c0,0-0.1-0.1-0.2-0.1c0.1,0,0.1-0.1,0.2-0.1
						c0.1,0,0.1-0.1,0.2-0.1c-0.4,0.1-0.9,0.2-1.3,0.5c0.1,0,0.1,0,0.2,0c-0.1,0.1-0.2,0.3-0.2,0.5c0,0.5,0.3,0.9,0.5,1.3
						c0.4,0.7,0.7,1.3,0.8,2.1c0.1,0.7,0,1.4-0.1,2.1c-0.1,0.5-0.6,0.9-0.7,1.4c-0.1,0.5,0.3,0.6,0.8,0.5c0.1,0,0.2,0,0.3-0.1
						c0.1,0,0.2-0.1,0.3-0.1c0.8-0.4,1.1-1.2,1.2-2.1C47.6,10.3,47.3,9.1,46.7,7.9"/>
					<path class="st4" d="M42.7,6.1c-0.5,0.8-1.2,1.2-1.7,3.4c-0.2,0.9-0.3,1.7,0,3c0.1,0.5,1.2,1.3,2.3,1.5c0.6,0.1,1.3,0,2.3-0.1
						c0.4-0.1,1.8-0.4,1.9-1.4c0.1-0.8,0.4-1.7,0-3c-0.3-1.1-0.6-1.6-2-3.5C44.2,4,44.3,4,44.3,4S43.1,5.3,42.7,6.1z"/>
					<path class="st5" d="M46.9,3.1c0,1.5-1.2,2.7-2.7,2.7c-1.5,0-2.8-1.2-2.8-2.7c0-1.5,1.2-2.7,2.8-2.7
						C45.7,0.3,46.9,1.5,46.9,3.1"/>
					<path class="st6" d="M44.5,5.8c0.3-0.1,0.5-0.2,0.8-0.3c0,0,0,0,0,0c0.1,0,0.1-0.1,0.2-0.1c0.8-0.4,1.7-1.4,1.2-2.3
						c-0.5-1-1.4,0.4-1.7,0.7c-0.3,0.4-0.8,0.6-1.3,0.6c-0.1-0.1-0.2,0-0.3,0c-0.6,0-1.1-0.3-1.4-0.9c-0.1-0.2-0.4-0.1-0.5,0.1
						C41.3,3.6,41,3.8,41.2,4c0.1,0.1,0.1,0.2,0.2,0.3c0,0.2,0.2,0.4,0.4,0.6c0.1,0,0.1,0.1,0.2,0.1C42,4.9,42,5,42,5
						C42.8,5.6,43.7,5.9,44.5,5.8C44.5,5.7,44.5,5.7,44.5,5.8"/>
					<circle class="st4" cx="44.1" cy="3.1" r="2.7"/>
					<path class="st1" d="M42.9,6.1c0,0,0.4,0.7,1.3,0.7c0.9,0,1.1-0.7,1.1-0.7"/>
					<g>
						<path class="st7" d="M43.1,4.2c0,0,0.4,0.5,1,0.3C44.7,4.4,45,3.7,45,3.7"/>
						<circle class="st8" cx="43.2" cy="2.7" r="0.3"/>
						<circle class="st8" cx="44.9" cy="2.7" r="0.3"/>
					</g>
				</g>
			</g>
			<path class="st1" d="M42.3,6.5c0,0-3.8,1.1-3.5,6.8"/>
			<path class="st1" d="M46,6.4c0,0,3.8,1.1,3.5,6.8"/>
		</g>
		<g>
			<g>
				<g>
					<path class="st1" d="M54.1,22.5c0,0-0.1-3.8-0.2-8.7"/>
					<path class="st1" d="M56.9,22.6c0,0,0-4.2-0.2-8.7"/>
					<path class="st2" d="M53.9,6.1c-0.5,0.8-1.2,1.2-1.7,3.4c-0.2,0.9-0.3,1.7,0,3c0.1,0.5,1.2,1.3,2.3,1.5c0.6,0.1,1.3,0,2.3-0.1
						c0.4-0.1,1.8-0.4,1.9-1.4c0.1-0.8,0.4-1.7,0-3c-0.3-1.1-0.6-1.6-2-3.5C55.5,4,55.6,4,55.6,4S54.4,5.3,53.9,6.1"/>
					<path class="st3" d="M57.9,7.9c-0.2-0.5-0.5-0.9-0.7-1.3C57.1,6.3,57,6,56.7,5.9c0,0-0.1-0.1-0.2-0.1c0.1,0,0.1-0.1,0.2-0.1
						c0.1,0,0.1-0.1,0.2-0.1c-0.4,0.1-0.9,0.2-1.3,0.5c0.1,0,0.1,0,0.2,0c-0.1,0.1-0.2,0.3-0.2,0.5c0,0.5,0.3,0.9,0.5,1.3
						c0.4,0.7,0.7,1.3,0.8,2.1c0.1,0.7,0,1.4-0.1,2.1c-0.1,0.5-0.6,0.9-0.7,1.4c-0.1,0.5,0.3,0.6,0.8,0.5c0.1,0,0.2,0,0.3-0.1
						c0.1,0,0.2-0.1,0.3-0.1c0.8-0.4,1.1-1.2,1.2-2.1C58.8,10.3,58.4,9.1,57.9,7.9"/>
					<path class="st4" d="M53.8,6.1c-0.5,0.8-1.2,1.2-1.7,3.4c-0.2,0.9-0.3,1.7,0,3c0.1,0.5,1.2,1.3,2.3,1.5c0.6,0.1,1.3,0,2.3-0.1
						c0.4-0.1,1.8-0.4,1.9-1.4c0.1-0.8,0.4-1.7,0-3c-0.3-1.1-0.6-1.6-2-3.5C55.4,4,55.5,4,55.5,4S54.3,5.3,53.8,6.1z"/>
					<path class="st5" d="M58.1,3.1c0,1.5-1.2,2.7-2.7,2.7c-1.5,0-2.8-1.2-2.8-2.7c0-1.5,1.2-2.7,2.8-2.7
						C56.9,0.3,58.1,1.5,58.1,3.1"/>
					<path class="st6" d="M55.7,5.8c0.3-0.1,0.5-0.2,0.8-0.3c0,0,0,0,0,0c0.1,0,0.1-0.1,0.2-0.1c0.8-0.4,1.7-1.4,1.2-2.3
						c-0.5-1-1.4,0.4-1.7,0.7c-0.3,0.4-0.8,0.6-1.3,0.6c-0.1-0.1-0.2,0-0.3,0c-0.6,0-1.1-0.3-1.4-0.9c-0.1-0.2-0.4-0.1-0.5,0.1
						c-0.2-0.1-0.5,0.1-0.3,0.3c0.1,0.1,0.1,0.2,0.2,0.3c0,0.2,0.2,0.4,0.4,0.6c0.1,0,0.1,0.1,0.2,0.1c0,0.1,0,0.1,0.1,0.1
						C54,5.6,54.9,5.9,55.7,5.8C55.7,5.7,55.7,5.7,55.7,5.8"/>
					<circle class="st4" cx="55.2" cy="3.1" r="2.7"/>
					<path class="st1" d="M54,6.1c0,0,0.4,0.7,1.3,0.7c0.9,0,1.1-0.7,1.1-0.7"/>
					<g>
						<path class="st7" d="M54.3,4.2c0,0,0.4,0.5,1,0.3c0.6-0.1,0.9-0.8,0.9-0.8"/>
						<circle class="st8" cx="54.4" cy="2.7" r="0.3"/>
						<circle class="st8" cx="56" cy="2.7" r="0.3"/>
					</g>
				</g>
			</g>
			<path class="st1" d="M53.5,6.5c0,0-3.8,1.1-3.5,6.8"/>
			<path class="st1" d="M57.1,6.4c0,0,3.8,1.1,3.5,6.8"/>
		</g>
	</g>
	<g>
		<g>
			<g>
				<g>
					<path class="st1" d="M9.3,44.9c0,0-0.1-3.8-0.2-8.7"/>
					<path class="st1" d="M12.2,45c0,0,0-4.2-0.2-8.7"/>
					<path class="st2" d="M9.2,28.5c-0.5,0.8-1.2,1.2-1.7,3.4c-0.2,0.9-0.3,1.7,0,3c0.1,0.5,1.2,1.3,2.3,1.5c0.6,0.1,1.3,0,2.3-0.1
						c0.4-0.1,1.8-0.4,1.9-1.4c0.1-0.8,0.4-1.7,0-3c-0.3-1.1-0.6-1.6-2-3.5c-1.3-1.9-1.2-1.9-1.2-1.9S9.7,27.6,9.2,28.5"/>
					<path class="st3" d="M13.2,30.3c-0.2-0.5-0.5-0.9-0.7-1.3c-0.1-0.2-0.3-0.6-0.5-0.7c0,0-0.1-0.1-0.2-0.1c0.1,0,0.1-0.1,0.2-0.1
						c0.1,0,0.1-0.1,0.2-0.1c-0.4,0.1-0.9,0.2-1.3,0.5c0.1,0,0.1,0,0.2,0c-0.1,0.1-0.2,0.3-0.2,0.5c0,0.5,0.3,0.9,0.5,1.3
						c0.4,0.7,0.7,1.3,0.8,2.1c0.1,0.7,0,1.4-0.1,2.1c-0.1,0.5-0.6,0.9-0.7,1.4c-0.1,0.5,0.3,0.6,0.8,0.5c0.1,0,0.2,0,0.3-0.1
						c0.1,0,0.2-0.1,0.3-0.1c0.8-0.4,1.1-1.2,1.2-2.1C14,32.7,13.7,31.4,13.2,30.3"/>
					<path class="st4" d="M9.1,28.5c-0.5,0.8-1.2,1.2-1.7,3.4c-0.2,0.9-0.3,1.7,0,3c0.1,0.5,1.2,1.3,2.3,1.5c0.6,0.1,1.3,0,2.3-0.1
						c0.4-0.1,1.8-0.4,1.9-1.4c0.1-0.8,0.4-1.7,0-3c-0.3-1.1-0.6-1.6-2-3.5c-1.3-1.9-1.2-1.9-1.2-1.9S9.6,27.6,9.1,28.5z"/>
					<path class="st5" d="M13.4,25.4c0,1.5-1.2,2.7-2.7,2.7c-1.5,0-2.7-1.2-2.7-2.7c0-1.5,1.2-2.7,2.7-2.7
						C12.1,22.7,13.4,23.9,13.4,25.4"/>
					<path class="st6" d="M10.9,28.1c0.3-0.1,0.5-0.2,0.8-0.3c0,0,0,0,0,0c0.1,0,0.1-0.1,0.2-0.1c0.8-0.4,1.7-1.4,1.2-2.3
						c-0.5-1-1.4,0.4-1.7,0.7c-0.3,0.4-0.8,0.6-1.3,0.6c-0.1-0.1-0.2,0-0.3,0c-0.6,0-1.1-0.3-1.4-0.9C8.3,25.7,8,25.8,8,26
						c-0.2-0.1-0.5,0.1-0.3,0.3c0.1,0.1,0.1,0.2,0.2,0.3c0,0.2,0.2,0.4,0.4,0.6c0.1,0,0.1,0.1,0.2,0.1c0,0.1,0,0.1,0.1,0.1
						C9.2,28,10.1,28.2,10.9,28.1C11,28.1,11,28.1,10.9,28.1"/>
					<circle class="st4" cx="10.5" cy="25.4" r="2.7"/>
					<path class="st1" d="M9.3,28.5c0,0,0.4,0.7,1.3,0.7c0.9,0,1.1-0.7,1.1-0.7"/>
					<g>
						<path class="st7" d="M9.5,26.6c0,0,0.4,0.5,1,0.3c0.6-0.1,0.9-0.8,0.9-0.8"/>
						<circle class="st8" cx="9.7" cy="25.1" r="0.3"/>
						<circle class="st8" cx="11.3" cy="25.1" r="0.3"/>
					</g>
				</g>
			</g>
			<path class="st1" d="M8.7,28.9c0,0-3.8,1.1-3.5,6.8"/>
			<path class="st1" d="M12.4,28.7c0,0,3.8,1.1,3.5,6.8"/>
		</g>
		<g>
			<g>
				<g>
					<path class="st1" d="M20.5,44.9c0,0-0.1-3.8-0.2-8.7"/>
					<path class="st1" d="M23.4,45c0,0,0-4.2-0.2-8.7"/>
					<path class="st2" d="M20.4,28.5c-0.5,0.8-1.2,1.2-1.7,3.4c-0.2,0.9-0.3,1.7,0,3c0.1,0.5,1.2,1.3,2.3,1.5c0.6,0.1,1.3,0,2.3-0.1
						c0.4-0.1,1.8-0.4,1.9-1.4c0.1-0.8,0.4-1.7,0-3c-0.3-1.1-0.6-1.6-2-3.5c-1.3-1.9-1.2-1.9-1.2-1.9S20.9,27.6,20.4,28.5"/>
					<path class="st3" d="M24.4,30.3c-0.2-0.5-0.5-0.9-0.7-1.3c-0.1-0.2-0.3-0.6-0.5-0.7c0,0-0.1-0.1-0.2-0.1c0.1,0,0.1-0.1,0.2-0.1
						c0.1,0,0.1-0.1,0.2-0.1c-0.4,0.1-0.9,0.2-1.3,0.5c0.1,0,0.1,0,0.2,0c-0.1,0.1-0.2,0.3-0.2,0.5c0,0.5,0.3,0.9,0.5,1.3
						c0.4,0.7,0.7,1.3,0.8,2.1c0.1,0.7,0,1.4-0.1,2.1c-0.1,0.5-0.6,0.9-0.7,1.4c-0.1,0.5,0.3,0.6,0.8,0.5c0.1,0,0.2,0,0.3-0.1
						c0.1,0,0.2-0.1,0.3-0.1c0.8-0.4,1.1-1.2,1.2-2.1C25.2,32.7,24.9,31.4,24.4,30.3"/>
					<path class="st4" d="M20.3,28.5c-0.5,0.8-1.2,1.2-1.7,3.4c-0.2,0.9-0.3,1.7,0,3c0.1,0.5,1.2,1.3,2.3,1.5c0.6,0.1,1.3,0,2.3-0.1
						c0.4-0.1,1.8-0.4,1.9-1.4c0.1-0.8,0.4-1.7,0-3c-0.3-1.1-0.6-1.6-2-3.5c-1.3-1.9-1.2-1.9-1.2-1.9S20.8,27.6,20.3,28.5z"/>
					<path class="st5" d="M24.5,25.4c0,1.5-1.2,2.7-2.7,2.7c-1.5,0-2.8-1.2-2.8-2.7c0-1.5,1.2-2.7,2.8-2.7
						C23.3,22.7,24.5,23.9,24.5,25.4"/>
					<path class="st6" d="M22.1,28.1c0.3-0.1,0.5-0.2,0.8-0.3c0,0,0,0,0,0c0.1,0,0.1-0.1,0.2-0.1c0.8-0.4,1.7-1.4,1.2-2.3
						c-0.5-1-1.4,0.4-1.7,0.7c-0.3,0.4-0.8,0.6-1.3,0.6c-0.1-0.1-0.2,0-0.3,0c-0.6,0-1.1-0.3-1.4-0.9c-0.1-0.2-0.4-0.1-0.5,0.1
						c-0.2-0.1-0.5,0.1-0.3,0.3c0.1,0.1,0.1,0.2,0.2,0.3c0,0.2,0.2,0.4,0.4,0.6c0.1,0,0.1,0.1,0.2,0.1c0,0.1,0,0.1,0.1,0.1
						C20.4,28,21.3,28.2,22.1,28.1C22.2,28.1,22.1,28.1,22.1,28.1"/>
					<circle class="st4" cx="21.7" cy="25.4" r="2.7"/>
					<path class="st1" d="M20.5,28.5c0,0,0.4,0.7,1.3,0.7c0.9,0,1.1-0.7,1.1-0.7"/>
					<g>
						<path class="st7" d="M20.7,26.6c0,0,0.4,0.5,1,0.3c0.6-0.1,0.9-0.8,0.9-0.8"/>
						<circle class="st8" cx="20.8" cy="25.1" r="0.3"/>
						<circle class="st8" cx="22.5" cy="25.1" r="0.3"/>
					</g>
				</g>
			</g>
			<path class="st1" d="M19.9,28.9c0,0-3.8,1.1-3.5,6.8"/>
			<path class="st1" d="M23.6,28.7c0,0,3.8,1.1,3.5,6.8"/>
		</g>
	</g>
	<g>
		<g>
			<g>
				<g>
					<path class="st1" d="M31.7,44.9c0,0-0.1-3.8-0.2-8.7"/>
					<path class="st1" d="M34.6,45c0,0,0-4.2-0.2-8.7"/>
					<path class="st2" d="M31.6,28.5c-0.5,0.8-1.2,1.2-1.7,3.4c-0.2,0.9-0.3,1.7,0,3c0.1,0.5,1.2,1.3,2.3,1.5c0.6,0.1,1.3,0,2.3-0.1
						c0.4-0.1,1.8-0.4,1.9-1.4c0.1-0.8,0.4-1.7,0-3c-0.3-1.1-0.6-1.6-2-3.5c-1.3-1.9-1.2-1.9-1.2-1.9S32,27.6,31.6,28.5"/>
					<path class="st3" d="M35.5,30.3c-0.2-0.5-0.5-0.9-0.7-1.3c-0.1-0.2-0.3-0.6-0.5-0.7c0,0-0.1-0.1-0.2-0.1c0.1,0,0.1-0.1,0.2-0.1
						c0.1,0,0.1-0.1,0.2-0.1c-0.4,0.1-0.9,0.2-1.3,0.5c0.1,0,0.1,0,0.2,0c-0.1,0.1-0.2,0.3-0.2,0.5c0,0.5,0.3,0.9,0.5,1.3
						c0.4,0.7,0.7,1.3,0.8,2.1c0.1,0.7,0,1.4-0.1,2.1c-0.1,0.5-0.6,0.9-0.7,1.4c-0.1,0.5,0.3,0.6,0.8,0.5c0.1,0,0.2,0,0.3-0.1
						c0.1,0,0.2-0.1,0.3-0.1c0.8-0.4,1.1-1.2,1.2-2.1C36.4,32.7,36.1,31.4,35.5,30.3"/>
					<path class="st4" d="M31.5,28.5c-0.5,0.8-1.2,1.2-1.7,3.4c-0.2,0.9-0.3,1.7,0,3c0.1,0.5,1.2,1.3,2.3,1.5c0.6,0.1,1.3,0,2.3-0.1
						c0.4-0.1,1.8-0.4,1.9-1.4c0.1-0.8,0.4-1.7,0-3c-0.3-1.1-0.6-1.6-2-3.5c-1.3-1.9-1.2-1.9-1.2-1.9S31.9,27.6,31.5,28.5z"/>
					<path class="st5" d="M35.7,25.4c0,1.5-1.2,2.7-2.7,2.7c-1.5,0-2.7-1.2-2.7-2.7c0-1.5,1.2-2.7,2.7-2.7
						C34.5,22.7,35.7,23.9,35.7,25.4"/>
					<path class="st6" d="M33.3,28.1c0.3-0.1,0.5-0.2,0.8-0.3c0,0,0,0,0,0c0.1,0,0.1-0.1,0.2-0.1c0.8-0.4,1.7-1.4,1.2-2.3
						c-0.5-1-1.4,0.4-1.7,0.7c-0.3,0.4-0.8,0.6-1.3,0.6c-0.1-0.1-0.2,0-0.3,0c-0.6,0-1.1-0.3-1.4-0.9c-0.1-0.2-0.4-0.1-0.5,0.1
						c-0.2-0.1-0.5,0.1-0.3,0.3c0.1,0.1,0.1,0.2,0.2,0.3c0,0.2,0.2,0.4,0.4,0.6c0.1,0,0.1,0.1,0.2,0.1c0,0.1,0,0.1,0.1,0.1
						C31.6,28,32.5,28.2,33.3,28.1C33.3,28.1,33.3,28.1,33.3,28.1"/>
					<circle class="st4" cx="32.9" cy="25.4" r="2.7"/>
					<path class="st1" d="M31.7,28.5c0,0,0.4,0.7,1.3,0.7c0.9,0,1.1-0.7,1.1-0.7"/>
					<g>
						<path class="st7" d="M31.9,26.6c0,0,0.4,0.5,1,0.3c0.6-0.1,0.9-0.8,0.9-0.8"/>
						<circle class="st8" cx="32" cy="25.1" r="0.3"/>
						<circle class="st8" cx="33.7" cy="25.1" r="0.3"/>
					</g>
				</g>
			</g>
			<path class="st1" d="M31.1,28.9c0,0-3.8,1.1-3.5,6.8"/>
			<path class="st1" d="M34.8,28.7c0,0,3.8,1.1,3.5,6.8"/>
		</g>
		<g>
			<g>
				<g>
					<path class="st1" d="M42.9,44.9c0,0-0.1-3.8-0.2-8.7"/>
					<path class="st1" d="M45.7,45c0,0,0-4.2-0.2-8.7"/>
					<path class="st2" d="M42.8,28.5c-0.5,0.8-1.2,1.2-1.7,3.4c-0.2,0.9-0.3,1.7,0,3c0.1,0.5,1.2,1.3,2.3,1.5c0.6,0.1,1.3,0,2.3-0.1
						c0.4-0.1,1.8-0.4,1.9-1.4c0.1-0.8,0.4-1.7,0-3c-0.3-1.1-0.6-1.6-2-3.5c-1.3-1.9-1.2-1.9-1.2-1.9S43.2,27.6,42.8,28.5"/>
					<path class="st3" d="M46.7,30.3c-0.2-0.5-0.5-0.9-0.7-1.3c-0.1-0.2-0.3-0.6-0.5-0.7c0,0-0.1-0.1-0.2-0.1c0.1,0,0.1-0.1,0.2-0.1
						c0.1,0,0.1-0.1,0.2-0.1c-0.4,0.1-0.9,0.2-1.3,0.5c0.1,0,0.1,0,0.2,0c-0.1,0.1-0.2,0.3-0.2,0.5c0,0.5,0.3,0.9,0.5,1.3
						c0.4,0.7,0.7,1.3,0.8,2.1c0.1,0.7,0,1.4-0.1,2.1c-0.1,0.5-0.6,0.9-0.7,1.4c-0.1,0.5,0.3,0.6,0.8,0.5c0.1,0,0.2,0,0.3-0.1
						c0.1,0,0.2-0.1,0.3-0.1c0.8-0.4,1.1-1.2,1.2-2.1C47.6,32.7,47.3,31.4,46.7,30.3"/>
					<path class="st4" d="M42.7,28.5c-0.5,0.8-1.2,1.2-1.7,3.4c-0.2,0.9-0.3,1.7,0,3c0.1,0.5,1.2,1.3,2.3,1.5c0.6,0.1,1.3,0,2.3-0.1
						c0.4-0.1,1.8-0.4,1.9-1.4c0.1-0.8,0.4-1.7,0-3c-0.3-1.1-0.6-1.6-2-3.5c-1.3-1.9-1.2-1.9-1.2-1.9S43.1,27.6,42.7,28.5z"/>
					<path class="st5" d="M46.9,25.4c0,1.5-1.2,2.7-2.7,2.7c-1.5,0-2.8-1.2-2.8-2.7c0-1.5,1.2-2.7,2.8-2.7
						C45.7,22.7,46.9,23.9,46.9,25.4"/>
					<path class="st6" d="M44.5,28.1c0.3-0.1,0.5-0.2,0.8-0.3c0,0,0,0,0,0c0.1,0,0.1-0.1,0.2-0.1c0.8-0.4,1.7-1.4,1.2-2.3
						c-0.5-1-1.4,0.4-1.7,0.7c-0.3,0.4-0.8,0.6-1.3,0.6c-0.1-0.1-0.2,0-0.3,0c-0.6,0-1.1-0.3-1.4-0.9c-0.1-0.2-0.4-0.1-0.5,0.1
						c-0.2-0.1-0.5,0.1-0.3,0.3c0.1,0.1,0.1,0.2,0.2,0.3c0,0.2,0.2,0.4,0.4,0.6c0.1,0,0.1,0.1,0.2,0.1c0,0.1,0,0.1,0.1,0.1
						C42.8,28,43.7,28.2,44.5,28.1C44.5,28.1,44.5,28.1,44.5,28.1"/>
					<circle class="st4" cx="44.1" cy="25.4" r="2.7"/>
					<path class="st1" d="M42.9,28.5c0,0,0.4,0.7,1.3,0.7c0.9,0,1.1-0.7,1.1-0.7"/>
					<g>
						<path class="st7" d="M43.1,26.6c0,0,0.4,0.5,1,0.3c0.6-0.1,0.9-0.8,0.9-0.8"/>
						<circle class="st8" cx="43.2" cy="25.1" r="0.3"/>
						<circle class="st8" cx="44.9" cy="25.1" r="0.3"/>
					</g>
				</g>
			</g>
			<path class="st1" d="M42.3,28.9c0,0-3.8,1.1-3.5,6.8"/>
			<path class="st1" d="M46,28.7c0,0,3.8,1.1,3.5,6.8"/>
		</g>
		<g>
			<g>
				<g>
					<path class="st1" d="M54.1,44.9c0,0-0.1-3.8-0.2-8.7"/>
					<path class="st1" d="M56.9,45c0,0,0-4.2-0.2-8.7"/>
					<path class="st2" d="M53.9,28.5c-0.5,0.8-1.2,1.2-1.7,3.4c-0.2,0.9-0.3,1.7,0,3c0.1,0.5,1.2,1.3,2.3,1.5c0.6,0.1,1.3,0,2.3-0.1
						c0.4-0.1,1.8-0.4,1.9-1.4c0.1-0.8,0.4-1.7,0-3c-0.3-1.1-0.6-1.6-2-3.5c-1.3-1.9-1.2-1.9-1.2-1.9S54.4,27.6,53.9,28.5"/>
					<path class="st3" d="M57.9,30.3c-0.2-0.5-0.5-0.9-0.7-1.3c-0.1-0.2-0.3-0.6-0.5-0.7c0,0-0.1-0.1-0.2-0.1c0.1,0,0.1-0.1,0.2-0.1
						c0.1,0,0.1-0.1,0.2-0.1c-0.4,0.1-0.9,0.2-1.3,0.5c0.1,0,0.1,0,0.2,0c-0.1,0.1-0.2,0.3-0.2,0.5c0,0.5,0.3,0.9,0.5,1.3
						c0.4,0.7,0.7,1.3,0.8,2.1c0.1,0.7,0,1.4-0.1,2.1c-0.1,0.5-0.6,0.9-0.7,1.4c-0.1,0.5,0.3,0.6,0.8,0.5c0.1,0,0.2,0,0.3-0.1
						c0.1,0,0.2-0.1,0.3-0.1c0.8-0.4,1.1-1.2,1.2-2.1C58.8,32.7,58.4,31.4,57.9,30.3"/>
					<path class="st4" d="M53.8,28.5c-0.5,0.8-1.2,1.2-1.7,3.4c-0.2,0.9-0.3,1.7,0,3c0.1,0.5,1.2,1.3,2.3,1.5c0.6,0.1,1.3,0,2.3-0.1
						c0.4-0.1,1.8-0.4,1.9-1.4c0.1-0.8,0.4-1.7,0-3c-0.3-1.1-0.6-1.6-2-3.5c-1.3-1.9-1.2-1.9-1.2-1.9S54.3,27.6,53.8,28.5z"/>
					<path class="st5" d="M58.1,25.4c0,1.5-1.2,2.7-2.7,2.7c-1.5,0-2.8-1.2-2.8-2.7c0-1.5,1.2-2.7,2.8-2.7
						C56.9,22.7,58.1,23.9,58.1,25.4"/>
					<path class="st6" d="M55.7,28.1c0.3-0.1,0.5-0.2,0.8-0.3c0,0,0,0,0,0c0.1,0,0.1-0.1,0.2-0.1c0.8-0.4,1.7-1.4,1.2-2.3
						c-0.5-1-1.4,0.4-1.7,0.7c-0.3,0.4-0.8,0.6-1.3,0.6c-0.1-0.1-0.2,0-0.3,0c-0.6,0-1.1-0.3-1.4-0.9c-0.1-0.2-0.4-0.1-0.5,0.1
						c-0.2-0.1-0.5,0.1-0.3,0.3c0.1,0.1,0.1,0.2,0.2,0.3c0,0.2,0.2,0.4,0.4,0.6c0.1,0,0.1,0.1,0.2,0.1c0,0.1,0,0.1,0.1,0.1
						C54,28,54.9,28.2,55.7,28.1C55.7,28.1,55.7,28.1,55.7,28.1"/>
					<circle class="st4" cx="55.2" cy="25.4" r="2.7"/>
					<path class="st1" d="M54,28.5c0,0,0.4,0.7,1.3,0.7c0.9,0,1.1-0.7,1.1-0.7"/>
					<g>
						<path class="st7" d="M54.3,26.6c0,0,0.4,0.5,1,0.3c0.6-0.1,0.9-0.8,0.9-0.8"/>
						<circle class="st8" cx="54.4" cy="25.1" r="0.3"/>
						<circle class="st8" cx="56" cy="25.1" r="0.3"/>
					</g>
				</g>
			</g>
			<path class="st1" d="M53.5,28.9c0,0-3.8,1.1-3.5,6.8"/>
			<path class="st1" d="M57.1,28.7c0,0,3.8,1.1,3.5,6.8"/>
		</g>
	</g>
</g>
</svg>
