<!-- Generator: Adobe Illustrator 19.0.0, SVG Export Plug-In  -->
<svg version="1.1"
	 xmlns="http://www.w3.org/2000/svg" xmlns:xlink="http://www.w3.org/1999/xlink" xmlns:a="http://ns.adobe.com/AdobeSVGViewerExtensions/3.0/"
	 x="0px" y="0px" width="64.3px" height="41.6px" viewBox="0 0 64.3 41.6" style="enable-background:new 0 0 64.3 41.6;"
	 xml:space="preserve">
<style type="text/css">
	.st0{fill:#D7D3E8;}
	.st1{fill:#6081C4;}
	.st2{fill:#FFFFFF;}
	.st3{fill:#2797CF;}
</style>
<defs>
</defs>
<g>
	<g>
		<ellipse transform="matrix(0.9824 -0.1868 0.1868 0.9824 -3.3237 6.374)" class="st0" cx="32.2" cy="20.8" rx="32.5" ry="20.3"/>
	</g>
	<g>
		<g>
			<circle id="XMLID_9_" class="st1" cx="15.9" cy="21.7" r="14.5"/>
			<path id="XMLID_8_" class="st2" d="M17.1,18.3v-1.4c0-0.7,0.4-0.8,0.8-0.8c0.3,0,1.9,0,1.9,0v-2.9l-2.7,0c-2.9,0-3.6,2.2-3.6,3.6
				v1.5h-1.7v2.1v1.4h1.7c0,3.9,0,8.6,0,8.6H17c0,0,0-4.7,0-8.6h2.5l0.1-1.3l0.2-2.1H17.1z"/>
		</g>
		<g>
			<circle id="XMLID_4_" class="st3" cx="48.5" cy="21.7" r="14.5"/>
			<g>
				<polygon id="XMLID_3_" class="st2" points="40.2,21.1 40.2,29.5 44.2,29.5 44.2,20.4 44.2,18.1 40.2,18.1 				"/>
				<circle id="XMLID_2_" class="st2" cx="42.2" cy="14.4" r="2"/>
				<path id="XMLID_1_" class="st2" d="M57.3,21.6c-0.3-2.2-1.3-3.5-4.2-3.5c-1.7,0-2.9,0.6-3.4,1.5h0v-1.5h-3.2v2.2v9.2h3.3v-5.7
					c0-1.5,0.3-2.9,2.1-2.9c1.8,0,2,1.7,2,3v5.6h3.4v-6.3h0C57.4,22.7,57.4,22.1,57.3,21.6z"/>
			</g>
		</g>
	</g>
</g>
</svg>
