<?xml version="1.0" encoding="utf-8"?>
<!-- Generator: Adobe Illustrator 19.0.0, SVG Export Plug-In . SVG Version: 6.00 Build 0)  -->
<svg version="1.1" id="Capa_1" xmlns="http://www.w3.org/2000/svg" xmlns:xlink="http://www.w3.org/1999/xlink" x="0px" y="0px"
	 viewBox="0 0 28.7 28.8" style="enable-background:new 0 0 28.7 28.8;" xml:space="preserve">
<style type="text/css">
	.st0{fill:#E0DFE6;}
	.st1{fill:#224E6B;}
	.st2{fill:#F6A960;}
</style>
<path id="XMLID_34_" class="st0" d="M24.2,13.3c-1.1-0.1-2.5,0.5-2.7,1.8c-0.2,1.2-0.4,2.4-0.7,3.6c-1-0.3-2-0.3-3.1,0.4
	c-0.5,0.3-1.8,0.7-1.5,1c-0.6-0.6-1.1-1.9-1.5-2.5c-1.6-2.4-4.9-2.5-6.5,0c-0.9,1.5-3.6,1.6-5.1,2.4c-1.2,0.6-1,2.3,0,2.9
	c1.8,1.2,3.8,1.2,5.8,0.9c3,5.3,10.5,7.1,14.2,0.7c0.1-0.2,0.2-0.4,0.3-0.6c1.6,0,2.8-1.3,2.9-3c0.2-1.7,0.1-3.5,0-5.2
	C26.3,14.5,25.5,13.4,24.2,13.3z"/>
<path id="XMLID_19_" class="st1" d="M26.8,10.5c-2.5-1.3-4.3-2.4-6.3-3.6c-0.1-0.3-0.1-0.7-0.2-1c-0.2-1.3-0.4-2.7-0.5-4.1
	c-0.1-0.6-0.5-1.1-1-1.3c-0.6-0.2-1.2,0-1.6,0.4c-0.5,0.5-0.9,1.1-1.4,1.6c-0.8,0.9-1.6,1.8-2.4,2.7C12.2,5,11.1,4.9,10,4.7
	C9.1,4.6,8.1,4.4,7,4.3C6.4,4.2,5.8,4.5,5.5,5.1C5.2,5.7,5.3,6.3,5.7,6.8c0.7,0.8,1.2,1.6,1.7,2.5c0.5,0.8,0.9,1.6,1.6,2.3
	c-0.6,1-1.2,2.1-1.8,3.1c-0.4,0.7-0.8,1.5-1.2,2.2c-0.3,0.5-0.3,1.1,0.1,1.6C6.4,19,7,19.2,7.6,19.1c1.1-0.2,2.1-0.5,3.1-0.7
	c1-0.3,2-0.6,3.1-0.7c0.6,1,1.3,1.9,2,2.7c0.7,0.8,1.3,1.6,1.8,2.5c0.3,0.4,0.8,0.7,1.3,0.7c0.1,0,0.2,0,0.3,0
	c0.6-0.1,1.1-0.6,1.2-1.2c0.1-0.7,0.2-1.4,0.3-2.1c0.2-1.8,0.4-3.3,0.9-5c1.7-0.6,3.5-1.3,5.2-1.9c0.6-0.2,0.9-0.7,1-1.3
	C27.6,11.3,27.3,10.8,26.8,10.5z M19.7,12.6c-0.4,0.2-0.8,0.5-0.9,1c-0.5,1.7-0.8,3.1-1,4.6c-0.7-0.9-1.4-1.8-2-2.9
	c-0.3-0.5-0.8-0.8-1.3-0.8h-0.1c-1.5,0.1-2.8,0.5-4,0.8c0.6-1.1,1.2-2.1,1.8-3.2c0.3-0.6,0.3-1.3-0.2-1.8c-0.8-0.8-1.3-1.7-1.9-2.6
	c1.2,0.2,2.4,0.4,3.9,0.5c0.5,0.1,1-0.1,1.3-0.5c0.7-0.8,1.4-1.6,2.1-2.4c0,0.3,0.1,0.6,0.1,1c0.1,0.6,0.2,1.1,0.3,1.7
	c0.1,0.4,0.3,0.8,0.7,1.1c1.4,0.9,2.7,1.7,4.1,2.5C21.6,11.9,20.6,12.2,19.7,12.6z"/>
<path id="XMLID_16_" class="st2" d="M18.3,10.1c-0.3-0.3-0.6-0.6-0.8-0.8c0.5-0.9-0.8-2-1.6-1.2c-2,2.1-3,4.9-5,7
	c-0.7,0.7,0,2,1,1.7c1.1-0.4,2.1-0.7,3.1-1.2c0.2-0.1,0.4-0.3,0.6-0.4v0.7c0,1.3,2,1.3,2,0v-4C18.4,11.8,19,10.8,18.3,10.1z
	 M14.6,13.3c0.3-0.5,0.7-1.1,1-1.6v0.6C15.3,12.7,15,13,14.6,13.3z"/>
</svg>
