<?xml version="1.0" encoding="utf-8"?>
<!-- Generator: Adobe Illustrator 19.0.0, SVG Export Plug-In . SVG Version: 6.00 Build 0)  -->
<svg version="1.1" id="Capa_1" xmlns="http://www.w3.org/2000/svg" xmlns:xlink="http://www.w3.org/1999/xlink" x="0px" y="0px"
	 viewBox="0 0 28.7 28.8" style="enable-background:new 0 0 28.7 28.8;" xml:space="preserve">
<style type="text/css">
	.st0{fill:#224E6B;}
	.st1{fill:#7CCCEA;}
</style>
<path id="XMLID_17_" class="st0" d="M5,18.6c-0.3,0.5-0.3,1.1,0.1,1.6c0.3,0.5,0.9,0.7,1.5,0.6c1.1-0.2,2.1-0.5,3.1-0.7
	c1-0.3,2-0.6,3.1-0.7c0.6,1,1.3,1.9,2,2.7s1.3,1.6,1.8,2.5c0.3,0.4,0.8,0.7,1.3,0.7c0.1,0,0.2,0,0.3,0c0.6-0.1,1.1-0.6,1.2-1.2
	c0.1-0.7,0.2-1.4,0.3-2.1c0.2-1.8,0.4-3.3,0.9-5c1.7-0.6,3.5-1.3,5.2-1.9c0.6-0.2,0.9-0.7,1-1.3c0-0.6-0.3-1.1-0.8-1.4
	c-2.5-1.3-4.3-2.4-6.3-3.6c-0.1-0.3-0.1-0.7-0.2-1c-0.2-1.3-0.4-2.7-0.5-4.1c-0.1-0.6-0.5-1.1-1-1.3c-0.6-0.2-1.2,0-1.6,0.4
	c-0.5,0.5-0.9,1.1-1.4,1.6c-0.8,0.9-1.6,1.8-2.4,2.7c-1.2-0.2-2.3-0.3-3.4-0.5c-0.9-0.1-1.9-0.3-3-0.4C5.6,6.1,5,6.4,4.7,7
	S4.5,8.2,4.9,8.7c0.7,0.8,1.2,1.6,1.7,2.5c0.5,0.8,0.9,1.6,1.6,2.3c-0.6,1-1.2,2.1-1.8,3.1C5.8,17.1,5.4,17.9,5,18.6z M12.9,10
	c0.5,0.1,1-0.1,1.3-0.5c0.7-0.8,1.4-1.6,2.1-2.4c0,0.3,0.1,0.6,0.1,1c0.1,0.6,0.2,1.1,0.3,1.7c0.1,0.4,0.3,0.8,0.7,1.1
	c1.4,0.9,2.7,1.7,4.1,2.5c-0.9,0.3-1.9,0.7-2.8,1c-0.4,0.2-0.8,0.5-0.9,1c-0.5,1.7-0.8,3.1-1,4.6c-0.7-0.9-1.4-1.8-2-2.9
	c-0.3-0.5-0.8-0.8-1.3-0.8h-0.1c-1.5,0.1-2.8,0.5-4,0.8c0.6-1.1,1.2-2.1,1.8-3.2c0.3-0.6,0.3-1.3-0.2-1.8c-0.8-0.8-1.3-1.7-1.9-2.6
	C10.3,9.7,11.5,9.9,12.9,10z"/>
<path id="XMLID_16_" class="st1" d="M15.8,13.1H15c0-0.1,0.1-0.2,0.1-0.3l0,0c1,0.8,2.4-0.6,1.4-1.4c-0.3-0.2-0.5-0.4-0.8-0.6
	c0.1-0.2,0.1-0.5,0.1-0.7c0-0.6-0.7-1.2-1.3-1c-0.9,0.3-2.3,0.8-2,2c0.1,0.4,0.3,0.6,0.6,0.8c-0.3,0.7-0.3,1.5-0.4,2.2
	c0,0.5,0.5,1,1,1H14c-0.2,0.3-0.4,0.5-0.6,0.7c-0.4,0.5-0.9,0.9-1.2,1.4c-0.6,1,0.7,1.9,1.6,1.2l0.1-0.1c0,0,0,0,0.1-0.1
	s0.2-0.2,0.4-0.4c0.1-0.1,0.2-0.2,0.2-0.4c0.2-0.3,0.5-0.5,0.7-0.8c0.6-0.7,1.2-1.5,1.4-2.5C16.9,13.6,16.3,13.1,15.8,13.1z"/>
</svg>
