<?xml version="1.0" encoding="utf-8"?>
<!-- Generator: Adobe Illustrator 19.0.0, SVG Export Plug-In . SVG Version: 6.00 Build 0)  -->
<svg version="1.1" id="Capa_1" xmlns="http://www.w3.org/2000/svg" xmlns:xlink="http://www.w3.org/1999/xlink" x="0px" y="0px"
	 viewBox="0 0 51.8 88" style="enable-background:new 0 0 51.8 88;" xml:space="preserve">
<style type="text/css">
	.st0{fill:#E0DFE6;}
	.st1{fill:#224E6B;}
	.st2{fill:none;stroke:#224E6B;stroke-width:2;stroke-linecap:round;stroke-linejoin:round;stroke-miterlimit:10;}
</style>
<path id="XMLID_41_" class="st0" d="M5.6,58.6c0,0,1-5.7,6.2-8s7-12.2,7-12.2S22,29.9,27,28.1s9.3-13.4,9.4-15.3s-1.9,0-7.3,8.8
	S5.6,51.6,2.6,55.8S5.6,58.6,5.6,58.6z"/>
<path id="XMLID_40_" class="st0" d="M5.6,83.5c0,0-0.5-13.3,2.3-21.5s6.1-4.8,13.3-19S28.4,33,31.2,28s6.1-15,7.2-13.5
	S32.6,33,23.4,48.9s-5.2,5.3-9.7,20.1S7.8,83.5,5.6,83.5z"/>
<path id="XMLID_15_" class="st0" d="M42.2,21.6c0,0-4.8,12.6-6.6,16s-5.1,7.9-4.8,11.4s-4.8,9.1-5,13.6S30.3,71.7,24,76
	c-2.3,1.6-3.3,7.6-6,9.5c0,0-6.4,6.6,0.3-9c3.4-8.1,4.6-13.8,5-17.4c0.5-4.9,1.7-9.8,3.6-14.4c2.2-5.3,5-11.4,7.2-13.9
	C38,26.4,40.7,11.5,42.2,21.6z"/>
<path id="XMLID_36_" class="st1" d="M38.6,12.4c0.3-0.5,0.8-0.7,1.3-0.4c0.5,0.3,0.7,0.8,0.5,1.3c-0.1,0.1-0.2,0.3-0.4,0.7
	c-0.3,0.4-0.5,0.8-0.8,1.2l1.1,3.5c0.1,0.4,0.5,0.7,0.8,0.7h0.1c0.3,0,0.7-0.2,0.8-0.5l2.4-4.2l5.4,0.3c0.4,0,0.7-0.2,0.9-0.5
	c0.2-0.3,0.1-0.8-0.1-1L47.2,9l1.3-5.4c0.1-0.4-0.1-0.7-0.3-1c-0.3-0.3-0.7-0.3-1-0.1l-4,1.8l-4-2.9c-0.3-0.2-0.7-0.3-1-0.1
	s-0.5,0.5-0.5,0.9L38,7.6L33.3,10c-0.3,0.2-0.6,0.5-0.5,0.9c0,0.4,0.3,0.7,0.7,0.8l4.4,1.5c0.1-0.2,0.2-0.3,0.3-0.5
	C38.4,12.6,38.5,12.4,38.6,12.4z M39.5,9.1c0.3-0.2,0.6-0.5,0.5-0.9l-0.3-3.9l2.7,2c0.3,0.2,0.7,0.3,1,0.1l2.7-1.2l-0.9,3.9
	c-0.1,0.3,0,0.6,0.2,0.8l2.3,2.8L44,12.6c-0.4,0-0.7,0.2-0.9,0.5L41.5,16l-1-3.3c-0.1-0.3-0.3-0.5-0.6-0.7l-3.3-1.2L39.5,9.1z"/>
<path id="XMLID_35_" class="st2" d="M39.2,12.8c-6.7,13.5-14.3,26.5-22.7,39.1C10,61.6,2.8,72,3.3,83.5"/>
<path id="XMLID_34_" class="st2" d="M39.2,21.6C27.4,41.6,19.1,63.8,14.9,86.7"/>
<path id="XMLID_33_" class="st2" d="M33.6,14.2C24.5,29.8,13.6,44.3,1.1,57.4"/>
</svg>
