<?xml version="1.0" encoding="utf-8"?>
<!-- Generator: Adobe Illustrator 19.0.0, SVG Export Plug-In . SVG Version: 6.00 Build 0)  -->
<svg version="1.1" id="Capa_1" xmlns="http://www.w3.org/2000/svg" xmlns:xlink="http://www.w3.org/1999/xlink" x="0px" y="0px"
	 viewBox="0 0 28.7 28.8" style="enable-background:new 0 0 28.7 28.8;" xml:space="preserve">
<style type="text/css">
	.st0{fill:#E0DFE6;}
	.st1{fill:#224E6B;}
	.st2{fill:#7CCCEA;}
</style>
<path id="XMLID_19_" class="st0" d="M23.5,13.2c-1.1-0.1-2.5,0.5-2.7,1.8c-0.2,1.2-0.4,2.4-0.7,3.6c-1-0.3-2-0.3-3.1,0.4
	c-0.5,0.3-1.8,0.7-1.5,1c-0.6-0.6-1.1-1.9-1.5-2.5c-1.6-2.4-4.9-2.5-6.5,0c-0.9,1.5-3.6,1.6-5.1,2.4c-1.2,0.6-1,2.3,0,2.9
	C4.2,24,6.2,24,8.2,23.7c3,5.3,10.5,7.1,14.2,0.7c0.1-0.2,0.2-0.4,0.3-0.6c1.6,0,2.8-1.3,2.9-3c0.2-1.7,0.1-3.5,0-5.2
	C25.6,14.4,24.8,13.4,23.5,13.2z"/>
<path id="XMLID_16_" class="st1" d="M5.2,16.6c-0.3,0.5-0.3,1.1,0.1,1.6c0.3,0.5,0.9,0.7,1.5,0.6c1.1-0.2,2.1-0.5,3.1-0.7
	c1-0.3,2-0.6,3.1-0.7c0.6,1,1.3,1.9,2,2.7c0.7,0.8,1.3,1.6,1.8,2.5c0.3,0.4,0.8,0.7,1.3,0.7c0.1,0,0.2,0,0.3,0
	c0.6-0.1,1.1-0.6,1.2-1.2c0.1-0.7,0.2-1.4,0.3-2.1c0.2-1.8,0.4-3.3,0.9-5c1.7-0.6,3.5-1.3,5.2-1.9c0.6-0.2,0.9-0.7,1-1.3
	c0-0.6-0.3-1.1-0.8-1.4c-2.5-1.3-4.3-2.4-6.3-3.6c-0.1-0.3-0.1-0.7-0.2-1c-0.2-1.3-0.4-2.7-0.5-4.1c-0.1-0.6-0.5-1.1-1-1.3
	c-0.6-0.2-1.2,0-1.6,0.4c-0.5,0.5-0.9,1.1-1.4,1.6c-0.8,0.9-1.6,1.8-2.4,2.7c-1.2-0.2-2.3-0.3-3.4-0.5c-0.9-0.1-1.9-0.3-3-0.4
	C5.8,4.1,5.2,4.4,4.9,5C4.6,5.6,4.7,6.2,5.1,6.7c0.7,0.8,1.2,1.6,1.7,2.5c0.5,0.8,0.9,1.6,1.6,2.3c-0.6,1-1.2,2.1-1.8,3.1
	C6,15.2,5.6,15.9,5.2,16.6z M13.1,8.1c0.5,0.1,1-0.1,1.3-0.5c0.7-0.8,1.4-1.6,2.1-2.4c0,0.3,0.1,0.6,0.1,1c0.1,0.6,0.2,1.1,0.3,1.7
	C17,8.3,17.2,8.7,17.6,9c1.4,0.9,2.7,1.7,4.1,2.5c-0.9,0.3-1.9,0.7-2.8,1c-0.4,0.2-0.8,0.5-0.9,1c-0.5,1.7-0.8,3.1-1,4.6
	c-0.7-0.9-1.4-1.8-2-2.9c-0.3-0.5-0.8-0.8-1.3-0.8h-0.1c-1.5,0.1-2.8,0.5-4,0.8c0.6-1.1,1.2-2.1,1.8-3.2c0.3-0.6,0.3-1.3-0.2-1.8
	c-0.8-0.8-1.3-1.7-1.9-2.6C10.5,7.7,11.7,7.9,13.1,8.1z"/>
<path id="XMLID_15_" class="st2" d="M21.1,13.4c-0.9-0.7-1.7-1.1-2.7-1.2v-0.1c0.1-2,1-3.9,1-6c0-1-1.4-1.4-1.9-0.5
	C16.9,6.8,16.3,8,15.4,9c-0.6,0.3-1.1,0.7-1.6,1.1h-2.4c-0.1,0-0.2,0-0.3,0.1c-0.2,0.1-0.4,0.2-0.5,0.4l0,0c0,0.1-0.1,0.1-0.1,0.2
	c-0.2,0.4-0.1,1,0.4,1.2l0,0c0,0,0.1,0,0.1,0.1c0,0,0.1,0,0.1,0.1c-0.1,0-0.2,0.1-0.3,0.2c-0.6,0.3-0.6,0.9-0.3,1.3l0,0
	c-0.6,1,0.8,2,1.6,1.2L14,13c0.8,0.1,1.6,0.2,2.4,0.2l0,0c0,0.5,0.5,1,1,1c0.9,0,1.5,0,2.3,0.7C20.7,15.6,22.1,14.2,21.1,13.4z"/>
</svg>
