<?xml version="1.0" encoding="utf-8"?>
<!-- Generator: Adobe Illustrator 19.0.0, SVG Export Plug-In . SVG Version: 6.00 Build 0)  -->
<svg version="1.1" id="Capa_1" xmlns="http://www.w3.org/2000/svg" xmlns:xlink="http://www.w3.org/1999/xlink" x="0px" y="0px"
	 viewBox="-459 239 304 316" style="enable-background:new -459 239 304 316;" xml:space="preserve">
<style type="text/css">
	.st0{fill:#D2D9DB;}
	.st1{fill:#FFB872;}
	.st2{fill:#87D329;}
	.st3{fill:none;stroke:#1F4D69;stroke-width:5.7192;stroke-miterlimit:10;}
	.st4{fill:none;stroke:#1F4D69;stroke-width:5.7192;stroke-linecap:round;stroke-miterlimit:10;}
</style>
<g id="Capa_1_2_">
	<g id="Capa_1_1_">
	</g>
	<g id="Capa_2">
	</g>
</g>
<path class="st0" d="M-332.9,530.4c-2.1-1.4-4-3-6-4.6c-0.2-0.6-0.6-1.2-1.1-1.7c-0.5-0.4-0.9-0.8-1.4-1.2c-0.2-0.3-0.4-0.5-0.6-0.8
	c-5.2-5.2-10.5-10.4-16-15.2c17.7-12.8,17.5-31.9,8.7-47.6c-1.4-6-4.6-11.5-10.6-15.8c-1.1-0.8-2.2-1-3.2-0.7
	c-13.5-11.2-31.5-15.9-45.9-5.7c-3,0.8-5.7,1.9-8,3.2c-4.6-4.5-9.2-9-14.1-13.1c-0.1-0.1-0.3-0.2-0.4-0.3c-0.8-0.7-1.6-1.3-2.4-1.9
	c-1.9-2.1-3.7-4.4-5.3-6.7c-2.3-3.3-6.7-2.1-8.1,0.4c-1.9,1.2-3,3.8-1.7,6.1c0.8,1.3,1.6,2.6,2.4,3.8c3.1,5.4,7.6,9.5,12.7,12.9
	c-0.1,2.5,1.9,4.5,3.6,6.2c0.8,0.8,1.9,1.2,3,1.3c0.3,0.2,0.6,0.5,0.9,0.7c0,1.4,0.7,2.8,2.1,3.7c0,0,0.1,0.1,0.2,0.2
	c0.8,1.7,3,2.7,4.8,2.4c1.3,0.2,2.7,0.5,4.1,0.4c1.7-0.1,3-1.1,3.8-2.5c1-0.1,1.9-0.4,2.6-1.3c3.5-4.1,7.9-6.7,12.7-8.1
	c2.9-0.1,5.9-0.1,8.8,0.2c4.9,0.4,10.2,1.4,14.7,3.5c6,3.9,10.4,10.1,11.1,18.2c0.3,3,2.4,4.4,4.5,4.3c-0.8,9.1-4.6,19.1-7.4,27
	c-0.7-0.5-1.6-0.8-2.6-0.8c-1.8,0.1-3.4,0.8-4.5,2c-1.6,0.9-2.6,2.7-2,4.6c0,1.8,1.2,3.4,2.8,4.1c4.1,5.1,9.1,9.3,14.1,13.5
	c0.1,0.8,0.6,1.7,1.4,2.5c1.6,1.6,3.4,3,5.1,4.3c4.2,3.6,8.3,7.2,12.8,10.4C-332.8,541.5-328.3,533.7-332.9,530.4z"/>
<path class="st0" d="M-219.9,386.1c-0.6-4.1-2.5-8.1-4.8-11.8c0-1.1-0.3-2.2-1.3-3.2c-0.9-0.9-1.9-1.9-2.8-2.8
	c-0.6-0.8-1.2-1.6-1.7-2.3c-6.8-9.5-14.5-18.3-22.5-26.8s-16.4-16.7-25.4-24.2c-6-5-12.9-11-20.6-13c-2.6-0.7-6,1.3-5.7,4.3
	c0.3,2.4,0.7,4.6,1.3,6.8c-1.9,2.2-1.7,6.4,2,7.5c0.4,0.1,0.9,0.3,1.3,0.5c5.1,9.7,13.7,17.5,22.4,24.5c2.7,3.9,5.5,7.8,8.3,11.7
	c8.9,12.2,20.1,26.9,35.4,30.7c2.7,1.6,5.6,2.8,8.6,3.7C-221.8,392.7-219.4,389.3-219.9,386.1z"/>
<path class="st0" d="M-284.3,387.3c-4.4-3.7-9.4-7.9-11.2-13.5c-2.2-6.6-2.2-12.1-8.5-16.3c-4.9-3.2-9.4,4.6-4.5,7.8
	c4.3,2.9,3.6,10.3,5.9,14.7c2.3,4.5,5.9,8.3,9.7,11.7c3,2.7,6.2,5,8.8,8c2.2,2.5,3.1,5.8,3.4,9.1c-5.8-1.7-11.4-4.1-17.2-5.7
	c-3.1-0.8-5.3,1.5-5.7,4.3c-1,7.6-1.1,15.3-2.8,22.8c-0.5,2.1,0.6,5.2,3.1,5.5c4.3,0.6,10.9,1.9,8.9,7.5c-2,5.5,6.7,7.8,8.7,2.4
	c3.3-9.1-3.3-15.2-11.1-17.6c0.8-4.9,1.2-9.8,1.6-14.6c5.9,2,11.7,4.5,18,5.4c2.9,0.4,5.6-1.2,5.7-4.3
	C-271.3,402.5-275.3,394.7-284.3,387.3z"/>
<path class="st0" d="M-403.8,399.3c0-2.4-2-4.5-4.5-4.5c-1.6,0-3.3,0.4-4.6,1.3c-1.4,1-2.5,2.3-3.3,3.9c-1.1,2.2-0.6,4.9,1.6,6.2
	c2,1.2,5,0.6,6.2-1.6c0.1-0.3,0.3-0.5,0.5-0.8C-405.6,403.5-403.8,401.7-403.8,399.3z"/>
<path class="st0" d="M-389.9,376.4c-2.1-1.2-5-0.5-6.2,1.6c-0.1,0.1-0.2,0.4-0.4,0.5l-0.1,0.1c0,0,0,0-0.1,0h-0.1
	c-0.1,0-0.1,0-0.2,0s-0.2,0-0.3,0c-2.5,0.1-4.5,2-4.5,4.5c0,2.4,2,4.6,4.5,4.5c3.7-0.1,7.1-1.9,8.9-5.2
	C-387.3,380.4-387.8,377.7-389.9,376.4z"/>
<path class="st0" d="M-368.9,358.4c-2-1.2-5-0.6-6.2,1.6c-0.2,0.3-0.4,0.6-0.6,0.9c-0.1,0-0.7,0.8-0.8,0.9c-0.1,0-0.1,0.1-0.1,0.1
	c-0.2,0.2-0.5,0.3-0.7,0.5c-0.2,0.1-0.4,0.2-0.7,0.4c0,0-0.1,0-0.1,0.1c-0.1,0-0.2,0.1-0.3,0.1c-2.3,0.8-3.8,3-3.1,5.5
	c0.6,2.2,3.2,4,5.5,3.1c3.6-1.3,6.9-3.6,8.7-7.1C-366.3,362.4-366.8,359.7-368.9,358.4z"/>
<path class="st0" d="M-349.9,340.4c-2.2-1.3-4.8-0.4-6.2,1.6c-1.5,2.2-3.6,4.2-6.3,4.9c-5.6,1.5-3.2,10.2,2.4,8.7
	c5-1.4,8.8-4.8,11.7-9.1C-346.9,344.5-347.9,341.6-349.9,340.4z"/>
<path class="st0" d="M-334.4,321.1c-1.4,1.3-2.7,2.5-4.4,3.4c-0.5,0.3-1,0.4-1.5,0.5c0,0-0.2,0-0.4,0c-0.1,0-0.2,0-0.3-0.1
	c-5.6-1.6-8,7.1-2.4,8.7c5.9,1.6,11.4-2.2,15.4-6.2C-323.9,323.4-330.3,317-334.4,321.1z"/>
<path class="st0" d="M-317.4,304.1c-1,0.9-1.9,1.6-3.1,2.2c-0.9,0.4-1.8,0.5-2.7,0.5c-5.8,0.1-5.8,9.1,0,9c4.8-0.1,8.8-2,12.2-5.3
	C-306.8,306.4-313.3,300.1-317.4,304.1z"/>
<path class="st0" d="M-293,286.1c-1.7-1.7-4.6-1.7-6.4,0c-0.3,0.3-0.6,0.5-0.9,0.8c0,0-0.2,0.1-0.3,0.2c-1.2-0.5-2.7-0.4-3.9,0.3
	c-2.1,1.2-2.9,4-1.6,6.2c1.5,2.6,4.4,3.6,7.3,2.7c2.2-0.6,4.2-2.2,5.8-3.8C-291.3,290.7-291.3,287.8-293,286.1z"/>
<path class="st0" d="M-279.3,274c-1.3-2.2-4-2.7-6.2-1.6c-0.1,0-0.2,0.1-0.2,0.1c-0.2,0.1-0.4,0.1-0.6,0.2c-0.2,0-0.5,0.1-0.6,0.1
	c-0.4,0-0.8,0-1.3,0c-2.5,0-4.5,2-4.5,4.5s2,4.5,4.5,4.5c1.2,0,2.4-0.1,3.6-0.3c1.3-0.2,2.5-0.8,3.7-1.3
	C-278.8,279.1-278.3,276-279.3,274z"/>
<path class="st0" d="M-325.8,511.3c0-2.4-2-4.6-4.5-4.5c-3.6,0.2-6.3,2.9-6.5,6.5c-0.1,2.5,2.1,4.5,4.5,4.5c1.8,0,3.2-1,4-2.5
	C-326.8,514.5-325.8,513.1-325.8,511.3z"/>
<path class="st0" d="M-305.9,493.1c-0.6-2.2-3.2-4-5.5-3.1c-4.2,1.5-7.6,5.1-9.7,9.1c-1.1,2.2-0.6,4.9,1.6,6.2c2,1.2,5,0.6,6.2-1.6
	c0.3-0.5,0.6-1.1,0.9-1.6c0-0.1,0.3-0.4,0.4-0.5c0.2-0.2,0.4-0.5,0.6-0.7c0.5-0.5,1-1,1.5-1.5c0,0,0.6-0.4,0.6-0.5
	c0.2-0.1,1.3-0.5,0.3-0.2C-306.8,497.8-305.3,495.6-305.9,493.1z"/>
<path class="st0" d="M-286.5,473.4c-4.6,2.4-8.3,6.1-11.9,9.7c-4.1,4.1,2.3,10.5,6.4,6.4c3.1-3.1,6.2-6.2,10.1-8.3
	C-276.8,478.5-281.3,470.7-286.5,473.4z"/>
<path class="st0" d="M-265.3,460c-1.3-2.2-4-2.8-6.2-1.6c-1.4,0.7-2.6,1.8-3.8,2.8c-0.3,0.2-0.6,0.5-0.9,0.7c0,0-0.1,0-0.1,0.1
	c-1.9,0.5-3.7,2.3-3.5,4.4c0.4,3.3,2.6,4.9,5.8,4.5c0.9-0.1,1.7-0.7,2.4-1.2c1-0.7,2-1.5,2.9-2.3c0.2-0.1,0.3-0.2,0.5-0.4
	c0.4-0.3,0.7-0.5,1.1-0.7C-264.8,465-264.1,462.1-265.3,460z"/>
<path class="st0" d="M-247.3,442c-1.2-2-4.1-3-6.2-1.6c-3.9,2.6-7.4,5.2-9.1,9.7c-0.8,2.3,0.9,4.9,3.1,5.5c2.5,0.7,4.7-0.8,5.5-3.1
	c-0.3,0.9,0.6-0.9,0.4-0.7c0.4-0.5,0.9-0.9,1.4-1.4c0.2-0.2,0.3-0.3,0.5-0.4c-0.2,0.2,0.7-0.5,0.7-0.5c0.6-0.5,1.3-0.9,1.9-1.3
	C-246.9,446.8-246,444.2-247.3,442z"/>
<path class="st0" d="M-229.3,425c-1.2-2-4.1-3-6.2-1.6c-3.7,2.4-7.1,5-9.6,8.6c-1.4,2-0.4,5,1.6,6.2c2.2,1.3,4.8,0.4,6.2-1.6
	c1.5-2.2,4-3.8,6.4-5.4C-228.9,429.8-228,427.2-229.3,425z"/>
<path class="st0" d="M-212.5,401.4c-4.5,2.3-8.7,5.4-11.6,9.6c-1.4,2-0.4,5,1.6,6.2c2.2,1.3,4.8,0.4,6.2-1.6c2-2.9,5.3-4.8,8.4-6.4
	C-202.8,406.5-207.3,398.8-212.5,401.4z"/>
<path class="st0" d="M-189.9,388.1c-0.6-2.2-3.2-4-5.5-3.1c-3.6,1.3-6.9,3.6-8.7,7.1c-1.1,2.2-0.6,4.9,1.6,6.2c2,1.2,5,0.6,6.2-1.6
	c0.2-0.3,0.4-0.6,0.6-0.9c0.1,0,0.7-0.8,0.8-0.9c0.1,0,0.1-0.1,0.1-0.1c0.2-0.2,0.5-0.3,0.7-0.5c0.2-0.1,0.4-0.2,0.7-0.4
	c0,0,0.1,0,0.1-0.1c0.1,0,0.2-0.1,0.3-0.1C-190.7,392.8-189.2,390.6-189.9,388.1z"/>
<path class="st0" d="M-179.3,371c-1.3-2.2-4-2.8-6.2-1.6c-3.3,1.8-5.1,5.2-5.2,8.9c-0.1,2.5,2.1,4.5,4.5,4.5c2.5,0,4.4-2,4.5-4.5
	c0-0.1,0-0.1,0-0.2c0-0.1,0.1-0.2,0.1-0.3c0,0,0,0,0-0.1c0-0.1,0.1-0.1,0.1-0.2l0,0l0.1-0.1c0.1-0.1,0.3-0.2,0.4-0.2
	C-178.8,376-178.1,373.1-179.3,371z"/>
<path class="st1" d="M-288.9,399c-4.5-2.4-9.1-4.7-14.1-6c-5.6-1.5-8,7.1-2.4,8.7c2,0.6,4,1.3,5.9,2.1c0.3,1.4,1.3,2.5,3.1,2.9
	c1.6,0.3,3.1,0.6,4.7,1c2.7,1.5,5.5,3.1,8.3,4.5c3,1.5,6.8-0.3,6.8-3.9C-276.8,402.7-283.3,400.3-288.9,399z"/>
<path class="st2" d="M-277.3,404.1l-6-3.4v-2.8c0-1.9-1.6-3.4-3.4-3.4c-1.5,0-2.9,1-3.3,2.5l-5.2-2.9v-2.5c0-1.9-1.4-3.4-3.3-3.4
	c-1.5,0-2.7,1-3.2,2.3l-4.5-2.5c-0.3-6.5-0.9-12.5-1.8-17.5c-0.7-3.9-1.5-7.1-2.4-9.3c-0.5-1.1-1.9-4.6-4.7-4.6
	c-2.9,0-4.3,3.4-4.7,4.6c-0.9,2.2-1.7,5.4-2.4,9.3c-0.9,5-1.5,11-1.8,17.5l-4.6,2.5c-0.5-1.3-1.7-2.3-3.2-2.3
	c-1.9,0-3.4,1.5-3.4,3.4v2.5l-5.1,2.9c-0.4-1.4-1.8-2.5-3.4-2.5c-1.9,0-3.5,1.5-3.5,3.4v2.8l-6,3.4c-0.7,0.4-1,1.1-1,1.8v8.8
	c0,0.7,0.4,1.3,0.9,1.7c0.6,0.4,1.3,0.5,1.9,0.3l27.1-9.4c0.1,4.1,0.4,8,0.7,11.7l2,14l-14.1,7.8c-0.4,0.2-0.5,0.6-0.5,1v4.8
	c0,0.4,0.1,0.7,0.4,0.9c0.3,0.2,0.7,0.3,1,0.1l16.5-5.7c0.8,1,1.8,1.8,3.2,1.8s2.4-0.8,3.2-1.8l16.5,5.7c0.1,0,0.2,0.1,0.4,0.1
	c0.2,0,0.3-0.1,0.5-0.2c0.3-0.2,0.3-0.6,0.3-0.9v-4.9c0-0.4-0.1-0.8-0.4-1l-14-7.8c0.2-1,0.5-2,0.6-3.2c1.1-6.2,1.8-14,2-22.4
	l27.1,9.4c0.2,0.1,0.5,0.1,0.7,0.1c0.4,0,0.8-0.1,1.2-0.4c0.6-0.4,0.8-1,0.8-1.7v-8.8C-276.3,405.2-276.5,404.5-277.3,404.1z"/>
<path class="st3" d="M-164,358.4l-26.5-26.5c-3.2-3.2-8.2-3.4-11.7-0.6c-12,9.7-29.3,8.8-40.2-2.1c-10.9-10.9-11.8-28.2-2.1-40.2
	c2.8-3.5,2.5-8.5-0.6-11.7l-26.5-26.5c-3.4-3.4-8.9-3.4-12.3,0l-166,166c-3.4,3.4-3.4,8.9,0,12.3l26.5,26.5l0,0
	c3.4,3.4,8.9,3.4,12.3,0c0.3-0.3,0.6-0.7,0.9-1c0.6-0.7,1.2-1.4,1.9-2c11.7-11.7,30.8-11.7,42.6,0c11.7,11.7,11.7,30.8,0,42.6
	c-0.7,0.7-1.5,1.5-2.4,2.1c-1.9,1.6-3.1,3.9-3.2,6.3c-0.1,2.5,0.8,4.9,2.5,6.6l26.5,26.5c3.4,3.4,8.9,3.4,12.3,0l166-166
	C-160.6,367.3-160.6,361.8-164,358.4L-164,358.4z"/>
<path class="st4" d="M-323.5,417.8c-0.3-3.7-0.5-7.6-0.7-11.7l-27.1,9.4c-0.6,0.2-1.4,0.1-1.9-0.3c-0.6-0.4-0.9-1-0.9-1.7v-8.8
	c0-0.8,0.4-1.5,1.1-1.8l6.1-3.4v-2.8c0-1.9,1.5-3.4,3.4-3.4c1.5,0,2.8,1,3.2,2.5l5.1-2.9v-2.5c0-1.9,1.5-3.4,3.4-3.4
	c1.5,0,2.7,1,3.2,2.3l4.6-2.5c0.3-6.5,1-12.5,1.8-17.5c0.7-3.9,1.5-7.1,2.4-9.3c0.5-1.1,1.9-4.6,4.7-4.6c2.9,0,4.3,3.4,4.7,4.6
	c0.9,2.2,1.7,5.4,2.4,9.3c0.9,5,1.5,11,1.8,17.5l4.6,2.5c0.5-1.3,1.7-2.3,3.2-2.3c1.9,0,3.4,1.5,3.4,3.4v2.5l5.2,2.9
	c0.4-1.4,1.7-2.5,3.2-2.5c1.9,0,3.4,1.5,3.4,3.4v2.8l6.1,3.4c0.7,0.4,1.1,1.1,1.1,1.8v8.8c0,0.7-0.3,1.3-0.9,1.7
	c-0.4,0.3-0.8,0.4-1.2,0.4c-0.2,0-0.5,0-0.7-0.1l-27.1-9.4c-0.2,8.4-0.9,16.2-2,22.4c-0.2,1.1-0.4,2.2-0.6,3.2l14.1,7.8
	c0.4,0.2,0.6,0.6,0.6,1v4.8c0,0.4-0.2,0.7-0.5,0.9c-0.2,0.1-0.4,0.2-0.7,0.2c-0.1,0-0.3,0-0.4-0.1l-16.5-5.7c-0.8,1-1.8,1.8-3.2,1.8
	s-2.4-0.8-3.2-1.8l-16.5,5.7c-0.4,0.1-0.7,0.1-1-0.1c-0.3-0.2-0.5-0.6-0.5-0.9v-4.8c0-0.4,0.2-0.8,0.6-1l14.1-7.8"/>
<path class="st3" d="M-218.9,390.3c-3.5,3.6-9.3,3.6-12.9,0l-71.8-71.8c-3.5-3.6-3.5-9.3,0-12.9c3.5-3.5,9.3-3.5,12.9,0l71.8,71.8
	C-215.4,381-215.4,386.8-218.9,390.3L-218.9,390.3z"/>
<path d="M-218.9,390.3"/>
</svg>
