<?xml version="1.0" encoding="utf-8"?>
<!-- Generator: Adobe Illustrator 19.0.0, SVG Export Plug-In . SVG Version: 6.00 Build 0)  -->
<svg version="1.1" id="Capa_1" xmlns="http://www.w3.org/2000/svg" xmlns:xlink="http://www.w3.org/1999/xlink" x="0px" y="0px"
	 viewBox="1039 52 3302 690" style="enable-background:new 1039 52 3302 690;" xml:space="preserve">
<style type="text/css">
	.st0{fill:none;}
	.st1{fill:#E0DFE6;}
	.st2{fill:none;stroke:#CAC9C9;stroke-miterlimit:10;}
	.st3{fill:#F1F1F1;}
	.st4{opacity:0.43;fill:url(#SVGID_1_);enable-background:new    ;}
	.st5{opacity:0.43;fill:url(#SVGID_2_);enable-background:new    ;}
	.st6{fill:#D2D9DB;}
	.st7{fill:#FCCC81;}
	.st8{fill:#214D6A;}
	.st9{fill:none;stroke:#214D6A;stroke-width:2.9295;stroke-miterlimit:10;}
	.st10{fill:none;stroke:#214D6A;stroke-width:2.7777;stroke-miterlimit:10;}
	.st11{fill:none;stroke:#214D6A;stroke-width:3.0514;stroke-miterlimit:10;}
	.st12{fill:none;stroke:#214D6A;stroke-width:2.93;stroke-miterlimit:10;}
	.st13{fill:none;stroke:#214D6A;stroke-width:2.8762;stroke-miterlimit:10;}
	.st14{fill:none;stroke:#7D3FAC;stroke-width:1.672;stroke-miterlimit:10;stroke-dasharray:4.4587,8.3601;}
	.st15{fill:none;stroke:#F59A23;stroke-width:2;stroke-miterlimit:10;stroke-dasharray:4.4587,8.3601;}
	.st16{fill:none;stroke:#87D329;stroke-width:1.672;stroke-miterlimit:10;stroke-dasharray:4.4587,8.3601;}
	.st17{fill:none;stroke:#214D6A;stroke-width:2.778;stroke-linecap:round;stroke-linejoin:round;stroke-miterlimit:10;}
</style>
<pattern  x="1039" y="742" width="80.3" height="68.2" patternUnits="userSpaceOnUse" id="SVGID_3_" viewBox="0 -68.2 80.3 68.2" style="overflow:visible;">
	<g>
		<polygon class="st0" points="0,0 80.3,0 80.3,-68.2 0,-68.2 		"/>
		<g>
			<polygon class="st0" points="0,-68.2 80.3,-68.2 80.3,0 0,0 			"/>
			<g>
				<polygon class="st0" points="0,0 80.3,0 80.3,-68.2 0,-68.2 				"/>
				<g>
					<polygon class="st0" points="0,-68.2 80.3,-68.2 80.3,0 0,0 					"/>
					<g>
						<polygon class="st0" points="0,0 80.3,0 80.3,-68.2 0,-68.2 						"/>
						<path class="st1" d="M20-5.9c-0.3,0-0.6,0-0.8-0.1c0.7,0.7,1.5,1.3,2.3,1.9c2.5-0.6,4.1-2.7,4.1-5.7c0-2.3-2.4-4.9-5.7-4.9
							c-0.8,0-1.6,0.2-2.3,0.5c-1.3,0.6-2.2,1.5-2.6,2.8c0.3,0.5,0.6,1,0.9,1.5c0.3,0.4,0.5,0.8,0.8,1.1c0-0.1,0-0.2,0-0.4
							c0-1.6,0.6-2.7,1.8-3.2c0.4-0.2,0.9-0.3,1.4-0.3c2.1,0,3.7,1.6,3.7,2.9C23.5-7.4,22.2-5.9,20-5.9z"/>
						<path class="st1" d="M80.3-42.5c-3.6-4.8-7.6-9.5-11.5-14c-1.8-2.1-3.6-4.2-5.5-6.4c-0.5,0.4-1,0.9-1.5,1.3
							c1.8,2.2,3.6,4.3,5.4,6.4c3.8,4.4,7.6,8.9,11.2,13.6C79.1-41.9,79.7-42.2,80.3-42.5z"/>
						<path class="st1" d="M51.3-17.9C46-14,40.8-9.6,35.9-5.4c-2.1,1.8-4.2,3.6-6.3,5.4c-0.7-0.2-1.5-0.5-2.2-0.8
							c2.4-2,4.9-4.1,7.2-6.1c5-4.3,10.2-8.7,15.6-12.7c-0.4-0.8-0.6-1.7-0.6-2.6c0-2.5,1.4-4.7,3.6-5.6c0.2-0.1,0.3-0.1,0.5-0.2
							c0.6-0.3,1.2-0.5,1.9-0.5c4.7,0,6.4,3.6,6.4,5.8c0,4.3-3.4,6.6-6.5,6.6C53.8-16.1,52.3-16.8,51.3-17.9z M51.6-22.2
							c0,0.7,0.2,1.3,0.5,1.9c0.1,0.1,0.2,0.2,0.3,0.3s0.1,0.3,0.2,0.4c0.7,0.9,1.8,1.5,2.9,1.5c2.2,0,4.5-1.6,4.5-4.6
							c0-1.1-0.8-3.8-4.4-3.8c-0.3,0-0.6,0.2-1.1,0.4c-0.2,0.1-0.3,0.2-0.5,0.2C52.5-25.3,51.6-23.8,51.6-22.2z"/>
						<path class="st1" d="M27.2-30c-0.3-0.4-1-0.5-1.4-0.2c-4.6,3.4-9,7.2-13.3,10.9c0.1,0.8,0.2,1.6,0.4,2.3
							c4.6-3.9,9.3-8,14.2-11.6C27.5-29,27.6-29.6,27.2-30z"/>
						<path class="st1" d="M45.5-50.1c1-0.9,2-1.8,3.1-2.7c-0.4-0.8-0.7-1.6-0.7-2.5c0-0.3,0-0.6,0.1-0.9c0.1-0.2,0.1-0.4,0.1-0.6
							c0.1-0.5,0.1-1.1,0.6-1.7c1.2-1.5,2.1-2,3.8-2c3.4,0,4.6,3,4.6,5c0,2.9-2.5,4.9-4.8,4.9c-1,0-1.8-0.3-2.4-0.8
							c-1.1,0.9-2.1,1.8-3.1,2.7c-1.2,1.1-2.4,2.1-3.7,3.2c-0.2,0.1-0.4,0.2-0.6,0.2c-0.3,0-0.6-0.1-0.8-0.4c-0.3-0.3-0.2-1,0.2-1.3
							C43.2-48,44.4-49.1,45.5-50.1z M50-55.3c0,1.3,0.9,2.7,2.5,2.7c1.3,0,2.8-1.3,2.8-2.9c0,0-0.1-3-2.6-3c-0.9,0-1.3,0.1-2.2,1.2
							c-0.1,0.1-0.1,0.4-0.1,0.7s-0.1,0.7-0.2,1C50-55.4,50-55.4,50-55.3z"/>
						<path class="st1" d="M61-35.1c-2,0-3.9-1-5.1-2.4c-5.3,3.8-8.8,6.8-12.6,9.9c-3.4,2.8-6.9,5.8-12,9.5
							c-0.2,0.1-0.4,0.2-0.6,0.2c-0.3,0-0.6-0.1-0.8-0.4c-0.3-0.4-0.2-1.1,0.2-1.4c5-3.7,8.5-6.6,11.9-9.5c3.8-3.1,7.4-6.1,12.7-10
							c-0.4-0.9-0.7-2-0.7-3.1c0-2.9,1.7-5.5,4.3-6.6c0.2-0.1,0.4-0.2,0.6-0.2c0.7-0.3,1.4-0.6,2.2-0.6c5.5,0,7.6,4.2,7.6,6.8
							c0,1.5-0.3,2.7-0.9,3.8c-0.1,0-0.3,0-0.4,0.1c0,0.1-0.1,0.2-0.1,0.3c0,0.3-0.1,0.5-0.1,0.8C65.7-36.1,63.3-35.1,61-35.1z
							 M66.8-42.9c0-1.3-1-4.8-5.6-4.8c-0.4,0-0.8,0.2-1.4,0.5c-0.2,0.1-0.4,0.2-0.6,0.3c-1.8,0.8-3,2.6-3,4.8
							c0,2.8,2.3,5.2,4.9,5.2C63.9-37.1,66.8-39.1,66.8-42.9z"/>
						<path class="st1" d="M47.4-66.6c-0.3,2.1-1.8,3.7-3.9,3.7c-2.2,0-4.2-1.9-4.3-3.9c-0.7,0-1.3,0-2,0c0.1,3.1,3.1,5.9,6.3,5.9
							c3.3,0,5.9-2.8,5.9-6.4c0-0.1,0-0.2,0-0.2C48.9-67,48.2-66.7,47.4-66.6z"/>
						<path class="st1" d="M33.6-64.4c-0.5,0.4-0.9,0.8-1.4,1.1c-1.5,1.2-3.1,2.5-4.5,3.8c-0.4,0.4-0.4,1,0,1.4
							c0.2,0.2,0.5,0.3,0.7,0.3s0.5-0.1,0.7-0.3c1.4-1.3,2.9-2.5,4.4-3.7c0.5-0.4,0.9-0.8,1.4-1.1c0.4-0.4,0.5-1,0.1-1.4
							C34.6-64.7,34-64.7,33.6-64.4z"/>
						<path class="st1" d="M13.7-33.5c0,1.3-1.2,3.1-3.1,3.8c-0.3-0.1-0.6-0.3-0.9-0.5C9.5-30,9.3-29.7,9-29.5
							c-2.3,0-4.8-1.6-4.8-4.6c0-1,0.3-2,0.9-2.8c-0.4-0.5-0.9-1.1-1.3-1.6c-1.1-1.4-2.2-2.7-3.4-3.8c-0.4-0.4-0.5-1-0.1-1.4
							s1-0.5,1.4-0.1c1.4,1.2,2.6,2.7,3.7,4.1c0.4,0.5,0.9,1.1,1.3,1.6c0.4-0.2,0.8-0.4,1.3-0.4C11.3-38.9,13.7-36.7,13.7-33.5z
							 M8.7-36.5c-0.2,0-0.4,0-0.5,0c-0.3,0-0.4,0.1-0.8,0.4l-0.2-0.3l-0.3-0.5L7.4-36c-0.6,0.4-1.1,1.2-1.1,2.1
							c0,1.9,1.7,2.6,2.8,2.6c1.7,0,2.7-1.6,2.7-2.1C11.7-35.7,10.2-36.5,8.7-36.5z"/>
						<path class="st1" d="M20.4-58.2c2.1,2.3,4,4.5,7.7,9.6c0.9-0.4,2-0.7,3.1-0.7c2.9,0,5.5,1.7,6.6,4.3c0.1,0.2,0.2,0.4,0.2,0.6
							c0.3,0.7,0.6,1.4,0.6,2.2c0,5.5-4.2,7.6-6.8,7.6c-5.1,0-7.8-4-7.8-7.7c0-2,1-3.9,2.4-5.1c-3.6-5-5.5-7.1-7.5-9.4
							c-2-2.2-4-4.5-7.9-9.7c-0.3-0.4-0.2-1.1,0.2-1.4c0.4-0.3,1.1-0.2,1.4,0.2C16.4-62.6,18.4-60.4,20.4-58.2z M26-42.3
							c0,2.8,2,5.7,5.8,5.7c1.3,0,4.8-1,4.8-5.6c0-0.4-0.2-0.8-0.5-1.4c-0.1-0.2-0.2-0.4-0.3-0.6c-0.8-1.8-2.6-3-4.8-3
							C28.3-47.2,26-45,26-42.3z"/>
						<path class="st1" d="M59.9-10.9c0.4-0.3,0.5-1,0.2-1.4s-1-0.5-1.4-0.2c-0.5,0.4-1.1,0.8-1.6,1.2C55.4-10,53.9-8.7,52-7.6
							c-0.5,0.3-0.6,0.9-0.3,1.4c0.2,0.3,0.5,0.5,0.9,0.5c0.2,0,0.4,0,0.5-0.1c2-1.2,3.6-2.5,5.3-3.8C58.8-10.1,59.4-10.5,59.9-10.9
							z"/>
					</g>
				</g>
			</g>
		</g>
	</g>
</pattern>
<pattern  x="1039" y="742" width="60.8" height="50.7" patternUnits="userSpaceOnUse" id="SVGID_4_" viewBox="0 -50.7 60.8 50.7" style="overflow:visible;">
	<g>
		<polygon class="st0" points="0,0 60.8,0 60.8,-50.7 0,-50.7 		"/>
		<g>
			<polygon class="st0" points="0,-50.7 60.8,-50.7 60.8,0 0,0 			"/>
			<g>
				<polygon class="st0" points="0,0 60.8,0 60.8,-50.7 0,-50.7 				"/>
				<g>
					<polygon class="st0" points="0,-50.7 60.8,-50.7 60.8,0 0,0 					"/>
					<g>
						<polygon class="st0" points="0,0 60.8,0 60.8,-50.7 0,-50.7 						"/>
						<line class="st2" x1="0.4" y1="-34.3" x2="14.4" y2="-50.3"/>
						<line class="st2" x1="46.4" y1="-0.3" x2="60.4" y2="-16.3"/>
					</g>
				</g>
			</g>
		</g>
	</g>
</pattern>
<polygon class="st3" points="4357.8,755.9 1039,749.9 1039,46.9 4357.8,46.9 "/>
<pattern  id="SVGID_1_" xlink:href="#SVGID_3_" patternTransform="matrix(0.9421 0 0 0.9421 1011.4656 30097.0137)">
</pattern>
<path class="st4" d="M1039.2,57.8v690l3312.8,2l12.9-693L1039.2,57.8z M3847.3,620.7c-59.4,76-167.2,99.2-253.7,50
	c-88.6-50.5-123.3-159.1-83.5-250.6L3501,409c0,0,1.3-2.6,1.1-3.5c-0.2-0.8-1.4-1.5-2.4-2.2c-0.7,0.1-1.7-0.7-1.2-1.5
	c0-0.1,1.5,0.6,1.5,0.5c0.2-2,3.7-4.3,4.6-5.8l0,0c-1-0.5-1.8-1-1.9-1.3c-1.5-3.8-3.8-7.9-5.7-11.4c-2-2.4-4.5-5-7.1-7.4
	c-7.1-5.1-14.8-9.7-16.3-10.6c-6.8-4.1-13.8-8-20.6-12c-0.4-0.1-0.8-0.4-1.2-0.7c-0.1,0-0.2-0.1-0.3-0.1s-0.1,0-0.2,0
	c-0.2,0-0.3-0.1-0.6-0.2c-0.8-0.1-1.5,0.8-2,0.8c-6.2,0-18.1-17.2-18.1-17.2s-9.4,7.2-11.3,8.2c-2.1,1-3.2,3.2-5.3,5.7
	c-2.1,2.5-4.1,5.7-4.1,5.7s-0.1,0-0.4,0c-0.2,0.1-0.4,0.2-0.6,0.3c-0.1,0-0.3-0.1-0.4-0.1c-2.4,0.1-6.9,0.6-9.2,0.3
	c-3.3-0.5-6.1-1-6.1-1v0.1c-0.3,0.3-2.6,2.8-4.7,4.9c-2.1,2.3-9.5,8.3-11.2,7.5s-0.4-2.7,0.2-3.8c0.7-1.1,2.4-2.8,2.4-2.8
	s-1.5-0.5-0.4-1.9c0.6-0.9,1.6-2.3,2.8-3.3c0-0.4,0.3-0.9,0.6-0.9c0.1,0,0.4-0.1,0.5-0.1s0.2-0.2,0.4-0.2v-0.1l0,0
	c0-0.1,0.1-0.2,0.1-0.3c0.4-0.5,0.7-0.5,1.1-0.3c1.6-0.7,3.5-1.3,4.4-2.3v-0.1c0.4-0.5,1.9-2.1,3.7-4.5c2.1-3.5,4.4-6.9,7.6-9.6
	c1.6-2.3,3.3-4.7,4.9-6.9c1.2-2.3,2.9-5.3,4.4-6.6c0-0.1,0.2-0.1,0.3-0.3c0.5-0.7,1-1.5,1.5-2.2c1.2-2.4,2.4-5.6,3.8-7.5
	c1-1.3,1.7-2.1,2.2-2.7c0-0.8-0.1-1.6-0.2-2.4c-1.9-2.2-5.3-6.4-7.3-8.3c-2.8-2.6-6.6-6-4.4-10.3c0-0.1,0-0.1,0.1-0.2
	c1.4-2.7,5-6.2,9.9-2.5c4.9,3.7,9.2,7.2,10.1,7.8c0.9,0.7,3.7,1.9,3.7,1.9s3.8-4.9,8.4-7.4c4.5-2.7,11.4-7.2,14.4-10.7
	c2.6-3.1,10.1-12.4,11.9-14.8c0.3-0.3,0.4-0.6,0.4-0.6l1.2-2.4c0,0,0.2-2.4,1-4c0.9-1.7,2.9-6.7,3.4-6.2s-0.3,3.1-0.3,3.1
	s3.7-5.8,4.7-6.1s2.8-0.4,2,3.1c-0.7,3.5-4.4,9.9-5.7,11.7c-1.3,1.9-2.5,4.3-2.5,4.3s0.1,0.2,0.5,0.5c1.2,1.4,4.2,5.1,4.7,7.7
	c0.5,3.5-0.2,4.7-0.2,4.7s-9,9.9-11,14.6c-2.2,4.6-5.3,9.4-5.3,9.4s12.4,6.7,23.5,14.2c0.3-0.7,1-1.1,1.6-0.4c3.2,2.9,6.7,5.8,9.6,9
	c2.3,2.1,4.2,4.2,5.3,6c0.4,0.6,0,1.8,0.2,2.3c0.2,0.4,0.6,0.8,0.9,1.2c0.4,0,0.8,0.1,1,0.6c0,0.1,0.1,0.3,0.2,0.5
	c4.1,3.1,11.5,5.9,12.6,9.6c0.1,0.4-0.8,1.5-0.7,1.9c1.6,5.1,13.1,9,17.4,12h0.1c2.1,0,4.7-4.7,6.8-4.6c1.2,0,4,2.7,4,2.7l3.3-1.7
	l5.8,3.8c1.6-1.5,3-3,4.5-4.5c-0.2-0.1-0.3-0.3-0.6-0.4c3.4-3.5,6.9-6.8,10.5-10c-0.7-0.8-1.4-1.7-2.1-2.5c-2.9-3.5-6.1-7.2-8.8-11
	c-0.1-0.2-0.2-0.5-0.2-0.9s0.3-0.5,0.5-0.7c4.7-2.6,9.9-5.7,14.9-9.2c-4.7-8.3-9.8-15.9-14.8-23.5c0.2-0.2,0.6-0.4,0.8-0.6
	c-0.2,0.2-0.6,0.4-0.8,0.6c-0.5,0.4-1.1,0.2-1.4-0.3c-0.4-0.5-0.2-1.1,0.3-1.3c-0.6-1-1.2-1.9-1.8-2.9c-3.7-5.6-7.5-11.2-11.3-17
	c-0.4-0.5-0.2-1.1,0.3-1.4c1.1-0.7,2.1-1.5,3.2-2.1c-0.3-3.4,0.4-6.8,2-10c1.4-2.7,3.6-5.2,6.3-7.1c-0.6-1-1.2-1.9-1.9-2.9
	c-1.7-2.6-3.4-5.3-5.1-7.8c-0.2-0.4-0.3-1,0.1-1.3c0.3-0.3,0.9-0.4,1.3-0.2l0.3,0.1c0.3,0.2,0.6,0.6,0.6,1c1.4,2.3,3.1,4.7,4.7,7.2
	c0.6,1,1.2,1.9,1.9,2.9c0.6-0.5,1.2-0.7,1.8-1c4.7-2.2,9.4-2.4,13.3-0.4c1.1,0.5,2.3,1.3,3.3,2.1c1.6-0.9,3-1.9,4.6-2.8
	c0.2-0.1,0.5-0.2,0.9-0.2s0.5,0.3,0.7,0.5c4.5,8.4,9.8,16.7,15.1,24.7c-0.3,0.1-0.5,0.2-0.9,0.3c-0.5,0.2-0.7,0.9-0.5,1.3
	c0,0,0.1,0,0,0.1c-4.9-7.3-9.7-14.9-14-22.6c0.2,3.9,4.2,7.9,6.4,10.9c3.1,4.4,5.5,9.2,8.2,14c2.5,4.2,5.1,9.7,8.8,13
	c0.7,0.6,1.2,0.8,1.9,1.1c-1.5-2.1-3-4.2-4.4-6.4c-2.2-3.3-4.6-6.5-6.8-10c0.2,0.4,0.8,0.6,1.2,0.3c0.3-0.2,0.9-0.3,1.2-0.5
	c2,3,4,5.9,6.1,9c1.8,2.5,3.6,5.3,5.3,7.7c3.5-1.6,7.4-3.4,11.4-5.9c0.2-0.2,0.5-0.1,1-0.1c0.3,0.1,0.6,0.4,0.6,0.7
	c1.2,4.5,2.8,9.2,4.4,13.7c0.8,2.6,1.7,5.2,2.6,7.7c7.8-2.8,15.8-5.1,23.9-7c3.5-8.7,13-32.7,14.1-34.5c0,0-5.5-5.8-4.4-7.6
	c1-1.8,9.5-3,9.5-3l6.3-23.9c-0.2-0.9-0.4-1.6-0.7-2.6c-1.7-1.7-4.9-5-4.1-6.5c1-2,10-2.6,10-2.6s9.5-31.3,11.3-40.1
	c0,0-6.3-2.4-3-7.5c0.1-0.3,0.3-0.5,0.5-0.7c0.4-1.1,1-1.6,1.8-2c1.1-0.7,1.9-0.9,2.5-0.8l3.6-14l0.2,2.2l0.4-2.2l2.1,14.3
	c0.7,0,1.4,0.1,2.4,1.2c0.7,0.4,1.3,1,1.5,2c0.1,0.2,0.2,0.5,0.5,0.7c2.7,5.3-3.8,7.1-3.8,7.1c0.8,8.6,7.7,38.7,8.1,40.5
	c0.4,0,0.9,0,1.3-0.1c0.4,0,0.7,0.3,0.9,0.5c2.3,0.4,5.9,1.3,6.5,2.8c0.9,2.1-6.1,6.9-6.1,6.9l5.2,26.4c0,0,6.9,1.5,7.9,3.5
	c0.9,2-5.1,7.1-5.1,7.1c1.1,2,7.9,24.2,9.9,31.2c8.1,1.5,16.2,3.6,24,6.1l0.1-0.2c1.3-3.5,2.7-7,4.1-10.6c0.3-0.7,0.9-1,1.5-0.6
	l1.7,0.7c2.6,1,5.3,2.1,8,3.3c3.4-7.7,6.8-15.7,10.1-23.5c2.9-6.9,5.9-14,8.9-21.1c0.1-0.3,0.4-0.6,0.7-0.6c0.3-0.1,0.7-0.1,1,0.1
	c2.6,1.3,5.2,2.8,7.8,4.2c0.4-0.9,0.8-1.8,1.2-2.8c1-2.1,2-4.4,3-6.6c0.1-0.3,0.4-0.6,0.7-0.6c0.3-0.1,0.7-0.1,1,0.1
	c1.9,1,3.8,2,5.7,3c2.6,1.3,5.2,2.7,7.8,4c3.4,1.7,6.2,3.1,9,4.1c0.3,0.1,0.6,0.3,0.7,0.6c0.1,0.3,0.1,0.7-0.1,1
	c-0.8,1.7-1.7,3.5-2.5,5.2c-0.8,1.6-1.5,3.3-2.3,4.9c1.5,0.8,2.9,1.4,4.3,2.1c2.9-1.8,7.5,1.3,5.8,5.2c-3.9,8.4-8.9,16.3-12.8,24.7
	c-2.1,4.5-4.3,9.8-7,14.5c3.1,2,6.5,4.1,10,6.1c0.3,0.1,0.6,0.4,0.6,0.7c0.1,0.3,0.1,0.5-0.1,0.8v0.1c-0.9,1.4-2,3-2.9,4.5
	c-0.4,1.3-1,2.6-1.6,3.7c-0.9,1.3-1.8,2.5-2.8,3.7c-0.2,0.3-0.5,0.9-0.6,1.3c3.8,3,7.4,6,11,9.2c2-1.9,4.8-4,7.1-3.6
	c2.6,0.3,8.2,4,11.1,6.1c0.2,0,0.4,0,0.5-0.1c2.3-0.2,4.5-1.1,6.6-2.2c1.1-0.7,2-1.4,2.9-1.9c6.4-4,13.1-11.2,14.8-12.6
	c1.6-1.4,14.4-10.5,20.3-14.2c5.7-4.7,11.3-9.3,17.4-13.2c0-0.1,0.1,0,0.2-0.1c5.6-4.5,10.6-8.8,11.6-9.9c2.5-2.2,7.4-9.8,7.4-9.8
	s1.3-6.9,5.2-7.9c0.8-0.2,1.4-0.4,2.1-0.4c0.3-0.3,0.6-0.6,0.9-0.8c0.4-1.6,1.4-3,3-3.3c3.9-0.9,6.3-5.2,9.2-7.7
	c0.5-0.4,1-0.6,1.5-0.6c0-0.4,0.2-1,0.5-1.5c0.3-0.6,1.8-0.3,2.4-0.8c0.2-0.3,1.9,0.1,2.1-0.3l0,0c-0.5-1.3-0.3-2,0.2-2.4
	c0.5-0.5,0.4-1.3,0.9-1.8c0,0-0.2-0.2-0.1-0.2c0.7-0.8,1.5-1.4,2.5-1.6c0.1-0.3,0.1-0.6,0.3-0.9c0.5-1,1.2-1.6,2.1-2.3
	c0.4-0.2,0.7-0.6,1.2-0.8c0.6-0.5,1.2-0.7,1.8-1.2c-0.4-1.1-0.3-2.3,0.1-3.4c0.4-0.7,0.8-1.2,1.4-1.6c0.3-1.3,1.2-1.9,1.2-1.9
	c1.2-1.7,2.9-1.1,4-0.3l0.5,0.7c0.9-0.9,2-1.5,3.3-1.9c1-0.3,2.1-0.3,3,0.1c1.2-0.9,3-1.4,4.8-0.5c1.6,0.8,2.3,2.1,2.5,3.5
	c1.1,0.7,1.8,1.3,1.8,1.3l-2.5,1.9c0,0-0.1,0-0.2-0.1c-1.1,1.7-3,2.8-5.3,1.9c-0.2,0.2-0.6,0.5-1,0.5c-0.4,0.5-0.9,0.9-1.5,1.1v0.1
	c0,0.2-0.1,0.4-0.2,0.7c0,0.1,0,0.2-0.1,0.3c-0.5,1.8-1.6,3.5-1.8,3.5c-0.4,0.2-1,0.2-1.7-0.2c-0.5,0.1-1.3,0.2-2,0
	c-0.3,0.5-0.5,0.9-0.8,1.2c-0.5,0.4-0.8,0.8-1.3,1.1c-0.2,0.2-0.7,0.4-1.1,0.5c-0.4,0.2-0.8,0.7-1.3,0.9c-0.5,0.5-0.9,0.8-1.8,1.1
	c-0.3,0.1-0.5,0.1-1,0.2c0,0.1-0.2,0.1-0.2,0.2c-0.3,0.7-0.8,1.5-1.2,1.9c-0.1,0.3-0.4,0.6-0.7,0.8c0-0.1,0.2-0.1,0.2-0.1
	c-0.2,0.2-0.6,0.6-0.8,0.8c-0.3,0.3-0.6,0.6-0.8,0.8c-0.3,0.6-0.6,1.1-1.1,1.7c-0.7,0.9-1.5,1.3-2.5,1.8c-0.1,0-0.3,0.1-0.4,0.1
	c-0.2,1.2-1,2.5-2.1,3.4c-2.2,1.9-3.8,4-5.9,5.9c-1.2,1.5-1.9,2.6-2,2.7c-0.3,0.9-1.7,2.5-3,3.7c-1.5,1.3-2.1,4.1-2.2,5.2
	c-0.2,1,0.3,2.1,0.3,2.1l3.6-2.2c0,0,3.1-4.1,3.3-4.6c0-0.1,2.2-2.4,2.4-2.1c0.3-0.1,3.9-0.6,4.1-0.4l0,0l0,0c0,0,4.1-7.9,4.1-7.6
	c0,0.4-0.3,9.8,0.1,10.6l8.9-4.6c0,0-6.7,8.1-6.5,8.6c1.6,0.4,6.9,1.3,8.3,1.6c0.4,0.1-8,1.9-8.1,2.3l6.4,5.6c0,0-7.9-3-8.1-2.8
	c1.3,2.4,3.7,7,3.9,7.2c0.1,0.2-4-3.4-5.9-5.6c-0.1,0-0.1,0-0.2,0l0,0l0,0c-0.1,0-0.1,0-0.3,0.1c-0.7,0.9-2,2.2-2.7,2.3
	c-1.1,0.3-7.1,6.8-8.1,8.4c0.5,1.7,0.8,3.8,0.3,5.2c-1.3,3.5-5.5,6-6,8.5c-0.6,2.7,0,6.2,0,6.2l6.3-0.3l2,9.2l-0.5,1.5l-5.2,1.3
	c0,0-0.6,1.8-2.1,2.3s-4.6,1.2-6.3,0.8c-1.6-0.6-3.2-0.6-3.2-0.6s-8.7,3-10.4,2.3c-1.7-0.7-4.6-2-5-2.2c-0.4-0.1-13.9,13.5-15,13.1
	c-1-0.3-4.1,0.7-4.1,0.7s-22.3,19.2-24.3,19.3c-1.4,0-2.9,0.6-3.5,0.7c3.4,4.3,7.1,14,6.5,18.4c-0.3,2.4-3.2,3.8-5.7,4.6
	c3.4,6.4,10.4,19.2,10.5,19.2C3911.1,558,3847.3,620.7,3847.3,620.7z"/>
<pattern  id="SVGID_2_" xlink:href="#SVGID_4_" patternTransform="matrix(0.9421 0 0 0.9421 1320.1234 30252.4805)">
</pattern>
<path class="st5" d="M3842.2,624.7c-0.3,0-0.5,0.2-0.7,0.4c-60.3,75.7-168.4,98-254.8,48.1c-88.4-51.2-122.6-160.1-82.4-251.5
	c0.2-0.4,0.1-0.8-0.1-1.1l-8.3-10.2c-0.3-0.3-0.3-0.7-0.1-1.1c0.4-0.8,1-2.3,0.8-2.9c-0.1-0.8-1.5-1.5-2.5-2.2
	c-0.7,0.1-1.7-0.7-1.2-1.5c0,0,0.2,0,0.5,0.2c0.5,0.2,1.1,0,1.3-0.5c0.9-1.7,3.6-3.7,4.4-4.9l0,0c-1-0.5-1.8-1-1.9-1.4
	c-1.5-3.8-3.7-7.9-5.5-11.4c0-0.1-0.1-0.1-0.1-0.2c-1.9-2.4-4.5-4.9-7-7.3l-0.1-0.1c-7.1-5.1-14.7-9.8-16.3-10.7
	c-6.7-4.2-13.7-8-20.6-12.2c-0.4-0.1-0.8-0.3-1.2-0.7c-0.1,0-0.2-0.1-0.3-0.1s-0.1,0-0.2,0c-0.2,0-0.3-0.1-0.6-0.2
	c-0.8-0.1-1.5,0.8-2,0.7c-5.4,0-14.9-12.9-17.4-16.5c-0.3-0.5-1-0.6-1.5-0.2c-2.4,1.8-8.9,6.6-10.5,7.4c-2.1,1-3.3,3.2-5.3,5.6
	s-4.1,5.7-4.1,5.7s-0.1,0-0.4,0c-0.2,0.1-0.4,0.3-0.7,0.2c-0.1,0-0.3-0.1-0.4-0.1c-2.4,0.2-6.9,0.5-9.2,0.2c-3.3-0.4-6.1-1-6.1-1
	v0.1c-0.3,0.3-2.7,2.8-4.6,4.9c-2.1,2.3-9.6,8.2-11.3,7.5c-1.7-0.7-0.4-2.7,0.3-3.8c0,0,0,0,0-0.1c0.4-0.6,1.1-1.4,1.6-2
	c0.3-0.4,0.4-0.9,0.1-1.3c-0.2-0.3-0.3-0.8,0.3-1.5c0.6-0.8,1.5-2.1,2.6-3.1c0.1-0.1,0.2-0.3,0.3-0.5c0.1-0.3,0.3-0.6,0.6-0.7
	c0.1,0,0.4-0.1,0.6-0.1s0.2-0.2,0.4-0.3v-0.1l0,0c0-0.1,0.1-0.2,0.1-0.3c0.4-0.5,0.8-0.5,1.1-0.3c1.6-0.7,3.5-1.2,4.5-2.3v-0.1
	c0.4-0.5,1.9-2.1,3.7-4.4l0.1-0.1c2.1-3.4,4.4-6.8,7.6-9.4c0.1-0.1,0.1-0.1,0.2-0.2c1.6-2.3,3.3-4.5,4.9-6.8l0.1-0.1
	c1.2-2.3,2.9-5.3,4.4-6.5c0-0.1,0.2-0.1,0.3-0.3c0.5-0.7,0.9-1.5,1.5-2.1c0-0.1,0.1-0.1,0.1-0.2c1.2-2.4,2.5-5.4,3.8-7.4l0.1-0.1
	c0.8-1,1.5-1.8,1.9-2.3c0.2-0.2,0.2-0.4,0.2-0.7c0-0.6-0.1-1.2-0.2-1.8c0-0.2-0.1-0.3-0.2-0.5c-1.9-2.3-5.1-6.3-7.1-8.2
	c-2.8-2.7-6.6-6.1-4.3-10.4c0-0.1,0-0.1,0.1-0.2c1.5-2.7,5.1-6.2,10-2.5c4.9,3.7,9.2,7.3,10.1,7.8c0.6,0.5,2,1.2,2.9,1.6
	c0.4,0.2,0.9,0.1,1.2-0.3c1.2-1.4,4.3-4.8,7.9-6.8c4.5-2.6,11.5-7.1,14.6-10.7c2.6-3.1,10.2-12.4,12-14.7c0.3-0.3,0.4-0.6,0.4-0.6
	l1.1-2.3c0-0.1,0.1-0.2,0.1-0.3c0.1-0.6,0.3-2.6,1-3.8c0.8-1.7,3.1-6.8,3.4-6.2c0.5,0.5-0.2,3.1-0.2,3.1s3.8-5.8,4.8-6
	c1-0.3,2.8-0.3,2.1,3.1c-0.8,3.5-4.4,9.9-5.8,11.8c-1.4,1.9-2.5,4.3-2.5,4.3s0.1,0.2,0.5,0.5c1.2,1.3,4.2,5.2,4.6,7.8
	c0.5,2.8,0,4.2-0.2,4.6c0,0.1-0.1,0.2-0.2,0.3c-1,1.1-9.2,10.1-11,14.4c-1.6,3.4-3.7,6.8-4.8,8.4c-0.3,0.5-0.2,1.2,0.4,1.5
	c3.1,1.7,12.8,7.2,21.8,13.3c0.4,0.2,0.8,0.2,1.2,0c0.4-0.3,0.9-0.3,1.3,0.1c3.2,2.9,6.7,5.8,9.5,9.1l0.1,0.1
	c2.4,2.1,4.1,4.2,5.2,5.9c0.3,0.5,0.1,1.6,0.2,2.1c0,0.1,0.1,0.2,0.1,0.3c0.2,0.3,0.5,0.8,0.8,1.1c0.4,0,0.8,0.1,1.1,0.6
	c0,0.1,0.1,0.3,0.2,0.5c4.1,3.2,11.4,6,12.6,9.7c0.1,0.4-0.8,1.5-0.7,1.9c1.6,5,13,9.1,17.4,12.1h0.1c2.1,0,4.8-4.7,6.8-4.7
	c0.8,0,2.5,1.5,3.4,2.3c0.3,0.3,0.8,0.4,1.2,0.2l2.1-1.1c0.3-0.2,0.8-0.2,1.1,0.1l4.5,3c0.4,0.3,1,0.2,1.4-0.1
	c1.3-1.3,2.6-2.6,3.9-3.8c-0.2-0.1-0.3-0.3-0.6-0.4c3.2-3.2,6.5-6.3,9.8-9.3c0.4-0.4,0.5-1,0.1-1.5c-0.5-0.6-1-1.1-1.5-1.7
	c-3-3.5-6.1-7.3-8.7-11.1c-0.1-0.2-0.2-0.5-0.1-0.9c0.1-0.3,0.3-0.5,0.5-0.7c4.5-2.4,9.4-5.3,14.3-8.6c0.5-0.3,0.6-0.9,0.3-1.4
	c-4.6-8.1-9.4-15.5-14.3-22.9c0.2-0.2,0.6-0.4,0.9-0.5c-0.2,0.2-0.6,0.4-0.9,0.5c-0.5,0.4-1.1,0.2-1.5-0.4c-0.3-0.3-0.3-0.7-0.1-0.9
	c0.2-0.3,0.2-0.7,0-1c-0.5-0.7-1-1.4-1.5-2.2c-3.8-5.6-7.5-11.3-11.2-17.2c-0.4-0.5-0.2-1.1,0.4-1.5c0.9-0.6,1.8-1.2,2.7-1.8
	c0.3-0.2,0.4-0.5,0.4-0.9c-0.1-3.2,0.6-6.4,2.1-9.5c1.4-2.4,3.2-4.7,5.6-6.5c0.4-0.4,0.6-1,0.2-1.4c-0.4-0.7-0.9-1.3-1.4-2
	c-1.7-2.7-3.4-5.3-5.1-7.9c-0.3-0.4-0.3-1,0.1-1.3c0.3-0.3,0.9-0.4,1.3-0.2l0.3,0.1c0.4,0.2,0.6,0.6,0.6,1c1.4,2.4,3.1,4.8,4.6,7.2
	c0.4,0.7,0.9,1.4,1.4,2c0.3,0.4,0.9,0.6,1.4,0.4c0.4-0.2,0.7-0.3,1.1-0.5c4.7-2.2,9.4-2.2,13.4-0.3c0.9,0.4,1.8,1.1,2.7,1.7
	c0.3,0.3,0.8,0.3,1.2,0.1c1.3-0.8,2.6-1.6,4-2.4c0.2-0.1,0.5-0.2,0.9-0.1c0.4,0.1,0.5,0.3,0.7,0.5c4.4,8.5,9.7,16.8,15,25
	c-0.3,0.1-0.5,0.2-0.9,0.3c-0.5,0.2-0.7,0.9-0.5,1.4c0,0,0.1,0,0,0.1c-4.8-7.4-9.6-15-13.9-22.8c0.2,4,4.2,7.9,6.3,11
	c3.1,4.5,5.5,9.3,8.1,14.1c2.5,4.2,5,9.7,8.8,13.1c0.7,0.6,1.2,0.8,1.9,1.1c-1.4-2.2-2.9-4.2-4.4-6.5c-2.1-3.4-4.6-6.6-6.7-10.1
	c0.3,0.4,0.8,0.6,1.2,0.3c0.3-0.2,0.9-0.3,1.2-0.5c3,4.4,5.8,9.1,9,13.1c0.7,0.9,1.2,1.9,1.7,2.9c0.3,0.5,0.9,0.7,1.4,0.5
	c3.4-1.5,6.8-3.2,10.7-5.5c0.2-0.2,0.6-0.1,0.9-0.1c0.3,0.1,0.6,0.4,0.6,0.8c1.2,4.6,2.8,9.2,4.3,13.7c0.8,2.2,1.5,4.6,2.2,6.8
	c0.2,0.6,0.8,0.9,1.3,0.7c7.4-2.5,14.9-4.7,22.5-6.3c0.3-0.1,0.6-0.3,0.7-0.6c3.5-8.5,11.9-29.3,13.9-33.4c0.2-0.4,0.1-0.8-0.1-1.2
	c-1.3-1.5-4.7-5.6-3.9-7.1c0.8-1.5,6.9-2.5,8.9-2.8c0.4-0.1,0.8-0.4,0.9-0.8l6.1-23.1c0-0.1,0.1-0.3,0-0.4c-0.1-0.7-0.4-1.4-0.6-2.1
	c-0.1-0.2-0.1-0.3-0.3-0.4c-1.8-1.7-4.7-4.9-3.9-6.3c0.8-1.6,7.2-2.3,9.4-2.5c0.4,0,0.8-0.3,0.9-0.7c1.4-4.5,9.2-29.7,11.3-38.7
	c0.1-0.5-0.1-0.9-0.5-1.2c-1.5-0.8-4.9-3.2-2.3-7.2c0.1-0.3,0.3-0.5,0.5-0.7c0.4-1.1,1-1.6,1.8-2c0.7-0.5,1.3-0.7,1.8-0.7
	c0.4-0.1,0.8-0.4,0.9-0.8l3.5-13.2l0.3,2.2l0.5-2.1l1.9,13.7c0.1,0.4,0.4,0.8,0.8,0.9c0.5,0.1,1,0.4,1.8,1c0.7,0.4,1.3,1,1.5,2.1
	c0.1,0.2,0.2,0.5,0.5,0.8c2.1,4.2-1.5,6.2-3.1,6.9c-0.4,0.2-0.7,0.6-0.6,1.1c1.1,9.6,7.4,38.1,7.8,39.9c0.4,0,0.9,0,1.3,0
	s0.7,0.3,0.9,0.5c2.3,0.5,5.9,1.3,6.4,2.9c0.7,1.8-4,5.3-5.6,6.5c-0.3,0.2-0.5,0.7-0.4,1.1l4.7,25.2c0.1,0.4,0.4,0.7,0.8,0.8
	c1.7,0.4,6.4,1.8,7.2,3.4c0.7,1.7-3.1,5.3-4.6,6.6c-0.3,0.3-0.4,0.7-0.3,1.2c1.6,4.2,7.2,23,9.3,30.1c0.1,0.4,0.4,0.7,0.8,0.7
	c7.9,1.6,15.7,3.6,23.4,6.2l0.1-0.2c1.3-3.5,2.7-7,4.2-10.6c0.3-0.7,1-0.9,1.5-0.7l1.7,0.7c2.3,0.9,4.7,1.9,7,2.9
	c0.5,0.2,1.2,0,1.4-0.5c3.3-7.5,6.6-15.1,9.8-22.6c3-6.9,6-14,9.1-21c0.1-0.3,0.4-0.6,0.8-0.6s0.7-0.1,1,0.1
	c2.2,1.1,4.5,2.4,6.8,3.7c0.6,0.3,1.3,0.1,1.5-0.5s0.5-1.1,0.7-1.7c0.9-2.1,2.1-4.3,3.1-6.6c0.1-0.3,0.4-0.6,0.8-0.6s0.7-0.1,1,0.1
	c1.9,0.9,3.9,2,5.7,3.1c2.6,1.3,5.2,2.8,7.8,4c3.4,1.7,6.2,3.1,8.9,4.1c0.3,0.1,0.6,0.3,0.7,0.6c0.1,0.3,0.1,0.7-0.1,1
	c-0.7,1.8-1.6,3.6-2.5,5.2c-0.6,1.3-1.2,2.6-1.9,4c-0.3,0.5-0.1,1.2,0.5,1.5c1,0.5,1.9,0.9,2.8,1.4c0.3,0.1,0.6,0.2,0.9,0.1
	c2.9-1.3,7.1,1.8,5.3,5.4c-4,8.4-9,16.3-13,24.7c-2,4.3-4.1,9.2-6.6,13.7c-0.3,0.5-0.1,1.1,0.3,1.4c2.9,1.9,6,3.8,9.1,5.6
	c0.3,0.1,0.6,0.4,0.6,0.8s0,0.6-0.1,0.8v0.1c-0.9,1.4-1.9,2.9-2.8,4.3c0,0.1-0.1,0.2-0.1,0.2c-0.4,1.2-1,2.5-1.5,3.5v0.1
	c-0.9,1.3-1.8,2.5-2.8,3.6c-0.1,0.2-0.2,0.4-0.3,0.6c-0.2,0.4-0.1,1,0.3,1.3c3.3,2.7,6.4,5.4,9.6,8.2c0.4,0.4,1,0.4,1.4,0
	c1.9-1.7,4.4-3.3,6.5-2.9c2.6,0.3,7.9,3.8,10.8,5.9c0.3,0.1,0.5,0.1,0.7,0.2c2.3-0.2,4.6-1.1,6.7-2.2c0,0,0.1,0,0.1-0.1
	c1-0.7,2.1-1.3,2.8-1.9c6.4-4,13.2-11.2,15-12.6c1.6-1.4,14.5-10.4,20.4-14.2c0,0,0.1,0,0.1-0.1c5.7-4.7,11.4-9.2,17.5-13.1
	c0-0.1,0.1,0,0.2-0.1c5.6-4.5,10.6-8.7,11.8-10c2.4-2,6.7-8.6,7.4-9.7c0.1-0.1,0.1-0.2,0.1-0.3c0.2-1,1.6-6.7,5.1-7.8h0.1
	c0.7-0.1,1.3-0.4,2-0.4c0.2-0.2,0.4-0.4,0.6-0.6c0.2-0.1,0.4-0.3,0.5-0.6c0.5-1.4,1.4-2.7,3-2.9c4-0.8,6.3-5.1,9.4-7.6
	c0.3-0.3,0.6-0.4,0.9-0.5c0.4-0.1,0.6-0.4,0.7-0.7c0.1-0.3,0.2-0.6,0.4-1c0.3-0.6,1.9-0.3,2.4-0.8c0.2-0.4,1.9,0,2.1-0.3l0,0
	c-0.5-1.3-0.4-2,0.2-2.5c0.5-0.5,0.4-1.3,0.9-1.8c0,0-0.2-0.2-0.1-0.2c0.7-0.8,1.4-1.4,2.5-1.5c0.1-0.3,0.1-0.6,0.3-0.9
	c0.5-1,1.2-1.6,2.1-2.3c0.4-0.3,0.8-0.6,1.2-0.8c0.4-0.3,0.8-0.5,1.1-0.7c0.4-0.2,0.6-0.7,0.5-1.1c-0.2-0.9-0.1-1.8,0.3-2.7
	c0.4-0.7,0.8-1.2,1.5-1.6c0.3-1.3,1.3-1.9,1.3-1.9c1.2-1.6,2.8-1.2,3.8-0.4c0.1,0.1,0.2,0.2,0.3,0.4l0.3,0.6
	c0.9-0.9,2.1-1.5,3.3-1.9c0.8-0.3,1.8-0.3,2.6-0.1c0.3,0.1,0.6,0,0.8-0.1c1.2-0.7,2.7-1,4.4-0.2c1.4,0.7,2.2,1.8,2.4,3.1
	c0.1,0.3,0.2,0.6,0.4,0.7c0.1,0.1,0.2,0.1,0.3,0.2c0.6,0.4,0.6,1.3,0,1.7l-1.4,1.1c0,0-0.1,0-0.2-0.1c-1.1,1.7-3,2.8-5.4,1.9
	c-0.2,0.2-0.6,0.5-1,0.5c-0.4,0.5-0.9,0.9-1.4,1.2v0.1c0,0.2-0.1,0.4-0.2,0.7c0,0.1,0,0.2-0.1,0.3c-0.5,1.8-1.6,3.5-1.8,3.5
	c-0.4,0.3-1,0.2-1.7-0.2c-0.6,0.1-1.3,0.2-2,0.1c-0.3,0.5-0.5,0.8-0.7,1.1l-0.1,0.1c-0.4,0.4-0.8,0.7-1.2,1
	c-0.2,0.2-0.8,0.4-1.1,0.5c-0.4,0.3-0.9,0.6-1.3,0.9c-0.5,0.5-1,0.8-1.7,1.1c-0.3,0.1-0.6,0.1-1,0.2c0,0.1-0.2,0.1-0.2,0.2
	c-0.3,0.7-0.7,1.5-1.3,1.9c-0.1,0.3-0.4,0.6-0.7,0.8c0-0.1,0.2-0.1,0.2-0.1c-0.2,0.2-0.6,0.6-0.9,0.8c-0.3,0.3-0.6,0.6-0.9,0.8
	c-0.3,0.6-0.6,1.1-1.1,1.7c-0.7,0.9-1.5,1.3-2.6,1.8c-0.1,0-0.3,0.1-0.4,0.1c-0.2,1.2-1,2.6-2.1,3.4c-2.2,1.8-3.8,4-5.9,5.8
	l-0.1,0.1c-1.2,1.4-1.9,2.5-2,2.6c-0.3,0.9-1.7,2.5-3.1,3.7c-1.5,1.3-2.1,4.1-2.2,5.2c0,0.1,0,0.3-0.1,0.4c0,0.8,0.9,1.4,1.6,0.9
	l2.2-1.3c0.1-0.1,0.2-0.2,0.3-0.3c0.5-0.7,2.8-3.6,3.2-4.3c0-0.1,0.1-0.1,0.1-0.2c0.4-0.5,2.1-2.3,2.4-2c0.3-0.1,4-0.6,4.2-0.4l0,0
	l0,0c0,0,4-7.9,4.2-7.5c0.1,0.3-0.2,6.1-0.1,9.1c0,0.8,0.9,1.3,1.6,0.9l3-1.5c1-0.5,2,0.7,1.3,1.6c-0.9,1.1-1.9,2.3-2.5,3.2
	c-0.5,0.6-0.1,1.5,0.6,1.7c2.2,0.4,5.6,1,6.8,1.4c0.3,0.1-3.8,1-6.3,1.6c-0.8,0.2-1.1,1.3-0.4,1.8l0.6,0.5c0.9,0.8,0,2.2-1.1,1.8
	l-0.1-0.1c-0.9-0.3-1.8,0.6-1.3,1.5c1.2,2.3,2.5,4.8,2.6,4.9c0.1,0.2-4-3.5-5.9-5.7c-0.1,0-0.1,0-0.2,0l0,0l0,0
	c-0.1,0-0.1,0-0.3,0.1c-0.7,0.9-2,2.2-2.7,2.3c-1,0.3-6.3,5.9-7.9,8c-0.2,0.3-0.2,0.6-0.2,0.9c0.4,1.7,0.6,3.5,0.1,4.8
	c-1.4,3.5-5.5,6-6.1,8.6c-0.4,1.8-0.3,4-0.2,5.3c0.1,0.6,0.5,1,1.1,0.9l4.4-0.2c0.5,0,1,0.3,1.1,0.8l1.7,8.1c0,0.2,0,0.4,0,0.6
	l-0.2,0.7c-0.1,0.4-0.4,0.6-0.8,0.7l-4.1,1c-0.3,0.1-0.6,0.3-0.7,0.6c-0.3,0.6-0.9,1.5-1.9,1.8c-1.5,0.4-4.7,1.2-6.3,0.7
	c-1.3-0.4-2.6-0.5-3.1-0.5c-0.1,0-0.2,0-0.3,0c-1.2,0.4-8.8,2.8-10.3,2.2c-1.3-0.6-3.5-1.5-4.5-2c-0.4-0.2-0.8-0.1-1.1,0.1
	c-2.7,2.3-13.5,12.9-14.6,12.5c-0.8-0.3-3.2,0.3-3.9,0.5c-0.1,0-0.3,0.1-0.4,0.2c-2,1.7-22.5,19-24.3,19c-0.7,0-1.5,0.1-2.1,0.3
	c-0.7,0.2-1,1-0.6,1.6c3.1,4.8,6.2,13.4,5.6,17.4c-0.3,2-2.5,3.4-4.6,4.2c-0.5,0.2-0.8,0.8-0.6,1.3c2.2,6.4,9.8,18.4,9.8,18.4
	c0-0.1,0.2-0.1,0.3-0.1c1.8-0.6,8,17.3,10.1,28.2c6.6,34.5,3.5,69.1-2.4,95c-2.3,10.1-6,25-11.1,33.9L3842.2,624.7z"/>
<path class="st6" d="M1604.4,82.7c2.4,26.8,4.9,54.2,16.1,78.7c11.2,24.4,87.8,44.5,135,152.5c68.9,157.5-3.5,165-19.8,191.7
	c-30.3,49.5-10.3,122.5-30.3,146.4c-31.9,38.2-72.8,38.2-107.7,40.4c-22.9,1.5-166.7,70.2-176.7,88.7s-14.1,39.6-22.9,58.7
	c-10.6,23-28.2,42.8-49.7,56.1c-4.1,2.6-9.6,1.7-12.6-2.1c0-0.1-0.1-0.1-0.1-0.2c-4.4-5.4-12.9-4.5-16.1,1.7
	c-15,29.2-29.7,58.6-44,88.2c-3.9,8,4.1,16.5,12.3,13.2c33.4-13.5,64.4-33.3,90.6-58.1c15.3-14.4,32.1-31.8,53-30.2
	c17.7,1.4,30.1,15.6,39.4,31.6c3.7,6.3,12.6,6.5,16.5,0.4c19.6-30.6,50.3-54,85.1-64.3c33.7-10,70.9-7.5,103.2,6.3
	c6.5,2.8,13.5-2,13.5-9c-0.1-19.7,14.4-40.2,33.1-49c18.2-8.6,38.6-9.3,58.9-7.8c7.8,0.6,13-7.9,9-14.7
	c-18.2-30-19.6-70.3-1.5-100.6c18.1-30.4,54.3-48.4,89.4-46.5c7.5,0.4,12.5-7.5,9.1-14.1c-22-42.3-12.5-100.1,22.8-132.3
	c4.5-4.1,4.1-11.3-0.9-14.9c-22.5-16.2-29.6-52.4-13.6-75.2c2.5-3.6,2.3-8.5-0.6-11.8c-17.7-20.4-25.2-49.3-19.1-75.7
	c4.8-20.8,17.9-39.5,35.5-51.6c6.3-4.3,5.3-13.9-1.7-16.9c-39.8-16.5-66.7-63.7-57.3-106.1c0.9-4.3-1.1-8.7-5-10.7
	c-45.7-24.2-65.2-89.5-38.3-134.1c-3.7,12.4-17.6,18-30,21.8c-27.1,8.3-55.9,15.4-83.5,9.3c-19.3-4.2-37.7-16.7-47.1-33.5
	c-3.8-6.8-13.5-6.8-17.1,0.1c-9.9,19.1-22.7,36.8-37.9,52.1c-3.9,3.9-3.8,10.4,0.4,14.1c6.8,5.9,11.3,14.7,11.6,23.8"/>
<g>
	<path class="st7" d="M3816.7,263.1c-3.3-2.9-7.1-4.9-11.7-5.9c-2.8-0.6-4,2.3-3,4.3c-0.5,0.5-0.6,1.3,0,1.8
		c5.2,4.7,12,7.5,17.8,11.4c2.3,1.5,4.5-1.7,3.4-3.7c-0.3-0.4-0.5-0.8-0.8-1.2c2.9-0.8,2.3-6-1.4-6
		C3819.6,263.8,3818.1,263.5,3816.7,263.1z"/>
	<path class="st1" d="M3783.9,314.9c0.2-1.5-0.9-3.1-2.5-2.9c-1,0.2-2.3-0.2-3.2-0.7c-1.7-0.8-3.3,1.4-1.8,2.7
		c1.3,1,2.6,1.8,4.2,2.5C3781.8,317.2,3783.5,316.4,3783.9,314.9z"/>
	<path class="st1" d="M3799.7,322.8c1.8-1.3,1.9-3.9,0.1-5.1c-0.7-0.5-1.8-0.7-2.6-0.4c-1,0.4-1.6,1.1-2,2.1v0.1c0,0,0,0,0,0.1
		s-0.2,0.1-0.2,0.1c-0.8,0.4-1,1.4-1,2.2c0.2,0.9,0.9,1.5,1.7,1.7C3796.9,324,3798.5,323.8,3799.7,322.8z"/>
	<path class="st1" d="M3799,306.3c-0.8,0.5-1.3,1.7-0.9,2.7s1.3,1.6,2.4,1.5c0.9-0.1,1.7-0.1,2.4-0.2c1.8-0.2,3-2,2.6-3.7
		c-0.6-1.8-2.7-2.5-4.3-1.6C3800.4,305.5,3799.7,305.9,3799,306.3z"/>
	<path class="st1" d="M3787.9,301.5L3787.9,301.5L3787.9,301.5z"/>
	<path class="st1" d="M3788.8,295.8c-1.4,0-2.4,0.5-3.3,1.5c-0.6,0.6-1.2,1.6-1.3,2.5c0,1,0.4,2,1.3,2.3c0.8,0.3,1.7,0,2.2-0.6l0,0
		c0.4,0,0.9-0.1,1.4,0c1.5,0,2.6-1.4,2.5-2.9C3791.5,296.9,3790.4,295.9,3788.8,295.8z"/>
	<path class="st1" d="M3804.5,292.6c-0.2,0.2-0.4,0.5-0.5,0.7c-0.4,0.5-0.8,1-1.2,1.2c-0.6,0.6-0.7,1.8-0.3,2.4
		c0.4,0.9,1.2,1.3,2.1,1.3c0.8,0.1,1.6,0,2.4-0.3c0.7,0,1.3-0.2,1.8-0.5c0.9-0.6,1.4-1.4,1.6-2.4s-0.2-2.4-1-3c-1-0.8-2-1-3.2-0.7
		C3805.5,291.6,3804.9,292.1,3804.5,292.6z"/>
	<path class="st1" d="M3792.3,284.1c-1.2,1-2.3,1.6-3.8,2.1c-2,0.7-1.3,3.4,0.6,3.4c1.8,0.1,3.7-0.3,5.4-0.7
		c1.6-0.5,2.3-2.3,1.5-3.8C3795.5,283.9,3793.5,283,3792.3,284.1z"/>
	<path class="st1" d="M3796,274.4c-1,0.5-1.7,1.4-1.5,2.5c0.3,1.2,1.2,1.8,2.3,1.8c-0.2,0,0.5,0.2,0.3,0.1c0.1,0,0.3,0.1,0.4,0.2
		c0.2,0.1,0.4,0.2,0.6,0.3c-0.5-0.3,0.4,0.3,0.5,0.4c1,0.9,2.4,0.8,3.4,0c1-0.7,1.3-2.4,0.5-3.4c-0.8-1.2-1.8-2-3.1-2.4
		C3798.3,273.8,3797.1,273.9,3796,274.4z"/>
	<path class="st1" d="M3813.2,284.4l0.8,0.4c1.1,0.6,2.3,0.1,2.9-0.9c0.5-1.1,0.1-2.3-0.9-2.9l-0.8-0.4c-1.1-0.6-2.3-0.1-2.9,0.9
		C3811.8,282.6,3812.2,283.8,3813.2,284.4z"/>
	<path class="st1" d="M3825.6,279.9c-4.1,8.6-9,16.7-12.6,25.6c-1.7,4.3-3.4,8.7-5,13.1c-1.3,3.4-2.8,6.8-3.9,10.3
		c-3.8-0.6-7.5-1.1-11-2c-7.4-1.8-14.7-4.4-21.8-7.7c-1.3-0.6-2.2,1.2-1,2c6.6,3.8,13.5,7.1,20.5,9.8c0.2,0.1,0.6,0.2,0.7,0.3
		c-0.5,1.2-0.5,2.6,0.7,3.6c4,3.3,7.7,7.6,12.6,9.7c2.5,1.1,4.4,0.9,6,0c-0.2,0.5-0.1,0.8-0.1,1.3c0.2,0.9,1.1,1.6,2,1
		c1.1-0.8,1.7-2.1,2.5-3.1c0.9-1.3,1.9-2.5,2.8-3.8c1.6-2.5,2.9-5.9,1.1-8.7c-0.5-0.6-1.2-1.2-2-1.3c-1.4-1.4-2.7-2.5-3.9-4
		c-1-1.2-3.2,0.6-2.2,1.9c0.9,1.1,1.8,2,2.7,3c-0.1,0-0.2-0.1-0.3-0.1c-1.7-0.4-3.5-0.9-5.3-1.2c5-5.9,8.3-14,11.4-20.7
		c4.1-8.6,9.2-16.6,13.3-25.2C3835.1,278.8,3827.9,275.2,3825.6,279.9z"/>
	<path class="st8" d="M3822.1,277.2c-0.3,0.6-1.1,0.9-1.7,0.6c0.2,0.1,0.4,0.2,0.6,0.3c3.2,1.6,6.1,3,9.1,4.3
		c-4,7.7-8,15.6-11.9,23.1c-3,5.8-5.9,11.8-9,17.6c-0.3,0.6-0.1,1.3,0.4,1.7c3.1,2,6.7,4.4,10.4,6.5c-2.8,4.1-5.8,8.8-8.2,13.7
		c-0.2,0.4-0.4,0.8-0.6,1.4c-0.3,0.6,0,1.4,0.6,1.7s1.5,0,1.7-0.6c0.1-0.3,0.3-0.6,0.5-0.9c2.6-5.4,6-10.4,9-14.9v-0.1
		c0.1-0.3,0.2-0.6,0.1-0.8c-0.1-0.3-0.3-0.7-0.5-0.9c-3.6-2.1-7.2-4.3-10.4-6.5c2.9-5.6,5.8-11.1,8.4-16.6c4-7.9,8.3-16.3,12.5-24.3
		c0.1-0.3,0.2-0.7,0-1c-0.1-0.3-0.4-0.6-0.6-0.7c-3.1-1.5-6.3-2.9-9.8-4.7C3822.5,276.5,3822.3,276.8,3822.1,277.2z"/>
	<path class="st8" d="M3754,314.7l0.5-1.2l0.5-1.1c1.2-3.2,2.5-6.4,3.8-9.6l0.6,0.2c2.9,1.3,6.2,2.5,9.2,4c0.3,0.1,0.7,0.2,1,0
		c0.3-0.1,0.6-0.4,0.7-0.6c3.8-8.3,7.5-16.9,11.1-25.2c2.9-6.6,5.8-13.5,8.7-20.2c2.8,1.5,5.8,3.2,8.8,4.8
		c7.1,3.9,14.5,8.1,21.9,11.8c-0.6-0.3-0.8-1-0.6-1.7c0.2-0.4,0.4-0.8,0.5-1.2c-6.9-3.6-13.8-7.3-20.3-11c-0.1,0.3-0.4,0.7-0.5,1.1
		c-0.3,0.6-1.1,0.9-1.7,0.6s-0.9-1.1-0.6-1.7c0.2-0.4,0.3-0.8,0.6-1.3c-2.6-1.4-5.3-2.9-7.9-4.3c-0.3-0.1-0.7-0.2-1,0
		c-0.3,0.1-0.6,0.4-0.7,0.6c-3.1,7.2-6.3,14.3-9.3,21.5c-3.4,7.9-6.9,16.1-10.4,23.9c-2.7-1.3-5.5-2.3-8.1-3.5l-1.6-0.6
		c-0.7-0.2-1.4,0-1.7,0.6c-1.4,3.6-3,7.3-4.3,10.8l-0.5,1.1l-0.5,1.2c-0.2,0.6,0,1.2,0.7,1.5h0.1h0.1
		C3753.1,315.7,3753.8,315.3,3754,314.7z"/>
	<path class="st8" d="M3797.8,265.5c0.6,0.3,1.4,0,1.7-0.6c0.1-0.3,0.4-0.7,0.5-1.1c0.4-0.9,1-2,1.4-2.9c0.9-1.8,1.8-3.7,2.5-5.6
		c1.5,0.8,3.1,1.6,4.6,2.4c2.6,1.4,5.3,2.8,8,4.2c3,1.6,5.7,2.8,8.1,3.8c-0.6,1.4-1.3,2.8-2,4.1c-0.8,1.7-1.6,3.3-2.3,4.9
		c-0.2,0.4-0.4,0.8-0.5,1.2c-0.3,0.6-0.1,1.3,0.6,1.7c0,0,0,0,0.1,0c0.7,0.2,1.3,0.1,1.7-0.6c0.2-0.4,0.4-0.7,0.5-1.2
		c0.8-1.7,1.6-3.3,2.4-5.1c0.9-1.8,1.7-3.5,2.6-5.3c0.1-0.3,0.2-0.7,0-1c-0.1-0.3-0.4-0.6-0.7-0.6c-2.8-1.2-5.8-2.5-9.2-4.3
		c-2.7-1.4-5.3-2.8-8-4.2c-1.9-1.1-3.9-2-5.8-3.1c-0.3-0.1-0.7-0.2-1,0c-0.3,0.1-0.6,0.4-0.7,0.6c-1,2.2-2,4.6-3,6.8
		c-0.4,0.9-0.9,1.9-1.3,2.8c-0.2,0.4-0.4,0.8-0.6,1.3C3796.9,264.4,3797.2,265.3,3797.8,265.5z"/>
	<path class="st8" d="M3782.7,319.2c0.3-0.1,0.6-0.4,0.7-0.6c0.5-1.2,1.1-2.5,1.8-3.7c0.6-1.1,1.2-2.1,1.7-3.2v-0.1
		c0.1-0.3,0.2-0.6,0.1-0.8c-0.1-0.3-0.4-0.6-0.6-0.7l-0.4-0.2c-0.9-0.5-1.9-1.1-2.8-1.5c-1.1-0.6-1.9-1.1-3-1.6
		c-0.5-0.3-0.9-0.5-1.5-0.7c-0.6-0.3-1.3-0.1-1.7,0.6l-0.6,1.1c-1.1,1.8-2.1,3.6-3.1,5.6l-0.1,0.2c-0.1,0.3-0.2,0.7,0,1
		c0.1,0.3,0.4,0.6,0.6,0.7c1.4,0.6,2.6,1.2,4,1.9c1.3,0.7,2.6,1.3,3.9,2.1C3782,319.1,3782.4,319.2,3782.7,319.2z M3778.8,308.9
		L3778.8,308.9c0.1,0,0.2,0,0.3,0.1c0.9,0.5,1.9,1.1,2.9,1.5c0.7,0.4,1.4,0.8,2.1,1.2c-0.4,0.7-0.7,1.3-1.2,2.1
		c-0.4,0.8-0.8,1.7-1.3,2.5c-0.9-0.5-1.8-1-2.7-1.5c-0.9-0.5-1.9-0.9-2.8-1.4C3777,311.8,3777.8,310.4,3778.8,308.9z"/>
	<path class="st8" d="M3784.1,304.3l1.2,0.7c1.1,0.6,2.2,1.1,3.3,1.6c0.7,0.2,1.3,0.1,1.7-0.6c1.1-2.2,2.2-4.6,3.1-6.6
		c0.3-0.6,0.1-1.3-0.6-1.7c-0.6-0.3-1.2-0.7-1.9-0.9c-2.1-1-4.5-2.2-6.9-3.1c-0.6-0.2-1.2,0-1.5,0.7c-0.2,0.4-0.4,0.8-0.7,1.2
		c-0.5,0.9-1.1,1.9-1.5,2.8c-0.4,0.9-0.9,1.8-1.2,2.5c-0.1,0.3-0.2,0.7,0.1,0.9c0.1,0.3,0.4,0.5,0.7,0.6
		C3781.2,302.8,3782.7,303.5,3784.1,304.3z M3782.2,299.3c0.5-0.9,1-1.8,1.5-2.7c0-0.1,0.1-0.2,0.1-0.3c2,0.9,4,1.9,5.8,2.6
		c0.3,0.1,0.5,0.3,0.8,0.4c-0.6,1.4-1.3,2.8-2,4.3c-0.6-0.3-1.3-0.6-2-1l-1.2-0.7c-1.1-0.6-2.4-1.2-3.5-1.7
		C3781.8,300.1,3782,299.6,3782.2,299.3z"/>
	<path class="st8" d="M3792.5,293.9l1.5,0.7c0.6,0.3,1.3,0.1,1.7-0.6c1.2-2.4,2.3-4.8,3.1-6.9c0.1-0.3,0.2-0.7,0-1
		c-0.1-0.3-0.4-0.6-0.7-0.6c-2.7-0.9-5.2-2.2-7.7-3.3l-1.2-0.5c-0.3-0.1-0.7-0.2-0.9,0.1c-0.3,0.1-0.6,0.4-0.7,0.6
		c-0.3,0.5-0.5,0.9-0.7,1.5l-0.8,1.7c-0.7,1.2-1.3,2.5-1.8,3.9c-0.1,0.3-0.1,0.6,0.1,0.9c0.1,0.3,0.4,0.5,0.7,0.6
		C3787.5,291.7,3790.1,292.9,3792.5,293.9z M3788.2,286.3l0.8-1.7c0-0.1,0.1-0.3,0.2-0.4h0.1c2.1,1,4.4,2.1,6.7,3
		c-0.7,1.5-1.5,3.1-2.1,4.5l-0.4-0.2c-2.1-1-4.2-2-6.6-2.8C3787.4,288.1,3787.8,287,3788.2,286.3z"/>
	<path class="st8" d="M3799.2,282.9c0.6,0.2,1.2,0,1.5-0.7c0.2-0.4,0.4-0.7,0.6-1.1c0.9-1.8,1.8-3.7,2.6-5.8c0.3-0.7,0-1.4-0.6-1.7
		l-2.2-1c-2.2-1-4.5-1.9-6.7-3c-0.3-0.1-0.7-0.2-1,0c-0.3,0.1-0.6,0.4-0.7,0.6c-0.4,0.9-0.8,1.9-1.2,2.8c-0.6,1.6-1.3,2.9-2.1,4.4
		c-0.1,0.3-0.2,0.7,0,1c0.1,0.3,0.4,0.6,0.7,0.7c1.6,0.6,3.2,1.2,4.8,1.8C3796.5,281.9,3797.9,282.4,3799.2,282.9z M3793.9,274.2
		c0.2-0.6,0.5-1.1,0.6-1.5c1.8,0.9,3.7,1.7,5.5,2.5l1.1,0.5c-0.7,1.5-1.5,3.2-2.2,4.6c-0.9-0.4-2.1-0.8-3-1.1
		c-1.2-0.5-2.3-0.9-3.5-1.3C3793.1,276.5,3793.4,275.4,3793.9,274.2z"/>
	<path class="st8" d="M3793.1,324.9l1.1,0.6c0.8,0.4,1.7,0.8,2.5,1.3c0.7,0.2,1.3,0.1,1.7-0.6c0.5-0.9,1.1-1.9,1.5-2.9
		c0.8-1.5,1.6-3.2,2.4-4.6c0.1-0.3,0.2-0.7,0-1c-0.1-0.3-0.4-0.6-0.6-0.7c-1.2-0.5-2.3-1-3.5-1.7c-1.3-0.7-2.7-1.5-4.1-2.3
		c-0.3-0.1-0.7-0.2-0.9-0.2c-0.3,0.1-0.6,0.4-0.7,0.6c-0.5,0.9-1.1,1.9-1.5,2.8c-1,1.8-2,3.6-2.6,5.2c-0.1,0.3-0.2,0.7,0,1
		c0.1,0.3,0.4,0.6,0.8,0.7C3790.4,323.5,3791.8,324.2,3793.1,324.9z M3793,317.4c0.3-0.6,0.6-1.1,1-1.8c1.1,0.6,2.1,1.2,3.2,1.7
		c0.8,0.4,1.7,0.8,2.4,1.2c-0.6,1.1-1.2,2.4-1.8,3.5c-0.3,0.6-0.7,1.2-1,1.8c-0.4-0.2-0.8-0.4-1.4-0.6l-1.1-0.6
		c-1.1-0.6-2.1-1-3.3-1.6C3791.6,320,3792.3,318.6,3793,317.4z"/>
	<path class="st8" d="M3794.8,307.5c-0.1,0.3-0.3,0.7,0,1c0.1,0.3,0.4,0.6,0.7,0.6c1.3,0.6,2.6,1.2,3.8,1.8l1.2,0.7
		c0.9,0.5,2.1,1,3.3,1.6c0.3,0.1,0.7,0.2,0.9-0.1c0.3-0.1,0.6-0.4,0.6-0.6v-0.1c0.3-0.7,0.7-1.5,1.1-2.5c0.4-0.7,0.8-1.4,1.2-2.2
		c0.4-0.7,0.8-1.5,1.2-2.2c0.1-0.3,0.2-0.7,0-1c-0.1-0.3-0.4-0.6-0.6-0.7c-1.3-0.6-2.6-1.2-3.9-1.9c-1.5-0.7-2.9-1.4-4.4-2.1
		c-0.6-0.3-1.3-0.1-1.7,0.6L3794.8,307.5z M3805.4,306.7c-0.4,0.7-0.8,1.5-1.2,2.2c-0.3,0.5-0.5,0.9-0.7,1.5c-0.7-0.4-1.4-0.6-2-1
		l-1.2-0.7c-0.8-0.4-1.8-0.9-2.7-1.4l2.4-4.7c1.2,0.5,2.2,1.1,3.3,1.6c0.9,0.5,1.8,0.9,2.7,1.3
		C3805.8,306,3805.7,306.2,3805.4,306.7z"/>
	<path class="st8" d="M3802.1,293.3c-0.5,0.9-0.9,1.8-1.2,2.5c-0.2,0.6,0,1.2,0.7,1.5c0.4,0.2,0.9,0.5,1.3,0.7
		c1.9,0.9,3.7,1.7,5.5,2.5c0.6,0.2,1.1,0.5,1.6,0.6c0.6,0.2,1.3,0.1,1.7-0.6c0.2-0.4,0.5-0.9,0.7-1.3c0.6-1.1,1.2-2.4,1.7-3.5
		c0.5-1.2,1-2.3,1.7-3.4c0.1-0.3,0.2-0.7-0.1-1.1c-0.3-0.4-0.5-0.6-0.8-0.7c-1.7-0.4-3.5-1-5.2-1.7c-0.9-0.4-2.1-0.8-3-1.1
		c-0.6-0.2-1.2,0.1-1.5,0.7c-0.3,0.6-0.7,1.3-1.1,2C3803.2,291.3,3802.6,292.3,3802.1,293.3z M3808.5,291.3c1.3,0.5,2.7,1.1,4.2,1.5
		c-0.4,0.7-0.7,1.5-1,2.2c-0.6,1.3-1.2,2.5-1.8,3.7c-0.2-0.1-0.4-0.2-0.6-0.2c-1.8-0.8-3.7-1.4-5.4-2.4c-0.1,0-0.2-0.1-0.3-0.1
		c0.6-1.3,1.4-2.8,2.2-4.2c0.2-0.4,0.4-0.7,0.6-1.1C3807.3,290.7,3807.9,290.9,3808.5,291.3z"/>
	<path class="st8" d="M3807.6,283.6c-0.1,0.3-0.2,0.7,0,1c0.1,0.3,0.4,0.6,0.6,0.7c1.3,0.6,2.7,1.1,4.1,1.5s2.7,0.9,4,1.5
		c0.7,0.2,1.3,0.1,1.7-0.6l0.3-0.6c0.4-0.8,0.9-1.7,1.3-2.5c0.4-0.7,0.7-1.5,1.1-2.2c0.1-0.3,0.2-0.7,0-1c-0.2-0.3-0.4-0.6-0.6-0.7
		c-1.3-0.6-2.7-1.1-4-1.6c-1.2-0.5-2.3-0.9-3.5-1.3c-0.6-0.2-1.2,0-1.6,0.5C3809.4,280.4,3808.5,282.1,3807.6,283.6z M3816.1,285.7
		c-0.9-0.4-2.1-0.8-3-1.1c-0.8-0.3-1.8-0.7-2.7-0.9c0.5-0.9,1.1-1.9,1.8-3c0.8,0.3,1.8,0.7,2.6,1.1c0.8,0.3,1.8,0.8,2.7,1.1
		C3817,283.7,3816.6,284.6,3816.1,285.7z"/>
	<path class="st7" d="M3541.8,268.1L3541.8,268.1c0.8,0.7,1.9,1.1,3.1,0.4c4.6-2.8,8.9-6.8,13.6-9.5c0.5-0.3,1-0.4,1.7-0.6
		c0.5-0.3,1-0.5,1.2-1c2.5-1.7-0.2-5.8-3.1-4.2c-1.2,0.7-2.3,1.3-3.4,2.1c-2.5,0.9-4.7,2.2-6.6,3.9c-3.2,1.9-5.9,4.3-7.8,7.6
		C3539.7,267.6,3540.8,268.7,3541.8,268.1z"/>
	<path class="st1" d="M3591.6,321.3c-2.4,3.4-6.3,4.4-9.7,6.4c-0.7-0.2-1.4-0.1-2,0.6c-2.7,2.8-4.7,6.4-7.6,9.2
		c-0.8,0.9,0.4,2.5,1.5,1.7c3.2-2.2,5.6-5.4,8.7-7.8c0.2-0.2,0.5-0.5,0.7-0.8c2.1-0.7,4.2-1.1,6.5-1.7c2.4-0.8,5.5-2,6.7-4.4
		C3597.4,321.8,3593.6,318.5,3591.6,321.3z"/>
	<path class="st1" d="M3607.1,322.6c0.2-0.4,0.3-0.7,0.4-1.1c1.7-0.4,2.6-2.1,2.2-3.7c3.3-0.1,6.6-0.7,9.6-1.6
		c2.9-0.8,1.5-5.1-1.5-4.4c-4.2,1.1-8.1,2.4-12.2,3.2c-2.1-0.4-4.4,0.1-6.3-0.4c-1.4-0.4-2.2,1.4-1.2,2.4c0.4,0.5,0.9,0.8,1.3,1.1
		c0,0.1-0.1,0.3-0.2,0.4C3596.9,323.6,3604.5,327.5,3607.1,322.6z"/>
	<path class="st1" d="M3606.1,307.8c-1.4-0.1-2.1,2-0.6,2.5c1.8,0.7,4.4,0.8,5.8-0.4c1.2-1,0.4-3.2-1.2-3c-0.9,0.1-1.5,0.6-2.2,0.7
		C3607.4,307.7,3606.7,307.8,3606.1,307.8z"/>
	<path class="st1" d="M3609.1,303.7c0.3-0.1,0.7,0,1-0.1c0.1,0,0.2,0,0.4,0c0,0,0,0,0.1,0l0,0c0.2,0,0.6,0.1,1,0
		c1.4,0.1,2.5-0.9,2.6-2.2c0-1.4-1.2-2.4-2.6-2.3c-1.6,0.2-3,0.7-4.4,1.5c-0.8,0.5-1.4,1.4-1,2.2c0.4,1,1.3,1.1,2.2,1
		C3608.5,303.8,3609,303.6,3609.1,303.7z"/>
	<path class="st1" d="M3575.5,319.8c0.2-0.2,0.5-0.7,0.7-1.1c0.1,0,0.2-0.2,0.4-0.3c0.2-0.1,0.3-0.4,0.4-0.7
		c0.2-0.7,0.3-1.6-0.1-2.2c0-0.6-0.4-1.1-0.8-1.5c-0.7-0.5-2-0.5-2.5,0.2c-0.4,0.5-0.6,0.8-0.9,1.4c0,0.1-0.1,0.3-0.2,0.5
		c0,0,0,0,0,0.1s-0.3,0.5-0.2,0.4c-0.5,0.7-0.7,1.8,0.1,2.5c0.4,0.3,0.8,0.4,1.2,0.5C3574,320.3,3574.8,320.5,3575.5,319.8z"/>
	<path class="st1" d="M3584.9,312.4c0.8,0.3,1.7,0,2.2-0.6c0.1-0.3,0.4-0.7,0.6-1.1c0.4-0.8,0.1-1.9-0.7-2.2
		c-0.8-0.3-1.9-0.1-2.2,0.7c-0.1,0.3-0.3,0.7-0.5,1.1C3583.8,311.1,3584.1,312,3584.9,312.4z"/>
	<path class="st1" d="M3593.3,304.9c-0.2,0.5-0.1,0.8,0.2,1.3c0.2,0.3,0.5,0.8,0.9,1.1c0.5,0.3,1,0.3,1.7,0.1c0.8-0.1,1.5-0.7,2-1.2
		c1-1.2,0.7-3-0.6-3.7c-1.3-0.7-2.9,0.1-3.3,1.5C3593.6,304.2,3593.4,304.4,3593.3,304.9z"/>
	<path class="st1" d="M3576.1,299.3c-0.2,0.7,0,1.4,0.7,1.9c0.5,0.4,1.4,0.5,1.9,0c0-0.1,0.2-0.1,0.3-0.2c0.2-0.1,0.3-0.2,0.5-0.4
		c0-0.1,0.2-0.1,0.2-0.1s0-0.1,0.1,0c1-0.4,1.8-1.5,1.3-2.6c-0.4-1-1.5-1.8-2.6-1.3C3577.4,296.9,3576.1,297.8,3576.1,299.3z"/>
	<path class="st1" d="M3566.8,309.5c1.5-0.6,2.7-1.6,3.3-3.1c0.4-1.1,0.1-2.3-1.1-2.9c-1.1-0.4-2.4,0.3-2.6,1.4c0,0.1,0,0.2-0.1,0.3
		l0,0c0,0.1-0.1,0.3-0.1,0.3c0,0.1-0.1,0.2-0.2,0.2l-0.4,0.3C3563.6,307.3,3565,310.1,3566.8,309.5z"/>
	<path class="st1" d="M3560.8,294.6c0.8-0.1,1.6-0.2,2.3-0.6c1.4-0.4,2.1-2.2,1.5-3.4c-0.7-1.4-2.2-1.8-3.6-1.1l0,0
		c-0.1,0-0.1,0-0.3,0.1c-0.3,0.1-0.5,0.3-0.9,0.3c-0.3,0.2-0.8,0.2-1.1,0.4c0,0.1-0.1,0-0.1,0c-0.1,0-0.2,0.1-0.3,0.1
		c-0.9,0.3-1.5,1-1.3,2c0.1,0.9,0.7,1.6,1.5,1.8C3559.2,294.5,3560,294.7,3560.8,294.6z"/>
	<path class="st1" d="M3568.8,284.6c-0.9,0.3-1.4,1.2-1.2,2.1c0,0.4,0.2,0.8,0.5,1.1c0.4,0.3,0.7,0.4,1.1,0.5c0.1,0,0.1,0,0.1,0.2
		c0.9,1.1,2.7,0.7,3.4-0.4c0.4-0.5,0.5-1.1,0.3-1.6c-0.2-0.7-0.6-1.4-1.1-1.5C3570.9,284.3,3569.7,284.1,3568.8,284.6z"/>
	<path class="st1" d="M3572.2,255.1c-0.7,3,0.6,6.2,2.2,9.1c-0.7-0.2-1.5-0.2-2.2-0.1c-0.7,0.2-1.2,0.9-1.1,1.7
		c0,0.7,0.6,1.4,1.3,1.5c0.1,0,0.2,0,0.3,0.1h0.1c0,0,0,0,0.1,0c1,0.8,2.2,0.5,2.8-0.3c0-0.1,0.1-0.3,0.2-0.4
		c0.2,0.3,0.4,0.6,0.5,0.9c2.2,3.5,3.8,7.1,5.7,10.8c-0.4-0.2-1-0.3-1.6-0.1c-0.5,0.3-1,0.4-1.5,0.7c-0.5,0.3-0.9,0.4-1.2,0.9
		c-0.2,0.4-0.3,1-0.1,1.5c0.1,0.4,0.5,1,0.9,1.2c0.5,0.3,0.9,0.3,1.5,0.1c0.6,0,1-0.2,1.6-0.2c0.4-0.1,1-0.6,1.2-1
		c0-0.1,0.1-0.2,0.1-0.3c0.7,1.8,1.7,3.4,2.4,5.2c0.8,1.6,1.7,3.6,2.8,5.5c-0.1,0-0.1,0-0.2,0c-0.9,0.1-1.7,0.6-2.2,1.4
		c-0.4,0.7-0.2,1.6,0.3,2.1c0.4,0.3,0.7,0.5,1.2,0.7c0.1,0,0.3,0.1,0.4,0.2c0.8,0.3,2,0.3,2.7-0.5c0-0.1,0.1-0.2,0.1-0.3
		c1.4,2.2,3.1,4.1,5.2,5.3c2.6,1.5,3.6,1.1,5.9-0.1c0.1,0,0.2,0,0.7,0c0.6,0,1.1-0.2,1.8-0.4c1.3-0.2,2.6-0.5,3.9-0.9
		c2.7-0.8,1.4-4.6-1.2-4c-1.9,0.4-3.6,1.4-5.7,1.8c0,0,0,0-0.1,0c-0.4-0.3-0.8-0.6-1.4-0.6c-0.9-0.4-1.8-0.7-2.6-1.4
		c-3.8-3.5-6.6-9-8.9-13.2c-2.7-4.8-5.2-9.8-8.2-14.3c-2.3-3.2-6.7-7.7-6.3-11.9C3573.8,254.6,3572.6,254.3,3572.2,255.1z"/>
	<path class="st1" d="M3559.3,273.4c-0.2,0.4-0.3,1-0.1,1.5c0.1,0.4,0.5,0.8,0.9,1.2c0.3,0.1,0.7,0.5,1,0.7c0.4,0.2,1.2,0.3,1.6,0.1
		c0.4-0.1,1-0.5,1.2-1s0.3-1,0.1-1.6c-0.1-0.4-0.5-1-1-1.2c-0.3-0.1-0.7-0.3-1.1-0.5c-0.5-0.2-0.9-0.3-1.5-0.1
		C3560,272.6,3559.5,273,3559.3,273.4z"/>
	<path class="st1" d="M3553.7,279.7c1,0,2-1.2,1.9-2c-0.1-1-1-2.1-2-1.9c-1.1,0.1-2.1,0.3-3.1,0.7c-0.8,0.2-1.3,1.1-1.2,2
		c0.1,0.8,0.9,1.5,1.8,1.3C3551.9,279.6,3552.8,279.6,3553.7,279.7z"/>
	<path class="st1" d="M3613.6,295.4c0.2-0.9-0.7-2-1.8-1.8c-0.4,0.1-0.9,0.2-1.3,0.3s-1,0.5-0.9,1.1c-0.1,0.5,0.2,1,0.8,1.2
		c0.5,0.2,0.8,0.3,1.2,0.5C3612.5,297,3613.6,296.5,3613.6,295.4z"/>
	<path class="st8" d="M3622.7,315.7c-0.1,0.2-0.4,0.5-0.6,0.6c-0.7,0.2-1.3-0.1-1.3-0.7c-0.1-0.3-0.3-0.7-0.3-1.1
		c-6.7,1.9-13.2,4.3-19.5,7c0.1,0.3,0.3,0.7,0.3,1.1c0.1,0.3,0,0.6-0.1,0.8c-0.1,0.2-0.4,0.5-0.5,0.5c-0.5,0.3-1.1,0-1.4-0.6
		c-0.1-0.3-0.2-0.7-0.3-1c-5.3,2.3-10.4,5.1-15.5,8.1c0.2,0.3,0.3,0.7,0.5,1c0.3,0.5,0.1,1.2-0.5,1.5s-1.2,0.1-1.5-0.5
		c-0.2-0.3-0.4-0.6-0.4-0.9c-7,4.2-13.6,9-19.9,14.3c0.2,0.2,0.5,0.5,0.6,0.9c0.4,0.5,0.3,1.1-0.1,1.5c-0.5,0.4-1.1,0.3-1.5-0.1
		c-0.2-0.2-0.5-0.5-0.6-0.9c-3.7,3.2-7.5,6.6-10.8,10.1c0.3,0.1,0.6,0.4,0.8,0.6c0.5,0.4,0.5,1,0.3,1.3v0.1
		c6.3-6.5,13.2-12.4,20.6-18c20.9-15.4,44.9-25.5,69.1-29c0.4,0,0.7-0.3,0.9-0.5c0.1-0.2,0.2-0.5,0.1-0.6c0-0.6-0.6-1-1.2-0.9
		c-5.7,0.9-11.3,2-16.9,3.5c0.1,0.3,0.2,0.7,0.3,1C3622.9,315.1,3622.8,315.5,3622.7,315.7z"/>
	<path class="st8" d="M3573.1,251.4c-0.3-0.1-0.6-0.1-0.9,0.2c-1.6,1-3.2,1.8-4.7,2.8c0.2,0.1,0.5,0.4,0.7,0.5
		c0.4,0.3,0.4,0.9,0.2,1.3c0,0.1-0.1,0.2-0.1,0.2c-0.4,0.5-1,0.5-1.5,0.1c-0.4-0.3-0.8-0.7-1.2-0.9c-2.2,1.4-4.5,2.6-6.7,4.1
		c-6,3.5-12.3,7.3-18.4,11.1c0,0.7,0,1.2,0.1,1.7c0,0.6-0.4,1.1-0.9,1.2c-0.5,0.1-1.1-0.4-1.2-0.9c0-0.2,0-0.4,0-0.7
		c-1.1,0.8-2.2,1.4-3.4,2.2c-0.5,0.4-0.7,1-0.3,1.6c3.7,6,7.6,11.8,11.5,17.5c0.6,1,1.4,1.9,1.9,2.9l0,0c0.2-0.2,0.6-0.4,1-0.5
		c0.6-0.4,1.1-0.2,1.6,0.3c0.2,0.3,0.2,0.8,0.1,1.1c-0.1,0.2-0.1,0.3-0.4,0.5c-0.2,0.2-0.6,0.4-0.9,0.5c5,7.7,10.1,15.6,15,24.1
		c-5.2,3.6-10.6,6.7-15.4,9.2c-0.2,0.1-0.5,0.4-0.5,0.7c-0.1,0.3,0,0.7,0.2,0.9c2.8,4,5.9,7.7,8.9,11.4c0.6,0.9,1.5,1.7,2.2,2.7
		c0.2,0.2,0.5,0.5,0.6,0.9c0.4,0.5,1.1,0.6,1.5,0.1c0.5-0.4,0.6-1.1,0.1-1.5c-0.2-0.2-0.5-0.5-0.6-0.9c-0.6-0.9-1.5-1.8-2.2-2.7
		c-2.9-3.3-5.6-6.6-8.1-10.3c4.8-2.6,10.2-5.9,15.3-9.4c0.4-0.3,0.7-1,0.2-1.5l-0.3-0.5c-5.9-10.5-12.2-20.1-18.5-29.3
		c-3.6-5.4-7.3-11-10.8-16.7c7.5-5,15.2-9.6,22.8-14.1c4.1-2.4,8.4-4.9,12.5-7.5c4.6,8.7,9.9,17.1,15.4,25.4c0,0-0.1,0,0-0.1
		c-0.3-0.5,0-1.2,0.6-1.4c0.3-0.1,0.5-0.3,0.9-0.3c-5.5-8.3-10.8-16.8-15.3-25.4C3573.7,251.7,3573.4,251.4,3573.1,251.4z"/>
	<path class="st8" d="M3587.8,279.4c2.3,3.5,4.6,6.8,6.8,10.2c1.9,2.9,4,5.8,5.9,8.8c0.3,0.4,0.8,0.6,1.3,0.5
		c3.6-1.4,7.5-3.3,11.5-5.6c1.2,4.2,2.7,8.7,3.9,12.8c1,2.8,1.9,5.7,2.7,8.7c0.1,0.3,0.3,0.7,0.3,1.1c0.2,0.7,0.8,1,1.3,0.7
		c0.3-0.1,0.5-0.3,0.6-0.6c0.1-0.2,0.2-0.6,0.1-0.8c-0.1-0.3-0.2-0.7-0.3-1c-0.9-2.9-1.9-5.9-2.8-8.7c-1.6-4.5-3.1-9.3-4.3-14
		c-0.1-0.3-0.4-0.6-0.6-0.7c-0.3-0.1-0.7-0.2-1,0.1c-4.2,2.5-8.1,4.4-11.7,5.9c-1.8-2.7-3.6-5.3-5.4-8c-2-2.9-4.1-6.1-6.1-9.2
		c-0.3,0.2-0.9,0.3-1.2,0.5C3588.7,279.9,3588.2,279.8,3587.8,279.4z"/>
	<path class="st8" d="M3539.6,273.8c0.6,0,1-0.6,0.9-1.2c0-0.6-0.1-1.2-0.1-1.7c0-2.6,0.7-5.3,1.9-7.8c3.8-7.3,13.6-12.6,20.8-8.9
		c0.8,0.4,1.5,0.8,2.3,1.4c0.4,0.3,0.8,0.6,1.2,0.9c0.5,0.4,1.1,0.4,1.5-0.1c0-0.1,0.1-0.2,0.1-0.2c0.2-0.4,0.2-0.9-0.2-1.3
		c-0.1-0.2-0.5-0.4-0.7-0.5c-1.1-0.8-2.2-1.6-3.3-2.1c-4-2.1-8.9-2-13.7,0.1c-0.7,0.3-1.3,0.7-2,1.1c0.2,0.2,0.4,0.6,0.5,0.9
		c0.2,0.3,0.2,0.8,0.1,1.1c-0.1,0.2-0.1,0.3-0.4,0.5c-0.5,0.4-1.1,0.2-1.6-0.3c-0.2-0.2-0.4-0.6-0.5-0.9c-2.7,2-5,4.5-6.4,7.3
		c-1.7,3.3-2.4,6.8-2.2,10.2c0,0.2,0,0.4,0,0.7C3538.4,273.4,3538.9,273.9,3539.6,273.8z"/>
	<path class="st8" d="M3549,255.9c0.2-0.1,0.2-0.2,0.4-0.5c0.1-0.3,0.2-0.7-0.1-1.1c-0.2-0.2-0.4-0.6-0.5-0.9
		c-0.6-1-1.3-2.1-1.9-2.9c-1.5-2.4-3.1-4.9-4.6-7.3c0-0.4-0.2-0.8-0.5-1l-0.3-0.1c-0.4-0.2-0.9-0.2-1.3,0.2
		c-0.3,0.4-0.3,0.8-0.1,1.3c1.7,2.7,3.5,5.3,5.1,7.9c0.6,1,1.3,2.1,1.9,3c0.2,0.2,0.4,0.6,0.5,0.9
		C3547.7,256,3548.5,256.1,3549,255.9z"/>
	<path class="st8" d="M3549.4,285.6c0.2-0.1,0.2-0.2,0.5-0.4c1.5-1,3.1-2.2,4.8-3.1c0.6-0.4,1.2-0.7,1.6-1.1
		c0.2-0.1,0.2-0.2,0.4-0.5c0.1-0.3,0.2-0.7-0.1-1.1c-1.1-1.6-2.2-3.4-3.2-5l-0.5-0.6c-0.3-0.4-0.8-0.6-1.4-0.4
		c-2.4,1.2-4.7,2.5-7.1,4c-0.2,0.1-0.4,0.5-0.5,0.7c0,0.2,0,0.6,0.2,0.9c0.9,1.3,1.7,2.7,2.5,4.1c0.4,0.6,0.7,1.2,1,1.7
		c0.1,0.2,0.4,0.5,0.7,0.5C3548.9,285.8,3549.2,285.7,3549.4,285.6z M3548.8,282.3c-0.5-1.1-1.3-2.3-2-3.4c1.6-1.1,3.4-2,5-2.9
		c0.8,1.2,1.7,2.5,2.4,3.7c-0.2,0.1-0.4,0.3-0.8,0.5c-1.4,0.9-2.9,1.8-4.4,2.7C3549.1,282.9,3548.9,282.7,3548.8,282.3z"/>
	<path class="st8" d="M3587.7,304.4c-0.3-0.4-0.8-0.6-1.4-0.4c-2.4,1.2-4.7,2.5-7.1,4c-0.2,0.1-0.4,0.5-0.5,0.7c0,0.2,0,0.6,0.2,0.9
		c0.9,1.3,1.7,2.7,2.5,4.1c0.4,0.6,0.7,1.2,1,1.7c0.1,0.2,0.4,0.5,0.7,0.5c0.3,0.1,0.7,0,0.9-0.2c0.2-0.1,0.2-0.2,0.5-0.4
		c1.5-1,3.1-2.2,4.8-3.1c0.6-0.4,1.2-0.7,1.6-1.1c0.2-0.1,0.2-0.2,0.4-0.5c0.1-0.3,0.2-0.7-0.1-1.1c-1.1-1.6-2.2-3.4-3.1-4.9
		L3587.7,304.4z M3588.9,310.1c-0.2,0.1-0.4,0.3-0.8,0.5c-1.4,0.9-2.9,1.8-4.4,2.7c-0.1-0.2-0.3-0.5-0.4-0.8c-0.5-1.1-1.3-2.3-2-3.4
		c1.6-1.1,3.4-2,5-2.9C3587.3,307.6,3588.1,308.9,3588.9,310.1z"/>
	<path class="st8" d="M3559.7,278.3c0.3,0.4,1,0.7,1.5,0.2c1-0.5,2-1.1,2.8-1.6c0.9-0.4,1.9-0.9,2.7-1.6c0.2-0.1,0.2-0.2,0.4-0.5
		c0.1-0.3,0.2-0.7,0-1c-1-1.7-2.1-3.7-3.4-6c-0.3-0.4-0.8-0.6-1.4-0.4c-1.8,0.8-3.9,1.9-5.9,3.3c-0.2,0.1-0.4,0.3-0.6,0.4
		c-0.5,0.4-0.6,1.1-0.2,1.5c0.1,0.2,0.3,0.4,0.5,0.6c0.5,0.9,1.1,1.5,1.7,2.4c0.6,0.6,1.1,1.5,1.6,2.3L3559.7,278.3z M3559.5,274.3
		c-0.6-0.6-1-1.3-1.5-2c1.4-0.9,2.9-1.7,4.4-2.4c1,1.6,1.7,2.9,2.5,4.2c-0.6,0.4-1.2,0.7-1.7,1c-0.8,0.4-1.4,0.8-2.1,1.1
		C3560.5,275.5,3560,274.9,3559.5,274.3z"/>
	<path class="st8" d="M3571.6,273c0.8-0.4,1.5-0.8,2.2-1.2c1.3-0.7,2.6-1.3,3.8-2.1c0.2-0.1,0.2-0.2,0.4-0.5
		c0.1-0.3,0.2-0.7-0.1-1.1c-0.5-0.8-1-1.6-1.5-2.4c-0.9-1.2-1.5-2.3-2.1-3.4c-0.3-0.5-0.8-0.7-1.3-0.5c-0.3,0.2-0.9,0.3-1.3,0.4
		c-1.7,0.6-3.5,1.3-5,2.4c0,0.1-0.2,0.1-0.2,0.2c-0.5,0.4-0.6,1.1-0.2,1.5c0.6,1,1.3,2.1,2,2.9c0.8,1.1,1.3,2.1,2.2,3.1
		C3570.5,273.1,3571.1,273.3,3571.6,273z M3569.9,268.4c-0.5-0.6-0.9-1.4-1.3-2.1c1.2-0.7,2.5-1.2,4.1-1.8c0.1,0,0.3-0.1,0.3-0.2
		c0.5,1,1.2,1.8,1.8,2.7c0.3,0.4,0.5,0.9,0.9,1.4c-0.9,0.4-1.9,0.9-2.6,1.4c-0.5,0.3-1,0.5-1.4,0.7
		C3570.8,269.9,3570.5,269.1,3569.9,268.4z"/>
	<path class="st8" d="M3565.3,311.6c0.2-0.1,0.2-0.2,0.5-0.4c1.5-1,3.1-2.2,4.8-3.1c0.6-0.4,1.2-0.7,1.6-1.1
		c0.2-0.1,0.2-0.2,0.4-0.5c0.1-0.3,0.2-0.7-0.1-1.1c-1.1-1.6-2.2-3.4-3.1-4.9l-0.5-0.6c-0.3-0.4-0.8-0.6-1.4-0.4
		c-2.4,1.2-4.7,2.5-7.1,4c-0.2,0.1-0.4,0.5-0.5,0.7c0,0.2-0.1,0.5,0.2,0.9c0.9,1.3,1.7,2.7,2.5,4.1c0.4,0.6,0.7,1.2,1,1.7
		c0.1,0.2,0.4,0.5,0.7,0.5C3564.8,311.9,3565.1,311.8,3565.3,311.6z M3564.7,308.5c-0.5-1.1-1.3-2.3-2-3.4c1.6-1.1,3.4-2,5-2.9
		c0.8,1.2,1.7,2.5,2.4,3.7c-0.2,0.1-0.4,0.3-0.8,0.5c-1.4,0.9-2.9,1.8-4.4,2.7C3565,308.9,3564.9,308.7,3564.7,308.5z"/>
	<path class="st8" d="M3571.7,297.2c-0.5,0.4-0.6,1.1-0.2,1.5c0.1,0.2,0.3,0.4,0.5,0.6c0.5,0.8,1.1,1.5,1.7,2.4
		c0.6,0.6,1.1,1.5,1.6,2.3l0.2,0.3c0.3,0.4,1,0.7,1.5,0.2c1-0.5,2-1.1,2.8-1.6c1-0.5,1.9-0.9,2.7-1.6c0.2-0.1,0.2-0.2,0.4-0.5
		c0.1-0.3,0.2-0.7,0-1c-1-1.7-2.1-3.7-3.4-6c-0.3-0.4-1-0.7-1.4-0.4c-1.8,0.8-3.9,1.9-5.9,3.3C3572.2,296.9,3571.9,297,3571.7,297.2
		z M3580.7,300.2c-0.6,0.4-1.2,0.7-1.7,1c-0.8,0.4-1.4,0.8-2.1,1.1c-0.5-0.6-0.9-1.3-1.4-1.9c-0.6-0.6-1-1.3-1.5-2
		c1.4-0.9,2.9-1.7,4.4-2.4C3579.1,297.4,3579.9,298.9,3580.7,300.2z"/>
	<path class="st8" d="M3587.7,288.5c-1.7,0.6-3.5,1.3-5,2.4c0,0.1-0.2,0.1-0.2,0.2c-0.5,0.4-0.6,1.1-0.2,1.5c0.6,1,1.3,2.1,1.9,2.9
		c0.8,1.1,1.3,2.1,2.2,3.1c0.3,0.4,1,0.7,1.4,0.4c0.8-0.4,1.5-0.8,2.2-1.2c1.3-0.7,2.6-1.3,3.8-2.1c0.1,0,0.2-0.2,0.4-0.5
		c0.1-0.3,0.2-0.7-0.1-1.1c-0.5-0.8-1-1.6-1.5-2.4c-0.9-1.2-1.5-2.3-2.1-3.4c-0.3-0.5-0.8-0.7-1.3-0.5
		C3588.6,288.2,3588.1,288.4,3587.7,288.5z M3590.6,293.2c0.3,0.4,0.5,0.9,0.9,1.4c-1,0.5-1.9,0.9-2.6,1.4c-0.5,0.3-1,0.5-1.4,0.7
		c-0.5-0.8-1-1.5-1.5-2.3c-0.5-0.6-0.9-1.4-1.3-2.1c1.2-0.7,2.5-1.2,4.1-1.8c0.1,0,0.3-0.1,0.3-0.2
		C3589.3,291.3,3590,292.3,3590.6,293.2z"/>
	<path class="st8" d="M3581.2,275.6c-0.1,0-0.3,0.2-0.4,0.3c-1.6,1-3.3,1.8-4.9,2.9c-0.6,0.4-1.2,0.7-1.7,1c-0.5,0.3-0.7,1-0.5,1.5
		c0.9,1.6,2,3.5,3,5.1l0.5,0.6c0.3,0.4,0.8,0.6,1.3,0.5c2.4-1.1,4.8-2.4,7.2-3.7c0.2-0.1,0.2-0.2,0.4-0.5c0-0.1,0.1-0.2,0.1-0.2
		c0-0.2,0.1-0.6-0.2-0.9c-0.8-1.4-1.6-2.7-2.3-4.3c-0.4-0.6-0.7-1.3-0.9-1.9c-0.1-0.2-0.4-0.5-0.7-0.5
		C3581.8,275.4,3581.6,275.4,3581.2,275.6z M3581.8,278.8c0.5,1.1,1.1,2.3,1.7,3.5c-1.6,0.9-3.4,1.8-5.2,2.8
		c-0.8-1.2-1.5-2.5-2.3-3.9c0.2-0.1,0.5-0.3,0.8-0.4c1.5-0.8,3.1-1.6,4.5-2.6C3581.6,278.3,3581.7,278.5,3581.8,278.8z"/>
	<path class="st8" d="M3579.1,319c0.2-0.1,0.2-0.2,0.4-0.5c0-0.1,0.1-0.2,0.1-0.2c0-0.2,0.1-0.6-0.2-0.9c-0.8-1.4-1.6-2.7-2.3-4.3
		c-0.4-0.6-0.7-1.3-0.9-1.9c-0.1-0.2-0.4-0.5-0.7-0.5c-0.3-0.1-0.6-0.1-0.9,0.2c-0.1,0-0.3,0.2-0.4,0.3c-1.6,1-3.3,1.8-4.9,2.9
		c-0.6,0.4-1.2,0.7-1.7,1s-0.7,1-0.5,1.5c0.9,1.6,2,3.4,2.9,5l0.4,0.8c0.3,0.4,0.8,0.6,1.3,0.5
		C3574.2,321.6,3576.8,320.4,3579.1,319z M3569.5,316.4c0.2-0.1,0.5-0.3,0.8-0.4c1.5-0.8,3.1-1.6,4.5-2.6c0.1,0.2,0.3,0.5,0.4,0.8
		c0.5,1.1,1.1,2.3,1.7,3.5c-1.6,0.9-3.4,1.8-5.2,2.8C3571.1,319.1,3570.3,317.7,3569.5,316.4z"/>
	<path class="st8" d="M3574.4,289.7c0.1,0,0.2-0.2,0.4-0.5c0.1-0.3,0.2-0.7-0.1-1.1c-0.1-0.2-0.3-0.4-0.5-0.6
		c-0.5-0.8-1.1-1.6-1.5-2.4c-0.5-0.8-1.1-1.6-1.5-2.4l-0.2-0.3c-0.3-0.4-1-0.7-1.5-0.5c-1,0.5-2.1,1-3,1.5c-0.9,0.4-1.9,0.9-2.7,1.4
		c-0.5,0.3-0.8,1-0.5,1.5c1.1,2.3,2.3,4.5,3.3,6.1c0.3,0.5,0.8,0.7,1.3,0.5c1.9-0.8,4.1-1.7,5.9-2.9
		C3573.9,290,3574.1,289.9,3574.4,289.7z M3565.5,286.4c0.6-0.4,1.2-0.5,1.8-0.8c0.8-0.4,1.4-0.7,2.2-1.1c0.5,0.6,0.9,1.3,1.3,2.1
		c0.5,0.6,0.9,1.4,1.3,2.1c-1.4,0.8-3,1.5-4.3,2.1C3567.1,289.5,3566.4,288,3565.5,286.4z"/>
	<path class="st8" d="M3601.7,306c0.1,0,0.2-0.2,0.4-0.5c0.1-0.3,0.2-0.7-0.1-1.1c-0.1-0.2-0.3-0.4-0.5-0.6
		c-0.5-0.8-1.1-1.6-1.5-2.4s-1.1-1.6-1.5-2.4l-0.2-0.3c-0.3-0.4-1-0.7-1.5-0.5c-1,0.5-2.1,1-3,1.5c-0.9,0.4-1.9,0.9-2.7,1.4
		c-0.5,0.3-0.8,1-0.5,1.5c1.2,2.2,2.3,4.5,3.3,6.1c0.3,0.5,0.8,0.7,1.4,0.5c1.9-0.8,4.1-1.7,5.9-2.9
		C3601.4,306.3,3601.5,306.2,3601.7,306z M3593,302.6c0.6-0.4,1.2-0.5,1.8-0.8c0.8-0.4,1.4-0.7,2.2-1.1c0.5,0.6,0.9,1.3,1.3,2.1
		c0.5,0.6,0.9,1.4,1.3,2.1c-1.4,0.8-3,1.5-4.4,2.2C3594.5,305.6,3593.7,304.2,3593,302.6z"/>
	<path class="st8" d="M3558,297.6c1.8-0.5,3.5-1.2,5.2-2.2c0.1,0,0.2-0.1,0.2-0.2c0.1,0,0.2-0.2,0.4-0.5c0.1-0.3,0.2-0.7-0.1-1.1
		c-0.6-1-1.3-2.1-1.8-3.2s-1.3-2.2-1.9-3.2c-0.3-0.4-1-0.7-1.4-0.4c-0.8,0.4-1.5,0.8-2.3,1.1c-1.3,0.7-2.6,1.2-3.8,2
		c-0.5,0.3-0.7,1-0.5,1.5c0.5,0.8,0.9,1.6,1.4,2.5c0.7,1.2,1.3,2.3,2,3.5c0.3,0.5,0.8,0.7,1.4,0.6
		C3557.1,297.9,3557.6,297.9,3558,297.6z M3555.3,292.9c-0.3-0.4-0.5-1-0.8-1.4c0.9-0.4,1.8-0.8,2.6-1.3c0.5-0.3,0.9-0.4,1.4-0.7
		c0.5,0.8,1,1.6,1.3,2.3c0.4,0.8,0.8,1.4,1.3,2.2c-1.3,0.7-2.5,1.1-4.1,1.6c-0.1,0-0.3,0.1-0.3,0.2
		C3556.4,294.7,3555.8,293.8,3555.3,292.9z"/>
	<path class="st8" d="M3606.2,303.8c0.2,0.7,0.8,1,1.3,0.7c1.4-0.4,3.1-0.6,4.7-0.8c0.4,0,1-0.1,1.4-0.1c0.3-0.1,0.7-0.3,0.9-0.5
		c0.1-0.2,0.2-0.5,0.1-0.6c0-0.6-0.6-1-1.2-0.9c-0.4,0-0.9,0.2-1.4,0.1c-1.6,0.2-3.3,0.5-4.8,0.9
		C3606.3,302.7,3606,303.3,3606.2,303.8z"/>
	<path class="st8" d="M3607.6,306.1c-1,0.2-1.9,0.4-2.8,0.4c-0.7,0-1.1,0.5-1,1.2c0,0.7,0.5,1.1,1.2,1c1.1-0.1,2.3-0.2,3.3-0.5
		c1.2-0.3,2.2-0.5,3.5-0.5c0.4,0,0.8-0.1,0.9-0.4c0.1-0.2,0.2-0.4,0.2-0.7c0-0.7-0.5-1-1.1-1.2
		C3610.2,305.6,3608.8,305.8,3607.6,306.1z"/>
	<path class="st8" d="M3598.2,314.3c-0.1-0.3-0.4-0.6-0.6-0.6c-0.3-0.1-0.6-0.1-0.9,0.1c-2.6,1.3-5.4,2.8-8,4.3
		c-3.3,1.8-6.8,3.8-10.2,5.3c-0.3,0.1-0.5,0.4-0.6,0.6c-0.1,0.3-0.1,0.6,0.1,0.9c0.5,1,1.1,2.1,1.6,3.1c0.7,1.3,1.3,2.4,2,3.7
		c0.2,0.3,0.4,0.6,0.4,0.9c0.3,0.5,1,0.8,1.5,0.5s0.8-1,0.5-1.5c-0.2-0.3-0.3-0.7-0.5-1c-0.7-1.2-1.2-2.4-1.7-3.5
		c-0.4-0.8-0.7-1.4-1.1-2.1c3.2-1.5,6.4-3.2,9.3-4.9c2.3-1.3,4.6-2.5,6.8-3.7c0.4,1.3,0.9,2.7,1.5,4c0.3,0.7,0.6,1.5,0.8,2.1
		c0.1,0.3,0.2,0.7,0.3,1c0.3,0.5,0.9,0.8,1.4,0.6c0.3-0.1,0.4-0.3,0.5-0.5c0.1-0.3,0.2-0.6,0.1-0.8c-0.1-0.3-0.3-0.7-0.3-1.1
		c-0.3-0.7-0.4-1.3-0.7-2C3599.5,317.7,3598.8,316.1,3598.2,314.3z"/>
	<path class="st8" d="M3550.1,297.6c0.2-0.1,0.2-0.2,0.4-0.5c0.1-0.3,0.2-0.7-0.1-1.1c-0.3-0.5-1-0.7-1.6-0.3
		c-0.3,0.2-0.6,0.4-1,0.5l0,0c-0.4,0.3-0.6,1.1-0.2,1.5c0.3,0.4,1,0.7,1.6,0.3C3549.5,297.9,3549.9,297.7,3550.1,297.6z"/>
	<path class="st9" d="M3659,306.7c3.1-37.9,52.4-39.1,54.8-3.3"/>
	<polygon class="st9" points="3680.3,266.7 3699.6,268 3696.4,239.3 3688,239.5 	"/>
	<path class="st10" d="M3712.8,305.7c18.6,2.6,39.1,8,57,16.3c20.8,9.5,39.2,22.1,54.9,37.1"/>
	<path class="st10" d="M3545.6,363.9c27.8-35.2,72.4-52.6,114.6-57.6"/>
	<path class="st10" d="M3861.9,404.3c20.8,36.1,27.5,77.6,22.8,119.9c-5.8,38.1-16.6,60.4-16.6,60.4
		c-45.4,99.6-163,143.6-262.7,98.2c-97.6-44.4-140.2-161-99.3-259.2"/>
	<path class="st1" d="M3890.1,447.2C3889.9,447.1,3889.8,447.2,3890.1,447.2c0,0,0.1,0,0.2,0c0.8,0.1,1.7-0.1,2.4-0.5
		c1.2-0.8,1.8-2.2,1.3-3.5c-0.6-1.4-1.8-1.9-3.2-1.8c-0.7-0.2-1.3,0.2-1.9,0.6c-0.8,0.4-1.2,0.8-1.6,1.5c-0.8,1.3-0.2,3.3,1.3,3.6
		C3889.1,447.2,3889.4,447.1,3890.1,447.2C3890.4,447.2,3890.5,447.1,3890.1,447.2z"/>
	<path class="st6" d="M3984.2,248c-1.9-0.9-3.7-0.5-4.9,0.5c-0.9-0.4-2.1-0.5-3.2,0c-1.8,0.6-3.3,1.6-4.3,3.3c-2.2-1.1-5-0.4-6.2,2
		c-0.6,1.1-0.6,2.3-0.2,3.4c-0.7,0.3-1.2,0.8-1.8,1.2c-0.4,0.3-0.9,0.5-1.3,0.9c-0.9,0.6-1.5,1.3-2.2,2.3c-0.1,0.3-0.3,0.5-0.3,0.8
		c-1.1,0.2-2.1,0.7-2.8,1.5c0,0,0,0.1-0.1,0c-0.5,0.5-1.2,0.9-1.7,1.4c-0.6,0.5-2.3,0.3-1.7,1.7l0,0c-0.2,0.4-0.5,0.7-0.8,1.2
		c-0.5,0.4-0.8,0.9-1.1,1.6c-0.3,0.5-0.3,1-0.5,1.5c-0.6,0-1.1,0.3-1.6,0.7c-3,2.6-5.4,6.9-9.4,7.7c-1.7,0.4-2.7,1.8-3,3.5
		c-0.4,0.3-0.9,0.5-1.4,1.1c-4.2,4.7-7.1,10.2-10.7,15.3c-4,5.7-10.4,9.4-16.2,13c-12.2,7.8-22.6,17.9-34,26.8
		c-4.9,3.9-10.1,7.3-15.2,10.9c-4.3,3-9,6.7-14.3,7.2c-3.6,0.4-7.7-2.9-11.1-3.7c-4.3-1-8.2,1.3-10.8,4.7c-3.7,4.9,3.5,11.4,7.2,6.5
		c2.4-3,5.4-0.1,8.4,1.1c4.4,1.7,8.8,1.3,13.1-0.3c4.9-1.7,9.5-5,13.8-8.1c5.3-3.7,10.7-7.4,15.7-11.3c11.4-8.9,21.9-18.8,34-26.6
		c5.5-3.6,11-7.3,15.4-12.2c4.5-5.1,7.4-11.7,11.9-16.9c0.6-0.6,0.9-1.4,1.1-2c4.9-1.4,7.2-5.5,10.9-8.6c1.2-0.9,1.9-2.2,2.1-3.5
		c0.1,0,0.3-0.1,0.4-0.1c1-0.5,1.8-0.8,2.6-1.8c0.4-0.6,0.9-1.1,1.1-1.8c0.2-0.2,0.5-0.5,0.9-0.6c0.2-0.2,0.6-0.6,0.8-0.9
		c0,0.1-0.2,0.1-0.2,0.1c0.2-0.2,0.5-0.5,0.7-0.8c0.6-0.6,1.1-1.3,1.4-2.3c0.4,0,0.9-0.1,1.2-0.3c0.8-0.2,1.3-0.7,1.8-1.2
		c0.4-0.3,0.9-0.5,1.3-1c0.3-0.2,0.7-0.3,1.1-0.5c0.5-0.4,0.9-0.6,1.3-1.1c0.4-0.3,0.7-0.8,0.8-1.3c3,0.7,5.5-1.9,5.8-4.5
		c0.6-0.4,1.1-0.8,1.4-1.2c0.3-0.1,0.6-0.4,1-0.5C3985.8,258.9,3989.6,250.6,3984.2,248z"/>
	<path class="st6" d="M3946.4,308.9c0-2.4,0.1-4.8,0.1-7.2v-0.1c0.4-0.8-0.3-1.5-1-1.5c-0.5-0.2-0.8-0.1-1.2,0.3
		c0,0.1-0.1,0.2-0.1,0.3c-0.7,0.2-1.1,0.4-1.7,0.6c-0.4,0-0.9,0.3-0.8,0.9c-0.2,0.7,0.3,2.6,1,3c0.4,0.3,0.7,0.4,1,0.2
		c-0.1,1.3,0.2,2.5,0.7,3.8C3944.7,310.5,3946.3,310.2,3946.4,308.9z"/>
	<path class="st6" d="M3936.5,337.9c-0.1,0-0.1,0-0.2,0c0.2-0.7,0-1.6-1-1.5c-1.5,0.2-2.9,0.8-4.5,0.9c-0.6,0-1,0.5-1,1.2
		c0,0.4,0.1,0.9,0.1,1.2c-1.4,1.4-1.9,3.3-0.8,5.7c0,0.1,0,0.1,0.1,0.2c0,0.6,0.2,1,0.5,1.8c0.4,1,1.8,1,2.1-0.2
		c0.3-1.8,0.3-3.5,0.4-5.4c1-1.2,2.7-1.7,4.7-2.1C3938,340,3937.9,337.7,3936.5,337.9z"/>
	<path class="st6" d="M3918.8,350c-1.1-0.7-2-1.1-3.2-1.2c0.1-0.5-0.4-1.1-1.1-1.2c-4.8,0.2-8.1,4.2-11.1,7.5
		c-0.4,0.6-0.3,1.2,0.1,1.5c-0.8,0.9,0.2,2.5,1.3,1.8c3.3-2.5,8.2-9.7,13-6.4C3918.8,352.6,3919.7,350.8,3918.8,350z"/>
	<path class="st6" d="M3857.8,375.5c-1-0.8-2.4,0.4-1.6,1.4c3.5,4.4,7.1,8.7,10.1,13.4c0.3,0.4,0.7,0.5,1.2,0.5
		c2.2,4.4,3.2,9.2,1.5,13.9c-0.5,1.3,1.4,2.2,2,1C3875,394.1,3865.7,382.7,3857.8,375.5z"/>
	<path class="st6" d="M3717.7,265.8c-7.2,5.2-19,3.8-27.3,2.9c-5.1-0.5-9.9-1.8-14.9-2.8c-2-0.4-4.3-1-6.5-1.4l0,0
		c0.2-0.5,0.3-0.8,0.5-1.3c2.3-2.1,3.3-6,4.1-8.8c1.3-4.5,2.9-9.5,3.5-14.3c0.3-2.7-0.5-5.4-1.4-8c0.4-0.5,0.5-1.3-0.2-1.7
		c-0.2-0.1-0.3-0.1-0.5-0.3c-0.2-0.3-0.3-0.9-0.7-1.3c0.1-0.3,0.2-0.8,0.5-1.3c2-0.3,3.8-0.3,5.8-0.4c3.2-0.2,6.3-0.2,9.4-0.2
		c5.2,0,10.6,0.1,16,0.2c0.2,0.3,0.7,0.6,1.2,0.5l2.2-0.5c1.2-0.3,0.8-2.1-0.5-2.1c-7.6-0.2-15-0.4-22.5-0.3c0-0.1,0.2-0.1,0.3-0.4
		c4.5-10.1,6.4-21,7.7-31.9c0.1-0.6,0.3-1.2,0.3-1.8c0-0.2,0.1-0.3,0.1-0.5c0-1.1,0.3-2.2,0.4-3.3c0.2-0.9-0.9-1.4-1.7-1.1
		c0.1-0.3,0.2-0.7,0.2-1c1.1,0.6,2.4,0.5,3.8,0.1c1.3-0.4,0.6-2.4-0.7-2.1c-0.8,0.2-2,0.6-2.5-0.5c-0.4-1.1-2.3-0.7-2.1,0.5
		c0,0.1-0.1,0-0.2,0.1c-0.2,0.1-0.3,0.4-0.4,0.5c-0.3,0.1-0.4,0.3-0.5,0.5c0,0.1-0.1,0.2,0,0.2l0,0c-0.2,0.5-0.3,1-0.5,1.5
		c-0.3,0.5-0.4,0.7-0.4,1.1c-0.5,1.4-1,2.8-1.4,4.2c-0.1,0.2-0.1,0.5,0,0.7c-0.4,1.4-0.6,2.8-0.8,4.2c-0.9,4.2-1.7,8.3-2.9,12.6
		c-0.1,0-0.2,0.2-0.3,0.4c-2.5,4.3-4.1,8.6-4.3,13.6c0,0.1,0,0.2,0,0.4c0,0.1,0,0.1-0.1,0.2c-0.3,0.6,0.1,1.4,0.8,1.5
		c0.9,0.3,2,0.4,2.8,0.5c-3.7,0.1-7.4,0.2-11.1,0.7c-0.1,0-0.3,0.1-0.4,0.1c-0.7-0.2-1.5,0.1-1.3,1c1,5.4,3.7,9,2.8,14.8
		c-1.1,6.9-3.8,13.6-6.1,20.3l0,0c0-0.4-0.4-0.8-0.7-0.7h-0.1c-0.2-0.2-0.6-0.3-1-0.3c-0.1,0-0.2,0.1-0.3,0.1
		c-1.3-0.1-2.6,0.2-3.7,0.7c-2.2,0.6-2.5,2.7-2.7,5c-0.1,0.8,0.7,1.4,1.2,1.3c0.1,0,0,0.1,0.1,0.2c0.1,0.2,0.4,0.3,0.6,0.4
		c-0.5,0.5-0.6,1.4,0.2,1.7c0.9,0.5,1.3,1.8,1.2,3.5c-0.5-0.1-1,0.2-1.2,0.8c-0.9,2.9-1.8,5.8-3,8.6c-2.3,5.1-5.1,9.9-6.9,15.1
		c-0.9,1.7-1.8,3.2-2.7,4.7c-0.4,0.8,0.2,1.5,1,1.5c0.1,0.9,1.2,1.4,1.9,0.7c5.1-5.7,7.9-14.2,10.4-21.3c1-2.8,3.9-10,2.2-13.7
		c0.5-0.4,0.7-1.1,0.1-1.7c-1.7-1.5-2.4-2,0.2-2.1c2.4,0,4.9,0.5,7.3,0.9c4.3,0.7,8.3,1.8,12.6,2.8c5.7,1.2,11.8,1.4,17.6,1.4
		s12.6-0.4,17.4-3.9C3719.9,266.8,3718.9,265,3717.7,265.8z"/>
	<path class="st6" d="M3697.3,174.1c-0.4,0.3-1,0.5-1.3,0.8c-0.1,0-0.1,0-0.1,0c-0.1,0-0.3-0.1-0.5-0.2c-0.5-0.2-0.9-0.3-1.3-0.4
		c-1.1,0-1.6,1.3-0.9,1.9c-0.4,0.7,0,1.7,1,1.6c0.8-0.1,1.5-0.3,2.2-0.6c1,0,1.9-0.6,2.6-1.3
		C3699.7,174.8,3698.4,173.4,3697.3,174.1z"/>
	<path class="st6" d="M3402.4,353.3c-3-3.3-7-5.3-11.2-6c0.4-0.5,0.7-0.7,1.2-1.2c5.3-6.2,9.9-13.3,14.3-20.1
		c3.5-5.3,7.1-12.2,6.1-18.7c0-0.2-0.1-0.4-0.2-0.8c0.3,0.1,0.6,0.3,0.9,0.4c0.9,0.4,2-0.6,1.4-1.5c-1.7-2.7-4.1-5.1-6.1-7.7
		c0-0.1,0-0.2-0.1-0.3c-0.6-2.2-1.9-3.8-3.3-5.2c-0.5-1-0.7-2.2-0.9-3.3c-0.1-0.8-0.6-1-1.2-0.9c0-0.1,0.1-0.3,0.2-0.5
		c0.2-1.5-1.7-1.7-2.2-0.4c-0.2,0.7-0.4,1.3-0.4,2c-0.8-0.3-1.8,0.7-1.2,1.6c0.3,0.4,0.5,0.8,0.8,1.2v0.1c-0.1,0.5,0.2,0.9,0.5,1.1
		c0.9,4.6,4.1,8.7,7.9,11.5c2,2.9,2.2,6.4,1.4,9.5l-0.2-0.1c-0.5-0.3-1.2,0.3-1.6,0.7c-5,7.6-10.3,15.2-15.6,22.6
		c-4.3,3.5-7.2,8.5-9.8,13.3c-1.8,1.5-4,2.8-6.1,3.6c-0.5-0.4-1.5-0.7-1.8-0.1c0,0.1-0.5-0.1-0.6,0l0,0c0,0.1,0.3,0.4,0.1,0.4
		c-0.3,0.1-0.4,0.3-0.8,0.4c-0.8,0.2-0.9,1.4-0.2,1.8c-0.6,1.1-1.1,2.2-1.6,3.2c-0.3,0.5,0,1,0.3,1.2c-0.1,0.3,0,0.7,0.3,1
		c-0.8,0.9-1.6,1.7-2.5,2.6c-0.9,1.1,0.7,2.3,1.6,1.5c2.1-2,4.3-3.8,6-6.1c0.7-0.6,1.5-1.3,2.2-2c0.6-0.5,0.5-1.2,0.1-1.7
		c0-0.1,0.1-0.2,0.1-0.3c0.6-0.6,1.4-1.1,2-1.6c6.1,1.9,12.3,0.1,18.3,1.7c0.5,0.2,0.8-0.2,1-0.6l0.5-0.9
		C3402.7,354,3402.8,353.7,3402.4,353.3z M3402.9,326.6c-1.7,2.6-3.6,5.2-5.4,7.8C3399.4,331.7,3401.2,329.2,3402.9,326.6z"/>
	<path class="st6" d="M3498.6,397c0.2-0.4,0.4-0.7,0.7-1.1c0.3-0.5,0.2-0.9-0.2-1.1c0-0.2,0.1-0.5,0-0.7c2.2-4.5-3.7-10.5-9.9-15.4
		c-0.2-0.3-0.5-0.6-0.8-1.1c0-0.1,0-0.2,0.2-0.5c0.6,0.4,1.3,0.8,2,1.1c0.7,0.3,1.6-0.2,1.5-1.1c0.2-0.2,0.4-0.6,0.5-0.9
		c0-0.7,0-1.4-0.1-2c0.3-1.8,0.2-3.5-0.5-5.2v-0.1c0.6,0.7,1.7-0.1,1.8-0.8c0-1.5,0-2.7,0.1-4.2c1.4-2.6,2-5.5,2.4-8.5
		c0.8-6.1,0.1-12.5-2.2-18.1c-0.3-0.9-1.4-0.8-1.8-0.2c-0.4-1.2-0.9-2.5-1.5-3.5c-3.1-6.5-8.8-11.4-14.1-15.9
		c-1.1-0.9-2.5,0.6-1.4,1.6c8.3,7.3,14.6,14.2,16.6,25.3c0.4,2.2,1,6.1,1,9.9c-0.3,2.2-0.7,4.5-0.9,6.8c-0.7,1.9-1.7,3.4-3.3,4.2
		c-0.5-0.2-1,0-1.2,0.4c-0.4,0-0.9,0.1-1.4,0c0.2-0.5-0.1-0.9-0.5-1.2c-3.1-1.9-6.3-3.6-9.1-6c-1.1-0.9-2.5,0.6-1.4,1.6
		c2.8,2.4,6.1,4.3,9.2,6.2c-0.1,0.3-0.2,0.7,0.1,1.1c1.2,1.3,1.6,2.7,0.8,4.6c-0.1,0-0.2,0.2-0.3,0.4c-0.1,0.2-0.2,0.4-0.2,0.7
		c-0.9-0.8-1.7-1.7-2.7-2.6c-2.6-2.3-5.3-4.5-8.3-6.5c0-0.1-0.1-0.4-0.4-0.6c-10.4-8.2-22.3-14.6-35.3-17.8
		c-2.5-1.9-4.7-4.1-6.8-6.8c-1.6-2.3-3.7-6.3-6.5-7c-0.8-0.2-1.2,0.4-1.2,1c-0.1,0-0.2,0.2-0.3,0.4c-0.1,0.3-0.3,0.5-0.4,0.8
		c-0.4,0.7,0.1,1.2,0.7,1.4c0.1,0.3,0.2,0.7,0.3,0.9c0.5,0.6,1.4,0.6,1.8,0.1c3.3,3.6,6.3,7.5,9.7,10.9c0.3,0.4,0.7,0.7,1.1,1.2
		c-0.5,0.5-0.6,1.3,0.2,1.7c2.2,1.1,4.3,1.8,6.5,2.2c0.1,0,0.2,0.1,0.4,0.2c0.1,0.2,0.4,0.5,0.7,0.5c0.1,0,0.2,0,0.3,0.1
		c7.4,4.3,14.9,8.6,22.2,13.1c2,1.2,13,7.8,21.3,14.4c3,4.7,5,9.7,7.1,15.1c0.1,0.4,0.6,0.7,1.1,0.7c-1.4,2.3-2.6,4.6-4,6.9
		c-0.7,1,1.1,2.2,1.7,1.2C3495.7,402.3,3497.6,399.8,3498.6,397z M3448.1,351.7c0-0.2,0-0.6-0.3-0.9c1.6,0.6,3.1,1.4,4.7,2
		C3451.1,352.4,3449.7,352,3448.1,351.7z M3478,370.7c-8.4-5.5-16.9-10.6-25.6-15.7c9.9,3.5,19.2,9.7,27.3,16c1,0.8,1.9,1.6,2.9,2.5
		C3480.5,372.3,3478.8,371.3,3478,370.7z M3496.6,393.6c-0.8-2.1-1.8-4.3-2.7-6.4c1,1.7,2,3.6,2.8,5.4c0,0.1,0.1,0.3,0,0.6
		C3496.8,393.4,3496.7,393.5,3496.6,393.6z"/>
	<path class="st6" d="M3507.8,417.8c0-0.1,0-0.1,0-0.2c0.8-0.1,1.2-0.9,0.8-1.7c-1.7-2.9-3.6-6.9-6.5-9.2c0,0-0.1,0,0-0.1
		c-0.2-0.2-0.5-0.4-0.7-0.4c-0.2-0.1-0.4-0.2-0.5-0.3c8.4-14.8,19.8-28.4,33.1-38.8c1.2-0.8-0.1-2.7-1.2-1.8
		c-15,11.9-27.8,27.5-36.5,44.6c-0.4,0.7,0.1,1.4,0.9,1.5l-0.6-0.3c1.8,2,4.2,4.5,4.7,5.8l0,0c0,0,0.7,0.5,0.8,0.6
		c0.2,0.2,0.8,0.4,1.1,0.5c0.1,0.3,0.7,0.5,0.9,0.5c0,0.1,0.1,0.4,0.2,0.7c0.1,0.3,0.6,0.6,1,0.8c0,0.1,0,0.4,0,0.6
		c0.2,1,1.5,0.8,2.1,0.2C3507.8,419.5,3507.6,418.9,3507.8,417.8z"/>
	<path class="st6" d="M3454.9,333.4c-7.6-13.2-16-25.8-27.3-36.1c-1.1-0.9-2.5,0.6-1.5,1.6c11.1,10.2,19.4,22.8,27,35.8
		C3453.7,335.7,3455.6,334.4,3454.9,333.4z"/>
	<path class="st6" d="M3467.7,343.1c-5.9-18.1-17.9-35.7-32.3-48.1c-1.1-0.9-2.5,0.6-1.4,1.6c14.1,12.2,25.9,29.4,31.8,47.2
		C3466.2,345.2,3468.2,344.4,3467.7,343.1z"/>
	<path class="st11" d="M3861,405.3l4,4.9c0,0,8.4-1.2,9-5.4c0.7-4.5-3.1-14.4-6.5-18.9c0.7-0.3,2.1-0.8,3.6-0.8
		c2-0.1,25-19.6,25-19.6s3.2-1,4.2-0.6c1,0.3,14.9-13.5,15.4-13.3s3.5,1.6,5.1,2.3c1.7,0.8,10.6-2.3,10.6-2.3s1.6,0.1,3.2,0.6
		c1.6,0.6,5-0.3,6.4-0.7c1.6-0.5,2.1-2.3,2.1-2.3l5.4-1.3l0.5-1.4l-2.1-9.5l-6.6,0.4c0,0-0.5-3.8,0-6.5c0.5-2.6,4.7-5.3,6.2-8.7
		c0.6-1.5,0.3-3.7-0.2-5.4c1-1.6,7.3-8.3,8.3-8.5c0.8-0.1,1.9-1.4,2.8-2.4c0.1,0,0.1,0,0.2,0l0,0l0,0c0.1,0,0.2,0,0.2,0
		c1.9,2.2,6,5.9,6,5.8c-0.1-0.2-2.5-4.9-3.8-7.4c0.2-0.1,8.3,3,8.3,3l-6.4-5.7c0.2-0.5,8.7-2.1,8.4-2.2c-1.5-0.5-6.8-1.3-8.4-1.8
		c-0.1-0.4,6.7-8.7,6.7-8.7l-9.1,4.6h-0.1v0.1c-0.5-0.5,0-10.6,0-11c0.1-0.5-4.1,7.7-4.1,7.7l0,0l0,0c-0.3-0.1-4,0.3-4.3,0.4
		c-0.3-0.4-2.5,1.9-2.5,2.1c-0.2,0.5-3.4,4.7-3.4,4.7l-3.6,2.2c0,0-0.5-1.1-0.4-2.2c0.2-0.9,0.6-3.9,2.2-5.3
		c1.3-1.1,2.9-2.8,3.1-3.7c0.2-0.4,12.7-15.6,13.9-16.6c1.3-1,11.7-9.7,12-10c1.5,1.2,2.9,1.8,3.5,1.3c0.2-0.1,2.9-4.3,1.8-6.4
		l-0.3-0.4c0.3-0.2,0.8-0.4,1-0.2c0.7,0.2,2,0.7,3.1-0.1c1.2-0.9,1.9-1.4,2.6-1.3c0.7,0,1.7,0.2,1.7,0.2l2.5-1.9
		c0,0-4.5-3.6-6.9-4.1c-1.7-0.4-7.6,0.7-8.6,2.5l-0.9-1.6c-1-0.8-2.8-1.4-4.1,0.2c0,0-2.8,1.6-0.1,6c-1,0.6-8.5,6.8-8.5,6.8
		s-0.6,0.6-1.9,1.6s-2.7,3.9-2.7,3.9s-1.7,1.8-5.5,4.4s-7.8,10-7.8,10s-3.8,0.5-7.8,1.5s-5.2,8.1-5.2,8.1s-5,7.6-7.7,10
		s-23.7,19.8-28.8,22.9c-5.1,3-20.3,13.7-22.1,15.2s-8.7,8.7-15.3,12.8c-2.5,1.5-5.6,3.7-8.4,5.7c0,0-9.6-7.2-13.3-7.9
		c-4.5-0.6-10.2,6.5-10.2,6.5"/>
	<path class="st12" d="M3645.4,309.5c0,0,14.6-36.3,16.2-38.6c0,0-5.5-5.9-4.4-7.8s9.8-2.9,9.8-2.9l6.9-25.9c0,0-6.4-5.7-5.2-7.7
		c1.1-2,10.4-2.6,10.4-2.6s10-32.1,11.9-41c0,0-6.3-2.6-3.1-7.7c3.4-5.1,5.9-3.1,5.9-3.1l3.6-14.6l2.2,15.3c0,0,5.3-0.7,3.8,6.3
		c0,0-0.6,3-3.3,3.5"/>
	<path class="st9" d="M3728.5,307.6c0,0-9.3-31.8-10.6-34.3c0,0,6.2-5.2,5.3-7.2c-0.8-2-8-3.6-8-3.6l-5.1-27.1c0,0,7-4.8,6.2-7
		c-0.8-2.1-8.8-3.3-8.8-3.3s-7.1-32.5-8-41.6c0,0,6.6-1.7,4-7.3c-2.7-5.5-5.4-3.8-5.4-3.8l-1.7-15l-4,14.9c0,0-5.3-1.4-4.6,5.8
		c0,0,0.2,3,2.8,4"/>
	<g>
		<g id="XMLID_42_">
			<g id="XMLID_43_">
				<g id="XMLID_44_">
					<path id="XMLID_45_" class="st13" d="M3547.1,364l-8.2-5.4l-3.3,1.7c0,0-2.8-2.9-4-2.9c-2.1,0-4.9,4.8-6.9,4.7h-0.1
						c-4.4-3.1-16.2-7.3-17.7-12.4c-0.1-0.4,0.8-1.5,0.7-2c-1.3-4.7-12.8-7.9-15.1-12.3c-0.3-0.5,0.1-1.8-0.3-2.4
						c-6.3-11-40.8-29.7-40.8-29.7s3.4-4.9,5.5-9.6c2.1-4.8,11.4-14.9,11.4-14.9s0.7-1.3,0.3-4.9c-0.4-2.8-3.5-6.7-4.7-8
						c-0.4-0.3-0.5-0.5-0.5-0.5s1.3-2.5,2.5-4.4c1.4-1.9,5.2-8.3,5.9-12c0.8-3.5-1.2-3.5-2.1-3.3c-1,0.3-4.9,6.2-4.9,6.2
						s0.7-2.5,0.2-3.1c-0.5-0.5-2.7,4.7-3.5,6.4c-0.9,1.7-1.1,4.2-1.1,4.2l-1.3,2.5c0,0-0.1,0.2-0.4,0.6c-2,2.3-9.6,11.8-12.3,15.1
						c-3,3.6-10.3,8.3-14.9,10.9s-8.5,7.6-8.5,7.6s-2.9-1.2-3.8-1.8c-0.8-0.7-5.2-4.2-10.2-8c-5.1-3.8-8.7-0.4-10.3,2.5
						c0,0.1,0,0.1-0.1,0.2c-2.3,4.4,1.6,7.9,4.3,10.6c2.8,2.7,8.6,10,8.6,10s-1.1,1-3.1,3.9c-2.2,2.8-3.8,8.6-5.9,10.2
						c-2.1,1.7-5,7.5-5.6,8.9c-0.6,1.5-14.4,17.4-15.6,19v0.1c-1,1.2-3.3,1.7-5.3,2.7c-2,0.8-4.3,3.7-5.3,5.2c-1.1,1.6,0.5,2,0.5,2
						s-1.6,1.6-2.3,2.8c-0.8,1.2-2.1,3.2-0.3,3.9c1.7,0.8,9.4-5.2,11.5-7.7c2-2.2,4.4-4.7,4.7-5.1v-0.1c0,0,2.9,0.6,6.3,1.1
						s11.1-0.4,11.1-0.4s2.1-3.3,4.1-5.8c2-2.4,3.4-4.9,5.5-5.9s11.7-8.2,11.7-8.2s11.9,17.7,18.4,17.8c0.8,0.1,1.6-1.5,2.9-0.6
						c1.3,1,2.3,0.7,3.1,0.9c15,5.2,44.8,25.8,48.2,41.4c0,0.2-0.3,0.6-0.4,0.9c-0.9,1.8-3.7,5.4-3.3,7.3c0.3,1.2,3.1,2.3,3.4,3.5
						c0.2,0.9-1.2,3.6-1.2,3.6l11.4,14.1l2.7-8.4"/>
				</g>
			</g>
		</g>
	</g>
	<path class="st1" d="M3588.9,571.5c-1-1.7-3.1-2-4.9-1.3c0.2-0.1-0.7,0.3-1,0.4h-0.1h-0.1c0-0.1-0.2-0.3-0.3-0.5
		c-0.3-0.7-0.3-1.2-0.7-1.8c-0.5-0.5-1.4-0.5-1.9,0c-1.6,1.4-1,4.8-0.1,6.4c1.7,2.9,5.2,3.1,8,1.7
		C3589.1,575.3,3589.8,573.2,3588.9,571.5z"/>
	<path class="st14" d="M3696.4,307.3c17.7,7.4,34.7,23.5,44.9,55.6c30.4,94.2-139.9,187.3-152.6,43.7"/>
	<path class="st15" d="M3842.6,397c0,0-99.8,17.8-150.6,148.4c-50.8,130.6-168.5,119.3-169.1,47.6s54.9-48,59.4-15.5"/>
	<path class="st16" d="M3520.4,388.8c0,0,49.8,234.4,311.9,116.7"/>
	<path class="st15" d="M3842.6,397c0,0-30.1,5.4-65.6,31.8"/>
</g>
<path class="st6" d="M3162.1,365.1c-2.2,0.8-4.9,1.7-7.1,2C3157.3,367.3,3159.7,366.4,3162.1,365.1"/>
<path class="st10" d="M1903.4,386.6c41.4,5.7,83.1,8.8,125,9.4c6.5,0.1,14-0.3,17.9-5.1"/>
<path class="st10" d="M1933.3,337.7c18.4,8.3,42.1,2.6,54.8-13.2"/>
<path class="st10" d="M1883,296.6c60.2-10.8,119.6-25.3,177.9-43.5"/>
<path class="st10" d="M1862.8,244.5c33.8-10.9,66.6-25,97.9-41.9"/>
<path class="st10" d="M1867.6,166.4c5.4-9.6,16.1-15.5,26.3-21c34-18.2,68-36.4,102.1-54.6"/>
<path class="st10" d="M1810.7,108.2c28.2-9.4,53.9-26,74.2-47.6"/>
<path class="st10" d="M1733.5,53c65-69.6,150.2-117.1,219.6-182.4"/>
<path class="st10" d="M1900.3,440.4c18.7-3,38.5,2.9,52.6,15.5"/>
<path class="st10" d="M1898.1,515.7c47.9,16.8,98.4,29.7,150.3,38.4c6.2,1,12.4,2,18.3,3.5"/>
<path class="st10" d="M1882.8,586.2c14,14.9,32.2,25.7,51.9,30.8"/>
<path class="st10" d="M1872.9,656.8c13.8,7,27.5,14,41.3,21c23.1,11.7,46.2,23.5,68,38.6c35.3,24.4,69.3,58.4,109.7,59.9"/>
<path class="st10" d="M1831.3,692.1c8.2,17,24.2,29.9,42.5,34.4c-2.6,0-5.3-0.1-7.9-0.1"/>
<path class="st10" d="M1784.7,752.1c-0.3,13.7,4.6,27.5,13.2,37.6c9.1,10.6,21.6,16.9,33.7,23.1c29.7,15.2,58.8,31.5,87.4,49
	c5.5,3.4,11.2,6.9,15.3,12.1c3,3.8,5.1,8.3,8.1,12.1c4.6,6,11.2,10.1,18.3,11.4"/>
<path class="st10" d="M1735.7,812.4c6.5,22.4,20.7,42.6,39.6,56.2"/>
<path class="st17" d="M1663.6,7.3c-0.6,32.9,21.7,64.8,52.7,75.7c30.2,10.6,63.3,2,94-6.5c-17.8,12.4-26.8,36.3-21.4,57.3
	s24.7,37.7,46.3,40c9,1,21.1,1.7,22.9,10.6c0.6,3-0.4,6.1-1.4,9c-7.3,21.2-16.6,42.2-17.8,64.6c-1.2,22.4,8,47.2,28.4,56.6
	c16,7.4,40.9,9.2,41.6,26.8c0.5,12.8-13.8,20.2-23.1,29c-18.3,17.4-18.7,47.5-8,70.3c10.8,22.8,30.3,40,49.4,56.5
	c-28.9,15.7-75.1,8.8-86.1,39.9c-3.6,10.3-1.4,21.6,1.5,32.1c6.7,24,16.9,46.9,30.2,67.9c-38.6,0.3-83.9,4.1-104.5,36.8
	c-13.7,21.8-11.3,51,0.8,73.7c3.7,7,8.5,14.9,5.8,22.4c-1.8,5-6.4,8.2-10.8,11.2c-18.2,12.3-36.4,24.6-54.7,36.9
	c-6.6,4.4-13.5,9-21.4,10.1c-13,1.8-25.2-6.3-38.2-8c-30.1-3.9-54.8,36.6-37.7,61.6c-59-16.8-132.1-13.6-169.8,34.9
	c1.2-17.4-20.4-28.7-37.4-25s-30.3,16.5-44.1,27.1c-13.9,10.6-31.6,19.6-48.1,14"/>
<path class="st6" d="M2749,435.4c19.6,1.8,37.9-10.7,42.8-29.8c4.2-16.1,15.9-31.1,45.7-27.3c60,7.6,69,53.9,117,6s87-52.3,102-44.8
	s34.8,21.8,34.8,21.8s18.9,29.8,17.9,68.5c0,0-64.7,36.8-106.7-1.2s-108,46.7-108,46.7s-69,92.6-145.5,20.4S2749,435.4,2749,435.4
	L2749,435.4z"/>
<circle class="st10" cx="2914.1" cy="444.3" r="195.6"/>
<path class="st6" d="M2250.2,542.5c0,0-5-49.4,55-26.8c60,22.6,114-47.1,72-61.1s-38-79.1-8-96.7s-29.2-53.3-75.6-43.4
	c0,0,175.2-40.3,174.3,126.1C2467.2,582.3,2285.9,589.3,2250.2,542.5z"/>
<circle class="st10" cx="2335.2" cy="440.5" r="132.8"/>
</svg>
