<?xml version="1.0" encoding="utf-8"?>
<!-- Generator: Adobe Illustrator 19.0.0, SVG Export Plug-In . SVG Version: 6.00 Build 0)  -->
<svg version="1.1" id="Capa_1" xmlns="http://www.w3.org/2000/svg" xmlns:xlink="http://www.w3.org/1999/xlink" x="0px" y="0px"
	 viewBox="-601 375 19.5 43" style="enable-background:new -601 375 19.5 43;" xml:space="preserve">
<style type="text/css">
	.st0{fill:none;stroke:#1C4A65;stroke-width:1.743;stroke-linecap:round;stroke-miterlimit:10;}
</style>
<path class="st0" d="M-589,385.8l-4.8,3c-0.4,0.3-0.8,0.5-1.3,0.7c-0.4,0.2-0.8,0.3-1.3,0.3c-0.5,0-1.1-0.2-1.6-0.6
	c-0.5-0.3-0.8-0.9-0.8-1.7c0-1,0.4-1.7,1.2-2.2l9.4-5.8c0.3-0.2,0.5-0.3,0.8-0.3c0.3-0.1,0.5-0.1,0.8-0.1c0.8,0,1.4,0.3,2,0.8
	c0.5,0.5,0.8,1.1,0.8,1.8V411c0,0.7-0.3,1.2-0.8,1.8c-0.5,0.5-1.1,0.8-1.8,0.8s-1.3-0.3-1.8-0.8c-0.5-0.5-0.8-1.1-0.8-1.8
	L-589,385.8L-589,385.8z"/>
</svg>
