<?xml version="1.0" encoding="utf-8"?>
<!-- Generator: Adobe Illustrator 15.1.0, SVG Export Plug-In . SVG Version: 6.00 Build 0)  -->
<!DOCTYPE svg PUBLIC "-//W3C//DTD SVG 1.1//EN" "http://www.w3.org/Graphics/SVG/1.1/DTD/svg11.dtd">
<svg version="1.1" id="Layer_1" xmlns="http://www.w3.org/2000/svg" xmlns:xlink="http://www.w3.org/1999/xlink" x="0px" y="0px"
	 width="212px" height="209px" viewBox="0 0 212 209" enable-background="new 0 0 212 209" xml:space="preserve">
<rect x="50.432" y="69.493" transform="matrix(0.9934 -0.115 0.115 0.9934 -13.2581 10.6172)" fill="#FFFFFF" stroke="#214D6A" stroke-width="3.779" stroke-miterlimit="10" width="69.928" height="101.462"/>
<path fill="#E0DFE6" d="M123.054,144.641c-0.378-0.07-0.415,0.008-0.812,0.037c-0.545,0.043-0.617,0.045-0.219,0.006
	c-0.409-0.039-0.815-0.154-1.212-0.26c-0.038-0.012-0.077-0.023-0.125-0.037c-0.596-0.182-1.183-0.361-1.786-0.508
	c-0.862-0.209-1.938-0.098-2.824-0.129c-1.312-0.047-2.625-0.064-3.937-0.033c-3.141,0.074-6.309,0.551-9.445,0.971
	c-0.885-4.949-2.104-9.834-2.899-14.805c-0.536-3.346-0.969-6.707-1.487-10.057c-0.514-3.322-1.283-6.662-1.997-9.83
	c-1.439-6.383-1.765-12.967-2.374-19.463c-0.326-3.477-0.913-6.772-1.95-10.113c-0.92-2.965-1.962-5.487-2.331-8.322
	c-0.131-0.999-0.59-1.886-1.254-2.552c-2.083,0.597-4.329,0.831-6.519,0.849c-0.465,0.782-0.691,1.71-0.567,2.668
	c0.404,3.097,1.419,6.074,2.398,9.023c1.008,3.038,1.507,5.599,1.83,8.859c0.663,6.692,1.007,13.423,2.427,20.015
	c0.671,3.109,1.395,6.082,1.911,9.279c0.539,3.342,0.971,6.697,1.484,10.043c1.037,6.729,2.891,13.295,3.703,20.063
	c0.278,2.316,2.381,4.033,4.661,3.77c0.646-0.074,1.243-0.309,1.763-0.65c3.68-0.428,7.374-1.002,11.07-1.225
	c1.71-0.104,3.769-0.221,5.438,0.184c-0.425-0.135-0.396-0.127,0.086,0.021c0.61,0.188,1.22,0.371,1.836,0.533
	c1.067,0.281,2.21,0.275,3.302,0.199c0.692-0.049,0.114-0.307,0.655-0.693C123.1,149.955,123.6,147.229,123.054,144.641z"/>
<g>
	<g enable-background="new    ">
		<path fill="#214D6A" d="M59.436,89.767l2.282,2.868l-0.013-0.01c0.028,0.054,0.063,0.141,0.074,0.23
			c0.023,0.189-0.215,0.367-0.361,0.386c-0.121,0.015-0.243-0.038-0.322-0.13l-2.484-3.217l-1.453,0.184l0.412,3.263
			c0.027,0.213-0.117,0.413-0.33,0.439c-0.19,0.024-0.391-0.121-0.419-0.345l-0.9-7.131c-0.032-0.257,0.152-0.496,0.388-0.525
			l1.989-0.252c1.821-0.23,2.544,0.803,2.681,1.898C61.126,88.588,60.514,89.403,59.436,89.767z M58.344,86.248l-1.643,0.208
			l0.368,2.917l1.711-0.217c1.061-0.133,1.568-0.697,1.45-1.636C60.141,86.806,59.741,86.072,58.344,86.248z"/>
		<path fill="#214D6A" d="M65.905,91.709c0.021-0.014,0.073-0.043,0.118-0.049c0.18-0.023,0.333,0.117,0.354,0.273
			c0.063,0.503-1.102,0.809-1.695,0.883c-1.251,0.158-2.066-0.545-2.196-1.572l-0.271-2.146c-0.134-1.063,0.479-1.957,1.798-2.123
			c1.219-0.154,1.9,0.475,2.037,1.56c0.127,1.006-0.343,1.688-1.65,1.854c-0.369,0.047-0.832,0.07-1.278,0.037l0.101,0.793
			c0.086,0.682,0.602,1.082,1.496,0.97C65.23,92.123,65.525,91.939,65.905,91.709z M64.06,87.616
			c-0.805,0.102-1.218,0.608-1.13,1.301l0.12,0.95c0.488,0.006,1.084-0.047,1.318-0.076c0.938-0.118,1.032-0.641,0.966-1.166
			C65.23,87.809,64.775,87.525,64.06,87.616z"/>
		<path fill="#214D6A" d="M66.977,86.248c-0.178-1.408,0.567-2.149,1.67-2.334c0.177-0.033,0.959-0.133,1.015,0.314
			c0.027,0.213-0.113,0.355-0.303,0.379c-0.101,0.014-0.203,0.014-0.261,0.01c-0.147-0.004-0.309-0.018-0.453,0.002
			c-0.739,0.092-1.042,0.744-0.953,1.448l0.1,0.793l1.297-0.164c0.179-0.022,0.332,0.106,0.356,0.308
			c0.023,0.178-0.094,0.34-0.271,0.363l-1.297,0.164l0.559,4.426c0.025,0.201-0.079,0.361-0.313,0.393
			c-0.234,0.029-0.387-0.1-0.412-0.301L66.977,86.248z"/>
		<path fill="#214D6A" d="M74.245,90.656c0.021-0.014,0.073-0.044,0.118-0.05c0.18-0.022,0.332,0.117,0.353,0.273
			c0.063,0.503-1.102,0.81-1.694,0.884c-1.252,0.158-2.067-0.545-2.196-1.572l-0.272-2.146c-0.134-1.063,0.48-1.957,1.799-2.123
			c1.219-0.154,1.899,0.475,2.037,1.559c0.127,1.006-0.344,1.689-1.65,1.855c-0.37,0.047-0.832,0.07-1.279,0.037l0.101,0.793
			c0.086,0.682,0.603,1.082,1.497,0.969C73.57,91.07,73.865,90.886,74.245,90.656z M72.398,86.563
			c-0.805,0.102-1.218,0.609-1.129,1.301l0.119,0.95c0.488,0.007,1.084-0.046,1.319-0.075c0.938-0.119,1.032-0.642,0.965-1.167
			C73.57,86.756,73.115,86.473,72.398,86.563z"/>
		<path fill="#214D6A" d="M76.979,90.901c0.025,0.201-0.122,0.379-0.313,0.402c-0.211,0.026-0.389-0.11-0.414-0.311l-0.491-3.89
			c-0.049-0.391-0.123-0.621-0.309-0.824c-0.052-0.051-0.083-0.115-0.091-0.182c-0.024-0.19,0.115-0.344,0.295-0.366
			c0.146-0.019,0.331,0.106,0.479,0.292c0.482-0.402,1.117-0.676,1.531-0.729c0.392-0.049,0.534,0.092,0.56,0.293
			c0.028,0.224-0.118,0.412-0.31,0.426c-0.504,0.052-0.93,0.105-1.486,0.642l0.002,0.011c0,0,0.013,0.01,0.055,0.346L76.979,90.901z
			"/>
		<path fill="#214D6A" d="M82.852,89.569c0.021-0.014,0.074-0.044,0.119-0.05c0.179-0.021,0.333,0.117,0.353,0.273
			c0.063,0.503-1.102,0.81-1.694,0.884c-1.252,0.159-2.066-0.544-2.198-1.573l-0.27-2.146c-0.134-1.062,0.479-1.957,1.798-2.124
			c1.218-0.154,1.899,0.477,2.037,1.561c0.126,1.005-0.344,1.689-1.651,1.854c-0.369,0.047-0.831,0.072-1.278,0.037l0.1,0.793
			c0.086,0.682,0.604,1.082,1.497,0.971C82.177,89.982,82.472,89.799,82.852,89.569z M81.007,85.476
			c-0.806,0.102-1.219,0.608-1.131,1.302l0.12,0.949c0.489,0.007,1.084-0.047,1.318-0.076c0.939-0.118,1.033-0.641,0.966-1.166
			C82.178,85.668,81.722,85.385,81.007,85.476z"/>
		<path fill="#214D6A" d="M86.351,84.176c1.162-0.146,1.839,0.621,1.996,1.872l0.425,3.364c0.025,0.201-0.079,0.361-0.313,0.392
			c-0.236,0.029-0.389-0.099-0.413-0.3l-0.426-3.365c-0.117-0.928-0.576-1.414-1.325-1.319c-0.469,0.06-0.911,0.331-1.295,0.708
			c0.037,0.121,0.065,0.254,0.081,0.376l0.494,3.913c0.025,0.201-0.079,0.361-0.313,0.391c-0.246,0.031-0.388-0.099-0.412-0.3
			l-0.495-3.912c-0.049-0.392-0.123-0.62-0.308-0.824c-0.053-0.05-0.083-0.114-0.092-0.182c-0.023-0.189,0.116-0.344,0.283-0.364
			c0.146-0.02,0.351,0.08,0.505,0.311C85.242,84.486,85.803,84.245,86.351,84.176z"/>
		<path fill="#214D6A" d="M89.738,85.826c-0.144-1.14,0.348-2.11,1.733-2.285c0.502-0.063,1.525-0.057,1.586,0.424
			c0.021,0.168-0.096,0.318-0.264,0.34c-0.066,0.009-0.113,0.003-0.171-0.001l0.012-0.001c-0.298-0.109-0.583-0.211-0.996-0.158
			c-0.972,0.122-1.286,0.695-1.175,1.59l0.222,1.744c0.111,0.883,0.558,1.359,1.53,1.237c0.436-0.056,0.676-0.222,0.927-0.39
			l-0.011,0.002c0.075-0.033,0.118-0.05,0.163-0.056c0.168-0.021,0.32,0.108,0.342,0.275c0.059,0.47-0.931,0.729-1.434,0.794
			c-1.386,0.174-2.101-0.632-2.244-1.771L89.738,85.826z"/>
		<path fill="#214D6A" d="M94.521,81.702c-0.269,0.034-0.496-0.153-0.527-0.399c-0.033-0.269,0.143-0.495,0.41-0.529
			c0.246-0.031,0.484,0.144,0.518,0.412C94.953,81.432,94.768,81.671,94.521,81.702z M95.435,88.934
			c-0.212,0.027-0.389-0.109-0.413-0.311l-0.642-5.074c-0.025-0.202,0.11-0.389,0.323-0.416c0.189-0.023,0.378,0.122,0.403,0.324
			l0.642,5.074C95.772,88.732,95.624,88.91,95.435,88.934z"/>
		<path fill="#214D6A" d="M100.041,84.4c-0.114-0.905-0.593-1.276-1.477-1.164c-0.413,0.051-0.637,0.17-0.874,0.359
			c-0.062,0.053-0.146,0.109-0.257,0.123c-0.168,0.021-0.254-0.127-0.282-0.26c-0.104-0.463,0.699-0.758,1.447-0.853
			c1.375-0.174,2.021,0.54,2.206,2.003l0.319,2.527c0.037,0.29,0.155,0.422,0.356,0.396c0.045-0.006,0.065-0.02,0.088-0.021
			c0.168-0.021,0.267,0.125,0.285,0.27c0.027,0.224-0.186,0.33-0.388,0.355c-0.346,0.045-0.679-0.164-0.93-0.529
			c-0.412,0.506-0.91,0.796-1.514,0.873c-1.129,0.143-1.761-0.459-1.884-1.432l-0.006-0.045c-0.137-1.072,0.431-1.712,1.739-1.877
			c0.379-0.049,0.813-0.023,1.265,0.045L100.041,84.4z M97.851,86.926l0.005,0.044c0.073,0.581,0.384,0.974,1.234,0.866
			c0.514-0.064,0.905-0.296,1.294-0.721l-0.17-1.34c-0.465-0.089-0.943-0.098-1.278-0.055
			C97.907,85.852,97.778,86.355,97.851,86.926z"/>
	</g>
</g>
<path fill="none" stroke="#214D6A" stroke-width="2" stroke-miterlimit="10" d="M86.893,155.512c-1.9,2.074-5.382,2.371-3.594-1.17
	c0.401-0.793,1.281,0.928,0.561,2.016c-0.73,1.104-2.488,1.881-3.392,0.693c-1.472-1.938,5.491-1.121,0.559,1.773
	c-3.627,2.129-6.39-3.889-2.777-3.879c0.442,1.684-0.981,4.781-3.168,3.877c-2.461-1.018-0.65-4.891,0.563-3.398
	c3.44,4.229-7.999,2.404-2.815,0.129c0.123,0.951-0.684,3.221-1.935,2.752c-1.243-0.465,0.333-3.938,0.445-4.762
	c0.185-1.35,0.481-3.396-0.417-4.59c-0.189-0.252-2.691-2.15-2.854-1.287c-0.725,3.857-1.805,7.553-2.412,11.439
	c-0.368,2.354-0.33,6.484-2.826,7.678"/>
<g>
	<path fill="none" stroke="#214D6A" stroke-width="2" stroke-miterlimit="10" d="M61.18,107.873
		c1.766-0.963,3.209-3.652,4.806-5.162c0.336,1.119-0.181,4.406,0.969,4.883c1.367,0.57,3.937-3.84,4.831-4.568
		c-0.966,4.639,5.03,0.01,6.106-1.174c-0.052,1.02,0.171,2.078,0.628,2.949c1.317-0.668,2.449-2.367,3.624-2.98
		c-0.744,4.811,4.729-1.189,6.105-1.865c0.064,1.295,0.011,2.633,0.087,3.918c2.719,0.352,4.493-2.26,6.904-3.035
		c2.089-0.672,3.533-0.387,5.754-2.58c-0.579,1.188-1.311,2.221-1.388,3.475c1.863-0.113,2.97-2.049,5.129-1.779"/>
	<path fill="none" stroke="#214D6A" stroke-width="2" stroke-miterlimit="10" d="M61.789,112.746
		c2.659,5.066,2.463,3.742,6.327,0.328c0.606,3.205,4.368-0.961,5.816-1.201c-0.065,0.434,0.112,1.004,0.078,1.443
		c2.131-0.016,3.595-2.072,5.725-2.365c-0.098,0.523,0.161,1.229,0.063,1.746c2.438,0.16,4.563-2.154,6.927-2.324
		c0.029,1.652-0.514,4.258,1.207,4.805c1.62,0.512,4.715-4.027,5.556-5.088c0.998,3.061,8.726-1.168,10.34,0.121
		c0.482-0.264,0.084-0.516,0.299-0.816"/>
	<path fill="none" stroke="#214D6A" stroke-width="2" stroke-miterlimit="10" d="M61.789,123.102c-0.037,0.488-0.021,1,0.046,1.477
		c1.804,0.078,2.419-2.188,3.867-2.982c-0.126,0.605,0.186,1.453,0.093,2.066c2.065,0.25,3.805-2.229,5.462-3.215
		c-0.165,1.072-0.263,2.158-0.29,3.225c2.049-0.24,4.934-1.939,6.621-3.219c-0.129,4.541,6.247-3.354,6.78,0.471
		c2.568,0.432,4.476-1.049,6.574-2.016c-0.55,0.725-0.833,1.873-1.099,2.629c2.158-0.518,4.336-1.834,6.675-2.316
		c1.8-0.373,3.891-0.205,5.415-1.258c0.839,1.678,2.667,2.627,3.717,0.57"/>
	<path fill="none" stroke="#214D6A" stroke-width="2" stroke-miterlimit="10" d="M66.053,130.107
		c-0.697,0.584-0.862,1.627-0.57,2.701c2.275-0.26,3.413-2.971,5.086-4.199c0.009,4.004,6.803-0.393,8.237-1.227
		c-0.308,0.758-0.04,1.951-0.172,2.682c3.104,0.191,4.686-3.467,7.497-4.195c-1.131,5.207,6.179,1.289,7.837-0.07
		c-0.567,0.752-0.266,0.945-0.478,1.826c2.426,0.518,4.009-1.35,6.027-2.002c-0.129,0.594,0.188,1.416,0.087,2.006
		c1.756,0.006,5.383-0.633,6.654-1.785"/>
	<path fill="none" stroke="#214D6A" stroke-width="2" stroke-miterlimit="10" d="M65.444,140.768
		c1.759,1.045,4.056-1.646,5.116-3.027c-0.938,4.277,4.391,0.896,5.482-0.525c-0.978,4.928,4.338-0.164,5.818-0.375
		c-0.518,5.203,5.049-0.672,6.691-0.904c-0.116,0.379-0.111,1.078-0.239,1.459c2.196-0.912,4.833-2.723,7.26-2.686
		c-0.472,0.707-0.31,1.672-0.536,2.363c2.292,0.018,4.813-1.236,6.918-2.059c-0.229,0.521-0.054,1.533-0.225,2.059
		c1.861,0.031,3.276-1.531,5.085-1.742c0.802,1.1,2.129,0.201,2.794-0.957"/>
</g>
<rect x="92.484" y="42.985" transform="matrix(0.9934 -0.115 0.115 0.9934 -9.9331 15.2806)" fill="#FFFFFF" stroke="#214D6A" stroke-width="3.779" stroke-miterlimit="10" width="69.929" height="101.463"/>
<g>
	<g enable-background="new    ">
		<path fill="#214D6A" d="M99.145,58.899c-0.216-1.71,0.437-2.928,2.135-3.143c0.996-0.126,1.986,0.169,2.047,0.65
			c0.021,0.179-0.094,0.33-0.284,0.354c-0.102,0.013-0.163-0.025-0.26-0.069c-0.024-0.02-0.084-0.035-0.12-0.053
			c-0.399-0.2-0.796-0.286-1.243-0.229c-1.353,0.171-1.694,1.066-1.525,2.396l0.308,2.448c0.168,1.319,0.721,2.101,2.073,1.93
			c0.447-0.057,0.813-0.216,1.128-0.506l0.113-0.094c0.103-0.091,0.165-0.134,0.243-0.144c0.19-0.024,0.343,0.104,0.363,0.272
			c0.063,0.492-0.825,1.013-1.82,1.138c-1.699,0.214-2.634-0.803-2.848-2.501L99.145,58.899z"/>
		<path fill="#214D6A" d="M108.363,62.118c0.021-0.013,0.074-0.043,0.119-0.049c0.18-0.022,0.333,0.117,0.353,0.273
			c0.063,0.503-1.102,0.809-1.694,0.884c-1.252,0.158-2.067-0.544-2.196-1.573l-0.272-2.146c-0.134-1.062,0.479-1.957,1.799-2.124
			c1.219-0.154,1.899,0.476,2.037,1.56c0.127,1.006-0.344,1.689-1.651,1.855c-0.369,0.046-0.831,0.071-1.279,0.037l0.102,0.793
			c0.085,0.681,0.603,1.082,1.496,0.969C107.689,62.532,107.983,62.348,108.363,62.118z M106.518,58.024
			c-0.805,0.102-1.218,0.608-1.131,1.301l0.121,0.95c0.489,0.006,1.084-0.046,1.318-0.076c0.939-0.118,1.032-0.641,0.966-1.167
			C107.689,58.217,107.233,57.934,106.518,58.024z"/>
		<path fill="#214D6A" d="M111.098,62.363c0.025,0.201-0.122,0.379-0.313,0.403c-0.213,0.027-0.389-0.11-0.414-0.312l-0.49-3.89
			c-0.05-0.391-0.124-0.62-0.31-0.824c-0.052-0.051-0.083-0.115-0.091-0.182c-0.024-0.19,0.115-0.343,0.295-0.366
			c0.145-0.019,0.33,0.105,0.479,0.292c0.483-0.401,1.119-0.675,1.532-0.727c0.392-0.049,0.534,0.091,0.56,0.292
			c0.028,0.223-0.119,0.413-0.311,0.425c-0.504,0.052-0.928,0.106-1.485,0.642l0.001,0.01c0,0,0.013,0.01,0.056,0.345
			L111.098,62.363z"/>
		<path fill="#214D6A" d="M113.234,55.189c-0.022-0.19,0.079-0.374,0.313-0.403c0.235-0.03,0.379,0.123,0.402,0.313l0.213,1.677
			l1.297-0.164c0.178-0.022,0.342,0.104,0.367,0.306c0.023,0.179-0.104,0.342-0.282,0.365l-1.297,0.164l0.302,2.392
			c0.157,1.241,0.35,1.682,1.253,1.568c0.079-0.01,0.146-0.03,0.223-0.04c0.212-0.027,0.507-0.03,0.545,0.272
			c0.04,0.313-0.246,0.383-0.514,0.417c-1.543,0.195-2.019-0.518-2.213-2.049L113.234,55.189z"/>
		<path fill="#214D6A" d="M117.238,54.604c-0.269,0.033-0.496-0.153-0.527-0.399c-0.033-0.268,0.143-0.495,0.41-0.528
			c0.247-0.031,0.485,0.143,0.518,0.411C117.67,54.333,117.484,54.573,117.238,54.604z M118.151,61.835
			c-0.212,0.027-0.389-0.11-0.413-0.311l-0.642-5.074c-0.025-0.202,0.109-0.389,0.323-0.416c0.19-0.024,0.378,0.123,0.404,0.324
			l0.641,5.075C118.49,61.634,118.341,61.811,118.151,61.835z"/>
		<path fill="#214D6A" d="M119.606,55.372c-0.178-1.408,0.479-2.139,1.446-2.306c0.167-0.032,0.948-0.131,1.006,0.315
			c0.026,0.212-0.114,0.355-0.294,0.377c-0.11,0.014-0.201,0.014-0.259,0.01c-0.159-0.002-0.32-0.017-0.455,0
			c-0.58,0.073-0.818,0.717-0.729,1.42l0.101,0.794l1.296-0.164c0.179-0.022,0.343,0.104,0.368,0.305
			c0.022,0.179-0.104,0.343-0.284,0.366l-1.296,0.164l0.559,4.426c0.026,0.201-0.079,0.362-0.313,0.392
			c-0.235,0.03-0.388-0.099-0.414-0.3L119.606,55.372z M123.175,53.854c-0.259,0.032-0.498-0.153-0.528-0.399
			c-0.033-0.269,0.153-0.496,0.41-0.529c0.258-0.032,0.484,0.144,0.518,0.412C123.604,53.584,123.431,53.822,123.175,53.854z
			 M124.088,61.085c-0.202,0.025-0.389-0.11-0.414-0.311l-0.641-5.074c-0.025-0.201,0.121-0.39,0.321-0.415
			c0.202-0.026,0.38,0.122,0.404,0.323l0.642,5.074C124.425,60.884,124.288,61.06,124.088,61.085z"/>
		<path fill="#214D6A" d="M125.366,57.097c-0.143-1.14,0.349-2.11,1.733-2.285c0.503-0.063,1.526-0.057,1.586,0.424
			c0.022,0.168-0.095,0.319-0.262,0.34c-0.068,0.008-0.114,0.003-0.172,0l0.012-0.002c-0.298-0.11-0.583-0.21-0.996-0.158
			c-0.973,0.123-1.286,0.696-1.175,1.59l0.222,1.744c0.111,0.883,0.558,1.36,1.529,1.238c0.436-0.056,0.677-0.222,0.928-0.39
			l-0.01,0.001c0.074-0.032,0.117-0.049,0.162-0.055c0.168-0.021,0.319,0.107,0.341,0.275c0.059,0.469-0.93,0.73-1.432,0.794
			c-1.387,0.175-2.101-0.632-2.246-1.771L125.366,57.097z"/>
		<path fill="#214D6A" d="M132.931,56.018c-0.114-0.906-0.593-1.277-1.477-1.166c-0.413,0.052-0.637,0.172-0.874,0.361
			c-0.063,0.052-0.146,0.109-0.257,0.123c-0.168,0.021-0.255-0.127-0.283-0.26c-0.104-0.464,0.699-0.758,1.448-0.853
			c1.374-0.173,2.021,0.54,2.207,2.004l0.318,2.526c0.036,0.291,0.156,0.423,0.357,0.398c0.043-0.006,0.065-0.021,0.087-0.023
			c0.168-0.021,0.267,0.125,0.285,0.271c0.027,0.224-0.186,0.331-0.388,0.356c-0.346,0.043-0.679-0.164-0.93-0.53
			c-0.413,0.506-0.91,0.795-1.514,0.872c-1.129,0.143-1.761-0.458-1.885-1.431l-0.005-0.044c-0.136-1.073,0.432-1.713,1.738-1.878
			c0.38-0.048,0.815-0.023,1.266,0.044L132.931,56.018z M130.74,58.542l0.006,0.044c0.072,0.582,0.384,0.974,1.233,0.866
			c0.514-0.065,0.905-0.296,1.294-0.719l-0.17-1.341c-0.465-0.089-0.943-0.097-1.277-0.054
			C130.797,57.467,130.668,57.972,130.74,58.542z"/>
		<path fill="#214D6A" d="M135.148,55.861c-0.145-1.14,0.346-2.11,1.732-2.285c0.502-0.063,1.525-0.056,1.587,0.424
			c0.02,0.167-0.097,0.319-0.264,0.34c-0.067,0.008-0.113,0.003-0.171-0.001l0.012-0.002c-0.299-0.109-0.583-0.21-0.997-0.158
			c-0.973,0.122-1.286,0.696-1.173,1.59l0.22,1.744c0.111,0.883,0.559,1.36,1.529,1.237c0.437-0.055,0.677-0.222,0.928-0.39
			l-0.011,0.001c0.075-0.032,0.119-0.049,0.164-0.055c0.167-0.021,0.32,0.107,0.34,0.275c0.061,0.469-0.929,0.73-1.433,0.793
			c-1.386,0.175-2.101-0.631-2.243-1.771L135.148,55.861z"/>
		<path fill="#214D6A" d="M139.931,51.737c-0.269,0.034-0.497-0.152-0.527-0.399c-0.033-0.268,0.143-0.495,0.411-0.529
			c0.245-0.031,0.483,0.144,0.517,0.412C140.362,51.467,140.176,51.707,139.931,51.737z M140.844,58.97
			c-0.212,0.026-0.388-0.11-0.414-0.312l-0.641-5.074c-0.025-0.201,0.11-0.389,0.322-0.416c0.189-0.024,0.379,0.122,0.404,0.324
			l0.642,5.075C141.183,58.768,141.034,58.945,140.844,58.97z"/>
		<path fill="#214D6A" d="M142.509,56.772l-0.243-1.923c-0.14-1.106,0.479-2.059,1.819-2.228c1.353-0.17,2.177,0.6,2.316,1.707
			l0.243,1.922c0.14,1.107-0.469,2.046-1.821,2.217C143.482,58.636,142.648,57.878,142.509,56.772z M145.918,56.341l-0.244-1.934
			c-0.102-0.805-0.612-1.251-1.507-1.138c-0.883,0.111-1.277,0.672-1.175,1.477l0.244,1.934c0.102,0.805,0.622,1.238,1.504,1.127
			C145.635,57.694,146.02,57.146,145.918,56.341z"/>
		<path fill="#214D6A" d="M149.769,51.937c1.161-0.146,1.837,0.62,1.996,1.872l0.424,3.364c0.026,0.201-0.079,0.362-0.313,0.392
			c-0.234,0.029-0.387-0.099-0.412-0.3l-0.425-3.364c-0.118-0.928-0.576-1.415-1.325-1.32c-0.469,0.059-0.912,0.332-1.297,0.709
			c0.038,0.12,0.067,0.253,0.082,0.376l0.494,3.912c0.026,0.201-0.079,0.362-0.314,0.392c-0.245,0.031-0.386-0.099-0.411-0.3
			l-0.495-3.912c-0.049-0.391-0.123-0.621-0.308-0.824c-0.052-0.05-0.083-0.114-0.092-0.182c-0.023-0.189,0.116-0.344,0.284-0.365
			c0.145-0.018,0.351,0.081,0.504,0.311C148.66,52.248,149.22,52.007,149.769,51.937z"/>
	</g>
	<path fill="#214D6A" d="M144.387,50.346c0.059-0.076,0.126-0.175,0.237-0.189c0.157-0.02,0.3,0.122,0.317,0.267
		c0.006,0.045,0.001,0.102-0.017,0.139l-0.794,1.088c-0.098,0.126-0.154,0.213-0.277,0.229c-0.168,0.021-0.32-0.108-0.342-0.275
		c-0.006-0.044,0.003-0.068,0.031-0.118L144.387,50.346z"/>
</g>
<path fill="none" stroke="#214D6A" stroke-width="2" stroke-miterlimit="10" d="M107.986,139.406c1.636-0.924,3.102-4.01,3.67-5.717
	c-0.046,1.074-0.036,2.182,0.032,3.24c1.864,0.064,2.931-2.865,2.634-4.525c-0.557,0.783-0.641,1.723-0.503,2.691
	c2.138,0.045,1.967-2.914,1.722-4.51c-0.877,1.361-0.588,3.693-0.502,5.436c1.551-0.373,2.318-2.279,2.694-3.852
	c0.637,1.922,0.338,4.26,0.274,6.275c-1.118,0.145-2.187-0.313-2.908-1.178c2.105-0.762,3.648-3.09,5.298-4.529
	c-2.354,0.922-4.527,2.635-6.913,3.604c3.908-1.801,8.186-3.578,12.474-4.246"/>
<path fill="none" stroke="#214D6A" stroke-width="2" stroke-miterlimit="10" d="M147.278,132.4c-2.258-0.32-4.216-2.332-2.464-4.572
	c2.081-2.664,6.462-0.705,4.019,2.342c0.435-0.705,1.366-1.328,2.107-1.795c1.024,1.234,1.057,3.275,1.257,4.9
	c1.771,0.195,4.718-3.037,3.942-4.93c-0.681-1.66-2.839-1.484-3.034,0.354c2.422,0.652,5.79-3.064,3.037-3.242
	c3.352,2.838,3.081,0.619,2.017,5.359c-4.177,0.287-8.03-0.221-11.655,1.852c2.304-1.527,6.635-1.85,9.318-1.82
	c2.09,0.025,4.771,1.266,6.685,0.334"/>
<path fill="none" stroke="#214D6A" stroke-width="2" stroke-miterlimit="10" d="M105.168,85.557
	c1.766-0.962,3.208-3.651,4.805-5.162c0.337,1.119-0.18,4.406,0.969,4.884c1.368,0.569,3.938-3.842,4.832-4.571
	c-0.966,4.639,5.029,0.011,6.106-1.173c-0.052,1.02,0.171,2.079,0.628,2.949c1.317-0.667,2.448-2.367,3.623-2.979
	c-0.744,4.811,4.729-1.191,6.106-1.865c0.064,1.295,0.011,2.631,0.087,3.917c2.72,0.351,4.493-2.26,6.903-3.035
	c2.089-0.672,3.533-0.386,5.755-2.581c-0.579,1.188-1.312,2.221-1.389,3.476c1.863-0.114,2.97-2.05,5.13-1.781"/>
<path fill="none" stroke="#214D6A" stroke-width="2" stroke-miterlimit="10" d="M105.777,90.43c2.659,5.066,2.463,3.742,6.326,0.329
	c0.607,3.204,4.369-0.962,5.816-1.202c-0.065,0.433,0.113,1.004,0.08,1.443c2.129-0.016,3.595-2.07,5.724-2.365
	c-0.099,0.524,0.16,1.23,0.063,1.748c2.438,0.159,4.563-2.156,6.927-2.325c0.029,1.651-0.514,4.259,1.207,4.804
	c1.62,0.514,4.715-4.027,5.556-5.088c0.997,3.063,8.725-1.168,10.34,0.121c0.482-0.262,0.083-0.515,0.298-0.814"/>
<path fill="none" stroke="#214D6A" stroke-width="2" stroke-miterlimit="10" d="M105.777,100.785c-0.037,0.49-0.021,1,0.046,1.477
	c1.804,0.08,2.419-2.188,3.867-2.98c-0.126,0.605,0.185,1.451,0.094,2.066c2.063,0.248,3.804-2.23,5.461-3.215
	c-0.164,1.07-0.262,2.156-0.29,3.223c2.049-0.24,4.934-1.938,6.621-3.219c-0.129,4.543,6.247-3.354,6.779,0.471
	c2.569,0.432,4.477-1.047,6.574-2.016c-0.549,0.725-0.832,1.875-1.097,2.629c2.157-0.516,4.334-1.832,6.674-2.316
	c1.8-0.373,3.891-0.203,5.414-1.258c0.839,1.678,2.666,2.627,3.718,0.57"/>
<path fill="none" stroke="#214D6A" stroke-width="2" stroke-miterlimit="10" d="M110.04,107.791
	c-0.696,0.584-0.861,1.625-0.569,2.701c2.275-0.258,3.413-2.971,5.085-4.199c0.009,4.004,6.804-0.393,8.238-1.225
	c-0.308,0.758-0.041,1.949-0.171,2.68c3.104,0.193,4.685-3.467,7.497-4.195c-1.132,5.209,6.178,1.289,7.837-0.07
	c-0.568,0.752-0.266,0.945-0.478,1.826c2.425,0.518,4.008-1.35,6.026-2.002c-0.128,0.594,0.188,1.418,0.088,2.008
	c1.755,0.004,5.382-0.633,6.654-1.787"/>
<path fill="none" stroke="#214D6A" stroke-width="2" stroke-miterlimit="10" d="M109.432,118.453
	c1.76,1.043,4.057-1.648,5.117-3.029c-0.938,4.277,4.391,0.896,5.482-0.525c-0.979,4.928,4.338-0.164,5.817-0.375
	c-0.517,5.203,5.05-0.672,6.692-0.904c-0.116,0.379-0.11,1.078-0.238,1.459c2.195-0.912,4.833-2.723,7.258-2.686
	c-0.471,0.707-0.309,1.672-0.535,2.365c2.292,0.018,4.813-1.238,6.918-2.061c-0.229,0.521-0.053,1.533-0.225,2.061
	c1.861,0.031,3.276-1.533,5.085-1.742c0.802,1.098,2.131,0.201,2.795-0.959"/>
<circle fill="none" stroke="#214D6A" stroke-width="5.1527" stroke-miterlimit="10" cx="106.5" cy="105.5" r="97.5"/>
</svg>
