<?xml version="1.0" encoding="utf-8"?>
<!-- Generator: Adobe Illustrator 15.1.0, SVG Export Plug-In . SVG Version: 6.00 Build 0)  -->
<!DOCTYPE svg PUBLIC "-//W3C//DTD SVG 1.1//EN" "http://www.w3.org/Graphics/SVG/1.1/DTD/svg11.dtd">
<svg version="1.1" id="Layer_1" xmlns="http://www.w3.org/2000/svg" xmlns:xlink="http://www.w3.org/1999/xlink" x="0px" y="0px"
	 width="212px" height="209px" viewBox="0 0 212 209" enable-background="new 0 0 212 209" xml:space="preserve">
<g>
	<path fill="none" stroke="#214D6A" stroke-width="5.1175" stroke-miterlimit="10" d="M38.561,79.392
		c1.93,2.178-20.188,11.735-20.188,11.735l84.037,71.549c0,0,41.289-17.836,75.266-31.72l-6.785-3.341"/>
	<path fill="#E0DFE6" stroke="#214D6A" stroke-width="5" stroke-miterlimit="10" d="M38.561,79.392
		c1.93,2.178-20.188,11.735-20.188,11.735l84.037,71.549c0,0,41.289-17.836,75.266-31.72l-6.785-3.341"/>
	<path fill="#FFFFFF" stroke="#214D6A" stroke-width="5.1527" stroke-miterlimit="10" d="M32.119,71.221
		c0,0,50.328-9.742,68.797-33.29c0,0,49.728,63.984,89.762,77.711c0.553,0.188,1.105,0.37,1.658,0.544
		c0,0-63.256,38.097-89.112,25.631C103.225,141.817,37.66,82.069,32.119,71.221z"/>
	<g enable-background="new    ">
		<path fill="#214D6A" d="M82.668,102.42c-0.147,0.078-0.365,0.027-0.454-0.138l-1.384-2.585l-2.559,1.369l1.383,2.585
			c0.089,0.165,0.037,0.36-0.128,0.449c-0.157,0.083-0.357,0.023-0.446-0.142l-3.064-5.728c-0.079-0.147-0.023-0.357,0.134-0.44
			c0.165-0.089,0.362-0.015,0.44,0.133l1.384,2.586l2.559-1.369l-1.384-2.586c-0.078-0.148-0.006-0.366,0.143-0.445
			s0.362-0.015,0.441,0.133l3.064,5.728C82.886,102.135,82.824,102.336,82.668,102.42z"/>
		<path fill="#214D6A" d="M83.21,100.148l-0.801-1.497c-0.461-0.862-0.254-1.835,0.79-2.394c1.053-0.564,1.97-0.191,2.43,0.67
			l0.802,1.497c0.461,0.862,0.258,1.821-0.796,2.385C84.591,101.369,83.672,101.01,83.21,100.148z M85.864,98.727l-0.806-1.505
			c-0.335-0.627-0.893-0.833-1.59-0.46c-0.688,0.368-0.834,0.951-0.499,1.577l0.806,1.506c0.336,0.627,0.896,0.819,1.584,0.45
			C86.057,99.924,86.199,99.354,85.864,98.727z"/>
		<path fill="#214D6A" d="M85.703,93.529c-0.209,0.111-0.463,0.035-0.564-0.156c-0.113-0.209-0.031-0.454,0.178-0.566
			c0.191-0.103,0.44-0.033,0.553,0.175C85.971,93.174,85.895,93.428,85.703,93.529z M89.069,99.151
			c0.472,0.879,0.326,1.739-0.349,2.257c-0.064,0.047-0.104,0.057-0.156,0.084c-0.104,0.057-0.246,0.043-0.328-0.048
			c-0.15-0.177-0.05-0.343,0.055-0.421c0.457-0.401,0.604-0.838,0.23-1.535l-2.355-4.403c-0.084-0.157-0.033-0.353,0.133-0.441
			c0.148-0.079,0.348-0.019,0.432,0.138L89.069,99.151z"/>
		<path fill="#214D6A" d="M91.056,94.014c-0.378-0.706-0.885-0.859-1.572-0.492c-0.322,0.173-0.468,0.34-0.603,0.569
			c-0.034,0.063-0.085,0.135-0.172,0.182c-0.131,0.069-0.248-0.024-0.313-0.124c-0.23-0.346,0.334-0.84,0.917-1.151
			c1.071-0.573,1.823-0.192,2.433,0.948l1.054,1.967c0.121,0.227,0.26,0.298,0.417,0.215c0.035-0.02,0.047-0.037,0.064-0.047
			c0.131-0.07,0.258,0.02,0.317,0.133c0.093,0.174-0.048,0.328-0.204,0.412c-0.271,0.144-0.607,0.078-0.928-0.143
			c-0.18,0.545-0.496,0.938-0.965,1.188c-0.879,0.471-1.586,0.177-1.99-0.58l-0.02-0.035c-0.446-0.835-0.184-1.536,0.835-2.081
			c0.296-0.159,0.659-0.275,1.05-0.361L91.056,94.014z M90.055,96.766l0.019,0.035c0.241,0.453,0.619,0.676,1.28,0.322
			c0.4-0.215,0.648-0.526,0.834-0.995l-0.559-1.044c-0.409,0.072-0.803,0.217-1.064,0.355
			C89.764,95.868,89.816,96.322,90.055,96.766z"/>
		<path fill="#214D6A" d="M97.182,89.078l-0.988-1.845c-0.079-0.148-0.045-0.335,0.139-0.433c0.183-0.098,0.348-0.019,0.428,0.129
			l2.752,5.145c0.145,0.27,0.285,0.408,0.578,0.452c0.035,0.026,0.072,0.052,0.1,0.104c0.08,0.148,0.008,0.309-0.113,0.374
			c-0.183,0.098-0.404,0.061-0.615-0.063c-0.297,0.428-0.666,0.826-1.093,1.055c-0.905,0.484-1.721,0.07-2.233-0.887l-0.609-1.141
			c-0.555-1.036-0.597-1.932,0.5-2.519C96.313,89.297,96.742,89.156,97.182,89.078z M97.446,89.574
			c-0.413,0.043-0.864,0.183-1.083,0.299c-0.705,0.378-0.748,0.904-0.273,1.793l0.611,1.141c0.396,0.738,0.91,0.968,1.545,0.627
			c0.314-0.167,0.628-0.48,0.87-0.822c-0.114-0.129-0.142-0.182-0.171-0.234L97.446,89.574z"/>
		<path fill="#214D6A" d="M103.434,90.345c0.014-0.019,0.047-0.059,0.082-0.077c0.14-0.074,0.309-0.009,0.375,0.113
			c0.209,0.392-0.648,1.008-1.109,1.254c-0.976,0.521-1.863,0.202-2.291-0.599l-0.895-1.671c-0.443-0.828-0.221-1.752,0.807-2.302
			c0.947-0.508,1.703-0.206,2.155,0.638c0.419,0.783,0.248,1.49-0.77,2.035c-0.288,0.154-0.658,0.319-1.036,0.432l0.332,0.617
			c0.283,0.531,0.832,0.697,1.528,0.324C103.012,90.896,103.195,90.652,103.434,90.345z M100.642,87.574
			c-0.627,0.334-0.807,0.879-0.518,1.418l0.396,0.74c0.402-0.148,0.873-0.377,1.057-0.476c0.73-0.392,0.643-0.849,0.424-1.257
			C101.66,87.364,101.198,87.275,100.642,87.574z"/>
		<path fill="#214D6A" d="M109.33,87.66c0.053,0.308-0.004,0.473-0.203,0.58c-0.201,0.106-0.375,0.055-0.584-0.147l-3.294-3.164
			c-0.153-0.142-0.081-0.382,0.102-0.479c0.097-0.051,0.219-0.072,0.343,0.052l3.036,2.999l-0.827-4.182
			c-0.02-0.102,0.012-0.252,0.155-0.318c0.153-0.07,0.349-0.018,0.433,0.139c0.014,0.026,0.023,0.044,0.028,0.074L109.33,87.66z"/>
		<path fill="#214D6A" d="M108.924,81.104c-0.209,0.112-0.455,0.03-0.557-0.161c-0.112-0.209-0.039-0.45,0.17-0.562
			c0.191-0.103,0.44-0.035,0.553,0.174C109.191,80.748,109.114,81.002,108.924,81.104z M111.937,86.735
			c-0.165,0.089-0.353,0.032-0.437-0.124l-2.113-3.953c-0.084-0.156-0.033-0.352,0.133-0.44c0.148-0.079,0.349-0.019,0.432,0.138
			l2.115,3.952C112.15,86.465,112.084,86.656,111.937,86.735z"/>
		<path fill="#214D6A" d="M113.604,80.29l-0.987-1.845c-0.08-0.148-0.045-0.335,0.138-0.433s0.349-0.018,0.428,0.129l2.753,5.144
			c0.145,0.271,0.284,0.408,0.578,0.453c0.035,0.025,0.072,0.051,0.1,0.104c0.079,0.148,0.008,0.309-0.113,0.373
			c-0.184,0.099-0.404,0.061-0.616-0.063c-0.297,0.429-0.666,0.827-1.092,1.056c-0.905,0.484-1.722,0.069-2.233-0.888l-0.61-1.141
			c-0.554-1.036-0.597-1.931,0.501-2.518C112.736,80.508,113.166,80.369,113.604,80.29z M113.87,80.786
			c-0.415,0.042-0.865,0.183-1.083,0.299c-0.705,0.378-0.748,0.904-0.272,1.792l0.61,1.141c0.396,0.739,0.91,0.969,1.545,0.629
			c0.314-0.168,0.628-0.482,0.87-0.824c-0.114-0.129-0.142-0.182-0.17-0.233L113.87,80.786z"/>
		<path fill="#214D6A" d="M118.375,79.394c-0.377-0.705-0.885-0.859-1.572-0.491c-0.322,0.173-0.468,0.34-0.603,0.569
			c-0.034,0.063-0.085,0.135-0.171,0.181c-0.132,0.07-0.249-0.023-0.313-0.124c-0.23-0.347,0.335-0.84,0.918-1.152
			c1.07-0.573,1.823-0.192,2.433,0.948l1.053,1.967c0.122,0.227,0.261,0.298,0.418,0.214c0.033-0.019,0.046-0.037,0.063-0.046
			c0.131-0.07,0.257,0.02,0.317,0.132c0.094,0.174-0.047,0.328-0.204,0.412c-0.27,0.145-0.607,0.079-0.928-0.142
			c-0.179,0.544-0.495,0.937-0.964,1.188c-0.879,0.471-1.586,0.178-1.991-0.58l-0.019-0.035c-0.447-0.836-0.185-1.537,0.834-2.082
			c0.297-0.158,0.66-0.274,1.051-0.36L118.375,79.394z M117.373,82.146l0.02,0.035c0.242,0.453,0.62,0.676,1.281,0.322
			c0.4-0.214,0.648-0.525,0.834-0.995l-0.561-1.044c-0.408,0.073-0.801,0.216-1.063,0.356
			C117.084,81.25,117.137,81.703,117.373,82.146z"/>
	</g>
</g>
<circle fill="none" stroke="#214D6A" stroke-width="5.1527" stroke-miterlimit="10" cx="105.5" cy="105.5" r="97.5"/>
</svg>
