<?xml version="1.0" encoding="utf-8"?>
<!-- Generator: Adobe Illustrator 19.0.0, SVG Export Plug-In . SVG Version: 6.00 Build 0)  -->
<svg version="1.1" id="Capa_1" xmlns="http://www.w3.org/2000/svg" xmlns:xlink="http://www.w3.org/1999/xlink" x="0px" y="0px"
	 viewBox="-402 199.7 153.6 162.3" style="enable-background:new -402 199.7 153.6 162.3;" xml:space="preserve">
<style type="text/css">
	.st0{fill:#FA8510;}
	.st1{fill:#FFFFFF;stroke:#FA8510;stroke-miterlimit:10;}
	.st2{fill:#FFFFFF;}
	.st3{fill:none;stroke:#FA8510;stroke-miterlimit:10;}
</style>
<path class="st0" d="M-324.2,210c-39.1,0-70.9,31.7-70.9,70.9c0,39.1,31.7,70.9,70.9,70.9s70.9-31.7,70.9-70.9
	C-253.3,241.7-285.1,210-324.2,210z M-275.8,296.6l-10.8,3.4l3.5,10.7l-11.3,0l0,11.3l-10.7-3.5l-3.4,10.8l-9.1-6.7l-6.6,9.2
	l-6.6-9.2l-9.1,6.7l-3.4-10.8l-10.7,3.5l0-11.3l-11.3,0l3.5-10.7l-10.8-3.4l6.7-9.1l-9.2-6.6l9.2-6.6l-6.7-9.1l10.8-3.4l-3.5-10.7
	l11.3,0l0-11.3l10.7,3.5l3.4-10.8l9.1,6.7l6.6-9.2l6.6,9.2l9.1-6.7l3.4,10.8l10.7-3.5l0,11.3l11.3,0l-3.5,10.7l10.8,3.4l-6.7,9.1
	l9.2,6.6l-9.2,6.6L-275.8,296.6z"/>
<path class="st1" d="M-324.2,208.1c-40.2,0-72.8,32.6-72.8,72.8c0,40.2,32.6,72.8,72.8,72.8c40.2,0,72.8-32.6,72.8-72.8
	C-251.4,240.6-284,208.1-324.2,208.1z M-324.2,331.4c-27.9,0-50.5-22.6-50.5-50.5s22.6-50.5,50.5-50.5s50.5,22.6,50.5,50.5
	S-296.3,331.4-324.2,331.4z"/>
<circle id="XMLID_10_" class="st0" cx="-383" cy="286.5" r="2"/>
<circle id="XMLID_9_" class="st0" cx="-263.1" cy="292.8" r="2"/>
<g>
	<path class="st0" d="M-337.5,224.9c0-0.6,0-1.4,0.1-2l0.6-6.9c0-0.4,0.4-0.7,0.7-0.8c0.5-0.1,1,0.1,1.1,0.6c0,0.1,0,0.2,0,0.3
		l-1.1,10.3c-0.1,0.6-0.3,1.1-0.9,1.2c-0.6,0.1-1-0.2-1.3-0.7l-5.2-8.9c0-0.1-0.1-0.2-0.1-0.3c-0.1-0.5,0.2-0.9,0.7-1
		c0.3-0.1,0.8,0.1,1,0.4C-340.3,219.7-338.8,222.2-337.5,224.9z"/>
	<path class="st0" d="M-331.4,216.7c-0.6,0-1.1-0.4-1.1-0.9c0-0.5,0.4-1,1-1.1c0.6,0,1.1,0.4,1.1,0.9
		C-330.4,216.2-330.8,216.6-331.4,216.7z M-330.6,226.6c-0.5,0-0.9-0.3-1-0.8l-0.6-6.9c0-0.4,0.3-0.9,0.8-0.9c0.5,0,0.9,0.3,1,0.8
		l0.6,6.9C-329.7,226.2-330.1,226.6-330.6,226.6z"/>
	<path class="st0" d="M-323.2,218.3l0.1-3c0-0.4,0.3-0.8,0.9-0.8c0.6,0,0.9,0.4,0.9,0.8l-0.2,9.1c0,0.3,0.1,0.5,0.3,0.8
		c0.1,0.1,0.2,0.3,0.2,0.5c0,0.5-0.4,0.8-0.8,0.8c-0.4,0-0.7-0.2-0.9-0.6c-0.8,0.4-1.5,0.7-2.3,0.6c-1.8,0-2.8-1.4-2.8-3.3l0-2
		c0-2,0.8-3.4,3-3.3C-324.3,217.9-323.7,218-323.2,218.3z M-323.2,219.7c-0.5-0.2-1.1-0.3-1.4-0.3c-1,0-1.4,0.6-1.4,1.8l0,2
		c0,1.1,0.4,1.7,1.3,1.7c0.4,0,1-0.1,1.5-0.4c0-0.1,0-0.2,0-0.3L-323.2,219.7z"/>
	<path class="st0" d="M-317.5,223.5l-0.1,0.8c-0.1,0.7,0.3,1.3,1.4,1.4c0.6,0.1,1.1,0,1.6-0.2c0.1,0,0.2-0.1,0.4,0
		c0.6,0.1,0.7,0.5,0.7,0.9c-0.1,1-2.1,1-3.1,0.8c-2-0.3-3-1.7-2.7-3.3l0.4-2.9c0.2-1.6,1.6-2.7,3.7-2.3c2,0.3,2.8,1.5,2.6,3.2
		c-0.2,1.5-1.3,2.3-3.3,2C-316.6,223.7-317,223.6-317.5,223.5z M-315.6,220.1c-0.9-0.1-1.5,0.3-1.6,1.1l-0.1,1
		c0.5,0.1,1.2,0.3,1.4,0.3c0.9,0.1,1.3-0.3,1.4-0.9C-314.4,220.6-314.8,220.2-315.6,220.1z"/>
	<path class="st0" d="M-311.8,224.9l0.8-2.5c0.5-1.6,2-2.5,4.1-1.9c2.1,0.7,2.8,2.3,2.3,3.9l-0.8,2.5c-0.5,1.6-2,2.5-4.1,1.9
		S-312.4,226.5-311.8,224.9z M-307.2,226.4l0.8-2.5c0.3-0.8-0.1-1.5-1-1.8c-1-0.3-1.6,0-1.9,0.9l-0.8,2.5c-0.3,0.9,0.1,1.5,1,1.8
		C-308.1,227.6-307.4,227.2-307.2,226.4z"/>
</g>
<g>
	<path class="st0" d="M-341.1,341.6c0.3-0.6,0.7-1.2,1.1-1.7l4-5.7c0.2-0.3,0.7-0.4,1-0.3c0.5,0.2,0.8,0.6,0.6,1.1
		c0,0.1-0.1,0.2-0.1,0.3l-6.1,8.3c-0.4,0.5-0.8,0.8-1.4,0.6c-0.6-0.2-0.7-0.7-0.7-1.3l0-10.3c0-0.1,0-0.2,0-0.3
		c0.2-0.5,0.7-0.7,1.2-0.5c0.3,0.1,0.6,0.5,0.6,0.9C-340.9,335.6-340.9,338.6-341.1,341.6z"/>
	<path class="st0" d="M-334.4,346.1c-0.5-0.1-0.8-0.5-0.7-1l1.2-6.8c0.1-0.4,0.5-0.7,1-0.7c0.5,0.1,0.8,0.5,0.7,1l-1.2,6.8
		C-333.4,345.9-333.9,346.1-334.4,346.1z M-332.7,336.2c-0.6-0.1-0.9-0.6-0.9-1.1c0.1-0.5,0.6-0.9,1.2-0.8c0.6,0.1,0.9,0.6,0.9,1.1
		C-331.6,336-332.1,336.3-332.7,336.2z"/>
	<path class="st0" d="M-325.7,338.5l-0.1-3c0-0.4,0.3-0.8,0.9-0.8c0.6,0,0.9,0.3,0.9,0.8l0.1,9.1c0,0.3,0.1,0.5,0.4,0.8
		c0.1,0.1,0.2,0.3,0.2,0.4c0,0.5-0.4,0.8-0.8,0.8c-0.4,0-0.7-0.2-1-0.6c-0.8,0.4-1.5,0.7-2.3,0.7c-1.8,0-2.8-1.2-2.9-3.1l0-2
		c0-2,0.7-3.4,2.9-3.4C-326.8,338.2-326.3,338.2-325.7,338.5z M-325.6,339.9c-0.5-0.2-1.1-0.3-1.4-0.3c-1,0-1.4,0.6-1.3,1.9l0,2
		c0,1.1,0.5,1.6,1.4,1.6c0.4,0,1-0.2,1.5-0.4c0-0.1,0-0.2,0-0.3L-325.6,339.9z"/>
	<path class="st0" d="M-319.2,342.1l0.2,0.7c0.2,0.7,0.8,1.1,1.8,0.8c0.6-0.1,1-0.4,1.5-0.8c0,0,0.1-0.1,0.3-0.2
		c0.5-0.1,0.9,0.2,1,0.5c0.2,1-1.6,1.7-2.5,1.9c-2,0.5-3.4-0.4-3.8-2l-0.7-2.8c-0.4-1.6,0.4-3.1,2.5-3.6c1.9-0.5,3.2,0.3,3.6,1.9
		c0.4,1.5-0.3,2.6-2.3,3.1C-318.2,342-318.6,342.1-319.2,342.1z M-318.6,338.3c-0.9,0.2-1.3,0.8-1.1,1.6l0.2,0.9
		c0.6-0.1,1.2-0.2,1.4-0.3c0.9-0.2,1.1-0.7,0.9-1.4C-317.3,338.3-317.8,338.1-318.6,338.3z"/>
	<path class="st0" d="M-313.4,341.2l-0.7-2.5c-0.5-1.6,0.3-3.2,2.4-3.8c2.1-0.6,3.6,0.4,4,2l0.7,2.5c0.4,1.6-0.3,3.2-2.4,3.8
		C-311.4,343.8-312.9,342.9-313.4,341.2z M-308.6,339.9l-0.7-2.5c-0.2-0.8-0.9-1.2-1.9-1c-1,0.3-1.4,0.9-1.1,1.8l0.7,2.5
		c0.2,0.9,0.9,1.2,1.9,1C-308.8,341.5-308.4,340.8-308.6,339.9z"/>
</g>
<g>
	<g>
		<path class="st2" d="M-267,306.8h-113.4c-7,0-12.7-5.7-12.7-12.7v-25.3c0-7,5.7-12.7,12.7-12.7H-267c7,0,12.7,5.7,12.7,12.7v25.3
			C-254.4,301.1-260,306.8-267,306.8z"/>
		<circle id="XMLID_8_" class="st0" cx="-263.1" cy="261.7" r="2"/>
		<circle id="XMLID_3_" class="st0" cx="-265.1" cy="300.8" r="2"/>
		<circle id="XMLID_1_" class="st0" cx="-383" cy="262.1" r="2"/>
		<circle id="XMLID_4_" class="st0" cx="-381.9" cy="300.8" r="2"/>
		<g>
			<path class="st0" d="M-376.3,266.8c0-4,1.9-6.7,6.2-6.7c2.5,0,5,1.1,5,2.5c0,0.7-0.6,1.2-1.3,1.2c-0.5,0-0.6-0.2-1-0.4l-0.1-0.1
				c-0.7-0.5-1.4-0.7-2.4-0.7c-2.6,0-3.5,1.6-3.5,4.2v5.3c0,2.6,0.9,4.2,3.5,4.2c0.9,0,1.7-0.2,2.4-0.7l0.1-0.1
				c0.4-0.2,0.5-0.4,1-0.4c0.8,0,1.3,0.6,1.3,1.2c0,1.4-2.4,2.5-5,2.5c-4.3,0-6.2-2.6-6.2-6.7V266.8z"/>
			<path class="st0" d="M-363.1,274.1V270c0-2.7,1.8-4.7,5.2-4.7s5.2,2,5.2,4.7v4.1c0,2.6-1.8,4.7-5.2,4.7S-363.1,276.8-363.1,274.1
				z M-355.5,274.1V270c0-1.4-0.8-2.2-2.4-2.2s-2.4,0.9-2.4,2.2v4.1c0,1.4,0.8,2.3,2.4,2.3S-355.5,275.5-355.5,274.1z"/>
			<path class="st0" d="M-346.9,277.5c0,0.7-0.5,1.3-1.4,1.3s-1.4-0.6-1.4-1.3v-8.3c0-1.1-0.2-1.2-0.3-1.4c-0.2-0.3-0.3-0.5-0.3-0.8
				c0-0.7,0.6-1.2,1.3-1.2c0.5,0,0.9,0.3,1.2,0.8c1.2-0.8,2.4-1.1,3.6-1.1c3,0,4.5,2,4.5,5v7.1c0,0.7-0.5,1.3-1.4,1.3
				c-0.9,0-1.4-0.6-1.4-1.3v-7.1c0-1.6-0.8-2.6-2-2.6c-0.8,0-1.6,0.3-2.4,0.8c0.1,0.2,0.1,0.4,0.1,0.6V277.5z"/>
			<path class="st0" d="M-336.1,262.9c0-0.7,0.5-1.3,1.4-1.3c0.9,0,1.4,0.6,1.4,1.3v3.2h2.3c0.7,0,1.3,0.5,1.3,1.3
				c0,0.7-0.6,1.2-1.3,1.2h-2.3v4.5c0,2.3,0.2,3.1,1.8,3.1c0.2,0,0.4,0,0.5,0c1.1,0,1.7,0.3,1.7,1.2c0,1.2-1,1.3-2,1.3
				c-3.8,0-4.8-1.9-4.8-5.4V262.9z"/>
			<path class="st0" d="M-325,273.4v1.2c0,1.2,0.8,1.9,2.4,1.9c1,0,1.7-0.3,2.5-0.6c0.1-0.1,0.3-0.1,0.6-0.1c0.9,0,1.3,0.6,1.3,1.2
				c0,1.6-3.1,2-4.6,2c-3.2,0-5-1.9-5-4.4v-4.6c0-2.5,1.8-4.5,5.1-4.5c3.1,0,4.7,1.7,4.7,4.3c0,2.4-1.4,3.9-4.7,3.9
				C-323.4,273.5-324.2,273.5-325,273.4z M-322.7,267.7c-1.4,0-2.3,0.8-2.3,2v1.5c0.9,0.1,1.9,0.2,2.3,0.2c1.5,0,2-0.7,2-1.8
				C-320.8,268.2-321.5,267.7-322.7,267.7z"/>
			<path class="st0" d="M-312.4,277.5c0,0.7-0.5,1.3-1.4,1.3s-1.4-0.6-1.4-1.3v-8.3c0-1.1-0.2-1.2-0.3-1.4c-0.2-0.3-0.3-0.5-0.3-0.8
				c0-0.7,0.6-1.2,1.3-1.2c0.5,0,0.9,0.3,1.2,0.8c1.2-0.8,2.4-1.1,3.6-1.1c3,0,4.5,2,4.5,5v7.1c0,0.7-0.5,1.3-1.4,1.3
				c-0.9,0-1.4-0.6-1.4-1.3v-7.1c0-1.6-0.8-2.6-2-2.6c-0.8,0-1.6,0.3-2.4,0.8c0.1,0.2,0.1,0.4,0.1,0.6V277.5z"/>
			<path class="st0" d="M-300,263.2c-0.9,0-1.6-0.7-1.6-1.5c0-0.9,0.7-1.5,1.6-1.5c0.9,0,1.6,0.7,1.6,1.5
				C-298.4,262.5-299.1,263.2-300,263.2z M-300,278.8c-0.8,0-1.4-0.5-1.4-1.3v-10.8c0-0.7,0.6-1.3,1.4-1.3c0.8,0,1.4,0.6,1.4,1.3
				v10.8C-298.6,278.3-299.2,278.8-300,278.8z"/>
			<path class="st0" d="M-288.2,266v-4.8c0-0.7,0.5-1.3,1.4-1.3c0.9,0,1.4,0.6,1.4,1.3v14.3c0,0.5,0.2,0.9,0.6,1.2
				c0.2,0.2,0.3,0.4,0.3,0.7c0,0.8-0.7,1.2-1.3,1.2c-0.6,0-1.1-0.4-1.5-0.9c-1.2,0.6-2.4,1.1-3.6,1.1c-2.9,0-4.4-2-4.4-5v-3.1
				c0-3.1,1.1-5.3,4.6-5.3C-289.9,265.5-289.1,265.6-288.2,266z M-288.2,268.3c-0.8-0.3-1.7-0.4-2.3-0.4c-1.6,0-2.1,0.9-2.1,2.9v3.1
				c0,1.7,0.7,2.6,2.1,2.6c0.7,0,1.5-0.2,2.4-0.6c-0.1-0.2-0.1-0.4-0.1-0.5V268.3z"/>
			<path class="st0" d="M-282.1,274.1V270c0-2.7,1.8-4.7,5.2-4.7s5.2,2,5.2,4.7v4.1c0,2.6-1.8,4.7-5.2,4.7S-282.1,276.8-282.1,274.1
				z M-274.5,274.1V270c0-1.4-0.8-2.2-2.4-2.2s-2.4,0.9-2.4,2.2v4.1c0,1.4,0.8,2.3,2.4,2.3S-274.5,275.5-274.5,274.1z"/>
			<path class="st0" d="M-342.4,289.8c-1.1,3.2-2.2,6.4-3.3,9.6c-0.3,1-0.8,1.4-1.7,1.4c-0.9,0-1.4-0.4-1.7-1.3
				c-1.1-3.2-2.2-6.4-3.3-9.7l-0.3-1c0-0.1,0-0.1,0-0.2c0-0.7,0.7-1.2,1.4-1.2c0.5,0,1.1,0.3,1.3,0.9c0.5,1.5,1,3.1,1.4,4.6
				c0.5,1.5,0.8,3.1,1.2,4.6c0.4-1.5,0.7-3.1,1.2-4.6c0.5-1.5,0.9-3.1,1.4-4.6c0.2-0.5,0.8-0.9,1.3-0.9c0.7,0,1.3,0.5,1.3,1.2
				c0,0.1,0,0.1,0,0.2L-342.4,289.8z"/>
			<path class="st0" d="M-338.2,285.2c-0.9,0-1.6-0.7-1.6-1.5c0-0.9,0.7-1.5,1.6-1.5c0.9,0,1.6,0.7,1.6,1.5
				C-336.6,284.5-337.3,285.2-338.2,285.2z M-338.2,300.8c-0.8,0-1.4-0.5-1.4-1.3v-10.8c0-0.7,0.6-1.3,1.4-1.3
				c0.8,0,1.4,0.6,1.4,1.3v10.8C-336.8,300.3-337.4,300.8-338.2,300.8z"/>
			<path class="st0" d="M-328.9,287.4c1.5,0,3.7,0.4,3.7,1.9c0,0.7-0.5,1.1-1.1,1.1c-0.8,0-1.2-0.6-2.6-0.6c-0.6,0-1.8,0.1-1.8,1.2
				c0,2.5,6,1.3,6,5.9c0,2.4-1.6,3.9-4.7,3.9c-1.5,0-4.2-0.3-4.2-1.7c0-0.5,0.3-1.5,1.4-1.2c0.5,0.1,1.6,0.6,2.7,0.6
				c1.2,0,2.1-0.6,2.1-1.5c0-2.4-6-1.1-6-5.7C-333.5,288.9-331.9,287.4-328.9,287.4z"/>
			<path class="st0" d="M-322.2,284.9c0-0.7,0.5-1.3,1.4-1.3c0.9,0,1.4,0.6,1.4,1.3v3.2h2.3c0.7,0,1.3,0.5,1.3,1.3
				c0,0.7-0.6,1.2-1.3,1.2h-2.3v4.5c0,2.3,0.2,3.1,1.8,3.1c0.2,0,0.4,0,0.5,0c1.1,0,1.7,0.3,1.7,1.2c0,1.2-1,1.3-2,1.3
				c-3.8,0-4.8-1.9-4.8-5.4V284.9z"/>
			<path class="st0" d="M-313.9,296.1V292c0-2.7,1.8-4.7,5.2-4.7s5.2,2,5.2,4.7v4.1c0,2.6-1.8,4.7-5.2,4.7S-313.9,298.8-313.9,296.1
				z M-306.3,296.1V292c0-1.4-0.8-2.2-2.4-2.2s-2.4,0.9-2.4,2.2v4.1c0,1.4,0.8,2.3,2.4,2.3S-306.3,297.5-306.3,296.1z"/>
		</g>
	</g>
	<line class="st3" x1="-389.5" y1="256.1" x2="-258.8" y2="256.1"/>
	<line class="st3" x1="-388.8" y1="306.8" x2="-259.6" y2="306.8"/>
</g>
<circle id="XMLID_2_" class="st0" cx="-354.5" cy="226.7" r="2"/>
<circle id="XMLID_5_" class="st0" cx="-294.5" cy="228.7" r="2"/>
<circle id="XMLID_6_" class="st0" cx="-356.5" cy="334.9" r="2"/>
<circle id="XMLID_7_" class="st0" cx="-296.5" cy="336.9" r="2"/>
<circle class="st3" cx="-324.2" cy="280.9" r="69.8"/>
</svg>
