<?xml version="1.0" encoding="utf-8"?>
<!-- Generator: Adobe Illustrator 15.1.0, SVG Export Plug-In . SVG Version: 6.00 Build 0)  -->
<!DOCTYPE svg PUBLIC "-//W3C//DTD SVG 1.1//EN" "http://www.w3.org/Graphics/SVG/1.1/DTD/svg11.dtd">
<svg version="1.1" id="Capa_1" xmlns="http://www.w3.org/2000/svg" xmlns:xlink="http://www.w3.org/1999/xlink" x="0px" y="0px"
	 width="1024px" height="768px" viewBox="0 0 1024 768" enable-background="new 0 0 1024 768" xml:space="preserve">
<g id="XMLID_134_">
	<g>
		<g>
			<defs>
				<circle id="SVGID_1_" cx="1766.22" cy="-948.56" r="371.76"/>
			</defs>
			<clipPath id="SVGID_2_">
				<use xlink:href="#SVGID_1_"  overflow="visible"/>
			</clipPath>
			<g id="XMLID_194_" clip-path="url(#SVGID_2_)">
				<path id="XMLID_704_" fill="none" stroke="#1F4D69" stroke-width="12.8484" stroke-linecap="round" stroke-miterlimit="10" d="
					M1915.5,83.92c0,0-53.04-237.84-42.721-526.56"/>
				<path id="XMLID_703_" fill="none" stroke="#1F4D69" stroke-width="12.8484" stroke-linecap="round" stroke-miterlimit="10" d="
					M1742.939,98.08c0,0-37.439-262.32-42.72-526.56"/>
				<path id="XMLID_702_" fill="none" stroke="#1F4D69" stroke-width="6" stroke-linecap="round" stroke-miterlimit="10" d="
					M1650.3-874.64c32.88-10.561-191.76,76.08-174.72,450.479"/>
				<path id="XMLID_695_" fill="none" stroke="#1F4D69" stroke-width="6" stroke-linecap="round" stroke-miterlimit="10" d="
					M1849.74-884c-33.84-7.44,197.279,42,215.04,432.48"/>
				<g id="XMLID_215_">
					<path id="XMLID_586_" fill="#FFFFFF" d="M1852.08-910.02c30.479,48.72,74.88,67.2,114,200.16
						c15.359,52.561,20.4,100.561,8.4,180.24c-4.32,28.56-66.961,80.64-136.561,95.76c-36.72,7.68-80.64,6-142.08,0.24
						c-22.32-1.92-111.84-16.32-121.2-81.84c-6.96-49.92-26.64-101.76-8.399-180.24c15.6-66.24,34.32-97.92,110.64-218.88
						c75.84-120.24,69.601-117.84,69.601-117.84S1820.64-959.94,1852.08-910.02z"/>
					<path id="XMLID_217_" fill="#E0DFE6" d="M1608.5-799.5c11.521-27.12,44.26-58.52,55.06-85.64
						c5.761-14.16,13.921-35.28,30.24-41.04c2.88-2.64,6.24-4.561,9.84-5.76c-4.08-1.68-8.399-3.36-12.479-5.52
						c-4.561-2.4-9.12-4.8-13.92-7.68c26.879,5.76,53.52,10.56,77.039,25.68c-3.12-0.24-6-0.48-9.12-1.2
						c6.24,6.72,10.561,15.36,11.04,25.68c1.2,28.32-12.96,54-27.12,78.24c-23.76,40.08-40.319,73.92-43.92,120.72
						c-3.12,40.08,3.12,82.8,14.4,121.44c8.88,30,39.12,47.28,46.319,77.52c7.44,31.2-20.699,69.12-46.379,64.56
						c-6,1.92-33.399,1.04-37-4c-7.439-2.4-31.18-13.82-35.5-15.5c-52.08-21.6-58.24-96.66-64-148.5
						C1555.081-673.22,1579.7-732.541,1608.5-799.5z"/>
					<path id="XMLID_216_" fill="none" stroke="#1F4D69" stroke-width="6" stroke-miterlimit="10" d="M1853.58-908
						c30.479,48.72,74.88,67.2,114,200.16c15.359,52.56,20.4,100.56,8.4,180.24c-4.32,28.56-66.961,80.64-136.561,95.76
						c-36.72,7.68-80.64,6-142.08,0.24c-22.32-1.92-111.84-16.32-121.2-81.84c-6.96-49.92-26.64-101.76-8.399-180.24
						c15.6-66.24,34.32-97.92,110.64-218.88c75.84-120.24,69.601-117.84,69.601-117.84S1822.62-957.68,1853.58-908z"/>
				</g>
				<circle id="XMLID_214_" fill="#FFFFFF" cx="1753.74" cy="-1089.2" r="166.56"/>
				<path id="XMLID_196_" fill="#E0DFE6" d="M1741.02-924.56c-15.84-4.56-31.92-8.88-47.52-14.64c0.96-0.24,1.68-0.96,2.64-1.2
					c-4.08-1.68-8.399-3.36-12.479-5.52c-48.48-23.76-105.36-81.84-81.36-137.28c25.92-60.479,85.92,18.96,105.36,39.84
					c21.12,22.8,51.6,34.561,81.84,35.521c6.72-3.84,12.96-3.36,18.24-0.96c34.319-4.08,65.76-22.8,79.68-56.4
					c6-14.64,25.439-7.68,28.32,4.8c12-6.72,10.921,2.793,2.761,16.233c-3.12,5.28-1.066,10.054-4.667,15.333
					c-1.92,14.16-8.667,19.333-16,33.333c-3.12,3.12-6.64,13.333-10,13.333c-0.24,3.12-4.026,6.267-6.667,8.667
					c-43.92,36.96-89.027,52.3-142.787,44.38C1738.62-927.44,1739.82-926,1741.02-924.56z"/>
				
					<circle id="XMLID_195_" fill="none" stroke="#1F4D69" stroke-width="6" stroke-miterlimit="10" cx="1759.98" cy="-1089.68" r="166.56"/>
			</g>
		</g>
	</g>
</g>
<circle id="XMLID_132_" fill="none" stroke="#04A7DB" stroke-width="4.3745" stroke-miterlimit="10" cx="1763.34" cy="-951.44" r="371.76"/>
<ellipse fill="#2C5771" cx="1729.528" cy="-1102.835" rx="6.515" ry="12"/>
<ellipse fill="#2C5771" cx="1803.025" cy="-1102.835" rx="6.515" ry="12"/>
<path fill="none" stroke="#1F4D69" stroke-width="6" stroke-miterlimit="10" d="M1726.5-1018.5c0,0,43,48,80,0"/>
</svg>
