<?xml version="1.0" encoding="utf-8"?>
<!-- Generator: Adobe Illustrator 15.1.0, SVG Export Plug-In . SVG Version: 6.00 Build 0)  -->
<!DOCTYPE svg PUBLIC "-//W3C//DTD SVG 1.1//EN" "http://www.w3.org/Graphics/SVG/1.1/DTD/svg11.dtd">
<svg version="1.1" id="Layer_1" xmlns="http://www.w3.org/2000/svg" xmlns:xlink="http://www.w3.org/1999/xlink" x="0px" y="0px"
	 width="249.025px" height="525.053px" viewBox="0 0 249.025 525.053" enable-background="new 0 0 249.025 525.053"
	 xml:space="preserve">
<g>
	<g>
		<g>
			<g id="XMLID_194_">
				<path id="XMLID_704_" fill="none" stroke="#1F4D69" stroke-width="6" stroke-linecap="round" stroke-miterlimit="10" d="
					M180.877,498.734c0,0-19.281-86.461-15.53-191.417"/>
				<path id="XMLID_703_" fill="none" stroke="#1F4D69" stroke-width="6" stroke-linecap="round" stroke-miterlimit="10" d="
					M118.147,503.882c0,0-13.61-95.359-15.53-191.417"/>
				<path id="XMLID_702_" fill="none" stroke="#1F4D69" stroke-width="6" stroke-linecap="round" stroke-miterlimit="10" d="
					M84.47,150.276c11.953-3.839-69.708,27.657-63.514,163.759"/>
				<path id="XMLID_695_" fill="none" stroke="#1F4D69" stroke-width="6" stroke-linecap="round" stroke-miterlimit="10" d="
					M156.971,146.874c-12.301-2.705,71.716,15.268,78.172,157.216"/>
				<g id="XMLID_215_">
					<path id="XMLID_586_" fill="#FFFFFF" d="M157.822,137.415c11.08,17.711,27.221,24.429,41.441,72.763
						c5.584,19.106,7.416,36.556,3.054,65.521c-1.571,10.383-24.342,29.314-49.643,34.812c-13.349,2.792-29.315,2.182-51.649,0.087
						c-8.114-0.698-40.657-5.933-44.06-29.75c-2.53-18.147-9.684-36.993-3.053-65.522c5.67-24.08,12.476-35.596,40.22-79.568
						c27.57-43.71,25.302-42.837,25.302-42.837S146.393,119.268,157.822,137.415z"/>
					<path id="XMLID_217_" fill="#E0DFE6" d="M69.275,177.591c4.188-9.858,16.089-21.273,20.016-31.132
						c2.094-5.147,5.061-12.825,10.993-14.919c1.047-0.96,2.269-1.658,3.577-2.094c-1.482-0.61-3.053-1.222-4.536-2.007
						c-1.659-0.873-3.316-1.744-5.061-2.792c9.771,2.094,19.456,3.839,28.006,9.335c-1.134-0.087-2.181-0.174-3.315-0.436
						c2.268,2.443,3.839,5.583,4.013,9.335c0.437,10.295-4.711,19.63-9.859,28.442c-8.637,14.57-14.657,26.872-15.966,43.885
						c-1.134,14.57,1.135,30.099,5.236,44.146c3.228,10.904,14.22,17.187,16.837,28.179c2.705,11.344-7.525,25.128-16.86,23.47
						c-2.181,0.697-12.141,0.378-13.45-1.454c-2.705-0.873-11.334-5.023-12.905-5.635c-18.933-7.853-21.172-35.138-23.266-53.982
						C49.856,223.497,58.806,201.933,69.275,177.591z"/>
					<path id="XMLID_216_" fill="none" stroke="#1F4D69" stroke-width="6" stroke-miterlimit="10" d="M158.368,138.149
						c11.079,17.711,27.22,24.429,41.441,72.763c5.583,19.107,7.416,36.556,3.054,65.521c-1.57,10.383-24.341,29.314-49.644,34.812
						c-13.348,2.791-29.314,2.181-51.649,0.087c-8.113-0.698-40.656-5.933-44.058-29.75c-2.53-18.147-9.685-36.993-3.054-65.522
						c5.671-24.08,12.476-35.596,40.22-79.568c27.569-43.71,25.301-42.837,25.301-42.837S147.113,120.09,158.368,138.149z"/>
				</g>
				<circle id="XMLID_214_" fill="#FFFFFF" cx="122.073" cy="72.278" r="60.548"/>
				<path id="XMLID_196_" fill="#E0DFE6" d="M117.449,132.129c-5.758-1.658-11.604-3.228-17.274-5.322
					c0.349-0.087,0.61-0.349,0.959-0.436c-1.483-0.611-3.053-1.222-4.536-2.007c-17.624-8.638-38.301-29.751-29.576-49.905
					c9.423-21.985,31.234,6.893,38.301,14.483c7.678,8.288,18.757,12.564,29.75,12.913c2.443-1.396,4.711-1.222,6.631-0.349
					c12.476-1.483,23.905-8.289,28.965-20.503c2.181-5.322,9.248-2.792,10.295,1.746c4.362-2.443,3.97,1.015,1.003,5.9
					c-1.134,1.92-0.388,3.655-1.697,5.574c-0.698,5.147-3.15,7.028-5.816,12.117c-1.134,1.134-2.414,4.847-3.635,4.847
					c-0.087,1.135-1.464,2.278-2.424,3.15c-15.966,13.436-32.364,19.013-51.907,16.133
					C116.577,131.082,117.013,131.605,117.449,132.129z"/>
				
					<circle id="XMLID_195_" fill="none" stroke="#1F4D69" stroke-width="6" stroke-miterlimit="10" cx="124.342" cy="72.104" r="60.548"/>
			</g>
		</g>
	</g>
</g>
<path fill="none" stroke="#1F4D69" stroke-width="6" stroke-miterlimit="10" d="M112.171,97.98c0,0,15.631-21.297,29.082,0"/>
<path fill="none" stroke="#1F4D69" stroke-width="6" stroke-miterlimit="10" d="M115.652,61.965c0,0-5.099,9.959-11.861,1.67"/>
<path fill="none" stroke="#1F4D69" stroke-width="6" stroke-miterlimit="10" d="M138.971,63.479c0,0,6.456,8.332,9.637-1.357"/>
</svg>
