<?xml version="1.0" encoding="utf-8"?>
<!-- Generator: Adobe Illustrator 15.1.0, SVG Export Plug-In . SVG Version: 6.00 Build 0)  -->
<!DOCTYPE svg PUBLIC "-//W3C//DTD SVG 1.1//EN" "http://www.w3.org/Graphics/SVG/1.1/DTD/svg11.dtd">
<svg version="1.1" id="Capa_1" xmlns="http://www.w3.org/2000/svg" xmlns:xlink="http://www.w3.org/1999/xlink" x="0px" y="0px"
	 width="43.5px" height="43.25px" viewBox="490 363.25 43.5 43.25" enable-background="new 490 363.25 43.5 43.25"
	 xml:space="preserve">
<g id="XMLID_1093_">
	<path id="XMLID_1091_" fill="#04A7DB" d="M513.951,404.408c-12.25,1.301-22.549-8.998-21.357-21.357
		c0.976-9.215,8.348-16.587,17.455-17.455c12.25-1.301,22.55,8.999,21.357,21.357C530.538,396.061,523.166,403.433,513.951,404.408z
		"/>
	<g id="XMLID_1094_">
		<path id="XMLID_1092_" fill="#F7F6F6" d="M519.155,394.109c0.542,0.325,0.976,1.084,0.976,1.734c0,1.301-0.867,2.493-1.734,1.843
			l-13.227-10.19c-0.759-0.65-1.409-0.976-1.409-2.385c0-1.41,0.65-1.843,1.409-2.494l13.227-10.191
			c0.867-0.65,1.734,0.542,1.734,1.843c0,0.759-0.434,1.409-0.976,1.843l-11.925,8.89L519.155,394.109z"/>
	</g>
</g>
</svg>
