<?xml version="1.0" encoding="utf-8"?>
<!-- Generator: Adobe Illustrator 19.0.0, SVG Export Plug-In . SVG Version: 6.00 Build 0)  -->
<svg version="1.1" id="Capa_1" xmlns="http://www.w3.org/2000/svg" xmlns:xlink="http://www.w3.org/1999/xlink" x="0px" y="0px"
	 viewBox="-402 199.7 153.6 162.3" style="enable-background:new -402 199.7 153.6 162.3;" xml:space="preserve">
<style type="text/css">
	.st0{fill:#04A7DB;}
	.st1{fill:#FFFFFF;stroke:#04A7DB;stroke-miterlimit:10;}
	.st2{fill:#FFFFFF;}
	.st3{fill:none;stroke:#04A7DB;stroke-width:1.3283;stroke-miterlimit:10;}
	.st4{fill:none;stroke:#04A7DB;stroke-width:1.3554;stroke-miterlimit:10;}
	.st5{fill:none;}
	.st6{font-family:'ArialMT';}
	.st7{font-size:12px;}
	.st8{fill:none;stroke:#04A7DB;stroke-width:1.1887;stroke-miterlimit:10;}
</style>
<path class="st0" d="M-325.2,209.9c-39.1,0-70.9,31.7-70.9,70.9c0,39.1,31.7,70.9,70.9,70.9s70.9-31.7,70.9-70.9
	C-254.3,241.6-286.1,209.9-325.2,209.9z M-276.8,296.5l-10.8,3.4l3.5,10.7h-11.3v11.3l-10.7-3.5l-3.4,10.8l-9.1-6.7l-6.6,9.2
	l-6.6-9.2l-9.1,6.7l-3.4-10.8l-10.7,3.5v-11.3h-11.3l3.5-10.7l-10.8-3.4l6.7-9.1l-9.2-6.6l9.2-6.6l-6.7-9.1l10.8-3.4l-3.5-10.7h11.3
	v-11.3l10.7,3.5l3.4-10.8l9.1,6.7l6.6-9.2l6.6,9.2l9.1-6.7l3.4,10.8l10.7-3.5V251h11.3l-3.5,10.7l10.8,3.4l-6.7,9.1l9.2,6.6
	l-9.2,6.6L-276.8,296.5z"/>
<path class="st1" d="M-325.2,208c-40.2,0-72.8,32.6-72.8,72.8s32.6,72.8,72.8,72.8s72.8-32.6,72.8-72.8
	C-252.4,240.5-285,208-325.2,208z M-325.2,331.3c-27.9,0-50.5-22.6-50.5-50.5s22.6-50.5,50.5-50.5s50.5,22.6,50.5,50.5
	S-297.3,331.3-325.2,331.3z"/>
<circle id="XMLID_18_" class="st0" cx="-384" cy="286.4" r="2"/>
<circle id="XMLID_17_" class="st0" cx="-264.1" cy="292.7" r="2"/>
<g>
	<path class="st0" d="M-338.5,224.8c0-0.6,0-1.4,0.1-2l0.6-6.9c0-0.4,0.4-0.7,0.7-0.8c0.5-0.1,1,0.1,1.1,0.6c0,0.1,0,0.2,0,0.3
		l-1.1,10.3c-0.1,0.6-0.3,1.1-0.9,1.2c-0.6,0.1-1-0.2-1.3-0.7l-5.2-8.9c0-0.1-0.1-0.2-0.1-0.3c-0.1-0.5,0.2-0.9,0.7-1
		c0.3-0.1,0.8,0.1,1,0.4C-341.3,219.6-339.8,222.1-338.5,224.8z"/>
	<path class="st0" d="M-332.4,216.6c-0.6,0-1.1-0.4-1.1-0.9s0.4-1,1-1.1c0.6,0,1.1,0.4,1.1,0.9
		C-331.4,216.1-331.8,216.5-332.4,216.6z M-331.6,226.5c-0.5,0-0.9-0.3-1-0.8l-0.6-6.9c0-0.4,0.3-0.9,0.8-0.9s0.9,0.3,1,0.8l0.6,6.9
		C-330.7,226.1-331.1,226.5-331.6,226.5z"/>
	<path class="st0" d="M-324.2,218.2l0.1-3c0-0.4,0.3-0.8,0.9-0.8s0.9,0.4,0.9,0.8l-0.2,9.1c0,0.3,0.1,0.5,0.3,0.8
		c0.1,0.1,0.2,0.3,0.2,0.5c0,0.5-0.4,0.8-0.8,0.8s-0.7-0.2-0.9-0.6c-0.8,0.4-1.5,0.7-2.3,0.6c-1.8,0-2.8-1.4-2.8-3.3v-2
		c0-2,0.8-3.4,3-3.3C-325.3,217.8-324.7,217.9-324.2,218.2z M-324.2,219.6c-0.5-0.2-1.1-0.3-1.4-0.3c-1,0-1.4,0.6-1.4,1.8v2
		c0,1.1,0.4,1.7,1.3,1.7c0.4,0,1-0.1,1.5-0.4c0-0.1,0-0.2,0-0.3V219.6z"/>
	<path class="st0" d="M-318.5,223.4l-0.1,0.8c-0.1,0.7,0.3,1.3,1.4,1.4c0.6,0.1,1.1,0,1.6-0.2c0.1,0,0.2-0.1,0.4,0
		c0.6,0.1,0.7,0.5,0.7,0.9c-0.1,1-2.1,1-3.1,0.8c-2-0.3-3-1.7-2.7-3.3l0.4-2.9c0.2-1.6,1.6-2.7,3.7-2.3c2,0.3,2.8,1.5,2.6,3.2
		c-0.2,1.5-1.3,2.3-3.3,2C-317.6,223.6-318,223.5-318.5,223.4z M-316.6,220c-0.9-0.1-1.5,0.3-1.6,1.1l-0.1,1
		c0.5,0.1,1.2,0.3,1.4,0.3c0.9,0.1,1.3-0.3,1.4-0.9C-315.4,220.5-315.8,220.1-316.6,220z"/>
	<path class="st0" d="M-312.8,224.8l0.8-2.5c0.5-1.6,2-2.5,4.1-1.9c2.1,0.7,2.8,2.3,2.3,3.9l-0.8,2.5c-0.5,1.6-2,2.5-4.1,1.9
		S-313.4,226.4-312.8,224.8z M-308.2,226.3l0.8-2.5c0.3-0.8-0.1-1.5-1-1.8c-1-0.3-1.6,0-1.9,0.9l-0.8,2.5c-0.3,0.9,0.1,1.5,1,1.8
		C-309.1,227.5-308.4,227.1-308.2,226.3z"/>
</g>
<g>
	<path class="st0" d="M-342.1,341.5c0.3-0.6,0.7-1.2,1.1-1.7l4-5.7c0.2-0.3,0.7-0.4,1-0.3c0.5,0.2,0.8,0.6,0.6,1.1
		c0,0.1-0.1,0.2-0.1,0.3l-6.1,8.3c-0.4,0.5-0.8,0.8-1.4,0.6c-0.6-0.2-0.7-0.7-0.7-1.3v-10.3c0-0.1,0-0.2,0-0.3
		c0.2-0.5,0.7-0.7,1.2-0.5c0.3,0.1,0.6,0.5,0.6,0.9C-341.9,335.5-341.9,338.5-342.1,341.5z"/>
	<path class="st0" d="M-335.4,346c-0.5-0.1-0.8-0.5-0.7-1l1.2-6.8c0.1-0.4,0.5-0.7,1-0.7c0.5,0.1,0.8,0.5,0.7,1l-1.2,6.8
		C-334.4,345.8-334.9,346-335.4,346z M-333.7,336.1c-0.6-0.1-0.9-0.6-0.9-1.1c0.1-0.5,0.6-0.9,1.2-0.8s0.9,0.6,0.9,1.1
		C-332.6,335.9-333.1,336.2-333.7,336.1z"/>
	<path class="st0" d="M-326.7,338.4l-0.1-3c0-0.4,0.3-0.8,0.9-0.8s0.9,0.3,0.9,0.8l0.1,9.1c0,0.3,0.1,0.5,0.4,0.8
		c0.1,0.1,0.2,0.3,0.2,0.4c0,0.5-0.4,0.8-0.8,0.8s-0.7-0.2-1-0.6c-0.8,0.4-1.5,0.7-2.3,0.7c-1.8,0-2.8-1.2-2.9-3.1v-2
		c0-2,0.7-3.4,2.9-3.4C-327.8,338.1-327.3,338.1-326.7,338.4z M-326.6,339.8c-0.5-0.2-1.1-0.3-1.4-0.3c-1,0-1.4,0.6-1.3,1.9v2
		c0,1.1,0.5,1.6,1.4,1.6c0.4,0,1-0.2,1.5-0.4c0-0.1,0-0.2,0-0.3L-326.6,339.8z"/>
	<path class="st0" d="M-320.2,342l0.2,0.7c0.2,0.7,0.8,1.1,1.8,0.8c0.6-0.1,1-0.4,1.5-0.8c0,0,0.1-0.1,0.3-0.2
		c0.5-0.1,0.9,0.2,1,0.5c0.2,1-1.6,1.7-2.5,1.9c-2,0.5-3.4-0.4-3.8-2l-0.7-2.8c-0.4-1.6,0.4-3.1,2.5-3.6c1.9-0.5,3.2,0.3,3.6,1.9
		c0.4,1.5-0.3,2.6-2.3,3.1C-319.2,341.9-319.6,342-320.2,342z M-319.6,338.2c-0.9,0.2-1.3,0.8-1.1,1.6l0.2,0.9
		c0.6-0.1,1.2-0.2,1.4-0.3c0.9-0.2,1.1-0.7,0.9-1.4C-318.3,338.2-318.8,338-319.6,338.2z"/>
	<path class="st0" d="M-314.4,341.1l-0.7-2.5c-0.5-1.6,0.3-3.2,2.4-3.8c2.1-0.6,3.6,0.4,4,2l0.7,2.5c0.4,1.6-0.3,3.2-2.4,3.8
		C-312.4,343.7-313.9,342.8-314.4,341.1z M-309.6,339.8l-0.7-2.5c-0.2-0.8-0.9-1.2-1.9-1c-1,0.3-1.4,0.9-1.1,1.8l0.7,2.5
		c0.2,0.9,0.9,1.2,1.9,1C-309.8,341.4-309.4,340.7-309.6,339.8z"/>
</g>
<g>
	<g>
		<path class="st2" d="M-268,306.7h-113.4c-7,0-12.7-5.7-12.7-12.7v-25.3c0-7,5.7-12.7,12.7-12.7H-268c7,0,12.7,5.7,12.7,12.7V294
			C-255.4,301-261,306.7-268,306.7z"/>
		<circle id="XMLID_16_" class="st0" cx="-264.1" cy="261.6" r="2"/>
		<circle id="XMLID_3_" class="st0" cx="-266.1" cy="300.7" r="2"/>
		<circle id="XMLID_1_" class="st0" cx="-384" cy="262" r="2"/>
		<circle id="XMLID_4_" class="st0" cx="-382.9" cy="300.7" r="2"/>
		<g>
			<path class="st0" d="M-377.3,266.7c0-4,1.9-6.7,6.2-6.7c2.5,0,5,1.1,5,2.5c0,0.7-0.6,1.2-1.3,1.2c-0.5,0-0.6-0.2-1-0.4l-0.1-0.1
				c-0.7-0.5-1.4-0.7-2.4-0.7c-2.6,0-3.5,1.6-3.5,4.2v5.3c0,2.6,0.9,4.2,3.5,4.2c0.9,0,1.7-0.2,2.4-0.7l0.1-0.1
				c0.4-0.2,0.5-0.4,1-0.4c0.8,0,1.3,0.6,1.3,1.2c0,1.4-2.4,2.5-5,2.5c-4.3,0-6.2-2.6-6.2-6.7V266.7z"/>
			<path class="st0" d="M-364.1,274v-4.1c0-2.7,1.8-4.7,5.2-4.7s5.2,2,5.2,4.7v4.1c0,2.6-1.8,4.7-5.2,4.7S-364.1,276.7-364.1,274z
				 M-356.5,274v-4.1c0-1.4-0.8-2.2-2.4-2.2s-2.4,0.9-2.4,2.2v4.1c0,1.4,0.8,2.3,2.4,2.3S-356.5,275.4-356.5,274z"/>
			<path class="st0" d="M-347.9,277.4c0,0.7-0.5,1.3-1.4,1.3s-1.4-0.6-1.4-1.3v-8.3c0-1.1-0.2-1.2-0.3-1.4c-0.2-0.3-0.3-0.5-0.3-0.8
				c0-0.7,0.6-1.2,1.3-1.2c0.5,0,0.9,0.3,1.2,0.8c1.2-0.8,2.4-1.1,3.6-1.1c3,0,4.5,2,4.5,5v7.1c0,0.7-0.5,1.3-1.4,1.3
				s-1.4-0.6-1.4-1.3v-7.1c0-1.6-0.8-2.6-2-2.6c-0.8,0-1.6,0.3-2.4,0.8c0.1,0.2,0.1,0.4,0.1,0.6v8.2H-347.9z"/>
			<path class="st0" d="M-337.1,262.8c0-0.7,0.5-1.3,1.4-1.3s1.4,0.6,1.4,1.3v3.2h2.3c0.7,0,1.3,0.5,1.3,1.3c0,0.7-0.6,1.2-1.3,1.2
				h-2.3v4.5c0,2.3,0.2,3.1,1.8,3.1c0.2,0,0.4,0,0.5,0c1.1,0,1.7,0.3,1.7,1.2c0,1.2-1,1.3-2,1.3c-3.8,0-4.8-1.9-4.8-5.4V262.8z"/>
			<path class="st0" d="M-326,273.3v1.2c0,1.2,0.8,1.9,2.4,1.9c1,0,1.7-0.3,2.5-0.6c0.1-0.1,0.3-0.1,0.6-0.1c0.9,0,1.3,0.6,1.3,1.2
				c0,1.6-3.1,2-4.6,2c-3.2,0-5-1.9-5-4.4v-4.6c0-2.5,1.8-4.5,5.1-4.5c3.1,0,4.7,1.7,4.7,4.3c0,2.4-1.4,3.9-4.7,3.9
				C-324.4,273.4-325.2,273.4-326,273.3z M-323.7,267.6c-1.4,0-2.3,0.8-2.3,2v1.5c0.9,0.1,1.9,0.2,2.3,0.2c1.5,0,2-0.7,2-1.8
				C-321.8,268.1-322.5,267.6-323.7,267.6z"/>
			<path class="st0" d="M-313.4,277.4c0,0.7-0.5,1.3-1.4,1.3s-1.4-0.6-1.4-1.3v-8.3c0-1.1-0.2-1.2-0.3-1.4c-0.2-0.3-0.3-0.5-0.3-0.8
				c0-0.7,0.6-1.2,1.3-1.2c0.5,0,0.9,0.3,1.2,0.8c1.2-0.8,2.4-1.1,3.6-1.1c3,0,4.5,2,4.5,5v7.1c0,0.7-0.5,1.3-1.4,1.3
				s-1.4-0.6-1.4-1.3v-7.1c0-1.6-0.8-2.6-2-2.6c-0.8,0-1.6,0.3-2.4,0.8c0.1,0.2,0.1,0.4,0.1,0.6v8.2H-313.4z"/>
			<path class="st0" d="M-301,263.1c-0.9,0-1.6-0.7-1.6-1.5c0-0.9,0.7-1.5,1.6-1.5s1.6,0.7,1.6,1.5S-300.1,263.1-301,263.1z
				 M-301,278.7c-0.8,0-1.4-0.5-1.4-1.3v-10.8c0-0.7,0.6-1.3,1.4-1.3s1.4,0.6,1.4,1.3v10.8C-299.6,278.2-300.2,278.7-301,278.7z"/>
			<path class="st0" d="M-289.2,265.9v-4.8c0-0.7,0.5-1.3,1.4-1.3s1.4,0.6,1.4,1.3v14.3c0,0.5,0.2,0.9,0.6,1.2
				c0.2,0.2,0.3,0.4,0.3,0.7c0,0.8-0.7,1.2-1.3,1.2c-0.6,0-1.1-0.4-1.5-0.9c-1.2,0.6-2.4,1.1-3.6,1.1c-2.9,0-4.4-2-4.4-5v-3.1
				c0-3.1,1.1-5.3,4.6-5.3C-290.9,265.4-290.1,265.5-289.2,265.9z M-289.2,268.2c-0.8-0.3-1.7-0.4-2.3-0.4c-1.6,0-2.1,0.9-2.1,2.9
				v3.1c0,1.7,0.7,2.6,2.1,2.6c0.7,0,1.5-0.2,2.4-0.6c-0.1-0.2-0.1-0.4-0.1-0.5V268.2z"/>
			<path class="st0" d="M-283.1,274v-4.1c0-2.7,1.8-4.7,5.2-4.7s5.2,2,5.2,4.7v4.1c0,2.6-1.8,4.7-5.2,4.7S-283.1,276.7-283.1,274z
				 M-275.5,274v-4.1c0-1.4-0.8-2.2-2.4-2.2s-2.4,0.9-2.4,2.2v4.1c0,1.4,0.8,2.3,2.4,2.3S-275.5,275.4-275.5,274z"/>
			<path class="st0" d="M-343.4,289.7c-1.1,3.2-2.2,6.4-3.3,9.6c-0.3,1-0.8,1.4-1.7,1.4c-0.9,0-1.4-0.4-1.7-1.3
				c-1.1-3.2-2.2-6.4-3.3-9.7l-0.3-1c0-0.1,0-0.1,0-0.2c0-0.7,0.7-1.2,1.4-1.2c0.5,0,1.1,0.3,1.3,0.9c0.5,1.5,1,3.1,1.4,4.6
				c0.5,1.5,0.8,3.1,1.2,4.6c0.4-1.5,0.7-3.1,1.2-4.6s0.9-3.1,1.4-4.6c0.2-0.5,0.8-0.9,1.3-0.9c0.7,0,1.3,0.5,1.3,1.2
				c0,0.1,0,0.1,0,0.2L-343.4,289.7z"/>
			<path class="st0" d="M-339.2,285.1c-0.9,0-1.6-0.7-1.6-1.5c0-0.9,0.7-1.5,1.6-1.5s1.6,0.7,1.6,1.5S-338.3,285.1-339.2,285.1z
				 M-339.2,300.7c-0.8,0-1.4-0.5-1.4-1.3v-10.8c0-0.7,0.6-1.3,1.4-1.3s1.4,0.6,1.4,1.3v10.8C-337.8,300.2-338.4,300.7-339.2,300.7z
				"/>
			<path class="st0" d="M-329.9,287.3c1.5,0,3.7,0.4,3.7,1.9c0,0.7-0.5,1.1-1.1,1.1c-0.8,0-1.2-0.6-2.6-0.6c-0.6,0-1.8,0.1-1.8,1.2
				c0,2.5,6,1.3,6,5.9c0,2.4-1.6,3.9-4.7,3.9c-1.5,0-4.2-0.3-4.2-1.7c0-0.5,0.3-1.5,1.4-1.2c0.5,0.1,1.6,0.6,2.7,0.6
				c1.2,0,2.1-0.6,2.1-1.5c0-2.4-6-1.1-6-5.7C-334.5,288.8-332.9,287.3-329.9,287.3z"/>
			<path class="st0" d="M-323.2,284.8c0-0.7,0.5-1.3,1.4-1.3s1.4,0.6,1.4,1.3v3.2h2.3c0.7,0,1.3,0.5,1.3,1.3c0,0.7-0.6,1.2-1.3,1.2
				h-2.3v4.5c0,2.3,0.2,3.1,1.8,3.1c0.2,0,0.4,0,0.5,0c1.1,0,1.7,0.3,1.7,1.2c0,1.2-1,1.3-2,1.3c-3.8,0-4.8-1.9-4.8-5.4V284.8z"/>
			<path class="st0" d="M-314.9,296v-4.1c0-2.7,1.8-4.7,5.2-4.7s5.2,2,5.2,4.7v4.1c0,2.6-1.8,4.7-5.2,4.7S-314.9,298.7-314.9,296z
				 M-307.3,296v-4.1c0-1.4-0.8-2.2-2.4-2.2s-2.4,0.9-2.4,2.2v4.1c0,1.4,0.8,2.3,2.4,2.3S-307.3,297.4-307.3,296z"/>
		</g>
	</g>
	<line class="st3" x1="-390.5" y1="256" x2="-259.8" y2="256"/>
	<line class="st4" x1="-389.8" y1="306.7" x2="-260.6" y2="306.7"/>
</g>
<circle id="XMLID_2_" class="st0" cx="-355.5" cy="226.6" r="2"/>
<circle id="XMLID_5_" class="st0" cx="-295.5" cy="228.6" r="2"/>
<circle id="XMLID_6_" class="st0" cx="-357.5" cy="334.8" r="2"/>
<circle id="XMLID_7_" class="st0" cx="-297.5" cy="336.8" r="2"/>
<path class="st0" d="M-1023.7,409.7c-39.1,0-70.9,31.7-70.9,70.9c0,39.1,31.7,70.9,70.9,70.9c39.1,0,70.9-31.7,70.9-70.9
	S-984.6,409.7-1023.7,409.7z M-975.3,496.3l-10.8,3.4l3.5,10.7h-11.3v11.3l-10.7-3.5l-3.4,10.8l-9.1-6.7l-6.6,9.2l-6.6-9.2l-9.1,6.7
	l-3.4-10.8l-10.7,3.5v-11.3h-11.3l3.5-10.7l-10.8-3.4l6.7-9.1l-9.2-6.6l9.2-6.6l-6.7-9.1l10.8-3.4l-3.5-10.7h11.3v-11.3l10.7,3.5
	l3.4-10.8l9.1,6.7l6.6-9.2l6.6,9.2l9.1-6.7l3.4,10.8l10.7-3.5v11.3h11.3l-3.5,10.7l10.8,3.4l-6.7,9.1l9.2,6.6l-9.2,6.6L-975.3,496.3
	z"/>
<path class="st1" d="M-1023.7,407.8c-40.2,0-72.8,32.6-72.8,72.8s32.6,72.8,72.8,72.8s72.8-32.6,72.8-72.8
	C-950.9,440.3-983.5,407.8-1023.7,407.8z M-1023.7,531.1c-27.9,0-50.5-22.6-50.5-50.5s22.6-50.5,50.5-50.5
	c27.9,0,50.5,22.6,50.5,50.5S-995.8,531.1-1023.7,531.1z"/>
<circle id="XMLID_20_" class="st0" cx="-1082.5" cy="486.2" r="2"/>
<circle id="XMLID_19_" class="st0" cx="-962.6" cy="492.5" r="2"/>
<path id="SVGID_x5F_1_x5F_" class="st5" d="M-1065.5,446.3c0,0,11.5-21.9,43.4-20.7c22.1,0.8,32.2,10.6,43.6,25"/>
<text transform="matrix(1 0 0 1 -1065.3464 445.9219)" class="st6 st7"> </text>
<text transform="matrix(1 0 0 1 -1063.6595 442.9869)" class="st0" style="font-family:'BloggerSans-Medium'; font-size:18px;">V</text>
<text transform="matrix(1 0 0 1 -1056.4927 435.9966)" class="st0" style="font-family:'BloggerSans-Medium'; font-size:18px;">i</text>
<text transform="matrix(1 0 0 1 -1052.704 433.0493)" class="st0" style="font-family:'BloggerSans-Medium'; font-size:18px;">d</text>
<text transform="matrix(1 0 0 1 -1044.4312 428.9032)" class="st0" style="font-family:'BloggerSans-Medium'; font-size:18px;">e</text>
<text transform="matrix(1 0 0 1 -1036.4722 426.5505)" class="st0" style="font-family:'BloggerSans-Medium'; font-size:18px;">o</text>
<text transform="matrix(1 0 0 1 -402 199.7)" class="st6 st7"> </text>
<path id="SVGID_x5F_2_x5F_" class="st5" d="M-1062.8,535.7c0,0,24,17.5,45.4,12.2c17.5-4.4,19.5-4.6,28.4-12.3"/>
<text transform="matrix(1 0 0 1 -1046.1553 544.6193)" class="st6 st7"> </text>
<text transform="matrix(1 0 0 1 -1043.0771 545.9489)" class="st0" style="font-family:'BloggerSans-Medium'; font-size:18px;">V</text>
<text transform="matrix(1 0 0 1 -1033.3516 548.3176)" class="st0" style="font-family:'BloggerSans-Medium'; font-size:18px;">i</text>
<text transform="matrix(1 0 0 1 -1028.605 549.0809)" class="st0" style="font-family:'BloggerSans-Medium'; font-size:18px;">d</text>
<text transform="matrix(1 0 0 1 -1019.3941 548.3989)" class="st0" style="font-family:'BloggerSans-Medium'; font-size:18px;">e</text>
<text transform="matrix(1 0 0 1 -1011.3521 546.4263)" class="st0" style="font-family:'BloggerSans-Medium'; font-size:18px;">o</text>
<text transform="matrix(1 0 0 1 -402 199.7)" class="st6 st7"> </text>
<g>
	<g>
		<path class="st2" d="M-966.5,506.5h-113.4c-7,0-12.7-5.7-12.7-12.7v-25.3c0-7,5.7-12.7,12.7-12.7h113.4c7,0,12.7,5.7,12.7,12.7
			v25.3C-953.9,500.8-959.5,506.5-966.5,506.5z"/>
		<circle id="XMLID_15_" class="st0" cx="-959.3" cy="463.8" r="2"/>
		<circle id="XMLID_14_" class="st0" cx="-959.3" cy="501.8" r="2"/>
		<circle id="XMLID_13_" class="st0" cx="-1087.2" cy="463.8" r="2"/>
		<circle id="XMLID_12_" class="st0" cx="-1087.2" cy="499.8" r="2"/>
		
			<text transform="matrix(1 0 0 1 -1076.7656 478.3291)" class="st0" style="font-family:'BloggerSans-Medium'; font-size:25.8659px;">Contenido</text>
		
			<text transform="matrix(1 0 0 1 -1052.8657 500.3291)" class="st0" style="font-family:'BloggerSans-Medium'; font-size:25.8659px;">visto </text>
	</g>
	<line class="st4" x1="-1091.8" y1="455.8" x2="-954.6" y2="455.8"/>
	<line class="st4" x1="-1091.3" y1="506.5" x2="-955.1" y2="506.5"/>
</g>
<circle id="XMLID_11_" class="st0" cx="-1054" cy="426.4" r="2"/>
<circle id="XMLID_10_" class="st0" cx="-994" cy="428.4" r="2"/>
<circle id="XMLID_9_" class="st0" cx="-1056" cy="534.6" r="2"/>
<circle id="XMLID_8_" class="st0" cx="-996" cy="536.6" r="2"/>
<circle class="st8" cx="-325.2" cy="280.8" r="69.8"/>
</svg>
