<?xml version="1.0" encoding="utf-8"?>
<!-- Generator: Adobe Illustrator 19.0.0, SVG Export Plug-In . SVG Version: 6.00 Build 0)  -->
<svg version="1.1" id="Capa_1" xmlns="http://www.w3.org/2000/svg" xmlns:xlink="http://www.w3.org/1999/xlink" x="0px" y="0px"
	 viewBox="-353 201 251.2 159" style="enable-background:new -353 201 251.2 159;" xml:space="preserve">
<style type="text/css">
	.st0{fill:#FFFFFF;}
	.st1{fill:#0D004C;}
	.st2{fill:none;stroke:#1F4D69;stroke-width:2.8517;stroke-miterlimit:10;}
	.st3{fill:none;stroke:#1F4D69;stroke-width:2.6735;stroke-linecap:round;stroke-miterlimit:10;}
	.st4{fill:none;stroke:#1F4D69;stroke-width:2.8517;stroke-linecap:round;stroke-miterlimit:10;}
	.st5{opacity:0.2;fill:#FFFFFF;enable-background:new    ;}
	.st6{opacity:0.1;fill:#FFFFFF;enable-background:new    ;}
	.st7{opacity:0.4;fill:#FFFFFF;enable-background:new    ;}
	.st8{opacity:0.5;fill:#FFFFFF;enable-background:new    ;}
	.st9{opacity:0.6;fill:#FFFFFF;enable-background:new    ;}
	.st10{fill:#04A7DB;}
	.st11{fill:none;stroke:#1F4D69;stroke-width:1.3939;stroke-miterlimit:10;}
	.st12{fill:#D2D9DB;}
	.st13{fill:#FFCC80;}
	.st14{fill:#1F4D69;}
	.st15{fill:none;stroke:#1F4D69;stroke-width:1.2597;stroke-miterlimit:10;}
</style>
<path class="st0" d="M-184.9,209.4c-43.8,0-79.3,35.7-79.3,79.5c0,31,17.8,58.1,43.8,71.1h71.1c25.9-13.1,43.7-40.2,43.7-71.2
	C-105.6,245-141.1,209.4-184.9,209.4z M-219.9,261.4c-3.8,7-5.4,14.2-5.6,22.2c-0.1,4.7,0.2,9.4,0.6,14.2c0.2,3,1.1,6.1,1,9.1
	c-0.2,5.8-4.8,9-9.8,10.8c-1.4,1-3.1,0.9-4.5,0.1c-0.1,0-0.3,0.1-0.4,0.1c-0.5,0.1-0.8-0.4-0.5-0.8c-1.4-1.2-2.1-3.2-1.1-5.3
	c-0.4-0.3-0.7-0.7-0.9-1.2c-0.9-2-1.5-3.8-1.6-5.7c-0.6-1.8-0.9-3.7-0.9-5.6c-0.2-0.2-0.3-0.4-0.4-0.7c-3.9-7.4-3.4-17.5,1.2-24.5
	c0.5-2.2,1.1-4.3,1.9-6.5c0.3-0.7,0.6-1.3,1.1-1.8c0.1-0.4,0.3-0.7,0.5-1.1c-1.3-1.4-1.9-3.4-0.6-5.2c6.7-9.1,12.9-19.7,23.6-24.6
	c2.6-1.2,5.8-0.3,6.6,2.7c0.7,2.5,2.2,4.7,3.5,6.9c2.5,4.1-2.7,8.4-6.3,6.1c-0.2,0.1-0.4,0.4-0.6,0.7c-0.9,1-1.7,2-2.5,3
	C-217.2,256.6-218.6,259-219.9,261.4z M-136.4,328c-2.4,2.7-5.2,4.6-8.3,6.2c0,0,0,0,0,0.1c-0.2,0.6-0.6,1.3-1.3,1.9
	c-2.1,2-4.3,3.6-6.8,4.7c-4.1,2.5-8.4,4.5-13,5.8c-0.1,1.7-1,3.2-3.2,3.6c-11.7,2-22.6-0.4-33.7-3.1c-0.8,0.3-1.7,0.3-2.7,0.1
	c-3-0.7-4.8-2-7-4.2c-1.8-1.8-1.6-4.3-0.2-6c0-0.4,0-0.9,0.1-1.4c0.1-0.3,0.1-0.6,0.2-0.9c0-0.4,0.1-0.9,0.3-1.4
	c0.2-1.1,0.3-2.3,0.4-3.5c0.1-2.9,2.4-4.3,4.6-4.3c0.7-0.2,1.4-0.2,2.1,0c2.1-0.1,4.1,1.3,4.6,3.4c11.7,3.7,25.3,4.7,36-1.6
	c4.9-2.9,9.6-7.8,15.1-9.5c0.6-0.2,1.2-0.3,1.8-0.3c0.9-0.8,2.3-1.2,3.9-0.6c2.3,0.8,4.6,1.6,6.9,2.5h0.1l0,0
	c0.4,0.1,0.7,0.3,1.1,0.4C-131.4,321.8-133.1,326.7-136.4,328z M-128.8,286.7c-1.9,1.2-4.3,2-6.9,2.2c-2.7,0.2-4.2-2.2-4.5-4.5
	c-1.1-8.8-5.8-17.7-10.6-25c-2-3-4.8-6.9-8.2-10.1c-1,0.2-2.1,0.1-3-0.5c-3.5-2.4-7.5-3.2-11.4-4.5c0,0,0,0-0.1,0
	c-1.6,0.7-3.7,0.7-5.2-0.6c-1.9-0.5-3.6-2-3.6-4.3c0-1.9,0.3-3.7,0.9-5.4c0.2-1.4,0.5-2.9,0.8-4.3c0.6-3.3,4.1-3.9,6.5-2.6
	c1.4-0.3,3.1-0.4,4.9,0c6.1,1.2,11.6,5.1,16.4,9.1c2.5,1.6,4.8,3.3,6.5,4.6c6.6,5,11.9,12.5,16.6,19.3c4.8,6.9,8.5,14.7,8.5,23.3
	C-121.2,287.7-126.3,288.8-128.8,286.7z"/>
<path id="XMLID_820_" class="st1" d="M-102,290.3c0-0.4,0-0.8,0-1.2c0-46.1-37.3-83.4-83.4-83.4c-24.1,0-45.9,10.2-61.1,26.6
	l-0.3-0.4l-9.2,11.3c0,0-62.3,91.5-196.2,92.7c-25.9,0.2-43.6,1-55.3,2h-625.2v22h902.9h9.3c-26-13-43.8-40.1-43.8-71.1
	c0-43.8,35.5-79.4,79.3-79.4s79.3,35.7,79.3,79.5c0,31-17.8,58.1-43.8,71.1h8.2h0.3h39.2v-69.9C-101.7,290.1-101.8,290.1-102,290.3z
	 M-139.8,358.9c-0.3,0.2-0.6,0.4-0.8,0.6C-140.4,359.1-140.1,359-139.8,358.9z"/>
<g id="XMLID_757_">
	<circle id="XMLID_797_" class="st0" cx="-185.2" cy="287.3" r="41.1"/>
	<path id="XMLID_790_" class="st2" d="M-213.9,257.8c3.6-3.6,7.7-6.4,12.1-8.4l-11-19.6c-6.1,3-11.8,7.1-16.9,12.2
		c-21.6,21.6-24.6,54.8-8.9,79.6l18.7-12.3C-229.9,293.1-227.9,271.8-213.9,257.8z"/>
	<path id="XMLID_789_" class="st2" d="M-154.9,257.8c9.5,9.5,13.4,22.3,11.9,34.6l22.7-3.9c0.3-16.8-5.9-33.8-18.8-46.6
		c-11.9-11.9-27.4-18.2-43.1-18.7l-2.3,22.4C-173.7,245.6-163,249.6-154.9,257.8z"/>
	<path id="XMLID_787_" class="st2" d="M-154.9,316.9c-14.6,14.6-37.3,16.1-53.6,4.6l-8.3,21.3c24.6,14.4,56.7,11.1,77.8-10
		c3.8-3.8,7-8,9.7-12.4l-20.4-9.7C-151.2,312.8-152.9,314.9-154.9,316.9z"/>
	<g id="XMLID_758_">
		<line id="XMLID_786_" class="st3" x1="-141.7" y1="246.5" x2="-150.2" y2="255"/>
		<line id="XMLID_784_" class="st4" x1="-134.1" y1="256.2" x2="-144.2" y2="262.8"/>
		<line id="XMLID_783_" class="st4" x1="-128.6" y1="267.3" x2="-139.8" y2="271.6"/>
		<line id="XMLID_782_" class="st4" x1="-125.6" y1="279.3" x2="-137.5" y2="281.1"/>
		<line id="XMLID_780_" class="st4" x1="-138.8" y1="325.5" x2="-148.1" y2="317.8"/>
		<line id="XMLID_779_" class="st4" x1="-147.6" y1="334" x2="-155.1" y2="324.6"/>
		<line id="XMLID_778_" class="st4" x1="-158.1" y1="340.6" x2="-163.5" y2="329.8"/>
		<line id="XMLID_776_" class="st4" x1="-169.8" y1="344.8" x2="-172.8" y2="333.1"/>
		<line id="XMLID_775_" class="st4" x1="-182" y1="346.4" x2="-182.5" y2="334.4"/>
		<line id="XMLID_773_" class="st4" x1="-194.3" y1="345.5" x2="-192.3" y2="333.6"/>
		<line id="XMLID_772_" class="st4" x1="-206.2" y1="342" x2="-201.7" y2="330.9"/>
		<line id="XMLID_770_" class="st4" x1="-239.3" y1="307.2" x2="-228" y2="303.1"/>
		<line id="XMLID_769_" class="st4" x1="-242.1" y1="295.2" x2="-230.2" y2="293.5"/>
		<line id="XMLID_768_" class="st4" x1="-242.4" y1="282.8" x2="-230.4" y2="283.7"/>
		<line id="XMLID_767_" class="st4" x1="-240.1" y1="270.7" x2="-228.6" y2="274"/>
		<line id="XMLID_765_" class="st4" x1="-235.3" y1="259.3" x2="-224.7" y2="265"/>
		<line id="XMLID_764_" class="st4" x1="-228.3" y1="249.2" x2="-219.1" y2="256.9"/>
		<line id="XMLID_763_" class="st4" x1="-219.3" y1="240.7" x2="-211.9" y2="250.2"/>
		<line id="XMLID_762_" class="st4" x1="-172.4" y1="229.9" x2="-174.6" y2="241.7"/>
		<line id="XMLID_761_" class="st4" x1="-160.6" y1="233.6" x2="-165.3" y2="244.7"/>
		<line id="XMLID_759_" class="st4" x1="-149.9" y1="239.6" x2="-156.7" y2="249.5"/>
	</g>
</g>
<g id="XMLID_751_">
	<path id="XMLID_756_" class="st5" d="M-356.9,349.3c0,1.3-0.5,2.2-2.1,2.2h-16.6c-1.7,0-3.3-0.9-3.3-2.2v-14.6
		c0-1.3,1.6-3.2,3.3-3.2h16.6c1.7,0,2.1,1.9,2.1,3.2V349.3z"/>
	<path id="XMLID_755_" class="st6" d="M-387.9,350.2c0,0.7-1.2,1.3-2.7,1.3h-14.7c-1.5,0-2.6-0.5-2.6-1.3v-8.5
		c0-0.7,1.1-2.2,2.6-2.2h14.7c1.5,0,2.7,1.5,2.7,2.2V350.2z"/>
	<path id="XMLID_754_" class="st7" d="M-327.9,347.9c0,2-1.1,3.5-2.8,3.5h-16.6c-1.7,0-3.6-1.5-3.6-3.5v-23.2c0-2,2-3.2,3.6-3.2
		h16.6c1.7,0,2.8,1.2,2.8,3.2V347.9z"/>
	<path id="XMLID_753_" class="st8" d="M-298.9,346.9c0,2.6-1.7,4.6-3.4,4.6h-16.6c-1.7,0-2-2-2-4.6V317c0-2.6,0.3-3.5,2-3.5h16.6
		c1.7,0,3.4,0.9,3.4,3.5V346.9z"/>
	<path id="XMLID_752_" class="st9" d="M-270.9,345.9c0,3.1-1.4,5.5-3.1,5.5h-16.6c-1.7,0-3.4-2.4-3.4-5.5v-36c0-3.1,1.7-5.5,3.4-5.5
		h16.6c1.7,0,3.1,2.4,3.1,5.5V345.9z"/>
</g>
<g id="Capa_1_2_">
</g>
<g id="Capa_2_1_">
</g>
<g>
	<g>
		<path class="st10" d="M-158.5,287.8c0-0.7,0-1.5-0.2-2.2c-0.1-2.3-0.7-4.7-2.4-6.2l0,0c-0.2-0.2-0.3-0.4-0.5-0.6
			c0.1-0.2,0.1-0.4-0.1-0.5h-0.1l0,0l0,0c-0.2-0.1-0.4-0.3-0.6-0.4c-0.6-0.8-1.3-1.4-2.2-1.8c-0.1,0-0.1,0-0.2,0
			c-0.2-0.2-0.3-0.3-0.5-0.4c-3.8-3-10.2-4.7-14.2-1.2l-0.1,0.1c-0.1-0.1-0.3-0.1-0.5,0c-1.4,0.9-3,1.3-3.9,2.8v0.1
			c-1.1,0.7-1.8,1.9-2.4,3.1c-0.1,0.1-0.1,0.3,0,0.4c-2.3,3.1-2.7,6.9-1.5,10.7c1.3,4,3.7,8.4,7.9,9.9c0.5,0.2,0.9,0.3,1.4,0.4
			c0.7,0.3,1.4,0.4,2,0.4c1.3,0.5,2.6,0.9,3.9,0.7c0.1,0,0.2-0.1,0.2-0.2c0.3-0.1,0.5-0.1,0.8-0.3c0.9,0,1.8-0.1,2.7-0.5
			c0.2-0.1,0.3-0.2,0.3-0.3c0.7-0.2,1.4-0.4,2-0.8c0.1,0,0.2,0,0.2,0c0.4-0.1,0.7-0.2,1.1-0.4c0.1,0,0.1,0,0.2-0.1
			c1.1-0.6,1.8-1.4,2.4-2.3c0.1,0,0.2-0.1,0.3-0.2c0.7-1,1.6-2,2.2-3.1c0.1,0,0.1-0.1,0.1-0.2c0.2-0.4,0.4-0.9,0.5-1.4
			c0.4-1.1,0.6-2.3,0.7-3.4c0-0.2,0.1-0.4,0.1-0.7c0.1-0.1,0.2-0.2,0.2-0.4C-158.5,288.5-158.5,288.3-158.5,287.8z M-175.5,273.4
			c-0.2,0-0.4,0-0.6,0.1c0.3-0.1,0.7-0.2,1-0.2C-175.2,273.4-175.3,273.4-175.5,273.4z M-164.8,295.3c-0.4,1-7.8,3.9-7.8,4.1
			c-1.1-0.2-7.3-2.2-8.2-2.7c-0.5-0.4-3.1-5-3.4-5.5c0-0.2-0.4-5,0.3-6.4c0.6-1,2.7-4.8,3-5.1c0.8-0.9,4-3.2,7.3-3
			c5.6-0.5,10.8,4.3,11.3,9.1C-162.3,286.4-164.7,294.9-164.8,295.3z"/>
		<ellipse class="st11" cx="-173.3" cy="287.5" rx="15.5" ry="15.7"/>
		<circle class="st11" cx="-173.4" cy="287.3" r="11.7"/>
		<path class="st12" d="M-174.5,293.3c-3.7-0.1-5.1-4.2-5-7.4c0.1-1.7-2.6-1.7-2.7,0c-0.1,4.7,2.4,10,7.7,10.1
			C-172.7,296-172.7,293.3-174.5,293.3z"/>
		<path class="st12" d="M-180.2,280.9c-0.7,0-1.3,0.6-1.3,1.3v0.1c0,0.7,0.5,1.3,1.3,1.3c0.7,0,1.3-0.6,1.3-1.3v-0.1
			C-179,281.5-179.5,280.9-180.2,280.9z"/>
	</g>
	<path class="st13" d="M-208.4,276.9c2,0.6,4.5,0.5,6.5,0.3c2.8-0.2,2.2-4.4-0.5-3.8c-1,0.2-2,0.4-3,0.6c-1,0.1-2,0.2-3,0.4
		C-209.6,274.9-209.5,276.5-208.4,276.9z"/>
	<path class="st14" d="M-200.7,273.4h-7.4c-0.2-0.2-0.4-0.3-0.7-0.3c-0.5,0-0.8,0.4-0.8,0.9c0,0.4,0,0.8,0,1.2c0,0.7,0,1.4,0,2.1
		v0.3c0,0.3,0.1,0.5,0.3,0.7c0.2,0.1,0.4,0.2,0.6,0.2h0.1c1.3-0.2,2.7-0.3,4.1-0.3c0.3,0,0.7,0,1,0s0.7,0,1,0c0.8,0,1.3,0,1.9,0
		c0.5,0,0.8-0.4,0.8-0.9v-3.1C-199.9,273.8-200.3,273.4-200.7,273.4z M-201.6,276.5c-0.6,0-1.3,0-2,0c-1.4,0-2.8,0-4.3,0.1
		c0-0.5,0-1,0-1.5V275h6.3V276.5z"/>
	<path class="st12" d="M-156.7,302.1c-11.5,1-54.7,6.9-53.2-9.9c-0.4-6.4,0.1-14.2,0.3-20.6c0.1-2.1,0.2-4.2-1.8-4.2
		c-2.1,0-3.8,1.7-3.8,3.8c-0.3,7.8,0.1,15.5,0.6,23.3c-0.2,0.5-0.3,1-0.3,1.5c0,1.4,0.3,2.7,0.6,4c0.1,0.2,0.1,0.5,0.2,0.7
		c0,0.1,0.1,0.1,0.1,0.2c0,0,0.1,0.1,0.1,0.2l0,0c-0.6,1-1,2.1-0.7,3.3c0.5,1.8,1.9,2.6,3.7,2.8c5.1,0.7,10,1.1,15.1,0.5
		c12.5,0.4,25.1-0.1,37.5-1.2c2.1-0.2,3.8-1.6,3.8-3.8C-154.6,300.8-154.6,301.9-156.7,302.1z"/>
	<path class="st15" d="M-210.8,266.8v-2.7c0,0-0.1-1,0.3-1.2c0.6-0.4,10.5-0.4,11.2,0c0.5,0.3-0.2,2.2-0.2,2.2l19.1-0.3
		c0,0-0.6-2.8,0.2-3.3c0.8-0.4,16.9-0.4,17.7,0c0.5,0.3,0.6,1.5,0.6,1.5v1.9c0,0,3.5-0.5,4.3,0c0.9,0.5,0.9,2,0.9,2"/>
	<circle class="st11" cx="-173.1" cy="287.8" r="8"/>
	<path class="st15" d="M-153.8,305.3c0,1.1-0.3,2.9-1.5,2.9h-57.3c-1.2,0-2-1.8-2-2.9v-35.7c0-1.1,0.8-2.6,2-2.6h57.3
		c1.2,0,1.5,1.5,1.5,2.6V305.3z"/>
</g>
</svg>
