<?xml version="1.0" encoding="utf-8"?>
<!-- Generator: Adobe Illustrator 15.1.0, SVG Export Plug-In . SVG Version: 6.00 Build 0)  -->
<!DOCTYPE svg PUBLIC "-//W3C//DTD SVG 1.1//EN" "http://www.w3.org/Graphics/SVG/1.1/DTD/svg11.dtd">
<svg version="1.1" id="Layer_1" xmlns="http://www.w3.org/2000/svg" xmlns:xlink="http://www.w3.org/1999/xlink" x="0px" y="0px"
	 width="957.096px" height="522.695px" viewBox="0 0 957.096 522.695" enable-background="new 0 0 957.096 522.695"
	 xml:space="preserve">
<ellipse fill="#E0DFE6" cx="115.18" cy="489.591" rx="97.18" ry="24.104"/>
<path fill="none" stroke="#1F4D69" stroke-width="3.6151" stroke-linecap="round" stroke-linejoin="round" stroke-miterlimit="10" d="
	M356.52,442.154c-115.143,2.608-92.421-118.213-104.703-208.486c-13.357-98.102-5.988-86.436-18.884-111.15
	c-8.443-16.119-62.484,11.207-62.484,11.207c9.519-25.639,24.871-43.906,61.103-42.986c3.377-1.229,9.519-60.18,19.958-61.256
	c74.612-7.369,325.623-19.65,353.871-17.654C694.578,17.815,906.439-3.83,919.643,85.52
	c16.121,108.541,31.937,304.59-12.436,339.746C870.976,453.974,455.848,440.003,356.52,442.154z"/>
<g id="XMLID_697_">
	
		<path id="XMLID_774_" fill="none" stroke="#1F4D69" stroke-width="4" stroke-linecap="round" stroke-linejoin="round" stroke-miterlimit="10" d="
		M129.765,498.189c0,0,17.962-55.269,4.299-166.572"/>
	
		<path id="XMLID_773_" fill="none" stroke="#1F4D69" stroke-width="4" stroke-linecap="round" stroke-linejoin="round" stroke-miterlimit="10" d="
		M77.875,498.189c0,0,14.738-78.144,6.755-162.582"/>
	
		<path id="XMLID_772_" fill="none" stroke="#1F4D69" stroke-width="4.1742" stroke-linecap="round" stroke-linejoin="round" stroke-miterlimit="10" d="
		M131.455,204.96c3.685,4.91,42.065,53.426,55.268,54.191c7.983,0.459,16.273-31.934,25.332-48.975
		c1.535-2.766,8.444-4.605,16.427-5.373"/>
	<g id="XMLID_766_">
		<path id="XMLID_769_" fill="#FFFFFF" d="M126.848,198.511c8.751,13.971,21.493,19.189,32.547,57.264
			c4.452,15.047,5.834,28.864,2.303,51.584c-1.229,8.137-19.19,23.182-39.148,27.328c-10.44,2.303-23.029,1.688-40.684,0.151
			c-6.295-0.613-32.086-4.76-34.696-23.488c-1.996-14.276-7.676-29.169-2.303-51.583c4.452-19.037,9.826-28.094,31.626-62.637
			c21.647-34.393,19.958-33.775,19.958-33.775S117.791,184.234,126.848,198.511z"/>
		<path id="XMLID_768_" fill="#E0DFE6" d="M59.145,232.9c3.377-8.137,7.983-15.813,11.207-23.949
			c1.689-4.299,3.992-10.746,8.751-12.436c0.768-0.77,1.842-1.381,2.764-1.688c-1.229-0.461-2.457-1.074-3.531-1.688
			c-1.382-0.613-2.61-1.535-3.992-2.303c7.676,1.688,15.353,3.225,22.107,7.828c-0.921-0.152-1.842-0.152-2.61-0.307
			c1.842,1.994,3.07,4.605,3.224,7.828c0.307,8.598-3.685,16.428-7.83,23.797c-6.755,12.281-11.514,22.414-12.589,36.691
			c-0.921,12.129,0.921,25.179,4.146,36.847c2.456,9.059,11.207,14.432,13.356,23.643c2.149,9.521-5.527,10.135-12.896,8.6
			c-1.689,0.613-3.838,0.308-4.759-1.229c-2.149-0.611-3.992-1.381-5.22-1.996c-14.892-6.603-20.418-19.496-22.107-35.312
			C46.249,275.119,50.854,253.32,59.145,232.9z"/>
		
			<path id="XMLID_767_" fill="none" stroke="#1F4D69" stroke-width="4" stroke-linecap="round" stroke-linejoin="round" stroke-miterlimit="10" d="
			M128.538,198.511c8.751,13.971,21.493,19.189,32.547,57.264c4.452,15.047,5.834,28.864,2.303,51.584
			c-1.228,8.137-19.19,23.182-39.148,27.328c-10.439,2.303-23.028,1.688-40.684,0.151c-6.294-0.613-32.086-4.76-34.696-23.488
			c-1.996-14.276-7.676-29.169-2.303-51.583c4.452-19.037,9.825-28.094,31.626-62.637c21.646-34.393,19.958-33.775,19.958-33.775
			S119.632,184.08,128.538,198.511z"/>
	</g>
	<circle id="XMLID_765_" fill="#FFFFFF" cx="99.828" cy="146.468" r="47.746"/>
	<path id="XMLID_763_" fill="#E0DFE6" d="M60.679,171.798c-1.535-4.451-3.224-8.904-4.605-13.512
		c0.153,0.154,0.46,0.309,0.614,0.309c-0.307-1.229-0.614-2.457-0.768-3.838c-2.61-15.199,1.382-38.074,18.27-41.912
		c18.423-4.146,9.979,23.182,8.29,31.166c-1.842,8.598,0.614,17.809,5.374,25.021c1.996,0.922,2.917,2.457,3.224,3.992
		c6.755,7.369,16.273,11.516,26.406,9.061c4.452-1.076,6.141,4.604,3.531,7.367c3.531,1.688,3.531,7.828-1.074,8.289
		c-1.842,0.154-3.531,0.309-5.374,0.309c-3.685,1.844-7.983,1.688-12.128,0.922c-1.228-0.309-2.149-0.922-2.763-1.842
		c-0.768,0.461-1.689,0.611-2.61,0.461c-15.967-3.992-29.169-13.514-36.231-27.328C60.986,170.724,60.833,171.337,60.679,171.798z"
		/>
	
		<circle id="XMLID_762_" fill="none" stroke="#1F4D69" stroke-width="4" stroke-linecap="round" stroke-linejoin="round" stroke-miterlimit="10" cx="101.67" cy="146.468" r="47.746"/>
	
		<path id="XMLID_771_" fill="none" stroke="#1F4D69" stroke-width="4" stroke-linecap="round" stroke-linejoin="round" stroke-miterlimit="10" d="
		M88.928,214.171c-6.602,9.363-33.775,64.634,19.497,106.084"/>
</g>
<path fill="none" stroke="#1F4D69" stroke-width="1.554" stroke-linecap="round" stroke-linejoin="round" stroke-miterlimit="10" d="
	M75.571,148.462c0,0-13.51-60.488,37-60.488c10.132,0,11.975,16.582,11.975,16.582"/>
<ellipse fill="#1F4D69" cx="78.335" cy="154.757" rx="11.975" ry="12.896"/>
<path fill="none" stroke="#1F4D69" stroke-miterlimit="10" d="M82.48,161.666c0,0,5.527,16.43,25.945,12.131
	c15.353-3.227,25.946-10.287,25.946-10.287"/>
<ellipse transform="matrix(0.9457 -0.3251 0.3251 0.9457 -47.269 51.27)" fill="#1F4D69" cx="129.786" cy="167.083" rx="9.673" ry="3.838"/>
<ellipse fill="#1F4D69" cx="119.547" cy="140.77" rx="1.667" ry="4.333"/>
<ellipse fill="#1F4D69" cx="138.547" cy="134.104" rx="1.667" ry="4.333"/>
</svg>
