<?xml version="1.0" encoding="utf-8"?>
<!-- Generator: Adobe Illustrator 15.1.0, SVG Export Plug-In . SVG Version: 6.00 Build 0)  -->
<!DOCTYPE svg PUBLIC "-//W3C//DTD SVG 1.1//EN" "http://www.w3.org/Graphics/SVG/1.1/DTD/svg11.dtd">
<svg version="1.1" id="Layer_1" xmlns="http://www.w3.org/2000/svg" xmlns:xlink="http://www.w3.org/1999/xlink" x="0px" y="0px"
	 width="1024px" height="768px" viewBox="0 0 1024 768" enable-background="new 0 0 1024 768" xml:space="preserve">
<ellipse fill="#E0DFE6" cx="-82.867" cy="738.654" rx="97.18" ry="24.103"/>
<path fill="none" stroke="#1F4D69" stroke-width="3.6151" stroke-linecap="round" stroke-linejoin="round" stroke-miterlimit="10" d="
	M158.472,691.216C43.329,693.825,66.051,573.003,53.769,482.73c-13.357-98.101-5.988-86.434-18.884-111.15
	c-8.443-16.12-62.484,11.207-62.484,11.207c9.519-25.639,24.871-43.907,61.103-42.986c3.377-1.229,9.519-60.181,19.958-61.256
	c74.612-7.369,325.623-19.651,353.871-17.655c89.197,5.987,301.059-15.659,314.262,73.691
	c16.12,108.541,31.933,304.59-12.436,339.747C672.928,703.037,257.801,689.066,158.472,691.216z"/>
<g id="XMLID_697_">
	
		<path id="XMLID_774_" fill="none" stroke="#1F4D69" stroke-width="4" stroke-linecap="round" stroke-linejoin="round" stroke-miterlimit="10" d="
		M-68.282,747.251c0,0,17.962-55.268,4.299-166.572"/>
	
		<path id="XMLID_773_" fill="none" stroke="#1F4D69" stroke-width="4" stroke-linecap="round" stroke-linejoin="round" stroke-miterlimit="10" d="
		M-120.173,747.251c0,0,14.738-78.143,6.755-162.581"/>
	
		<path id="XMLID_772_" fill="none" stroke="#1F4D69" stroke-width="4.1742" stroke-linecap="round" stroke-linejoin="round" stroke-miterlimit="10" d="
		M-66.593,454.022c3.685,4.912,42.065,53.426,55.268,54.193c7.983,0.46,16.273-31.933,25.332-48.974
		c1.535-2.764,8.444-4.606,16.427-5.374"/>
	<g id="XMLID_766_">
		<path id="XMLID_769_" fill="#FFFFFF" d="M-71.199,447.574c8.751,13.971,21.493,19.19,32.547,57.264
			c4.452,15.046,5.834,28.862,2.303,51.584c-1.229,8.137-19.19,23.182-39.148,27.327c-10.44,2.303-23.029,1.688-40.684,0.153
			c-6.295-0.614-32.086-4.759-34.696-23.488c-1.996-14.278-7.676-29.17-2.303-51.584c4.452-19.037,9.826-28.095,31.626-62.638
			c21.647-34.39,19.958-33.775,19.958-33.775S-80.257,433.296-71.199,447.574z"/>
		<path id="XMLID_768_" fill="#E0DFE6" d="M-138.903,481.963c3.377-8.137,7.983-15.813,11.207-23.949
			c1.689-4.299,3.992-10.747,8.751-12.436c0.768-0.768,1.842-1.382,2.764-1.688c-1.229-0.461-2.457-1.075-3.531-1.689
			c-1.382-0.613-2.61-1.535-3.992-2.303c7.676,1.689,15.353,3.225,22.107,7.83c-0.921-0.153-1.842-0.153-2.61-0.307
			c1.842,1.995,3.07,4.605,3.224,7.829c0.307,8.598-3.685,16.427-7.83,23.796c-6.755,12.282-11.514,22.415-12.589,36.692
			c-0.921,12.128,0.921,25.178,4.146,36.846c2.456,9.058,11.207,14.431,13.356,23.643c2.149,9.519-5.527,10.133-12.896,8.597
			c-1.689,0.614-3.838,0.308-4.759-1.228c-2.149-0.614-3.992-1.382-5.22-1.996c-14.892-6.602-20.418-19.497-22.107-35.311
			C-151.799,524.182-147.193,502.382-138.903,481.963z"/>
		
			<path id="XMLID_767_" fill="none" stroke="#1F4D69" stroke-width="4" stroke-linecap="round" stroke-linejoin="round" stroke-miterlimit="10" d="
			M-69.51,447.574c8.751,13.971,21.493,19.19,32.547,57.264c4.452,15.046,5.834,28.862,2.303,51.584
			c-1.228,8.137-19.19,23.182-39.148,27.327c-10.439,2.303-23.028,1.688-40.684,0.153c-6.294-0.614-32.086-4.759-34.696-23.488
			c-1.996-14.278-7.676-29.17-2.303-51.584c4.452-19.037,9.825-28.095,31.626-62.638c21.646-34.39,19.958-33.775,19.958-33.775
			S-78.415,433.143-69.51,447.574z"/>
	</g>
	<circle id="XMLID_765_" fill="#FFFFFF" cx="-98.219" cy="395.53" r="47.746"/>
	<path id="XMLID_763_" fill="#E0DFE6" d="M-137.368,420.861c-1.535-4.452-3.224-8.904-4.605-13.511
		c0.153,0.154,0.46,0.308,0.614,0.308c-0.307-1.229-0.614-2.457-0.768-3.838c-2.61-15.199,1.382-38.074,18.27-41.912
		c18.423-4.146,9.979,23.182,8.29,31.165c-1.842,8.598,0.614,17.809,5.374,25.024c1.996,0.921,2.917,2.456,3.224,3.991
		c6.755,7.369,16.273,11.515,26.406,9.059c4.452-1.075,6.141,4.605,3.531,7.369c3.531,1.688,3.531,7.829-1.074,8.29
		c-1.842,0.153-3.531,0.307-5.374,0.307c-3.685,1.843-7.983,1.688-12.128,0.921c-1.228-0.307-2.149-0.921-2.763-1.842
		c-0.768,0.461-1.689,0.614-2.61,0.461c-15.967-3.992-29.169-13.511-36.231-27.327C-137.061,419.786-137.214,420.4-137.368,420.861z
		"/>
	
		<circle id="XMLID_762_" fill="none" stroke="#1F4D69" stroke-width="4" stroke-linecap="round" stroke-linejoin="round" stroke-miterlimit="10" cx="-96.377" cy="395.53" r="47.746"/>
	
		<path id="XMLID_771_" fill="none" stroke="#1F4D69" stroke-width="4" stroke-linecap="round" stroke-linejoin="round" stroke-miterlimit="10" d="
		M-109.119,463.233c-6.602,9.365-33.775,64.633,19.497,106.085"/>
</g>
<path fill="none" stroke="#1F4D69" stroke-width="1.554" stroke-linecap="round" stroke-linejoin="round" stroke-miterlimit="10" d="
	M-122.476,397.525c0,0-13.51-60.488,37-60.488c10.132,0,11.975,16.581,11.975,16.581"/>
<ellipse fill="#1F4D69" cx="-119.712" cy="403.82" rx="11.975" ry="12.896"/>
<path fill="none" stroke="#1F4D69" stroke-miterlimit="10" d="M-115.567,410.729c0,0,5.527,16.427,25.945,12.128
	c15.353-3.224,25.946-10.286,25.946-10.286"/>
<ellipse transform="matrix(-0.3251 -0.9457 0.9457 -0.3251 -484.0072 486.8588)" fill="#1F4D69" cx="-68.285" cy="416.131" rx="3.838" ry="9.673"/>
<ellipse fill="#1F4D69" cx="-78.5" cy="389.833" rx="1.667" ry="4.333"/>
<ellipse fill="#1F4D69" cx="-59.5" cy="383.167" rx="1.667" ry="4.333"/>
</svg>
