<?xml version="1.0" encoding="utf-8"?>
<!-- Generator: Adobe Illustrator 15.1.0, SVG Export Plug-In . SVG Version: 6.00 Build 0)  -->
<!DOCTYPE svg PUBLIC "-//W3C//DTD SVG 1.1//EN" "http://www.w3.org/Graphics/SVG/1.1/DTD/svg11.dtd">
<svg version="1.1" id="Layer_1" xmlns="http://www.w3.org/2000/svg" xmlns:xlink="http://www.w3.org/1999/xlink" x="0px" y="0px"
	 width="480.957px" height="532.879px" viewBox="0 0 480.957 532.879" enable-background="new 0 0 480.957 532.879"
	 xml:space="preserve">
<path fill="none" stroke="#1F4D69" stroke-width="4" stroke-linecap="round" stroke-linejoin="round" stroke-miterlimit="10" d="
	M90.407,16.891c-75-2.027-60.221,94.316-68.244,166.218C0,381.75,33.652,372.975,33.652,372.975
	c0.675,0.676-14.189-25.676,9.459-26.352c17.799,7.684,188.481,15.219,209.465,13.51c58.107-4.729,196.088,12.521,204.73-58.782
	c10.486-86.512,20.813-242.848-8.113-270.946C425.544,7.432,155.152,18.641,90.407,16.891z"/>
<g id="XMLID_697_">
	
		<path id="XMLID_774_" fill="none" stroke="#1F4D69" stroke-width="4" stroke-linecap="round" stroke-linejoin="round" stroke-miterlimit="10" d="
		M88.394,532.879c0,0,0-13.967,0.279-19.002"/>
	
		<path id="XMLID_773_" fill="none" stroke="#1F4D69" stroke-width="4" stroke-linecap="round" stroke-linejoin="round" stroke-miterlimit="10" d="
		M54.61,532.879c0,0,0-7.885,1.907-16.379"/>
	
		<path id="XMLID_772_" fill="none" stroke="#1F4D69" stroke-width="4" stroke-linecap="round" stroke-linejoin="round" stroke-miterlimit="10" d="
		M47.17,433.266c6.139-1.988-35.762,14.225-32.573,83.996"/>
	
		<path id="XMLID_771_" fill="none" stroke="#1F4D69" stroke-width="4" stroke-linecap="round" stroke-linejoin="round" stroke-miterlimit="10" d="
		M86.331,430.422c-4.134-0.934,32.484,28.904,48.648,18.24c8.447-5.572-16.892-35.441-16.892-56.08"/>
	<g id="XMLID_766_">
		<path id="XMLID_769_" fill="#FFFFFF" d="M83.958,427.159c5.7,9.104,14.002,12.52,21.248,37.332
			c2.854,9.773,3.819,18.75,1.537,33.607c-0.813,5.299-12.488,15.068-25.469,17.848c-6.849,1.465-15.042,1.133-26.51,0.059
			c-4.133-0.389-20.889-3.08-22.6-15.275c-1.301-9.281-4.952-18.971-1.536-33.609c2.892-12.391,6.418-18.271,20.632-40.811
			c14.137-22.418,12.978-21.977,12.978-21.977S78.118,417.834,83.958,427.159z"/>
		<path id="XMLID_768_" fill="#E0DFE6" d="M39.897,448.002c2.172-5.035,5.226-9.662,7.273-14.734
			c1.057-2.617,2.584-6.58,5.668-7.625c0.547-0.484,1.16-0.838,1.814-1.072c-0.776-0.314-1.55-0.654-2.321-1.033
			c-0.854-0.418-1.721-0.896-2.587-1.426c5.006,1.066,10.014,1.988,14.379,4.785c-0.578-0.055-1.155-0.119-1.733-0.203
			c1.17,1.225,1.969,2.852,2.053,4.766c0.236,5.291-2.426,10.078-5.071,14.563c-4.426,7.502-7.504,13.787-8.183,22.545
			c-0.579,7.469,0.568,15.457,2.671,22.627c1.642,5.6,7.32,8.842,8.664,14.471c1.385,5.807-3.64,6.209-8.446,5.318
			c-1.138,0.357-2.453,0.166-3.14-0.752c-1.396-0.404-2.618-0.848-3.446-1.191c-9.719-4.047-13.341-11.961-14.428-21.625
			C31.542,473.879,34.509,460.489,39.897,448.002z"/>
		
			<path id="XMLID_767_" fill="none" stroke="#1F4D69" stroke-width="4" stroke-linecap="round" stroke-linejoin="round" stroke-miterlimit="10" d="
			M85.109,427.106c5.701,9.102,14.002,12.52,21.248,37.332c2.854,9.773,3.819,18.75,1.537,33.607
			c-0.813,5.297-12.488,15.068-25.469,17.846c-6.849,1.467-15.042,1.135-26.51,0.061c-4.133-0.389-20.889-3.08-22.6-15.277
			c-1.301-9.281-4.952-18.971-1.537-33.605c2.893-12.393,6.418-18.273,20.632-40.813c14.137-22.416,12.978-21.977,12.978-21.977
			S79.268,417.782,85.109,427.106z"/>
	</g>
	<circle id="XMLID_765_" fill="#FFFFFF" cx="66.446" cy="393.283" r="31.091"/>
	<path id="XMLID_763_" fill="#E0DFE6" d="M64.055,424.004c-2.977-0.854-5.971-1.664-8.866-2.725c0.153-0.07,0.299-0.156,0.457-0.213
		c-0.776-0.314-1.55-0.654-2.321-1.035c-9.016-4.436-19.606-15.271-15.175-25.611c4.85-11.316,16.039,3.563,19.604,7.432
		c3.902,4.236,9.614,6.467,15.292,6.637c1.237-0.686,2.393-0.645,3.366-0.146c6.402-0.754,12.277-4.23,14.842-10.559
		c1.111-2.74,4.751-1.457,5.25,0.924c2.251-1.227,5.485,1.17,3.97,3.662c-0.602,0.986-1.243,1.984-1.927,2.963
		c-0.391,2.621-2.134,4.879-4.132,6.729c-0.617,0.57-1.318,0.801-2.001,0.805c-0.041,0.568-0.275,1.117-0.774,1.537
		c-8.192,6.879-18.204,10.252-28.254,8.787C63.626,423.442,63.847,423.717,64.055,424.004z"/>
	
		<circle id="XMLID_762_" fill="none" stroke="#1F4D69" stroke-width="4" stroke-linecap="round" stroke-linejoin="round" stroke-miterlimit="10" cx="67.596" cy="393.229" r="31.092"/>
</g>
<ellipse fill="#1F4D69" cx="58.978" cy="391.565" rx="2.25" ry="3.625"/>
<ellipse fill="#1F4D69" cx="76.478" cy="391.565" rx="2.25" ry="3.625"/>
<path fill="#1F4D69" d="M70.603,409.19c-0.875,1.5-0.632,2.75-1.875,2.75s-2.25-1.679-2.25-3.75c0-0.429,0.043-0.841,0.123-1.225
	c0.305-1.47,1.017-1.525,2.002-1.525c1.038,0,2.037,0.172,2.296,1.766C70.951,407.519,70.775,408.896,70.603,409.19z"/>
</svg>
