<?xml version="1.0" encoding="utf-8"?>
<!-- Generator: Adobe Illustrator 19.0.0, SVG Export Plug-In . SVG Version: 6.00 Build 0)  -->
<svg version="1.1" id="Capa_1" xmlns="http://www.w3.org/2000/svg" xmlns:xlink="http://www.w3.org/1999/xlink" x="0px" y="0px"
	 viewBox="0 0 109.8 118.6" style="enable-background:new 0 0 109.8 118.6;" xml:space="preserve">
<style type="text/css">
	.st0{fill:#FFFFFF;}
	.st1{fill:#E0DFE6;}
	.st2{fill:none;stroke:#1F4D69;stroke-width:3.7888;stroke-miterlimit:10;}
	.st3{fill:none;stroke:#1F4D69;stroke-width:3;stroke-miterlimit:10;}
</style>
<g>
	<g>
		<path class="st0" d="M45.3,53.7c-2.9,5.1-7.4,7.2-10.7,21c-1.3,5.4-1.6,10.4,0,18.4c0.6,2.9,7.2,7.9,14.4,9.1
			c3.8,0.6,8.3,0.2,14.5-0.6c2.3-0.3,11.4-2.2,12-8.9c0.5-5.1,2.2-10.5,0-18.4c-1.9-6.7-4-9.8-12.3-21.8
			c-8.3-11.9-7.7-11.7-7.7-11.7S48.3,48.5,45.3,53.7z"/>
		<path class="st1" d="M70,64c-1.3-2.7-3.1-5.2-4.4-7.9c-0.6-1.4-1.6-3.5-3.3-4c-0.3-0.3-0.7-0.4-1-0.5c0.4-0.2,0.8-0.4,1.2-0.6
			c0.5-0.3,0.9-0.5,1.4-0.8c-2.7,0.7-5.4,1.3-7.8,3c0.3,0,0.6-0.1,0.9-0.2c-0.6,0.7-1,1.6-1,2.7c0,2.9,1.6,5.5,3.1,7.9
			c2.6,4,4.5,7.4,5,12.1c0.5,4.1,0.1,8.5-0.9,12.5c-0.8,3.1-3.8,5-4.4,8.1c-0.6,3.2,2.1,3.3,4.8,2.7c0.6,0.2,1.3,0,1.7-0.5
			c0.8-0.3,1.4-0.5,1.9-0.7c5.2-2.5,7-6.9,7.4-12.2C75.2,78,73.2,70.8,70,64z"/>
		<path class="st2" d="M44.7,53.7c-2.9,5.1-7.4,7.2-10.7,21c-1.3,5.4-1.6,10.4,0,18.4c0.6,2.9,7.2,7.9,14.4,9.1
			c3.8,0.6,8.3,0.2,14.5-0.6c2.3-0.3,11.4-2.2,12-8.9c0.5-5.1,2.2-10.5,0-18.4c-1.9-6.7-4-9.8-12.3-21.8
			c-8.3-11.9-7.7-11.7-7.7-11.7S47.7,48.5,44.7,53.7z"/>
	</g>
	<circle class="st0" cx="54.1" cy="34.7" r="17"/>
	<path class="st1" d="M56.1,51.5c1.6-0.5,3.2-1.1,4.8-1.7c-0.1,0-0.2-0.1-0.3-0.1c0.4-0.2,0.8-0.4,1.2-0.6
		c4.8-2.7,10.4-8.9,7.7-14.4c-2.9-6.1-8.7,2.4-10.6,4.6c-2,2.4-5.1,3.8-8.2,4c-0.7-0.3-1.3-0.3-1.8,0c-3.5-0.3-6.8-2-8.4-5.4
		c-0.7-1.5-2.6-0.7-2.9,0.6c-1.3-0.6-3,0.8-2.1,2.1c0.4,0.5,0.7,1.1,1.1,1.6c0.3,1.4,1.3,2.6,2.4,3.6c0.4,0.3,0.7,0.4,1.1,0.4
		c0,0.3,0.2,0.6,0.5,0.8c4.7,3.6,10.2,5.2,15.7,4.1C56.4,51.2,56.3,51.3,56.1,51.5z"/>
	<circle class="st2" cx="53.4" cy="34.7" r="17"/>
</g>
<path class="st3" d="M102.4,102.8c0,5.5-4.5,10-10,10h-76c-5.5,0-10-4.5-10-10v-86c0-5.5,4.5-10,10-10h76c5.5,0,10,4.5,10,10V102.8z
	"/>
</svg>
