<?xml version="1.0" encoding="utf-8"?>
<!-- Generator: Adobe Illustrator 19.0.0, SVG Export Plug-In . SVG Version: 6.00 Build 0)  -->
<svg version="1.1" id="Capa_1" xmlns="http://www.w3.org/2000/svg" xmlns:xlink="http://www.w3.org/1999/xlink" x="0px" y="0px"
	 viewBox="0 0 86.3 123" style="enable-background:new 0 0 86.3 123;" xml:space="preserve">
<style type="text/css">
	.st0{fill:#FA8510;}
	.st1{fill:#FFFFFF;stroke:#1F4D69;stroke-width:4.3506;stroke-miterlimit:10;}
</style>
<g id="XMLID_161_">
	<path id="XMLID_926_" class="st0" d="M59.3,40.8c0-3.1-1.5-5.7-2.8-8.4c-1.7-3.3-5.2-5-8.8-5c-2.3-1.3-4.9-1.4-7.7-1
		c-0.9,0.2-1.8,0.5-2.7,1c-3.4,0.1-6.6,1.8-8.4,4.9c-1.7,3-1.7,6.8-0.2,9.8c-0.1,0.1-0.1,0.2-0.2,0.4c-1,2.6-0.6,6.3,0.9,8.6
		c0.4,0.6,0.9,1.2,1.4,1.7c0.9,1.2,2,2.2,3.3,2.8c2.8,1.2,5.5,1.7,8.6,1.8c2.7,0,5.1-0.4,7.6-1.4c0.1,0,0.2-0.1,0.3-0.1
		c0.2-0.1,0.5-0.2,0.7-0.3c0.7-0.3,1.4-0.8,2.1-1.4c0,0,0,0,0.1-0.1c0.1-0.1,0.3-0.2,0.4-0.4c1.2-1.2,2.3-2.7,2.7-4.4
		c0.1-0.5,0.2-1,0.3-1.4C58.4,46,59.3,43.5,59.3,40.8z"/>
	<g id="XMLID_19_">
		<g id="XMLID_20_">
			<path id="XMLID_21_" class="st1" d="M43.2,4.4C21.4,4.4,3.8,22,3.8,43.8s39.3,74.8,39.3,74.8s39.3-53.1,39.3-74.8
				S64.9,4.4,43.2,4.4z M43.2,57.1c-8.3,0-15-6.7-15-15c0-8.3,6.7-15,15-15c8.3,0,15,6.7,15,15C58.2,50.4,51.5,57.1,43.2,57.1z"/>
		</g>
	</g>
</g>
</svg>
