<?xml version="1.0" encoding="utf-8"?>
<!-- Generator: Adobe Illustrator 19.0.0, SVG Export Plug-In . SVG Version: 6.00 Build 0)  -->
<svg version="1.1" id="Capa_1" xmlns="http://www.w3.org/2000/svg" xmlns:xlink="http://www.w3.org/1999/xlink" x="0px" y="0px"
	 viewBox="0 0 242.6 189.8" style="enable-background:new 0 0 242.6 189.8;" xml:space="preserve">
<style type="text/css">
	.st0{fill-rule:evenodd;clip-rule:evenodd;fill:#FFFFFF;}
	.st1{fill:#D2D9DB;}
	.st2{fill:none;stroke:#1F4D69;stroke-width:4.3506;stroke-miterlimit:10;}
	.st3{fill:#FFFFFF;stroke:#1F4D69;stroke-width:3.0428;stroke-miterlimit:10;}
	.st4{fill:none;stroke:#000000;stroke-width:5.3249;stroke-miterlimit:10;}
</style>
<g id="XMLID_254_">
	<path id="XMLID_922_" class="st0" d="M197.1,89.5c-17-8.3-30.6-22.3-47.9-30c-0.7-0.3-1.6-0.6-2.4-0.7c-1.3-1.6-3.3-2.6-5.8-2.3
		c-1.2,0.1-2.4,0.3-3.6,0.4c-1.3,0-2.5-0.3-3.7-0.9c-2.2-9.2-11.2-16.8-17.5-23c-2.5-2.4-6.3-3-9.3-1.4c-0.4-0.2-0.8-0.5-1.2-0.7
		c-2.2-3.5-7.2-5.6-10.9-2.9c-0.3,0.2-0.7,0.5-1,0.7c-1.6,0.9-3.3,1.8-4.9,2.8c-0.4,0.1-0.9,0.2-1.3,0.3c-8.6,2.6-17.4,5.2-25.9,8.3
		c-3.9,1.4-8,3.5-12.1,5.1c-0.6,0-1.3,0.1-1.9,0.3c-2.6,0.8-5.3,1.5-8,1.9c-8.9,1.5-6.8,16.3,2.1,15.7c1.1,0.6,2.4,0.9,3.7,0.9
		c1.2,1.2,2.6,2.1,4.1,2.9c0.3,1.3,0.9,2.5,1.8,3.5c3.3,3.6,7.6,6.4,11.6,9.1C67,82,71.3,84.6,75.7,87c0.2,0.2,0.4,0.4,0.6,0.6
		c6.1,5.7,12.5,10.6,19.6,14.9c1.5,0.9,3,1.7,4.5,2.5c0.2,0.2,0.5,0.4,0.8,0.5c0.3,0.2,0.6,0.4,0.9,0.6c6.6,5.5,13.2,10.9,19.5,16.8
		c1.4,1.3,2.9,2,4.4,2.3c0.9,1.1,1.7,2.3,2.7,3.3c3.2,3.4,8.2,5.1,12.8,4.6c6.5-0.7,13.1-4.6,16.5-10.2
		c12.5-6.1,23.7-14.7,37.1-18.9C201.4,102.2,203.6,92.7,197.1,89.5z M174.7,94.7c0.2,0.2,0.5,0.3,0.7,0.5c-0.2,0.1-0.5,0.2-0.7,0.4
		C174.7,95.3,174.7,95,174.7,94.7z"/>
	<g id="XMLID_917_">
		<path id="XMLID_919_" class="st1" d="M237.8,104.5c-0.9-4.9-6.7-7.6-11.2-6.4c-4.9,1.3-7.1,5.9-6.5,10.6c0,0,0,0,0,0.1
			c0-0.1,0-0.2,0-0.2c0,0.1,0,0.2,0,0.3c-0.1,0.3-0.2,0.7-0.3,1c0,0,0,0,0,0c-0.6,1.1-1.2,2.2-2,3.2c0,0,0,0,0,0.1
			c-0.1,0.1-0.1,0.1-0.2,0.3c-0.6,0.8-1.3,1.5-2,2.2c-2.2,2.4-4.7,4.5-7.2,6.6c-2.2,1.8-4.7,3.7-8.1,6.1
			c-10.6,7.4-22,13.3-32.8,20.4c-7.3,4.8-13.9,10.6-22,8.7c-9.2-2.1-17.2-9.2-24.3-15.1c-8.5-7-17.3-13.6-25.7-20.9
			c-8.8-7.6-17.2-15.6-25.9-23.2c-9.2-8.1-19-15-29.1-21.9c-8.4-5.8-16-12.3-21.2-21.6c-5.7-10.3-21.5-1.1-15.8,9.2
			C13.5,81.9,31.2,91,47.1,103c8.9,6.6,16.9,14.6,25.1,22c8.8,8,17.8,15.8,27.2,23.1c16.4,12.5,33.5,31.2,56.2,27.1
			c9.1-1.6,16.7-8.3,24.3-13c4.8-3,9.8-5.8,14.6-8.7c10.4-6.3,20.8-13.1,29.9-21.3C232.5,125.2,239.9,115.8,237.8,104.5z"/>
		<path id="XMLID_918_" class="st1" d="M220,108.5C219.9,107.8,219.8,107.2,220,108.5L220,108.5z"/>
	</g>
	<path id="XMLID_915_" class="st2" d="M6.3,62.3c-3-3-1-19.7,2-22.7L87.6,12c3-3,7.8-3,10.8,0l138,87.8c3,3,3,21.4,0,24.3
		l-81.6,54.3c-3,3-7.8,3-10.8,0L6.3,62.3z"/>
	<path id="XMLID_158_" class="st2" d="M154,166.3c-3,3-7.8,3-10.8,0L6.1,48.8c0,0-1.5,12.2,1.5,15.2l135.7,113.7c3,3,7.8,3,10.8,0
		l81.6-53.4c3-3,2.7-14.3,2.7-14.3"/>
	<path id="XMLID_145_" class="st2" d="M35.6,57.1c-2.2-2.2-2.2-5.7,0-7.8l57.7-20.1c2.2-2.2,5.7-2.2,7.8,0l100.4,63.9
		c2.2,2.2,2.2,5.7,0,7.8l-60.2,32c-2.2,2.2-5.7,2.2-7.8,0L35.6,57.1z"/>
	<path id="XMLID_144_" class="st3" d="M200.4,117.1c1,1.7,0.5,3.8-1.2,4.8l-15.3,9.3c-1.7,1-3.8,0.5-4.8-1.2l-0.2-0.3
		c-1-1.7-0.5-3.8,1.2-4.8l15.3-9.3c1.7-1,3.8-0.5,4.8,1.2L200.4,117.1z"/>
	<path id="XMLID_17_" class="st4" d="M209.7,115.3"/>
</g>
</svg>
