<?xml version="1.0" encoding="utf-8"?>
<!-- Generator: Adobe Illustrator 19.0.0, SVG Export Plug-In . SVG Version: 6.00 Build 0)  -->
<svg version="1.1" id="Capa_1" xmlns="http://www.w3.org/2000/svg" xmlns:xlink="http://www.w3.org/1999/xlink" x="0px" y="0px"
	 viewBox="-188 150.2 235 493.8" style="enable-background:new -188 150.2 235 493.8;" xml:space="preserve">
<style type="text/css">
	.st0{fill:none;stroke:#1F4D69;stroke-width:12.8484;stroke-linecap:round;stroke-miterlimit:10;}
	.st1{fill:none;stroke:#1F4D69;stroke-width:6;stroke-linecap:round;stroke-miterlimit:10;}
	.st2{fill:#FFFFFF;}
	.st3{fill:#E0DFE6;}
	.st4{fill:none;stroke:#1F4D69;stroke-width:6;stroke-miterlimit:10;}
	.st5{fill:#FFFFFF;stroke:#1F4D69;stroke-width:4;stroke-linecap:round;stroke-linejoin:round;stroke-miterlimit:10;}
</style>
<g id="XMLID_194_">
	<path id="XMLID_704_" class="st0" d="M-20,631.1c0,0-18.4-82.5-14.8-182.6"/>
	<path id="XMLID_703_" class="st0" d="M-79.8,636c0,0-13-91-14.8-182.6"/>
	<path id="XMLID_702_" class="st1" d="M-111.9,298.6c11.4-3.7-66.5,26.4-60.6,156.2"/>
	<path id="XMLID_695_" class="st1" d="M-42.8,295.4c-11.7-2.6,68.4,14.6,74.6,150"/>
	<g id="XMLID_215_">
		<path id="XMLID_586_" class="st2" d="M-43.5,287.2c10.6,16.9,26,23.3,39.5,69.4c5.3,18.2,7.1,34.9,2.9,62.5
			c-1.5,9.9-23.2,28-47.4,33.2c-12.7,2.7-28,2.1-49.3,0.1c-7.7-0.7-38.8-5.7-42-28.4c-2.4-17.3-9.2-35.3-2.9-62.5
			c5.4-23,11.9-34,38.4-75.9c26.3-41.7,24.1-40.9,24.1-40.9S-54.4,269.9-43.5,287.2z"/>
		<path id="XMLID_217_" class="st3" d="M-125.5,326c4-9.4,9.7-18,13.5-27.4c2-4.9,4.8-12.2,10.5-14.2c1-0.9,2.2-1.6,3.4-2
			c-1.4-0.6-2.9-1.2-4.3-1.9c-1.6-0.8-3.2-1.7-4.8-2.7c9.3,2,18.6,3.7,26.7,8.9c-1.1-0.1-2.1-0.2-3.2-0.4c2.2,2.3,3.7,5.3,3.8,8.9
			c0.4,9.8-4.5,18.7-9.4,27.1c-8.2,13.9-14,25.6-15.2,41.9c-1.1,13.9,1.1,28.7,5,42.1c3.1,10.4,13.6,16.4,16.1,26.9
			c2.6,10.8-6.8,11.5-15.7,9.9c-2.1,0.7-4.6,0.3-5.8-1.4c-2.6-0.8-4.9-1.6-6.4-2.2c-18.1-7.5-24.8-22.2-26.8-40.2
			C-141,374.1-135.5,349.2-125.5,326z"/>
		<path id="XMLID_216_" class="st4" d="M-41.4,287.1c10.6,16.9,26,23.3,39.5,69.4C3.4,374.7,5.2,391.4,1,419
			c-1.5,9.9-23.2,28-47.4,33.2c-12.7,2.7-28,2.1-49.3,0.1c-7.7-0.7-38.8-5.7-42-28.4c-2.4-17.3-9.2-35.3-2.9-62.5
			c5.4-23,11.9-34,38.4-75.9c26.3-41.7,24.1-40.9,24.1-40.9S-52.2,269.8-41.4,287.1z"/>
	</g>
	<circle id="XMLID_214_" class="st2" cx="-76.1" cy="224.2" r="57.8"/>
	<path id="XMLID_196_" class="st3" d="M-80.5,281.3c-5.5-1.6-11.1-3.1-16.5-5.1c0.3-0.1,0.6-0.3,0.9-0.4c-1.4-0.6-2.9-1.2-4.3-1.9
		c-16.8-8.2-36.5-28.4-28.2-47.6c9-21,29.8,6.6,36.5,13.8c7.3,7.9,17.9,12,28.4,12.3c2.3-1.3,4.5-1.2,6.3-0.3
		c11.9-1.4,22.8-7.9,27.6-19.6c2.1-5.1,8.8-2.7,9.8,1.7c4.2-2.3,10.2,2.2,7.4,6.8c-1.1,1.8-2.3,3.7-3.6,5.5c-0.7,4.9-4,9.1-7.7,12.5
		c-1.1,1.1-2.5,1.5-3.7,1.5c-0.1,1.1-0.5,2.1-1.4,2.9c-15.2,12.8-33.9,19.1-52.5,16.3C-81.3,280.3-80.9,280.8-80.5,281.3z"/>
	<circle id="XMLID_195_" class="st4" cx="-73.9" cy="224.1" r="57.8"/>
</g>
<path id="XMLID_15_" class="st4" d="M-16.2,223.6c0,0,20.1,9.2,14.5,26c-18.3,55.2,12.9,54.9,12.9,54.9"/>
<path class="st5" d="M-160.5,177.1c0,0-27.7,49.3,0,49.3s3.3-43.3,3.3-43.3"/>
<path class="st3" d="M-168.4,194.1l2,7.7L-168.4,194.1z"/>
</svg>
