<?xml version="1.0" encoding="utf-8"?>
<!-- Generator: Adobe Illustrator 15.1.0, SVG Export Plug-In . SVG Version: 6.00 Build 0)  -->
<!DOCTYPE svg PUBLIC "-//W3C//DTD SVG 1.1//EN" "http://www.w3.org/Graphics/SVG/1.1/DTD/svg11.dtd">
<svg version="1.1" id="Capa_1" xmlns="http://www.w3.org/2000/svg" xmlns:xlink="http://www.w3.org/1999/xlink" x="0px" y="0px"
	 width="241px" height="612px" viewBox="0 0 241 612" enable-background="new 0 0 241 612" xml:space="preserve">
<g id="XMLID_21_">
	<path id="XMLID_12_" fill="none" stroke="#1F4D69" stroke-width="6.5041" stroke-linecap="round" stroke-miterlimit="10" d="
		M188.313,596.646c0,0-21.396-95.943-17.233-212.409"/>
	<path id="XMLID_11_" fill="none" stroke="#1F4D69" stroke-width="6.5041" stroke-linecap="round" stroke-miterlimit="10" d="
		M118.703,602.358c0,0-15.103-105.817-17.233-212.409"/>
	<path id="XMLID_10_" fill="none" stroke="#1F4D69" stroke-width="6.5041" stroke-linecap="round" stroke-miterlimit="10" d="
		M81.333,209.972c13.263-4.26-74.172-26.449-68.098-199.422"/>
	<path id="XMLID_9_" fill="none" stroke="#1F4D69" stroke-width="6.5041" stroke-linecap="round" stroke-miterlimit="10" d="
		M161.785,206.196c-13.651-3.001,81.576-1.409,65.377-195.646"/>
	<g id="XMLID_5_">
		<path id="XMLID_8_" fill="#FFFFFF" d="M160.914,196.709c12.295,19.653,30.206,27.108,45.986,80.743
			c6.197,21.202,8.229,40.564,3.39,72.707c-1.743,11.521-27.011,32.528-55.087,38.629c-14.813,3.098-32.529,2.42-57.314,0.097
			c-9.004-0.774-45.115-6.583-48.891-33.013c-2.807-20.137-10.746-41.049-3.389-72.707c6.293-26.721,13.844-39.5,44.631-88.294
			c30.593-48.504,28.076-47.536,28.076-47.536S148.232,176.572,160.914,196.709z"/>
		<path id="XMLID_7_" fill="#E0DFE6" d="M65.552,241.824c4.647-10.94,11.327-20.912,15.684-31.852
			c2.324-5.712,5.615-14.232,12.198-16.555c1.162-1.065,2.517-1.84,3.969-2.324c-1.646-0.678,3.001-6.293,1.356-7.164
			c-1.84-0.968-6.378-2.257-8.314-3.419c10.843,2.324,17.898,9.518,27.386,15.617c-1.258-0.097-2.42-0.193-3.679-0.484
			c2.517,2.711,4.26,6.196,4.453,10.359c0.484,11.424-5.228,21.783-10.94,31.561C98.08,253.731,91.4,267.382,89.948,286.26
			c-1.258,16.168,1.258,33.401,5.809,48.987c3.582,12.102,15.781,19.072,18.685,31.271c3.001,12.586-7.938,13.361-18.298,11.521
			c-2.42,0.775-5.325,0.387-6.777-1.646c-3.001-0.968-5.712-1.84-7.455-2.517c-21.008-8.713-28.851-25.849-31.174-46.761
			C47.545,297.782,53.935,268.835,65.552,241.824z"/>
		<path id="XMLID_6_" fill="none" stroke="#1F4D69" stroke-width="6.5041" stroke-linecap="round" stroke-miterlimit="10" d="
			M163.334,196.515c12.295,19.653,30.206,27.108,45.986,80.743c6.197,21.202,8.229,40.565,3.39,72.707
			c-1.743,11.521-27.011,32.529-55.087,38.629c-14.813,3.099-32.529,2.42-57.314,0.098c-9.004-0.775-45.115-6.583-48.891-33.014
			c-2.807-20.137-10.746-41.049-3.389-72.707c6.293-26.721,13.844-39.5,44.631-88.294c30.593-48.504,28.076-47.536,28.076-47.536
			S150.846,176.475,163.334,196.515z"/>
	</g>
	<circle id="XMLID_3_" fill="#FFFFFF" cx="123.061" cy="123.421" r="67.189"/>
	<path id="XMLID_2_" fill="#E0DFE6" d="M117.928,189.835c-6.389-1.84-12.876-3.582-19.169-5.906
		c0.387-0.097,0.678-0.387,1.065-0.484c-1.646-0.678-3.389-1.356-5.034-2.227c-19.556-9.585-42.501-33.013-32.82-55.377
		c10.456-24.397,34.66,7.648,42.501,16.071c8.52,9.197,20.815,13.941,33.013,14.328c2.711-1.549,5.228-1.356,7.357-0.387
		c13.844-1.646,26.527-9.197,32.143-22.751c2.42-5.906,10.262-3.098,11.424,1.936c4.841-2.711-9.739,60.65-71.545,52.957
		C116.961,188.673,117.444,189.254,117.928,189.835z"/>
	
		<circle id="XMLID_1_" fill="none" stroke="#1F4D69" stroke-width="6.5041" stroke-linecap="round" stroke-miterlimit="10" cx="125.577" cy="123.227" r="67.189"/>
</g>
<path fill="none" stroke="#1F4D69" stroke-width="6.5041" stroke-linecap="round" stroke-miterlimit="10" d="M170.809,71.459
	c0,0-16.199-22.273-61.759,0c-45.559,22.273-49.609-9.9-49.609-9.9"/>
<path fill="none" stroke="#1F4D69" stroke-width="6.0801" stroke-linecap="round" stroke-miterlimit="10" d="M96.461,117.928
	c0,0,9.922-12.906,21.468-0.309"/>
<path fill="none" stroke="#1F4D69" stroke-width="6.0801" stroke-linecap="round" stroke-miterlimit="10" d="M118.181,149.43
	c0,0,8.792,12.1,21.087,0.479"/>
<path fill="none" stroke="#1F4D69" stroke-width="6.0801" stroke-linecap="round" stroke-miterlimit="10" d="M140.483,120.203
	c0,0,9.596-13.149,21.454-0.846"/>
</svg>
