<?xml version="1.0" encoding="utf-8"?>
<!-- Generator: Adobe Illustrator 17.0.0, SVG Export Plug-In . SVG Version: 6.00 Build 0)  -->
<!DOCTYPE svg PUBLIC "-//W3C//DTD SVG 1.1//EN" "http://www.w3.org/Graphics/SVG/1.1/DTD/svg11.dtd">
<svg version="1.1" id="Capa_1" xmlns="http://www.w3.org/2000/svg" xmlns:xlink="http://www.w3.org/1999/xlink" x="0px" y="0px"
	 width="618px" height="612px" viewBox="0 0 618 612" enable-background="new 0 0 618 612" xml:space="preserve">
<g id="XMLID_20_">
	<g>
		<g>
			<g>
				<g>
					<defs>
						<circle id="SVGID_1_" cx="311.294" cy="307.749" r="296.246"/>
					</defs>
					<clipPath id="SVGID_2_">
						<use xlink:href="#SVGID_1_"  overflow="visible"/>
					</clipPath>
					<g id="XMLID_21_" clip-path="url(#SVGID_2_)">
						<path id="XMLID_33_" fill="none" stroke="#1F4D69" stroke-width="12.8484" stroke-linecap="round" stroke-miterlimit="10" d="
							M430.252,1130.507c0,0-42.266-189.529-34.043-419.602"/>
						<path id="XMLID_32_" fill="none" stroke="#1F4D69" stroke-width="12.8484" stroke-linecap="round" stroke-miterlimit="10" d="
							M292.743,1141.79c0,0-29.835-209.036-34.043-419.602"/>
						<path id="XMLID_31_" fill="none" stroke="#1F4D69" stroke-width="6" stroke-linecap="round" stroke-miterlimit="10" d="
							M220.922,366.654c26.201-8.415-154.81,60.626-141.231,358.976"/>
						<path id="XMLID_30_" fill="none" stroke="#1F4D69" stroke-width="6" stroke-linecap="round" stroke-miterlimit="10" d="
							M377.85,359.195c-26.966-5.929,157.207,33.469,171.36,344.633"/>
						<g id="XMLID_26_">
							<path id="XMLID_29_" fill="#FFFFFF" d="M376.128,340.453c24.289,38.824,59.67,53.55,90.844,159.503
								c12.24,41.884,16.256,80.134,6.694,143.629c-3.443,22.759-53.359,64.26-108.821,76.309
								c-29.261,6.12-64.26,4.781-113.22,0.191c-17.786-1.53-89.122-13.005-96.581-65.216c-5.546-39.78-21.229-81.09-6.694-143.629
								c12.431-52.785,30.351-78.03,91.168-174.42c60.435-95.816,52.461-93.904,52.461-93.904S351.076,300.673,376.128,340.453z"/>
							<path id="XMLID_28_" fill="#E0DFE6" d="M192.749,418.483c9.18-21.611,22.376-41.31,30.982-62.921
								c4.59-11.284,11.093-28.114,24.097-32.704c2.295-2.104,4.972-3.634,7.841-4.59c-3.251-1.339-6.694-2.678-9.945-4.399
								c-3.634-1.912-7.268-3.825-11.093-6.12c21.42,4.59,42.649,8.415,61.391,20.464c-2.486-0.191-4.781-0.382-7.268-0.956
								c4.972,5.355,8.415,12.24,8.797,20.464c0.956,22.568-10.328,43.031-21.611,62.347c-18.934,31.939-32.13,58.905-34.999,96.199
								c-2.486,31.939,2.486,65.981,11.475,96.772c7.076,23.906,31.174,37.676,36.911,61.774
								c5.929,24.863-15.682,26.393-36.146,22.759c-4.781,1.53-10.519,0.765-13.388-3.251c-5.929-1.913-11.284-3.634-14.726-4.972
								c-41.501-17.213-56.993-51.064-61.582-92.374C157.176,529.025,169.799,471.841,192.749,418.483z"/>
							<path id="XMLID_27_" fill="none" stroke="#1F4D69" stroke-width="6" stroke-miterlimit="10" d="M380.91,340.07
								c24.289,38.824,59.67,53.55,90.844,159.503c12.24,41.884,16.256,80.134,6.694,143.629
								c-3.443,22.759-53.359,64.26-108.821,76.309c-29.261,6.12-64.26,4.781-113.22,0.191
								c-17.786-1.53-89.122-13.005-96.581-65.216c-5.546-39.78-21.229-81.09-6.694-143.629
								c12.431-52.785,27.349-78.03,88.166-174.42c60.435-95.816,55.462-93.904,55.462-93.904S356.238,300.482,380.91,340.07z"/>
						</g>
						<circle id="XMLID_25_" fill="#FFFFFF" cx="301.35" cy="195.677" r="132.728"/>
						<path id="XMLID_24_" fill="#E0DFE6" d="M291.214,326.874c-12.622-3.634-25.436-7.076-37.868-11.666
							c0.765-0.191,1.339-0.765,2.104-0.956c-3.251-1.339-6.694-2.678-9.945-4.399c-38.632-18.934-83.959-65.216-64.834-109.395
							c20.655-48.195,68.468,15.109,83.959,31.747c16.83,18.169,41.119,27.54,65.216,28.305c5.355-3.06,10.328-2.678,14.535-0.765
							c27.349-3.251,52.403-18.169,63.495-44.944c4.781-11.666,20.272-6.12,22.568,3.825
							c9.563-5.355-16.521,118.474-141.334,104.614C287.766,323.091,290.257,325.727,291.214,326.874z"/>
						
							<circle id="XMLID_23_" fill="none" stroke="#1F4D69" stroke-width="6" stroke-miterlimit="10" cx="306.322" cy="195.294" r="132.728"/>
					</g>
				</g>
			</g>
		</g>
	</g>
</g>
<circle id="XMLID_4_" fill="none" stroke="#E80000" stroke-width="4.3745" stroke-miterlimit="10" cx="308.707" cy="308.456" r="296.246"/>
<path fill="none" stroke="#1F4D69" stroke-width="6" stroke-miterlimit="10" d="M255.671,318.354c0,0-0.599,30.742,55.623,30.747
	c50.055,0.005,54.064-31.727,54.064-31.727"/>
<path fill="none" stroke="#1F4D69" stroke-width="6" stroke-miterlimit="10" d="M255.671,74.678c0,0,11.958-45.982,70.976-33.577
	c47.438,9.971,47.222,4.611,47.222,4.611"/>
<path fill="none" stroke="#1F4D69" stroke-width="6" stroke-miterlimit="10" d="M236.677,82.871c0,0,11.952-45.321,70.97-32.916
	c47.438,9.971,57.711,5.835,57.711,5.835"/>
<path fill="none" stroke="#1F4D69" stroke-width="6" stroke-miterlimit="10" d="M276.607,67.842c0,0,11.742-50.341,70.76-37.936
	c47.438,9.971,51.885-1.644,51.885-1.644"/>
</svg>
