<?xml version="1.0" encoding="utf-8"?>
<!-- Generator: Adobe Illustrator 19.0.0, SVG Export Plug-In . SVG Version: 6.00 Build 0)  -->
<svg version="1.1" id="Capa_1" xmlns="http://www.w3.org/2000/svg" xmlns:xlink="http://www.w3.org/1999/xlink" x="0px" y="0px"
	 viewBox="1252.9 -271 321.1 391.9" style="enable-background:new 1252.9 -271 321.1 391.9;" xml:space="preserve">
<style type="text/css">
	.st0{fill:#E0DFE6;}
	.st1{fill:none;stroke:#1F4D69;stroke-width:3;stroke-linecap:round;stroke-linejoin:round;stroke-miterlimit:10;}
	.st2{fill:#666666;stroke:#939393;stroke-width:9;stroke-linecap:round;stroke-linejoin:round;stroke-miterlimit:10;}
	.st3{fill:#1F4D69;}
	.st4{fill:#1F4D69;stroke:#1F4D69;stroke-width:3;stroke-linecap:round;stroke-linejoin:round;stroke-miterlimit:10;}
	.st5{fill:#296684;stroke:#1F4D69;stroke-width:3;stroke-linecap:round;stroke-linejoin:round;stroke-miterlimit:10;}
</style>
<path class="st0" d="M1291.2,12.6c0,0,17-37.1,39.9-37.1s53.4,39.9,83,20c29.6-20-3.3-53,32.5-52.4c35.9,0.5,61.3-30.9,59.8-84.4
	s14.6-102,30.5-111V46.5h-245.7V12.6z"/>
<rect x="1291.2" y="-252.4" class="st1" width="245.7" height="298.4"/>
<line class="st2" x1="1347.3" y1="-81.9" x2="1480.7" y2="-81.9"/>
<line class="st2" x1="1331" y1="-61.8" x2="1497" y2="-61.8"/>
<line class="st2" x1="1367.1" y1="-39.4" x2="1461" y2="-39.4"/>
<line class="st2" x1="1353.9" y1="-17" x2="1474.2" y2="-17"/>
<line class="st2" x1="1367.1" y1="5.3" x2="1461" y2="5.3"/>
<g>
	<path class="st3" d="M1367.8-165.4c0,0.8-0.3,1.4-0.9,2c-0.6,0.6-1.3,0.9-2.2,0.9c-0.9,0-1.6-0.3-2.3-0.9c-0.6-0.6-0.9-1.3-0.9-2
		v-23.9l-7.9,16.3c-0.3,0.6-0.7,1.1-1.2,1.4c-0.5,0.3-1.1,0.4-1.8,0.4c-0.7,0-1.2-0.1-1.8-0.4c-0.5-0.3-0.9-0.7-1.2-1.4l-7.9-16.3
		v23.9c0,0.8-0.3,1.4-1,2c-0.7,0.6-1.4,0.9-2.3,0.9c-0.9,0-1.6-0.3-2.2-0.9c-0.6-0.6-0.9-1.3-0.9-2V-201c0-0.9,0.3-1.6,0.9-2.2
		c0.6-0.6,1.4-0.9,2.4-0.9c1.5,0,2.6,0.6,3.2,1.8l10.8,22.2l10.7-22.3c0.3-0.7,0.8-1.1,1.4-1.4c0.6-0.3,1.2-0.4,1.8-0.4
		c0.9,0,1.7,0.3,2.3,0.9c0.6,0.6,0.9,1.3,0.9,2.2V-165.4z"/>
	<path class="st3" d="M1385.8-162.6c-1.9,0-3.6-0.3-5-0.8c-1.4-0.5-2.6-1.3-3.6-2.2c-1-0.9-1.7-2.1-2.2-3.3
		c-0.5-1.3-0.7-2.7-0.7-4.1v-9.1c0-1.5,0.2-2.9,0.7-4.1c0.5-1.3,1.2-2.4,2.2-3.3c1-0.9,2.2-1.7,3.6-2.2c1.4-0.5,3.1-0.8,5-0.8
		c1.9,0,3.5,0.3,5,0.8c1.5,0.5,2.7,1.3,3.7,2.2c1,0.9,1.7,2,2.2,3.3c0.5,1.3,0.7,2.6,0.7,4.1v9.1c0,1.5-0.3,2.8-0.7,4.1
		c-0.5,1.3-1.2,2.4-2.2,3.3c-1,0.9-2.2,1.7-3.7,2.2C1389.3-162.8,1387.6-162.6,1385.8-162.6z M1385.8-168c1.8,0,3.2-0.4,4.1-1.3
		c0.9-0.9,1.4-2.1,1.4-3.7v-9.1c0-1.5-0.5-2.7-1.4-3.6c-0.9-0.9-2.3-1.3-4.1-1.3c-1.8,0-3.2,0.4-4.1,1.3c-0.9,0.9-1.4,2.1-1.4,3.6
		v9.1c0,1.6,0.5,2.8,1.4,3.7C1382.6-168.5,1384-168,1385.8-168z"/>
	<path class="st3" d="M1412.8-192.3c0.9,0,1.8,0.1,2.8,0.2c0.9,0.2,1.9,0.4,3,0.9v-10.6c0-0.8,0.3-1.4,0.8-2
		c0.5-0.6,1.3-0.8,2.3-0.8c1,0,1.8,0.3,2.3,0.8c0.5,0.6,0.8,1.2,0.8,2v31.8c0,0.6,0.1,1.1,0.3,1.5c0.2,0.4,0.5,0.8,1,1.2
		c0.4,0.5,0.6,1,0.6,1.6c0,0.9-0.3,1.6-0.9,2c-0.6,0.5-1.3,0.7-2,0.7s-1.3-0.2-1.8-0.5c-0.5-0.4-1-0.9-1.4-1.5
		c-1.3,0.7-2.7,1.3-4,1.8c-1.3,0.4-2.7,0.7-4.1,0.7c-1.6,0-3-0.3-4.2-0.8c-1.2-0.5-2.2-1.3-3.1-2.3c-0.8-1-1.5-2.1-1.9-3.5
		c-0.4-1.4-0.6-2.9-0.6-4.5v-6.9c0-1.7,0.2-3.3,0.5-4.7c0.3-1.4,0.9-2.7,1.7-3.7c0.8-1,1.8-1.8,3.1-2.4
		C1409.2-192,1410.8-192.3,1412.8-192.3z M1418.6-186.1c-0.9-0.3-1.8-0.6-2.8-0.7c-0.9-0.2-1.7-0.2-2.2-0.2c-1.8,0-3,0.5-3.7,1.6
		c-0.7,1.1-1.1,2.7-1.1,4.9v6.9c0,3.8,1.6,5.8,4.7,5.8c1.5,0,3.2-0.5,5.2-1.4c-0.1-0.2-0.1-0.4-0.1-0.6c0-0.2,0-0.4,0-0.6V-186.1z"
		/>
	<path class="st3" d="M1443.4-174.4c-0.8,0-1.6,0-2.5-0.1c-0.8-0.1-1.7-0.2-2.6-0.3v2.6c0,1.3,0.4,2.3,1.3,3.1
		c0.9,0.8,2.2,1.2,4.1,1.2c1.1,0,2-0.1,2.9-0.4c0.8-0.3,1.7-0.6,2.7-1c0.1-0.1,0.2-0.1,0.4-0.2c0.2-0.1,0.5-0.1,0.8-0.1
		c1,0,1.7,0.3,2.2,0.9c0.4,0.6,0.7,1.2,0.7,1.7c0,0.9-0.4,1.6-1.1,2.2c-0.7,0.6-1.7,1-2.7,1.4c-1.1,0.3-2.2,0.6-3.3,0.7
		c-1.2,0.1-2.2,0.2-3,0.2c-1.8,0-3.3-0.3-4.7-0.7c-1.4-0.5-2.5-1.2-3.5-2.1c-0.9-0.9-1.7-1.9-2.2-3.1c-0.5-1.2-0.7-2.5-0.7-3.9
		v-10.2c0-1.4,0.2-2.7,0.7-3.9c0.5-1.2,1.2-2.3,2.2-3.1c1-0.9,2.1-1.6,3.6-2.1c1.4-0.5,3-0.8,4.9-0.8c3.5,0,6.1,0.9,7.8,2.6
		c1.7,1.7,2.6,4.1,2.6,6.9c0,2.7-0.8,4.8-2.5,6.4C1449.8-175.1,1447.1-174.4,1443.4-174.4z M1447.7-183.2c0-1.5-0.4-2.6-1.1-3.3
		c-0.7-0.7-1.8-1-3.3-1c-1.6,0-2.9,0.4-3.7,1.2c-0.9,0.8-1.3,1.9-1.3,3.3v3.4c1,0.1,2,0.2,3,0.3c1,0.1,1.7,0.1,2.1,0.1
		c1.6,0,2.8-0.4,3.4-1.1C1447.4-181,1447.7-181.9,1447.7-183.2z"/>
	<path class="st3" d="M1464-162.6c-0.5,0-1-0.1-1.5-0.2c-0.5-0.1-1-0.4-1.5-0.9c-0.4-0.4-0.8-1.1-1.1-1.9c-0.3-0.8-0.5-2-0.5-3.3
		v-32.8c0-0.8,0.3-1.4,0.9-2c0.6-0.6,1.3-0.9,2.2-0.9c0.9,0,1.6,0.3,2.2,0.8c0.6,0.6,0.9,1.2,0.9,2v32.5c0,0.6,0,1.1,0.1,1.4
		c0.1,0.3,0.3,0.7,0.7,1.1c0.2,0.2,0.4,0.4,0.5,0.6c0.2,0.2,0.2,0.5,0.2,0.9c0,0.8-0.3,1.4-0.9,1.9
		C1465.8-162.8,1465-162.6,1464-162.6z"/>
	<path class="st3" d="M1484-162.6c-1.9,0-3.6-0.3-5-0.8c-1.4-0.5-2.6-1.3-3.6-2.2c-1-0.9-1.7-2.1-2.2-3.3c-0.5-1.3-0.7-2.7-0.7-4.1
		v-9.1c0-1.5,0.2-2.9,0.7-4.1c0.5-1.3,1.2-2.4,2.2-3.3c1-0.9,2.2-1.7,3.6-2.2c1.4-0.5,3.1-0.8,5-0.8c1.9,0,3.5,0.3,5,0.8
		c1.5,0.5,2.7,1.3,3.7,2.2c1,0.9,1.7,2,2.2,3.3c0.5,1.3,0.7,2.6,0.7,4.1v9.1c0,1.5-0.3,2.8-0.7,4.1c-0.5,1.3-1.2,2.4-2.2,3.3
		c-1,0.9-2.2,1.7-3.7,2.2C1487.5-162.8,1485.8-162.6,1484-162.6z M1484-168c1.8,0,3.2-0.4,4.1-1.3c0.9-0.9,1.4-2.1,1.4-3.7v-9.1
		c0-1.5-0.5-2.7-1.4-3.6c-0.9-0.9-2.3-1.3-4.1-1.3c-1.8,0-3.2,0.4-4.1,1.3c-0.9,0.9-1.4,2.1-1.4,3.6v9.1c0,1.6,0.5,2.8,1.4,3.7
		C1480.8-168.5,1482.2-168,1484-168z"/>
	<path class="st3" d="M1345.2-124.3c-0.3,0.3-0.8,0.5-1.3,0.5c-0.5,0-0.9-0.2-1.3-0.5c-0.4-0.3-0.5-0.7-0.5-1.2v-8.4h-7.9v8.4
		c0,0.5-0.2,0.9-0.5,1.2c-0.3,0.3-0.8,0.5-1.3,0.5c-0.5,0-0.9-0.2-1.3-0.5c-0.3-0.3-0.5-0.7-0.5-1.2v-20.1c0-0.5,0.2-0.8,0.5-1.2
		c0.3-0.3,0.8-0.5,1.3-0.5c0.5,0,0.9,0.2,1.3,0.5c0.3,0.3,0.5,0.7,0.5,1.2v8.4h7.9v-8.4c0-0.5,0.2-0.8,0.5-1.2
		c0.4-0.3,0.8-0.5,1.3-0.5c0.5,0,0.9,0.2,1.3,0.5c0.4,0.3,0.5,0.7,0.5,1.2v20.1C1345.7-125,1345.6-124.6,1345.2-124.3z"/>
	<path class="st3" d="M1356-123.8c-1.1,0-2-0.2-2.8-0.5s-1.5-0.7-2-1.3c-0.6-0.5-1-1.2-1.3-1.9c-0.3-0.7-0.4-1.5-0.4-2.3v-5.1
		c0-0.8,0.1-1.6,0.4-2.3c0.3-0.7,0.7-1.3,1.3-1.9c0.6-0.5,1.2-0.9,2-1.3c0.8-0.3,1.8-0.5,2.8-0.5c1.1,0,2,0.2,2.8,0.5
		c0.8,0.3,1.5,0.7,2.1,1.3c0.6,0.5,1,1.2,1.3,1.9c0.3,0.7,0.4,1.5,0.4,2.3v5.1c0,0.8-0.1,1.6-0.4,2.3c-0.3,0.7-0.7,1.4-1.3,1.9
		c-0.6,0.5-1.2,0.9-2.1,1.3C1358-124,1357.1-123.8,1356-123.8z M1356-126.9c1,0,1.8-0.2,2.3-0.7c0.5-0.5,0.8-1.2,0.8-2.1v-5.2
		c0-0.9-0.3-1.5-0.8-2c-0.5-0.5-1.3-0.7-2.3-0.7s-1.8,0.2-2.3,0.7c-0.5,0.5-0.8,1.2-0.8,2v5.2c0,0.9,0.3,1.6,0.8,2.1
		C1354.2-127.1,1355-126.9,1356-126.9z"/>
	<path class="st3" d="M1370.1-123.7c0,0.9-0.1,1.7-0.4,2.5c-0.3,0.8-0.6,1.4-1.1,2c-0.5,0.6-1.1,1-1.8,1.3c-0.7,0.3-1.5,0.5-2.4,0.5
		c-0.5,0-0.9-0.2-1.2-0.5c-0.3-0.3-0.4-0.7-0.4-1.1c0-0.4,0.2-0.8,0.5-1c0.3-0.2,0.6-0.4,0.9-0.4c0.7-0.2,1.3-0.5,1.7-0.9
		c0.4-0.5,0.6-1.2,0.6-2.2V-139c0-0.4,0.2-0.8,0.5-1.1c0.3-0.3,0.8-0.5,1.3-0.5c0.5,0,0.9,0.2,1.3,0.5c0.3,0.3,0.5,0.7,0.5,1.1
		V-123.7z M1370.3-145.4c0,0.5-0.2,1-0.6,1.4c-0.4,0.4-0.9,0.6-1.4,0.6c-0.6,0-1.1-0.2-1.5-0.6s-0.6-0.8-0.6-1.3
		c0-0.5,0.2-1,0.6-1.4c0.4-0.4,0.9-0.6,1.5-0.6c0.6,0,1,0.2,1.4,0.6C1370.1-146.3,1370.3-145.9,1370.3-145.4z"/>
	<path class="st3" d="M1382.9-134.9c0-1.9-1-2.9-3-2.9c-0.4,0-0.8,0-1.1,0.1c-0.3,0.1-0.6,0.2-0.8,0.3l-0.6,0.3
		c-0.2,0.1-0.5,0.2-0.8,0.2c-0.5,0-0.8-0.2-1-0.5c-0.2-0.3-0.3-0.6-0.3-1c0-0.4,0.1-0.8,0.4-1.1c0.3-0.3,0.7-0.6,1.1-0.7
		c0.5-0.2,1-0.3,1.6-0.4c0.6-0.1,1.2-0.1,1.9-0.1c2.2,0,3.8,0.6,4.7,1.7c1,1.1,1.4,2.8,1.4,4.9v6.6c0,0.4,0.1,0.7,0.2,0.8
		c0.2,0.1,0.3,0.2,0.6,0.2c0.6,0.1,1,0.5,1,1.2c0,0.9-0.6,1.4-1.9,1.4c-1.1,0-2-0.5-2.6-1.5c-1.2,1-2.7,1.6-4.4,1.6
		c-1.8,0-3.1-0.5-4-1.4c-0.9-0.9-1.3-2.1-1.3-3.6v-0.1c0-3.3,2-4.9,6.1-4.9c1,0,2,0.1,2.9,0.4V-134.9z M1380.1-131.2
		c-0.6,0-1,0.1-1.4,0.2c-0.4,0.1-0.6,0.3-0.8,0.5s-0.3,0.4-0.4,0.7c-0.1,0.3-0.1,0.6-0.1,0.9v0.1c0,0.6,0.2,1.2,0.5,1.5
		c0.4,0.4,1,0.5,1.9,0.5c0.6,0,1.1-0.1,1.6-0.3c0.5-0.2,1-0.5,1.5-0.9v-2.9c-0.5-0.1-1-0.2-1.5-0.3
		C1381-131.1,1380.5-131.2,1380.1-131.2z"/>
	<path class="st3" d="M1405.9-140.6c0.5,0,1,0,1.6,0.1c0.5,0.1,1.1,0.2,1.7,0.5v-6c0-0.4,0.2-0.8,0.5-1.1c0.3-0.3,0.7-0.5,1.3-0.5
		c0.6,0,1,0.2,1.3,0.5c0.3,0.3,0.5,0.7,0.5,1.1v18c0,0.3,0.1,0.6,0.2,0.8c0.1,0.2,0.3,0.4,0.6,0.7c0.2,0.3,0.4,0.6,0.4,0.9
		c0,0.5-0.2,0.9-0.5,1.2c-0.3,0.3-0.7,0.4-1.1,0.4s-0.7-0.1-1-0.3c-0.3-0.2-0.6-0.5-0.8-0.8c-0.8,0.4-1.5,0.7-2.2,1
		c-0.7,0.2-1.5,0.4-2.3,0.4c-0.9,0-1.7-0.2-2.4-0.5c-0.7-0.3-1.3-0.7-1.7-1.3c-0.5-0.6-0.8-1.2-1.1-2c-0.2-0.8-0.4-1.6-0.4-2.5v-3.9
		c0-1,0.1-1.9,0.3-2.7c0.2-0.8,0.5-1.5,1-2.1c0.4-0.6,1-1,1.8-1.4C1403.9-140.4,1404.8-140.6,1405.9-140.6z M1409.2-137.1
		c-0.5-0.2-1-0.3-1.6-0.4c-0.5-0.1-0.9-0.1-1.3-0.1c-1,0-1.7,0.3-2.1,0.9c-0.4,0.6-0.6,1.5-0.6,2.8v3.9c0,2.2,0.9,3.2,2.6,3.2
		c0.8,0,1.8-0.3,3-0.8c0-0.1-0.1-0.2-0.1-0.4s0-0.2,0-0.3V-137.1z"/>
	<path class="st3" d="M1423.2-130.5c-0.5,0-0.9,0-1.4,0c-0.5,0-1-0.1-1.5-0.2v1.5c0,0.7,0.2,1.3,0.7,1.8c0.5,0.4,1.3,0.6,2.3,0.6
		c0.6,0,1.1-0.1,1.6-0.2c0.5-0.2,1-0.3,1.5-0.6c0,0,0.1-0.1,0.2-0.1c0.1,0,0.3,0,0.5,0c0.6,0,1,0.2,1.2,0.5c0.2,0.3,0.4,0.6,0.4,1
		c0,0.5-0.2,0.9-0.6,1.2c-0.4,0.3-0.9,0.6-1.5,0.8c-0.6,0.2-1.2,0.3-1.9,0.4c-0.7,0.1-1.2,0.1-1.7,0.1c-1,0-1.9-0.1-2.7-0.4
		c-0.8-0.3-1.4-0.7-2-1.2c-0.5-0.5-0.9-1.1-1.2-1.8c-0.3-0.7-0.4-1.4-0.4-2.2v-5.7c0-0.8,0.1-1.5,0.4-2.2c0.3-0.7,0.7-1.3,1.2-1.8
		c0.5-0.5,1.2-0.9,2-1.2c0.8-0.3,1.7-0.4,2.8-0.4c2,0,3.4,0.5,4.4,1.5c1,1,1.5,2.3,1.5,3.9c0,1.5-0.5,2.7-1.4,3.6
		C1426.8-130.9,1425.3-130.5,1423.2-130.5z M1425.6-135.4c0-0.9-0.2-1.5-0.6-1.9c-0.4-0.4-1-0.6-1.8-0.6c-0.9,0-1.6,0.2-2.1,0.7
		c-0.5,0.5-0.7,1.1-0.7,1.9v1.9c0.6,0.1,1.1,0.1,1.7,0.1c0.6,0,0.9,0,1.2,0c0.9,0,1.6-0.2,1.9-0.6
		C1425.4-134.2,1425.6-134.7,1425.6-135.4z"/>
	<path class="st3" d="M1444-146c0.9,2.8,1.8,5.6,2.7,8.4c0.9,2.8,1.7,5.6,2.4,8.5c0.2-0.6,0.3-1.3,0.5-1.9c0.2-0.7,0.3-1.3,0.5-1.9
		l4.1-13.1c0.1-0.4,0.3-0.7,0.7-0.9c0.4-0.2,0.7-0.3,1-0.3c0.5,0,1,0.2,1.3,0.5c0.3,0.3,0.5,0.7,0.5,1.2c0,0.1,0,0.2,0,0.3
		c0,0.1,0,0.2,0,0.3l-6.3,19.3c-0.2,0.6-0.5,1.1-0.8,1.4c-0.3,0.4-0.8,0.5-1.4,0.5c-0.6,0-1.1-0.2-1.4-0.6c-0.3-0.4-0.6-0.8-0.7-1.4
		l-6.3-19.3c0-0.1-0.1-0.2-0.1-0.3c0-0.1,0-0.2,0-0.3c0-0.5,0.2-0.9,0.6-1.2c0.4-0.3,0.8-0.5,1.3-0.5c0.3,0,0.6,0.1,1,0.3
		C1443.6-146.7,1443.8-146.4,1444-146z"/>
	<path class="st3" d="M1464.4-145.4c0,0.5-0.2,1-0.6,1.4c-0.4,0.4-0.9,0.6-1.4,0.6c-0.6,0-1.1-0.2-1.5-0.6s-0.6-0.8-0.6-1.3
		c0-0.5,0.2-1,0.6-1.4c0.4-0.4,0.9-0.6,1.5-0.6c0.6,0,1,0.2,1.4,0.6C1464.2-146.3,1464.4-145.9,1464.4-145.4z M1464.1-125.5
		c0,0.5-0.2,0.9-0.5,1.2c-0.3,0.3-0.8,0.5-1.3,0.5c-0.5,0-0.9-0.2-1.3-0.5c-0.3-0.3-0.5-0.7-0.5-1.2V-139c0-0.4,0.2-0.8,0.5-1.1
		c0.3-0.3,0.8-0.5,1.3-0.5c0.5,0,0.9,0.2,1.3,0.5c0.3,0.3,0.5,0.7,0.5,1.1V-125.5z"/>
	<path class="st3" d="M1473.9-140.6c0.5,0,1,0,1.6,0.1c0.5,0.1,1.1,0.2,1.7,0.5v-6c0-0.4,0.2-0.8,0.5-1.1c0.3-0.3,0.7-0.5,1.3-0.5
		c0.6,0,1,0.2,1.3,0.5c0.3,0.3,0.5,0.7,0.5,1.1v18c0,0.3,0.1,0.6,0.2,0.8c0.1,0.2,0.3,0.4,0.6,0.7c0.2,0.3,0.4,0.6,0.4,0.9
		c0,0.5-0.2,0.9-0.5,1.2c-0.3,0.3-0.7,0.4-1.1,0.4s-0.7-0.1-1-0.3c-0.3-0.2-0.6-0.5-0.8-0.8c-0.8,0.4-1.5,0.7-2.2,1
		c-0.7,0.2-1.5,0.4-2.3,0.4c-0.9,0-1.7-0.2-2.4-0.5c-0.7-0.3-1.3-0.7-1.7-1.3c-0.5-0.6-0.8-1.2-1.1-2c-0.2-0.8-0.4-1.6-0.4-2.5v-3.9
		c0-1,0.1-1.9,0.3-2.7c0.2-0.8,0.5-1.5,1-2.1c0.4-0.6,1-1,1.8-1.4C1471.9-140.4,1472.8-140.6,1473.9-140.6z M1477.2-137.1
		c-0.5-0.2-1-0.3-1.6-0.4c-0.5-0.1-0.9-0.1-1.3-0.1c-1,0-1.7,0.3-2.1,0.9c-0.4,0.6-0.6,1.5-0.6,2.8v3.9c0,2.2,0.9,3.2,2.6,3.2
		c0.8,0,1.8-0.3,3-0.8c0-0.1-0.1-0.2-0.1-0.4s0-0.2,0-0.3V-137.1z"/>
	<path class="st3" d="M1493.3-134.9c0-1.9-1-2.9-3-2.9c-0.4,0-0.8,0-1.1,0.1c-0.3,0.1-0.6,0.2-0.8,0.3l-0.6,0.3
		c-0.2,0.1-0.5,0.2-0.8,0.2c-0.5,0-0.8-0.2-1-0.5c-0.2-0.3-0.3-0.6-0.3-1c0-0.4,0.1-0.8,0.4-1.1c0.3-0.3,0.7-0.6,1.1-0.7
		c0.5-0.2,1-0.3,1.6-0.4c0.6-0.1,1.2-0.1,1.9-0.1c2.2,0,3.8,0.6,4.7,1.7c1,1.1,1.4,2.8,1.4,4.9v6.6c0,0.4,0.1,0.7,0.2,0.8
		c0.2,0.1,0.3,0.2,0.6,0.2c0.6,0.1,1,0.5,1,1.2c0,0.9-0.6,1.4-1.9,1.4c-1.1,0-2-0.5-2.6-1.5c-1.2,1-2.7,1.6-4.4,1.6
		c-1.8,0-3.1-0.5-4-1.4c-0.9-0.9-1.3-2.1-1.3-3.6v-0.1c0-3.3,2-4.9,6.1-4.9c1,0,2,0.1,2.9,0.4V-134.9z M1490.5-131.2
		c-0.6,0-1,0.1-1.4,0.2c-0.4,0.1-0.6,0.3-0.8,0.5s-0.3,0.4-0.4,0.7c-0.1,0.3-0.1,0.6-0.1,0.9v0.1c0,0.6,0.2,1.2,0.5,1.5
		c0.4,0.4,1,0.5,1.9,0.5c0.6,0,1.1-0.1,1.6-0.3c0.5-0.2,1-0.5,1.5-0.9v-2.9c-0.5-0.1-1-0.2-1.5-0.3
		C1491.3-131.1,1490.9-131.2,1490.5-131.2z"/>
</g>
<polygon class="st4" points="1414,46.5 1536.9,46.5 1475.5,74.6 1414,102.6 1352.6,74.6 1291.2,46.5 "/>
<polygon class="st5" points="1414,102.6 1414,46.5 1291.2,46.5 "/>
</svg>
