<?xml version="1.0" encoding="utf-8"?>
<!-- Generator: Adobe Illustrator 17.0.0, SVG Export Plug-In . SVG Version: 6.00 Build 0)  -->
<!DOCTYPE svg PUBLIC "-//W3C//DTD SVG 1.1//EN" "http://www.w3.org/Graphics/SVG/1.1/DTD/svg11.dtd">
<svg version="1.1" id="Capa_1" xmlns="http://www.w3.org/2000/svg" xmlns:xlink="http://www.w3.org/1999/xlink" x="0px" y="0px"
	 width="593.97px" height="483.385px" viewBox="0 0 593.97 483.385" enable-background="new 0 0 593.97 483.385"
	 xml:space="preserve">
<polyline fill="none" stroke="#214D6A" stroke-width="4" stroke-miterlimit="10" points="510.984,346.914 581.971,340.473 
	502.475,38.998 16.499,56.997 84.181,358.14 370.462,347.468 385.334,346.914 "/>
<path id="XMLID_853_" fill="#E0DFE6" d="M460.848,471.645c-4.413-4.875-8.961-9.59-13.655-14.195
	c-2.478-2.432-5.007-4.815-7.604-7.122c0.068-0.279,0.114-0.576,0.133-0.894c0.231-4.08-0.575-8.127-1.94-11.975
	c-0.046-0.527-0.104-1.053-0.139-1.582c-0.221-3.385,0.135-6.86-0.578-10.179c0.569-0.491,0.96-1.166,1.033-1.994
	c0.724,0.007,1.499-0.152,2.299-0.528c1.699-0.8,3.34-1.305,5.139-1.803c2.858-0.791,5.139-4.842,3.064-7.53
	c-10.809-14.002-19.792-28.207-27.477-44.126c-6.593-13.656-13.764-26.641-26.202-35.812c-7.059-5.205-14.377-9.02-19.593-16.358
	c-4.221-5.939-7.104-12.532-10.104-19.125c-6.927-15.219-13.192-30.902-20.805-45.781c-0.235-0.46-1.087-0.269-1.019,0.276
	c2.012,16.039,4.494,33.486,10.58,48.548c1.401,3.467,3.074,6.78,4.958,9.955c1.396,3.409,3.118,6.708,5.5,9.845
	c2.789,3.673,5.699,6.073,9.214,8.543c0.447,0.432,0.911,0.847,1.365,1.272c-2.029,0.037-4.08,0.185-6.128,0.417
	c0.269,0.158,0.535,0.339,0.794,0.557c-1.437-1.212-0.01-0.083,0.39,0.137c0.74,0.406,1.462,0.851,2.193,1.274
	c1.872,1.082,3.742,2.164,5.582,3.299c3.801,2.343,7.91,4.861,10.834,8.291c0.751,0.881,1.131,1.834,1.234,2.777
	c1.805,1.931,3.747,3.786,5.61,5.783c5.461,5.852,8.296,13.54,12.67,20.135c10.305,15.539,15.935,33.165,22.623,50.379
	c0.71,1.829,2.362,2.568,3.914,2.474c-0.618,1.056-1.119,2.206-1.541,3.411c-1.054-0.347-2.247-0.258-3.259,0.212
	c-0.62-0.307-1.377-0.483-2.304-0.485c-4.545-0.011-9.112,6.485-12.111,9.345c-2.391,2.279-1.285,6.725,1.978,7.494
	c0.329,0.077,0.658,0.155,0.986,0.232c0.849,0.2,1.822,0.068,2.672-0.32c0.669,0.916,1.378,1.811,2.097,2.695
	c1.645,9.428,6.592,19.014,10.166,27.581c1.067,2.559,2.195,5.089,3.351,7.606h34.958
	C468.867,479.701,464.457,475.631,460.848,471.645z M429.699,442.239c0.225-0.066,0.445-0.147,0.661-0.242
	c0.08,0.311,0.159,0.622,0.232,0.936C430.295,442.7,429.999,442.469,429.699,442.239z M435.703,415.147
	c-0.098,0.068-0.187,0.138-0.278,0.207c-0.42-1.071-0.851-2.139-1.292-3.202c0.706,0.885,1.415,1.765,2.127,2.644
	C436.075,414.916,435.888,415.022,435.703,415.147z"/>
<path id="XMLID_851_" fill="#214D6A" d="M429.443,473.63c1.858,3.728,3.73,7.479,5.613,11.237h3.12
	c-2.068-4.128-4.141-8.284-6.233-12.482c-5.443-10.921-11.065-22.2-16.851-33.38c35.413-21.194,68.098-35.925,99.887-45.021
	c0.741-0.213,1.17-0.985,0.958-1.728c-0.211-0.74-0.984-1.169-1.727-0.958c-32.363,9.262-65.623,24.303-101.681,45.987
	c-0.632,0.38-0.859,1.186-0.52,1.839C417.998,450.666,423.816,462.341,429.443,473.63z"/>
<path id="XMLID_835_" fill="#E0DFE6" d="M384.872,265.777c-3.016-3.175-6.021-6.352-9.133-9.432
	c-0.868-0.859-1.815-1.714-2.768-2.588c0.168-0.338,0.272-0.715,0.273-1.134c0.001-2.716-1.163-4.584-1.871-7.097
	c-0.807-2.866,0.88-6.207,1.279-9.096c0.895-6.478,0.483-13.029-0.7-19.438c-0.111-0.604-0.945-0.393-0.997,0.136
	c-0.816,8.255-3.737,15.056-6.455,22.761c-2.225,6.309,0.885,8.841,3.648,14.113c0.565,1.079,1.622,1.449,2.626,1.302
	c0.21,0.243,0.419,0.486,0.634,0.728c3.637,4.099,7.369,8.091,11.142,12.063C384.009,269.632,386.327,267.309,384.872,265.777z"/>
<path id="XMLID_824_" fill="#214D6A" d="M341.674,260.885c1.577,7.506,3.208,15.268,5.233,22.859
	c2.317,8.689,4.212,13.389,6.045,17.936l0.841,2.092c4.043,10.076,8.223,20.495,17.132,27.706
	c25.797,20.878,38.709,49.904,51.195,77.976c2.802,6.301,5.7,12.815,8.697,19.133c0.33,0.696,1.164,0.99,1.859,0.663
	c0.697-0.331,0.994-1.163,0.663-1.86c-2.982-6.286-5.873-12.785-8.669-19.07c-12.62-28.372-25.671-57.712-51.989-79.012
	c-8.346-6.754-12.388-16.83-16.298-26.575l-0.843-2.097c-1.801-4.467-3.664-9.087-5.936-17.609
	c-2.006-7.521-3.629-15.244-5.199-22.715c-0.633-3.015-1.267-6.028-1.925-9.035c-0.706-3.225-1.065-6.347-1.065-9.281
	c0-4.84,0.977-9.37,2.902-13.464c3.54-7.523,7.745-16.298,12.499-26.082c1.064-2.192,3.699-4.042,5.752-4.042
	c0.721,0,1.288,0.223,1.733,0.68c6.091,6.25,9.18,15.678,9.18,28.021c0,5.27-0.57,11.031-1.695,17.128
	c-0.147,0.799-0.222,1.617-0.222,2.431c0,3.252,1.177,6.519,3.405,9.448c2.956,3.886,5.53,7.495,7.869,11.033
	c0.891,1.348,2.99,1.643,3.724,1.643c2.525,0,4.579-2.14,4.579-4.768l-0.003-0.191c-0.411-10.728-0.905-21.617-1.382-32.149
	c-1.21-26.665-2.46-54.239-2.46-81.405c0-2.348,0.009-4.695,0.028-7.044c0.106-12.998,2.971-18.3,9.889-18.3
	c13.354,0,14.749,20.162,16.861,50.68c1.013,14.641,2.162,31.234,4.863,49.261c0.083,0.552,0.487,1.002,1.027,1.144
	c0.539,0.143,1.114-0.053,1.456-0.494c4.64-5.969,11.971-9.826,18.678-9.826c2.529,0,8.789,0.612,12.287,6.279
	c0.236,0.385,0.645,0.631,1.095,0.66c0.443,0.029,0.887-0.159,1.173-0.508c3.945-4.818,9.938-7.813,15.638-7.813
	c4.632,0,10.813,2.178,12.986,8.313c0.156,0.441,0.523,0.774,0.978,0.888c0.454,0.113,0.935-0.008,1.28-0.324
	c3.376-3.09,7.918-4.791,12.79-4.791c14.414,0,17.572,8.628,17.879,21.584c0.202,8.534,0.979,17.135,1.733,25.452
	c0.872,9.628,1.773,19.583,1.773,29.424c0,26.551-7.137,42.117-17.015,63.663c-0.8,1.743-1.617,3.524-2.449,5.355
	c-0.177,0.388-0.167,0.835,0.028,1.214c8.037,15.693,16.932,32.607,27.513,49.968c12.654,20.763,23.299,41.957,33.594,62.454
	c1.14,2.268,2.296,4.564,3.45,6.857h3.126c-1.369-2.716-2.732-5.427-4.081-8.11c-10.32-20.547-20.991-41.794-33.705-62.654
	c-10.399-17.063-19.172-33.712-27.104-49.187c0.735-1.611,1.457-3.189,2.166-4.733c10.025-21.867,17.269-37.667,17.269-64.826
	c0-9.967-0.907-19.986-1.784-29.676c-0.749-8.273-1.523-16.825-1.723-25.267c-0.284-12.021-2.962-24.311-20.67-24.311
	c-4.889,0-9.501,1.512-13.188,4.289c-3.127-6.141-9.772-8.373-14.846-8.373c-5.955,0-12.163,2.826-16.594,7.473
	c-3.102-3.895-7.957-6.092-13.599-6.092c-6.603,0-13.714,3.285-18.837,8.555c-2.375-16.765-3.449-32.27-4.401-46.04
	c-2.22-32.084-3.687-53.279-19.647-53.279c-12.509,0-12.63,14.764-12.681,21.069c-0.019,2.356-0.028,4.711-0.028,7.066
	c0,27.229,1.252,54.835,2.463,81.531c0.478,10.527,0.971,21.413,1.383,32.215c0,1.09-0.802,1.977-1.787,1.977
	c-0.499,0-1.246-0.245-1.395-0.391c-2.374-3.589-4.982-7.248-7.976-11.184c-1.855-2.439-2.836-5.122-2.836-7.758
	c0-0.645,0.059-1.292,0.176-1.924c1.155-6.264,1.741-12.196,1.741-17.635c0-13.098-3.355-23.182-9.973-29.971
	c-0.97-0.996-2.261-1.521-3.732-1.521c-3.156,0-6.709,2.412-8.264,5.612c-4.759,9.796-8.969,18.582-12.514,26.114
	c-2.102,4.469-3.168,9.398-3.168,14.652c0,3.135,0.38,6.459,1.129,9.879C340.411,254.873,341.042,257.878,341.674,260.885z"/>
<text transform="matrix(0.9982 -0.0606 0.0606 0.9982 90.0871 173.4319)" fill="#214D6A" font-family="'BloggerSans-Light'" font-size="68.4365">Ortografía</text>
<g>
	<g>
		
			<line fill="none" stroke="#214D6A" stroke-width="0.8686" stroke-miterlimit="10" x1="92.953" y1="186.585" x2="98.159" y2="186.33"/>
		
			<line fill="none" stroke="#214D6A" stroke-width="0.8686" stroke-miterlimit="10" stroke-dasharray="10.3679,10.3679" x1="108.514" y1="185.822" x2="372.579" y2="172.878"/>
		
			<line fill="none" stroke="#214D6A" stroke-width="0.8686" stroke-miterlimit="10" x1="377.757" y1="172.624" x2="382.962" y2="172.369"/>
	</g>
</g>
</svg>
