<?xml version="1.0" encoding="utf-8"?>
<!-- Generator: Adobe Illustrator 15.1.0, SVG Export Plug-In . SVG Version: 6.00 Build 0)  -->
<!DOCTYPE svg PUBLIC "-//W3C//DTD SVG 1.1//EN" "http://www.w3.org/Graphics/SVG/1.1/DTD/svg11.dtd">
<svg version="1.1" id="Capa_1" xmlns="http://www.w3.org/2000/svg" xmlns:xlink="http://www.w3.org/1999/xlink" x="0px" y="0px"
	 width="241px" height="612px" viewBox="0 0 241 612" enable-background="new 0 0 241 612" xml:space="preserve">
<g id="XMLID_3_">
	<path id="XMLID_15_" fill="none" stroke="#1F4D69" stroke-width="6.0814" stroke-linecap="round" stroke-miterlimit="10" d="
		M177.564,576.368c0,0-20.004-89.708-16.112-198.607"/>
	<path id="XMLID_14_" fill="none" stroke="#1F4D69" stroke-width="6.0814" stroke-linecap="round" stroke-miterlimit="10" d="
		M112.479,581.709c0,0-14.122-98.941-16.113-198.607"/>
	<path id="XMLID_13_" fill="none" stroke="#1F4D69" stroke-width="6.0814" stroke-linecap="round" stroke-miterlimit="10" d="
		M78.484,214.819c12.402-3.983-73.275,28.696-66.848,169.912"/>
	<path id="XMLID_12_" fill="none" stroke="#1F4D69" stroke-width="6.0814" stroke-linecap="round" stroke-miterlimit="10" d="
		M152.762,211.289c-12.764-2.806,74.41,15.842,81.109,163.123"/>
	<g id="XMLID_8_">
		<path id="XMLID_11_" fill="#FFFFFF" d="M151.947,202.418c11.496,18.376,28.242,25.346,42.998,75.496
			c5.794,19.825,7.695,37.929,3.169,67.983c-1.63,10.771-25.257,30.415-51.507,36.118c-13.851,2.897-30.417,2.264-53.59,0.091
			c-8.419-0.725-42.183-6.156-45.714-30.868c-2.625-18.829-10.048-38.382-3.168-67.983c5.884-24.984,14.366-36.933,43.152-82.557
			c28.605-45.352,25.193-31.264,25.193-31.264S140.088,183.589,151.947,202.418z"/>
		<path id="XMLID_10_" fill="#E0DFE6" d="M65.149,239.351c4.345-10.229,10.591-19.553,14.664-29.782
			c2.173-5.341,5.251-13.307,11.406-15.48c1.086-0.996,2.353-1.72,3.711-2.173c-1.539-0.634-3.168-1.268-4.707-2.082
			c-1.72-0.905-3.44-1.81-5.251-2.897c10.139,2.173,20.187,3.983,29.058,9.686c-1.177-0.09-2.263-0.181-3.44-0.452
			c2.353,2.535,3.983,5.793,4.164,9.686c0.452,10.682-4.888,20.368-10.229,29.51c-8.962,15.117-15.208,27.881-16.566,45.533
			c-1.177,15.117,1.177,31.23,5.431,45.804c3.349,11.314,14.755,17.833,17.471,29.239c2.806,11.768-7.423,12.491-17.109,10.771
			c-2.263,0.725-4.979,0.362-6.337-1.539c-2.806-0.904-5.341-1.72-6.97-2.353c-19.643-8.147-26.976-24.17-29.148-43.724
			C48.312,291.673,54.286,264.607,65.149,239.351z"/>
		<path id="XMLID_9_" fill="none" stroke="#1F4D69" stroke-width="6.0814" stroke-linecap="round" stroke-miterlimit="10" d="
			M154.21,202.236c11.497,18.376,28.243,25.346,42.999,75.496c5.793,19.825,7.693,37.929,3.168,67.983
			c-1.63,10.772-25.256,30.416-51.507,36.119c-13.851,2.897-30.416,2.263-53.59,0.09c-8.419-0.724-42.183-6.156-45.714-30.868
			c-2.625-18.829-10.048-38.382-3.168-67.983c5.884-24.984,12.945-36.933,41.731-82.557c28.605-45.352,28.424-20.67,28.424-20.67
			S142.532,183.499,154.21,202.236z"/>
	</g>
	<circle id="XMLID_7_" fill="#FFFFFF" cx="116.552" cy="133.892" r="62.823"/>
	<path id="XMLID_6_" fill="#E0DFE6" d="M111.754,195.99c-5.974-1.72-12.039-3.349-17.924-5.522c0.362-0.09,0.634-0.362,0.996-0.452
		c-1.539-0.634-3.168-1.268-4.707-2.082c-18.285-8.962-39.74-30.868-30.687-51.779c9.776-22.813,32.407,7.151,39.74,15.027
		c7.966,8.6,19.463,13.035,30.868,13.397c2.535-1.448,4.888-1.268,6.88-0.362c12.945-1.539,24.805-8.6,30.055-21.273
		c2.262-5.522,9.594-2.897,10.682,1.81c4.525-2.535-7.82,56.076-66.897,49.516C110.122,194.2,111.302,195.448,111.754,195.99z"/>
	
		<circle id="XMLID_5_" fill="none" stroke="#1F4D69" stroke-width="6.0814" stroke-linecap="round" stroke-miterlimit="10" cx="118.906" cy="133.711" r="62.823"/>
</g>
<path fill="none" stroke="#1F4D69" stroke-width="6.0814" stroke-linecap="round" stroke-miterlimit="10" d="M94.932,191.958
	c0,0-0.284,22.745,26.328,22.748c23.692,0.002,25.59-23.211,25.59-23.211"/>
<path fill="none" stroke="#1F4D69" stroke-width="6.0814" stroke-linecap="round" stroke-miterlimit="10" d="M69.797,94.527
	c0,0-2.024-26.238,26.424-28.593c22.866-1.893,23.312-7.763,23.312-7.763"/>
<path fill="none" stroke="#1F4D69" stroke-width="6.0814" stroke-linecap="round" stroke-miterlimit="10" d="M169.805,94.527
	c0,0,2.023-26.238-26.425-28.593c-22.866-1.893-23.312-7.763-23.312-7.763"/>
<path fill="none" stroke="#1F4D69" stroke-width="6.0801" stroke-linecap="round" stroke-miterlimit="10" d="M109,121
	c0,0-3,16-19,10"/>
<path fill="none" stroke="#1F4D69" stroke-width="6.0801" stroke-linecap="round" stroke-miterlimit="10" d="M108.754,164.311
	c0,0,7.561-14.417,21.098-3.989"/>
<path fill="none" stroke="#1F4D69" stroke-width="6.0801" stroke-linecap="round" stroke-miterlimit="10" d="M152.172,135.545
	c0,0-16.024,2.866-16.085-14.222"/>
</svg>
