<?xml version="1.0" encoding="utf-8"?>
<!-- Generator: Adobe Illustrator 19.0.0, SVG Export Plug-In . SVG Version: 6.00 Build 0)  -->
<svg version="1.1" id="Capa_1" xmlns="http://www.w3.org/2000/svg" xmlns:xlink="http://www.w3.org/1999/xlink" x="0px" y="0px"
	 viewBox="0 0 140.6 204.7" style="enable-background:new 0 0 140.6 204.7;" xml:space="preserve">
<style type="text/css">
	.st0{fill:#F1F1F1;}
	.st1{fill:#FA8510;}
	.st2{fill:#C0C0C0;}
	.st3{fill:none;stroke:#1F4D69;stroke-width:5;stroke-linecap:round;stroke-linejoin:round;stroke-miterlimit:10;}
	.st4{fill:none;stroke:#1F4D69;stroke-width:5;stroke-miterlimit:10;}
	.st5{fill:none;stroke:#1F4D69;stroke-width:5;stroke-linecap:round;stroke-miterlimit:10;}
</style>
<path id="XMLID_2_" class="st0" d="M42.9,80.9c0,0-28.9-6.3-17.1-51.2c0,0,7.2-18.5,29.1-19.3c21.9-0.8,33.1,30.5,32.2,39.1
	S77.1,77.9,77.1,77.9L79.2,96l45,25.2l11.4,22.8L65.2,198L6,154l0-22.1l41.6-27.7l2.4-4.8L42.9,80.9z"/>
<g id="XMLID_14_">
	<path id="XMLID_89_" class="st1" d="M36.8,43.3c6.2,0.3,12.9,0.2,18.9-1.7c8.8-2.7,16.1-8.2,21.4-15.1c-1.6-2.9-3.3-5.8-4.9-8.8
		c-0.2-0.5-0.5-0.9-0.8-1.3c-5.1,6.2-12.7,10.1-20.8,11c-5.1,2.4-10.8,3.3-16.4,2c-2.5-0.6-4.9-1.7-7-3.4c-2.4,4.1-3.8,8.7-4.3,13.6
		C26.6,42.6,32.6,43.1,36.8,43.3z"/>
	<path id="XMLID_88_" class="st2" d="M124.4,129.8c-4.1-4.1-9.8-3.4-14,0c-5.1,4.1-11.3,6.8-17,9.9c-5.1,2.8-9.8,6.2-14.5,9.5
		c-6.4,4.4-13.5,9.4-18.6,15.6c-4.8-3.2-9.9-6.2-15-9c-4.3-2.3-8.6-4.7-12.8-7.1c-4.5-2.6-8.7-6-13.5-8.1
		c-4.9-2.2-10.6-1.5-13.5,3.5C3,148.3,4.1,155.4,9,157.6c3.8,1.7,7.2,4.3,10.8,6.5c4.1,2.5,8.4,4.8,12.7,7.2
		c8.2,4.5,16.7,8.9,24,14.9c5.6,4.6,14.4,3.3,16.5-4.3c0.2-0.9,0.8-2.3,1.7-3.5c1.6-2,3.5-3.8,5.5-5.5c3.7-3.3,7.8-6,11.9-8.8
		c10.5-7.2,22.4-12.4,32.3-20.3C128.6,140.4,127.9,133.3,124.4,129.8z"/>
	<g id="XMLID_15_">
		<g id="XMLID_137_">
			<path id="XMLID_144_" class="st3" d="M125.9,121.7l9.7,22.3c0,0-68.3,54.6-70,54.1c-1.7-0.6-59-44-59-44l0-21.7l55,40
				L125.9,121.7z"/>
			<line id="XMLID_143_" class="st3" x1="15.2" y1="128.9" x2="48.4" y2="104.5"/>
			<line id="XMLID_142_" class="st3" x1="124.2" y1="121.2" x2="79.2" y2="96"/>
			<path id="XMLID_141_" class="st4" d="M79.8,74.9l-1.2,5.7c-4.6,13.7,1.1,21.1,1.1,21.1c10.8,17.7,9.7,22.8,9.7,22.8
				s-2.9,12.5-20,14.2c-17.1,1.7-21.7-9.2-21.7-9.2s-3.4-5.1,1.7-18.2c5.2-13.1-6.8-25.7-9.6-27.4"/>
			<path id="XMLID_140_" class="st5" d="M26.2,67.9c0,0-13.1-33.7,10.4-52.5c0,0,22.8-13.1,36.5,2.9c13.7,16,18.2,29.7,10.2,49.6
				c-8,19.9-33.7,15.3-40.5,13c-6.8-2.3-14.2-9.2-14.2-9.2"/>
			<path id="XMLID_139_" class="st3" d="M50,125.4c0,0,5.1,8.6,20.5,4c0,0,10.3-1.5,14.3-10"/>
			<path id="XMLID_138_" class="st4" d="M31.4,26.9c0,0,10.3,8,28.5-2.8l7.7-3.8"/>
		</g>
	</g>
</g>
</svg>
