<?xml version="1.0" encoding="utf-8"?>
<!-- Generator: Adobe Illustrator 19.0.0, SVG Export Plug-In . SVG Version: 6.00 Build 0)  -->
<svg version="1.1" id="Capa_1" xmlns="http://www.w3.org/2000/svg" xmlns:xlink="http://www.w3.org/1999/xlink" x="0px" y="0px"
	 viewBox="-318 85.1 321.1 391.9" style="enable-background:new -318 85.1 321.1 391.9;" xml:space="preserve">
<style type="text/css">
	.st0{fill:#E0DFE6;}
	.st1{fill:none;stroke:#1F4D69;stroke-width:3;stroke-linecap:round;stroke-linejoin:round;stroke-miterlimit:10;}
	.st2{fill:none;stroke:#939393;stroke-width:9;stroke-linecap:round;stroke-linejoin:round;stroke-miterlimit:10;}
	.st3{fill:#1F4D69;stroke:#1F4D69;stroke-width:3;stroke-linecap:round;stroke-linejoin:round;stroke-miterlimit:10;}
	.st4{fill:#296684;stroke:#1F4D69;stroke-width:3;stroke-linecap:round;stroke-linejoin:round;stroke-miterlimit:10;}
	.st5{fill:#1F4D69;}
</style>
<g>
	<path class="st0" d="M-280.3,368.5c0,0,17-37.1,39.9-37.1s53.4,39.9,83,20c29.6-20-3.3-53,32.5-52.4c35.9,0.5,61.3-30.9,59.8-84.4
		s14.6-102,30.5-111v298.8h-245.7L-280.3,368.5L-280.3,368.5z"/>
	<rect x="-280.3" y="103.6" class="st1" width="245.7" height="298.4"/>
	<line class="st2" x1="-224.2" y1="274" x2="-90.8" y2="274"/>
	<line class="st2" x1="-240.5" y1="294.1" x2="-74.5" y2="294.1"/>
	<line class="st2" x1="-204.4" y1="316.5" x2="-110.5" y2="316.5"/>
	<line class="st2" x1="-217.6" y1="339" x2="-97.3" y2="339"/>
	<line class="st2" x1="-204.4" y1="361.3" x2="-110.5" y2="361.3"/>
	<polygon class="st3" points="-157.5,402.5 -34.6,402.5 -96,430.5 -157.5,458.5 -218.9,430.5 -280.3,402.5 	"/>
	<polygon class="st4" points="-157.5,458.5 -157.5,402.5 -280.3,402.5 	"/>
	<g>
		<path class="st5" d="M-212.9,174.4h-7.7c-2.9,0-5.1-2.1-5.1-4.6c0-2,2.3-4.7,5.1-4.7h25.6c2.6,0,5.2,2,5.2,4.7
			c0,2.5-2.4,4.6-5.2,4.6h-7.7v38c0,2.5-2.3,4.7-5.1,4.7c-2.8,0-5.1-2.2-5.1-4.7V174.4z"/>
		<path class="st5" d="M-178.1,174.7c-3.2,0-5.7-2.3-5.7-5.1c0-2.8,2.5-5.1,5.7-5.1c3.2,0,5.7,2.3,5.7,5.1
			C-172.4,172.4-174.9,174.7-178.1,174.7z M-173.1,212.4c0,2.5-2.2,4.5-5,4.5s-5-2-5-4.5v-28.6c0-2.4,2.2-4.4,5-4.4s5,2,5,4.4V212.4
			z"/>
		<path class="st5" d="M-152.8,215.4v12c0,2.5-1.8,4.4-5,4.4s-5-2-5-4.4v-36.9c0-1.7-0.2-2.5-0.8-3.4c-0.6-0.7-1-1.3-1-2.3
			c0-2.7,2.5-4.4,4.8-4.4c1.5,0,2.8,0.8,3.8,2c3.5-2,6.4-3.2,10.2-3.2c8.4,0,13.2,5.8,13.2,14.2v8.4c0,8.6-3.4,15-13.9,15
			C-148.4,216.8-150.2,216.6-152.8,215.4z M-152.8,207.6c2.2,0.7,4,0.9,5.3,0.9c3.6,0,4.9-2.2,4.9-6.8v-8.4c0-3.8-1.6-5.8-4.7-5.8
			c-1.5,0-3.3,0.5-5.6,1.5c0.1,0.5,0.1,0.9,0.1,1.4V207.6z"/>
		<path class="st5" d="M-112.1,179.1c4.7,0,11.8,1.2,11.8,6.2c0,3.1-2.8,3.7-4.3,3.7c-2.5,0-3.9-1.5-7.4-1.5c-2.8,0-4.2,0.9-4.2,2.6
			c0,1,0.6,1.7,2.2,2.4c5.2,2.3,14.8,3.3,14.8,12.9c0,7.1-5,11.5-14.2,11.5c-4.7,0-13.1-1.2-13.1-5.7c0-2.1,1.9-4.3,4.7-4.3
			c2.4,0,4.7,1.6,8.2,1.6c2.6,0,4.4-0.9,4.4-2.9c0-1.3-0.7-1.9-1.5-2.3c-4.7-2.6-15.4-2.8-15.4-12.9
			C-126.2,183.7-121.4,179.1-112.1,179.1z"/>
	</g>
</g>
</svg>
